<!-- Generated by IcoMoon.io -->
<svg version="1.1" xmlns="http://www.w3.org/2000/svg" width="45" height="32" viewBox="0 0 45 32">
<title>aeon</title>
<path fill="#5fbcd3" d="M28.349 18.418l-0 0c2.492-7.166 1.732-13.942-1.698-15.134l0 0c-3.43-1.193-8.231 3.649-10.723 10.814l0-0c-2.492 7.166-1.732 13.942 1.698 15.134l-0-0c3.43 1.193 8.231-3.649 10.723-10.814z"></path>
<path fill="#2c89a0" d="M26.133 21.482l-0 0c6.027-4.608 9.125-10.682 6.919-13.567l0 0c-2.206-2.885-8.879-1.488-14.906 3.12l0-0c-6.027 4.608-9.125 10.682-6.919 13.567l-0-0c2.206 2.885 8.879 1.488 14.906-3.12z"></path>
<path fill="#164450" d="M21.398 9.725h-0c7.538-0.855 13.981 1.377 14.39 4.985v-0c0.409 3.608-5.37 7.226-12.908 8.081h0c-7.538 0.855-13.981-1.377-14.39-4.985v0c-0.409-3.608 5.37-7.226 12.908-8.081z"></path>
<path fill="#fff" d="M26.522 12.139c-0.638 0.002-1.241 0.122-1.808 0.36-0.572 0.238-1.128 0.6-1.667 1.088-0.26-0.553-0.792-0.943-1.262-1.119-0.454-0.169-1.025-0.253-1.713-0.251-0.481 0.002-0.98 0.038-1.497 0.109-0.513 0.067-1.039 0.165-1.58 0.297l-0.361 1.894c0.434-0.214 0.888-0.375 1.364-0.483 0.48-0.108 0.984-0.163 1.511-0.165 0.555-0.002 0.976 0.075 1.263 0.231 0.287 0.152 0.431 0.38 0.432 0.685 0 0.023-0.002 0.049-0.007 0.076 0 0.028-0.007 0.072-0.020 0.132l-0.041 0.201-1.421 0.005c-1.461 0.005-2.574 0.273-3.339 0.802-0.761 0.525-1.139 1.287-1.136 2.285 0.002 0.652 0.226 1.164 0.671 1.537s1.060 0.558 1.846 0.555c0.638-0.002 1.241-0.122 1.808-0.36 0.572-0.238 1.128-0.6 1.667-1.087 0.26 0.553 0.792 0.943 1.262 1.119 0.454 0.169 1.025 0.253 1.713 0.25 0.481-0.002 0.98-0.038 1.497-0.109 0.513-0.067 1.039-0.165 1.58-0.297l0.361-1.894c-0.434 0.214-0.888 0.375-1.364 0.483-0.48 0.108-0.984 0.163-1.511 0.165-0.555 0.002-0.976-0.075-1.263-0.231-0.287-0.152-0.431-0.38-0.432-0.685-0-0.023 0.002-0.049 0.007-0.076-0-0.028 0.007-0.072 0.020-0.132l0.041-0.201 1.421-0.005c1.461-0.005 2.574-0.273 3.339-0.802 0.761-0.525 1.139-1.287 1.136-2.285-0.002-0.652-0.226-1.164-0.671-1.537s-1.060-0.558-1.846-0.555zM25.432 13.793c0.328-0.001 0.587 0.079 0.777 0.24 0.185 0.161 0.279 0.383 0.28 0.665 0.001 0.374-0.155 0.657-0.468 0.847-0.318 0.195-0.787 0.294-1.406 0.296l-1.193 0.004 0.055-0.284c0.114-0.56 0.341-0.995 0.682-1.306 0.341-0.306 0.766-0.46 1.274-0.462zM19.663 16.676l1.193-0.004-0.055 0.284c-0.114 0.56-0.341 0.995-0.682 1.306-0.341 0.306-0.766 0.46-1.274 0.462-0.328 0.001-0.587-0.079-0.777-0.24-0.185-0.161-0.279-0.383-0.28-0.665-0.001-0.374 0.155-0.657 0.468-0.848 0.318-0.195 0.787-0.294 1.406-0.296z"></path>
</svg>
