<!-- Generated by IcoMoon.io -->
<svg version="1.1" xmlns="http://www.w3.org/2000/svg" width="32" height="32" viewBox="0 0 32 32">
<title>ampl</title>
<path d="M0.021 32c-0.026-0.444-0.028-0.89-0.004-1.334 0.151-0.046 0.306-0.077 0.462-0.095 0.456-0.078 0.906-0.183 1.349-0.314 0.121-0.039 0.241-0.079 0.36-0.125 0.584-0.222 1.097-0.591 1.489-1.069 0.271-0.335 0.51-0.694 0.712-1.072 0.285-0.521 0.539-1.058 0.764-1.607 0.454-1.108 0.906-2.218 1.355-3.33 1.543-3.822 3.086-7.645 4.628-11.469 1.463-3.635 2.898-7.28 4.306-10.934 0.028-0.074 0.060-0.148 0.092-0.222 0.519-0.144 1.032-0.29 1.562-0.428 0.032 0.074 0.061 0.14 0.085 0.207 0.596 1.63 1.192 3.262 1.788 4.896 2.032 5.564 4.071 11.125 6.162 16.667 0.572 1.515 1.148 3.029 1.729 4.54 0.229 0.617 0.498 1.22 0.807 1.803 0.135 0.249 0.283 0.493 0.44 0.728 0.484 0.738 1.235 1.27 2.103 1.49 0.467 0.121 0.941 0.213 1.42 0.276l0.341 0.049c0.048 0.148 0.019 0.291 0.023 0.434s0 0.302 0 0.454c0.005 0.146 0.002 0.292-0.008 0.438-0.048 0.007-0.086 0.016-0.125 0.019-0.054 0-0.107 0-0.161 0h-11.815c-0.013-0.026-0.022-0.053-0.027-0.081 0-0.401 0-0.801 0-1.202 0.003-0.018 0.009-0.036 0.016-0.053 0.099-0.027 0.2-0.046 0.303-0.056 0.492-0.064 0.98-0.157 1.46-0.279 0.193-0.053 0.383-0.121 0.571-0.19 0.094-0.036 0.184-0.080 0.271-0.13 0.473-0.262 0.663-0.667 0.623-1.186-0.021-0.236-0.064-0.469-0.127-0.697-0.095-0.356-0.227-0.702-0.351-1.048-2.481-6.78-4.934-13.569-7.361-20.368-0.026-0.074-0.034-0.156-0.111-0.222-0.024 0.015-0.057 0.026-0.076 0.048-0.020 0.034-0.034 0.071-0.045 0.109-1.186 3.343-2.45 6.658-3.708 9.977-0.929 2.457-1.859 4.913-2.724 7.391-0.347 0.994-0.681 1.993-1.008 2.992-0.127 0.382-0.221 0.775-0.28 1.172-0.047 0.266-0.055 0.537-0.024 0.805 0.040 0.351 0.229 0.669 0.52 0.877 0.191 0.134 0.402 0.239 0.624 0.313 0.354 0.122 0.719 0.214 1.090 0.274 0.409 0.074 0.82 0.13 1.231 0.194 0.027 0.004 0.052 0.010 0.088 0.016 0.011 0.029 0.018 0.060 0.021 0.090 0 0.388 0 0.775 0 1.163-0.003 0.023-0.008 0.046-0.016 0.068-0.037 0.008-0.074 0.014-0.111 0.018-0.054 0-0.107 0-0.161 0l-10.552 0.002z"></path>
</svg>
