<!-- Generated by IcoMoon.io -->
<svg version="1.1" xmlns="http://www.w3.org/2000/svg" width="32" height="32" viewBox="0 0 32 32">
<title>aywa</title>
<path fill="#000" d="M31.688 16c0-8.664-7.024-15.688-15.688-15.688s-15.688 7.024-15.688 15.688c0 8.664 7.024 15.688 15.688 15.688s15.688-7.024 15.688-15.688zM32 16c0 8.837-7.163 16-16 16s-16-7.163-16-16c0-8.837 7.163-16 16-16s16 7.163 16 16z"></path>
<path fill="#340682" d="M31.25 16c0-8.422-6.828-15.25-15.25-15.25s-15.25 6.828-15.25 15.25c0 8.422 6.828 15.25 15.25 15.25s15.25-6.828 15.25-15.25z"></path>
<path fill="#ffeb00" d="M19.349 24.164l0.118-0.172 0.231-0.348 0.224-0.355 0.217-0.36 0.21-0.366 0.203-0.371 0.196-0.376 0.188-0.38 0.181-0.384 0.173-0.388 0.165-0.391 0.157-0.394 0.149-0.396 0.141-0.398 0.086-0.26 2.39-0.021 0.262-1.57-2.204 0.019 0.043-0.175 0.090-0.402 0.081-0.401 0.072-0.4 0.062-0.399 0.053-0.397 0.044-0.395 0.034-0.392 0.013-0.195 0.011-0.194 0.009-0.194 0.001-0.019 1.705-0.557-0.458-1.592-1.287 0.42-0.019-0.206-0.029-0.252-0.034-0.247-0.038-0.242-0.043-0.237-0.048-0.231-0.052-0.226-0.057-0.22-0.061-0.215-0.065-0.21-0.070-0.204-0.074-0.198-0.078-0.193-0.082-0.187-0.086-0.181-0.090-0.176-0.094-0.17-0.098-0.164-0.101-0.158-0.105-0.153-0.108-0.147-0.112-0.141-0.115-0.135-0.119-0.129-0.122-0.123-0.125-0.117-0.129-0.111-0.132-0.104-0.135-0.098-0.138-0.092-0.141-0.086-0.143-0.080-0.146-0.073-0.149-0.067-0.152-0.060-0.154-0.054-0.157-0.048-0.159-0.041-0.161-0.035-0.164-0.028-0.166-0.021-0.168-0.015-0.17-0.008-0.172-0.001-0.174 0.005-0.176 0.012-0.178 0.019-0.18 0.026-0.181 0.033-0.183 0.040-0.185 0.047-0.186 0.053-0.188 0.061-0.189 0.068-0.19 0.075-0.192 0.082-0.193 0.089-0.194 0.096-0.195 0.103-0.196 0.111-0.197 0.118-0.197 0.125-0.198 0.133-0.199 0.14-0.198 0.147-0.197 0.152-0.195 0.158-0.193 0.163-0.191 0.168-0.189 0.174-0.187 0.179-0.185 0.183-0.183 0.188-0.18 0.193-0.178 0.197-0.176 0.202-0.173 0.206-0.171 0.21-0.169 0.214-0.166 0.218-0.163 0.222-0.161 0.226-0.158 0.229-0.155 0.233-0.153 0.236-0.15 0.239-0.147 0.242-0.144 0.245-0.141 0.248-0.138 0.25-0.135 0.253-0.131 0.255-0.128 0.258-0.125 0.26-0.121 0.262-0.118 0.264-0.115 0.266-0.111 0.267-0.108 0.269-0.104 0.27-0.1 0.272-0.097 0.273-0.093 0.274-0.089 0.275-0.054 0.174-2.235 0.729 0.458 1.592 0.27-0.088 0.96-0.008-0.019 0.1-0.048 0.278-0.043 0.278-0.039 0.277-0.034 0.276-0.030 0.276-0.025 0.275-0.020 0.274-0.016 0.273-0.011 0.271-0.006 0.27-0.001 0.269 0.004 0.267 0.009 0.265 0.014 0.263 0.019 0.261 2.373-1.712-0.018-0.255-0.011-0.259-0.004-0.262 0.003-0.265 0.010-0.267 0.017-0.269 0.024-0.271 0.030-0.273 0.037-0.275 0.013-0.084 9.769-0.086-0.057 0.157-0.072 0.189-0.075 0.189-0.078 0.188-0.081 0.187-0.083 0.186-0.086 0.186-0.089 0.184-0.091 0.183-0.094 0.182-0.097 0.181-0.099 0.179-0.102 0.178-0.105 0.176-0.107 0.175-0.11 0.173-0.112 0.171-0.115 0.169-0.117 0.167 1.237 2.086zM10.9 15.696l0.114-0.27 0.12-0.268 0.125-0.266 0.13-0.263 0.135-0.26 0.14-0.257 0.145-0.253 0.15-0.249 0.155-0.245 0.16-0.241 0.165-0.236 0.119-0.164 0.12-0.16 0.121-0.156 0.122-0.152 0.123-0.148 0.124-0.144 0.125-0.14 0.125-0.136 0.126-0.131 0.127-0.127 0.127-0.123 0.128-0.119 0.128-0.115 0.128-0.11 0.129-0.106 0.129-0.102 0.129-0.098 0.129-0.093 0.129-0.089 0.129-0.085 0.129-0.080 0.129-0.076 0.129-0.072 0.129-0.067 0.129-0.063 0.128-0.058 0.128-0.054 0.128-0.050 0.127-0.045 0.126-0.041 0.126-0.036 0.125-0.032 0.124-0.027 0.124-0.023 0.123-0.018 0.122-0.014 0.121-0.009 0.12-0.005 0.119-0 0.118 0.005 0.117 0.009 0.115 0.014 0.114 0.018 0.113 0.023 0.111 0.028 0.11 0.032 0.108 0.037 0.107 0.042 0.105 0.046 0.103 0.051 0.101 0.056 0.1 0.061 0.098 0.065 0.096 0.070 0.094 0.075 0.092 0.080 0.090 0.085 0.087 0.089 0.085 0.094 0.083 0.099 0.081 0.104 0.078 0.109 0.076 0.114 0.073 0.119 0.070 0.123 0.067 0.126 0.063 0.13 0.060 0.133 0.057 0.136 0.053 0.139 0.050 0.142 0.047 0.145 0.043 0.148 0.040 0.15 0.037 0.153 0.023 0.108-9.591 3.13zM20.573 14.465l0 0.037-0.002 0.178-0.005 0.179-0.008 0.181-0.011 0.182-0.014 0.183-0.017 0.184-0.020 0.185-0.023 0.186-0.026 0.187-0.029 0.188-0.032 0.189-0.035 0.189-0.038 0.19-0.041 0.19-0.041 0.18-8.493 0.075z"></path>
</svg>
