<!-- Generated by IcoMoon.io -->
<svg version="1.1" xmlns="http://www.w3.org/2000/svg" width="37" height="32" viewBox="0 0 37 32">
<title>beam</title>
<path fill="#0b76ff" d="M18.616 21.403h7.693l-7.692-13.325 0.001-8.078 15.074 25.692h-15.077z"></path>
<path fill="#24c1ff" d="M18.615 21.403h-7.693l7.692-13.325-0.001-8.078-15.074 25.692h15.077z"></path>
<path fill="#25c1ff" d="M7.846 31.973v-3.176c0.181-0.009 0.63-0.027 0.982-0.027 0.774 0 1.089 0.351 1.089 0.794 0 0.333-0.13 0.557-0.371 0.712v0.009c0.236 0.087 0.463 0.319 0.463 0.73 0 0.671-0.528 0.986-1.232 0.986-0.31 0-0.741-0.009-0.931-0.027zM8.875 30.69h-0.287v0.598c0.051 0.014 0.111 0.027 0.25 0.027 0.287 0 0.431-0.123 0.431-0.338 0-0.201-0.153-0.287-0.394-0.287zM8.819 29.454c-0.093 0-0.148 0.009-0.232 0.018v0.58h0.246c0.19 0 0.343-0.078 0.343-0.31 0-0.192-0.176-0.287-0.357-0.287zM13.793 31.982v-3.194h1.923v0.684h-1.181v0.561h1.042v0.684h-1.042v0.58h1.228v0.684h-1.969zM19.129 31.982l1.348-3.194h0.663l1.348 3.194h-0.792l-0.269-0.671h-1.283l-0.269 0.671h-0.746zM20.787 29.723l-0.366 0.904h0.727l-0.361-0.904zM25.993 31.982v-3.194h0.746l1.001 1.346 0.945-1.346h0.7v3.194h-0.741v-2.035l-0.903 1.246h-0.107l-0.899-1.232v2.021h-0.741z"></path>
<path fill="#39fff2" d="M18.615 11.385v8.452l-4.769 0.009z"></path>
<path fill="#00e2c2" d="M18.615 11.385v8.452l4.769 0.009z"></path>
<path fill="#000" d="M0 8.769l18.615 7.692v1.077l-18.615-4.615z"></path>
<path fill="#000" d="M37.231 5.543l-18.615 10.918v0.296l18.615-7.68z"></path>
<path fill="#000" d="M37.216 16.154l-18.601 1.383v-0.306l18.601-4.615z"></path>
<path fill="#000" d="M37.231 9.225l-18.615 7.55v0.456l18.615-4.769z"></path>
</svg>
