<!-- Generated by IcoMoon.io -->
<svg version="1.1" xmlns="http://www.w3.org/2000/svg" width="32" height="32" viewBox="0 0 32 32">
<title>bsv</title>
<path fill="#eab304" d="M8.949 26.653c-0.028-0.028 0.028 0.028 0 0v0z"></path>
<path fill="#eab304" d="M23.716 12.357c0.028-0.055 0.055-0.111 0.083-0.166 0.028-0.083 0.028-0.166 0.166-0.111 0 0 0.055-0.028 0.055-0.055 0.028-0.083 0.055-0.139 0.055-0.222 0.028-0.111 0.028-0.222-0.028-0.332-0.139-0.416-0.222-0.831-0.083-1.274 0.028-0.055 0.028-0.111 0.028-0.166 0-0.028 0.055-0.055 0.083-0.083 0.028 0.028 0.055 0.055 0.083 0.111s0.028 0.111 0.028 0.166c0 0.028 0.028 0.055 0.028 0.083 0.055-0.055 0.139-0.083 0.194-0.139 0.028-0.028 0.055-0.083 0.028-0.111-0.028-0.222-0.055-0.443-0.083-0.637-0.083-0.443-0.055-0.859 0.166-1.302 0.028 0.083 0.111 0.139 0.111 0.222 0.028 0.305 0.139 0.582 0.36 0.803 0.249 0.277 0.416 0.61 0.526 0.942 0.028 0.055 0.055 0.111 0.083 0.111 0.36 0.083 0.637 0.305 0.887 0.526 0.277 0.249 0.554 0.526 0.803 0.803 0.055 0.055 0.083 0.111 0.111 0.166 0.028-0.028 0.055-0.028 0.083-0.055-0.028-0.249 0-0.526-0.055-0.776-0.028-0.222 0.111-0.443 0.332-0.416 0.028 0 0.083-0.028 0.111-0.055 0.083-0.139 0.139-0.194 0.36-0.249 0.083 0.166 0.055 0.332-0.028 0.471 0.166 0.194 0.194 0.305 0.028 0.526-0.111 0.139-0.111 0.249-0.028 0.471 0.055-0.111 0.083-0.249 0.139-0.36 0.055-0.139 0.083-0.305 0.222-0.36 0.028-0.028 0.083-0.028 0.139-0.028 0.139 0.055 0.277 0.028 0.416 0.028 0.222 0 0.332 0.083 0.416 0.249-0.111 0.028-0.194 0.055-0.305 0.083-0.028 0-0.055 0.055-0.028 0.083 0.083 0.166-0.055 0.222-0.166 0.332-0.083 0.083-0.166 0.166-0.222 0.249 0.139-0.028 0.277-0.083 0.443-0.111 0.194-0.055 0.416 0.055 0.499 0.249 0.028 0.055 0.083 0.139 0.139 0.166 0.139 0.111 0.166 0.249 0.194 0.388 0 0.028 0 0.055-0.028 0.111-0.083-0.055-0.139-0.111-0.222-0.166-0.083-0.083-0.166-0.083-0.249 0s-0.166 0.139-0.305 0.055c-0.166-0.111-0.36-0.055-0.526 0.028-0.111 0.083-0.249 0.139-0.388 0.222 0.332 0.055 0.61 0.194 0.776 0.499 0.083 0.166 0.194 0.332 0.277 0.499s0 0.332-0.194 0.416c0-0.028 0-0.055 0-0.083-0.028-0.139-0.083-0.166-0.222-0.139-0.166 0.055-0.305-0.028-0.388-0.194-0.166-0.305-0.416-0.499-0.72-0.61-0.083-0.028-0.166-0.083-0.249-0.111-0.028 0.111-0.055 0.222-0.111 0.305-0.028 0.055-0.083 0.111-0.139 0.166-0.166 0.139-0.166 0.166-0.055 0.36 0.028 0.055 0.083 0.111 0.139 0.194-0.194 0-0.36-0.055-0.471-0.194-0.111-0.166-0.222-0.36-0.277-0.554-0.083-0.194 0.028-0.36 0.166-0.526 0.083-0.083 0.139-0.166 0.194-0.277-0.277-0.083-0.554-0.139-0.831-0.222 0.028 0.139 0.055 0.249 0.055 0.388 0.028 0.471 0.083 0.942 0.055 1.413-0.028 0.693-0.139 1.385-0.332 2.078-0.139 0.526-0.332 1.025-0.582 1.496-0.222 0.416-0.443 0.859-0.72 1.247-0.222 0.332-0.471 0.637-0.748 0.942s-0.582 0.637-0.914 0.887c-0.36 0.305-0.748 0.554-1.108 0.803-0.554 0.36-1.191 0.637-1.829 0.831-0.443 0.139-0.887 0.222-1.33 0.305-0.249 0.055-0.499 0.083-0.748 0.111-0.139 0.028-0.305 0.194-0.332 0.332-0.055 0.416-0.305 0.665-0.61 0.914-0.139 0.111-0.305 0.194-0.471 0.305 0 0-0.028-0.028-0.028-0.028 0.028-0.083 0.055-0.166 0.083-0.249 0.028-0.111 0-0.222-0.083-0.305s-0.194-0.055-0.305-0.028c-0.166 0.055-0.194 0.139-0.222 0.305-0.028 0.332-0.249 0.526-0.526 0.693-0.055 0.028-0.083 0.055-0.139 0.055 0.028-0.111 0.083-0.222 0.083-0.305s-0.083-0.166-0.139-0.249c-0.028-0.028-0.111 0.028-0.166 0.055-0.166 0.083-0.332 0.166-0.499 0.249-0.055 0.028-0.083 0.055-0.166 0.083 0.166 0.083 0.305 0.139 0.443 0.194 0.249 0.139 0.443 0.305 0.554 0.554 0.083 0.139 0.111 0.305 0 0.443-0.028 0.028-0.028 0.083 0 0.139 0.055 0.277 0.055 0.582-0.111 0.831-0.055 0.083-0.139 0.166-0.194 0.249-0.055-0.249-0.111-0.499-0.166-0.748 0-0.028-0.055-0.111-0.111-0.111-0.388 0.028-0.61-0.194-0.803-0.471-0.028-0.028-0.028-0.055-0.083-0.111-0.139 0.249-0.388 0.332-0.61 0.416-0.36 0.139-0.554 0.443-0.693 0.803-0.055 0.194-0.139 0.388-0.194 0.582-0.111 0.36-0.305 0.388-0.665 0.305 0.028 0.139 0.028 0.277 0.055 0.443-0.249-0.083-0.36-0.332-0.305-0.61 0-0.055 0-0.139-0.028-0.194-0.194-0.36-0.028-0.748 0.249-0.942 0.222-0.166 0.443-0.388 0.582-0.61 0.028-0.028 0.028-0.083 0.028-0.083-0.332-0.028-0.637-0.055-0.97-0.083-0.222-0.028-0.416-0.055-0.61 0.083-0.055 0.055-0.111 0.111-0.166 0.166-0.249 0.277-0.36 0.305-0.693 0.139-0.139 0.222-0.166 0.471-0.139 0.748-0.139-0.111-0.194-0.277-0.249-0.443-0.028-0.083 0-0.194 0-0.277 0-0.055-0.055-0.083-0.055-0.139-0.028-0.083-0.055-0.166-0.028-0.249 0.083-0.249 0.305-0.388 0.499-0.499 0.249-0.139 0.526-0.277 0.831-0.277 0.222 0 0.443 0 0.665 0.028 0.055 0 0.083 0.028 0.166 0.028-0.111-0.305-0.332-0.416-0.554-0.526-0.222-0.083-0.416-0.166-0.637-0.249-0.139-0.055-0.194-0.139-0.194-0.277 0-0.083-0.055-0.111-0.111-0.111-0.194 0-0.388 0.055-0.554 0.166 0.083-0.249 0.194-0.499 0.471-0.554 0.111-0.028 0.249 0 0.36 0 0.028 0 0.083 0 0.111-0.028 0.166-0.249 0.416-0.194 0.637-0.083 0.332 0.166 0.582 0.388 0.776 0.72 0.083 0.166 0.222 0.277 0.416 0.332-0.028-0.222-0.055-0.443-0.083-0.637-0.028-0.222-0.139-0.36-0.332-0.416-0.277-0.083-0.36-0.277-0.222-0.582-0.194-0.194-0.443-0.194-0.693-0.139 0.083-0.222 0.416-0.305 0.637-0.277 0.028 0 0.055 0 0.055 0.028 0.222 0.111 0.416 0.194 0.665 0.166 0.139 0 0.277 0.139 0.36 0.277 0.055 0.111 0.111 0.222 0.166 0.332 0.139 0.249 0.249 0.526 0.36 0.776 0.166-0.471 0.36-0.97 0.554-1.496-0.083-0.028-0.166-0.083-0.277-0.111-0.277-0.111-0.526-0.222-0.803-0.332-0.61-0.249-1.191-0.61-1.745-0.997-0.083-0.055-0.194-0.083-0.305-0.111-0.083-0.028-0.194 0.111-0.139 0.194s0.139 0.111 0.194 0.194c0.028 0.028 0.055 0.083 0.111 0.139-0.055 0-0.083 0.028-0.139 0.028-0.443 0.028-0.693-0.249-0.887-0.582-0.166-0.332-0.277-0.72-0.305-1.108 0-0.028 0-0.055-0.028-0.083-0.249-0.277-0.499-0.554-0.748-0.831-0.028 0.166-0.055 0.305 0.028 0.443 0.028 0.055 0.055 0.111 0.083 0.166 0 0.055 0 0.139 0 0.194-0.083-0.028-0.194 0-0.222-0.055-0.111-0.139-0.249-0.305-0.305-0.471-0.111-0.416-0.166-0.831-0.249-1.247-0.028-0.194-0.111-0.36-0.166-0.554-0.055-0.222-0.139-0.443-0.222-0.665 0 0-0.028 0-0.028 0 0 0.083-0.028 0.166-0.028 0.249 0 0.055 0.055 0.139 0.055 0.194s-0.028 0.139-0.028 0.194c-0.055-0.028-0.139-0.055-0.166-0.111-0.139-0.222-0.194-0.471-0.222-0.72-0.028-0.582 0.083-1.164 0.249-1.745 0.055-0.194 0.111-0.416 0.194-0.61 0 0-0.028 0-0.028-0.028-0.028 0.083-0.055 0.139-0.111 0.222-0.028 0.055-0.083 0.083-0.111 0.111-0.028-0.055-0.055-0.083-0.055-0.139-0.028-0.277 0.083-0.499 0.194-0.748 0.194-0.443 0.443-0.887 0.665-1.33 0.083-0.166 0.194-0.277 0.305-0.443-0.055 0.055-0.139 0.139-0.194 0.194-0.028 0.028-0.083 0.055-0.139 0.083 0-0.055-0.055-0.139-0.028-0.166 0.083-0.139 0.166-0.249 0.249-0.36 0.277-0.305 0.554-0.61 0.914-0.831 0.055-0.055 0.166-0.055 0.249-0.055 0.388 0.083 0.748 0.166 1.136 0.249 0.139 0.028 0.277 0.083 0.416 0.111-0.111 0.139-0.222 0.249-0.277 0.388-0.083 0.139-0.111 0.277-0.055 0.443 0.028 0.083 0 0.139-0.055 0.194-0.305 0.194-0.443 0.526-0.665 0.803-0.028 0.028 0 0.083 0.028 0.111 0.194 0.194 0.388 0.388 0.582 0.61 0.028 0.028 0.028 0.083 0.028 0.111-0.194 0.332-0.166 0.637 0 0.997 0.111 0.249 0.249 0.332 0.499 0.277 0.028 0 0.028 0 0.055 0 0 0.249 0.055 0.471 0.194 0.637 0.083 0.083 0.194 0.139 0.277 0.222 0.055 0.028 0.083 0.083 0.111 0.139 0.166 0.443 0.471 0.72 0.942 0.803 0.332 0.055 0.665-0.028 0.97-0.194 0.111-0.055 0.139-0.083 0.166 0.055 0.083 0.416 0.166 0.831 0.388 1.219 0.249 0.443 0.526 0.859 0.887 1.219 0.332 0.305 0.693 0.526 1.108 0.637 0.554 0.139 1.025-0.055 1.441-0.388 0.277-0.222 0.416-0.554 0.61-0.831 0.166-0.277 0.332-0.526 0.499-0.803 0.222-0.305 0.499-0.554 0.831-0.748 0.111-0.055 0.222-0.139 0.388-0.083-0.028 0.055-0.055 0.111-0.083 0.166-0.111 0.222-0.083 0.471 0.055 0.665 0.083 0.111 0.139 0.111 0.194 0 0.083-0.166 0.166-0.305 0.388-0.277 0.139 0 0.222-0.139 0.249-0.277 0.055-0.61 0.166-1.191 0.526-1.718 0.055-0.055 0.111-0.111 0.194-0.166 0 0.166 0 0.305 0 0.443 0.028 0.111 0.055 0.249 0.111 0.36 0.028 0 0.028 0 0.055 0 0.028-0.028 0.055-0.083 0.083-0.111 0.055-0.083 0.111-0.139 0.222-0.139 0.055 0 0.111-0.055 0.139-0.083 0.194-0.194 0.166-0.416 0.139-0.665-0.028-0.166-0.028-0.36 0-0.526 0.028-0.222 0.028-0.443 0.166-0.637 0.028-0.055 0.055-0.111 0.111-0.166 0.028-0.028 0.055-0.028 0.083-0.028s0.055 0.055 0.055 0.083c0 0.111 0 0.194 0 0.305 0 0.028 0.028 0.083 0.055 0.111 0.028 0 0.055-0.028 0.111-0.055 0.083-0.055 0.166-0.083 0.249-0.139 0.028 0 0.055-0.028 0.055-0.028 0.055-0.139 0.139-0.277 0.111-0.471-0.028-0.083-0.055-0.166-0.055-0.277 0-0.166 0-0.36 0-0.526 0-0.139 0.028-0.277 0.028-0.416 0-0.083 0.055-0.139 0.083-0.222 0.028-0.028 0.055-0.055 0.083-0.083 0.028 0.028 0.028 0.055 0.055 0.111 0.028 0.139 0.028 0.277 0.055 0.416-0.111-0.055-0.083-0.055-0.055-0.055z"></path>
<path fill="#eab304" d="M9.309 7.010c0.249-0.249 0.471-0.471 0.693-0.693 0.055-0.055 0.083-0.083 0.139-0.111 0.083-0.083 0.028-0.166-0.028-0.249s-0.111-0.055-0.194 0c-0.028 0.028-0.028 0.028-0.055 0.055s-0.083 0.028-0.111 0.028c0-0.055-0.028-0.083-0.028-0.139 0.055-0.277 0.249-0.443 0.499-0.526 0.305-0.111 0.637-0.083 0.942 0.028 0.055 0.028 0.111 0 0.166-0.028 0.222-0.111 0.443-0.249 0.665-0.36 0.111-0.055 0.083-0.111 0.028-0.166-0.083-0.055-0.194-0.139-0.305-0.028-0.028 0.028-0.083 0.028-0.139 0.028 0-0.194 0.194-0.36 0.388-0.443 0.332-0.111 0.665-0.083 0.97 0 0.028 0 0.055 0.028 0.083 0.055 0.166 0.194 0.332 0.111 0.526 0.055 0.166-0.055 0.305-0.083 0.471-0.139 0.111-0.028 0.111-0.083 0.055-0.139-0.083-0.111-0.194-0.166-0.305-0.083-0.028 0.028-0.055 0.028-0.111 0.028-0.055-0.111 0-0.166 0.055-0.194 0.222-0.166 0.471-0.194 0.72-0.166 0.222 0.028 0.443 0.083 0.637 0.249 0.028 0.028 0.055 0.028 0.083 0.055 0.083 0.083 0.166 0.139 0.332 0.111 0.139-0.055 0.305-0.055 0.443 0.055 0.028 0 0.083 0 0.083-0.028 0.028-0.028 0.055-0.083 0.028-0.111-0.028-0.139-0.166-0.249-0.332-0.249-0.028 0-0.055 0-0.083 0 0 0 0-0.028-0.028-0.028 0.083-0.055 0.166-0.111 0.249-0.139 0.249-0.083 0.499-0.055 0.748 0.055s0.443 0.249 0.61 0.471c0.028 0.055 0.139 0.083 0.194 0.083 0.166 0.028 0.332-0.028 0.471 0.083 0.028 0.028 0.083 0.055 0.111 0.111 0.083-0.194-0.055-0.443-0.249-0.443-0.028 0-0.083-0.028-0.083-0.028 0-0.028 0.028-0.111 0.055-0.111 0.139-0.028 0.277-0.083 0.388-0.055 0.36 0.055 0.693 0.222 0.914 0.554 0.083 0.139 0.139 0.277 0.194 0.443 0.194-0.028 0.388 0.055 0.526 0.222 0.028 0.028 0.083 0.028 0.083 0.028 0.028-0.028 0.055-0.083 0.083-0.139 0.028-0.166-0.139-0.36-0.305-0.416-0.028 0-0.055-0.028-0.083-0.028 0-0.028 0-0.028 0-0.055 0.111-0.028 0.194-0.083 0.305-0.055 0.166 0.028 0.36 0.055 0.499 0.139 0.388 0.194 0.582 0.554 0.693 0.914 0.194 0.111 0.332 0.222 0.471 0.305 0.055 0.028 0.111 0.028 0.166 0.055 0-0.055 0.028-0.139 0.028-0.194-0.028-0.194-0.166-0.305-0.305-0.388-0.028-0.028-0.055-0.055-0.111-0.083 0.305-0.083 0.526 0.055 0.72 0.222 0.222 0.166 0.36 0.416 0.471 0.693 0.028 0.083 0.055 0.139 0.166 0.194 0.083 0.055 0.166 0.139 0.249 0.222 0.111-0.305-0.139-0.471-0.222-0.693 0.222 0 0.36 0.111 0.471 0.222 0.166 0.166 0.305 0.36 0.443 0.554 0.083 0.139 0.166 0.277 0.277 0.416s0.111 0.332 0.166 0.499c0.083 0.416-0.111 0.776-0.166 1.164-0.028 0.249-0.028 0.499-0.028 0.776 0 0.028 0 0.083-0.028 0.111-0.249 0.166-0.305 0.443-0.36 0.693-0.083 0.36-0.055 0.693-0.028 1.053 0 0.028 0 0.083-0.028 0.083-0.36 0.222-0.499 0.582-0.526 0.97 0 0.166-0.028 0.332-0.028 0.526 0 0.028-0.028 0.083-0.055 0.083-0.332 0.083-0.499 0.305-0.637 0.582-0.083 0.166-0.111 0.36-0.194 0.526-0.028 0.055-0.111 0.111-0.166 0.166-0.028 0-0.028-0.028-0.055-0.028 0-0.055 0-0.111 0-0.166 0.083-0.36 0.083-0.72 0.083-1.108 0-0.554-0.083-1.108-0.305-1.607-0.028-0.083-0.028-0.139 0.055-0.194 0.194-0.194 0.305-0.443 0.332-0.693 0.055-0.388 0.055-0.748 0.055-1.136 0-0.277-0.083-0.526-0.277-0.748-0.166-0.194-0.526-0.249-0.748-0.139-0.36 0.166-0.526 0.443-0.554 0.831 0 0.139 0 0.249 0 0.416-0.443-0.443-0.942-0.748-1.468-0.942-0.305-0.111-0.637-0.194-0.97-0.249-0.166-0.028-0.332-0.028-0.499-0.055-0.111 0-0.194-0.028-0.305-0.028-0.471 0.028-0.942 0.055-1.358 0.222-0.249 0.083-0.471 0.194-0.72 0.277-0.055 0.028-0.139 0.028-0.166 0-0.526-0.332-1.108-0.554-1.69-0.72-0.277-0.083-0.554-0.111-0.859-0.139-0.526-0.083-1.081-0.166-1.607-0.277-0.443-0.083-0.859-0.277-1.247-0.499-0.028-0.166-0.083-0.222-0.139-0.277z"></path>
<path fill="#eab304" d="M20.391 12.523c-0.028 0.194-0.36 0.249-0.748 0.139 0 0.166 0 0.305 0 0.443 0 0.055-0.028 0.139-0.028 0.139-0.055 0-0.139 0-0.166-0.028-0.111-0.083-0.222-0.194-0.332-0.305-0.139 0.055-0.222 0.166-0.277 0.332-0.083 0.222-0.194 0.249-0.36 0.055-0.055-0.083-0.139-0.166-0.194-0.249-0.083 0.111-0.166 0.222-0.249 0.305-0.055 0.055-0.111 0.083-0.166 0.083-0.028 0-0.083-0.083-0.111-0.139-0.028-0.083-0.028-0.139-0.055-0.249-0.139 0.36-0.305 0.665-0.72 0.748 0.028-0.166 0.055-0.305 0.083-0.443 0-0.028-0.028-0.055-0.055-0.083-0.194 0.194-0.277 0.388-0.305 0.665-0.028 0.554 0.166 1.053 0.388 1.552 0.166 0.416 0.36 0.803 0.526 1.219 0.139 0.36 0.222 0.776 0.194 1.164-0.055 0.526-0.249 0.942-0.887 1.081-0.277 0.055-0.554-0.028-0.803-0.194-0.277-0.166-0.499-0.388-0.693-0.637-0.166-0.222-0.332-0.443-0.471-0.665-0.083-0.166-0.139-0.332-0.194-0.499-0.028-0.055 0-0.111 0-0.166 0.194-0.028 0.249 0.111 0.305 0.194 0.166 0.222 0.305 0.471 0.471 0.693 0.194 0.222 0.388 0.471 0.693 0.582 0.443 0.166 0.776-0.083 0.914-0.443 0.111-0.305 0.055-0.61-0.083-0.887-0.194-0.443-0.443-0.887-0.665-1.33-0.249-0.471-0.443-0.97-0.526-1.496-0.028-0.139 0-0.277 0-0.388-0.194 0-0.36 0.028-0.526 0s-0.332-0.083-0.526-0.139c-0.055 0.028-0.139 0.083-0.249 0.166 0.028-0.083 0.028-0.111 0.028-0.166 0.028-0.194-0.166-0.471-0.332-0.526-0.111-0.028-0.222 0.083-0.222 0.222-0.028 0.277 0.111 0.443 0.305 0.61 0.139 0.111 0.305 0.222 0.471 0.332 0.139 0.111 0.139 0.111 0.222-0.055 0.028-0.055 0.055-0.111 0.055-0.166 0 0 0.028 0 0.028 0 0.222 0.028 0.305 0.139 0.332 0.36 0.055 0.277 0.139 0.554 0.222 0.831 0.028 0.139-0.055 0.249-0.111 0.332-0.166 0.194-0.332 0.332-0.554 0.416-0.194 0.083-0.36 0.055-0.554 0 0.111-0.111 0.222-0.194 0.332-0.277 0.111-0.111 0.139-0.249 0.111-0.388 0-0.028-0.055-0.083-0.111-0.083-0.111 0-0.222-0.028-0.332 0-0.083 0-0.166 0.055-0.222 0.111-0.194 0.139-0.388 0.305-0.61 0.416-0.36 0.194-0.803 0.111-1.081-0.166-0.111-0.111-0.166-0.249-0.222-0.388-0.028-0.055-0.055-0.111-0.083-0.166-0.028 0-0.028 0-0.028 0-0.055 0.028-0.083 0.083-0.139 0.111-0.028-0.055-0.083-0.139-0.055-0.166 0.028-0.139 0.083-0.305 0.139-0.443 0.028-0.055 0.028-0.111 0-0.166-0.083-0.139-0.222-0.222-0.36-0.305-0.111-0.083-0.194-0.028-0.277 0.055-0.055 0.028-0.111 0.055-0.139 0.055 0-0.055-0.028-0.111-0.028-0.139 0.055-0.277 0.222-0.443 0.471-0.526 0.028 0 0.055-0.028 0.139-0.055-0.388-0.111-0.61-0.36-0.887-0.582-0.083-0.083-0.111-0.139 0-0.222 0.194-0.139 0.36-0.277 0.554-0.388 0.305-0.139 0.637-0.111 0.97-0.028 0.305 0.083 0.554 0.277 0.776 0.471 0.028 0.028 0.055 0.055 0.083 0.083-0.139-0.416-0.416-0.72-0.859-0.887-0.36-0.111-0.693-0.222-1.108-0.222 0.055-0.166 0.166-0.249 0.305-0.277 0.194-0.055 0.388-0.083 0.582-0.139 0.222-0.055 0.416-0.139 0.61-0.305-0.139-0.083-0.222-0.139-0.36-0.194-0.332-0.139-0.665-0.305-0.997-0.416-0.305-0.111-0.637-0.166-0.942-0.249-0.443-0.111-0.887-0.194-1.33-0.332-0.526-0.166-1.025-0.36-1.468-0.665-0.443-0.332-0.831-0.693-1.108-1.164-0.083-0.111-0.111-0.249-0.166-0.388-0.028-0.028 0-0.111 0.028-0.139s0.111 0 0.139 0c0.055 0.028 0.111 0.083 0.166 0.111 0.305 0.249 0.582 0.554 0.887 0.776 0.36 0.249 0.776 0.471 1.247 0.582 0.36 0.083 0.72 0.166 1.081 0.222 0.305 0.055 0.61 0.055 0.914 0.083 0.222 0.028 0.443 0.055 0.665 0.083 0.249 0.028 0.526 0.055 0.748 0.139 0.388 0.139 0.748 0.305 1.108 0.443 0.028 0.028 0.083 0.028 0.139 0 0.139-0.028 0.305-0.083 0.443-0.139 0-0.028 0-0.055 0-0.083-0.277-0.139-0.554-0.305-0.831-0.416-0.526-0.222-1.108-0.332-1.662-0.388-0.249-0.028-0.526-0.055-0.776-0.083-0.443-0.083-0.887-0.111-1.302-0.249-0.443-0.166-0.859-0.36-1.219-0.665-0.277-0.249-0.526-0.499-0.637-0.887 0-0.055-0.028-0.111 0-0.166 0-0.055 0.028-0.139 0.055-0.139 0.055 0 0.139 0 0.194 0.055 0.111 0.111 0.194 0.222 0.305 0.332 0.166 0.166 0.332 0.332 0.526 0.499 0.471 0.388 1.025 0.61 1.635 0.776 0.332 0.083 0.665 0.139 0.997 0.194 0.526 0.083 1.081 0.166 1.607 0.277 0.61 0.139 1.219 0.36 1.69 0.803 0.194 0.166 0.36 0.083 0.554 0.055s0.416 0.055 0.499 0.249c0.194 0.388 0.139 0.776 0.055 1.164-0.028 0.139 0.055 0.305 0.166 0.36 0.028 0.028 0.111 0 0.139 0 0.36-0.139 0.693-0.083 0.997 0.139 0.111 0.083 0.194 0.083 0.305 0.028 0.222-0.111 0.443-0.222 0.665-0.36 0.083-0.055 0.111-0.194 0.166-0.305 0.194-0.36 0.499-0.499 0.887-0.471 0.249 0 0.499 0.028 0.748 0.083 0.222 0.055 0.416 0 0.61-0.055 0.222-0.083 0.388-0.305 0.388-0.554 0-0.222 0-0.443 0-0.665 0-0.028 0-0.055 0-0.083 0.028-0.083 0.028-0.166 0.139-0.166s0.111 0.111 0.111 0.194c0.083 0.388 0.055 0.776-0.028 1.164-0.055 0.36-0.36 0.582-0.72 0.554-0.332 0-0.665-0.028-0.997-0.028-0.222 0-0.554 0.139-0.582 0.443 0 0.055 0 0.111 0.028 0.166 0.083 0.166 0.139 0.305 0.388 0.277 0.111 0 0.222 0.083 0.249 0.249 0.028 0.277 0.305 0.499 0.582 0.526 0.139 0.028 0.194 0.028 0.277 0.028zM13.853 11.719c0.166 0.166 0.305 0.305 0.443 0.416 0.166 0.139 0.36 0.166 0.554 0.055 0.139-0.083 0.305-0.194 0.443-0.305 0.028-0.028 0.055-0.055 0.028-0.083-0.028-0.139-0.111-0.277-0.222-0.305-0.083-0.028-0.222 0.028-0.305 0.055-0.055 0.028-0.111 0.055-0.194 0.083-0.194 0.055-0.388 0.111-0.61 0.055-0.028 0-0.055 0-0.139 0.028zM17.676 12.107c0 0.028 0 0.028-0.028 0.055 0.055 0.028 0.111 0.083 0.166 0.083 0.194 0.083 0.388 0.111 0.526 0.305 0 0 0.028 0.028 0.055 0.028 0.139 0 0.277-0.028 0.416-0.055 0.083-0.028 0.139-0.083 0.222-0.111-0.083-0.083-0.139-0.166-0.222-0.222 0 0 0 0 0 0-0.388-0.194-0.776-0.166-1.136-0.083z"></path>
<path fill="#eab304" d="M3.075 15.709c0.332 0.305 0.72 0.443 1.136 0.332 0.139-0.028 0.249-0.111 0.332-0.277-0.471 0.055-0.914 0.083-1.302-0.166s-0.665-0.582-0.748-1.025c-0.139-0.748 0.083-1.33 0.637-1.69-0.139 0.471-0.083 0.942 0.194 1.33 0.222 0.332 0.554 0.554 0.942 0.637 0.803 0.194 1.579-0.388 1.773-0.914-0.139 0.111-0.249 0.194-0.36 0.305-0.471 0.36-1.219 0.305-1.69-0.028-0.305-0.222-0.443-0.471-0.471-0.831-0.028-0.222 0.166-0.693 0.443-0.831 0.055 0.194 0.139 0.388 0.332 0.471 0.166 0.083 0.36 0.166 0.554 0.194 0.443 0.055 0.831-0.055 1.164-0.36 0.166-0.166 0.305-0.388 0.388-0.61 0.222-0.526 0.388-1.081 0.637-1.607 0.139-0.332 0.36-0.637 0.526-0.942 0.055-0.083 0.111-0.055 0.166-0.028 0.194 0.111 0.416 0.222 0.61 0.332 0.111 0.055 0.249 0.111 0.388 0.166-0.055 0.055-0.111 0.083-0.166 0.139-0.388 0.388-0.665 0.831-0.942 1.302-0.194 0.36-0.388 0.693-0.554 1.053-0.166 0.416-0.332 0.831-0.471 1.247-0.111 0.305-0.222 0.637-0.332 0.942-0.083 0.249-0.194 0.471-0.305 0.72-0.166 0.36-0.416 0.637-0.776 0.831-0.194 0.111-0.443 0.139-0.665 0.166s-0.443 0.028-0.665 0c-0.36-0.055-0.693-0.277-0.776-0.665 0-0.028 0.028-0.111 0-0.194z"></path>
<path fill="#eab304" d="M19.56 14.795c0 0.139 0.028 0.277 0 0.388-0.028 0.166-0.111 0.166-0.249 0.083-0.111-0.055-0.222-0.111-0.332-0.166-0.028-0.028-0.083 0-0.139 0 0.111 0.222 0.111 0.416 0.028 0.61-0.028 0.055-0.055 0.111-0.111 0.139-0.083 0.055-0.139 0.028-0.166-0.055s-0.055-0.166-0.083-0.249c-0.055-0.139-0.222-0.194-0.36-0.139-0.111 0.028-0.222 0.083-0.305 0.139-0.083 0.028-0.139 0.055-0.166-0.055-0.194-0.388-0.332-0.776-0.388-1.247 0.055 0.055 0.111 0.083 0.166 0.139 0.166 0.166 0.499 0.194 0.665 0.055 0.055-0.055 0.111-0.277 0.055-0.388-0.028-0.083-0.083-0.139-0.111-0.222 0.166-0.055 0.166-0.139 0.582 0.36 0.111-0.055 0.222-0.111 0.305-0.166 0.111-0.055 0.055-0.166 0.028-0.222s-0.055-0.111-0.111-0.222c0.083 0.028 0.139 0.055 0.194 0.083s0.111 0.055 0.139 0.111c0.166 0.194 0.36 0.36 0.582 0.526 0.139 0.111 0.194 0.277 0.194 0.443 0 0.028-0.028 0.083-0.028 0.111-0.028 0-0.055-0.028-0.083-0.055-0.222-0.055-0.222-0.055-0.305 0z"></path>
<path fill="#eab304" d="M5.735 12.911c-0.249-0.194-0.499-0.139-0.748-0.166-0.111 0-0.222 0.028-0.332 0-0.305-0.083-0.443-0.305-0.332-0.637 0.111 0.055 0.194 0.139 0.305 0.194s0.139 0 0.139-0.083c0-0.166 0.028-0.277 0.194-0.36 0.194-0.055 0.36-0.028 0.526 0.111 0.305 0.249 0.305 0.582 0.249 0.942z"></path>
</svg>
