<!-- Generated by IcoMoon.io -->
<svg version="1.1" xmlns="http://www.w3.org/2000/svg" width="33" height="32" viewBox="0 0 33 32">
<title>btt</title>
<path d="M31.504 12.784c-0.208-1.008-0.512-1.984-0.912-2.928-0.384-0.928-0.88-1.808-1.44-2.656-0.56-0.832-1.2-1.6-1.904-2.304s-1.472-1.344-2.304-1.904c-0.832-0.56-1.728-1.040-2.656-1.44-0.944-0.4-1.92-0.704-2.928-0.912-1.024-0.208-2.080-0.32-3.136-0.32s-2.112 0.112-3.136 0.32c-1.008 0.208-1.984 0.512-2.928 0.912-0.928 0.384-1.808 0.88-2.656 1.44-0.832 0.56-1.6 1.2-2.304 1.904s-1.344 1.472-1.904 2.304c-0.56 0.832-1.040 1.728-1.44 2.656-0.4 0.944-0.704 1.92-0.912 2.928-0.208 1.024-0.32 2.080-0.32 3.136s0.112 2.112 0.32 3.136c0.208 1.008 0.512 1.984 0.912 2.928 0.384 0.928 0.88 1.808 1.44 2.656 0.56 0.832 1.2 1.6 1.904 2.304s1.472 1.344 2.304 1.904c0.832 0.56 1.728 1.040 2.656 1.44 0.944 0.4 1.92 0.704 2.928 0.912 1.024 0.208 2.080 0.32 3.136 0.32s2.112-0.112 3.136-0.32c1.008-0.208 1.984-0.512 2.928-0.912 0.928-0.384 1.808-0.88 2.656-1.44 0.832-0.56 1.6-1.2 2.304-1.904s1.344-1.472 1.904-2.304c0.56-0.832 1.040-1.728 1.44-2.656 0.4-0.944 0.704-1.92 0.912-2.928 0.208-1.024 0.32-2.080 0.32-3.136s-0.112-2.112-0.32-3.136zM16.24 29.568c-7.536 0-13.632-6.112-13.632-13.632s6.112-13.632 13.632-13.632 13.632 6.112 13.632 13.632c0 7.52-6.112 13.632-13.632 13.632z"></path>
<path d="M16.48 28.384c0.048 0 0.080 0 0.128 0 0.016 0 0.048 0 0.064 0 0.048 0 0.096 0 0.128 0 0.016 0 0.032 0 0.048 0 0.064 0 0.128 0 0.192-0.016 0 0 0 0 0.016 0 0.064 0 0.112 0 0.176-0.016 0.016 0 0.032 0 0.048 0 0.048 0 0.096 0 0.144-0.016 0.016 0 0.032 0 0.048 0 0.048 0 0.096-0.016 0.16-0.016 0.016 0 0.016 0 0.032 0 0.064 0 0.128-0.016 0.192-0.016 0 0 0 0 0 0 0.064 0 0.112-0.016 0.176-0.032 0.016 0 0.032 0 0.032 0 0.048 0 0.096-0.016 0.144-0.016 0.016 0 0.016 0 0.032 0 0.064-0.016 0.112-0.016 0.176-0.032 0 0 0 0 0 0 0.128-0.016 0.256-0.048 0.368-0.080 0.016 0 0.016 0 0.032 0 0.048-0.016 0.112-0.016 0.16-0.032 0 0 0.016 0 0.016 0 0.128-0.032 0.24-0.064 0.368-0.096v0c-1.536 0.048-2.784-0.16-3.568-0.336-1.76-0.384-3.44-1.072-4.864-2.256-2.368-1.984-3.584-4.832-3.552-7.664 0.016-2.112 0.736-4.224 2.192-5.952 1.824-2.16 4.416-3.296 7.072-3.36 0.128 0 0.24 0 0.368 0v-2.128c-0.144 0-0.272 0-0.416 0-0.816 0.016-1.616 0.112-2.4 0.288-0.8 0.176-1.568 0.448-2.304 0.784-0.752 0.352-1.456 0.784-2.112 1.28-0.672 0.512-1.296 1.104-1.84 1.76-0.512 0.608-0.96 1.264-1.328 1.968-0.368 0.672-0.656 1.392-0.88 2.128-0.208 0.72-0.368 1.472-0.432 2.224-0.016 0.24-0.032 0.464-0.048 0.704 0 0.096 0 0.176 0 0.272 0 0.048 0 0.096 0 0.144 0.016 0.816 0.112 1.616 0.288 2.4 0.176 0.8 0.448 1.568 0.784 2.304 0.4 0.88 1.12 2.176 2.192 3.152 0 0 0 0 0 0 2.112 1.664 4.784 2.656 7.68 2.656 0.064 0 0.128 0 0.192 0 0.048 0 0.080 0 0.096 0z"></path>
<path d="M19.968 26.336c-0.736-0.016-1.648-0.128-2.352-0.256-3.296-0.592-6.128-2.608-7.168-5.648-1.264-3.696 0.672-7.696 4.352-8.912 0.72-0.24 1.44-0.352 2.176-0.352 0.944 0 1.888 0.192 2.752 0.544l0.896-1.904c-0.272-0.112-0.544-0.208-0.816-0.304-0.912-0.288-1.872-0.432-2.832-0.432s-1.92 0.16-2.832 0.464c-1.168 0.384-2.24 1.008-3.152 1.824-0.432 0.384-0.848 0.832-1.2 1.296s-0.656 0.96-0.912 1.488c-0.256 0.528-0.464 1.072-0.608 1.632s-0.256 1.152-0.288 1.744c-0.080 1.216 0.080 2.432 0.48 3.584 0.4 1.168 1.040 2.24 1.92 3.184 0.784 0.848 1.696 1.488 2.8 2.080 1.152 0.608 2.576 0.928 4.064 1.136 0.96 0.128 2.24 0.16 2.992 0.16 0.656-0.24 0.928-0.352 1.28-0.496 0.304-0.144 0.608-0.288 0.912-0.464s0.352-0.208 0.864-0.544c0.048-0.032 0.096-0.064 0.128-0.096-1.76 0.304-2.208 0.288-3.456 0.272z"></path>
<path d="M23.904 23.952c-0.496 0.032-1.2 0.080-2 0.080-1.424 0-3.168-0.128-4.656-0.624-2.304-0.768-4.48-2.736-4.48-5.168s1.968-4.384 4.384-4.384c1.648 0 3.072 0.912 3.824 2.24l1.904-0.944c-0.304-0.56-0.672-1.072-1.136-1.52-0.592-0.592-1.296-1.072-2.064-1.392-0.8-0.336-1.648-0.512-2.528-0.512s-1.728 0.176-2.528 0.512c-0.768 0.32-1.472 0.8-2.064 1.392s-1.072 1.296-1.392 2.064c-0.336 0.8-0.512 1.648-0.512 2.528s0.192 1.76 0.56 2.592c0.336 0.736 0.8 1.424 1.392 2.064 1.040 1.12 2.464 2.016 3.984 2.528 1.456 0.48 3.6 0.656 5.68 0.512 0.576-0.048 1.008-0.096 1.744-0.256 0.704-0.56 1.36-1.2 1.92-1.904v0c-0.496 0.048-1.408 0.144-2.032 0.192z"></path>
</svg>
