<!-- Generated by IcoMoon.io -->
<svg version="1.1" xmlns="http://www.w3.org/2000/svg" width="29" height="32" viewBox="0 0 29 32">
<title>bze</title>
<path d="M10.023 31.421h-9.555l1.874-10.57 9.919-8.904h-8.435l6.821-4.165h11.091l-14.345 14.111-0.963 5.389c0 0 3.202 0.234 5.728 0 2.525-0.26 5.363-1.302 5.363-1.302l-7.498 5.441zM25.045 8.797l-4.27 4.165c0 0 3.593 3.983 0.286 9.45-3.254 5.363-14.059 4.374-14.059 4.374l0.833-4.712 15.204-14.788h-12.601l1.276-7.186h-6.092l-2.187 12.288h7.758l-9.216 8.279-1.953 11.143c0 0 7.368 0.208 13.616 0 6.274-0.208 13.59-5.571 14.657-11.637 1.458-8.201-3.254-11.377-3.254-11.377z"></path>
</svg>
