<!-- Generated by IcoMoon.io -->
<svg version="1.1" xmlns="http://www.w3.org/2000/svg" width="57" height="32" viewBox="0 0 57 32">
<title>chain</title>
<path fill="#00adee" d="M18.924 7.446v3.926l9.535 5.505 6.187-3.576v3.197l3.321 1.944v-10.996l-9.547 5.505-9.496-5.505z"></path>
<path fill="#888" d="M28.444 1.926l-9.52 5.505v11.010l9.52 5.505 9.496-5.505-3.366-1.961-6.124 3.544-6.157-3.544v-7.087l6.157-3.544 6.127 3.544 3.366-1.947v-0.015l-9.499-5.505z"></path>
<path fill="#878787" d="M11.156 29.89c0.916 0 1.446-0.391 1.84-0.924l-0.868-0.628c-0.249 0.311-0.507 0.516-0.939 0.516-0.584 0-0.993-0.498-0.993-1.138v-0.012c0-0.619 0.412-1.129 0.993-1.129 0.4 0 0.673 0.201 0.91 0.498l0.868-0.681c-0.37-0.501-0.916-0.853-1.769-0.853-1.262 0-2.19 0.942-2.19 2.178v0.012c0 1.265 0.957 2.16 2.148 2.163v0 0z"></path>
<path fill="#878787" d="M13.422 29.796h1.132v-1.733c0-0.356 0.207-0.545 0.486-0.545s0.468 0.19 0.468 0.545v1.733h1.132v-2.095c0-0.723-0.412-1.17-1.102-1.17-0.465 0-0.77 0.24-0.981 0.504v-1.559h-1.135v4.32z"></path>
<path fill="#878787" d="M18.119 29.837c0.361 0.009 0.708-0.136 0.954-0.4v0.359h1.084v-1.837c0-0.477-0.098-0.812-0.338-1.043-0.249-0.249-0.631-0.382-1.209-0.382-0.447-0.009-0.892 0.074-1.304 0.243l0.231 0.785c0.29-0.116 0.554-0.193 0.895-0.193 0.436 0 0.646 0.204 0.646 0.563v0.053c-0.249-0.083-0.513-0.124-0.776-0.124-0.756 0-1.262 0.335-1.262 0.999v0.012c0.003 0.619 0.465 0.966 1.079 0.966v0 0zM18.524 29.161c-0.234 0-0.4-0.13-0.4-0.347v-0.012c0-0.243 0.19-0.394 0.519-0.394 0.154 0 0.305 0.027 0.447 0.083v0.148c0.003 0.317-0.231 0.521-0.566 0.521v0 0z"></path>
<path fill="#878787" d="M20.788 26.273h1.179v-0.833h-1.179v0.833zM20.812 29.796h1.132v-3.218h-1.132v3.218z"></path>
<path fill="#878787" d="M22.548 29.796h1.132v-1.745c0-0.359 0.207-0.548 0.486-0.548s0.468 0.19 0.468 0.548v1.745h1.132v-2.107c0-0.711-0.412-1.159-1.102-1.159-0.465 0-0.77 0.255-0.981 0.519v-0.474h-1.135v3.221z"></path>
<path fill="#00aced" d="M26.317 29.796h1.132v-1.751c0-0.353 0.19-0.542 0.456-0.542s0.444 0.19 0.444 0.542v1.751h1.132v-1.751c0-0.353 0.196-0.542 0.462-0.542s0.439 0.19 0.439 0.542v1.751h1.132v-2.113c0-0.726-0.418-1.15-1.102-1.15-0.468 0-0.797 0.199-1.076 0.516-0.175-0.329-0.504-0.516-0.933-0.516-0.45 0-0.75 0.24-0.957 0.504v-0.462h-1.132v3.221h0.003z"></path>
<path fill="#00aced" d="M33.049 29.837c0.361 0.009 0.708-0.136 0.954-0.4v0.359h1.084v-1.837c0-0.477-0.098-0.812-0.338-1.043-0.249-0.249-0.631-0.382-1.209-0.382-0.447-0.009-0.892 0.074-1.304 0.243l0.231 0.785c0.29-0.116 0.554-0.193 0.895-0.193 0.436 0 0.646 0.204 0.646 0.563v0.053c-0.249-0.083-0.513-0.124-0.776-0.124-0.756 0-1.262 0.335-1.262 0.999v0.012c0 0.619 0.465 0.966 1.079 0.966v0 0zM33.455 29.161c-0.234 0-0.4-0.13-0.4-0.347v-0.012c0-0.243 0.19-0.394 0.519-0.394 0.154 0 0.305 0.027 0.447 0.083v0.148c0 0.317-0.231 0.521-0.566 0.521v0 0z"></path>
<path fill="#00aced" d="M35.692 29.796h1.132v-0.761l0.29-0.338 0.643 1.099h1.25l-1.15-1.932 1.12-1.286h-1.28l-0.874 1.076v-2.201h-1.132v4.344z"></path>
<path fill="#00aced" d="M40.723 29.893c0.631 0 1.076-0.261 1.381-0.649l-0.619-0.53c-0.231 0.234-0.436 0.341-0.708 0.341-0.35 0-0.601-0.187-0.69-0.551h2.136c0.006-0.071 0.006-0.151 0.006-0.216 0-0.948-0.504-1.763-1.6-1.763-0.951 0-1.624 0.744-1.624 1.692v0.012c0.009 0.993 0.717 1.665 1.719 1.665v0 0zM40.068 27.967c0.059-0.373 0.264-0.607 0.56-0.607 0.308 0 0.524 0.237 0.566 0.607h-1.126z"></path>
<path fill="#00aced" d="M42.735 29.796h1.132v-1.004c0-0.773 0.332-1.12 0.921-1.12h0.095v-1.135c-0.536-0.024-0.833 0.249-1.016 0.67v-0.628h-1.132v3.218z"></path>
<path fill="#00aced" d="M46.551 29.846c0.794 0 1.327-0.367 1.327-1.067v-0.012c0-0.613-0.51-0.83-1.153-1.004-0.338-0.098-0.533-0.157-0.533-0.281v-0.012c0-0.095 0.092-0.157 0.267-0.157 0.261 0 0.628 0.11 0.963 0.299l0.391-0.708c-0.403-0.246-0.868-0.376-1.342-0.376-0.753 0-1.304 0.382-1.304 1.061v0.012c0 0.631 0.51 0.841 1.153 1.004 0.347 0.095 0.533 0.145 0.533 0.276v0.012c0 0.11-0.098 0.169-0.296 0.169-0.338 0-0.741-0.121-1.114-0.361l-0.424 0.67c0.447 0.314 0.984 0.483 1.532 0.477v0z"></path>
</svg>
