<!-- Generated by IcoMoon.io -->
<svg version="1.1" xmlns="http://www.w3.org/2000/svg" width="27" height="32" viewBox="0 0 27 32">
<title>cmm</title>
<path d="M11.092 0.010c-0.165-0.006-0.358-0.010-0.553-0.010-3.617 0-6.953 1.207-9.626 3.24l0.039-0.029c-0.58 0.439-0.951 1.128-0.951 1.904 0 0.709 0.309 1.345 0.801 1.782l0.002 0.002c0.418 0.397 0.985 0.641 1.608 0.641 0.544 0 1.044-0.186 1.441-0.497l-0.005 0.004c1.898-1.488 4.321-2.387 6.953-2.387 3.273 0 6.221 1.389 8.288 3.609l0.006 0.007c0.38 0.392 0.614 0.927 0.614 1.517 0 0.56-0.211 1.071-0.558 1.458l0.002-0.002c-0.392 0.42-0.949 0.681-1.568 0.681-0.566 0-1.081-0.219-1.464-0.578l0.001 0.001-0.105-0.105c-1.298-1.419-3.157-2.305-5.224-2.305-3.905 0-7.071 3.166-7.071 7.071s3.166 7.071 7.071 7.071c1.83 0 3.497-0.695 4.753-1.836l-0.006 0.005q0.238-0.219 0.476-0.476c0.386-0.431 0.945-0.701 1.566-0.701 0.344 0 0.67 0.083 0.956 0.23l-0.012-0.006c0.703 0.358 1.176 1.076 1.176 1.904 0 0.552-0.21 1.054-0.554 1.433l0.002-0.002c-2.084 2.276-5.069 3.697-8.386 3.697-2.618 0-5.028-0.885-6.949-2.373l0.026 0.019c-0.396-0.304-0.899-0.488-1.444-0.488-0.626 0-1.196 0.242-1.621 0.637l0.001-0.001c-0.482 0.442-0.783 1.075-0.783 1.778 0 0.794 0.384 1.499 0.977 1.938l0.006 0.005c2.628 1.966 5.941 3.148 9.531 3.148 8.837 0 16-7.163 16-16 0-8.633-6.837-15.668-15.391-15.989l-0.029-0.001zM10.797 19.974c-2.181-0.008-3.945-1.778-3.945-3.959 0-2.187 1.773-3.96 3.96-3.96 2.185 0 3.957 1.77 3.96 3.954v0c0 0.001 0 0.003 0 0.005 0 2.187-1.773 3.959-3.96 3.959-0.005 0-0.010 0-0.015-0h0.001z"></path>
</svg>
