<!-- Generated by IcoMoon.io -->
<svg version="1.1" xmlns="http://www.w3.org/2000/svg" width="20" height="32" viewBox="0 0 20 32">
<title>drop</title>
<path d="M19.173 18.379c-0.699-3.082-2.879-6.489-2.879-6.489 2.509 6.849 1.545 12.015 0.878 14.948 0 0-0.878 3.277 1.010 0.547 2.363-3.417 0.991-9.005 0.991-9.005z"></path>
<path d="M12.975 6.231c1.303 4.65 1.895 8.6 2.084 11.888 0.322 5.61-0.534 9.3-1.059 11.251-0.171 0.634 0.542 1.107 0.955 0.631l0.006-0.007c1.033-1.181 1.521-3.95 1.748-6.377 0.025-0.266 0.046-0.532 0.065-0.799 0.213-2.921 0.091-5.877-0.594-8.703-1.266-5.221-3.204-7.886-3.204-7.886z"></path>
<path d="M10.637 14.421c-0.316-7.636-0.893-14.421-0.893-14.421s-0.584 6.444-0.903 13.917c-0.052 1.208-0.097 2.443-0.131 3.682-0.050 1.802-0.074 3.612-0.074 5.361 0.010 3.11 0.124 6.027 0.406 8.35 0.111 0.92 1.306 0.922 1.418 0 0.194-1.588 0.301-3.535 0.346-5.673 0.046-2.174 0.027-4.547-0.031-6.943-0.032-1.427-0.081-2.864-0.138-4.272z"></path>
<path d="M1.715 23.623c-0.107-0.837-0.169-1.805-0.169-2.787 0-0.545 0.019-1.086 0.056-1.622l-0.004 0.072c0.092-1.353 0.276-2.601 0.548-3.816l-0.031 0.167c0.324-1.475 0.701-2.728 1.158-3.941l-0.064 0.195s-1.532 2.397-2.436 4.989c-0.147 0.392-0.297 0.894-0.419 1.406l-0.019 0.094c-0.187 0.901-0.306 1.947-0.328 3.016l-0 0.018c-0.029 1.207 0.063 2.625 0.452 3.974 0.215 0.759 0.51 1.423 0.886 2.031l-0.020-0.034s1.887 2.811 1.010-0.547c-0.248-0.891-0.465-1.981-0.607-3.095l-0.012-0.12z"></path>
<path d="M4.41 22.118c-0.020-0.482-0.032-1.047-0.032-1.616 0-1.036 0.038-2.064 0.114-3.081l-0.008 0.136q0.055-0.788 0.143-1.624t0.212-1.723c0.446-3.087 1.037-5.783 1.8-8.406l-0.107 0.429s-1.938 2.662-3.202 7.884c-0.067 0.278-0.128 0.557-0.184 0.838-0.209 0.99-0.369 2.174-0.444 3.379l-0.004 0.073c-0.037 0.579-0.057 1.255-0.057 1.936 0 0.87 0.034 1.732 0.101 2.584l-0.007-0.113c0.019 0.269 0.041 0.537 0.066 0.805 0.227 2.428 0.712 5.199 1.748 6.377l0.006 0.007c0.413 0.475 1.126 0 0.955-0.631-0.39-1.444-0.96-3.837-1.1-7.253z"></path>
<path d="M7.635 22.407c-0.037-1.521-0.051-3.215-0.024-5.078 0.016-1.115 0.046-2.288 0.094-3.521 0.122-3.178 0.724-7.776 1.137-11.677 0 0-2.036 4.217-2.964 11.815-0.127 1.040-0.241 2.16-0.334 3.369-0.023 0.295-0.044 0.59-0.064 0.898 0 0-0.113 1.608-0.069 3.778 0.057 2.79 0.369 6.511 1.523 8.945 0.035 0.075 0.082 0.139 0.138 0.193l0.008 0.008c0.438 0.416 1.107 0.021 1.045-0.618-0.137-1.391-0.393-4.159-0.489-8.113z"></path>
<path d="M11.857 22.407c0.037-1.521 0.051-3.215 0.024-5.078-0.015-1.115-0.046-2.288-0.094-3.521-0.122-3.178-0.724-7.776-1.137-11.677 0 0 2.036 4.217 2.964 11.815 0.127 1.040 0.241 2.16 0.334 3.369 0.023 0.295 0.044 0.59 0.064 0.898 0 0 0.113 1.608 0.069 3.778-0.057 2.79-0.369 6.511-1.523 8.945-0.035 0.075-0.082 0.139-0.138 0.193l-0.008 0.008c-0.438 0.416-1.107 0.021-1.045-0.618 0.137-1.391 0.393-4.159 0.489-8.113z"></path>
</svg>
