<!-- Generated by IcoMoon.io -->
<svg version="1.1" xmlns="http://www.w3.org/2000/svg" width="26" height="32" viewBox="0 0 26 32">
<title>dth</title>
<path fill="#3c80f1" d="M13.142 0c-7.257 0.005-13.139 5.885-13.149 13.141v0.001c0.009 0.751 0.095 1.477 0.25 2.176l-0.013-0.070c0.021 0.092 0.102 0.16 0.199 0.16 0.045 0 0.087-0.015 0.121-0.040l-0.001 0c0.079-0.058 0.169-0.117 0.263-0.17l0.014-0.007c0.416-0.237 0.914-0.376 1.445-0.377h0c0.002 0 0.004 0 0.006 0 0.111 0 0.201-0.090 0.201-0.201 0-0.013-0.001-0.025-0.003-0.037l0 0.001c-0.083-0.426-0.132-0.917-0.135-1.419v-0.002c0-5.965 4.835-10.8 10.8-10.8s10.8 4.835 10.8 10.8v0c0 5.956-7.622 13.566-10.348 16.252-0.116 0.114-0.275 0.184-0.45 0.184s-0.334-0.070-0.45-0.184l0 0c-0.803-0.791-2.028-2.007-3.359-3.483h-0.055c-1.124-0.113-2.155-0.371-3.122-0.757l0.077 0.027-0.18-0.073c-0.025-0.012-0.054-0.019-0.085-0.019-0.111 0-0.201 0.090-0.201 0.201 0 0.051 0.019 0.098 0.050 0.133l-0-0c1.752 2.086 3.506 3.971 5.35 5.763l0.018 0.018c0.504 0.492 1.193 0.795 1.953 0.795s1.45-0.303 1.954-0.795l-0.001 0.001c4.802-4.745 11.199-11.763 11.199-18.077-0.009-7.257-5.892-13.136-13.148-13.142h-0.001z"></path>
<path fill="#3c80f1" d="M18.607 14.471c0 0.185-0.014 0.367-0.031 0.547-0.052 0.736-0.221 1.42-0.49 2.051l0.016-0.042c-0.305 0.669-0.684 1.245-1.138 1.753l0.006-0.007 0.014 0.012c-0.902 1.005-2.009 1.808-3.256 2.346l-0.060 0.023c-0.961 0.424-2.082 0.672-3.26 0.672-0.255 0-0.508-0.012-0.757-0.034l0.032 0.002c-1.362-0.139-2.587-0.629-3.613-1.377l0.021 0.015c0.364-0.012 0.71-0.068 1.040-0.161l-0.030 0.007c0.322-0.091 0.603-0.214 0.861-0.371l-0.015 0.009c0.291-0.176 0.54-0.388 0.75-0.633l0.003-0.004c0.206-0.241 0.377-0.52 0.502-0.823l0.008-0.021c0.107-0.255 0.19-0.551 0.235-0.859l0.002-0.020c0.018-0.166 0.028-0.359 0.028-0.555 0-0.073-0.001-0.146-0.004-0.219l0 0.010v-8.612c-0-0.004-0-0.008-0-0.012s0-0.008 0-0.012l-0 0.001c0-0.014 0-0.031 0-0.045 0.005-0.032 0.012-0.061 0.022-0.088l-0.001 0.003c0.045-0.117 0.128-0.21 0.234-0.266l0.003-0.001c0.049-0.027 0.106-0.045 0.166-0.052l0.002-0h2.606c0.081 0 0.161 0 0.237 0 0.716 0.058 1.376 0.244 1.975 0.536l-0.033-0.014c1.287 0.617 2.329 1.57 3.038 2.745l0.018 0.032c0.157 0.26 0.31 0.566 0.441 0.883l0.017 0.046c0.11 0.274 0.211 0.604 0.284 0.944l0.008 0.042c0.067 0.3 0.11 0.649 0.121 1.006l0 0.008c0 0.088 0 0.166 0 0.261zM20.948 13.852c-0.016-0.512-0.077-1.001-0.18-1.474l0.010 0.053c-0.114-0.525-0.255-0.978-0.431-1.413l0.021 0.058c-0.199-0.495-0.407-0.912-0.644-1.31l0.023 0.042c-0.97-1.613-2.363-2.884-4.025-3.681l-0.057-0.024c-0.807-0.392-1.746-0.655-2.738-0.733l-0.027-0.002c-0.121 0-0.237 0-0.37-0.014h-2.651c-0.085 0-0.173 0-0.258 0.019-0.37 0.044-0.705 0.154-1.008 0.318l0.015-0.007c-0.619 0.336-1.091 0.877-1.33 1.53l-0.006 0.020c-0.054 0.143-0.099 0.313-0.128 0.488l-0.002 0.016c-0.014 0.085-0.024 0.173-0.031 0.258 0 0.043 0 0.085 0 0.13v8.666c0 0.001 0 0.002 0 0.003 0 0.161-0.011 0.32-0.033 0.475l0.002-0.018c-0.015 0.113-0.041 0.215-0.079 0.312l0.003-0.009c-0.032 0.077-0.072 0.144-0.122 0.203l0.001-0.001c-0.119 0.128-0.274 0.22-0.449 0.262l-0.006 0.001c-0.173 0.046-0.372 0.072-0.576 0.072-0.079 0-0.157-0.004-0.234-0.012l0.010 0.001c-0.338-0.029-0.649-0.095-0.945-0.195l0.028 0.008c-0.644-0.209-1.198-0.54-1.661-0.967l0.003 0.003c-0.208-0.194-0.489-0.312-0.797-0.312-0.648 0-1.173 0.525-1.173 1.173 0 0.206 0.053 0.399 0.146 0.567l-0.003-0.006c0.854 1.541 1.972 2.833 3.307 3.857l0.029 0.022c0.664 0.5 1.423 0.93 2.236 1.256l0.067 0.024c0.751 0.303 1.622 0.52 2.53 0.613l0.041 0.003c0.293 0.029 0.633 0.045 0.977 0.045 1.498 0 2.924-0.311 4.216-0.872l-0.068 0.026c1.657-0.696 3.051-1.728 4.15-3.019l0.013-0.015 0.014 0.012c0.599-0.675 1.105-1.451 1.488-2.295l0.023-0.058c0.343-0.804 0.573-1.735 0.643-2.711l0.002-0.028c0.019-0.237 0.031-0.45 0.038-0.675v-0.334c0.009-0.097 0.002-0.232 0-0.348z"></path>
</svg>
