<!-- Generated by IcoMoon.io -->
<svg version="1.1" xmlns="http://www.w3.org/2000/svg" width="32" height="32" viewBox="0 0 32 32">
<title>entrp</title>
<path d="M14.293 0.064c-0.149 0.021-0.725 0.128-1.28 0.213-3.093 0.523-5.952 2.037-8.32 4.416-2.379 2.368-3.829 5.109-4.437 8.373-0.277 1.483-0.277 4.384 0 5.867 0.608 3.264 2.059 6.005 4.437 8.373 2.368 2.379 5.109 3.829 8.373 4.437 1.483 0.277 4.384 0.277 5.867 0 3.264-0.608 6.005-2.059 8.373-4.437 2.379-2.368 3.829-5.109 4.437-8.373 0.277-1.483 0.277-4.384 0-5.867-0.608-3.264-2.059-6.005-4.437-8.373-2.315-2.325-4.928-3.744-8.096-4.384-0.981-0.203-4.245-0.363-4.917-0.245zM19.989 5.717c0.128 0.053 0.171 0.213 0.171 0.64v0.576h-0.672c-0.853 0-1.525 0.32-1.803 0.853-0.181 0.341-0.192 0.757-0.192 5.813 0 2.987-0.043 5.493-0.085 5.568-0.224 0.341-1.867 0.437-2.603 0.149l-0.299-0.117v-5.515c0-5.141-0.011-5.557-0.192-5.899-0.277-0.533-0.949-0.853-1.803-0.853h-0.672v-0.576c0-0.363 0.053-0.597 0.139-0.629 0.192-0.085 7.808-0.085 8.011-0.011zM13.867 10.165v1.312l-0.309 0.181c-0.459 0.267-1.227 1.067-1.536 1.589-0.149 0.256-0.352 0.736-0.448 1.077l-0.171 0.608h-1.227c-1.397 0-1.355 0.053-1.056-1.12 0.373-1.419 1.28-2.859 2.379-3.733 0.608-0.491 1.952-1.227 2.219-1.227 0.117 0 0.149 0.277 0.149 1.312zM19.157 9.227c1.856 0.939 3.211 2.603 3.723 4.587 0.299 1.173 0.341 1.12-1.056 1.12h-1.227l-0.171-0.608c-0.096-0.341-0.299-0.821-0.448-1.077-0.309-0.523-1.077-1.323-1.536-1.589l-0.309-0.181v-1.312c0-1.035 0.032-1.312 0.149-1.312 0.075 0 0.469 0.171 0.875 0.373zM11.413 15.936c0 0.501 0.331 1.525 0.672 2.059 1.824 2.891 6.005 2.891 7.829 0 0.341-0.533 0.672-1.557 0.672-2.059v-0.363h2.549l-0.053 0.555c-0.267 2.592-1.696 4.683-3.936 5.792-1.035 0.512-1.941 0.725-3.147 0.725-3.733 0-6.688-2.72-7.083-6.517l-0.053-0.555h2.549v0.363zM17.547 23.648c0.139 0.747 0.907 1.205 2.059 1.205h0.555v1.173h-8.32v-1.141l0.779-0.053c0.501-0.032 0.907-0.128 1.131-0.256 0.331-0.192 0.757-0.832 0.757-1.131 0-0.107 0.341-0.139 1.483-0.139h1.493l0.064 0.341z"></path>
</svg>
