<!-- Generated by IcoMoon.io -->
<svg version="1.1" xmlns="http://www.w3.org/2000/svg" width="28" height="32" viewBox="0 0 28 32">
<title>eon</title>
<path fill="#000" opacity="0.7" d="M12.8 27.933c-1.533-0.933-3.4-2.067-4.933-3-0.667-0.4-1.4-0.8-2.067-1.267-0.267-0.2-0.267-0.4-0.267-0.533 0.667-3.133 1.4-6.533 2.133-9.6 0 0-0.467-1.467-0.467-1.467s-1.6 7.667-2.4 11.067c-0.133 0.467 0 0.733 0.467 1 2.6 1.533 7.867 4.867 7.867 4.867l-0.333-1.067z"></path>
<path fill="#000" opacity="0.7" d="M14.067 27.933c1.533-0.933 3.4-2.067 4.933-3 0.667-0.4 1.4-0.8 2.067-1.267 0.267-0.2 0.267-0.4 0.267-0.533-0.667-3.133-1.4-6.533-2.133-9.6 0 0 0.533-1.4 0.533-1.4s1.6 7.6 2.333 11c0.133 0.467 0 0.733-0.467 1-2.6 1.533-7.867 4.867-7.867 4.867l0.333-1.067z"></path>
<path fill="#000" opacity="0.7" d="M19.133 12.2l-0.267-0.4c-1.6 0-9.2 0-10.8 0l-0.267 0.4c0 0 0.2 0.533 0.133 0.333 1.667 0 9.467 0 11.133 0-0.133 0.133 0.067-0.333 0.067-0.333z"></path>
<path fill="#000" d="M19.467 11.6c0 0-3.667-5.333-5.267-7.667-0.333-0.4-0.533-0.6-0.733-0.6s-0.467 0.2-0.733 0.6c-1.6 2.267-5.267 7.667-5.267 7.667-0.333 0.467-0.333 0.6-0.067 1.2 0 0 2.6 7.2 3.667 10.4 0.533 1.467 1.933 5.667 1.933 5.667 0.067 0.133 0.333 0.2 0.467 0.2s0.333-0.067 0.467-0.2c0 0 1.467-4.2 1.933-5.667 1.067-3.133 3.667-10.4 3.667-10.4 0.267-0.6 0.267-0.733-0.067-1.2zM13.467 26.667v0 0c-1.6-4.533-5.067-14.533-5.067-14.533s3.6-5.267 5-7.333c0 0 0 0 0 0s0 0 0 0c1.4 2.067 5 7.333 5 7.333s-3.4 10-4.933 14.533z"></path>
</svg>
