<!-- Generated by IcoMoon.io -->
<svg version="1.1" xmlns="http://www.w3.org/2000/svg" width="16" height="32" viewBox="0 0 16 32">
<title>gin</title>
<path fill="#fff" stroke="#008dde" stroke-linejoin="miter" stroke-linecap="butt" stroke-miterlimit="4" stroke-width="0.0332" d="M0.017 0.017h15.975v15.975h-15.975v-15.975z"></path>
<path fill="#008dde" d="M0 15.992h16.008v16.008h-16.008v-16.008z"></path>
<path fill="#008dde" d="M9.355 4.471c-0.055-0-0.11 0-0.165 0.006-0.086 0.010-0.15 0.088-0.153 0.173-0.004 0.193-0.001 0.386-0.002 0.579 0.003 0.098-0.007 0.198 0.008 0.295 0.014 0.087 0.099 0.143 0.184 0.143 0.262 0.002 0.525 0.001 0.788 0.001v0.109h-0.845c-0.036 0.109-0.072 0.218-0.109 0.326h0.841c0.098-0.003 0.198 0.007 0.295-0.008 0.087-0.014 0.143-0.099 0.143-0.183 0.002-0.343 0-0.687 0.001-1.030-0.003-0.092 0.008-0.186-0.010-0.277-0.020-0.093-0.119-0.138-0.207-0.133h-0.603c-0.055 0.001-0.11-0-0.165-0zM9.361 4.798h0.652v0.544h-0.652z"></path>
<path fill="#008dde" d="M10.884 6.103v-1.631h-0.326v1.631z"></path>
<path fill="#008dde" d="M11.101 6.102v-1.414c0-0.145 0.072-0.218 0.217-0.218h0.871c0.145 0 0.217 0.073 0.217 0.218v1.414h-0.326l-0.001-1.305h-0.652v1.305z"></path>
<path fill="#fff" stroke="#fff" stroke-linejoin="miter" stroke-linecap="butt" stroke-miterlimit="4" stroke-width="0.1156" d="M5.205 4.020h1.66c0.222 0 0.4 0.179 0.4 0.4v1.735c0 0.222-0.179 0.4-0.4 0.4h-1.66c-0.222 0-0.4-0.179-0.4-0.4v-1.735c0-0.222 0.179-0.4 0.4-0.4z"></path>
<path fill="#008dde" d="M7.749 5.44c0.083 0 0.151-0.067 0.151-0.151s-0.067-0.151-0.151-0.151h-0.344v-0.34h0.719c0.083 0 0.151-0.067 0.151-0.151s-0.067-0.151-0.151-0.151h-0.722c-0.029-0.333-0.283-0.602-0.608-0.657v-0.362c0-0.083-0.067-0.151-0.151-0.151s-0.151 0.067-0.151 0.151v0.352h-0.34v-0.792c0-0.083-0.067-0.151-0.151-0.151s-0.151 0.067-0.151 0.151v0.792h-0.34v-0.352c0-0.083-0.067-0.151-0.151-0.151s-0.151 0.067-0.151 0.151v0.362c-0.325 0.054-0.579 0.324-0.608 0.657h-0.85c-0.083 0-0.151 0.067-0.151 0.151s0.067 0.151 0.151 0.151h0.847v0.34h-0.344c-0.083 0-0.151 0.067-0.151 0.151s0.067 0.151 0.151 0.151h0.344v0.34h-0.655c-0.083 0-0.151 0.067-0.151 0.151s0.067 0.151 0.151 0.151h0.658c0.029 0.333 0.283 0.602 0.608 0.657v0.234c0 0.083 0.067 0.151 0.151 0.151s0.151-0.067 0.151-0.151v-0.224h0.34v0.682c0 0.083 0.067 0.151 0.151 0.151s0.151-0.067 0.151-0.151v-0.682h0.34v0.352c0 0.083 0.067 0.151 0.151 0.151s0.151-0.067 0.151-0.151v-0.362c0.325-0.054 0.579-0.324 0.608-0.657h0.997c0.083 0 0.151-0.067 0.151-0.151s-0.067-0.151-0.151-0.151h-0.994v-0.34h0.344zM7.164 6.017c0 0.271-0.22 0.491-0.491 0.491h-1.343c-0.271 0-0.491-0.22-0.491-0.491v-1.454c0-0.271 0.22-0.491 0.491-0.491h1.343c0.271 0 0.491 0.22 0.491 0.491z"></path>
<path fill="#008dde" d="M5.65 4.427c-0.058-0-0.116 0.001-0.174 0.006-0.091 0.010-0.159 0.093-0.162 0.183-0.005 0.204-0.001 0.408-0.002 0.612 0.003 0.104-0.007 0.209 0.008 0.312 0.015 0.092 0.105 0.151 0.194 0.151 0.278 0.002 0.555 0.001 0.833 0.001v0.115h-0.894c-0.038 0.115-0.077 0.23-0.115 0.345h0.89c0.104-0.003 0.209 0.007 0.312-0.008 0.092-0.015 0.151-0.105 0.151-0.194 0.002-0.363 0-0.727 0.001-1.090-0.003-0.098 0.009-0.197-0.011-0.293-0.021-0.098-0.126-0.146-0.219-0.14h-0.637c-0.058 0.001-0.116-0-0.175-0zM5.657 4.772h0.69v0.575h-0.69z"></path>
<path fill="#fff" stroke="#fff" stroke-linejoin="miter" stroke-linecap="butt" stroke-miterlimit="4" stroke-width="0.1156" d="M5.205 9.559h1.66c0.222 0 0.4 0.179 0.4 0.4v1.735c0 0.222-0.179 0.4-0.4 0.4h-1.66c-0.222 0-0.4-0.179-0.4-0.4v-1.735c0-0.222 0.179-0.4 0.4-0.4z"></path>
<path fill="#008dde" d="M7.749 10.979c0.083 0 0.151-0.067 0.151-0.151s-0.067-0.151-0.151-0.151h-0.344v-0.34h0.719c0.083 0 0.151-0.067 0.151-0.151s-0.067-0.151-0.151-0.151h-0.722c-0.029-0.333-0.283-0.602-0.608-0.657v-0.362c0-0.083-0.067-0.151-0.151-0.151s-0.151 0.067-0.151 0.151v0.352h-0.34v-0.792c0-0.083-0.067-0.151-0.151-0.151s-0.151 0.067-0.151 0.151v0.792h-0.34v-0.352c0-0.083-0.067-0.151-0.151-0.151s-0.151 0.067-0.151 0.151v0.362c-0.325 0.054-0.579 0.324-0.608 0.657h-0.85c-0.083 0-0.151 0.067-0.151 0.151s0.067 0.151 0.151 0.151h0.847v0.34h-0.344c-0.083 0-0.151 0.067-0.151 0.151s0.067 0.151 0.151 0.151h0.344v0.34h-0.655c-0.083 0-0.151 0.067-0.151 0.151s0.067 0.151 0.151 0.151h0.658c0.029 0.333 0.283 0.602 0.608 0.656v0.234c0 0.083 0.067 0.151 0.151 0.151s0.151-0.067 0.151-0.151v-0.224h0.34v0.682c0 0.083 0.067 0.151 0.151 0.151s0.151-0.067 0.151-0.151v-0.682h0.34v0.352c0 0.083 0.067 0.151 0.151 0.151s0.151-0.067 0.151-0.151v-0.362c0.325-0.054 0.579-0.324 0.608-0.656h0.997c0.083 0 0.151-0.067 0.151-0.151s-0.067-0.151-0.151-0.151h-0.994v-0.34h0.344zM7.164 11.555c0 0.271-0.22 0.491-0.491 0.491h-1.343c-0.271 0-0.491-0.22-0.491-0.491v-1.454c0-0.271 0.22-0.491 0.491-0.491h1.343c0.271 0 0.491 0.22 0.491 0.491z"></path>
<path fill="#008dde" d="M5.65 9.965c-0.058-0-0.116 0.001-0.174 0.006-0.091 0.010-0.159 0.093-0.162 0.183-0.005 0.204-0.001 0.408-0.002 0.612 0.003 0.104-0.007 0.209 0.008 0.312 0.015 0.092 0.105 0.151 0.194 0.151 0.278 0.002 0.555 0.001 0.833 0.001v0.115h-0.894c-0.038 0.115-0.077 0.23-0.115 0.345h0.89c0.104-0.003 0.209 0.007 0.312-0.008 0.092-0.015 0.151-0.105 0.151-0.194 0.002-0.363 0-0.727 0.001-1.090-0.003-0.098 0.009-0.197-0.011-0.293-0.021-0.098-0.126-0.146-0.219-0.14h-0.637c-0.058 0.001-0.116-0-0.175-0zM5.657 10.311h0.69v0.575h-0.69z"></path>
<path fill="#fff" d="M9.355 20.463c-0.055-0-0.11 0-0.165 0.006-0.086 0.010-0.15 0.088-0.153 0.173-0.004 0.193-0.001 0.386-0.002 0.579 0.003 0.098-0.007 0.198 0.008 0.295 0.014 0.087 0.099 0.143 0.184 0.143 0.262 0.002 0.525 0.001 0.788 0.001v0.109h-0.845c-0.036 0.109-0.072 0.218-0.109 0.326h0.841c0.098-0.003 0.198 0.007 0.295-0.008 0.087-0.014 0.143-0.099 0.143-0.183 0.002-0.343 0-0.687 0.001-1.030-0.003-0.092 0.008-0.186-0.010-0.277-0.020-0.093-0.119-0.138-0.207-0.133h-0.603c-0.055 0.001-0.11-0-0.165-0zM9.361 20.789h0.652v0.544h-0.652z"></path>
<path fill="#fff" d="M10.884 22.094v-1.631h-0.326v1.631z"></path>
<path fill="#fff" d="M11.101 22.093v-1.414c0-0.145 0.072-0.218 0.217-0.218h0.871c0.145 0 0.217 0.073 0.217 0.218v1.414h-0.326l-0.001-1.305h-0.652v1.305z"></path>
<path fill="#fff" d="M7.749 21.432c0.083 0 0.151-0.067 0.151-0.151s-0.067-0.151-0.151-0.151h-0.344v-0.34h0.719c0.083 0 0.151-0.067 0.151-0.151s-0.067-0.151-0.151-0.151h-0.722c-0.029-0.333-0.283-0.602-0.608-0.657v-0.362c0-0.083-0.067-0.151-0.151-0.151s-0.151 0.067-0.151 0.151v0.352h-0.34v-0.792c0-0.083-0.067-0.151-0.151-0.151s-0.151 0.067-0.151 0.151v0.792h-0.34v-0.352c0-0.083-0.067-0.151-0.151-0.151s-0.151 0.067-0.151 0.151v0.362c-0.325 0.054-0.579 0.324-0.608 0.657h-0.85c-0.083 0-0.151 0.067-0.151 0.151s0.067 0.151 0.151 0.151h0.847v0.34h-0.344c-0.083 0-0.151 0.067-0.151 0.151s0.067 0.151 0.151 0.151h0.344v0.34h-0.655c-0.083 0-0.151 0.067-0.151 0.151s0.067 0.151 0.151 0.151h0.658c0.029 0.333 0.283 0.602 0.608 0.657v0.234c0 0.083 0.067 0.151 0.151 0.151s0.151-0.067 0.151-0.151v-0.224h0.34v0.682c0 0.083 0.067 0.151 0.151 0.151s0.151-0.067 0.151-0.151v-0.682h0.34v0.352c0 0.083 0.067 0.151 0.151 0.151s0.151-0.067 0.151-0.151v-0.362c0.325-0.054 0.579-0.324 0.608-0.657h0.997c0.083 0 0.151-0.067 0.151-0.151s-0.067-0.151-0.151-0.151h-0.994v-0.34h0.344zM7.164 22.009c0 0.271-0.22 0.491-0.491 0.491h-1.343c-0.271 0-0.491-0.22-0.491-0.491v-1.454c0-0.271 0.22-0.491 0.491-0.491h1.343c0.271 0 0.491 0.22 0.491 0.491z"></path>
<path fill="#fff" d="M5.65 20.418c-0.058-0-0.116 0.001-0.174 0.006-0.091 0.010-0.159 0.093-0.162 0.183-0.005 0.204-0.001 0.408-0.002 0.612 0.003 0.104-0.007 0.209 0.008 0.312 0.015 0.092 0.105 0.151 0.194 0.151 0.278 0.002 0.555 0.001 0.833 0.001v0.115h-0.894c-0.038 0.115-0.077 0.23-0.115 0.345h0.89c0.104-0.003 0.209 0.007 0.312-0.008 0.092-0.015 0.151-0.105 0.151-0.194 0.002-0.363 0-0.727 0.001-1.090-0.003-0.098 0.009-0.197-0.011-0.293-0.021-0.098-0.126-0.146-0.219-0.14h-0.637c-0.058 0.001-0.116-0-0.175-0zM5.657 20.764h0.69v0.575h-0.69z"></path>
<path fill="#fff" d="M7.749 26.971c0.083 0 0.151-0.067 0.151-0.151s-0.067-0.151-0.151-0.151h-0.344v-0.34h0.719c0.083 0 0.151-0.067 0.151-0.151s-0.067-0.151-0.151-0.151h-0.722c-0.029-0.333-0.283-0.602-0.608-0.657v-0.362c0-0.083-0.067-0.151-0.151-0.151s-0.151 0.067-0.151 0.151v0.352h-0.34v-0.792c0-0.083-0.067-0.151-0.151-0.151s-0.151 0.067-0.151 0.151v0.792h-0.34v-0.352c0-0.083-0.067-0.151-0.151-0.151s-0.151 0.067-0.151 0.151v0.362c-0.325 0.054-0.579 0.324-0.608 0.657h-0.85c-0.083 0-0.151 0.067-0.151 0.151s0.067 0.151 0.151 0.151h0.847v0.34h-0.344c-0.083 0-0.151 0.067-0.151 0.151s0.067 0.151 0.151 0.151h0.344v0.34h-0.655c-0.083 0-0.151 0.067-0.151 0.151s0.067 0.151 0.151 0.151h0.658c0.029 0.333 0.283 0.602 0.608 0.657v0.234c0 0.083 0.067 0.151 0.151 0.151s0.151-0.067 0.151-0.151v-0.224h0.34v0.682c0 0.083 0.067 0.151 0.151 0.151s0.151-0.067 0.151-0.151v-0.682h0.34v0.352c0 0.083 0.067 0.151 0.151 0.151s0.151-0.067 0.151-0.151v-0.362c0.325-0.054 0.579-0.324 0.608-0.657h0.997c0.083 0 0.151-0.067 0.151-0.151s-0.067-0.151-0.151-0.151h-0.994v-0.34h0.344zM7.164 27.547c0 0.271-0.22 0.491-0.491 0.491h-1.343c-0.271 0-0.491-0.22-0.491-0.491v-1.454c0-0.271 0.22-0.491 0.491-0.491h1.343c0.271 0 0.491 0.22 0.491 0.491z"></path>
<path fill="#fff" d="M5.65 25.957c-0.058-0-0.116 0.001-0.174 0.006-0.091 0.010-0.159 0.093-0.162 0.183-0.005 0.204-0.001 0.408-0.002 0.612 0.003 0.104-0.007 0.209 0.008 0.312 0.015 0.092 0.105 0.151 0.194 0.151 0.278 0.002 0.555 0.001 0.833 0.001v0.115h-0.894c-0.038 0.115-0.077 0.23-0.115 0.345h0.89c0.104-0.003 0.209 0.007 0.312-0.008 0.092-0.015 0.151-0.105 0.151-0.194 0.002-0.363 0-0.727 0.001-1.090-0.003-0.098 0.009-0.197-0.011-0.293-0.021-0.098-0.126-0.146-0.219-0.14h-0.637c-0.058 0.001-0.116-0-0.175-0zM5.657 26.302h0.69v0.575h-0.69z"></path>
</svg>
