<!-- Generated by IcoMoon.io -->
<svg version="1.1" xmlns="http://www.w3.org/2000/svg" width="32" height="32" viewBox="0 0 32 32">
<title>grin</title>
<path fill="#000" d="M28.524 16c0 6.917-5.607 12.525-12.525 12.525s-12.525-5.607-12.525-12.525c0-6.917 5.607-12.525 12.525-12.525s12.525 5.607 12.525 12.525z"></path>
<path fill="#000" d="M27.153 16c0 6.175-5.006 11.18-11.18 11.18s-11.18-5.006-11.18-11.18c0-6.175 5.006-11.18 11.18-11.18s11.18 5.006 11.18 11.18z"></path>
<path fill="#fff" d="M21.273 11.803c-0.267-0.599-0.515-1.782-1.199-2.045-0.881-0.339-1.425 1.878-1.555 2.438h-0.131c-0.222-0.96-0.52-2.32-1.574-2.623-0.488 2.049 0.51 4.26 1.443 6.033 0.996-0.476 1.482-1.967 1.574-3.016h0.131l1.049 3.148c0.844-0.243 1.138-1.078 1.442-1.836 0.654-1.627 1.203-3.629 0.787-5.377-1.26 0.357-1.643 2.158-1.967 3.279zM8.683 16c1.127-0.538 1.664-2.242 1.836-3.41h0.131c0.133 0.563 0.49 2.015 1.193 2.109 0.896 0.119 1.366-1.87 1.429-2.502h0.131c0.286 0.987 0.587 2.271 1.574 2.754 0.364-1.529-0.072-3.16-0.631-4.59-0.144-0.368-0.439-1.359-0.946-1.359-0.831 0-1.298 2.19-1.439 2.802h-0.131l-1.049-3.148c-1.845 0.881-2.848 5.568-2.098 7.344zM6.716 17.574c1.37 5.974 7.687 9.361 13.377 6.838 2.071-0.918 3.714-2.554 4.661-4.608 0.245-0.531 0.725-1.491 0.445-2.188-0.279-0.694-2.986 0.44-3.662 0.736-0.095 0.042-0.162 0.13-0.178 0.233 0 0 0 0 0 0-0.022 0.145 0.017 0.294 0.109 0.409s0.227 0.187 0.374 0.198c0.496 0.038 1.136 0.087 1.136 0.087-2.057 3.982-7.62 5.743-11.541 2.562-0.878-0.712-1.661-1.558-2.188-2.562-0.255-0.485-0.491-1.106-0.924-1.439-0.416-0.32-1.047-0.43-1.609-0.266z"></path>
</svg>
