<!-- Generated by IcoMoon.io -->
<svg version="1.1" xmlns="http://www.w3.org/2000/svg" width="22" height="32" viewBox="0 0 22 32">
<title>gzr</title>
<path fill="#448fcc" d="M20.971 7.279c-1.008-0.371-3.236 0.186-3.342 0.345 0.424 0.080 0.557 0.133 1.194 0.239 0.729 0.135 1.379 0.384 1.964 0.731l-0.027-0.015c0.637 0.371 0.902-0.133 0.902-0.133 0.106-0.239-0.186-0.981-0.69-1.167z"></path>
<path fill="#3c94d0" d="M2.854 2.875c-0.181-0.284-0.355-0.526-0.543-0.758l0.012 0.015c-0.504-0.53-1.485-0.796-2.016-0.53-0.292 0.133-0.424 0.318-0.186 0.637 0.282 0.278 0.644 0.476 1.048 0.555l0.013 0.002c0.239 0.053 1.3 0.292 1.565 0.345 0.268 0 0.106-0.265 0.106-0.265z"></path>
<path fill="#1593d1" d="M3.915 5.554v0c-0.021-0.048-0.059-0.085-0.105-0.106l-0.001-0.001c-0.11 0.015-0.238 0.023-0.367 0.023-0.56 0-1.084-0.157-1.529-0.428l0.013 0.007c-0.122-0.087-0.274-0.139-0.438-0.139s-0.316 0.052-0.44 0.141l0.002-0.002c-0.345 0.292 0.159 0.637 0.186 0.637 0.212 0.133 0.451 0.080 0.663 0.133 0.463 0.14 1.005 0.244 1.563 0.29l0.029 0.002c0.451 0 0.557-0.159 0.424-0.557z"></path>
<path fill="#158dcd" d="M21.475 4.573c0.053-0.159 0-0.69-0.955-0.557v0c-0.796 0.133-1.353 0.345-1.326 0.451s0.902 0.265 1.088 0.292c0.743 0.133 1.167-0.080 1.194-0.186z"></path>
<path fill="#1593d1" d="M11.82 0.143c-0.094-0.087-0.221-0.141-0.36-0.141-0.125 0-0.24 0.043-0.33 0.115l0.001-0.001c-0.796 0.504-0.212 2.228-0.133 2.228s0.159-0.61 0.955-1.512c0.056-0.078 0.089-0.176 0.089-0.281 0-0.17-0.087-0.32-0.22-0.408l-0.002-0.001z"></path>
<path fill="#1593d1" d="M8.53 4.414c-0.504-0.265-0.080-1.565-0.265-2.042-0.050-0.204-0.231-0.353-0.446-0.353-0.101 0-0.195 0.033-0.271 0.089l0.001-0.001c-0.188 0.078-0.317 0.26-0.317 0.472 0 0.101 0.029 0.194 0.079 0.273l-0.001-0.002c0.106 0.212 0.743 1.432 0.239 1.645-0.186 0.080-0.584-0.080-0.849-0.239-0.955-0.424-1.114-1.883-1.406-2.069-0.123-0.092-0.279-0.147-0.447-0.147-0.183 0-0.352 0.066-0.482 0.175l0.001-0.001c-0.188 0.107-0.312 0.306-0.312 0.534 0 0.085 0.017 0.166 0.048 0.239l-0.002-0.004c0.133 0.239 0.637 0.371 0.743 1.194l0.318 0.239c0.159 0.133 0.318 0.265 0.504 0.398 0.477 0.477 0.371 0.557 1.353 0.398 0.318-0.106 0.265-0.53 0.584-0.637 0.044-0.006 0.094-0.010 0.146-0.010 0.158 0 0.309 0.033 0.445 0.092l-0.007-0.003c0.295 0.159 0.537 0.384 0.712 0.656l0.005 0.008c0.424 0.504 0.61 1.141 0.981 1.698 0.135 0.243 0.294 0.452 0.478 0.637l-0-0 0.398 0.318c0.557 0.371 1.061 0.345 1.459-0.080v0c0.213-0.154 0.36-0.389 0.397-0.658l0.001-0.005c0.238-0.709 0.507-1.314 0.825-1.888l-0.029 0.058c0-0.015 0.012-0.027 0.027-0.027v0c0.003-0.028 0.025-0.051 0.053-0.053l0-0c0.070-0.050 0.158-0.080 0.252-0.080s0.182 0.030 0.253 0.081l-0.001-0.001c0.080 0.106-0.080 1.088 0 1.194 0.053 0.212 0.451 0.080 0.796 0.053 0.031-0.038 0.057-0.082 0.078-0.129l0.001-0.004c0.584-0.186 1.141-0.477 1.724-0.637h0.318c0.148-0.025 0.317-0.040 0.491-0.040s0.343 0.014 0.509 0.042l-0.018-0.002c0.318 0 0.424 0.186 0.398 0.477 0.53-0.027 1.061-0.027 1.591-0.080 0.239-0.027 0.61-0.027 0.584-0.477v0c-0.053-0.265-0.477-1.008-2.414-0.557v0c-0.186 0.053-1.247 0.371-1.618 0.186v0c0.478-0.316 1.051-0.65 1.641-0.956l0.11-0.052c0.265-0.212 0.477-0.504 0.318-0.822s-0.477-0.292-0.769-0.186c-0.572 0.181-1.061 0.482-1.459 0.876l0-0c-0.264 0.268-0.55 0.512-0.856 0.729l-0.020 0.013c-0.769 0.371-0.769 0.371-0.955 0.318v0c-0.239-0.106-0.504-0.292-0.318-0.557 0.102-0.16 0.184-0.346 0.236-0.543l0.003-0.014c0.080-0.345-0.027-0.451-0.265-0.451-0.477 0.027-0.637 0.716-0.716 0.822-0.055 0.111-0.117 0.207-0.188 0.295l0.002-0.003c-0.083 0.082-0.198 0.133-0.324 0.133-0.055 0-0.108-0.010-0.157-0.027l0.003 0.001c-0.159-0.027-0.292-0.106-0.159-0.318 0.239-0.371 0.981-0.955 1.194-1.724v0s0.371-1.008-0.663-1.034c-0.557-0.027-1.008 0.371-1.167 0.981v0c-0.159 0.637 0.186 1.512 0 1.936-0.073 0.192-0.162 0.359-0.27 0.511l0.005-0.007c-0.172 0.154-0.4 0.249-0.65 0.249s-0.478-0.094-0.651-0.249l0.001 0.001c-0.159-0.184-0.255-0.426-0.255-0.69 0-0.066 0.006-0.13 0.017-0.192l-0.001 0.006c0.079-0.286 0.153-0.645 0.206-1.011l0.006-0.050c0.027-0.265-0.451-0.743-0.849-0.424-0.186 0.133-0.106 0.345-0.027 0.53 0.133 0.398 0.371 1.538-0.928 0.981zM9.273 5.236v0c-0.027-0.027 0-0.027 0 0z"></path>
<path fill="#1593d1" d="M10.149 6.43h1.751c0.016-0.002 0.034-0.003 0.053-0.003 0.147 0 0.278 0.062 0.371 0.162l0 0c0.001 0.006 0.001 0.013 0.001 0.021 0 0.059-0.032 0.111-0.080 0.138l-0.001 0c-0.279-0.063-0.599-0.099-0.928-0.099s-0.649 0.036-0.958 0.105l0.029-0.005h-0.080z"></path>
<path fill="#56c9e9" d="M16.568 5.714c-0.802 0.226-1.463 0.461-2.105 0.733l0.116-0.043c-0.025 0.008-0.054 0.013-0.085 0.013-0.096 0-0.18-0.046-0.233-0.118l-0.001-0.001c-0.025-0.055-0.040-0.118-0.040-0.186s0.015-0.131 0.041-0.188l-0.001 0.003c0.013-0.040 0.020-0.085 0.020-0.133s-0.007-0.093-0.021-0.136l0.001 0.003c-0.057-0.149-0.148-0.274-0.264-0.37l-0.001-0.001c-0.078-0.066-0.18-0.105-0.291-0.105-0.171 0-0.321 0.095-0.398 0.236l-0.001 0.002c-0.337 0.519-0.609 1.119-0.785 1.758l-0.011 0.045c-0.068 0.265-0.207 0.49-0.397 0.662l-0.001 0.001c-0.398 0.345-0.769 0.371-1.3 0.080-0.158-0.115-0.296-0.228-0.428-0.348l0.004 0.003c-0.175-0.195-0.334-0.412-0.468-0.645l-0.010-0.018c-0.212-0.398-0.424-0.822-0.637-1.194-0.292-0.477-0.584-0.928-1.114-1.167-0.092-0.034-0.198-0.054-0.309-0.054-0.079 0-0.155 0.010-0.228 0.029l0.006-0.001c-0.16 0.032-0.292 0.129-0.37 0.263l-0.001 0.003c-0.080 0.133-1.141 0.159-1.512-0.053-0.186-0.106-0.716-0.637-0.902-0.584-0.159 0-0.239-0.106-0.345-0.186-0.288-0.2-0.645-0.319-1.030-0.319-0.221 0-0.432 0.039-0.628 0.111l0.013-0.004c-0.232 0.056-0.408 0.241-0.45 0.474l-0.001 0.004c0.003 0.256 0.166 0.473 0.394 0.556l0.004 0.001c0.308 0.116 0.561 0.232 0.806 0.363l-0.036-0.018c0.133 0.053 0.345 0.080 0.318 0.318-0 0.006-0 0.012-0 0.019 0 0.060 0.010 0.117 0.028 0.17l-0.001-0.004c0.027 0.345-0.212 0.371-0.451 0.371-0.376-0.030-0.719-0.087-1.053-0.169l0.045 0.009c-0.263-0.092-0.566-0.145-0.882-0.145-0.091 0-0.181 0.004-0.27 0.013l0.011-0.001c-0.106 0.133-0.239 0.053-0.371 0.080-0.477 0.080-0.849 0.424-0.822 0.822 0.027 0.451 0.398 0.557 0.769 0.637 0.902 0.212 1.804 0.133 2.706 0.159 1.088 0 1.698 0.53 1.857 1.618 0.106 0.796 2.493 21.698 2.52 22.149 0.005 0.192 0.137 0.351 0.315 0.397l0.003 0.001c0.754 0.238 1.621 0.375 2.521 0.375 0.093 0 0.186-0.001 0.278-0.004l-0.014 0c0.081 0.002 0.175 0.004 0.27 0.004 1.019 0 2.003-0.147 2.933-0.42l-0.073 0.018c0.159-0.053 0.292-0.106 0.292-0.318 0.027-0.557 1.538-20.53 1.538-20.849-0-0.021-0.001-0.046-0.001-0.070 0-0.946 0.32-1.817 0.856-2.512l-0.007 0.010c0.451-0.53 0.955-1.008 1.406-1.538 0.133-0.743-0.822-0.743-1.724-0.61z"></path>
</svg>
