<!-- Generated by IcoMoon.io -->
<svg version="1.1" xmlns="http://www.w3.org/2000/svg" width="26" height="32" viewBox="0 0 26 32">
<title>hodl</title>
<path fill="#8f4c21" d="M23.171 1.149l-6.97 6.998h0.013v23.137l6.606-4.535c0.964-0.676 1.538-1.779 1.538-2.956v-22.152c0-0.62-0.749-0.93-1.187-0.492z"></path>
<path fill="#b97929" d="M10.62 8.147l-6.97-6.998c-0.438-0.438-1.187-0.128-1.187 0.492v22.152c0 1.177 0.574 2.281 1.538 2.956l6.619 4.526v-23.127z"></path>
<path fill="#111312" d="M5.436 22.924c0 0 0-5.891-1.302-6.883-0.298-0.136-0.901 0.053-1.512 0.392-0.768 0.533-1.499 1.564-1.464 3.205 0.026 1.205 0.762 1.976 1.617 2.465 0.989 0.474 2.662 0.821 2.662 0.821z"></path>
<path fill="#a35e24" d="M2.463 9.919v0.613l8.157-2.385-0.436-0.438-7.721 2.21z"></path>
<path fill="#7a411c" d="M5.408 22.652c0 0 0-5.429-1.578-6.343-0.257-0.089-0.709-0.036-1.208 0.124 0.636-0.432 1.299-0.577 1.617-0.438 1.373 1.006 1.373 6.977 1.373 6.977s-1.553-0.15-2.837-0.868c1.309 0.441 2.632 0.548 2.632 0.548z"></path>
<path fill="#111312" d="M21.384 22.924c0 0 0-5.891 1.302-6.883 0.298-0.136 0.901 0.053 1.512 0.392 0.768 0.533 1.499 1.564 1.464 3.205-0.026 1.205-0.762 1.976-1.617 2.465-0.989 0.474-2.662 0.821-2.662 0.821z"></path>
<path fill="#5c3115" d="M24.358 9.919v0.613l-8.157-2.385 0.436-0.438 7.721 2.21z"></path>
<path fill="#5c3115" d="M21.412 22.652c0 0 0-5.429 1.578-6.343 0.257-0.089 0.709-0.036 1.208 0.124-0.636-0.432-1.299-0.577-1.617-0.438-1.373 1.006-1.373 6.977-1.373 6.977s1.553-0.15 2.837-0.868c-1.309 0.441-2.632 0.548-2.632 0.548z"></path>
<path fill="#a65f25" d="M16.214 31.283h-5.594v-23.137h5.594v23.137z"></path>
<path fill="#b86a29" d="M3.65 1.149c-0.438-0.438-1.187-0.128-1.187 0.492v8.278l7.721-2.21-6.534-6.56z"></path>
<path fill="#7a411c" d="M23.171 1.149l-6.534 6.56 7.721 2.21v-8.278c0-0.62-0.749-0.93-1.187-0.492z"></path>
<path fill="#7a411c" d="M11.193 31.283h-0.573v-23.137h0.573v23.137z"></path>
<path fill="#b97929" d="M16.214 31.283h-0.573v-23.137h0.573v23.137z"></path>
<path fill="#b86a29" d="M10.62 24.844h5.594v-8.857h-5.594v8.857z"></path>
<path fill="#b97929" d="M15.641 15.416h-5.021v0.572h5.021v-0.572z"></path>
<path fill="#7a411c" d="M11.193 25.41h5.021v-0.567h-5.021v0.567z"></path>
</svg>
