<!-- Generated by IcoMoon.io -->
<svg version="1.1" xmlns="http://www.w3.org/2000/svg" width="32" height="32" viewBox="0 0 32 32">
<title>ilk</title>
<path fill="#fff" stroke="#000" stroke-linejoin="miter" stroke-linecap="butt" stroke-miterlimit="10" stroke-width="1.92" d="M29.28 16c0 7.334-5.946 13.28-13.28 13.28s-13.28-5.946-13.28-13.28c0-7.334 5.946-13.28 13.28-13.28s13.28 5.946 13.28 13.28z"></path>
<path fill="#000" d="M7.419 14.73v-5.019c0-0.939 0.453-1.41 1.36-1.41h4.973c0.926 0 1.39 0.47 1.39 1.41v5.019h-2.29v-4.462h-3.142v4.461h-2.291z"></path>
<path fill="#98c23a" d="M15.142 22.219c0 0.933-0.464 1.4-1.39 1.4h-4.971c-0.907 0-1.36-0.467-1.36-1.4v-6.016h7.723v6.016z"></path>
<path fill="#96c12c" d="M16.774 16.283v-6.47c0-0.939 0.47-1.41 1.41-1.41h4.947c0.966 0 1.45 0.47 1.45 1.41v3.582h-2.362v-3.024h-3.072v5.912h-2.373z"></path>
<path fill="#000" d="M24.581 22.299c0 0.933-0.469 1.4-1.405 1.4h-5.026c-0.917 0-1.374-0.467-1.374-1.4v-6.016h7.806v6.016z"></path>
</svg>
