<!-- Generated by IcoMoon.io -->
<svg version="1.1" xmlns="http://www.w3.org/2000/svg" width="32" height="32" viewBox="0 0 32 32">
<title>iop</title>
<path fill="#b3b4b4" d="M7.351 9.319c-0.038-0.022-0.069-0.004-0.069 0.040v2.624c0.003 0.050 0.029 0.094 0.069 0.12l0.001 0 3.317 1.917c0.040 0.026 0.066 0.070 0.069 0.12l0 0v9.495c0.003 0.050 0.030 0.094 0.069 0.12l0.001 0 2.272 1.312c0.038 0.022 0.069 0.004 0.069-0.040v-12.279c-0.003-0.050-0.029-0.094-0.069-0.12l-0.001-0z"></path>
<path fill="#b3b4b4" d="M24.649 9.319c0.038-0.022 0.069-0.004 0.069 0.040v2.624c-0.003 0.050-0.030 0.094-0.069 0.12l-0.001 0-3.317 1.916c-0.040 0.026-0.067 0.070-0.069 0.12l-0 0v9.497c-0.003 0.050-0.029 0.094-0.069 0.12l-0.001 0-2.272 1.312c-0.038 0.022-0.069 0.004-0.069-0.040v-12.279c0.003-0.050 0.029-0.094 0.069-0.12l0.001-0z"></path>
<path fill="#0cafa5" d="M25.098 4.286c0-0.044-0.032-0.062-0.069-0.040l-8.96 5.182c-0.020 0.010-0.044 0.017-0.069 0.017s-0.049-0.006-0.070-0.017l0.001 0-8.96-5.182c-0.038-0.022-0.069-0.004-0.069 0.040v2.624c0.003 0.050 0.030 0.094 0.069 0.12l0.001 0 7.755 4.484c0.040 0.026 0.066 0.070 0.069 0.12l0 0v16.285c0.003 0.050 0.030 0.094 0.069 0.12l0.001 0 1.066 0.616c0.020 0.010 0.044 0.016 0.069 0.016s0.049-0.006 0.070-0.017l-0.001 0 1.066-0.616c0.040-0.026 0.067-0.070 0.069-0.12l0-0v-16.285c0.003-0.050 0.029-0.094 0.069-0.12l0.001-0 7.755-4.485c0.040-0.026 0.066-0.070 0.069-0.12l0-0zM16 10.868c-0.003 0-0.004-0.002-0.002-0.004s0.003-0.002 0.004 0 0 0.004-0.002 0.004z"></path>
<path fill="#0cafa5" d="M14.874 3.942c-0.045 0.010-0.078 0.049-0.079 0.096v3.275c0.003 0.050 0.030 0.094 0.069 0.12l0.001 0 1.066 0.615c0.020 0.010 0.044 0.017 0.069 0.017s0.049-0.006 0.070-0.017l-0.001 0 1.066-0.615c0.040-0.026 0.067-0.070 0.069-0.12l0-0v-3.276c-0.001-0.047-0.034-0.086-0.078-0.096l-0.001-0-1.047-0.192c-0.024-0.004-0.051-0.006-0.079-0.006s-0.055 0.002-0.082 0.006l0.003-0z"></path>
</svg>
