<!-- Generated by IcoMoon.io -->
<svg version="1.1" xmlns="http://www.w3.org/2000/svg" width="34" height="32" viewBox="0 0 34 32">
<title>iotx</title>
<path fill="#000" d="M20.488 0v7.7l6.685-3.845-6.685-3.856z"></path>
<path fill="#000" opacity="0.9" d="M27.172 3.856v7.7l6.685-3.856-6.685-3.845z"></path>
<path fill="#000" opacity="0.8" d="M20.488 7.7v7.7l6.685-3.845-6.685-3.856z"></path>
<path fill="#000" opacity="0.8" d="M27.172 11.556v7.7l6.685-3.856-6.685-3.845z"></path>
<path fill="#000" opacity="0.8" d="M20.488 15.4v7.701l6.685-3.845-6.685-3.856z"></path>
<path fill="#000" d="M27.172 19.256v7.701l6.685-3.856-6.685-3.845z"></path>
<path fill="#000" opacity="0.4" d="M3.207 7.441v7.7l6.686-3.856-6.686-3.845z"></path>
<path fill="#000" opacity="0.2" d="M11.642 10.303v7.701l6.675-3.845-6.675-3.856z"></path>
<path fill="#000" opacity="0.3" d="M6.685 15.173v7.701l6.686-3.856-6.686-3.845z"></path>
<path fill="#000" opacity="0.9" d="M11.091 20.984v7.7l6.675-3.856-6.675-3.845z"></path>
<path fill="#000" opacity="0.7" d="M20.433 24.3v7.7l6.674-3.856-6.674-3.845z"></path>
<path fill="#000" opacity="0.9" d="M12.754 6.501v7.701l6.675-3.845-6.675-3.856z"></path>
<path fill="#000" opacity="0.8" d="M20.488 0v7.7l-6.686-3.845 6.686-3.856z"></path>
<path fill="#000" opacity="0.6" d="M12.754 3.273v7.7l-6.685-3.856 6.685-3.845z"></path>
<path fill="#000" opacity="0.6" d="M19.439 7.085v7.7l-6.685-3.856 6.685-3.845z"></path>
<path fill="#000" opacity="0.95" d="M11.61 10.303v7.701l-6.685-3.845 6.685-3.856z"></path>
<path fill="#000" opacity="0.6" d="M20.488 15.4v7.701l-6.675-3.845 6.675-3.856z"></path>
<path fill="#000" opacity="0.55" d="M6.685 17.193v7.701l-6.685-3.856 6.685-3.845z"></path>
<path fill="#000" d="M33.857 7.7v7.7l-6.685-3.845 6.685-3.856z"></path>
<path fill="#000" opacity="0.95" d="M27.172 11.556v7.7l-6.685-3.856 6.685-3.845z"></path>
<path fill="#000" opacity="0.9" d="M33.857 15.4v7.701l-6.685-3.845 6.685-3.856z"></path>
<path fill="#000" opacity="0.7" d="M27.172 19.256v7.701l-6.685-3.856 6.685-3.845z"></path>
<path fill="#000" opacity="0.4" d="M19.008 22.464v7.7l-6.685-3.845 6.685-3.856z"></path>
<path fill="#000" d="M27.172 3.856v7.7l-6.685-3.856 6.685-3.845z"></path>
</svg>
