<!-- Generated by IcoMoon.io -->
<svg version="1.1" xmlns="http://www.w3.org/2000/svg" width="36" height="32" viewBox="0 0 36 32">
<title>loom</title>
<path fill="#48beff" d="M27.411 32.002l-24.688-17.32c-1.656-1.173-2.723-3.081-2.723-5.238s1.068-4.065 2.703-5.225l0.020-0.013 5.984-4.206 24.688 17.318c1.656 1.173 2.723 3.081 2.723 5.238s-1.068 4.065-2.703 5.225l-0.020 0.013zM8.702 2.807l-4.662 3.261c-1.067 0.753-1.756 1.981-1.756 3.37s0.689 2.617 1.743 3.361l0.013 0.009 23.375 16.389 4.662-3.261c1.067-0.753 1.756-1.981 1.756-3.37s-0.689-2.617-1.743-3.361l-0.013-0.009z"></path>
<path fill="#3c91e6" d="M8.681 29.195l-4.656-3.265c-1.067-0.753-1.756-1.981-1.756-3.37s0.689-2.617 1.743-3.361l0.013-0.009 12.054-8.412-1.98-1.395-11.376 7.936c-1.656 1.173-2.723 3.081-2.723 5.238s1.068 4.065 2.703 5.225l0.020 0.013 5.962 4.186 7.378-5.166-1.98-1.395zM33.403 4.217l-5.969-4.186-7.383 5.166 1.98 1.395 5.394-3.775 4.656 3.265c1.067 0.753 1.756 1.981 1.756 3.37s-0.689 2.617-1.743 3.361l-0.013 0.009-12.054 8.412 1.98 1.395 11.382-7.951c1.656-1.173 2.723-3.081 2.723-5.238s-1.068-4.065-2.703-5.225l-0.020-0.013z"></path>
<path fill="#3c91e6" d="M4.135 16.315l9.389-6.569 1.309 1.868-9.389 6.571z"></path>
<path fill="#3c91e6" d="M30.879 13.668l-4.572 3.194 1.307 1.87 4.735-3.321c-0.504-0.575-0.99-1.162-1.479-1.752z"></path>
</svg>
