<!-- Generated by IcoMoon.io -->
<svg version="1.1" xmlns="http://www.w3.org/2000/svg" width="41" height="32" viewBox="0 0 41 32">
<title>matic</title>
<path fill="#2bbdf7" d="M15.729 13.307l4.536 10.059 6.756-3.894v-7.79l-11.292 1.624z"></path>
<path fill="#2891f9" d="M35.755 5.843l-4.214-1.587-4.503-0.364v24.207l6.756 3.894 5.333-10.913-3.363-10.552-0.008-4.684z"></path>
<path fill="#2bbdf7" d="M35.332 3.9l-1.565 3.893h-0.002v24.204l6.757-3.893v-24.204h-5.19z"></path>
<path fill="#2b6def" d="M33.795 0l-6.757 3.896 6.757 3.895 6.757-3.895-6.757-3.896z"></path>
<path fill="#2891f9" d="M20.269 15.575v-0.002l-6.756-7.56-13.513-4.121v24.204l6.755 3.895 1.931-13.394 4.828 0.873 6.757 3.894v-7.787h-0.001z"></path>
<path fill="#2b6def" d="M6.759 0l-6.759 3.895 20.267 11.687 6.756-3.896-20.264-11.686z"></path>
<path fill="#2bbdf7" d="M6.761 15.574h-0.001v16.414l6.757-3.894v-8.626l-6.756-3.895z"></path>
</svg>
