<!-- Generated by IcoMoon.io -->
<svg version="1.1" xmlns="http://www.w3.org/2000/svg" width="28" height="32" viewBox="0 0 28 32">
<title>meetone</title>
<path fill="#bfbfbf" d="M5.467 23.4l8.267 5.2h1l8.133-5.2-1.267-1-7.4 4.733-7.667-4.733z"></path>
<path fill="#bfbfbf" d="M9.467 11.333l4.667-7.067 4.8 7.133 1.133-1-5.333-8c0 0-0.467-0.6-1.2 0l-5.467 8.2 1.4 0.733z"></path>
<path fill="#000" d="M14.267 25.6c0.267-0.933 0.6-1.8 0.867-2.733 1.2-3.733 2.4-7.533 3.6-11.267 0.067-0.2 0.133-0.467 0.2-0.667 0.133-0.4 0.333-0.6 0.733-0.6s0.667 0.267 0.733 0.6c0.333 1.333 0.6 2.733 0.933 4.067 0.6 2.533 1.133 5.133 1.733 7.667 0.133 0.6-0.067 1-0.533 1.133s-0.8-0.2-0.933-0.8c-0.667-2.867-1.333-5.733-1.933-8.667 0-0.133-0.067-0.2-0.133-0.4-0.067 0.2-0.133 0.4-0.2 0.533-1.267 3.867-2.467 7.733-3.733 11.6-0.2 0.733-0.467 1.4-0.667 2.133-0.133 0.467-0.4 0.667-0.8 0.667s-0.667-0.2-0.8-0.667c-1.467-4.6-2.933-9.2-4.333-13.8-0.067-0.133-0.067-0.2-0.133-0.467-0.133 0.667-0.267 1.267-0.4 1.8-0.533 2.4-1.067 4.867-1.6 7.267-0.133 0.667-0.667 1-1.2 0.667-0.333-0.2-0.4-0.533-0.333-0.933 0.733-3.333 1.533-6.667 2.267-10 0.133-0.533 0.267-1.067 0.333-1.6 0.133-0.533 0.4-0.8 0.8-0.8s0.667 0.267 0.8 0.8c1.533 4.8 3.067 9.667 4.533 14.467 0.133 0 0.133 0 0.2 0z"></path>
</svg>
