<!-- Generated by IcoMoon.io -->
<svg version="1.1" xmlns="http://www.w3.org/2000/svg" width="32" height="32" viewBox="0 0 32 32">
<title>npxs</title>
<path fill="#262321" d="M32 16c0 8.837-7.163 16-16 16s-16-7.163-16-16c0-8.837 7.163-16 16-16s16 7.163 16 16z"></path>
<path fill="#f7d00f" d="M7.387 8.614l1.228-1.228 6.516 6.516-1.228 1.228-6.516-6.516z"></path>
<path fill="#f7d00f" d="M16.853 18.081l1.228-1.228 6.516 6.516-1.228 1.228-6.516-6.516z"></path>
<path fill="#f7d00f" d="M14.771 15.999l1.228-1.228 1.23 1.23-1.228 1.228-1.23-1.23z"></path>
<path fill="#f7d00f" d="M16.869 13.949l6.516-6.516 1.228 1.228-6.516 6.516-1.228-1.228z"></path>
<path fill="#f7d00f" d="M7.435 23.385l6.516-6.516 1.228 1.228-6.516 6.516-1.228-1.228z"></path>
</svg>
