<!-- Generated by IcoMoon.io -->
<svg version="1.1" xmlns="http://www.w3.org/2000/svg" width="57" height="32" viewBox="0 0 57 32">
<title>ok</title>
<path d="M57.428 11.191v0.153c-3.324 2.082-6.674 4.138-10.011 6.213-0.064 0.045-0.114 0.106-0.146 0.177l-0.001 0.003c0.894 0.24 1.815 0.42 2.663 0.808 0.781 0.347 1.582 0.801 2.022 1.562 0.261 0.469 0.415 1.028 0.415 1.624 0 0.32-0.044 0.629-0.127 0.923l0.006-0.024c-0.127 0.634-0.394 1.228-0.634 1.829-1.001 2.403-2.009 4.799-3.003 7.208-0.053 0.127-0.118 0.238-0.196 0.337l0.002-0.003c-0.327-0.007-0.641-0.127-0.961-0.2-1.622-0.4-3.25-0.794-4.872-1.201-0.527-0.147-1.068-0.234-1.588-0.407 0.013-0.327 0.2-0.607 0.314-0.901l2.222-5.326c0.167-0.367 0.267-0.828 0.027-1.188-0.3-0.514-0.901-0.707-1.435-0.854-1.955-0.501-3.924-0.968-5.886-1.455-0.28-0.060-0.554-0.187-0.848-0.147-0.174 0.3-0.274 0.641-0.414 0.968-0.834 1.955-1.635 3.924-2.463 5.88-0.12 0.274-0.194 0.574-0.374 0.814-0.327 0-0.634-0.127-0.948-0.2-1.675-0.414-3.35-0.834-5.032-1.241-0.474-0.127-0.968-0.207-1.435-0.367 0.006-0.141 0.038-0.273 0.090-0.394l-0.003 0.007 8.469-20.302c0.030-0.070 0.076-0.128 0.133-0.173l0.001-0.001c0.294 0.020 0.574 0.14 0.861 0.207 1.428 0.34 2.856 0.707 4.285 1.054 0.741 0.194 1.502 0.34 2.236 0.561 0.040 0.14-0.027 0.28-0.080 0.414-0.574 1.308-1.101 2.636-1.662 3.944l-1.729 4.151c-0.194 0.487-0.447 0.954-0.581 1.468 0.247-0.087 0.461-0.234 0.681-0.38l11.279-7.074c0.207-0.127 0.394-0.3 0.627-0.36 0.347-0.027 0.674 0.107 1.001 0.18 1.148 0.247 2.282 0.574 3.424 0.841 1.235 0.274 2.449 0.614 3.671 0.874zM30.813 7.12c0.060 1.208-0.4 2.356-0.874 3.437-1.275 3.063-2.563 6.12-3.831 9.183-0.46 1.081-0.861 2.209-1.568 3.163-0.501 0.702-1.186 1.244-1.986 1.558l-0.030 0.010c-0.616 0.199-1.325 0.314-2.061 0.314-0.387 0-0.766-0.032-1.136-0.093l0.040 0.006c-1.822-0.227-3.597-0.721-5.379-1.148-2.423-0.607-4.859-1.195-7.281-1.802-1.608-0.387-3.23-0.801-4.725-1.535-0.655-0.322-1.192-0.797-1.579-1.38l-0.009-0.015c-0.247-0.397-0.393-0.879-0.393-1.394 0-0.092 0.005-0.183 0.014-0.272l-0.001 0.011c0.127-1.061 0.521-2.069 0.948-3.043q1.952-4.695 3.904-9.383c0.314-0.721 0.587-1.462 0.988-2.142 0.356-0.644 0.803-1.189 1.333-1.642l0.008-0.007c0.612-0.469 1.358-0.794 2.17-0.911l0.025-0.003c0.587-0.053 1.175-0.027 1.762-0.013 2.113 0.315 3.934 0.709 5.711 1.206l-0.325-0.078c2.483 0.601 4.959 1.228 7.441 1.829 1.141 0.28 2.276 0.567 3.39 0.948 0.747 0.274 1.508 0.554 2.162 1.028 0.725 0.475 1.215 1.259 1.281 2.16l0.001 0.009zM22.137 9.255c0.047-0.354-0.207-0.654-0.501-0.808-0.601-0.327-1.281-0.447-1.935-0.614q-2.593-0.647-5.199-1.281c-0.29-0.088-0.623-0.138-0.967-0.138-0.196 0-0.388 0.016-0.574 0.048l0.020-0.003c-0.587 0.167-0.881 0.761-1.081 1.281-0.981 2.336-1.942 4.678-2.93 7.008-0.107 0.274-0.214 0.547-0.24 0.841 0 0.334 0.234 0.627 0.521 0.767 0.427 0.22 0.894 0.34 1.348 0.46l5.406 1.328c0.627 0.147 1.288 0.307 1.929 0.167 0.541-0.174 0.814-0.727 1.014-1.215l2.65-6.354c0.207-0.481 0.474-0.954 0.541-1.488z"></path>
</svg>
