<!-- Generated by IcoMoon.io -->
<svg version="1.1" xmlns="http://www.w3.org/2000/svg" width="33" height="32" viewBox="0 0 33 32">
<title>ong</title>
<path fill="#231f20" d="M16.431 32c8.619 0 15.147-5.776 16.502-13.331h-7.353c-1.099 4.013-4.511 6.948-9.061 6.948-4.518 0-7.973-2.956-9.119-6.948h-7.4c1.305 7.583 7.779 13.331 16.431 13.331z"></path>
<path fill="#f58220" d="M20.268 3.794c0 2.095-1.699 3.794-3.794 3.794s-3.794-1.699-3.794-3.794c0-2.095 1.699-3.794 3.794-3.794s3.794 1.699 3.794 3.794z"></path>
<path fill="#35b6dc" d="M6.989 18.669v-0.077c0-5.394 3.865-9.798 9.438-9.798s9.518 4.479 9.528 9.875z"></path>
</svg>
