<!-- Generated by IcoMoon.io -->
<svg version="1.1" xmlns="http://www.w3.org/2000/svg" width="32" height="32" viewBox="0 0 32 32">
<title>pac</title>
<path fill="#f5eb16" d="M15.997 32c-0.001 0-0.002 0-0.003 0-8.837 0-16-7.163-16-16s7.163-16 16-16c8.836 0 15.998 7.162 16 15.997v0c-0.008 8.833-7.165 15.991-15.996 16.003h-0.001z"></path>
<path fill="#19191a" d="M14.325 10.734c-0-0.001-0-0.002-0-0.003 0-0.091 0.074-0.165 0.165-0.165 0.001 0 0.002 0 0.003 0h2.162c0.015-0.001 0.032-0.002 0.049-0.002s0.035 0.001 0.051 0.002l-0.002-0 4.33-2.484c-0.193-0.123-0.424-0.254-0.663-0.372l-0.044-0.020c-1.14-0.534-2.476-0.845-3.885-0.845-0.061 0-0.121 0.001-0.181 0.002l0.009-0h-6.657c-0.001-0-0.002-0-0.003-0-0.090 0-0.164 0.072-0.165 0.162v0s0 0 0 0v7.761l4.831-2.788zM23.961 12.305l-4.796 2.776c-0.117 0.223-0.259 0.414-0.426 0.579l-0 0c-0.463 0.409-1.069 0.666-1.735 0.687l-0.004 0-7.509 4.321v5.973l0.142-0.081 2.266-1.31 2.426-1.397v-3.602c0 0 0-0 0-0 0-0.091 0.074-0.165 0.165-0.165 0.001 0 0.002 0 0.003 0h1.739q3.66 0 5.758-1.753t2.089-4.701c0-0.006 0-0.013 0-0.020 0-0.464-0.043-0.918-0.126-1.358l0.007 0.045zM18.721 11.421c0.471 0.559 0.758 1.287 0.758 2.082 0 0.057-0.001 0.113-0.004 0.169l0-0.008c-0.001 0.221-0.019 0.437-0.052 0.647l0.003-0.024 7.784-4.495-2.924-2.927-6.665 3.849c0.439 0.138 0.811 0.383 1.099 0.705l0.002 0.002zM7.709 21.054l8.158-4.703h-1.362c-0.001 0-0.002 0-0.003 0-0.090 0-0.164-0.072-0.165-0.162v-0s0 0 0 0v-3.567l-9.543 5.506 2.907 2.927z"></path>
</svg>
