<!-- Generated by IcoMoon.io -->
<svg version="1.1" xmlns="http://www.w3.org/2000/svg" width="36" height="32" viewBox="0 0 36 32">
<title>payx</title>
<path fill="#630" d="M10.381 5.59l2.282-5.59 15.629 0.057c2.282 0.171 5.020 0.171 6.56 2.111 1.825 2.111 1.426 5.134 0.513 7.529-1.818 5.216-6.132 9.133-11.472 10.361l-0.107 0.021c-3.765 0.57-7.586 0.399-11.408 0.399q1.141-2.784 2.282-5.59c3.137 0 6.332 0.171 9.526-0.342 2.909-0.742 5.59-3.651 5.134-6.845-0.285-1.369-1.825-1.996-3.137-1.996-5.248-0.228-10.496 0-15.743-0.114z"></path>
<path fill="#630" d="M3.651 7.13h18.538l-2.453 6.332h-18.595l2.51-6.274zM6.617 14.888h6.446l-6.731 17.112h-6.332l6.674-17.112z"></path>
</svg>
