<!-- Generated by IcoMoon.io -->
<svg version="1.1" xmlns="http://www.w3.org/2000/svg" width="32" height="32" viewBox="0 0 32 32">
<title>pungo</title>
<path fill="#333233" d="M13.705 31.883c-0.421-0.062-0.827-0.133-0.898-0.164-0.070-0.023-0.406-0.117-0.749-0.195-2.482-0.601-5.12-2.076-7.095-3.965-1.506-1.444-3.013-3.629-3.645-5.276-0.086-0.211-0.187-0.46-0.226-0.546-0.211-0.445-0.585-1.748-0.796-2.802-0.226-1.101-0.242-1.296-0.242-2.896 0-0.983 0.039-1.92 0.086-2.185 0.055-0.258 0.156-0.827 0.242-1.257 0.078-0.437 0.195-0.874 0.25-0.976s0.086-0.187 0.078-0.187c-0.039 0 0.32-1.163 0.382-1.249 0.031-0.039 0.125-0.25 0.203-0.468 0.133-0.367 0.57-1.257 0.734-1.522 0.047-0.062 0.25-0.406 0.461-0.757 0.219-0.359 0.429-0.695 0.468-0.741 0.047-0.055 0.304-0.382 0.57-0.726 2.326-2.958 5.861-5.097 9.584-5.791 1.101-0.211 4.855-0.203 5.971 0.008 1.787 0.336 3.692 1.077 5.307 2.061 0.78 0.484 0.835 0.515 1.717 1.218 0.749 0.593 1.99 1.842 2.529 2.544 0.211 0.281 0.476 0.617 0.585 0.749 0.109 0.141 0.203 0.273 0.203 0.304 0 0.039 0.086 0.172 0.187 0.304s0.343 0.562 0.546 0.944c0.195 0.39 0.39 0.741 0.421 0.78 0.031 0.047 0.18 0.367 0.32 0.726 1.054 2.661 1.42 5.198 1.132 7.938-0.117 1.179-0.648 3.262-1.054 4.152-0.078 0.187-0.148 0.359-0.148 0.382 0 0.070-0.671 1.413-0.874 1.748-1.647 2.732-3.98 4.933-6.619 6.244-0.453 0.226-0.882 0.437-0.96 0.476-0.523 0.273-2.248 0.796-3.528 1.061-0.796 0.164-4.129 0.203-5.143 0.062zM18.615 30.322c2.17-0.375 4.394-1.342 6.221-2.708 0.82-0.617 2.224-2.021 2.833-2.833 1.374-1.834 2.279-3.887 2.747-6.244 0.172-0.89 0.195-3.965 0.039-4.878-0.859-4.831-3.809-8.765-8.133-10.841-1.179-0.562-2.115-0.882-3.426-1.155-0.89-0.187-1.147-0.211-2.701-0.211-1.741-0.008-2.185 0.039-3.528 0.351-2.903 0.679-5.713 2.412-7.657 4.699-3.223 3.793-4.308 8.968-2.872 13.674 0.523 1.733 1.171 3.005 2.256 4.48 2.498 3.395 6.548 5.62 10.63 5.846 1.179 0.070 2.583 0 3.59-0.18z"></path>
<path fill="#21b573" d="M15.532 30.517l-0.421-0.039-0.773-2.716c-0.421-1.499-0.757-2.739-0.741-2.755 0.023-0.016 0.281 0.023 0.578 0.094 0.804 0.172 2.24 0.226 3.091 0.109 4.176-0.562 7.477-3.856 8.031-8.016 0.055-0.414 0.070-1.093 0.047-1.701-0.047-1.147-0.047-1.139-1.186-5.151-0.414-1.46-1.069-3.762-1.452-5.112s-0.695-2.482-0.695-2.513c0-0.109 1.335 0.601 2.068 1.093 3.028 2.029 5.19 5.058 6.072 8.484 0.359 1.397 0.406 1.85 0.406 3.746 0 1.405-0.031 1.951-0.14 2.498-0.617 3.099-1.92 5.581-4.074 7.727-1.764 1.764-3.731 2.958-6.064 3.66-1.491 0.445-3.528 0.702-4.745 0.593z"></path>
<path fill="#21b573" d="M9.296 28.87c-3.099-1.67-5.573-4.425-6.767-7.54-1.499-3.926-1.335-8.031 0.476-11.77 1.436-2.966 3.84-5.331 6.907-6.775 1.904-0.905 3.504-1.28 5.752-1.358l1.335-0.047 0.094 0.304c0.757 2.583 1.452 5.159 1.405 5.206-0.031 0.039-0.336 0.008-0.671-0.070-0.827-0.179-2.724-0.179-3.543 0-3.028 0.663-5.323 2.466-6.626 5.198-0.351 0.726-0.656 1.709-0.78 2.498-0.117 0.702-0.101 2.341 0.023 3.044 0.062 0.32 0.5 1.975 0.983 3.668 0.476 1.694 1.171 4.137 1.53 5.424 0.367 1.288 0.679 2.404 0.702 2.482 0.023 0.070 0.016 0.133-0.023 0.133-0.031 0-0.39-0.18-0.796-0.398z"></path>
<path fill="#21b573" d="M14.821 20.691c-1.631-0.437-2.88-1.631-3.395-3.247-0.382-1.194-0.258-2.583 0.343-3.746 0.375-0.734 1.358-1.717 2.045-2.053 2.053-1.007 4.34-0.593 5.861 1.061 0.827 0.905 1.241 1.998 1.241 3.278 0 1.397-0.421 2.396-1.444 3.419-0.679 0.687-1.381 1.093-2.263 1.319-0.617 0.156-1.741 0.14-2.388-0.031z"></path>
<path fill="#feffff" d="M13.62 30.353c-1.288-0.226-3.099-0.788-3.38-1.038-0.047-0.055-0.406-1.194-0.788-2.544s-1.093-3.848-1.569-5.541c-0.484-1.694-0.921-3.348-0.983-3.668-0.125-0.702-0.141-2.341-0.023-3.044 0.125-0.788 0.429-1.772 0.78-2.498 1.303-2.732 3.598-4.535 6.626-5.198 0.819-0.179 2.716-0.179 3.543 0 0.336 0.078 0.64 0.109 0.671 0.070 0.031-0.031-0.289-1.272-0.71-2.755-0.421-1.475-0.757-2.7-0.741-2.708 0.047-0.047 1.459 0.148 2.146 0.297 0.757 0.164 1.834 0.499 2.443 0.765l0.336 0.14 0.57 2.021c0.32 1.108 0.976 3.442 1.467 5.175 1.303 4.581 1.288 4.503 1.335 5.666 0.023 0.609 0.008 1.288-0.047 1.701-0.554 4.16-3.856 7.454-8.031 8.016-0.851 0.117-2.287 0.062-3.091-0.109-0.297-0.070-0.554-0.109-0.578-0.094-0.023 0.031 1.264 4.675 1.467 5.299 0.070 0.211 0.062 0.211-0.258 0.203-0.18 0-0.71-0.070-1.186-0.156zM17.21 20.722c1.694-0.429 3.161-1.873 3.582-3.52 0.156-0.617 0.164-1.811 0.008-2.412-0.648-2.56-3.309-4.191-5.815-3.559-1.030 0.258-1.577 0.562-2.302 1.288-1.038 1.038-1.467 2.068-1.46 3.52 0.008 2.209 1.444 4.074 3.598 4.652 0.648 0.172 1.772 0.187 2.388 0.031z"></path>
</svg>
