<!-- Generated by IcoMoon.io -->
<svg version="1.1" xmlns="http://www.w3.org/2000/svg" width="32" height="32" viewBox="0 0 32 32">
<title>sib</title>
<path fill="#057bc1" d="M32 16c0 8.837-7.163 16-16 16s-16-7.163-16-16c0-8.837 7.163-16 16-16s16 7.163 16 16z"></path>
<path fill="#fffffe" d="M9.47 8.377h2.211v5.984c0.052 1.301 0.885 2.602 2.159 2.992 0.448 0.107 0.962 0.169 1.491 0.169 1.265 0 2.449-0.353 3.456-0.966l-0.029 0.017c0-1.821-0.026-4.553 0-8.195h2.237v12.306h0.572v1.353h-0.65v3.642h-2.185v-3.642h-3.33v-1.353h3.382v-2.446c-1.204 0.683-2.645 1.086-4.18 1.086-0.564 0-1.116-0.054-1.65-0.158l0.054 0.009c-1.093-0.26-2.185-0.859-2.758-1.847-0.493-0.862-0.783-1.894-0.783-2.994 0-0.063 0.001-0.126 0.003-0.189l-0 0.009z"></path>
</svg>
