<!-- Generated by IcoMoon.io -->
<svg version="1.1" xmlns="http://www.w3.org/2000/svg" width="32" height="32" viewBox="0 0 32 32">
<title>soc</title>
<path fill="#25e44c" d="M32 16c0 8.837-7.163 16-16 16s-16-7.163-16-16c0-8.837 7.163-16 16-16s16 7.163 16 16z"></path>
<path fill="#000" d="M13.53 2.087c0.744-0.139 1.6-0.218 2.475-0.218 7.804 0 14.13 6.326 14.13 14.13s-6.326 14.13-14.13 14.13c-7.804 0-14.13-6.326-14.13-14.13 0-2.575 0.689-4.988 1.892-7.067l-0.036 0.068c2.072-3.583 5.578-6.141 9.713-6.899l0.087-0.013zM14.932 3.768c-0.035 0.643-0.023 1.287 0 1.933-1.074 0.163-2.038 0.43-2.951 0.796l0.089-0.031c0.020-0.695 0.027-1.39 0.018-2.087-4.895 1.686-8.349 6.252-8.349 11.625s3.454 9.939 8.263 11.599l0.086 0.026q0-1.025-0.020-2.043c0.824 0.334 1.784 0.59 2.782 0.726l0.063 0.007c0 0.625 0 1.25-0.037 1.87 0.338 0.050 0.728 0.079 1.125 0.079s0.787-0.029 1.168-0.084l-0.043 0.005c-0.035-0.617-0.050-1.233-0.052-1.85 1.070-0.153 2.031-0.407 2.945-0.756l-0.093 0.031c-0.017 0.675-0.025 1.35 0 2.027 4.891-1.688 8.342-6.252 8.342-11.622 0-5.376-3.458-9.944-8.271-11.602l-0.086-0.026c0 0.69 0 1.377 0.025 2.067-0.825-0.332-1.788-0.593-2.789-0.741l-0.071-0.009c-0.040-0.625 0.137-1.313-0.045-1.905-0.377-0.028-0.816-0.045-1.259-0.045-0.294 0-0.586 0.007-0.877 0.021l0.041-0.002z"></path>
<path fill="#000" d="M11.348 8.822c1.97-1.383 4.605-1.555 6.89-1 2.067 0.522 3.54 2.275 4.25 4.215-1.273 0.22-2.543 0.445-3.815 0.66-0.335-2.020-3.162-2.5-4.567-1.322-0.81 0.665-0.605 2.082 0.395 2.438 2.188 0.905 4.813 0.645 6.75 2.162 2.25 1.53 2.473 5.167 0.47 7-1.61 1.46-3.898 1.805-6 1.775-1.842 0-3.795-0.5-5.128-1.835-0.707-0.683-1.107-1.595-1.465-2.5 1.287-0.332 2.617-0.445 3.915-0.723 0.17 0.805 0.747 1.444 1.501 1.698l0.016 0.005c1.19 0.355 2.647 0.407 3.63-0.433 0.695-0.578 0.715-1.84-0.148-2.273-2.023-1.045-4.543-0.69-6.455-2.012-2.633-1.66-2.838-6.063-0.24-7.855z"></path>
</svg>
