<!-- Generated by IcoMoon.io -->
<svg version="1.1" xmlns="http://www.w3.org/2000/svg" width="34" height="32" viewBox="0 0 34 32">
<title>stak</title>
<path fill="#313333" d="M17.76 0h0.016c2.928 2.896 5.824 5.824 8.736 8.736h7.264l-16.352 23.168c-0.272-2.72-0.48-5.44-0.72-8.16 2.368-3.408 4.8-6.784 7.168-10.176l-5.408-5.392c-0.005-0.676-0.063-1.335-0.17-1.977l0.010 0.073c-0.176-2.080-0.288-4.192-0.544-6.272z"></path>
<path fill="#f2941b" d="M0.016 23.264c5.488-7.712 10.928-15.456 16.4-23.184l0.688 8.192c-2.384 3.408-4.784 6.768-7.168 10.16 1.776 1.776 3.552 3.584 5.36 5.36 0.24 2.72 0.448 5.472 0.72 8.208h-0.032l-8.688-8.704c-2.432 0.032-4.864-0.016-7.296 0.032v-0.064z"></path>
</svg>
