<!-- Generated by IcoMoon.io -->
<svg version="1.1" xmlns="http://www.w3.org/2000/svg" width="40" height="32" viewBox="0 0 40 32">
<title>stq</title>
<path d="M0.080 0.053c2.168 0 4.408-0.145 6.576 0.048 0.964 1.084 1.18 2.602 1.927 3.854 9.732 0.048 19.512 0 29.244 0 0.723 0.048 1.614 0.072 1.975 0.795 0.434 0.795 0.12 1.734-0.289 2.457-1.975 3.348-3.854 6.745-5.781 10.117-0.723 1.204-1.204 2.553-2.288 3.493-0.891 0.747-2.12 0.795-3.252 0.795h-13.49c-0.723 0-1.494-0.072-1.927-0.65-1.397-1.566-2.144-3.565-3.059-5.396-1.59-3.18-3.132-6.36-4.649-9.563-0.313-0.723-0.699-1.373-1.060-2.048-1.277 0-2.553 0-3.806-0.048-0.129-0.708-0.202-1.522-0.202-2.354 0-0.529 0.030-1.050 0.088-1.564l-0.006 0.063zM15.28 24.214c0.481-0.119 1.034-0.188 1.603-0.188 0.49 0 0.968 0.051 1.429 0.147l-0.045-0.008c1.136 0.238 2.027 1.082 2.332 2.171l0.005 0.021c0.127 0.479 0.2 1.028 0.2 1.595 0 0.821-0.153 1.605-0.432 2.328l0.015-0.044c-0.482 1.108-1.686 1.638-2.818 1.734-1.301 0.096-2.794 0-3.758-0.964-1.036-1.156-1.036-2.843-0.819-4.288 0.186-1.238 1.090-2.222 2.267-2.525l0.021-0.005zM27.324 24.214c0.451-0.111 0.969-0.175 1.501-0.175 0.774 0 1.517 0.135 2.206 0.382l-0.046-0.014c1.108 0.458 1.686 1.662 1.783 2.794 0.145 1.325 0 2.843-0.964 3.854-0.891 0.843-2.192 0.964-3.372 0.939s-2.409-0.482-3.011-1.566c-0.363-0.733-0.576-1.597-0.576-2.51 0-0.451 0.052-0.89 0.15-1.311l-0.008 0.039c0.253-1.203 1.155-2.145 2.314-2.452l0.022-0.005z"></path>
</svg>
