<!-- Generated by IcoMoon.io -->
<svg version="1.1" xmlns="http://www.w3.org/2000/svg" width="32" height="32" viewBox="0 0 32 32">
<title>tgch</title>
<path fill="#211d1d" d="M32 16c0 8.837-7.163 16-16 16s-16-7.163-16-16v0c0-8.837 7.163-16 16-16s16 7.163 16 16v0z"></path>
<path fill="#211d1d" d="M29.928 16c0 7.692-6.236 13.928-13.928 13.928s-13.928-6.236-13.928-13.928v0c0-7.692 6.236-13.928 13.928-13.928s13.928 6.236 13.928 13.928v0z"></path>
<path fill="#fff" d="M16 29.387c-7.393 0-13.387-5.994-13.387-13.387s5.994-13.387 13.387-13.387v0c7.393 0 13.387 5.994 13.387 13.387s-5.994 13.387-13.387 13.387v0zM16 2.072c-7.699 0-13.94 6.241-13.94 13.94s6.241 13.94 13.94 13.94v0c7.699 0 13.94-6.241 13.94-13.94s-6.241-13.94-13.94-13.94v0z"></path>
<path fill="#fff" d="M17.531 17.381h3.534v5.214c0 0.518-0.529 0.794-1.036 1.059-0.495 0.265-1.301 0.207-2.659 0.207h-1.658c-2.544 0.058-3.258-0.138-3.868-0.403-0.61-0.276-0.921-0.668-0.921-1.174v-4.904h-1.83v5.525c0 0.299 0.15 0.645 0.38 0.955 0.265 0.357 0.23 0.46 0.806 0.748 0.518 0.265 1.036 0.472 1.968 0.587 0.725 0.092 0.599 0.069 1.888 0.092h3.062c2.302-0.046 2.774 0.115 4.144-0.576 1.117-0.553 1.496-1.197 1.577-1.611v-7.517h-5.376v1.796zM12.765 6.745c-0.932 0.058-1.704 0.345-2.302 0.576-0.61 0.23-0.737 0.506-0.99 0.806-0.226 0.261-0.365 0.603-0.368 0.978v6.124h1.842v-5.537c0-0.472 0.288-0.852 0.852-1.128 0.576-0.288 1.416-0.426 2.199-0.426h3.591c1.37 0 2.106-0.023 2.532 0.23 0.437 0.276 0.955 0.518 0.955 1.036v1.462h1.842v-1.968c-0.035-0.253-0.311-0.978-1.611-1.588-1.174-0.553-1.554-0.587-3.396-0.587z"></path>
</svg>
