<!-- Generated by IcoMoon.io -->
<svg version="1.1" xmlns="http://www.w3.org/2000/svg" width="38" height="32" viewBox="0 0 38 32">
<title>xlm</title>
<path d="M32.48 4.186l-26.542 13.52c-0.071-0.514-0.112-1.107-0.112-1.71v-0c0.010-7.227 5.871-13.082 13.099-13.082 2.346 0 4.548 0.617 6.452 1.697l-0.065-0.034 2.995-1.526c-2.602-1.907-5.866-3.051-9.398-3.051-8.837 0-16 7.163-16 16 0 0.001 0 0.001 0 0.002v-0q0 0.611 0.046 1.218c0.005 0.066 0.008 0.142 0.008 0.22 0 1.125-0.638 2.101-1.573 2.586l-0.016 0.008-1.374 0.701v3.269l37.818-19.27v-3.267z"></path>
<path d="M37.818 8l-37.818 19.261v3.266l31.888-16.248c0.071 0.517 0.112 1.114 0.112 1.721v0c-0.005 7.231-5.868 13.091-13.099 13.091-2.354 0-4.562-0.621-6.471-1.707l0.065 0.034-0.16 0.085-2.826 1.44c2.602 1.908 5.867 3.052 9.4 3.052 8.835 0 15.997-7.16 16-15.995v-0c0-0.411-0.016-0.822-0.046-1.229-0.005-0.066-0.008-0.142-0.008-0.219 0-1.125 0.638-2.101 1.571-2.586l0.016-0.008 1.376-0.701z"></path>
</svg>
