<!-- Generated by IcoMoon.io -->
<svg version="1.1" xmlns="http://www.w3.org/2000/svg" width="32" height="32" viewBox="0 0 32 32">
<title>xmo</title>
<path fill="#f60" d="M32 16c-0.002 8.835-7.165 15.997-16 15.997-8.837 0-16-7.163-16-16 0-3.593 1.184-6.909 3.184-9.58l-0.030 0.042 2.616 2.616c-1.331 1.942-2.125 4.342-2.125 6.928 0 6.823 5.532 12.355 12.355 12.355s12.355-5.532 12.355-12.355c0-2.586-0.794-4.986-2.152-6.97l0.027 0.042 2.615-2.615c1.97 2.62 3.155 5.929 3.155 9.514 0 0.009 0 0.018-0 0.027v-0.001z"></path>
<path fill="#4c4c4c" d="M24.855 16c-0 4.89-3.965 8.855-8.855 8.855s-8.855-3.965-8.855-8.855c0-1.613 0.431-3.126 1.185-4.429l-0.023 0.043 7.693 7.691 7.691-7.691c0.732 1.259 1.164 2.771 1.164 4.384 0 0.001 0 0.002 0 0.003v-0z"></path>
<path fill="#f60" d="M26.461 3.894l-10.461 10.461-10.463-10.461c2.788-2.42 6.453-3.894 10.462-3.894s7.674 1.475 10.482 3.911l-0.020-0.017z"></path>
</svg>
