<!-- Generated by IcoMoon.io -->
<svg version="1.1" xmlns="http://www.w3.org/2000/svg" width="38" height="32" viewBox="0 0 38 32">
<title>xrp</title>
<path d="M32.277 0h5.469l-11.379 11.507c-1.9 1.929-4.539 3.124-7.458 3.124s-5.559-1.195-7.457-3.122l-0.001-0.001-11.381-11.507h5.469l8.647 8.743c1.203 1.222 2.875 1.979 4.724 1.979s3.521-0.757 4.723-1.978l0.001-0.001z"></path>
<path d="M5.469 32h-5.469l11.451-11.578c1.9-1.929 4.539-3.124 7.458-3.124s5.559 1.195 7.457 3.122l0.001 0.001 11.451 11.578h-5.469l-8.716-8.812c-1.203-1.222-2.875-1.979-4.724-1.979s-3.521 0.757-4.723 1.978l-0.001 0.001z"></path>
</svg>
