<!-- Generated by IcoMoon.io -->
<svg version="1.1" xmlns="http://www.w3.org/2000/svg" width="32" height="32" viewBox="0 0 32 32">
<title>zen</title>
<path fill="#000" d="M0 0h32v32h-32v-32z"></path>
<path fill="#fff" d="M28.8 6.644v0l-2.589 4.031c0.806 1.563 1.246 3.347 1.246 5.227 0 6.4-5.179 11.554-11.554 11.554-1.881 0-3.64-0.44-5.203-1.246l-4.055 2.614c2.614 1.857 5.789 2.98 9.234 2.98 8.769 0 15.902-7.108 15.902-15.902 0-3.469-1.099-6.644-2.98-9.258z"></path>
<path fill="#fff" d="M15.902 23.841c3.908 0 7.157-2.809 7.841-6.522-1.246-0.269-2.516-0.415-3.835-0.415-3.957 0-7.646 1.27-10.626 3.42 1.417 2.125 3.86 3.518 6.62 3.518z"></path>
<path fill="#fff" d="M19.811 15.463c1.392 0 2.736 0.147 4.055 0.44v0c0-4.397-3.566-7.988-7.988-7.988-4.397 0-7.963 3.566-7.963 7.988 0 0.366 0.024 0.708 0.073 1.075 0 0 0 0 0 0-2.003 1.539-2.956 2.736-3.005 2.785-0.415-1.197-0.66-2.492-0.66-3.835 0-6.4 5.179-11.554 11.554-11.554 1.881 0 3.64 0.44 5.203 1.246l4.031-2.614c-2.589-1.905-5.789-3.005-9.209-3.005-8.794 0-15.902 7.108-15.902 15.902 0 3.542 1.148 6.791 3.102 9.429 0.757-1.368 1.661-2.614 2.711-3.737 0 0 1.563-1.637 2.76-2.467 3.176-2.321 7.060-3.664 11.237-3.664z"></path>
</svg>
