<!-- Generated by IcoMoon.io -->
<svg version="1.1" xmlns="http://www.w3.org/2000/svg" width="41" height="32" viewBox="0 0 41 32">
<title>zilla</title>
<path fill="#201f32" d="M20.439 6.682c-0.058 0.235-0.23 0.978-0.308 1.474-0.031 0.204-0.162 0.476 0.204 0.622-0.084 0.016-0.11 0.026-0.136 0.021-0.261-0.031-0.528-0.068-0.79-0.099-0.058-0.005-0.131-0.016-0.183 0.010-0.35 0.178-0.507 0.601-0.329 0.962 0.099 0.204 0.131 0.392 0.089 0.607-0.010 0.052 0.010 0.115 0.031 0.162 0.204 0.481 0.241 0.962 0.078 1.464-0.026 0.078-0.010 0.173-0.005 0.256 0.010 0.162 0.021 0.324 0.037 0.486-0.256-0.199-0.539-0.376-0.753-0.617-0.209-0.235-0.319-0.544-0.293-0.884 0.005-0.063-0.047-0.136-0.089-0.193-0.12-0.173-0.261-0.329-0.361-0.512-0.141-0.261-0.314-0.371-0.596-0.288-0.141 0.042-0.272 0.131-0.392 0.22-0.105 0.073-0.193 0.167-0.288 0.251-0.010-0.010-0.026-0.021-0.037-0.031 0.016-0.037 0.021-0.078 0.042-0.115 0.146-0.261 0.141-0.256-0.063-0.476-0.392-0.424-0.732-0.878-0.878-1.454-0.073-0.288-0.162-0.57-0.241-0.852-0.392 0.471-0.444 2.165-0.058 2.834-0.12-0.591-0.241-1.15-0.105-1.726 0.026 0.131 0.042 0.256 0.047 0.387 0.021 0.465 0.136 0.905 0.34 1.318 0.042 0.089 0.162 0.141 0.251 0.204 0.031 0.021 0.073 0.031 0.11 0.047-0.005 0.021-0.005 0.042-0.010 0.058-0.193-0.010-0.382-0.031-0.575-0.037-0.126-0.005-0.272-0.037-0.371 0.016-0.131 0.068-0.235 0.199-0.309 0.329-0.021 0.037 0.084 0.183 0.162 0.241 0.209 0.152 0.35 0.319 0.319 0.601-0.005 0.068 0.073 0.188 0.141 0.214 0.188 0.068 0.241 0.204 0.272 0.376 0.021 0.11 0.037 0.251 0.11 0.314 0.235 0.209 0.309 0.46 0.314 0.763 0.005 0.193 0.11 0.392 0.084 0.58-0.021 0.162 0.010 0.282 0.078 0.376h-0.005l0.016 0.016c0.042 0.063 0.099 0.115 0.167 0.162 0.078 0.073 0.136 0.126 0.136 0.126s0.235 0.246 0.241 0.486-0.016 0.272 0.058 0.486c0.073 0.209 0.173 0.376 0.204 0.554s-0.037 0.23 0.073 0.345 0.23 0.193 0.356 0.324c0.12 0.136 0.293 0.183 0.408 0.298s0.298 0.329 0.439 0.465c0.073 0.073 0.173 0.131 0.246 0.173 0.021 0.021 0.031 0.031 0.026 0.042-0.099 0.209 0.105 0.204 0.183 0.272 0.136 0.115 0.329 0.188 0.429 0.329 0.178 0.256 0.408 0.387 0.695 0.465 0.026 0.005 0.058 0.010 0.068 0.026 0.037 0.042 0.063 0.094 0.094 0.141-0.010 0.016-0.026 0.031-0.037 0.047 0.288 0.099 0.575 0.204 0.863 0.298 0.058 0.021 0.131 0.021 0.183 0.005 0.241-0.078 0.481-0.162 0.722-0.246 0.047-0.016 0.12-0.063 0.115-0.084-0.037-0.167 0.105-0.141 0.183-0.183 0.188-0.099 0.408-0.173 0.549-0.314 0.173-0.178 0.329-0.361 0.559-0.481 0.094-0.052 0.282-0.073 0.188-0.272-0.005-0.010 0.047-0.052 0.073-0.078 0.037-0.031 0.078-0.058 0.131-0.099 0.037-0.016 0.078-0.042 0.146-0.089 0.152-0.115 0.465-0.403 0.591-0.554s0.329-0.34 0.329-0.34-0.131-0.298-0.047-0.559l0.444-0.319c0.094-0.193 0.12-0.267 0.225-0.465 0.099-0.199 0.125-0.58 0.267-0.732 0.125-0.131 0.277-0.235 0.272-0.319 0.031-0.078 0.042-0.167 0.031-0.277-0.016-0.136 0.031-0.277 0.047-0.413 0.010-0.115 0-0.23 0.031-0.34 0.052-0.178 0.089-0.387 0.204-0.512 0.125-0.136 0.209-0.256 0.225-0.439 0.016-0.157 0.078-0.282 0.241-0.356 0.078-0.037 0.157-0.162 0.157-0.246-0.005-0.235 0.073-0.403 0.272-0.528 0.058-0.037 0.099-0.099 0.157-0.141 0.094-0.068 0.078-0.146 0.026-0.235-0.136-0.235-0.34-0.319-0.612-0.272-0.204 0.037-0.512 0.058-0.622 0.058s-0.031-0.078-0.031-0.078c0.387-0.010 0.434-0.319 0.523-0.57 0.073-0.209 0.115-0.429 0.152-0.648 0.037-0.209 0.037-0.309 0.078-0.633s0.141 0.627-0.016 1.407c0.314-0.46 0.214-2.128-0.136-2.62-0.010 0.010-0.021 0.016-0.021 0.026-0.016 0.063-0.026 0.125-0.042 0.188-0.152 0.8-0.465 1.516-1.046 2.102-0.214 0.214-0.204 0.22-0.058 0.497 0.016 0.026 0.016 0.063 0.021 0.099-0.125-0.058-0.22-0.141-0.314-0.22-0.178-0.157-0.376-0.235-0.622-0.23-0.251 0-0.319 0.178-0.392 0.35-0.136 0.314-0.455 0.507-0.465 0.925-0.016 0.612-0.58 0.92-0.946 1.328-0.005 0.005-0.021-0.005-0.042-0.005-0.005-0.021-0.021-0.047-0.016-0.068 0-0.376 0.105-0.758-0.068-1.119-0.010-0.021-0.005-0.052 0-0.073 0.068-0.528 0.131-1.051 0.204-1.574 0.010-0.068 0.047-0.131 0.078-0.193 0.183-0.376 0.047-0.805-0.324-0.993-0.042-0.021-0.099-0.026-0.146-0.021-0.204 0.026-0.403 0.063-0.601 0.089-0.099 0.016-0.204 0.016-0.303 0.021-0.005-0.016-0.010-0.031-0.016-0.042 0.167-0.052 0.251-0.152 0.214-0.329-0.125-0.601-0.251-1.208-0.376-1.809-0.010-0.047-0.021-0.282 0.037-0.162 0.058 0.125 0.241 0.664 0.345 1.004 0.099 0.329 0.178 0.669 0.267 1.004-0.146-0.936-0.371-1.846-0.925-2.677-0.152 0.178-0.282 0.413-0.35 0.591s-0.261 0.769-0.376 1.15c-0.089 0.298-0.319 0.884-0.22 0.899s0.586-1.741 0.617-1.867 0.089-0.12 0.031 0.115z"></path>
<path fill="#111126" d="M13.626 20.648h0.099c0.387 0 0.622 0.052 0.716 0.157 0.073 0.12 0.105 0.293 0.105 0.523v0.559h-0.753c-0.005 0-0.005 0-0.005-0.005v-0.518c-0.010-0.052-0.047-0.078-0.11-0.078-0.068 0-0.099 0.042-0.099 0.125v1.333s0.016 0.010 0.042 0.031v0.047c0 0.303 0 0.544 0.005 0.716v0.031c0.016 0.042 0.037 0.063 0.063 0.063 0.068-0.010 0.105-0.031 0.105-0.063v-0.847c0.005 0 0.010 0 0.010-0.005h0.732c0 0.005 0.005 0.005 0.016 0.005v0.873l0.010-0.005h0.005v0.016c0 0.298-0.068 0.486-0.199 0.565-0.131 0.063-0.34 0.094-0.638 0.094h-0.084c-0.392 0-0.627-0.052-0.716-0.152-0.078-0.105-0.12-0.288-0.12-0.554v-2.217c0-0.34 0.063-0.544 0.183-0.612 0.126-0.052 0.335-0.084 0.633-0.084z"></path>
<path fill="#111126" d="M14.729 20.643h0.732c0.005 0 0.010 0.005 0.010 0.010v0.607c0.031 0.021 0.047 0.031 0.047 0.031v0.68l0.021 0.005h0.157c0.005 0 0.005 0 0.005-0.005 0.005-0.607 0.005-1.051 0.005-1.328h0.763l0.010 0.005h0.021v0.246c-0.005 0.021-0.005 0.026-0.005 0.031v3.268h-0.005l0.005 0.005v0.063c0 0.005 0 0.005-0.005 0.005h-0.779l-0.005-0.005 0.005-0.021c-0.005-1.025-0.010-1.579-0.010-1.668h-0.188c0 0.005 0 0.005 0.005 0.010-0.005 0.481-0.005 0.847-0.005 1.098v0.586h-0.282c-0.005 0-0.021-0.005-0.052-0.016h-0.099c-0.058 0-0.178 0-0.366 0.005l-0.005-0.005v-0.005c0.005-0.235 0.005-0.371 0.005-0.397v-0.209c0-0.010 0-0.010 0.005-0.010l-0.005-0.021v-0.209c0-0.099 0-0.235 0.005-0.397h-0.005l0.005-0.010c0-0.005 0-0.005-0.005-0.005l0.005-0.005v-0.094c0.010-0.523 0.010-1.271 0.010-2.243z"></path>
<path fill="#111126" d="M17.59 20.643h0.23c0.005 0 0.005 0 0.005 0.005v0.026c0.026 0.005 0.052 0.005 0.063 0.005h0.141c0.016 0 0.037 0 0.063-0.005l0.481 3.587h-0.774l-0.063-0.701h-0.246l-0.068 0.711c-0.455 0-0.706-0.005-0.753-0.005 0.314-2.4 0.471-3.603 0.476-3.613h0.005c0.173-0.005 0.319-0.010 0.439-0.010zM17.61 21.846l-0.078 1.098h0.157l-0.068-1.093z"></path>
<path fill="#111126" d="M18.698 20.643h0.727c0.005 0 0.005 0 0.005 0.005v0.22c0 0.089 0 0.22 0.005 0.392 0.010 0.005 0.021 0.016 0.042 0.031 0.005 0.157 0.005 0.282 0.005 0.376v1.929c0 0.146 0 0.371-0.005 0.674h-0.277c-0.026-0.010-0.047-0.016-0.052-0.016h-0.136c-0.115 0-0.23 0-0.335 0.005v-0.241c0-0.005 0-0.016 0.005-0.031 0-1.103 0-2.024 0-2.75v-0.288c0.010-0.073 0.010-0.178 0.016-0.308z"></path>
<path fill="#111126" d="M19.718 20.643c0.366 0.005 0.575 0.005 0.617 0.005l0.376 1.83v-1.83h0.669v3.624h-0.716c-0.246-1.135-0.371-1.72-0.382-1.762h-0.005v1.762h-0.659v-0.648c0.031 0 0.047-0.005 0.047-0.010v-0.084c0-0.188 0-0.444 0-0.758l-0.005-0.021c0.005-0.005 0.005-0.010 0.005-0.010h0.031l0.005-0.005c-0.005-0.251-0.005-0.429-0.005-0.528 0-0.491 0.005-1.014 0.021-1.563z"></path>
<path fill="#111126" d="M21.621 20.638h1.359v0.612c0 0.026-0.078 0.324-0.235 0.894-0.261 0.967-0.397 1.464-0.403 1.501h0.643v0.021c0.005 0.183 0.005 0.324 0.005 0.429v0.105c0 0.016-0.005 0.021-0.010 0.021h-0.021v0.005c0 0.021-0.005 0.031-0.010 0.042-0.685 0.005-1.166 0.005-1.438 0.005v-0.627l0.648-2.379v-0.016c-0.037 0-0.115 0-0.225-0.005h-0.021l0.005-0.026h-0.005c-0.089-0.005-0.173-0.005-0.246-0.005h-0.042l-0.005 0.005-0.005-0.005c0.005-0.241 0.005-0.424 0.005-0.559z"></path>
<path fill="#111126" d="M23.148 20.643h0.727c0.005 0 0.005 0 0.005 0.005v0.22c0 0.089 0 0.22 0.005 0.392 0.010 0.005 0.021 0.016 0.042 0.031 0.005 0.157 0.005 0.282 0.005 0.376v1.929c0 0.146 0 0.371-0.005 0.674h-0.277c-0.026-0.010-0.047-0.016-0.052-0.016h-0.136c-0.115 0-0.23 0-0.335 0.005v-0.241c0-0.005 0-0.016 0.005-0.031 0-1.103 0-2.024 0-2.75v-0.288c0.010-0.073 0.010-0.178 0.016-0.308z"></path>
<path fill="#111126" d="M27.676 20.643h0.23c0.005 0 0.005 0 0.005 0.005v0.026c0.026 0.005 0.052 0.005 0.063 0.005h0.141c0.016 0 0.037 0 0.063-0.005l0.481 3.587h-0.774l-0.063-0.701h-0.246l-0.068 0.711c-0.455 0-0.706-0.005-0.753-0.005 0.314-2.4 0.471-3.603 0.476-3.613h0.005c0.178-0.005 0.319-0.010 0.439-0.010zM27.697 21.846l-0.078 1.098h0.157l-0.068-1.093z"></path>
<path fill="#111126" d="M20.058 14.076h0.031c0.11 0 0.178 0.016 0.204 0.047 0.021 0.037 0.031 0.084 0.031 0.146v0.157h-0.214v-0.146c0-0.016-0.010-0.021-0.031-0.021s-0.031 0.010-0.031 0.037v0.382s0.005 0.005 0.010 0.010v0.225c0.005 0.010 0.010 0.016 0.016 0.016 0.021-0.005 0.031-0.010 0.031-0.016v-0.241h0.22v0.251h0.005v0.005c0 0.084-0.021 0.136-0.058 0.162-0.037 0.016-0.099 0.026-0.183 0.026h-0.026c-0.11 0-0.178-0.016-0.204-0.042-0.021-0.031-0.037-0.084-0.037-0.157v-0.643c0-0.099 0.016-0.157 0.052-0.173 0.037-0.021 0.099-0.026 0.183-0.026z"></path>
<path fill="#111126" d="M20.371 14.071h0.209s0.005 0 0.005 0.005v0.173c0.010 0.005 0.010 0.010 0.010 0.010v0.193h0.052c0-0.173 0-0.298 0-0.376h0.225v1.025h-0.22v-0.005c0-0.293-0.005-0.45-0.005-0.476h-0.052v0.481h-0.078s-0.005 0-0.016-0.005h-0.026c-0.016 0-0.052 0-0.105 0 0-0.068 0-0.105 0-0.115v-0.126c0-0.031 0-0.068 0-0.115v-0.031c0-0.146 0-0.361 0-0.638z"></path>
<path fill="#111126" d="M21.788 14.071h0.173l0.105 0.518v-0.518h0.188v1.030h-0.204c-0.068-0.324-0.105-0.492-0.11-0.502v0.502h-0.188v-0.183c0.010 0 0.016 0 0.016-0.005v-0.026c0-0.052 0-0.126 0-0.214v-0.005s0 0 0-0.005h0.010c0-0.073 0-0.12 0-0.152 0.005-0.131 0.005-0.282 0.010-0.439z"></path>
<path fill="#111126" d="M22.332 14.071h0.387v0.173c0 0.005-0.021 0.094-0.068 0.256-0.073 0.272-0.115 0.418-0.115 0.424h0.183v0.157c0 0.005 0 0.005-0.005 0.005h-0.005c0 0.005 0 0.010-0.005 0.010-0.193 0-0.329 0-0.408 0v-0.178l0.183-0.675v-0.005c-0.010 0-0.031 0-0.063 0h-0.005v-0.010c-0.026 0-0.047 0-0.068 0h-0.010c0-0.063 0-0.115 0-0.157z"></path>
<path fill="#111126" d="M15.508 14.076h0.031c0.11 0 0.178 0.016 0.204 0.047 0.021 0.037 0.031 0.084 0.031 0.146v0.157h-0.214v-0.146c0-0.016-0.010-0.021-0.031-0.021s-0.031 0.010-0.031 0.037v0.382s0.005 0.005 0.010 0.010v0.225c0.005 0.010 0.010 0.016 0.016 0.016 0.021-0.005 0.031-0.010 0.031-0.016v-0.241h0.22v0.251h0.005v0.005c0 0.084-0.021 0.136-0.058 0.162-0.037 0.016-0.099 0.026-0.183 0.026h-0.026c-0.11 0-0.178-0.016-0.204-0.042-0.021-0.031-0.037-0.084-0.037-0.157v-0.643c0-0.099 0.016-0.157 0.052-0.173 0.042-0.021 0.099-0.026 0.183-0.026z"></path>
<path fill="#111126" d="M15.822 14.071h0.209s0.005 0 0.005 0.005v0.173c0.010 0.005 0.010 0.010 0.010 0.010v0.193h0.052c0-0.173 0-0.298 0-0.376h0.225v1.025h-0.22v-0.005c0-0.293-0.005-0.45-0.005-0.476h-0.052v0.481h-0.078s-0.005 0-0.016-0.005h-0.026c-0.016 0-0.052 0-0.105 0 0-0.068 0-0.105 0-0.115v-0.126c0-0.031 0-0.068 0-0.115v-0.031c0-0.146 0-0.361 0-0.638z"></path>
<path fill="#111126" d="M17.244 14.071h0.173l0.105 0.518v-0.518h0.188v1.030h-0.204c-0.068-0.324-0.105-0.492-0.11-0.502v0.502h-0.188v-0.183c0.010 0 0.016 0 0.016-0.005v-0.026c0-0.052 0-0.126 0-0.214v-0.005s0 0 0-0.005h0.010c0-0.073 0-0.12 0-0.152 0-0.131 0.005-0.282 0.010-0.439z"></path>
<path fill="#111126" d="M17.783 14.071h0.387v0.173c0 0.005-0.021 0.094-0.068 0.256-0.073 0.272-0.115 0.418-0.115 0.424h0.183v0.157c0 0.005 0 0.005-0.005 0.005h-0.005c0 0.005 0 0.010-0.005 0.010-0.193 0-0.329 0-0.408 0v-0.178l0.183-0.675v-0.005c-0.010 0-0.031 0-0.063 0h-0.005v-0.010c-0.026 0-0.047 0-0.068 0h-0.010c0-0.063 0-0.115 0-0.157z"></path>
<path fill="#111126" d="M24.612 14.076h0.031c0.11 0 0.178 0.016 0.204 0.047 0.021 0.037 0.031 0.084 0.031 0.146v0.157h-0.214v-0.146c0-0.016-0.010-0.021-0.031-0.021s-0.031 0.010-0.031 0.037v0.382s0.005 0.005 0.010 0.010v0.225c0.005 0.010 0.010 0.016 0.016 0.016 0.021-0.005 0.031-0.010 0.031-0.016v-0.241h0.22v0.251h0.005v0.005c0 0.084-0.021 0.136-0.058 0.162-0.037 0.016-0.099 0.026-0.183 0.026h-0.026c-0.11 0-0.178-0.016-0.204-0.042-0.021-0.031-0.037-0.084-0.037-0.157v-0.643c0-0.099 0.016-0.157 0.052-0.173 0.037-0.021 0.094-0.026 0.183-0.026z"></path>
<path fill="#111126" d="M24.925 14.071h0.209s0.005 0 0.005 0.005v0.173c0.010 0.005 0.010 0.010 0.010 0.010v0.193h0.052c0-0.173 0-0.298 0-0.376h0.225v1.025h-0.22v-0.005c0-0.293-0.005-0.45-0.005-0.476h-0.052v0.481h-0.078s-0.005 0-0.016-0.005h-0.026c-0.016 0-0.052 0-0.105 0 0-0.068 0-0.105 0-0.115v-0.126c0-0.031 0-0.068 0-0.115v-0.031c-0.005-0.146 0-0.361 0-0.638z"></path>
<path fill="#111126" d="M26.342 14.071h0.173l0.105 0.518v-0.518h0.188v1.030h-0.204c-0.068-0.324-0.105-0.492-0.11-0.502v0.502h-0.188v-0.183c0.010 0 0.016 0 0.016-0.005v-0.026c0-0.052 0-0.126 0-0.214v-0.005s0 0 0-0.005h0.010c0-0.073 0-0.12 0-0.152 0.005-0.131 0.005-0.282 0.010-0.439z"></path>
<path fill="#111126" d="M26.881 14.071h0.387v0.173c0 0.005-0.021 0.094-0.068 0.256-0.073 0.272-0.115 0.418-0.115 0.424h0.183v0.157c0 0.005 0 0.005-0.005 0.005h-0.005c0 0.005 0 0.010-0.005 0.010-0.193 0-0.329 0-0.408 0v-0.178l0.183-0.675v-0.005c-0.010 0-0.031 0-0.063 0h-0.005v-0.010c-0.026 0-0.047 0-0.068 0h-0.010c0-0.063 0-0.115 0-0.157z"></path>
<path fill="#111126" d="M20.601 15.2h0.031c0.11 0 0.178 0.016 0.204 0.047 0.021 0.037 0.031 0.084 0.031 0.146v0.157h-0.214v-0.146c0-0.016-0.010-0.021-0.031-0.021s-0.031 0.010-0.031 0.037v0.382s0.005 0.005 0.010 0.010v0.225c0.005 0.010 0.010 0.016 0.016 0.016 0.021-0.005 0.031-0.010 0.031-0.016v-0.246h0.22v0.251h0.005v0.005c0 0.084-0.021 0.136-0.058 0.162-0.037 0.016-0.099 0.026-0.183 0.026h-0.026c-0.11 0-0.178-0.016-0.204-0.042-0.021-0.031-0.037-0.084-0.037-0.157v-0.633c0-0.099 0.016-0.157 0.052-0.173 0.037-0.026 0.099-0.031 0.183-0.031z"></path>
<path fill="#111126" d="M20.915 15.195h0.209s0.005 0 0.005 0.005v0.173c0.010 0.005 0.010 0.010 0.010 0.010v0.193h0.052c0-0.173 0-0.298 0-0.376h0.225v1.025h-0.22v-0.005c0-0.293-0.005-0.45-0.005-0.476h-0.052v0.481h-0.078s-0.005 0-0.016-0.005h-0.026c-0.016 0-0.052 0-0.105 0 0-0.068 0-0.105 0-0.115v-0.12c0-0.031 0-0.068 0-0.115v-0.031c0-0.152 0-0.366 0-0.643z"></path>
<path fill="#111126" d="M22.332 15.195h0.173l0.105 0.518v-0.518h0.188v1.030h-0.204c-0.068-0.324-0.105-0.492-0.11-0.502v0.502h-0.188v-0.183c0.010 0 0.016 0 0.016-0.005v-0.026c0-0.052 0-0.126 0-0.214v-0.005s0 0 0-0.005h0.010c0-0.073 0-0.12 0-0.152 0.005-0.136 0.005-0.282 0.010-0.439z"></path>
<path fill="#111126" d="M22.876 15.195h0.387v0.173c0 0.005-0.021 0.094-0.068 0.256-0.073 0.272-0.115 0.418-0.115 0.424h0.183v0.157c0 0.005 0 0.005-0.005 0.005h-0.005c0 0.005 0 0.010-0.005 0.010-0.193 0-0.329 0-0.408 0v-0.167l0.183-0.675v-0.005c-0.010 0-0.031 0-0.063 0h-0.005v-0.010c-0.026 0-0.047 0-0.068 0h-0.010c0-0.073 0-0.126 0-0.167z"></path>
<path fill="#111126" d="M16.052 15.2h0.031c0.11 0 0.178 0.016 0.204 0.047 0.021 0.037 0.031 0.084 0.031 0.146v0.157h-0.214v-0.146c0-0.016-0.010-0.021-0.031-0.021s-0.031 0.010-0.031 0.037v0.382s0.005 0.005 0.010 0.010v0.225c0.005 0.010 0.010 0.016 0.016 0.016 0.021-0.005 0.031-0.010 0.031-0.016v-0.246h0.22v0.251h0.005v0.005c0 0.084-0.021 0.136-0.058 0.162-0.037 0.016-0.099 0.026-0.183 0.026h-0.026c-0.11 0-0.178-0.016-0.204-0.042-0.021-0.031-0.037-0.084-0.037-0.157v-0.633c0-0.099 0.016-0.157 0.052-0.173 0.042-0.026 0.099-0.031 0.183-0.031z"></path>
<path fill="#111126" d="M16.366 15.195h0.209s0.005 0 0.005 0.005v0.173c0.010 0.005 0.010 0.010 0.010 0.010v0.193h0.052c0-0.173 0-0.298 0-0.376h0.225v1.025h-0.22v-0.005c0-0.293-0.005-0.45-0.005-0.476h-0.052v0.481h-0.078s-0.005 0-0.016-0.005h-0.026c-0.016 0-0.052 0-0.105 0 0-0.068 0-0.105 0-0.115v-0.12c0-0.031 0-0.068 0-0.115v-0.031c0-0.152 0-0.366 0-0.643z"></path>
<path fill="#111126" d="M17.788 15.195h0.173l0.105 0.518v-0.518h0.188v1.030h-0.204c-0.068-0.324-0.105-0.492-0.11-0.502v0.502h-0.188v-0.183c0.010 0 0.016 0 0.016-0.005v-0.026c0-0.052 0-0.126 0-0.214v-0.005s0 0 0-0.005h0.010c0-0.073 0-0.12 0-0.152 0-0.136 0.005-0.282 0.010-0.439z"></path>
<path fill="#111126" d="M18.327 15.195h0.387v0.173c0 0.005-0.021 0.094-0.068 0.256-0.073 0.272-0.115 0.418-0.115 0.424h0.183v0.157c0 0.005 0 0.005-0.005 0.005h-0.005c0 0.005 0 0.010-0.005 0.010-0.193 0-0.329 0-0.408 0v-0.167l0.183-0.675v-0.005c-0.010 0-0.031 0-0.063 0h-0.005v-0.010c-0.026 0-0.047 0-0.068 0h-0.010c0-0.073 0-0.126 0-0.167z"></path>
<path fill="#111126" d="M25.156 15.2h0.031c0.11 0 0.178 0.016 0.204 0.047 0.021 0.037 0.031 0.084 0.031 0.146v0.157h-0.22v-0.146c0-0.016-0.010-0.021-0.031-0.021s-0.031 0.010-0.031 0.037v0.382s0.005 0.005 0.010 0.010v0.225c0.005 0.010 0.010 0.016 0.016 0.016 0.021-0.005 0.031-0.010 0.031-0.016v-0.246h0.22v0.251h0.005v0.005c0 0.084-0.021 0.136-0.058 0.162-0.037 0.016-0.099 0.026-0.183 0.026h-0.026c-0.11 0-0.178-0.016-0.204-0.042-0.021-0.031-0.037-0.084-0.037-0.157v-0.633c0-0.099 0.016-0.157 0.052-0.173 0.042-0.026 0.099-0.031 0.188-0.031z"></path>
<path fill="#111126" d="M25.469 15.195h0.209s0.005 0 0.005 0.005v0.173c0.010 0.005 0.010 0.010 0.010 0.010v0.193h0.052c0-0.173 0-0.298 0-0.376h0.225v1.025h-0.22v-0.005c0-0.293-0.005-0.45-0.005-0.476h-0.052v0.481h-0.078s-0.005 0-0.016-0.005h-0.031c-0.016 0-0.052 0-0.105 0 0-0.068 0-0.105 0-0.115v-0.12c0-0.031 0-0.068 0-0.115v-0.031c0-0.152 0.005-0.366 0.005-0.643z"></path>
<path fill="#111126" d="M26.886 15.195h0.173l0.105 0.518v-0.518h0.188v1.030h-0.204c-0.068-0.324-0.105-0.492-0.11-0.502v0.502h-0.188v-0.183c0.010 0 0.016 0 0.016-0.005v-0.026c0-0.052 0-0.126 0-0.214v-0.005s0 0 0-0.005h0.010c0-0.073 0-0.12 0-0.152 0.005-0.136 0.005-0.282 0.010-0.439z"></path>
<path fill="#111126" d="M27.425 15.195h0.387v0.173c0 0.005-0.021 0.094-0.068 0.256-0.073 0.272-0.115 0.418-0.115 0.424h0.183v0.157c0 0.005 0 0.005-0.005 0.005h-0.005c0 0.005 0 0.010-0.005 0.010-0.193 0-0.329 0-0.408 0v-0.167l0.183-0.675v-0.005c-0.010 0-0.031 0-0.063 0h-0.005v-0.010c-0.026 0-0.047 0-0.068 0h-0.010c0-0.073 0-0.126 0-0.167z"></path>
<path fill="#111126" d="M21.187 16.319h0.031c0.11 0 0.178 0.016 0.204 0.047 0.021 0.037 0.031 0.084 0.031 0.146v0.157h-0.214v-0.146c0-0.016-0.010-0.021-0.031-0.021s-0.031 0.010-0.031 0.037v0.382s0.005 0.005 0.010 0.010v0.225c0.005 0.010 0.010 0.016 0.016 0.016 0.021-0.005 0.031-0.010 0.031-0.016v-0.241h0.22v0.251h0.005v0.005c0 0.084-0.021 0.136-0.058 0.162-0.037 0.016-0.099 0.026-0.183 0.026h-0.026c-0.11 0-0.178-0.016-0.204-0.042-0.021-0.031-0.037-0.084-0.037-0.157v-0.638c0-0.099 0.016-0.157 0.052-0.173 0.037-0.021 0.099-0.031 0.183-0.031z"></path>
<path fill="#111126" d="M21.501 16.319h0.209s0.005 0 0.005 0.005v0.173c0.010 0.005 0.010 0.010 0.010 0.010v0.193h0.052c0-0.173 0-0.298 0-0.376h0.225v1.025h-0.22v-0.005c0-0.293-0.005-0.45-0.005-0.476h-0.052v0.481h-0.078s-0.005 0-0.016-0.005h-0.026c-0.016 0-0.052 0-0.105 0 0-0.068 0-0.105 0-0.115v-0.125c0-0.031 0-0.068 0-0.115v-0.031c0-0.146 0-0.361 0-0.638z"></path>
<path fill="#111126" d="M22.918 16.319h0.173l0.105 0.518v-0.518h0.188v1.030h-0.204c-0.068-0.324-0.105-0.491-0.11-0.502v0.502h-0.188v-0.183c0.010 0 0.016 0 0.016-0.005v-0.026c0-0.052 0-0.125 0-0.214v-0.005s0 0 0-0.005h0.010c0-0.073 0-0.12 0-0.152 0.005-0.136 0.005-0.282 0.010-0.439z"></path>
<path fill="#111126" d="M23.456 16.319h0.387v0.173c0 0.005-0.021 0.094-0.068 0.256-0.073 0.272-0.115 0.418-0.115 0.424h0.183v0.157c0 0.005 0 0.005-0.005 0.005h0.005c0 0.005 0 0.010-0.005 0.010-0.193 0-0.329 0-0.408 0v-0.178l0.183-0.674v-0.005c-0.010 0-0.031 0-0.063 0h-0.005v-0.010c-0.026 0-0.047 0-0.068 0h-0.010c-0.010-0.063-0.010-0.115-0.010-0.157z"></path>
<path fill="#111126" d="M16.638 16.319h0.031c0.11 0 0.178 0.016 0.204 0.047 0.021 0.037 0.031 0.084 0.031 0.146v0.157h-0.214v-0.146c0-0.016-0.010-0.021-0.031-0.021s-0.031 0.010-0.031 0.037v0.382s0.005 0.005 0.010 0.010v0.225c0.005 0.010 0.010 0.016 0.016 0.016 0.021-0.005 0.031-0.010 0.031-0.016v-0.241h0.22v0.251h0.005v0.005c0 0.084-0.021 0.136-0.058 0.162-0.037 0.016-0.099 0.026-0.183 0.026h-0.026c-0.11 0-0.178-0.016-0.204-0.042-0.021-0.031-0.037-0.084-0.037-0.157v-0.638c0-0.099 0.016-0.157 0.052-0.173 0.042-0.021 0.099-0.031 0.183-0.031z"></path>
<path fill="#111126" d="M16.952 16.319h0.209s0.005 0 0.005 0.005v0.173c0.010 0.005 0.010 0.010 0.010 0.010v0.193h0.052c0-0.173 0-0.298 0-0.376h0.225v1.025h-0.22v-0.005c0-0.293-0.005-0.45-0.005-0.476h-0.052v0.481h-0.078s-0.005 0-0.016-0.005h-0.026c-0.016 0-0.052 0-0.105 0 0-0.068 0-0.105 0-0.115v-0.125c0-0.031 0-0.068 0-0.115v-0.031c0-0.146 0-0.361 0-0.638z"></path>
<path fill="#111126" d="M18.369 16.319h0.173l0.105 0.518v-0.518h0.188v1.030h-0.204c-0.068-0.324-0.105-0.491-0.11-0.502v0.502h-0.188v-0.183c0.010 0 0.016 0 0.016-0.005v-0.026c0-0.052 0-0.125 0-0.214v-0.005s0 0 0-0.005h0.010c0-0.073 0-0.12 0-0.152 0.005-0.136 0.010-0.282 0.010-0.439z"></path>
<path fill="#111126" d="M18.912 16.319h0.387v0.173c0 0.005-0.021 0.094-0.068 0.256-0.073 0.272-0.115 0.418-0.115 0.424h0.183v0.157c0 0.005 0 0.005-0.005 0.005 0 0.005 0 0.010-0.005 0.010-0.193 0-0.329 0-0.408 0v-0.178l0.183-0.674v-0.005c-0.010 0-0.031 0-0.063 0h-0.005v-0.010c-0.026 0-0.047 0-0.068 0h-0.010c-0.005-0.063-0.005-0.115-0.005-0.157z"></path>
<path fill="#111126" d="M25.736 16.319h0.031c0.11 0 0.178 0.016 0.204 0.047 0.021 0.037 0.031 0.084 0.031 0.146v0.157h-0.214v-0.146c0-0.016-0.010-0.021-0.031-0.021s-0.031 0.010-0.031 0.037v0.382s0.005 0.005 0.010 0.010v0.225c0.005 0.010 0.010 0.016 0.016 0.016 0.021-0.005 0.031-0.010 0.031-0.016v-0.241h0.22v0.251h0.005v0.005c0 0.084-0.021 0.136-0.058 0.162-0.037 0.016-0.099 0.026-0.183 0.026h-0.026c-0.11 0-0.178-0.016-0.204-0.042-0.021-0.031-0.037-0.084-0.037-0.157v-0.638c0-0.099 0.016-0.157 0.052-0.173 0.042-0.021 0.099-0.031 0.183-0.031z"></path>
<path fill="#111126" d="M26.050 16.319h0.209s0.005 0 0.005 0.005v0.173c0.010 0.005 0.010 0.010 0.010 0.010v0.193h0.052c0-0.173 0-0.298 0-0.376h0.225v1.025h-0.22v-0.005c0-0.293-0.005-0.45-0.005-0.476h-0.052v0.481h-0.078s-0.005 0-0.016-0.005h-0.026c-0.016 0-0.052 0-0.105 0 0-0.068 0-0.105 0-0.115v-0.125c0-0.031 0-0.068 0-0.115v-0.031c0-0.146 0-0.361 0-0.638z"></path>
<path fill="#111126" d="M27.472 16.319h0.173l0.105 0.518v-0.518h0.188v1.030h-0.204c-0.068-0.324-0.105-0.491-0.11-0.502v0.502h-0.188v-0.183c0.010 0 0.016 0 0.016-0.005v-0.026c0-0.052 0-0.125 0-0.214v-0.005s0 0 0-0.005h0.010c0-0.073 0-0.12 0-0.152 0-0.136 0.005-0.282 0.010-0.439z"></path>
<path fill="#111126" d="M28.010 16.319h0.387v0.173c0 0.005-0.021 0.094-0.068 0.256-0.073 0.272-0.115 0.418-0.115 0.424h0.183v0.157c0 0.005 0 0.005-0.005 0.005 0 0.005 0 0.010-0.005 0.010-0.193 0-0.329 0-0.408 0v-0.178l0.183-0.674v-0.005c-0.010 0-0.031 0-0.063 0h-0.005v-0.010c-0.026 0-0.047 0-0.068 0h-0.010c-0.005-0.063-0.005-0.115-0.005-0.157z"></path>
<path fill="#111126" d="M21.793 17.443h0.031c0.11 0 0.178 0.016 0.204 0.047 0.021 0.037 0.031 0.084 0.031 0.146v0.157h-0.214v-0.146c0-0.016-0.010-0.021-0.031-0.021s-0.031 0.010-0.031 0.037v0.382s0.005 0.005 0.010 0.010v0.225c0.005 0.010 0.010 0.016 0.016 0.016 0.021-0.005 0.031-0.010 0.031-0.016v-0.241h0.22v0.251h0.005v0.005c0 0.084-0.021 0.136-0.058 0.162-0.037 0.016-0.099 0.026-0.183 0.026h-0.026c-0.11 0-0.178-0.016-0.204-0.042-0.021-0.031-0.037-0.084-0.037-0.157v-0.633c0-0.099 0.016-0.157 0.052-0.173 0.037-0.026 0.099-0.037 0.183-0.037z"></path>
<path fill="#111126" d="M22.107 17.443h0.209s0.005 0 0.005 0.005v0.173c0.010 0.005 0.010 0.010 0.010 0.010v0.193h0.052c0-0.173 0-0.298 0-0.376h0.225v1.025h-0.22v-0.005c0-0.293-0.005-0.45-0.005-0.476h-0.052v0.481h-0.078s-0.005 0-0.016-0.005h-0.026c-0.016 0-0.052 0-0.105 0 0-0.068 0-0.105 0-0.115v-0.125c0-0.031 0-0.068 0-0.115v-0.031c0-0.152 0-0.361 0-0.638z"></path>
<path fill="#111126" d="M23.524 17.443h0.173l0.105 0.518v-0.518h0.188v1.030h-0.199c-0.068-0.324-0.105-0.491-0.11-0.502v0.502h-0.188v-0.183c0.010 0 0.016 0 0.016-0.005v-0.026c0-0.052 0-0.125 0-0.214v-0.005s0 0 0-0.005h0.010c0-0.073 0-0.12 0-0.152 0-0.136 0-0.282 0.005-0.439z"></path>
<path fill="#111126" d="M24.068 17.443h0.387v0.173c0 0.005-0.021 0.094-0.068 0.256-0.073 0.272-0.115 0.418-0.115 0.424h0.183v0.157c0 0.005 0 0.005-0.005 0.005h-0.005c0 0.005 0 0.010-0.005 0.010-0.193 0-0.329 0-0.408 0v-0.178l0.183-0.674v-0.005c-0.010 0-0.031 0-0.063 0h-0.005v-0.010c-0.026 0-0.047 0-0.068 0h-0.010c-0.005-0.063 0-0.115 0-0.157z"></path>
<path fill="#111126" d="M17.244 17.443h0.031c0.11 0 0.178 0.016 0.204 0.047 0.021 0.037 0.031 0.084 0.031 0.146v0.157h-0.214v-0.146c0-0.016-0.010-0.021-0.031-0.021s-0.031 0.010-0.031 0.037v0.382s0.005 0.005 0.010 0.010v0.225c0.005 0.010 0.010 0.016 0.016 0.016 0.021-0.005 0.031-0.010 0.031-0.016v-0.241h0.22v0.251h0.005v0.005c0 0.084-0.021 0.136-0.058 0.162-0.037 0.016-0.099 0.026-0.183 0.026h-0.026c-0.11 0-0.178-0.016-0.204-0.042-0.021-0.031-0.037-0.084-0.037-0.157v-0.633c0-0.099 0.016-0.157 0.052-0.173 0.042-0.026 0.099-0.037 0.183-0.037z"></path>
<path fill="#111126" d="M17.558 17.443h0.209s0.005 0 0.005 0.005v0.173c0.010 0.005 0.010 0.010 0.010 0.010v0.193h0.052c0-0.173 0-0.298 0-0.376h0.225v1.025h-0.22v-0.005c0-0.293-0.005-0.45-0.005-0.476h-0.052v0.481h-0.078s-0.005 0-0.016-0.005h-0.026c-0.016 0-0.052 0-0.105 0 0-0.068 0-0.105 0-0.115v-0.125c0-0.031 0-0.068 0-0.115v-0.031c0-0.152 0-0.361 0-0.638z"></path>
<path fill="#111126" d="M18.975 17.443h0.173l0.105 0.518v-0.518h0.188v1.030h-0.204c-0.068-0.324-0.105-0.491-0.11-0.502v0.502h-0.188v-0.183c0.010 0 0.016 0 0.016-0.005v-0.026c0-0.052 0-0.125 0-0.214v-0.005s0 0 0-0.005h0.010c0-0.073 0-0.12 0-0.152 0.005-0.136 0.010-0.282 0.010-0.439z"></path>
<path fill="#111126" d="M19.519 17.443h0.387v0.173c0 0.005-0.021 0.094-0.068 0.256-0.073 0.272-0.115 0.418-0.115 0.424h0.183v0.157c0 0.005 0 0.005-0.005 0.005h-0.005c0 0.005 0 0.010-0.005 0.010-0.193 0-0.329 0-0.408 0v-0.178l0.183-0.674v-0.005c-0.010 0-0.031 0-0.063 0h-0.005v-0.010c-0.026 0-0.047 0-0.068 0h-0.010c0-0.063 0-0.115 0-0.157z"></path>
<path fill="#111126" d="M26.342 17.443h0.031c0.11 0 0.178 0.016 0.204 0.047 0.021 0.037 0.031 0.084 0.031 0.146v0.157h-0.214v-0.146c0-0.016-0.010-0.021-0.031-0.021s-0.031 0.010-0.031 0.037v0.382s0.005 0.005 0.010 0.010v0.225c0.005 0.010 0.010 0.016 0.016 0.016 0.021-0.005 0.031-0.010 0.031-0.016v-0.241h0.22v0.251h0.005v0.005c0 0.084-0.021 0.136-0.058 0.162-0.037 0.016-0.099 0.026-0.183 0.026h-0.021c-0.11 0-0.178-0.016-0.204-0.042-0.021-0.031-0.037-0.084-0.037-0.157v-0.633c0-0.099 0.016-0.157 0.052-0.173 0.037-0.026 0.094-0.037 0.178-0.037z"></path>
<path fill="#111126" d="M26.661 17.443h0.209s0.005 0 0.005 0.005v0.173c0.010 0.005 0.010 0.010 0.010 0.010v0.193h0.052c0-0.173 0-0.298 0-0.376h0.225v1.025h-0.22v-0.005c0-0.293-0.005-0.45-0.005-0.476h-0.052v0.481h-0.078s-0.005 0-0.016-0.005h-0.026c-0.016 0-0.052 0-0.105 0 0-0.068 0-0.105 0-0.115v-0.125c0-0.031 0-0.068 0-0.115v-0.031c-0.005-0.152-0.005-0.361 0-0.638z"></path>
<path fill="#111126" d="M28.078 17.443h0.173l0.105 0.518v-0.518h0.188v1.030h-0.204c-0.068-0.324-0.105-0.491-0.11-0.502v0.502h-0.188v-0.183c0.010 0 0.016 0 0.016-0.005v-0.026c0-0.052 0-0.125 0-0.214v-0.005s0 0 0-0.005h0.010c0-0.073 0-0.12 0-0.152 0-0.136 0.005-0.282 0.010-0.439z"></path>
<path fill="#111126" d="M28.617 17.443h0.387v0.173c0 0.005-0.021 0.094-0.068 0.256-0.073 0.272-0.115 0.418-0.115 0.424h0.183v0.157c0 0.005 0 0.005-0.005 0.005h-0.005c0 0.005 0 0.010-0.005 0.010-0.193 0-0.329 0-0.408 0v-0.178l0.183-0.674v-0.005c-0.010 0-0.031 0-0.063 0h-0.005v-0.010c-0.026 0-0.047 0-0.068 0h-0.010c0-0.063 0-0.115 0-0.157z"></path>
<path fill="#111126" d="M22.337 18.567h0.031c0.11 0 0.178 0.016 0.204 0.047 0.021 0.037 0.031 0.084 0.031 0.146v0.157h-0.214v-0.146c0-0.016-0.010-0.021-0.031-0.021s-0.031 0.010-0.031 0.037v0.382s0.005 0.005 0.010 0.010v0.225c0.005 0.010 0.010 0.016 0.016 0.016 0.021-0.005 0.031-0.010 0.031-0.016v-0.241h0.22v0.251h0.005v0.005c0 0.084-0.021 0.136-0.058 0.162-0.037 0.016-0.099 0.026-0.183 0.026h-0.026c-0.11 0-0.178-0.016-0.204-0.042-0.021-0.031-0.037-0.084-0.037-0.157v-0.633c0-0.099 0.016-0.157 0.052-0.173 0.037-0.026 0.099-0.037 0.183-0.037z"></path>
<path fill="#111126" d="M22.651 18.567h0.209s0.005 0 0.005 0.005v0.173c0.010 0.005 0.010 0.010 0.010 0.010v0.193h0.052c0-0.173 0-0.298 0-0.376h0.225v1.025h-0.22v-0.005c0-0.293-0.005-0.45-0.005-0.476h-0.052v0.481h-0.078s-0.005 0-0.016-0.005h-0.026c-0.016 0-0.052 0-0.105 0 0-0.068 0-0.105 0-0.115v-0.125c0-0.031 0-0.068 0-0.115v-0.031c0-0.152 0-0.361 0-0.638z"></path>
<path fill="#111126" d="M24.068 18.567h0.173l0.105 0.518v-0.518h0.188v1.030h-0.204c-0.068-0.324-0.105-0.491-0.11-0.502v0.502h-0.188v-0.183c0.010 0 0.016 0 0.016-0.005v-0.026c0-0.052 0-0.125 0-0.214v-0.005s0 0 0-0.005h0.010c0-0.073 0-0.12 0-0.152 0.005-0.136 0.005-0.282 0.010-0.439z"></path>
<path fill="#111126" d="M24.612 18.567h0.387v0.173c0 0.005-0.021 0.094-0.068 0.256-0.073 0.272-0.115 0.418-0.115 0.424h0.183v0.157c0 0.005 0 0.005-0.005 0.005 0 0.005 0 0.010-0.005 0.010-0.193 0-0.329 0-0.408 0v-0.178l0.183-0.674v-0.005c-0.010 0-0.031 0-0.063 0h-0.005v-0.010c-0.026 0-0.047 0-0.068 0h-0.010c-0.010-0.063-0.005-0.12-0.005-0.157z"></path>
<path fill="#111126" d="M17.788 18.567h0.031c0.11 0 0.178 0.016 0.204 0.047 0.021 0.037 0.031 0.084 0.031 0.146v0.157h-0.214v-0.146c0-0.016-0.010-0.021-0.031-0.021s-0.031 0.010-0.031 0.037v0.382s0.005 0.005 0.010 0.010v0.225c0.005 0.010 0.010 0.016 0.016 0.016 0.021-0.005 0.031-0.010 0.031-0.016v-0.241h0.22v0.251h0.005v0.005c0 0.084-0.021 0.136-0.058 0.162-0.037 0.016-0.099 0.026-0.183 0.026h-0.026c-0.11 0-0.178-0.016-0.204-0.042-0.021-0.031-0.037-0.084-0.037-0.157v-0.633c0-0.099 0.016-0.157 0.052-0.173 0.042-0.026 0.099-0.037 0.183-0.037z"></path>
<path fill="#111126" d="M18.102 18.567h0.209s0.005 0 0.005 0.005v0.173c0.010 0.005 0.010 0.010 0.010 0.010v0.193h0.052c0-0.173 0-0.298 0-0.376h0.225v1.025h-0.22v-0.005c0-0.293-0.005-0.45-0.005-0.476h-0.052v0.481h-0.078s-0.005 0-0.016-0.005h-0.026c-0.016 0-0.052 0-0.105 0 0-0.068 0-0.105 0-0.115v-0.125c0-0.031 0-0.068 0-0.115v-0.031c0-0.152 0-0.361 0-0.638z"></path>
<path fill="#111126" d="M19.519 18.567h0.173l0.105 0.518v-0.518h0.188v1.030h-0.204c-0.068-0.324-0.105-0.491-0.11-0.502v0.502h-0.188v-0.183c0.010 0 0.016 0 0.016-0.005v-0.026c0-0.052 0-0.125 0-0.214v-0.005s0 0 0-0.005h0.010c0-0.073 0-0.12 0-0.152 0.005-0.136 0.010-0.282 0.010-0.439z"></path>
<path fill="#111126" d="M20.063 18.567h0.387v0.173c0 0.005-0.021 0.094-0.068 0.256-0.073 0.272-0.115 0.418-0.115 0.424h0.183v0.157c0 0.005 0 0.005-0.005 0.005 0 0.005 0 0.010-0.005 0.010-0.193 0-0.329 0-0.408 0v-0.178l0.183-0.674v-0.005c-0.010 0-0.031 0-0.063 0h-0.005v-0.010c-0.026 0-0.047 0-0.068 0h-0.010c-0.005-0.063-0.005-0.12-0.005-0.157z"></path>
<path fill="#111126" d="M26.886 18.567h0.031c0.11 0 0.178 0.016 0.204 0.047 0.021 0.037 0.031 0.084 0.031 0.146v0.157h-0.214v-0.146c0-0.016-0.010-0.021-0.031-0.021s-0.031 0.010-0.031 0.037v0.382s0.005 0.005 0.010 0.010v0.225c0.005 0.010 0.010 0.016 0.016 0.016 0.021-0.005 0.031-0.010 0.031-0.016v-0.241h0.22v0.251h0.005v0.005c0 0.084-0.021 0.136-0.058 0.162-0.037 0.016-0.099 0.026-0.183 0.026h-0.026c-0.11 0-0.178-0.016-0.204-0.042-0.021-0.031-0.037-0.084-0.037-0.157v-0.633c0-0.099 0.016-0.157 0.052-0.173 0.042-0.026 0.099-0.037 0.183-0.037z"></path>
<path fill="#111126" d="M27.205 18.567h0.209s0.005 0 0.005 0.005v0.173c0.010 0.005 0.010 0.010 0.010 0.010v0.193h0.052c0-0.173 0-0.298 0-0.376h0.225v1.025h-0.22v-0.005c0-0.293-0.005-0.45-0.005-0.476h-0.052v0.481h-0.084s-0.005 0-0.016-0.005h-0.026c-0.016 0-0.052 0-0.105 0 0-0.068 0-0.105 0-0.115v-0.125c0-0.031 0-0.068 0-0.115v-0.031c0-0.152 0-0.361 0.005-0.638z"></path>
<path fill="#111126" d="M28.622 18.567h0.173l0.105 0.518v-0.518h0.188v1.030h-0.204c-0.068-0.324-0.105-0.491-0.11-0.502v0.502h-0.188v-0.183c0.010 0 0.016 0 0.016-0.005v-0.026c0-0.052 0-0.125 0-0.214v-0.005s0 0 0-0.005h0.010c0-0.073 0-0.12 0-0.152 0-0.136 0.005-0.282 0.010-0.439z"></path>
<path fill="#111126" d="M29.161 18.567h0.387v0.173c0 0.005-0.021 0.094-0.068 0.256-0.073 0.272-0.115 0.418-0.115 0.424h0.183v0.157c0 0.005 0 0.005-0.005 0.005 0 0.005 0 0.010-0.005 0.010-0.193 0-0.329 0-0.408 0v-0.178l0.183-0.674v-0.005c-0.010 0-0.031 0-0.063 0h-0.005v-0.010c-0.026 0-0.047 0-0.068 0h-0.010c-0.005-0.063-0.005-0.12-0.005-0.157z"></path>
<path fill="#111126" d="M22.923 19.692h0.031c0.11 0 0.178 0.016 0.204 0.047 0.021 0.037 0.031 0.084 0.031 0.146v0.157h-0.214v-0.146c0-0.016-0.010-0.021-0.031-0.021s-0.031 0.010-0.031 0.037v0.382s0.005 0.005 0.010 0.010v0.225c0.005 0.010 0.010 0.016 0.016 0.016 0.021-0.005 0.031-0.010 0.031-0.016v-0.241h0.22v0.251h0.005v0.005c0 0.084-0.021 0.136-0.058 0.162-0.037 0.016-0.099 0.026-0.183 0.026h-0.026c-0.11 0-0.178-0.016-0.204-0.042-0.021-0.031-0.037-0.084-0.037-0.157v-0.633c0-0.099 0.016-0.157 0.052-0.173 0.037-0.026 0.099-0.037 0.183-0.037z"></path>
<path fill="#111126" d="M23.237 19.692h0.209s0.005 0 0.005 0.005v0.173c0.010 0.005 0.010 0.010 0.010 0.010v0.193h0.052c0-0.173 0-0.298 0-0.376h0.225v1.025h-0.22v-0.005c0-0.293-0.005-0.45-0.005-0.476h-0.052v0.481h-0.078s-0.005 0-0.016-0.005h-0.026c-0.016 0-0.052 0-0.105 0 0-0.068 0-0.105 0-0.115v-0.125c0-0.031 0-0.068 0-0.115v-0.031c0-0.152 0-0.361 0-0.638z"></path>
<path fill="#111126" d="M24.654 19.692h0.173l0.105 0.518v-0.518h0.188v1.030h-0.204c-0.068-0.324-0.105-0.491-0.11-0.502v0.502h-0.188v-0.183c0.010 0 0.016 0 0.016-0.005v-0.026c0-0.052 0-0.125 0-0.214v-0.005s0 0 0-0.005h0.010c0-0.073 0-0.12 0-0.152 0.005-0.136 0.005-0.282 0.010-0.439z"></path>
<path fill="#111126" d="M25.192 19.692h0.387v0.173c0 0.005-0.021 0.094-0.068 0.256-0.073 0.272-0.115 0.418-0.115 0.424h0.183v0.157c0 0.005 0 0.005-0.005 0.005h-0.005c0 0.005 0 0.010-0.005 0.010-0.193 0-0.329 0-0.408 0v-0.178l0.183-0.674v-0.005c-0.010 0-0.031 0-0.063 0h-0.005v-0.010c-0.026 0-0.047 0-0.068 0h-0.010c0-0.068 0-0.12 0-0.157z"></path>
<path fill="#111126" d="M18.374 19.692h0.031c0.11 0 0.178 0.016 0.204 0.047 0.021 0.037 0.031 0.084 0.031 0.146v0.157h-0.214v-0.146c0-0.016-0.010-0.021-0.031-0.021s-0.031 0.010-0.031 0.037v0.382s0.005 0.005 0.010 0.010v0.225c0.005 0.010 0.010 0.016 0.016 0.016 0.021-0.005 0.031-0.010 0.031-0.016v-0.241h0.22v0.251h0.005v0.005c0 0.084-0.021 0.136-0.058 0.162-0.037 0.016-0.099 0.026-0.183 0.026h-0.026c-0.11 0-0.178-0.016-0.204-0.042-0.021-0.031-0.037-0.084-0.037-0.157v-0.633c0-0.099 0.016-0.157 0.052-0.173 0.042-0.026 0.099-0.037 0.183-0.037z"></path>
<path fill="#111126" d="M18.688 19.692h0.209s0.005 0 0.005 0.005v0.173c0.010 0.005 0.010 0.010 0.010 0.010v0.193h0.052c0-0.173 0-0.298 0-0.376h0.225v1.025h-0.22v-0.005c0-0.293-0.005-0.45-0.005-0.476h-0.052v0.481h-0.078s-0.005 0-0.016-0.005h-0.026c-0.016 0-0.052 0-0.105 0 0-0.068 0-0.105 0-0.115v-0.125c0-0.031 0-0.068 0-0.115v-0.031c0-0.152 0-0.361 0-0.638z"></path>
<path fill="#111126" d="M20.105 19.692h0.173l0.105 0.518v-0.518h0.188v1.030h-0.204c-0.068-0.324-0.105-0.491-0.11-0.502v0.502h-0.178v-0.183c0.010 0 0.016 0 0.016-0.005v-0.026c0-0.052 0-0.125 0-0.214v-0.005s0 0 0-0.005h0.010c0-0.073 0-0.12 0-0.152-0.005-0.136 0-0.282 0-0.439z"></path>
<path fill="#111126" d="M20.648 19.692h0.387v0.173c0 0.005-0.021 0.094-0.068 0.256-0.073 0.272-0.115 0.418-0.115 0.424h0.183v0.157c0 0.005 0 0.005-0.005 0.005h-0.005c0 0.005 0 0.010-0.005 0.010-0.193 0-0.329 0-0.408 0v-0.178l0.183-0.674v-0.005c-0.010 0-0.031 0-0.063 0h-0.005v-0.010c-0.026 0-0.047 0-0.068 0h-0.010c0-0.068 0-0.12 0-0.157z"></path>
<path fill="#111126" d="M27.472 19.692h0.031c0.11 0 0.178 0.016 0.204 0.047 0.021 0.037 0.031 0.084 0.031 0.146v0.157h-0.214v-0.146c0-0.016-0.010-0.021-0.031-0.021s-0.031 0.010-0.031 0.037v0.382s0.005 0.005 0.010 0.010v0.225c0.005 0.010 0.010 0.016 0.016 0.016 0.021-0.005 0.031-0.010 0.031-0.016v-0.241h0.22v0.251h0.005v0.005c0 0.084-0.021 0.136-0.058 0.162-0.037 0.016-0.099 0.026-0.183 0.026h-0.026c-0.11 0-0.178-0.016-0.204-0.042-0.021-0.031-0.037-0.084-0.037-0.157v-0.633c0-0.099 0.016-0.157 0.052-0.173 0.042-0.026 0.099-0.037 0.183-0.037z"></path>
<path fill="#111126" d="M27.786 19.692h0.209s0.005 0 0.005 0.005v0.173c0.010 0.005 0.010 0.010 0.010 0.010v0.193h0.052c0-0.173 0-0.298 0-0.376h0.225v1.025h-0.22v-0.005c0-0.293-0.005-0.45-0.005-0.476h-0.052v0.481h-0.078s-0.005 0-0.016-0.005h-0.026c-0.016 0-0.052 0-0.105 0 0-0.068 0-0.105 0-0.115v-0.125c0-0.031 0-0.068 0-0.115v-0.031c0-0.152 0-0.361 0-0.638z"></path>
<path fill="#111126" d="M29.203 19.692h0.173l0.105 0.518v-0.518h0.188v1.030h-0.204c-0.068-0.324-0.105-0.491-0.11-0.502v0.502h-0.178v-0.183c0.010 0 0.016 0 0.016-0.005v-0.026c0-0.052 0-0.125 0-0.214v-0.005s0 0 0-0.005h0.010c0-0.073 0-0.12 0-0.152-0.005-0.136 0-0.282 0-0.439z"></path>
<path fill="#111126" d="M29.746 19.692h0.387v0.173c0 0.005-0.021 0.094-0.068 0.256-0.073 0.272-0.115 0.418-0.115 0.424h0.183v0.157c0 0.005 0 0.005-0.005 0.005h-0.005c0 0.005 0 0.010-0.005 0.010-0.193 0-0.329 0-0.408 0v-0.178l0.183-0.674v-0.005c-0.010 0-0.031 0-0.063 0h-0.005v-0.010c-0.026 0-0.047 0-0.068 0h-0.010c0-0.068 0-0.12 0-0.157z"></path>
<path fill="#111126" d="M16.643 7.331h0.031c0.11 0 0.178 0.016 0.204 0.047 0.021 0.037 0.031 0.084 0.031 0.146v0.157h-0.214v-0.146c0-0.016-0.010-0.021-0.031-0.021s-0.031 0.010-0.031 0.037v0.382s0.005 0.005 0.010 0.010v0.225c0.005 0.010 0.010 0.016 0.016 0.016 0.021-0.005 0.031-0.010 0.031-0.016v-0.241h0.22v0.251h0.005v0.005c0 0.084-0.021 0.136-0.058 0.162-0.037 0.016-0.099 0.026-0.183 0.026h-0.026c-0.11 0-0.178-0.016-0.204-0.042-0.021-0.031-0.037-0.084-0.037-0.157v-0.643c0-0.099 0.016-0.157 0.052-0.173 0.037-0.021 0.099-0.026 0.183-0.026z"></path>
<path fill="#111126" d="M16.957 7.325h0.209s0.005 0 0.005 0.005v0.173c0.010 0.005 0.010 0.010 0.010 0.010v0.193h0.052c0-0.173 0-0.298 0-0.376h0.225v1.025h-0.22v-0.005c0-0.293-0.005-0.45-0.005-0.476h-0.052v0.481h-0.078s-0.005 0-0.016-0.005h-0.026c-0.016 0-0.052 0-0.105 0 0-0.068 0-0.105 0-0.115v-0.126c0-0.031 0-0.068 0-0.115v-0.031c0-0.146 0-0.361 0-0.638z"></path>
<path fill="#111126" d="M18.374 7.325h0.173l0.105 0.518v-0.518h0.188v1.030h-0.204c-0.068-0.324-0.105-0.492-0.11-0.502v0.502h-0.188v-0.183c0.010 0 0.016 0 0.016-0.005v-0.026c0-0.052 0-0.126 0-0.214v-0.005s0 0 0-0.005h0.010c0-0.073 0-0.12 0-0.152 0.005-0.131 0.005-0.282 0.010-0.439z"></path>
<path fill="#111126" d="M18.918 7.325h0.387v0.173c0 0.005-0.021 0.094-0.068 0.256-0.073 0.272-0.115 0.418-0.115 0.424h0.183v0.157c0 0.005 0 0.005-0.005 0.005h-0.005c0 0.005 0 0.010-0.005 0.010-0.193 0-0.329 0-0.408 0v-0.178l0.183-0.675v-0.005c-0.010 0-0.031 0-0.063 0h-0.005v-0.010c-0.026 0-0.047 0-0.068 0h-0.010c0-0.063 0-0.115 0-0.157z"></path>
<path fill="#111126" d="M12.094 7.331h0.031c0.11 0 0.178 0.016 0.204 0.047 0.021 0.037 0.031 0.084 0.031 0.146v0.157h-0.214v-0.146c0-0.016-0.010-0.021-0.031-0.021s-0.031 0.010-0.031 0.037v0.382s0.005 0.005 0.010 0.010v0.225c0.005 0.010 0.010 0.016 0.016 0.016 0.021-0.005 0.031-0.010 0.031-0.016v-0.241h0.22v0.251h0.005v0.005c0 0.084-0.021 0.136-0.058 0.162-0.037 0.016-0.099 0.026-0.183 0.026h-0.026c-0.11 0-0.178-0.016-0.204-0.042-0.021-0.031-0.037-0.084-0.037-0.157v-0.643c0-0.099 0.016-0.157 0.052-0.173 0.042-0.021 0.099-0.026 0.183-0.026z"></path>
<path fill="#111126" d="M12.413 7.325h0.209s0.005 0 0.005 0.005v0.173c0.010 0.005 0.010 0.010 0.010 0.010v0.193h0.052c0-0.173 0-0.298 0-0.376h0.225v1.025h-0.22v-0.005c0-0.293-0.005-0.45-0.005-0.476h-0.052v0.481h-0.078s-0.005 0-0.016-0.005h-0.026c-0.016 0-0.052 0-0.105 0 0-0.068 0-0.105 0-0.115v-0.126c0-0.031 0-0.068 0-0.115v-0.031c-0.005-0.146-0.005-0.361 0-0.638z"></path>
<path fill="#111126" d="M13.83 7.325h0.173l0.105 0.518v-0.518h0.188v1.030h-0.204c-0.068-0.324-0.105-0.492-0.11-0.502v0.502h-0.188v-0.183c0.010 0 0.016 0 0.016-0.005v-0.026c0-0.052 0-0.126 0-0.214v-0.005s0 0 0-0.005h0.010c0-0.073 0-0.12 0-0.152 0.005-0.131 0.005-0.282 0.010-0.439z"></path>
<path fill="#111126" d="M14.369 7.325h0.387v0.173c0 0.005-0.021 0.094-0.068 0.256-0.073 0.272-0.115 0.418-0.115 0.424h0.183v0.157c0 0.005 0 0.005-0.005 0.005h-0.005c0 0.005 0 0.010-0.005 0.010-0.193 0-0.329 0-0.408 0v-0.178l0.183-0.675v-0.005c-0.010 0-0.031 0-0.063 0h-0.005v-0.010c-0.026 0-0.047 0-0.068 0h-0.010c0-0.063 0-0.115 0-0.157z"></path>
<path fill="#111126" d="M21.197 7.331h0.031c0.11 0 0.178 0.016 0.204 0.047 0.021 0.037 0.031 0.084 0.031 0.146v0.157h-0.214v-0.146c0-0.016-0.010-0.021-0.031-0.021s-0.031 0.010-0.031 0.037v0.382s0.005 0.005 0.010 0.010v0.225c0.005 0.010 0.010 0.016 0.016 0.016 0.021-0.005 0.031-0.010 0.031-0.016v-0.241h0.22v0.251h0.005v0.005c0 0.084-0.021 0.136-0.058 0.162-0.037 0.016-0.099 0.026-0.183 0.026h-0.026c-0.11 0-0.178-0.016-0.204-0.042-0.021-0.031-0.037-0.084-0.037-0.157v-0.643c0-0.099 0.016-0.157 0.052-0.173 0.037-0.021 0.099-0.026 0.183-0.026z"></path>
<path fill="#111126" d="M21.511 7.325h0.209s0.005 0 0.005 0.005v0.173c0.010 0.005 0.010 0.010 0.010 0.010v0.193h0.052c0-0.173 0-0.298 0-0.376h0.225v1.025h-0.22v-0.005c0-0.293-0.005-0.45-0.005-0.476h-0.052v0.481h-0.078s-0.005 0-0.016-0.005h-0.026c-0.016 0-0.052 0-0.105 0 0-0.068 0-0.105 0-0.115v-0.126c0-0.031 0-0.068 0-0.115v-0.031c0-0.146 0-0.361 0-0.638z"></path>
<path fill="#111126" d="M22.928 7.325h0.173l0.105 0.518v-0.518h0.188v1.030h-0.204c-0.068-0.324-0.105-0.492-0.11-0.502v0.502h-0.188v-0.183c0.010 0 0.016 0 0.016-0.005v-0.026c0-0.052 0-0.126 0-0.214v-0.005s0 0 0-0.005h0.010c0-0.073 0-0.12 0-0.152 0.005-0.131 0.005-0.282 0.010-0.439z"></path>
<path fill="#111126" d="M23.467 7.325h0.387v0.173c0 0.005-0.021 0.094-0.068 0.256-0.073 0.272-0.115 0.418-0.115 0.424h0.183v0.157c0 0.005 0 0.005-0.005 0.005h-0.005c0 0.005 0 0.010-0.005 0.010-0.193 0-0.329 0-0.408 0v-0.178l0.183-0.675v-0.005c-0.010 0-0.031 0-0.063 0h-0.005v-0.010c-0.026 0-0.047 0-0.068 0h-0.010c0-0.063 0-0.115 0-0.157z"></path>
<path fill="#111126" d="M17.187 8.455h0.031c0.11 0 0.178 0.016 0.204 0.047 0.021 0.037 0.031 0.084 0.031 0.146v0.157h-0.214v-0.146c0-0.016-0.010-0.021-0.031-0.021s-0.031 0.010-0.031 0.037v0.382s0.005 0.005 0.010 0.010v0.225c0.005 0.010 0.010 0.016 0.016 0.016 0.021-0.005 0.031-0.010 0.031-0.016v-0.246h0.22v0.251h0.005v0.005c0 0.084-0.021 0.136-0.058 0.162-0.037 0.016-0.099 0.026-0.183 0.026h-0.026c-0.11 0-0.178-0.016-0.204-0.042-0.021-0.031-0.037-0.084-0.037-0.157v-0.633c0-0.099 0.016-0.157 0.052-0.173 0.037-0.026 0.099-0.031 0.183-0.031z"></path>
<path fill="#111126" d="M17.501 8.45h0.209s0.005 0 0.005 0.005v0.173c0.010 0.005 0.010 0.010 0.010 0.010v0.193h0.052c0-0.173 0-0.298 0-0.376h0.225v1.025h-0.22v-0.005c0-0.293-0.005-0.45-0.005-0.476h-0.052v0.481h-0.078s-0.005 0-0.016-0.005h-0.026c-0.016 0-0.052 0-0.105 0 0-0.068 0-0.105 0-0.115v-0.12c0-0.031 0-0.068 0-0.115v-0.031c0-0.152 0-0.366 0-0.643z"></path>
<path fill="#111126" d="M18.918 8.45h0.173l0.105 0.518v-0.518h0.188v1.030h-0.204c-0.068-0.324-0.105-0.492-0.11-0.502v0.502h-0.188v-0.183c0.010 0 0.016 0 0.016-0.005v-0.026c0-0.052 0-0.126 0-0.214v-0.005s0 0 0-0.005h0.010c0-0.073 0-0.12 0-0.152 0.005-0.136 0.005-0.282 0.010-0.439z"></path>
<path fill="#111126" d="M19.461 8.45h0.387v0.173c0 0.005-0.021 0.094-0.068 0.256-0.073 0.272-0.115 0.418-0.115 0.424h0.183v0.157c0 0.005 0 0.005-0.005 0.005h-0.005c0 0.005 0 0.010-0.005 0.010-0.193 0-0.329 0-0.408 0v-0.167l0.183-0.675v-0.005c-0.010 0-0.031 0-0.063 0h-0.005v-0.010c-0.026 0-0.047 0-0.068 0h-0.010c0-0.073 0-0.126 0-0.167z"></path>
<path fill="#111126" d="M12.638 8.455h0.031c0.11 0 0.178 0.016 0.204 0.047 0.021 0.037 0.031 0.084 0.031 0.146v0.157h-0.214v-0.146c0-0.016-0.010-0.021-0.031-0.021s-0.031 0.010-0.031 0.037v0.382s0.005 0.005 0.010 0.010v0.225c0.005 0.010 0.010 0.016 0.016 0.016 0.021-0.005 0.031-0.010 0.031-0.016v-0.246h0.22v0.251h0.005v0.005c0 0.084-0.021 0.136-0.058 0.162-0.037 0.016-0.099 0.026-0.183 0.026h-0.026c-0.11 0-0.178-0.016-0.204-0.042-0.021-0.031-0.037-0.084-0.037-0.157v-0.633c0-0.099 0.016-0.157 0.052-0.173 0.042-0.026 0.099-0.031 0.183-0.031z"></path>
<path fill="#111126" d="M12.957 8.45h0.209s0.005 0 0.005 0.005v0.173c0.010 0.005 0.010 0.010 0.010 0.010v0.193h0.052c0-0.173 0-0.298 0-0.376h0.225v1.025h-0.22v-0.005c0-0.293-0.005-0.45-0.005-0.476h-0.052v0.481h-0.078s-0.005 0-0.016-0.005h-0.026c-0.016 0-0.052 0-0.105 0 0-0.068 0-0.105 0-0.115v-0.12c0-0.031 0-0.068 0-0.115v-0.031c-0.005-0.152-0.005-0.366 0-0.643z"></path>
<path fill="#111126" d="M14.374 8.45h0.173l0.105 0.518v-0.518h0.188v1.030h-0.199c-0.068-0.324-0.105-0.492-0.11-0.502v0.502h-0.188v-0.183c0.010 0 0.016 0 0.016-0.005v-0.026c0-0.052 0-0.126 0-0.214v-0.005s0 0 0-0.005h0.010c0-0.073 0-0.12 0-0.152 0-0.136 0-0.282 0.005-0.439z"></path>
<path fill="#111126" d="M14.912 8.45h0.387v0.173c0 0.005-0.021 0.094-0.068 0.256-0.073 0.272-0.115 0.418-0.115 0.424h0.183v0.157c0 0.005 0 0.005-0.005 0.005h-0.005c0 0.005 0 0.010-0.005 0.010-0.193 0-0.329 0-0.408 0v-0.167l0.183-0.675v-0.005c-0.010 0-0.031 0-0.063 0h-0.005v-0.010c-0.026 0-0.047 0-0.068 0h-0.010c0-0.073 0-0.126 0-0.167z"></path>
<path fill="#111126" d="M21.741 8.455h0.031c0.11 0 0.178 0.016 0.204 0.047 0.021 0.037 0.031 0.084 0.031 0.146v0.157h-0.214v-0.146c0-0.016-0.010-0.021-0.031-0.021s-0.031 0.010-0.031 0.037v0.382s0.005 0.005 0.010 0.010v0.225c0.005 0.010 0.010 0.016 0.016 0.016 0.021-0.005 0.031-0.010 0.031-0.016v-0.246h0.22v0.251h0.005v0.005c0 0.084-0.021 0.136-0.058 0.162-0.037 0.016-0.099 0.026-0.183 0.026h-0.026c-0.11 0-0.178-0.016-0.204-0.042-0.021-0.031-0.037-0.084-0.037-0.157v-0.633c0-0.099 0.016-0.157 0.052-0.173 0.037-0.026 0.099-0.031 0.183-0.031z"></path>
<path fill="#111126" d="M22.055 8.45h0.209s0.005 0 0.005 0.005v0.173c0.010 0.005 0.010 0.010 0.010 0.010v0.193h0.052c0-0.173 0-0.298 0-0.376h0.225v1.025h-0.22v-0.005c0-0.293-0.005-0.45-0.005-0.476h-0.052v0.481h-0.078s-0.005 0-0.016-0.005h-0.026c-0.016 0-0.052 0-0.105 0 0-0.068 0-0.105 0-0.115v-0.12c0-0.031 0-0.068 0-0.115v-0.031c0-0.152 0-0.366 0-0.643z"></path>
<path fill="#111126" d="M23.472 8.45h0.173l0.105 0.518v-0.518h0.188v1.030h-0.199c-0.068-0.324-0.105-0.492-0.11-0.502v0.502h-0.188v-0.183c0.010 0 0.016 0 0.016-0.005v-0.026c0-0.052 0-0.126 0-0.214v-0.005s0 0 0-0.005h0.010c0-0.073 0-0.12 0-0.152 0-0.136 0-0.282 0.005-0.439z"></path>
<path fill="#111126" d="M24.010 8.45h0.387v0.173c0 0.005-0.021 0.094-0.068 0.256-0.073 0.272-0.115 0.418-0.115 0.424h0.183v0.157c0 0.005 0 0.005-0.005 0.005h-0.005c0 0.005 0 0.010-0.005 0.010-0.193 0-0.329 0-0.408 0v-0.167l0.183-0.675v-0.005c-0.010 0-0.031 0-0.063 0h-0.005v-0.010c-0.026 0-0.047 0-0.068 0h-0.010c0-0.073 0-0.126 0-0.167z"></path>
<path fill="#111126" d="M17.773 9.574h0.031c0.11 0 0.178 0.016 0.204 0.047 0.021 0.037 0.031 0.084 0.031 0.146v0.157h-0.214v-0.146c0-0.016-0.010-0.021-0.031-0.021s-0.031 0.010-0.031 0.037v0.382s0.005 0.005 0.010 0.010v0.225c0.005 0.010 0.010 0.016 0.016 0.016 0.021-0.005 0.031-0.010 0.031-0.016v-0.241h0.22v0.251h0.005v0.005c0 0.084-0.021 0.136-0.058 0.162-0.037 0.016-0.099 0.026-0.183 0.026h-0.026c-0.11 0-0.178-0.016-0.204-0.042-0.021-0.031-0.037-0.084-0.037-0.157v-0.638c0-0.099 0.016-0.157 0.052-0.173 0.037-0.021 0.099-0.031 0.183-0.031z"></path>
<path fill="#111126" d="M18.086 9.574h0.209s0.005 0 0.005 0.005v0.173c0.010 0.005 0.010 0.010 0.010 0.010v0.193h0.052c0-0.173 0-0.298 0-0.376h0.225v1.025h-0.22v-0.005c0-0.293-0.005-0.45-0.005-0.476h-0.052v0.481h-0.078s-0.005 0-0.016-0.005h-0.026c-0.016 0-0.052 0-0.105 0 0-0.068 0-0.105 0-0.115v-0.126c0-0.031 0-0.068 0-0.115v-0.031c0-0.146 0-0.361 0-0.638z"></path>
<path fill="#111126" d="M19.503 9.574h0.173l0.105 0.518v-0.518h0.188v1.030h-0.204c-0.068-0.324-0.105-0.492-0.11-0.502v0.502h-0.188v-0.183c0.010 0 0.016 0 0.016-0.005v-0.026c0-0.052 0-0.126 0-0.214v-0.005s0 0 0-0.005h0.010c0-0.073 0-0.12 0-0.152 0.005-0.136 0.005-0.282 0.010-0.439z"></path>
<path fill="#111126" d="M20.047 9.574h0.387v0.173c0 0.005-0.021 0.094-0.068 0.256-0.073 0.272-0.115 0.418-0.115 0.424h0.183v0.157c0 0.005 0 0.005-0.005 0.005h-0.005c0 0.005 0 0.010-0.005 0.010-0.193 0-0.329 0-0.408 0v-0.178l0.183-0.675v-0.005c-0.010 0-0.031 0-0.063 0h-0.005v-0.010c-0.026 0-0.047 0-0.068 0h-0.010c-0.005-0.063 0-0.115 0-0.157z"></path>
<path fill="#111126" d="M13.224 9.574h0.031c0.11 0 0.178 0.016 0.204 0.047 0.021 0.037 0.031 0.084 0.031 0.146v0.157h-0.214v-0.146c0-0.016-0.010-0.021-0.031-0.021s-0.031 0.010-0.031 0.037v0.382s0.005 0.005 0.010 0.010v0.225c0.005 0.010 0.010 0.016 0.016 0.016 0.021-0.005 0.031-0.010 0.031-0.016v-0.241h0.22v0.251h0.005v0.005c0 0.084-0.021 0.136-0.058 0.162-0.037 0.016-0.099 0.026-0.183 0.026h-0.026c-0.11 0-0.178-0.016-0.204-0.042-0.021-0.031-0.037-0.084-0.037-0.157v-0.638c0-0.099 0.016-0.157 0.052-0.173 0.042-0.021 0.099-0.031 0.183-0.031z"></path>
<path fill="#111126" d="M13.537 9.574h0.209s0.005 0 0.005 0.005v0.173c0.010 0.005 0.010 0.010 0.010 0.010v0.193h0.052c0-0.173 0-0.298 0-0.376h0.225v1.025h-0.22v-0.005c0-0.293-0.005-0.45-0.005-0.476h-0.052v0.481h-0.078s-0.005 0-0.016-0.005h-0.026c-0.016 0-0.052 0-0.105 0 0-0.068 0-0.105 0-0.115v-0.126c0-0.031 0-0.068 0-0.115v-0.031c0-0.146 0-0.361 0-0.638z"></path>
<path fill="#111126" d="M14.954 9.574h0.173l0.105 0.518v-0.518h0.188v1.030h-0.204c-0.068-0.324-0.105-0.492-0.11-0.502v0.502h-0.188v-0.183c0.010 0 0.016 0 0.016-0.005v-0.026c0-0.052 0-0.126 0-0.214v-0.005s0 0 0-0.005h0.010c0-0.073 0-0.12 0-0.152 0.005-0.136 0.010-0.282 0.010-0.439z"></path>
<path fill="#111126" d="M15.498 9.574h0.387v0.173c0 0.005-0.021 0.094-0.068 0.256-0.073 0.272-0.115 0.418-0.115 0.424h0.183v0.157c0 0.005 0 0.005-0.005 0.005h-0.005c0 0.005 0 0.010-0.005 0.010-0.193 0-0.329 0-0.408 0v-0.178l0.183-0.675v-0.005c-0.010 0-0.031 0-0.063 0h-0.005v-0.010c-0.026 0-0.047 0-0.068 0h-0.010c0-0.063 0-0.115 0-0.157z"></path>
<path fill="#111126" d="M22.322 9.574h0.031c0.11 0 0.178 0.016 0.204 0.047 0.021 0.037 0.031 0.084 0.031 0.146v0.157h-0.214v-0.146c0-0.016-0.010-0.021-0.031-0.021s-0.031 0.010-0.031 0.037v0.382s0.005 0.005 0.010 0.010v0.225c0.005 0.010 0.010 0.016 0.016 0.016 0.021-0.005 0.031-0.010 0.031-0.016v-0.241h0.22v0.251h0.005v0.005c0 0.084-0.021 0.136-0.058 0.162-0.037 0.016-0.099 0.026-0.183 0.026h-0.026c-0.11 0-0.178-0.016-0.204-0.042-0.021-0.031-0.037-0.084-0.037-0.157v-0.638c0-0.099 0.016-0.157 0.052-0.173 0.042-0.021 0.099-0.031 0.183-0.031z"></path>
<path fill="#111126" d="M22.641 9.574h0.209s0.005 0 0.005 0.005v0.173c0.010 0.005 0.010 0.010 0.010 0.010v0.193h0.052c0-0.173 0-0.298 0-0.376h0.225v1.025h-0.22v-0.005c0-0.293-0.005-0.45-0.005-0.476h-0.052v0.481h-0.078s-0.005 0-0.016-0.005h-0.026c-0.016 0-0.052 0-0.105 0 0-0.068 0-0.105 0-0.115v-0.126c0-0.031 0-0.068 0-0.115v-0.031c-0.005-0.146-0.005-0.361 0-0.638z"></path>
<path fill="#111126" d="M24.058 9.574h0.173l0.105 0.518v-0.518h0.188v1.030h-0.204c-0.068-0.324-0.105-0.492-0.11-0.502v0.502h-0.188v-0.183c0.010 0 0.016 0 0.016-0.005v-0.026c0-0.052 0-0.126 0-0.214v-0.005s0 0 0-0.005h0.010c0-0.073 0-0.12 0-0.152 0.005-0.136 0.005-0.282 0.010-0.439z"></path>
<path fill="#111126" d="M24.596 9.574h0.387v0.173c0 0.005-0.021 0.094-0.068 0.256-0.073 0.272-0.115 0.418-0.115 0.424h0.183v0.157c0 0.005 0 0.005-0.005 0.005h-0.005c0 0.005 0 0.010-0.005 0.010-0.193 0-0.329 0-0.408 0v-0.178l0.183-0.675v-0.005c-0.010 0-0.031 0-0.063 0h-0.005v-0.010c-0.026 0-0.047 0-0.068 0h-0.010c0-0.063 0-0.115 0-0.157z"></path>
<path fill="#111126" d="M18.379 10.698h0.031c0.11 0 0.178 0.016 0.204 0.047 0.021 0.037 0.031 0.084 0.031 0.146v0.157h-0.214v-0.146c0-0.016-0.010-0.021-0.031-0.021s-0.031 0.010-0.031 0.037v0.382s0.005 0.005 0.010 0.010v0.225c0.005 0.010 0.010 0.016 0.016 0.016 0.021-0.005 0.031-0.010 0.031-0.016v-0.241h0.22v0.251h0.005v0.005c0 0.084-0.021 0.136-0.058 0.162-0.037 0.016-0.099 0.026-0.183 0.026h-0.026c-0.11 0-0.178-0.016-0.204-0.042-0.021-0.031-0.037-0.084-0.037-0.157v-0.633c0-0.099 0.016-0.157 0.052-0.173 0.037-0.026 0.099-0.037 0.183-0.037z"></path>
<path fill="#111126" d="M18.693 10.698h0.209s0.005 0 0.005 0.005v0.173c0.010 0.005 0.010 0.010 0.010 0.010v0.193h0.052c0-0.173 0-0.298 0-0.376h0.225v1.025h-0.22v-0.005c0-0.293-0.005-0.45-0.005-0.476h-0.052v0.481h-0.078s-0.005 0-0.016-0.005h-0.026c-0.016 0-0.052 0-0.105 0 0-0.068 0-0.105 0-0.115v-0.126c0-0.031 0-0.068 0-0.115v-0.031c0-0.152 0-0.361 0-0.638z"></path>
<path fill="#111126" d="M20.11 10.698h0.173l0.105 0.518v-0.518h0.188v1.030h-0.204c-0.068-0.324-0.105-0.492-0.11-0.502v0.502h-0.183v-0.183c0.010 0 0.016 0 0.016-0.005v-0.026c0-0.052 0-0.126 0-0.214v-0.005s0 0 0-0.005h0.010c0-0.073 0-0.12 0-0.152 0-0.136 0-0.282 0.005-0.439z"></path>
<path fill="#111126" d="M20.654 10.698h0.387v0.173c0 0.005-0.021 0.094-0.068 0.256-0.073 0.272-0.115 0.418-0.115 0.424h0.183v0.157c0 0.005 0 0.005-0.005 0.005h-0.005c0 0.005 0 0.010-0.005 0.010-0.193 0-0.329 0-0.408 0v-0.178l0.183-0.675v-0.005c-0.010 0-0.031 0-0.063 0h-0.005v-0.010c-0.026 0-0.047 0-0.068 0h-0.010c0-0.063 0-0.115 0-0.157z"></path>
<path fill="#111126" d="M13.83 10.698h0.031c0.11 0 0.178 0.016 0.204 0.047 0.021 0.037 0.031 0.084 0.031 0.146v0.157h-0.214v-0.146c0-0.016-0.010-0.021-0.031-0.021s-0.031 0.010-0.031 0.037v0.382s0.005 0.005 0.010 0.010v0.225c0.005 0.010 0.010 0.016 0.016 0.016 0.021-0.005 0.031-0.010 0.031-0.016v-0.241h0.22v0.251h0.005v0.005c0 0.084-0.021 0.136-0.058 0.162-0.037 0.016-0.099 0.026-0.183 0.026h-0.026c-0.11 0-0.178-0.016-0.204-0.042-0.021-0.031-0.037-0.084-0.037-0.157v-0.633c0-0.099 0.016-0.157 0.052-0.173 0.042-0.026 0.099-0.037 0.183-0.037z"></path>
<path fill="#111126" d="M14.144 10.698h0.209s0.005 0 0.005 0.005v0.173c0.010 0.005 0.010 0.010 0.010 0.010v0.193h0.052c0-0.173 0-0.298 0-0.376h0.225v1.025h-0.22v-0.005c0-0.293-0.005-0.45-0.005-0.476h-0.052v0.481h-0.078s-0.005 0-0.016-0.005h-0.026c-0.016 0-0.052 0-0.105 0 0-0.068 0-0.105 0-0.115v-0.126c0-0.031 0-0.068 0-0.115v-0.031c0-0.152 0-0.361 0-0.638z"></path>
<path fill="#111126" d="M15.566 10.698h0.173l0.105 0.518v-0.518h0.188v1.030h-0.204c-0.068-0.324-0.105-0.492-0.11-0.502v0.502h-0.188v-0.183c0.010 0 0.016 0 0.016-0.005v-0.026c0-0.052 0-0.126 0-0.214v-0.005s0 0 0-0.005h0.010c0-0.073 0-0.12 0-0.152 0-0.136 0.005-0.282 0.010-0.439z"></path>
<path fill="#111126" d="M16.105 10.698h0.387v0.173c0 0.005-0.021 0.094-0.068 0.256-0.073 0.272-0.115 0.418-0.115 0.424h0.183v0.157c0 0.005 0 0.005-0.005 0.005h-0.005c0 0.005 0 0.010-0.005 0.010-0.193 0-0.329 0-0.408 0v-0.178l0.193-0.669v-0.005c-0.010 0-0.031 0-0.063 0h-0.005v-0.010c-0.026 0-0.047 0-0.068 0h-0.010c-0.010-0.068-0.010-0.12-0.010-0.162z"></path>
<path fill="#111126" d="M22.928 10.698h0.031c0.11 0 0.178 0.016 0.204 0.047 0.021 0.037 0.031 0.084 0.031 0.146v0.157h-0.214v-0.146c0-0.016-0.010-0.021-0.031-0.021s-0.031 0.010-0.031 0.037v0.382s0.005 0.005 0.010 0.010v0.225c0.005 0.010 0.010 0.016 0.016 0.016 0.021-0.005 0.031-0.010 0.031-0.016v-0.241h0.22v0.251h0.005v0.005c0 0.084-0.021 0.136-0.058 0.162-0.037 0.016-0.099 0.026-0.183 0.026h-0.026c-0.11 0-0.178-0.016-0.204-0.042-0.021-0.031-0.037-0.084-0.037-0.157v-0.633c0-0.099 0.016-0.157 0.052-0.173 0.042-0.026 0.099-0.037 0.183-0.037z"></path>
<path fill="#111126" d="M23.247 10.698h0.209s0.005 0 0.005 0.005v0.173c0.010 0.005 0.010 0.010 0.010 0.010v0.193h0.052c0-0.173 0-0.298 0-0.376h0.225v1.025h-0.22v-0.005c0-0.293-0.005-0.45-0.005-0.476h-0.052v0.481h-0.078s-0.005 0-0.016-0.005h-0.026c-0.016 0-0.052 0-0.105 0 0-0.068 0-0.105 0-0.115v-0.126c0-0.031 0-0.068 0-0.115v-0.031c-0.005-0.152 0-0.361 0-0.638z"></path>
<path fill="#111126" d="M24.664 10.698h0.173l0.105 0.518v-0.518h0.188v1.030h-0.204c-0.068-0.324-0.105-0.492-0.11-0.502v0.502h-0.188v-0.183c0.010 0 0.016 0 0.016-0.005v-0.026c0-0.052 0-0.126 0-0.214v-0.005s0 0 0-0.005h0.010c0-0.073 0-0.12 0-0.152 0.005-0.136 0.005-0.282 0.010-0.439z"></path>
<path fill="#111126" d="M25.203 10.698h0.387v0.173c0 0.005-0.021 0.094-0.068 0.256-0.073 0.272-0.115 0.418-0.115 0.424h0.183v0.157c0 0.005 0 0.005-0.005 0.005h-0.005c0 0.005 0 0.010-0.005 0.010-0.193 0-0.329 0-0.408 0v-0.178l0.193-0.669v-0.005c-0.010 0-0.031 0-0.063 0h-0.005v-0.010c-0.026 0-0.047 0-0.068 0h-0.010c-0.010-0.068-0.010-0.12-0.010-0.162z"></path>
<path fill="#111126" d="M18.923 11.822h0.031c0.11 0 0.178 0.016 0.204 0.047 0.021 0.037 0.031 0.084 0.031 0.146v0.157h-0.214v-0.146c0-0.016-0.010-0.021-0.031-0.021s-0.031 0.010-0.031 0.037v0.382s0.005 0.005 0.010 0.010v0.225c0.005 0.010 0.010 0.016 0.016 0.016 0.021-0.005 0.031-0.010 0.031-0.016v-0.241h0.22v0.251h0.005v0.005c0 0.084-0.021 0.136-0.058 0.162-0.037 0.016-0.099 0.026-0.183 0.026h-0.026c-0.11 0-0.178-0.016-0.204-0.042-0.021-0.031-0.037-0.084-0.037-0.157v-0.633c0-0.099 0.016-0.157 0.052-0.173 0.037-0.026 0.099-0.037 0.183-0.037z"></path>
<path fill="#111126" d="M19.237 11.822h0.209s0.005 0 0.005 0.005v0.173c0.010 0.005 0.010 0.010 0.010 0.010v0.193h0.052c0-0.173 0-0.298 0-0.376h0.225v1.025h-0.22v-0.005c0-0.293-0.005-0.45-0.005-0.476h-0.052v0.481h-0.078s-0.005 0-0.016-0.005h-0.026c-0.016 0-0.052 0-0.105 0 0-0.068 0-0.105 0-0.115v-0.126c0-0.031 0-0.068 0-0.115v-0.031c0-0.152 0-0.361 0-0.638z"></path>
<path fill="#111126" d="M20.654 11.822h0.173l0.105 0.518v-0.518h0.188v1.030h-0.204c-0.068-0.324-0.105-0.492-0.11-0.502v0.502h-0.188v-0.183c0.010 0 0.016 0 0.016-0.005v-0.026c0-0.052 0-0.126 0-0.214v-0.005s0 0 0-0.005h0.010c0-0.073 0-0.12 0-0.152 0.005-0.136 0.005-0.282 0.010-0.439z"></path>
<path fill="#111126" d="M21.197 11.822h0.387v0.173c0 0.005-0.021 0.094-0.068 0.256-0.073 0.272-0.115 0.418-0.115 0.424h0.183v0.157c0 0.005 0 0.005-0.005 0.005h-0.005c0 0.005 0 0.010-0.005 0.010-0.193 0-0.329 0-0.408 0v-0.178l0.183-0.675v-0.005c-0.010 0-0.031 0-0.063 0h-0.005v-0.010c-0.026 0-0.047 0-0.068 0h-0.010c0-0.063 0-0.12 0-0.157z"></path>
<path fill="#111126" d="M14.374 11.822h0.031c0.11 0 0.178 0.016 0.204 0.047 0.021 0.037 0.031 0.084 0.031 0.146v0.157h-0.214v-0.146c0-0.016-0.010-0.021-0.031-0.021s-0.031 0.010-0.031 0.037v0.382s0.005 0.005 0.010 0.010v0.225c0.005 0.010 0.010 0.016 0.016 0.016 0.021-0.005 0.031-0.010 0.031-0.016v-0.241h0.22v0.251h0.005v0.005c0 0.084-0.021 0.136-0.058 0.162-0.037 0.016-0.099 0.026-0.183 0.026h-0.026c-0.11 0-0.178-0.016-0.204-0.042-0.021-0.031-0.037-0.084-0.037-0.157v-0.633c0-0.099 0.016-0.157 0.052-0.173 0.042-0.026 0.099-0.037 0.183-0.037z"></path>
<path fill="#111126" d="M14.688 11.822h0.209s0.005 0 0.005 0.005v0.173c0.010 0.005 0.010 0.010 0.010 0.010v0.193h0.052c0-0.173 0-0.298 0-0.376h0.225v1.025h-0.22v-0.005c0-0.293-0.005-0.45-0.005-0.476h-0.052v0.481h-0.078s-0.005 0-0.016-0.005h-0.026c-0.016 0-0.052 0-0.105 0 0-0.068 0-0.105 0-0.115v-0.126c0-0.031 0-0.068 0-0.115v-0.031c0-0.152 0-0.361 0-0.638z"></path>
<path fill="#111126" d="M16.11 11.822h0.173l0.105 0.518v-0.518h0.188v1.030h-0.204c-0.068-0.324-0.105-0.492-0.11-0.502v0.502h-0.188v-0.183c0.010 0 0.016 0 0.016-0.005v-0.026c0-0.052 0-0.126 0-0.214v-0.005s0 0 0-0.005h0.010c0-0.073 0-0.12 0-0.152 0-0.136 0.005-0.282 0.010-0.439z"></path>
<path fill="#111126" d="M16.648 11.822h0.387v0.173c0 0.005-0.021 0.094-0.068 0.256-0.073 0.272-0.115 0.418-0.115 0.424h0.183v0.157c0 0.005 0 0.005-0.005 0.005h-0.005c0 0.005 0 0.010-0.005 0.010-0.193 0-0.329 0-0.408 0v-0.178l0.183-0.675v-0.005c-0.010 0-0.031 0-0.063 0h-0.005v-0.010c-0.026 0-0.047 0-0.068 0h-0.010c0-0.063 0-0.12 0-0.157z"></path>
<path fill="#111126" d="M23.472 11.822h0.031c0.11 0 0.178 0.016 0.204 0.047 0.021 0.037 0.031 0.084 0.031 0.146v0.157h-0.214v-0.146c0-0.016-0.010-0.021-0.031-0.021s-0.031 0.010-0.031 0.037v0.382s0.005 0.005 0.010 0.010v0.225c0.005 0.010 0.010 0.016 0.016 0.016 0.021-0.005 0.031-0.010 0.031-0.016v-0.241h0.22v0.251h0.005v0.005c0 0.084-0.021 0.136-0.058 0.162-0.037 0.016-0.099 0.026-0.183 0.026h-0.026c-0.11 0-0.178-0.016-0.204-0.042-0.021-0.031-0.037-0.084-0.037-0.157v-0.633c0-0.099 0.016-0.157 0.052-0.173 0.042-0.026 0.099-0.037 0.183-0.037z"></path>
<path fill="#111126" d="M23.791 11.822h0.209s0.005 0 0.005 0.005v0.173c0.010 0.005 0.010 0.010 0.010 0.010v0.193h0.052c0-0.173 0-0.298 0-0.376h0.225v1.025h-0.22v-0.005c0-0.293-0.005-0.45-0.005-0.476h-0.052v0.481h-0.078s-0.005 0-0.016-0.005h-0.026c-0.016 0-0.052 0-0.105 0 0-0.068 0-0.105 0-0.115v-0.126c0-0.031 0-0.068 0-0.115v-0.031c-0.005-0.152 0-0.361 0-0.638z"></path>
<path fill="#111126" d="M25.208 11.822h0.173l0.105 0.518v-0.518h0.188v1.030h-0.204c-0.068-0.324-0.105-0.492-0.11-0.502v0.502h-0.188v-0.183c0.010 0 0.016 0 0.016-0.005v-0.026c0-0.052 0-0.126 0-0.214v-0.005s0 0 0-0.005h0.010c0-0.073 0-0.12 0-0.152 0.005-0.136 0.005-0.282 0.010-0.439z"></path>
<path fill="#111126" d="M25.746 11.822h0.387v0.173c0 0.005-0.021 0.094-0.068 0.256-0.073 0.272-0.115 0.418-0.115 0.424h0.183v0.157c0 0.005 0 0.005-0.005 0.005h-0.005c0 0.005 0 0.010-0.005 0.010-0.193 0-0.329 0-0.408 0v-0.178l0.183-0.675v-0.005c-0.010 0-0.031 0-0.063 0h-0.005v-0.010c-0.026 0-0.047 0-0.068 0h-0.010c0-0.063 0-0.12 0-0.157z"></path>
<path fill="#111126" d="M19.509 12.946h0.031c0.11 0 0.178 0.016 0.204 0.047 0.021 0.037 0.031 0.084 0.031 0.146v0.157h-0.22v-0.146c0-0.016-0.010-0.021-0.031-0.021s-0.031 0.010-0.031 0.037v0.382s0.005 0.005 0.010 0.010v0.225c0.005 0.010 0.010 0.016 0.016 0.016 0.021-0.005 0.031-0.010 0.031-0.016v-0.241h0.22v0.251h0.005v0.005c0 0.084-0.021 0.136-0.058 0.162-0.037 0.016-0.099 0.026-0.183 0.026h-0.026c-0.11 0-0.178-0.016-0.204-0.042-0.021-0.031-0.037-0.084-0.037-0.157v-0.633c0-0.099 0.016-0.157 0.052-0.173 0.042-0.026 0.105-0.037 0.188-0.037z"></path>
<path fill="#111126" d="M19.822 12.946h0.209s0.005 0 0.005 0.005v0.173c0.010 0.005 0.010 0.010 0.010 0.010v0.193h0.052c0-0.173 0-0.298 0-0.376h0.225v1.025h-0.22v-0.005c0-0.293-0.005-0.45-0.005-0.476h-0.052v0.481h-0.078s-0.005 0-0.016-0.005h-0.031c-0.016 0-0.052 0-0.105 0 0-0.068 0-0.105 0-0.115v-0.126c0-0.031 0-0.068 0-0.115v-0.031c0.005-0.152 0.005-0.361 0.005-0.638z"></path>
<path fill="#111126" d="M21.239 12.946h0.173l0.105 0.518v-0.518h0.188v1.030h-0.204c-0.068-0.324-0.105-0.492-0.11-0.502v0.502h-0.188v-0.183c0.010 0 0.016 0 0.016-0.005v-0.026c0-0.052 0-0.126 0-0.214v-0.005s0 0 0-0.005h0.010c0-0.073 0-0.12 0-0.152 0.005-0.136 0.005-0.282 0.010-0.439z"></path>
<path fill="#111126" d="M21.778 12.946h0.387v0.173c0 0.005-0.021 0.094-0.068 0.256-0.073 0.272-0.115 0.418-0.115 0.424h0.183v0.157c0 0.005 0 0.005-0.005 0.005h-0.005c0 0.005 0 0.010-0.005 0.010-0.193 0-0.329 0-0.408 0v-0.178l0.183-0.675v-0.005c-0.010 0-0.031 0-0.063 0h-0.005v-0.010c-0.026 0-0.047 0-0.068 0h-0.010c0-0.068 0-0.12 0-0.157z"></path>
<path fill="#111126" d="M14.959 12.946h0.031c0.11 0 0.178 0.016 0.204 0.047 0.021 0.037 0.031 0.084 0.031 0.146v0.157h-0.214v-0.146c0-0.016-0.010-0.021-0.031-0.021s-0.031 0.010-0.031 0.037v0.382s0.005 0.005 0.010 0.010v0.225c0.005 0.010 0.010 0.016 0.016 0.016 0.021-0.005 0.031-0.010 0.031-0.016v-0.241h0.22v0.251h0.005v0.005c0 0.084-0.021 0.136-0.058 0.162-0.037 0.016-0.099 0.026-0.183 0.026h-0.026c-0.11 0-0.178-0.016-0.204-0.042-0.021-0.031-0.037-0.084-0.037-0.157v-0.633c0-0.099 0.016-0.157 0.052-0.173 0.042-0.026 0.099-0.037 0.183-0.037z"></path>
<path fill="#111126" d="M15.273 12.946h0.209s0.005 0 0.005 0.005v0.173c0.010 0.005 0.010 0.010 0.010 0.010v0.193h0.052c0-0.173 0-0.298 0-0.376h0.225v1.025h-0.22v-0.005c0-0.293-0.005-0.45-0.005-0.476h-0.052v0.481h-0.078s-0.005 0-0.016-0.005h-0.026c-0.016 0-0.052 0-0.105 0 0-0.068 0-0.105 0-0.115v-0.126c0-0.031 0-0.068 0-0.115v-0.031c0-0.152 0-0.361 0-0.638z"></path>
<path fill="#111126" d="M16.69 12.946h0.173l0.105 0.518v-0.518h0.188v1.030h-0.204c-0.068-0.324-0.105-0.492-0.11-0.502v0.502h-0.188v-0.183c0.010 0 0.016 0 0.016-0.005v-0.026c0-0.052 0-0.126 0-0.214v-0.005s0 0 0-0.005h0.010c0-0.073 0-0.12 0-0.152 0.005-0.136 0.010-0.282 0.010-0.439z"></path>
<path fill="#111126" d="M17.234 12.946h0.387v0.173c0 0.005-0.021 0.094-0.068 0.256-0.073 0.272-0.115 0.418-0.115 0.424h0.183v0.157c0 0.005 0 0.005-0.005 0.005h-0.005c0 0.005 0 0.010-0.005 0.010-0.193 0-0.329 0-0.408 0v-0.178l0.183-0.675v-0.005c-0.010 0-0.031 0-0.063 0h-0.005v-0.010c-0.026 0-0.047 0-0.068 0h-0.010c0-0.068 0-0.12 0-0.157z"></path>
<path fill="#111126" d="M24.058 12.946h0.031c0.11 0 0.178 0.016 0.204 0.047 0.021 0.037 0.031 0.084 0.031 0.146v0.157h-0.214v-0.146c0-0.016-0.010-0.021-0.031-0.021s-0.031 0.010-0.031 0.037v0.382s0.005 0.005 0.010 0.010v0.225c0.005 0.010 0.010 0.016 0.016 0.016 0.021-0.005 0.031-0.010 0.031-0.016v-0.241h0.22v0.251h0.005v0.005c0 0.084-0.021 0.136-0.058 0.162-0.037 0.016-0.099 0.026-0.183 0.026h-0.026c-0.11 0-0.178-0.016-0.204-0.042-0.021-0.031-0.037-0.084-0.037-0.157v-0.633c0-0.099 0.016-0.157 0.052-0.173 0.042-0.026 0.099-0.037 0.183-0.037z"></path>
<path fill="#111126" d="M24.371 12.946h0.209s0.005 0 0.005 0.005v0.173c0.010 0.005 0.010 0.010 0.010 0.010v0.193h0.052c0-0.173 0-0.298 0-0.376h0.225v1.025h-0.22v-0.005c0-0.293-0.005-0.45-0.005-0.476h-0.052v0.481h-0.078s-0.005 0-0.016-0.005h-0.026c-0.016 0-0.052 0-0.105 0 0-0.068 0-0.105 0-0.115v-0.126c0-0.031 0-0.068 0-0.115v-0.031c0-0.152 0-0.361 0-0.638z"></path>
<path fill="#111126" d="M25.793 12.946h0.173l0.105 0.518v-0.518h0.188v1.030h-0.204c-0.068-0.324-0.105-0.492-0.11-0.502v0.502h-0.188v-0.183c0.010 0 0.016 0 0.016-0.005v-0.026c0-0.052 0-0.126 0-0.214v-0.005s0 0 0-0.005h0.010c0-0.073 0-0.12 0-0.152 0-0.136 0.005-0.282 0.010-0.439z"></path>
<path fill="#111126" d="M26.332 12.946h0.387v0.173c0 0.005-0.021 0.094-0.068 0.256-0.073 0.272-0.115 0.418-0.115 0.424h0.183v0.157c0 0.005 0 0.005-0.005 0.005h-0.005c0 0.005 0 0.010-0.005 0.010-0.193 0-0.329 0-0.408 0v-0.178l0.183-0.675v-0.005c-0.010 0-0.031 0-0.063 0h-0.005v-0.010c-0.026 0-0.047 0-0.068 0h-0.010c0-0.068 0-0.12 0-0.157z"></path>
</svg>
