<!-- Generated by IcoMoon.io -->
<svg version="1.1" xmlns="http://www.w3.org/2000/svg" width="32" height="32" viewBox="0 0 32 32">
<title>bcio</title>
<path fill="#fff" d="M16 32c-8.837 0-16-7.163-16-16s7.163-16 16-16 16 7.163 16 16-7.163 16-16 16zM11.94 7.436c-0.462 0.028-0.826 0.409-0.826 0.876s0.364 0.848 0.823 0.875l0.002 0c0.462-0.028 0.826-0.409 0.826-0.876s-0.364-0.848-0.823-0.875l-0.002-0zM15.99 5.006c-0.466 0.023-0.835 0.406-0.835 0.876s0.369 0.853 0.833 0.876l0.002 0c0.466-0.023 0.835-0.406 0.835-0.876s-0.369-0.853-0.833-0.876l-0.002-0zM15.99 14.725c-0.462 0.028-0.826 0.409-0.826 0.876s0.364 0.848 0.823 0.875l0.002 0c0.462-0.028 0.826-0.409 0.826-0.876s-0.364-0.848-0.823-0.875l-0.002-0zM20.039 12.295c-0.484 0.001-0.875 0.393-0.875 0.877s0.392 0.877 0.877 0.877c0 0 0.001 0 0.001 0h-0c0.484-0.001 0.875-0.393 0.875-0.877s-0.392-0.877-0.877-0.877c-0 0-0.001 0-0.001 0h0zM24.089 9.865c-0.484 0-0.877 0.393-0.877 0.877s0.393 0.877 0.877 0.877c0 0 0 0 0.001 0h-0c0.471-0.017 0.846-0.403 0.846-0.876s-0.377-0.861-0.847-0.877l-0.001-0zM11.939 17.155c-0.462 0.028-0.826 0.409-0.826 0.875s0.364 0.848 0.823 0.875l0.002 0c0.462-0.028 0.826-0.409 0.826-0.875s-0.364-0.848-0.823-0.875l-0.002-0zM7.89 9.865c-0.484 0.001-0.875 0.393-0.875 0.877s0.392 0.877 0.877 0.877c0 0 0.001 0 0.001 0h-0c0.483-0.001 0.875-0.393 0.875-0.876s-0.392-0.876-0.876-0.876c-0 0-0.001 0-0.001 0h0zM7.89 19.585c-0.483 0.001-0.875 0.393-0.875 0.876s0.392 0.876 0.876 0.876c0 0 0.001 0 0.001 0h-0c0.484-0.001 0.876-0.393 0.876-0.877s-0.392-0.877-0.877-0.877c-0 0-0.001 0-0.001 0h0zM7.89 14.725c-0.462 0.028-0.826 0.409-0.826 0.876s0.364 0.848 0.823 0.875l0.002 0c0.462-0.028 0.826-0.409 0.826-0.876s-0.364-0.848-0.823-0.875l-0.002-0zM15.99 9.865c-0.484 0-0.877 0.393-0.877 0.877s0.393 0.877 0.877 0.877v0c0.471-0.016 0.847-0.403 0.847-0.877s-0.376-0.86-0.846-0.876l-0.002-0zM20.039 7.435c-0.484 0.001-0.876 0.393-0.876 0.877s0.393 0.877 0.877 0.877c0 0 0.001 0 0.001 0h-0c0.471-0.017 0.846-0.403 0.846-0.876s-0.377-0.861-0.847-0.877l-0.001-0zM20.039 17.155c-0.484 0-0.875 0.392-0.875 0.876s0.392 0.876 0.876 0.876c0 0 0 0 0.001 0h-0c0.484-0 0.875-0.392 0.875-0.876s-0.392-0.876-0.876-0.876c-0 0-0 0-0.001 0h0zM24.089 14.725c-0.462 0.028-0.826 0.409-0.826 0.876s0.364 0.848 0.823 0.875l0.002 0c0.462-0.028 0.826-0.409 0.826-0.876s-0.364-0.848-0.823-0.875l-0.002-0zM20.039 22.014c-0.484 0-0.876 0.393-0.876 0.877s0.392 0.877 0.877 0.877c0 0 0 0 0.001 0h-0c0.484-0 0.876-0.393 0.876-0.877s-0.392-0.877-0.877-0.877c-0 0-0 0-0.001 0h0zM24.089 19.584c-0.466 0.023-0.835 0.406-0.835 0.876s0.369 0.853 0.833 0.876l0.002 0c0.466-0.023 0.835-0.406 0.835-0.876s-0.369-0.853-0.833-0.876l-0.002-0zM15.989 24.444c-0.462 0.028-0.826 0.409-0.826 0.875s0.364 0.848 0.823 0.875l0.002 0c0 0 0 0 0 0 0.484 0 0.876-0.392 0.877-0.875v-0c-0.001-0.484-0.392-0.875-0.876-0.876h-0zM15.989 19.584c-0.484 0.001-0.876 0.393-0.876 0.877s0.393 0.877 0.877 0.877c0 0 0.001 0 0.001 0h-0c0.484-0 0.876-0.393 0.876-0.877s-0.393-0.877-0.877-0.877c-0 0-0 0-0.001 0h0zM11.939 12.295c-0.462 0.028-0.826 0.409-0.826 0.876s0.364 0.848 0.823 0.875l0.002 0c0.458-0.032 0.818-0.411 0.818-0.875s-0.36-0.843-0.815-0.875l-0.003-0zM11.939 22.014c-0.462 0.028-0.826 0.409-0.826 0.875s0.364 0.848 0.823 0.875l0.002 0c0.462-0.028 0.826-0.409 0.826-0.875s-0.364-0.848-0.823-0.875l-0.002-0z"></path>
</svg>
