<!-- Generated by IcoMoon.io -->
<svg version="1.1" xmlns="http://www.w3.org/2000/svg" width="32" height="32" viewBox="0 0 32 32">
<title>bcpt</title>
<path fill="#fff" d="M16 32c-8.837 0-16-7.163-16-16s7.163-16 16-16 16 7.163 16 16-7.163 16-16 16zM16 27c6.075 0 11-4.925 11-11s-4.925-11-11-11-11 4.925-11 11 4.925 11 11 11zM16 25.898c-5.466 0-9.898-4.432-9.898-9.898s4.432-9.898 9.898-9.898 9.898 4.432 9.898 9.898-4.432 9.898-9.898 9.898zM22.043 12.12s0-3.326-5.1-3.548h-6.098v14.858h6.763s4.822-0.169 4.822-4.491c0 0 0.166-2.66-2.938-3.104 0 0 2.716-0.776 2.55-3.714zM14.337 11.233h2.605c1.663 0.11 1.663 1.274 1.663 1.274v0.887c-0.11 1.386-1.829 1.441-1.829 1.441h-2.439zM18.937 19.383c-0.11 1.386-1.828 1.44-1.828 1.44h-2.773v-3.603h2.939c1.663 0.111 1.663 1.276 1.663 1.276z"></path>
</svg>
