<!-- Generated by IcoMoon.io -->
<svg version="1.1" xmlns="http://www.w3.org/2000/svg" width="32" height="32" viewBox="0 0 32 32">
<title>bela</title>
<path fill="#fff" d="M8.297 11.568c-0.748 1.278-1.189 2.814-1.189 4.454 0 0.005 0 0.010 0 0.015v-0.001c0 4.95 4.005 8.964 8.946 8.964s8.946-4.013 8.946-8.964c0-4.95-4.005-8.964-8.946-8.964-0.004 0-0.008 0-0.013 0-1.654 0-3.203 0.452-4.529 1.239l0.041-0.023c-0.414-0.772-1.215-1.289-2.137-1.289-1.334 0-2.416 1.082-2.416 2.416 0 0.002 0 0.005 0 0.007v-0c0 0.001 0 0.002 0 0.002 0 0.926 0.52 1.73 1.284 2.137l0.013 0.006zM16 32c-8.837 0-16-7.163-16-16s7.163-16 16-16 16 7.163 16 16-7.163 16-16 16zM16.054 20.446c-2.43 0-4.4-1.974-4.4-4.41s1.97-4.41 4.4-4.41 4.4 1.975 4.4 4.41-1.97 4.41-4.4 4.41z"></path>
</svg>
