<!-- Generated by IcoMoon.io -->
<svg version="1.1" xmlns="http://www.w3.org/2000/svg" width="32" height="32" viewBox="0 0 32 32">
<title>bq</title>
<path fill="#fff" d="M16 32c-8.837 0-16-7.163-16-16s7.163-16 16-16 16 7.163 16 16-7.163 16-16 16zM9.966 21.094c2.387 2.103 5.662 1.828 7.633 0.048 2.021-1.825 2.473-4.756 1.078-7.051-0.923-1.519-2.28-2.408-4.044-2.677-1.781-0.272-3.31 0.293-4.683 1.44 0-0.992-0.003-1.94 0.002-2.886 0-0.011 0-0.024 0-0.037 0-0.516-0.207-0.985-0.543-1.326l0 0c-0.352-0.373-0.849-0.605-1.401-0.605-0.003 0-0.006 0-0.009 0h0v14.367h1.966v-1.273zM9.962 16.954c0-2.11 1.726-3.818 3.858-3.82 0.007-0 0.016-0 0.024-0 2.117 0 3.834 1.717 3.834 3.834 0 0.012-0 0.024-0 0.036v-0.002c-0.001 2.084-1.725 3.787-3.847 3.8-0.006 0-0.014 0-0.021 0-2.125 0-3.848-1.723-3.849-3.848v-0zM16.325 22.341c2.146 0.66 4.024 0.234 5.722-1.189v2.87c0 0.531 0.18 0.995 0.552 1.376 0.379 0.388 0.845 0.587 1.401 0.602v-14.369h-1.97v1.276c-0.78-0.648-1.614-1.122-2.58-1.341-0.973-0.22-1.932-0.157-2.916 0.113l0.158 0.096c0.517 0.297 1.002 0.642 1.402 1.084 0.216 0.238 0.447 0.359 0.77 0.42 2.17 0.414 3.483 2.32 3.111 4.48-0.283 1.643-1.787 2.988-3.457 3.084-0.152 0.005-0.286 0.073-0.38 0.179l-0 0.001c-0.463 0.493-1.010 0.902-1.618 1.206l-0.033 0.015c-0.043 0.022-0.084 0.050-0.162 0.097z"></path>
</svg>
