<!-- Generated by IcoMoon.io -->
<svg version="1.1" xmlns="http://www.w3.org/2000/svg" width="32" height="32" viewBox="0 0 32 32">
<title>btdx</title>
<path fill="#fff" d="M16 32c-8.837 0-16-7.163-16-16s7.163-16 16-16 16 7.163 16 16-7.163 16-16 16zM16 3c-7.179 0-13 5.821-13 13s5.821 13 13 13 13-5.821 13-13-5.821-13-13-13zM15.962 28.022c-6.66 0-12.058-5.398-12.058-12.058s5.398-12.057 12.058-12.057c6.659 0 12.057 5.398 12.057 12.057 0 6.66-5.398 12.058-12.057 12.058zM15.962 4.94c-6.088 0-11.022 4.934-11.022 11.022s4.934 11.023 11.022 11.023c6.087 0 11.023-4.936 11.023-11.023 0-6.088-4.936-11.022-11.023-11.022zM15.997 6.686c0.001 0 0.001 0 0.002 0 3.025 0 5.477 2.452 5.477 5.477 0 0.678-0.123 1.327-0.348 1.926l0.012-0.038c-0.186-0.034-0.4-0.054-0.619-0.054-0.792 0-1.524 0.257-2.117 0.693l0.010-0.007c0.662-0.634 1.074-1.526 1.074-2.513 0-0.001 0-0.003 0-0.004v0c-0.001-1.93-1.564-3.494-3.493-3.496h-0c-1.804 0.002-3.287 1.369-3.473 3.124l-0.001 0.015c-0.317-0.059-0.681-0.093-1.053-0.093-0.33 0-0.654 0.027-0.969 0.078l0.034-0.005c0.202-2.859 2.571-5.102 5.464-5.103h0zM18.012 16.978l-1.938-1.16c-0.059-0.036-0.13-0.057-0.207-0.057-0.078 0-0.151 0.023-0.213 0.061l0.002-0.001-1.7 1.050c-0.116 0.071-0.192 0.198-0.192 0.341 0 0.019 0.001 0.038 0.004 0.057l-0-0.002c0.014 0.096 0.022 0.207 0.022 0.319 0 1.259-0.998 2.286-2.247 2.33l-0.004 0c-0.022 0.001-0.047 0.001-0.073 0.001-1.283 0-2.323-1.040-2.323-2.323 0-0.001 0-0.003 0-0.004v0c0.008-1.267 1.022-2.294 2.283-2.322l0.003-0c0.012-0 0.025-0 0.039-0 0.688 0 1.307 0.3 1.732 0.776l0.002 0.002c0.124 0.14 0.33 0.17 0.492 0.080l1.638-0.919c0.123-0.071 0.205-0.201 0.206-0.351v-0.1c-0.001-0.177-0.116-0.326-0.274-0.38l-0.003-0.001c-0.932-0.318-1.59-1.185-1.59-2.207 0-1.285 1.041-2.326 2.326-2.326 0.038 0 0.076 0.001 0.113 0.003l-0.005-0c1.174 0.062 2.114 0.984 2.206 2.144l0 0.008c0.004 0.051 0.006 0.111 0.006 0.172 0 1.075-0.73 1.979-1.721 2.244l-0.016 0.004c-0.177 0.045-0.306 0.202-0.308 0.39v0.017c0 0.14 0.074 0.269 0.192 0.343l1.721 1.058c0.060 0.038 0.133 0.060 0.211 0.060 0.125 0 0.237-0.058 0.31-0.148l0.001-0.001c0.429-0.533 1.082-0.871 1.814-0.871 0.020 0 0.040 0 0.059 0.001l-0.003-0c1.246 0.049 2.237 1.071 2.237 2.325 0 1.285-1.042 2.327-2.327 2.327-0.031 0-0.063-0.001-0.094-0.002l0.004 0c-1.232-0.069-2.205-1.085-2.205-2.329 0-0.079 0.004-0.158 0.012-0.235l-0.001 0.010c0.001-0.013 0.002-0.027 0.002-0.042 0-0.145-0.077-0.272-0.192-0.342l-0.002-0.001zM11.465 23.011c-0.001 0-0.001 0-0.002 0-2.994 0-5.421-2.427-5.421-5.421 0-0 0-0.001 0-0.001v0c0-0.001 0-0.002 0-0.003 0-2.994 2.427-5.421 5.421-5.421 0.368 0 0.727 0.037 1.074 0.106l-0.035-0.006c0.028 0.954 0.434 1.807 1.073 2.42l0.001 0.001c-0.581-0.429-1.311-0.686-2.102-0.686-0.002 0-0.005 0-0.007 0h0c-1.957 0.034-3.53 1.628-3.53 3.59s1.573 3.556 3.527 3.589l0.003 0c1.502-0 2.789-0.925 3.321-2.236l0.009-0.024c0.171 0.746 0.487 1.435 0.913 2.043-1 1.254-2.527 2.050-4.24 2.050-0.002 0-0.004 0-0.006 0h0zM20.521 23.011c-2.865-0-5.212-2.222-5.41-5.037l-0.001-0.017c0.266 0.043 0.573 0.067 0.886 0.067 0.337 0 0.668-0.028 0.99-0.083l-0.035 0.005c0.187 1.823 1.715 3.234 3.572 3.234 1.983 0 3.59-1.607 3.59-3.59 0-1.63-1.087-3.007-2.575-3.444l-0.025-0.006c0.198-0.536 0.321-1.155 0.338-1.8l0-0.008c2.366 0.618 4.085 2.736 4.085 5.256 0 2.992-2.423 5.419-5.414 5.424h-0.001z"></path>
</svg>
