<!-- Generated by IcoMoon.io -->
<svg version="1.1" xmlns="http://www.w3.org/2000/svg" width="32" height="32" viewBox="0 0 32 32">
<title>btx</title>
<path fill="#fff" d="M16 32c-8.837 0-16-7.163-16-16s7.163-16 16-16 16 7.163 16 16-7.163 16-16 16zM22.632 14.020c0.314-2.096-1.282-3.223-3.465-3.975l0.708-2.84-1.728-0.43-0.69 2.765c-0.454-0.114-0.92-0.22-1.384-0.326l0.694-2.783-1.728-0.431-0.708 2.839c-0.376-0.086-0.746-0.17-1.104-0.26l0.002-0.009-2.384-0.595-0.46 1.846s1.283 0.294 1.256 0.312c0.7 0.175 0.826 0.638 0.805 1.006l-0.806 3.235c0.048 0.012 0.11 0.030 0.18 0.057l-0.183-0.045-1.13 4.532c-0.086 0.212-0.303 0.531-0.793 0.41 0.018 0.025-1.256-0.313-1.256-0.313l-0.858 1.978 2.25 0.561c0.418 0.105 0.828 0.215 1.232 0.318l-0.716 2.872 1.727 0.43 0.708-2.84c0.472 0.127 0.93 0.245 1.378 0.357l-0.706 2.828 1.728 0.43 0.716-2.866c2.947 0.558 5.163 0.333 6.096-2.333 0.752-2.146-0.037-3.385-1.588-4.192 1.13-0.26 1.98-1.003 2.207-2.538zM18.682 19.558c-0.533 2.147-4.147 0.986-5.319 0.695l0.95-3.805c1.17 0.293 4.928 0.872 4.37 3.11zM19.217 13.989c-0.487 1.953-3.495 0.96-4.47 0.717l0.86-3.45c0.976 0.243 4.118 0.696 3.61 2.733zM24.247 21.618l0.154-0.667c-0.058-0.010-0.125-0.016-0.194-0.016-0.115 0-0.227 0.016-0.332 0.047l0.008-0.002c-0.154 0.046-0.29 0.12-0.408 0.222-0.12 0.105-0.22 0.229-0.296 0.368l-0.004 0.007c-0.078 0.139-0.14 0.301-0.18 0.471l-0.002 0.013c-0.032 0.119-0.050 0.256-0.050 0.398 0 0.1 0.009 0.197 0.026 0.292l-0.002-0.010c0.041 0.205 0.12 0.387 0.238 0.545s0.268 0.292 0.453 0.4c0.184 0.109 0.39 0.189 0.615 0.241 0.222 0.051 0.436 0.067 0.642 0.047 0.409-0.033 0.762-0.242 0.99-0.549l0.003-0.004c0.122-0.163 0.21-0.363 0.265-0.601 0.090-0.39 0.058-0.727-0.096-1.010s-0.42-0.503-0.8-0.656l-0.154 0.666c0.211 0.082 0.362 0.2 0.454 0.354 0.092 0.155 0.115 0.33 0.070 0.525-0.053 0.253-0.231 0.454-0.465 0.538l-0.005 0.002c-0.107 0.041-0.231 0.064-0.361 0.064-0.002 0-0.003 0-0.005 0h0c-0.131 0-0.26-0.014-0.384-0.042-0.204-0.041-0.385-0.114-0.547-0.215l0.007 0.004c-0.115-0.074-0.21-0.168-0.283-0.278l-0.002-0.004c-0.056-0.087-0.093-0.191-0.102-0.304l-0-0.002c-0.007-0.105 0-0.2 0.020-0.285 0.034-0.174 0.123-0.323 0.249-0.431l0.001-0.001c0.107-0.083 0.243-0.133 0.391-0.133 0.030 0 0.060 0.002 0.089 0.006l-0.003-0zM26.939 19.505c0.032-0.123 0.051-0.265 0.051-0.411 0-0.093-0.008-0.184-0.022-0.273l0.001 0.010c-0.036-0.21-0.113-0.397-0.223-0.56l0.003 0.005c-0.116-0.167-0.26-0.305-0.428-0.41l-0.006-0.004c-0.178-0.112-0.385-0.199-0.607-0.248l-0.013-0.003c-0.139-0.035-0.298-0.055-0.462-0.055-0.070 0-0.139 0.004-0.207 0.011l0.008-0.001c-0.213 0.022-0.407 0.087-0.579 0.186l0.007-0.004c-0.17 0.098-0.317 0.233-0.441 0.403-0.125 0.176-0.218 0.384-0.267 0.608l-0.002 0.011c-0.032 0.123-0.051 0.265-0.051 0.41 0 0.093 0.007 0.184 0.022 0.272l-0.001-0.010c0.037 0.208 0.11 0.393 0.22 0.556s0.255 0.3 0.434 0.414c0.18 0.113 0.384 0.196 0.614 0.25 0.234 0.054 0.456 0.069 0.667 0.046 0.213-0.022 0.406-0.087 0.578-0.186l-0.007 0.004c0.176-0.104 0.323-0.239 0.438-0.399l0.003-0.004c0.125-0.176 0.219-0.384 0.268-0.608l0.002-0.011zM24.315 16.707l3.023 0.698 0.154-0.666-1.438-0.332c-0.162-0.035-0.306-0.093-0.437-0.171l0.007 0.004c-0.112-0.066-0.206-0.15-0.282-0.248l-0.002-0.002c-0.097-0.125-0.155-0.284-0.155-0.457 0-0.065 0.008-0.128 0.024-0.189l-0.001 0.005c0.010-0.048 0.025-0.095 0.042-0.142l0.053-0.139-0.643-0.148-0.033 0.088c-0.010 0.028-0.025 0.081-0.043 0.16-0.013 0.054-0.020 0.117-0.020 0.181 0 0.046 0.004 0.091 0.011 0.134l-0.001-0.005c0.037 0.215 0.129 0.404 0.261 0.557l-0.001-0.001c0.059 0.069 0.129 0.126 0.209 0.167l0.004 0.002-0.003 0.012-0.584-0.135-0.145 0.625zM26.595 14.517l0.512-2.22c-0.183-0.070-0.394-0.11-0.615-0.11-0.019 0-0.037 0-0.056 0.001l0.003-0c-0.228 0.006-0.443 0.058-0.637 0.146l0.010-0.004c-0.192 0.087-0.36 0.213-0.503 0.38-0.142 0.167-0.246 0.371-0.295 0.596l-0.002 0.009c-0.027 0.103-0.042 0.221-0.042 0.343 0 0.104 0.011 0.206 0.032 0.304l-0.002-0.009c0.044 0.199 0.125 0.379 0.241 0.539 0.117 0.16 0.264 0.297 0.442 0.41 0.309 0.19 0.683 0.302 1.084 0.302 0.060 0 0.119-0.002 0.177-0.007l-0.008 0.001c0.415-0.028 0.775-0.241 1.001-0.556l0.003-0.004c0.12-0.165 0.207-0.366 0.262-0.604 0.037-0.164 0.051-0.326 0.041-0.486-0.010-0.165-0.048-0.319-0.108-0.461l0.003 0.009c-0.129-0.297-0.357-0.531-0.642-0.664l-0.008-0.003-0.145 0.63c0.139 0.083 0.248 0.204 0.313 0.349l0.002 0.005c0.030 0.082 0.048 0.177 0.048 0.277 0 0.080-0.011 0.156-0.032 0.229l0.001-0.006c-0.027 0.132-0.082 0.248-0.157 0.347l0.002-0.002c-0.068 0.086-0.153 0.155-0.25 0.204l-0.004 0.002c-0.094 0.046-0.203 0.076-0.319 0.083l-0.002 0c-0.024 0.002-0.053 0.003-0.081 0.003-0.095 0-0.188-0.011-0.277-0.032l0.008 0.002zM26.413 19.384c-0.056 0.266-0.241 0.479-0.485 0.574l-0.005 0.002c-0.112 0.045-0.241 0.073-0.377 0.076l-0.001 0c-0.014 0-0.030 0.001-0.046 0.001-0.267 0-0.518-0.067-0.738-0.184l0.008 0.004c-0.119-0.061-0.22-0.14-0.305-0.233l-0.001-0.001c-0.13-0.14-0.21-0.328-0.21-0.535 0-0.070 0.009-0.138 0.026-0.203l-0.001 0.005c0.055-0.266 0.239-0.48 0.483-0.575l0.005-0.002c0.115-0.047 0.241-0.073 0.377-0.076 0.013-0 0.028-0.001 0.043-0.001 0.268 0 0.52 0.066 0.741 0.184l-0.009-0.004c0.119 0.062 0.22 0.14 0.305 0.233l0.001 0.001c0.132 0.14 0.213 0.329 0.213 0.537 0 0.070-0.009 0.137-0.026 0.201l0.001-0.005zM26.515 12.861l-0.36 1.556c-0.215-0.058-0.394-0.187-0.514-0.36l-0.002-0.003c-0.054-0.081-0.094-0.177-0.112-0.28l-0.001-0.005c-0.007-0.041-0.011-0.087-0.011-0.135 0-0.184 0.061-0.354 0.163-0.491l-0.002 0.002c0.125-0.157 0.308-0.263 0.516-0.287l0.004-0c0.105-0.014 0.212-0.013 0.319 0.003z"></path>
</svg>
