<!-- Generated by IcoMoon.io -->
<svg version="1.1" xmlns="http://www.w3.org/2000/svg" width="32" height="32" viewBox="0 0 32 32">
<title>cmt</title>
<path fill="#fff" d="M16 32c-8.837 0-16-7.163-16-16s7.163-16 16-16 16 7.163 16 16-7.163 16-16 16zM16.276 26c0.017 0 0.038 0 0.058 0 1.399 0 2.732-0.283 3.945-0.795l-0.067 0.025c1.694-0.69 3.111-1.743 4.219-3.186 1.043-1.329 1.755-2.964 1.985-4.75l0.005-0.049c0.244-1.918-0.089-3.736-0.907-5.472-0.594-1.26-1.448-2.338-2.504-3.26-1.427-1.244-3.090-2.012-4.957-2.35-0.544-0.104-1.17-0.163-1.81-0.163-0.829 0-1.634 0.1-2.405 0.287l0.069-0.014c-1.58 0.367-2.962 1.053-4.136 1.99l0.021-0.016c-0.254 0.202-0.28 0.36-0.092 0.626 0.124 0.176 0.268 0.34 0.412 0.502 0.305 0.342 0.441 0.348 0.8 0.068 0.686-0.543 1.483-0.987 2.345-1.292l0.058-0.018c1.645-0.566 3.319-0.667 5.023-0.255 1.909 0.46 3.489 1.435 4.705 2.944 1.736 2.154 2.226 4.607 1.567 7.255-0.525 2.11-1.78 3.76-3.618 4.947-1.533 0.989-3.23 1.43-5.075 1.366-1.819-0.050-3.486-0.66-4.847-1.663l0.024 0.017c-0.609-0.438-0.606-0.441-1.12 0.116l-0.037 0.039c-0.42 0.452-0.405 0.659 0.088 1.020 1.854 1.363 3.93 2.075 6.249 2.080zM15.64 19.617c-0.098-0.006-0.12-0.013-0.133-0.007-0.040 0.020-0.079 0.044-0.118 0.066-0.47 0.263-0.964 0.359-1.498 0.218-0.201-0.053-0.255-0.134-0.136-0.32 0.437-0.686 0.59-1.447 0.552-2.242-0.047-0.992-0.36-1.88-1.133-2.568-0.751-0.686-1.755-1.106-2.857-1.106-0.009 0-0.018 0-0.027 0h0.001c-0.463-0.003-0.927 0.028-1.391 0.045-0.195 0.007-0.268-0.070-0.211-0.262 0.075-0.259 0.145-0.52 0.211-0.78 0.040-0.156 0.127-0.216 0.292-0.217 0.737-0.004 1.474-0.014 2.211-0.031 0.71-0.017 1.362-0.217 1.932-0.647 0.482-0.363 0.742-0.83 0.704-1.436-0.004-0.074-0.036-0.172-0.090-0.207-0.035-0.024-0.146 0.028-0.2 0.073-0.454 0.374-0.97 0.632-1.556 0.662-0.789 0.040-1.582 0.031-2.372 0.012-0.527-0.012-1.051-0.091-1.578-0.12-0.358-0.020-0.603 0.139-0.697 0.446-0.43 1.4-0.852 2.801-1.269 4.205-0.058 0.194-0.21 0.413 0.017 0.597 0.219 0.176 0.423 0.012 0.61-0.074 1.268-0.585 2.557-0.63 3.875-0.18 1.502 0.512 1.899 1.897 1.284 3.153-0.136 0.278-0.217 0.284-0.489 0.122-0.474-0.283-0.938-0.589-1.434-0.83-1.086-0.526-2.221-0.74-3.414-0.39-0.646 0.19-1.273 0.768-1.223 1.615 0.029 0.486 0.27 0.832 0.612 1.125 0.454 0.39 0.987 0.619 1.582 0.745 1.808 0.384 3.524 0.238 5.118-0.762 0.108-0.060 0.237-0.096 0.375-0.096 0.002 0 0.005 0 0.007 0h-0c0.345-0.008 0.691 0.022 1.036 0.010 0.498-0.015 0.91-0.228 1.25-0.583 0.055-0.058 0.090-0.134 0.157-0.236zM11.072 19.843c-0.235 0.1-0.464 0.225-0.708 0.297-0.952 0.282-1.9 0.272-2.834-0.088-0.101-0.036-0.188-0.082-0.267-0.139l0.003 0.002c-0.246-0.188-0.457-0.403-0.37-0.748 0.080-0.313 0.352-0.382 0.624-0.445 0.604-0.141 1.181 0.004 1.736 0.207 0.544 0.198 1.067 0.458 1.597 0.693 0.072 0.032 0.136 0.083 0.203 0.124l0.016 0.097z"></path>
</svg>
