<!-- Generated by IcoMoon.io -->
<svg version="1.1" xmlns="http://www.w3.org/2000/svg" width="32" height="32" viewBox="0 0 32 32">
<title>cob</title>
<path fill="#fff" d="M16 32c-8.837 0-16-7.163-16-16s7.163-16 16-16 16 7.163 16 16-7.163 16-16 16zM16 25h4.536l-2.272-3.957h-4.528l-2.272 3.957h4.536zM13.737 10.956h4.527l2.272-3.956h-9.072l2.272 3.957zM23.736 20.495l2.264-3.957h-4.536l-2.264 3.957 2.263 3.958 2.273-3.957zM8.264 11.496l-2.264 3.957h4.536l2.264-3.957-2.264-3.957-2.272 3.957zM12.799 20.496h0.001l-2.264-3.958h-4.536l2.264 3.957 2.272 3.958 2.264-3.957zM23.736 11.496l-2.273-3.957-2.264 3.957 2.264 3.957h4.537l-2.264-3.957z"></path>
</svg>
