<!-- Generated by IcoMoon.io -->
<svg version="1.1" xmlns="http://www.w3.org/2000/svg" width="32" height="32" viewBox="0 0 32 32">
<title>cvc</title>
<path fill="#fff" d="M16 32c-8.837 0-16-7.163-16-16s7.163-16 16-16 16 7.163 16 16-7.163 16-16 16zM17.161 16.779c0.792-0.386 1.328-1.183 1.33-2.107v-0c0-1.294-1.062-2.343-2.37-2.343-1.31 0-2.373 1.049-2.373 2.343 0.002 0.924 0.54 1.721 1.318 2.1l0.014 0.006v2.894h2.081v-2.893zM16.121 23.5c-4.186 0-7.59-3.364-7.59-7.5s3.404-7.5 7.59-7.5c3.415 0 6.31 2.24 7.26 5.312h2.616c-1.010-4.47-5.048-7.812-9.877-7.812-5.589 0-10.12 4.477-10.12 10s4.531 10 10.12 10c4.829 0 8.867-3.342 9.877-7.812h-2.617c-0.95 3.072-3.845 5.312-7.26 5.312z"></path>
</svg>
