<!-- Generated by IcoMoon.io -->
<svg version="1.1" xmlns="http://www.w3.org/2000/svg" width="32" height="32" viewBox="0 0 32 32">
<title>deez</title>
<path fill="#fff" d="M16 32c-8.837 0-16-7.163-16-16s7.163-16 16-16 16 7.163 16 16-7.163 16-16 16zM13.707 19.86c-0 0.062-0 0.136-0 0.21 0 0.604 0.010 1.205 0.030 1.804l-0.002-0.087 5.583-3.29c2.81-1.656 4.9-2.893 5.49-3.248 8.482 4.765 4.336 2.189 0.184-0.377l-12.891-7.416-0.761-0.456-1.109 0.75c-0.456 0.31-0.837 0.57-1.033 0.706 0.127 0.082 0.335 0.21 0.602 0.37 0.108 0.064 10.78 6.548 10.809 6.673 0.030 0.103 0.030 0.103-1.693 1.157-4.54 2.68-6.239 3.74-7.933 4.807l2.725-1.602zM11.339 13.564v6.212c0.002 3.111 0.007 5.497 0.011 6.196 1.587-0.9 12.974-7.417 13.389-7.663l0.070-0.040 0.191-2.684-0.58 0.342c-10.83 6.389-10.842 6.393-10.87 6.402l-0.061 0.022-0.054-0.037c-0.080-0.057-0.080-0.057-0.146-5.634l-0.022-1.93-1.030-0.638c-0.092-0.067-0.385-0.248-0.681-0.426l-0.217-0.122zM9 24.8l1.037 0.641c0.386 0.24 0.715 0.443 0.908 0.56 0.002-0.74 0.005-3.278 0.007-6.332l0.005-6.768 0.651 0.379c0.25 0.146 1.488 0.902 2.76 1.688 1.266 0.783 2.536 1.558 2.831 1.732l0.472 0.275 2.364-1.446-0.715-0.43c-0.488-0.292-2.782-1.69-5.114-3.118 1.745 0.946 0.181-0.020-1.387-0.98l-3.406-1.94-0.388-0.228-0.025 15.967z"></path>
</svg>
