<!-- Generated by IcoMoon.io -->
<svg version="1.1" xmlns="http://www.w3.org/2000/svg" width="32" height="32" viewBox="0 0 32 32">
<title>drgn</title>
<path fill="#fff" d="M9.403 9.957l-0.003 10.823h2.818l-0.072-7.327 10.508 13.343-0.018-1.573-0.029-14.179h-2.774l0.072 7.386-10.501-13.344v3.948l-0.004 0.92 0.003 0.003zM16 32c-8.837 0-16-7.163-16-16s7.163-16 16-16 16 7.163 16 16-7.163 16-16 16z"></path>
<path fill="#fff" opacity="0.398" d="M9.403 9.957l11.024 14.010-8.281-10.514 0.072 7.327h-2.818l0.003-10.823zM9.403 9.034l0.001-3.947 0.173 0.219-0.161-0.204-0.013 3.932zM19.905 18.43l-0.072-7.386h2.774l0.030 14.18-0.038-3.37-2.694-3.424z"></path>
</svg>
