<!-- Generated by IcoMoon.io -->
<svg version="1.1" xmlns="http://www.w3.org/2000/svg" width="32" height="32" viewBox="0 0 32 32">
<title>eos</title>
<path fill="#fff" d="M16 32c-8.837 0-16-7.163-16-16s7.163-16 16-16 16 7.163 16 16-7.163 16-16 16zM10.572 11.547l-2.47 11.284c-0.007 0.024-0.011 0.053-0.011 0.082 0 0.12 0.066 0.225 0.164 0.281l0.002 0.001 7.573 4.745c0.056 0.035 0.116 0.050 0.173 0.050 0.001 0 0.002 0 0.003 0 0.063 0 0.123-0.019 0.172-0.051l-0.001 0.001 7.573-4.745c0.099-0.056 0.165-0.161 0.165-0.281 0-0.029-0.004-0.057-0.011-0.084l0.001 0.002-2.47-11.284c-0.010-0.050-0.030-0.093-0.059-0.131l0.001 0.001-5.11-6.982c-0.057-0.080-0.15-0.132-0.254-0.132-0.003 0-0.006 0-0.009 0h0c-0.002-0-0.005-0-0.008-0-0.105 0-0.197 0.052-0.254 0.131l-0.001 0.001-5.11 6.983c-0.028 0.037-0.049 0.080-0.059 0.128l-0 0.002zM9.177 20.914l1.767-8.070 1.010 3.171-2.777 4.899zM8.961 22.594l3.257-5.748 1.83 5.747h-5.088zM9.526 23.234h4.726l1.178 3.699-5.904-3.7zM12.383 15.256l-1.143-3.588 4.44-6.065v3.836l-3.297 5.817zM16.003 26.625l-1.080-3.392h2.16l-1.080 3.392zM16.577 26.933l1.178-3.7h4.726l-5.904 3.7zM21.063 12.844l1.766 8.070-2.776-4.899 1.010-3.17zM19.623 15.256l-3.296-5.816v-3.837l4.44 6.065-1.144 3.588zM23.045 22.593h-5.085l1.83-5.747 3.256 5.747zM16.003 10.166l3.356 5.921-2.072 6.506h-2.567l-2.072-6.506 3.355-5.921z"></path>
</svg>
