<!-- Generated by IcoMoon.io -->
<svg version="1.1" xmlns="http://www.w3.org/2000/svg" width="32" height="32" viewBox="0 0 32 32">
<title>exmo</title>
<path fill="#fff" d="M16 32c-8.837 0-16-7.163-16-16s7.163-16 16-16 16 7.163 16 16-7.163 16-16 16zM19.7 13.055l-0.529-1.055-1.1 0.5-2.885 7.797 1.1-0.5 0.526 1.055 0.018-0.047 2.868-7.75zM26.88 13.238l0.064-0.183-0.525-1.055-1.1 0.5-2.934 7.942 1.1-0.5 0.527 1.058 2.868-7.762zM20.74 19.95l1.689-4.563-1.103 0.5-0.524-1.057-1.694 4.562 0.525 1.058 1.107-0.5zM11.603 15.45h-5.045l0.86 0.8-0.86 0.813h5.040l0.856-0.813-0.851-0.8zM5.86 18.833l-0.86 0.807 0.86 0.805h8.155l-0.857-0.805 0.857-0.808h-8.155zM8.361 12.065l-0.86 0.808 0.86 0.805h8.15l-0.854-0.806 0.855-0.807h-8.15z"></path>
</svg>
