<!-- Generated by IcoMoon.io -->
<svg version="1.1" xmlns="http://www.w3.org/2000/svg" width="32" height="32" viewBox="0 0 32 32">
<title>ftc</title>
<path fill="#fff" d="M16 32c-8.837 0-16-7.163-16-16s7.163-16 16-16 16 7.163 16 16-7.163 16-16 16zM24.603 6c-5.83 3.022-8.050 5.565-8.050 5.565l-0.345 2.405c-0.346 0.411-0.627-0.068-0.627-0.068l-0.208-1.237-1.663 1.58c0 3.020-0.627 4.053-0.627 4.053-0.276 0.41-0.552 0.068-0.552 0.068l-0.138-3.158-1.042 0.894 0.070 5.018c-0.973-0.206-1.18-2.612-1.18-2.612-0.766 0.685-0.622 3.159-0.622 3.159l-1.732-2.2 1.041 2.542-2.428-1.305 1.876 1.858c-0.973 0.895-0.139 1.58-0.139 1.58-0.032-0.073-0.050-0.157-0.050-0.246 0-0.263 0.162-0.488 0.392-0.58l0.004-0.002c0.834-0.41 0.696 0.758 0.696 0.758l-1.387 1.647c-0.207 0.342 0.138 0.273 0.138 0.273l1.663-1.784c0.973 1.237 2.152 0.963 2.152 0.963-1.456-0.616-1.456-2.064-1.456-2.064 1.249 1.996 3.332 1.306 3.332 1.306-2.36-0.41-2.428-1.858-2.428-1.858 5.201 1.032 6.52-0.41 6.52-0.41l-6.175-0.275c1.456-1.51 5.202-0.895 5.202-0.895l3.262-4.259 4.065-4.77c0.369-0.43 0.676-0.928 0.901-1.468l0.013-0.037c1.169-2.979-0.478-4.442-0.478-4.442zM13.503 19.95s5.962-8.454 8.804-10.444c0.006 0-3.050 5.154-8.804 10.445z"></path>
</svg>
