<!-- Generated by IcoMoon.io -->
<svg version="1.1" xmlns="http://www.w3.org/2000/svg" width="32" height="32" viewBox="0 0 32 32">
<title>fun</title>
<path fill="#fff" d="M16 32c-8.837 0-16-7.163-16-16s7.163-16 16-16 16 7.163 16 16-7.163 16-16 16zM12.7 26.9c0.941 0.301 2.023 0.474 3.146 0.474 0.442 0 0.878-0.027 1.305-0.079l-0.051 0.005c-1.4-1.9-2.9-3.8-4.3-5.6 1.4-1.2 2.9-2.3 4.3-3.4-1-1.3-2-2.5-3-3.8l-4.3 3.4c-0.176-0.547-0.278-1.177-0.278-1.83 0-0.522 0.065-1.029 0.187-1.513l-0.009 0.043c0.29-0.9 0.73-1.746 1.3-2.5 0.576-0.693 1.274-1.262 2.063-1.682l0.037-0.018c0.849-0.401 1.84-0.654 2.884-0.699l0.016-0.001c-0.1-0.2-0.3-0.3-0.4-0.5-1-1.3-2-2.6-3-3.8-0.733 0.232-1.362 0.503-1.957 0.828l0.057-0.028c-1.748 0.873-3.172 2.169-4.175 3.757l-0.025 0.043c-0.656 1.094-1.174 2.363-1.483 3.712l-0.017 0.088c-0.167 0.721-0.263 1.549-0.263 2.4s0.096 1.679 0.277 2.474l-0.014-0.074c0.332 1.405 0.884 2.641 1.625 3.74l-0.025-0.040c0.723 1.087 1.584 2.012 2.574 2.78l0.026 0.020c0.985 0.802 2.155 1.42 3.432 1.783l0.068 0.017zM22.23 14.786c0.166 1.117 0.156 2.055-0.030 2.814-0.231 0.959-0.646 1.797-1.21 2.514l0.011-0.014c-1.137 1.466-2.899 2.4-4.879 2.4-0.007 0-0.015 0-0.022-0h0.001c0.233 0.39 0.501 0.758 0.8 1.1 0.8 1.1 1.6 2.1 2.5 3.2 1.276-0.379 2.38-0.997 3.31-1.809l-0.010 0.009c0.982-0.754 1.812-1.647 2.475-2.659l0.025-0.041c0.736-1.022 1.291-2.229 1.587-3.534l0.013-0.066c0.177-0.784 0.279-1.684 0.279-2.608 0-0.739-0.065-1.463-0.189-2.167l0.011 0.074c-0.19-1.432-0.686-2.719-1.421-3.834l0.021 0.034c-0.655-1.088-1.453-2.013-2.382-2.786l-0.018-0.014c-1.877-1.595-4.322-2.574-6.994-2.6l-0.006-0h-1.4c0 0.1 0.1 0.1 0.1 0.2 1.5 1.9 2.9 3.7 4.3 5.5-1.4 1.2-2.9 2.3-4.3 3.4 1 1.3 2 2.5 3 3.8 1.19-1.020 4.165-3.294 4.3-3.4 0.050 0.16 0.093 0.323 0.13 0.486zM17.507 23.159c-0.001-0.001-0.013-0.015-0.025-0.029l-0.011-0.013c1.688-0.345 3.119-1.266 4.111-2.544l0.012-0.016c0.616-0.783 1.079-1.717 1.326-2.736l0.010-0.049c0.126-0.493 0.198-1.059 0.198-1.642 0-0.733-0.114-1.439-0.325-2.101l0.013 0.049-0.323-1.040-0.856 0.672c-0.451 0.354-2.050 1.584-2.147 1.66-0.606 0.47-1.112 0.872-1.576 1.255-0.638-0.819-0.975-1.24-1.313-1.66l0.285 0.366c-0.466-0.582-0.77-0.964-1.034-1.3 0.638-0.493 1.487-1.146 1.558-1.2 0.852-0.656 1.561-1.233 2.255-1.827l-0.077 0.065 0.543-0.465-0.439-0.564c-2.958-3.873-4.106-5.334-5.257-6.791l1.754 2.302c2.352 0.043 4.624 0.898 6.427 2.422 0.895 0.74 1.65 1.62 2.24 2.61 0.663 0.999 1.124 2.189 1.295 3.47l0.005 0.043c0.109 0.599 0.171 1.288 0.171 1.991 0 0.869-0.095 1.717-0.276 2.532l0.014-0.077c-0.286 1.265-0.798 2.379-1.496 3.35l0.019-0.027c-0.645 0.99-1.422 1.83-2.32 2.522l-0.024 0.017c-0.731 0.641-1.59 1.158-2.532 1.506l-0.056 0.018c-0.644-0.776-1.349-1.678-2.030-2.599l-0.12-0.171z"></path>
</svg>
