<!-- Generated by IcoMoon.io -->
<svg version="1.1" xmlns="http://www.w3.org/2000/svg" width="32" height="32" viewBox="0 0 32 32">
<title>glxt</title>
<path fill="#fff" d="M16 32c-8.837 0-16-7.163-16-16s7.163-16 16-16 16 7.163 16 16-7.163 16-16 16zM12.328 4.598c-0.676 0.212-1.324 0.502-1.95 0.826-0.48 0.265-0.955 0.546-1.394 0.876-2.006 1.466-3.523 3.493-4.329 5.85l-0.025 0.085c-0.248 0.724-0.439 1.573-0.538 2.45l-0.005 0.056c-0.046 0.576-0.090 1.156-0.050 1.733 0.032 1.203 0.28 2.39 0.67 3.525 1.281 3.517 4.054 6.219 7.533 7.376l0.085 0.024c0.873 0.27 1.77 0.47 2.684 0.532 0.2 0.035 0.408 0.013 0.61 0.040 1.22 0.035 2.444-0.108 3.62-0.445 0.7-0.184 1.38-0.455 2.032-0.773 2.345-1.171 4.209-3.011 5.378-5.269l0.032-0.067c0.285-0.546 0.55-1.189 0.758-1.858l0.022-0.084c0.24-0.81 0.414-1.642 0.474-2.484 0.034-0.202 0.012-0.408 0.040-0.61 0.006-0.256 0.010-0.509 0-0.761-0.028-0.203-0.006-0.409-0.040-0.611-0.066-0.935-0.275-1.858-0.555-2.75-0.25-0.736-0.522-1.358-0.838-1.952l0.034 0.070c-0.291-0.538-0.581-0.993-0.9-1.427l0.024 0.034c-1.426-1.956-3.384-3.446-5.661-4.269l-0.084-0.026c-1.415-0.483-2.92-0.726-4.416-0.658-1.091 0.034-2.173 0.24-3.21 0.567zM14.638 8.928c0.452-0.003 0.907 0 1.359 0-0.002 0.633-0.002 1.383-0.002 2.133s0.001 1.499 0.003 2.249l-0-0.115c-0.43-0.452-0.863-0.901-1.294-1.353-0.025-0.034-0.071-0.062-0.065-0.112v-2.802zM8.728 10.378c1.197 0 2.397 0 3.594 0.002 1.225 1.278 2.456 2.556 3.678 3.84 1.225-1.28 2.453-2.559 3.678-3.84 1.197-0.006 2.394-0.003 3.594-0.003-0.11 0.075-0.187 0.18-0.28 0.271-1.569 1.58-3.13 3.167-4.698 4.747-0.206 0.197-0.393 0.406-0.592 0.605 0.823 0.85 1.667 1.683 2.496 2.528 0.854 0.87 1.718 1.736 2.575 2.602 0.171 0.16 0.315 0.343 0.499 0.49-1.197-0.003-2.394 0.003-3.591-0.006-1.225-1.282-2.453-2.563-3.678-3.844-1.222 1.285-2.453 2.562-3.678 3.844-1.2 0.009-2.4 0.006-3.597 0.006 0.019-0.013 0.050-0.038 0.066-0.050 0.81-0.82 1.624-1.64 2.437-2.46 1.016-1.044 2.054-2.069 3.073-3.113-0.841-0.854-1.689-1.705-2.534-2.56-0.922-0.94-1.851-1.872-2.777-2.807-0.087-0.085-0.162-0.184-0.265-0.253zM16.006 18.793c0.2 0.23 0.421 0.436 0.627 0.66 0.227 0.25 0.47 0.484 0.701 0.733 0.019 0.017 0.032 0.042 0.032 0.070 0 0.004-0 0.008-0.001 0.012l0-0v2.805c-0.452 0-0.907-0.003-1.362 0 0.006-1.427 0.003-2.852 0.003-4.28z"></path>
</svg>
