<!-- Generated by IcoMoon.io -->
<svg version="1.1" xmlns="http://www.w3.org/2000/svg" width="32" height="32" viewBox="0 0 32 32">
<title>hodl</title>
<path fill="#fff" d="M16 32c-8.837 0-16-7.163-16-16s7.163-16 16-16 16 7.163 16 16-7.163 16-16 16zM7.973 16.453c-0.518 0.412-0.98 1.144-0.957 2.263 0.017 0.774 0.433 1.304 0.957 1.664v1.383c0 0.863 0.42 1.672 1.128 2.167l4.853 3.319v-16.959l-5.981 1.75v4.413zM9.276 16.045c1.007 0.737 1.007 5.116 1.007 5.116s-1.139-0.11-2.080-0.636c0.776 0.261 1.399 0.203 1.67 0.233l0.018 0.001h0.004l0.014 0.002 0.038 0.003 0.013 0.002h0.013s0.16-3.822-0.997-4.492c-0.188-0.065-0.52-0.027-0.886 0.090 0.466-0.314 0.953-0.42 1.186-0.319zM14.373 22.949v4.306h3.263v-4.305h-3.263zM13.633 9.969l0.29 0.29-5.080-5.1c-0.092-0.092-0.219-0.149-0.36-0.149-0.282 0-0.51 0.228-0.51 0.51v0 6.070l5.66-1.62zM14.373 16.040v6.494h3.263v-6.494h-3.262zM18.366 9.97l5.661 1.62v-6.070c-0.001-0.281-0.229-0.509-0.51-0.509-0.141 0-0.268 0.057-0.36 0.149v0l-4.79 4.81zM14.374 10.291v5.33h3.262v-5.33h-3.262zM24.027 16.453v-4.413l-5.971-1.746v16.961l4.843-3.325c0.686-0.485 1.128-1.274 1.128-2.167v-1.383c0.524-0.36 0.94-0.89 0.957-1.664 0.024-1.119-0.439-1.851-0.957-2.263zM22.067 20.827h0.013l0.012-0.001 0.017-0.002h0.004l0.035-0.003h0.002l0.016-0.002 0.149-0.017h0.007c0.326-0.042 0.726-0.038 1.34-0.23l0.136-0.045c-0.942 0.526-2.080 0.636-2.080 0.636s0-4.378 1.007-5.115c0.233-0.102 0.72 0.004 1.185 0.32-0.366-0.117-0.697-0.155-0.886-0.090-1.157 0.669-0.958 4.55-0.958 4.55z"></path>
</svg>
