<!-- Generated by IcoMoon.io -->
<svg version="1.1" xmlns="http://www.w3.org/2000/svg" width="32" height="32" viewBox="0 0 32 32">
<title>hpb</title>
<path fill="#fff" d="M16 32c-8.837 0-16-7.163-16-16s7.163-16 16-16 16 7.163 16 16-7.163 16-16 16zM16.572 15.272c-0.153 0.75 0.613 0.55 0.613 0.55 3.060-0.7 3.877-3.65 3.877-3.65 0.824-2.653-0.433-4.33-1.058-4.964-0.229-0.233-0.516-0.409-0.837-0.503l-0.014-0.003c-1.135-0.323-2.632-0.030-2.632-0.030l-4.234 0.65-0.602 0.079c-0.118 0.016-0.225 0.045-0.326 0.085l0.009-0.003-0.612 0.24c3.061-0.15 4.54 1.75 4.54 1.75 2.603 2.85 1.276 5.8 1.276 5.8zM16.383 16.916c-0.58-0.511-0.795 0.234-0.794 0.236-0.946 2.937 1.227 5.13 1.227 5.13 1.91 2.046 4.023 1.841 4.898 1.637 0.328-0.075 0.63-0.233 0.876-0.458 0.863-0.792 1.368-2.203 1.368-2.203l1.588-3.9 0.238-0.547c0.043-0.1 0.073-0.203 0.090-0.31l0.102-0.638c-1.429 2.658-3.851 2.937-3.851 2.937-3.83 0.738-5.742-1.884-5.742-1.884zM14.998 15.969c0.74-0.243 0.182-0.794 0.18-0.794-2.145-2.252-5.162-1.476-5.162-1.476-2.757 0.623-3.614 2.526-3.863 3.373-0.049 0.159-0.077 0.341-0.077 0.53 0 0.159 0.020 0.314 0.057 0.461l-0.003-0.013c0.277 1.123 1.284 2.25 1.284 2.25l2.686 3.273 0.369 0.472c0.068 0.086 0.143 0.162 0.227 0.227l0.003 0.002 0.517 0.4c-1.658-2.527-0.714-4.73-0.714-4.73 1.225-3.632 4.495-3.975 4.495-3.975zM17.106 16.159c-0.733 0.262-0.16 0.798-0.163 0.798 2.202 2.196 5.198 1.346 5.198 1.346 2.74-0.69 3.548-2.615 3.775-3.468 0.087-0.32 0.087-0.656 0-0.976-0.308-1.118-1.342-2.218-1.342-2.218l-2.77-3.206-0.381-0.462c-0.070-0.084-0.147-0.157-0.232-0.22l-0.004-0.003-0.528-0.387c1.724 2.484 0.838 4.711 0.838 4.711-1.13 3.66-4.39 4.085-4.39 4.085zM15.468 16.762c0.175-0.746-0.598-0.562-0.598-0.565-3.078 0.624-3.97 3.554-3.97 3.554-0.89 2.631 0.323 4.337 0.933 4.987 0.228 0.244 0.516 0.426 0.837 0.527 1.127 0.351 2.63 0.095 2.63 0.095l4.25-0.546 0.603-0.064c0.118-0.012 0.227-0.038 0.329-0.076l-0.009 0.003 0.617-0.225c-3.066 0.075-4.495-1.86-4.495-1.86-2.528-2.913-1.127-5.83-1.127-5.83zM15.577 15.226c0.587 0.503 0.79-0.247 0.79-0.245 0.904-2.95-1.3-5.112-1.3-5.112-1.939-2.019-4.049-1.786-4.921-1.569-0.34 0.084-0.635 0.248-0.873 0.471l0.001-0.001c-0.85 0.803-1.335 2.221-1.335 2.221l-1.532 3.924-0.23 0.55c-0.040 0.1-0.070 0.204-0.085 0.31l-0.092 0.64c1.39-2.677 3.808-2.989 3.808-2.989 3.817-0.796 5.769 1.8 5.769 1.8z"></path>
<path fill="#fff" opacity="0.5" d="M17.106 16.159s3.26-0.424 4.39-4.085c0 0 0.887-2.227-0.837-4.711l0.528 0.387c0.087 0.065 0.167 0.14 0.236 0.223l0.381 0.462 2.77 3.206s1.034 1.1 1.342 2.218c0.087 0.32 0.087 0.656 0 0.976-0.227 0.853-1.034 2.778-3.775 3.468 0 0-2.996 0.85-5.198-1.346 0.002 0-0.57-0.536 0.163-0.798zM15.468 16.763s-1.401 2.916 1.127 5.829c0 0 1.429 1.935 4.495 1.86l-0.618 0.225c-0.093 0.035-0.201 0.060-0.313 0.073l-0.006 0-0.603 0.064-4.25 0.546s-1.503 0.257-2.63-0.095c-0.331-0.107-0.613-0.288-0.836-0.526l-0.001-0.001c-0.61-0.65-1.823-2.356-0.932-4.987 0 0 0.89-2.93 3.969-3.554 0 0.003 0.773-0.18 0.598 0.566zM15.577 15.226s-1.952-2.596-5.769-1.8c0 0-2.418 0.312-3.808 2.99l0.092-0.641c0.017-0.116 0.047-0.22 0.089-0.319l-0.003 0.008 0.23-0.55 1.53-3.924s0.485-1.418 1.336-2.222c0.237-0.222 0.532-0.385 0.859-0.466l0.013-0.003c0.872-0.217 2.982-0.45 4.92 1.569 0 0 2.205 2.161 1.302 5.112 0-0.002-0.204 0.748-0.791 0.245z"></path>
</svg>
