<!-- Generated by IcoMoon.io -->
<svg version="1.1" xmlns="http://www.w3.org/2000/svg" width="32" height="32" viewBox="0 0 32 32">
<title>iost</title>
<path fill="#fff" d="M16 32c-8.837 0-16-7.163-16-16s7.163-16 16-16 16 7.163 16 16-7.163 16-16 16zM24.5 11l-8.5-5-8.5 5v10l8.5 5 8.5-5zM15.732 16.407l-1.031-0.606-0.623 0.368-1.476-0.863 0.628-0.37-3.33-1.959 6.271-3.688 5.917 3.438-1.586 0.938-4.327-2.53-3.131 1.842 1.754 1.032 0.897-0.53 1.476 0.863-0.902 0.533 1.030 0.606 0.736-0.434 1.476 0.862-0.74 0.437 3.673 2.162-6.27 3.687-6.525-3.79 0.027-1.843 6.495 3.787 3.13-1.841-2.098-1.235-0.785 0.463-1.476-0.862z"></path>
</svg>
