<!-- Generated by IcoMoon.io -->
<svg version="1.1" xmlns="http://www.w3.org/2000/svg" width="32" height="32" viewBox="0 0 32 32">
<title>kcs</title>
<path fill="#fff" d="M16 32c-8.837 0-16-7.163-16-16s7.163-16 16-16 16 7.163 16 16-7.163 16-16 16zM13.54 16l5.174-5.33 3.265 3.363c0.264 0.275 0.634 0.446 1.044 0.446s0.78-0.171 1.044-0.445l0-0.001c0.268-0.279 0.433-0.658 0.433-1.076s-0.165-0.797-0.433-1.077l0 0.001-4.309-4.44c-0.265-0.272-0.635-0.441-1.044-0.441s-0.779 0.169-1.044 0.441l-0 0-6.216 6.406v-3.808c0-0.84-0.662-1.522-1.477-1.522-0.816 0-1.477 0.682-1.477 1.522v11.922c0 0.84 0.661 1.522 1.477 1.522 0.811 0 1.477-0.686 1.477-1.522v-3.808l6.216 6.405c0.265 0.272 0.635 0.441 1.044 0.441s0.779-0.169 1.044-0.441l0-0 4.31-4.44c0.268-0.279 0.432-0.658 0.432-1.076s-0.165-0.797-0.433-1.076l0 0.001c-0.264-0.275-0.634-0.447-1.045-0.447s-0.781 0.171-1.044 0.446l-0 0.001-3.264 3.364-5.174-5.331zM18.716 14.477c-0.816 0-1.478 0.682-1.478 1.523s0.662 1.523 1.478 1.523 1.478-0.682 1.478-1.523c0-0.841-0.662-1.523-1.478-1.523z"></path>
</svg>
