<!-- Generated by IcoMoon.io -->
<svg version="1.1" xmlns="http://www.w3.org/2000/svg" width="32" height="32" viewBox="0 0 32 32">
<title>kmd</title>
<path fill="#fff" d="M16 32c8.837 0 16-7.163 16-16s-7.163-16-16-16-16 7.163-16 16 7.163 16 16 16zM5 16c0 0.006-0 0.014-0 0.021 0 6.075 4.925 11 11 11 6.068 0 10.988-4.913 11-10.978v-0.086c-0.004-0.894-0.114-1.76-0.317-2.589l0.016 0.076c-0.119-0.535-0.59-0.929-1.153-0.929-0.652 0-1.18 0.528-1.18 1.18 0 0.105 0.014 0.207 0.040 0.304l-0.002-0.008c0.151 0.605 0.238 1.299 0.238 2.013 0 4.774-3.87 8.645-8.645 8.645s-8.645-3.87-8.645-8.645c0-4.774 3.87-8.645 8.645-8.645 0.713 0 1.405 0.086 2.067 0.249l-0.059-0.012c0.075 0.017 0.162 0.027 0.251 0.027 0.652 0 1.18-0.528 1.18-1.18 0-0.546-0.371-1.006-0.876-1.14l-0.008-0.002c-0.767-0.191-1.647-0.3-2.553-0.3-6.074 0-10.999 4.924-10.999 10.999 0 0 0 0.001 0 0.001v-0zM21.537 7.981c0.007-0.010 0.015-0.019 0.023-0.027l0-0 0.001 0.001c0.317-0.316 0.755-0.512 1.238-0.512 0.968 0 1.753 0.785 1.753 1.753 0 0.38-0.121 0.731-0.326 1.018l0.004-0.005c-0.059 0.085-0.121 0.159-0.188 0.229l0.001-0.001c-0.279 0.28-0.652 0.466-1.068 0.505l-0.007 0.001h-0.016c-0.033 0-0.067 0.002-0.1 0.004s-0.066 0.004-0.099 0.004c-0.012 0.001-0.023 0.002-0.034 0.004l0.002-0c-0.011 0.002-0.024 0.004-0.037 0.004h-0c-1.619 0.14-2.88 1.489-2.88 3.132 0 0.251 0.029 0.494 0.085 0.728l-0.004-0.021c0.001 0.004 0.003 0.008 0.004 0.012 0.002 0.007 0.005 0.013 0.005 0.021 0.018 0.075 0.037 0.148 0.060 0.221 0.070 0.283 0.11 0.607 0.11 0.941 0 0.872-0.274 1.68-0.742 2.343l0.009-0.013c-0.142 0.207-0.292 0.389-0.456 0.556l0-0c-0.737 0.736-1.754 1.192-2.878 1.192-2.248 0-4.070-1.822-4.070-4.070 0-1.124 0.456-2.142 1.192-2.878v0c0.022-0.022 0.046-0.042 0.070-0.062 0.018-0.015 0.036-0.030 0.054-0.047 0.721-0.672 1.691-1.085 2.758-1.085 0.34 0 0.671 0.042 0.986 0.121l-0.028-0.006c0.285 0.094 0.612 0.148 0.953 0.148 1.626 0 2.963-1.235 3.124-2.819l0.001-0.013 0.006-0.043c0.005-0.025 0.008-0.054 0.008-0.084v-0.188c0.037-0.406 0.208-0.766 0.468-1.041l-0.001 0.001c0.007-0.007 0.012-0.015 0.018-0.022z"></path>
</svg>
