<!-- Generated by IcoMoon.io -->
<svg version="1.1" xmlns="http://www.w3.org/2000/svg" width="32" height="32" viewBox="0 0 32 32">
<title>lbc</title>
<path fill="#fff" d="M24.176 17.184l-8.37 5.182-8.787-4.39v-2.58l9.284-5.806 8.315 4.056v0.363l-8.813 5.476-6.749-3.346-0.444 0.896 7.247 3.593 9.759-6.063v-1.544l-9.375-4.573-10.223 6.394v3.752l9.839 4.916 8.872-5.493-0.215 0.862 0.97 0.242 0.621-2.485-2.485-0.621-0.242 0.97zM16 32c-8.837 0-16-7.163-16-16s7.163-16 16-16 16 7.163 16 16-7.163 16-16 16z"></path>
</svg>
