<!-- Generated by IcoMoon.io -->
<svg version="1.1" xmlns="http://www.w3.org/2000/svg" width="32" height="32" viewBox="0 0 32 32">
<title>lun</title>
<path fill="#fff" d="M16 32c-8.837 0-16-7.163-16-16s7.163-16 16-16 16 7.163 16 16-7.163 16-16 16zM15.813 6.048v0.002l-8.216 4.63c-0.112 0.062-0.186 0.179-0.186 0.314s0.074 0.252 0.184 0.313l0.002 0.001 7.156 4.018c0.247-0.281 0.586-0.47 0.96-0.536v-2.198c-0.77-0.134-1.354-0.788-1.354-1.576 0-0.885 0.736-1.603 1.645-1.603s1.645 0.718 1.645 1.603c0 0.793-0.59 1.45-1.366 1.578v2.193c0.378 0.064 0.723 0.254 0.973 0.54l7.155-4.034c0.111-0.063 0.185-0.18 0.185-0.314v-0c-0-0.135-0.075-0.252-0.184-0.313l-0.002-0.001-8.225-4.618c-0.054-0.030-0.118-0.048-0.186-0.048s-0.132 0.018-0.188 0.049l0.002-0.001zM24.433 11.867l0.002-0.001-6.908 3.894c0.155 0.365 0.164 0.774 0.026 1.145l1.95 1.093c0.26-0.37 0.667-0.615 1.121-0.677 0.9-0.124 1.732 0.487 1.859 1.363s-0.5 1.688-1.4 1.812c-0.9 0.123-1.732-0.487-1.858-1.364-0.010-0.067-0.016-0.145-0.016-0.224 0-0.144 0.019-0.283 0.056-0.415l-0.003 0.011-1.99-1.115c-0.25 0.294-0.6 0.49-0.987 0.555l0.007 7.693c0 0.28 0.31 0.454 0.557 0.314l7.965-4.49c0.111-0.062 0.186-0.179 0.186-0.314v-0l-0.008-8.967c-0.001-0.135-0.075-0.252-0.185-0.313l-0.002-0.001c-0.053-0.030-0.117-0.049-0.186-0.049s-0.132 0.018-0.187 0.049l0.002-0.001zM7.008 12.18l-0.008 8.966c0 0.13 0.070 0.25 0.186 0.314l7.966 4.49c0.247 0.14 0.558-0.034 0.558-0.313l0.006-7.695c-0.393-0.069-0.731-0.269-0.975-0.552l-0.002-0.002-1.99 1.115c0.056 0.205 0.068 0.42 0.038 0.629-0.127 0.876-0.96 1.487-1.859 1.363s-1.526-0.935-1.4-1.811c0.128-0.876 0.96-1.487 1.86-1.363 0.454 0.062 0.86 0.308 1.121 0.677l1.949-1.092c-0.138-0.37-0.13-0.777 0.023-1.141l-6.915-3.898c-0.053-0.031-0.117-0.050-0.186-0.050h-0c-0.001 0-0.003-0-0.004-0-0.202 0-0.365 0.162-0.368 0.363v0z"></path>
</svg>
