<!-- Generated by IcoMoon.io -->
<svg version="1.1" xmlns="http://www.w3.org/2000/svg" width="32" height="32" viewBox="0 0 32 32">
<title>matic</title>
<path fill="#fff" d="M32 16c0-8.837-7.163-16-16-16s-16 7.163-16 16c0 8.837 7.163 16 16 16s16-7.163 16-16zM19.338 9.92l3.329-1.92 3.333 1.921-0.015 0.009v11.93l-3.314 1.909-0.005 0.009-0.006-0.003-0.008 0.005v-0.010l-3.318-1.912v-4.247l-3.341 1.912-0.002-0.004-3.327-1.917v4.253l-3.332 1.92v-0.014l-0.002 0.015-3.331-1.921v-11.937l0.002 0.001 3.332-1.92 10.001 5.759v-3.84h0.003z"></path>
</svg>
