<!-- Generated by IcoMoon.io -->
<svg version="1.1" xmlns="http://www.w3.org/2000/svg" width="32" height="32" viewBox="0 0 32 32">
<title>miota</title>
<path fill="#fff" d="M16 32c-8.837 0-16-7.163-16-16s7.163-16 16-16 16 7.163 16 16-7.163 16-16 16zM22.257 6.77c0-0.702-0.57-1.27-1.274-1.27s-1.274 0.568-1.274 1.27c0 0.701 0.57 1.27 1.274 1.27s1.274-0.569 1.274-1.27zM21.339 11.194c0.596 0 1.079-0.482 1.079-1.076s-0.483-1.075-1.080-1.075c-0.017-0.001-0.037-0.001-0.056-0.001-0.595 0-1.077 0.482-1.077 1.077s0.482 1.077 1.077 1.077c0.020 0 0.040-0.001 0.060-0.002l-0.003 0zM21.004 13.847c0.001 0 0.001 0 0.002 0 0.503 0 0.91-0.407 0.91-0.91 0 0 0 0 0 0v0c-0.001-0.502-0.408-0.909-0.91-0.909-0.001 0-0.001 0-0.002 0h0c-0.001 0-0.001 0-0.002 0-0.503 0-0.91 0.407-0.91 0.91 0 0 0 0 0 0v0c0.001 0.502 0.408 0.909 0.91 0.909 0.001 0 0.001 0 0.002 0h-0zM20.95 15.219c0-0.431-0.349-0.78-0.78-0.78s-0.78 0.349-0.78 0.78v0c0 0.431 0.349 0.78 0.78 0.78s0.78-0.349 0.78-0.78v0zM19.716 16.943c-0.001-0.369-0.3-0.668-0.669-0.668s-0.669 0.299-0.669 0.669c0 0 0 0.001 0 0.001v-0c0.001 0.369 0.3 0.668 0.669 0.668s0.669-0.299 0.669-0.669c0-0 0-0.001 0-0.001v0zM18.366 18.166c0-0.007 0-0.015 0-0.023 0-0.317-0.257-0.574-0.574-0.574s-0.574 0.257-0.574 0.574c0 0.009 0 0.017 0.001 0.026l-0-0.001c0.014 0.306 0.265 0.549 0.573 0.549s0.561-0.244 0.573-0.55l0-0.001zM25.24 10.757c0.018-0.074 0.028-0.158 0.028-0.245 0-0.598-0.485-1.083-1.083-1.083-0.511 0-0.94 0.354-1.053 0.83l-0.002 0.007c-0.012 0.062-0.020 0.132-0.020 0.205 0 0.599 0.485 1.084 1.084 1.084 0.497 0 0.916-0.334 1.044-0.79l0.002-0.008zM24.722 13.56c0.015-0.063 0.024-0.135 0.024-0.209 0-0.506-0.411-0.917-0.917-0.917-0.433 0-0.795 0.299-0.892 0.702l-0.001 0.006c-0.015 0.063-0.024 0.135-0.024 0.209 0 0.506 0.411 0.917 0.917 0.917 0.433 0 0.795-0.299 0.892-0.702l0.001-0.006zM23.758 15.797c0.009-0.044 0.014-0.094 0.014-0.146 0-0.429-0.347-0.776-0.776-0.776-0.355 0-0.654 0.238-0.746 0.563l-0.001 0.005c-0.013 0.053-0.020 0.114-0.020 0.177 0 0.428 0.347 0.775 0.775 0.775 0.366 0 0.672-0.253 0.754-0.594l0.001-0.005zM22.516 17.5c0.011-0.045 0.017-0.097 0.017-0.15 0-0.312-0.217-0.574-0.508-0.642l-0.004-0.001c-0.045-0.011-0.096-0.017-0.149-0.017-0.365 0-0.661 0.296-0.661 0.661s0.296 0.661 0.661 0.661c0.312 0 0.574-0.216 0.643-0.508l0.001-0.005zM21.159 18.689c0.010-0.039 0.015-0.084 0.015-0.13 0-0.314-0.255-0.569-0.569-0.569-0.268 0-0.493 0.186-0.553 0.435l-0.001 0.004c-0.010 0.039-0.015 0.084-0.015 0.13 0 0.314 0.255 0.569 0.569 0.569 0.268 0 0.493-0.186 0.553-0.435l0.001-0.004zM19.804 19.44c0.011-0.039 0.018-0.084 0.018-0.13 0-0.27-0.218-0.488-0.488-0.488-0.238 0-0.436 0.17-0.479 0.395l-0 0.003c-0.005 0.027-0.008 0.058-0.008 0.090 0 0.27 0.218 0.488 0.488 0.488 0.223 0 0.412-0.15 0.47-0.355l0.001-0.003zM26.908 14.584c0.058-0.117 0.092-0.255 0.092-0.401 0-0.363-0.21-0.676-0.516-0.825l-0.005-0.002c-0.117-0.058-0.255-0.092-0.401-0.092-0.363 0-0.676 0.209-0.827 0.513l-0.002 0.005c-0.059 0.117-0.093 0.256-0.093 0.402 0 0.362 0.21 0.676 0.515 0.825l0.005 0.002c0.117 0.058 0.256 0.092 0.402 0.092 0.363 0 0.677-0.209 0.828-0.514l0.002-0.005zM25.947 16.799c0.050-0.1 0.079-0.217 0.079-0.341 0-0.308-0.179-0.575-0.439-0.702l-0.005-0.002c-0.1-0.049-0.217-0.077-0.34-0.077-0.309 0-0.576 0.178-0.706 0.437l-0.002 0.005c-0.040 0.091-0.064 0.198-0.064 0.31 0 0.434 0.351 0.785 0.785 0.785 0.298 0 0.557-0.166 0.69-0.41l0.002-0.004zM24.739 18.479c0.035-0.079 0.055-0.171 0.055-0.268 0-0.374-0.304-0.678-0.678-0.678-0.257 0-0.481 0.143-0.596 0.354l-0.002 0.004c-0.043 0.086-0.068 0.188-0.068 0.295 0 0.266 0.154 0.496 0.378 0.606l0.004 0.002c0.086 0.043 0.188 0.068 0.295 0.068 0.267 0 0.497-0.153 0.609-0.377l0.002-0.004zM23.393 19.667c0.037-0.075 0.059-0.163 0.059-0.256 0-0.231-0.134-0.431-0.328-0.527l-0.003-0.002c-0.075-0.037-0.163-0.059-0.256-0.059-0.324 0-0.587 0.263-0.587 0.587 0 0.231 0.134 0.431 0.328 0.527l0.003 0.002c0.075 0.037 0.162 0.058 0.255 0.058 0.232 0 0.432-0.133 0.529-0.328l0.002-0.003zM22.038 20.399c0.022-0.054 0.035-0.117 0.035-0.183 0-0.278-0.226-0.504-0.504-0.504-0.185 0-0.347 0.1-0.434 0.248l-0.001 0.002c-0.026 0.058-0.041 0.127-0.041 0.198 0 0.278 0.225 0.503 0.503 0.503 0.19 0 0.356-0.106 0.441-0.262l0.001-0.003zM20.765 20.768c0.027-0.054 0.042-0.118 0.042-0.185 0-0.168-0.097-0.313-0.238-0.382l-0.003-0.001c-0.054-0.027-0.118-0.043-0.186-0.043-0.235 0-0.426 0.191-0.426 0.426 0 0.167 0.097 0.312 0.237 0.382l0.003 0.001c0.054 0.027 0.118 0.042 0.185 0.042 0.168 0 0.313-0.097 0.384-0.238l0.001-0.003zM21.801 25.624c0.61 0.35 1.39 0.142 1.74-0.466 0.107-0.182 0.17-0.4 0.17-0.634 0-0.468-0.254-0.877-0.632-1.097l-0.006-0.003c-0.183-0.107-0.402-0.17-0.636-0.17-0.469 0-0.879 0.253-1.101 0.63l-0.003 0.006c-0.107 0.182-0.17 0.401-0.17 0.634 0 0.468 0.254 0.877 0.632 1.097l0.006 0.003zM18.811 24.092c0.155 0.090 0.34 0.144 0.538 0.144 0.397 0 0.744-0.214 0.932-0.534l0.003-0.005c0.090-0.154 0.144-0.339 0.144-0.536 0-0.396-0.215-0.743-0.534-0.929l-0.005-0.003c-0.154-0.090-0.34-0.143-0.538-0.143-0.397 0-0.744 0.214-0.932 0.533l-0.003 0.005c-0.091 0.154-0.144 0.339-0.144 0.537 0 0.396 0.215 0.743 0.535 0.928l0.005 0.003zM16.609 22.252c0.131 0.076 0.288 0.122 0.455 0.122 0.336 0 0.63-0.182 0.788-0.452l0.002-0.004c0.076-0.13 0.122-0.287 0.122-0.454 0-0.335-0.182-0.628-0.452-0.785l-0.004-0.002c-0.131-0.077-0.288-0.122-0.456-0.122-0.336 0-0.629 0.181-0.788 0.45l-0.002 0.004c-0.077 0.13-0.122 0.287-0.122 0.455 0 0.336 0.182 0.629 0.453 0.786l0.004 0.002zM15.108 20.278c0.112 0.065 0.246 0.104 0.389 0.104 0.287 0 0.537-0.155 0.673-0.385l0.002-0.004c0.066-0.111 0.105-0.246 0.105-0.389 0-0.286-0.155-0.536-0.386-0.67l-0.004-0.002c-0.112-0.066-0.246-0.105-0.389-0.105-0.429 0-0.778 0.348-0.778 0.778 0 0.286 0.154 0.536 0.384 0.671l0.004 0.002zM14.225 18.352c0.096 0.056 0.211 0.089 0.335 0.089 0.247 0 0.463-0.134 0.579-0.332l0.002-0.003c0.056-0.095 0.089-0.21 0.089-0.332 0-0.246-0.133-0.461-0.332-0.576l-0.003-0.002c-0.096-0.056-0.211-0.089-0.335-0.089-0.247 0-0.462 0.133-0.579 0.331l-0.002 0.003c-0.056 0.096-0.089 0.21-0.089 0.333 0 0.246 0.133 0.461 0.332 0.576l0.003 0.002zM13.836 16.575c0.082 0.048 0.181 0.077 0.287 0.077 0.317 0 0.573-0.257 0.573-0.573 0-0.211-0.114-0.395-0.284-0.495l-0.003-0.001c-0.082-0.048-0.181-0.077-0.287-0.077-0.211 0-0.396 0.114-0.497 0.284l-0.001 0.003c-0.048 0.082-0.077 0.181-0.077 0.287 0 0.211 0.115 0.396 0.285 0.495l0.003 0.001zM17.586 26.501c0.598 0 1.083-0.483 1.083-1.080 0-0.596-0.485-1.079-1.083-1.079-0.010-0-0.021-0-0.033-0-0.596 0-1.080 0.484-1.080 1.080s0.484 1.080 1.080 1.080c0.012 0 0.023-0 0.035-0.001l-0.002 0zM14.668 24.363c0.164 0.153 0.384 0.247 0.627 0.247 0.263 0 0.501-0.111 0.669-0.288l0-0c0.153-0.163 0.247-0.383 0.247-0.625 0-0.263-0.111-0.5-0.289-0.666l-0.001-0c-0.164-0.153-0.385-0.247-0.627-0.247-0.264 0-0.501 0.111-0.669 0.289l-0 0c-0.153 0.163-0.247 0.383-0.247 0.625 0 0.263 0.112 0.5 0.29 0.667l0.001 0zM13.203 22.415c0.139 0.129 0.325 0.209 0.53 0.209 0.223 0 0.424-0.094 0.566-0.244l0-0c0.13-0.138 0.21-0.324 0.21-0.529 0-0.223-0.095-0.423-0.246-0.564l-0-0c-0.138-0.129-0.325-0.209-0.53-0.209-0.223 0-0.424 0.094-0.566 0.244l-0 0c-0.13 0.138-0.21 0.324-0.21 0.529 0 0.222 0.094 0.423 0.244 0.564l0 0zM12.344 20.491c0.268 0.25 0.687 0.236 0.937-0.030 0.111-0.118 0.179-0.277 0.179-0.452 0-0.19-0.080-0.361-0.209-0.482l-0-0c-0.118-0.111-0.278-0.179-0.453-0.179-0.19 0-0.362 0.080-0.483 0.209l-0 0c-0.111 0.118-0.18 0.277-0.18 0.452 0 0.19 0.081 0.361 0.21 0.482l0 0zM11.988 18.727c0.102 0.095 0.239 0.154 0.389 0.154 0.164 0 0.311-0.069 0.415-0.18l0-0c0.095-0.101 0.154-0.238 0.154-0.388 0-0.163-0.069-0.31-0.18-0.414l-0-0c-0.102-0.095-0.238-0.153-0.389-0.153-0.164 0-0.312 0.069-0.416 0.18l-0 0c-0.095 0.101-0.153 0.237-0.153 0.388 0 0.163 0.069 0.31 0.179 0.413l0 0zM12.012 17.181c0.083 0.067 0.189 0.107 0.305 0.107 0.27 0 0.489-0.219 0.489-0.489 0-0.126-0.048-0.242-0.127-0.329l0 0c-0.087-0.081-0.205-0.131-0.334-0.131-0.14 0-0.267 0.059-0.356 0.153l-0 0c-0.082 0.087-0.132 0.204-0.132 0.333 0 0.14 0.059 0.266 0.154 0.355l0 0zM12.687 25.741c0.288 0.42 0.86 0.528 1.282 0.242 0.245-0.167 0.404-0.445 0.404-0.759 0-0.193-0.060-0.372-0.162-0.52l0.002 0.003c-0.169-0.244-0.447-0.403-0.763-0.403-0.194 0-0.374 0.060-0.522 0.162l0.003-0.002c-0.245 0.167-0.403 0.445-0.403 0.76 0 0.193 0.060 0.372 0.161 0.52l-0.002-0.003zM11.241 23.805c0.144 0.208 0.38 0.342 0.648 0.342 0.165 0 0.318-0.051 0.444-0.137l-0.003 0.002c0.209-0.142 0.344-0.379 0.344-0.647 0-0.164-0.051-0.317-0.138-0.443l0.002 0.003c-0.144-0.207-0.381-0.341-0.649-0.341-0.165 0-0.318 0.051-0.444 0.137l0.003-0.002c-0.209 0.142-0.344 0.379-0.344 0.647 0 0.164 0.051 0.317 0.138 0.443l-0.002-0.003zM10.383 21.922c0.124 0.18 0.329 0.296 0.562 0.296 0.142 0 0.274-0.044 0.383-0.118l-0.002 0.002c0.31-0.21 0.39-0.631 0.179-0.94-0.124-0.179-0.329-0.295-0.56-0.295-0.143 0-0.275 0.044-0.384 0.119l0.002-0.002c-0.31 0.21-0.39 0.63-0.18 0.938zM10.023 20.168c0.108 0.156 0.285 0.256 0.487 0.256 0.123 0 0.238-0.038 0.332-0.103l-0.002 0.001c0.157-0.106 0.258-0.284 0.258-0.485 0-0.123-0.038-0.238-0.104-0.332l0.001 0.002c-0.108-0.156-0.286-0.257-0.487-0.257-0.124 0-0.238 0.038-0.333 0.103l0.002-0.001c-0.156 0.107-0.257 0.284-0.257 0.485 0 0.123 0.038 0.238 0.103 0.332l-0.001-0.002zM10.063 18.632c0.093 0.117 0.235 0.192 0.395 0.192 0.278 0 0.503-0.225 0.503-0.503 0-0.093-0.025-0.18-0.069-0.255l0.001 0.002c-0.092-0.133-0.244-0.219-0.415-0.219-0.105 0-0.203 0.032-0.284 0.088l0.002-0.001c-0.133 0.091-0.22 0.243-0.22 0.414 0 0.105 0.033 0.203 0.088 0.283l-0.001-0.002zM10.377 17.349c0.079 0.099 0.2 0.162 0.335 0.162 0.236 0 0.428-0.192 0.428-0.428 0-0.079-0.021-0.153-0.059-0.216l0.001 0.002c-0.079-0.105-0.203-0.172-0.342-0.172-0.236 0-0.427 0.191-0.427 0.427 0 0.083 0.024 0.16 0.064 0.226l-0.001-0.002zM5.637 15.807c-0.383 0.223-0.637 0.632-0.637 1.1 0 0.234 0.063 0.453 0.174 0.641l-0.003-0.006c0.351 0.606 1.13 0.815 1.74 0.465 0.608-0.35 0.818-1.127 0.466-1.734-0.225-0.383-0.635-0.636-1.104-0.636-0.234 0-0.454 0.063-0.642 0.173l0.006-0.003zM8.467 13.997c-0.325 0.189-0.539 0.535-0.539 0.931 0 0.198 0.054 0.383 0.147 0.542l-0.003-0.005c0.297 0.513 0.957 0.69 1.473 0.394 0.517-0.297 0.693-0.954 0.396-1.469-0.19-0.324-0.537-0.538-0.934-0.538-0.199 0-0.385 0.054-0.545 0.147l0.005-0.003zM11.168 13.020c-0.274 0.16-0.456 0.452-0.456 0.787 0 0.167 0.045 0.324 0.124 0.459l-0.002-0.004c0.161 0.274 0.455 0.455 0.791 0.455 0.167 0 0.324-0.045 0.459-0.123l-0.004 0.002c0.274-0.16 0.456-0.453 0.456-0.788 0-0.167-0.045-0.324-0.124-0.459l0.002 0.004c-0.162-0.274-0.455-0.454-0.791-0.454-0.168 0-0.325 0.045-0.46 0.124l0.004-0.002zM13.635 12.714c-0.235 0.136-0.391 0.386-0.391 0.673 0 0.143 0.038 0.276 0.106 0.391l-0.002-0.004c0.137 0.235 0.388 0.391 0.676 0.391 0.144 0 0.278-0.039 0.394-0.107l-0.004 0.002c0.234-0.136 0.389-0.386 0.389-0.672 0-0.143-0.039-0.277-0.107-0.392l0.002 0.004c-0.137-0.234-0.388-0.389-0.675-0.389-0.143 0-0.277 0.039-0.393 0.106l0.004-0.002zM15.749 12.918c-0.202 0.117-0.335 0.332-0.335 0.578 0 0.123 0.033 0.238 0.092 0.337l-0.002-0.003c0.121 0.185 0.328 0.306 0.562 0.306 0.37 0 0.67-0.3 0.67-0.67 0-0.11-0.027-0.214-0.074-0.306l0.002 0.004c-0.118-0.202-0.334-0.335-0.58-0.335-0.123 0-0.239 0.033-0.338 0.091l0.003-0.002zM17.487 13.472c-0.172 0.101-0.286 0.285-0.286 0.496 0 0.317 0.257 0.573 0.573 0.573 0.106 0 0.205-0.029 0.29-0.078l-0.003 0.001c0.173-0.1 0.287-0.285 0.287-0.495 0-0.106-0.029-0.204-0.079-0.289l0.001 0.003c-0.102-0.172-0.287-0.286-0.498-0.286-0.105 0-0.204 0.028-0.289 0.077l0.003-0.001zM7.614 11.24c-0.449 0.137-0.769 0.548-0.769 1.033 0 0.111 0.017 0.219 0.048 0.32l-0.002-0.008c0.158 0.416 0.553 0.707 1.016 0.707 0.599 0 1.084-0.485 1.084-1.084 0-0.087-0.010-0.172-0.030-0.253l0.002 0.007c-0.14-0.448-0.551-0.768-1.037-0.768-0.112 0-0.219 0.017-0.321 0.048l0.008-0.002zM10.308 10.287c-0.379 0.117-0.649 0.465-0.649 0.875 0 0.505 0.409 0.914 0.914 0.914 0.095 0 0.186-0.014 0.271-0.041l-0.006 0.002c0.397-0.105 0.685-0.462 0.685-0.886 0-0.505-0.41-0.915-0.915-0.915-0.108 0-0.211 0.019-0.307 0.053l0.006-0.002zM12.734 10c-0.321 0.099-0.55 0.393-0.55 0.74 0 0.427 0.346 0.773 0.773 0.773 0.080 0 0.157-0.012 0.229-0.034l-0.005 0.001c0.321-0.099 0.55-0.393 0.55-0.74 0-0.427-0.346-0.773-0.773-0.773-0.080 0-0.157 0.012-0.229 0.034l0.005-0.001zM14.834 10.223c-0.275 0.084-0.471 0.335-0.471 0.632 0 0.068 0.010 0.134 0.029 0.195l-0.001-0.005c0.087 0.272 0.337 0.465 0.633 0.465 0.366 0 0.663-0.297 0.663-0.663 0-0.065-0.009-0.129-0.027-0.188l0.001 0.005c-0.085-0.274-0.337-0.47-0.634-0.47-0.068 0-0.134 0.010-0.196 0.030l0.005-0.001zM16.544 10.8c-0.235 0.073-0.403 0.288-0.403 0.543 0 0.313 0.254 0.568 0.568 0.568 0.059 0 0.116-0.009 0.169-0.026l-0.004 0.001c0.247-0.066 0.425-0.287 0.425-0.55 0-0.314-0.254-0.568-0.568-0.568-0.067 0-0.132 0.012-0.191 0.033l0.004-0.001zM17.874 11.595c-0.202 0.063-0.346 0.248-0.346 0.466 0 0.269 0.218 0.487 0.487 0.487 0.050 0 0.099-0.008 0.145-0.022l-0.003 0.001c0.202-0.063 0.346-0.248 0.346-0.466 0-0.269-0.218-0.487-0.487-0.487-0.050 0-0.099 0.008-0.145 0.022l0.003-0.001zM10.104 7.888c-0.493 0.019-0.885 0.424-0.885 0.919 0 0.508 0.412 0.92 0.92 0.92 0.035 0 0.069-0.002 0.103-0.006l-0.004 0c0.48-0.035 0.856-0.434 0.856-0.92 0-0.023-0.001-0.045-0.002-0.067l0 0.003c-0.036-0.478-0.433-0.853-0.918-0.853-0.024 0-0.049 0.001-0.073 0.003l0.003-0zM12.511 7.61c-0.425 0.010-0.765 0.357-0.765 0.783 0 0.432 0.351 0.783 0.783 0.783 0.034 0 0.067-0.002 0.099-0.006l-0.004 0c0.425-0.010 0.765-0.357 0.765-0.783 0-0.432-0.351-0.783-0.783-0.783-0.034 0-0.067 0.002-0.099 0.006l0.004-0zM14.575 7.814c-0.359 0.017-0.644 0.313-0.644 0.675 0 0.373 0.303 0.676 0.676 0.676 0.023 0 0.046-0.001 0.069-0.004l-0.003 0c0.37-0.005 0.669-0.306 0.669-0.677 0-0.374-0.303-0.677-0.677-0.677-0.032 0-0.063 0.002-0.093 0.006l0.004-0zM16.278 8.382c-0.306 0.023-0.546 0.277-0.546 0.586 0 0.325 0.263 0.588 0.588 0.588 0.015 0 0.029-0.001 0.044-0.002l-0.002 0c0.306-0.023 0.546-0.277 0.546-0.586 0-0.325-0.263-0.588-0.588-0.588-0.015 0-0.029 0.001-0.044 0.002l0.002-0zM17.592 9.186c-0.274 0.005-0.494 0.228-0.494 0.502 0 0.277 0.225 0.502 0.502 0.502 0.022 0 0.044-0.001 0.065-0.004l-0.003 0c0.249-0.032 0.439-0.243 0.439-0.498 0-0.277-0.225-0.502-0.502-0.502-0.003 0-0.006 0-0.009 0h0zM18.549 10.101c-0.222 0.016-0.396 0.2-0.396 0.425 0 0.235 0.191 0.426 0.426 0.426 0.011 0 0.021-0 0.032-0.001l-0.001 0c0.222-0.016 0.396-0.2 0.396-0.425 0-0.235-0.191-0.426-0.426-0.426-0.011 0-0.021 0-0.032 0.001l0.001-0z"></path>
</svg>
