<!-- Generated by IcoMoon.io -->
<svg version="1.1" xmlns="http://www.w3.org/2000/svg" width="32" height="32" viewBox="0 0 32 32">
<title>msr</title>
<path fill="#fff" d="M16 32c-8.837 0-16-7.163-16-16s7.163-16 16-16 16 7.163 16 16-7.163 16-16 16zM16 6c-5.52 0-10 4.48-10 10 0 0.133 0.013 0.26 0.020 0.393h4.693l2.267-3.9 3.020 4.327 3.013-4.327 2.267 3.9h4.693c0.007-0.133 0.020-0.26 0.020-0.393 0.007-5.52-4.473-10-9.993-10zM22.893 15.187c-0.406-3.447-3.34-6.127-6.893-6.127s-6.487 2.687-6.893 6.127h-1.214c0.407-4.114 3.887-7.334 8.107-7.334s7.693 3.22 8.107 7.334h-1.214zM18.927 14.733l-2.927 4.2-2.927-4.2-1.666 2.867h-5.267c0.767 4.76 4.88 8.4 9.86 8.4s9.093-3.64 9.86-8.407h-5.267l-1.666-2.86zM22.347 18.8h1.293c-1.147 3.113-4.133 5.347-7.64 5.347s-6.493-2.234-7.64-5.347h1.293c1.080 2.433 3.514 4.14 6.347 4.14s5.267-1.707 6.347-4.14z"></path>
</svg>
