<!-- Generated by IcoMoon.io -->
<svg version="1.1" xmlns="http://www.w3.org/2000/svg" width="32" height="32" viewBox="0 0 32 32">
<title>ncash</title>
<path fill="#fff" d="M16 32c-8.837 0-16-7.163-16-16s7.163-16 16-16 16 7.163 16 16-7.163 16-16 16zM26.31 18.475c-0.175-0.077-0.395 0.036-0.49 0.254-0.028 0.057-0.044 0.124-0.044 0.195 0 0.086 0.024 0.167 0.066 0.235l-0.001-0.002-2.25 3.976c-0.017-0.002-0.037-0.003-0.057-0.003-0.067 0-0.13 0.014-0.188 0.039l0.003-0.001-1.49-1.518c0.009-0.037 0.014-0.079 0.014-0.123 0-0.23-0.137-0.428-0.334-0.516l-0.004-0.001v-9.794c0.094-0.042 0.172-0.107 0.229-0.186l0.001-0.002 3.669 1.966 0.012 0.049c0.067 0.228 0.27 0.365 0.453 0.306 0.182-0.058 0.276-0.291 0.208-0.52-0.062-0.209-0.236-0.34-0.406-0.317l-1.783-3.482 0.008-0.010c0.13-0.189 0.048-0.475-0.18-0.639-0.088-0.068-0.2-0.108-0.321-0.108-0.049 0-0.097 0.007-0.142 0.019l0.004-0.001-1.216-0.818c-0.026-0.184-0.133-0.338-0.283-0.426l-0.003-0.002c-0.085-0.053-0.189-0.085-0.3-0.085-0.062 0-0.122 0.010-0.177 0.028l0.004-0.001-2.826-1.612c-0.040-0.174-0.205-0.325-0.424-0.363-0.242-0.043-0.466 0.062-0.545 0.243l-6.119 1.112c-0.084-0.057-0.187-0.091-0.298-0.091-0.061 0-0.12 0.010-0.175 0.029l0.004-0.001c-0.25 0.079-0.41 0.301-0.374 0.512l-4.252 4.456c-0.19-0.012-0.383 0.136-0.462 0.369-0.023 0.058-0.036 0.125-0.036 0.195 0 0.121 0.039 0.233 0.106 0.323l-0.001-0.002-0.239 5.687c-0.127 0.104-0.195 0.3-0.161 0.506 0.040 0.23 0.192 0.404 0.368 0.439l1.62 3.757c-0.065 0.172-0.003 0.399 0.17 0.555 0.095 0.092 0.224 0.148 0.367 0.148 0.033 0 0.065-0.003 0.096-0.009l-0.003 0 3.938 2.842c-0.010 0.207 0.164 0.408 0.416 0.463 0.038 0.010 0.082 0.015 0.127 0.015 0.122 0 0.235-0.041 0.325-0.11l-0.001 0.001 5.098 0.357c0.098 0.145 0.302 0.223 0.517 0.182 0.188-0.029 0.341-0.154 0.409-0.322l0.001-0.004 4.338-2.598c0.011 0.001 0.023 0.001 0.036 0.001 0.155 0 0.294-0.064 0.394-0.168l0-0c0.148-0.147 0.205-0.347 0.16-0.509l2.226-4.103c0.158-0.026 0.287-0.132 0.344-0.274l0.001-0.003c0.095-0.218 0.030-0.457-0.145-0.534zM26.314 18.95c-0.039 0.087-0.127 0.133-0.196 0.102-0.071-0.032-0.097-0.127-0.059-0.214s0.126-0.132 0.196-0.102c0.070 0.030 0.097 0.126 0.059 0.214zM23.649 23.742c-0.080 0.080-0.197 0.090-0.26 0.025s-0.048-0.185 0.031-0.265c0.081-0.080 0.197-0.090 0.26-0.024s0.049 0.185-0.031 0.264zM23.020 23.492l-3.974 1.374c-0.052-0.057-0.115-0.103-0.186-0.134l-0.004-0.001-0.186-2.707c0.1-0.058 0.179-0.143 0.229-0.246l0.001-0.003h1.918c0.090 0.19 0.279 0.32 0.499 0.32 0 0 0 0 0.001 0 0.105 0 0.204-0.030 0.287-0.082l-0.002 0.001 1.43 1.454-0.012 0.024zM18.852 26.278c-0.029-0.027-0.063-0.050-0.099-0.068l-0.003-0.001 0.096-0.564c0.153-0.061 0.269-0.189 0.312-0.346l0.001-0.004 3.16-1.093zM18.527 26.816c-0.11 0.020-0.213-0.036-0.23-0.127-0.016-0.091 0.060-0.182 0.17-0.201 0.11-0.022 0.213 0.035 0.229 0.126s-0.060 0.182-0.17 0.202zM18.023 26.418l-3.808-0.265 3.978-0.642c0.057 0.062 0.13 0.11 0.213 0.142l-0.091 0.535c-0.124 0.040-0.226 0.122-0.291 0.228l-0.001 0.002zM14.302 22.082c0.066-0.016 0.123-0.041 0.175-0.074l-0.002 0.001 3.549 3.080-5.016 0.81zM12.637 25.637l-1.257-3.781c0.016-0.023 0.031-0.049 0.045-0.076l0.002-0.004h2.256c0.042 0.090 0.107 0.166 0.188 0.222zM12.484 26.372c-0.11-0.024-0.183-0.116-0.164-0.207 0.019-0.090 0.124-0.144 0.233-0.12s0.182 0.116 0.163 0.207c-0.018 0.090-0.123 0.144-0.232 0.12zM8.397 22.96c0.005-0.024 0.007-0.052 0.007-0.080 0-0.012-0.001-0.024-0.001-0.036l0 0.002 2.123-0.925c0.101 0.108 0.243 0.175 0.402 0.175 0.025 0 0.050-0.002 0.074-0.005l-0.003 0 1.203 3.616zM8.041 22.362l-0.943-4.648 3.376 3.49c-0.058 0.084-0.095 0.187-0.1 0.299l-0 0.001-2.183 0.951c-0.043-0.036-0.093-0.067-0.146-0.091l-0.004-0.002zM8.018 22.971c-0.060 0.070-0.177 0.064-0.26-0.011-0.085-0.075-0.104-0.193-0.044-0.263s0.177-0.063 0.26 0.012c0.085 0.076 0.103 0.194 0.044 0.262zM6.228 18.638c0.063-0.091 0.101-0.203 0.101-0.325 0-0.059-0.009-0.117-0.026-0.17l0.001 0.004 0.307-0.654 0.779 3.838zM6.2 14.298l0.16 2.203c-0.054 0.085-0.087 0.188-0.087 0.299 0 0.095 0.024 0.185 0.066 0.264l-0.001-0.003-0.278 0.59zM6 11.647c0.037-0.108 0.135-0.17 0.22-0.14 0.087 0.030 0.126 0.143 0.090 0.25-0.038 0.109-0.136 0.171-0.222 0.141-0.085-0.030-0.126-0.143-0.089-0.251zM6.844 16.8c0 0.115-0.083 0.207-0.183 0.207-0.101 0-0.184-0.092-0.184-0.207 0-0.114 0.083-0.206 0.184-0.206 0.1 0 0.183 0.092 0.183 0.206zM6.614 11.914c0.012-0.034 0.022-0.074 0.028-0.116l0-0.004 1.904-1.293-1.779 5.63-0.29-3.99c0.060-0.063 0.107-0.139 0.136-0.224l0.001-0.004zM9.64 8.329l-0.743 1.21c-0.122 0.030-0.225 0.096-0.301 0.186l-0.001 0.001c-0.073 0.083-0.124 0.188-0.142 0.304l-0 0.003-1.247 0.846zM10.894 7.122c0.085 0.015 0.18 0.010 0.273-0.019 0.128-0.039 0.234-0.118 0.307-0.222l0.001-0.002 3.268 0.724c0.016 0.099 0.055 0.187 0.111 0.26l-0.001-0.001-1.070 2.275c-0.174 0.038-0.315 0.153-0.388 0.307l-0.001 0.003h-1.967c-0.090-0.19-0.28-0.319-0.5-0.32h-0c-0 0-0 0-0.001 0-0.156 0-0.297 0.066-0.396 0.171l-0 0-1.175-0.36c0.001-0.011 0.002-0.024 0.002-0.037 0-0.072-0.018-0.14-0.051-0.2l0.001 0.002zM10.952 6.469c0.108-0.034 0.215 0.011 0.241 0.1s-0.039 0.187-0.146 0.22c-0.106 0.033-0.214-0.011-0.241-0.1s0.040-0.187 0.146-0.22zM17.2 5.705l-1.727 1.276c-0.055-0.020-0.118-0.032-0.184-0.032-0.18 0-0.34 0.088-0.439 0.224l-0.001 0.002-2.581-0.571zM17.805 5.802c0.033 0.014 0.071 0.025 0.111 0.032l0.004 0.001c0.164 0.029 0.32-0.010 0.428-0.095l2.674 1.524-0.011 0.038-5.045-0.14zM18.043 5.183c0.11 0.020 0.187 0.11 0.171 0.2-0.016 0.092-0.118 0.15-0.228 0.13s-0.186-0.11-0.171-0.2c0.015-0.092 0.117-0.15 0.228-0.13zM21.276 7.908l-0.192 2.271c-0.117 0.057-0.21 0.15-0.265 0.264l-0.001 0.003h-2.256c-0.091-0.189-0.281-0.318-0.502-0.318-0.042 0-0.083 0.005-0.123 0.014l0.004-0.001-2.124-2.45c0.009-0.026 0.016-0.056 0.020-0.088l0-0.002 5.264 0.145c0.048 0.065 0.106 0.119 0.172 0.16l0.003 0.002zM21.316 10.466c0.123 0 0.223 0.102 0.223 0.227s-0.1 0.226-0.222 0.226-0.222-0.101-0.222-0.226 0.1-0.227 0.222-0.227zM21.415 7.266c0.055-0.096 0.185-0.123 0.291-0.060s0.147 0.192 0.092 0.288c-0.055 0.097-0.186 0.124-0.29 0.060-0.107-0.062-0.148-0.192-0.093-0.288zM25.33 12.584l-3.46-1.938c-0.017-0.217-0.155-0.399-0.346-0.479l-0.004-0.001 0.183-2.169zM23.037 8.587c-0.020 0.167 0.068 0.357 0.239 0.478 0.082 0.061 0.184 0.101 0.294 0.11l0.002 0 1.278 2.285-2.627-3.42zM23.417 8.53c0.052-0.076 0.168-0.084 0.26-0.019s0.124 0.18 0.072 0.256c-0.052 0.076-0.169 0.084-0.26 0.019-0.092-0.066-0.124-0.18-0.071-0.256zM17.847 10.693c0-0.123 0.095-0.222 0.216-0.222 0.12 0 0.217 0.1 0.217 0.222 0 0 0 0.001 0 0.001 0 0.12-0.097 0.218-0.217 0.22h-0c-0.12-0.001-0.217-0.098-0.217-0.218 0-0.001 0-0.002 0-0.003v0zM17.966 15.466c0.123 0 0.221 0.101 0.221 0.226 0 0.001 0 0.002 0 0.003 0 0.123-0.099 0.222-0.221 0.224h-0c-0.123-0.001-0.222-0.101-0.222-0.224 0-0.001 0-0.002 0-0.003v0c0-0.125 0.1-0.226 0.222-0.226zM15.069 7.442c0-0.125 0.099-0.227 0.221-0.227s0.222 0.102 0.222 0.227-0.1 0.226-0.222 0.226c-0.122-0.002-0.221-0.101-0.221-0.224 0-0.001 0-0.001 0-0.002v0zM15.231 8.079c0.018 0.002 0.038 0.003 0.058 0.003 0.088 0 0.17-0.020 0.244-0.057l-0.003 0.001 2.059 2.373c-0.052 0.084-0.083 0.186-0.083 0.295 0 0.231 0.138 0.429 0.336 0.518l0.004 0.001v3.926c-0.037 0.008-0.069 0.018-0.1 0.031l0.004-0.001-3.38-4.19c0.048-0.082 0.076-0.181 0.076-0.286 0-0.187-0.089-0.354-0.228-0.459l-0.001-0.001zM13.671 10.693c0-0.125 0.1-0.227 0.222-0.227s0.221 0.102 0.221 0.227-0.1 0.226-0.221 0.226c-0.123-0.001-0.222-0.101-0.222-0.224 0-0.001 0-0.001 0-0.002v0zM10.711 10.693c0-0.123 0.096-0.222 0.216-0.222s0.217 0.1 0.217 0.222-0.097 0.221-0.217 0.221-0.216-0.099-0.216-0.221zM10.927 21.303c0.123 0 0.222 0.1 0.222 0.226 0 0.001 0 0.002 0 0.003 0 0.123-0.099 0.222-0.222 0.223h-0c-0.122-0.002-0.22-0.101-0.22-0.223 0-0.001 0-0.002 0-0.003v0c0-0.125 0.098-0.226 0.22-0.226zM8.731 9.843c0.075-0.086 0.19-0.106 0.257-0.044 0.068 0.060 0.063 0.18-0.010 0.265-0.075 0.087-0.19 0.106-0.258 0.045s-0.062-0.18 0.010-0.266zM7.106 16.502l1.92-6.077c0.048-0.025 0.089-0.054 0.126-0.087l-0 0 1.222 0.375c0.007 0.223 0.142 0.413 0.333 0.5l0.004 0.001v9.603l-3.602-3.722c0.051-0.082 0.082-0.183 0.082-0.29 0-0.002 0-0.004-0-0.005v0c0-0.001 0-0.002 0-0.003 0-0.109-0.032-0.211-0.086-0.297l0.001 0.002zM18.4 20.962c-0.051 0.001-0.1 0.008-0.147 0.021l0.004-0.001-3.484-4.33c0.024-0.060 0.038-0.13 0.038-0.203 0-0.309-0.25-0.559-0.558-0.56h-0c-0.307 0.003-0.554 0.253-0.554 0.56 0 0.002 0 0.005 0 0.007v-0c0 0 0 0.001 0 0.001 0 0.202 0.105 0.38 0.264 0.481l0.002 0.001v4.069c-0.141 0.063-0.249 0.178-0.302 0.32l-0.001 0.004h-2.215c-0.054-0.146-0.162-0.261-0.299-0.323l-0.004-0.001v-9.794c0.141-0.063 0.249-0.178 0.302-0.32l0.001-0.004h1.926c0.079 0.216 0.283 0.368 0.523 0.368 0.044 0 0.087-0.005 0.128-0.015l-0.004 0.001 3.428 4.248c-0.023 0.059-0.036 0.126-0.036 0.197 0 0.001 0 0.002 0 0.003v-0c-0 0.002-0 0.005-0 0.007 0 0.307 0.247 0.557 0.554 0.56h0c0.307-0.003 0.555-0.253 0.555-0.561 0-0.002 0-0.004-0-0.006v0c0-0.001 0-0.001 0-0.002 0-0.191-0.094-0.36-0.238-0.464l-0.002-0.001v-4.010c0.14-0.064 0.248-0.179 0.3-0.321l0.001-0.004h2.216c0.053 0.146 0.161 0.261 0.298 0.323l0.004 0.001v9.794c-0.141 0.063-0.249 0.178-0.301 0.32l-0.001 0.004h-1.878c-0.078-0.216-0.281-0.369-0.52-0.37h-0zM18.64 25.009c0.123 0 0.223 0.090 0.223 0.202s-0.1 0.201-0.222 0.201c-0.121 0-0.22-0.090-0.22-0.2s0.099-0.203 0.22-0.203zM18.179 21.529c0-0.125 0.099-0.226 0.22-0.226 0.124 0 0.223 0.1 0.223 0.226 0 0.001 0 0.002 0 0.003 0 0.123-0.099 0.222-0.222 0.223h-0c-0.122-0.001-0.221-0.101-0.221-0.223 0-0.001 0-0.002 0-0.003v0zM14.032 16.456c0-0.126 0.1-0.226 0.222-0.226s0.221 0.1 0.221 0.226c0 0.001 0 0.002 0 0.003 0 0.122-0.099 0.222-0.221 0.223h-0c-0.123-0.001-0.222-0.101-0.222-0.224 0-0.001 0-0.001 0-0.002v0zM14.182 21.303c0.122 0 0.221 0.1 0.221 0.226 0 0.001 0 0.002 0 0.003 0 0.122-0.099 0.222-0.221 0.223h-0c-0.123-0.001-0.222-0.1-0.222-0.223 0-0.001 0-0.002 0-0.003v0c0-0.125 0.1-0.226 0.222-0.226zM14.398 21.008v-4.006c0.029-0.008 0.054-0.017 0.078-0.027l-0.003 0.001 3.442 4.28c-0.043 0.078-0.069 0.172-0.069 0.271 0 0.001 0 0.002 0 0.002v-0c0 0.255 0.165 0.47 0.39 0.542l0.184 2.644c-0.040 0.014-0.074 0.030-0.106 0.048l0.003-0.001-3.593-3.117c0.008-0.036 0.013-0.077 0.013-0.119 0-0.23-0.138-0.428-0.335-0.517l-0.004-0.001zM21.538 21.528c0 0.001 0 0.002 0 0.003 0 0.123-0.099 0.222-0.221 0.224h-0c-0.123-0.001-0.222-0.1-0.222-0.223 0-0.001 0-0.002 0-0.003v0c0-0.125 0.1-0.226 0.222-0.226s0.222 0.1 0.222 0.226zM5.828 18.507c-0.090 0.017-0.177-0.062-0.195-0.175-0.020-0.113 0.037-0.217 0.127-0.232s0.176 0.063 0.196 0.176c0.019 0.112-0.039 0.216-0.128 0.231zM25.8 12.793c0.073-0.023 0.155 0.031 0.18 0.123 0.028 0.091-0.010 0.185-0.082 0.208-0.073 0.023-0.154-0.032-0.181-0.123s0.010-0.185 0.083-0.208z"></path>
</svg>
