<!-- Generated by IcoMoon.io -->
<svg version="1.1" xmlns="http://www.w3.org/2000/svg" width="32" height="32" viewBox="0 0 32 32">
<title>nebl</title>
<path fill="#fff" d="M11.29 8.162l-3.467 1.898c-0.375 0.243-0.682 0.557-0.911 0.925l-0.007 0.013c-0.254 0.409-0.404 0.905-0.405 1.436v0l0.007 2.572-0.007-0.006v4.566c0 0.53 0.155 1.038 0.432 1.478 0.259 0.41 0.625 0.76 1.075 1.007l6.486 3.566c0.433 0.241 0.95 0.383 1.5 0.383 0.022 0 0.044-0 0.066-0.001l-0.003 0v-4.323l-4.78-2.628-0.344-0.203-0.007-0.198v-5.445l4.756-2.622-0.012-0.012 0.023 0.013 0.364-0.2v-4.381c-0.018-0-0.039-0.001-0.059-0.001-0.475 0-0.926 0.106-1.33 0.295l0.019-0.008-3.402 1.87 0.007 0.005zM16 32c-8.837 0-16-7.163-16-16s7.163-16 16-16 16 7.163 16 16-7.163 16-16 16zM20.36 13.66l-4.307 2.368v4.782l4.307-2.367v-4.783zM25.5 12.434c0-0.495-0.135-0.97-0.379-1.39l-3.934 2.163v5.679l-0.406 0.223v4.707l3.212-1.765c0.458-0.253 0.831-0.61 1.097-1.039l0.007-0.013c0.253-0.408 0.403-0.904 0.403-1.434v-7.13zM23.993 9.95l-3.212-1.766-4.334 2.383 4.74 2.605v0.036l3.934-2.163c-0.274-0.462-0.656-0.834-1.113-1.087l-0.015-0.008zM16.055 10.381l0.392 0.185 4.334-2.382-3.274-1.8c-0.419-0.233-0.918-0.374-1.45-0.382l-0.002-0v4.38zM16.083 21.692l-0.028-0.015v4.323c0.534-0.008 1.033-0.149 1.468-0.39l-0.016 0.008 3.222-1.772-4.282-2.354-0.364 0.2zM20.781 19.11l-4.334 2.382 4.282 2.354 0.052-0.029v-4.707z"></path>
</svg>
