<!-- Generated by IcoMoon.io -->
<svg version="1.1" xmlns="http://www.w3.org/2000/svg" width="32" height="32" viewBox="0 0 32 32">
<title>nuls</title>
<path fill="#fff" d="M16 32c-8.837 0-16-7.163-16-16s7.163-16 16-16 16 7.163 16 16-7.163 16-16 16zM14.403 19.36l-0.018 4.492-2.825-1.447 0.065-9.454 4.744 6.223 4.274 2.387 1.357-1.118v-11.664l-5.972-2.779 0.064 6.8 1.413 1.873 0.129-6.196 2.668 1.331v9.88l-3.019-1.846-5.465-7.164c-0.117-0.154-0.301-0.253-0.507-0.253-0.159 0-0.305 0.059-0.416 0.155l0.001-0.001-0.683 0.586c-0.13 0.109-0.212 0.271-0.212 0.453v11.718l6 2.663v-4.536z"></path>
</svg>
