<!-- Generated by IcoMoon.io -->
<svg version="1.1" xmlns="http://www.w3.org/2000/svg" width="32" height="32" viewBox="0 0 32 32">
<title>nxs</title>
<path fill="#fff" d="M10.618 31.072c3.323-0.561 7.186-2.1 10.933-4.533 5.432-3.528 9.244-8.042 10.398-11.82 0.034 0.422 0.051 0.85 0.051 1.281 0 8.837-7.163 16-16 16-1.888 0-3.7-0.327-5.382-0.928zM2.005 23.76c-1.262-2.229-2.005-4.896-2.005-7.736 0-0.008 0-0.017 0-0.025v0.001c0-8.837 7.163-16 16-16 6.12 0 11.437 3.435 14.128 8.483-3.574-2.143-10.902-0.705-17.836 3.798-1.544 1.006-2.883 2.030-4.142 3.142l0.037-0.032c-0.327-0.243-0.74-0.389-1.186-0.389-1.105 0-2 0.895-2 2 0 0.452 0.15 0.869 0.403 1.204l-0.004-0.005c-1.623 1.885-2.789 3.795-3.394 5.56zM5.755 18.565c0.338 0.271 0.773 0.435 1.246 0.435 1.105 0 2-0.895 2-2 0-0.431-0.136-0.831-0.369-1.157l0.004 0.006c0.54-0.423 1.114-0.833 1.717-1.225 5.442-3.534 11.245-4.256 12.962-1.613s-1.304 7.65-6.746 11.185c-5.442 3.534-11.245 4.256-12.961 1.613-1.136-1.75-0.197-4.536 2.146-7.244z"></path>
</svg>
