<!-- Generated by IcoMoon.io -->
<svg version="1.1" xmlns="http://www.w3.org/2000/svg" width="32" height="32" viewBox="0 0 32 32">
<title>omg</title>
<path fill="#fff" d="M16 32c-8.837 0-16-7.163-16-16s7.163-16 16-16 16 7.163 16 16-7.163 16-16 16zM11.856 17.29c-2.403 0.002-4.35 1.95-4.35 4.353 0 0.001 0 0.001 0 0.002v-0c0 0.001 0 0.001 0 0.002 0 2.403 1.947 4.351 4.349 4.353h0c2.404-0.001 4.352-1.949 4.352-4.353 0-0.001 0-0.001 0-0.002v0c0-0.001 0-0.001 0-0.002 0-2.403-1.948-4.352-4.351-4.353h-0zM11.856 24.683c-1.675-0.001-3.033-1.36-3.033-3.035 0-0 0-0.001 0-0.001v0c0-0.001 0-0.001 0-0.002 0-1.675 1.358-3.034 3.033-3.035h0c1.676 0.001 3.034 1.359 3.034 3.035 0 0.001 0 0.001 0 0.002v-0c-0.002 1.675-1.359 3.033-3.034 3.036h-0zM21.15 8c-2.403 0.001-4.351 1.95-4.351 4.353 0 0.001 0 0.001 0 0.002v-0c0 0.001 0 0.001 0 0.002 0 2.403 1.947 4.351 4.35 4.353h0c2.404-0.001 4.352-1.949 4.352-4.353 0-0.001 0-0.001 0-0.002v0c0-0.001 0-0.001 0-0.002 0-2.404-1.948-4.352-4.352-4.353h-0zM21.15 15.393c-1.676-0.001-3.034-1.359-3.034-3.035 0-0 0-0.001 0-0.001v0c0-0.001 0-0.001 0-0.002 0-1.676 1.358-3.034 3.034-3.035h0c1.675 0.001 3.033 1.36 3.033 3.035 0 0.001 0 0.001 0 0.002v-0c-0.002 1.675-1.358 3.032-3.033 3.036h-0zM11.856 8c-2.404 0.003-4.352 1.953-4.352 4.358 0 1.792 1.082 3.332 2.628 4.001l0.028 0.011c0.5 0.217 1.082 0.343 1.694 0.343 1.487 0 2.8-0.746 3.585-1.885l0.010-0.015c0.475-0.688 0.759-1.54 0.759-2.458 0-1.182-0.471-2.255-1.235-3.040l0.001 0.001h1.233v-1.317h-4.35zM14.89 12.355c0 0 0 0.001 0 0.001 0 1.676-1.358 3.034-3.034 3.035h-0c-1.675-0.001-3.033-1.36-3.033-3.035 0-0 0-0.001 0-0.001v0c0-0 0-0.001 0-0.001 0-1.675 1.358-3.034 3.033-3.035h0c1.675 0.003 3.033 1.361 3.035 3.036v0h-0.001z"></path>
</svg>
