<!-- Generated by IcoMoon.io -->
<svg version="1.1" xmlns="http://www.w3.org/2000/svg" width="32" height="32" viewBox="0 0 32 32">
<title>pasc</title>
<path fill="#fff" d="M16 32c-8.837 0-16-7.163-16-16s7.163-16 16-16 16 7.163 16 16-7.163 16-16 16zM16 4c-6.627 0-12 5.373-12 12s5.373 12 12 12 12-5.373 12-12c0-6.627-5.373-12-12-12v0zM22 9.813c1.243 0 2.25 1.007 2.25 2.25v0 3.374c0 1.243-1.007 2.25-2.25 2.25v0h-2.786l-0.18 0.844c-0.051 0.21-0.233 0.365-0.453 0.375l-0.001 0h-0.563c-0.004 0-0.008 0-0.012 0-0.162 0-0.294-0.132-0.294-0.294 0-0.029 0.004-0.057 0.012-0.083l-0.001 0.002 0.18-0.843h-1.313l-0.18 0.843c-0.051 0.21-0.233 0.365-0.453 0.375l-0.001 0h-0.563c-0.004 0-0.008 0-0.012 0-0.162 0-0.294-0.132-0.294-0.294 0-0.029 0.004-0.057 0.012-0.083l-0.001 0.002 0.18-0.843h-1.407l-1.236 5.812h-3l2.192-10.313h3l-0.478 2.25h5.777c0.621 0 1.125-0.503 1.125-1.124v-1.126c0-0.62-0.504-1.124-1.125-1.124h-12.375l1.875-2.25h7.326l0.179-0.844c0.051-0.21 0.233-0.365 0.453-0.375l0.001-0h0.563c0.004-0 0.008-0 0.012-0 0.162 0 0.294 0.132 0.294 0.294 0 0.029-0.004 0.057-0.012 0.083l0.001-0.002-0.179 0.844h1.313l0.179-0.844c0.051-0.21 0.233-0.365 0.453-0.375l0.001-0h0.563c0.004-0 0.008-0 0.012-0 0.162 0 0.294 0.132 0.294 0.294 0 0.029-0.004 0.057-0.012 0.083l0.001-0.002-0.179 0.844h1.112z"></path>
</svg>
