<!-- Generated by IcoMoon.io -->
<svg version="1.1" xmlns="http://www.w3.org/2000/svg" width="32" height="32" viewBox="0 0 32 32">
<title>pink</title>
<path fill="#fff" d="M16 32c-8.837 0-16-7.163-16-16s7.163-16 16-16 16 7.163 16 16-7.163 16-16 16zM23.452 8.929c-1.789-1.809-4.271-2.929-7.015-2.929-0.002 0-0.005 0-0.007 0h0c-5.484 0-9.93 4.477-9.93 10 0 2.624 1.003 5.011 2.644 6.795v-7.121h0.008c0.169-3.9 3.363-7.011 7.278-7.011 2.012 0 3.833 0.821 5.152 2.149zM23.452 23.071l-1.87-1.883c-1.277 1.291-3.034 2.103-4.982 2.147l-0.008 0v2.665c2.687-0.044 5.107-1.155 6.859-2.927l0.001-0.001zM11.68 24.784c0.755 0.415 1.57 0.735 2.429 0.941v-5.511c0.728 0.43 1.576 0.677 2.482 0.677 2.712 0 4.911-2.214 4.911-4.945s-2.199-4.946-4.91-4.946c-2.623 0-4.765 2.069-4.905 4.674h-0.007zM16.591 18.446c-1.372-0.005-2.482-1.118-2.482-2.491 0-0.003 0-0.006 0-0.009v0.001c0-1.381 1.111-2.5 2.482-2.5s2.483 1.119 2.483 2.5c0 1.38-1.112 2.5-2.483 2.5z"></path>
<path fill="#fff" opacity="0.5" d="M23.452 8.929l-1.87 1.883c-1.313-1.327-3.134-2.149-5.147-2.149-0.002 0-0.004 0-0.005 0h0c-3.915 0-7.11 3.11-7.278 7.010h-0.008v7.122c-1.639-1.776-2.644-4.158-2.644-6.775 0-0.007 0-0.014 0-0.021v0.001c0-5.523 4.446-10 9.93-10 0.002 0 0.005 0 0.007 0 2.744 0 5.226 1.12 7.014 2.928l0.001 0.001zM23.452 23.071c-1.753 1.773-4.173 2.885-6.852 2.929l-0.008 0v-2.664c1.956-0.044 3.713-0.856 4.989-2.146l0.001-0.001z"></path>
</svg>
