<!-- Generated by IcoMoon.io -->
<svg version="1.1" xmlns="http://www.w3.org/2000/svg" width="32" height="32" viewBox="0 0 32 32">
<title>plr</title>
<path fill="#fff" d="M16 32c-8.837 0-16-7.163-16-16s7.163-16 16-16 16 7.163 16 16-7.163 16-16 16zM8.41 20.902c0.496 0.507 1.246 0.738 2.257 0.735 2.16 0 3.954-1.866 3.954-4.997v-0.39c0-3.010-1.55-5.262-3.914-5.262-0.564 0-1.57 0.021-2.358 0.777h-0.089v-0.64h-2.26v13.875h2.312v-4.098zM12.474 16.826c0 2.019-0.865 2.933-2.038 2.936-1.49 0-2.249-1.274-2.249-2.939v-0.68c0-1.747 0.771-3.271 2.209-3.271 1.331 0 2.078 1.31 2.078 3.271zM15.74 7v14.576h2.315v-14.576zM24.669 13.409h0.29l-0.013-2.333c-0.1 0-0.015-0.003-0.119-0.003-1.042-0.015-2.31 0.241-2.827 0.787h-0.088v-0.637h-2.133v10.362h2.303v-5.844c0-1.302 1.289-2.332 2.587-2.332zM23.697 19.095v2.481h2.303v-2.481z"></path>
</svg>
