<!-- Generated by IcoMoon.io -->
<svg version="1.1" xmlns="http://www.w3.org/2000/svg" width="32" height="32" viewBox="0 0 32 32">
<title>prl</title>
<path fill="#fff" d="M16 32c-8.837 0-16-7.163-16-16s7.163-16 16-16 16 7.163 16 16-7.163 16-16 16zM24.281 20.867h-0.117c-0.76 0-1.521 0-2.282-0.002-0.004 0-0.009 0-0.014 0-0.069 0-0.134-0.015-0.192-0.041l0.003 0.001c-0.208-0.106-0.226-0.346-0.044-0.527 0.552-0.549 1.104-1.098 1.657-1.645 0.753-0.745 1.509-1.487 2.259-2.235 0.399-0.397 0.54-0.882 0.39-1.421-0.424-1.515-1.152-2.825-2.119-3.92l0.009 0.011c-1.937-2.2-4.382-3.395-7.318-3.57-0.173-0.011-0.375-0.017-0.579-0.017-1.106 0-2.169 0.18-3.163 0.513l0.070-0.020c-1.876 0.607-3.46 1.678-4.671 3.081l-0.011 0.013c-0.847 0.97-1.518 2.119-1.946 3.38l-0.021 0.071c-0.075 0.224-0.15 0.452-0.18 0.684-0.060 0.472 0.103 0.877 0.442 1.212l0.902 0.898c0.985 0.98 1.971 1.958 2.954 2.94 0.063 0.057 0.11 0.128 0.138 0.209l0.001 0.004c0.052 0.21-0.102 0.38-0.333 0.38h-2.411c-0.015 0.393 0.004 0.765 0.128 1.128 0.28 0.821 1.1 1.45 1.967 1.497 0.087 0.005 0.174 0.007 0.262 0.007 3.96 0 7.919 0 11.879 0.002 0.478 0 0.923-0.105 1.322-0.37 0.833-0.552 1.102-1.402 1.018-2.263zM8.442 21.407h15.11c0 0.001 0 0.002 0 0.004 0 0.32-0.105 0.615-0.283 0.853l0.003-0.004c-0.278 0.375-0.65 0.585-1.122 0.611-0.042 0.002-0.091 0.004-0.14 0.004l-12.028 0.001c-0.522 0-0.943-0.195-1.255-0.611-0.176-0.237-0.282-0.534-0.285-0.856v-0.001zM18.71 13.66l-0.844 1.417c0.829 0.662 1.27 1.512 1.25 2.578-0.009 0.728-0.28 1.39-0.721 1.901l0.003-0.004c-0.578 0.688-1.438 1.123-2.401 1.123-0.551 0-1.068-0.142-1.517-0.392l0.016 0.008c-0.972-0.54-1.618-1.56-1.618-2.731 0-0.429 0.087-0.838 0.244-1.21l-0.008 0.020-1.414-0.831c-0.060 0.15-0.121 0.292-0.171 0.437-0.161 0.448-0.255 0.966-0.255 1.505 0 0.167 0.009 0.332 0.026 0.494l-0.002-0.020c0.084 0.824 0.368 1.577 0.852 2.253 0.091 0.128 0.11 0.265 0.033 0.404-0.113 0.201-0.374 0.23-0.547 0.060-0.301-0.294-0.598-0.591-0.897-0.888l-3.56-3.54c-0.325-0.322-0.422-0.696-0.274-1.132 0.587-1.723 1.5-3.242 2.845-4.487 0.286-0.265 0.604-0.496 0.91-0.739 0.046-0.036 0.067-0.070 0.069-0.13 0.010-0.36 0.304-0.648 0.666-0.648 0.107 0 0.208 0.025 0.297 0.070l-0.004-0.002c0.025 0.015 0.056 0.024 0.088 0.024s0.062-0.008 0.088-0.023l-0.001 0c0.635-0.314 1.373-0.565 2.147-0.717l0.056-0.009c0.594-0.118 1.277-0.186 1.976-0.186 0.279 0 0.556 0.011 0.831 0.032l-0.036-0.002c1.234 0.078 2.378 0.39 3.413 0.892l-0.054-0.024c0.034 0.017 0.090 0.015 0.127 0 0.078-0.034 0.17-0.054 0.266-0.054 0.352 0 0.641 0.266 0.678 0.608l0 0.003c0.005 0.040 0.040 0.090 0.075 0.114 0.757 0.537 1.406 1.159 1.954 1.863l0.015 0.021c0.698 0.894 1.271 1.929 1.666 3.049l0.023 0.076c0.053 0.15 0.11 0.302 0.137 0.458 0.065 0.36-0.050 0.668-0.31 0.926l-3.589 3.567c-0.296 0.294-0.59 0.59-0.889 0.882-0.204 0.198-0.513 0.11-0.582-0.161-0.006-0.024-0.009-0.052-0.009-0.081 0-0.084 0.029-0.161 0.078-0.222l-0.001 0.001c0.356-0.5 0.61-1.045 0.75-1.643 0.081-0.323 0.128-0.694 0.128-1.076 0-0.313-0.031-0.619-0.091-0.914l0.005 0.029c-0.238-1.208-0.864-2.171-1.852-2.907-0.018-0.014-0.038-0.024-0.067-0.043zM23.375 16.7c0.027-0.023 0.046-0.035 0.062-0.050l0.924-0.919c0.069-0.063 0.113-0.154 0.113-0.255 0-0.043-0.008-0.084-0.022-0.122l0.001 0.002c-0.371-1.165-0.899-2.178-1.569-3.077l0.019 0.027c-0.118-0.16-0.245-0.313-0.37-0.474l-0.099 0.093c-0.35 0.339-0.7 0.679-1.051 1.017-0.158 0.153-0.329 0.148-0.484-0.008-0.087-0.088-0.172-0.177-0.262-0.262-1.122-1.053-2.452-1.655-3.985-1.82-0.009-0.002-0.020-0.002-0.030-0.002-0.057 0-0.108 0.025-0.143 0.065l-0 0c-0.12 0.127-0.29 0.205-0.478 0.205-0.186 0-0.354-0.077-0.473-0.2l-0-0c-0.063-0.064-0.122-0.077-0.203-0.068-0.674 0.072-1.292 0.231-1.87 0.466l0.046-0.017c-0.228 0.093-0.45 0.2-0.68 0.304l0.646 1.117c2.12-0.956 4.137-0.844 5.948 0.627 1.743 1.416 2.276 3.297 1.838 5.467 0.007-0.007 0.026-0.019 0.042-0.034 0.46-0.457 0.92-0.913 1.377-1.373 0.027-0.033 0.044-0.077 0.044-0.124 0-0.003-0-0.006-0-0.008v0c-0.026-0.843-0.207-1.636-0.513-2.363l0.016 0.043c-0.031-0.092-0.109-0.161-0.204-0.18l-0.002-0c-0.284-0.078-0.488-0.334-0.488-0.637 0-0.077 0.013-0.151 0.038-0.22l-0.001 0.005c0.126-0.36 0.53-0.55 0.88-0.412 0.255 0.097 0.432 0.339 0.432 0.622 0 0.104-0.024 0.201-0.066 0.289l0.002-0.004c-0.030 0.062-0.024 0.109 0.001 0.168 0.214 0.473 0.385 1.023 0.486 1.598l0.006 0.042c0.026 0.153 0.050 0.306 0.076 0.471zM22.109 11.39c-0.008-0.015-0.011-0.025-0.018-0.032-0.34-0.347-0.71-0.66-1.107-0.938l-0.025-0.017c-0.025-0.017-0.076-0.016-0.107-0.004-0.076 0.033-0.165 0.052-0.258 0.052-0.337 0-0.615-0.248-0.663-0.572l-0-0.004c-0.010-0.070-0.040-0.102-0.1-0.13-0.878-0.42-1.901-0.696-2.98-0.767l-0.025-0.001c-1.13-0.080-2.248 0-3.343 0.311-0.52 0.148-0.966 0.323-1.391 0.537l0.045-0.021c-0.035 0.021-0.060 0.054-0.071 0.093l-0 0.001c-0.059 0.314-0.332 0.549-0.659 0.549-0.064 0-0.126-0.009-0.185-0.026l0.005 0.001c-0.089-0.024-0.144-0.009-0.204 0.044-0.018 0.015-0.038 0.027-0.057 0.040-1.667 1.234-2.737 2.885-3.41 4.816-0.063 0.182-0.020 0.32 0.115 0.45 0.29 0.281 0.574 0.569 0.86 0.854l0.086 0.080c0.010-0.060 0.020-0.101 0.025-0.144 0.097-0.745 0.292-1.421 0.573-2.050l-0.018 0.046c0.007-0.018 0.011-0.038 0.011-0.060s-0.004-0.042-0.012-0.061l0 0.001c-0.193-0.429 0.044-0.883 0.51-0.96 0.057-0.005 0.106-0.036 0.136-0.081l0-0.001c1.33-1.894 3.146-2.978 5.46-3.232 0.051-0.009 0.094-0.037 0.124-0.075l0-0.001c0.123-0.186 0.331-0.307 0.568-0.307s0.443 0.12 0.565 0.303l0.002 0.002c0.039 0.060 0.082 0.073 0.145 0.083 0.36 0.058 0.724 0.098 1.077 0.184 1.314 0.325 2.447 0.967 3.355 1.842l-0.002-0.002c0.023 0.022 0.048 0.043 0.075 0.066l0.898-0.87zM18.445 17.57c-0.008-1.342-1.097-2.426-2.44-2.426-0.005 0-0.010 0-0.015 0h0.001c-1.35 0.007-2.444 1.1-2.438 2.434 0.012 1.343 1.104 2.428 2.449 2.428 0.003 0 0.005 0 0.007 0h-0c1.346-0.008 2.443-1.105 2.436-2.437zM10.747 18.834c-0.047-0.305-0.104-0.582-0.13-0.863-0.015-0.149-0.023-0.322-0.023-0.496 0-0.745 0.155-1.454 0.435-2.097l-0.013 0.034c0.245-0.58 0.583-1.1 1.012-1.561 0.1-0.108 0.152-0.108 0.258-0.004 0.079 0.077 0.157 0.155 0.234 0.234 0.088 0.090 0.088 0.144 0.002 0.24-0.056 0.062-0.114 0.122-0.164 0.188-0.123 0.16-0.243 0.323-0.369 0.492l1.407 0.827c1.058-1.317 2.368-1.672 3.953-1.077l0.839-1.407c-0.018-0.014-0.025-0.021-0.034-0.026-0.625-0.327-1.365-0.519-2.149-0.519-0.278 0-0.549 0.024-0.814 0.070l0.028-0.004c-0.619 0.101-1.173 0.313-1.666 0.615l0.020-0.011c-0.193 0.117-0.339 0.074-0.451-0.121l-0.556-0.96-0.265-0.453c-0.014 0.004-0.017 0.004-0.020 0.006-0.74 0.49-1.357 1.099-1.841 1.807l-0.015 0.023c-0.016 0.025-0.016 0.070-0.005 0.1 0.16 0.428-0.050 0.82-0.5 0.925-0.053 0.009-0.095 0.045-0.112 0.094l-0 0.001c-0.31 0.707-0.502 1.529-0.528 2.393l-0 0.010c0.003 0.050 0.024 0.094 0.056 0.127l-0-0c0.258 0.262 0.52 0.519 0.78 0.778l0.632 0.635zM15.995 10.824c0.207-0.002 0.374-0.167 0.379-0.373v-0c-0.003-0.206-0.169-0.373-0.375-0.378h-0c-0.206 0.004-0.373 0.168-0.38 0.373l-0 0.001c0.003 0.207 0.169 0.374 0.376 0.378h0zM11.395 9.41c-0 0-0.001 0-0.001 0-0.204 0-0.369 0.164-0.372 0.367v0c0 0.209 0.169 0.378 0.378 0.378s0.378-0.169 0.378-0.378v0c-0.003-0.203-0.169-0.367-0.373-0.367-0.004 0-0.007 0-0.011 0h0.001zM22.196 14.51c0.204-0.002 0.369-0.167 0.369-0.371 0-0.205-0.166-0.371-0.372-0.371-0.001 0-0.002 0-0.003 0h0c-0.005-0-0.010-0-0.016-0-0.205 0-0.372 0.167-0.372 0.372s0.167 0.372 0.372 0.372c0.008 0 0.015-0 0.023-0.001l-0.001 0zM20.593 9.41c-0.002-0-0.005-0-0.007-0-0.203 0-0.368 0.165-0.368 0.368 0 0.001 0 0.003 0 0.004v-0c0.002 0.205 0.169 0.37 0.374 0.37 0.002 0 0.004-0 0.006-0h-0c0.204-0.001 0.369-0.166 0.37-0.37v-0c0-0.002 0-0.005 0-0.008 0-0.202-0.163-0.365-0.365-0.365-0.004 0-0.007 0-0.011 0h0.001zM10.175 14.138c0-0 0-0 0-0 0-0.205-0.166-0.371-0.371-0.371-0.002 0-0.005 0-0.007 0h0c0 0 0 0 0 0-0.204 0-0.369 0.165-0.37 0.368v0c-0 0.002-0 0.005-0 0.007 0 0.203 0.165 0.368 0.368 0.368 0.001 0 0.003 0 0.004-0h-0c0.002 0 0.004 0 0.006 0 0.204 0 0.37-0.166 0.37-0.37 0-0.001 0-0.001 0-0.002v0z"></path>
</svg>
