<!-- Generated by IcoMoon.io -->
<svg version="1.1" xmlns="http://www.w3.org/2000/svg" width="32" height="32" viewBox="0 0 32 32">
<title>pungo</title>
<path fill="#fff" d="M16 32c-8.837 0-16-7.163-16-16s7.163-16 16-16 16 7.163 16 16-7.163 16-16 16zM15.22 26.804c0.052-0.013 0.041-0.050 0.010-0.147-0.153-0.467-1.116-3.942-1.099-3.965 0.018-0.012 0.21 0.017 0.433 0.070 0.601 0.129 1.675 0.17 2.312 0.082 3.124-0.42 5.594-2.885 6.009-5.997 0.040-0.31 0.052-0.818 0.035-1.273-0.035-0.87-0.024-0.812-0.999-4.24-0.368-1.296-0.858-3.042-1.098-3.871l-0.42-1.492c0.084 0.038 0.17 0.078 0.257 0.12 3.235 1.553 5.442 4.496 6.085 8.11 0.116 0.684 0.099 2.984-0.030 3.65-0.35 1.764-1.027 3.3-2.055 4.672-0.456 0.607-1.507 1.658-2.12 2.12-1.366 1.021-3.030 1.745-4.654 2.026-0.748 0.133-1.789 0.186-2.666 0.135zM11.64 25.931c-1.781-0.796-3.26-1.989-4.373-3.474l-0.020-0.029c-0.812-1.103-1.297-2.055-1.688-3.352-1.074-3.52-0.263-7.392 2.149-10.23 1.454-1.711 3.556-3.008 5.728-3.516 1.005-0.233 1.338-0.268 2.64-0.262 0.254 0 0.462 0 0.64 0.003 0.028 0.144 0.263 0.996 0.551 2.005 0.315 1.11 0.555 2.038 0.532 2.062-0.024 0.029-0.252 0.006-0.503-0.053-0.619-0.134-2.038-0.134-2.65 0-2.266 0.496-3.983 1.845-4.958 3.89-0.259 0.54-0.462 1.167-0.578 1.824l-0.006 0.044c-0.088 0.525-0.076 1.752 0.017 2.277 0.047 0.24 0.374 1.478 0.736 2.745 0.356 1.267 0.888 3.135 1.174 4.146 0.286 1.010 0.554 1.862 0.59 1.903 0.006 0.005 0.012 0.011 0.018 0.016l0.001 0zM14.213 27.836c0.76 0.106 3.253 0.076 3.848-0.046 0.958-0.199 2.248-0.59 2.64-0.794 0.058-0.030 0.38-0.187 0.718-0.357 1.974-0.98 3.72-2.627 4.952-4.671 0.152-0.251 0.654-1.256 0.654-1.308 0.037-0.116 0.075-0.211 0.117-0.303l-0.007 0.017c0.304-0.666 0.701-2.225 0.79-3.107 0.215-2.050-0.060-3.947-0.848-5.939-0.083-0.221-0.164-0.4-0.253-0.574l0.014 0.031c-0.093-0.152-0.198-0.343-0.295-0.539l-0.020-0.045c-0.144-0.281-0.28-0.512-0.428-0.735l0.018 0.029c-0.075-0.1-0.14-0.199-0.14-0.228 0-0.023-0.070-0.122-0.151-0.228-0.082-0.099-0.28-0.35-0.438-0.56-0.403-0.526-1.331-1.46-1.892-1.904-0.66-0.525-0.7-0.549-1.285-0.91-1.208-0.737-2.633-1.291-3.97-1.542-0.836-0.158-3.644-0.164-4.468-0.006-2.785 0.52-5.43 2.12-7.17 4.333-0.199 0.257-0.392 0.502-0.427 0.543-0.029 0.035-0.187 0.286-0.35 0.554-0.158 0.263-0.31 0.52-0.345 0.567-0.122 0.198-0.45 0.864-0.549 1.139-0.045 0.136-0.096 0.251-0.157 0.361l0.006-0.011c-0.047 0.064-0.316 0.934-0.286 0.934-0.013 0.053-0.033 0.1-0.060 0.142l0.001-0.002c-0.040 0.076-0.128 0.403-0.187 0.73-0.064 0.321-0.14 0.748-0.18 0.94-0.036 0.199-0.065 0.9-0.065 1.635 0 1.198 0.012 1.344 0.181 2.167 0.158 0.788 0.438 1.763 0.596 2.096 0.029 0.064 0.105 0.251 0.169 0.409 0.473 1.232 1.6 2.867 2.727 3.947 1.477 1.414 3.451 2.517 5.308 2.967 0.257 0.058 0.508 0.128 0.56 0.146 0.053 0.023 0.357 0.076 0.672 0.122zM16.835 19.486c-0.461 0.117-1.302 0.105-1.787-0.023-1.612-0.432-2.686-1.828-2.692-3.48-0.006-1.087 0.316-1.857 1.092-2.634 0.543-0.543 0.952-0.77 1.723-0.964 1.874-0.473 3.865 0.748 4.35 2.663 0.117 0.45 0.111 1.343-0.006 1.805-0.315 1.232-1.413 2.312-2.68 2.633z"></path>
</svg>
