<!-- Generated by IcoMoon.io -->
<svg version="1.1" xmlns="http://www.w3.org/2000/svg" width="32" height="32" viewBox="0 0 32 32">
<title>qrl</title>
<path fill="#fff" d="M16 32c-8.837 0-16-7.163-16-16s7.163-16 16-16 16 7.163 16 16-7.163 16-16 16zM25.628 21.209c-0.206 0.004-0.372 0.173-0.372 0.38 0 0.001 0 0.003 0 0.004v-0 1.152h-4.802l-0.012-0.731c2.761-2.002 3.946-5.618 2.93-8.938-1.018-3.32-4.003-5.576-7.378-5.576s-6.36 2.256-7.377 5.576c-1.017 3.32 0.168 6.936 2.93 8.938h0.011l-0.012 0.718h-4.802v-1.152c0-0.212-0.166-0.384-0.372-0.384s-0.372 0.172-0.372 0.384v1.908h6.279l0.024-1.66c0-0 0-0 0-0 0-0.158-0.093-0.295-0.227-0.359l-0.002-0.001c-0.022-0.041-0.055-0.075-0.095-0.097l-0.001-0.001c-1.88-1.335-3.003-3.54-3-5.896 0-3.445 2.357-6.412 5.631-7.090 3.275-0.677 6.558 1.122 7.847 4.301s0.225 6.854-2.542 8.784c-0.031 0.026-0.059 0.055-0.083 0.086l-0.001 0.001c-0.081 0.069-0.132 0.17-0.133 0.284v0l0.024 1.66h6.279v-1.907c0-0.001 0-0.003 0-0.004 0-0.207-0.166-0.375-0.372-0.38h-0zM20.67 16.033c-0.163-0.21-0.324-0.395-0.494-0.572l0.002 0.002c0.174-0.18 0.338-0.37 0.492-0.57 0.828-1.052 1.080-1.981 0.72-2.625-0.276-0.483-0.864-0.743-1.717-0.743-0.569 0.014-1.113 0.099-1.63 0.246l0.046-0.011c-0.456-1.647-1.213-2.7-2.077-2.7s-1.62 1.053-2.089 2.688c-0.471-0.136-1.015-0.221-1.576-0.236l-0.008-0c-0.853 0-1.441 0.26-1.717 0.743-0.36 0.644-0.108 1.573 0.72 2.626 0.154 0.2 0.318 0.39 0.492 0.57-1.152 1.226-1.656 2.427-1.212 3.195 0.276 0.483 0.864 0.743 1.717 0.743 0.569-0.014 1.113-0.099 1.63-0.246l-0.046 0.011c0.456 1.635 1.213 2.688 2.077 2.688s1.62-1.053 2.089-2.688c0.471 0.136 1.015 0.221 1.576 0.235l0.008 0c0.853 0 1.441-0.26 1.717-0.743 0.36-0.619 0.108-1.56-0.72-2.613zM19.685 11.983c0.469 0 1.080 0.087 1.309 0.508 0.252 0.458 0 1.214-0.684 2.093-0.144 0.173-0.3 0.359-0.468 0.532-0.43-0.408-0.883-0.788-1.357-1.139-0.063-0.677-0.16-1.285-0.294-1.88l0.018 0.097c0.438-0.118 0.944-0.193 1.465-0.211l0.011-0zM17.045 17.321c-0.284 0.176-0.626 0.362-0.979 0.529l-0.066 0.028c-0.787-0.394-1.455-0.797-2.088-1.247l0.049 0.033c-0.027-0.355-0.045-0.778-0.049-1.204l-0-0.009c0-0.421 0.012-0.83 0.048-1.214 0.312-0.223 0.636-0.433 0.997-0.644 0.338-0.205 0.686-0.391 1.044-0.557 0.348 0.173 0.696 0.359 1.044 0.557 0.349 0.21 0.685 0.421 0.997 0.644 0.024 0.384 0.048 0.793 0.048 1.214 0 0.42-0.012 0.817-0.048 1.214-0.27 0.196-0.595 0.412-0.928 0.617l-0.069 0.039zM17.993 17.284c-0.060 0.47-0.132 0.904-0.216 1.313-0.487-0.151-0.889-0.306-1.277-0.486l0.064 0.027c0.24-0.123 0.48-0.26 0.72-0.408 0.24-0.149 0.469-0.298 0.709-0.446zM15.46 18.138c-0.396 0.176-0.8 0.33-1.213 0.459-0.091-0.368-0.167-0.815-0.213-1.272l-0.003-0.041c0.228 0.148 0.468 0.297 0.708 0.446zM13.491 16.305c-0.347-0.265-0.68-0.55-0.996-0.854 0.314-0.306 0.647-0.591 0.996-0.855-0.012 0.285-0.024 0.558-0.024 0.855s0.012 0.582 0.024 0.854zM14.031 13.643c0.060-0.471 0.132-0.905 0.216-1.313 0.413 0.127 0.818 0.28 1.213 0.458-0.24 0.124-0.48 0.26-0.733 0.409-0.279 0.163-0.506 0.31-0.726 0.466l0.030-0.020zM16.552 12.788c0.396-0.176 0.8-0.329 1.213-0.458 0.101 0.432 0.173 0.87 0.216 1.313-0.089-0.064-0.32-0.211-0.553-0.356l-0.155-0.090c-0.24-0.149-0.48-0.285-0.72-0.409zM18.533 14.608c0.346 0.263 0.675 0.548 0.984 0.855-0.3 0.285-0.636 0.57-0.984 0.855 0.012-0.273 0.024-0.558 0.024-0.855s-0.012-0.57-0.024-0.854zM16.012 9.531c0.6 0 1.236 0.867 1.645 2.34-0.562 0.177-1.111 0.392-1.645 0.643-0.446-0.218-0.991-0.436-1.552-0.618l-0.093-0.026c0.409-1.472 1.033-2.34 1.645-2.34zM11.030 12.491c0.24-0.421 0.84-0.508 1.309-0.508 0.498 0.010 0.994 0.081 1.476 0.21-0.115 0.497-0.213 1.106-0.272 1.726l-0.004 0.058c-0.476 0.348-0.93 0.728-1.357 1.138-0.154-0.166-0.307-0.343-0.453-0.526l-0.015-0.019c-0.696-0.853-0.948-1.621-0.684-2.080zM12.339 18.931c-0.469 0-1.080-0.087-1.309-0.508-0.3-0.545 0.108-1.535 1.14-2.638 0.428 0.415 0.886 0.796 1.369 1.14 0.055 0.6 0.147 1.195 0.276 1.782-0.48 0.14-0.977 0.215-1.476 0.224zM16.012 21.383c-0.6 0-1.236-0.867-1.645-2.34 0.655-0.209 1.2-0.427 1.725-0.679l-0.080 0.035c0.445 0.217 0.99 0.435 1.551 0.618l0.094 0.026c-0.409 1.473-1.045 2.34-1.645 2.34zM20.994 18.423c-0.24 0.421-0.84 0.508-1.309 0.508-0.529-0.011-1.036-0.087-1.52-0.22l0.044 0.010c0.129-0.588 0.22-1.184 0.276-1.784 0.476-0.348 0.93-0.729 1.357-1.14 0.168 0.174 0.324 0.36 0.468 0.533 0.684 0.88 0.936 1.647 0.684 2.093zM16.012 13.643c-0.966 0.006-1.745 0.819-1.74 1.816 0.004 0.997 0.79 1.802 1.756 1.8s1.749-0.811 1.749-1.808c-0.007-1-0.795-1.808-1.765-1.808zM16.012 16.801c-0.716 0-1.297-0.599-1.297-1.338s0.581-1.337 1.297-1.337 1.297 0.598 1.297 1.337c-0.006 0.737-0.583 1.332-1.297 1.338z"></path>
</svg>
