<!-- Generated by IcoMoon.io -->
<svg version="1.1" xmlns="http://www.w3.org/2000/svg" width="32" height="32" viewBox="0 0 32 32">
<title>rap</title>
<path fill="#fff" d="M16 32c-8.837 0-16-7.163-16-16s7.163-16 16-16 16 7.163 16 16-7.163 16-16 16zM12.478 6.435v-0.435h-3.478v19.913h3.478v-19.478zM14.957 6h0.043v3.217h1.522c2.217 0 3.608 1 3.608 2.957s-1.39 2.956-3.608 2.956h-3.348l6.956 10.783h4.087l-5.087-7.74c2.913-0.738 4.522-3 4.522-5.956 0-3.652-2.695-6.217-6.739-6.217h-1.956z"></path>
</svg>
