<!-- Generated by IcoMoon.io -->
<svg version="1.1" xmlns="http://www.w3.org/2000/svg" width="32" height="32" viewBox="0 0 32 32">
<title>rub</title>
<path fill="#fff" d="M16 32c-8.837 0-16-7.163-16-16s7.163-16 16-16 16 7.163 16 16-7.163 16-16 16zM10.5 15.238v1.808h1.764v2.608h-1.764v1.705h1.764v3.641h1.988v-3.641h4v-1.705h-4v-2.608h2.509c0.020 0 0.043 0 0.066 0 0.782 0 1.537-0.113 2.25-0.325l-0.056 0.014c0.696-0.207 1.3-0.52 1.814-0.943 0.514-0.421 0.92-0.95 1.218-1.588s0.447-1.386 0.447-2.247c0-0.86-0.14-1.6-0.422-2.22s-0.671-1.133-1.168-1.537-1.093-0.706-1.789-0.904c-0.665-0.189-1.43-0.298-2.219-0.298-0.032 0-0.064 0-0.096 0.001l0.005-0h-4.547v8.238zM16.81 15.238h-2.558v-6.43h2.559c1.142 0 2.041 0.25 2.695 0.749s0.982 1.3 0.982 2.401c0 1.102-0.328 1.924-0.982 2.467-0.654 0.542-1.553 0.813-2.695 0.813z"></path>
</svg>
