<!-- Generated by IcoMoon.io -->
<svg version="1.1" xmlns="http://www.w3.org/2000/svg" width="32" height="32" viewBox="0 0 32 32">
<title>snm</title>
<path fill="#fff" d="M16 32c-8.837 0-16-7.163-16-16s7.163-16 16-16 16 7.163 16 16-7.163 16-16 16zM16 27c6.068-0.012 11-4.943 11-11s-4.932-10.982-11-11c-6.068 0.018-11 4.943-11 11s4.932 10.982 11 11zM25.755 17.75c-0.184 0.993-0.488 1.879-0.901 2.699l0.026-0.057c0.037-0.164 0.060-0.328 0.060-0.503 0-0.6-0.242-1.145-0.63-1.55 0.126 0.053 0.272 0.085 0.425 0.085 0.455 0 0.846-0.274 1.017-0.665l0.003-0.007zM24.735 17.86h-0.001zM24.983 11.833c0.583 1.209 0.924 2.628 0.924 4.128 0 0.016-0 0.032-0 0.048v-0.002c0 0.412-0.030 0.812-0.080 1.212-0.048-0.568-0.521-1.011-1.098-1.012h-0c-0.213 0-0.407 0.067-0.571 0.164 0.68-0.799 1.094-1.843 1.094-2.983 0-0.557-0.099-1.091-0.28-1.586l0.010 0.032zM24.419 13.377c-0.007 2.108-1.718 3.815-3.827 3.816h-0c-0.001 0-0.001 0-0.002 0-2.109 0-3.82-1.707-3.825-3.816v-0.001c0.005-2.109 1.716-3.816 3.825-3.816 0.001 0 0.001 0 0.002 0h-0c0.001 0 0.001 0 0.002 0 2.109 0 3.82 1.707 3.825 3.816v0.001zM20.44 19.89c0 0.024 0.006 0.048 0 0.085-0.302-0.932-0.861-1.711-1.593-2.276l-0.011-0.008c0.889 0.36 1.867 0.435 2.8 0.218-0.716 0.383-1.195 1.125-1.196 1.98v0zM20.659 21.368c-0.001-0.215-0.019-0.424-0.053-0.629l0.003 0.023c0.208 0.484 0.577 0.88 1.046 1.12-0.048-0.011-0.104-0.017-0.161-0.017-0.003 0-0.006 0-0.009 0h0c-0.407 0-0.778 0.23-0.96 0.593 0.084-0.327 0.133-0.702 0.134-1.089v-0.001zM22.687 21.301h0.001c-0.778 0-1.416-0.63-1.416-1.411 0-0.775 0.632-1.411 1.415-1.411s1.422 0.63 1.422 1.41c-0.005 0.781-0.639 1.412-1.42 1.412-0.001 0-0.001 0-0.002 0h0zM23.622 17.316h0.001c0 0.232 0.074 0.46 0.212 0.648-0.327-0.198-0.722-0.315-1.144-0.315-0.002 0-0.003 0-0.004 0h0c-0.103 0-0.2 0.012-0.298 0.024 0.529-0.23 0.983-0.529 1.376-0.893l-0.003 0.003c-0.090 0.163-0.138 0.346-0.14 0.533zM15.999 16.716c-0.619 0-1.208 0.127-1.749 0.339 0.911-0.704 1.547-1.724 1.746-2.893l0.004-0.027c0.201 1.196 0.837 2.217 1.737 2.912l0.011 0.008c-0.517-0.215-1.118-0.34-1.748-0.34-0 0-0.001 0-0.001 0h0zM15.999 10.543h0.001c0.002 0 0.004 0 0.006 0 0.442 0 0.854-0.129 1.2-0.35l-0.009 0.005c-0.607 0.645-1.033 1.467-1.193 2.381l-0.004 0.028c-0.16-0.943-0.586-1.766-1.199-2.412l0.002 0.002c0.338 0.216 0.75 0.345 1.191 0.345 0.002 0 0.003 0 0.005 0h-0zM18.271 8.278c0-0.024-0.005-0.049 0-0.073 0.164 0.412 0.565 0.703 1.033 0.703 0.018 0 0.036-0.006 0.060-0.006-0.604 0.167-1.131 0.433-1.59 0.783l0.011-0.008c0.303-0.381 0.486-0.869 0.486-1.399v-0zM19.996 6.94c1.67 0.744 3.105 1.93 4.148 3.428-0.861-1.006-2.132-1.64-3.552-1.64-0.299 0-0.591 0.028-0.874 0.082l0.029-0.005c0.403-0.176 0.663-0.573 0.662-1.011 0-0.346-0.164-0.648-0.413-0.854zM16.686 6.116c0.948 0.072 1.865 0.266 2.715 0.58-0.032-0.006-0.070-0.010-0.108-0.011h-0.001c-0.583 0-1.057 0.454-1.1 1.024-0.2-0.759-0.764-1.352-1.49-1.588l-0.016-0.005zM14.566 8.278c0.021-0.776 0.655-1.396 1.434-1.396s1.412 0.621 1.433 1.394l0 0.002c-0.030 0.769-0.66 1.38-1.433 1.38s-1.403-0.612-1.433-1.378l-0-0.003zM12.593 6.697c0.797-0.3 1.72-0.507 2.681-0.579l0.034-0.002c-0.742 0.24-1.308 0.833-1.504 1.576l-0.004 0.016c-0.041-0.574-0.517-1.024-1.097-1.024-0.001 0-0.002 0-0.003 0h0c-0.039 0.001-0.076 0.005-0.112 0.013l0.004-0.001zM13.728 8.278c0 0.509 0.173 1.002 0.492 1.4-0.448-0.341-0.975-0.607-1.546-0.768l-0.033-0.008c0.018 0 0.036 0.006 0.060 0.006 0.468 0 0.87-0.29 1.033-0.703-0.004 0.018-0.006 0.039-0.006 0.060 0 0.004 0 0.009 0 0.013l-0-0.001zM12.149 7.799c0.018-0.291 0.259-0.521 0.553-0.521s0.535 0.229 0.553 0.519l0 0.002c0 0.305-0.248 0.553-0.553 0.553s-0.553-0.248-0.553-0.553v0zM7.855 10.374c1.043-1.491 2.446-2.663 4.085-3.404l0.063-0.025c-0.253 0.203-0.413 0.512-0.413 0.858 0 0.449 0.27 0.835 0.656 1.005l0.007 0.003c-0.256-0.050-0.551-0.079-0.852-0.079-1.418 0-2.687 0.635-3.539 1.635l-0.005 0.007zM7.581 13.378c0-2.102 1.72-3.81 3.827-3.816 0.001 0 0.001 0 0.002 0 2.109 0 3.82 1.707 3.825 3.816v0.001c-0.005 2.109-1.716 3.816-3.825 3.816-0.001 0-0.001 0-0.002 0h0c-0.001 0-0.001 0-0.002 0-2.109 0-3.82-1.707-3.825-3.816v-0.001zM11.56 19.89c-0.002-0.858-0.484-1.603-1.191-1.981l-0.012-0.006c0.317 0.077 0.681 0.121 1.055 0.121 0.629 0 1.228-0.125 1.776-0.35l-0.031 0.011c-0.741 0.575-1.3 1.353-1.594 2.251l-0.009 0.033c0-0.024 0.006-0.055 0.006-0.080zM8.377 17.315c0-0.187-0.050-0.371-0.146-0.533 0.4 0.377 0.866 0.68 1.373 0.891-0.083-0.015-0.179-0.024-0.277-0.024-0.007 0-0.015 0-0.022 0h0.001c-0.002 0-0.004 0-0.006 0-0.421 0-0.816 0.117-1.152 0.32l0.010-0.006c0.143-0.185 0.22-0.413 0.219-0.648zM7.891 19.89c0-0.001 0-0.001 0-0.002 0-0.779 0.631-1.41 1.41-1.41 0.002 0 0.004 0 0.005 0h-0c0.778 0 1.416 0.63 1.416 1.412s-0.634 1.415-1.415 1.415-1.415-0.634-1.415-1.415v0zM10.339 21.883c0.468-0.245 0.83-0.637 1.033-1.112l0.006-0.015c-0.025 0.182-0.041 0.394-0.043 0.61l-0 0.002c0.001 0.367 0.046 0.733 0.134 1.090-0.18-0.355-0.542-0.593-0.96-0.594h-0c-0.060 0-0.115 0.013-0.17 0.019zM6.166 17.213c-0.050-0.371-0.078-0.801-0.078-1.237 0-1.506 0.34-2.933 0.948-4.208l-0.025 0.059c-0.17 0.462-0.269 0.996-0.269 1.553 0 1.141 0.414 2.185 1.1 2.991l-0.005-0.006c-0.162-0.102-0.359-0.163-0.57-0.164h-0c-0.578 0-1.051 0.448-1.1 1.011zM7.060 19.89c0 0.175 0.023 0.339 0.060 0.503-0.389-0.763-0.693-1.649-0.865-2.581l-0.009-0.060c0.177 0.398 0.568 0.67 1.023 0.67 0.152 0 0.297-0.030 0.429-0.086l-0.007 0.003c-0.39 0.399-0.631 0.946-0.631 1.549 0 0 0 0.001 0 0.001v-0zM9.902 22.052c-0.296 0.2-0.473 0.534-0.474 0.89 0 0.261 0.098 0.491 0.25 0.68-0.725-0.604-1.351-1.292-1.874-2.056l-0.022-0.034c0.399 0.372 0.937 0.6 1.527 0.6 0.211 0 0.415-0.029 0.608-0.083l-0.016 0.004zM9.987 22.942c0-0 0-0.001 0-0.001 0-0.288 0.234-0.522 0.522-0.522s0.522 0.234 0.522 0.522c0 0.288-0.233 0.521-0.521 0.522h-0c-0 0-0.001 0-0.001 0-0.288 0-0.521-0.233-0.522-0.52v-0zM14.658 25.82c-1.759-0.25-3.324-0.929-4.634-1.926l0.024 0.018c0.138 0.068 0.3 0.108 0.471 0.108 0.595 0 1.078-0.482 1.078-1.077v-0c0-0.037-0.012-0.067-0.012-0.097 0.494 1.43 1.623 2.525 3.040 2.965l0.033 0.009zM19.821 21.368c0 2.102-1.713 3.81-3.821 3.816-2.108-0.002-3.816-1.709-3.82-3.816v-0c0-2.11 1.71-3.82 3.82-3.82s3.82 1.71 3.82 3.82v0zM21.959 23.912c-1.287 0.977-2.852 1.655-4.556 1.902l-0.054 0.006c1.45-0.449 2.579-1.544 3.063-2.941l0.010-0.033c-0.007 0.029-0.011 0.062-0.012 0.096l-0 0.001c-0.002 0.37 0.189 0.717 0.504 0.914s0.71 0.218 1.045 0.055zM22.014 22.942c0 0.001 0 0.001 0 0.002 0 0.288-0.234 0.522-0.522 0.522s-0.522-0.234-0.522-0.522c0-0.288 0.234-0.522 0.522-0.522v0c0.288 0 0.522 0.233 0.522 0.52zM24.218 21.532c-0.545 0.798-1.17 1.485-1.879 2.076l-0.016 0.013c0.154-0.182 0.248-0.419 0.25-0.677v-0c-0.001-0.369-0.188-0.694-0.471-0.888l-0.004-0.002c0.178 0.051 0.382 0.080 0.592 0.080 0.591 0 1.128-0.228 1.529-0.602l-0.001 0.001z"></path>
</svg>
