<!-- Generated by IcoMoon.io -->
<svg version="1.1" xmlns="http://www.w3.org/2000/svg" width="32" height="32" viewBox="0 0 32 32">
<title>sxp</title>
<path fill="#fff" d="M16 0c-8.8 0-16 7.2-16 16s7.2 16 16 16 16-7.2 16-16-7.2-16-16-16zM7.7 18.1c-0.2 0.2-0.4 0.4-0.5 0.6l-0.1 0.1c-0.2 0.2-0.3 0.2-0.4 0l-0.6-0.9c-0.3-0.5-0.4-1.1-0.5-1.7v-0.2c0-1 0.4-2 1-2.8 0.2-0.2 0.3-0.4 0.5-0.5l5.8-5.8c0.7-0.7 1.5-1.1 2.4-1.2h0.6c0.6 0 1.2 0.1 1.8 0.4 0.3-0.1 0.6 0.1 0.9 0.4 0.2 0.1 0.2 0.2 0 0.4l-2.7 2.7c-0.3 0.3-0.6 0.6-0.9 1l-0.7 0.7c-0.4 0.4-0.7 0.8-1.1 1.2-0.3 0.3-0.5 0.6-0.9 0.9-0.3 0.3-0.6 0.7-0.9 1s-0.6 0.6-0.8 0.9c-0.3 0.3-0.6 0.6-0.8 0.9l-0.4 0.4c-0.4 0.1-0.6 0.4-0.9 0.6-0.3 0.3-0.5 0.6-0.8 0.9zM26.4 16.6c-0.1 0.7-0.3 1.4-0.7 2-0.2 0.3-0.4 0.6-0.7 0.8-0.3 0.3-0.6 0.7-1 1s-0.7 0.7-1 0.9-0.6 0.6-0.8 0.8l-3.2 3.2c-0.6 0.6-1.4 0.9-2.2 1s-1.7 0-2.5-0.4l-0.9-0.6c-0.2-0.1-0.2-0.2 0-0.4 0.2-0.3 0.5-0.5 0.7-0.7l1.3-1.3s0.1 0 0.1-0.1l3.4-3.4c0.3-0.3 0.6-0.6 0.9-0.8l1.2-1.2c0.3-0.4 0.5-0.8 0.6-1.3v-0.2c0-0.5-0.1-0.9-0.4-1.3 0-0.1-0.1-0.1-0.1-0.2-0.2-0.1-0.4-0.1-0.5 0.1-0.5 0.5-1 1-1.6 1.5l-1.7 1.6-3.4 3.4-1.1 1c-0.2 0.2-0.4 0.3-0.7 0.4s-0.7 0.1-1 0c-0.4-0.1-0.7-0.2-1-0.5-0.4-0.4-0.8-0.9-1.3-1.3-0.2-0.2-0.2-0.2 0-0.4l7.6-7.6c0.3-0.3 0.6-0.5 0.8-0.8l2.1-2.1c0.3-0.4 0.8-0.6 1.4-0.6h0.1c0.6 0 1.1 0.2 1.5 0.7 0.9 0.9 1.7 1.8 2.6 2.7 0.3 0.3 0.6 0.6 0.9 1 0.3 0.5 0.6 1.1 0.7 1.8-0.1 0.6-0.1 1-0.1 1.3z"></path>
</svg>
