<!-- Generated by IcoMoon.io -->
<svg version="1.1" xmlns="http://www.w3.org/2000/svg" width="32" height="32" viewBox="0 0 32 32">
<title>sys</title>
<path fill="#fff" d="M16 32c-8.837 0-16-7.163-16-16s7.163-16 16-16 16 7.163 16 16-7.163 16-16 16zM18.046 15.103c10.5 1.897-3.786 12.563-14.046 2.907 12.101 7.743 18.334 0.467 13.955-2.711-0.028-0.020-0.046-0.052-0.046-0.089 0-0.026 0.009-0.049 0.024-0.067l-0 0c0.022-0.027 0.054-0.043 0.091-0.043 0.008 0 0.016 0.001 0.024 0.002l-0.001-0zM12.202 10.855c-6.622 4.54 0.742 6.599 2.079 6.164 0.010-0.003 0.021-0.004 0.032-0.004s0.022 0.002 0.033 0.005l-0.001-0c0.050 0.011 0.086 0.055 0.086 0.107 0 0.010-0.001 0.019-0.004 0.028l0-0.001c-0.903 3.464-11.312-3.392-2.226-6.299zM28 12.602c-2.22-1.721-17.95-3.711-14.853 2.832 0.006 0.014 0.010 0.029 0.010 0.046 0 0.019-0.005 0.037-0.013 0.053l0-0.001c-0.021 0.036-0.059 0.060-0.103 0.060-0.020 0-0.038-0.005-0.054-0.013l0.001 0c-7.615-3.96 7.146-8.587 15.013-2.977zM21.472 20.753c7.492-3.015-0.541-10.523-4.822-7.306-0.026 0.020-0.043 0.051-0.043 0.086 0 0.009 0.001 0.017 0.003 0.025l-0-0.001c0.013 0.058 0.075 0.097 0.138 0.084 5.5-1.25 8.883 5.221 4.724 7.112z"></path>
</svg>
