<!-- Generated by IcoMoon.io -->
<svg version="1.1" xmlns="http://www.w3.org/2000/svg" width="32" height="32" viewBox="0 0 32 32">
<title>taas</title>
<path fill="#fff" d="M16 32c-8.837 0-16-7.163-16-16s7.163-16 16-16 16 7.163 16 16-7.163 16-16 16zM4 13v1.221h1.298v-1.221h-1.298zM5.298 17.774v-1.111h2.513v-1.221h-3.811v3.558h5.075v-1.226h-3.777zM22.925 15.442v1.22h3.777v1.112h-2.513v1.226h3.811v-3.558h-5.075zM26.723 14.28v-1.221h-3.8v1.22h3.8zM10.312 15.442v3.558h3.81v-1.174h1.265v-2.384h-5.075zM14.089 17.774h-2.479v-1.111h2.48v1.11zM10.312 13v1.221h5.075v-1.221h-5.075zM16.646 15.442v3.558h3.81v-1.174h1.265v-2.384h-5.075zM20.418 17.774h-2.48v-1.111h2.48v1.11zM16.646 13v1.221h5.075v-1.221h-5.075z"></path>
</svg>
