<!-- Generated by IcoMoon.io -->
<svg version="1.1" xmlns="http://www.w3.org/2000/svg" width="32" height="32" viewBox="0 0 32 32">
<title>tern</title>
<path fill="#fff" d="M16 32c-8.837 0-16-7.163-16-16s7.163-16 16-16 16 7.163 16 16-7.163 16-16 16zM26.983 15.774v-0.23l-4.52 2.628v-1.31l4.52-2.627v-4.848l-10.993-6.387-5.693 3.309 4.52 2.627-1.126 0.654-4.52-2.627-4.171 2.424v12.774l5.694 3.309v-5.254l1.126 0.654v5.255l4.172 2.423 10.991-6.387v-6.387zM21.288 13.35l-4.55 2.646v5.502l-0.746 0.433-0.563-0.327v-5.29l-4.735-2.752v-0.866l0.563-0.328 4.552 2.645 4.735-2.75 0.745 0.433v0.655zM14.83 6.27l1.161-0.674 8.758 5.090v2.175l-1.16 0.674v-2.176l-3.047-1.769-4.734 2.751-1.127-0.654 4.735-2.752-4.586-2.665zM8.395 21.54l-1.162-0.675v-10.18l1.872-1.088 1.162 0.674-1.872 1.089v3.538l4.734 2.752v1.309l-4.734-2.751v5.33zM24.75 19.515v1.35l-8.758 5.090-1.872-1.089v-1.35l1.872 1.088 3.045-1.769v-5.502l1.126-0.655v5.503l4.587-2.666z"></path>
</svg>
