<!-- Generated by IcoMoon.io -->
<svg version="1.1" xmlns="http://www.w3.org/2000/svg" width="32" height="32" viewBox="0 0 32 32">
<title>tix</title>
<path fill="#fff" d="M16 32c-8.837 0-16-7.163-16-16s7.163-16 16-16 16 7.163 16 16-7.163 16-16 16zM6 11.386v1.15c0 0.214 0.173 0.387 0.386 0.387h5.314c0.773 0 1.16 0.353 1.16 1.058 0 0.513-0.387 0.833-1.16 0.961h-5.314c0 0 0 0 0 0-0.213 0-0.386 0.173-0.386 0.386 0 0.001 0 0.001 0 0.002v-0 1.15c0 0.213 0.173 0.386 0.386 0.386h5.314c1.095 0.064 1.643 0.45 1.643 1.154s-0.548 1.058-1.643 1.058h-5.314c-0.213 0-0.386 0.173-0.386 0.386v0 1.15c0 0.214 0.173 0.387 0.386 0.387h5.314c1.546 0 3.865-0.48 3.865-2.885 0-1.025-0.45-1.794-1.352-2.307 0.644-0.577 0.966-1.218 0.966-1.923 0-1.69-1.45-2.885-3.768-2.885h-5.024c0 0 0 0 0 0-0.213 0-0.386 0.173-0.387 0.386v0zM16.435 11.386v1.15c0 0.214 0.173 0.387 0.386 0.387h2.899c0.213 0 0.386 0.173 0.386 0.387v7.304c0 0.213 0.173 0.386 0.387 0.386h1.449c0 0 0.001 0 0.001 0 0.213 0 0.386-0.173 0.386-0.386 0 0 0 0 0 0v0-9.228c0 0 0 0 0 0 0-0.213-0.173-0.386-0.386-0.386-0 0-0.001 0-0.001 0h-5.12c-0 0-0.001 0-0.001 0-0.213 0-0.386 0.173-0.386 0.386 0 0 0 0 0 0v0zM23.68 11c-0.213 0-0.386 0.173-0.386 0.386v0 1.15c0 0.214 0.173 0.387 0.386 0.387h1.933c0.213 0 0.386-0.173 0.386-0.386v0-1.15c0-0 0-0.001 0-0.001 0-0.213-0.173-0.386-0.386-0.386 0 0 0 0 0 0v0z"></path>
</svg>
