<!-- Generated by IcoMoon.io -->
<svg version="1.1" xmlns="http://www.w3.org/2000/svg" width="32" height="32" viewBox="0 0 32 32">
<title>tomo</title>
<path fill="#fff" d="M16 32c-8.837 0-16-7.163-16-16s7.163-16 16-16 16 7.163 16 16-7.163 16-16 16zM18.525 14.464c0 0 0.001 0 0.001 0 0.303 0 0.548-0.245 0.548-0.548 0-0.286-0.219-0.521-0.499-0.546l-0.002-0h-3.84v-0.96c-0.078-0.268-0.321-0.461-0.61-0.461s-0.532 0.193-0.609 0.457l-0.001 0.004v0.96h-1.027c-0.302 0-0.547 0.245-0.547 0.547s0.245 0.547 0.547 0.547h1.028v3.34c0.010 1.749 1.427 3.163 3.176 3.169h0.001c0.732-0.012 1.401-0.274 1.925-0.705l-0.005 0.004 0.23-0.192c0.167-0.118 0.274-0.31 0.274-0.527 0-0.355-0.288-0.643-0.643-0.643-0.188 0-0.357 0.081-0.474 0.209l-0 0-0.173 0.144c-0.316 0.263-0.727 0.423-1.175 0.423-0.299 0-0.582-0.071-0.832-0.198l0.011 0.005c-0.651-0.315-1.092-0.97-1.094-1.728v-3.302h3.792zM24.765 18.189c0.006-0.029 0.010-0.062 0.010-0.097 0-0.231-0.164-0.425-0.382-0.47l-0.003-0.001h-0.24c-0.001 0-0.001 0-0.002 0-0.222 0-0.409 0.154-0.457 0.362l-0.001 0.003c-0.787 3.357-3.756 5.819-7.3 5.819-4.136 0-7.488-3.352-7.488-7.488 0-1.11 0.242-2.164 0.675-3.111l-0.019 0.047c0.71-1.683 2.023-2.996 3.661-3.688l0.045-0.017c0.905-0.414 1.962-0.656 3.076-0.656 2.592 0 4.879 1.307 6.238 3.298l0.017 0.026c0.088 0.127 0.232 0.209 0.396 0.209 0.095 0 0.184-0.028 0.259-0.076l-0.002 0.001 0.086-0.058c0.146-0.093 0.241-0.254 0.241-0.438 0-0.101-0.029-0.195-0.078-0.274l0.001 0.002c-1.576-2.297-4.188-3.785-7.147-3.785-1.070 0-2.095 0.195-3.041 0.55l0.060-0.020c-2.332 0.818-4.143 2.606-4.974 4.868l-0.018 0.056c-0.365 0.918-0.577 1.981-0.577 3.094 0 4.74 3.842 8.582 8.582 8.582 4.088 0 7.508-2.858 8.371-6.684l0.011-0.057zM16.874 4.95h-0.96c-6.11 0.265-10.963 5.282-10.963 11.433 0 1.143 0.168 2.247 0.479 3.288l-0.021-0.081c0.070 0.227 0.278 0.388 0.524 0.388 0.057 0 0.111-0.009 0.162-0.024l-0.004 0.001h0.077c0.184-0.091 0.309-0.277 0.309-0.493 0-0.054-0.008-0.105-0.022-0.154l0.001 0.004c-0.263-0.869-0.415-1.867-0.415-2.901 0-5.716 4.633-10.349 10.349-10.349s10.349 4.633 10.349 10.349c0 5.716-4.633 10.349-10.349 10.349-0.799 0-1.577-0.091-2.324-0.262l0.070 0.013c-0.032-0.007-0.069-0.011-0.108-0.011-0.167 0-0.316 0.079-0.411 0.202l-0.001 0.001c-0.076 0.095-0.123 0.216-0.123 0.349 0 0.266 0.186 0.488 0.436 0.544l0.004 0.001c0.62 0.119 1.332 0.187 2.061 0.187 6.315 0 11.434-5.119 11.434-11.434 0-6.006-4.63-10.93-10.516-11.398l-0.040-0.003z"></path>
</svg>
