<!-- Generated by IcoMoon.io -->
<svg version="1.1" xmlns="http://www.w3.org/2000/svg" width="32" height="32" viewBox="0 0 32 32">
<title>usd</title>
<path fill="#fff" d="M16 32c-8.837 0-16-7.163-16-16s7.163-16 16-16 16 7.163 16 16-7.163 16-16 16zM22.5 19.154c0-2.523-1.576-3.948-5.263-4.836v-4.44c1.14 0.234 2.231 0.725 3.298 1.496l1.359-2.196c-1.274-0.942-2.828-1.579-4.516-1.772l-0.044-0.004v-1.402h-2.11v1.355c-3.032 0.234-5.093 1.963-5.093 4.486 0 2.64 1.649 3.925 5.19 4.813v4.58c-1.577-0.234-2.886-0.935-4.269-2.010l-1.552 2.126c1.586 1.23 3.539 2.061 5.67 2.309l0.054 0.005v2.336h2.11v-2.313c3.080-0.257 5.166-1.963 5.166-4.533zM15.32 13.827c-1.867-0.537-2.327-1.168-2.327-2.15 0-1.027 0.8-1.845 2.328-1.962zM19.638 19.317c0 1.122-0.873 1.893-2.401 2.010v-4.229c1.892 0.538 2.401 1.168 2.401 2.22z"></path>
</svg>
