<!-- Generated by IcoMoon.io -->
<svg version="1.1" xmlns="http://www.w3.org/2000/svg" width="32" height="32" viewBox="0 0 32 32">
<title>vivo</title>
<path fill="#fff" d="M16 32c-8.837 0-16-7.163-16-16s7.163-16 16-16 16 7.163 16 16-7.163 16-16 16zM23.049 10.277c-1.664 2.772-6.527 9.835-7.036 10.44-0.488-0.596-5.058-7.27-7.081-10.472-0.282-0.45-0.775-0.744-1.337-0.744-0.322 0-0.621 0.097-0.871 0.263l0.006-0.004c-0.443 0.3-0.73 0.8-0.73 1.368 0 0.326 0.095 0.631 0.259 0.887l-0.004-0.007c2.047 3.241 3.84 5.985 5.27 8.036 2.407 3.453 2.787 4.456 4.475 4.456s2.194-1.136 4.535-4.447c1.603-2.268 3.526-5.238 5.23-8.076 0.148-0.242 0.236-0.535 0.236-0.849 0-0.581-0.301-1.091-0.755-1.384l-0.006-0.004c-0.75-0.47-1.73-0.23-2.19 0.537z"></path>
</svg>
