<!-- Generated by IcoMoon.io -->
<svg version="1.1" xmlns="http://www.w3.org/2000/svg" width="32" height="32" viewBox="0 0 32 32">
<title>vrc</title>
<path fill="#fff" d="M16 32c-8.837 0-16-7.163-16-16s7.163-16 16-16 16 7.163 16 16-7.163 16-16 16zM20.265 8l-4.234 9.113-4.327-9.113h-4.704l9 18 9-18zM16 12.959c0.788 0 1.427-0.656 1.427-1.465s-0.64-1.466-1.427-1.466c-0.788 0-1.427 0.657-1.427 1.466s0.639 1.465 1.427 1.465zM22.465 16.999c-0.788 0-1.427 0.657-1.427 1.466s0.64 1.465 1.427 1.465c0.788 0 1.426-0.656 1.426-1.465s-0.638-1.465-1.426-1.465z"></path>
</svg>
