<!-- Generated by IcoMoon.io -->
<svg version="1.1" xmlns="http://www.w3.org/2000/svg" width="32" height="32" viewBox="0 0 32 32">
<title>vrsc</title>
<path fill="#fff" d="M16 32c-8.837 0-16-7.163-16-16s7.163-16 16-16 16 7.163 16 16-7.163 16-16 16zM27.898 14.527c-0.31-2.437-1.309-4.596-2.794-6.328l0.014 0.016c-1.056-1.236-2.341-2.242-3.794-2.959l-0.070-0.031c-1.533-0.765-3.339-1.213-5.25-1.213-0.409 0-0.812 0.020-1.21 0.060l0.050-0.004c-4.245 0.422-7.804 3.004-9.593 6.618l-0.031 0.070c-0.762 1.533-1.208 3.339-1.208 5.25 0 0.654 0.052 1.296 0.153 1.922l-0.009-0.069c0.387 2.414 1.447 4.531 2.978 6.209l-0.008-0.009c2.245 2.502 5.591 3.965 8.952 3.926 6.587-0.043 11.911-5.393 11.911-11.987 0-0.519-0.033-1.029-0.097-1.531l0.006 0.059zM24.244 11.937c-0.051 0.070-0.098 0.15-0.138 0.234l-0.004 0.009-5.278 11.118c-0.253 0.531-0.507 1.068-0.795 1.58-1.307-0.010-2.614-0.005-3.922-0.005-2.083-4.288-4.156-8.58-6.244-12.863-0.043-0.083-0.087-0.171-0.131-0.254 0.034-0.024 0.112-0.068 0.146-0.088 0.815-1.014 1.64-2.024 2.459-3.039 0.102-0.131 0.22-0.258 0.336-0.375 0.054 0.087 0.107 0.175 0.151 0.273 1.568 3.828 2.031 4.86 2.498 5.89l-1.118-2.754c0.47 0 0.937 0.010 1.41-0.020 0.171 0.162 0.264 0.377 0.332 0.596 0.088-0.224 0.122-0.463 0.132-0.707 0.151-1.4 0.176-2.815 0.327-4.215 0.024-0.302 0.478-0.302 0.517-0.010 0.146 1.327 0.18 2.669 0.288 4 0.020 0.4 0.034 0.8 0.122 1.19 0.2-0.263 0.136-0.726 0.502-0.834 0.303-0.102 0.644 0.069 0.932-0.112 0.395-0.239 0.541-0.707 0.79-1.073 0.142-0.239 0.468-0.41 0.732-0.273 0.263 0.102 0.375 0.385 0.512 0.61 0.156 0.258 0.298 0.546 0.551 0.717 0.225 0.097 0.478 0.112 0.722 0.107 0.493-1.112 1-2.22 1.503-3.327 0.878 1.103 1.707 2.24 2.585 3.342 0.132 0.058 0.156 0.156 0.083 0.283zM18.074 10.541c-0.396 0.43-0.537 1.122-1.128 1.342-0.302 0.146-0.668 0.024-0.97 0.137-0.264 0.517-0.23 1.126-0.43 1.663-0.136 0.254-0.546 0.127-0.546-0.151-0.17-1.459-0.185-2.932-0.341-4.39-0.166 1.312-0.21 2.638-0.415 3.94 0 0.338-0.532 0.391-0.58 0.055-0.103-0.38-0.127-0.78-0.318-1.137-0.147-0.002-0.321-0.004-0.495-0.004s-0.348 0.001-0.521 0.004l0.026-0c1.244 2.82 2.478 5.639 3.722 8.459 1.259-2.82 2.561-5.62 3.81-8.444l0.005-0.010c-0.327-0.040-0.683-0.073-0.956-0.278-0.38-0.317-0.527-0.825-0.864-1.186z"></path>
</svg>
