<!-- Generated by IcoMoon.io -->
<svg version="1.1" xmlns="http://www.w3.org/2000/svg" width="32" height="32" viewBox="0 0 32 32">
<title>wabi</title>
<path fill="#fff" d="M16 32c-8.837 0-16-7.163-16-16s7.163-16 16-16 16 7.163 16 16-7.163 16-16 16zM21.89 7.468c0.056-0.217 0.056-0.3-0.007-0.377-0.107-0.127-0.208-0.121-0.334 0.020-0.082 0.089-0.107 0.242-0.107 0.6 0 0.784-0.1 0.874-0.435 0.401-0.12-0.172-0.252-0.287-0.328-0.287-0.063 0-0.12 0.013-0.12 0.026-0.010 0.047-0.023 0.087-0.039 0.126l0.002-0.005c-0.019 0.051 0.050 0.185 0.164 0.306 0.309 0.339 0.397 0.562 0.428 1.080 0.026 0.465 0.020 0.503-0.227 0.995-0.327 0.664-0.542 1.2-0.642 1.608-0.082 0.358-0.101 0.377-0.284 0.25-0.24-0.167-0.756-0.307-1.273-0.345-0.29-0.020-0.523-0.026-0.523-0.007 0 0.064 0.132 0.792 0.17 0.9 0.025 0.109 0.082 0.115 0.542 0.077 0.983-0.077 1.45-0.173 1.588-0.326 0.17-0.191 0.429-0.683 0.7-1.353 0.315-0.772 0.58-1.296 0.73-1.462 0.077-0.083 0.398-0.249 0.726-0.376 0.46-0.179 0.586-0.256 0.586-0.351 0-0.205-0.19-0.217-0.53-0.039-0.27 0.147-0.327 0.16-0.403 0.083-0.126-0.127-0.031-0.274 0.441-0.683 0.568-0.491 0.612-0.587 0.334-0.695-0.208-0.077-0.359 0.012-0.53 0.312-0.176 0.326-0.478 0.613-0.598 0.562s-0.139-0.606-0.031-1.040zM16.879 10.142c-0.044-0.498-0.12-0.644-0.385-0.76-0.227-0.095-0.53-0.102-0.945-0.025-1.002 0.179-1.305 0.275-1.98 0.62-0.661 0.338-0.737 0.395-0.869 0.663-0.24 0.46-0.22 0.626 0.070 0.792 0.44 0.248 0.541 0.389 0.541 0.74 0 0.172-0.031 0.37-0.075 0.434-0.145 0.236 0.598 1.551 1.304 2.285 0.227 0.243 0.429 0.498 0.448 0.58 0.044 0.167-0.006 0.843-0.1 1.29-0.040 0.188-0.062 0.403-0.062 0.624 0 0.666 0.207 1.284 0.559 1.792l-0.007-0.010c0.65 0.97 1.482 1.283 2.289 0.856 0.403-0.217 0.598-0.466 0.775-1.015 0.347-1.066 0.372-2.126 0.076-3.038-0.196-0.6-0.24-0.875-0.448-2.815-0.195-1.787-0.246-2.062-0.429-2.138-0.075-0.026-0.233-0.090-0.346-0.134-0.284-0.103-0.372-0.268-0.416-0.74zM10.916 12.523c0-0.326-0.113-0.677-0.246-0.785-0.113-0.090-0.277-0.109-0.34-0.038-0.094 0.095-0.031 0.427 0.145 0.785 0.202 0.402 0.233 0.632 0.114 0.753-0.17 0.172-0.353 0.096-1.003-0.44-0.195-0.16-0.435-0.115-0.435 0.076 0 0.147 0.284 0.338 0.725 0.479 0.177 0.057 0.366 0.16 0.429 0.236 0.107 0.128 0.113 0.14 0.006 0.217-0.070 0.051-0.202 0.064-0.378 0.038-0.059-0.009-0.127-0.014-0.195-0.014-0.085 0-0.168 0.008-0.248 0.022l0.008-0.001c-0.132 0.032-0.164 0.076-0.145 0.217 0.019 0.16 0.044 0.172 0.271 0.166 0.198-0.005 0.387-0.026 0.571-0.062l-0.022 0.004 0.296-0.050 0.485 0.452c0.265 0.25 0.58 0.594 0.693 0.773 0.29 0.434 0.63 0.772 0.782 0.772 0.132 0 0.485-0.434 0.8-0.99 0.284-0.49 0.316-0.644 0.246-1.148l-0.070-0.447-0.44 0.747c-0.347 0.593-0.473 0.746-0.58 0.753-0.177 0-0.58-0.421-0.775-0.804-0.196-0.396-0.196-0.99-0.007-1.303 0.139-0.23 0.177-0.6 0.070-0.67-0.126-0.083-0.31 0.109-0.41 0.428-0.063 0.185-0.132 0.364-0.164 0.396-0.076 0.083-0.183-0.237-0.183-0.562zM22.444 18.273c0.391-0.414 0.643-0.81 0.624-0.97-0.012-0.101-0.070-0.127-0.27-0.14-0.303-0.006-0.347 0-1.072 0.25-1.4 0.478-2.603 1.244-3.020 1.927-0.113 0.179-0.113 0.185 0 0.14 0.89-0.37 2.118-0.81 2.15-0.778 0.057 0.050-1.16 2.317-1.317 2.45-0.196 0.173-0.221 0.281-0.082 0.396 0.069 0.064 0.252 0.058 0.882-0.025 1.33-0.173 1.532-0.147 2.641 0.37 0.548 0.255 0.7 0.28 0.756 0.128 0.050-0.134-0.044-0.25-0.296-0.351-0.555-0.217-0.504-0.44 0.107-0.44 0.34 0 1.28 0.171 1.557 0.286 0.063 0.026 0.17-0.025 0.284-0.12 0.176-0.16 0.182-0.167 0.063-0.263-0.095-0.070-0.303-0.095-0.864-0.095-0.624 0-0.756-0.020-0.882-0.122l-0.145-0.12 0.208-0.129c0.113-0.070 0.479-0.191 0.813-0.268 1.21-0.268 1.519-0.414 1.393-0.65-0.151-0.288-0.41-0.262-1.355 0.165-0.555 0.25-1.078 0.377-1.135 0.281-0.1-0.166 0.076-0.39 0.643-0.817 0.328-0.249 0.618-0.498 0.637-0.549 0.044-0.127-0.158-0.344-0.328-0.344-0.202 0-0.429 0.204-0.763 0.676-0.17 0.243-0.397 0.479-0.554 0.568-0.271 0.16-0.505 0.204-0.568 0.109-0.012-0.026 0.095-0.262 0.253-0.524 0.123-0.196 0.229-0.403 0.315-0.619 0.050-0.191-0.007-0.338-0.133-0.338-0.189 0-0.397 0.293-0.472 0.676-0.045 0.205-0.108 0.44-0.152 0.517-0.094 0.186-0.611 0.734-0.895 0.958-0.227 0.172-1.222 0.613-1.273 0.562s0.070-0.205 1.242-1.622c0.397-0.478 0.85-1.008 1.008-1.174zM7.992 20.528c-0.133-0.195-0.282-0.435-0.42-0.681l-0.028-0.053c-0.233-0.408-0.277-0.447-0.473-0.466-0.016-0.001-0.034-0.002-0.052-0.002-0.108 0-0.21 0.029-0.297 0.081l0.003-0.002c-0.114 0.083-0.114 0.102-0.032 0.261 0.050 0.096 0.29 0.345 0.536 0.55 0.674 0.561 1.103 1.397 0.744 1.448-0.196 0.032-0.555-0.179-1.072-0.619-0.245-0.217-0.498-0.39-0.554-0.39-0.17 0-0.347 0.128-0.347 0.25 0 0.153 0.082 0.217 0.555 0.408 0.502 0.201 0.967 0.488 1.374 0.849 0.372 0.351 0.327 0.428-0.227 0.37-0.303-0.025-0.441-0.019-0.473 0.039-0.094 0.153 0.158 0.274 0.94 0.453 0.434 0.102 0.913 0.242 1.058 0.319 0.34 0.179 0.927 0.74 1.298 1.25 0.297 0.416 0.48 0.505 0.643 0.307 0.038-0.050 0.108-0.293 0.133-0.536 0.025-0.242 0.208-0.919 0.403-1.5 0.372-1.136 0.416-1.455 0.259-1.972-0.050-0.166-0.076-0.313-0.050-0.326 0.024-0.012 0.258 0.020 0.516 0.070 0.788 0.154 1.424 0.077 2.73-0.325 0.598-0.191 0.66-0.268 0.358-0.485-0.283-0.204-2.401-0.51-3.542-0.51-0.693 0-0.731 0.025-0.907 0.574-0.095 0.3-0.108 0.619-0.114 2.215-0.006 1.020-0.025 1.883-0.057 1.908-0.145 0.147-0.435-0.542-0.554-1.315-0.082-0.568-0.050-0.99 0.132-1.57 0.158-0.498 0.139-0.76-0.070-0.823-0.27-0.090-0.422 0.191-0.44 0.823-0.007 0.236-0.050 0.472-0.089 0.53-0.075 0.102-0.088 0.102-0.246-0.007-0.245-0.16-0.296-0.344-0.365-1.346-0.038-0.55-0.088-0.913-0.132-0.939-0.114-0.076-0.391-0.057-0.473 0.026-0.107 0.108-0.095 0.364 0.044 0.893 0.151 0.581 0.22 1.137 0.139 1.137s-0.618-0.562-0.851-0.894zM17.030 9.568s-0.070 0.556 0.063 0.869c0 0 0.17 0.28 0.397 0.325 0 0 0.101-0.549-0.070-0.989 0 0.006-0.068-0.255-0.39-0.204zM12.486 11.388c-0.22 0.236-0.057 0.447-0.057 0.44 0.252 0.396 0.756 0.632 0.756 0.632 0.095-0.217-0.031-0.517-0.031-0.517-0.183-0.287-0.668-0.555-0.668-0.555z"></path>
</svg>
