<!-- Generated by IcoMoon.io -->
<svg version="1.1" xmlns="http://www.w3.org/2000/svg" width="32" height="32" viewBox="0 0 32 32">
<title>wtc</title>
<path fill="#fff" d="M16 32c-8.837 0-16-7.163-16-16s7.163-16 16-16 16 7.163 16 16-7.163 16-16 16zM18.414 13.166v-2.49c0-0.001 0-0.002 0-0.002 0-0.057-0.007-0.113-0.021-0.166l0.001 0.005c-0.081-0.298-0.349-0.513-0.667-0.513-0.060 0-0.119 0.008-0.175 0.022l0.005-0.001-3.448 0.844c-0.301 0.072-0.521 0.338-0.523 0.656v7.555c0 0.056 0.007 0.11 0.020 0.164 0.081 0.298 0.349 0.513 0.667 0.513 0.060 0 0.119-0.008 0.175-0.022l-0.005 0.001 2.247-0.55v-4.538c0-0.62 0.43-1.16 1.044-1.31l0.68-0.167zM10.828 13.124v-2.449c-0-0.058-0.008-0.114-0.022-0.168l0.001 0.005c-0.081-0.298-0.349-0.513-0.667-0.513-0.060 0-0.118 0.008-0.174 0.022l0.005-0.001-3.449 0.844c-0.3 0.073-0.52 0.338-0.522 0.656v7.555c0 0.056 0.007 0.11 0.020 0.164 0.081 0.298 0.349 0.513 0.667 0.513 0.060 0 0.119-0.008 0.175-0.022l-0.005 0.001 2.074-0.508v-4.58c0-0.62 0.43-1.16 1.045-1.31l0.852-0.209zM21.695 10.885c-0.3 0.072-0.521 0.338-0.523 0.655v7.556c0.008 0.375 0.314 0.676 0.69 0.676 0.059 0 0.117-0.008 0.172-0.022l-0.005 0.001 3.449-0.844c0.3-0.073 0.52-0.338 0.522-0.655v-7.556c0-0.001 0-0.002 0-0.002 0-0.057-0.007-0.113-0.021-0.166l0.001 0.005c-0.081-0.297-0.349-0.512-0.667-0.512-0.061 0-0.119 0.008-0.175 0.022l0.005-0.001-3.448 0.844zM12.897 13.314l-2.754 0.674c-0.3 0.073-0.52 0.338-0.522 0.655v7.556c0 0.055 0.007 0.11 0.020 0.164 0.081 0.297 0.349 0.512 0.667 0.512 0.060 0 0.119-0.008 0.175-0.022l-0.005 0.001 3.448-0.844c0.3-0.073 0.52-0.338 0.522-0.655v-0.94c-0.053 0.007-0.115 0.012-0.178 0.012-0.635 0-1.17-0.429-1.33-1.014l-0.002-0.010c-0.026-0.098-0.041-0.211-0.041-0.327 0-0 0-0.001 0-0.001v0-5.761zM20.483 13.356l-2.581 0.632c-0.3 0.072-0.521 0.338-0.523 0.655v7.556c0 0.055 0.007 0.11 0.020 0.164 0.081 0.297 0.349 0.512 0.667 0.512 0.061 0 0.119-0.008 0.175-0.022l-0.005 0.001 3.449-0.844c0.3-0.073 0.52-0.338 0.522-0.655v-0.951l-0.010 0.002c-0.74 0.181-1.488-0.259-1.673-0.982-0.026-0.098-0.041-0.211-0.041-0.327 0-0 0-0.001 0-0.001v0-5.74z"></path>
<path fill="#fff" opacity="0.504" d="M12.897 13.314v5.761c0 0.11 0.013 0.22 0.040 0.328 0.162 0.595 0.698 1.024 1.333 1.024 0.063 0 0.124-0.004 0.185-0.012l-0.007 0.001v0.939c0 0.31-0.215 0.58-0.522 0.655l-3.448 0.844c-0.051 0.014-0.11 0.021-0.17 0.021-0.318 0-0.586-0.215-0.666-0.508l-0.001-0.005c-0.013-0.048-0.020-0.104-0.020-0.162 0-0.001 0-0.002 0-0.003v0-7.556c0-0.31 0.215-0.58 0.522-0.655l2.754-0.674zM20.483 13.356v5.74c0 0.11 0.014 0.22 0.040 0.328 0.186 0.723 0.935 1.163 1.674 0.982l0.010-0.002v0.95c-0.003 0.317-0.222 0.583-0.517 0.655l-0.005 0.001-3.449 0.844c-0.051 0.013-0.109 0.021-0.169 0.021-0.318 0-0.585-0.215-0.666-0.507l-0.001-0.005c-0.013-0.048-0.020-0.104-0.020-0.162 0-0.001 0-0.002 0-0.003v0-7.556c0-0.31 0.215-0.58 0.522-0.655l2.58-0.632z"></path>
</svg>
