<!-- Generated by IcoMoon.io -->
<svg version="1.1" xmlns="http://www.w3.org/2000/svg" width="32" height="32" viewBox="0 0 32 32">
<title>x</title>
<path fill="#fff" d="M16 32c-8.837 0-16-7.163-16-16s7.163-16 16-16 16 7.163 16 16-7.163 16-16 16zM14.116 6.010v3.919l1.88 1.963v-5.883h-1.88zM6.010 7.992l7.638 7.723c-0.121 0.129-0.245 0.256-0.37 0.381l-7.268 7.35h3.67c0.155-0.003 0.312 0.010 0.467-0.010 0.272-0.003 0.543 0.005 0.814-0.003 0.314-0.32 0.622-0.646 0.934-0.97l2.677-2.795c0.473-0.5 0.955-0.993 1.425-1.493 0.22 0.218 0.432 0.448 0.648 0.672 0.973 1.014 1.942 2.032 2.915 3.044 0.495 0.513 0.984 1.030 1.48 1.542 0.272 0.010 0.546-0.002 0.82 0.006 0.096 0.013 0.195 0.007 0.294 0.007h3.83l-0.69-0.696-6.772-6.846c-0.052-0.066-0.114-0.127-0.172-0.189 0.237-0.246 0.48-0.491 0.723-0.734 2.304-2.328 4.605-4.66 6.91-6.99h-4.938c-0.713 0.744-1.425 1.489-2.14 2.23-0.967 1.012-1.935 2.028-2.906 3.037-1.677-1.76-3.361-3.511-5.038-5.266h-4.951zM16 19.53h0.002c-0.004 1.967-0.004 3.933-0.004 5.9h1.89c0-1.308 0.004-2.613 0-3.92-0.627-0.661-1.262-1.317-1.888-1.98z"></path>
</svg>
