<!-- Generated by IcoMoon.io -->
<svg version="1.1" xmlns="http://www.w3.org/2000/svg" width="32" height="32" viewBox="0 0 32 32">
<title>xas</title>
<path fill="#fff" d="M16 32c-8.837 0-16-7.163-16-16s7.163-16 16-16 16 7.163 16 16-7.163 16-16 16zM25.992 14.471l0.008-0.001-3.826-6.462 0.002-0.007-12.254 0.006-3.922 6.556 0.039 0.006-0.032 0.013 10.090 11.418 0.426-0.52zM12.856 14.93l6.423-0.011 2.122 3.635-5.363 6.162-5.353-6.112zM10.078 17.91l-2.602-2.972 4.361-0.007zM19.801 14.064l-3.038-5.205 4.883-0.010 3.11 5.207zM24.572 14.91l-2.56 2.942-1.713-2.935zM18.781 14.066l-5.42 0.009 2.729-4.62zM10.382 8.872l5.040-0.010-3.080 5.214-5.060 0.009z"></path>
</svg>
