<!-- Generated by IcoMoon.io -->
<svg version="1.1" xmlns="http://www.w3.org/2000/svg" width="32" height="32" viewBox="0 0 32 32">
<title>xbc</title>
<path fill="#fff" d="M25.977 19.754l2.183 0.545 0.363-1.456-2.183-0.544 0.544-2.183-1.456-0.363-0.544 2.183-2.183-0.544-0.363 1.455 2.183 0.545-0.544 2.183 1.455 0.363zM16 32c-8.837 0-16-7.163-16-16s7.163-16 16-16 16 7.163 16 16-7.163 16-16 16zM20.611 13.76c0.28-1.844-1.090-2.826-2.965-3.477l0.623-2.499-1.487-0.37-0.606 2.433c-0.031-0.022-0.432-0.119-0.834-0.211l-0.357-0.069 0.61-2.45-1.485-0.37-0.624 2.498c-0.648-0.137-0.967-0.215-1.285-0.295l0.336 0.072 0.002-0.007-2.050-0.512-0.405 1.624s1.103 0.253 1.080 0.269c0.602 0.15 0.709 0.557 0.689 0.88l-0.71 2.846c0.041 0.010 0.095 0.026 0.154 0.050l-0.157-0.039-0.994 3.988c-0.075 0.187-0.264 0.469-0.684 0.365 0.014 0.021-1.080-0.27-1.080-0.27l-0.75 1.743 1.935 0.482c0.36 0.090 0.713 0.185 1.060 0.274l-0.63 2.527 1.485 0.37 0.624-2.5c0.405 0.11 0.8 0.212 1.184 0.308l-0.62 2.489 1.486 0.37 0.63-2.523c2.535 0.477 4.445 0.269 5.26-2.079 0.658-1.89-0.016-2.974-1.348-3.676 0.974-0.234 1.71-0.891 1.913-2.24zM17.184 18.646c-0.47 1.888-3.577 0.886-4.585 0.635l0.836-3.348c1.007 0.251 4.24 0.743 3.749 2.713zM17.671 13.749c-0.43 1.718-3.015 0.86-3.854 0.651l0.757-3.037c0.84 0.21 3.543 0.594 3.097 2.386z"></path>
</svg>
