<!-- Generated by IcoMoon.io -->
<svg version="1.1" xmlns="http://www.w3.org/2000/svg" width="32" height="32" viewBox="0 0 32 32">
<title>xdn</title>
<path fill="#fff" d="M16 32c-8.837 0-16-7.163-16-16s7.163-16 16-16 16 7.163 16 16-7.163 16-16 16zM13.309 12v8h2.738c1.322 0 3.683-0.803 3.683-4s-2.36-4-3.683-4zM14.819 18.38v-4.76h1.134c0.944 0 2.077 0.578 2.077 2.38s-1.133 2.38-2.077 2.38zM20.77 12v8h0.566v-6.872l5.097 6.872h0.567v-8h-0.567v7.026l-5.098-7.026zM5 12v2h1.888v-2zM7.833 12v2h1.887v-2zM10.665 12v2h1.889v-2zM10.665 15v2h1.889v-2zM10.665 18v2h1.889v-2zM7.833 15v2h1.887v-2z"></path>
</svg>
