<!-- Generated by IcoMoon.io -->
<svg version="1.1" xmlns="http://www.w3.org/2000/svg" width="32" height="32" viewBox="0 0 32 32">
<title>xmy</title>
<path fill="#fff" d="M16 32c-8.837 0-16-7.163-16-16s7.163-16 16-16 16 7.163 16 16-7.163 16-16 16zM21.050 21h4.567c0.764 0 1.383-0.642 1.383-1.433s-0.619-1.433-1.39-1.433l-2.637 0.018c0.68-2.182 1.022-3.617 1.022-4.304 0-1.818-1.263-2.848-2.765-2.848-1.623 0-2.766 0.848-3.427 1.576-0.48-1.091-1.563-1.576-2.403-1.576s-1.803 0.242-2.525 1.152c-0.16-0.687-0.6-1.030-1.322-1.030h-5.14c-0.758 0.037-1.358 0.66-1.358 1.423 0 0.774 0.618 1.405 1.388 1.425l0.002 0h3.065l-1.382 5.757c0.040 0.849 0.44 1.273 1.202 1.273 0.841 0 1.382-0.485 1.623-1.455 0.44-1.777 0.781-3.11 1.022-4 0.36-1.333 1.142-1.939 1.983-1.939s1.202 0.606 1.202 1.091c0 0.323-0.112 0.84-0.337 1.55-0.577 2.127-0.865 3.288-0.865 3.48 0 0.485 0.18 1.273 1.263 1.273 0.72 0 1.222-0.364 1.502-1.090 0.722-2.789 1.182-4.506 1.383-5.152 0.3-0.97 1.29-1.152 1.743-1.152 0.781 0 1.202 0.546 1.202 1.091 0 0.283-0.071 0.603-0.214 0.96-0.699 2.306-1.048 3.683-1.048 4.13 0 0.91 0.661 1.213 1.262 1.213z"></path>
</svg>
