<!-- Generated by IcoMoon.io -->
<svg version="1.1" xmlns="http://www.w3.org/2000/svg" width="32" height="32" viewBox="0 0 32 32">
<title>xp</title>
<path fill="#fff" d="M16.526 23h1.414l0.977-4.923 2.306 0.010c1.61 0 2.934-0.412 3.973-1.236 1.040-0.824 1.633-1.921 1.779-3.293 0.088-0.941-0.056-1.76-0.434-2.455l-2.73 1.427c0.020 0.11 0.031 0.223 0.035 0.335 0.022 0.872-0.183 1.566-0.615 2.083s-1.040 0.78-1.822 0.793l-2.031-0.020 0.194-0.975-3.515 1.837-0.64 3.245-0.862-2.46-2.645 1.383 1.082 4.249zM15.211 12.010h1.75l-0.532 2.693 3.516-1.838 0.3-1.51 2.295 0.020c0.070 0.004 0.14 0.013 0.208 0.026l2.8-1.464c-0.746-0.586-1.701-0.895-2.866-0.927l-7.341-0.010-1.88 3.010-1.051 1.779-1.23-4.789h-3.48l2.372 6.827-2.467 3.49 6.659-3.482 2.697-3.826zM16 32c-8.837 0-16-7.163-16-16s7.163-16 16-16 16 7.163 16 16-7.163 16-16 16zM5.786 21.952l-0.020-0.037-0.766 1.085h3.765l2.348-3.833z"></path>
</svg>
