<!-- Generated by IcoMoon.io -->
<svg version="1.1" xmlns="http://www.w3.org/2000/svg" width="32" height="32" viewBox="0 0 32 32">
<title>xuc</title>
<path fill="#fff" d="M16 32c-8.837 0-16-7.163-16-16s7.163-16 16-16 16 7.163 16 16-7.163 16-16 16zM27 16c0-6.075-4.925-11-11-11s-11 4.924-11 11c0 6.075 4.925 11 11 11s11-4.925 11-11zM23.23 16.346l-12.318 0.017c0.198 2.649 2.395 4.724 5.077 4.726h0c1.929-0 3.607-1.075 4.467-2.659l0.013-0.027h2.322c-0.868 2.396-2.9 4.177-5.394 4.673l-0.046 0.008v1.446l-2.24 0.698v-2.068c-3.574-0.435-6.345-3.474-6.345-7.165 0-3.605 2.647-6.587 6.103-7.125v-1.403l2.239-0.697v2.1c3.457 0.538 6.122 3.742 6.122 7.35 0 0.126 0.007 0 0 0.126zM11.25 14.13h9.477c-0.765-1.906-2.597-3.228-4.738-3.229h-0c-2.141 0.001-3.974 1.323-4.726 3.196l-0.012 0.034z"></path>
</svg>
