<!-- Generated by IcoMoon.io -->
<svg version="1.1" xmlns="http://www.w3.org/2000/svg" width="32" height="32" viewBox="0 0 32 32">
<title>yfi</title>
<path fill="#fff" d="M16 0c8.837 0 16 7.163 16 16s-7.163 16-16 16-16-7.163-16-16 7.163-16 16-16zM17.342 16.075l-0.157 1.67c1.957 1.558 2.221 2.715 1.921 4.258-0.679 2.39-2.751 2.64-3.633 2.488-1.010-0.185-1.434-0.237-2.306-1.261-0.458-0.579-0.734-1.319-0.734-2.124 0-0.621 0.164-1.203 0.452-1.706l-0.009 0.017 0.012-0.020 0.442 2.1 1.27-0.252-0.83-4.424-4.27 1.012 0.342 1.379 1.749-0.34-0.017 0.041c-0.075 0.184-0.38 0.958-0.471 1.562-0.588 3.688 2.533 5.358 3.83 5.446 2.573 0.188 4.067-0.924 4.843-2.103 1.44-2.36 0.721-4.106 0.303-4.994-0.546-1.118-2.737-2.749-2.737-2.749zM16.582 9.755h-1.373v12.605h1.373v-12.606zM16.552 6.009c-2.58-0.121-4.043 1.030-4.785 2.23-1.38 2.4-0.615 4.124-0.17 4.997 0.576 1.103 2.81 2.676 2.81 2.676l0.111-1.673c-2-1.503-2.294-2.651-2.033-4.203 0.615-2.409 2.679-2.709 3.567-2.582 1.009 0.158 1.436 0.2 2.336 1.2 0.493 0.591 0.793 1.358 0.793 2.195 0 0.589-0.148 1.143-0.409 1.627l0.009-0.018-0.011 0.020-0.497-2.084-1.26 0.284 0.945 4.4 4.239-1.124-0.379-1.372-1.74 0.387s0.361-0.924 0.446-1.618c0.491-3.703-2.676-5.288-3.972-5.342z"></path>
</svg>
