<!-- Generated by IcoMoon.io -->
<svg version="1.1" xmlns="http://www.w3.org/2000/svg" width="32" height="32" viewBox="0 0 32 32">
<title>zec</title>
<path fill="#fff" d="M16 32c-8.837 0-16-7.163-16-16s7.163-16 16-16 16 7.163 16 16-7.163 16-16 16zM15.096 19.846c0.487-0.534 0.984-1.113 1.462-1.707l0.056-0.071c0.598-0.702 1.814-2.192 3.021-3.69l0.693-0.89c0.387-0.48 0.968-0.958 1.065-1.505 0.194-1.026 0.065-2.12 0.065-3.248h-3.908v-2.735h-3.132v2.803h-3.585v3.35h6.039c-0.55 0.65-1.033 1.197-1.518 1.779-0.598 0.702-1.814 2.192-3.021 3.69l-0.693 0.89c-0.355 0.48-0.936 0.958-1.033 1.505-0.194 1.026-0.065 2.12-0.065 3.214h3.876v2.769h3.261c-0.064-0.957-0.097-1.846-0.161-2.803h3.875v-3.35h-6.297z"></path>
</svg>
