<!-- Generated by IcoMoon.io -->
<svg version="1.1" xmlns="http://www.w3.org/2000/svg" width="32" height="32" viewBox="0 0 32 32">
<title>zen</title>
<path fill="#fff" d="M16 0c8.837 0 16 7.163 16 16s-7.163 16-16 16-16-7.163-16-16 7.163-16 16-16zM24.8 9.568l-1.78 2.77c0.54 1.036 0.856 2.261 0.856 3.561 0 0.012-0 0.024-0 0.036v-0.002c0 4.4-3.56 7.943-7.943 7.943-0.010 0-0.023 0-0.035 0-1.293 0-2.513-0.317-3.585-0.876l0.043 0.020-2.788 1.797c1.797 1.276 3.98 2.049 6.348 2.049 6.029 0 10.933-4.887 10.933-10.933 0-0.009 0-0.019 0-0.029 0-2.25-0.687-4.34-1.862-6.071l0.024 0.038-0.211-0.303zM15.933 5c-0.003 0-0.007 0-0.010 0-6.033 0-10.923 4.89-10.923 10.923 0 0.004 0 0.007 0 0.011v-0.001c0 2.435 0.79 4.669 2.133 6.482 0.52-0.94 1.142-1.797 1.864-2.57 0 0 1.075-1.124 1.898-1.695 2.13-1.574 4.807-2.52 7.706-2.52 0.007 0 0.014 0 0.020 0h-0.001c0.798 0 1.572 0.070 2.333 0.21l0.455 0.093c-0.001-3.033-2.459-5.491-5.492-5.492h-0c-3.024 0.003-5.475 2.455-5.475 5.48 0 0.177 0.008 0.352 0.025 0.525l-0.002-0.022 0.028 0.248c-1.377 1.058-2.032 1.88-2.066 1.914-0.284-0.785-0.45-1.691-0.453-2.635v-0.001c0-4.4 3.56-7.944 7.943-7.944 1.293 0 2.502 0.302 3.577 0.857l2.771-1.797c-1.742-1.291-3.934-2.066-6.306-2.066-0.009 0-0.017 0-0.026 0h0.001zM18.687 16.621c-2.72 0-5.256 0.874-7.305 2.352 0.994 1.467 2.652 2.418 4.533 2.418 0.006 0 0.012 0 0.018-0h-0.001c0 0 0.001 0 0.002 0 2.675 0 4.902-1.916 5.385-4.45l0.005-0.034c-0.792-0.181-1.702-0.285-2.636-0.286h-0.001z"></path>
</svg>
