<!-- Generated by IcoMoon.io -->
<svg version="1.1" xmlns="http://www.w3.org/2000/svg" width="32" height="32" viewBox="0 0 32 32">
<title>zest</title>
<path fill="#fff" d="M16 32c-8.837 0-16-7.163-16-16s7.163-16 16-16 16 7.163 16 16-7.163 16-16 16zM18.266 8.637c-0.126-0.031-0.271-0.049-0.419-0.049-0.31 0-0.601 0.077-0.856 0.214l0.010-0.005c-0.847 0.385-1.738 0.665-2.653 0.835-0.472 0.112-0.87 0.239-1.255 0.392l0.062-0.022c-0.285 0.164-0.62 0.32-0.968 0.448l-0.046 0.015c-0.872 0.123-2.482-0.947-2.33 0.71 0 0.304 0.312 0.465 0.217 0.853s-0.511 0.73-0.71 1.033c-0.382 0.629-0.705 1.355-0.931 2.122l-0.017 0.066c-0.215 0.671-0.34 1.443-0.34 2.243 0 1.097 0.233 2.14 0.653 3.082l-0.019-0.048c0.35 0.82 0.817 1.586 1.383 2.274 0.277 0.323 0.52 0.672 0.73 1.042 0.16 0.438 0.36 0.86 0.597 1.26 0.329 0.411 0.83 0.672 1.393 0.672 0.127 0 0.251-0.013 0.371-0.039l-0.012 0.002c0.363-0.126 0.676-0.277 0.969-0.457l-0.021 0.012c0.462-0.19 0.999-0.333 1.559-0.405l0.032-0.003c2.061-0.331 3.837-1.36 5.116-2.832l0.009-0.010c0.601-0.721 1.087-1.564 1.413-2.482l0.018-0.057c0.171-0.454 0.312-0.989 0.401-1.543l0.006-0.048c0.048-0.341-0.056-1.204 0.19-1.43 0.16-0.153 0.54-0.19 0.654-0.333 0.079-0.167 0.147-0.363 0.194-0.567l0.004-0.020c0.18-0.559-0.871-1.004-1.278-1.194-0.531-0.322-0.72-1.27-1.052-1.79-0.455-0.73-1.118-1.326-1.516-2.084s-0.445-1.336-1.127-1.696c-0.074-0.040-0.162-0.079-0.253-0.11l-0.013-0.004c-0.17-0.407 0.578-0.568 0.806-0.54 0.407 0.12 0.78 0.334 1.090 0.625 0.596 0.446 1.77 1.763 2.633 1.45 0.862-0.313-0.161-1.838-0.635-2.236-0.611-0.577-1.437-0.931-2.346-0.931-0.209 0-0.413 0.019-0.612 0.055l0.021-0.003c-0.478 0.143-0.87 0.49-1.070 0.946-0.045 0.167-0.187 0.471-0.050 0.588zM23.896 6.695c-0.568-0.142-1.894-0.123-2.301 0.436 0.407 0.227 0.691 0.577 1.108 0.587s0.9-0.389 1.43-0.161c-0.227 0-1.25 0.19-1.316 0.502 0.143 0.235 0.315 0.451 0.511 0.644 0.266 0.218 0.294 0.294 0.692 0.076 0.482-0.308 0.848-0.762 1.037-1.299l0.005-0.018c0-0.284 0.085-0.095-0.123-0.331-0.291-0.221-0.645-0.375-1.029-0.434l-0.013-0.002zM18.554 7.197c0.482-0.262 1.054-0.416 1.663-0.416 0.301 0 0.592 0.038 0.871 0.108l-0.024-0.005c-0.087-0.946-0.529-1.776-1.189-2.365l-0.004-0.003c0.82 0.51 1.397 1.33 1.6 2.273 0.465-0.075 0.948-0.255 1.393-0.322-0.086-0.943-0.5-1.776-1.127-2.396l-0-0c-0.313-0.294-1.194-1.071-1.697-1.071s-1.156 1.137-1.345 1.601c-0.181 0.449-0.286 0.969-0.286 1.513 0 0.385 0.052 0.758 0.151 1.112l-0.007-0.029zM23.111 15.723c-0.143 0.322-0.702 0.512-0.948 0.853-0.367 0.654-0.832 1.206-1.382 1.659l-0.010 0.008c-0.37 0.197-0.808 0.312-1.274 0.312-0.876 0-1.656-0.409-2.161-1.045l-0.004-0.006c-0.401-0.498-0.644-1.138-0.644-1.835 0-0.004 0-0.008 0-0.012v0.001c0-0.521 0.569-1.829 0-2.113s-0.833 0.635-1.051 0.948c-0.383 0.629-0.951 1.113-1.626 1.384l-0.023 0.008c-0.298 0.104-0.642 0.165-0.999 0.165-0.827 0-1.579-0.322-2.137-0.848l0.002 0.001c-0.361-0.508-0.577-1.141-0.577-1.825 0-0.322 0.048-0.633 0.137-0.925l-0.006 0.022c0.001-0.049 0.002-0.107 0.002-0.165 0-0.435-0.046-0.859-0.132-1.268l0.007 0.040c0-0.682 0.597-0.436 1.080-0.341 1.266 0.23 2.389 0.712 3.362 1.392l-0.027-0.018c0.901 0.752 2.008 1.287 3.225 1.508l0.043 0.007c0.805 0.076 1.603 0.212 2.388 0.408 0.388 0.114 0.748 0.303 1.127 0.436 0.4 0.13 0.788 0.297 1.156 0.502 0.256 0.113 0.625 0.34 0.483 0.71l-0.010 0.038z"></path>
</svg>
