<?xml version="1.0" encoding="utf-8"?>
<!-- Generator: Adobe Illustrator 24.2.0, SVG Export Plug-In . SVG Version: 6.00 Build 0)  -->
<svg version="1.1" id="Layer_1" xmlns="http://www.w3.org/2000/svg" xmlns:xlink="http://www.w3.org/1999/xlink" x="0px" y="0px"
	 viewBox="0 0 32 32" style="enable-background:new 0 0 32 32;" xml:space="preserve">
<style type="text/css">
	.st0{fill:#71E0EC;}
</style>
<g>
	<path class="st0" d="M15.9,22.9c3.2,0,5.8-2.6,5.8-5.8c0-1.3-1-3.3-3-5.9c-1.1-1.4-2.2-2.7-2.8-3.3c-0.5,0.6-1.6,1.8-2.7,3.3
		c-2,2.6-3,4.6-3,5.9C10.1,20.3,12.7,22.9,15.9,22.9z"/>
	<path class="st0" d="M16,0C7.2,0,0,7.2,0,16s7.2,16,16,16c8.8,0,16-7.2,16-16S24.8,0,16,0z M15.5,7l0.3-0.3L16.2,7
		c0.3,0.3,6.4,6.6,6.4,10.1c0,3.7-3,6.7-6.7,6.7s-6.7-3-6.7-6.7C9.2,13.5,15.2,7.2,15.5,7z M14,5.6c0.2-0.2,0.5-0.2,0.6,0
		c0.2,0.2,0.2,0.5,0,0.6C14.5,6.3,8,12.8,8,17.2c0,4.4,3.5,7.9,7.9,7.9s7.9-3.5,7.9-7.9c0-1.8-1.2-4.3-3.4-7.2
		C18.7,7.8,17,6.1,17,6.1c-0.2-0.2-0.2-0.5,0-0.6c0.2-0.2,0.5-0.2,0.6,0c0.3,0.3,7,7,7,11.7c0,4.8-4,8.8-8.8,8.8
		c-4.8,0-8.7-4-8.7-8.8S13.7,5.8,14,5.6z M15.9,28.1c-5.9,0-10.7-4.8-10.7-10.7c0-2.4,1.2-5.4,3.6-8.9c1.8-2.6,3.5-4.4,3.6-4.5
		c0.2-0.2,0.5-0.2,0.6,0c0.2,0.2,0.2,0.5,0,0.6c0,0-1.8,1.9-3.5,4.4C7.2,12.3,6,15.2,6,17.4c0,5.4,4.4,9.8,9.8,9.8
		c5.4,0,9.8-4.4,9.8-9.8c0-2.2-1.2-5.1-3.5-8.4c-1.8-2.5-3.5-4.3-3.6-4.4c-0.2-0.2-0.2-0.5,0-0.6c0.2-0.2,0.5-0.2,0.6,0
		c0.3,0.3,7.3,7.6,7.3,13.4C26.6,23.3,21.8,28.1,15.9,28.1z"/>
</g>
</svg>
