<?xml version="1.0" encoding="utf-8"?>
<!-- Generator: Adobe Illustrator 24.2.0, SVG Export Plug-In . SVG Version: 6.00 Build 0)  -->
<svg version="1.1" id="Layer_1" xmlns="http://www.w3.org/2000/svg" xmlns:xlink="http://www.w3.org/1999/xlink" x="0px" y="0px"
	 viewBox="0 0 32 32" style="enable-background:new 0 0 32 32;" xml:space="preserve">
<style type="text/css">
	.st0{fill:#FF007A;}
</style>
<g>
	<path class="st0" d="M8.6,22.9C8.8,23.1,9,23,9.2,22.8c0.1-0.3,0-0.6-0.2-0.8s-0.6-0.1-0.6,0.1c0,0.1,0,0.1,0.1,0.1
		c0.1,0.1,0.1,0.1,0,0.3C8.5,22.7,8.5,22.8,8.6,22.9z"/>
	<path class="st0" d="M15.1,16.5c0.2,0,0.4-0.1,0.5-0.2c0.1-0.2,0.1-0.3-0.1-0.5c-0.4-0.2-0.9,0-0.9,0.3
		C14.5,16.3,14.8,16.5,15.1,16.5z"/>
	<path class="st0" d="M16,0C12,0,8.4,1.5,5.6,3.9c2.4,2.6,8,8.8,8.5,9.4l0.2,0.2v0.3c0,0.4-0.2,0.7-0.5,1c-0.4,0.3-0.8,0.5-1.5,0.6
		c-0.4,0.1-0.6,0.1-0.8,0.3s-0.2,0.4-0.3,1c-0.1,0.9-0.2,1.3-0.6,2.2c-0.4,0.9-0.5,1.2-0.4,1.6c0.1,0.5,0.4,1,1.1,1.5
		c0.6,0.4,0.8,0.6,1,0.9c0.1,0.2,0.1,0.3,0.1,0.6c0,0.5-0.1,0.7-0.4,1c-0.5,0.6-1.5,1-2.7,1.3c-0.5,0.1-0.5,0.1-0.5,0
		c0-0.1-0.2-0.5-0.5-1c-0.4-0.6-0.5-0.8-0.7-1.3c-0.2-0.5-0.2-0.8-0.2-1.3s0.1-0.7,0.3-1.1c0.2-0.3,0.2-0.5,0.9-1.2
		c1.1-1.3,1.4-2.1,1.6-3.1c0.1-1,0.3-1.4,0.7-1.8c0.2-0.2,0.3-0.3,0.3-0.5c0-0.1-0.3-0.8-1.4-2.6C8,8.8,8,8.8,8.1,8.8
		c0,0,0.8,1.2,1.7,2.6c1.2,1.9,1.7,2.6,1.9,2.8s0.4,0.3,0.7,0.3c0.2,0,0.6-0.1,0.8-0.2c0.3-0.2,0.4-0.5,0.2-0.7
		C13.1,13.2,8.7,7.8,5.5,4C2.1,6.9,0,11.2,0,16c0,8.8,7.2,16,16,16s16-7.2,16-16S24.8,0,16,0z M23,10.8c0.5,0.2,0.6,0.2,0.6,0.2
		s0.1-0.2,0.1-0.5c0-0.5,0.1-0.9,0.2-1.2C24,9.2,24,9.1,24.1,9.1c0,0,0,0.1-0.1,0.2c-0.1,0.3-0.1,0.7-0.1,1.2
		c0.1,0.6,0.1,0.7,0.8,1.4c0.3,0.3,0.7,0.7,0.8,0.9l0.2,0.3l-0.2-0.2c-0.3-0.3-0.9-0.8-1.1-0.9c-0.1-0.1-0.1-0.1-0.2,0
		c-0.1,0.1-0.1,0.1-0.1,0.5c0,0.6-0.1,1-0.3,1.4c-0.1,0.2-0.1,0.2,0-0.1c0.1-0.2,0.1-0.3,0.1-0.8c0-1.2-0.1-1.5-1-2l-1.2-0.6
		C21.9,10.4,22.7,10.7,23,10.8z M17.5,10.7l0.2,0.3l0.4-0.1c1.5-0.2,3.1-0.1,4.4,0.5c0.4,0.2,0.9,0.5,1,0.6c0,0,0.1,0.2,0.1,0.4
		c0.1,0.6,0.1,1.1-0.2,1.5c-0.1,0.2-0.1,0.3,0,0.4c0.1,0.1,0.2,0.2,0.4,0.2c0.3,0,0.7-0.5,0.8-1.2l0.1-0.3l0.1,0.1
		c0.7,0.8,1.2,1.9,1.3,2.6v0.2L26,15.7c-0.2-0.3-0.4-0.5-0.7-0.7c-0.5-0.3-1-0.4-2.3-0.5c-1.2-0.1-1.8-0.2-2.5-0.4
		c-1.1-0.4-1.7-0.8-3-2.6c-0.6-0.8-1-1.2-1.3-1.6c-0.6-0.6-1.1-0.9-1.8-1.1c0.1,0,0.2,0,0.3,0C15.7,9,16.6,9.6,17.5,10.7z
		 M21.1,18.9c0-0.2-0.1-0.5-0.1-0.6c0.2,0.2,0.3,0.5,0.4,0.8c0.1,0.3,0.1,0.3,0.1,0.8c0,0.4,0,0.5-0.1,0.7c-0.1,0.4-0.3,0.6-0.6,0.9
		c-0.5,0.5-1.1,0.8-2,0.9c-0.2,0-0.6,0.1-1,0.1c-1,0.1-1.7,0.2-2.3,0.4c-0.1,0-0.2,0.1-0.2,0c0,0,0.4-0.3,0.7-0.4
		c0.5-0.2,1-0.4,2-0.5c0.5-0.1,1.1-0.2,1.2-0.2C20.6,21.3,21.3,20.2,21.1,18.9z M14.1,12.6c-0.6-0.8-0.9-2-0.9-2.9V9.4h0.1
		c0.2,0,0.7,0.2,0.9,0.3c0.5,0.3,0.8,0.8,1,1.9c0.1,0.3,0.2,0.7,0.2,0.8c0.1,0.2,0.3,0.7,0.5,1c0.2,0.2,0.1,0.3-0.3,0.3
		C15.2,13.6,14.5,13.2,14.1,12.6z M14,16.4c0.1-0.4,0.4-0.7,0.7-0.8c0.2-0.1,0.6,0,0.8,0.1c0.4,0.2,0.7,0.7,0.6,1
		c-0.1,0.4-0.7,0.7-1.5,0.7c-0.4,0-0.5-0.1-0.7-0.2C13.9,17,13.9,16.6,14,16.4z M21.9,29c-0.3,0.2-0.6,0.2-1,0.2
		c-0.7,0-1.2-0.3-1.7-1c-0.1-0.1-0.3-0.5-0.5-0.9c-0.5-1.1-0.7-1.4-1.3-1.8c-0.5-0.3-1.1-0.4-1.6-0.2c-0.6,0.3-0.8,1.1-0.4,1.6
		c0.2,0.2,0.5,0.4,0.8,0.4c0.5,0.1,0.9-0.3,0.9-0.8c0-0.3-0.1-0.5-0.5-0.7c-0.4-0.2-0.9,0-0.9,0.5c0,0.2,0.1,0.3,0.3,0.4
		c-0.4-0.1-0.5-0.6-0.2-0.9c0.4-0.4,1.2-0.2,1.5,0.3c0.1,0.2,0.1,0.7,0,0.9c-0.2,0.6-0.9,0.9-1.6,0.7c-0.5-0.1-0.6-0.2-1.2-0.8
		c-1-1-1.3-1.2-2.7-1.4h-0.3l0.3-0.3c1-0.8,2.3-1.4,3.4-1.6c0.5-0.1,1.3-0.1,1.8,0.1c0.7,0.2,1.4,0.6,1.7,1.1s0.5,0.9,0.6,1.9
		c0.1,0.4,0.1,0.8,0.1,0.8c0.1,0.5,0.3,0.9,0.6,1.1c0.4,0.3,1.2,0.3,1.9,0.1c0.1,0,0.2-0.1,0.2-0.1C22.5,28.6,22.2,28.9,21.9,29z
		 M26.6,24.5c-0.3,1.2-1,2.1-2,2.6c-0.2,0.1-0.3,0.1-0.3,0.1s0-0.1,0.1-0.3c0.3-0.7,0.4-1.4,0.1-2.1c-0.2-0.5-0.5-1-1.1-2
		c-0.8-1.1-0.9-1.4-1.1-1.8c-0.4-0.8-0.4-1.5-0.2-2.2c0-0.1,0.1-0.1,0.1-0.1s0.1,0,0.2,0.1c0.1,0.1,0.5,0.3,1.4,0.8
		c1.1,0.6,1.7,1.1,2.2,1.6c0.4,0.5,0.6,1,0.7,1.7C26.7,23.3,26.7,24.2,26.6,24.5z M26.9,21.8v-0.2c0-0.6-0.3-1.1-0.8-1.5
		c-0.6-0.5-1.3-0.9-3.1-1.6c-2.7-1.1-3.7-2-3.7-3.6v-0.4l0.2,0.2c0.5,0.4,1.2,0.6,2.9,0.9c1,0.2,1.6,0.3,2.1,0.4
		c1.7,0.5,2.7,1.7,2.9,3.2c0.1,0.4,0,1.3-0.1,1.7C27.3,21.2,27,21.8,26.9,21.8z"/>
</g>
</svg>
