<?xml version="1.0" encoding="utf-8"?>
<!-- Generator: Adobe Illustrator 26.0.1, SVG Export Plug-In . SVG Version: 6.00 Build 0)  -->
<svg version="1.1" id="Layer_1" xmlns="http://www.w3.org/2000/svg" xmlns:xlink="http://www.w3.org/1999/xlink" x="0px" y="0px"
	 viewBox="0 0 32 32" enable-background="new 0 0 32 32" xml:space="preserve">
<path fill="#334081" d="M16,18.1c-1.2,0-2.2-1-2.2-2.2c0-1.2,1-2.2,2.2-2.2c1.2,0,2.2,1,2.2,2.2C18.2,17.1,17.2,18.1,16,18.1z
	 M32,16c0,8.8-7.2,16-16,16S0,24.8,0,16S7.2,0,16,0S32,7.2,32,16z M26.1,18.4h-2.6v1.7c0,0.2-0.1,0.4-0.3,0.4h0l-5.8,3v-3
	c2-0.5,3.5-2.4,3.5-4.6c0-2.7-2.2-4.8-4.9-4.8c-2.7,0-4.9,2.2-4.9,4.8c0,2.2,1.5,4,3.5,4.6v3l-6-3c-0.2-0.1-0.3-0.3-0.3-0.4v-1.7
	H5.9v1.7c0,1.2,0.6,2.2,1.7,2.7l7,3.6c0.4,0.2,0.9,0.3,1.4,0.3c0.5,0,1-0.1,1.4-0.3l7.1-3.6c1-0.5,1.7-1.6,1.7-2.7V18.4z M26.1,11.9
	c0-1.2-0.6-2.2-1.7-2.7l-7.1-3.6c-0.9-0.4-1.9-0.4-2.8,0L7.5,9.2c-1,0.5-1.7,1.6-1.7,2.7v1.7h2.6v-1.7c0-0.2,0.1-0.4,0.3-0.4
	l7.1-3.6c0.2-0.1,0.3-0.1,0.4,0l7.1,3.6c0.2,0.1,0.3,0.3,0.3,0.4v1.7h2.6V11.9z"/>
</svg>
