<?xml version="1.0" encoding="utf-8"?>
<!-- Generator: Adobe Illustrator 24.2.0, SVG Export Plug-In . SVG Version: 6.00 Build 0)  -->
<svg version="1.1" id="Layer_1" xmlns="http://www.w3.org/2000/svg" xmlns:xlink="http://www.w3.org/1999/xlink" x="0px" y="0px"
	 viewBox="0 0 32 32" style="enable-background:new 0 0 32 32;" xml:space="preserve">
<style type="text/css">
	.st0{fill:#12A3CA;}
</style>
<path class="st0" d="M16,0C7.2,0,0,7.2,0,16s7.2,16,16,16s16-7.2,16-16S24.8,0,16,0z M11,27.3l-1.8-1.9l4.4-4.4l-4.5-4.5l1.9-1.9
	l6.3,6.5L11,27.3z M18.2,20.3l-6.3-6.5l1.9-1.8l6.3,6.3L18.2,20.3z M21,17.4L21,17.4L14.6,11L21,4.7l1.8,1.9L18.4,11l4.5,4.5
	L21,17.4z"/>
</svg>
