<?xml version="1.0" encoding="utf-8"?>
<!-- Generator: Adobe Illustrator 24.1.0, SVG Export Plug-In . SVG Version: 6.00 Build 0)  -->
<svg version="1.1" id="Layer_1" xmlns="http://www.w3.org/2000/svg" xmlns:xlink="http://www.w3.org/1999/xlink" x="0px" y="0px"
	 viewBox="0 0 1208 360" style="enable-background:new 0 0 1208 360;" xml:space="preserve">
<style type="text/css">
	.st0{fill:#FF564F;}
	.st1{fill:#FCEE21;}
</style>
<polygon class="st0" points="869.7,-3175.2 935.9,-3175.2 820.7,-2888.9 744.2,-2888.9 629,-3175.2 695.2,-3175.2 782.3,-2957.9 "/>
<rect x="-138.7" y="-3091.7" transform="matrix(-1.836970e-16 1 -1 -1.836970e-16 -3027.4446 -3095.7351)" class="st0" width="345.6" height="60.3"/>
<polygon class="st0" points="241.2,-2888.8 109.1,-3061.6 241.2,-3234.4 316.9,-3234.4 186.5,-3061.6 316.9,-2888.8 "/>
<path class="st0" d="M480.2-3182.8c-66,0-115.7,36.5-119.3,90.8l-0.4,6.4h59.2l1-4.7c5.5-25.5,26.3-39.5,58.5-39.5
	c35,0,55.1,17.6,55.1,48.4v17.7l-74.2,4.2c-66.8,3.9-107.2,36.6-107.2,87.4c0,53.6,40.2,89.5,99.3,89.5c35.2,0,60.9-9.6,81.9-31.1
	v26.2h60V-3086C594-3144.8,548.6-3182.8,480.2-3182.8z M534.2-3017.3v17.8c-3.9,38.9-30.8,63.3-72,65.3
	c-15.9,0.8-29.6-3.5-38.6-12.1c-7.1-6.7-10.8-15.7-10.8-25.9c0-22.8,19.4-37.1,53.5-39.3L534.2-3017.3z"/>
<path class="st0" d="M1089.2-3182.8c-66,0-115.7,36.5-119.3,90.8l-0.4,6.4h59.2l1-4.7c5.5-25.5,26.3-39.5,58.5-39.5
	c35,0,55.1,17.6,55.1,48.4v17.7l-74.2,4.2c-66.8,3.9-107.2,36.6-107.2,87.4c0,53.6,40.2,89.5,99.3,89.5c35.2,0,60.9-9.6,81.9-31.1
	v26.2h60V-3086C1203-3144.8,1157.6-3182.8,1089.2-3182.8z M1143.3-3017.3v17.8c-3.9,38.9-30.8,63.3-72,65.3
	c-15.9,0.8-29.6-3.5-38.6-12.1c-7.1-6.7-10.8-15.7-10.8-25.9c0-22.8,19.4-37.1,53.5-39.3L1143.3-3017.3z"/>
<polygon class="st0" points="2727.7,-3178.2 2793.9,-3178.2 2678.7,-2891.9 2602.2,-2891.9 2487,-3178.2 2553.2,-3178.2 
	2640.3,-2960.9 "/>
<rect x="1737.3" y="-3094.7" transform="matrix(-1.836970e-16 1 -1 -1.836970e-16 -1154.4445 -4974.7349)" class="st0" width="345.6" height="60.3"/>
<polygon class="st0" points="2105.2,-2891.8 1973.1,-3064.6 2105.2,-3237.4 2180.9,-3237.4 2050.5,-3064.6 2180.9,-2891.8 "/>
<path class="st0" d="M2338.2-3185.8c-66,0-115.7,36.5-119.3,90.8l-0.4,6.4h59.2l1-4.7c5.5-25.5,26.3-39.5,58.5-39.5
	c35,0,55.1,17.6,55.1,48.4v17.7l-74.2,4.2c-66.8,3.9-107.2,36.6-107.2,87.4c0,53.6,40.2,89.5,99.3,89.5c35.2,0,60.9-9.6,81.9-31.1
	v26.2h60V-3089C2452-3147.8,2406.6-3185.8,2338.2-3185.8z M2392.2-3020.3v17.8c-3.9,38.9-30.8,63.3-72,65.3
	c-15.9,0.8-29.6-3.5-38.6-12.1c-7.1-6.7-10.8-15.7-10.8-25.9c0-22.8,19.4-37.1,53.5-39.3L2392.2-3020.3z"/>
<path class="st0" d="M2947.2-3185.8c-66,0-115.7,36.5-119.3,90.8l-0.4,6.4h59.2l1-4.7c5.5-25.5,26.3-39.5,58.5-39.5
	c35,0,55.1,17.6,55.1,48.4v17.7l-74.2,4.2c-66.8,3.9-107.2,36.6-107.2,87.4c0,53.6,40.2,89.5,99.3,89.5c35.2,0,60.9-9.6,81.9-31.1
	v26.2h60V-3089C3061-3147.8,3015.6-3185.8,2947.2-3185.8z M3001.3-3020.3v17.8c-3.9,38.9-30.8,63.3-72,65.3
	c-15.9,0.8-29.6-3.5-38.6-12.1c-7.1-6.7-10.8-15.7-10.8-25.9c0-22.8,19.4-37.1,53.5-39.3L3001.3-3020.3z"/>
<path class="st1" d="M2181-3237l-130,172l130,173h90c0,0-55.5-10.5-60.5-77.5l8-122c0,0,0-63,71-87L2181-3237z"/>
<path class="st1" d="M2487-3178h-95c0,0,53,19,60,75v211h150L2487-3178z"/>
<path class="st1" d="M2794-3178l-115,286h201c0,0-55.5-9.5-60.5-77.5l8-119c0,0-7-64,70-89L2794-3178z"/>
<g>
	<polygon class="st0" points="854.7,63.3 920.9,63.3 805.7,349.6 729.2,349.6 614,63.3 680.2,63.3 767.3,280.6 	"/>
	
		<rect x="-122.7" y="146.8" transform="matrix(-1.836970e-16 1 -1 -1.836970e-16 227.0555 126.7649)" class="st0" width="345.6" height="60.3"/>
	<polygon class="st0" points="245.2,349.7 113.1,176.9 245.2,4.1 320.9,4.1 190.5,176.9 320.9,349.7 	"/>
	<path class="st0" d="M465.2,55.7c-66,0-115.7,36.5-119.3,90.8l-0.4,6.4h59.2l1-4.7c5.5-25.5,26.3-39.5,58.5-39.5
		c35,0,55.1,17.6,55.1,48.4v17.7L445,179c-66.8,3.9-107.2,36.6-107.2,87.4c0,53.6,40.2,89.5,99.3,89.5c35.2,0,60.9-9.6,81.9-31.1
		v26.2h60V152.5C579,93.7,533.6,55.7,465.2,55.7z M519.2,221.2V239c-3.9,38.9-30.8,63.3-72,65.3c-15.9,0.8-29.6-3.5-38.6-12.1
		c-7.1-6.7-10.8-15.7-10.8-25.9c0-22.8,19.4-37.1,53.5-39.3L519.2,221.2z"/>
	<path class="st0" d="M1074.2,55.7c-66,0-115.7,36.5-119.3,90.8l-0.4,6.4h59.2l1-4.7c5.5-25.5,26.3-39.5,58.5-39.5
		c35,0,55.1,17.6,55.1,48.4v17.7l-74.2,4.2c-66.8,3.9-107.2,36.6-107.2,87.4c0,53.6,40.2,89.5,99.3,89.5c35.2,0,60.9-9.6,81.9-31.1
		v26.2h60V152.5C1188,93.7,1142.6,55.7,1074.2,55.7z M1128.3,221.2V239c-3.9,38.9-30.8,63.3-72,65.3c-15.9,0.8-29.6-3.5-38.6-12.1
		c-7.1-6.7-10.8-15.7-10.8-25.9c0-22.8,19.4-37.1,53.5-39.3L1128.3,221.2z"/>
</g>
</svg>
