<!-- Generated by IcoMoon.io -->
<svg version="1.1" xmlns="http://www.w3.org/2000/svg" width="32" height="32" viewBox="0 0 32 32">
<title>act</title>
<path fill="#767dff" d="M16 32c-8.837 0-16-7.163-16-16s7.163-16 16-16 16 7.163 16 16-7.163 16-16 16zM13.77 6.5c-0 0-0 0-0 0-0.324 0-0.607 0.177-0.756 0.44l-0.002 0.004-6.906 12.319c-0.070 0.122-0.111 0.269-0.111 0.425s0.041 0.303 0.113 0.429l-0.002-0.004 2.21 3.942c0.152 0.267 0.434 0.445 0.758 0.445h13.854c0.324-0 0.607-0.178 0.757-0.441l0.002-0.004 2.209-3.942c0.070-0.122 0.111-0.269 0.111-0.425s-0.041-0.303-0.113-0.429l0.002 0.004-6.906-12.319c-0.152-0.267-0.435-0.444-0.759-0.444-0 0-0 0-0 0h-4.46zM16 11.401l4.653 8.287h-9.306l4.653-8.287z"></path>
</svg>
