<!-- Generated by IcoMoon.io -->
<svg version="1.1" xmlns="http://www.w3.org/2000/svg" width="32" height="32" viewBox="0 0 32 32">
<title>aeur</title>
<path fill="#051d2d" d="M16 32c-8.837 0-16-7.163-16-16s7.163-16 16-16 16 7.163 16 16-7.163 16-16 16zM15.952 19.986c0.014 0 0.030 0 0.046 0s0.033-0 0.049-0h-0.003c0.002 0.004 0.003 0.009 0.004 0.014l0 0c-0.004 0.024-0.024 0.042-0.049 0.042-0.027 0-0.049-0.022-0.049-0.049 0-0.002 0-0.005 0.001-0.007l-0 0zM9.938 16.493c-0.59 1.004-0.939 2.211-0.939 3.5 0 3.862 3.131 6.993 6.993 6.993 0 0 0.001 0 0.001 0h-0c3.86-0.005 6.988-3.133 6.993-6.992v-0c0-0.003 0-0.006 0-0.010 0-1.287-0.349-2.492-0.958-3.526l0.018 0.033c0.589-1.003 0.937-2.209 0.937-3.497 0-3.862-3.131-6.993-6.993-6.993s-6.993 3.131-6.993 6.993c0 1.289 0.349 2.496 0.957 3.533l-0.018-0.033zM16.048 13c-0.014-0-0.031-0-0.049-0s-0.034 0-0.051 0h0.003c0-0 0-0.001 0-0.001 0-0.027 0.022-0.049 0.049-0.049 0 0 0 0 0 0v0c0.026 0.003 0.047 0.024 0.049 0.050v0z"></path>
</svg>
