<!-- Generated by IcoMoon.io -->
<svg version="1.1" xmlns="http://www.w3.org/2000/svg" width="32" height="32" viewBox="0 0 32 32">
<title>agi</title>
<path fill="#6916ff" d="M14.4 13.3c0 0 0 0 0 0s0 0 0 0v0zM13.5 8.7c0 0 0 0 0 0s0 0 0 0v0zM32 16c0 8.8-7.2 16-16 16s-16-7.2-16-16 7.2-16 16-16 16 7.2 16 16zM17 6.2c0 0 0 0.1 0 0.1s0 0 0.1 0.1c0 0 0 0 0 0v0c0.5 0.5 1 1 1.4 1.6 0.1 0.2 0.2 0.4 0.3 0.6s0.1 0.4 0.2 0.6c0 0 0 0 0 0 0 0.1 0.1 0.3 0.1 0.5 0.1 0.3 0.1 0.6 0.1 0.9 0 0.4-0.1 0.9-0.2 1.3 0 0.1 0 0.1 0 0.2s-0.1 0.2-0.1 0.3c0 0.1-0.1 0.2-0.1 0.4-0.1 0.2-0.2 0.4-0.3 0.6v0c0 0 0 0 0 0s0 0 0 0v0c-0.1 0.1-0.1 0.2-0.1 0.3 0 0.2 0.1 0.3 0.2 0.4v0c0 0 0 0 0 0 0.1 0.1 0.1 0.1 0.2 0.2 0 0 0 0 0.1 0s0.1 0 0.2 0.1c0 0 0 0 0 0s0 0 0.1 0c0 0 0.1 0 0.1 0 0.1 0 0.1 0 0.2-0.1 0 0 0 0 0 0 1.2-1 1.3-3 1.3-3.5 0-0.2 0-0.3 0-0.5 0-0.1 0-0.1 0-0.2 0-0.2-0.1-0.4-0.1-0.6 0-0.1-0.1-0.2-0.1-0.3s-0.1-0.2-0.1-0.3-0.2-0.3-0.2-0.5c0 0 0 0 0-0.1 0 0 0 0 0 0s0 0 0 0c0-0.1-0.1-0.1-0.1-0.2-0.1-0.1-0.1-0.2-0.2-0.3-0.1-0.2-0.3-0.3-0.4-0.4v0c0 0 0 0 0 0s0 0 0 0v0c0 0-0.1-0.1-0.1-0.1-0.5-0.5-1.1-0.9-1.7-1.1v0c0 0 0 0 0 0v0c0 0-0.1 0-0.2 0s-0.1 0-0.2 0c0 0 0 0 0 0v0c0 0 0 0 0 0s0 0 0 0 0 0 0 0c-0.4-0.1-0.4-0.1-0.4 0zM15.3 25c-0.5-0.5-1-1-1.4-1.6-0.4-0.7-0.7-1.6-0.7-2.5 0-1 0.3-2 0.8-2.8v0c0.1-0.1 0.1-0.2 0.1-0.4s-0.1-0.3-0.1-0.4v0c-0.1-0.2-0.3-0.3-0.6-0.3 0 0 0 0 0 0s0 0 0 0c-0.1 0-0.3 0-0.4 0.1-1.2 1-1.2 3-1.3 3.5 0 0.2 0 0.4 0.1 0.7 0 0.1 0 0.2 0.1 0.3 0 0.1 0 0.2 0.1 0.3 0 0 0 0 0 0v0c0 0.1 0.1 0.2 0.1 0.4 0 0.1 0 0.1 0.1 0.2s0.1 0.3 0.2 0.4c0 0 0 0.1 0.1 0.1 0 0 0 0 0 0v0c0 0.1 0.1 0.1 0.1 0.2 0.1 0.1 0.1 0.2 0.2 0.3 0 0.1 0.1 0.1 0.1 0.1 0.1 0.1 0.2 0.2 0.3 0.3 0.5 0.5 1.1 1 1.8 1.3v0c0 0 0.1 0 0.1 0s0 0 0.1 0c0 0 0 0 0.1 0 0 0 0 0 0 0s0 0 0 0c0.1 0 0.1-0.1 0-0.2zM20.7 20v0c-0.1-1.2-0.6-2.3-1.3-3.2-0.8-0.8-1.6-1.4-2.6-1.9h-0.1c-0.9-0.5-1.7-1-2.4-1.6-0.6-0.6-1-1.3-1.2-2.1v0c0-0.2-0.1-0.5-0.1-0.7 0-0.6 0.1-1.2 0.4-1.7 0.4-0.9 1-1.6 1.7-2.2v0c0.1 0 0.1-0.1 0.1-0.2 0 0 0-0.1 0-0.1 0-0.1-0.1-0.1-0.2-0.1 0-0.2 0-0.2-0.1-0.1-1 0.4-1.8 1.2-2.4 2v0c-0.6 0.8-0.9 1.8-0.9 2.9 0 0.1 0 0.3 0 0.4 0.1 0.6 0.2 1.2 0.4 1.7 0.3 0.6 0.6 1 1 1.5v0c0.8 0.7 1.7 1.4 2.6 1.8h0.1c0.8 0.4 1.6 1 2.4 1.6 0.6 0.5 1.1 1.3 1.2 2.2v0c0.2 0.9 0.1 1.8-0.3 2.6-0.4 0.9-1.1 1.6-1.8 2.2v0c-0.1 0-0.1 0.1-0.1 0.2 0 0 0 0.1 0 0.1v0c0 0.1 0.1 0.1 0.2 0.1s0.1 0 0.2-0.1c0.9-0.6 1.7-1.3 2.4-2.1v0c0.6-0.9 0.9-2.1 0.8-3.2z"></path>
</svg>
