<!-- Generated by IcoMoon.io -->
<svg version="1.1" xmlns="http://www.w3.org/2000/svg" width="32" height="32" viewBox="0 0 32 32">
<title>aion</title>
<path fill="#5d5d5d" d="M16 0c-8.8 0-16 7.2-16 16s7.2 16 16 16 16-7.2 16-16-7.2-16-16-16zM16.4 23.7c-0.1 0-0.2 0-0.3 0s-0.1 0-0.2 0-0.1 0-0.2 0c-0.9-0.1-1.6-0.9-1.7-1.7-0.2-1.1 0.6-2.1 1.7-2.3 1-0.2 2.1 0.4 2.4 1.5 0.2 1.1-0.5 2.3-1.7 2.5zM20.7 23.5c-1.6-4.3-3.1-8.6-4.7-12.9 0 0 0 0 0 0s0 0.1 0 0.1c-0.5 1.5-1.1 3-1.6 4.5-1 2.7-2 5.5-3 8.2 0 0 0 0 0 0s0 0.1-0.1 0c0 0 0 0-0.1 0-1.2 0-2.4 0-3.6 0 0 0-0.1 0-0.1 0s0-0.1 0-0.1c1.1-3.1 2.2-6.1 3.3-9.2 1-2.6 1.9-5.3 2.9-7.9 0 0 0 0 0 0 1.5 0 3 0 4.5 0 0.2 0.7 0.5 1.3 0.7 2 1.8 4.9 3.6 9.9 5.4 14.8 0 0.1 0.1 0.2 0.1 0.3 0 0 0 0.1 0 0.1 0 0.1-3.5 0.1-3.7 0.1z"></path>
</svg>
