<!-- Generated by IcoMoon.io -->
<svg version="1.1" xmlns="http://www.w3.org/2000/svg" width="32" height="32" viewBox="0 0 32 32">
<title>alice</title>
<path fill="#e98396" d="M25.3 22.1c0.2 0.1 0.2 0.3 0.2 0.5 0 0.1 0 0.1-0.1 0.1 0 0 0 0-0.1 0 0 0 0 0 0 0-0.5-0.5-1-1-1.6-1.4s-1.2-0.8-1.8-1.2c-0.5-0.3-1-0.5-1.5-0.8-0.6-0.3-1.3-0.6-1.9-0.8 0 0-0.1 0-0.1 0-0.2 0.2-0.4 0.5-0.7 0.7-0.5 0.4-1.1 0.6-1.8 0.6-0.3 0-0.6 0-0.9-0.1-0.1 0.2-0.2 0.3-0.3 0.4 0 0-0.1 0.1-0.1 0.1-0.3 0.5-0.6 1.1-0.9 1.6-0.4 0.6-0.7 1.3-1.2 1.9-0.2 0.2-0.3 0.4-0.5 0.5-0.2 0.2-0.4 0.3-0.6 0.4s-0.4 0.1-0.7 0.1c0 0 0 0 0 0s0 0 0 0c0.2-0.1 0.4-0.3 0.5-0.4 0.3-0.2 0.5-0.5 0.8-0.8 0.5-0.6 0.9-1.2 1.3-1.8 0.5-0.7 0.9-1.4 1.3-2.2 0 0 0 0 0 0-0.5-0.2-0.9-0.5-1.3-0.9-0.5-0.6-0.9-1.2-1-2 0-0.1 0-0.3 0-0.5-0.2-0.1-0.5-0.2-0.7-0.3-0.8-0.3-1.5-0.7-2.3-0.8-0.5-0.1-1-0.2-1.4-0.1-0.6 0-1.3 0.2-1.8 0.6-0.1 0.1-0.1 0.1-0.1-0.1 0-0.1 0-0.1 0-0.2 0.1-0.2 0.2-0.4 0.4-0.5 0.4-0.2 0.8-0.3 1.2-0.3 0.5-0.1 0.9 0 1.4 0 0.9 0.2 1.8 0.5 2.7 0.9 0.2 0.1 0.5 0.2 0.7 0.3 0.1-0.2 0.1-0.5 0.2-0.7 0.2-0.6 0.6-1.1 1-1.4 0.4-0.4 1-0.6 1.6-0.7 0.1 0 0.1 0 0.2 0 0-0.4 0-0.9-0.1-1.3-0.1-0.6-0.1-1.3-0.2-1.9-0.1-0.9-0.3-1.8-0.5-2.7 0-0.2-0.1-0.4-0.2-0.6 0 0 0-0.1 0-0.1s0 0 0 0 0 0 0 0c0.1 0.1 0.2 0.3 0.3 0.4 0.3 0.6 0.5 1.3 0.6 2 0.1 0.5 0.2 1.1 0.2 1.6s0.1 0.9 0.1 1.4c0 0.4 0.1 0.8 0.1 1.3 0.7 0 1.4 0.2 2 0.6 0.4 0.3 0.7 0.6 0.9 1 0 0 0.1 0.1 0.1 0.1 0.1-0.1 0.2-0.3 0.4-0.4 0.1-0.1 0.1-0.1 0.2-0.2 0.3-0.3 0.6-0.7 0.9-1 0 0 0 0 0 0s0 0 0 0 0 0 0 0c0.1-0.1 0.2-0.2 0.3-0.3s0.2-0.2 0.3-0.3 0.4-0.3 0.7-0.5c0.6-0.4 1.3-0.6 2-0.8 0.7-0.1 1.3-0.1 2 0.1 0 0 0 0 0 0s0 0 0 0c-0.2 0-0.4 0-0.6 0-0.8 0-1.6 0.2-2.3 0.5s-1.2 0.6-1.8 1.1c-0.4 0.4-0.8 0.8-1.2 1.2 0 0-0.1 0.1-0.1 0.1-0.2 0.2-0.4 0.5-0.6 0.7 0.1 0.3 0.2 0.7 0.3 1 0.1 0.6 0 1.2-0.2 1.8-0.1 0.2-0.2 0.3-0.3 0.5 0 0 0 0 0 0 0.3 0.1 0.5 0.2 0.8 0.3 0.4 0.2 0.8 0.4 1.3 0.6 0.7 0.4 1.4 0.8 2.1 1.2 0.5 0.3 1 0.7 1.5 1 0.2 0.3 0.6 0.6 0.9 0.9 0 0 0 0 0 0s0 0 0 0zM32 16c0 8.8-7.2 16-16 16s-16-7.2-16-16 7.2-16 16-16 16 7.2 16 16zM25.5 16.3c0.5-0.3 0.9-0.7 1.3-1.1 0.5-0.6 0.9-1.2 1.1-2 0.1-0.4 0.1-0.7 0.1-1.1v0c0 0 0 0 0 0-0.1-0.6-0.3-1.2-0.6-1.8-0.5-0.9-1.2-1.5-2.1-2-0.3-0.1-0.7-0.2-1.1-0.3-0.2 0-0.4 0-0.6-0.1-0.1 0-0.3 0-0.4 0s-0.3 0-0.4 0c-0.3 0.1-0.6 0.2-0.8 0.2-0.9 0.2-1.7 0.6-2.5 1.1-0.1 0.1-0.3 0.2-0.4 0.3 0-0.6 0-1.1 0-1.6-0.1-0.6-0.2-1.1-0.4-1.7-0.3-0.8-0.8-1.4-1.6-1.8-0.5-0.2-1-0.4-1.5-0.4-0.4-0.1-0.9-0.1-1.3-0.1-0.8 0-1.6 0.3-2.2 0.9-0.3 0.3-0.6 0.7-0.7 1.2-0.2 0.6-0.3 1.2-0.4 1.8-0.1 0.9 0 1.8 0.1 2.7 0.1 0.4 0.1 0.7 0.2 1.1-0.1-0.1-0.3-0.2-0.4-0.2-0.9-0.4-1.7-0.9-2.7-1.1-0.4-0.1-0.8-0.2-1.3-0.2-0.6 0-1.1 0.2-1.6 0.5 0 0-0.1 0-0.1 0-0.4 0.3-0.6 0.7-0.8 1.1-0.4 1-0.5 2-0.5 3 0 0.5 0.1 1 0.2 1.5s0.3 1 0.6 1.5c0.6 0.9 1.5 1.5 2.5 1.7 0.4 0.1 0.9 0.2 1.4 0.2 0.2 0 0.4 0 0.6 0-0.2 0.3-0.3 0.5-0.5 0.8 0 0.1-0.1 0.1-0.1 0.2-0.5 1-0.8 2.1-0.7 3.3 0.1 0.5 0.2 1 0.5 1.5 0.4 0.8 1.1 1.3 1.8 1.8 1 0.6 2.1 0.8 3.3 0.5 1-0.3 1.9-0.8 2.7-1.6 0.9-0.9 1.7-1.9 2.1-3.2 0-0.1 0.1-0.1 0.1 0 0.2 0.2 0.4 0.4 0.6 0.6 1 0.9 2.1 1.5 3.4 1.9 0.8 0.2 1.6 0.3 2.5 0.2 0.7-0.1 1.4-0.5 1.9-1 0.4-0.4 0.7-1 0.9-1.5 0.5-1.3 0.6-2.6 0.1-3.9-0.5-1.1-1.2-2-2.2-2.8-0.1-0.1-0.2-0.1-0.1-0.1z"></path>
</svg>
