<!-- Generated by IcoMoon.io -->
<svg version="1.1" xmlns="http://www.w3.org/2000/svg" width="32" height="32" viewBox="0 0 32 32">
<title>ankr</title>
<path fill="#334081" d="M16 18.1c-1.2 0-2.2-1-2.2-2.2s1-2.2 2.2-2.2c1.2 0 2.2 1 2.2 2.2s-1 2.2-2.2 2.2zM32 16c0 8.8-7.2 16-16 16s-16-7.2-16-16 7.2-16 16-16 16 7.2 16 16zM26.1 18.4h-2.6v1.7c0 0.2-0.1 0.4-0.3 0.4v0l-5.8 3v-3c2-0.5 3.5-2.4 3.5-4.6 0-2.7-2.2-4.8-4.9-4.8s-4.9 2.2-4.9 4.8c0 2.2 1.5 4 3.5 4.6v3l-6-3c-0.2-0.1-0.3-0.3-0.3-0.4v-1.7h-2.4v1.7c0 1.2 0.6 2.2 1.7 2.7l7 3.6c0.4 0.2 0.9 0.3 1.4 0.3s1-0.1 1.4-0.3l7.1-3.6c1-0.5 1.7-1.6 1.7-2.7v-1.7zM26.1 11.9c0-1.2-0.6-2.2-1.7-2.7l-7.1-3.6c-0.9-0.4-1.9-0.4-2.8 0l-7 3.6c-1 0.5-1.7 1.6-1.7 2.7v1.7h2.6v-1.7c0-0.2 0.1-0.4 0.3-0.4l7.1-3.6c0.2-0.1 0.3-0.1 0.4 0l7.1 3.6c0.2 0.1 0.3 0.3 0.3 0.4v1.7h2.6v-1.7z"></path>
</svg>
