<!-- Generated by IcoMoon.io -->
<svg version="1.1" xmlns="http://www.w3.org/2000/svg" width="32" height="32" viewBox="0 0 32 32">
<title>ast</title>
<path fill="#0061ff" d="M16 32c-8.837 0-16-7.163-16-16s7.163-16 16-16 16 7.163 16 16-7.163 16-16 16zM16.010 6l-10.010 10.14 0.385 0.34c0.368 0.325 0.769 0.65 1.185 0.957l0.048 0.034c1.156 0.837 2.494 1.521 3.932 1.984l0.101 0.028c1.41 0.45 2.88 0.671 4.359 0.671 0.002 0 0.004 0 0.006 0 1.23 0 2.424-0.153 3.565-0.441l-0.1 0.021c1.747-0.437 3.281-1.14 4.645-2.074l-0.049 0.032c0.345-0.23 0.69-0.49 1.016-0.751 0.187-0.15 0.365-0.3 0.532-0.46l0.375-0.34zM24.748 16.47c-0.313 0.258-0.639 0.499-0.977 0.721-1.265 0.864-2.739 1.54-4.322 1.941l-0.096 0.021c-1.003 0.259-2.155 0.409-3.342 0.41h-0.001c-0.014 0-0.030 0-0.047 0-3.011 0-5.796-0.968-8.060-2.61l0.040 0.028c-0.316-0.22-0.621-0.47-0.927-0.72l-0.187-0.161 9.171-9.29 9.172 9.29c-0.129 0.13-0.276 0.25-0.424 0.37zM9.718 15.99l-0.444 0.19h0.543c2.962 0 5.866 0.831 8.392 2.402l0.030 0.020 0.040-0.010c1.65-0.3 3.227-0.922 4.644-1.831l0.139-0.090-0.139-0.080c-2.021-1.208-4.458-1.922-7.061-1.922-0.003 0-0.006 0-0.009 0h0c-2.113 0.010-4.2 0.46-6.135 1.32zM18.357 17.992c-1.797-1.117-3.917-1.905-6.187-2.222l-0.085-0.010c1.123-0.324 2.412-0.51 3.745-0.51 0.004 0 0.009 0 0.013 0h-0.001c2.11 0 4.182 0.49 6.065 1.451-1.024 0.585-2.214 1.033-3.476 1.279l-0.074 0.012zM21.661 19.964s-1.46 0.92-2.012 1.191c-1.722 1.003-3.765 1.651-5.946 1.79l-0.040 0.002-0.631 0.040 2.978 3.013 4.23-4.284c0.47-0.525 0.936-1.096 1.374-1.688l0.046-0.064zM14.314 23.468c1.738-0.183 3.327-0.651 4.778-1.359l-0.084 0.037-2.998 3.044z"></path>
</svg>
