<!-- Generated by IcoMoon.io -->
<svg version="1.1" xmlns="http://www.w3.org/2000/svg" width="32" height="32" viewBox="0 0 32 32">
<title>axs</title>
<path fill="#0046dc" d="M16 0c-8.8 0-16 7.2-16 16s7.2 16 16 16 16-7.2 16-16-7.2-16-16-16zM27.6 19.6c-0.1 1.2-0.2 2.5-0.5 3.7-0.3 1.1-0.7 1.3-1.8 0.8-2.9-1.2-5.2-3.2-7.6-5.2-0.1-0.1-0.2-0.4-0.2-0.6-0.1-1 1.2-1.1 1.9-0.5 1.2 1 2.5 2 3.8 2.9 0.9 0.6 1.4 0.4 1.8-0.7 0.8-2.6 0.8-5.2 0.1-7.8-0.3-1-0.8-1.2-1.7-0.8-0.9 0.5-1.7 1-2.5 1.6-3.5 2.8-6.9 5.7-10.4 8.5-1.1 0.9-2.3 1.7-3.6 2.3-1.3 0.7-1.7 0.4-2-1-0.1-0.4-0.2-0.9-0.2-1.3-0.1-1.2-0.2-2.4-0.4-3.7 0-1.3-0.1-2.5 0-4 0.1-1 0.1-1.1 0.2-1.7 0.2-1.1 0.3-2.2 0.5-3.3s0.6-1.3 1.8-0.8c0.1 0 0.2 0.1 0.3 0.1 2.7 1.3 4.9 3.1 7.1 5 0.4 0.3 0.4 0.5 0.1 1s-0.7 1.1-1.5 0.4c-1.2-1.1-1.2-1.1-2.4 0-0.7 0.6-1.4 1.2-2.1 1.8-0.2 0.2-0.4 0.3-0.6 0.4-0.4-0.8-0.4-1.4 0.3-2 0.8-0.7 1.7-1.5 2.6-2.4-0.8-0.5-1.5-0.8-2.1-1.2-0.7-0.4-1.2-0.1-1.4 0.6-0.2 0.8-0.4 1.7-0.5 2.6-0.2 1.9-0.1 3.7 0.5 5.5 0.3 1 0.8 1.2 1.7 0.7 0.6-0.3 1.2-0.7 1.7-1.1 3.7-2.9 7.4-5.9 11.1-8.8 1.2-1 2.5-1.9 3.8-2.7 0.8-0.5 1.4-0.2 1.6 0.7 0.2 0.7 0.3 1.4 0.4 2.2 0.1 1.5 0.3 3.1 0.4 4.7 0 0.1 0 0.1 0 0.2 0 1.3-0.1 2.6-0.2 3.9z"></path>
</svg>
