<!-- Generated by IcoMoon.io -->
<svg version="1.1" xmlns="http://www.w3.org/2000/svg" width="32" height="32" viewBox="0 0 32 32">
<title>bal</title>
<path fill="#000" d="M16 0c-8.8 0-16 7.2-16 16s7.2 16 16 16 16-7.2 16-16-7.2-16-16-16zM16 9c3 0 5.4 1 5.4 2.2s-2.4 2.2-5.4 2.2-5.4-1-5.4-2.2 2.4-2.2 5.4-2.2zM11.5 13c1.1 0.6 2.7 0.9 4.5 0.9s3.4-0.4 4.5-0.9c1.5 0.5 2.5 1.2 2.5 2.1 0 1.5-3.1 2.7-7 2.7s-7-1.2-7-2.7c0-0.8 1-1.6 2.5-2.1zM16 23c-5.1 0-9.3-1.5-9.3-3.5 0-1 1.1-2 2.9-2.6 1.4 0.9 3.8 1.4 6.5 1.4 2.6 0 4.9-0.6 6.4-1.4 1.7 0.6 2.8 1.6 2.8 2.6 0 1.9-4.2 3.5-9.3 3.5z"></path>
</svg>
