<!-- Generated by IcoMoon.io -->
<svg version="1.1" xmlns="http://www.w3.org/2000/svg" width="32" height="32" viewBox="0 0 32 32">
<title>bay</title>
<path fill="#6356ab" d="M16 32c-8.837 0-16-7.163-16-16s7.163-16 16-16 16 7.163 16 16-7.163 16-16 16zM22.784 15.974c0.058-0.065 0.123-0.13 0.188-0.196 0.21-0.226 0.44-0.467 0.657-0.7 0.839-0.873 1.355-2.060 1.357-3.369v-0c0-0.087 0.014-0.445 0.014-0.496-0.101-2.872-2.519-5.213-5.377-5.213h-9v3.631h-3.623v16.369h12.767c2.837 0 5.233-2.523 5.233-5.512 0.007-2.137-1.314-3.646-2.216-4.514zM19.767 24.17h-10.963v-12.723h1.82v10.915h8.92c0.736 0 1.393-0.445 1.674-1.13 0.088-0.207 0.14-0.449 0.14-0.702 0-0.503-0.202-0.958-0.53-1.289l0 0-3.182-3.223 3.233-3.274c0.52-0.525 0.671-1.305 0.39-1.99-0.275-0.668-0.921-1.13-1.675-1.13h-7.16v-1.808h7.196c1.906 0 3.508 1.553 3.573 3.441 0 0.080-0.015 0.394-0.015 0.401v0.036c-0 0.825-0.327 1.573-0.859 2.123l0.001-0.001c-0.224 0.234-0.455 0.481-0.664 0.7-0.354 0.372-0.657 0.693-0.802 0.839l-0.65 0.641 0.643 0.65c0.087 0.087 0.195 0.189 0.325 0.313 0.75 0.7 2.014 1.866 2.014 3.514 0.007 1.969-1.595 3.697-3.429 3.697zM12.427 11.454l7.167 0.007-4.503 4.565 4.453 4.52h-7.117z"></path>
</svg>
