<!-- Generated by IcoMoon.io -->
<svg version="1.1" xmlns="http://www.w3.org/2000/svg" width="32" height="32" viewBox="0 0 32 32">
<title>bdl</title>
<path fill="#e54c40" d="M16 32c-8.837 0-16-7.163-16-16s7.163-16 16-16 16 7.163 16 16-7.163 16-16 16zM9.328 8.617c-0.004 3.117 0 6.233-0.004 9.351 0.644-2.079 2.288-3.825 4.35-4.537 1.794-0.629 3.86-0.513 5.542 0.39 0-0.175 0-0.349 0.002-0.524-2.106-1.012-4.687-0.962-6.736 0.168 0.020-2.716-0.003-5.432 0.011-8.148-0.992 1.001-1.959 1.967-2.931 2.928l-0.037 0.037c-0.080 0.1-0.216 0.188-0.197 0.335zM22.718 20.279c0.010-3.925-0.012-7.851 0.010-11.776-1.080-1.085-2.16-2.172-3.25-3.246 0.030 0.509 0.021 1.019 0.020 1.528-0.002 4.055 0.014 8.11 0.008 12.164-0.007 0.786 0.073 1.607-0.247 2.35-0.503 1.31-1.86 2.23-3.266 2.195-1.462 0.016-2.845-1.005-3.282-2.396-0.49-1.41 0.067-3.089 1.296-3.935 1.117-0.81 2.725-0.845 3.882-0.098 0.585 0.366 1.027 0.918 1.325 1.535-0.006-0.666-0.009-1.453-0.009-2.241s0.003-1.575 0.009-2.362l-0.001 0.121c-1.825-1.005-4.12-1.080-6.005-0.192-1.444 0.681-2.581 1.813-3.25 3.212l-0.018 0.041c-0.593 1.274-0.786 2.74-0.501 4.119 0.328 1.742 1.399 3.322 2.878 4.295 1.041 0.7 2.323 1.117 3.703 1.117 1.882 0 3.582-0.776 4.799-2.025l0.001-0.001c1.118-1.14 1.83-2.683 1.897-4.391l0-0.013z"></path>
</svg>
