<!-- Generated by IcoMoon.io -->
<svg version="1.1" xmlns="http://www.w3.org/2000/svg" width="32" height="32" viewBox="0 0 32 32">
<title>bel</title>
<path fill="#00cdaa" d="M16 0c-8.8 0-16 7.2-16 16s7.2 16 16 16 16-7.2 16-16-7.2-16-16-16zM18.4 24.5h-4.5c-1.2 0-2.2-1-2.2-2.2v-3.8h-0.8c-1.2 0-2.2-1-2.2-2.2v-6.6c0-1.2 1-2.2 2.2-2.2h4.5c3 0 5.5 2.5 5.5 5.5 0 0.4 0 0.7-0.1 1-0.7-0.4-1.5-0.6-2.4-0.6h-4.5c-1.2 0-2.2 1-2.2 2.2v2.9h3.8c2.6 0 4.9-1.9 5.4-4.5 1.8 0.9 3 2.8 3 5 0 3-2.5 5.5-5.5 5.5z"></path>
</svg>
