<!-- Generated by IcoMoon.io -->
<svg version="1.1" xmlns="http://www.w3.org/2000/svg" width="32" height="32" viewBox="0 0 32 32">
<title>btcd</title>
<path fill="#f60" d="M16 32c-8.837 0-16-7.163-16-16s7.163-16 16-16 16 7.163 16 16-7.163 16-16 16zM17.078 19.356c0.908 1.422 1.345 4.4 1.268 5.467 11.964-4.113 8.216-17.256 0.24-17.823 0 2.945-0.678 5.322-1.508 5.322 3.267 0.2 5.080 5.467 0 7.034zM6 17.8c5.954 0 10.773-4.823 10.773-10.79h-5.561c0.010 2.923-2.317 5.312-5.201 5.323h-0.011v5.467zM13.287 16.81c-1.507 1.357-2.349 2.057-6.478 2.723 2.436 0 4.403 2.445 4.403 5.467h5.56c0-0.911-0.185-5.478-3.485-8.19z"></path>
</svg>
