<!-- Generated by IcoMoon.io -->
<svg version="1.1" xmlns="http://www.w3.org/2000/svg" width="32" height="32" viewBox="0 0 32 32">
<title>chr</title>
<path fill="#ffb0c2" d="M16 0c-8.8 0-16 7.2-16 16s7.2 16 16 16 16-7.2 16-16-7.2-16-16-16zM16.1 24.1c-4.6 0-8.3-3.7-8.3-8.3 0-4.5 3.6-8.1 8-8.2 0 0 0 0 0 0 0.1 0 0.2 0 0.2 0s0.1 0 0.1 0c0.2 0 0.4 0 0.6 0 0.1 0 0.3 0 0.4 0.1 0.2 0 0.3 0.1 0.4 0.1s0.2 0 0.4 0.1 0.5 0.1 0.7 0.2c0.1 0 0.1 0.1 0.2 0.1 0.2 0.1 0.4 0.2 0.6 0.3 0.1 0 0.1 0.1 0.2 0.1 0.5 0.3 1 0.6 1.5 1 0 0 0 0 0.1 0.1 0.2 0.2 0.4 0.3 0.5 0.5 0.1 0.1 0.1 0.1 0.2 0.2s0.2 0.2 0.3 0.4c0.1 0.1 0.1 0.2 0.2 0.2 0 0 0 0 0 0 0.7 0.9 1.2 1.9 1.5 3.1h-4.3c-0.7-1.3-2.1-2.2-3.6-2.2-2.2 0-4.1 1.9-4.1 4.2s1.8 4.2 4.1 4.2c1.6 0 3-0.9 3.6-2.2v-0.1h4.4c-0.8 3.4-4 6.1-7.9 6.1zM22.8 10.6c-2.4-3.2-5.8-3.4-6.9-3.3 0.1-2.1 1.9-3.8 4.1-3.8 2.3 0 4.1 1.8 4.1 4.1 0 1.2-0.4 2.2-1.3 3z"></path>
</svg>
