<!-- Generated by IcoMoon.io -->
<svg version="1.1" xmlns="http://www.w3.org/2000/svg" width="32" height="32" viewBox="0 0 32 32">
<title>chz</title>
<path fill="#cd0124" d="M19.3 18.3c-1 2.1-1.8 4.3-2.8 6.4-0.1 0.1-0.1 0.2-0.2 0.3-0.3-0.6-0.5-1.3-0.9-1.8-0.9-1.7-1.6-3.4-2.5-5.1-0.1-0.2-0.1-0.4 0-0.5 0.1-0.2 0.2-0.4 0.2-0.6s0.1-0.4 0.3-0.5l2.3-1.7c0.2-0.1 0.4-0.1 0.5 0 0.7 0.5 1.6 1.1 2.3 1.6 0.2 0.1 0.2 0.2 0.2 0.4-0.1 0.4 0 0.8 0.2 1.2 0.5 0 0.5 0.1 0.4 0.3zM15.4 14c-2.1-1.5-4.3-3-6.3-4.4l-0.1 0.1c0.1 0.2 0.1 0.3 0.2 0.5l2.2 4.8c0.2 0.4 0.3 0.9 1 1 0.2 0 0.4 0 0.5-0.1 0.6-0.5 1.4-1 2-1.5l0.5-0.4zM32 16c0 8.8-7.2 16-16 16s-16-7.2-16-16 7.2-16 16-16 16 7.2 16 16zM25.8 7.9c0-0.6-0.4-1.1-1-1.3s-1.2 0-1.5 0.5c-0.1 0.3-0.3 0.3-0.5 0.3h-13.5c-0.3 0-0.4 0-0.5-0.2-0.3-0.5-1-0.8-1.6-0.5s-1 0.8-1 1.4c0 0.7 0.5 1.2 1.2 1.3 0.3 0 0.4 0.1 0.4 0.2 1.1 2.1 2 4.2 3 6.3 0.1 0.2 0.1 0.4 0 0.5s-0.1 0.3-0.2 0.5c-0.1 0.7 0.4 1.4 1.1 1.6 0.2 0 0.4 0.2 0.5 0.4 1.1 2.1 2 4.3 3.1 6.4 0.1 0.2 0.1 0.4 0 0.6 0 0 0 0 0 0-0.4 0.6-0.2 1.3 0.3 1.7s1.2 0.4 1.7-0.1c0.5-0.5 0.6-1.2 0.2-1.8-0.1-0.2-0.1-0.4 0-0.5 0.9-2.1 1.8-4.4 2.8-6.5 0.1-0.2 0.2-0.3 0.3-0.3s0.1 0 0.2-0.1c0.7-0.3 1-1.2 0.7-1.8v-0.5c0.9-2.1 1.8-4.3 2.7-6.4 0.1-0.2 0.2-0.3 0.4-0.3 0.7-0.1 1.2-0.7 1.2-1.4zM16 13.2c0.2 0.1 0.4 0.1 0.5 0 2-1.5 4.1-2.9 6-4.4 0.1-0.1 0.2-0.1 0.2-0.2v-0.1h-13.4c0.1 0 0.2 0.1 0.3 0.2l6.4 4.5zM17.1 14c0.9 0.6 1.7 1.2 2.6 1.7 0.2 0.1 0.5 0 0.9 0 0.1 0 0.2-0.2 0.2-0.3 0.7-1.7 1.5-3.5 2.2-5.2 0-0.1 0.1-0.2 0.1-0.3h-0.1c-1.9 1.2-3.9 2.6-5.9 4.1z"></path>
</svg>
