<!-- Generated by IcoMoon.io -->
<svg version="1.1" xmlns="http://www.w3.org/2000/svg" width="32" height="32" viewBox="0 0 32 32">
<title>cnx</title>
<path fill="#4c6bae" d="M22.5 19.1c0 0 0 0 0 0s0-0.1 0-0.1c0 0 0 0.1 0 0.1zM32 16c0 8.8-7.2 16-16 16s-16-7.2-16-16 7.2-16 16-16 16 7.2 16 16zM6.7 13.5c0.7-0.7 1.5-1.3 2.5-1.9l0.7-0.4v0.8c0.1 0.9 0.4 1.7 0.8 2.4 0-0.1 0.1-0.3 0.1-0.4s0.1-0.3 0.2-0.4c0-0.1 0.1-0.2 0.2-0.3 0-0.1 0.1-0.2 0.2-0.3 0-0.1 0.1-0.1 0.2-0.2 0.2-0.3 0.4-0.5 0.6-0.8 0.1-0.1 0.2-0.2 0.3-0.2 0 0 0.1-0.1 0.2-0.1 0.1-0.1 0.2-0.1 0.3-0.2s0.3-0.2 0.4-0.3c0.1-0.1 0.2-0.1 0.3-0.2 0.1 0 0.1-0.1 0.2-0.1 0.1-0.1 0.3-0.1 0.4-0.2 0.1 0 0.3-0.1 0.4-0.1 0.3-0.1 0.5-0.1 0.8-0.1l0.1 1.3c0.2-0.3 0.5-0.6 0.8-0.8 0.2-0.2 0.3-0.3 0.5-0.4v0c0 0 0 0 0 0s0 0 0 0 0 0 0 0v0 0c0 0 0 0 0 0 0.1 0 0.1-0.1 0.2-0.1 0 0 0 0 0 0s0 0 0 0 0 0 0 0v0c0 0 0 0 0 0s0 0 0 0 0.1-0.1 0.1-0.1c0 0 0.1 0 0.1-0.1 0 0 0.1 0 0.1 0s0 0 0 0c0.1-0.1 0.2-0.1 0.3-0.2s0.3-0.1 0.4-0.2c0 0 0.1 0 0.1 0s0.1 0 0.1 0 0.2 0 0.3-0.1c0.1 0 0.2 0 0.3-0.1 0.1 0 0.1 0 0.2 0 0 0 0 0 0 0 0.1 0 0.2 0 0.3 0v0c-0.1-0.3-0.3-0.5-0.5-0.7-0.1-0.2-0.3-0.4-0.5-0.6 0 0 0 0 0 0s-0.1-0.1-0.1-0.1c0 0 0 0 0-0.1-0.1-0.1-0.2-0.3-0.3-0.4s-0.2-0.2-0.3-0.3c0.4-0.4 0.3-0.5 0.3-0.6-0.1-0.1-0.2-0.1-0.2-0.2 0 0-0.1-0.1-0.1-0.1-0.4-0.3-0.7-0.6-1.1-0.8-0.1-0.1-0.2-0.1-0.4-0.2-0.1-0.1-0.3-0.2-0.4-0.2s-0.1-0.1-0.2-0.1c-0.2-0.1-0.4-0.2-0.6-0.3v1.4c-0.4 0-0.7 0.1-1.1 0.2-0.2 0-0.4 0.1-0.5 0.1 0 0 0 0-0.1 0-0.2 0.1-0.4 0.1-0.6 0.2-0.1 0.1-0.2 0.1-0.3 0.1-0.2 0.1-0.3 0.1-0.4 0.2-0.1 0-0.1 0.1-0.2 0.1-0.1 0.1-0.3 0.1-0.4 0.2s-0.3 0.2-0.4 0.2c-0.1 0-0.1 0.1-0.2 0.1-0.1 0.1-0.3 0.2-0.4 0.3 0 0-0.1 0.1-0.2 0.1-0.2 0.2-0.4 0.3-0.5 0.5v0c-0.2 0.1-0.4 0.3-0.5 0.5-0.2 0.1-0.4 0.3-0.5 0.5-0.2 0.2-0.3 0.4-0.4 0.6-0.3 0.4-0.6 0.8-0.8 1.3-0.3 0.4-0.5 0.8-0.6 1.2 0 0 0 0 0 0.1-0.1 0.2-0.2 0.4-0.2 0.6zM13.4 25.3c0.1 0 0.1 0 0 0 0.1 0 0.1 0 0 0-0.6-0.7-1.2-1.5-1.8-2.5l-0.4-0.7 0.8-0.1c0.9-0.1 1.7-0.4 2.4-0.8-0.1 0-0.1 0-0.2-0.1-0.1 0-0.3-0.1-0.4-0.1s-0.2-0.1-0.4-0.2c-0.1 0-0.2-0.1-0.3-0.1-0.2-0.1-0.4-0.3-0.6-0.4-0.1-0.1-0.2-0.2-0.3-0.3-0.2-0.2-0.4-0.4-0.6-0.7-0.2-0.2-0.4-0.5-0.5-0.7-0.2-0.3-0.3-0.5-0.4-0.8s-0.2-0.6-0.2-0.9c0-0.2 0-0.3-0.1-0.5l1.3-0.1c-0.3-0.2-0.6-0.5-0.8-0.8-0.1-0.1-0.1-0.1-0.2-0.2s-0.2-0.2-0.2-0.3v0c0 0 0 0 0 0s0 0 0-0.1c-0.1-0.2-0.2-0.3-0.3-0.5s-0.2-0.3-0.3-0.5c0 0 0 0 0-0.1-0.1-0.2-0.1-0.3-0.2-0.5 0 0 0-0.1 0-0.1-0.1-0.2-0.1-0.4-0.1-0.5 0-0.2-0.1-0.4-0.1-0.6-0.6 0.3-1.2 0.7-1.6 1.1-0.2 0.1-0.3 0.3-0.4 0.4v0c-0.1 0.1-0.2 0.2-0.2 0.2-0.3 0.2-0.5 0.3-0.6 0.4s-0.2 0.2-0.3 0.3v0c-0.3 0.3-0.5 0.6-0.7 0.9 0 0 0 0 0 0s0 0 0 0c-0.1 0.1-0.1 0.2-0.2 0.3 0 0 0 0.1 0 0.1-0.1 0.1-0.1 0.2-0.2 0.4 0 0.1-0.1 0.1-0.1 0.2 0 0 0 0 0 0.1-0.1 0.2-0.2 0.4-0.2 0.6l1.4-0.1c0 0.3 0.1 0.5 0.1 0.8s0.1 0.5 0.2 0.8c0 0 0 0 0 0s0 0.1 0 0.1c0 0.2 0.1 0.3 0.2 0.5 0 0 0 0.1 0 0.1 0 0.1 0 0.1 0.1 0.2 0.1 0.2 0.1 0.3 0.2 0.5 0 0 0 0 0 0 0 0.1 0.1 0.3 0.2 0.4 0 0 0 0 0 0.1s0.1 0.2 0.2 0.3c0 0 0.1 0.1 0.1 0.2 0 0 0 0 0 0.1 0.1 0.1 0.1 0.2 0.2 0.3 0 0 0 0 0 0 0.1 0.1 0.2 0.2 0.3 0.3 0 0.1 0.1 0.1 0.1 0.2 0 0 0 0 0 0 0.1 0.1 0.2 0.3 0.3 0.4 0 0.1 0.1 0.2 0.2 0.2 0 0 0.1 0.1 0.1 0.1 0.1 0 0.1 0.1 0.2 0.2 0 0 0.1 0.1 0.2 0.2s0.3 0.3 0.4 0.4c0.2 0.2 0.4 0.3 0.6 0.5 0.2 0.1 0.3 0.2 0.5 0.3 0.1 0.1 0.2 0.1 0.3 0.2 0 0 0 0 0 0 0.2 0.1 0.3 0.2 0.5 0.3s0.4 0.2 0.6 0.3c0.2 0.1 0.3 0.1 0.5 0.2 0.1 0 0.2 0.1 0.2 0.1s0 0 0 0c0.1-0.1 0.3 0 0.5 0 0 0 0 0 0 0zM25.4 18.3c-0.7 0.7-1.5 1.4-2.5 1.9l-0.7 0.4-0.1-0.8c-0.1-0.9-0.4-1.7-0.8-2.4v0c0 0 0 0.1 0 0.1 0 0.1-0.1 0.2-0.1 0.2s0 0 0 0.1c-0.1 0.1-0.1 0.3-0.2 0.4 0 0.1-0.1 0.1-0.1 0.1 0 0.1-0.1 0.1-0.1 0.2 0 0 0 0 0 0-0.1 0.1-0.1 0.2-0.2 0.3 0 0.1-0.1 0.2-0.2 0.2 0 0 0 0 0 0-0.1 0.1-0.2 0.2-0.3 0.3s-0.2 0.2-0.3 0.3c-0.1 0.1-0.2 0.2-0.3 0.3-0.1 0-0.1 0.1-0.2 0.1 0 0-0.1 0.1-0.1 0.1-0.1 0.1-0.3 0.2-0.4 0.3-0.1 0-0.1 0.1-0.2 0.1s-0.1 0.1-0.2 0.1-0.3 0.1-0.4 0.2c-0.1 0-0.1 0.1-0.2 0.1s-0.2 0-0.2 0.1c-0.1 0-0.2 0.1-0.4 0.1-0.1 0-0.2 0.1-0.3 0.1-0.2 0-0.3 0-0.5 0.1l-0.1-1.3c0 0 0 0-0.1 0.1-0.2 0.3-0.5 0.5-0.7 0.8-0.1 0.1-0.1 0.1-0.2 0.2 0 0 0 0 0 0-0.1 0.1-0.2 0.2-0.3 0.3v0c0 0 0 0 0 0s0 0-0.1 0c-0.2 0.1-0.3 0.2-0.5 0.3s-0.3 0.2-0.5 0.3c0 0 0 0-0.1 0-0.2 0.1-0.3 0.1-0.5 0.2 0 0-0.1 0-0.1 0-0.2 0.1-0.4 0.1-0.5 0.1-0.2 0-0.4 0.1-0.6 0.1 0.3 0.6 0.7 1.2 1.1 1.6 0.1 0.2 0.3 0.3 0.4 0.4v0c0.2 0.2 0.4 0.4 0.6 0.6 0.1 0.1 0.2 0.2 0.3 0.3v0 0c0 0 0 0 0 0s0.1 0.1 0.1 0.1 0.2 0.2 0.3 0.3c0.2 0.1 0.3 0.2 0.5 0.3 0 0 0.1 0 0.1 0.1 0.1 0 0.2 0.1 0.2 0.1s0.1 0 0.1 0c0 0 0.1 0 0.1 0.1 0.1 0.1 0.2 0.1 0.3 0.2 0.1 0 0.1 0.1 0.2 0.1 0 0 0 0 0.1 0 0.2 0.1 0.4 0.2 0.6 0.2l-0.1-1.4c0 0 0 0 0 0v0c0.3 0 0.5-0.1 0.8-0.1 0.2 0 0.4-0.1 0.6-0.2 0.1 0 0.2 0 0.3-0.1 0 0 0 0 0 0 0.2 0 0.4-0.1 0.6-0.2 0.1 0 0.2-0.1 0.3-0.1s0.2-0.1 0.3-0.1c0 0 0 0 0 0 0.1 0 0.1-0.1 0.2-0.1s0.2-0.1 0.3-0.1c0 0 0.1 0 0.1-0.1 0.2-0.1 0.3-0.2 0.4-0.2 0 0 0 0 0 0s0 0 0 0c0.1 0 0.1-0.1 0.2-0.1 0.2-0.1 0.3-0.2 0.4-0.3 0.1 0 0.1-0.1 0.2-0.1 0.1-0.1 0.3-0.2 0.4-0.3s0.1-0.1 0.2-0.2 0.3-0.3 0.4-0.4c0 0 0.1-0.1 0.1-0.1 0.1-0.1 0.3-0.3 0.4-0.4 0 0 0.1-0.1 0.1-0.1 0.3-0.4 0.6-0.7 0.8-1.1 0.1-0.2 0.2-0.3 0.3-0.5s0.2-0.3 0.3-0.5c0.1-0.1 0.1-0.3 0.2-0.4 0.1-0.2 0.2-0.4 0.2-0.6 0.1-0.2 0.2-0.4 0.3-0.7zM26.9 15.1c0-0.1 0.1-0.2 0.1-0.3l-1.4 0.2c0 0 0 0 0 0v0c0-0.2 0-0.4-0.1-0.5 0 0 0-0.1 0-0.1s0 0 0 0c0-0.1 0-0.2-0.1-0.3 0 0 0-0.1 0-0.1s0 0 0-0.1 0-0.2-0.1-0.3c0 0 0 0 0 0 0-0.1-0.1-0.2-0.1-0.3 0 0 0-0.1 0-0.1-0.1-0.2-0.1-0.4-0.2-0.6v0c0-0.1-0.1-0.1-0.1-0.2 0 0 0 0 0 0 0-0.1-0.1-0.2-0.1-0.2s0-0.1-0.1-0.1c0-0.1-0.1-0.2-0.2-0.3s-0.1-0.2-0.2-0.3c0-0.1-0.1-0.2-0.1-0.2-0.1-0.1-0.1-0.2-0.2-0.3 0 0 0 0 0 0-0.1-0.1-0.1-0.2-0.2-0.2 0 0-0.1-0.1-0.1-0.1-0.1-0.1-0.1-0.2-0.2-0.2-0.1-0.1-0.1-0.1-0.2-0.2v0c0 0 0-0.1-0.1-0.1 0 0 0-0.1-0.1-0.1-0.1-0.2-0.3-0.3-0.4-0.4 0 0 0 0 0 0s0 0 0 0 0 0-0.1-0.1c0 0 0 0 0 0 0.2-0.5 0.1-0.6 0-0.6 0 0 0 0 0 0-0.1-0.1-0.2-0.2-0.3-0.2 0 0-0.1-0.1-0.1-0.1v0c0 0 0 0 0 0-0.1-0.1-0.3-0.2-0.4-0.3 0 0-0.1-0.1-0.1-0.1s0 0 0 0c-0.1-0.2-0.2-0.3-0.3-0.3-0.1-0.1-0.2-0.1-0.3-0.2-0.1 0-0.1-0.1-0.2-0.1-0.3-0.2-0.7-0.4-1-0.5 0 0 0 0-0.1 0s-0.2-0.1-0.2-0.1c-0.2-0.1-0.3-0.1-0.5-0.2-0.1 0-0.1 0-0.2-0.1-0.2-0.1-0.3-0.1-0.5-0.1 0 0 0 0 0 0 0.7 0.7 1.4 1.5 1.9 2.5l0.4 0.7-0.8 0.1c-0.9 0.1-1.7 0.4-2.4 0.8 0 0 0 0 0.1 0s0.2 0.1 0.3 0.1c0 0 0 0 0 0 0.1 0 0.2 0.1 0.3 0.1s0.2 0.1 0.3 0.1c0 0 0 0 0.1 0s0.1 0.1 0.2 0.1c0 0 0 0 0 0s0 0 0.1 0c0 0 0 0 0.1 0 0.1 0.1 0.3 0.2 0.4 0.3 0 0 0.1 0 0.1 0.1 0 0 0 0 0 0 0.2 0.1 0.4 0.3 0.5 0.5 0 0 0 0 0 0s0 0 0 0c0.2 0.2 0.5 0.5 0.7 0.8 0 0 0 0.1 0.1 0.1 0 0 0 0.1 0.1 0.1 0 0 0 0 0 0.1 0 0 0.1 0.1 0.1 0.1s0 0 0 0.1 0.1 0.2 0.1 0.2c0 0 0 0 0 0 0 0.1 0 0.1 0.1 0.2 0 0 0 0.1 0 0.1 0 0.1 0.1 0.2 0.1 0.4 0 0 0 0.1 0 0.1s0 0 0 0 0 0.1 0 0.1c0 0 0 0 0 0.1 0 0 0 0 0 0.1s0.1 0.2 0.1 0.3c0 0.1 0 0.3 0.1 0.5v0c0 0 0 0 0 0h-0.2l-1.1 0.1c0.1 0.1 0.2 0.2 0.3 0.3 0 0 0.1 0.1 0.1 0.1 0.1 0.1 0.3 0.3 0.4 0.4 0.2 0.2 0.3 0.3 0.4 0.5 0 0 0 0 0 0v0c0 0 0 0 0.1 0.1 0 0 0 0 0 0s0 0 0 0 0 0 0 0c0.1 0.2 0.3 0.4 0.4 0.6 0 0.1 0.1 0.1 0.1 0.2 0 0 0 0 0-0.1 0.1 0.2 0.2 0.3 0.2 0.5 0 0 0 0 0 0 0.2 0.5 0.3 1 0.4 1.5 0-0.1 0-0.2-0.1-0.3 0 0 0-0.1 0-0.1s0 0 0 0 0 0 0 0 0 0 0 0.1c0 0 0 0 0 0s0 0.1 0 0.1 0 0.2 0 0.3c0 0.1 0 0.1 0 0.2v0c0.5-0.3 1-0.6 1.5-1 0 0 0 0 0 0s-0.1 0-0.1 0.1c0.1-0.1 0.2-0.1 0.3-0.2 0 0 0 0-0.1 0 0 0 0 0 0 0 0.4-0.4 0.8-0.7 1.2-1.1 0 0 0 0 0 0 0.2-0.2 0.3-0.4 0.5-0.6 0.1-0.2 0.3-0.4 0.4-0.6s0.2-0.4 0.3-0.6c0-0.1 0.1-0.1 0.1-0.2 0 0 0 0 0 0 0.2-0.3 0.2-0.5 0.3-0.7zM21.8 17.5c0 0 0 0 0 0s0 0 0 0 0.1 0 0 0 0 0 0 0z"></path>
</svg>
