<!-- Generated by IcoMoon.io -->
<svg version="1.1" xmlns="http://www.w3.org/2000/svg" width="32" height="32" viewBox="0 0 32 32">
<title>cro</title>
<path fill="#03316c" d="M5.7 10v12l10.3 6 10.3-6v-12l-10.3-5.9-10.3 5.9zM15.2 21.6l-1.8 1.7h-1.6l-3.9-6.7 2.9-2.1 2.5 1.6v2.9l1.9 1.8v0.8zM16 18.8h-2.1l0.3-2.7-0.9-2.4h5.5l-0.9 2.4 0.3 2.7h-2.2zM24.1 16.6l-3.8 6.7h-1.5l-1.8-1.7v-0.9l1.9-1.8v-2.9l2.5-1.6 2.7 2.2zM21.2 13h-10.4l1-4.3h8.5l0.9 4.3zM16 0c-8.8 0-16 7.2-16 16s7.2 16 16 16 16-7.2 16-16-7.2-16-16-16zM26.8 22.2l-10.8 6.2-10.8-6.2v-12.4l10.8-6.2 10.8 6.2v12.4z"></path>
</svg>
