<!-- Generated by IcoMoon.io -->
<svg version="1.1" xmlns="http://www.w3.org/2000/svg" width="32" height="32" viewBox="0 0 32 32">
<title>crv</title>
<path fill="#465775" d="M14.5 19.9c0.3 3.2-1.3 4.7-2.5 4.7-1.1 0-3-2.1-3.2-4.6s0.6-4.7 2.1-4.9c1.6 0 3.2 1.6 3.6 4.8zM19.6 11.2c-2.2-0.8-5.4-1.6-4.4 0.6 0.3 0.7 0.6 2 0.8 3.9 4-0.3 6.5-0.8 7.3-1.4 1.3-1.1-1.5-2.3-3.7-3.1zM32 16c0 8.8-7.2 16-16 16s-16-7.2-16-16 7.2-16 16-16 16 7.2 16 16zM24.4 10.1c-4.7-3.4-9.7-4.4-11.7-4.4-4.5 0-6 5.3-6 8.9s0.8 6.1 1.4 7.6c0.6 1.5 1.8 4.1 4.4 4.1s3.2-3.3 3.7-4.1c0.5-0.9 8.7-2.1 9.8-3 1-1 3.1-5.7-1.6-9.1z"></path>
</svg>
