<!-- Generated by IcoMoon.io -->
<svg version="1.1" xmlns="http://www.w3.org/2000/svg" width="32" height="32" viewBox="0 0 32 32">
<title>ctk</title>
<path fill="#e1aa4c" d="M7.5 11.2c2.5 4.9 5 9.7 7.6 14.6-2.4-1.4-4.3-3.2-5.6-5.6-1.6-2.8-2.2-5.8-2-9zM11.7 17.6c1.4 2.8 2.9 5.6 4.3 8.4 1.5-2.8 3-5.6 4.5-8.4-2.9 0-5.9 0-8.8 0zM32 16c0 8.8-7.2 16-16 16s-16-7.2-16-16 7.2-16 16-16 16 7.2 16 16zM9.4 9c0 0.2 0.1 0.3 0.2 0.3 0.2 0.1 0.3 0 0.4 0 2-0.6 3.9-1.2 5.9-1.8 0.1 0 0.1 0 0.2 0 1.7 0.5 3.3 1 5 1.5 0.4 0.2 0.8 0.3 1.2 0.4 0.2 0.1 0.5-0.1 0.5-0.4 0-0.2-0.2-0.3-0.4-0.4-2-0.6-4.1-1.3-6.2-1.9-0.2 0-0.3 0-0.4 0-1.5 0.5-3 0.9-4.5 1.4-0.5 0.2-1.1 0.3-1.6 0.5-0.2 0.1-0.3 0.2-0.3 0.4zM25.4 11.5c0-0.6-0.1-1.2-0.2-1.8-0.1-0.2-0.2-0.3-0.4-0.3s-0.3 0-0.4 0.2c0 0.1-0.1 0.1-0.1 0.2-1.1 2.2-2.2 4.5-3.3 6.8 0 0.1-0.1 0.1-0.2 0.1h-0.1c-3.1 0-6.1 0-9.2 0-0.1 0-0.2 0-0.2-0.1-1-1.8-1.9-3.7-2.9-5.6-0.2-0.5-0.5-0.9-0.7-1.4-0.1-0.1-0.2-0.2-0.4-0.2s-0.4 0.1-0.4 0.3c0 0.1 0 0.1 0 0.2-0.1 0.8-0.2 1.7-0.2 2.5 0 1.5 0.2 3.1 0.6 4.6 0.9 3.2 2.7 6 5.3 8.1 1 0.8 2.1 1.5 3.3 2.1 0.1 0.1 0.3 0.1 0.4 0s0.2-0.1 0.3-0.2c0.6-0.4 1.3-0.8 1.9-1.2 4-2.8 6.2-6.7 6.8-11.5 0.1-0.9 0.1-1.9 0.1-2.8zM24.4 11.4c-0.5 1-0.9 1.9-1.4 2.9s-0.9 2-1.4 2.9c-1.5 2.8-3 5.7-4.5 8.5 0 0 0 0 0 0 1.7-1 3-2.2 4.2-3.7s2-3.2 2.6-5.1c0.5-1.9 0.7-3.8 0.6-5.7 0 0.1 0 0.1-0.1 0.2zM17.1 25.7c0 0.1-0.1 0.1 0 0 0 0.1 0 0.1 0 0z"></path>
</svg>
