<!-- Generated by IcoMoon.io -->
<svg version="1.1" xmlns="http://www.w3.org/2000/svg" width="32" height="32" viewBox="0 0 32 32">
<title>ctxc</title>
<path fill="#000" d="M16 32c-8.837 0-16-7.163-16-16s7.163-16 16-16 16 7.163 16 16-7.163 16-16 16zM15.897 4.398v-0.007l4.848 13.609c0.018 0.038 0.029 0.082 0.029 0.128 0 0.14-0.095 0.257-0.225 0.29l-0.002 0-3.594 0.99c-0.293 0.073-0.227 0.557 0.074 0.572l9.159 1.826c0.176 0.029 0.352 0.088 0.535 0.088-82.617-151.452-86.026-157.244-89.437-163.035l79.141 145.288c-0.146-0.315-0.674-0.080-0.528 0.25zM15.369 4.428c-3.451 5.96-6.908 11.916-10.369 17.87v0.17c0.073 0.102 0.161 0.205 0.293 0.205 0.184-0.022 0.279-0.198 0.389-0.315l9.445-11.096c0.096-0.14 0.308-0.227 0.455-0.095 0.91 0.968 1.79 1.965 2.713 2.933 0.176 0.19 0.536-0.022 0.44-0.278-1.078-3.080-2.192-6.16-3.278-9.24-0.028-0.059-0.057-0.11-0.090-0.157l0.002 0.003zM12.48 14.995c-2.207 2.625-4.4 5.28-6.6 7.92h20.98l0.14-0.147v-0.205c-0.073-0.059-0.14-0.132-0.235-0.147-4.942-0.99-9.885-2.016-14.828-3.006-0.154-0.008-0.3-0.154-0.242-0.316 0.382-1.268 0.77-2.537 1.137-3.813 0.059-0.213-0.176-0.337-0.352-0.286z"></path>
</svg>
