<!-- Generated by IcoMoon.io -->
<svg version="1.1" xmlns="http://www.w3.org/2000/svg" width="32" height="32" viewBox="0 0 32 32">
<title>ctxc</title>
<path d="M16 0c-8.8 0-16 7.2-16 16s7.2 16 16 16 16-7.2 16-16-7.2-16-16-16zM15.9 4c0.1-0.1 0.2-0.1 0.3-0.1s0.1 0.1 0.2 0.1c0.8 1.3 1.6 2.7 2.3 4 2.6 4.4 5.2 8.9 7.7 13.3 0 0 0 0.1 0.1 0.1-0.1 0-0.2 0-0.2 0-1.1-0.2-2.2-0.4-3.4-0.7-1-0.2-2.1-0.4-3.1-0.6-0.9-0.1-1.8-0.3-2.8-0.5-0.2 0-0.3-0.2-0.3-0.3s0.1-0.2 0.2-0.2c0.6-0.2 1.3-0.3 1.9-0.5 0.5-0.1 1.1-0.3 1.6-0.4 0.2-0.1 0.3-0.2 0.2-0.4-1.3-3.5-2.5-7-3.8-10.6-0.3-0.9-0.6-1.8-1-2.7 0 0 0 0 0-0.1 0.1-0.2 0.1-0.3 0.1-0.4zM5.7 22.2c-0.2 0.2-0.3 0.1-0.5-0.1 0-0.1 0-0.2 0-0.2 0.3-0.5 0.5-0.9 0.8-1.4 3.1-5.3 6.2-10.7 9.3-16 0 0 0-0.1 0.1-0.1 0 0.1 0.1 0.1 0.1 0.2 1.1 3 2.1 6 3.2 9 0.1 0.2 0 0.4-0.2 0.4-0.1 0-0.2 0-0.2-0.1-0.3-0.4-0.7-0.7-1-1.1-0.5-0.6-1-1.1-1.6-1.7-0.1-0.2-0.3-0.2-0.5 0-0.4 0.4-0.7 0.8-1.1 1.3-1.5 1.7-3 3.5-4.5 5.2-1.2 1.5-2.5 2.9-3.7 4.4-0.1 0-0.1 0.1-0.2 0.2zM26.8 22.4c0 0.1-0.1 0.1-0.2 0.1-6.8 0-13.6 0-20.4 0 0 0-0.1 0-0.1 0 0.3-0.3 0.5-0.6 0.8-0.9 1.4-1.7 2.8-3.3 4.2-5 0.5-0.6 1-1.2 1.5-1.8 0.1-0.1 0.2-0.1 0.3-0.1s0.2 0.1 0.1 0.2c0 0.1-0.1 0.3-0.1 0.4-0.3 1.1-0.7 2.2-1 3.4-0.1 0.2 0 0.3 0.2 0.3 0.6 0.1 1.2 0.2 1.8 0.4 1.1 0.2 2.2 0.4 3.2 0.7 1.1 0.2 2.2 0.4 3.3 0.7 1 0.2 1.9 0.4 2.9 0.6 1.1 0.2 2.2 0.4 3.3 0.7 0.1 0 0.2 0.1 0.2 0.1s0 0.1 0 0.2z"></path>
</svg>
