<!-- Generated by IcoMoon.io -->
<svg version="1.1" xmlns="http://www.w3.org/2000/svg" width="32" height="32" viewBox="0 0 32 32">
<title>dcn</title>
<path fill="#136485" d="M16 0c-8.8 0-16 7.2-16 16 0 4.6 1.9 8.7 5 11.6 2.3-3.7 4.7-7.9 6.3-11.9 0.9-2.4 1.7-4.8 2.5-7.2 0.6 2 1.2 4.2 1.9 6.8-1.6 5.1-3.3 10.4-5.1 15.8 1.7 0.6 3.5 0.9 5.3 0.9 1.7 0 3.4-0.3 5-0.8-0.8-2.6-2.7-9.3-4.7-16.1l2-6.4c0.1 0.5 0.3 1 0.4 1.5 1.5 5.3 3.7 10.4 6.6 15.1l0.8 1.3c0.3 0.4 0.5 0.9 0.7 1.2 3.3-3 5.3-7.2 5.3-11.8 0-8.8-7.2-16-16-16zM16 14.2c-1-3.3-1.2-4.2-2-6.7 0.6-1.8 1.1-3.6 1.6-5.4 0.1-0.4 0.3-0.8 0.4-1.2 0.1 0.1 0.2 0.3 0.2 0.5 0.6 2.1 1.2 4.3 1.8 6.4-0.6 2.1-1.3 4.3-2 6.4z"></path>
</svg>
