<!-- Generated by IcoMoon.io -->
<svg version="1.1" xmlns="http://www.w3.org/2000/svg" width="32" height="32" viewBox="0 0 32 32">
<title>dcr</title>
<path fill="#2ed6a1" d="M16 32c-8.837 0-16-7.163-16-16s7.163-16 16-16 16 7.163 16 16-7.163 16-16 16zM14.856 17.62l6.023 5.257h3.99l-3.484-3.042c2.063-0.867 3.485-2.871 3.485-5.207 0-0.383-0.038-0.758-0.111-1.119l0.006 0.036c-0.513-2.603-2.775-4.54-5.49-4.545h-4.42l3.014 2.629h1.406c1.646 0.005 2.978 1.34 2.978 2.987 0 0.003 0 0.006 0 0.008v-0c0 0.002 0 0.005 0 0.008 0 1.647-1.332 2.982-2.978 2.987h-4.42zM17.013 14.26l-6.020-5.26h-3.99l3.481 3.043c-2.063 0.867-3.485 2.871-3.485 5.207 0 0.383 0.038 0.758 0.111 1.119l-0.006-0.036c0.513 2.603 2.775 4.539 5.489 4.545h4.419l-3.012-2.628h-1.407c-1.646-0.005-2.978-1.34-2.978-2.987 0-0.003 0-0.006 0-0.008v0c0-0.002 0-0.005 0-0.008 0-1.646 1.332-2.982 2.978-2.987h4.421z"></path>
</svg>
