<!-- Generated by IcoMoon.io -->
<svg version="1.1" xmlns="http://www.w3.org/2000/svg" width="32" height="32" viewBox="0 0 32 32">
<title>dnt</title>
<path fill="#2c398f" d="M16 32c-8.837 0-16-7.163-16-16s7.163-16 16-16 16 7.163 16 16-7.163 16-16 16zM25.075 19.1c-0.827-0.046-0.367-1.362-0.735-2.863-0.437-1.662 0.207-2.817 1.057-2.77 0.4 0.062 0.778 0.22 1.103 0.461-0.161-0.775-0.432-1.463-0.798-2.087l0.017 0.032c-0.759-1.27-2.413-3.117-4.481-4.571v13.922c0.082 0.173 0.13 0.375 0.13 0.589 0 0.772-0.626 1.398-1.398 1.398-0.768 0-1.392-0.619-1.398-1.386v-0.001c-0.816 0.516-1.809 0.822-2.874 0.822-1.635 0-3.102-0.722-4.099-1.865l-0.006-0.006c-0.838-0.96-1.348-2.224-1.348-3.607 0-1.326 0.47-2.543 1.252-3.493l-0.008 0.009c1.004-1.222 2.516-1.996 4.208-1.996 1.008 0 1.952 0.274 2.761 0.752l-0.025-0.014v-5.402c-0.007-0.421 0.18-0.822 0.506-1.085-2.689-1.247-5.699-1.501-8.273 0.785-4.32 3.855-6.48 9.235-4.32 14.591 0.046 0.116 0.092 0.231 0.138 0.323 0.063-0.13 0.149-0.246 0.253-0.346 1.126-1.154 2.367 1.2 5.010 2.563 1.677 0.854 2.642 1.985 3.010 3.047 2.458 0.3 4.986-0.092 7.008-1.27 2.643-1.523 4.183-4.294 4.734-7.11-0.381 0.335-0.875 0.549-1.419 0.577l-0.006 0zM14.712 19.192c1.333 0.762 2.941 0.462 3.24-1.247 0.16-0.992 0.069-2.54-0.804-3.024-2.896-1.662-5.332 2.609-2.436 4.271zM16.068 8.156c0.62-0.023 1.194 0.716 1.217 1.062s-0.528 0.208-1.126 0.416c-0.666 0.23-1.149 0.023-1.171-0.323-0.023-0.347 0.436-1.132 1.080-1.155z"></path>
</svg>
