<!-- Generated by IcoMoon.io -->
<svg version="1.1" xmlns="http://www.w3.org/2000/svg" width="32" height="32" viewBox="0 0 32 32">
<title>dock</title>
<path fill="#786dbc" d="M16 32c-8.837 0-16-7.163-16-16s7.163-16 16-16 16 7.163 16 16-7.163 16-16 16zM15.931 10.771v-0.004c-0.279-0.034-0.602-0.054-0.929-0.054-4.418 0-8 3.582-8 8s3.582 8 8 8c4.363 0 7.91-3.493 7.998-7.835l0-0.008-0.001-0.067v-12.661c0-0.631-0.512-1.143-1.143-1.143s-1.143 0.512-1.143 1.143v0 12.576c-0.012 3.136-2.557 5.673-5.695 5.673-3.145 0-5.695-2.55-5.695-5.695s2.55-5.695 5.695-5.695c0.35 0 0.692 0.032 1.025 0.092l-0.035-0.005-1.707 1.707c-0.196 0.205-0.316 0.483-0.316 0.789 0 0.631 0.512 1.143 1.143 1.143 0.306 0 0.584-0.12 0.789-0.316l-0 0 3.64-3.636c0.207-0.207 0.335-0.493 0.335-0.809s-0.128-0.602-0.335-0.809l-3.674-3.674c-0.205-0.196-0.484-0.317-0.791-0.317-0.632 0-1.144 0.512-1.144 1.144 0 0.325 0.135 0.618 0.353 0.827l0 0 1.63 1.633z"></path>
</svg>
