<!-- Generated by IcoMoon.io -->
<svg version="1.1" xmlns="http://www.w3.org/2000/svg" width="32" height="32" viewBox="0 0 32 32">
<title>dot</title>
<path fill="#e6007a" d="M16 0c8.837 0 16 7.163 16 16s-7.163 16-16 16-16-7.163-16-16 7.163-16 16-16zM15.417 23.003c-0.125 0.606 0.25 1.212 0.873 1.337 0.071 0.016 0.153 0.025 0.237 0.025 0.541 0 0.992-0.383 1.098-0.892l0.001-0.007c0.124-0.623-0.25-1.212-0.874-1.336-0.071-0.016-0.153-0.025-0.237-0.025-0.54 0-0.992 0.382-1.098 0.891l-0.001 0.007zM16.272 6.625c-3.707 0-6.736 3.012-6.736 6.736 0 0.749 0.124 1.48 0.356 2.192 0.133 0.374 0.484 0.637 0.897 0.637 0.106 0 0.208-0.017 0.304-0.050l-0.007 0.002c0.373-0.134 0.636-0.484 0.636-0.897 0-0.106-0.018-0.209-0.050-0.304l0.002 0.007c-0.171-0.469-0.27-1.011-0.27-1.576 0-0.054 0.001-0.108 0.003-0.161l-0 0.008c0.071-2.512 2.103-4.58 4.616-4.704 0.076-0.004 0.165-0.007 0.255-0.007 2.682 0 4.856 2.172 4.86 4.853v0c-0.003 2.584-2.021 4.695-4.567 4.847l-0.013 0.001s-0.945 0.053-1.408 0.125c-0.232 0.035-0.41 0.071-0.535 0.089-0.054 0.018-0.107-0.036-0.090-0.090l0.161-0.783 0.873-4.028c0.013-0.058 0.020-0.125 0.020-0.193 0-0.444-0.31-0.816-0.726-0.911l-0.006-0.001c-0.058-0.013-0.125-0.020-0.193-0.020-0.445 0-0.817 0.311-0.911 0.727l-0.001 0.006s-2.103 9.802-2.121 9.909c-0.013 0.058-0.020 0.125-0.020 0.193 0 0.445 0.311 0.817 0.727 0.911l0.006 0.001c0.058 0.013 0.125 0.020 0.193 0.020 0.445 0 0.817-0.311 0.911-0.727l0.001-0.006c0.017-0.107 0.303-1.408 0.303-1.408 0.212-0.974 1.001-1.715 1.983-1.853l0.012-0.001c0.262-0.032 0.625-0.063 0.99-0.086l0.061-0.003c3.491-0.28 6.218-3.181 6.22-6.719v-0c0-3.724-3.030-6.736-6.737-6.736z"></path>
</svg>
