<!-- Generated by IcoMoon.io -->
<svg version="1.1" xmlns="http://www.w3.org/2000/svg" width="32" height="32" viewBox="0 0 32 32">
<title>drop</title>
<path fill="#242d3d" d="M16 32c-8.837 0-16-7.163-16-16s7.163-16 16-16 16 7.163 16 16-7.163 16-16 16zM23.134 17.467c-0.551-2.427-2.264-5.103-2.264-5.103 1.974 5.387 1.214 9.45 0.691 11.755 0 0-0.69 2.578 0.795 0.43 1.852-2.688 0.778-7.082 0.778-7.082zM18.258 7.91c1.027 3.658 1.492 6.763 1.637 9.352 0.255 4.412-0.418 7.315-0.836 8.848-0.134 0.499 0.424 0.87 0.749 0.493l0.006-0.006c0.812-0.929 1.196-3.105 1.376-5.015l0.052-0.627c0.168-2.3 0.070-4.621-0.47-6.845-0.993-4.104-2.514-6.2-2.514-6.2zM16.418 14.354c-0.25-6.008-0.703-11.343-0.703-11.343s-0.458 5.068-0.708 10.942c-0.040 0.953-0.076 1.922-0.105 2.897-0.040 1.417-0.058 2.84-0.058 4.215 0.006 2.444 0.1 4.737 0.32 6.566 0.087 0.725 1.027 0.725 1.114 0 0.151-1.248 0.238-2.781 0.273-4.465 0.013-0.657 0.020-1.433 0.020-2.21 0-1.144-0.015-2.284-0.046-3.42l0.004 0.168c-0.030-1.115-0.064-2.241-0.11-3.35zM9.399 21.594c-0.084-0.662-0.133-1.429-0.133-2.206 0-0.425 0.014-0.847 0.043-1.265l-0.003 0.057c0.058-0.894 0.186-1.852 0.407-2.874 0.203-0.935 0.481-1.916 0.859-2.949 0 0-1.208 1.887-1.916 3.924-0.14 0.39-0.255 0.79-0.343 1.179 0 0-0.226 1.022-0.26 2.386-0.024 0.946 0.051 2.066 0.353 3.123 0.167 0.598 0.4 1.12 0.695 1.6l-0.015-0.027s1.486 2.212 0.795-0.43c-0.191-0.694-0.359-1.548-0.472-2.42l-0.010-0.099zM11.518 20.409c-0.017-0.383-0.026-0.832-0.026-1.283 0-0.811 0.030-1.615 0.090-2.411l-0.006 0.106c0.071-1.029 0.17-1.935 0.303-2.83l-0.024 0.195c0.26-1.881 0.685-3.965 1.33-6.276 0 0-1.528 2.096-2.52 6.2-0.053 0.22-0.1 0.441-0.146 0.656-0.18 0.894-0.296 1.8-0.354 2.717-0.070 1.15-0.052 2.31 0.030 3.466l0.052 0.633c0.18 1.91 0.557 4.086 1.375 5.015l0.006 0.006c0.325 0.372 0.888 0 0.75-0.493-0.303-1.132-0.75-3.013-0.86-5.701zM14.055 20.635c-0.019-0.728-0.030-1.585-0.030-2.445 0-0.545 0.004-1.089 0.013-1.631l-0.001 0.082c0.012-0.876 0.035-1.8 0.076-2.769 0.099-2.502 0.569-6.119 0.894-9.184 0 0-1.602 3.315-2.334 9.295-0.098 0.818-0.191 1.7-0.261 2.653l-0.052 0.708s-0.087 1.265-0.053 2.972c0.047 2.194 0.29 5.12 1.196 7.036 0.030 0.058 0.064 0.11 0.11 0.15l0.006 0.007c0.343 0.325 0.871 0.017 0.825-0.488-0.197-1.839-0.338-4.054-0.388-6.292l-0.002-0.094zM17.375 20.635c-0.075 3.112-0.272 5.289-0.388 6.386-0.047 0.505 0.481 0.813 0.824 0.488l0.006-0.006c0.045-0.042 0.082-0.092 0.109-0.148l0.001-0.003c0.906-1.916 1.15-4.842 1.196-7.036 0.035-1.707-0.052-2.972-0.052-2.972l-0.053-0.708c-0.082-1.111-0.174-2.024-0.288-2.93l0.028 0.277c-0.732-5.98-2.335-9.295-2.335-9.295 0.326 3.065 0.796 6.682 0.894 9.184 0.041 0.97 0.064 1.893 0.076 2.77 0.008 0.461 0.012 1.004 0.012 1.549 0 0.859-0.011 1.716-0.033 2.57l0.003-0.126z"></path>
</svg>
