<!-- Generated by IcoMoon.io -->
<svg version="1.1" xmlns="http://www.w3.org/2000/svg" width="32" height="32" viewBox="0 0 32 32">
<title>dtr</title>
<path fill="#121747" d="M16 0c-8.8 0-16 7.2-16 16s7.2 16 16 16 16-7.2 16-16-7.2-16-16-16zM11.1 19.8v3.1c0 0 0 0 0 0 0 0.8-0.4 1.4-1 1.8s-1.4 0.4-2.1 0v0c-0.6-0.4-1-1-1-1.8 0 0 0 0 0 0v-3.1c0 0 0 0 0 0s0 0 0 0c0-0.8 0.4-1.5 1-1.8 0.3-0.2 0.7-0.3 1-0.3 0.4 0 0.7 0.1 1 0.3v0c0.7 0.3 1.1 1 1.1 1.8 0 0 0 0 0 0zM18 22.9c0 1.1-0.9 2.1-2.1 2.1s-2.1-0.9-2.1-2.1v-13.8c0.1-1.2 1-2.1 2.2-2.1s2 0.9 2 2.1v13.8zM25 17.4c0 0.7-0.4 1.3-0.9 1.7-0.3 0.2-0.7 0.4-1.2 0.4-1.1 0-2.1-0.9-2.1-2.1v-5.2c0-0.6 0.2-1.1 0.6-1.5s0.9-0.6 1.5-0.6c1.1 0 2.1 0.9 2.1 2.1v5.2z"></path>
</svg>
