<!-- Generated by IcoMoon.io -->
<svg version="1.1" xmlns="http://www.w3.org/2000/svg" width="32" height="32" viewBox="0 0 32 32">
<title>eca</title>
<path fill="#aa15dd" d="M16 32c-8.837 0-16-7.163-16-16s7.163-16 16-16 16 7.163 16 16-7.163 16-16 16zM15.999 25.612c-0.241 0.002-0.436 0.198-0.436 0.44 0 0.001 0 0.003 0 0.004v-0c0 0.001-0 0.003-0 0.004 0 0.242 0.195 0.438 0.436 0.44h0c0.241-0.002 0.436-0.198 0.436-0.44 0-0.001 0-0.003-0-0.004v0c0-0.001 0-0.001 0-0.002 0-0.242-0.195-0.439-0.436-0.442h-0zM7.219 11.358c0.153 0.090 0.345 0.077 0.486-0.032 0.105-0.083 0.172-0.211 0.172-0.354 0-0.041-0.006-0.081-0.016-0.119l0.001 0.003c0.035-0.062 0.056-0.135 0.056-0.214 0-0.241-0.195-0.436-0.436-0.436s-0.436 0.195-0.436 0.436c0 0.038 0.005 0.074 0.014 0.109l-0.001-0.003c-0.037 0.064-0.059 0.141-0.059 0.224 0 0.163 0.087 0.306 0.217 0.385l0.002 0.001zM7.219 20.652c-0.132 0.080-0.218 0.222-0.218 0.385 0 0.081 0.022 0.158 0.060 0.223l-0.001-0.002c0.12 0.212 0.387 0.285 0.596 0.163 0.132-0.080 0.218-0.222 0.218-0.385 0-0.081-0.022-0.158-0.060-0.223l0.001 0.002c-0.076-0.133-0.217-0.221-0.378-0.221-0.080 0-0.155 0.022-0.22 0.060l0.002-0.001zM24.779 11.358c0.134-0.079 0.222-0.223 0.222-0.387 0-0.204-0.136-0.376-0.323-0.43l-0.003-0.001c-0.034-0.009-0.073-0.015-0.113-0.015-0.142 0-0.268 0.068-0.347 0.174l-0.001 0.001c-0.056 0.075-0.090 0.169-0.090 0.271 0 0.082 0.022 0.16 0.061 0.226l-0.001-0.002c0.076 0.133 0.217 0.222 0.378 0.222 0.080 0 0.155-0.022 0.22-0.060l-0.002 0.001zM16 6.388c0.002 0 0.004 0 0.006 0 0.181 0 0.335-0.11 0.402-0.266l0.001-0.003c0.022-0.052 0.035-0.112 0.035-0.175 0-0.121-0.048-0.231-0.125-0.312l0 0c-0.079-0.082-0.189-0.133-0.311-0.133-0.060 0-0.117 0.012-0.168 0.034l0.003-0.001c-0.16 0.069-0.27 0.226-0.27 0.409 0 0.001 0 0.001 0 0.002v-0c0 0.243 0.19 0.44 0.428 0.445zM23.8 20.582c0.152-0.271 0.437-0.451 0.764-0.451 0.118 0 0.231 0.024 0.334 0.066l-0.006-0.002v-8.395c-0.097 0.041-0.21 0.065-0.329 0.065-0.326 0-0.609-0.179-0.759-0.443l-0.002-0.004c-0.074-0.128-0.117-0.282-0.117-0.446 0-0.284 0.131-0.537 0.336-0.703l0.002-0.001-7.152-4.2c-0.058 0.435-0.425 0.767-0.87 0.77h-0c-0.445-0.003-0.812-0.335-0.87-0.766l-0.001-0.005-7.15 4.201c0.205 0.167 0.335 0.419 0.335 0.702 0 0.165-0.044 0.319-0.121 0.452l0.002-0.004c-0.152 0.268-0.435 0.446-0.76 0.446-0.118 0-0.231-0.024-0.333-0.066l0.006 0.002v8.4c0.097-0.041 0.21-0.064 0.329-0.064 0.326 0 0.609 0.179 0.759 0.443l0.002 0.004c0.074 0.128 0.117 0.282 0.117 0.446 0 0.284-0.131 0.537-0.336 0.703l-0.002 0.001 7.152 4.201c0.058-0.434 0.425-0.766 0.87-0.769h0c0.438 0 0.809 0.328 0.87 0.769l7.151-4.2c-0.207-0.167-0.339-0.421-0.339-0.706 0-0.164 0.044-0.318 0.12-0.451l-0.002 0.004zM17.688 19.295c0.766-0.455 1.345-1.158 1.631-1.996l0.008-0.026c0.425-1.265 2.336-0.56 1.621 1.084 0 0.016-0.013 0.031-0.019 0.045l2.352 1.38c0.124 0.077 0.205 0.212 0.205 0.366 0 0.079-0.021 0.152-0.058 0.216l0.001-0.002c-0.072 0.128-0.207 0.212-0.362 0.212-0.075 0-0.146-0.020-0.207-0.055l0.002 0.001-2.337-1.368c-0.475 0.75-1.101 1.363-1.84 1.808l-0.025 0.014c-0.631 0.383-1.378 0.643-2.177 0.728l-0.023 0.002v2.6c0 0.243-0.194 0.44-0.433 0.44-0.239-0.002-0.433-0.196-0.433-0.436 0-0.001 0-0.003 0-0.004v0-2.578c-1.798-0.112-3.356-1.048-4.313-2.431l-0.012-0.019-2.129 1.246c-0.060 0.036-0.133 0.057-0.21 0.057-0.155 0-0.29-0.085-0.362-0.21l-0.001-0.002c-0.036-0.061-0.057-0.135-0.057-0.214 0-0.156 0.083-0.292 0.207-0.368l0.002-0.001 2.12-1.245c-0.123-0.251-0.239-0.551-0.331-0.861l-0.011-0.042-0.202-1.144c-0.010-0.129-0.016-0.278-0.016-0.43 0-0.938 0.224-1.823 0.621-2.605l-0.015 0.033-2.165-1.274c-0.126-0.077-0.209-0.213-0.209-0.369 0-0.078 0.021-0.151 0.057-0.213l-0.001 0.002c0.072-0.128 0.207-0.212 0.362-0.212 0.077 0 0.149 0.021 0.21 0.057l-0.002-0.001 2.184 1.281c0.468-0.653 1.052-1.191 1.727-1.593l0.026-0.014c0.723-0.433 1.585-0.707 2.508-0.753l0.013-0.001v-2.704c0-0.243 0.194-0.44 0.433-0.44s0.432 0.197 0.432 0.44v2.73c1.686 0.2 3.123 1.12 4.015 2.439l0.013 0.020 2.382-1.405c0.061-0.038 0.134-0.060 0.213-0.060 0.155 0 0.289 0.086 0.358 0.213l0.001 0.002c0.034 0.060 0.054 0.133 0.054 0.21 0 0.157-0.084 0.295-0.209 0.37l-0.002 0.001-3.239 1.906-0.044 0.021-0.762 0.45-6.326 3.708c0.667 0.91 1.733 1.494 2.934 1.494 0.678 0 1.312-0.186 1.855-0.51l-0.017 0.009zM24.78 20.652c-0.062-0.037-0.137-0.059-0.218-0.059-0.161 0-0.302 0.088-0.376 0.22l-0.001 0.002c-0.037 0.064-0.058 0.14-0.058 0.221 0 0.163 0.087 0.305 0.216 0.384l0.002 0.001c0.063 0.038 0.138 0.060 0.219 0.060 0.161 0 0.301-0.089 0.375-0.22l0.001-0.002c0.037-0.064 0.058-0.14 0.058-0.221 0-0.163-0.087-0.306-0.216-0.385l-0.002-0.001zM12.284 16.587l5.86-3.442c-0.619-0.508-1.418-0.816-2.29-0.816-0.677 0-1.311 0.186-1.853 0.509l0.017-0.009c-1.58 0.928-1.777 2.091-1.734 3.758z"></path>
</svg>
