<!-- Generated by IcoMoon.io -->
<svg version="1.1" xmlns="http://www.w3.org/2000/svg" width="32" height="32" viewBox="0 0 32 32">
<title>edo</title>
<path fill="#242424" d="M16 32c-8.837 0-16-7.163-16-16s7.163-16 16-16 16 7.163 16 16-7.163 16-16 16zM13.060 23.874l1.709 1.722c0.249 0.25 0.594 0.404 0.975 0.404s0.725-0.154 0.974-0.404l1.719-1.722-2.694-2.697zM20.010 14.632l2.693-2.697-2.692-2.697-2.693 2.697zM19.341 22.995l6.255-6.265c0.25-0.25 0.404-0.595 0.404-0.976s-0.154-0.726-0.404-0.977l-1.718-1.721-7.23 7.242zM11.938 22.717l7.218-7.23-2.692-2.697-7.218 7.23zM8.116 18.917l2.705-2.698-2.693-2.698-1.718 1.722c-0.253 0.251-0.41 0.598-0.41 0.983 0 0.378 0.152 0.72 0.397 0.97l-0-0zM18.883 8.129l-1.719-1.725c-0.249-0.25-0.594-0.404-0.974-0.404s-0.725 0.154-0.974 0.404l-6.255 6.266 2.693 2.697z"></path>
</svg>
