<!-- Generated by IcoMoon.io -->
<svg version="1.1" xmlns="http://www.w3.org/2000/svg" width="32" height="32" viewBox="0 0 32 32">
<title>edoge</title>
<path fill="#0facf3" d="M16 32c-8.837 0-16-7.163-16-16s7.163-16 16-16 16 7.163 16 16-7.163 16-16 16zM9.471 9.016c-0.508 0-1.040-0.046-1.502 0.18-0.243 0.374-0.3 0.906-0.011 1.28 0.277 0.249 0.681 0.249 1.040 0.26 1.606 0 3.212-0.011 4.819 0-0.046 1.392 0 2.796-0.023 4.2-1.433 0-2.878-0.012-4.31 0-0.37 0-0.81 0.068-0.972 0.441-0.127 0.34-0.127 0.781 0.162 1.041 0.243 0.204 0.59 0.204 0.902 0.216 1.41 0 2.808-0.012 4.218 0 0 1.528-0.023 3.067 0.011 4.606-1.826 0.034-3.663-0.022-5.49 0.034-0.773-0.045-1.062 0.997-0.577 1.483 0.277 0.25 0.682 0.215 1.040 0.238 3.282 0 6.553 0.011 9.835 0 1.687-0.011 3.467-0.43 4.738-1.573 1.433-1.246 2.057-3.158 2.138-4.98 0.081-1.835-0.277-3.804-1.502-5.264-1.040-1.257-2.647-1.913-4.253-2.083-1.607-0.147-2.677-0.080-4.83-0.080h-5.434zM15.805 14.936v-3.611c0.011-0.204 0.023-0.487 0.254-0.555 0.728-0.068 1.4-0.045 2.184-0.045 1.375-0.080 2.855 0.26 3.837 1.256 1.086 1.11 1.364 2.74 1.329 4.222-0.023 1.336-0.37 2.74-1.318 3.747-0.924 0.962-2.31 1.37-3.628 1.313-0.887 0-1.572 0.023-2.358-0.045-0.289-0.023-0.3-0.362-0.312-0.589 0-1.335 0.012-2.66 0-3.995 0.659-0.012 1.33 0.056 1.976-0.046 0.798-0.113 0.798-1.494 0.012-1.607-0.659-0.090-1.318-0.034-1.976-0.045z"></path>
</svg>
