<!-- Generated by IcoMoon.io -->
<svg version="1.1" xmlns="http://www.w3.org/2000/svg" width="32" height="32" viewBox="0 0 32 32">
<title>ela</title>
<path fill="#3fbadf" d="M16 32c-8.837 0-16-7.163-16-16s7.163-16 16-16 16 7.163 16 16-7.163 16-16 16zM6 10.23l10 5.704 10-5.704-5-2.8-5.004 2.872-4.996-2.87-5 2.799zM6 19.23l10 5.704 10-5.704-5-2.8-5 2.874-5-2.871-5 2.798z"></path>
<path fill="#3fbadf" opacity="0.4" d="M11 22.119l5-2.82v5.635l-5-2.815zM11 13.119l5-2.82v5.635l-5-2.815z"></path>
<path fill="#3fbadf" opacity="0.7" d="M26 19.23l-5 2.886v-5.686l5 2.8zM26 10.23l-5 2.886v-5.686l5 2.8z"></path>
<path fill="#3fbadf" opacity="0.8" d="M11 22.116v-5.683l5 2.87-5 2.813zM11 13.116v-5.683l5 2.87-5 2.813z"></path>
<path fill="#3fbadf" d="M21 22.116l-5-2.812 5-2.874v5.686zM21 13.116l-5-2.812 5-2.874v5.686z"></path>
<path fill="#3fbadf" opacity="0.6" d="M21 22.116l-5 2.818v-5.63l5 2.812zM21 13.116l-5 2.818v-5.63l5 2.812z"></path>
<path fill="#3fbadf" opacity="0.5" d="M11 16.433v5.683l-5-2.885 5-2.798zM11 7.433v5.683l-5-2.885 5-2.798z"></path>
</svg>
