<!-- Generated by IcoMoon.io -->
<svg version="1.1" xmlns="http://www.w3.org/2000/svg" width="32" height="32" viewBox="0 0 32 32">
<title>elf</title>
<path fill="#2b5ebb" d="M16 32c-8.837 0-16-7.163-16-16s7.163-16 16-16 16 7.163 16 16-7.163 16-16 16zM26 15.962c0.001-2.316-1.791-4.135-4.090-4.15-2.252-0.015-4.11 1.849-4.122 4.135-0.012 2.287 1.826 4.16 4.090 4.166 2.312 0.007 4.121-1.815 4.122-4.15zM9.090 23.92c0.923 0.004 1.735-0.319 2.287-1.054 0.344-0.457 0.548-1.038 0.74-1.59 0.352-1.012 0.822-1.898 1.892-2.287 0.598-0.217 1.182-0.027 1.77 0.076 0.666 0.116 1.198-0.232 1.375-0.88 0.028-0.096 0.044-0.206 0.044-0.319 0-0.483-0.291-0.898-0.706-1.080l-0.008-0.003c-0.586-0.252-1.246-0.031-1.537 0.563-0.286 0.584-0.737 0.983-1.267 1.312-0.365 0.227-0.76 0.322-1.173 0.186-0.665-0.218-1.318-0.477-1.986-0.686-0.47-0.147-0.954-0.327-1.436-0.338-1.677-0.039-3.010 1.34-3.016 3.046-0 0.010-0 0.023-0 0.035 0 1.667 1.352 3.019 3.019 3.019 0.001 0 0.002 0 0.002 0h-0zM9.026 8.082c-2.224 0-3.684 2.34-2.728 4.37 0.49 1.044 1.532 1.754 2.74 1.754 0.549 0 1.064-0.147 1.508-0.403l-0.015 0.008c0.402-0.223 0.803-0.462 1.23-0.623 1.23-0.462 2.135-0.192 2.95 0.838 0.12 0.15 0.22 0.317 0.327 0.477 0.3 0.447 0.853 0.654 1.342 0.502 0.553-0.173 0.857-0.603 0.844-1.194-0.019-0.852-0.81-1.38-1.633-1.080-0.928 0.339-2.391 0.218-2.974-1.023-0.235-0.5-0.512-0.987-0.696-1.508-0.464-1.316-1.529-2.117-2.896-2.117zM18.556 23.99c0.013-1.122-0.849-2.052-1.977-2.041-1.179 0.011-2.027 0.95-1.997 2.104 0.026 1.020 0.906 1.927 1.96 1.947 1.089 0.020 2.002-0.891 2.015-2.010zM14.594 8.020c-0.052 0.978 0.701 2.009 1.98 2.033 1.124 0.021 1.978-0.894 1.986-2.035 0.009-1.085-0.893-2.008-1.971-2.018-1.109-0.010-1.996 0.888-1.995 2.020z"></path>
</svg>
