<!-- Generated by IcoMoon.io -->
<svg version="1.1" xmlns="http://www.w3.org/2000/svg" width="32" height="32" viewBox="0 0 32 32">
<title>ella</title>
<path fill="#396a28" d="M16 32c-8.837 0-16-7.163-16-16s7.163-16 16-16 16 7.163 16 16-7.163 16-16 16zM18.073 13.212l2.207-2.207-4.28-6.005-4.25 6.062 2.163 2.164 2.087-2.086zM13.19 13.95l-2.2-2.2-5.99 4.25 6.056 4.229 2.156-2.156-2.072-2.073zM18.774 18.087l2.182 2.182 6.044-4.269-5.978-4.29-2.226 2.226 2.064 2.064zM13.936 18.797l-2.14 2.139 4.204 6.064 4.232-6.007-2.182-2.183-2.050 2.050zM16 12.527l-3.472 3.473 3.472 3.472 3.472-3.472z"></path>
</svg>
