<!-- Generated by IcoMoon.io -->
<svg version="1.1" xmlns="http://www.w3.org/2000/svg" width="32" height="32" viewBox="0 0 32 32">
<title>ens</title>
<path fill="#51a9ff" d="M16 0c-8.8 0-16 7.2-16 16s7.2 16 16 16 16-7.2 16-16-7.2-16-16-16zM8 23.1c-1.8-1.4-2.9-3.4-3.1-5.7-0.1-1-0.1-1.9 0-2.9 0.1-0.9 0.4-1.8 0.8-2.6 0 0 0.2-0.4 0.3-0.6 0 0.4 0 0.8 0 1.2 0.1 0.8 0.4 1.6 0.8 2.3 4 6.8 8.7 13.6 8.7 13.6l-7.5-5.3zM8.6 15.2c0 0 0 0 0 0v0c0 0-0.6-1-0.9-1.6-0.6-1.3-0.6-2.9 0.1-4.2 0.2-0.4 0.5-0.8 0.9-1l6.8-4.8-6.9 11.6zM24.2 22.6c-0.2 0.4-0.6 0.8-1 1.1l-6.8 4.8 7-11.6c0 0 0 0 0 0v0c0 0 0.6 1 0.9 1.6 0.6 1.2 0.6 2.7-0.1 4.1zM27.1 17.4c-0.1 0.9-0.4 1.8-0.8 2.6 0 0-0.2 0.4-0.3 0.6 0 0 0 0 0 0s0 0 0 0c0-0.2 0-0.4 0-0.6s0-0.4 0-0.5c-0.1-0.8-0.4-1.6-0.8-2.3-4-6.8-8.7-13.6-8.7-13.6v0c0 0 0 0 0 0l7.5 5.3c1.8 1.4 2.9 3.4 3.1 5.7 0 0 0 0 0 0v0c0.1 0.9 0.1 1.9 0 2.8z"></path>
</svg>
