<!-- Generated by IcoMoon.io -->
<svg version="1.1" xmlns="http://www.w3.org/2000/svg" width="32" height="32" viewBox="0 0 32 32">
<title>eon</title>
<path fill="#443f54" d="M13.8 22.5c0.3 0.9 1.1 3.1 1.5 4.3-1.4-0.8-3.1-1.9-4.4-2.7-0.6-0.4-1.3-0.7-1.9-1.2-0.2-0.2-0.2-0.4-0.2-0.5 0.6-2.9 1.3-6 2-8.9 0.5 1.8 2.2 6.6 3 9zM16 5.5c-1.1 1.6-3.7 5.4-4.4 6.5 1.9 0 6.8 0 8.8 0-0.8-1.2-3.3-4.9-4.4-6.5zM11.5 12.6c0.6 1.8 3.3 9.4 4.6 13.1 1.2-3.7 3.8-11.3 4.4-13.1-2.2 0-7.1 0-9 0zM18.2 22.5c-0.3 0.9-1 3-1.4 4.2 1.4-0.8 3-1.8 4.3-2.6 0.6-0.4 1.3-0.7 1.9-1.2 0.2-0.2 0.2-0.4 0.2-0.5-0.6-2.9-1.3-6-1.9-8.8-0.6 1.9-2.3 6.6-3.1 8.9zM32 16c0 8.8-7.2 16-16 16s-16-7.2-16-16 7.2-16 16-16 16 7.2 16 16zM24 22.4c-0.7-3.1-2.2-10.2-2.2-10.2v0c0-0.2-0.1-0.3-0.2-0.5 0 0-3.4-4.9-4.9-7.1-0.3-0.4-0.5-0.6-0.7-0.6s-0.4 0.2-0.7 0.6c-1.5 2.1-4.9 7.1-4.9 7.1-0.1 0.2-0.2 0.3-0.2 0.5v-0.1c0 0-1.5 7.1-2.2 10.2-0.1 0.4 0 0.7 0.4 0.9 2.4 1.4 7.3 4.5 7.3 4.5s0 0 0 0c0.1 0.1 0.2 0.1 0.3 0.1s0.2 0 0.2-0.1v0c0 0 4.9-3.1 7.3-4.5 0.5-0.1 0.6-0.4 0.5-0.8z"></path>
</svg>
