<!-- Generated by IcoMoon.io -->
<svg version="1.1" xmlns="http://www.w3.org/2000/svg" width="32" height="32" viewBox="0 0 32 32">
<title>eqli</title>
<path fill="#c9a35e" d="M16 32c-8.837 0-16-7.163-16-16s7.163-16 16-16 16 7.163 16 16-7.163 16-16 16zM10.027 19.38l0.744-1.48c0.023-0.048 0.037-0.104 0.037-0.163 0-0.074-0.021-0.143-0.058-0.201l0.001 0.002c-0.068-0.103-0.183-0.17-0.314-0.171h-1.602l4.197-7.756 3.749 6.82c0.066 0.115 0.19 0.191 0.324 0.191h1.688c0.003 0 0.007 0 0.011 0 0.13 0 0.244-0.072 0.303-0.178l0.001-0.002c0.033-0.056 0.052-0.124 0.052-0.196 0-0.065-0.015-0.126-0.043-0.179l0.001 0.002-5.772-10.378c-0.133-0.239-0.515-0.239-0.648 0l-7.402 13.345c-0.029 0.051-0.045 0.112-0.045 0.177 0 0.072 0.021 0.139 0.056 0.196l-0.001-0.002c0.066 0.114 0.19 0.181 0.314 0.181h4.073c0.146-0 0.273-0.085 0.333-0.208l0.001-0.002zM26.701 19.036l-7.411-13.346c-0.069-0.115-0.192-0.191-0.334-0.191v0c-0.139 0.006-0.259 0.084-0.323 0.198l-0.001 0.002-1.85 3.711c-0.023 0.049-0.036 0.107-0.036 0.167s0.013 0.118 0.037 0.17l-0.001-0.003 0.744 1.478c0.124 0.248 0.534 0.248 0.667 0l0.792-1.583 4.188 7.727h-7.908c-0.2 0-0.372 0.162-0.372 0.372v1.478c0 0.2 0.162 0.372 0.372 0.372h11.113c0.003 0 0.007 0 0.011 0 0.131 0 0.244-0.072 0.303-0.179l0.001-0.002c0.037-0.055 0.059-0.122 0.059-0.194 0-0.066-0.018-0.127-0.050-0.18l0.001 0.002zM21.884 20.514c-0.066-0.113-0.186-0.188-0.324-0.19h-1.851c-0.138 0.002-0.258 0.077-0.323 0.188l-0.001 0.002c-0.031 0.051-0.049 0.112-0.049 0.178 0 0.072 0.022 0.139 0.059 0.195l-0.001-0.001 0.772 1.288h-8.337l3.758-6.486c0.032-0.053 0.052-0.117 0.052-0.185 0-0.061-0.015-0.119-0.043-0.17l0.001 0.002-0.744-1.479c-0.057-0.119-0.177-0.2-0.316-0.2-0.003 0-0.006 0-0.009 0h0c-0.005-0-0.011-0-0.018-0-0.136 0-0.255 0.076-0.315 0.189l-0.001 0.002-2.957 5.18-2.966 4.817c-0.035 0.055-0.055 0.123-0.055 0.195 0 0.065 0.017 0.126 0.046 0.179l-0.001-0.002c0.066 0.114 0.187 0.189 0.325 0.191h14.823c0.003 0 0.007 0 0.011 0 0.131 0 0.244-0.072 0.303-0.179l0.001-0.002c0.032-0.053 0.050-0.117 0.050-0.186s-0.019-0.133-0.051-0.188l0.001 0.002-1.841-3.339z"></path>
</svg>
