<!-- Generated by IcoMoon.io -->
<svg version="1.1" xmlns="http://www.w3.org/2000/svg" width="32" height="32" viewBox="0 0 32 32">
<title>equa</title>
<path fill="#f68922" d="M16 32c-8.837 0-16-7.163-16-16s7.163-16 16-16 16 7.163 16 16-7.163 16-16 16zM16.72 10.078c3.093-0.606 3.265 1.471 3.265 1.471 0.172 2.337-1.805 2.424-1.805 2.424l-0.582 0.040c-0.91 0.027-1.672 0.7-1.818 1.604-0.016 0.092-0.025 0.198-0.025 0.306 0 0.465 0.165 0.892 0.44 1.224l-0.003-0.003c0.35 0.425 0.866 0.677 1.414 0.69l0.573 0.033c4.126-0.26 5.33-3.635 5.33-3.635 1.719-4.24-1.634-6.837-1.634-6.837-2.505-1.967-5.39-1.493-7.36-0.756-1.718 0.66-3.159 1.713-4.264 3.054l-0.014 0.018c-4.794 5.812-0.395 12.137-0.395 12.137 2.246 3.044 5.707 4.31 8.286 4.136 1.042-0.084 1.856-0.951 1.856-2.008 0-0.005-0-0.010-0-0.015v0.001c0-0.538-0.212-1.054-0.59-1.434-0.363-0.367-0.867-0.594-1.424-0.594h-0.258c-0.002 0-0.004 0-0.006 0-0.394 0-0.775-0.052-1.138-0.15l0.030 0.007c-5.246-1.386-4.608-6.52-4.608-6.52 0.601-4.587 4.727-5.193 4.727-5.193z"></path>
</svg>
