<!-- Generated by IcoMoon.io -->
<svg version="1.1" xmlns="http://www.w3.org/2000/svg" width="32" height="32" viewBox="0 0 32 32">
<title>ethos</title>
<path fill="#00ffba" d="M16 24.6c0 0 0 0 0 0v0 0zM19.2 21.5c0 0 0 0 0 0s0 0 0 0v0zM14.3 16c0 0 0 0 0 0s0 0 0 0 0 0 0 0zM24.6 16c0 0 0 0 0 0s0 0 0 0v0c0 0 0 0 0 0zM7.4 16v0c0 0 0 0 0 0s0 0 0 0zM11.4 13.7c0 0 0 0 0 0s0 0 0 0v0zM32 16c0 8.8-7.2 16-16 16s-16-7.2-16-16 7.2-16 16-16 16 7.2 16 16zM24.6 16c0.9-1.1 1.4-2.4 1.4-3.9 0-0.3 0-0.5 0-0.7 0 0 0-0.1 0-0.1 0-0.2-0.1-0.4-0.1-0.6 0-0.1-0.1-0.2-0.1-0.3s-0.1-0.3-0.1-0.4c-0.1-0.1-0.1-0.3-0.2-0.4 0-0.1-0.1-0.1-0.1-0.2 0 0 0 0 0 0 0-0.1-0.1-0.1-0.1-0.2-0.2-0.2-0.2-0.3-0.3-0.5-0.1-0.1-0.2-0.2-0.2-0.3-0.1-0.1-0.1-0.1-0.2-0.2-0.3-0.4-0.6-0.7-1-0.9v0c0 0 0 0 0 0s0 0 0 0v0 0c0 0 0 0 0 0-0.3-0.3-0.6-0.4-0.9-0.6-0.2-0.1-0.4-0.2-0.6-0.3-0.1 0-0.2-0.1-0.3-0.1s-0.3-0.1-0.4-0.1c-0.4-0.1-1-0.2-1.5-0.2 0 0 0 0 0 0s0 0 0 0 0 0 0 0c-0.3 0-0.7 0-1 0.1 0 0-0.1 0-0.1 0-0.3 0.1-0.6 0.1-0.9 0.2-0.1 0-0.1 0-0.2 0.1-0.3 0.1-0.5 0.2-0.8 0.4-0.1 0-0.1 0.1-0.2 0.1-0.3 0.2-0.5 0.3-0.7 0.5 0 0 0 0 0 0v0c0 0 0 0 0 0s0 0 0 0v0c-1-0.9-2.4-1.4-3.9-1.4-1.7 0-3.2 0.7-4.3 1.8s-1.8 2.6-1.8 4.3c0 1.5 0.5 2.8 1.4 3.9v0c0 0 0 0 0 0s0 0 0 0v0c-0.9 1-1.4 2.4-1.4 3.9 0 1.6 0.7 3.1 1.7 4.2 0.3 0.3 0.6 0.5 0.9 0.8 1 0.7 2.2 1.1 3.5 1.1 1.5 0 2.9-0.5 3.9-1.4v0c1 0.9 2.4 1.4 3.9 1.4 1.7 0 3.3-0.7 4.4-1.8v0c1.1-1.1 1.7-2.6 1.7-4.2s-0.5-2.9-1.4-4v0 0zM19.9 13.8c0 0 0 0 0 0s0 0 0 0c0.3 0 0.6-0.1 0.9-0.3 0 0 0.1-0.1 0.1-0.1 0.1-0.1 0.1-0.1 0.2-0.2 0 0 0.1-0.1 0.1-0.1 0.1-0.1 0.1-0.2 0.2-0.3 0 0 0 0 0-0.1s0.1-0.2 0.1-0.3c0 0 0-0.1 0-0.1 0-0.1 0-0.2 0-0.2 0-0.1 0-0.2 0-0.3 0 0 0-0.1 0-0.1 0-0.1-0.1-0.2-0.1-0.4-0.3-0.6-0.9-0.9-1.5-0.9-0.4 0-0.7 0.1-1 0.3-0.5 0.3-0.8 0.8-0.8 1.4 0 0 0 0 0 0s0 0 0 0 0 0 0 0c0 1.2-1 2.2-2.2 2.2-1.1 0-1.9-0.8-2.1-1.8 0-0.2-0.1-0.3-0.1-0.5 0-0.3-0.1-0.7-0.3-1s-0.4-0.5-0.8-0.6c-0.2-0.1-0.4-0.1-0.7-0.1-0.2 0-0.5 0-0.7 0.1v0c-0.6 0.3-1 0.9-1 1.6 0 0.4 0.1 0.7 0.3 1v0c0.2 0.3 0.4 0.5 0.7 0.6 0.2 0.1 0.4 0.1 0.7 0.1 0 0 0 0 0 0s0 0 0 0c1.1 0 2.1 0.9 2.2 2 0 0.1 0 0.1 0 0.2 0-0.1 0-0.1 0-0.2v0c0 0 0 0 0 0v0 0c0 0.1 0 0.1 0 0.2 0 0 0 0 0 0.1 0 0 0 0 0-0.1 0 0.2 0 0.4-0.1 0.6 0 0 0 0 0 0 0 0.1 0 0.1-0.1 0.2-0.1 0.2-0.1 0.3-0.2 0.5 0 0 0 0 0 0s0 0 0 0 0 0 0 0 0 0 0 0.1c-0.4 0.6-1 0.9-1.8 0.9 0 0 0 0 0 0-0.2 0-0.3 0-0.5 0.1 0 0-0.1 0-0.1 0-0.1 0-0.3 0.1-0.4 0.2s-0.2 0.2-0.3 0.3c0 0 0 0 0 0.1-0.1 0.1-0.2 0.2-0.2 0.4v0c-0.1 0.2-0.1 0.4-0.1 0.7s0.1 0.7 0.3 0.9c0 0 0 0 0 0 0.1 0.1 0.1 0.2 0.2 0.2v0c0.1 0.1 0.1 0.1 0.2 0.2 0 0 0 0 0.1 0 0.3 0.2 0.6 0.3 1 0.3s0.7-0.1 1-0.3v0c0.5-0.3 0.8-0.8 0.8-1.4 0 0 0 0 0 0 0-1.2 1-2.2 2.2-2.2 0 0 0 0 0 0 1.2 0 2.2 1 2.2 2.2 0 0 0 0 0 0 0 0.4 0.1 0.7 0.3 1v0c0.2 0.3 0.4 0.5 0.7 0.6 0.2 0.1 0.4 0.1 0.7 0.1 0.2 0 0.5-0.1 0.7-0.1v0c0.4-0.2 0.7-0.5 0.9-0.9 0.2-0.5 0.2-1.1-0.2-1.6v0c-0.3-0.5-0.8-0.8-1.4-0.8 0 0 0 0 0 0-1.2 0-2.1-0.9-2.2-2.1v0c0 0 0-0.1 0-0.1s0 0 0 0c-0.1-1.2 0.9-2.2 2.1-2.2zM12.8 10.5c0 0 0 0 0 0s0 0 0 0v0z"></path>
</svg>
