<!-- Generated by IcoMoon.io -->
<svg version="1.1" xmlns="http://www.w3.org/2000/svg" width="32" height="32" viewBox="0 0 32 32">
<title>etp</title>
<path fill="#00a5ff" d="M16 32c-8.837 0-16-7.163-16-16s7.163-16 16-16 16 7.163 16 16-7.163 16-16 16zM18.080 12.574l0.006 0.007c-0.604-0.348-1.21-0.69-1.808-1.047-0.176-0.106-0.311-0.125-0.497-0.009-0.516 0.322-1.052 0.613-1.57 0.93-0.142 0.087-0.241 0.078-0.377-0.003-0.168-0.118-0.723-0.441-1.281-0.759l-0.416-0.217c-0.075-0.042-0.2-0.086-0.26-0.053-0.653 0.361-1.299 0.737-1.97 1.124 0.606 0.355 1.179 0.701 1.764 1.027 0.199 0.11 0.28 0.23 0.279 0.47-0.012 2.067-0.007 4.135-0.007 6.202v0.32c0.116-0.060 0.193-0.097 0.266-0.14 0.519-0.3 1.032-0.61 1.556-0.901 0.175-0.097 0.242-0.205 0.24-0.412-0.009-2.058-0.005-4.117-0.005-6.176v-0.315c0.089 0.044 0.15 0.071 0.209 0.104 0.528 0.302 1.051 0.614 1.586 0.904 0.172 0.093 0.223 0.2 0.222 0.392-0.007 2.297-0.004 4.595-0.004 6.892v0.325c0.645-0.403 1.244-0.786 1.854-1.153 0.158-0.095 0.207-0.203 0.207-0.382-0.003-0.869-0.006-1.898-0.006-2.927 0-0.537 0.001-1.073 0.002-1.609l-0 0.083c0.001-0.892 0.007-1.784 0.010-2.677zM18.086 12.581l-0.006-0.007c0.601 0.35 1.199 0.708 1.807 1.046 0.166 0.091 0.208 0.198 0.208 0.375-0.006 2.083-0.004 4.167-0.004 6.251v0.329c0.695-0.402 1.35-0.777 1.998-1.163 0.047-0.028 0.065-0.137 0.065-0.208 0.004-2.163 0.005-4.327-0.004-6.49 0-0.087-0.078-0.21-0.156-0.255-0.346-0.219-0.91-0.544-1.48-0.858l-0.243-0.122c-0.052-0.024-0.113-0.038-0.178-0.038-0.063 0-0.122 0.013-0.176 0.038l0.003-0.001c-0.573 0.31-1.136 0.64-1.699 0.968-0.053 0.030-0.090 0.090-0.135 0.136zM6.939 18.788c0.001 0 0.002 0 0.003 0 0.782 0 1.416-0.634 1.416-1.416 0-0.006-0-0.011-0-0.017v0.001c-0.002-0.781-0.635-1.414-1.417-1.414-0.007 0-0.015 0-0.022 0h0.001c-0 0-0.001 0-0.001 0-0.784 0-1.419 0.635-1.419 1.419 0 0.005 0 0.010 0 0.015v-0.001c0.006 0.79 0.644 1.417 1.44 1.413zM8.854 23.075c0.737-0.008 1.332-0.608 1.332-1.347 0-0.004 0-0.007-0-0.011v0.001c-0.008-0.736-0.635-1.353-1.36-1.337-0.739 0.016-1.332 0.619-1.332 1.361 0 0.001 0 0.002 0 0.003v-0c0.010 0.742 0.616 1.334 1.36 1.33zM7.767 11.399c-0.007-0-0.014-0-0.022-0-0.704 0-1.275 0.571-1.275 1.275 0 0.004 0 0.009 0 0.013v-0.001c-0 0.008-0 0.018-0 0.028 0 0.706 0.57 1.279 1.275 1.284h0c0.005 0 0.011 0 0.017 0 0.72 0 1.303-0.583 1.303-1.303 0-0 0-0.001 0-0.001v0c0-0.715-0.579-1.293-1.298-1.295zM25.289 16.305c0.671 0 1.215-0.544 1.215-1.215s-0.544-1.215-1.215-1.215v0c-0.671 0-1.215 0.544-1.215 1.215s0.544 1.215 1.215 1.215v0zM9.542 8.617c-0 0.007-0 0.015-0 0.023 0 0.603 0.489 1.092 1.092 1.092 0.002 0 0.004 0 0.006 0h-0c0.002 0 0.005 0 0.008 0 0.609 0 1.102-0.493 1.102-1.102 0-0.001 0-0.003 0-0.004v0c0-0.004 0-0.009 0-0.014 0-0.608-0.493-1.101-1.101-1.101-0 0-0.001 0-0.001 0h0c-0.005-0-0.010-0-0.015-0-0.602 0-1.090 0.488-1.090 1.090 0 0.006 0 0.011 0 0.017v-0.001zM24.636 20.91c0.002 0 0.005 0 0.008 0 0.601 0 1.088-0.487 1.088-1.088 0-0.009-0-0.019-0-0.028l0 0.001c-0.001-0.611-0.496-1.107-1.108-1.107-0.001 0-0.002 0-0.003 0h0c-0.606 0.007-1.095 0.5-1.095 1.107 0 0.006 0 0.011 0 0.017v-0.001c-0 0.004-0 0.008-0 0.012 0 0.6 0.487 1.087 1.087 1.087 0.008 0 0.016-0 0.024-0l-0.001 0zM15.986 6.855c0-0.009 0.001-0.019 0.001-0.029 0-0.454-0.366-0.822-0.818-0.826h-0c-0.002-0-0.005-0-0.007-0-0.451 0-0.819 0.358-0.834 0.806l-0 0.001c-0.001 0.012-0.001 0.025-0.001 0.039 0 0.449 0.36 0.814 0.807 0.823h0.001c0.010 0 0.022 0.001 0.034 0.001 0.451 0 0.817-0.365 0.818-0.816v-0zM21.757 24.357c0.481 0.004 0.848-0.351 0.85-0.822 0-0.003 0-0.006 0-0.010 0-0.453-0.367-0.82-0.82-0.82-0 0-0 0-0 0v0c-0.007-0-0.016-0-0.025-0-0.455 0-0.823 0.368-0.823 0.823 0 0.001 0 0.002 0 0.004v-0c-0 0.004-0 0.008-0 0.012 0 0.45 0.364 0.814 0.814 0.814 0.001 0 0.003 0 0.004 0h-0zM17.477 26c0.007 0 0.016 0 0.024 0 0.43 0 0.778-0.348 0.779-0.777v-0c-0.002-0.437-0.354-0.791-0.791-0.796h-0c-0.004-0-0.008-0-0.013-0-0.432 0-0.782 0.35-0.782 0.782 0 0.001 0 0.002 0 0.003v-0c-0 0.006-0 0.014-0 0.021 0 0.424 0.343 0.767 0.767 0.767 0.006 0 0.011-0 0.017-0h-0.001zM20.105 8.277c0.39-0.004 0.706-0.317 0.717-0.705l0-0.001c-0.006-0.39-0.319-0.705-0.708-0.714h-0.001c-0.001 0-0.003 0-0.004 0-0.392 0-0.71 0.318-0.71 0.71 0 0.391 0.316 0.708 0.706 0.71h0zM13.567 24.559c0-0.004 0-0.009 0-0.014 0-0.338-0.27-0.613-0.605-0.621h-0.001c-0.003-0-0.007-0-0.010-0-0.34 0-0.615 0.273-0.62 0.612v0c-0 0.008-0.001 0.017-0.001 0.026 0 0.335 0.271 0.606 0.606 0.606 0 0 0 0 0.001 0h-0c0.005 0 0.012 0 0.018 0 0.337 0 0.61-0.272 0.612-0.609v-0zM24.23 10.58c-0.003-0.289-0.238-0.521-0.527-0.521-0.007 0-0.013 0-0.020 0l0.001-0c-0.288 0.005-0.52 0.24-0.52 0.529 0 0.007 0 0.015 0 0.022l-0-0.001c0.008 0.292 0.246 0.525 0.539 0.525 0.003 0 0.006-0 0.010-0h-0c0.3-0.010 0.524-0.25 0.518-0.553z"></path>
</svg>
