<!-- Generated by IcoMoon.io -->
<svg version="1.1" xmlns="http://www.w3.org/2000/svg" width="32" height="32" viewBox="0 0 32 32">
<title>exp</title>
<path fill="#ffaa5c" d="M16 32c-8.837 0-16-7.163-16-16s7.163-16 16-16 16 7.163 16 16-7.163 16-16 16zM26 14.717v-3.984c-0.043 0.016-0.088 0.027-0.127 0.049l-4.656 2.613c-0.080 0.044-0.087 0.083-0.050 0.16 0.781 1.634 0.778 3.265-0.015 4.893-0.040 0.082-0.033 0.123 0.050 0.17 1.552 0.863 3.103 1.73 4.654 2.595 0.030 0.016 0.062 0.029 0.106 0.049 0.005-0.1 0.012-0.18 0.012-0.26l0.004-2.507c0.003-1.22 0.007-2.442 0.012-3.662 0-0.039 0.006-0.077 0.010-0.116zM16.3 5h-0.020c-0.006 0.048-0.017 0.095-0.017 0.143 0 0.7 0 1.4 0.003 2.099 0.003 1.013 0.009 2.027 0.010 3.040 0 0.099 0.036 0.135 0.13 0.135 0.056 0 0.112 0.004 0.166 0.011l-0.006-0.001c1.784 0.208 3.188 1.028 4.211 2.463 0.081 0.114 0.080 0.115 0.2 0.048l4.619-2.579c0.030-0.017 0.059-0.037 0.101-0.064-0.047-0.028-0.080-0.050-0.113-0.068l-9.049-5.085c-0.080-0.045-0.157-0.095-0.235-0.142zM15.68 27h0.060c0.004-0.025 0.011-0.050 0.011-0.075l-0.005-2.545c-0.003-0.897-0.007-1.794-0.006-2.691 0-0.1-0.038-0.126-0.134-0.13-0.186-0.007-0.361-0.024-0.532-0.051l0.025 0.003c-1.639-0.266-2.945-1.051-3.9-2.377-0.058-0.080-0.1-0.099-0.193-0.047-1.53 0.857-3.060 1.711-4.59 2.566-0.030 0.017-0.056 0.038-0.096 0.065 0.059 0.035 0.1 0.060 0.143 0.084l9.116 5.125c0.036 0.020 0.067 0.048 0.101 0.073zM6 20.45v0.817c0.045-0.011 0.095-0.013 0.134-0.035 21.855-11.523 23.354-12.378 24.852-13.233l-20.267 10.658c0.13-0.073 0.128-0.072 0.063-0.204-0.796-1.643-0.8-3.286 0-4.928 0.044-0.092 0.032-0.13-0.057-0.18-1.524-0.847-3.045-1.697-4.567-2.547-0.030-0.017-0.062-0.030-0.106-0.051-0.003 0.045-0.007 0.073-0.007 0.1l-0.005 0.962c-0.005 1.487-0.010 2.973-0.013 4.46l-0.007 2.826c0 0.421-0.002 0.842-0.004 1.263 0 0.030-0.010 0.062-0.016 0.093zM19.473 19.52c-0.003-0.042-0.006-0.083-0.007-0.124-0.018-0.51-0.088-1.013-0.266-1.496-0.193-0.524-0.472-0.993-0.94-1.335-0.111-0.080-0.116-0.079-0.184 0.039-0.279 0.48-0.59 0.895-0.942 1.271l0.004-0.004c-1.43 1.514-3.332 1.78-5.060 1.185-0.034-0.011-0.066-0.026-0.099-0.040 0.359 0.027 0.711 0.048 1.063-0.005 0.757-0.114 1.37-0.448 1.76-1.112 0.075-0.126 0.075-0.127-0.063-0.188-1.056-0.467-1.779-1.232-2.163-2.296-0.309-0.853-0.36-1.733-0.266-2.626 0.009-0.080 0.020-0.161 0.031-0.241 0.013-0.080 0.028-0.159 0.042-0.238 0.024 0.029 0.030 0.057 0.038 0.084 0.1 0.346 0.186 0.696 0.303 1.035 0.134 0.387 0.338 0.74 0.63 1.039 0.146 0.15 0.315 0.268 0.517 0.337 0.155 0.053 0.16 0.052 0.24-0.090 0.547-0.979 1.424-1.719 2.478-2.076l0.031-0.009c0.87-0.299 1.769-0.359 2.682-0.273 0.147 0.014 0.293 0.036 0.44 0.054l0.020-0.032-0.168-0.144c-1.493-1.274-3.199-1.683-5.122-1.17-2.56 0.684-4.276 3.275-3.708 5.954 0.608 2.862 3.577 4.664 6.504 3.944 2.638-0.648 4.337-3.095 3.954-5.702-0.159-1.073-0.64-2.013-1.339-2.742l0.002 0.002c-0.041-0.042-0.097-0.069-0.16-0.071h-0c-0.456 0.017-0.887 0.106-1.287 0.255l0.028-0.009c-0.58 0.224-1.051 0.574-1.32 1.137-0.119 0.25-0.098 0.199 0.103 0.3 0.758 0.38 1.38 0.903 1.81 1.625 0.374 0.627 0.552 1.308 0.595 2.026 0.007 0.102 0.011 0.221 0.011 0.341 0 0.496-0.070 0.976-0.201 1.43l0.009-0.036zM25.741 21.732c-0.056-0.033-0.092-0.056-0.128-0.076l-4.644-2.575c-0.137-0.076-0.136-0.076-0.23 0.053-1.070 1.465-2.528 2.271-4.37 2.423-0.082 0.007-0.105 0.035-0.105 0.113 0.002 1.73 0.001 3.459 0.002 5.189 0 0.033 0.007 0.067 0.012 0.122l9.463-5.25zM15.739 5.036c-0.068 0.036-0.12 0.061-0.17 0.089-3.037 1.685-6.075 3.37-9.111 5.056-0.055 0.031-0.104 0.072-0.156 0.108 0.050 0.034 0.1 0.070 0.153 0.1l4.52 2.51c0.127 0.070 0.125 0.069 0.21-0.049 1.089-1.494 2.574-2.307 4.451-2.443 0.1-0.007 0.11-0.047 0.11-0.127v-5.12c0-0.034-0.004-0.068-0.007-0.124z"></path>
</svg>
