<!-- Generated by IcoMoon.io -->
<svg version="1.1" xmlns="http://www.w3.org/2000/svg" width="32" height="32" viewBox="0 0 32 32">
<title>fjc</title>
<path fill="#00afec" d="M16.194 12.326v0l-0.684 2.974c0.426 0.094 0.87 0.25 1.308 0.127 0.286-0.092 0.506-0.316 0.591-0.598l0.002-0.006c0.082-0.263 0.123-0.533 0.195-0.795l0.724 0.184c0.032 0.005-0.005 0.024 0.015 0.003l0.018-0.014c0.3-0.322 0.642-0.675 0.912-1.016-0.405-0.208-0.876-0.37-1.37-0.464l-0.033-0.005-1.634-0.38 0.004-0.009h-0.046zM16 32c-8.837 0-16-7.163-16-16s7.163-16 16-16 16 7.163 16 16-7.163 16-16 16zM20.306 11.828c0.049-0.079 0.093-0.184 0.138-0.274 0.977-1.7 1.554-3.737 1.556-5.909v-0.001c-1.435-0.828-2.95-1.35-4.598-1.531 0.61 2.662 1.474 5.24 2.723 7.669l0.181 0.046zM12.077 11.373l-0.044-0.010-0.35-0.080v-0.006h-0.005l0.315-1.373c0.233 0.050 0.466 0.105 0.698 0.162h0.005c0.771-1.685 1.45-3.671 1.933-5.733l0.043-0.22c-2.253 0.256-4.27 1.101-5.941 2.376l0.029-0.021v0.004c-2.84 2.166-4.677 5.523-4.76 9.313l-0 0.013v0.24c1.194 0.699 2.589 1.212 4.073 1.456l0.071 0.010 0.007-0.007c1.454-1.783 2.762-3.792 3.843-5.933l0.087-0.19h-0.003zM19.591 13.398l-0.056-0.038c-0.27 0.342-0.533 0.622-0.833 0.937l0.085 0.016 0.11 0.037-1.082 4.688-1.298-0.3c0.068-0.383 0.237-0.765 0.158-1.163-0.077-0.292-0.283-0.524-0.553-0.635l-0.006-0.002c-0.292-0.139-0.618-0.188-0.93-0.263l-0.604 2.622c-0.037 0.177-0.037 0.375 0.075 0.525 0.090 0.132 0.244 0.2 0.394 0.237l0.964 0.225-0.289 1.155c3.38-0.033 6.82 0.494 10.050 1.488 0.528-0.714 0.75-0.998 1.107-1.81-1.973-1.83-3.598-4.158-5.063-6.413l-0.36 1.563-1.451-0.337c0.123-0.585 0.24-1.208 0.067-1.8-0.125-0.393-0.223-0.591-0.485-0.732zM8.18 17.805c-0.965 1.189-1.974 2.345-3.097 3.386 0.352 0.814 0.577 0.986 1.102 1.699 1.53-0.485 3.371-0.9 5.261-1.167l0.188-0.022c0.094-0.409 0.116-0.521 0.206-0.934l-2.216-0.513c0.105-0.454 0.214-0.912 0.315-1.37 0.334 0.065 0.664 0.155 0.994 0.222 0.162 0.040 0.333 0.010 0.472-0.082 0.139-0.102 0.21-0.27 0.248-0.432l0.213-0.817c-0.078 0.003-0.151 0.009-0.223 0.020l0.010-0.001c-0.919 0.13-1.815 0.112-2.738 0.030-0.258-0.027-0.452-0.006-0.704-0.062l-0.030 0.043zM13.325 21.109l-0.090 0.45 0.949-0.068 0.030-0.176-0.889-0.206zM11.686 17.531c0.070-0.010 0.14-0.016 0.21-0.019v-0.004l1.143-4.95c0.045-0.225 0.135-0.45 0.064-0.675-0.057-0.164-0.184-0.29-0.344-0.346l-0.004-0.001-0.037-0.012c-0.19-0.051-0.044-0.015-0.237-0.060-0.021-0.005-0.117 0.027-0.139 0.023-1.154 2.303-2.449 4.287-3.938 6.106l0.046-0.058c0.252 0.052 0.21 0.037 0.461 0.063 0.925 0.085 1.856 0.062 2.775-0.067zM14.229 10.417v0.004c0.176-0.743 0.341-1.489 0.521-2.231l1.478 0.34-0.514 2.232 0.885 0.206c0.088-0.371 0.175-0.743 0.26-1.115l0.258-1.116 1.477 0.338c-0.020 0.1-0.042 0.2-0.064 0.3-0.143 0.646-0.302 1.287-0.445 1.936l1.702 0.396c-1.25-2.43-2.077-4.97-2.686-7.632-0.382-0.045-0.543-0.030-0.93-0.037h-0.236c-0.424 0-0.581-0.011-0.997 0.037-0.467 2.043-1.020 4.186-1.87 6.102l1.161 0.24zM26.964 11.156c-1.034-2.314-2.509-4.056-4.702-5.326-0.002 2.072-0.5 3.921-1.518 5.726-0.051 0.090-0.107 0.204-0.159 0.321l-0.010 0.026c0.686 0.15 1.114 0.242 1.8 0.396v0.007l-0.442 1.987c1.462 2.254 3.093 4.736 5.062 6.566 0.628-1.432 0.97-2.973 1.005-4.537v-0.563c-0.042-1.675-0.419-3.252-1.066-4.68l0.031 0.076zM4 16.3v0.173c0.023 1.599 0.365 2.914 1.005 4.38 1.056-0.976 2.021-2.009 2.908-3.11l0.043-0.055c-1.455-0.232-2.681-0.648-3.956-1.388zM15.685 21.7l-0.503 2.19h-0.003l-1.485-0.34 0.413-1.797-0.945 0.067-0.35 1.523h-0.002l-1.486-0.341c0.075-0.338 0.15-0.668 0.233-1.001-1.769 0.24-3.515 0.625-5.22 1.151 2.17 2.922 5.585 4.814 9.446 4.886l0.011 0h0.491c3.841-0.102 7.221-1.987 9.356-4.854l0.023-0.032c-2.889-0.922-6.212-1.454-9.659-1.454-0.113 0-0.225 0.001-0.337 0.002l0.017-0z"></path>
</svg>
