<!-- Generated by IcoMoon.io -->
<svg version="1.1" xmlns="http://www.w3.org/2000/svg" width="32" height="32" viewBox="0 0 32 32">
<title>fldc</title>
<path fill="#c40e09" d="M19.4 16.9c0 0 0 0 0 0s0 0 0 0v0zM32 16c0 8.8-7.2 16-16 16s-16-7.2-16-16 7.2-16 16-16 16 7.2 16 16zM16.9 5.4c-0.1 0.2 0 0.4 0.2 0.4l0.9 0.3 2.4 0.7c0 0 0.1 0 0.1 0s0.1 0 0.1 0c0.2-0.1 0.2-0.2 0.2-0.4v0c0-0.2-0.1-0.3-0.2-0.4l-1.4-0.4c-0.6-0.2-1.2-0.4-1.9-0.6 0 0-0.1 0-0.1 0s0 0-0.1 0v0c-0.1 0.1-0.2 0.2-0.2 0.4zM15.8 6.5c0 0.2 0.1 0.2 0.3 0.3 0.8 0.3 1.7 0.5 2.5 0.8l2.3 0.7c0.1 0 0.3 0 0.4-0.1 0-0.1 0.1-0.2 0.1-0.2 0-0.2-0.1-0.3-0.3-0.4-1.6-0.5-3.2-1-4.8-1.5 0 0-0.1 0-0.1 0s0 0 0 0v0c-0.4-0.1-0.5 0.2-0.4 0.4zM16.4 7.4c-0.1 0-0.2 0.1-0.2 0.3-0.1 0.2 0 0.4 0.2 0.4l3.1 1c0.1 0 0.2 0.1 0.3 0.1v0c0.1 0 0.1 0 0.2-0.1s0.2-0.2 0.2-0.3c0 0 0 0 0 0 0-0.1-0.1-0.3-0.2-0.3v0c-0.2-0.1-0.4-0.1-0.6-0.2-0.9-0.3-1.8-0.6-2.7-0.9-0.1 0-0.1 0-0.3 0 0.1 0 0.1 0 0 0v0zM13.5 6.4c0 0.3 0 0.5 0.1 0.7 0.1 0.7 0.4 1.4 0.8 2 0.1 0.2 0.2 0.3 0.4 0.5 0.2 0.3 0.5 0.6 0.8 0.8 0 0 0.1 0 0.1 0 0.1 0 0.2 0 0.3 0l0.7-0.1 0.6-0.1c0 0 0 0 0 0-0.4-0.3-0.8-0.7-1.1-1s-0.6-0.7-0.9-1.1v0c-0.2-0.4-0.3-0.8-0.3-1.3 0-0.1 0-0.3 0-0.4 0.1-0.4 0.2-0.8 0.4-1.2v-0.1h-0.2c-0.2 0-0.4 0-0.7 0.1-0.3 0-0.5 0.1-0.8 0.1 0 0-0.1 0-0.1 0.1-0.1 0.3-0.1 0.6-0.1 1zM10.1 23.6c0.4-1 1.2-1.6 2.2-1.8 0.3-0.1 0.6-0.1 0.8-0.1s0.4 0 0.5-0.1c0.1 0 0.3 0 0.4 0 0 0 0 0-0.1-0.1 0.4 0.4 0.2 0.2 0 0l-0.6-0.6c-0.2-0.2-0.4-0.4-0.6-0.5 0 0-0.1 0-0.1 0-0.1 0-0.1 0-0.2 0-0.6 0.1-1.2 0.3-1.8 0.6-0.4 0.2-0.8 0.5-1.1 0.8-0.5 0.5-0.9 1.1-1.1 1.8v0c0 0.1 0 0.1 0 0.2 0.3 0.1 0.4 0.2 0.6 0.4s0.4 0.4 0.6 0.5c0 0 0.1 0.1 0.2 0.1 0 0 0 0 0-0.1 0-0.4 0.1-0.7 0.3-1.1zM15.6 24.5c0.2-0.1 0.2-0.2 0.2-0.4v0c0-0.2-0.1-0.3-0.2-0.3l-1.4-0.4c-0.6-0.2-1.2-0.4-1.9-0.6 0 0-0.1 0-0.1 0s0 0-0.1 0v0c-0.1 0-0.2 0.1-0.2 0.3-0.1 0.2 0 0.4 0.2 0.4l0.9 0.3 2.4 0.7c0 0 0.1 0 0.1 0 0.1 0 0.1 0 0.1 0s0 0 0 0v0c0 0 0 0 0 0zM15.2 26.4c0-0.1-0.1-0.3-0.2-0.3v0c-0.2-0.1-0.4-0.1-0.6-0.2-0.9-0.3-1.8-0.6-2.7-0.8 0 0-0.1 0-0.1 0s-0.1 0-0.1 0v0c-0.1 0-0.2 0.1-0.2 0.3-0.1 0.2 0 0.4 0.2 0.4l3.1 1c0.1 0 0.2 0.1 0.3 0.1v0c0.1 0 0.1 0 0.2-0.1 0-0.1 0.1-0.2 0.1-0.4 0 0.1 0 0 0 0zM16.3 25.6c0 0 0 0 0 0 0-0.2-0.1-0.3-0.2-0.4l-4.8-1.5c0 0-0.1 0-0.1 0v0c0 0-0.1 0-0.1 0s-0.1 0-0.1 0.1c0 0 0 0-0.1 0 0 0-0.1 0-0.1 0.1s0 0.1-0.1 0.2c0 0 0 0 0 0s0 0 0 0 0 0 0 0 0 0.1 0 0.1c0 0 0 0 0 0 0 0.1 0.1 0.1 0.2 0.1 0.8 0.3 1.7 0.5 2.5 0.8l2.3 0.7c0.1 0 0.3 0 0.3-0.1 0 0 0 0 0 0s0 0 0 0c0.2 0 0.3-0.1 0.3-0.1s0 0 0 0zM21.2 16.1c0-0.2 0-0.4-0.1-0.6-0.1-0.5-0.2-0.9-0.4-1.3-0.2-0.5-0.5-0.9-0.8-1.3-0.2-0.3-0.5-0.6-0.8-0.9 0 0 0 0-0.1 0s-0.3 0-0.4 0.1l-1.2 0.2c0 0 0 0 0 0l0.2 0.2c0.4 0.4 0.8 0.8 1.1 1.3 0.4 0.6 0.7 1.3 0.7 2.1 0 0.1 0 0.2 0 0.3 0 0.3 0 0.6-0.1 0.8-0.2 0.6-0.4 1-0.8 1.4-0.3 0.4-0.8 0.7-1.2 1v0c-0.5 0.3-1 0.4-1.6 0.5-0.2 0-0.4 0.1-0.6 0.1 0 0 0 0 0 0 0.4 0.4 0.8 0.8 1.3 1.1 0 0 0 0 0.1 0 0.3-0.1 0.5-0.1 0.8-0.2 0.7-0.2 1.2-0.5 1.7-0.8s0.9-0.7 1.2-1.1c0.5-0.7 0.8-1.6 0.9-2.5 0.1-0.1 0.1-0.3 0.1-0.4zM13.5 14.9c-0.2 0-0.3 0.2-0.3 0.4 0 0.1 0.1 0.3 0.2 0.3 0.4 0.1 0.9 0.3 1.3 0.4l3.5 1.1c0 0 0.1 0 0.1 0 0.2 0 0.3-0.2 0.3-0.4 0 0 0 0 0 0 0-0.2-0.1-0.3-0.2-0.3v0c-0.3-0.1-0.7-0.2-1.1-0.3l-2.6-0.8c-0.4-0.1-0.7-0.2-1.1-0.4 0.1 0 0 0-0.1 0 0.1 0 0 0 0 0v0zM14.6 14c-0.2 0-0.3 0.2-0.3 0.4v0c0 0.2 0.1 0.3 0.2 0.3l3.1 1c0.1 0 0.2 0.1 0.3 0.1 0.2 0 0.3-0.1 0.4-0.3 0 0 0 0 0-0.1 0-0.2-0.1-0.3-0.2-0.3v0l-1.8-0.6c-0.5-0.2-1-0.3-1.5-0.5 0 0-0.1 0-0.2 0 0 0 0 0 0 0v0zM13.7 16.8c0 0.1 0.1 0.2 0.3 0.3 0.7 0.2 1.4 0.4 2.1 0.7 0.4 0.1 0.8 0.2 1.2 0.4 0 0 0.1 0 0.2 0 0.2 0 0.2-0.1 0.3-0.3 0-0.2 0-0.4-0.2-0.4l-0.3-0.1c-1-0.3-2-0.6-3-0.9 0 0-0.1 0-0.2 0v0c0 0-0.1 0-0.2 0.1-0.2-0.2-0.2 0-0.2 0.2zM23.5 8.4c0 0 0-0.1 0 0-0.2-0.2-0.3-0.4-0.5-0.5-0.2-0.2-0.4-0.4-0.6-0.5-0.1-0.1-0.2-0.1-0.2-0.2v0c0 0.1 0 0.2 0 0.3-0.1 0.4-0.1 0.7-0.3 1.1s-0.4 0.7-0.7 1c-0.3 0.3-0.7 0.5-1.2 0.7v0c-0.5 0.2-1 0.2-1.5 0.3-0.6 0.1-1.2 0.1-1.8 0.2-0.5 0.1-1.1 0.2-1.6 0.3-0.7 0.2-1.3 0.4-1.9 0.7s-1.1 0.8-1.5 1.3c-0.3 0.4-0.5 0.9-0.6 1.4-0.1 0.4-0.2 0.8-0.2 1.3s0.1 1 0.2 1.4c0.2 0.6 0.5 1.1 0.8 1.6s0.6 0.9 1 1.3c0.6 0.7 1.3 1.3 2 1.9 0.4 0.3 0.8 0.7 1.2 1.1 0.3 0.3 0.5 0.6 0.7 0.9 0.3 0.5 0.4 1.1 0.3 1.7 0 0.4-0.1 0.7-0.2 1 0 0.1-0.1 0.3-0.2 0.4 0 0 0 0 0 0s0 0 0 0c0.1 0 0.1 0 0.2 0 0.2 0 0.4 0 0.5-0.1 0.2 0 0.5-0.1 0.7-0.1s0.2 0 0.2-0.2c0.1-0.3 0.1-0.6 0.1-1 0-0.1 0-0.2 0-0.3 0-0.3-0.1-0.6-0.2-0.9-0.2-0.5-0.4-1-0.6-1.4-0.2-0.3-0.4-0.5-0.5-0.7-0.4-0.5-0.8-0.8-1.2-1.2-0.3-0.3-0.7-0.6-1-0.9-0.5-0.4-0.9-0.9-1.3-1.4-0.7-0.8-1-1.8-1-2.9 0-0.6 0.1-1.1 0.4-1.6 0.4-0.8 1-1.3 1.8-1.6 0.7-0.3 1.4-0.5 2.1-0.6 0.5-0.1 1-0.1 1.5-0.2 0.4-0.1 0.8-0.1 1.1-0.2 0.6-0.1 1.1-0.2 1.6-0.5 0.2-0.1 0.3-0.2 0.5-0.3 0.4-0.2 0.7-0.5 1-0.8 0.4-0.6 0.7-1.2 0.9-1.8v0zM16.1 9.2c0 0 0 0 0 0s0 0 0 0v0zM16.9 26.5c0 0-0.1 0 0 0-0.1 0.1-0.1 0.1 0 0v0zM14.9 6.3c0 0 0 0 0 0s0 0 0 0v0z"></path>
</svg>
