<!-- Generated by IcoMoon.io -->
<svg version="1.1" xmlns="http://www.w3.org/2000/svg" width="32" height="32" viewBox="0 0 32 32">
<title>fldc</title>
<path fill="#c40e09" d="M16 32c-8.837 0-16-7.163-16-16s7.163-16 16-16 16 7.163 16 16-7.163 16-16 16zM22.2 7.14c-0.010 0.101-0.015 0.185-0.026 0.267-0.051 0.369-0.12 0.733-0.264 1.078-0.155 0.374-0.371 0.7-0.662 0.972-0.325 0.3-0.719 0.531-1.156 0.666l-0.021 0.006c-0.48 0.152-0.976 0.22-1.473 0.277-0.61 0.069-1.221 0.131-1.83 0.205-0.542 0.066-1.079 0.166-1.61 0.3-0.658 0.165-1.298 0.385-1.898 0.72-0.595 0.33-1.114 0.757-1.516 1.33-0.304 0.433-0.501 0.916-0.647 1.43-0.119 0.395-0.188 0.848-0.188 1.318 0 0.5 0.078 0.982 0.222 1.434l-0.009-0.033c0.197 0.612 0.457 1.144 0.783 1.629l-0.015-0.023c0.3 0.465 0.642 0.895 1.012 1.302 0.612 0.672 1.282 1.275 1.975 1.852 0.415 0.345 0.83 0.691 1.205 1.086 0.27 0.284 0.513 0.59 0.694 0.946 0.266 0.524 0.366 1.080 0.303 1.672-0.042 0.356-0.121 0.68-0.236 0.987l0.010-0.029c-0.050 0.144-0.11 0.285-0.165 0.428-0.005 0.012-0.003 0.026-0.004 0.040 0.012 0 0.025 0.002 0.037 0 0.063-0.004 0.126-0.007 0.188-0.015 0.178-0.020 0.356-0.037 0.533-0.065 0.242-0.038 0.483-0.084 0.724-0.129 0.171-0.031 0.173-0.034 0.216-0.207 0.079-0.299 0.125-0.642 0.125-0.997 0-0.104-0.004-0.207-0.012-0.309l0.001 0.014c-0.023-0.315-0.077-0.607-0.158-0.888l0.008 0.031c-0.16-0.547-0.379-1.024-0.657-1.461l0.013 0.023c-0.184-0.285-0.362-0.528-0.553-0.761l0.011 0.014c-0.362-0.455-0.786-0.844-1.21-1.233-0.33-0.304-0.669-0.598-1.001-0.9-0.48-0.437-0.936-0.899-1.336-1.419-0.654-0.85-1.033-1.808-1.042-2.915-0.005-0.578 0.109-1.123 0.39-1.623 0.422-0.75 1.043-1.256 1.79-1.603 0.677-0.315 1.393-0.481 2.122-0.587 0.495-0.072 0.992-0.127 1.488-0.195 0.377-0.052 0.756-0.103 1.13-0.172 0.551-0.102 1.091-0.246 1.598-0.503 0.159-0.080 0.318-0.16 0.473-0.25 0.356-0.205 0.681-0.456 0.971-0.755 0.45-0.466 0.785-1.045 0.96-1.69l0.006-0.027c0.004-0.016-0.006-0.044-0.018-0.056-0.147-0.153-0.292-0.31-0.446-0.455-0.192-0.181-0.39-0.356-0.589-0.53-0.075-0.067-0.156-0.125-0.245-0.196zM15.14 19.966c0.014 0.016 0.020 0.025 0.028 0.031 0.425 0.382 0.85 0.765 1.277 1.145 0.016 0.015 0.050 0.021 0.070 0.015 0.266-0.074 0.532-0.146 0.795-0.23 0.661-0.21 1.236-0.49 1.76-0.84l-0.025 0.016c0.461-0.309 0.87-0.68 1.202-1.139 0.535-0.738 0.806-1.583 0.902-2.496 0.010-0.103 0.015-0.222 0.015-0.343 0-0.223-0.019-0.442-0.056-0.655l0.003 0.023c-0.079-0.493-0.221-0.935-0.42-1.345l0.012 0.028c-0.22-0.47-0.49-0.906-0.81-1.304-0.246-0.307-0.508-0.599-0.764-0.897-0.014-0.015-0.038-0.034-0.055-0.032-0.144 0.019-0.288 0.043-0.432 0.065l-1.202 0.183c0.014 0.020 0.022 0.030 0.032 0.040l0.215 0.21c0.397 0.396 0.767 0.817 1.080 1.289 0.413 0.622 0.672 1.308 0.733 2.066 0.007 0.078 0.011 0.168 0.011 0.259 0 0.293-0.040 0.576-0.116 0.845l0.005-0.022c-0.153 0.556-0.447 1.025-0.808 1.45-0.349 0.409-0.771 0.745-1.247 0.99l-0.023 0.011c-0.492 0.252-1.017 0.394-1.55 0.512-0.206 0.045-0.414 0.082-0.632 0.125zM17.256 10.268c-0.023-0.023-0.035-0.036-0.050-0.048-0.411-0.334-0.779-0.663-1.13-1.010l0.002 0.002c-0.341-0.334-0.63-0.72-0.853-1.145l-0.012-0.025c-0.192-0.374-0.304-0.817-0.304-1.285 0-0.153 0.012-0.304 0.035-0.451l-0.002 0.016c0.062-0.437 0.206-0.846 0.391-1.24l0.037-0.082-0.18 0.018c-0.223 0.026-0.446 0.044-0.667 0.080-0.267 0.043-0.532 0.103-0.8 0.15-0.047 0.007-0.059 0.028-0.070 0.068-0.105 0.339-0.165 0.729-0.165 1.133 0 0.257 0.024 0.508 0.071 0.752l-0.004-0.025c0.129 0.725 0.433 1.37 0.824 1.974 0.115 0.176 0.246 0.342 0.377 0.507 0.238 0.3 0.502 0.576 0.781 0.835 0.021 0.020 0.060 0.030 0.088 0.028 0.087-0.009 0.173-0.025 0.259-0.039l0.73-0.114 0.643-0.099zM14.082 21.556c-0.025-0.026-0.040-0.040-0.055-0.054 0.398 0.361 0.19 0.169-0.019-0.024l-0.622-0.566c-0.267-0.241-0.455-0.414-0.643-0.587l0.065 0.059c-0.031-0.030-0.060-0.041-0.104-0.030-0.070 0.020-0.144 0.028-0.216 0.043-0.62 0.134-1.225 0.313-1.791 0.622-0.423 0.224-0.788 0.485-1.113 0.787l0.003-0.003c-0.503 0.475-0.879 1.081-1.072 1.764l-0.007 0.027c-0.017 0.063-0.008 0.109 0.040 0.154 0.139 0.134 0.272 0.275 0.413 0.407 0.195 0.182 0.395 0.358 0.594 0.536 0.048 0.042 0.1 0.078 0.158 0.122 0.008-0.032 0.014-0.050 0.017-0.068 0.075-0.4 0.193-0.785 0.348-1.159 0.425-1.023 1.206-1.555 2.209-1.777 0.274-0.061 0.552-0.103 0.83-0.146 0.179-0.028 0.36-0.043 0.54-0.062 0.136-0.015 0.273-0.030 0.425-0.045zM18.409 17.178c0.176-0.006 0.31-0.151 0.338-0.373 0.002-0.012 0.002-0.027 0.002-0.041 0-0.156-0.104-0.288-0.247-0.329l-0.002-0.001c-0.35-0.11-0.702-0.218-1.053-0.327l-2.64-0.824c-0.374-0.116-0.747-0.236-1.121-0.35-0.033-0.012-0.072-0.019-0.112-0.019-0.018 0-0.035 0.001-0.052 0.004l0.002-0c-0.197 0.039-0.267 0.186-0.285 0.395-0.013 0.142 0.074 0.281 0.244 0.334 0.442 0.139 0.884 0.276 1.327 0.414l3.451 1.080c0.049 0.014 0.099 0.025 0.148 0.037zM11.119 23.674c-0.030 0.005-0.056 0.006-0.080 0.013-0.176 0.045-0.25 0.196-0.265 0.395-0.011 0.15 0.091 0.28 0.245 0.329l0.827 0.257c1.324 0.414 2.648 0.828 3.973 1.24 0.040 0.014 0.085 0.023 0.133 0.023 0.008 0 0.016-0 0.024-0.001l-0.001 0c0.171-0.015 0.285-0.16 0.304-0.378 0.015-0.162-0.083-0.3-0.248-0.352l-4.805-1.5c-0.037-0.011-0.075-0.018-0.106-0.026zM21.249 7.91c0-0.203-0.090-0.321-0.25-0.37-1.605-0.502-3.21-1.004-4.816-1.504-0.033-0.012-0.071-0.019-0.11-0.019-0.008 0-0.015 0-0.023 0.001l0.001-0c-0.236 0.027-0.319 0.268-0.3 0.448 0.015 0.16 0.12 0.243 0.261 0.287 0.83 0.257 1.659 0.516 2.488 0.775l2.317 0.724c0.141 0.044 0.285-0.003 0.354-0.129 0.043-0.077 0.063-0.169 0.078-0.213zM14.334 14.373c0 0.16 0.086 0.28 0.243 0.329l3.1 0.968c0.094 0.030 0.187 0.067 0.282 0.078 0.186 0.021 0.323-0.119 0.36-0.35 0.003-0.017 0.005-0.037 0.005-0.056 0-0.155-0.104-0.286-0.246-0.327l-0.002-0.001-1.832-0.571c-0.485-0.152-0.97-0.305-1.456-0.453-0.036-0.012-0.077-0.018-0.12-0.018-0.025 0-0.050 0.002-0.073 0.007l0.002-0c-0.162 0.032-0.251 0.188-0.262 0.395zM14.002 16.263c-0.050 0.023-0.117 0.037-0.166 0.076-0.13 0.103-0.171 0.252-0.146 0.413 0.022 0.145 0.122 0.224 0.254 0.265 0.712 0.22 1.424 0.443 2.136 0.665 0.384 0.12 0.767 0.24 1.151 0.358 0.050 0.015 0.106 0.022 0.156 0.013 0.16-0.027 0.234-0.146 0.271-0.301 0.048-0.196-0.042-0.369-0.226-0.428l-0.252-0.077c-1.006-0.315-2.013-0.63-3.020-0.943-0.046-0.015-0.094-0.024-0.158-0.040zM11.219 25.45c-0 0.002-0 0.003-0 0.005 0 0.145 0.093 0.268 0.223 0.312l0.002 0.001c0.092 0.030 0.184 0.057 0.275 0.086l3.107 0.97c0.012 0.003 0.027 0.005 0.041 0.005 0.017 0 0.034-0.002 0.050-0.007l-0.001 0c0.158-0.036 0.239-0.148 0.277-0.307 0.045-0.19-0.042-0.365-0.22-0.421 11.351 3.098 10.244 2.744 9.136 2.391l-12.46-3.428c-0.029-0.009-0.061-0.015-0.095-0.015-0.011 0-0.022 0.001-0.033 0.002l0.001-0c-0.195 0.021-0.289 0.19-0.303 0.406zM12.216 22.73c-0.033 0.005-0.056 0.005-0.078 0.010-0.172 0.046-0.252 0.18-0.268 0.386-0.013 0.158 0.080 0.285 0.234 0.335 0.21 0.068 0.422 0.132 0.633 0.198 0.885 0.276 1.77 0.554 2.654 0.829 0.039 0.014 0.085 0.022 0.132 0.022 0.013 0 0.025-0.001 0.037-0.002l-0.002 0c0.168-0.020 0.278-0.167 0.295-0.381 0-0.006 0.001-0.014 0.001-0.022 0-0.154-0.104-0.285-0.246-0.324l-0.002-0.001c45.877 12.64 44.784 12.29 43.69 11.941l-46.971-12.965c-0.040-0.012-0.080-0.020-0.11-0.027zM19.838 9.168c0.053-0.018 0.105-0.028 0.151-0.052 0.127-0.066 0.164-0.193 0.181-0.325 0.002-0.014 0.003-0.030 0.003-0.046 0-0.146-0.095-0.27-0.227-0.314l-0.002-0.001c-0.195-0.060-0.39-0.123-0.584-0.183-0.91-0.284-1.821-0.569-2.733-0.85-0.030-0.009-0.065-0.015-0.102-0.015-0.028 0-0.055 0.003-0.081 0.009l0.002-0c-0.134 0.031-0.206 0.131-0.241 0.27-0.056 0.219 0.027 0.383 0.232 0.448l3.082 0.964c0.105 0.033 0.21 0.062 0.318 0.094zM20.821 6.468c0-0.18-0.090-0.301-0.245-0.35l-1.425-0.444c-0.621-0.194-1.242-0.39-1.864-0.581-0.035-0.012-0.075-0.018-0.117-0.018-0.024 0-0.048 0.002-0.072 0.007l0.002-0c-0.141 0.030-0.21 0.14-0.245 0.281-0.053 0.207 0.030 0.375 0.225 0.436l0.923 0.29 2.365 0.739c0.034 0.013 0.073 0.021 0.114 0.021 0.047 0 0.092-0.010 0.133-0.029l-0.002 0.001c0.152-0.074 0.188-0.219 0.207-0.352z"></path>
</svg>
