<!-- Generated by IcoMoon.io -->
<svg version="1.1" xmlns="http://www.w3.org/2000/svg" width="32" height="32" viewBox="0 0 32 32">
<title>fuel</title>
<path fill="#4096d0" d="M16 32c-8.837 0-16-7.163-16-16s7.163-16 16-16 16 7.163 16 16-7.163 16-16 16zM25.532 10h-6.495l-1.926 4.83h-6.074v-2.487h6.074l0.889-2.343h-9.198c-0.001 0-0.001 0-0.002 0-0.236 0-0.428 0.191-0.43 0.427v4.402h-1.48l-0.89 2.342h2.37v4.397c0 0.238 0.196 0.432 0.438 0.432h4.451l0.889-2.341h-3.111v-2.489h5.037l-1.926 4.83h2.963l2.074-4.83h6.38c0.24 0 0.435-0.192 0.435-0.429v-6.28c-0.002-0.255-0.21-0.461-0.465-0.461-0.001 0-0.002 0-0.003 0h0zM23.482 14.46c0 0.204-0.167 0.37-0.374 0.37h-3.034l1.037-2.486h1.995c0.001 0 0.003-0 0.004-0 0.204 0 0.37 0.164 0.373 0.368v0z"></path>
</svg>
