<!-- Generated by IcoMoon.io -->
<svg version="1.1" xmlns="http://www.w3.org/2000/svg" width="32" height="32" viewBox="0 0 32 32">
<title>gnt</title>
<path fill="#001d57" d="M16 32c-8.837 0-16-7.163-16-16s7.163-16 16-16 16 7.163 16 16-7.163 16-16 16zM20.499 5.288l-2.272 2.334c-0.669-0.468-1.499-0.748-2.395-0.749h-0c-0.001 0-0.002 0-0.003 0-1.204 0-2.291 0.499-3.066 1.302l-0.001 0.001c-0.781 0.804-1.262 1.903-1.262 3.114 0 0.007 0 0.014 0 0.021v-0.001c0 1.18 0.448 2.298 1.262 3.135 0.582 0.603 1.337 1.035 2.185 1.215l0.028 0.005v2.040c-0.88 0.18-1.638 0.615-2.215 1.223l-0.002 0.002c-0.778 0.804-1.258 1.9-1.258 3.109 0 0.008 0 0.016 0 0.024v-0.001c0 1.18 0.448 2.298 1.262 3.135 0.773 0.803 1.857 1.302 3.057 1.302 0.005 0 0.009 0 0.014-0h-0.001c0.001 0 0.002 0 0.004 0 1.203 0 2.29-0.499 3.065-1.301l0.001-0.001c0.78-0.801 1.261-1.896 1.261-3.104 0-0.011-0-0.022-0-0.032v0.002c0-0.009 0-0.019 0-0.030 0-1.208-0.481-2.304-1.263-3.106l0.001 0.001c-0.581-0.603-1.337-1.035-2.185-1.216l-0.028-0.005v-2.040c0.88-0.18 1.638-0.615 2.215-1.223l0.002-0.002c0.778-0.8 1.258-1.894 1.258-3.1 0-0.011-0-0.022-0-0.033v0.002c0-0.888-0.259-1.748-0.738-2.478l2.277-2.34-1.202-1.205zM15.832 19.345c0.711 0 1.367 0.277 1.853 0.787 0.503 0.529 0.778 1.206 0.778 1.93 0 0.73-0.277 1.417-0.775 1.928-0.462 0.487-1.114 0.79-1.837 0.79-0.007 0-0.014-0-0.020-0h0.001c-0.7 0-1.362-0.282-1.857-0.79-0.48-0.497-0.775-1.175-0.775-1.922 0-0.002 0-0.003 0-0.005v0c0-0.73 0.278-1.417 0.775-1.927 0.462-0.488 1.114-0.791 1.838-0.791 0.007 0 0.014 0 0.020 0h-0.001zM17.685 13.255c-0.461 0.485-1.112 0.787-1.833 0.787-0.007 0-0.014-0-0.021-0h0.001c-0.7 0-1.362-0.283-1.857-0.791-0.48-0.497-0.775-1.175-0.775-1.922 0-0.002 0-0.003 0-0.005v0c0-0.73 0.278-1.417 0.775-1.928 0.462-0.487 1.114-0.79 1.837-0.79 0.007 0 0.014 0 0.021 0h-0.001c0.7 0 1.362 0.282 1.856 0.79 0.479 0.487 0.775 1.156 0.775 1.893 0 0.012-0 0.024-0 0.036l0-0.002c0 0.73-0.277 1.416-0.778 1.93z"></path>
</svg>
