<!-- Generated by IcoMoon.io -->
<svg version="1.1" xmlns="http://www.w3.org/2000/svg" width="32" height="32" viewBox="0 0 32 32">
<title>grt</title>
<path fill="#6747ed" d="M16 0c-8.8 0-16 7.2-16 16s7.2 16 16 16 16-7.2 16-16-7.2-16-16-16zM21.9 21.9l-4.3 4.3c-0.4 0.4-1.1 0.4-1.5 0s-0.4-1.1 0-1.5l4.3-4.3c0.4-0.4 1.1-0.4 1.5 0s0.4 1.1 0 1.5zM15.8 20.1c-3.5 0-6.4-2.8-6.4-6.4 0-3.5 2.9-6.4 6.4-6.4s6.4 2.9 6.4 6.4-2.9 6.4-6.4 6.4zM23.3 9.4c-0.6 0-1.1-0.5-1.1-1.1s0.5-1.1 1.1-1.1c0.6 0 1.1 0.5 1.1 1.1-0.1 0.7-0.6 1.1-1.1 1.1zM20.1 13.7c0 2.4-1.9 4.3-4.3 4.3s-4.3-1.9-4.3-4.3 1.9-4.3 4.3-4.3 4.3 1.9 4.3 4.3z"></path>
</svg>
