<!-- Generated by IcoMoon.io -->
<svg version="1.1" xmlns="http://www.w3.org/2000/svg" width="32" height="32" viewBox="0 0 32 32">
<title>gvt</title>
<path fill="#16b9ad" d="M16 32c-8.837 0-16-7.163-16-16s7.163-16 16-16 16 7.163 16 16-7.163 16-16 16zM26 13.193c0-0.399-0.024-0.797-0.074-1.193h-16.152c-0.074 0.358-0.117 0.769-0.117 1.19 0 0.001 0 0.002 0 0.003v-0c0 3.427 2.845 6.217 6.34 6.217 2.718-0.003 5.132-1.7 6.007-4.221h-1.924c-0.891 1.756-2.847 2.738-4.822 2.42-1.974-0.319-3.506-1.863-3.777-3.807h12.721c-0.317 4.163-3.873 7.455-8.199 7.455-4.533 0-8.221-3.617-8.221-8.062 0-0.399 0.030-0.798 0.090-1.193h-1.798c-0.050 0.396-0.074 0.795-0.074 1.193 0 5.406 4.487 9.805 10 9.805s10-4.4 10-9.807z"></path>
</svg>
