<!-- Generated by IcoMoon.io -->
<svg version="1.1" xmlns="http://www.w3.org/2000/svg" width="32" height="32" viewBox="0 0 32 32">
<title>gxs</title>
<path fill="#35a5f3" d="M16 32c-8.837 0-16-7.163-16-16s7.163-16 16-16 16 7.163 16 16-7.163 16-16 16zM7.020 7.027h0.001c-1.327 1.27-1.368 3.602-0.070 4.91 2.488 2.533 5.028 5.020 7.528 7.542-1.147 1.168-2.31 2.315-3.458 3.483-0.432 0.416-0.89 0.967-1.556 0.908-1.097 0.018-1.785-1.473-1.004-2.274 1.158-1.232 2.395-2.394 3.57-3.608-0.502-0.5-1.004-1.005-1.506-1.505-1.214 1.188-2.376 2.35-3.525 3.526l-0.040 0.041c-1.251 1.258-1.28 3.471-0.081 4.77 1.19 1.407 3.52 1.59 4.903 0.364 1.443-1.36 2.805-2.802 4.233-4.176 1.338 1.328 2.656 2.682 4.003 4.004 1.295 1.316 3.62 1.313 4.918 0.003 1.318-1.226 1.435-3.498 0.218-4.831-1.356-1.427-2.781-2.781-4.149-4.19 1.339-1.34 2.683-2.67 4.010-4.022 1.289-1.264 1.31-3.535 0.067-4.837-1.211-1.38-3.53-1.529-4.895-0.297-1.434 1.351-2.77 2.799-4.198 4.156-1.352-1.375-2.677-2.697-4.016-4.006l-0.052-0.051c-1.312-1.29-3.631-1.237-4.9 0.090zM8.473 10.417c-0.61-0.617-0.37-1.753 0.394-2.123 0.549-0.326 1.269-0.157 1.69 0.297 1.32 1.296 2.619 2.618 3.922 3.931-0.658 0.65-1.312 1.305-1.962 1.963-1.347-1.357-2.72-2.688-4.044-4.068zM21.413 8.627h-0.001c0.403-0.455 1.086-0.659 1.646-0.37 0.834 0.343 1.095 1.558 0.442 2.192-1.295 1.384-2.689 2.67-4.004 4.034-0.511-0.49-1.010-0.988-1.51-1.486-0.498 0.505-0.999 1.008-1.5 1.509 2.193 2.202 4.392 4.4 6.595 6.593 0.468 0.434 0.964 1.030 0.746 1.72-0.203 0.976-1.567 1.425-2.27 0.685-1.385-1.305-2.7-2.679-4.040-4.027 0.498-0.495 0.992-0.99 1.483-1.491-0.506-0.498-1.005-1.002-1.507-1.503-0.497 0.498-0.993 0.996-1.492 1.488-0.65-0.659-1.296-1.298-1.95-1.929l-0.033-0.031c2.473-2.452 4.909-4.945 7.394-7.385z"></path>
</svg>
