<!-- Generated by IcoMoon.io -->
<svg version="1.1" xmlns="http://www.w3.org/2000/svg" width="32" height="32" viewBox="0 0 32 32">
<title>hnt</title>
<path d="M16 0c8.8 0 16 7.2 16 16s-7.2 16-16 16-16-7.2-16-16 7.2-16 16-16zM19.4 7.5c-0.5 0.5-0.9 1.2-1 1.8-2.6-1-5.5-0.4-7.5 1.6s-2.6 4.9-1.6 7.5c-0.7 0.1-1.3 0.5-1.9 1-1.4 1.4-1.4 3.7 0 5.1s3.7 1.4 5.1 0c0.5-0.5 0.9-1.2 1-1.9 0.8 0.3 1.6 0.4 2.4 0.4 1.8 0 3.6-0.7 5-2.1 2-2 2.6-4.9 1.6-7.4 0.7-0.1 1.3-0.5 1.9-1 1.4-1.4 1.4-3.7 0-5.1-1.3-1.3-3.6-1.3-5 0.1zM23.6 8.3c0.9 0.9 0.9 2.4 0 3.4-0.5 0.5-1.3 0.8-2 0.7h-0.1c-0.2 0-0.5 0-0.7 0.1-0.3 0.1-0.5 0.4-0.6 0.7s-0.1 0.6 0 0.9c0.8 1.7 0.4 3.8-0.9 5.2-1.4 1.4-3.4 1.7-5.2 0.9-0.3-0.1-0.6-0.1-0.9 0s-0.5 0.3-0.7 0.6c-0.1 0.2-0.1 0.4-0.1 0.6v0.1c0.1 0.8-0.1 1.5-0.7 2.1-0.9 0.9-2.4 0.9-3.4 0-0.5-0.5-0.7-1.1-0.7-1.7s0.2-1.2 0.7-1.7 1.3-0.8 2.1-0.7c0.1 0 0.2 0 0.2 0 0.2 0 0.3 0 0.5-0.1 0.3-0.1 0.5-0.4 0.6-0.7s0.1-0.6 0-1c-0.8-1.7-0.4-3.8 0.9-5.2 1.4-1.4 3.4-1.7 5.2-0.9 0.3 0.1 0.6 0.1 0.9 0s0.6-0.3 0.7-0.6c0.1-0.2 0.1-0.5 0.1-0.7-0.1-0.8 0.1-1.5 0.7-2.1 1-0.8 2.5-0.8 3.4 0.1zM14.1 14.1c-1 1-1 2.7 0 3.7s2.7 1 3.7 0 1-2.7 0-3.7c-0.9-1-2.6-1-3.7 0z"></path>
</svg>
