<!-- Generated by IcoMoon.io -->
<svg version="1.1" xmlns="http://www.w3.org/2000/svg" width="32" height="32" viewBox="0 0 32 32">
<title>hpb</title>
<path fill="#0bf9ff" d="M16 0c-8.8 0-16 7.2-16 16s7.2 16 16 16 16-7.2 16-16-7.2-16-16-16zM22.9 7c1.2 0.5 2.4 1.1 3.5 1.9 0.5 0.4 0.9 0.8 1.1 1.4 0.2 0.5 0.3 1 0.2 1.6-0.2 2.1-1 3.8-2.4 5.3-1.5 1.7-3.4 2.7-5.6 3-0.7 0.1-1.4 0.2-2.1 0.1 0 0-0.1 0-0.2 0 0.3-0.1 0.5-0.2 0.8-0.4 2.5-1.4 4-3.4 4.7-6.2 0.2-0.8 0.3-1.5 0.3-2.3 0-1.1-0.2-2.2-0.6-3.3-0.1-0.4-0.3-0.8-0.4-1.2 0 0 0-0.1 0-0.1 0.3 0 0.5 0.1 0.7 0.2zM12.7 4.9c0.8-0.6 1.7-1.1 2.7-1.5 1.1-0.5 2.2-0.3 3.2 0.4 1.1 0.8 2 1.8 2.6 3 0.8 1.6 1.2 3.3 1.1 5.1s-0.6 3.4-1.6 4.9c0 0 0 0.1-0.1 0.1 0-0.3 0.1-0.6 0.1-0.9 0.1-1-0.1-2.1-0.4-3.1-0.5-1.5-1.3-2.8-2.4-4-1.3-1.3-2.9-2.1-4.6-2.6-0.7-0.1-1.3-0.2-1.9-0.3 0 0-0.1 0-0.1 0s0 0 0 0c0.5-0.4 0.9-0.8 1.4-1.1zM4.8 9.8c0.3-0.8 0.8-1.4 1.6-1.8 0.7-0.5 1.6-0.7 2.5-0.8 2-0.3 3.9 0 5.7 1 2 1 3.4 2.5 4.4 4.4 0 0 0 0 0 0.1-0.3-0.2-0.7-0.5-1-0.7-1.1-0.7-2.3-1.1-3.6-1.2-1.8-0.2-3.6 0.1-5.2 0.9-1.2 0.5-2.2 1.3-3.1 2.2-0.4 0.4-0.7 0.8-1.1 1.2 0 0 0 0.1-0.1 0.1 0 0 0 0 0 0 0-0.2-0.1-0.5-0.1-0.7-0.1-0.8-0.2-1.7-0.2-2.5s0-1.5 0.2-2.2zM9.7 25.2c-0.4-0.2-0.8-0.3-1.2-0.5-1.1-0.5-2-1-3-1.7-0.5-0.4-1-0.9-1.2-1.5-0.2-0.5-0.2-1-0.1-1.5 0.2-2 1-3.6 2.4-5.1 1.5-1.7 3.4-2.7 5.6-3.1 0.8-0.1 1.6-0.2 2.4-0.1-0.2 0.1-0.4 0.2-0.5 0.2-2.4 1.2-4 3-4.8 5.5-0.6 1.8-0.7 3.7-0.2 5.6 0.2 0.7 0.4 1.4 0.6 2 0 0 0 0.1 0 0.2 0-0.1 0-0.1 0 0zM20.6 26.1c-1.1 1-2.4 1.8-3.8 2.4-0.5 0.2-1 0.4-1.6 0.3-0.6 0-1.1-0.3-1.6-0.6-1.2-0.8-2.1-1.8-2.8-3.1-0.8-1.6-1.2-3.2-1.2-5 0.1-1.8 0.6-3.4 1.6-5 0 0 0 0 0 0s0 0 0 0c0 0.2 0 0.5-0.1 0.7 0.1 1.2 0.3 2.2 0.6 3.2 0.8 2.6 2.5 4.4 4.8 5.6 1 0.5 2.1 0.8 3.2 1.1 0.3 0.1 0.7 0.1 1 0.2 0 0.1 0 0.2-0.1 0.2zM27.2 22.1c-0.2 1-0.8 1.6-1.7 2-1.2 0.6-2.5 0.9-3.8 0.8-1.8 0-3.5-0.5-5.1-1.5s-2.8-2.3-3.6-4c0 0 0 0 0-0.1 0.5 0.4 1 0.7 1.6 1 1.6 0.8 3.2 1.1 4.9 0.9 2.2-0.2 4.2-1.1 5.8-2.6 0.6-0.5 1.1-1.2 1.7-1.7 0 0 0.1-0.1 0.1-0.1 0 0.2 0.1 0.4 0.1 0.6 0.1 0.9 0.2 1.8 0.2 2.8 0 0.7 0 1.3-0.2 1.9z"></path>
</svg>
