<!-- Generated by IcoMoon.io -->
<svg version="1.1" xmlns="http://www.w3.org/2000/svg" width="32" height="32" viewBox="0 0 32 32">
<title>icp</title>
<path fill="#29abe2" d="M14.4 16.1c-0.5 0.6-1.1 1.4-1.9 2.1-1.4 1.3-2.3 1.6-2.9 1.6-2 0-3.6-1.7-3.6-3.7s1.6-3.7 3.6-3.7c0.1 0 0.1 0 0.2 0 1.2 0.5 2.3 1.3 2.5 1.6 1.1 0.9 2.1 2.1 2.1 2.1zM32 16c0 8.8-7.2 16-16 16s-16-7.2-16-16 7.2-16 16-16 16 7.2 16 16zM28 17.8c0.1-0.2 0.1-0.3 0.1-0.4 0.1-0.5 0.2-0.9 0.2-1.4 0-3.4-2.7-6.2-6-6.2-1.4 0-2.9 0.7-4.5 2.2-0.7 0.7-1.4 1.4-1.9 2-1.7-2-4-4.3-6.3-4.3-2.6 0.1-4.8 2-5.6 4.4-0.1 0.2-0.1 0.4-0.2 0.4-0.1 0.5-0.1 1-0.1 1.5 0 3.4 2.7 6.2 6 6.2 1.4 0 2.9-0.7 4.5-2.2 0.7-0.7 1.4-1.4 1.9-2 0 0 0 0 0 0 1.7 2 4 4.3 6.3 4.3 2.6-0.2 4.9-2 5.6-4.5zM22.3 19.7c2 0 3.6-1.7 3.6-3.7 0-2.1-1.6-3.7-3.6-3.7-0.5 0-1.4 0.3-2.9 1.6-0.8 0.7-1.4 1.5-1.9 2.1 0 0 0 0 0 0s1 1.1 2 2.1c0.3 0.3 1.4 1.1 2.6 1.6 0.2 0 0.2 0 0.2 0z"></path>
</svg>
