<!-- Generated by IcoMoon.io -->
<svg version="1.1" xmlns="http://www.w3.org/2000/svg" width="32" height="32" viewBox="0 0 32 32">
<title>ignis</title>
<path fill="#f9c011" d="M16 32c-8.837 0-16-7.163-16-16s7.163-16 16-16 16 7.163 16 16-7.163 16-16 16zM14.812 6c-1.004 2.89-2.2 5.715-3.247 8.59 0.727 1.298 1.417 2.615 2.153 3.906l5.545-9.671c-1.505-0.91-2.933-1.937-4.451-2.825zM10 26c1.595-0.034 3.188-0.014 4.783-0.014 2.387-4.241 4.811-8.463 7.217-12.696 3.324 6.308 2.496 4.88 1.671 3.451l-4.167-7.821c-3.104 5.725-6.365 11.371-9.504 17.080zM15.082 25.977c2.12-1.249 4.239-2.5 6.345-3.775-0.797-1.032-1.612-2.053-2.415-3.080-1.347 2.264-2.6 4.58-3.93 6.855z"></path>
</svg>
