<!-- Generated by IcoMoon.io -->
<svg version="1.1" xmlns="http://www.w3.org/2000/svg" width="32" height="32" viewBox="0 0 32 32">
<title>ilk</title>
<path fill="#98c23a" d="M16 32c-8.837 0-16-7.163-16-16s7.163-16 16-16 16 7.163 16 16-7.163 16-16 16zM15.79 4c-6.511 0-11.79 5.279-11.79 11.79s5.279 11.79 11.79 11.79c6.511 0 11.79-5.279 11.79-11.79-0.011-6.507-5.283-11.779-11.79-11.79zM15.79 26c-5.632 0-10.198-4.565-10.2-10.197s4.561-10.2 10.193-10.203c5.632-0.004 10.201 4.558 10.207 10.19-0.006 5.631-4.569 10.194-10.2 10.2v0.010zM10.58 14.74v-3.7h2.6v3.7h1.88v-4.16c0.011-0.055 0.017-0.119 0.017-0.184 0-0.552-0.448-1-1-1-0.059 0-0.117 0.005-0.173 0.015l0.006-0.001h-4.12c-0.74 0-1.11 0.39-1.11 1.17v4.16h1.9zM13.18 15.96l0.010-0.020h-4.5v5c-0.011 0.056-0.018 0.121-0.018 0.187 0 0.552 0.448 1 1 1 0.041 0 0.082-0.003 0.122-0.007l-0.005 0h4.14c0.050 0.009 0.107 0.014 0.165 0.014 0.552 0 1-0.448 1-1 0-0.061-0.006-0.122-0.016-0.18l0.001 0.006v-5h-1.9zM20.98 16.030h-2.58v-4.9h2.5v2.54h2v-3c0.012-0.058 0.019-0.126 0.019-0.194 0-0.552-0.448-1-1-1-0.078 0-0.153 0.009-0.226 0.026l0.007-0.001h-4.1c-0.056-0.011-0.121-0.018-0.188-0.018-0.552 0-1 0.448-1 1 0 0.066 0.006 0.131 0.019 0.194l-0.001-0.006v10.36c-0.009 0.052-0.015 0.111-0.015 0.172 0 0.552 0.448 1 1 1 0.055 0 0.108-0.004 0.161-0.013l-0.006 0.001h4.17c0.053 0.010 0.113 0.016 0.176 0.016 0.552 0 1-0.448 1-1 0-0.062-0.006-0.123-0.016-0.182l0.001 0.006v-5h-1.92z"></path>
</svg>
