<!-- Generated by IcoMoon.io -->
<svg version="1.1" xmlns="http://www.w3.org/2000/svg" width="32" height="32" viewBox="0 0 32 32">
<title>imx</title>
<path fill="#17b5cb" d="M16 0c-8.8 0-16 7.2-16 16s7.2 16 16 16 16-7.2 16-16-7.2-16-16-16zM17.4 10.7l0.7-0.8 2.5-2.9h2.3l-4.8 5.6c0 0-0.5-0.6-0.7-0.8-0.3-0.4-0.3-0.8 0-1.1zM11.4 7c0 0 4 4.8 5.4 6.3 0.2 0.2 0.2 0.5 0 0.8-0.8 0.8-0.8 0.8-0.8 0.8l-6.9-7.9h2.3zM14.6 21.3l-0.7 0.8-2.5 2.9h-2.2l4.8-5.6c0 0 0.5 0.6 0.7 0.8 0.2 0.4 0.2 0.9-0.1 1.1zM14.7 16.4c-1.9 2.3-7.4 8.6-7.4 8.6h-2.4l7.4-8.6c0.2-0.3 0.2-0.7 0-1l-7.3-8.4h2.3l7.4 8.6c0.2 0.2 0.2 0.6 0 0.8zM20.6 25.1l-5-5.9-0.3-0.3c-0.2-0.3-0.2-0.7 0-1l9.4-10.9h2.3l-9.5 10.8c-0.2 0.3-0.3 0.7 0 1l5.5 6.3h-2.4zM24.9 25.1c0 0-4.1-4.7-5.4-6.3-0.2-0.2-0.2-0.4-0.2-0.7 0-0.1 0.1-0.3 0.2-0.4l0.6-0.7 6.9 8h-2.1z"></path>
</svg>
