<!-- Generated by IcoMoon.io -->
<svg version="1.1" xmlns="http://www.w3.org/2000/svg" width="32" height="32" viewBox="0 0 32 32">
<title>inch</title>
<path d="M13.5 13.3c-0.4 0.5-1.4 1-1.4 1l1.1-1.8c0 0 0.6 0.3 0.3 0.8zM10.1 11.3c0.1-0.3 0-0.5-0.1-0.6-0.3-0.1-1.8-0.7-3.4-1.2 1.3 0.9 2.8 1.8 3.1 1.9 0.2 0 0.3 0.1 0.4-0.1zM14.1 7.1c0.3-0.4 0.7-1 1.2-1.5 0.1 0.3 0.3 0.6 0.3 0.8 1.4-0.6 3.4-0.9 6.4-0.3-1.4-0.7-2.8-1-4.2-1.1-0.5 0-1 0-1.5 0.1-1.6 0.3-2.9 1.4-3.4 3 0.1 0 0.4-0.5 1.2-1zM13 5c-0.1 0-3.2 1-1.4 3.7 0 0-0.4-2.6 1.4-3.7zM10.7 10c-1.4-0.8-1.6-3-1.6-3 0 0.1-0.8 2.9 1.6 3zM32 16c0 8.8-7.2 16-16 16s-16-7.2-16-16 7.2-16 16-16 16 7.2 16 16zM27.7 17c0 0.1 0.5 0.7 0.8 1 0.8-8.5-6.1-11.2-6.1-11.2s1 0.1 2.1 0.2c-2.5-1.9-4.7-2.5-6.6-2.5-2.6 0-4.3 1-4.4 1.1l0.8-1.3c0 0-3.2-0.3-4.3 3.1-0.3-0.7-0.6-1.8-0.6-1.8s-1.7 1.4-0.9 3.9c-2-0.7-4.7-1.7-4.8-1.7-0.2-0.1-0.2 0-0.2 0s0 0.1 0 0.2c0.2 0.2 4.6 3.4 5.5 4-0.2 0.7-0.2 1 0 1.4 0.3 0.5 0.3 0.7 0.3 1.1s-0.4 3.4-0.5 3.8c-0.1 0.4-0.9 1.7-0.9 2.1 0.1 0.3 0.6 2 1.1 2.2 0.4 0.1 1.2 0.4 1.8 0.4 0.2 0 0.4-0.1 0.4 0.1 0.3-0.3 0.5-0.4 0.7-0.4 0.1 0 0.1 0 0.1 0 0.1 0 0.3 0 0.4 0 0.4 0 0.8-0.1 1.1-0.4 0.5-0.5 1.3-1.1 1.5-1.4 0.3-0.4 0.5-1 0.4-1.5s0.2-1 0.5-1.4c0.4-0.5 1.1-1.4 1.1-1.4 1.4 1.1 2.3 2.7 2.3 4.5 0 3.2-2.8 5.8-6.3 5.8-0.6 0-1.1-0.1-1.6-0.2 1.6 0.5 2.9 0.7 4 0.7 2.4 0 3.6-0.8 3.6-0.8s-0.4 0.6-1.1 1.2c3.8-0.5 5.7-3.7 5.7-3.7s-0.1 1-0.3 1.7c5.2-3.9 4.3-8.7 4.4-8.8zM24.3 14.1c0.1 0.2 2.6 4.9 0 10 0.4-0.4 0.8-0.8 1.1-1.3 1.8-2.5 1.5-5.9-0.5-8.1-0.2-0.2-0.4-0.4-0.6-0.6zM25.2 9.5c-1.5-1.6-3.7-2.3-5.9-2-0.9 0.1-1.7 0.3-2.3 0.5-0.1 0-0.2 0-0.3 0.1 0.2 0 3.2-0.2 6 1.7 2.9 1.9 4.2 4 5.2 6.5-0.1-2.7-1-4.9-2.7-6.8zM14.6 19.3c0.1 0.3 0 0.7-0.2 0.9-0.1 0.1-0.5 0.3-0.7 0.6s-0.5 0.5-0.7 0.7c-0.1 0.1-0.3 0.1-0.5 0.1-0.1 0-0.1 0-0.2 0h-0.1c-0.1 0-0.1 0-0.1 0-0.1 0-0.1 0-0.2 0 0.3-0.4 1.2-1.4 1.5-1.6s0.5-0.5 0.3-0.9c-0.2-0.4-0.8-0.3-0.8-0.3s0.4-0.1 0.7-0.1c-0.4-0.1-0.9 0-1.1 0.2s-0.2 1-0.3 1.5c-0.1 0.5-0.5 0.8-1 1.3-0.3 0.3-0.5 0.4-0.7 0.4-0.4-0.1-0.8-0.2-1.1-0.3-0.2-0.2-0.5-1.1-0.6-1.5 0-0.2 0.3-0.7 0.4-0.9 0.2-0.5 0.4-0.8 0.4-1 0.1-0.3 0.4-2.5 0.5-3.4 0.3 0.4 0.7 0.9 0.6 1.3 0.6-0.8 0.2-1.7 0-2s-0.4-1-0.2-1.7c0.2-0.7 0.9-2.6 0.9-2.6s0 0.6 0.4 0.5c0.4-0.1 3.2-4.3 3.2-4.3s0.8 1.7 0 2.9c-0.8 1.2-1.6 1.4-1.6 1.4s1.1 0.2 2.2-0.6c0.5 1 0.9 2.1 0.9 2.2-0.1 0.1-0.9 2.1-1 2.2 0 0.1-0.3 0.2-0.5 0.2-0.3 0.1-0.5 0.1-0.6 0.2s-0.8 1.9-1.1 2.8c-0.4 0.1-0.7 0.3-1 0.7 0.1-0.1 0.6-0.2 0.9-0.2s1.2 0.5 1.4 1.3zM13.6 9.4c0 0 0.5 0 1.1-0.7 0.5-0.6 0.3-1.4 0.3-1.4l-1.4 2.1zM10.3 20c0-0.3-0.3-0.3-0.3-0.3l0.2-0.8c0 0-0.6 1.2-0.7 1.4s0 0.5 0.3 0.5 0.6-0.4 0.5-0.8zM13.8 13.5c0.4-0.4 0.2-1.3-0.5-1.4 0.2-0.4 0.5-1.3 0.5-1.3s-2.1 3.3-2.3 3.4c-0.2 0-0.4-0.7-0.4-0.7-0.4 1.5 0.7 1.7 0.8 1.2 0.6-0.1 1.6-0.7 1.9-1.2zM16.7 8.7c-0.1 0.2-0.3 0.4-0.4 0.6 0.3 0.8 1.1 2.8 1.1 2.9s-0.4 1.1-0.4 1.2c0 0-0.5 0.1-0.7 0.1-0.2 0.5-0.4 1-0.5 1-0.1 0.1-0.2 0.1-0.6 0.2-0.2 0.1-0.5 0.1-0.6 0.2s-0.7 1.6-1 2.6c0.5-0.1 0.9 0 1 0.1 0.8-1.5 1.4-2.4 1.6-2.4s2.1 0.3 2.9-1.6c0.7-1.8-0.3-3.4-0.4-3.4 0 0 1.7 0.8 2.1 3.3 0.9 1.2 1.5 2.6 1.7 4.1 0 0.1 0.2 0.2 0.3 0.4 0.2 0.2 0.4 0.4 0.4 0.6 0 0.5 0 1-0.1 1.5 0 0.2-0.2 0.3-0.5 0.4-0.1 0.1-0.3 0.2-0.3 0.2-0.5 1.6-1.5 3.1-2.8 4.1 2.8-1.4 4.8-4.3 4.8-7.6-0.1-4.5-3.4-8.1-7.6-8.5zM22.1 20.5c0-0.2 0.2-0.3 0.4-0.4 0.1-0.1 0.3-0.2 0.4-0.2 0.1-0.5 0.1-0.9 0.1-1.4 0-0.1-0.2-0.3-0.3-0.4-0.2-0.2-0.3-0.3-0.4-0.5-0.1-1.3-0.6-2.6-1.4-3.7 0.1 0.7 0 1.6-0.2 2.7 1.5 2.6 0.6 5.9-1.4 7.9 1.3-1 2.3-2.4 2.8-4zM13.4 19.5c0-0.3-0.4-0.4-0.6-0.3-0.2 0-0.2 0.3-0.2 0.5 0 0.1 0 0.6-0.2 0.9 0 0 0.3-0.4 0.5-0.5 0.2-0.3 0.5-0.3 0.5-0.6z"></path>
</svg>
