<!-- Generated by IcoMoon.io -->
<svg version="1.1" xmlns="http://www.w3.org/2000/svg" width="32" height="32" viewBox="0 0 32 32">
<title>ink</title>
<path fill="#df1a14" d="M16 32c-8.837 0-16-7.163-16-16s7.163-16 16-16 16 7.163 16 16-7.163 16-16 16zM14.86 11.527c-0.318 0.086-0.445 0.421-0.593 0.691-1.25 2.386-2.52 4.76-3.77 7.124-0.062 0.102-0.099 0.226-0.099 0.358 0 0.188 0.075 0.358 0.196 0.484l-0-0c0.243 0.27 0.624 0.173 0.942 0.195 0.328 0 0.752 0.053 0.953-0.281 0.413-0.734 0.773-1.511 1.186-2.256 0.243-0.454 0.974-0.378 1.143 0.097 0.286 0.723 0.52 1.479 0.816 2.202 0.2 0.475 0.931 0.475 1.154 0.022 1.334-2.494 2.678-4.977 4.012-7.47 0.276-0.421-0.084-1.036-0.571-1.004-0.466 0.043-1.080-0.173-1.42 0.27-0.412 0.712-0.75 1.457-1.174 2.159-0.254 0.388-0.9 0.334-1.090-0.087-0.319-0.701-0.594-1.424-0.9-2.126-0.128-0.302-0.477-0.475-0.784-0.378zM10.497 11.711c-0.243 0.010-0.423 0.216-0.529 0.42-1.292 2.43-2.583 4.858-3.875 7.276-0.275 0.4 0.106 0.993 0.561 0.972 0.37 0 0.752 0.032 1.122-0.022 0.318-0.086 0.434-0.432 0.583-0.69 1.238-2.333 2.488-4.664 3.727-7.006 0.2-0.378-0.064-0.907-0.477-0.95-0.166-0.010-0.36-0.016-0.556-0.016s-0.39 0.006-0.583 0.017l0.027-0.001zM23.637 11.732c-0.254 0.087-0.36 0.367-0.476 0.583-0.202 0.421-0.456 0.82-0.636 1.252-0.2 0.54 0.487 1.090 0.953 0.767 0.741-0.454 1.461-0.95 2.192-1.414 0.36-0.184 0.445-0.734 0.159-1.026-0.233-0.28-0.636-0.216-0.953-0.227-0.413 0.033-0.837-0.054-1.239 0.065zM20.132 18.187c-0.211 0.097-0.307 0.346-0.402 0.55-0.127 0.27-0.286 0.519-0.392 0.8-0.148 0.388 0.17 0.863 0.572 0.863 0.805 0.010 1.62 0 2.435 0 0.381 0.032 0.71-0.345 0.667-0.734-0.010-0.291-0.264-0.496-0.508-0.604-0.572-0.27-1.133-0.573-1.694-0.853-0.201-0.108-0.466-0.151-0.678-0.022z"></path>
</svg>
