<!-- Generated by IcoMoon.io -->
<svg version="1.1" xmlns="http://www.w3.org/2000/svg" width="32" height="32" viewBox="0 0 32 32">
<title>ins</title>
<path fill="#b2a3f6" d="M16 0c-8.8 0-16 7.2-16 16s7.2 16 16 16 16-7.2 16-16-7.2-16-16-16zM25.8 11.3c0 0.7-0.6 1.3-1.4 1.3s-1.4-0.6-1.4-1.3 0.6-1.3 1.4-1.3c0.8 0 1.4 0.6 1.4 1.3zM25.8 14.6c0 0 0 0 0 0s0 0 0 0c0.7 0 1.2 0.5 1.2 1.2 0 0.6-0.5 1.2-1.2 1.2 0 0 0 0 0 0-0.3 0-0.6-0.1-0.8-0.3s-0.4-0.5-0.4-0.8c0-0.8 0.6-1.3 1.2-1.3zM23.3 8.1c0 0 0 0 0 0s0 0 0 0c0.3 0 0.6 0.3 0.6 0.6s-0.3 0.6-0.6 0.6c0 0 0 0 0 0s0 0 0 0c-0.3 0-0.6-0.3-0.6-0.6s0.2-0.6 0.6-0.6zM23.3 13.8c0.5 0 1 0.4 1 1s-0.4 1-1 1c-0.5 0-1-0.4-1-1s0.4-1 1-1zM9.7 14c0-0.3 0.3-0.6 0.6-0.6s0.6 0.3 0.6 0.6-0.3 0.6-0.6 0.6c-0.3 0-0.6-0.3-0.6-0.6zM10.1 17.1c0 0.7-0.6 1.3-1.4 1.3s-1.4-0.6-1.4-1.3c0-0.7 0.6-1.3 1.4-1.3 0.8-0.1 1.4 0.5 1.4 1.3zM10.9 12.5c0-0.3 0.3-0.6 0.6-0.6s0.6 0.3 0.6 0.6-0.3 0.6-0.6 0.6c-0.3 0-0.6-0.3-0.6-0.6zM12.1 14.2c0 0 0 0 0 0s0 0 0 0c0.9 0 1.6 0.7 1.6 1.5s-0.7 1.5-1.6 1.5v0c-0.9 0-1.6-0.7-1.6-1.5s0.7-1.5 1.6-1.5zM13.4 12.3c-0.8 0-1.4-0.6-1.4-1.3s0.6-1.3 1.4-1.3c0.8 0 1.4 0.6 1.4 1.3s-0.6 1.3-1.4 1.3zM15.2 13.1c0.7 0 1.2 0.5 1.2 1.2s-0.5 1.2-1.2 1.2v0c-0.6 0-1.2-0.5-1.2-1.2s0.6-1.2 1.2-1.2zM15.4 16.1c0.8 0 1.4 0.6 1.4 1.3s-0.6 1.3-1.4 1.3c-0.8 0-1.4-0.6-1.4-1.3s0.7-1.3 1.4-1.3zM16.4 12.3c0-0.4 0.4-0.8 0.8-0.8s0.8 0.3 0.8 0.8-0.4 0.8-0.8 0.8-0.8-0.4-0.8-0.8zM16.2 19.6c0.5 0 1 0.4 1 1s-0.4 1-1 1c-0.5 0-1-0.4-1-1s0.5-1 1-1zM17.2 15.7c0-0.4 0.4-0.8 0.8-0.8 0 0 0 0 0 0s0 0 0 0c0.4 0 0.8 0.3 0.8 0.8 0 0.4-0.4 0.8-0.8 0.8 0 0 0 0 0 0v0c-0.5 0-0.8-0.3-0.8-0.8zM17.6 18.6c0-0.7 0.6-1.3 1.4-1.3s1.4 0.6 1.4 1.3c0 0.7-0.6 1.3-1.4 1.3-0.8 0.1-1.4-0.5-1.4-1.3zM18.8 21.7c0 0.3-0.3 0.6-0.6 0.6s-0.6-0.3-0.6-0.6 0.3-0.6 0.6-0.6c0.3 0 0.6 0.3 0.6 0.6zM20.3 16.5c0-0.4 0.4-0.8 0.8-0.8 0 0 0 0 0 0s0 0 0 0c0.4 0 0.8 0.3 0.8 0.8 0 0.4-0.4 0.8-0.8 0.8 0 0 0 0 0 0v0c-0.4 0-0.8-0.4-0.8-0.8zM21.7 18.4c0.3 0 0.6 0.3 0.6 0.6s-0.3 0.6-0.6 0.6c-0.3 0-0.6-0.3-0.6-0.6s0.3-0.6 0.6-0.6zM21.5 6.9c0 0 0 0 0 0s0 0 0 0c0.4 0 0.8 0.3 0.8 0.8s-0.4 0.8-0.8 0.8c0 0 0 0 0 0s0 0 0 0c-0.4 0-0.8-0.3-0.8-0.8s0.4-0.8 0.8-0.8zM20.9 9.7c0 0 0.1 0 0 0 0.2 0 0.3-0.1 0.4-0.1 0 0 0 0 0 0s0 0 0 0c0.1 0 0.2 0 0.2 0s0.1 0 0.1 0 0.1 0.1 0.2 0.1c0 0 0.1 0.1 0.1 0.1 0.2 0.2 0.3 0.4 0.3 0.7s-0.2 0.6-0.5 0.8c-0.2 0.1-0.3 0.2-0.5 0.2v0c0 0 0 0 0 0s0 0 0 0v0c-0.3 0-0.5-0.1-0.7-0.3s-0.3-0.4-0.3-0.7c0.1-0.3 0.4-0.7 0.7-0.8zM20.3 11.9c0 0 0 0 0 0 0.9 0 1.6 0.7 1.6 1.5 0 0.4-0.2 0.8-0.5 1.1s-0.7 0.4-1.1 0.4c-0.4 0-0.8-0.2-1.1-0.5s-0.5-0.7-0.5-1.1c0-0.7 0.8-1.4 1.6-1.4 0 0 0 0 0 0zM19.3 5.8c0.3 0 0.6 0.3 0.6 0.6s-0.3 0.6-0.6 0.6c-0.3 0-0.6-0.3-0.6-0.6s0.3-0.6 0.6-0.6zM18.7 9.4c0 0.7-0.6 1.3-1.4 1.3s-1.4-0.6-1.4-1.3 0.6-1.3 1.4-1.3c0.8 0 1.4 0.6 1.4 1.3zM15.6 6c0-0.5 0.4-1 1-1 0 0 0 0 0 0s0 0 0 0 0 0 0 0c0.5 0 1 0.4 1 1v0c0 0.5-0.4 1-1 1 0 0 0 0 0 0-0.6-0.1-1-0.5-1-1v0zM13.2 7.9v0c0 0 0.1 0 0 0 0-0.3 0.1-0.5 0.2-0.6 0.2-0.2 0.4-0.4 0.7-0.4 0 0 0 0 0 0s0 0 0 0 0 0 0 0c0.5 0 1 0.4 1 1v0 0c0 0.1 0 0.2-0.1 0.4-0.1 0.4-0.5 0.6-0.9 0.6 0 0 0 0 0 0s0 0 0 0 0 0 0 0c-0.3 0-0.5-0.1-0.7-0.3 0-0.2-0.1-0.4-0.2-0.7 0.1 0 0 0 0 0v0zM12.3 6.1c0.3 0 0.6 0.3 0.6 0.6s-0.3 0.6-0.6 0.6-0.6-0.3-0.6-0.6 0.2-0.6 0.6-0.6zM11.7 7.7c0.4 0 0.8 0.3 0.8 0.8 0 0.4-0.4 0.8-0.8 0.8s-0.8-0.3-0.8-0.8c0-0.5 0.3-0.8 0.8-0.8zM10.9 10.6c0 0.5-0.4 1-1 1-0.5 0-1-0.4-1-1s0.4-1 1-1c0.6 0 1 0.4 1 1zM9.5 7.7c0.3 0 0.6 0.3 0.6 0.6s-0.3 0.5-0.6 0.5-0.6-0.2-0.6-0.5 0.3-0.6 0.6-0.6zM8.7 12.7c0.3 0 0.6 0.3 0.6 0.6s-0.3 0.6-0.6 0.6-0.6-0.3-0.6-0.6 0.3-0.6 0.6-0.6zM7.4 10.8c0.4 0 0.8 0.3 0.8 0.8 0 0.4-0.4 0.8-0.8 0.8 0 0 0 0 0 0s0 0 0 0 0 0 0 0c-0.2 0-0.4-0.1-0.5-0.2-0.2-0.1-0.2-0.3-0.2-0.6-0.1-0.5 0.2-0.8 0.7-0.8zM6.2 13.1c0.7 0 1.2 0.5 1.2 1.2 0 0.6-0.5 1.2-1.2 1.2v0c-0.7 0-1.2-0.5-1.2-1.2s0.5-1.2 1.2-1.2zM5 17.3c0-0.4 0.4-0.8 0.8-0.8s0.8 0.3 0.8 0.8c0 0.4-0.4 0.8-0.8 0.8 0 0 0 0 0 0v0c-0.4-0.1-0.8-0.4-0.8-0.8zM5.8 20.2c0-0.5 0.4-1 1-1s1 0.4 1 1-0.4 1-1 1c-0.6-0.1-1-0.5-1-1zM7.9 23c-0.3 0-0.6-0.3-0.6-0.6s0.3-0.6 0.6-0.6 0.6 0.3 0.6 0.6c0 0.4-0.2 0.6-0.6 0.6zM8.5 20.3c0-0.6 0.5-1.1 1.2-1.1s1.2 0.5 1.2 1.2c0 0.6-0.5 1.2-1.2 1.2-0.6-0.1-1.2-0.6-1.2-1.3zM10.3 25.3c-0.8 0-1.4-0.6-1.4-1.3s0.6-1.3 1.4-1.3c0.8 0 1.4 0.6 1.4 1.3s-0.6 1.3-1.4 1.3zM12.1 18.7c0-0.1 0.1-0.2 0.1-0.3 0.1-0.2 0.4-0.3 0.6-0.3 0 0 0 0 0 0s0 0 0 0c0.2 0 0.4 0.1 0.5 0.2 0.2 0.1 0.2 0.3 0.2 0.6 0 0.4-0.4 0.8-0.8 0.8 0 0 0 0 0 0v0c0 0 0 0 0 0-0.2 0-0.4-0.1-0.5-0.2-0.2-0.1-0.3-0.3-0.3-0.6 0.2-0.1 0.2-0.2 0.2-0.2zM12.1 21.5c0-0.6 0.5-1.2 1.2-1.2s1.2 0.5 1.2 1.2c0 0.6-0.5 1.2-1.2 1.2-0.7-0.1-1.2-0.6-1.2-1.2zM13.2 24.9c0 0 0 0 0 0s0 0 0 0c-0.2 0-0.4-0.1-0.6-0.2-0.1-0.1-0.2-0.3-0.2-0.5 0 0 0 0 0 0v0c0-0.2 0.1-0.4 0.2-0.5s0.3-0.2 0.5-0.2c0 0 0 0 0 0s0 0 0 0 0 0 0 0c0.2 0 0.4 0.1 0.6 0.3 0.3 0 0.3 0.2 0.3 0.4v0c0 0 0 0.1 0 0.1-0.1 0.4-0.4 0.6-0.8 0.6 0.1 0 0.1 0 0 0zM14.2 26.9c-0.3 0-0.6-0.3-0.6-0.6s0.3-0.6 0.6-0.6 0.6 0.3 0.6 0.6-0.2 0.6-0.6 0.6zM14.8 23.6c0-0.7 0.6-1.3 1.4-1.3s1.4 0.6 1.4 1.3-0.6 1.3-1.4 1.3c-0.8 0-1.4-0.6-1.4-1.3zM17.6 26.9c-0.4 0-0.8-0.3-0.8-0.8s0.4-0.8 0.8-0.8c0.4 0 0.8 0.3 0.8 0.8 0 0.4-0.4 0.8-0.8 0.8zM19.5 25.3v0c-0.7 0-1.2-0.5-1.2-1.2 0-0.6 0.5-1.2 1.2-1.2s1.2 0.5 1.2 1.2c0 0.7-0.5 1.2-1.2 1.2zM19.9 21.5c0-0.6 0.5-1.2 1.2-1.2s1.2 0.5 1.2 1.2c0 0.6-0.5 1.2-1.2 1.2-0.6-0.1-1.2-0.6-1.2-1.2zM22.3 24.9c0 0 0 0 0 0v0c-0.4 0-0.8-0.3-0.8-0.8 0-0.4 0.4-0.8 0.8-0.8 0 0 0 0 0 0s0 0 0 0 0 0 0 0c0.4 0 0.8 0.3 0.8 0.8s-0.4 0.8-0.8 0.8zM23.1 17.7c0-0.1 0-0.1 0-0.2s0.1-0.2 0.1-0.3 0.4-0.3 0.6-0.3c0 0 0 0 0 0s0 0 0 0c0.2 0 0.4 0.1 0.5 0.2 0.2 0.1 0.2 0.3 0.2 0.6 0 0.4-0.4 0.8-0.8 0.8 0 0 0 0 0 0v0c0 0 0 0 0 0-0.2 0-0.4-0.1-0.5-0.2 0-0.2-0.1-0.4-0.1-0.6zM24.4 23.4c-0.3 0-0.6-0.3-0.6-0.6s0.3-0.6 0.6-0.6c0.3 0 0.6 0.3 0.6 0.6 0 0.4-0.2 0.6-0.6 0.6zM24.6 21.5c0 0 0 0 0 0s0 0 0 0c-0.7 0-1.2-0.5-1.2-1.2 0-0.6 0.5-1.1 1.2-1.1 0 0 0 0 0 0s0 0 0 0c0.7 0 1.2 0.5 1.2 1.1 0 0.7-0.5 1.2-1.2 1.2zM26.4 18.8c-0.3 0-0.6-0.3-0.6-0.6s0.3-0.6 0.6-0.6c0.3 0 0.6 0.3 0.6 0.6 0 0.4-0.3 0.6-0.6 0.6zM26.4 13.8c0 0 0 0 0 0s0 0 0 0c-0.3 0-0.6-0.3-0.6-0.6s0.3-0.6 0.6-0.6c0 0 0 0 0 0s0 0 0 0c0.3 0 0.6 0.3 0.6 0.6s-0.3 0.6-0.6 0.6z"></path>
</svg>
