<!-- Generated by IcoMoon.io -->
<svg version="1.1" xmlns="http://www.w3.org/2000/svg" width="32" height="32" viewBox="0 0 32 32">
<title>ins</title>
<path fill="#b2a3f6" d="M16 32c-8.837 0-16-7.163-16-16s7.163-16 16-16 16 7.163 16 16-7.163 16-16 16zM13.446 12.287c0.759 0 1.375-0.601 1.375-1.342 0-0.742-0.616-1.343-1.375-1.343s-1.375 0.601-1.375 1.343c0 0.741 0.615 1.342 1.375 1.342zM17.373 10.753c0.76 0 1.375-0.601 1.375-1.342s-0.615-1.343-1.375-1.343c-0.759 0-1.375 0.601-1.375 1.343s0.616 1.342 1.375 1.342zM18.946 19.958c0.759 0 1.375-0.6 1.375-1.342s-0.616-1.343-1.375-1.343c-0.76 0-1.375 0.601-1.375 1.343s0.615 1.342 1.375 1.342zM5.786 18.040c0.003 0 0.006 0 0.009 0 0.425 0 0.771-0.342 0.776-0.767v-0c0-0.423-0.352-0.767-0.786-0.767s-0.785 0.344-0.785 0.767c0 0.424 0.352 0.767 0.785 0.767zM7.946 23.028c0.325 0 0.59-0.258 0.59-0.576s-0.265-0.575-0.59-0.575-0.59 0.257-0.59 0.575c0 0.318 0.264 0.576 0.59 0.576zM14.231 26.863c0.326 0 0.59-0.258 0.59-0.576s-0.264-0.575-0.59-0.575-0.59 0.257-0.59 0.575 0.264 0.576 0.59 0.576zM24.446 23.411c0.325 0 0.59-0.258 0.59-0.576s-0.265-0.576-0.59-0.576c-0.326 0-0.59 0.258-0.59 0.576s0.264 0.576 0.59 0.576zM18.16 22.261c0.326 0 0.59-0.258 0.59-0.576s-0.264-0.575-0.59-0.575-0.59 0.257-0.59 0.575c0 0.318 0.265 0.576 0.59 0.576zM21.696 19.576c0.325 0 0.59-0.258 0.59-0.576s-0.265-0.575-0.59-0.575c-0.326 0-0.59 0.257-0.59 0.575s0.264 0.576 0.59 0.576zM17.571 26.863c0.433 0 0.785-0.344 0.785-0.767s-0.352-0.767-0.785-0.767c-0.434 0-0.786 0.343-0.786 0.767s0.352 0.767 0.786 0.767zM21.106 17.273c0.003 0 0.006 0 0.009 0 0.425 0 0.771-0.342 0.776-0.767v-0c-0.005-0.425-0.351-0.767-0.776-0.767-0.003 0-0.006 0-0.010 0h0c-0.003-0-0.006-0-0.009-0-0.425 0-0.771 0.342-0.776 0.767v0c0 0.424 0.351 0.767 0.785 0.767zM22.286 24.945c0.003 0 0.006 0 0.009 0 0.425 0 0.771-0.342 0.776-0.767v-0c-0.005-0.425-0.351-0.767-0.776-0.767-0.004 0-0.007 0-0.011 0h0.001c-0.003-0-0.006-0-0.009-0-0.425 0-0.771 0.342-0.776 0.767v0c0 0.423 0.352 0.767 0.785 0.767zM6.765 21.11c0.543 0 0.982-0.43 0.982-0.959s-0.44-0.958-0.982-0.958-0.982 0.43-0.982 0.958 0.44 0.959 0.982 0.959zM16.195 24.945c0.759 0 1.375-0.601 1.375-1.343s-0.616-1.343-1.375-1.343c-0.76 0-1.375 0.602-1.375 1.343s0.615 1.343 1.375 1.343zM8.73 18.425c0.76 0 1.375-0.602 1.375-1.343s-0.616-1.343-1.375-1.343-1.375 0.601-1.375 1.343 0.615 1.343 1.375 1.343zM16.195 21.492c0.542 0 0.982-0.429 0.982-0.958s-0.44-0.958-0.982-0.958c-0.543 0-0.983 0.429-0.983 0.958s0.44 0.958 0.983 0.958zM11.48 13.056c0.326 0 0.59-0.258 0.59-0.576s-0.264-0.576-0.59-0.576-0.59 0.258-0.59 0.576 0.264 0.576 0.59 0.576zM15.212 15.356c0.65 0 1.178-0.515 1.178-1.15s-0.527-1.152-1.178-1.152c-0.65 0-1.178 0.516-1.178 1.151s0.528 1.152 1.178 1.152zM17.962 16.506c0.003 0 0.006 0 0.009 0 0.425 0 0.771-0.342 0.776-0.767v-0c-0.005-0.425-0.351-0.767-0.776-0.767-0.003 0-0.006 0-0.010 0h0c-0.003-0-0.006-0-0.009-0-0.425 0-0.771 0.342-0.776 0.767v0c0 0.424 0.351 0.767 0.785 0.767zM19.337 6.918c0.326 0 0.59-0.257 0.59-0.575s-0.264-0.576-0.59-0.576c-0.326 0-0.59 0.258-0.59 0.576s0.264 0.575 0.59 0.575zM16.587 6.917c0.004 0 0.008 0 0.013 0 0.532 0 0.964-0.428 0.97-0.958v-0.001c-0.007-0.531-0.438-0.958-0.97-0.958-0.005 0-0.009 0-0.014 0h0.001c-0.004-0-0.008-0-0.012-0-0.532 0-0.963 0.428-0.97 0.957v0.001c0 0.53 0.44 0.959 0.982 0.959zM17.177 13.054c0.434 0 0.785-0.343 0.785-0.767s-0.351-0.767-0.785-0.767c-0.434 0-0.785 0.344-0.785 0.767s0.351 0.767 0.785 0.767zM9.712 21.494c0.65 0 1.178-0.515 1.178-1.151s-0.527-1.151-1.178-1.151c-0.65 0-1.178 0.515-1.178 1.15 0 0.637 0.528 1.152 1.178 1.152zM21.105 22.644c0.65 0 1.178-0.516 1.178-1.152 0-0.635-0.528-1.15-1.178-1.15s-1.178 0.515-1.178 1.15c0 0.636 0.527 1.152 1.178 1.152zM19.535 25.329c0.65 0 1.177-0.516 1.177-1.151s-0.527-1.152-1.178-1.152-1.178 0.516-1.178 1.152c0 0.635 0.528 1.15 1.178 1.15zM10.302 25.329c0.76 0 1.375-0.601 1.375-1.343s-0.616-1.342-1.375-1.342c-0.76 0-1.375 0.6-1.375 1.342s0.616 1.343 1.375 1.343zM6.177 15.357c0.65 0 1.178-0.516 1.178-1.152s-0.528-1.15-1.178-1.15-1.177 0.515-1.177 1.149c0 0.636 0.527 1.152 1.178 1.152zM12.070 17.273c0.868 0 1.572-0.686 1.572-1.534 0-0.847-0.704-1.534-1.572-1.534-0.869 0-1.573 0.687-1.573 1.534 0 0.848 0.704 1.534 1.573 1.534zM20.32 14.973c0.868 0 1.572-0.687 1.572-1.535 0-0.847-0.704-1.534-1.572-1.534-0.869 0-1.573 0.687-1.573 1.534s0.704 1.534 1.573 1.534zM24.64 21.494c0.65 0 1.178-0.515 1.178-1.151s-0.527-1.151-1.178-1.151-1.178 0.515-1.178 1.15c0 0.637 0.528 1.152 1.178 1.152zM25.82 16.891c0.65 0 1.177-0.516 1.177-1.152 0-0.635-0.527-1.15-1.177-1.15-0.651 0-1.178 0.515-1.178 1.15 0 0.636 0.527 1.152 1.178 1.152zM21.302 11.521c0.542 0 0.982-0.43 0.982-0.96s-0.44-0.958-0.982-0.958c-0.543 0-0.982 0.43-0.982 0.959s0.44 0.958 0.982 0.958zM21.497 8.452c0.434 0 0.786-0.343 0.786-0.767s-0.352-0.767-0.786-0.767c-0.433 0-0.785 0.344-0.785 0.767s0.352 0.767 0.785 0.767zM23.265 9.219c0.326 0 0.59-0.258 0.59-0.575s-0.264-0.576-0.59-0.576-0.59 0.258-0.59 0.576 0.264 0.575 0.59 0.575zM26.409 13.823c0.326 0 0.59-0.258 0.59-0.576s-0.264-0.576-0.59-0.576-0.59 0.258-0.59 0.576 0.265 0.576 0.59 0.576zM9.516 8.836c0.326 0 0.59-0.257 0.59-0.575s-0.264-0.576-0.59-0.576-0.59 0.258-0.59 0.576 0.264 0.575 0.59 0.575zM8.731 13.823c0.326 0 0.59-0.258 0.59-0.576s-0.264-0.576-0.59-0.576-0.59 0.258-0.59 0.576 0.264 0.576 0.59 0.576zM10.303 14.59c0.326 0 0.59-0.258 0.59-0.576s-0.264-0.576-0.59-0.576c-0.326 0-0.59 0.258-0.59 0.576s0.264 0.576 0.59 0.576zM12.266 7.3c0.326 0 0.59-0.258 0.59-0.576s-0.264-0.575-0.59-0.575-0.59 0.257-0.59 0.575 0.264 0.576 0.59 0.576zM26.41 18.809c0.326 0 0.59-0.258 0.59-0.576s-0.264-0.575-0.59-0.575-0.59 0.257-0.59 0.575 0.265 0.576 0.59 0.576zM24.446 12.671c0.759 0 1.375-0.6 1.375-1.342s-0.616-1.343-1.375-1.343c-0.76 0-1.375 0.601-1.375 1.343s0.615 1.342 1.375 1.342zM23.266 15.739c0.543 0 0.982-0.429 0.982-0.958s-0.44-0.958-0.982-0.958-0.982 0.429-0.982 0.958 0.44 0.958 0.982 0.958zM9.91 11.52c0.543 0 0.983-0.429 0.983-0.958s-0.44-0.959-0.983-0.959c-0.542 0-0.982 0.43-0.982 0.959s0.44 0.958 0.982 0.958zM14.23 8.835c0.004 0 0.008 0 0.013 0 0.532 0 0.963-0.428 0.97-0.957v-0.001c-0.006-0.531-0.438-0.959-0.97-0.959-0.004 0-0.008 0-0.013 0h0.001c-0.004-0-0.008-0-0.013-0-0.532 0-0.964 0.428-0.97 0.958v0.001c0 0.529 0.44 0.958 0.983 0.958zM11.678 9.219c0.434 0 0.785-0.343 0.785-0.767s-0.351-0.767-0.785-0.767c-0.434 0-0.785 0.344-0.785 0.767s0.351 0.767 0.785 0.767zM7.356 12.287c0.003 0 0.006 0 0.009 0 0.425 0 0.771-0.342 0.776-0.767v-0c0-0.423-0.351-0.767-0.785-0.767s-0.785 0.344-0.785 0.767c0 0.424 0.351 0.767 0.785 0.767zM23.856 18.425c0.003 0 0.006 0 0.009 0 0.425 0 0.771-0.342 0.776-0.767v-0c-0.005-0.425-0.351-0.767-0.776-0.767-0.003 0-0.006 0-0.010 0h0c-0.003-0-0.006-0-0.009-0-0.425 0-0.771 0.342-0.776 0.767v0c0 0.423 0.351 0.767 0.785 0.767zM15.41 18.809c0.76 0 1.375-0.601 1.375-1.343s-0.615-1.342-1.375-1.342-1.375 0.6-1.375 1.342 0.616 1.343 1.375 1.343zM12.856 19.576c0.003 0 0.006 0 0.009 0 0.425 0 0.771-0.342 0.776-0.767v-0c-0.005-0.425-0.351-0.767-0.776-0.767-0.003 0-0.006 0-0.010 0h0c-0.003-0-0.006-0-0.009-0-0.425 0-0.771 0.342-0.776 0.767v0c0 0.423 0.351 0.767 0.785 0.767zM13.248 22.644c0.651 0 1.178-0.516 1.178-1.152 0-0.635-0.527-1.15-1.178-1.15s-1.177 0.515-1.177 1.15c0 0.636 0.527 1.152 1.177 1.152zM13.248 24.944c0.003 0 0.007 0 0.010 0 0.425 0 0.77-0.342 0.776-0.766v-0.001c-0.005-0.425-0.351-0.767-0.776-0.767-0.004 0-0.007 0-0.011 0h0.001c-0.003-0-0.006-0-0.009-0-0.425 0-0.771 0.342-0.776 0.767v0c0 0.423 0.352 0.767 0.785 0.767z"></path>
<path fill="#b2a3f6" opacity="0.5" d="M12.070 17.273c-0.868 0-1.572-0.686-1.572-1.534 0-0.847 0.704-1.534 1.573-1.534s1.572 0.687 1.572 1.534c0 0.848-0.704 1.534-1.572 1.534zM20.32 14.973c-0.868 0-1.572-0.687-1.572-1.535 0-0.847 0.704-1.534 1.573-1.534 0.868 0 1.572 0.687 1.572 1.534s-0.704 1.534-1.572 1.534zM24.641 21.494c-0.65 0-1.178-0.515-1.178-1.151s0.528-1.151 1.178-1.151 1.178 0.515 1.178 1.15c0 0.637-0.527 1.152-1.178 1.152zM25.821 16.891c-0.004 0-0.008 0-0.013 0-0.639 0-1.158-0.514-1.165-1.151v-0.001c0-0.635 0.527-1.15 1.178-1.15 0.65 0 1.177 0.515 1.177 1.15 0 0.636-0.527 1.152-1.177 1.152zM21.303 11.521c-0.543 0-0.982-0.43-0.982-0.96s0.44-0.958 0.982-0.958 0.982 0.43 0.982 0.959-0.44 0.958-0.982 0.958zM21.498 8.452c-0.433 0-0.785-0.343-0.785-0.767s0.352-0.767 0.785-0.767c0.434 0 0.786 0.344 0.786 0.767s-0.352 0.767-0.786 0.767zM23.266 9.219c-0.326 0-0.59-0.258-0.59-0.575s0.264-0.576 0.59-0.576 0.59 0.258 0.59 0.576-0.264 0.575-0.59 0.575zM26.41 13.823c-0.325 0-0.59-0.258-0.59-0.576s0.265-0.576 0.59-0.576 0.59 0.258 0.59 0.576-0.264 0.576-0.59 0.576zM9.516 8.836c-0.326 0-0.59-0.257-0.59-0.575s0.264-0.576 0.59-0.576 0.59 0.258 0.59 0.576-0.264 0.575-0.59 0.575zM8.731 13.823c-0.326 0-0.59-0.258-0.59-0.576s0.264-0.576 0.59-0.576 0.59 0.258 0.59 0.576-0.264 0.576-0.59 0.576zM10.303 14.59c-0.326 0-0.59-0.258-0.59-0.576s0.264-0.576 0.59-0.576c0.326 0 0.59 0.258 0.59 0.576s-0.264 0.576-0.59 0.576zM12.266 7.3c-0.326 0-0.59-0.258-0.59-0.576s0.264-0.575 0.59-0.575 0.59 0.257 0.59 0.575-0.264 0.576-0.59 0.576zM26.41 18.809c-0.325 0-0.59-0.258-0.59-0.576s0.265-0.575 0.59-0.575 0.59 0.257 0.59 0.575-0.264 0.576-0.59 0.576zM24.446 12.671c-0.76 0-1.375-0.6-1.375-1.342s0.615-1.343 1.375-1.343c0.759 0 1.375 0.601 1.375 1.343s-0.616 1.342-1.375 1.342zM23.266 15.739c-0.542 0-0.982-0.429-0.982-0.958s0.44-0.958 0.982-0.958c0.543 0 0.982 0.429 0.982 0.958s-0.44 0.958-0.982 0.958zM9.91 11.52c-0.542 0-0.982-0.429-0.982-0.958s0.44-0.959 0.982-0.959c0.543 0 0.983 0.43 0.983 0.959s-0.44 0.958-0.983 0.958zM14.23 8.835c-0.004 0-0.008 0-0.012 0-0.532 0-0.963-0.428-0.97-0.957v-0.001c0-0.53 0.44-0.959 0.983-0.959 0.004-0 0.008-0 0.012-0 0.532 0 0.964 0.428 0.97 0.958v0.001c-0.007 0.531-0.438 0.958-0.97 0.958-0.004 0-0.008-0-0.013-0h0.001zM11.678 9.219c-0.434 0-0.785-0.343-0.785-0.767s0.351-0.767 0.785-0.767c0.434 0 0.785 0.344 0.785 0.767s-0.351 0.767-0.785 0.767zM7.356 12.287c-0.003 0-0.006 0-0.009 0-0.425 0-0.771-0.342-0.776-0.767v-0c0-0.423 0.351-0.767 0.785-0.767s0.785 0.344 0.785 0.767c-0.005 0.425-0.351 0.767-0.776 0.767-0.003 0-0.006-0-0.010-0h0zM23.856 18.425c-0.003 0-0.006 0-0.009 0-0.425 0-0.771-0.342-0.776-0.767v-0c0-0.424 0.351-0.767 0.785-0.767s0.785 0.343 0.785 0.767c-0.005 0.425-0.351 0.767-0.776 0.767-0.003 0-0.006-0-0.010-0h0zM15.41 18.809c-0.76 0-1.375-0.601-1.375-1.343s0.616-1.342 1.375-1.342c0.76 0 1.375 0.6 1.375 1.342s-0.615 1.343-1.375 1.343zM12.856 19.576c-0.003 0-0.006 0-0.009 0-0.425 0-0.771-0.342-0.776-0.767v-0c0-0.424 0.351-0.767 0.785-0.767s0.785 0.343 0.785 0.767c-0.005 0.425-0.351 0.767-0.776 0.767-0.003 0-0.006-0-0.010-0h0zM13.248 22.644c-0.65 0-1.177-0.516-1.177-1.152 0-0.635 0.527-1.15 1.177-1.15s1.178 0.515 1.178 1.15c0 0.636-0.527 1.152-1.178 1.152zM13.248 24.944c-0.003 0-0.006 0-0.009 0-0.425 0-0.77-0.342-0.776-0.766v-0.001c0-0.424 0.352-0.767 0.785-0.767s0.786 0.343 0.786 0.767c-0.005 0.425-0.351 0.767-0.776 0.767-0.004 0-0.007-0-0.011-0h0.001z"></path>
</svg>
