<!-- Generated by IcoMoon.io -->
<svg version="1.1" xmlns="http://www.w3.org/2000/svg" width="32" height="32" viewBox="0 0 32 32">
<title>itc</title>
<path fill="#102044" d="M16 32c-8.837 0-16-7.163-16-16s7.163-16 16-16 16 7.163 16 16-7.163 16-16 16zM24.248 19.35v-6.677c0.442-0.168 0.749-0.588 0.749-1.080 0-0.637-0.516-1.153-1.153-1.153-0.004 0-0.009 0-0.013 0h0.001c-0.002 0-0.004-0-0.006-0-0.298 0-0.569 0.113-0.774 0.298l0.001-0.001-5.828-3.337c0.016-0.072 0.025-0.155 0.025-0.24 0-0.641-0.519-1.16-1.16-1.16-0.001 0-0.001 0-0.002 0h0c-0.001 0-0.003 0-0.004 0-0.641 0-1.16 0.519-1.16 1.16 0 0.064 0.005 0.126 0.015 0.187l-0.001-0.007-5.97 3.42c-0.209-0.198-0.492-0.32-0.804-0.32-0.182 0-0.355 0.042-0.509 0.116l0.007-0.003c-0.437 0.207-0.698 0.66-0.658 1.138s0.375 0.882 0.84 1.013v6.616c-0.491 0.139-0.845 0.584-0.845 1.111 0 0.637 0.516 1.153 1.153 1.153 0.005 0 0.010-0 0.015-0h-0.001c0.236 0 0.465-0.070 0.658-0.204l3.098 1.772v0.035h0.067l2.94 1.683c0.017 0.628 0.53 1.13 1.161 1.13 0.010 0 0.020-0 0.030-0l-0.001 0c0.631-0.011 1.139-0.525 1.139-1.158 0-0.039-0.002-0.077-0.006-0.115l0 0.005 6.030-3.29c0.36 0.196 0.797 0.189 1.15-0.019s0.57-0.586 0.568-0.993c-0.004-0.491-0.312-0.909-0.744-1.077l-0.008-0.003zM20.13 16.745h-0.004l-0.005-0.027-0.004-0.062-0.139-0.067-0.873-0.52 0.913-0.545 0.144-0.067 0.009-0.346h0.004v-5.284l2.533 1.452c-0.027 0.094-0.043 0.203-0.044 0.315v0c0 0.55 0.392 1.024 0.935 1.133v6.57c-0.534 0.111-0.929 0.578-0.929 1.137 0 0.196 0.049 0.381 0.135 0.544l-0.003-0.006-2.672 1.457zM16.090 8.309c0.312 0 0.61-0.125 0.828-0.347l2.612 1.498v5.607l-1.052 0.63-1.42-0.843c0.007-0.046 0.011-0.098 0.011-0.152 0-0.566-0.459-1.025-1.025-1.025-0.001 0-0.002 0-0.002 0h0c-0.001 0-0.002 0-0.003 0-0.566 0-1.025 0.459-1.025 1.025 0 0.068 0.007 0.134 0.019 0.198l-0.001-0.007-1.375 0.808-1.087-0.648v-5.613l2.65-1.519c0.22 0.246 0.536 0.387 0.868 0.387zM16.77 16.731c-0.187-0.184-0.443-0.297-0.726-0.297-0.271 0-0.519 0.105-0.703 0.276l0.001-0.001-1.065-0.635 1.070-0.621c0.183 0.167 0.428 0.27 0.697 0.27 0.281 0 0.535-0.112 0.721-0.293l-0 0 1.088 0.649zM9.242 20.878c0.128-0.303 0.12-0.646-0.024-0.943s-0.406-0.519-0.724-0.61v-6.625c0.6-0.171 0.956-0.785 0.801-1.385l2.628-1.506v5.435h0.004v0.213l0.35 0.178 0.751 0.444-0.832 0.488-0.224 0.133-0.045 0.045-0.004 0.177v5.492zM16.090 23.671c-0.001 0-0.003 0-0.004 0-0.419 0-0.787 0.222-0.991 0.555l-0.003 0.005-2.525-1.448v-5.714l1.074-0.626 1.392 0.826c-0.010 0.060-0.016 0.12-0.018 0.182 0 0.564 0.461 1.020 1.030 1.020s1.030-0.456 1.030-1.020c-0-0.053-0.005-0.106-0.015-0.156l0.001 0.005 1.419-0.853 1.007 0.6v5.736l-2.47 1.35c-0.213-0.282-0.548-0.462-0.924-0.462-0.001 0-0.002 0-0.003 0h0z"></path>
</svg>
