<!-- Generated by IcoMoon.io -->
<svg version="1.1" xmlns="http://www.w3.org/2000/svg" width="32" height="32" viewBox="0 0 32 32">
<title>klown</title>
<path fill="#ea0017" d="M21.9 14.1l-0.4 0.4-0.9-0.3c-0.5-0.2-0.9-0.3-0.9-0.3s0.3 0.3 0.7 0.7l0.1 0.1c0.3 0.3 0.7 0.6 0.9 0.9 0.1 0.1 0.3 0.2 0.3 0.2s1.1-2.5 1-2.5v0c0 0-0.1 0.1-0.3 0.2 0 0.2-0.3 0.4-0.5 0.6zM21.5 15.5c-0.1-0.1-0.4-0.4-0.7-0.7s-0.6-0.5-0.6-0.5c0-0.1 0.1 0 0.5 0.1v0c0.2 0.1 0.4 0.1 0.6 0.2h0.2l0.1 0.5c0.1 0.3 0.1 0.5 0.1 0.5 0 0.1-0.1 0-0.2-0.1zM21.4 14.2c0.1 0 1.4-1.2 1.4-1.3 0 0-0.5-0.5-1-1.1-0.6-0.6-1-1.1-1.1-1.1-0.1-0.1-0.1-0.1-0.2 0-0.3 0.8-0.9 2.8-0.9 2.8s0 0.1 0 0.1c-0.1 0.1 0 0.1 0.8 0.4 0.6 0.1 1 0.2 1 0.2zM19.8 13.3c0.1-0.1 0.8-2.2 0.8-2.4 0-0.1 0-0.1 0.1-0.1 0 0 0.1 0.4 0.2 0.8l0.2 0.8-0.1 0.1c-0.1 0.1-1.2 0.9-1.2 0.9-0.1 0.1-0.1 0 0-0.1zM16.6 5.9c0 0 0 0 0 0s0 0 0 0v0zM11.2 24.8c0 0 0.1 0 0 0 0.1 0 0.1 0 0 0v0zM16 0c-8.8 0-16 7.2-16 16s7.2 16 16 16 16-7.2 16-16-7.2-16-16-16zM26.3 19.3v0c-0.4 1.2-0.9 2.2-1.6 3.1v0c-0.6 0.7-1.2 1.4-1.9 2-1.7 1.4-3.8 2.2-6.1 2.4-2.4 0.2-5.1-0.5-7.2-2-2.4-1.7-3.9-4.2-4.4-7-0.5-3 0.3-6.2 2.2-8.6 0.3-0.4 1-1.1 1.4-1.5 1.3-1.1 2.9-1.9 4.6-2.4 0.9-0.2 1.8-0.3 2.6-0.3 2.1 0 4 0.6 5.6 1.6v0c1.6 0.9 3 2.4 3.9 4 1 1.7 1.4 3.5 1.4 5.3 0.1 1.2-0.1 2.3-0.5 3.4zM23.4 9.1c-0.2-0.3-0.8-0.8-1.1-1.1-1-0.8-1.8-1.2-3-1.7-0.8-0.3-1.6-0.4-2.6-0.5-0.2 0-0.4 0-0.7 0-0.9 0-1.8 0.1-2.5 0.3v0c-1.2 0.3-2.7 1-3.6 1.8-0.2 0.1-0.4 0.3-0.5 0.3-0.4 0.4-1.4 1.4-1.8 2-1.2 1.8-1.8 3.7-1.8 5.7 0 1.7 0.3 3.1 1.1 4.6v0.1c0.9 1.8 2.4 3.3 4.3 4.3 1.2 0.6 2.4 1 3.8 1.1 2.2 0.2 4.3-0.3 6.3-1.5 0.9-0.6 2.1-1.6 2.6-2.4 1.1-1.5 1.7-3 1.9-4.7 0.1-0.6 0.1-2.3 0-2.8-0.3-1.9-1.1-3.7-2.2-5l-0.2-0.5zM16.1 6.2v0h0.1c0.3 0 0.6 0 0.9 0.1 0.4 0 0.7 0.1 0.7 0.1h0.2c0.1 0 0.2 0.2 0.4 0.7 0.2 0.4 0.4 1 0.4 1h-0.2c-0.4 0.1-0.9 0.1-1.1 0.2-0.5 0.1-0.6 0.1-0.6 0s-0.6-1.2-0.8-1.6c-0.2-0.4-0.2-0.5 0-0.5zM15.3 6.2h0.2l0.2 0.4 0.1 0.1c0.4 0.6 0.9 1.7 0.9 1.8s-0.2 0.1-0.3 0.1c0 0-0.1-0.1-0.1-0.2l-0.1-0.1c-0.3-0.6-0.6-1.1-0.8-1.6-0.1-0.2-0.3-0.4-0.3-0.5 0 0 0.1 0 0.2 0zM13.7 6.4c0 0 0-0.1 0.2-0.1 0.3 0 0.5-0.1 0.9-0.1h0.1c0 0 0.1 0.1 0.1 0.2 0.3 0.5 0.9 2.2 0.8 2.3 0 0-0.1 0-0.1 0v0h-0.1l-0.2-0.4c-0.4-0.8-1-1.8-1.1-1.7 0 0 0 0.1 0.1 0.2 0.2 0.5 0.4 1.7 0.4 2 0 0.1 0 0.1-0.1 0.2 0 0-0.1 0-0.1 0s-0.1-0.1-0.3-0.3c-0.1-0.2-0.2-0.3-0.2-0.3s0 0.2-0.1 0.4-0.1 0.5-0.2 0.4c0 0 0-0.4-0.1-0.8 0-0.4 0-0.8-0.1-0.8 0-0.1 0-0.1 0-0.1s0.2 0.1 0.3 0.3c0.1 0.1 0.3 0.3 0.3 0.2 0.1 0.1-0.3-1-0.5-1.6zM13.3 10.2c0.1-0.1 0.1-0.2 0.3-0.3h-0.1c0.5-0.2 1-0.4 1.6-0.6 0.9-0.2 1.9-0.5 3.1-0.7s1.5-0.3 1.7-0.1v0c0.1 0 0.1 0.1 0.2 0.2s0.3 0.6 0.3 0.7c0 0-0.2 0.1-0.5 0.1-2.2 0.3-4 0.9-5.4 1.6v0c-0.3 0.2-0.6 0.3-0.9 0.6-0.2 0.2-0.2 0.2-0.3-0.6-0.1-0.7-0.1-0.7 0-0.9zM16.7 16.2c0.4 0.4 1.1 0.7 1.8 1h0.1c0.1 0 0.3 0.1 0.3 0.1s-1 1.3-1.1 1.3-0.4-0.2-0.8-0.5c-0.4-0.3-1.3-1.1-1.6-1.5-0.8-1.1-1.4-2.2-1.8-3.6l-0.2-0.8 0.2-0.2c0.5-0.5 1.9-1.1 3.2-1.5 0.2-0.1 0.2-0.1 0.2 0 0.1 0.1 0.3 0.7 0.3 1.1 0 0.3 0.1 0.6 0.1 0.9v0.9h-0.3c-0.2 0-0.5-0.2-1.7-0.7-0.7-0.3-1.3-0.5-1.3-0.5s0.3 0.7 0.6 1.1c0.4 0.7 1.2 1.2 2.1 1.1 0.3 0 0.4 0 0.4 0 0.2 0.1 0.3 0.3 0.4 0.6 0.1 0.4 0.4 0.9 0.6 1.2 0.1 0.1 0.2 0.2 0.2 0.2s-0.1 0-0.3 0c-0.6-0.1-1.7-0.6-2-0.8 0-0.2 0.3 0.3 0.6 0.6zM16.3 13.8c-0.2 0-0.4-0.1-0.4-0.2s0-0.1 0.1-0.1v0c0.1 0 0.2 0.1 0.3 0.1 0.2 0.2 0.2 0.2 0 0.2zM13 12c0 0-0.2-0.1-0.3-0.2-0.4-0.2-0.8-0.5-1.2-0.6-0.2-0.1-0.3-0.1-0.3-0.1 0-0.1 0.4-0.4 0.7-0.5s0.7-0.3 0.8-0.3h0.2v0.4c0 0.2 0 0.3 0.1 0.3 0 0 0.1 0.1 0.1 0.3-0.1 0.3-0.1 0.7-0.1 0.7zM11.3 7.4c0.3-0.2 0.5-0.4 0.6-0.4 0.3-0.2 0.5-0.2 0.7-0.2 0 0 0.1 0 0.1 0.3v0.2c0 0.2 0 0.5 0 0.7v0.4h-1c0 0-0.1 0-0.1 0-0.5 0-1.1 0.1-1.5 0.2-0.2 0-0.4 0-0.5 0 0 0 0 0-0.1 0 0.1-0.2 0.9-0.7 1.8-1.2zM8.1 14.4c0.2-0.2 0.7-0.8 1-1 0.6-0.5 1.3-0.8 2.2-1l0.3-0.1h0.1l-0.3-0.1-0.1-0.1c-0.5-0.2-1.7-0.5-2.4-0.6-0.1 0-0.2 0-0.3-0.1-0.1 0 1.1-0.7 1.8-1h-0.1c0.5-0.2 1.1-0.4 1.8-0.6 0.6-0.1 0.8-0.2 0.8-0.1 0 0-0.1 0.1-0.2 0.1h-0.1c-0.5 0.1-0.9 0.3-1.3 0.5v0c-0.4 0.2-0.7 0.4-1 0.6l-0.2 0.2 0.3 0.1c0.5 0.1 1.4 0.5 1.9 0.7 0.3 0.2 0.7 0.4 0.7 0.5 0 0-0.1 0-0.2 0.1-0.5 0.1-1.4 0.3-2.1 0.5-0.8 0.3-1.8 0.8-2.4 1.3-0.4 0.3-0.4 0.3-0.2 0.1zM8.6 14.9c0.2-0.3 0.8-0.7 1.2-1 0.7-0.5 1.8-0.9 2.6-1 0.4-0.1 0.5-0.1 0.2 0.1-0.1 0.1-0.3 0.1-0.3 0.1v0c-0.1 0.1 0.1 0.1 0.6 0.1 0.6 0 0.6 0 0.6 0.2 0 0.1 0 0.1-0.4 0.1-0.2 0-0.5 0-0.7 0.1-0.3 0-0.7 0.2-0.7 0.3 0 0 0.2 0.1 0.4 0.1 0.6 0.1 1.2 0.2 1.7 0.5 0.2 0.1 0.3 0.2 0.6 0.8 0.9 1.5 1 1.8 1.3 2.2v0c0.3 0.4 0.7 0.8 1 1.2l0.7 0.7v0.6c0 0.2 0 0.4 0 0.4s0 0.1-0.5-0.8l-0.1-0.1c-0.3-0.6-0.7-1.1-1.1-1.6-0.1-0.2-0.3-0.4-0.3-0.4s0-0.1-0.1-0.1c0 0-0.1-0.1-0.3-0.3-0.3-0.4-1.1-1.1-1.6-1.4-0.3-0.2-0.7-0.5-0.7-0.5s-0.1-0.1-0.3-0.1-0.8-0.3-1-0.4c-0.2-0.1-0.7-0.1-1 0v0c-0.5 0.1-0.9 0.2-1.3 0.5-0.2 0.1-0.3 0.2-0.3 0.2s-0.3 0.2-0.6 0.4c-0.1-0.1-0.2-0.1-0.2-0.1 0-0.1 0.3-0.5 0.6-0.8zM9.9 21.2v0c-0.7-0.2-1.2-0.6-1.6-1.3-0.2-0.4-0.3-0.8-0.3-1.3 0-0.9 0.2-1.5 0.7-2.2 0.4-0.5 1.2-0.9 1.8-1 0.3 0 0.8 0 1 0.1v0c0.3 0.1 0.6 0.2 0.8 0.3s0.8 0.7 0.9 0.9c0.1 0.1 0.1 0.2-0.3-0.2-0.3-0.2-0.8-0.5-1.1-0.6-0.2-0.1-0.3-0.1-0.5-0.1h-0.2c-0.4 0-0.5 0-0.8 0.1-1.6 0.5-2.4 2.6-1.6 4 0.3 0.4 0.7 0.8 1.2 1.1 0.4 0.3 0.4 0.3 0 0.2zM12.7 18.5c0 0.2 0 0.2-0.2-0.3v0c-0.3-0.5-0.6-1-1-1.5-0.2-0.2-0.4-0.4-0.4-0.4s0.4 0.1 0.6 0.2v0 0c0.5 0.2 0.8 0.6 0.9 1.1 0.1 0.4 0.1 0.6 0.1 0.9zM10.4 20.4c-0.6-0.3-1-0.9-1.1-1.8 0-0.2 0-0.3 0-0.4 0.1-0.2 0.1-0.2 0.2 0.2v0c0.3 0.7 0.7 1.3 1.2 1.9 0.1 0.1 0.2 0.2 0.2 0.3 0 0-0.2 0-0.5-0.2zM10.9 18.9c-0.5-0.5-0.9-1-1.1-1.6-0.1-0.4-0.1-0.4 0-0.3v0 0c0.1 0.1 0.2 0.1 0.3 0.2v0c0.7 0.5 1.2 1.1 1.6 1.9 0.1 0.3 0.2 0.6 0.2 0.6v0 0 0c0 0.1-0.6-0.4-1-0.8zM15.8 24.5v0c-0.1 0-0.1 0-0.2 0-0.2 0-0.3-0.1-1 0-0.4 0-0.6-0.1-0.6-0.2 0 0 0.1-0.3 0.4-0.7 0.1-0.1 0.1-0.2 0-0.3 0 0-0.1-0.1-0.6-0.1-0.8 0-0.8-0.1-0.2-0.5 0.2-0.2 0.5-0.4 0.5-0.5 0 0 0-0.1 0-0.1v-0.1h-0.5c-0.5 0-0.6 0-0.4-0.3 0-0.1 0.1-0.1 0-0.1 0 0-0.2 0-0.5 0-0.4 0-0.8 0-0.8-0.1 0 0 0.2-0.1 0.4-0.2 0.4-0.1 0.9-0.4 1.2-0.5v0c0.1-0.1 0.3-0.2 0.4-0.4 0.3-0.3 0.4-0.3 0.5-0.2v0c0.1 0.1 0.1 0.3 0.1 0.6v0.5l0.3 0.3c0.1 0.1 0.1 0.1 0.1 0.2 0.1 0.1 0.1 0.6 0 0.8 0 0.1 0 0.2 0.1 0.3 0.7 1.3 0.8 1.6 0.8 1.6v0zM16.5 21.3v0 0h-0.2l-0.5 0.5v-0.1c0-0.1-0.1-0.6-0.1-1.1 0-0.6-0.1-1-0.1-1.1 0 0-0.1 0.1-0.3 0.2s-0.3 0.3-0.3 0.3c0 0 0 0 0-0.1 0-0.2 0.3-2.4 0.3-2.5v0 0 0c0 0 0.1 0.3 0.1 0.7s0.1 0.7 0.1 0.8c0 0 0 0.1 0 0.1s0.1-0.1 0.2-0.3c0.1-0.2 0.2-0.3 0.2-0.3s0 0.1 0.1 1.1c0 0.5 0.1 0.8 0.1 0.8s0.1-0.2 0.1-0.4c0.1-0.2 0.1-0.4 0.1-0.4s1 2.8 1 2.9c0 0.1-0.1 0-0.4-0.5-0.2-0.3-0.4-0.5-0.4-0.6zM22.6 21.7c-0.1 0.1-0.1 0.1 0 0 0-0.1 0-0.2 0-0.2 0-0.1 0-0.1-0.1-0.1-0.1 0.1-0.2 0.3-0.3 0.5-0.1 0.6-0.3 0.9-0.7 1.4-0.5 0.5-0.9 0.8-1.7 1.1-0.3 0.1-0.7 0.4-1.2 0.7l-0.4 0.2-0.3-0.3c-0.3-0.3-0.6-0.5-0.8-0.5-0.1 0-0.2-0.1-0.2-0.1s0.1-0.1 0.1-0.2v0c0.1-0.1 0.1-0.2 0.2-0.3 0-0.2 0.1-0.2 0.2-0.3s0.3 0 0.8 0.2c0.2 0.1 0.4 0.2 0.4 0.2s0-0.1 0-0.2c0-0.1 0-0.2 0.1-0.7 0.2-0.6 0.3-0.9 0.2-0.9-0.1-0.1-0.1 0-0.3 0.7-0.1 0.3-0.2 0.6-0.3 0.6 0 0-0.1 0-0.2-0.1s-0.2-0.1-0.1-0.2c0.1-0.4 0.2-1.3 0.1-1.6 0-0.2-0.1-0.1-0.1 0.2-0.1 0.6-0.2 1.1-0.2 1.1s-0.1 0-0.1 0v0l-0.1-0.1v-3.3l0.8-1 0.2-0.2c1.3-1.6 1.6-2.1 1.9-2.4 0.2-0.2 0.3-0.4 0.3-0.4v0c0.1 0 0.1 0 0.2 0.1 0.2 0.1 0.3 0.3 0.3 0.6 0 0.2-0.1 0.3-0.2 0.7-0.1 0.2-0.3 0.7-0.5 0.9-0.3 0.4-0.4 0.7-0.4 0.7v0c0.1-0.1 0.3-0.2 0.4-0.4 0.4-0.4 0.7-0.6 0.8-0.5 0.2 0.1 0.2 0.4 0.1 0.7-0.1 0.2-0.2 0.6-0.4 0.9-0.1 0.2-0.1 0.2 0.1 0.1l0.1-0.1c0.4-0.2 0.6-0.2 0.7-0.1 0.1 0.2 0.1 0.8-0.1 1.3 0 0.1-0.1 0.2 0 0.2s0.1 0 0.2-0.1v0c0.1-0.1 0.3-0.1 0.4-0.2 0.4-0.1 0.5 0.1 0.6 0.6-0.1 0.4-0.2 0.7-0.5 0.8zM24.1 16.1c-0.1 0.1-0.1 0.1-0.2 0.1-0.2 0.1-2.7 0.6-2.7 0.6v0c0-0.1 0-0.1 0.1-0.2 0.2-0.4 0.2-0.8 0-1.1-0.1-0.2-0.4-0.4-0.6-0.4-0.1 0-0.1 0-0.7 0.8-0.3 0.4-0.6 0.8-0.7 0.8 0 0-0.3-1.4-0.7-3.1-0.5-2.1-0.7-3.1-0.7-3.1v0c0-0.1 0.1-0.2 0.2-0.3 0.2-0.1 4-1 4.1-1v0c0.1 0 0.2 0 0.2 0.1v0c0.1 0 0.1 0.1 0.1 0.1s0.4 1.5 0.8 3.1c1 3.4 1 3.4 0.8 3.6z"></path>
</svg>
