<!-- Generated by IcoMoon.io -->
<svg version="1.1" xmlns="http://www.w3.org/2000/svg" width="32" height="32" viewBox="0 0 32 32">
<title>krb</title>
<path fill="#00aeef" d="M16 32c-8.837 0-16-7.163-16-16s7.163-16 16-16 16 7.163 16 16-7.163 16-16 16zM15.76 14.706v-4.29h-1.988v4.322h-1.462v-8.738h-2.81v20h2.81v-9.133h1.462v3.746h1.989v-3.73c0.326 0.021 0.6 0.104 0.815 0.244 0.216 0.14 0.416 0.374 0.6 0.702l3.562 7.35c0.31 0.546 0.721 0.821 1.231 0.821h2.531l-4.346-8.675c-0.29-0.51-0.6-0.904-0.926-1.185-0.339-0.286-0.749-0.499-1.2-0.609l-0.020-0.004c0.31-0.109 0.594-0.27 0.852-0.483 0.252-0.213 0.479-0.488 0.679-0.826l4.514-8.218h-2.3c-0.262 0-0.5 0.073-0.7 0.213-0.207 0.153-0.379 0.342-0.51 0.557l-0.005 0.009-3.625 6.987c-0.163 0.312-0.337 0.54-0.52 0.675-0.178 0.131-0.391 0.224-0.623 0.264l-0.009 0.001z"></path>
</svg>
