<!-- Generated by IcoMoon.io -->
<svg version="1.1" xmlns="http://www.w3.org/2000/svg" width="32" height="32" viewBox="0 0 32 32">
<title>luna</title>
<path fill="#172852" d="M16 0c-8.8 0-16 7.2-16 16s7.2 16 16 16 16-7.2 16-16-7.2-16-16-16zM11.9 4.4c2.5-0.9 5.2-0.9 7.8-0.2 3.3 1 6 3.5 7.5 6.6 0.4 0.9 0.8 1.8 0.8 2.8-1.8-1.1-3.9-1.8-5.9-2.4-3.2-1.2-6.6-2-9.7-3.6-0.7-0.4-1.6-0.9-1.8-1.7-0.1-0.8 0.7-1.2 1.3-1.5zM14.3 28.2c-3.4-0.4-6.6-2.5-8.5-5.3-2.2-3.2-2.7-7.4-1.4-11 0.7-1.9 1.9-3.7 3.5-5.1 0.4 3.3 1.8 6.5 4.2 9 2.8 2.9 6.8 4.7 10.9 4.6 1.6 0.1 3.2-0.3 4.8-0.6-1.6 5.6-7.8 9.3-13.5 8.4zM25.7 15.9c-1.3-1.1-2.7-2.4-3.4-4 2 0.6 4 1.3 5.8 2.4 0.1 1.1 0.2 2.2 0 3.3-0.9-0.4-1.6-1.1-2.4-1.7z"></path>
</svg>
