<!-- Generated by IcoMoon.io -->
<svg version="1.1" xmlns="http://www.w3.org/2000/svg" width="32" height="32" viewBox="0 0 32 32">
<title>maid</title>
<path fill="#5592d7" d="M16 32c-8.837 0-16-7.163-16-16s7.163-16 16-16 16 7.163 16 16-7.163 16-16 16zM9.291 19.333l10.955 6.308c2.263-1.282 3.394-1.692 3.394-5.436v-12.615c-2.263-1.282-3.189-2.052-6.429-0.205l-10.954 6.307c0 2.564-0.206 3.744 3.034 5.641zM17.525 14.225v2.854l-2.488-1.427 2.488-1.427z"></path>
<path fill="#5592d7" opacity="0.402" d="M17.52 20.205l-11.263-6.513 10.954-6.307c3.24-1.847 4.166-1.077 6.429 0.205l-11.263 6.513 5.143 2.974v3.128z"></path>
<path fill="#5592d7" opacity="0.8" d="M20.246 12.667v12.973l-10.956-6.307c-3.24-1.897-3.034-3.077-3.034-5.64l11.263 6.512v-5.949l2.726-1.59z"></path>
</svg>
