<!-- Generated by IcoMoon.io -->
<svg version="1.1" xmlns="http://www.w3.org/2000/svg" width="32" height="32" viewBox="0 0 32 32">
<title>mana</title>
<path fill="#ff7757" d="M11.3 9.5l-10.2 12.3c-0.7-1.8-1.1-3.8-1.1-5.8 0-8.8 7.2-16 16-16s16 7.2 16 16c0 4.9-2.2 9.3-5.6 12.2h-20.8c-0.9-0.8-1.7-1.6-2.4-2.6h18.3v-6.9l5.8 6.9h1.6l-7.3-8.8-2 2.4c-0.2 0-8.3-9.7-8.3-9.7zM21.5 6.4c-2.2 0.1-4 1.9-3.9 4.1 0.1 2.1 1.8 3.8 3.9 3.9 2.2-0.1 4-1.9 3.9-4.1-0.1-2.1-1.8-3.8-3.9-3.9zM11.3 3.5c-1.1 0-2 0.8-2.1 1.9 0 1.1 0.8 2 1.9 2.1 0 0 0.1 0 0.1 0 1.1 0 2-0.9 1.9-2.1 0.2-1-0.7-1.9-1.8-1.9zM7.3 29.4h17.5c-2.7 1.7-5.7 2.6-8.8 2.6s-6.1-0.9-8.7-2.6zM18.7 20.2l-3.5 4.2h-12.8c-0.5-0.8-0.9-1.7-1.3-2.6h10.2v-10.4l7.4 8.8z"></path>
</svg>
