<!-- Generated by IcoMoon.io -->
<svg version="1.1" xmlns="http://www.w3.org/2000/svg" width="32" height="32" viewBox="0 0 32 32">
<title>mcap</title>
<path fill="#033b4a" d="M16 32c-8.837 0-16-7.163-16-16s7.163-16 16-16 16 7.163 16 16-7.163 16-16 16zM15.532 7.064c-0.286 0.078-0.542 0.229-0.796 0.373-2.246 1.28-4.505 2.535-6.76 3.798-0.575 0.321-0.958 0.925-0.958 1.619 0 0.018 0 0.036 0.001 0.054l-0-0.003c-0.003 3.246 0.021 6.492-0.017 9.737-0.022 0.197 0.161 0.37 0.36 0.352 0.99 0.002 1.98 0.009 2.97-0.003 0.235 0.004 0.355-0.242 0.332-0.444 0.023-2.67 0.015-5.339 0.020-8.008 0.007-0.288 0.067-0.6 0.292-0.805 0.346-0.316 0.779-0.514 1.182-0.746 0.403-0.21 0.784-0.464 1.21-0.63 0.195-0.070 0.455-0.126 0.618 0.041 0.17 0.191 0.166 0.462 0.18 0.7 0.014 1.36-0.003 2.72 0 4.078 0.012 0.238 0.005 0.5 0.146 0.707 0.156 0.209 0.444 0.223 0.684 0.249 0.566 0.028 1.134 0.007 1.702 0.013 0.314-0.005 0.675-0.009 0.914-0.243 0.234-0.238 0.224-0.594 0.225-0.9-0.013-0.521-0.021-1.135-0.021-1.751 0-0.749 0.011-1.495 0.033-2.238l-0.003 0.109c0.022-0.26 0.020-0.565 0.225-0.758 0.185-0.15 0.44-0.065 0.636 0.013 0.518 0.23 0.989 0.546 1.489 0.808 0.305 0.168 0.646 0.313 0.862 0.596 0.213 0.267 0.276 0.615 0.277 0.945-0.027 2.637-0.062 5.275 0.030 7.91-0.022 0.213 0.18 0.39 0.39 0.358 0.96 0.001 1.922 0.005 2.883-0.001 0.244 0.022 0.39-0.223 0.356-0.438-0.004-3.095 0.003-6.19 0.005-9.284 0.012-0.934-0.542-1.839-1.375-2.28-4.549-2.441-6.662-3.647-8.765-4.869l2.301 1.234c-0.48-0.29-1.072-0.457-1.629-0.294z"></path>
</svg>
