<!-- Generated by IcoMoon.io -->
<svg version="1.1" xmlns="http://www.w3.org/2000/svg" width="32" height="32" viewBox="0 0 32 32">
<title>mln</title>
<path fill="#0b1529" d="M8.627 20.124l1.36-0.786-0.178-0.309-1.342 0.775v-7.851l6.82 4.042v11.56l0.713 0.445 0.714-0.445v-11.56l6.819-4.042v7.852l-1.343-0.776-0.178 0.31 1.36 0.785-5.27 3.092v1.729l6.898-4.060v-10.59l-9-5.295-9 5.295v10.59l6.899 4.060v-1.73l-5.272-3.091zM15.802 6.814v1.581h0.357v-1.604l6.66 3.908-6.819 4.043-6.82-4.043 6.622-3.885zM16 32c-8.837 0-16-7.163-16-16s7.163-16 16-16 16 7.163 16 16-7.163 16-16 16zM15.802 9.406v1.657h0.357v-1.657h-0.357zM15.802 12.074v1.657l0.178 0.081 0.179-0.080v-1.658h-0.357zM21.362 18.524l-1.435-0.829-0.179 0.31 1.436 0.828 0.178-0.309zM19.097 17.19l-1.436-0.828-0.159 0.114-0.020 0.195 1.436 0.828 0.179-0.309zM10.637 18.524l0.179 0.31 1.435-0.83-0.179-0.309-1.435 0.83zM12.903 17.19l0.178 0.31 1.435-0.83-0.019-0.194-0.159-0.114-1.435 0.828z"></path>
</svg>
