<!-- Generated by IcoMoon.io -->
<svg version="1.1" xmlns="http://www.w3.org/2000/svg" width="32" height="32" viewBox="0 0 32 32">
<title>mona</title>
<path fill="#dec799" d="M16 32c-8.837 0-16-7.163-16-16s7.163-16 16-16 16 7.163 16 16-7.163 16-16 16zM23.53 13.414l-1.425-6.414-2.797 4.414c-0.994-0.25-2.134-0.394-3.309-0.394s-2.315 0.144-3.405 0.414l0.097-0.020-2.789-4.414-1.43 6.414c-1.535 1.228-2.472 2.833-2.472 4.595 0 3.86 4.476 6.989 9.997 6.989s9.997-3.13 9.997-6.989c-0.001-1.762-0.93-3.367-2.465-4.595zM10.442 16.35h-0.666l1.627-1.876h1.184l-2.145 1.876zM15.946 20.934l-2.766-4.872 0.683-0.39 0.617 1.085h3.021l0.644-1.090 0.676 0.402-2.875 4.865zM21.559 16.35l-2.146-1.876h1.192l1.625 1.876h-0.671zM15.959 19.365l1.075-1.82h-2.108l1.033 1.82z"></path>
</svg>
