<!-- Generated by IcoMoon.io -->
<svg version="1.1" xmlns="http://www.w3.org/2000/svg" width="32" height="32" viewBox="0 0 32 32">
<title>mth</title>
<path fill="#104fca" d="M16 0c-8.8 0-16 7.2-16 16s7.2 16 16 16 16-7.2 16-16-7.2-16-16-16zM25 19.9c0 2.3-1.9 4.1-4.2 4.1v0c0 0 0 0 0 0v-7.3l-1.2 2.1c-0.8 1.1-2.1 1.8-3.5 1.8 0 0 0 0 0 0s0 0 0 0c-0.7 0-1.3-0.2-1.9-0.4l-0.3-0.2c-0.4-0.1-0.9-0.5-1.4-1.3l-1.2-2.1v7.4c-1.8 0-3.3-1-3.9-2.5-0.3-0.5-0.4-1-0.4-1.6v0-10.3c0.3-0.1 0.5-0.3 0.8-0.3 1.3-0.4 2.8-0.2 3.9 0.6 0.4 0.3 0.8 0.7 1.1 1.2l3.2 5.4 3.2-5.4c1.2-2 3.8-2.6 5.8-1.5v10.3z"></path>
</svg>
