<!-- Generated by IcoMoon.io -->
<svg version="1.1" xmlns="http://www.w3.org/2000/svg" width="32" height="32" viewBox="0 0 32 32">
<title>mth</title>
<path fill="#104fca" d="M16 32c-8.837 0-16-7.163-16-16s7.163-16 16-16 16 7.163 16 16-7.163 16-16 16zM25 19.899v-10.34c-2.025-1.133-4.615-0.46-5.784 1.5l-3.219 5.4-3.213-5.39c-1.169-1.962-3.759-2.634-5.784-1.501v10.33c0 2.267 1.896 4.102 4.234 4.102v-7.33l1.23 2.063c0.505 0.74 0.977 1.166 1.416 1.277l0.22 0.123c0.553 0.274 1.203 0.435 1.892 0.435 0.003 0 0.006 0 0.009 0h-0c0.007 0 0.015 0 0.024 0 1.451 0 2.732-0.724 3.503-1.83l0.009-0.014 1.229-2.060v7.336c2.339 0 4.234-1.836 4.234-4.101z"></path>
<path fill="#104fca" opacity="0.5" d="M7 9.568l4.234 7.103v7.329c-2.338 0-4.234-1.836-4.234-4.101z"></path>
<path fill="#104fca" opacity="0.6" d="M20.765 16.663l4.234-7.099v10.336c0.001 2.264-1.895 4.1-4.234 4.1z"></path>
<path fill="#104fca" opacity="0.805" d="M15.997 16.458l-2.117 3.552c-0.439-0.11-0.911-0.536-1.416-1.277l-5.464-9.165c2.025-1.133 4.615-0.46 5.784 1.5z"></path>
</svg>
