<!-- Generated by IcoMoon.io -->
<svg version="1.1" xmlns="http://www.w3.org/2000/svg" width="32" height="32" viewBox="0 0 32 32">
<title>mzc</title>
<path fill="#ffaa05" d="M16 32c-8.837 0-16-7.163-16-16s7.163-16 16-16 16 7.163 16 16-7.163 16-16 16zM16.811 11.567c0.89-0.603 1.987-0.963 3.169-0.963 0.005 0 0.011 0 0.016 0h-0.001c1.85 0 4.367 1.134 4.367 6.035 0 2.245-0.809 3.912-2.428 5-0.053 0.035-0.088 0.095-0.088 0.162 0 0.043 0.014 0.082 0.037 0.114l-0-0.001c0.038 0.052 0.099 0.085 0.168 0.085 0.013 0 0.026-0.001 0.039-0.004l-0.001 0c1.046-0.192 3.912-1.837 3.912-6.094 0-3.2-1.486-6.55-4.23-6.55-1.792 0-3.545 0.588-5.259 1.764-0.896-1.411-2.186-2.117-3.87-2.117-2.751 0-6.641 2.605-6.641 7.124 0 2.058 0.54 3.888 1.622 5.49l1.38-1.604c-0.798-1.217-1.198-2.699-1.198-4.445 0-2.62 1.956-5.255 4.428-5.255 1.29 0 2.3 0.397 3.033 1.19v1.93h-1.486l-1.001 1.148h2.487v1.443h-0.789l-0.97 1.148h1.759v4.68l1.273-1.736v-2.944h0.789l0.758-1.148h-1.547v-1.443h1.486l1.001-1.148h-2.214v-1.863z"></path>
</svg>
