<!-- Generated by IcoMoon.io -->
<svg version="1.1" xmlns="http://www.w3.org/2000/svg" width="32" height="32" viewBox="0 0 32 32">
<title>nas</title>
<path fill="#222" d="M16 32c-8.837 0-16-7.163-16-16s7.163-16 16-16 16 7.163 16 16-7.163 16-16 16zM5 16.002c0.133 0.051 0.206 0.082 0.281 0.108 2.040 0.693 4.077 1.39 6.12 2.073 0.225 0.076 0.351 0.2 0.453 0.406 1.217 2.485 2.442 4.967 3.666 7.449 0.15 0.304 0.303 0.607 0.48 0.962 0.045-0.116 0.068-0.17 0.087-0.226 0.691-2.030 1.387-4.058 2.066-6.092 0.074-0.255 0.254-0.458 0.487-0.563l0.006-0.002c2.632-1.288 5.259-2.588 7.887-3.885l0.467-0.237c-0.141-0.050-0.217-0.078-0.294-0.104-2.040-0.693-4.080-1.383-6.115-2.085-0.148-0.051-0.323-0.161-0.389-0.293-1.356-2.724-2.699-5.455-4.044-8.184-0.048-0.097-0.1-0.193-0.17-0.329-0.048 0.126-0.079 0.2-0.105 0.275-0.696 2.050-1.394 4.1-2.082 6.152-0.056 0.187-0.188 0.336-0.36 0.412l-0.004 0.002c-1.761 0.86-3.519 1.729-5.277 2.596-1.034 0.51-2.066 1.024-3.16 1.565zM12.73 18.655l4.762 1.609-1.616 4.773-3.145-6.382zM6.977 15.886l6.382-3.153-1.618 4.77-4.764-1.617zM13.008 17.91c0.424-0.211 0.811-0.405 1.2-0.597 1.866-0.921 3.731-1.846 5.603-2.757 0.082-0.037 0.178-0.058 0.28-0.058 0.070 0 0.138 0.010 0.202 0.030l-0.005-0.001c1.492 0.492 2.979 1 4.466 1.505 0.065 0.022 0.128 0.048 0.247 0.094-0.545 0.272-1.043 0.522-1.543 0.769-1.756 0.867-3.512 1.736-5.273 2.595-0.123 0.060-0.301 0.095-0.425 0.054-1.54-0.51-3.075-1.035-4.61-1.557-0.036-0.012-0.067-0.036-0.142-0.076zM19.507 13.845l-6.87 3.392 3.48-10.267c1.144 2.32 2.26 4.581 3.39 6.875z"></path>
</svg>
