<!-- Generated by IcoMoon.io -->
<svg version="1.1" xmlns="http://www.w3.org/2000/svg" width="32" height="32" viewBox="0 0 32 32">
<title>nexo</title>
<path fill="#1a4199" d="M5 10.16l5.485 3.147v0.012l10.923 6.31v-6.313l-5.468-3.156-5.256-3.033c-0.060-0.035-0.133-0.056-0.21-0.056s-0.15 0.021-0.212 0.057l0.002-0.001-5.264 3.031zM10.485 13.327v6.319l10.711 6.18c0.061 0.034 0.133 0.053 0.21 0.053s0.149-0.020 0.212-0.055l-0.002 0.001 5.265-3.034-2.993-1.73-2.48-1.427-10.923-6.308zM23.888 21.062l3.004 1.73v-12.389c-0.001-0.158-0.089-0.295-0.218-0.366l-0.002-0.001-5.264-3.036v12.63l2.48 1.432zM16 32c-8.837 0-16-7.163-16-16s7.163-16 16-16 16 7.163 16 16-7.163 16-16 16zM5 10.16v12.387c0 0.158 0.088 0.296 0.218 0.367l0.002 0.001 5.265 3.036v-6.305l-0.020-0.011v-6.32l0.020 0.012v-0.008l-0.020-0.012v0.008l-5.465-3.155z"></path>
</svg>
