<!-- Generated by IcoMoon.io -->
<svg version="1.1" xmlns="http://www.w3.org/2000/svg" width="32" height="32" viewBox="0 0 32 32">
<title>nlc2</title>
<path fill="#f28f01" d="M18.151 13.719l1.842-3.743c0.57-1.32 1.222-2.146 1.955-2.476h-5.948c0.543 0.193 0.815 0.495 0.815 0.908 0 0.116-0.202 0.614-0.606 1.495zM15.235 19.647l-1.904-3.815c-0.452 0.908-0.947 1.9-1.487 2.974-1.602 3.493-3.19 5.391-4.766 5.694h14.585l2.852-4.374c-0.815 0.908-2.431 1.362-4.848 1.362h-5.337zM16 32c-8.837 0-16-7.163-16-16s7.163-16 16-16 16 7.163 16 16-7.163 16-16 16zM5 20.25h4.604l3.585-7.262 3.626 7.262h4.237c-0.082-0.055-0.122-0.193-0.122-0.413 0-1.118 4.033-10.728 6.070-11.264h-4.807l-3.912 7.922-4.033-7.922h-4.644c0.597 0.44 0.896 0.908 0.896 1.403 0 2.102-4.319 9.573-5.5 10.274z"></path>
</svg>
