<!-- Generated by IcoMoon.io -->
<svg version="1.1" xmlns="http://www.w3.org/2000/svg" width="32" height="32" viewBox="0 0 32 32">
<title>nlg</title>
<path fill="#2ab0fd" d="M16 32c-8.837 0-16-7.163-16-16s7.163-16 16-16 16 7.163 16 16-7.163 16-16 16zM25.515 14.804c-1.518 0.022-7.748 0.008-9.344 0.017-0.059 0-0.166 0.11-0.167 0.169-0.012 0.67-0.013 1.339 0 2.008 0.002 0.063 0.117 0.178 0.18 0.178 2.394 0.009 4.788 0.007 7.183 0.014 0.043 0 0.13 0.095 0.124 0.133-0.643 3.832-4.157 6.577-8.035 6.285-4.278-0.323-7.486-4.068-7.035-8.317 0.334-3.14 2.025-5.37 4.982-6.447 2.923-1.065 5.596-0.439 7.903 1.675 0.032 0.029 0.136 0.033 0.164 0.005 0.517-0.508 1.013-1.004 1.504-1.504l0.017-0.017c0.026-0.026 0.030-0.118 0.008-0.14-2.236-2.13-4.892-3.096-7.968-2.816-5.432 0.494-9.5 5.41-8.987 10.827 0.528 5.58 5.358 9.596 10.922 9.082 5.396-0.5 9.464-5.362 8.998-10.74-0.015-0.164-0.044-0.268-0.113-0.331-0.067-0.061-0.171-0.083-0.336-0.080z"></path>
</svg>
