<!-- Generated by IcoMoon.io -->
<svg version="1.1" xmlns="http://www.w3.org/2000/svg" width="32" height="32" viewBox="0 0 32 32">
<title>ocean</title>
<path fill="#ff4092" d="M16 0c-8.8 0-16 7.2-16 16s7.2 16 16 16 16-7.2 16-16-7.2-16-16-16zM6.5 22.5c-0.2 0-0.4-0.2-0.4-0.4s0.2-0.4 0.4-0.4 0.4 0.2 0.4 0.4c0 0.2-0.2 0.4-0.4 0.4zM6.5 20c-0.4 0-0.8-0.4-0.8-0.8s0.4-0.8 0.8-0.8 0.8 0.4 0.8 0.8c0 0.5-0.3 0.8-0.8 0.8zM6.5 16.8c-0.7 0-1.2-0.5-1.2-1.2s0.5-1.2 1.2-1.2 1.2 0.5 1.2 1.2c0 0.6-0.5 1.2-1.2 1.2zM6.5 12.8c-0.9 0-1.6-0.7-1.6-1.6s0.7-1.6 1.6-1.6 1.6 0.7 1.6 1.6c0 0.8-0.7 1.6-1.6 1.6zM11.2 24.9c-0.2 0-0.4-0.2-0.4-0.4s0.2-0.4 0.4-0.4 0.4 0.2 0.4 0.4c0.1 0.2-0.1 0.4-0.4 0.4zM11.2 22.4c-0.4 0-0.8-0.4-0.8-0.8s0.4-0.8 0.8-0.8c0.5 0 0.8 0.4 0.8 0.8s-0.4 0.8-0.8 0.8zM11.2 19.2c-0.7 0-1.2-0.5-1.2-1.2s0.5-1.2 1.2-1.2 1.2 0.5 1.2 1.2-0.5 1.2-1.2 1.2zM11.3 15.1c-0.9 0-1.6-0.7-1.6-1.6s0.7-1.6 1.6-1.6c0.9 0 1.6 0.7 1.6 1.6s-0.7 1.6-1.6 1.6zM11.3 10.4c-0.9 0-1.6-0.7-1.6-1.6s0.7-1.6 1.6-1.6c0.9 0 1.6 0.7 1.6 1.6 0 0.8-0.7 1.6-1.6 1.6zM16 27.3c-0.2 0-0.4-0.2-0.4-0.4s0.2-0.4 0.4-0.4 0.4 0.2 0.4 0.4c0.1 0.2-0.1 0.4-0.4 0.4zM16 24.8c-0.4 0-0.8-0.4-0.8-0.8s0.4-0.8 0.8-0.8 0.8 0.4 0.8 0.8c0 0.5-0.3 0.8-0.8 0.8zM16 21.5c-0.7 0-1.2-0.5-1.2-1.2s0.5-1.2 1.2-1.2 1.2 0.5 1.2 1.2-0.5 1.2-1.2 1.2zM16 17.5c-0.9 0-1.6-0.7-1.6-1.6s0.7-1.6 1.6-1.6 1.6 0.7 1.6 1.6c0 0.9-0.7 1.6-1.6 1.6zM16 12.8c-0.9 0-1.6-0.7-1.6-1.6s0.7-1.6 1.6-1.6 1.6 0.7 1.6 1.6c0 0.8-0.7 1.6-1.6 1.6zM16 8c-0.9 0-1.6-0.7-1.6-1.6s0.7-1.6 1.6-1.6 1.6 0.7 1.6 1.6c0 0.8-0.7 1.6-1.6 1.6zM20.8 24.9c-0.2 0-0.4-0.2-0.4-0.4s0.2-0.4 0.4-0.4 0.4 0.2 0.4 0.4-0.2 0.4-0.4 0.4zM20.8 22.4c-0.4 0-0.8-0.4-0.8-0.8s0.4-0.8 0.8-0.8c0.4 0 0.8 0.4 0.8 0.8 0 0.5-0.4 0.8-0.8 0.8zM20.8 19.2c-0.7 0-1.2-0.5-1.2-1.2s0.5-1.2 1.2-1.2 1.2 0.5 1.2 1.2c0 0.6-0.6 1.2-1.2 1.2zM20.8 15.1c-0.9 0-1.6-0.7-1.6-1.6s0.7-1.6 1.6-1.6c0.9 0 1.6 0.7 1.6 1.6s-0.7 1.6-1.6 1.6zM20.8 10.4c-0.9 0-1.6-0.7-1.6-1.6s0.7-1.6 1.6-1.6c0.9 0 1.6 0.7 1.6 1.6 0 0.8-0.7 1.6-1.6 1.6zM25.6 22.5c-0.2 0-0.4-0.2-0.4-0.4s0.2-0.4 0.4-0.4c0.2 0 0.4 0.2 0.4 0.4s-0.2 0.4-0.4 0.4zM25.6 20c-0.4 0-0.8-0.4-0.8-0.8s0.4-0.8 0.8-0.8c0.4 0 0.8 0.4 0.8 0.8 0 0.5-0.4 0.8-0.8 0.8zM25.6 16.8c-0.7 0-1.2-0.5-1.2-1.2s0.5-1.2 1.2-1.2c0.7 0 1.2 0.5 1.2 1.2 0 0.6-0.6 1.2-1.2 1.2zM25.5 12.8c-0.9 0-1.6-0.7-1.6-1.6s0.7-1.6 1.6-1.6 1.6 0.7 1.6 1.6c0 0.8-0.7 1.6-1.6 1.6z"></path>
</svg>
