<!-- Generated by IcoMoon.io -->
<svg version="1.1" xmlns="http://www.w3.org/2000/svg" width="32" height="32" viewBox="0 0 32 32">
<title>ok</title>
<path fill="#000" d="M16 32c-8.837 0-16-7.163-16-16s7.163-16 16-16 16 7.163 16 16-7.163 16-16 16zM27.986 14.669c-0.51-0.109-1.016-0.251-1.532-0.365-0.476-0.112-0.949-0.248-1.428-0.351-0.136-0.030-0.273-0.086-0.417-0.075-0.098 0.025-0.176 0.097-0.262 0.15l-4.707 2.952c-0.091 0.062-0.18 0.123-0.284 0.16 0.056-0.215 0.162-0.41 0.243-0.613l0.72-1.732c0.235-0.546 0.455-1.1 0.694-1.646 0.022-0.055 0.050-0.114 0.034-0.172-0.307-0.092-0.624-0.153-0.933-0.234-0.596-0.145-1.192-0.298-1.788-0.44-0.12-0.028-0.236-0.078-0.359-0.086-0.024 0.019-0.043 0.043-0.056 0.071l-0 0.001-3.533 8.47c-0.020 0.047-0.033 0.102-0.036 0.16l-0 0.001c0.195 0.067 0.401 0.1 0.599 0.153 0.701 0.17 1.4 0.346 2.099 0.518 0.13 0.030 0.259 0.084 0.395 0.084 0.076-0.1 0.106-0.226 0.156-0.34 0.346-0.816 0.68-1.637 1.028-2.453 0.058-0.136 0.1-0.278 0.172-0.404 0.123-0.016 0.237 0.037 0.354 0.062 0.818 0.203 1.64 0.398 2.456 0.607 0.222 0.060 0.473 0.142 0.598 0.356 0.1 0.15 0.059 0.342-0.011 0.496l-0.927 2.221c-0.047 0.123-0.125 0.24-0.131 0.376 0.217 0.073 0.443 0.109 0.663 0.17 0.676 0.17 1.356 0.334 2.032 0.501 0.134 0.030 0.265 0.081 0.401 0.084 0.031-0.040 0.058-0.087 0.079-0.136l0.001-0.004c0.416-1.005 0.836-2.004 1.254-3.006 0.1-0.251 0.211-0.499 0.264-0.763 0.032-0.113 0.051-0.242 0.051-0.376 0-0.248-0.064-0.481-0.177-0.684l0.004 0.007c-0.184-0.317-0.518-0.506-0.844-0.651-0.353-0.162-0.738-0.237-1.11-0.337 0.013-0.031 0.034-0.056 0.059-0.075l0-0c1.393-0.866 2.79-1.724 4.177-2.592v-0.064zM16.882 12.97c-0.028-0.38-0.232-0.707-0.53-0.902l-0.004-0.003c-0.273-0.197-0.59-0.314-0.902-0.428-0.347-0.122-0.82-0.258-1.302-0.373l-0.113-0.023c-1.035-0.25-2.068-0.512-3.104-0.763-0.606-0.175-1.365-0.339-2.14-0.457l-0.107-0.013c-0.245-0.006-0.49-0.017-0.735 0.005-0.35 0.050-0.661 0.186-0.921 0.385l0.005-0.003c-0.225 0.192-0.412 0.419-0.554 0.676l-0.006 0.012c-0.167 0.283-0.28 0.593-0.412 0.893l-1.629 3.915c-0.178 0.406-0.342 0.827-0.395 1.27-0.024 0.24 0.032 0.483 0.159 0.69 0.164 0.25 0.393 0.451 0.662 0.582 0.624 0.306 1.3 0.479 1.972 0.64 1.010 0.254 2.027 0.499 3.037 0.752 0.744 0.178 1.484 0.384 2.244 0.479 0.44 0.070 0.892 0.038 1.317-0.095 0.34-0.13 0.632-0.358 0.841-0.654 0.295-0.398 0.462-0.869 0.654-1.32 0.53-1.278 1.067-2.553 1.599-3.83 0.197-0.452 0.39-0.93 0.364-1.435zM13.262 13.861c0.020-0.147-0.085-0.273-0.208-0.337-0.25-0.136-0.535-0.186-0.807-0.256-0.722-0.18-1.444-0.358-2.17-0.534-0.121-0.037-0.261-0.058-0.406-0.058-0.081 0-0.16 0.007-0.237 0.019l0.008-0.001c-0.245 0.070-0.368 0.318-0.451 0.535-0.41 0.975-0.81 1.952-1.222 2.924-0.045 0.114-0.090 0.228-0.1 0.35 0 0.14 0.097 0.262 0.216 0.32 0.179 0.092 0.374 0.143 0.563 0.193l2.255 0.554c0.262 0.061 0.537 0.128 0.805 0.070 0.225-0.073 0.34-0.304 0.423-0.507l1.105-2.651c0.087-0.2 0.198-0.398 0.226-0.62z"></path>
</svg>
