<!-- Generated by IcoMoon.io -->
<svg version="1.1" xmlns="http://www.w3.org/2000/svg" width="32" height="32" viewBox="0 0 32 32">
<title>one</title>
<path fill="#86d7c9" d="M12.8 10.2v5.1c-1.3 0.2-2.5 0.5-3.7 1.1-0.5 0.2-1 0.5-1.4 0.9v-7c0-1.4 1.2-2.6 2.6-2.6 1.3 0 2.5 1.1 2.5 2.5zM19.2 16.7v5.1c0 1.4 1.2 2.6 2.6 2.6s2.6-1.2 2.6-2.6v-7c-0.4 0.3-0.9 0.6-1.4 0.9-1.3 0.4-2.5 0.8-3.8 1zM7.7 20.6v1.2c0 1.4 1.2 2.6 2.6 2.6s2.6-1.2 2.6-2.6v-4.6c-1 0.2-2 0.5-3 0.9-1.4 0.6-2.2 1.5-2.2 2.5zM32 16c0 8.8-7.2 16-16 16s-16-7.2-16-16 7.2-16 16-16 16 7.2 16 16zM26.1 10.2c0-2.4-2-4.4-4.4-4.4s-4.4 2-4.4 4.4v4.8c-0.5 0-0.9 0-1.4 0s-0.9 0-1.4 0v-4.9c0-2.4-2-4.3-4.4-4.3s-4.3 1.9-4.4 4.3v11.6c0 2.4 2 4.3 4.4 4.3s4.3-1.9 4.4-4.3v-4.7c0.5 0 0.9 0 1.4 0s0.9 0 1.4 0v4.9c0 2.4 2 4.3 4.4 4.3s4.3-1.9 4.4-4.3v-11.7zM21.8 7.7c-1.4 0-2.6 1.2-2.6 2.6v4.6c1-0.2 2-0.5 3-0.9 1.4-0.6 2.2-1.6 2.2-2.6v-1.2c-0.1-1.4-1.2-2.5-2.6-2.5z"></path>
</svg>
