<!-- Generated by IcoMoon.io -->
<svg version="1.1" xmlns="http://www.w3.org/2000/svg" width="32" height="32" viewBox="0 0 32 32">
<title>ong</title>
<path fill="#000" d="M16 32c-8.837 0-16-7.163-16-16s7.163-16 16-16 16 7.163 16 16-7.163 16-16 16zM15.943 26.311c5.74 0 10.088-3.846 10.99-8.878h-4.897c-0.732 2.672-3.004 4.628-6.035 4.628-3.009 0-5.31-1.97-6.073-4.628h-4.928c0.869 5.050 5.18 8.878 10.943 8.878zM15.971 10.054c1.396 0 2.527-1.131 2.527-2.527s-1.131-2.527-2.527-2.527v0c-1.396 0-2.527 1.131-2.527 2.527s1.131 2.527 2.527 2.527v0zM9.655 17.434h12.63c-0.006-3.594-2.633-6.577-6.345-6.577s-6.285 2.933-6.285 6.525v0.051z"></path>
</svg>
