<!-- Generated by IcoMoon.io -->
<svg version="1.1" xmlns="http://www.w3.org/2000/svg" width="32" height="32" viewBox="0 0 32 32">
<title>ost</title>
<path fill="#34445b" d="M16 32c-8.837 0-16-7.163-16-16s7.163-16 16-16 16 7.163 16 16-7.163 16-16 16zM15.937 10.222l2.010-3.136c0.098 0.017 0.21 0.026 0.325 0.026 1.121 0 2.030-0.909 2.030-2.030 0-0.942-0.641-1.734-1.511-1.963l-0.014-0.003c-0.124-0.027-0.266-0.042-0.412-0.042-1.121 0-2.030 0.909-2.030 2.030 0 0.457 0.151 0.878 0.405 1.217l-0.004-0.005-2.494 3.891c-4.048 0.41-7.181 3.8-7.181 7.922 0 0.277 0.014 0.55 0.042 0.819l-0.003-0.034c0.413 4.048 3.804 7.18 7.926 7.18 0.275 0 0.546-0.014 0.813-0.041l-0.034 0.003c4.049-0.412 7.181-3.803 7.181-7.926 0-0.275-0.014-0.546-0.041-0.813l0.003 0.034c-0.381-3.735-3.293-6.685-6.975-7.124l-0.038-0.004zM15.022 22.344c-0.001 0-0.003 0-0.004 0-2.331 0-4.22-1.889-4.22-4.22 0-0.001 0-0.002 0-0.003v0c0-0.001 0-0.003 0-0.004 0-2.331 1.889-4.22 4.22-4.22 0.001 0 0.003 0 0.004 0h-0c0 0 0.001 0 0.001 0 1.796 0 3.33 1.122 3.939 2.703l0.010 0.029c-0.451-0.577-1.147-0.944-1.929-0.944-0.566 0-1.087 0.192-1.501 0.515l0.005-0.004c-0.577 0.451-0.945 1.147-0.945 1.929 0 0.566 0.193 1.087 0.516 1.501l-0.004-0.005c0.451 0.576 1.146 0.943 1.927 0.943 0.778 0 1.471-0.364 1.918-0.931l0.004-0.005c-0.621 1.602-2.15 2.717-3.939 2.717-0.001 0-0.002 0-0.003 0h0z"></path>
</svg>
