<!-- Generated by IcoMoon.io -->
<svg version="1.1" xmlns="http://www.w3.org/2000/svg" width="32" height="32" viewBox="0 0 32 32">
<title>pay</title>
<path fill="#302c2c" d="M16 32c-8.837 0-16-7.163-16-16s7.163-16 16-16 16 7.163 16 16-7.163 16-16 16zM26.91 15.696c-0.058-0.116-0.13-0.215-0.215-0.3v0c-1.902-2.154-5.773-6.396-5.773-6.396l-4.917 5.378-4.98-5.327s-3.916 4.279-5.835 6.456c-0.25 0.246-0.25 0.69-0.026 0.952 0.997 1.136 5.894 6.536 5.894 6.536l4.94-5.414 4.906 5.419 5.917-6.546s0.125-0.13 0.152-0.217c0.058-0.18 0.016-0.376-0.063-0.541zM7.918 16.295c-0.16-0.189-0.106-0.486 0.043-0.665 0.626-0.713 3.131-3.4 3.131-3.4l3.49 3.705-3.496 3.824s-2.14-2.284-3.168-3.464zM23.906 16.421c-0.079 0.134-0.164 0.25-0.258 0.357l0.002-0.002-2.71 2.945-3.5-3.721 3.444-3.775s1.984 2.055 2.893 3.16c0.077 0.096 0.168 0.187 0.207 0.309 0.083 0.239 0.030 0.505-0.079 0.726z"></path>
</svg>
