<!-- Generated by IcoMoon.io -->
<svg version="1.1" xmlns="http://www.w3.org/2000/svg" width="32" height="32" viewBox="0 0 32 32">
<title>pink</title>
<path fill="#ed79aa" d="M19.1 15.9c0 1.4-1.1 2.5-2.5 2.5v0c-1.4 0-2.5-1.1-2.5-2.5 0 0 0 0 0 0 0-1.4 1.1-2.5 2.5-2.5s2.5 1.2 2.5 2.5zM32 16c0 8.8-7.2 16-16 16s-16-7.2-16-16 7.2-16 16-16 16 7.2 16 16zM16.6 20.9c2.7 0 4.9-2.2 4.9-4.9s-2.2-4.9-4.9-4.9c-2.6 0-4.8 2.1-4.9 4.7v0 9.1c0.8 0.4 1.6 0.7 2.4 0.9v-5.5c0.7 0.3 1.6 0.6 2.5 0.6zM23.5 23.1l-1.9-1.9c-1.3 1.3-3 2.1-5 2.1v0 0 2.7c1.2 0 2.4-0.3 3.5-0.7 1.2-0.5 2.4-1.3 3.4-2.2v0 0zM23.5 8.9v0c-1.3-1.4-3.1-2.3-5-2.7-0.6-0.1-1.3-0.2-2-0.2 0 0 0 0 0 0-5.5 0-9.9 4.5-9.9 10 0 0 0 0 0 0 0 2.6 1 5 2.6 6.8v-7.1c0.2-3.7 3-6.6 6.6-7 0.2 0 0.5 0 0.7 0 2 0 3.8 0.8 5.1 2.1 0 0 0 0 0 0v0l1.9-1.9z"></path>
</svg>
