<!-- Generated by IcoMoon.io -->
<svg version="1.1" xmlns="http://www.w3.org/2000/svg" width="32" height="32" viewBox="0 0 32 32">
<title>poly</title>
<path fill="#4c5a95" d="M16 32c-8.837 0-16-7.163-16-16s7.163-16 16-16 16 7.163 16 16-7.163 16-16 16zM27 11.263l-0.044-0.707-0.218 0.593-1.226 1.030-1.404 0.21-0.42-0.39 1.23-1.633 1.262-0.366-1.364 0.028-1.983 1.382-1.859-0.128-2.611-1.282-1.542 0.3-4.81 3.845-2.32 0.717-0.953 0.93-1.706 0.024-0.845 1.51-1.187 0.328 1.122 0.147 1.043-1.353 1.612 0.323-0.030 1.448-0.805 2.084-0.46 1.928-0.495 0.769 1.256-0.266-0.143-0.788 1.068-2.118 2.056-0.797 0.796-1.268 1.345-0.94 2.67 0.375 2.689-1.135-0.455 1.795-1.196 0.104-0.341 1.472 1.023-0.655 1.696-0.707 1.325-2 0.084-0.944 0.712 0.707 2.071 1.249 1.177-0.537-0.070-2.64-0.34-1.020 1.537-0.375z"></path>
</svg>
