<!-- Generated by IcoMoon.io -->
<svg version="1.1" xmlns="http://www.w3.org/2000/svg" width="32" height="32" viewBox="0 0 32 32">
<title>rdd</title>
<path fill="#e30613" d="M16 0c-8.8 0-16 7.2-16 16s7.2 16 16 16 16-7.2 16-16-7.2-16-16-16zM25 12.9v0 0c0 0.1 0 0.1 0 0 0 0.1 0 0.1 0 0.2 0.1 0.2 0.2 0.5 0.3 0.7v0.1c0.1 0.3 0.2 0.6 0.2 0.9 0 0 0 0 0 0.1 0.1 0.3 0.1 0.6 0.1 0.9 0 0.1 0 0.2 0 0.3 0 0.2 0 0.4 0 0.6v0 0 0c0 0.2 0 0.4 0 0.7 0 0.1 0 0.3 0 0.4 0 0.3-0.1 0.6-0.1 0.9v0.1c0 0.1 0 0.2-0.1 0.3-1.1 4.5-5.2 7.9-10.1 7.9v0 0c-5.4 0-9.8-4-10.3-9.2 0-0.3-0.1-0.7-0.1-1 0.1-5.7 4.7-10.3 10.5-10.3v0c1.3 0 2.5 0.2 3.5 0.6v0 0c0.8-1.3 2.1-2.1 3.7-2.1v0c2.4 0 4.4 1.9 4.4 4.3 0 1.5-0.8 2.9-2 3.6z"></path>
</svg>
