<!-- Generated by IcoMoon.io -->
<svg version="1.1" xmlns="http://www.w3.org/2000/svg" width="32" height="32" viewBox="0 0 32 32">
<title>rlc</title>
<path fill="#ffd800" d="M16 32c-8.837 0-16-7.163-16-16s7.163-16 16-16 16 7.163 16 16-7.163 16-16 16zM23.683 12.886c-1.63 0.171-2.866 1.657-2.754 3.314 0 0.457-0.169 0.857-0.562 1.086-0.169 0.107-0.375 0.171-0.595 0.171-0.008 0-0.016-0-0.024-0l0.001 0c-0.225 0-0.394-0.057-0.619-0.171-0.506-0.286-1.068-0.457-1.63-0.457h-0.337c-1.63 0.171-2.81 1.657-2.699 3.314 0 0.457-0.168 0.857-0.562 1.086-0.169 0.107-0.375 0.171-0.595 0.171-0.008 0-0.016-0-0.024-0l0.001 0c-0.006 0-0.014 0-0.021 0-0.203 0-0.39-0.064-0.543-0.173l0.003 0.002c-0.506-0.286-1.068-0.458-1.63-0.458h-0.338c-1.517 0.172-2.642 1.486-2.698 3.086 0 1.714 1.35 3.143 3.036 3.143h0.28c1.462-0.171 2.643-1.314 2.755-2.8v-0.514c0-0.457 0.169-0.857 0.562-1.086 0.169-0.107 0.375-0.171 0.595-0.171 0.008 0 0.017 0 0.025 0l-0.001-0c0.225 0 0.393 0.057 0.618 0.171 0.506 0.286 1.068 0.457 1.63 0.457h0.337c1.447-0.18 2.573-1.341 2.698-2.788l0.001-0.012v-0.514c0-0.457 0.168-0.857 0.562-1.086 0.169-0.107 0.375-0.171 0.595-0.171 0.008 0 0.016 0 0.024 0l-0.001-0c0.225 0 0.394 0.057 0.562 0.171 0.506 0.286 1.068 0.457 1.63 0.457h0.338c1.518-0.284 2.698-1.542 2.698-3.142 0-1.715-1.35-3.143-3.036-3.143-0.112 0-0.224 0-0.28 0.057zM17.22 8.943c-1.63 0.171-2.867 1.657-2.755 3.314 0 0.457-0.168 0.857-0.562 1.086-0.169 0.107-0.375 0.171-0.595 0.171-0.008 0-0.016-0-0.024-0l0.001 0c-0.006 0-0.014 0-0.021 0-0.203 0-0.39-0.064-0.543-0.173l0.003 0.002c-0.506-0.286-1.068-0.457-1.63-0.457h-0.338c-1.517 0.228-2.642 1.486-2.642 3.028 0 1.715 1.35 3.143 3.036 3.143h0.281c1.462-0.172 2.642-1.315 2.754-2.8v-0.514c0-0.457 0.17-0.857 0.563-1.086 0.169-0.107 0.375-0.171 0.595-0.171 0.008 0 0.016 0 0.024 0l-0.001-0c0.006-0 0.014-0 0.021-0 0.203 0 0.39 0.064 0.544 0.173l-0.003-0.002c0.506 0.286 1.068 0.457 1.63 0.457h0.337c1.518-0.171 2.643-1.485 2.699-3.085 0-1.715-1.35-3.143-3.036-3.143-0.168 0-0.225 0-0.337 0.057zM11.036 5c-1.677 0-3.036 1.382-3.036 3.086s1.36 3.085 3.036 3.085 3.034-1.381 3.034-3.085-1.359-3.086-3.034-3.086z"></path>
</svg>
