<!-- Generated by IcoMoon.io -->
<svg version="1.1" xmlns="http://www.w3.org/2000/svg" width="32" height="32" viewBox="0 0 32 32">
<title>rpx</title>
<path fill="#8d181b" d="M16 32c-8.837 0-16-7.163-16-16s7.163-16 16-16 16 7.163 16 16-7.163 16-16 16zM25.696 15.732c-0.55 0-1.021 0.333-1.212 0.805h-4.004c-0 0-0.001 0-0.001 0-0.178 0-0.334 0.097-0.417 0.241l-0.001 0.002-0.785 1.396-0.582-4.915c-0.065-0.55-0.88-0.556-0.954-0.007l-1.014 7.523-0.981-14.339c-0.040-0.573-0.894-0.59-0.957-0.018l-1.22 11.147-0.849-4.67c-0.090-0.498-0.813-0.523-0.939-0.031l-0.938 3.67h-4.361c-0.266 0-0.481 0.211-0.481 0.47s0.215 0.47 0.48 0.47h4.736c0.22 0 0.412-0.146 0.466-0.355l0.484-1.895 1.047 5.756c0.098 0.535 0.892 0.508 0.95-0.033l0.991-9.054 0.935 13.667c0.039 0.566 0.88 0.592 0.956 0.030l1.14-8.454 0.308 2.607c0.054 0.455 0.673 0.574 0.899 0.173l1.372-2.441h3.72c0.19 0.471 0.662 0.805 1.212 0.805 0.72 0 1.304-0.571 1.304-1.275s-0.584-1.275-1.304-1.275z"></path>
</svg>
