<!-- Generated by IcoMoon.io -->
<svg version="1.1" xmlns="http://www.w3.org/2000/svg" width="32" height="32" viewBox="0 0 32 32">
<title>sbd</title>
<path fill="#4ba2f2" d="M16 32c-8.837 0-16-7.163-16-16s7.163-16 16-16 16 7.163 16 16-7.163 16-16 16zM9.87 8.229c-0.193-0.098-2.64 1.958-2.64 3.471-0.004 2.068 2.854 6.752 3.336 8.564 0.414 1.554-0.703 3.419-0.396 3.504 0.28 0.183 2.947-2.562 3.051-3.732 0.134-1.864-3.114-7.297-3.373-8.7-0.3-1.638 0.238-3.070 0.022-3.107zM15.979 6.089c-0.246-0.124-3.368 2.496-3.368 4.427-0.003 2.637 3.642 8.61 4.255 10.92 0.528 1.981-0.895 4.36-0.506 4.466 0.36 0.232 3.758-3.265 3.892-4.759 0.172-2.375-3.972-9.303-4.301-11.095-0.383-2.083 0.302-3.912 0.028-3.958zM22.284 8.229c-0.191-0.098-2.64 1.958-2.64 3.471-0.004 2.068 2.855 6.752 3.336 8.564 0.414 1.554-0.702 3.419-0.396 3.504 0.282 0.183 2.95-2.562 3.052-3.732 0.133-1.864-3.114-7.297-3.374-8.7-0.3-1.638 0.238-3.070 0.022-3.107z"></path>
</svg>
