<!-- Generated by IcoMoon.io -->
<svg version="1.1" xmlns="http://www.w3.org/2000/svg" width="32" height="32" viewBox="0 0 32 32">
<title>skl</title>
<path d="M16 0c-8.8 0-16 7.2-16 16s7.2 16 16 16 16-7.2 16-16-7.2-16-16-16zM24.7 25.5h-17.6v-19h17.7v2.1h-15.6v14.8h15.5v2.1zM27.3 19.9c-0.2 0.4-0.5 0.8-0.8 1.1s-0.8 0.5-1.3 0.7-1.1 0.2-1.7 0.2c-0.7 0-1.4-0.1-1.9-0.3-0.6-0.2-1-0.5-1.4-0.9s-0.7-0.8-0.8-1.3c-0.2-0.5-0.3-1.1-0.3-1.6v-0.1h2.1c0 0.7 0.2 1.2 0.6 1.6s1 0.6 1.8 0.6c0.6 0 1.1-0.1 1.4-0.4s0.5-0.6 0.5-1c0-0.2 0-0.4-0.1-0.5-0.1-0.2-0.2-0.3-0.3-0.5-0.2-0.1-0.4-0.3-0.7-0.4s-0.6-0.2-1.1-0.3c-0.6-0.1-1.1-0.2-1.6-0.4s-0.9-0.4-1.2-0.6c-0.4-0.3-0.6-0.6-0.8-1s-0.3-0.9-0.3-1.4v-0.1c0-0.5 0.1-0.9 0.3-1.3s0.4-0.7 0.8-1c0.3-0.3 0.7-0.5 1.2-0.7s1-0.2 1.6-0.2c0.7 0 1.2 0.1 1.8 0.3 0.5 0.2 0.9 0.4 1.3 0.8 0.4 0.3 0.6 0.7 0.8 1.1 0.3 0.5 0.3 1.5 0.3 1.5h-2.1c0-0.5-0.2-0.8-0.5-1.2-0.4-0.3-0.8-0.5-1.5-0.5-0.5 0-1 0.1-1.3 0.3s-0.5 0.5-0.5 0.9c0 0.2 0 0.4 0.1 0.5 0.1 0.2 0.2 0.3 0.4 0.4s0.4 0.2 0.7 0.3 0.7 0.2 1.2 0.3c1.2 0.2 2.1 0.6 2.7 1.1s0.9 1.3 0.9 2.3v0.2c0 0.6-0.1 1-0.3 1.5z"></path>
</svg>
