<!-- Generated by IcoMoon.io -->
<svg version="1.1" xmlns="http://www.w3.org/2000/svg" width="32" height="32" viewBox="0 0 32 32">
<title>slp</title>
<path fill="#78b9a1" d="M15.3 8.5c0 0 0 0 0 0s0 0 0 0 0 0 0 0zM24 13c0.7 1.5 3.2 6.5 0.3 10.7-2.6 3.9-7.4 4.1-8.6 4.1-1.5 0-6-0.2-8.2-4.2-2.2-3.8-1.2-8 0.9-11.2 1.6-2.5 4-4.4 4.6-4.4 0.1 0 0.3 0.1 0.6 0.2 0.2 0.1 0.4 0.2 0.7 0.3 0.1 0.7 0.1 1 0.5 1.1s1.4-0.1 1.5-0.3c0.1-0.2 0-0.6 0-0.9 0.5-0.1 0.9-0.2 1.1-0.4 0.4-0.2 0.5-0.3 0.6-0.3 2.8 0.9 5.1 3.9 6 5.3zM9.2 15.4c0.1 0.1 0.2 0.2 0.3 0.2 1.5 0.4 2.7-2 2.8-2.2 1.2-1.9 0.1-2.5 0.1-2.5s-0.9-0.8-2.5 1.5c-1.3 1.8-0.9 2.7-0.7 3zM23.3 23.4c0 0 0-0.1 0 0-0.2-0.3-0.9-1-1.7-0.2-0.6 0.5-0.7 1-0.8 1.3 0 0.3 0.1 0.5 0.4 0.6 0.6 0.1 1.2-0.1 1.7-0.7 0.4-0.6 0.4-0.9 0.4-1zM23.2 14.9c0-0.4-3.2-0.7-7.3-0.7-1.4 0-2.6 0.1-3.7 0.2-0.5 0.7-1.4 1.7-2.4 1.7-0.1 0-0.3 0-0.4-0.1-0.3 0-0.4-0.2-0.6-0.3 0-0.1-0.1-0.2-0.1-0.2-0.2 0.6-1.1 3-0.9 4.9 0.2 2.1 1.7 5.2 5.1 6 3.5 0.8 5.7-0.1 7.6-1 0 0 0.1 0 0.1-0.1-0.2-0.2-0.4-0.4-0.4-0.9l0.1-0.3c0.1-0.3 0.3-0.9 0.9-1.4 0.5-0.5 1-0.5 1.3-0.5 0.4 0.1 0.7 0.3 0.8 0.5 0.3-0.6 0.5-1.2 0.6-1.7 0.3-1.6 0.3-4.1-0.7-6.1zM22.2 17.5c-0.2 0.1-1.3 2-1.6 2-0.6 0.1-2.7-1.4-3.1-1.4-0.5 0.1-2.9 2.4-3.2 2.5-0.2 0.1-2.7-2.1-3-2.2-0.4 0-2 1.6-2.2 1.6-0.1 0-0.3-1.5-0.3-1.2 0 0.5 0.2 2.2 0.2 2.3 0.2 0.2 2-2 2.2-2 0.8 0.1 2.9 2.7 3.2 2.6s2.2-2.9 3.1-3c0.5-0.1 3 1.7 3.3 1.7 0.2-0.1 1.2-2.4 1.4-2.3 0.1 0 1.1 1.2 0.9 0.9 0-0.3-0.7-1.5-0.9-1.5zM32 16c0 8.8-7.2 16-16 16s-16-7.2-16-16 7.2-16 16-16 16 7.2 16 16zM26.4 17.2c-0.4-2.2-1.4-3.9-1.8-4.6-1-1.6-3.4-4.6-6.2-5.6 0-0.2 0-0.5 0-0.7v-1.5c0-0.9-1-1.1-1.3-1.2-0.5-0.1-1.2-0.2-1.8-0.2s-1.3 0.1-1.9 0.4c-0.3 0.1-1.2 0.5-1.2 1.3v0.1c0 0.3 0.1 1.4 0.3 2-0.5 0.2-1.1 0.7-1.9 1.4-1.1 1-2.1 2.1-2.8 3.3-1.2 1.8-2 3.8-2.2 5.7-0.3 2.3 0.1 4.4 1.2 6.4 1.2 2.1 3.7 4.6 9 4.6 1.5 0 6.5-0.3 9.3-4.5 1.3-1.9 1.8-4.3 1.3-6.9z"></path>
</svg>
