<!-- Generated by IcoMoon.io -->
<svg version="1.1" xmlns="http://www.w3.org/2000/svg" width="32" height="32" viewBox="0 0 32 32">
<title>sls</title>
<path fill="#8e9495" d="M16 32c-8.837 0-16-7.163-16-16s7.163-16 16-16 16 7.163 16 16-7.163 16-16 16zM7.894 18.31v2.907-2.908h-0.894v4.44h0.894v-1.532c0.253 0.413 0.556 0.769 0.914 1.054 0.595 0.473 1.318 0.729 2.16 0.729 1.217 0 2.194-0.504 2.863-1.368 0.544-0.703 0.846-1.613 0.846-2.41 0-1.045-0.417-1.86-1.204-2.509-0.576-0.475-1.187-0.784-2.42-1.295l-0.203-0.084c-1.117-0.463-1.622-0.711-2.071-1.066-0.544-0.43-0.81-0.92-0.81-1.58 0-0.886 0.307-1.607 0.847-2.11 0.487-0.446 1.139-0.719 1.854-0.719 0.007 0 0.013 0 0.020 0h-0.001c1.046 0 1.786 0.446 2.278 1.263 0.417 0.692 0.63 1.627 0.63 2.55h0.894v-3.616h1.1v12.747h2.645v-1.558c0.249 0.4 0.545 0.747 0.895 1.026 0.595 0.473 1.318 0.729 2.16 0.729 1.217 0 2.194-0.504 2.863-1.368 0.544-0.703 0.846-1.613 0.846-2.41 0-1.045-0.417-1.86-1.204-2.509-0.576-0.475-1.187-0.784-2.42-1.295 4.411 1.653 4.344 1.624 4.277 1.596l-4.48-1.68c-1.117-0.463-1.622-0.711-2.071-1.066-0.544-0.43-0.81-0.92-0.81-1.58 0-0.886 0.307-1.607 0.847-2.11 0.487-0.446 1.139-0.719 1.854-0.719 0.007 0 0.013 0 0.020 0h-0.001c1.046 0 1.786 0.446 2.278 1.263 0.417 0.692 0.63 1.627 0.63 2.55h0.894v-4.42h-0.895v1.216c-0.649-0.935-1.627-1.468-2.907-1.468-0.93 0-1.83 0.34-2.495 0.96-0.718 0.668-1.12 1.613-1.12 2.728 0 0.93 0.395 1.658 1.137 2.244 0.537 0.424 1.090 0.696 2.285 1.191l0.203 0.084c1.15 0.477 1.707 0.758 2.191 1.158 0.595 0.491 0.893 1.071 0.893 1.858 0 0.614-0.242 1.345-0.67 1.896-0.505 0.652-1.22 1.022-2.144 1.022-1.181 0-1.996-0.65-2.529-1.784-0.185-0.39-0.336-0.844-0.431-1.319l-0.006-0.038c-0.027-0.124-0.054-0.288-0.073-0.453l-0.003-0.027c-0.006-0.055-0.011-0.128-0.014-0.201l-0-0.009h-0.894v3.634h-0.858v-12.747h-2.888v1.27c-0.65-0.934-1.626-1.467-2.906-1.467-0.93 0-1.83 0.34-2.495 0.96-0.718 0.668-1.12 1.613-1.12 2.728 0 0.93 0.395 1.658 1.137 2.244 0.537 0.424 1.090 0.696 2.285 1.191l0.203 0.084c1.15 0.477 1.707 0.758 2.191 1.158 0.595 0.491 0.893 1.071 0.893 1.858 0 0.614-0.242 1.345-0.67 1.896-0.505 0.652-1.22 1.022-2.144 1.022-1.181 0-1.996-0.648-2.532-1.785-0.2-0.424-0.346-0.89-0.443-1.359-0.027-0.121-0.055-0.286-0.077-0.452l-0.003-0.031c-0.013-0.1-0.020-0.185-0.020-0.205z"></path>
</svg>
