<!-- Generated by IcoMoon.io -->
<svg version="1.1" xmlns="http://www.w3.org/2000/svg" width="32" height="32" viewBox="0 0 32 32">
<title>sol</title>
<path fill="#709fcd" d="M16.1 0c-8.8 0-16 7.2-16 16s7.2 16 16 16 16-7.2 16-16-7.2-16-16-16zM6.9 11l2.3-2.4c0.1-0.1 0.3-0.2 0.5-0.2h14.8c0.6 0 0.9 0.7 0.5 1.2l-2.3 2.4c-0.1 0.1-0.3 0.2-0.5 0.2h-14.8c-0.6 0-0.9-0.8-0.5-1.2zM25.1 21l-2.3 2.4c-0.1 0.1-0.3 0.2-0.5 0.2h-14.9c-0.6 0-0.9-0.7-0.5-1.2l2.4-2.4c0.1-0.1 0.3-0.2 0.5-0.2h14.8c0.6 0 0.9 0.8 0.5 1.2zM24.6 17.9h-14.8c-0.2 0-0.4-0.1-0.5-0.2l-2.3-2.4c-0.4-0.4-0.1-1.2 0.5-1.2h14.8c0.2 0 0.4 0.1 0.5 0.2l2.3 2.4c0.4 0.4 0.1 1.2-0.5 1.2z"></path>
</svg>
