<!-- Generated by IcoMoon.io -->
<svg version="1.1" xmlns="http://www.w3.org/2000/svg" width="32" height="32" viewBox="0 0 32 32">
<title>srn</title>
<path fill="#1c1c1c" d="M16 32c-8.837 0-16-7.163-16-16s7.163-16 16-16 16 7.163 16 16-7.163 16-16 16zM15.715 13.433c-0.244 0.935-0.795 1.31-0.979 1.434 0 0.312 0.429 2.121 1.285 2.121 0.612 0 1.163-0.561 1.346-2.12-0.306-0.25-0.611-0.811-0.795-1.435-0.245 0.062-0.55 0.125-0.857 0zM14.797 18.922c0.123 0.499 0.49 1.746 1.285 1.746 0.551 0 1.163-0.686 1.285-1.684-0.428-0.25-0.611-0.81-0.795-1.684-0.245 0.062-0.612 0.125-0.857 0-0.306 0.81-0.55 1.31-0.918 1.622zM9.902 20.855c0.306 0.5 0.918 1.31 1.591 0.998 0.184-0.062 0.245-0.561 0.184-0.998-0.49-0.312-0.796-0.873-1.163-1.746-0.122 0.062-0.306 0.062-0.49 0 0.123 0.935 0.123 1.434-0.122 1.746zM7.332 19.171c0.245 1.372 0.306 1.497 0.245 1.684 0.428 0.811 0.857 1.185 1.407 1.123 0.184 0 0.062-0.499-0.183-0.998 0 0-0.734-0.624-1.163-1.746-0.122-0.063-0.183-0.063-0.306-0.063zM5.68 19.171c0.612 2.62 1.774 2.495 1.714 2.37-0.245-0.436-0.49-0.623-0.734-0.81-0.551-0.562-0.98-1.747-0.98-1.56zM13.145 20.855c0.306 1.123 1.163 1.123 1.469 0.998 0.428-0.062 0.612-0.436 0.673-1.122-0.55-0.375-0.734-1.186-0.857-1.747-0.183 0.062-0.49 0.062-0.734 0-0.061 0.873-0.122 1.56-0.55 1.871zM7.883 18.922c0.245 0.623 0.98 1.809 1.53 1.809 0.245 0 0.367-0.437 0.245-1.747-0.368-0.25-0.674-0.748-0.857-1.56-0.122 0.063-0.367 0.063-0.55 0-0.062 0.687-0.123 1.186-0.368 1.498zM5.986 18.922c0.184 0.499 0.612 1.56 1.163 1.746 0.245 0.125 0.245-0.25-0.061-1.684 0 0-0.429-0.374-0.735-1.56h-0.243c-0.046 0.385-0.090 0.902-0.12 1.423l-0.003 0.075zM10.881 18.922c0.062 0.25 0.673 1.497 1.408 1.684 0.856 0.187 0.918-0.936 0.918-1.622-0.429-0.25-0.735-0.748-0.918-1.56-0.184 0.063-0.49 0.125-0.796 0-0.122 0.812-0.306 1.248-0.612 1.498zM10.331 18.735c0.367 0 0.673-0.562 0.795-1.622-0.306-0.312-0.673-0.873-0.734-2.183-0.184 0.062-0.367 0.062-0.49 0-0.183 1.185-0.367 1.871-0.734 2.245 0 0.374 0.428 1.56 1.163 1.56zM6.537 17.175c0.306 1.248 0.612 1.56 0.857 1.56 0.55 0 0.428-0.936 0.49-1.622-0.185-0.25-0.552-0.873-0.552-2.183h-0.306c-0.367 1.933-0.367 1.996-0.49 2.245zM5.313 14.992c-0.122-0.062-0.734 2.557 0.184 3.68 0.122 0.125 0.122-1.434 0.122-1.434-0.245-0.562-0.122-2.183-0.306-2.246zM12.656 17.175c0.061 0.187 0.428 1.56 1.407 1.56 0.612 0 1.102-0.687 1.224-1.685-0.49-0.498-0.734-1.185-0.857-2.12-0.183 0.062-0.49 0.062-0.734 0-0.367 1.247-0.612 1.933-1.040 2.245zM7.638 14.743c0.061 1.122 0.306 2.245 0.796 2.245 0.55 0 0.795-1.247 0.979-2.308-0.184-0.124-0.429-0.499-0.429-1.31-0.065 0.058-0.15 0.093-0.245 0.093s-0.18-0.035-0.245-0.094l0 0c-0.061 0.125-0.367 1.186-0.857 1.373zM6.108 17.050c0.307 0 0.612-2.307 0.612-2.307-0.122-0.187-0.244-0.562-0.183-1.373-0.061 0.063-0.184 0-0.245 0-0.158 0.523-0.367 0.978-0.626 1.398l0.014-0.025c-0.122 0.686 0 2.307 0.429 2.307zM10.759 14.743c0.061 0.748 0.428 2.245 1.163 2.245 0.795 0 1.162-1.123 1.346-2.245-0.429-0.25-0.612-0.686-0.735-1.373-0.306 0.063-0.55 0.063-0.795-0.062-0.245 0.624-0.734 1.31-0.979 1.435zM11.309 13.059c-0.183-0.25-0.428-0.687-0.305-1.622h-0.429c-0.306 0.624-0.673 1.372-1.162 1.746 0 0.125 0.061 1.435 0.673 1.435 0.49 0 0.857-0.561 1.224-1.56zM8.311 11.499h-0.244c0 0.063-0.796 1.497-1.163 1.747-0.122 0.623-0.122 1.372 0.245 1.434 0.367 0 0.612-0.312 1.101-1.56-0.122-0.31-0.245-0.748 0.061-1.62zM6.537 11.562c-0.918 0.623-1.407 2.869-1.163 2.931 0.061 0.063 0.796-0.998 0.735-1.622-0.062-0.436 0.611-1.372 0.428-1.31zM15.226 13.059c-0.245-0.25-0.55-0.687-0.673-1.622-0.101 0.030-0.217 0.047-0.337 0.047s-0.236-0.017-0.345-0.049l0.009 0.002c-0.184 0.561-0.49 1.31-1.102 1.746 0.123 0.624 0.429 1.373 0.98 1.435 1.040 0 1.284-0.873 1.468-1.56zM6.904 11.374c-0.612 0.936-0.612 1.747-0.367 1.747 0.306 0 1.162-1.56 1.346-1.871-0.061-0.312 0.612-0.936 0.367-0.998-0.428 0-1.224 1.060-1.346 1.122zM21.957 19.109c-0.184 0.062-0.368 0.062-0.49 0-0.245 0.81-0.612 1.434-1.163 1.746-0.060 0.437-0.060 0.936 0.184 0.998 0.673 0.25 1.346-0.499 1.591-0.998-0.184-0.312-0.184-0.81-0.122-1.746zM24.404 19.109c-0.428 1.123-1.162 1.746-1.162 1.746-0.306 0.562-0.429 0.998-0.184 0.998 0.55 0 0.979-0.312 1.407-1.122-0.060-0.188 0-0.312 0.245-1.685-0.122 0.125-0.245 0.125-0.306 0.063zM25.383 20.731c-0.245 0.249-0.489 0.374-0.673 0.81-0.061 0.125 1.102 0.25 1.714-2.37-0.123-0.187-0.49 0.998-1.040 1.56zM18.346 19.109c-0.244 0.062-0.49 0.062-0.734 0-0.122 0.561-0.367 1.31-0.856 1.746 0.122 0.624 0.244 0.998 0.673 1.123 0.306 0.062 1.162 0.062 1.468-0.998-0.367-0.437-0.55-1.123-0.55-1.871zM23.853 17.362c-0.079 0.045-0.174 0.072-0.275 0.072s-0.196-0.027-0.278-0.073l0.003 0.001c-0.184 0.686-0.49 1.31-0.857 1.56-0.122 1.31 0 1.746 0.245 1.746 0.49 0 1.285-1.185 1.53-1.809-0.306-0.25-0.368-0.748-0.368-1.497zM26.056 17.487h-0.244c-0.306 1.123-0.735 1.56-0.735 1.56-0.306 1.372-0.367 1.746-0.060 1.684 0.489-0.188 0.917-1.248 1.162-1.747-0.123-0.187-0.123-0.998-0.123-1.497zM20.61 17.362c-0.306 0.125-0.611 0.063-0.795 0-0.184 0.749-0.49 1.31-0.918 1.56 0 0.623 0.061 1.809 0.918 1.621 0.673-0.124 1.346-1.372 1.407-1.684-0.367-0.187-0.49-0.623-0.612-1.497zM22.936 17.175c-0.306-0.374-0.49-1.122-0.735-2.245-0.073 0.030-0.157 0.047-0.245 0.047s-0.172-0.017-0.249-0.048l0.004 0.002c-0.060 1.31-0.427 1.933-0.733 2.183 0.122 0.998 0.428 1.622 0.795 1.622 0.612 0 1.101-1.186 1.163-1.56zM25.077 14.93c-0.122 0-0.183 0.062-0.306 0 0 1.31-0.306 1.933-0.55 2.183 0.060 0.624-0.062 1.622 0.49 1.622 0.244 0 0.55-0.375 0.856-1.56-0.123-0.25-0.184-0.312-0.49-2.245zM26.362 17.175s0 1.56 0.123 1.435c0.917-0.998 0.367-3.743 0.183-3.68-0.122 0.125 0 1.746-0.306 2.245zM18.53 14.93c-0.306 0.062-0.612 0.062-0.734 0-0.123 0.935-0.429 1.622-0.857 2.12 0.184 0.936 0.55 1.747 1.224 1.685 0.857 0 1.346-1.373 1.407-1.56-0.55-0.312-0.856-0.998-1.040-2.245zM23.609 13.37c-0.093 0.066-0.209 0.105-0.334 0.105-0.078 0-0.153-0.015-0.221-0.043l0.004 0.001c0 0.748-0.245 1.185-0.428 1.372 0.183 1.123 0.428 2.308 0.979 2.308 0.49 0 0.795-1.185 0.795-2.246-0.428-0.311-0.795-1.372-0.795-1.497zM26.362 14.743s-0.306-0.562-0.55-1.373c-0.032 0.029-0.075 0.047-0.122 0.047s-0.090-0.018-0.123-0.047l0 0c0.061 0.687-0.061 1.123-0.184 1.31 0 0 0.306 2.308 0.612 2.308 0.306 0.062 0.428-1.56 0.367-2.245zM20.366 13.37c-0.245 0.125-0.551 0.125-0.796 0.063-0.061 0.624-0.306 1.123-0.673 1.372 0.184 1.185 0.428 2.308 1.346 2.245 0.673 0 1.102-1.496 1.163-2.245-0.367-0.187-0.796-0.873-1.040-1.435zM21.896 14.556c0.611 0 0.672-1.248 0.672-1.435-0.428-0.312-0.795-0.998-1.162-1.684-0.122 0.062-0.245 0.062-0.428 0 0.122 0.873-0.062 1.372-0.306 1.622 0.428 0.998 0.795 1.559 1.223 1.497zM23.853 13.059c0.429 1.247 0.674 1.559 0.98 1.559 0.367-0.062 0.367-0.749 0.244-1.435-0.306-0.187-1.162-1.684-1.162-1.746h-0.245c0.367 0.935 0.245 1.372 0.183 1.622zM25.933 12.871c-0.060 0.562 0.613 1.685 0.674 1.622 0.184-0.062-0.184-2.308-1.163-2.931-0.060-0.063 0.551 0.873 0.49 1.31zM18.163 14.556c0.612-0.063 0.918-0.687 0.979-1.435-0.49-0.374-0.796-1.123-0.98-1.684-0.101 0.030-0.216 0.046-0.336 0.046s-0.235-0.017-0.345-0.049l0.009 0.002c-0.061 0.873-0.367 1.434-0.673 1.622 0.183 0.686 0.428 1.559 1.346 1.497zM23.853 10.252c-0.244 0 0.429 0.686 0.368 0.998 0.183 0.312 0.979 1.87 1.346 1.87 0.245 0 0.245-0.748-0.429-1.746-0.060-0.062-0.979-1.122-1.285-1.122zM10.269 10.439s0.123-0.312-0.060-0.374c-0.307 0-1.163 1.185-1.53 1.372-0.062 0.125-0.551 1.56 0.060 1.684 0.551 0.062 1.163-0.998 1.53-1.747-0.183-0.187-0.122-0.56 0-0.935zM13.145 10.377c0-0.063 0-0.375-0.306-0.375-0.367 0-0.856 1.185-1.407 1.372-0.122 0.687 0 1.622 0.55 1.685 0.796 0.062 1.286-0.936 1.53-1.685-0.305-0.187-0.367-0.623-0.367-0.997zM21.835 11.374c0.366 0.687 0.917 1.81 1.529 1.747 0.612-0.125 0.122-1.56 0.061-1.684-0.367-0.187-1.224-1.372-1.53-1.372-0.183 0-0.060 0.312-0.060 0.374 0.122 0.374 0.122 0.748 0 0.935zM18.591 11.374c0.245 0.687 0.673 1.81 1.53 1.685 0.612-0.063 0.734-0.874 0.55-1.685-0.489-0.187-1.1-1.434-1.407-1.372-0.306 0-0.306 0.312-0.306 0.375-0.060 0.374-0.122 0.81-0.367 0.997zM16.021 10.002c-0.673 0-0.428 1.123-1.162 1.435 0.060 0.561 0.244 1.684 1.101 1.684 0.98 0 1.163-1.372 1.163-1.684-0.49-0.25-0.49-1.435-1.102-1.435z"></path>
</svg>
