<!-- Generated by IcoMoon.io -->
<svg version="1.1" xmlns="http://www.w3.org/2000/svg" width="32" height="32" viewBox="0 0 32 32">
<title>sushi</title>
<path fill="#f42592" d="M16 0c-8.8 0-16 7.2-16 16s7.2 16 16 16 16-7.2 16-16-7.2-16-16-16zM15.2 24.5c-1.6 0-3.4-0.5-4.3-1.1l0.5-1.8c1 0.6 2.4 1.1 3.9 1.1 2.2 0 3.5-1.2 3.5-2.8s-0.9-2.5-3.1-3.3c-2.7-1-4.4-2.4-4.4-4.7 0-2.6 2.2-4.5 5.4-4.5 1.7 0 2.9 0.4 3.7 0.8l-0.6 1.8c-0.6-0.5-1.7-1-3.2-1-2.3 0-3.1 1.4-3.1 2.5 0 1.6 1 2.3 3.3 3.2 2.8 1.1 4.3 2.5 4.3 4.9 0 2.7-2 4.9-5.9 4.9z"></path>
</svg>
