<!-- Generated by IcoMoon.io -->
<svg version="1.1" xmlns="http://www.w3.org/2000/svg" width="32" height="32" viewBox="0 0 32 32">
<title>sushi</title>
<path fill="#ff4c9e" d="M16 0.022c-8.837 0-16 7.163-16 16s7.163 16 16 16 16-7.163 16-16-7.163-16-16-16zM28.382 19.749l-0.009 0.013-5.114 7.223-0.028-0.020c-1.966 2.168-7.656 0.968-13.003-2.818s-8.369-8.755-6.978-11.329l-0.038-0.027 5.114-7.223 0.227-0.298c1.76-2.486 7.673-1.326 13.206 2.591s8.591 9.109 6.831 11.595c-0.073 0.103-0.121 0.203-0.208 0.293zM21.146 8.499c-5.126-3.629-10.515-4.827-12.038-2.677s1.398 6.836 6.523 10.465c5.126 3.629 10.515 4.827 12.038 2.676s-1.398-6.835-6.523-10.464zM23.076 15.592c-0.723 1.021-3.345 0.408-5.855-1.369-2.511-1.778-3.96-4.047-3.237-5.068s3.345-0.408 5.855 1.369 3.96 4.047 3.237 5.068zM25.841 20.927c0.030 0.135-0.054 0.268-0.188 0.299-0.022 0.005-0.353 0.077-0.963 0.077-0.396 0-0.912-0.030-1.537-0.13-0.137-0.021-0.229-0.15-0.208-0.286s0.15-0.229 0.286-0.208c1.483 0.237 2.304 0.061 2.312 0.059 0.132-0.030 0.268 0.054 0.298 0.189zM22.651 20.828c-0.026 0.116-0.129 0.195-0.244 0.195-0.018 0-0.036-0.002-0.055-0.006-0.271-0.061-0.558-0.135-0.861-0.223-0.132-0.039-0.208-0.178-0.169-0.311s0.176-0.209 0.31-0.17c0.292 0.086 0.568 0.156 0.83 0.215 0.135 0.032 0.219 0.165 0.189 0.3zM13.725 15.963c0.108 0.086 0.125 0.244 0.039 0.352-0.049 0.062-0.122 0.094-0.195 0.094-0.055 0-0.11-0.018-0.156-0.055-3.732-2.988-5.076-5.71-5.544-7.068-0.045-0.13 0.024-0.273 0.155-0.318s0.271 0.024 0.316 0.155c0.451 1.306 1.75 3.931 5.385 6.84zM7.886 8.688c-0.115 0-0.219-0.081-0.244-0.198-0.044-0.207-0.054-0.318-0.054-0.318-0.012-0.137 0.089-0.258 0.226-0.271 0.13-0.009 0.258 0.087 0.272 0.225 0 0.008 0.010 0.098 0.045 0.26 0.029 0.135-0.058 0.267-0.193 0.296-0.017 0.004-0.035 0.006-0.052 0.006z"></path>
</svg>
