<!-- Generated by IcoMoon.io -->
<svg version="1.1" xmlns="http://www.w3.org/2000/svg" width="32" height="32" viewBox="0 0 32 32">
<title>tbx</title>
<path fill="#5244d4" d="M16 32c-8.837 0-16-7.163-16-16s7.163-16 16-16 16 7.163 16 16-7.163 16-16 16zM15.7 27.4c6.462 0 11.7-5.238 11.7-11.7s-5.238-11.7-11.7-11.7c-6.462 0-11.7 5.238-11.7 11.7s5.238 11.7 11.7 11.7zM18.59 19.7l2.35-4-2.62-4.48h-5.24l-2.62 4.48 2.35 4 2.89-4 2.89 4zM19.45 9.3l3.74 6.4-3.74 6.4h-7.49l-3.75-6.4 3.74-6.4h7.5z"></path>
</svg>
