<!-- Generated by IcoMoon.io -->
<svg version="1.1" xmlns="http://www.w3.org/2000/svg" width="32" height="32" viewBox="0 0 32 32">
<title>tkn</title>
<path fill="#24dd7b" d="M16 32c-8.837 0-16-7.163-16-16s7.163-16 16-16 16 7.163 16 16-7.163 16-16 16zM13.092 7.913h-0.037v12.74c0 5.737 7.12 6.098 9.725 4.583l-1.064-3.176c-1.175 0.613-4.294 0.397-4.294-1.444v-6.063h5.578v-3.5h-5.541l0.036-5.053-4.403 1.913zM8.982 15.491c1.094 0 1.981-1.066 1.981-2.381 0-1.316-0.887-2.382-1.981-2.382-1.095 0-1.982 1.066-1.982 2.382s0.887 2.381 1.982 2.381z"></path>
</svg>
