<!-- Generated by IcoMoon.io -->
<svg version="1.1" xmlns="http://www.w3.org/2000/svg" width="32" height="32" viewBox="0 0 32 32">
<title>tlm</title>
<path fill="#e9c97c" d="M16 0c-8.8 0-16 7.2-16 16s7.2 16 16 16 16-7.2 16-16-7.2-16-16-16zM23.1 20.1c0.1-0.5 0.2-1 0.3-1.5 0-0.2 0.1-0.3 0.1-0.5 0 0 0 0 0 0 0.3 0.6 0.5 1.1 0.8 1.7 0 0.1 0 0.1-0.1 0.1-0.4 0.1-0.7 0.2-1.1 0.3 0 0.1 0 0 0-0.1zM19 8.7c0.4 0.9 0.9 1.8 1.3 2.7-0.1 0-0.2 0-0.2-0.1-0.7-0.3-1.4-0.7-2.1-1-0.1-0.1-0.2-0.1-0.1-0.2 0.3-0.4 0.6-0.8 0.9-1.2 0.1 0 0.2-0.1 0.2-0.2zM19.7 12.3c-2.6 0-5.2 0-7.9 0 1-0.6 2.1-1.2 3.3-1.3 1.5-0.2 2.9 0 4.2 0.9 0.1 0.1 0.2 0.2 0.4 0.4-0.1-0.1-0.1-0.1 0 0zM13.5 7.4c0.4-0.8 0.8-1.5 1.1-2.3 0.1-0.3 0.2-0.6 0.5-0.7 0.7-0.4 1.9-0.2 2.2 0.7 0.3 0.7 0.6 1.4 1 2.1 0.2 0.5 0.2 0.9 0 1.3-0.4 0.9-1.1 1.5-2.2 1.7-0.1 0-0.1 0-0.2 0-0.8 0-1.3-0.4-1.8-0.9-0.3-0.3-0.5-0.7-0.6-1.1s-0.1-0.6 0-0.8zM12 10.7c0.3-0.6 0.5-1.1 0.8-1.7 0.1-0.1 0.1-0.2 0.2 0 0.3 0.4 0.6 0.7 0.9 1.1 0.1 0.2 0.1 0.2-0.1 0.3-0.7 0.3-1.3 0.6-2 0.9 0-0.2 0.1-0.4 0.2-0.6zM7.5 19.9c0.3-0.4 0.5-0.9 0.7-1.4 0-0.1 0-0.1 0.1-0.1 0.1 0.2 0.1 0.4 0.2 0.6 0.1 0.4 0.2 0.9 0.3 1.3 0 0.1 0 0.2-0.1 0.1-0.3-0.1-0.6-0.2-1-0.3-0.2 0-0.3 0-0.2-0.2zM9.7 24.3c-0.1 0.3-0.4 0.4-0.7 0.4-0.8 0-1.7 0-2.5 0-0.4 0-0.7-0.5-0.7-0.9 0-0.2 0.1-0.4 0.2-0.6 0.3-0.7 0.6-1.3 1-2 0.1-0.2 0.3-0.3 0.5-0.2 0.5 0 1 0.2 1.5 0.6s0.9 1.2 0.9 1.9c-0.1 0.2-0.1 0.5-0.2 0.8zM12.3 24.6c-0.6 0-1.2 0-1.7 0-0.1 0-0.2 0-0.1-0.2 0.1-0.4 0.1-0.8 0.2-1.2 0.5 0.5 1.1 1 1.6 1.4 0 0 0 0 0 0zM14.7 24.6c-0.7-0.3-1.5-0.5-2.2-0.9-1.5-0.8-2.5-2-3-3.6-0.3-0.9-0.5-1.8-0.4-2.8 0.1-0.7 0.3-1.4 0.7-2.1 0.1-0.2 0.4-0.2 0.6-0.2 1.3 0 2.7 0 4 0 0.2 0 0.3 0.1 0.4 0.4 0 0.2 0 0.5 0 0.7 0 1 0 1.9 0 2.9 0 0 0 0 0 0 0 1.2 0 2.3 0 3.5 0 0.6 0 1.3 0 1.9 0.1 0.2 0 0.3-0.1 0.2zM16.5 14.4c0 2.8 0 5.6 0 8.4 0 0.5 0 1 0 1.5 0 0.3-0.1 0.4-0.4 0.4-0.5 0-0.5 0-0.5-0.5 0-1.6 0-3.1 0-4.7 0-1.7 0-3.3 0-5 0-0.2 0-0.2-0.2-0.2-1.6-0.1-3.2 0-4.8 0-0.2 0-0.2 0-0.2-0.2 0.1-0.3 0.3-0.7 0.7-0.8 0.1 0 0.2-0.1 0.3-0.1 2.3 0 4.7 0 7 0 0.7 0 1.3 0 2 0 0.4 0 0.7 0.2 1 0.5 0.1 0.2 0.2 0.3 0.4 0.5 0.1 0.1 0 0.2-0.1 0.2-0.9 0-1.8 0-2.7 0-0.7 0-1.4 0-2.1 0-0.4-0.2-0.4-0.1-0.4 0zM17.3 24.7c-0.1 0.1-0.2 0-0.2-0.1-0.1-1.2 0-2.3 0-3.1 0-1.4 0-2.4 0-3.5 0-0.8 0-1.6 0-2.4 0-0.3 0.1-0.4 0.4-0.4 1.2 0 2.4 0 3.5 0 0.2 0 0.5 0 0.7 0s0.4 0.1 0.4 0.3c0.4 0.7 0.6 1.4 0.7 2.2 0 1.7-0.5 3.3-1.6 4.6-0.8 1-1.8 1.7-3 2.1-0.2 0-0.5 0.1-0.9 0.3zM21.3 24.6c-0.6 0-1.2 0-1.8 0 0 0 0 0 0-0.1 0.5-0.4 1.1-0.8 1.6-1.2 0.1-0.1 0.1-0.1 0.2 0.1 0.1 0.3 0.2 0.7 0.2 1 0 0.2 0 0.2-0.2 0.2zM26.1 24.2c-0.2 0.3-0.4 0.4-0.8 0.4s-0.9 0-1.3 0c0 0 0 0 0 0-0.4 0-0.8 0-1.3 0-0.2 0-0.4-0.1-0.5-0.3-0.3-0.5-0.4-1-0.3-1.5 0.2-1.1 0.9-1.8 2-2.1 0.1 0 0.2 0 0.3 0 0.3 0 0.5 0.1 0.6 0.3 0.4 0.7 0.7 1.5 1.1 2.2 0.3 0.4 0.4 0.7 0.2 1z"></path>
</svg>
