<!-- Generated by IcoMoon.io -->
<svg version="1.1" xmlns="http://www.w3.org/2000/svg" width="32" height="32" viewBox="0 0 32 32">
<title>tusd</title>
<path fill="#2b2e7f" d="M16 32c-8.837 0-16-7.163-16-16s7.163-16 16-16 16 7.163 16 16-7.163 16-16 16zM17.057 19.028v-5.86h0.77c2.545 0 3.172-2.373 3.172-2.373h-6.683c-3.172 0-3.71 2.374-3.71 2.374h3.943v8.817s2.508-0.753 2.508-2.958zM24.395 23.594c2.248-2.336 3.11-5.58 2.301-8.683-0.453-1.687-1.317-3.134-2.479-4.279l-0.001-0.001c-0.108-0.106-0.216-0.214-0.342-0.32l-0.108-0.107c-0.071-0.069-0.147-0.133-0.228-0.192l-0.006-0.004-0.359-0.267-0.127-0.090c-0.099-0.065-0.181-0.124-0.261-0.185l0.010 0.007-0.163-0.106c-0.062-0.045-0.133-0.086-0.207-0.121l-0.008-0.004-0.162-0.107c-0.072-0.036-0.144-0.090-0.216-0.125l-0.162-0.090c-0.061-0.033-0.138-0.068-0.217-0.1l-0.017-0.006-0.055-0.018c0.198 0.16 0.395 0.339 0.575 0.517 1.599 1.586 2.589 3.784 2.589 6.213s-0.99 4.627-2.589 6.213l-0.001 0.001c-4.386 4.35-11.505 4.35-15.893 0-0.162-0.16-0.306-0.32-0.467-0.48l-0.126-0.143c-0.086-0.1-0.175-0.21-0.259-0.324l-0.011-0.015c0.594 1.151 1.32 2.138 2.176 2.995l-0-0c4.584 4.546 12.026 4.546 16.61 0 0.081-0.045 0.149-0.106 0.201-0.178l0.001-0.002zM10.4 22.386c-0.21-0.172-0.397-0.341-0.577-0.518l0.001 0.001c-1.601-1.587-2.592-3.788-2.592-6.22s0.991-4.632 2.591-6.219l0.001-0.001c4.391-4.354 11.516-4.354 15.907 0 0.306 0.304 0.593 0.625 0.863 0.964-0.594-1.146-1.32-2.128-2.176-2.979l-0.001-0.001c-4.588-4.551-12.038-4.551-16.626 0-0.054 0.053-0.108 0.125-0.18 0.178-3.041 3.177-3.455 7.924-1.025 11.529 0.954 1.39 2.284 2.55 3.814 3.265z"></path>
</svg>
