<!-- Generated by IcoMoon.io -->
<svg version="1.1" xmlns="http://www.w3.org/2000/svg" width="32" height="32" viewBox="0 0 32 32">
<title>uni</title>
<path fill="#ff007a" d="M8.5 22.5c0.1-0.2 0.1-0.2 0-0.3-0.1 0-0.1 0-0.1-0.1 0-0.2 0.4-0.3 0.6-0.1s0.3 0.5 0.2 0.8c-0.2 0.2-0.4 0.3-0.6 0.1-0.1-0.1-0.1-0.2-0.1-0.4zM15.1 16.5c0.2 0 0.4-0.1 0.5-0.2 0.1-0.2 0.1-0.3-0.1-0.5-0.4-0.2-0.9 0-0.9 0.3-0.1 0.2 0.2 0.4 0.5 0.4zM32 16c0 8.8-7.2 16-16 16s-16-7.2-16-16c0-4.8 2.1-9.1 5.5-12 3.2 3.8 7.6 9.2 7.9 9.6 0.2 0.2 0.1 0.5-0.2 0.7-0.2 0.1-0.6 0.2-0.8 0.2-0.3 0-0.5-0.1-0.7-0.3s-0.7-0.9-1.9-2.8c-0.9-1.4-1.7-2.6-1.7-2.6-0.1 0-0.1 0 1.7 3.1 1.1 1.8 1.4 2.5 1.4 2.6 0 0.2-0.1 0.3-0.3 0.5-0.4 0.4-0.6 0.8-0.7 1.8-0.2 1-0.5 1.8-1.6 3.1-0.7 0.7-0.7 0.9-0.9 1.2-0.2 0.4-0.3 0.6-0.3 1.1s0 0.8 0.2 1.3c0.2 0.5 0.3 0.7 0.7 1.3 0.3 0.5 0.5 0.9 0.5 1s0 0.1 0.5 0c1.2-0.3 2.2-0.7 2.7-1.3 0.3-0.3 0.4-0.5 0.4-1 0-0.3 0-0.4-0.1-0.6-0.2-0.3-0.4-0.5-1-0.9-0.7-0.5-1-1-1.1-1.5-0.1-0.4 0-0.7 0.4-1.6s0.5-1.3 0.6-2.2c0.1-0.6 0.1-0.8 0.3-1s0.4-0.2 0.8-0.3c0.7-0.1 1.1-0.3 1.5-0.6 0.3-0.3 0.5-0.6 0.5-1v-0.3l-0.2-0.2c-0.5-0.6-6.1-6.8-8.5-9.4 2.8-2.4 6.4-3.9 10.4-3.9 8.8 0 16 7.2 16 16zM21.7 10.4l1.2 0.6c0.9 0.5 1 0.8 1 2 0 0.5 0 0.6-0.1 0.8-0.1 0.3-0.1 0.3 0 0.1 0.2-0.4 0.3-0.8 0.3-1.4 0-0.4 0-0.4 0.1-0.5s0.1-0.1 0.2 0c0.2 0.1 0.8 0.6 1.1 0.9l0.2 0.2-0.2-0.3c-0.1-0.2-0.5-0.6-0.8-0.9-0.7-0.7-0.7-0.8-0.8-1.4 0-0.5 0-0.9 0.1-1.2 0.1-0.1 0.1-0.2 0.1-0.2-0.1 0-0.1 0.1-0.2 0.2-0.1 0.3-0.2 0.7-0.2 1.2 0 0.3-0.1 0.5-0.1 0.5s-0.1 0-0.6-0.2c-0.3-0.1-1.1-0.4-1.3-0.4zM14.4 8.8c0.7 0.2 1.2 0.5 1.8 1.1 0.3 0.4 0.7 0.8 1.3 1.6 1.3 1.8 1.9 2.2 3 2.6 0.7 0.2 1.3 0.3 2.5 0.4 1.3 0.1 1.8 0.2 2.3 0.5 0.3 0.2 0.5 0.4 0.7 0.7l0.1 0.2v-0.2c-0.1-0.7-0.6-1.8-1.3-2.6l-0.1-0.1-0.1 0.3c-0.1 0.7-0.5 1.2-0.8 1.2-0.2 0-0.3-0.1-0.4-0.2s-0.1-0.2 0-0.4c0.3-0.4 0.3-0.9 0.2-1.5 0-0.2-0.1-0.4-0.1-0.4-0.1-0.1-0.6-0.4-1-0.6-1.3-0.6-2.9-0.7-4.4-0.5l-0.4 0.1-0.2-0.3c-0.9-1.1-1.8-1.7-2.8-1.9-0.1 0-0.2 0-0.3 0zM19.2 21.8c-0.1 0-0.7 0.1-1.2 0.2-1 0.1-1.5 0.3-2 0.5-0.3 0.1-0.7 0.4-0.7 0.4 0 0.1 0.1 0 0.2 0 0.6-0.2 1.3-0.3 2.3-0.4 0.4 0 0.8-0.1 1-0.1 0.9-0.1 1.5-0.4 2-0.9 0.3-0.3 0.5-0.5 0.6-0.9 0.1-0.2 0.1-0.3 0.1-0.7 0-0.5 0-0.5-0.1-0.8s-0.2-0.6-0.4-0.8c0 0.1 0.1 0.4 0.1 0.6 0.2 1.3-0.5 2.4-1.9 2.9zM15.6 13.7c0.4 0 0.5-0.1 0.3-0.3-0.2-0.3-0.4-0.8-0.5-1 0-0.1-0.1-0.5-0.2-0.8-0.2-1.1-0.5-1.6-1-1.9-0.2-0.1-0.7-0.3-0.9-0.3h-0.1v0.3c0 0.9 0.3 2.1 0.9 2.9 0.4 0.6 1.1 1 1.5 1.1zM13.9 17.2c0.2 0.1 0.3 0.2 0.7 0.2 0.8 0 1.4-0.3 1.5-0.7 0.1-0.3-0.2-0.8-0.6-1-0.2-0.1-0.6-0.2-0.8-0.1-0.3 0.1-0.6 0.4-0.7 0.8-0.1 0.2-0.1 0.6-0.1 0.8zM22.1 28.6c0 0-0.1 0.1-0.2 0.1-0.7 0.2-1.5 0.2-1.9-0.1-0.3-0.2-0.5-0.6-0.6-1.1 0 0 0-0.4-0.1-0.8-0.1-1-0.3-1.4-0.6-1.9s-1-0.9-1.7-1.1c-0.5-0.2-1.3-0.2-1.8-0.1-1.1 0.2-2.4 0.8-3.4 1.6l-0.3 0.3h0.3c1.4 0.2 1.7 0.4 2.7 1.4 0.6 0.6 0.7 0.7 1.2 0.8 0.7 0.2 1.4-0.1 1.6-0.7 0.1-0.2 0.1-0.7 0-0.9-0.3-0.5-1.1-0.7-1.5-0.3-0.3 0.3-0.2 0.8 0.2 0.9-0.2-0.1-0.3-0.2-0.3-0.4 0-0.5 0.5-0.7 0.9-0.5s0.5 0.4 0.5 0.7c0 0.5-0.4 0.9-0.9 0.8-0.3 0-0.6-0.2-0.8-0.4-0.4-0.5-0.2-1.3 0.4-1.6 0.5-0.2 1.1-0.1 1.6 0.2 0.6 0.4 0.8 0.7 1.3 1.8 0.2 0.4 0.4 0.8 0.5 0.9 0.5 0.7 1 1 1.7 1 0.4 0 0.7 0 1-0.2 0.3-0.1 0.6-0.4 0.2-0.4zM26.7 22.9c-0.1-0.7-0.3-1.2-0.7-1.7-0.5-0.5-1.1-1-2.2-1.6-0.9-0.5-1.3-0.7-1.4-0.8s-0.2-0.1-0.2-0.1-0.1 0-0.1 0.1c-0.2 0.7-0.2 1.4 0.2 2.2 0.2 0.4 0.3 0.7 1.1 1.8 0.6 1 0.9 1.5 1.1 2 0.3 0.7 0.2 1.4-0.1 2.1-0.1 0.2-0.1 0.3-0.1 0.3s0.1 0 0.3-0.1c1-0.5 1.7-1.4 2-2.6 0.1-0.3 0.1-1.2 0.1-1.6zM27.3 20.9c0.1-0.4 0.2-1.3 0.1-1.7-0.2-1.5-1.2-2.7-2.9-3.2-0.5-0.1-1.1-0.2-2.1-0.4-1.7-0.3-2.4-0.5-2.9-0.9l-0.2-0.2v0.4c0 1.6 1 2.5 3.7 3.6 1.8 0.7 2.5 1.1 3.1 1.6 0.5 0.4 0.8 0.9 0.8 1.5v0.2c0.1 0 0.4-0.6 0.4-0.9z"></path>
</svg>
