<!-- Generated by IcoMoon.io -->
<svg version="1.1" xmlns="http://www.w3.org/2000/svg" width="32" height="32" viewBox="0 0 32 32">
<title>unity</title>
<path fill="#f58634" d="M16 0c-8.8 0-16 7.2-16 16s7.2 16 16 16 16-7.2 16-16-7.2-16-16-16zM12 21.3c-1.1 0-2.1-0.2-3-0.5-3.5-1.3-5-4.4-3.3-7.5v0c0.1 0.4 0.2 0.9 0.5 1.2 0.3 0.5 0.8 0.8 1.4 1.1 2.2 0.9 6.1 0.3 7.7 1.5 0.5 0.4 0.8 0.9 0.8 1.5 0 0.8-0.4 1.4-1.1 1.9-0.8 0.6-1.8 0.8-3 0.8v0zM15.9 22.9c-0.9 0-1.8-0.1-2.6-0.2v0c1.2-0.1 2.2-0.5 3-1.1 1.1-0.8 1.6-1.7 1.6-2.9 0-1-0.4-1.8-1.2-2.5s-1.9-1.1-3.2-1.2c-0.5-0.1-1.1-0.1-1.9-0.1-1.8-0.1-3-0.4-3.5-0.7-0.2-0.1-0.4-0.3-0.5-0.5s-0.2-0.4-0.2-0.6c0-0.6 0.3-1 1-1.4 0.6-0.6 1.5-0.7 2.5-0.7 0 0 0 0 0 0 1 0 1.9 0.2 2.8 0.5 3.8 1.4 7.5 6.1 9.9 9.5-2 1.2-4.7 1.9-7.7 1.9zM24.3 18.9c-2.3-3.3-5.8-7.5-10.1-8.9 0 0 0 0 0 0-0.4-0.1-0.7-0.2-1.1-0.3-0.1 0-0.1 0-0.2 0-0.3-0.1-0.6-0.1-1-0.1v0h-0.1c0.3-0.1 0.7-0.2 1-0.2 1-0.2 2-0.3 3.1-0.3 0 0 0 0 0 0s0 0 0 0c3.3 0 6.3 0.9 8.4 2.4v0 7.4c0 0 0 0 0 0v0zM25.9 18.9v-5.9c0.7 0.9 1 1.9 1 2.9s-0.3 2.1-1 3z"></path>
</svg>
