<!-- Generated by IcoMoon.io -->
<svg version="1.1" xmlns="http://www.w3.org/2000/svg" width="32" height="32" viewBox="0 0 32 32">
<title>usdc</title>
<path fill="#2775c9" d="M16 32c-8.837 0-16-7.163-16-16s7.163-16 16-16 16 7.163 16 16-7.163 16-16 16zM15.75 27.5c6.489 0 11.75-5.261 11.75-11.75v0c0-6.49-5.26-11.75-11.75-11.75s-11.75 5.26-11.75 11.75 5.26 11.75 11.75 11.75zM15.050 11.39v-0.74c0-0.389 0.316-0.705 0.705-0.705s0.705 0.316 0.705 0.705v0 0.69c1.155 0.086 2.098 0.9 2.376 1.982l0.004 0.018c0.006 0.028 0.010 0.059 0.010 0.092 0 0.197-0.135 0.362-0.317 0.407l-0.003 0.001h-0.47c-0.317-0.002-0.59-0.187-0.718-0.455l-0.002-0.005c-0.289-0.493-0.816-0.819-1.42-0.819-0.060 0-0.119 0.003-0.178 0.009l0.007-0.001c-1 0-1.6 0.62-1.6 1.18s0.47 0.89 1.47 1.14l1 0.22c1.73 0.37 2.46 1.1 2.46 2.37-0.022 1.419-1.17 2.563-2.588 2.58h-0.002v0.85c0 0.389-0.316 0.705-0.705 0.705s-0.705-0.316-0.705-0.705v0-0.84c-1.26-0.020-2.311-0.89-2.606-2.061l-0.004-0.019c-0.004-0.020-0.006-0.043-0.006-0.066 0-0.171 0.122-0.313 0.284-0.344l0.002-0h0.59c0.268 0.002 0.499 0.159 0.608 0.386l0.002 0.004c0.339 0.554 0.94 0.918 1.627 0.918 0.061 0 0.121-0.003 0.181-0.009l-0.008 0.001c1 0 1.77-0.6 1.77-1.21s-0.44-0.97-1.51-1.22l-1.1-0.26c-1.57-0.33-2.31-1.12-2.31-2.33 0.057-1.334 1.118-2.402 2.444-2.47l0.006-0zM6.94 15.75c0.002-3.865 2.499-7.147 5.968-8.322l0.062-0.018c0.042-0.015 0.090-0.024 0.14-0.024 0.232 0 0.42 0.188 0.42 0.42 0 0.001 0 0.003-0 0.004v-0 0.23c-0.001 0.387-0.237 0.718-0.574 0.858l-0.006 0.002c-2.723 1.12-4.605 3.753-4.605 6.825s1.882 5.705 4.556 6.807l0.049 0.018c0.343 0.145 0.58 0.479 0.58 0.868 0 0.001 0 0.001 0 0.002v-0 0.21c0 0.249-0.201 0.45-0.45 0.45v0h-0.14c-3.515-1.202-5.998-4.476-6-8.33v-0zM24.56 15.75c0 0.002 0 0.005 0 0.008 0 3.853-2.479 7.126-5.928 8.314l-0.062 0.018c-0.045 0.016-0.096 0.025-0.15 0.025-0.258 0-0.467-0.207-0.47-0.464v-0.17c0.011-0.397 0.252-0.735 0.594-0.887l0.006-0.003c2.716-1.123 4.593-3.753 4.593-6.82s-1.876-5.697-4.544-6.802l-0.049-0.018c-0.355-0.153-0.601-0.497-0.61-0.899l-0-0.001v-0.15c0-0.26 0.21-0.47 0.47-0.47h0.15c3.512 1.201 5.993 4.47 6 8.319v0.001z"></path>
</svg>
