<!-- Generated by IcoMoon.io -->
<svg version="1.1" xmlns="http://www.w3.org/2000/svg" width="32" height="32" viewBox="0 0 32 32">
<title>vet</title>
<path fill="#15bdff" d="M16 32c-8.837 0-16-7.163-16-16s7.163-16 16-16 16 7.163 16 16-7.163 16-16 16zM14.738 24.734c0.502 1.021 1.952 1.021 2.453 0l7.78-15.849c0.018-0.034 0.029-0.075 0.029-0.118 0-0.143-0.116-0.258-0.258-0.258-0.001 0-0.003 0-0.004 0h-0.331c-0 0-0.001 0-0.001 0-0.147 0-0.274 0.083-0.338 0.204l-0.001 0.002-5.605 11.372c-0.5 1.020-1.951 1.020-2.452 0l-5.622-11.381c-0.065-0.123-0.192-0.206-0.339-0.206-0 0-0.001 0-0.001 0h-2.668c-0.209 0.001-0.378 0.171-0.378 0.38 0 0.060 0.014 0.117 0.039 0.168l-0.001-0.002 7.698 15.688z"></path>
</svg>
