<!-- Generated by IcoMoon.io -->
<svg version="1.1" xmlns="http://www.w3.org/2000/svg" width="32" height="32" viewBox="0 0 32 32">
<title>via</title>
<path fill="#565656" d="M11.133 14.296l0.751 1.96-3.874-0.025-0.010 1.719 4.544 0.029 3.456 9.021 3.44-8.978 4.55 0.029 0.010-1.719-3.904-0.024 0.77-2.012h3.129v-1.719h-2.47l1.896-4.95-1.565-0.627-3.56 9.296-4.602-0.029-3.55-9.267-1.565 0.627 1.896 4.95h-2.47v1.72zM14.353 17.99l3.285 0.020-1.638 4.279zM16 32c-8.837 0-16-7.163-16-16s7.163-16 16-16 16 7.163 16 16-7.163 16-16 16z"></path>
</svg>
