<!-- Generated by IcoMoon.io -->
<svg version="1.1" xmlns="http://www.w3.org/2000/svg" width="32" height="32" viewBox="0 0 32 32">
<title>vibe</title>
<path fill="#338be5" d="M16 32c-8.837 0-16-7.163-16-16s7.163-16 16-16 16 7.163 16 16-7.163 16-16 16zM22.63 16.918c-0.36-0.094-0.72-0.173-1.096-0.267 1.497-2.247 2.977-4.471 4.466-6.719-0.039-0.005-0.085-0.008-0.131-0.008-0.002 0-0.004 0-0.006 0h0c-0.952 0-1.905 0-2.857-0.008-0.144 0-0.192 0.070-0.256 0.165-1.76 2.655-3.521 5.312-5.282 7.972-0.48 0.729-0.968 1.457-1.472 2.217-0.041-0.046-0.078-0.098-0.11-0.152l-0.002-0.005c-17.299-27.636-19.464-30.904-21.632-34.171l15.069 24.148c-0.055-0.108-0.165-0.181-0.292-0.181-0.007 0-0.014 0-0.021 0.001l0.001-0c-0.904 0.007-1.808 0-2.713 0.007-0.056 0-0.12 0.008-0.208 0.016 1.465 2.224 2.897 4.417 4.346 6.633-0.056 0.016-0.088 0.016-0.12 0.024-0.673 0.172-1.345 0.32-2.009 0.525s-1.304 0.47-1.825 0.94c-0.656 0.587-0.64 1.198 0.040 1.77 0.024 0.023 0.056 0.038 0.080 0.062 0.465 0.368 1 0.61 1.561 0.807 1.769 0.634 3.617 0.877 5.49 1.010 0.119 0.002 0.223 0.067 0.279 0.162l0.001 0.002c1.309 2.064 1.988 3.085 2.673 4.101l-0.616-0.969c0.043-0.071 0.090-0.14 0.144-0.204 0.656-0.979 1.304-1.958 1.96-2.936 0.049-0.075 0.125-0.13 0.214-0.15l0.002-0c0.937-0.117 1.881-0.195 2.81-0.336 1.144-0.172 2.264-0.462 3.32-0.971 0.417-0.196 0.809-0.43 1.097-0.799 0.328-0.423 0.352-0.846-0.008-1.245-0.236-0.228-0.498-0.432-0.78-0.607l-0.020-0.012c-0.649-0.4-1.369-0.626-2.097-0.822zM8.898 18.798c-0.091-0.093-0.146-0.22-0.146-0.36 0-0.144 0.059-0.275 0.154-0.368l0-0c0.173-0.202 0.382-0.372 0.616-0.501 0.36-0.173 0.732-0.322 1.113-0.447 0.011-0.002 0.025-0.003 0.038-0.003 0.063 0 0.12 0.025 0.162 0.066l-0-0c0.648 0.979 1.288 1.966 1.937 2.945 0.008 0.015 0.008 0.039 0.024 0.094-1.145-0.173-2.25-0.368-3.25-0.9-0.25-0.145-0.464-0.32-0.646-0.523l-0.002-0.003zM21.502 19.643c-0.696 0.196-1.408 0.353-2.112 0.525-0.029 0.004-0.062 0.006-0.096 0.006s-0.067-0.002-0.1-0.006l0.004 0c0.248-0.376 0.488-0.744 0.728-1.104 0.384-0.572 0.768-1.144 1.144-1.723 0.072-0.11 0.144-0.157 0.264-0.094 0.353 0.172 0.713 0.336 1.057 0.509 0.1 0.060 0.192 0.134 0.272 0.219 0.32 0.329 0.32 0.69 0 1.010-0.323 0.313-0.723 0.54-1.16 0.658zM21.51 9h-11.035l5.554 8.732z"></path>
</svg>
