<!-- Generated by IcoMoon.io -->
<svg version="1.1" xmlns="http://www.w3.org/2000/svg" width="32" height="32" viewBox="0 0 32 32">
<title>vibe</title>
<path fill="#338be5" d="M12.8 20.1c0 0 0 0.1 0 0-1.1-0.1-2.2-0.3-3.2-0.8-0.3-0.1-0.5-0.3-0.6-0.5v0c-0.1-0.1-0.1-0.2-0.1-0.4 0-0.1 0.1-0.3 0.2-0.4 0.2-0.2 0.4-0.4 0.6-0.5 0.4-0.2 0.7-0.3 1.1-0.4 0 0 0 0 0 0 0.1 0 0.1 0 0.2 0.1 0.5 1 1.1 2 1.8 2.9zM21.1 17.3c-0.4 0.6-0.8 1.2-1.1 1.7-0.2 0.4-0.5 0.7-0.7 1.1v0c0 0 0.1 0 0.1 0s0.1 0 0.1 0c0.7-0.2 1.4-0.3 2.1-0.5v0c0.4-0.1 0.8-0.3 1.2-0.7 0.3-0.3 0.3-0.7 0-1-0.1-0.1-0.2-0.2-0.3-0.2-0.3-0.2-0.7-0.3-1.1-0.5-0.2 0-0.3 0-0.3 0.1zM32 16c0 8.8-7.2 16-16 16s-16-7.2-16-16 7.2-16 16-16 16 7.2 16 16zM10.5 9l5.6 8.7 5.4-8.7h-11zM21.5 16.7c1.5-2.2 3-4.5 4.5-6.7 0 0-0.1 0-0.1 0s0 0 0 0c-1 0-1.9 0-2.9 0-0.1 0-0.2 0.1-0.3 0.2-1.8 2.7-3.5 5.3-5.3 8-0.5 0.7-1 1.5-1.5 2.2v0 0 0c-0.5-0.8-1-1.5-1.5-2.2-1.8-2.7-3.5-5.3-5.3-8 0.1-0.2 0-0.3-0.1-0.3-1 0-1.9 0-2.9 0 0 0 0 0 0 0s-0.1 0-0.1 0c1.5 2.2 3 4.5 4.5 6.7-0.4 0.1-0.7 0.2-1.1 0.3-0.7 0.2-1.4 0.4-2.1 0.8v0c-0.3 0.2-0.5 0.4-0.8 0.6-0.4 0.4-0.3 0.8 0 1.2s0.7 0.6 1.1 0.8c1.1 0.5 2.2 0.8 3.3 1 0.9 0.1 1.9 0.2 2.8 0.3v0c0.1 0 0.2 0.1 0.2 0.1 0.2 0.2 0.3 0.5 0.5 0.7 0.5 0.7 1 1.5 1.5 2.2 0 0.1 0.1 0.1 0.1 0.2v0c0-0.1 0.1-0.1 0.1-0.2 0.5-0.7 1-1.5 1.5-2.2 0.2-0.2 0.3-0.5 0.5-0.7 0-0.1 0.1-0.1 0.2-0.1v0c0.9-0.1 1.9-0.2 2.8-0.3 1.1-0.2 2.3-0.5 3.3-1 0.4-0.2 0.8-0.4 1.1-0.8s0.4-0.8 0-1.2c-0.2-0.2-0.5-0.4-0.8-0.6v0c-0.6-0.4-1.4-0.6-2.1-0.8-0.3-0.1-0.7-0.2-1.1-0.2z"></path>
</svg>
