<!-- Generated by IcoMoon.io -->
<svg version="1.1" xmlns="http://www.w3.org/2000/svg" width="32" height="32" viewBox="0 0 32 32">
<title>vtc</title>
<path fill="#048657" d="M27.25 4.624c-0.096-0.092-0.197-0.187-0.3-0.28l-0.012-0.010-11.155 15.453-4.263-5.438h-6.938l-1.95 2.22h3.628l8.661 11.194c0.29 0.272 0.576 0.408 0.862 0.408 0.285 0 0.557-0.136 0.816-0.408l13.695-18.943c-0.134-0.279-0.232-0.467-0.335-0.652l0.040 0.079c1.259 2.228 2.001 4.892 2.001 7.729 0 0.009 0 0.017-0 0.026v-0.001c0 8.837-7.163 16-16 16s-16-7.163-16-16 7.163-16 16-16c4.386 0 8.36 1.765 11.25 4.624z"></path>
</svg>
