<!-- Generated by IcoMoon.io -->
<svg version="1.1" xmlns="http://www.w3.org/2000/svg" width="32" height="32" viewBox="0 0 32 32">
<title>wan</title>
<path fill="#136aad" d="M16 32c-8.837 0-16-7.163-16-16s7.163-16 16-16 16 7.163 16 16-7.163 16-16 16zM7 11.090v11.974l9-5.315 9 5.315v-11.974l-2.606 1.13v6.353l-6.394-3.787-6.333 3.787v-6.353l-2.667-1.13zM7.303 10.601l2.364 0.978 6.333-3.696 6.394 3.696 2.364-0.978-8.758-5.101-8.697 5.101zM9.182 22.422l6.848 4.078 6.849-4.078-2.030-1.13-4.819 2.825-4.878-2.825-1.97 1.13z"></path>
</svg>
