<!-- Generated by IcoMoon.io -->
<svg version="1.1" xmlns="http://www.w3.org/2000/svg" width="32" height="32" viewBox="0 0 32 32">
<title>wgr</title>
<path fill="#b80000" d="M23.6 12.4c0.1 0 0.1 0 0.2 0-1.6 2.8-3.2 5.5-4.8 8.3-0.1-0.2-0.3-0.4-0.4-0.6-0.6-1-1.2-2-1.7-3 0-0.1 0-0.2 0-0.3 0.1-0.2 0.2-0.4 0.3-0.6 0.7-1.2 1.4-2.4 2.1-3.7 0.1-0.1 0.2-0.2 0.3-0.2 1.4 0.1 2.7 0.1 4 0.1zM14.7 16.3c-0.7-1.2-1.4-2.4-2.1-3.7-0.1-0.1-0.2-0.2-0.3-0.2-1.3 0-2.6 0-3.9 0-0.1 0-0.1 0-0.2 0 1.6 2.8 3.2 5.5 4.8 8.3 0.1-0.2 0.3-0.4 0.4-0.6 0.6-1 1.2-2 1.7-3 0-0.1 0-0.2 0-0.3-0.1-0.1-0.3-0.3-0.4-0.5zM32 16c0 8.8-7.2 16-16 16s-16-7.2-16-16 7.2-16 16-16 16 7.2 16 16zM25.9 11.3c-0.2-0.3-0.4-0.4-0.7-0.4-2 0-3.9 0-5.9 0-0.5 0-0.8 0.2-1 0.6-0.5 0.9-1 1.8-1.5 2.7-0.2 0.4-0.4 0.8-0.6 1.1 0 0 0 0.1-0.1 0.1 0 0-0.1 0-0.1-0.1-0.2-0.4-0.4-0.8-0.6-1.1-0.5-0.9-1-1.8-1.5-2.7-0.2-0.4-0.5-0.6-1-0.6-2 0-3.9 0-5.9 0-0.3 0-0.6 0.1-0.7 0.4-0.2 0.3-0.1 0.6 0 0.8 0.2 0.4 0.4 0.8 0.7 1.1 0.6 1.1 1.2 2.1 1.8 3.2s1.3 2.2 1.9 3.3c0.6 1 1.1 2 1.7 3 0.2 0.3 0.4 0.4 0.7 0.4s0.5-0.2 0.7-0.4c0.1-0.3 0.3-0.5 0.5-0.8 0.5-0.9 1-1.8 1.5-2.7 0.1-0.2 0.2-0.4 0.4-0.6 0.1 0.2 0.2 0.4 0.4 0.6 0.5 0.9 1 1.8 1.5 2.7 0.2 0.3 0.3 0.5 0.5 0.8 0.1 0.3 0.4 0.4 0.7 0.4s0.6-0.1 0.7-0.4c0.6-1 1.1-2 1.7-3 0.6-1.1 1.3-2.2 1.9-3.3s1.2-2.1 1.8-3.2c0.2-0.4 0.4-0.8 0.7-1.1-0.1-0.3-0.1-0.5-0.2-0.8z"></path>
</svg>
