<!-- Generated by IcoMoon.io -->
<svg version="1.1" xmlns="http://www.w3.org/2000/svg" width="32" height="32" viewBox="0 0 32 32">
<title>woo</title>
<path d="M16 0c-8.8 0-16 7.2-16 16s7.2 16 16 16 16-7.2 16-16-7.2-16-16-16zM24.6 18.5c-0.5 1.5-0.9 3-1.4 4.5-0.2 0.8-0.7 1.1-1.5 1.1-3.4 0-2.8 0.4-4.1-2.7-0.5-1.3-1.1-2.7-1.7-4.1-0.6 1.5-1.2 2.8-1.7 4.2-1.3 3.2-0.8 2.6-4.4 2.6-0.4 0-1-0.5-1.1-0.9-1.6-5-3.1-10.1-4.6-15.2 0 0 0-0.1 0-0.1 1.2 0 2.5 0 3.7 0 0.1 0 0.3 0.3 0.3 0.5 1 3.3 2 6.5 3 9.9 0.7-1.5 1.3-2.9 1.9-4.4 0.6-1.4 1.5-2.2 3-2.2s2.4 0.9 3 2.3c0.6 1.4 1.2 2.8 1.8 4.3 0.2-0.8 0.4-1.4 0.6-2.1 0-0.1 0.2-0.3 0.3-0.3 1.2 0 2.4 0 3.7 0-0.2 0.9-0.5 1.8-0.8 2.6zM26.1 13.8c0 0.1-0.1 0.2-0.2 0.2-1.2 0-2.5 0-3.8 0 0.6-2 1.2-3.9 1.8-5.9 0-0.1 0.1-0.2 0.2-0.2 1.3 0 2.5 0 3.8 0-0.6 2-1.2 3.9-1.8 5.9z"></path>
</svg>
