<!-- Generated by IcoMoon.io -->
<svg version="1.1" xmlns="http://www.w3.org/2000/svg" width="32" height="32" viewBox="0 0 32 32">
<title>wpr</title>
<path fill="#ffe600" d="M3.993 5.425l4.854 17.382 0.035 0.15h4.186l1.87-6.932 1.87 6.932h4.185l0.036-0.15 1.96-7.078 3.435 12.41c-2.774 2.399-6.416 3.861-10.4 3.861-0.008 0-0.017 0-0.025-0h0.001c-8.837 0-16-7.163-16-16 0-0.007-0-0.015-0-0.023 0-4.055 1.514-7.756 4.008-10.569l-0.014 0.017zM6.643 3.020c2.585-1.888 5.826-3.020 9.332-3.020 0.009 0 0.018 0 0.026 0h-0.001c8.837 0 16 7.163 16 16 0 0.007 0 0.016 0 0.024 0 3.509-1.134 6.753-3.056 9.385l0.031-0.045-4.074-14.714-0.035-0.15h-3.75l-2.336 8.438-1.973-8.438h-3.739l-1.973 8.438-4.453-15.918z"></path>
</svg>
