<!-- Generated by IcoMoon.io -->
<svg version="1.1" xmlns="http://www.w3.org/2000/svg" width="32" height="32" viewBox="0 0 32 32">
<title>wtc</title>
<path fill="#8200ff" d="M16 0c-8.8 0-16 7.2-16 16s7.2 16 16 16 16-7.2 16-16-7.2-16-16-16zM8.9 14.6v4.6l-2.1 0.5c-0.1 0-0.1 0-0.2 0-0.3 0-0.6-0.2-0.7-0.5 0-0.1 0-0.1 0-0.2v-7.6c0-0.3 0.2-0.6 0.5-0.7l3.6-0.7c0.1 0 0.1 0 0.2 0 0.3 0 0.6 0.2 0.7 0.5 0 0.1 0 0.1 0 0.2v2.4l-0.9 0.2c-0.6 0.2-1.1 0.7-1.1 1.3zM14.4 20.4v0.9c0 0.2-0.1 0.3-0.1 0.4 0 0 0 0 0 0s-0.1 0.1-0.1 0.1c-0.1 0.2-0.2 0.2-0.3 0.2l-3.4 0.8c-0.1 0-0.1 0-0.2 0-0.3 0-0.6-0.2-0.7-0.5v0c0 0 0 0 0 0s0-0.1 0-0.1c0 0 0-0.1 0-0.1s0 0 0 0v0-7.6c0-0.3 0.2-0.6 0.5-0.7l2.8-0.7v5.8c0 0 0 0 0 0 0 0.1 0 0.2 0 0.3v0c0.2 0.6 0.7 1 1.3 1 0.1 0.2 0.2 0.2 0.2 0.2v0c0.1 0 0.1 0 0 0v0zM16.7 14.6v4.5l-2.2 0.5c-0.1 0-0.1 0-0.2 0-0.3 0-0.6-0.2-0.7-0.5 0-0.1 0-0.1 0-0.2v-7.6c0-0.3 0.2-0.6 0.5-0.7l3.4-0.8c0.1 0 0.1 0 0.2 0 0.3 0 0.6 0.2 0.7 0.5 0 0.1 0 0.1 0 0.2 0 0 0 0 0 0v2.5l-0.7 0.2c-0.6 0.3-1 0.8-1 1.4zM22.2 21.4c0 0 0 0 0 0v0c0 0.2-0.1 0.3-0.2 0.5-0.1 0.1-0.2 0.2-0.3 0.2v0l-3.4 0.8c-0.1 0-0.1 0-0.2 0 0 0 0 0 0 0s0 0 0 0c-0.2 0-0.4-0.1-0.6-0.3 0 0 0 0 0 0s-0.1-0.1-0.1-0.2c0 0 0 0 0 0v0c0 0 0 0 0 0 0-0.1 0-0.1 0-0.2v-7.6c0 0 0-0.1 0-0.1s0-0.1 0-0.1c0 0 0 0 0 0 0-0.1 0-0.1 0.1-0.2 0 0 0 0 0 0 0.1-0.1 0.2-0.2 0.4-0.2l2.6-0.6v5.7c0 0 0 0 0 0 0 0.1 0 0.2 0 0.3 0.1 0.3 0.2 0.5 0.4 0.6 0.3 0.3 0.6 0.4 1 0.4 0.1 0 0.2 0 0.3 0v0 0 0 1zM26 10.7v7.6c0 0.3-0.2 0.6-0.5 0.7l-3.5 0.8c-0.1 0-0.1 0-0.2 0-0.4 0-0.7-0.3-0.7-0.7v-7.6c0-0.3 0.2-0.6 0.5-0.7v0l3.4-0.8c0.1 0 0.1 0 0.2 0 0.3 0 0.6 0.2 0.7 0.5 0.1 0.1 0.1 0.1 0.1 0.2 0 0 0 0 0 0z"></path>
</svg>
