<!-- Generated by IcoMoon.io -->
<svg version="1.1" xmlns="http://www.w3.org/2000/svg" width="32" height="32" viewBox="0 0 32 32">
<title>xbp</title>
<path fill="#21af67" d="M16 32c-8.837 0-16-7.163-16-16s7.163-16 16-16 16 7.163 16 16-7.163 16-16 16zM16 28c6.627 0 12-5.373 12-12s-5.373-12-12-12-12 5.373-12 12 5.373 12 12 12zM20.613 11.651c0.178 0.236 0.268 0.527 0.256 0.822-0.014 0.333-0.081 0.646-0.193 0.937l0.007-0.020c-0.099 0.275-0.24 0.532-0.418 0.763-0.325 0.413-0.719 0.756-1.166 1.017l-0.020 0.010c-0.16 0.095-0.345 0.18-0.54 0.244l-0.020 0.006c0.004 0.001 0.007 0.003 0.010 0.004l-0-0-6.268 0.617 3.142-8.634c-0.252 0.019-0.469 0.043-0.683 0.074l0.053-0.006c-4.165 0.598-7.377 4.187-7.377 8.515 0 2.161 0.816 4.243 2.285 5.829l-0.852 2.345c-2.28-2-3.711-4.92-3.711-8.173 0-0 0-0.001 0-0.001v0c0-5.877 4.683-10.677 10.512-10.873 0.122-0.004 0.245-0.010 0.369-0.010 0.080 0 0.159 0.007 0.238 0.007 0.813 0.017 1.622 0.124 2.411 0.321l-1.962 5.392h1.45c0.686 0 1.227 0.076 1.62 0.227s0.681 0.347 0.857 0.587zM17.939 13.756c0.056-0.132 0.089-0.285 0.089-0.446 0-0.026-0.001-0.052-0.003-0.077l0 0.003c-0.009-0.13-0.065-0.245-0.151-0.33l-0-0c-0.088-0.080-0.195-0.139-0.315-0.169l-0.005-0.001c-0.117-0.032-0.251-0.050-0.39-0.050-0.003 0-0.007 0-0.010 0h-1.129l-0.758 2.083h1.13c0.313-0.002 0.62-0.080 0.897-0.228 0.295-0.151 0.508-0.413 0.645-0.785zM19.2 5.598c4.444 1.37 7.682 5.515 7.682 10.402 0 6-4.881 10.882-10.882 10.882-0.003 0-0.007 0-0.010 0-2.538 0-4.872-0.874-6.718-2.337l0.022 0.017 0.831-2.285 2.035-5.581 6.326-0.624c0.16 0.064 0.315 0.143 0.46 0.237 0.185 0.122 0.342 0.282 0.46 0.47 0.13 0.215 0.213 0.455 0.242 0.705 0.038 0.273-0.010 0.592-0.141 0.954-0.357 0.978-0.956 1.69-1.798 2.134-0.841 0.446-1.917 0.668-3.229 0.668h-1.448l-0.892 2.445c0.17 0.086 0.342 0.168 0.519 0.243 0.988 0.428 2.138 0.677 3.346 0.677 4.751 0 8.603-3.852 8.603-8.603 0-3.891-2.583-7.179-6.128-8.242l-0.061-0.016 0.781-2.147zM14.56 17.073l-0.845 2.316h1.323c0.167 0 0.333-0.013 0.498-0.036 0.186-0.025 0.368-0.077 0.54-0.154 0.185-0.086 0.353-0.205 0.495-0.352 0.164-0.175 0.292-0.386 0.372-0.619l0.004-0.012c0.088-0.245 0.111-0.443 0.069-0.594-0.037-0.144-0.124-0.263-0.24-0.342l-0.002-0.001c-0.121-0.078-0.264-0.135-0.417-0.16l-0.007-0.001c-0.141-0.027-0.303-0.044-0.469-0.045h-1.321z"></path>
</svg>
