<!-- Generated by IcoMoon.io -->
<svg version="1.1" xmlns="http://www.w3.org/2000/svg" width="32" height="32" viewBox="0 0 32 32">
<title>xby</title>
<path fill="#56f4f1" d="M16 32c-8.837 0-16-7.163-16-16s7.163-16 16-16 16 7.163 16 16-7.163 16-16 16zM6 9.016c0 0.010 1.467 2.51 3.26 5.557 2.312 3.929 3.265 5.539 3.276 5.537 0.015-0.003 6.53-11.080 6.53-11.1 0-0.006-1.366-0.010-3.072-0.010-2.634 0-3.073 0.002-3.073 0.014 0 0.008 0.633 1.080 1.406 2.381s1.408 2.374 1.41 2.38c0.002 0.006-0.116 0.213-0.26 0.46l-0.264 0.45-0.028-0.046-3.348-5.634-2.919-0.003c-2.708-0.002-2.918-0.001-2.918 0.014zM20.14 9.007c-0.108 0.177-7.057 12.017-7.062 12.028-0.006 0.024 2.904 4.969 2.923 4.965 0.012-0.003 2.94-4.963 2.949-4.998 0.003-0.010-0.564-0.974-1.33-2.265 1.041 1.911 0.598 1.174 0.156 0.437l-1.495-2.693c-0.004-0.012 0.52-0.903 0.53-0.898 0.003 0.002 0.604 1.011 1.336 2.242 1.026 1.727 1.332 2.236 1.346 2.234s1.1-1.841 3.259-5.508c-3.086 5.714-2.011 3.908-0.94 2.1l4.184-7.629 0.004-0.022h-2.928c-1.61 0-2.93 0.003-2.933 0.007z"></path>
</svg>
