<!-- Generated by IcoMoon.io -->
<svg version="1.1" xmlns="http://www.w3.org/2000/svg" width="32" height="32" viewBox="0 0 32 32">
<title>xem</title>
<path fill="#67b2e8" d="M16 32c-8.837 0-16-7.163-16-16s7.163-16 16-16 16 7.163 16 16-7.163 16-16 16zM6.145 11.954c0.084 0.7 0.206 1.398 0.365 2.093 0.025 0.111 0.058 0.209 0.1 0.3 0.737 1.564 2.3 2.627 4.111 2.627 2.063 0 3.804-1.379 4.351-3.266l0.008-0.032c0.11-0.395 0.163-0.817 0.18-1.353 0.044-2.233 1.301-4.163 3.137-5.162l0.032-0.016c-0.572-0.066-1.269-0.117-1.974-0.139l-0.041-0.001c-0.131-0.003-0.284-0.005-0.438-0.005-2.077 0-4.081 0.313-5.967 0.895l0.143-0.038c-1.587 0.483-2.963 1.088-4.248 1.831l0.096-0.051c0.002 0.759 0.050 1.53 0.145 2.317zM22.758 20.514c1.718-2.616 2.856-5.756 3.158-9.138l0.006-0.077c0.050-0.57 0.076-1.123 0.078-1.664-0.34-0.201-0.784-0.435-1.238-0.653l-0.118-0.051c-0.763-0.357-1.389-0.612-2.008-0.807-0.408-0.135-0.877-0.214-1.365-0.214-0.381 0-0.75 0.048-1.103 0.137l0.031-0.007c-1.999 0.494-3.458 2.273-3.458 4.392 0 0.292 0.028 0.578 0.081 0.855l-0.005-0.028c0.244 1.306 0.937 2.318 2.074 3.040 0.049 0.033 0.127 0.081 0.206 0.128l0.033 0.018c0.906 0.556 1.634 1.321 2.131 2.231l0.015 0.031c0.459 0.821 0.729 1.801 0.729 2.844 0 0.016-0 0.032-0 0.049l0-0.003c0.263-0.353 0.514-0.715 0.752-1.084zM19.721 24.187c0.047-0.046 0.087-0.099 0.116-0.159l0.002-0.003 0.044-0.087c0.090-0.177 0.128-0.251 0.172-0.343 0.52-1.085 0.618-2.186 0.283-3.307-0.57-1.889-2.295-3.242-4.335-3.242-0.2 0-0.396 0.013-0.589 0.038l0.023-0.002c-0.638 0.083-1.214 0.284-1.728 0.582l0.022-0.012c-0.863 0.505-1.899 0.803-3.006 0.803-1.116 0-2.16-0.303-3.056-0.831l0.028 0.015c1.037 2.333 2.404 4.33 4.067 6.035l-0.004-0.004c0.961 0.986 2.016 1.872 3.154 2.645l0.071 0.046c0.409 0.275 0.809 0.524 1.018 0.639 1.407-0.839 2.626-1.769 3.728-2.821l-0.008 0.008z"></path>
</svg>
