<!-- Generated by IcoMoon.io -->
<svg version="1.1" xmlns="http://www.w3.org/2000/svg" width="32" height="32" viewBox="0 0 32 32">
<title>xin</title>
<path fill="#1eb5fa" d="M16 32c-8.837 0-16-7.163-16-16s7.163-16 16-16 16 7.163 16 16-7.163 16-16 16zM26.405 7.151l-3.63 1.61c-0.21 0.117-0.35 0.337-0.35 0.59v12.98c0 0.001 0 0.001 0 0.002 0 0.255 0.145 0.476 0.356 0.586l0.004 0.002 3.63 1.57c0.047 0.026 0.103 0.041 0.162 0.041 0.187 0 0.338-0.151 0.338-0.338 0-0.001 0-0.002-0-0.004v0-16.74c-0.006-0.188-0.16-0.339-0.35-0.339-0.058 0-0.114 0.014-0.162 0.040l0.002-0.001zM9.020 8.741l-3.52-1.6c-0.047-0.026-0.103-0.041-0.162-0.041-0.187 0-0.338 0.151-0.338 0.338 0 0.001 0 0.002 0 0.004v-0 16.74c0 0.188 0.153 0.341 0.341 0.341 0.066 0 0.128-0.019 0.18-0.052l-0.001 0.001 3.54-1.87c0.193-0.119 0.32-0.33 0.32-0.57 0-0 0-0 0-0v0-12.7c-0.008-0.253-0.15-0.472-0.357-0.588l-0.004-0.002zM20.060 13.171l-3.79-2.17c-0.096-0.057-0.212-0.090-0.335-0.090s-0.239 0.033-0.338 0.092l0.003-0.002-3.86 2.15c-0.204 0.121-0.34 0.339-0.34 0.59v4.4c0 0.243 0.13 0.468 0.34 0.59l3.86 2.22c0.207 0.12 0.463 0.12 0.67 0l3.79-2.2c0.204-0.121 0.34-0.339 0.34-0.59v-4.4c0-0.002 0-0.004 0-0.006 0-0.249-0.136-0.466-0.337-0.583l-0.003-0.002z"></path>
</svg>
