<!-- Generated by IcoMoon.io -->
<svg version="1.1" xmlns="http://www.w3.org/2000/svg" width="32" height="32" viewBox="0 0 32 32">
<title>xsg</title>
<path fill="#d21e2b" d="M16 32c-8.837 0-16-7.163-16-16s7.163-16 16-16 16 7.163 16 16-7.163 16-16 16zM16.14 5.855l8.169 4.705 2.457-1.428-10.626-6.132v2.855zM24.472 20.272l2.481 1.428v-12.264l-2.48 1.428v9.408zM16.14 25.281v2.855l10.626-6.132-2.457-1.427-8.169 4.704zM5.164 22.004l10.625 6.132v-2.855l-8.144-4.704-2.481 1.427zM5 9.436v12.264l2.457-1.428v-9.408l-2.457-1.428zM5.164 9.132l2.48 1.428 8.145-4.705v-2.855l-10.625 6.132zM15.988 6.124l-8.191 4.706v9.455l8.191 4.728 8.168-4.728v-9.455l-8.168-4.705zM22.565 14.574l-0.351 0.608-2.34-1.31-2.996 1.684 2.995 1.685 2.34-1.31 0.352 0.608-1.966 1.1 1.966 1.1-0.351 0.609-1.966-1.1v2.2h-0.726v-2.598l-2.995-1.685v3.37l2.317 1.287-0.351 0.597-1.966-1.1v2.2h-0.727v-2.2l-1.966 1.1-0.374-0.608 2.34-1.288v-3.358l-2.996 1.685v2.598h-0.749v-2.2l-1.942 1.1-0.375-0.609 1.966-1.1-1.966-1.1 0.375-0.608 2.317 1.31 3.019-1.685-3.020-1.685-2.316 1.31-0.375-0.608 1.966-1.1-1.966-1.1 0.375-0.608 1.942 1.1v-2.212h0.75v2.598l2.995 1.685v-3.358l-2.317-1.288 0.351-0.608 1.966 1.1v-2.2h0.726v2.2l1.966-1.1 0.35 0.608-2.316 1.288v3.37l2.995-1.685v-2.61h0.726v2.2l1.966-1.1 0.35 0.609-1.965 1.1 1.966 1.111z"></path>
</svg>
