<!-- Generated by IcoMoon.io -->
<svg version="1.1" xmlns="http://www.w3.org/2000/svg" width="32" height="32" viewBox="0 0 32 32">
<title>ygg</title>
<path fill="#435cbf" d="M17.1 7.4l-1.1 1.3-1.1-1.3-6.3 3c0 0-0.5 5.6 1.9 10.1h1.2l1.6 2.4-0.7 0.5c0.9 0.8 2 1.5 3.3 1.9 1.3-0.4 2.4-1.1 3.3-1.9l-0.7-0.5 1.6-2.4h1.2c2.3-4.5 1.9-10.1 1.9-10.1l-6.1-3zM17.8 16.4v4l0.8 1.4h-4.8l0.9-1.1v-4.4l-3.6-6.2h3.8l2 4.1 1.6-3c0 0-0.1-1.1-0.6-1.1h3l-3.1 6.3zM16 4.6l-8.9 4.4c0 0-1.8 15.1 8.9 18.1 10.7-3 8.9-18.1 8.9-18.1l-8.9-4.4zM16 26.4c-10-4-8.1-16.9-8.1-16.9l8.1-3.9 8.1 3.8c0 0 1.9 12.9-8.1 17zM16 0c-8.8 0-16 7.2-16 16s7.2 16 16 16 16-7.2 16-16-7.2-16-16-16zM16 28.6c-11.8-4.4-10-20.3-10-20.3l10-4.8 10 4.8c0 0 1.8 15.9-10 20.3z"></path>
</svg>
