<!-- Generated by IcoMoon.io -->
<svg version="1.1" xmlns="http://www.w3.org/2000/svg" width="32" height="32" viewBox="0 0 32 32">
<title>zrx</title>
<path fill="#302c2c" d="M16 32c-8.837 0-16-7.163-16-16s7.163-16 16-16 16 7.163 16 16-7.163 16-16 16zM15.496 27h1.025c0.044-0.009 0.089-0.020 0.134-0.026 0.339-0.037 0.68-0.057 1.017-0.11 2.67-0.428 4.886-1.676 6.67-3.702 0.070-0.080 0.078-0.132 0.011-0.22-0.77-1.020-1.536-2.041-2.303-3.063-0.024-0.032-0.053-0.060-0.084-0.097l-0.107 0.158c-0.693 1.014-1.612 1.825-2.687 2.371l-0.041 0.019c-0.105 0.054-0.17 0.055-0.26-0.035-0.363-0.368-0.736-0.725-1.105-1.087l-0.665-0.647c-2.208 1.65-4.404 3.29-6.61 4.94 0.037 0.025 0.054 0.040 0.073 0.050 1.187 0.693 2.582 1.176 4.069 1.359l0.053 0.005c0.27 0.032 0.54 0.057 0.81 0.085zM16.466 5h-0.943c-0.048 0.009-0.097 0.020-0.146 0.026-0.435 0.051-0.875 0.077-1.304 0.155-2.234 0.405-4.16 1.412-5.783 2.995-0.25 0.243-0.48 0.506-0.728 0.77l2.467 3.287 0.102-0.15c0.7-1.031 1.633-1.854 2.728-2.404l0.041-0.019c0.093-0.047 0.15-0.039 0.225 0.035 0.469 0.464 0.943 0.923 1.415 1.383 0.085 0.083 0.171 0.163 0.26 0.247 2.244-1.61 4.476-3.21 6.718-4.82-0.033-0.023-0.050-0.037-0.070-0.048-1.273-0.744-2.775-1.244-4.378-1.397l-0.044-0.003c-0.188-0.018-0.375-0.038-0.562-0.057zM6.458 10.534c-1.335 2.42-1.776 4.958-1.232 7.644 0.508 2.51 1.774 4.578 3.724 6.257l3.26-2.446c-0.017-0.034-0.020-0.044-0.026-0.049l-0.103-0.070c-1.031-0.7-1.854-1.634-2.402-2.729l-0.019-0.041c-0.044-0.087-0.041-0.142 0.031-0.214 0.256-0.253 0.505-0.513 0.756-0.77l1.008-1.034-4.995-6.548zM20.633 14.904l4.923 6.503c1.224-2.056 1.854-4.976 1.147-7.928-0.566-2.365-1.799-4.324-3.656-5.915l-3.279 2.46c0.063 0.045 0.099 0.072 0.136 0.097 1.046 0.704 1.878 1.648 2.431 2.757l0.019 0.041c0.048 0.096 0.050 0.157-0.032 0.238-0.263 0.26-0.515 0.528-0.771 0.794l-0.918 0.953z"></path>
</svg>
