<!-- Generated by IcoMoon.io -->
<svg version="1.1" xmlns="http://www.w3.org/2000/svg" width="32" height="32" viewBox="0 0 32 32">
<title>abt</title>
<path d="M16 32c-8.837 0-16-7.163-16-16s7.163-16 16-16 16 7.163 16 16-7.163 16-16 16zM6.5 10.487v11.026l9.5 5.487 9.5-5.487v-11.026l-9.5-5.487-9.5 5.487zM7.412 20.457v-8.913l5.743 3.323-1.933 3.385-3.81 2.205zM7.869 21.248l3.664-2.12 4.038 2.313v4.256l-7.702-4.449zM24.588 11.575v8.85l-3.76-2.175-1.932-3.382 5.692-3.293zM24.158 10.767l-5.715 3.307-1.96-3.431v-4.309l7.675 4.433zM18.111 15.322l1.153 2.023-2.325-1.345 1.172-0.678zM17.658 14.528l-1.175 0.68v-2.74l1.175 2.060zM12.794 17.343l1.151-2.020 1.17 0.677-2.32 1.343zM12.448 18.599l3.123-1.807v3.595l-3.123-1.787zM7.868 10.752l7.703-4.449v4.334l-1.962 3.436-5.74-3.321zM24.158 21.233l-7.675 4.433v-4.196l4.040-2.34 3.635 2.103zM19.61 18.601l-3.127 1.813v-3.622l3.127 1.81zM14.398 14.53l1.173-2.057v2.735l-1.173-0.678z"></path>
</svg>
