<!-- Generated by IcoMoon.io -->
<svg version="1.1" xmlns="http://www.w3.org/2000/svg" width="32" height="32" viewBox="0 0 32 32">
<title>adx</title>
<path d="M16 32c-8.837 0-16-7.163-16-16s7.163-16 16-16 16 7.163 16 16-7.163 16-16 16zM11.587 8.602l-2.587 2.758 4.36 4.614-4.36 4.706 2.587 2.717 4.413-4.605 4.305 4.604 2.695-2.793-4.396-4.604 4.396-4.639-2.695-2.757-4.305 4.605-4.413-4.606zM11.942 8.226l2.126 2.265 1.914-2.114 1.914 2.114 2.126-2.265-4.040-4.226-4.040 4.226zM11.942 23.774l4.040 4.226 4.040-4.226-2.126-2.265-1.914 2.114-1.914-2.114-2.126 2.265z"></path>
</svg>
