<!-- Generated by IcoMoon.io -->
<svg version="1.1" xmlns="http://www.w3.org/2000/svg" width="32" height="32" viewBox="0 0 32 32">
<title>agrs</title>
<path d="M16 32c-8.837 0-16-7.163-16-16s7.163-16 16-16 16 7.163 16 16-7.163 16-16 16zM19.755 17.334c2.246-3.519 3.995-9.334 3.995-9.334l-3.745 0.849-1.371 4.85c-0.129-3.636-2.622-4.967-2.622-4.967-1.997-0.973-3.777-0.545-5.060 0.124-1.588 0.826-2.743 2.266-3.296 3.924-0.786 2.359-0.69 5.006-0.586 6.204 0.042 0.562 0.166 1.115 0.37 1.643 1.378 3.573 5.195 3.37 5.195 3.37 3.497-0.124 5.622-4.242 5.622-4.242l1.002 3.028c0.898 1.519 2.887 0.95 3.296 0.865 0.072-0.016 0.136-0.024 0.209-0.040l2.236-0.341v-0.973c-4.868 0.132-5.245-4.959-5.245-4.959zM15.016 20.993c-0.293 0.3-0.665 0.523-1.081 0.634l-0.017 0.004c-0.907 0.226-1.604-0.155-2.085-0.622-0.521-0.526-0.895-1.2-1.054-1.952l-0.005-0.026c-0.882-4.99 0.337-7.177 1.147-8.182 0.417-0.529 1.058-0.866 1.778-0.866 0.032 0 0.063 0.001 0.095 0.002l-0.005-0c3.144 0.164 3.85 6.742 3.85 6.742-0.89 2.335-2.037 3.69-2.623 4.266z"></path>
</svg>
