<!-- Generated by IcoMoon.io -->
<svg version="1.1" xmlns="http://www.w3.org/2000/svg" width="32" height="32" viewBox="0 0 32 32">
<title>amb</title>
<path d="M16 32c-8.837 0-16-7.163-16-16s7.163-16 16-16 16 7.163 16 16-7.163 16-16 16zM27 16.015l-0.001-0.014v-0.023c0-0.007 0-0.015-0.002-0.022v-0.001c-0.006-0.069-0.024-0.133-0.053-0.191l0.001 0.003-0.003-0.005-0.006-0.012c-0.139-0.255-3.49-6.25-10.936-6.25s-10.797 5.994-10.937 6.25c-0 0-0.002 0.004-0.004 0.008l-0.002 0.004-0.002 0.004c-0.028 0.055-0.048 0.119-0.054 0.187l-0 0.002-0.001 0.023v0.045c0.004 0.084 0.027 0.162 0.065 0.231l-0.001-0.003c0.139 0.255 3.492 6.249 10.937 6.249s10.797-5.994 10.936-6.249c0.037-0.066 0.059-0.144 0.063-0.227l0-0.001v-0.008zM25.89 16c-0.558 0.868-2.645 3.747-6.423 4.94l0.088-0.065c0.069-0.051 0.113-0.132 0.113-0.224 0-0.113-0.067-0.21-0.164-0.254l-0.002-0.001c-0.031-0.014-0.068-0.022-0.106-0.022-0.063 0-0.12 0.021-0.166 0.057l0.001-0c-0.664 0.5-1.432 0.84-2.245 0.992-0.295 0.026-0.638 0.040-0.984 0.040s-0.689-0.015-1.028-0.043l0.044 0.003c-2.184-0.403-3.902-2.12-4.332-4.33 0.153-0.11 0.251-0.288 0.251-0.489 0-0.077-0.014-0.151-0.041-0.218l0.001 0.004c-0.098-0.256-0.355-0.412-0.624-0.377s-0.478 0.252-0.509 0.525 0.127 0.531 0.381 0.626c0.297 1.557 1.158 2.874 2.357 3.758l0.017 0.012c-3.769-1.195-5.852-4.068-6.409-4.935 0.563-0.874 2.675-3.787 6.505-4.964-0.040 0.027-0.063 0.045-0.087 0.062l0.014-0.010c-0.069 0.051-0.113 0.132-0.113 0.224 0 0.030 0.005 0.060 0.014 0.087l-0.001-0.002c0.036 0.111 0.138 0.19 0.259 0.19 0.059 0 0.113-0.019 0.158-0.050l-0.001 0.001c0.682-0.498 1.507-0.843 2.402-0.968l0.028-0.003c0.019-0.002 0.036-0.006 0.052-0.012l-0.002 0.001c0.198-0.012 0.429-0.019 0.662-0.019s0.465 0.007 0.694 0.020l-0.032-0.002c0.014 0.005 0.031 0.009 0.049 0.011l0.001 0c2.252 0.3 4.080 2.016 4.574 4.239-0.118 0.11-0.191 0.266-0.191 0.439 0 0.104 0.027 0.202 0.073 0.288l-0.002-0.003c0.099 0.189 0.294 0.316 0.519 0.316 0.323 0 0.584-0.261 0.584-0.584 0-0.010-0-0.019-0.001-0.029l0 0.001c-0.003-0.276-0.195-0.507-0.453-0.569l-0.004-0.001c-0.35-1.509-1.225-2.773-2.418-3.617l-0.019-0.013c3.836 1.174 5.952 4.093 6.515 4.967zM20.82 16.017c0-2.698-2.162-4.891-4.82-4.891s-4.82 2.194-4.82 4.891 2.163 4.893 4.82 4.893 4.82-2.195 4.82-4.892zM20.276 16.017c0 2.393-1.918 4.34-4.276 4.34s-4.277-1.947-4.277-4.34 1.92-4.339 4.277-4.339 4.276 1.947 4.276 4.34zM17.576 14.674c0-0.745-0.519-1.386-1.24-1.53s-1.44 0.247-1.72 0.936-0.040 1.483 0.573 1.894l-0.428 2.627c-0.004 0.019-0.007 0.041-0.007 0.064 0 0.174 0.141 0.315 0.315 0.315 0.003 0 0.007-0 0.010-0h1.919c0.209 0 0.35-0.17 0.316-0.379l-0.429-2.626c0.431-0.289 0.69-0.777 0.69-1.3zM21.923 16.717c0.001-0.010 0.002-0.021 0.002-0.033 0-0.151-0.121-0.273-0.272-0.275h-0c-0.14 0.001-0.254 0.107-0.27 0.243l-0 0.001c-0.136 1.188-0.633 2.24-1.377 3.065l0.004-0.005c-0.018-0.004-0.038-0.006-0.059-0.006-0.152 0-0.276 0.124-0.276 0.276s0.124 0.276 0.276 0.276c0.080 0 0.151-0.034 0.202-0.087l0-0c0.017 0.004 0.037 0.006 0.057 0.006 0.081 0 0.153-0.035 0.203-0.092l0-0c0.814-0.903 1.36-2.061 1.507-3.34l0.003-0.028zM12.053 11.849c-0.048-0.047-0.114-0.075-0.187-0.075-0.078 0-0.148 0.033-0.198 0.086l-0 0c-0.817 0.872-1.379 1.991-1.563 3.234l-0.004 0.033c-0.002 0.012-0.003 0.027-0.003 0.041 0 0.151 0.122 0.274 0.273 0.276h0c0.135 0 0.249-0.1 0.269-0.236 0.171-1.159 0.681-2.176 1.426-2.971l-0.003 0.003c0.046-0.050 0.075-0.116 0.075-0.19 0-0.079-0.033-0.149-0.085-0.2l-0-0z"></path>
</svg>
