<!-- Generated by IcoMoon.io -->
<svg version="1.1" xmlns="http://www.w3.org/2000/svg" width="32" height="32" viewBox="0 0 32 32">
<title>arg</title>
<path d="M16 32c-8.837 0-16-7.163-16-16s7.163-16 16-16 16 7.163 16 16-7.163 16-16 16zM10.755 5.246l0.010-0.011c-3.976 1.995-6.657 6.041-6.657 10.712 0 1.244 0.19 2.443 0.543 3.571l-0.023-0.085c0.509 1.716 1.369 3.193 2.501 4.414l-0.006-0.007c0.807-1.773 1.434-3.62 2.177-5.405l2.22-5.628c0.35-0.86 0.626-1.774 1.242-2.485 0.648-0.754 1.646-1.083 2.602-1.19 0.257-0.039 0.554-0.061 0.856-0.061 0.959 0 1.867 0.222 2.674 0.619l-0.036-0.016c0.775 0.425 1.274 1.21 1.571 2.028l3.080 8.071c0.51 1.338 0.966 2.697 1.561 3.993 1.817-2.083 2.925-4.826 2.925-7.827 0-6.592-5.344-11.936-11.936-11.936-1.932 0-3.757 0.459-5.372 1.274l0.068-0.031zM15.194 13.38c-1.54 3.855-3.037 7.72-4.566 11.575-0.18 0.446-0.425 0.882-0.478 1.37 0.52 0.372 1.136 0.584 1.73 0.829 1.244 0.479 2.684 0.757 4.188 0.757 2.067 0 4.012-0.524 5.709-1.447l-0.063 0.031c0.11-0.062 0.21-0.141 0.298-0.233-0.107-0.542-0.372-1.041-0.553-1.561-1.37-3.622-2.729-7.254-4.11-10.864-0.137-0.34-0.244-0.722-0.54-0.945-0.553-0.361-1.403-0.149-1.615 0.488z"></path>
</svg>
