<!-- Generated by IcoMoon.io -->
<svg version="1.1" xmlns="http://www.w3.org/2000/svg" width="32" height="32" viewBox="0 0 32 32">
<title>arn</title>
<path d="M11.76 14.102c0.139 0.167 0.223 0.383 0.223 0.619 0 0.255-0.098 0.486-0.259 0.66l0.001-0.001 3.874 6.9c0.124-0.059 0.271-0.094 0.425-0.094 0.158 0 0.308 0.036 0.441 0.101l-0.006-0.003 3.762-6.788c-0.234-0.18-0.384-0.461-0.384-0.776 0-0.304 0.139-0.576 0.357-0.755l0.002-0.001-4.074-7.4c-0.056-0.024-0.072-0.015-0.080-0.001zM11.35 15.636c-0.108 0.043-0.234 0.068-0.366 0.068-0.046 0-0.091-0.003-0.136-0.009l0.005 0.001-2.492 4.387c0.238 0.503 0.52 0.984 0.844 1.438 0.763 0.18 2.713 0.644 5.851 1.396 0.038-0.137 0.1-0.256 0.182-0.358l-0.001 0.002zM10.811 13.753c0.052-0.009 0.111-0.015 0.172-0.015 0.15 0 0.292 0.032 0.42 0.090l-0.006-0.003 4.162-7.326c-3.12 0.050-5.731 0.635-7.835 1.754zM10.391 13.929l-3.056-5.446c-0.204 0.164-0.334 0.414-0.334 0.694 0 0.019 0.001 0.038 0.002 0.056l-0-0.003 0.462 7.382c0.070 1.080 0.31 2.085 0.694 3.016l-0.023-0.063 2.29-4.030c-0.266-0.177-0.438-0.476-0.438-0.815 0-0.325 0.158-0.613 0.402-0.79l0.003-0.002zM16.991 22.927l5.889-1.527c0.272-0.397 0.514-0.813 0.724-1.245l-2.474-4.494c-0.088 0.028-0.19 0.044-0.295 0.044-0.071 0-0.14-0.007-0.207-0.021l0.007 0.001-3.818 6.887c0.080 0.104 0.141 0.224 0.175 0.355zM16.25 24.127v2.361c0.093-0.027 0.174-0.064 0.248-0.112l-0.004 0.002 3.623-2.313c0.904-0.582 1.675-1.275 2.322-2.074l0.014-0.018-5.456 1.415c-0.089 0.369-0.376 0.654-0.74 0.739l-0.007 0.001zM15.796 24.127c-0.375-0.087-0.665-0.377-0.749-0.746l-0.001-0.007c15.547 3.168 13.729 2.723 11.911 2.28l-17.32-3.57c0.641 0.769 1.381 1.425 2.208 1.958l0.038 0.023 3.623 2.314c0.090 0.058 0.189 0.098 0.29 0.121zM21.166 13.793l3.080-5.555c-2.062-1.090-4.609-1.668-7.641-1.735l3.997 7.262c0.070-0.017 0.151-0.027 0.234-0.027 0.118 0 0.232 0.020 0.337 0.057l-0.007-0.002zM21.549 14.034c0.176 0.176 0.285 0.419 0.285 0.688 0 0.282-0.12 0.536-0.311 0.713l-0.001 0.001 2.313 4.203c0.378-0.888 0.629-1.918 0.699-2.997l0.001-0.028 0.463-7.383c0.001-0.016 0.002-0.034 0.002-0.053 0-0.293-0.141-0.552-0.359-0.714l-0.002-0.002zM16 32c-8.837 0-16-7.163-16-16s7.163-16 16-16 16 7.163 16 16-7.163 16-16 16zM16 11.235c0.294 0.005 0.532 0.24 0.541 0.532l0 0.001v1.954l2.886 1.778-0.353 0.711-2.533-0.89v1.955l0.722 0.533v0.533l-1.263-0.355-1.263 0.355v-0.533l0.722-0.533v-1.954l-2.577 0.844-0.31-0.667 2.887-1.777v-1.954c0.009-0.293 0.247-0.528 0.541-0.533h0z"></path>
</svg>
