<!-- Generated by IcoMoon.io -->
<svg version="1.1" xmlns="http://www.w3.org/2000/svg" width="32" height="32" viewBox="0 0 32 32">
<title>bco</title>
<path d="M16 32c-8.837 0-16-7.163-16-16s7.163-16 16-16 16 7.163 16 16-7.163 16-16 16zM14.122 20.826c-0.162 0.284-0.258 0.625-0.258 0.987 0 0.001 0 0.002 0 0.003v-0c0 1.115 0.903 2.023 2.034 2.065v0.37c-0.455 0.037-0.811 0.412-0.816 0.872v0c0 0.484 0.402 0.876 0.898 0.876 0.003 0 0.007 0 0.011 0 0.486 0 0.881-0.391 0.887-0.875v-0.001c-0.004-0.432-0.318-0.79-0.73-0.862l-0.005-0.001v-0.385c1.092-0.081 1.953-0.972 1.953-2.060 0-0.36-0.095-0.7-0.262-0.995l1.534-0.863c0.372 0.522 0.992 0.864 1.693 0.864 0.708 0 1.333-0.348 1.704-0.879l0.513 0.29c-0.047 0.102-0.074 0.222-0.074 0.348 0 0 0 0.001 0 0.001v-0c0 0.484 0.402 0.876 0.898 0.876s0.898-0.392 0.898-0.876-0.402-0.877-0.898-0.877c-0.001 0-0.002 0-0.003 0-0.278 0-0.527 0.125-0.693 0.323l-0.001 0.001-0.514-0.29c0.149-0.279 0.233-0.595 0.233-0.93 0-1.105-0.913-2.003-2.042-2.013v-1.618c1.115-0.010 2.015-0.896 2.015-1.987 0-0.32-0.078-0.623-0.216-0.891l0.5-0.318c0.167 0.216 0.426 0.353 0.717 0.353 0.002 0 0.003 0 0.005 0h-0c0.496 0 0.898-0.393 0.898-0.877s-0.402-0.876-0.898-0.876c-0.003-0-0.007-0-0.011-0-0.486 0-0.881 0.391-0.887 0.876v0.001c0 0.11 0.021 0.216 0.060 0.314l-0.506 0.321c-0.374-0.54-0.99-0.889-1.688-0.889-0.003 0-0.006 0-0.009 0h0c-0.717 0-1.347 0.362-1.71 0.908l-1.53-0.861c0.141-0.273 0.221-0.582 0.221-0.908 0-1.072-0.858-1.948-1.94-2.010v-0.588c0.437-0.055 0.772-0.422 0.776-0.869v-0c-0.006-0.485-0.401-0.876-0.887-0.876-0.004 0-0.008 0-0.012 0h0.001c-0.003-0-0.007-0-0.011-0-0.486 0-0.881 0.391-0.887 0.875v0.001c0 0.444 0.337 0.81 0.775 0.869v0.588c-1.082 0.062-1.94 0.938-1.94 2.010 0 0.325 0.080 0.633 0.22 0.905l-1.533 0.85c-0.375-0.531-0.987-0.874-1.678-0.874-0.003 0-0.006 0-0.008 0h0c-0.687 0-1.295 0.333-1.663 0.842l-0.52-0.29c0.038-0.093 0.060-0.201 0.060-0.315 0-0.001 0-0.002 0-0.003v0c-0.006-0.485-0.401-0.876-0.887-0.876-0.004 0-0.007 0-0.011 0h0.001c-0.496 0-0.898 0.392-0.898 0.876s0.402 0.877 0.898 0.877c0.001 0 0.002 0 0.004 0 0.29 0 0.547-0.136 0.713-0.348l0.002-0.002 0.51 0.284c-0.153 0.271-0.243 0.595-0.243 0.94 0 0.001 0 0.001 0 0.002v-0c0 1.070 0.867 1.944 1.954 1.986v1.554c-1.116 0.042-2.008 0.938-2.008 2.038 0 0.357 0.094 0.692 0.26 0.984l-0.481 0.272c-0.167-0.208-0.421-0.34-0.707-0.34-0.001 0-0.002 0-0.004 0h0c-0.496 0-0.898 0.393-0.898 0.877s0.402 0.876 0.898 0.876c0.003 0 0.007 0 0.011 0 0.486 0 0.881-0.391 0.887-0.875v-0.001c0-0 0-0 0-0 0-0.119-0.024-0.232-0.068-0.335l0.002 0.006 0.489-0.277c0.379 0.517 0.999 0.853 1.7 0.853 0.699 0 1.318-0.335 1.697-0.85zM14.252 20.623l-1.505-0.847c0.166-0.293 0.26-0.63 0.26-0.987 0-1.073-0.848-1.952-1.925-2.033v-1.564c1.048-0.081 1.872-0.937 1.872-1.98 0-0.001 0-0.002 0-0.003 0-0.332-0.083-0.644-0.23-0.917l0.005 0.010 1.531-0.847c0.37 0.543 1.002 0.9 1.72 0.9 0.716 0 1.348-0.356 1.717-0.898l1.534 0.863c-0.129 0.253-0.205 0.552-0.205 0.868 0 0.001 0 0.002 0 0.003v-0c0 1.024 0.792 1.866 1.81 1.975v1.641c-1.033 0.11-1.837 0.964-1.837 2.002 0 0.342 0.087 0.663 0.24 0.945l-1.535 0.865c-0.392-0.529-1.014-0.868-1.716-0.868-0.003 0-0.006 0-0.009 0h0c-0.003 0-0.006-0-0.009-0-0.703 0-1.327 0.341-1.715 0.866l-0.004 0.006zM10.918 19.857c-0.004 0-0.008 0-0.012 0-0.593 0-1.074-0.477-1.082-1.067v-0.001c0-0.59 0.49-1.068 1.094-1.068 0.605 0 1.095 0.478 1.095 1.068s-0.49 1.068-1.095 1.068zM10.918 14.252c-0.589 0-1.066-0.466-1.066-1.040s0.477-1.042 1.066-1.042c0.59 0 1.067 0.466 1.067 1.041s-0.478 1.041-1.067 1.041zM15.98 11.397c-0.597 0-1.080-0.472-1.080-1.054s0.483-1.055 1.080-1.055c0.596 0 1.080 0.472 1.080 1.055s-0.484 1.054-1.080 1.054zM21.061 14.232c-0.004 0-0.008 0-0.012 0-0.577 0-1.046-0.464-1.054-1.039v-0.001c0-0.576 0.477-1.042 1.066-1.042s1.067 0.466 1.067 1.041-0.478 1.041-1.067 1.041zM21.061 19.863c-0.596 0-1.080-0.472-1.080-1.054 0-0.583 0.484-1.055 1.080-1.055 0.597 0 1.080 0.472 1.080 1.055s-0.483 1.054-1.080 1.054zM15.98 22.9c-0.613 0-1.109-0.485-1.109-1.082s0.496-1.082 1.109-1.082c0.612 0 1.108 0.484 1.108 1.082s-0.496 1.082-1.108 1.082zM15.98 18.92c1.652 0 2.99-1.307 2.99-2.919s-1.338-2.92-2.99-2.92c-1.652 0-2.991 1.308-2.991 2.92s1.339 2.92 2.99 2.92zM15.98 17.145c-0.648 0-1.173-0.512-1.173-1.144s0.525-1.144 1.173-1.144c0.647 0 1.172 0.512 1.172 1.144s-0.525 1.144-1.172 1.144z"></path>
</svg>
