<!-- Generated by IcoMoon.io -->
<svg version="1.1" xmlns="http://www.w3.org/2000/svg" width="32" height="32" viewBox="0 0 32 32">
<title>blz</title>
<path d="M16 32c-8.837 0-16-7.163-16-16s7.163-16 16-16 16 7.163 16 16-7.163 16-16 16zM11.633 20.336c-0.305-0.313-0.73-0.507-1.201-0.507-0.47 0-0.894 0.193-1.198 0.504l-0 0c-0.32 0.324-0.5 0.765-0.5 1.225s0.18 0.9 0.5 1.225c0.664 0.674 1.738 0.673 2.4-0.003s0.662-1.77 0-2.444zM22.696 8.726c-0.192-0.083-0.415-0.131-0.649-0.131-0.471 0-0.896 0.194-1.2 0.507l-0 0c-0.308 0.314-0.498 0.745-0.498 1.221 0 0.001 0 0.002 0 0.002v-0c0 0.459 0.179 0.899 0.498 1.223 0.485 0.494 1.216 0.642 1.85 0.375s1.048-0.899 1.048-1.598c0-0.7-0.414-1.33-1.048-1.598zM11.41 19.003l1.792 1.825 1.64-1.672c-0.824-0.346-1.464-0.997-1.787-1.807l-0.008-0.022zM21.107 12.866l-1.791-1.825-1.641 1.672c0.405 0.165 0.772 0.413 1.081 0.727 0.308 0.312 0.55 0.686 0.71 1.098zM20.42 20.808c-0.082 0.196-0.13 0.423-0.13 0.662 0 0.476 0.19 0.908 0.498 1.224l-0-0c0.319 0.325 0.75 0.508 1.201 0.508 0.45 0 0.882-0.183 1.2-0.508 0.308-0.316 0.498-0.748 0.498-1.224 0-0.238-0.047-0.465-0.133-0.672l0.004 0.012c-0.256-0.628-0.861-1.064-1.569-1.067h-0c-0.687 0-1.306 0.421-1.569 1.067zM9.035 9.51c-0.082 0.196-0.13 0.423-0.13 0.662 0 0.476 0.19 0.908 0.498 1.224l-0-0c0.319 0.324 0.75 0.507 1.201 0.507 0.45 0 0.882-0.183 1.2-0.507 0.308-0.316 0.498-0.748 0.498-1.225 0-0.238-0.047-0.465-0.133-0.672l0.004 0.012c-0.256-0.629-0.861-1.065-1.569-1.068h-0c-0.687 0-1.306 0.421-1.569 1.068zM19.18 20.754l1.792-1.825-1.641-1.672c-0.331 0.833-0.971 1.484-1.775 1.822l-0.021 0.008zM13.339 10.944l-1.792 1.826 1.641 1.672c0.163-0.413 0.406-0.788 0.714-1.102s0.674-0.56 1.078-0.723zM16.281 9.463c0.938 0 1.7-0.775 1.7-1.732 0-0.459-0.18-0.9-0.498-1.224-0.306-0.313-0.732-0.507-1.203-0.507h-0c-0.939 0-1.7 0.775-1.7 1.731s0.761 1.732 1.7 1.732zM17.981 24.269c0-0.46-0.18-0.9-0.498-1.225-0.305-0.313-0.731-0.506-1.202-0.507h-0c-0.939 0-1.7 0.775-1.7 1.732s0.761 1.731 1.7 1.731 1.7-0.775 1.7-1.731zM16.898 10.369h-1.070v2.144c0.161-0.030 0.346-0.047 0.535-0.047s0.374 0.017 0.554 0.050l-0.019-0.003zM16.898 19.581c-0.161 0.030-0.346 0.047-0.535 0.047s-0.374-0.017-0.554-0.050l0.019 0.003v2.145h1.070zM22.23 16.189c0.252 0.632 0.858 1.070 1.567 1.070 0.472 0 0.899-0.194 1.204-0.507l0-0c0.32-0.325 0.498-0.766 0.498-1.225 0-0.7-0.414-1.332-1.050-1.6-0.192-0.083-0.415-0.131-0.65-0.131-0.471 0-0.896 0.194-1.201 0.507l-0 0c-0.308 0.316-0.499 0.748-0.499 1.225 0 0.239 0.048 0.466 0.134 0.673l-0.004-0.012zM6.5 15.82c0 0.956 0.761 1.731 1.7 1.731 0.45 0 0.883-0.182 1.202-0.507 0.319-0.324 0.497-0.765 0.497-1.224 0-0.957-0.761-1.732-1.7-1.731-0.938 0-1.7 0.775-1.699 1.731zM21.583 16.365v-1.091h-2.103c0.061 0.36 0.061 0.729 0 1.089zM12.94 16.365c-0.029-0.164-0.046-0.352-0.046-0.545s0.017-0.381 0.049-0.564l-0.003 0.019h-2.105v1.090zM16.23 18.402c1.33 0 2.41-1.099 2.41-2.454-0.001-1.356-1.080-2.454-2.41-2.455s-2.41 1.099-2.41 2.455 1.079 2.454 2.41 2.454z"></path>
</svg>
