<!-- Generated by IcoMoon.io -->
<svg version="1.1" xmlns="http://www.w3.org/2000/svg" width="32" height="32" viewBox="0 0 32 32">
<title>bos</title>
<path d="M16 32c-8.837 0-16-7.163-16-16s7.163-16 16-16 16 7.163 16 16-7.163 16-16 16zM14.432 18.95h2.659c3.94 0 5.909-1.081 5.909-3.245v-5.46c0-2.162-1.97-3.245-5.91-3.245h-7.090v5.016h2.66v-3.098h4.726c1.97 0 2.955 0.492 2.955 1.475v5.164c0 0.984-0.985 1.476-2.955 1.476h-2.954v1.918zM20.341 20.131v1.476c0 0.983-0.985 1.475-2.955 1.475h-4.726v-7.672h4.727c0.322 0 0.618 0.013 0.887 0.040v-1.922c-0.343-0.023-0.744-0.036-1.148-0.036-0.012 0-0.024 0-0.036 0h-7.090v11.508h7.090c3.94 0 5.91-1.082 5.91-3.246v-1.623h-2.66z"></path>
</svg>
