<!-- Generated by IcoMoon.io -->
<svg version="1.1" xmlns="http://www.w3.org/2000/svg" width="32" height="32" viewBox="0 0 32 32">
<title>crpt</title>
<path d="M16 32c-8.837 0-16-7.163-16-16s7.163-16 16-16 16 7.163 16 16-7.163 16-16 16zM21.833 9.744l0.576-0.588c-1.604-1.343-3.577-2.099-5.634-2.099-4.647 0-8.472 3.653-8.76 8.397h0.822c0.288-4.24 3.743-7.557 7.938-7.557 1.85 0 3.62 0.63 5.058 1.847zM21.545 12.515l0.577-0.587c-1.219-1.656-3.158-2.721-5.346-2.73h-0.002c-3.702 0-6.704 3.066-6.704 6.802 0 3.778 3.002 6.843 6.704 6.843 2.098 0 4.071-1.008 5.347-2.729l-0.577-0.588c-1.072 1.502-2.807 2.472-4.769 2.478h-0.001c-3.249 0-5.881-2.688-5.881-6.004 0-3.275 2.632-5.962 5.88-5.962 1.963 0.005 3.699 0.975 4.759 2.459l0.012 0.018zM22.491 10.374c0.206 0.21 0.37 0.42 0.535 0.63l0.576-0.588c-0.165-0.21-0.33-0.42-0.534-0.63zM16.734 24.984c2.158-0.007 4.13-0.801 5.645-2.108l-0.011 0.009-0.576-0.587c-1.346 1.148-3.105 1.847-5.028 1.847-0.011 0-0.021-0-0.032-0h0.002c-4.195 0-7.65-3.317-7.938-7.557h-0.822c0.288 4.744 4.113 8.396 8.76 8.396zM22.491 21.668l0.577 0.588c0.205-0.21 0.37-0.42 0.534-0.63l-0.576-0.588c-0.164 0.21-0.329 0.42-0.535 0.63zM6.823 16c0-5.584 4.482-10.16 9.952-10.16 2.961 0 5.757 1.344 7.65 3.695l0.575-0.588c-2.056-2.52-5.059-3.947-8.225-3.947-5.922 0-10.775 4.912-10.775 11 0 6.045 4.812 11 10.775 11 3.208 0 6.17-1.428 8.225-3.947l-0.576-0.587c-1.892 2.393-4.688 3.694-7.65 3.694-5.469 0-9.951-4.576-9.951-10.16z"></path>
</svg>
