<!-- Generated by IcoMoon.io -->
<svg version="1.1" xmlns="http://www.w3.org/2000/svg" width="32" height="32" viewBox="0 0 32 32">
<title>dat</title>
<path d="M16 32c-8.837 0-16-7.163-16-16s7.163-16 16-16 16 7.163 16 16-7.163 16-16 16zM20.054 5.606c-0.376 0-0.691 0.12-0.947 0.359-0.24 0.239-0.359 0.554-0.359 0.947v6.912c-1.165-1.427-2.925-2.33-4.895-2.33-0.016 0-0.032 0-0.048 0h0.002c-1.23 0-2.347 0.308-3.354 0.922-0.99 0.614-1.775 1.468-2.355 2.56-0.564 1.075-0.845 2.278-0.845 3.61s0.307 2.543 0.921 3.635c0.614 1.070 1.473 1.936 2.503 2.542l0.032 0.018c1.092 0.614 2.295 0.921 3.61 0.921s2.5-0.307 3.558-0.921c1.062-0.624 1.92-1.49 2.516-2.527l0.018-0.033c0.632-1.092 0.947-2.304 0.947-3.635v-11.674c0-0.393-0.119-0.708-0.358-0.947-0.239-0.24-0.555-0.359-0.947-0.359zM14.319 23.398c-0.853 0-1.63-0.204-2.33-0.614-0.687-0.435-1.241-1.022-1.626-1.716l-0.012-0.024c-0.392-0.735-0.588-1.554-0.588-2.458s0.196-1.716 0.588-2.432c0.393-0.714 0.948-1.294 1.619-1.705l0.020-0.011c0.7-0.426 1.476-0.64 2.33-0.64 0.853 0 1.62 0.214 2.303 0.64 0.7 0.41 1.246 0.982 1.639 1.716 0.392 0.716 0.589 1.527 0.589 2.432s-0.197 1.723-0.59 2.457c-0.387 0.725-0.943 1.315-1.619 1.73l-0.019 0.011c-0.682 0.41-1.45 0.614-2.304 0.614z"></path>
</svg>
