<!-- Generated by IcoMoon.io -->
<svg version="1.1" xmlns="http://www.w3.org/2000/svg" width="32" height="32" viewBox="0 0 32 32">
<title>emc2</title>
<path fill="#000" d="M16 32c-8.837 0-16-7.163-16-16s7.163-16 16-16 16 7.163 16 16-7.163 16-16 16zM6 22.998h13.095l1.893-3.839h-13.094l-1.894 3.841zM8.51 17.908h13.096l1.888-3.828h-13.094l-1.888 3.828zM11.017 12.828h13.093l1.89-3.828h-13.095l-1.888 3.829z"></path>
<path fill="#000" opacity="0.4" d="M7.894 19.16h8.781l-1.894 3.838h-8.781l1.894-3.839zM8.511 17.908l1.889-3.828h8.78l-1.888 3.828h-8.782zM11.017 12.828l1.888-3.828h8.781l-1.889 3.829h-8.78z"></path>
<path fill="#000" opacity="0.4" d="M7.894 19.161h4.397l-1.893 3.839h-4.398l1.894-3.839zM10.399 14.081h4.398l-1.887 3.829h-4.4l1.89-3.83zM12.905 9.001h4.398l-1.889 3.83h-4.397l1.888-3.831z"></path>
</svg>
