<!-- Generated by IcoMoon.io -->
<svg version="1.1" xmlns="http://www.w3.org/2000/svg" width="32" height="32" viewBox="0 0 32 32">
<title>etc</title>
<path fill="#000" d="M16 32c-8.837 0-16-7.163-16-16s7.163-16 16-16 16 7.163 16 16-7.163 16-16 16zM22.732 16l-6.732-3.81-6.732 3.81 6.732 3.781 6.732-3.783zM16 21.047c16.906 8.848 14.617 7.537 12.327 6.227l-19.327-10.179c2.079 3.248 4.66 7.26 7 10.904 2.34-3.643 4.921-7.656 7-10.904-21.616 11.488-23.905 12.8-26.192 14.114l19.192-10.162zM16 10.958l7 3.907-7-10.865-7 10.866 7-3.907z"></path>
<path fill="#000" opacity="0.296" d="M22.71 15.976l-6.721 0.577v-4.379l6.72 3.802zM15.989 21.014c1.98-1.12 4.537-2.564 6.988-3.944-2.076 3.242-4.652 7.246-6.988 10.882v-6.938zM15.989 10.945v-6.945l6.988 10.845-6.988-3.9z"></path>
<path fill="#000" opacity="0.803" d="M15.989 16.553l6.72-0.577-6.72 3.775z"></path>
<path fill="#000" opacity="0.311" d="M15.988 16.553l-6.721-0.577 6.721 3.775z"></path>
</svg>
