<!-- Generated by IcoMoon.io -->
<svg version="1.1" xmlns="http://www.w3.org/2000/svg" width="32" height="32" viewBox="0 0 32 32">
<title>ethos</title>
<path fill="#000" d="M16.035 14.286c1.196-0.016 2.159-0.99 2.159-2.188 0-0 0-0 0-0v0c0-0.002 0-0.005 0-0.007 0-0.587 0.298-1.104 0.75-1.409l0.006-0.004c0.268-0.184 0.599-0.294 0.956-0.294 0.66 0 1.233 0.375 1.516 0.924l0.004 0.010c0.228 0.451 0.248 0.979 0.053 1.445-0.2 0.462-0.583 0.813-1.055 0.966l-0.012 0.003c-0.151 0.048-0.324 0.076-0.504 0.076-0.002 0-0.004 0-0.006 0h0c-1.208 0-2.187 0.98-2.187 2.188 0 0.049 0.002 0.097 0.005 0.144l-0-0.006c0.071 1.151 1.021 2.058 2.184 2.058v0c0.003 0 0.005-0 0.008-0 0.586 0 1.103 0.298 1.407 0.75l0.004 0.006c0.319 0.475 0.38 1.078 0.162 1.608-0.175 0.414-0.495 0.738-0.894 0.914l-0.011 0.004c-0.2 0.087-0.432 0.138-0.676 0.138-0.24 0-0.468-0.049-0.676-0.138l0.011 0.004c-0.311-0.135-0.567-0.349-0.75-0.616l-0.004-0.006c-0.182-0.266-0.291-0.595-0.291-0.95 0-0.002 0-0.004 0-0.005v0c0 0 0-0 0-0 0-1.208-0.98-2.188-2.188-2.188-0.004 0-0.008 0-0.013 0h0.001c-1.21 0-2.188 0.98-2.188 2.188 0 0.002 0 0.004 0 0.006 0 0.587-0.298 1.105-0.75 1.41l-0.006 0.004c-0.268 0.183-0.598 0.292-0.955 0.292-0.483 0-0.918-0.2-1.229-0.523l-0.001-0.001v-0.002c-0.296-0.307-0.479-0.726-0.479-1.187 0-0.944 0.765-1.709 1.709-1.71h0c0 0 0.001 0 0.001 0 1.208 0 2.188-0.98 2.188-2.188 0-0.071-0.003-0.141-0.010-0.211l0.001 0.009c-0.103-1.122-1.039-1.994-2.179-1.994-0 0-0 0-0.001 0h0c-0.001 0-0.001 0-0.002 0-0.239 0-0.467-0.049-0.674-0.137l0.011 0.004c-0.312-0.135-0.568-0.349-0.75-0.617l-0.004-0.006c-0.183-0.268-0.293-0.599-0.293-0.956 0-0.704 0.427-1.309 1.036-1.57l0.011-0.004c0.196-0.084 0.425-0.133 0.665-0.133s0.469 0.049 0.676 0.138l-0.011-0.004c0.306 0.13 0.568 0.346 0.754 0.621 0.19 0.282 0.292 0.615 0.29 0.955 0 0 0 0 0 0 0 1.208 0.98 2.188 2.188 2.188 0.015 0 0.029-0 0.044-0l-0.002 0zM16 7.426c-1.048-0.882-2.413-1.418-3.904-1.418-1.681 0-3.203 0.682-4.304 1.785l-0 0c-1.103 1.102-1.785 2.624-1.785 4.306 0 1.489 0.535 2.853 1.423 3.911l-0.008-0.009c-0.88 1.048-1.414 2.412-1.414 3.9 0 1.643 0.651 3.133 1.708 4.228l-0.002-0.002c1.108 1.149 2.662 1.863 4.382 1.863 1.489 0 2.854-0.535 3.911-1.424l-0.009 0.008c1.049 0.882 2.413 1.417 3.904 1.417 1.712 0 3.259-0.707 4.365-1.846l0.001-0.001c1.064-1.096 1.721-2.593 1.721-4.244 0-1.489-0.534-2.854-1.422-3.912l0.008 0.009c0.88-1.049 1.414-2.413 1.414-3.903 0-1.014-0.248-1.97-0.686-2.811l0.016 0.034c-0.439-0.844-1.039-1.547-1.764-2.092l-0.016-0.011-0.005-0.003c-1.001-0.751-2.264-1.203-3.633-1.203-1.49 0-2.854 0.535-3.912 1.424l0.009-0.008zM16 32c-8.837 0-16-7.163-16-16s7.163-16 16-16 16 7.163 16 16-7.163 16-16 16z"></path>
<path fill="#000" opacity="0.622" d="M14.275 15.803c0.006 0.061 0.009 0.131 0.009 0.202 0 1.208-0.98 2.188-2.188 2.188-0 0-0 0-0 0h0c-0.002 0-0.005-0-0.007-0-0.353 0-0.681 0.108-0.952 0.294l0.006-0.004c-0.274 0.186-0.487 0.442-0.618 0.743l-0.004 0.011c-0.085 0.196-0.134 0.424-0.134 0.664 0 0.462 0.183 0.881 0.481 1.189l-0-0v0.002c0.311 0.322 0.746 0.523 1.229 0.523 0.356 0 0.687-0.109 0.961-0.296l-0.006 0.004c0.458-0.309 0.755-0.827 0.755-1.413 0-0.002 0-0.005 0-0.007v0c0.001-1.208 0.98-2.187 2.188-2.187 0.005 0 0.009 0 0.014 0h-0.001c-1.208 0-2.188 0.98-2.188 2.188 0 0.002 0 0.003 0 0.005 0 1.871 0.844 3.544 2.173 4.66l0.009 0.008c-1.048 0.881-2.413 1.416-3.902 1.416-1.72 0-3.273-0.714-4.38-1.861l-0.002-0.002c-1.056-1.093-1.707-2.584-1.707-4.227 0-1.488 0.534-2.852 1.421-3.91l-0.008 0.009c1.124 1.339 2.799 2.184 4.671 2.184 0.001 0 0.002 0 0.004 0h-0c0 0 0 0 0.001 0 1.208 0 2.188-0.98 2.188-2.188 0-0.068-0.003-0.136-0.009-0.203l0.001 0.009zM24.575 15.998c-1.123-1.338-2.797-2.183-4.667-2.183-0.001 0-0.003 0-0.004 0h0c-0 0-0.001 0-0.001 0-1.206 0-2.185 0.976-2.188 2.182v0c0-1.209 0.98-2.189 2.188-2.189 0 0 0.001 0 0.002 0 0.704 0 1.309-0.426 1.571-1.034l0.004-0.011c0.084-0.196 0.133-0.424 0.133-0.664 0-0.285-0.069-0.553-0.192-0.79l0.005 0.010c-0.288-0.558-0.86-0.934-1.52-0.934-0.357 0-0.688 0.11-0.962 0.297l0.006-0.004c-0.458 0.309-0.756 0.826-0.756 1.413 0 0.003 0 0.005 0 0.008v-0c0 0.014 0 0.030 0 0.046 0 1.208-0.98 2.188-2.188 2.188s-2.188-0.98-2.188-2.188c0-0.017 0-0.033 0.001-0.050l-0 0.002c0-0.001 0-0.002 0-0.004 0-3.361 2.724-6.085 6.085-6.085 1.368 0 2.631 0.452 3.648 1.214l-0.016-0.011 0.004 0.003c1.494 1.122 2.45 2.891 2.45 4.883 0 1.488-0.534 2.852-1.421 3.91l0.008-0.009z"></path>
</svg>
