<!-- Generated by IcoMoon.io -->
<svg version="1.1" xmlns="http://www.w3.org/2000/svg" width="32" height="32" viewBox="0 0 32 32">
<title>fil</title>
<path d="M16 32c-8.837 0-16-7.163-16-16s7.163-16 16-16 16 7.163 16 16-7.163 16-16 16zM15.932 12.908l-4.217-0.618-0.237 1.615 4.12 0.603c-0.015 0.047-0.059 0.289-0.099 0.533l-0.025 0.182-0.176 1.063-4.096-0.6-0.222 1.617 4.036 0.592c-0.909 4.494-1.628 6.44-2.535 7.45-0.091 0.106-0.378 0.264-0.625 0.293-0.341 0.040-0.62-0.131-0.831-0.63-0.116-0.292-0.302-0.536-0.537-0.719l-0.004-0.003c-0.206-0.156-0.466-0.25-0.748-0.25-0.050 0-0.099 0.003-0.147 0.009l0.006-0.001c-0.205-0.028-0.587 0.251-0.688 0.601-0.136 0.47 0.174 0.97 0.947 1.455 1.515 0.95 2.97 0.657 4.267-0.497 0.779-0.694 1.488-1.741 1.664-2.18 0.455-0.88 1.1-3.106 1.588-5.184l4.233 0.62 0.237-1.615-4.137-0.606c0.015-0.042 0.059-0.284 0.1-0.528l0.026-0.186 0.175-1.064 4.096 0.6 0.222-1.617-4.036-0.59c0.61-3.012 1.048-4.465 1.524-5.258 0.137-0.226 0.27-0.398 0.484-0.635l0.235-0.26c0.090-0.106 0.378-0.264 0.625-0.293 0.34-0.040 0.62 0.132 0.83 0.63 0.136 0.32 0.32 0.559 0.542 0.722 0.288 0.212 0.59 0.271 0.89 0.242 0.205 0.028 0.587-0.251 0.688-0.6 0.136-0.471-0.174-0.97-0.947-1.455v0c-1.515-0.951-2.97-0.658-4.267 0.497-0.78 0.693-1.489 1.742-1.664 2.18-0.475 0.917-0.924 2.322-1.296 3.885z"></path>
</svg>
