<!-- Generated by IcoMoon.io -->
<svg version="1.1" xmlns="http://www.w3.org/2000/svg" width="32" height="32" viewBox="0 0 32 32">
<title>flo</title>
<path d="M16 32c-8.837 0-16-7.163-16-16s7.163-16 16-16 16 7.163 16 16-7.163 16-16 16zM17.893 17.13c1.798-4.113 0.802-7.74-1.914-11.13-2.736 3.417-3.722 7.070-1.868 11.197-2.24-2.351-5.002-2.903-8.111-2.399 0.53 2.022 3.25 4.839 4.862 5.034-1.533-0.967-2.774-2.114-3.134-3.964 0.196-0.040 0.335-0.074 0.475-0.095 1.183-0.177 2.26 0.155 3.287 0.685 1.256 0.647 2.325 1.539 3.331 2.508 0.138 0.133 0.27 0.272 0.448 0.452-2.418 0.090-4.21 1.038-5.265 3.187 1.27 0.42 3.22 0.134 3.896-0.562-0.941 0.35-1.855 0.566-2.792 0.092 0.404-1.080 3.014-2.481 4.225-2.286-0.547 0.985-0.866 2.015-0.726 3.15 0.139 1.13 0.647 2.086 1.373 3.001 1.56-1.966 1.881-3.997 0.604-6.234 0.946 0.194 1.801 0.39 2.567 0.809 0.494 0.27 0.942 0.632 1.38 0.99 0.16 0.13 0.23 0.364 0.348 0.565-0.969 0.46-1.853 0.26-2.74-0.011 1.177 0.756 2.445 0.82 3.831 0.513-1.067-2.181-2.868-3.126-5.233-3.215 0.037-0.069 0.047-0.101 0.068-0.123 1.207-1.205 2.493-2.313 4.074-3.034 0.94-0.428 1.922-0.648 2.969-0.48 0.286 0.046 0.396 0.134 0.31 0.445-0.268 0.985-0.807 1.805-1.566 2.482-0.455 0.406-0.958 0.76-1.51 1.193 2.5-0.96 3.915-2.798 4.918-5.098-3.112-0.498-5.858 0.027-8.107 2.328zM15.98 20.297c-1.145 1.307-1.173 3.1 0.013 4.294 1.121-1.080 1.122-3.093-0.013-4.294zM15.981 8.105c-2.705 3.128-2.603 6.826-0.002 9.899 2.648-3.136 2.655-6.816 0.002-9.9z"></path>
</svg>
