<!-- Generated by IcoMoon.io -->
<svg version="1.1" xmlns="http://www.w3.org/2000/svg" width="32" height="32" viewBox="0 0 32 32">
<title>give</title>
<path d="M16 32c-8.837 0-16-7.163-16-16s7.163-16 16-16 16 7.163 16 16-7.163 16-16 16zM15.263 24.856v1.463h0.737v-2.189h-1.463v0.726h0.726zM7.926 16.826h-0.726v3.652h0.726v-1.463h0.737v-1.463h-0.737v-0.726zM16.737 21.204v2.189h0.726v-2.189h-0.726zM16 23.393v0.737h0.737v-0.737h-0.737zM8.663 22.667v2.189h2.2v-2.189h-2.2zM7.2 15.363v0.726h0.737v-0.726h-0.737zM11.6 13.9v0.737h0.737v-0.737h-0.737zM16 13.163v1.463h0.737v-1.463h-0.737zM6.463 10.974v2.189h2.2v-2.189h-2.2zM13.063 24.856v1.463h0.737v-1.463h-0.737zM13.8 13.163h-0.726v1.463h0.726v-0.726h0.737v-1.463h-0.737v0.726zM14.537 11.711v0.726h0.726v-0.726h-0.726zM14.537 13.9v0.726h0.726v-0.726h-0.726zM10.863 15.363v0.726h2.2v-0.726h-2.2zM13.8 12.437v-0.726h0.726v-0.737h-0.726v-1.452h-2.2v0.726h1.463v0.726h-0.737v0.726h-0.726v0.726h-0.726v-0.715h-0.748v-0.726h0.737v0.715h0.737v-0.726h-0.726v-1.452h-5.874v5.115h5.874v-0.737h0.726v-1.463h0.737v0.726h0.737v-0.726h0.726zM9.4 13.9h-3.663v-3.652h3.663v3.652zM10.126 13.9v-1.463h0.737v1.463h-0.737zM13.063 11.7v-0.715h0.737v0.715h-0.737zM18.937 19.741v-0.726h-1.474v-1.463h-0.726v0.726h-0.726v-0.726h0.726v-2.2h-1.463v0.737h-0.748v1.463h-0.726v0.726h0.737v-0.726h0.726v2.189h-1.463v-0.726h-0.737v-1.463h-0.726v-0.726h-1.474v-0.726h-0.737v-0.726h-1.463v0.726h-0.737v0.726h0.737v0.726h0.737v-0.726h0.737v0.726h-0.737v0.726h0.737v0.726h0.726v-0.726h0.737v-0.726h0.726v0.726h-0.726v0.726h-0.726v1.463h1.463v0.737h-1.474v-0.726h-0.737v0.726h-1.463v-0.726h-0.726v0.726h-0.737v5.115h5.137v-4.389h0.726v2.2h1.474v-0.726h0.737v-1.474h-0.737v-0.726h-0.737v0.726h-0.726v-1.463h2.2v0.726h0.737v-1.452h1.452v0.737h0.737v-0.737h0.737zM11.6 25.582h-3.663v-3.652h3.663v3.652zM12.337 19.741h-0.737v-0.726h0.737v0.726zM13.8 22.667h0.737v0.726h-0.737v-0.726zM18.937 9.522v1.452h0.726v-1.452h-0.726zM17.463 9.522h-0.726v2.189h-0.737v0.726h0.737v0.726h0.726v1.463h0.737v-1.463h0.737v1.474h0.726v-0.737h0.737v-1.463h-1.463v-1.463h-1.474v-1.452zM24.063 17.552h-1.463v0.726h-0.737v0.737h-0.726v-2.189h0.726v-0.737h-0.726v0.726h-0.737v0.737h-0.737v-1.463h-0.726v1.463h-0.737v0.737l0.737-0.011h0.726v1.463h2.2v0.737h-2.2v0.726h-0.726v0.726h-0.737v0.737h0.737v0.726h-0.737v0.737h0.737v0.726h0.726v0.726h-0.726v0.737h5.863v-4.389h-0.737v3.652h-3.663v-3.652h2.2v-2.915h0.737v0.726h1.463v-1.452h-0.726v-0.737h0.726v-2.189h-0.737v2.189zM18.2 20.478v0.726h0.737v-0.726h-0.737zM21.863 16.826v0.726h0.737v-0.726h-0.737zM23.337 20.478v0.737h1.463v-0.737h-1.463zM23.337 10.985v2.189h2.2v-2.189h-2.2zM20.4 13.9v0.737h0.737v-0.737h-0.737zM17.463 15.363v0.726h0.737v-0.726h-0.737zM22.6 15.363v0.726h0.737v-0.726h-0.737zM21.137 22.667v2.189h2.2v-2.189h-2.2zM20.4 15.363v0.726h0.737v-0.726h-0.737zM15.263 10.974v0.737h0.737v-0.737h-0.737zM20.4 9.522v0.726h1.463v0.726h-0.737v0.726h-0.726v-0.726h-0.737v0.737h0.737v0.715h0.737v0.726h0.737v1.463h5.126v-5.093h-6.6zM26.263 13.9h-3.663v-3.652h3.663v3.652zM9.851 8.235c0.506 0.341 1.078 0.407 1.529 0.429 0.385 0.022 1.034 0.022 1.716 0.022 1.265 0 2.75 0.022 2.904 0.022 0.407 0.011 1.65 0.011 2.75 0.011 0.682 0 1.32-0.011 1.716-0.022 0.451-0.022 1.023-0.099 1.529-0.429 0.638-0.429 0.957-1.133 0.957-2.090 0-0.77-0.319-1.232-0.583-1.496-0.715-0.693-1.815-0.649-2.178-0.638h-0.044c-0.22 0-1.012 0.121-1.947 0.649-0.825 0.462-1.54 1.122-2.123 1.947l-0.066 0.165-0.055-0.088c-0.616-0.924-1.419-1.551-2.31-2.057-0.924-0.528-1.716-0.638-1.936-0.638h-0.044c-0.363-0.011-1.463-0.055-2.178 0.638-0.484 0.462-0.583 1.067-0.583 1.496-0.011 0.946 0.308 1.65 0.946 2.079zM18.739 5.771c0.781-0.451 1.375-0.517 1.419-0.517h0.077c0.627-0.022 1.067 0.077 1.298 0.297 0.143 0.143 0.22 0.341 0.22 0.627 0 1.045-0.495 1.276-1.342 1.32-0.715 0.033-2.376 0.022-3.454 0.011 0.45-0.719 1.050-1.304 1.758-1.725l0.024-0.013zM10.313 5.518c0.209-0.198 0.583-0.297 1.122-0.297h0.264c0.044 0 0.638 0.066 1.419 0.517 0.704 0.407 1.309 0.99 1.793 1.738-1.089 0.011-2.75 0.022-3.465-0.011-0.847-0.044-1.342-0.275-1.342-1.32 0-0.286 0.066-0.484 0.209-0.627zM17.463 24.856h-0.726v1.463h0.737v-1.463h0.726v-0.726h-0.737v0.726z"></path>
</svg>
