<!-- Generated by IcoMoon.io -->
<svg version="1.1" xmlns="http://www.w3.org/2000/svg" width="32" height="32" viewBox="0 0 32 32">
<title>glxt</title>
<path d="M16 32c-8.837 0-16-7.163-16-16s7.163-16 16-16 16 7.163 16 16-7.163 16-16 16zM12.328 4.598c-0.676 0.212-1.324 0.502-1.95 0.826-0.48 0.265-0.955 0.546-1.394 0.876-2.006 1.466-3.523 3.493-4.329 5.85l-0.025 0.085c-0.248 0.724-0.439 1.573-0.538 2.45l-0.005 0.056c-0.046 0.576-0.090 1.156-0.050 1.733 0.032 1.203 0.28 2.39 0.67 3.525 1.281 3.517 4.054 6.219 7.533 7.376l0.085 0.024c0.873 0.27 1.77 0.47 2.684 0.532 0.2 0.035 0.408 0.013 0.61 0.040 1.22 0.035 2.444-0.108 3.62-0.445 0.7-0.184 1.38-0.455 2.032-0.773 2.345-1.171 4.209-3.011 5.378-5.269l0.032-0.067c0.285-0.546 0.55-1.189 0.758-1.858l0.022-0.084c0.24-0.81 0.414-1.642 0.474-2.484 0.034-0.202 0.012-0.408 0.040-0.61 0.006-0.256 0.010-0.509 0-0.761-0.028-0.203-0.006-0.409-0.040-0.611-0.066-0.935-0.275-1.858-0.555-2.75-0.25-0.736-0.522-1.358-0.838-1.952l0.034 0.070c-0.291-0.538-0.581-0.993-0.9-1.427l0.024 0.034c-1.426-1.956-3.384-3.446-5.661-4.269l-0.084-0.026c-1.415-0.483-2.92-0.726-4.416-0.658-1.091 0.034-2.173 0.24-3.21 0.567zM14.638 8.928v2.802c-0.006 0.050 0.040 0.078 0.065 0.112 0.43 0.452 0.864 0.9 1.294 1.353-0.002-0.633-0.002-1.383-0.002-2.133s0.001-1.499 0.003-2.249l-0 0.115c-0.452 0-0.907-0.003-1.36 0zM8.728 10.378c0.103 0.068 0.178 0.167 0.265 0.252 0.926 0.935 1.855 1.867 2.777 2.808 0.845 0.854 1.693 1.705 2.534 2.559-1.019 1.044-2.057 2.070-3.073 3.114-0.813 0.82-1.627 1.64-2.437 2.459-0.019 0.015-0.040 0.032-0.062 0.048l-0.004 0.002c1.197 0 2.397 0.003 3.597-0.006 1.225-1.282 2.456-2.56 3.678-3.844 1.225 1.281 2.453 2.562 3.678 3.844 1.197 0.009 2.394 0.003 3.59 0.006-0.183-0.147-0.327-0.33-0.498-0.49-0.857-0.866-1.72-1.733-2.575-2.602-0.829-0.845-1.673-1.677-2.496-2.528 0.2-0.2 0.386-0.408 0.592-0.605 1.568-1.58 3.13-3.166 4.697-4.747 0.094-0.090 0.172-0.196 0.28-0.27-1.2 0-2.396-0.004-3.593 0.002-1.225 1.281-2.453 2.56-3.678 3.84-1.222-1.284-2.453-2.562-3.678-3.84-1.197-0.003-2.397-0.003-3.594-0.003zM16.006 18.793c0 1.427 0.003 2.852-0.003 4.28 0.455-0.004 0.91 0 1.362 0v-2.806c0-0.003 0.001-0.007 0.001-0.012 0-0.028-0.012-0.053-0.032-0.069l-0-0c-0.23-0.25-0.474-0.483-0.701-0.732-0.206-0.225-0.427-0.43-0.627-0.661z"></path>
</svg>
