<!-- Generated by IcoMoon.io -->
<svg version="1.1" xmlns="http://www.w3.org/2000/svg" width="32" height="32" viewBox="0 0 32 32">
<title>gno</title>
<path d="M16 32c-8.837 0-16-7.163-16-16s7.163-16 16-16 16 7.163 16 16-7.163 16-16 16zM24.777 10.5l-0.798 0.81c0.635 1.011 0.834 2.28 0.4 3.494-0.726 2.060-2.975 3.146-5.024 2.41-0.29-0.11-0.562-0.24-0.798-0.405l-2.557 2.594-2.23-2.28c-0.633 0.434-1.415 0.693-2.258 0.693-0.485 0-0.95-0.086-1.38-0.243l0.028 0.009c-1.574-0.593-2.673-2.087-2.673-3.837 0-0.498 0.089-0.975 0.252-1.416l-0.009 0.028c0.11-0.331 0.273-0.626 0.454-0.901l-0.961-0.975-0.182 0.312c-0.967 1.58-1.539 3.491-1.54 5.537v0c-0.021 5.869 4.695 10.669 10.479 10.669h0.020c5.785 0 10.482-4.764 10.5-10.632 0-1.95-0.526-3.863-1.523-5.537l-0.2-0.331zM9.363 12.652c-0.272 0.365-0.435 0.824-0.435 1.322 0 0.001 0 0.002 0 0.004v-0c0 1.195 0.96 2.17 2.14 2.17 0.489 0 0.942-0.165 1.305-0.46l-3.010-3.035zM19.863 15.503c0.344 0.24 0.743 0.368 1.197 0.368 1.178 0 2.14-0.975 2.14-2.17 0-0.442-0.127-0.865-0.363-1.214l-2.974 3.016zM16.036 17.784l8.56-8.645-0.327-0.368c-2.052-2.31-5.026-3.761-8.34-3.771h-0.020c-3.137 0-6.057 1.288-8.197 3.587l-0.344 0.368 8.668 8.83zM8.782 8.954c1.822-1.807 4.33-2.924 7.1-2.924 0.016 0 0.032 0 0.047 0h0.017c2.72 0 5.331 1.122 7.253 3.072l-7.163 7.23-7.254-7.377z"></path>
</svg>
