<!-- Generated by IcoMoon.io -->
<svg version="1.1" xmlns="http://www.w3.org/2000/svg" width="32" height="32" viewBox="0 0 32 32">
<title>gzr</title>
<path d="M9.254 8.307c-0.030 0.002-0.055 0.003-0.080 0.006l0.008-0.001c-0.080 0.1-0.178 0.040-0.278 0.060-0.357 0.060-0.634 0.317-0.614 0.614 0.020 0.338 0.297 0.417 0.575 0.476 0.674 0.16 1.349 0.1 2.023 0.12 0.813 0 1.27 0.396 1.388 1.21 0.080 0.594 1.865 16.224 1.885 16.561 0.004 0.144 0.103 0.263 0.236 0.298l0.002 0c0.674 0.205 1.378 0.3 2.082 0.278 0.791 0.020 1.58-0.080 2.34-0.298 0.12-0.040 0.219-0.080 0.219-0.238 0.020-0.416 1.15-15.352 1.15-15.59-0-0.016-0-0.034-0-0.052 0-0.707 0.239-1.359 0.641-1.879l-0.005 0.007c0.337-0.397 0.714-0.754 1.051-1.15 0.002-0.010 0.004-0.023 0.006-0.037l0-0.003c0.395-0.020 0.79-0.020 1.184-0.060 0.179-0.020 0.457-0.020 0.437-0.357-0.040-0.198-0.357-0.753-1.805-0.416-0.139 0.040-0.932 0.278-1.21 0.139 0.423-0.274 0.86-0.525 1.309-0.754 0.198-0.159 0.357-0.377 0.238-0.615s-0.357-0.218-0.575-0.139c-0.428 0.135-0.794 0.361-1.091 0.655l0-0c-0.201 0.204-0.42 0.39-0.655 0.555-0.575 0.278-0.575 0.278-0.714 0.238-0.178-0.080-0.377-0.218-0.238-0.416 0.081-0.129 0.141-0.27 0.179-0.417 0.060-0.258-0.020-0.337-0.199-0.337-0.357 0.020-0.476 0.535-0.535 0.615-0.038 0.078-0.085 0.15-0.139 0.218-0.062 0.062-0.148 0.1-0.242 0.1-0.041 0-0.080-0.007-0.117-0.020l0.002 0.001c-0.119-0.020-0.218-0.080-0.119-0.239 0.179-0.277 0.734-0.714 0.893-1.289 0 0 0.277-0.754-0.496-0.773-0.417-0.020-0.754 0.277-0.873 0.733-0.119 0.476 0.139 1.131 0 1.448-0.050 0.134-0.117 0.26-0.198 0.377-0.128 0.115-0.299 0.186-0.486 0.186s-0.358-0.071-0.487-0.187l0.001 0.001c-0.119-0.138-0.191-0.319-0.191-0.516 0-0.049 0.004-0.096 0.013-0.143l-0.001 0.005c0.059-0.213 0.114-0.482 0.154-0.755l0.005-0.039c0.020-0.198-0.337-0.555-0.635-0.317-0.139 0.1-0.080 0.258-0.020 0.397 0.1 0.297 0.278 1.15-0.694 0.733-0.377-0.198-0.060-1.17-0.198-1.527-0.037-0.152-0.172-0.264-0.334-0.264-0.076 0-0.146 0.025-0.203 0.067l0.001-0.001c-0.14 0.058-0.237 0.194-0.237 0.352 0 0.075 0.022 0.146 0.060 0.205l-0.001-0.002c0.080 0.159 0.555 1.071 0.178 1.23-0.139 0.060-0.436-0.060-0.634-0.179-0.714-0.317-0.833-1.408-1.052-1.547-0.092-0.069-0.208-0.11-0.334-0.11-0.137 0-0.263 0.049-0.361 0.131l0.001-0.001c-0.14 0.080-0.233 0.229-0.233 0.399 0 0.064 0.013 0.124 0.036 0.179l-0.001-0.003c0.099 0.179 0.476 0.278 0.555 0.893l0.023 0.017c-0.008 0-0.016 0-0.023 0.003-0.119 0-0.178-0.080-0.258-0.139-0.215-0.15-0.482-0.239-0.77-0.239-0.165 0-0.323 0.029-0.469 0.083l0.009-0.003c-0.173 0.042-0.305 0.181-0.337 0.354l-0 0.003c0.002 0.192 0.124 0.354 0.295 0.416l0.003 0.001c0.197 0.074 0.389 0.16 0.575 0.258 0.1 0.040 0.258 0.060 0.238 0.238v0.006c-0.016-0.020-0.036-0.035-0.059-0.046l-0.001-0c-0.083 0.011-0.178 0.017-0.275 0.017-0.419 0-0.81-0.117-1.143-0.32l0.010 0.005c-0.091-0.065-0.204-0.104-0.327-0.104s-0.236 0.039-0.329 0.105l0.002-0.001c-0.258 0.218 0.119 0.476 0.139 0.476 0.037 0.024 0.081 0.042 0.127 0.053l0.003 0.001zM13.919 7.416c-0.030 0.006-0.055 0.012-0.079 0.020l0.005-0.001c0.010-0.005 0.023-0.010 0.036-0.014l0.002-0.001c0.008-0.001 0.020-0.003 0.033-0.004l0.003-0zM16 32c-8.837 0-16-7.163-16-16s7.163-16 16-16 16 7.163 16 16-7.163 16-16 16zM23.88 9.443c-0.754-0.278-2.42 0.138-2.5 0.257 0.318 0.060 0.417 0.1 0.893 0.179 0.51 0.093 1 0.274 1.448 0.536 0.476 0.277 0.674-0.1 0.674-0.1 0.080-0.178-0.138-0.734-0.515-0.872zM10.333 6.15c-0.135-0.212-0.266-0.393-0.406-0.566l0.009 0.011c-0.377-0.397-1.11-0.595-1.508-0.397-0.218 0.1-0.317 0.238-0.138 0.476 0.217 0.215 0.493 0.36 0.793 0.417 0.178 0.040 0.972 0.218 1.17 0.257 0.2 0 0.080-0.198 0.080-0.198zM24.257 7.42c0.040-0.12 0-0.516-0.715-0.417-0.595 0.1-1.011 0.258-0.991 0.337 0.020 0.080 0.674 0.199 0.813 0.218 0.555 0.1 0.873-0.060 0.893-0.138zM17.037 4.107c-0.071-0.065-0.165-0.106-0.27-0.106-0.093 0-0.179 0.032-0.247 0.086l0.001-0.001c-0.595 0.377-0.159 1.666-0.1 1.666 0.060 0 0.12-0.456 0.715-1.13 0.041-0.058 0.066-0.131 0.066-0.21 0-0.128-0.066-0.24-0.165-0.305l-0.001-0.001z"></path>
</svg>
