<!-- Generated by IcoMoon.io -->
<svg version="1.1" xmlns="http://www.w3.org/2000/svg" width="32" height="32" viewBox="0 0 32 32">
<title>hsr</title>
<path d="M16 32c-8.837 0-16-7.163-16-16s7.163-16 16-16 16 7.163 16 16-7.163 16-16 16zM10.75 7.5c0.511 0.749 0.816 1.674 0.816 2.67 0 0.024-0 0.049-0.001 0.073l0-0.004c-1.104 0.010-2.207 0.010-3.31 0.010-1.075 1.92-2.199 3.817-3.255 5.747v0.003c1.054 1.933 2.174 3.83 3.254 5.75h2.96v-2.313h-0.969c1.37 2.644 0.72 1.521 0.073 0.396l-2.031-3.833 1.955-3.437h7.867v2.27h-3.768v-1.98h-2.84c-0.010 3.217 0.023 6.434-0.010 9.647 0.103 0.943-0.878 1.357-1.365 2h5.597c-0.865-0.697-1.61-1.53-1.454-2.74 3.317-0.020 6.63-0.003 9.944-0.010 0.835-1.433 1.505-3.007 2.787-4.113-1.296-0.174-2.605-0.104-3.907-0.137-0.225 0.667-0.507 1.31-0.825 1.94-0.434-0.003-0.868-0.003-1.299-0.003 0.010-3.324-0.017-6.65 0.003-9.974-0.050-0.743 0.464-1.33 0.766-1.963h-4.384c0.567 0.81 0.832 1.753 0.815 2.74-1.296 0.013-2.595 0.013-3.89 0-0.020-0.993 0.301-1.91 0.825-2.74h-4.355zM14.342 17.167h3.767v2.27h-3.767v-2.27zM21.257 10.25v2.313l0.984-0.003c0.348 0.61 0.663 1.247 0.822 1.94 1.256-0.063 2.518 0.064 3.764-0.1-0.023-0.076-0.066-0.233-0.090-0.31-1.166-1.040-1.722-2.54-2.53-3.84h-2.95zM18.212 22.040c0.073 1.123-0.772 1.774-1.495 2.46h5.637c-0.765-0.66-1.544-1.35-1.524-2.463-0.872 0.003-1.747 0.006-2.618 0.003z"></path>
</svg>
