<!-- Generated by IcoMoon.io -->
<svg version="1.1" xmlns="http://www.w3.org/2000/svg" width="32" height="32" viewBox="0 0 32 32">
<title>iq</title>
<path d="M16 32c-8.837 0-16-7.163-16-16s7.163-16 16-16 16 7.163 16 16-7.163 16-16 16zM11.83 10.12c0.007-1.977 0.766-3.775 2.005-5.126l-0.005 0.006c0.35-0.35 0.39-0.42 0.39-0.7s0-0.3-0.21-0.3c-0.293 0.033-0.555 0.082-0.809 0.149l0.039-0.009c-3.057 0.739-5.602 2.561-7.263 5.027l-0.027 0.043c-0.783 1.141-1.373 2.482-1.686 3.926l-0.014 0.074c-0.157 0.79-0.247 1.697-0.247 2.626 0 0.484 0.024 0.962 0.072 1.433l-0.005-0.059c0.39 3.064 1.919 5.713 4.141 7.554l0.019 0.016c1.23 1 2.61 1.8 2.61 1.44-0.084-0.16-0.191-0.295-0.319-0.409l-0.001-0.001c-1.020-1.121-1.645-2.618-1.645-4.26 0-0.293 0.020-0.581 0.058-0.863l-0.004 0.033c0.191-2.366 1.489-4.394 3.37-5.582l0.030-0.018c0.222-0.16 0.474-0.313 0.738-0.445l0.032-0.015c0.15 0 0.060-0.3-0.31-1-0.603-1.005-0.96-2.218-0.96-3.514 0-0.009 0-0.018 0-0.028v0.001zM27.34 13.24c-0.748-3.555-2.987-6.476-6.017-8.129l-0.063-0.031c-0.56-0.31-0.84-0.38-0.84-0.19 0.057 0.169 0.138 0.315 0.242 0.443l-0.002-0.003c0.596 0.837 0.965 1.872 1 2.992l0 0.008c0.016 0.134 0.025 0.289 0.025 0.446 0 1.030-0.389 1.968-1.028 2.677l0.003-0.004c-0.197 0.209-0.476 0.339-0.786 0.339-0.279 0-0.534-0.106-0.725-0.28l0.001 0.001c-0.4-0.29-0.4-0.49-0.15-0.86 0.472-0.687 0.755-1.536 0.755-2.452 0-0.070-0.002-0.139-0.005-0.208l0 0.010c0.009-0.078 0.013-0.169 0.013-0.26 0-0.707-0.288-1.347-0.753-1.809l-0-0c-0.352-0.364-0.844-0.59-1.389-0.59-0.196 0-0.386 0.029-0.564 0.084l0.014-0.004c-0.976 0.401-1.697 1.247-1.916 2.279l-0.004 0.021c-0.217 0.674-0.36 1.453-0.399 2.259l-0.001 0.021c0.008 1.245 0.322 2.414 0.869 3.44l-0.019-0.040c0.396 0.616 0.863 1.143 1.399 1.591l0.011 0.009c0.11 0.072 0.207 0.16 0.29 0.26-0.093 0.077-0.203 0.135-0.324 0.169l-0.006 0.001c-1.556 0.748-2.741 2.061-3.306 3.665l-0.014 0.045c-0.309 0.77-0.489 1.663-0.489 2.598 0 0.124 0.003 0.247 0.009 0.369l-0.001-0.017c-0.002 0.044-0.003 0.095-0.003 0.146 0 0.946 0.383 1.803 1.003 2.424l-0-0c0.579 0.503 1.34 0.81 2.173 0.81 0.222 0 0.439-0.022 0.648-0.063l-0.021 0.003c1.372-0.106 2.583-0.722 3.457-1.657l0.003-0.003c0.41-0.44 0.49-0.49 0.57-0.39s0.060 0.16-0.090 0.41c-0.952 1.605-2.442 2.807-4.217 3.366l-0.053 0.014c-0.35 0.090-0.5 0.16-0.5 0.24 0 0.26 2.19-0.1 3.52-0.57 3.44-1.282 6.090-3.985 7.274-7.375l0.026-0.085c0.357-0.955 0.564-2.059 0.564-3.212 0-0.179-0.005-0.357-0.015-0.533l0.001 0.024c0.010-0.16 0.015-0.348 0.015-0.536 0-0.66-0.067-1.303-0.196-1.925l0.011 0.061z"></path>
</svg>
