<!-- Generated by IcoMoon.io -->
<svg version="1.1" xmlns="http://www.w3.org/2000/svg" width="32" height="32" viewBox="0 0 32 32">
<title>jnt</title>
<path d="M16 32c-8.837 0-16-7.163-16-16s7.163-16 16-16 16 7.163 16 16-7.163 16-16 16zM16 26c0.648 0 1.284-0.174 1.844-0.505l5.306-3.12c1.116-0.675 1.85-1.882 1.85-3.26 0-0 0-0 0-0v0-6.23c0-0.002 0-0.004 0-0.006 0-1.376-0.735-2.581-1.833-3.244l-0.017-0.009-5.306-3.12c-0.524-0.318-1.158-0.506-1.836-0.506v0c-0.65 0-1.29 0.175-1.852 0.505l-5.306 3.121c-1.115 0.675-1.85 1.881-1.85 3.259v6.23c0 0.002 0 0.005 0 0.007 0 1.376 0.735 2.581 1.833 3.244l0.017 0.010 5.306 3.12c0.56 0.33 1.196 0.505 1.844 0.505zM12.948 19.571c0.26 0.267 0.612 0.417 0.981 0.418 0.765 0 1.385-0.631 1.385-1.41v-7.984h1.382v4.696c0.001 0.776 0.62 1.405 1.382 1.407 0.369 0 0.723-0.15 0.983-0.416l0.982 1c-0.485 0.501-1.164 0.812-1.915 0.812-0.018 0-0.035-0-0.053-0l0.003 0c-0.001 0-0.002 0-0.003 0-0.508 0-0.984-0.14-1.391-0.383l0.012 0.007v0.852c-0.002 1.559-1.243 2.821-2.774 2.823-0.006 0-0.014 0-0.021 0-0.76 0-1.446-0.315-1.935-0.821l-0.001-0.001z"></path>
</svg>
