<!-- Generated by IcoMoon.io -->
<svg version="1.1" xmlns="http://www.w3.org/2000/svg" width="32" height="32" viewBox="0 0 32 32">
<title>lsk</title>
<path d="M16 32c-8.837 0-16-7.163-16-16s7.163-16 16-16 16 7.163 16 16-7.163 16-16 16zM14.249 24.958l2.467-2.786c0.042-0.042 0.014-0.111-0.055-0.111h-2.717c-0.022-0.004-0.041-0.014-0.056-0.028l0 0-2.301-2.59c-0.014-0.029-0.028-0.057-0.014-0.084l3.854-6.645c0.014-0.028 0.014-0.056 0-0.070l-1.594-2.758c-0.028-0.041-0.097-0.041-0.125 0l-5.698 9.835c-0.006 0.012-0.010 0.026-0.010 0.041s0.004 0.029 0.010 0.042l-0-0 4.575 5.168c0.014 0.014 0.028 0.028 0.056 0.028h1.552c0.014-0.014 0.042-0.028 0.056-0.042zM15.939 6.042l-1.606 2.758c-0.014 0.028-0.014 0.056 0 0.070l6.072 10.475c0.014 0.027 0.014 0.055-0.014 0.083l-2.329 2.619-2.481 2.814c-0.042 0.041-0.014 0.111 0.055 0.111h3.715c0.022-0.004 0.041-0.014 0.056-0.028l-0 0 4.574-5.168c0.014-0.027 0.028-0.055 0.014-0.083l-7.944-13.651c-0.014-0.056-0.083-0.056-0.111 0z"></path>
</svg>
