<!-- Generated by IcoMoon.io -->
<svg version="1.1" xmlns="http://www.w3.org/2000/svg" width="32" height="32" viewBox="0 0 32 32">
<title>mda</title>
<path d="M16 32c-8.837 0-16-7.163-16-16s7.163-16 16-16 16 7.163 16 16-7.163 16-16 16zM20.663 7.992c-1.244-1.356-2.784-1.992-4.65-1.992-1.891 0-3.432 0.636-4.675 1.936-1.243 1.274-1.838 2.905-1.838 4.869 0 1.936 0.622 3.569 1.865 4.869 0.973 1.023 2.135 1.632 3.46 1.853v1.162h-2.73v1.245h2.756v0.664h-2.756v1.161h2.73v2.241h2.35v-2.24h2.757v-1.162h-2.784v-0.664h2.784v-1.245h-2.756v-1.134c1.351-0.222 2.513-0.83 3.486-1.854 1.217-1.3 1.838-2.932 1.838-4.868 0-1.91-0.621-3.541-1.837-4.841zM18.122 15.378c-0.514 0.664-1.243 0.996-2.108 0.996-0.838 0-1.54-0.332-2.081-0.996s-0.812-1.522-0.812-2.6c0-1.052 0.27-1.882 0.812-2.545 0.54-0.664 1.243-0.996 2.080-0.996 0.812 0 1.514 0.332 2.055 1.023 0.567 0.664 0.838 1.522 0.838 2.545 0 1.051-0.27 1.909-0.784 2.573z"></path>
</svg>
