<!-- Generated by IcoMoon.io -->
<svg version="1.1" xmlns="http://www.w3.org/2000/svg" width="32" height="32" viewBox="0 0 32 32">
<title>mith</title>
<path d="M16 32c-8.837 0-16-7.163-16-16s7.163-16 16-16 16 7.163 16 16-7.163 16-16 16zM15.993 20.998h10.37c0.234 0 0.457-0.040 0.576-0.261 0.122-0.226 0.045-0.452-0.085-0.657-0.108-0.17-0.22-0.337-0.33-0.505-0.888-1.367-1.835-2.699-2.653-4.108-1.353-2.332-2.625-4.714-3.927-7.076-0.13-0.236-0.296-0.403-0.572-0.39-0.262 0.012-0.397 0.201-0.499 0.423l-2.594 5.65c-0.128 0.278-0.19 0.286-0.363 0.042-0.841-1.194-1.684-2.386-2.521-3.582-0.144-0.206-0.337-0.336-0.563-0.252-0.164 0.060-0.32 0.213-0.422 0.364-1.040 1.544-2.067 3.098-3.103 4.646-0.322 0.48-0.617 0.99-0.998 1.418-1.002 1.122-2.043 2.208-3.070 3.306-0.18 0.191-0.308 0.393-0.198 0.666 0.116 0.287 0.358 0.318 0.626 0.318 3.442-0.003 6.884-0.002 10.326-0.002zM18.156 19.887c-0.162 0.126-2.61 0.125-2.805-0.018 0.268-0.297 0.532-0.593 0.802-0.884 0.022-0.023 0.088-0.027 0.121-0.011 0.622 0.29 1.242 0.583 1.862 0.876 0.005 0.003 0.007 0.013 0.020 0.037zM12.482 12.724c-0.056 0.552-0.1 1.055-0.164 1.555-0.020 0.104-0.078 0.191-0.159 0.249l-0.001 0.001c-0.245 0.168-0.717 0.465-1.193 0.755l-0.252 0.142c-0.057 0.035-0.136 0.032-0.204 0.046 0.016-0.067 0.014-0.146 0.050-0.2 1.412-2.196 1.974-3.031 2.54-3.865l-0.833 1.301c0.034-0.050 0.102-0.077 0.154-0.114l0.062 0.13zM24.479 19.974c-0.275 0-0.55-0.004-0.826 0.002-0.152 0.003-0.204-0.064-0.193-0.213 0.060-0.782 0.115-1.564 0.176-2.346 0.005-0.053 0.048-0.103 0.073-0.153 0.048 0.030 0.112 0.050 0.14 0.093 0.527 0.8 1.050 1.602 1.575 2.404 0.1 0.154 0.040 0.213-0.12 0.213h-0.825zM6.745 19.914c0.212-0.232 0.375-0.414 0.542-0.593 0.478-0.511 0.958-1.020 1.434-1.534 0.123-0.132 0.195-0.141 0.273 0.046 0.267 0.641 0.543 1.279 0.822 1.914 0.073 0.167 0.029 0.229-0.144 0.228-0.892-0.001-1.785 0-2.678-0.002-0.061 0-0.123-0.028-0.25-0.059zM19.94 15.301c0.139 0.013 0.218 0.010 0.293 0.028 0.836 0.207 1.671 0.417 2.506 0.626 0.313 0.079 0.455 0.248 0.436 0.578-0.046 0.774-0.106 1.548-0.16 2.322-0.011 0.17-0.016 0.342-0.035 0.511-0.008 0.062-0.050 0.12-0.076 0.18-0.050-0.038-0.116-0.066-0.15-0.115-0.503-0.722-1.001-1.447-1.5-2.172l-1.208-1.754c-0.029-0.042-0.048-0.091-0.106-0.204zM19.728 10.166c0.047 0.065 0.1 0.125 0.139 0.194 0.867 1.569 1.732 3.138 2.595 4.708 0.037 0.068 0.042 0.155 0.061 0.233-0.079 0-0.162 0.017-0.237-0.001-0.866-0.213-1.73-0.434-2.596-0.644-0.143-0.035-0.184-0.106-0.18-0.244 0.040-1.257 0.074-2.514 0.112-3.771 0.005-0.155 0.020-0.309 0.030-0.462l0.076-0.013zM15.843 17.873c-0.093-0.084-0.151-0.128-0.2-0.181-0.892-1-1.781-2.004-2.676-3.001-0.082-0.083-0.133-0.197-0.133-0.323 0-0.026 0.002-0.051 0.006-0.075l-0 0.003c0.076-0.678 0.135-1.358 0.205-2.038 0.010-0.085 0.045-0.168 0.068-0.252l0.094-0.056c0.025 0.058 0.040 0.122 0.076 0.172 2.743 3.943 3.523 5.020 4.306 6.097l-1.931-2.787c0.193 0.268 0.283 0.559 0.268 0.892-0.020 0.419-0.020 0.838-0.033 1.257-0.003 0.080-0.026 0.16-0.050 0.293zM16.42 17.664c0.020-0.806-0.042-1.605 0.346-2.38 0.734-1.462 1.403-2.96 2.103-4.44 0.031-0.065 0.108-0.108 0.163-0.161 0.020 0.068 0.060 0.137 0.058 0.205-0.028 1.235-0.060 2.47-0.095 3.705-0.005 0.078-0.033 0.149-0.079 0.206l0.001-0.001c-1.615 2.005-2.358 2.909-3.105 3.81l0.832-1.034c-0.044 0.053-0.109 0.087-0.164 0.13l-0.060-0.040zM12.917 19.974c-0.49 0-0.979 0.003-1.468-0.003-0.068 0-0.135-0.043-0.202-0.067 0.026-0.061 0.040-0.13 0.078-0.182 0.764-1.039 1.534-2.073 2.295-3.114 0.12-0.164 0.197-0.164 0.33-0.014 0.672 0.753 1.221 1.355 1.774 1.953l-0.094-0.103c0.105 0.115 0.133 0.195 0.008 0.325-0.334 0.352-0.648 0.724-0.983 1.075-0.077 0.073-0.18 0.119-0.293 0.125l-0.001 0c-0.481 0.013-0.963 0.006-1.444 0.006zM13.415 16.009l-2.73 3.66c-0.188 0.25-0.234 0.245-0.356-0.035-0.32-0.745-0.638-1.491-0.963-2.234-0.065-0.15-0.080-0.284 0.038-0.406 0.128-0.13 0.247-0.28 0.398-0.376 0.834-0.529 1.679-1.040 2.515-1.567 0.14-0.088 0.22-0.074 0.324 0.053 0.247 0.304 0.508 0.596 0.774 0.905zM19.21 15.221c0.365 0.528 0.677 0.977 0.987 1.427-1.664-2.574-0.972-1.579-0.283-0.584l2.383 3.636c0.043 0.063 0.054 0.148 0.080 0.223-0.072 0.017-0.142 0.049-0.214 0.050-0.756 0.003-1.513 0.005-2.27-0.002-0.136-0.003-0.264-0.033-0.379-0.086l0.006 0.002c-0.918-0.418-1.832-0.845-2.75-1.265-0.146-0.067-0.213-0.129-0.083-0.286 0.798-0.962 1.59-1.928 2.383-2.894 0.044-0.052 0.075-0.116 0.14-0.22z"></path>
</svg>
