<!-- Generated by IcoMoon.io -->
<svg version="1.1" xmlns="http://www.w3.org/2000/svg" width="32" height="32" viewBox="0 0 32 32">
<title>payx</title>
<path d="M16 32c-8.837 0-16-7.163-16-16s7.163-16 16-16 16 7.163 16 16-7.163 16-16 16zM11.687 10.062h0.032c2.875 0.063 5.75-0.062 8.625 0.063 0.718 0 1.562 0.344 1.718 1.094 0.25 1.75-1.218 3.344-2.812 3.75-1.75 0.281-3.5 0.187-5.219 0.187-2.67 7.136-3.091 8.147-3.514 9.157l2.264-6.094c2.094 0 4.188 0.093 6.25-0.219 2.985-0.684 5.348-2.83 6.325-5.627l0.019-0.061c0.5-1.312 0.719-2.968-0.281-4.124-0.844-1.063-2.344-1.063-3.594-1.158l-8.563-0.030-1.25 3.063zM8 10.906v0.031l-1.375 3.438h10.188l1.343-3.469h-10.156zM9.625 15.156h0.031l-3.656 9.375h3.469l3.687-9.375h-3.531z"></path>
</svg>
