<!-- Generated by IcoMoon.io -->
<svg version="1.1" xmlns="http://www.w3.org/2000/svg" width="32" height="32" viewBox="0 0 32 32">
<title>polis</title>
<path d="M16 32c-8.837 0-16-7.163-16-16s7.163-16 16-16 16 7.163 16 16-7.163 16-16 16zM25.636 22.68v-1c0-0.198-0.133-0.33-0.335-0.33h-0.665v-1.004c0-0.199-0.133-0.334-0.331-0.334h-0.666v-7.345h0.662c0.199 0 0.335-0.132 0.335-0.334v-1h0.665c0.004 0 0.009 0 0.014 0 0.159 0 0.291-0.115 0.317-0.266l0-0.002c0.034-0.166-0.033-0.298-0.165-0.368l-9.318-4.672c-0.044-0.016-0.096-0.025-0.149-0.025s-0.105 0.009-0.152 0.026l0.003-0.001-9.652 4.672c-0.104 0.058-0.174 0.167-0.174 0.292 0 0.025 0.003 0.050 0.008 0.074l-0-0.002c0 0.17 0.133 0.272 0.298 0.272h1v1c0 0.198 0.133 0.33 0.331 0.33h0.666v7.349h-0.662c-0.2 0-0.335 0.132-0.335 0.33v1.004h-0.665c-0.2 0-0.332 0.132-0.332 0.331v1.003c-0.198 0-0.334 0.133-0.334 0.335s0.132 0.334 0.331 0.334h19.305c0.198 0 0.334-0.132 0.334-0.33 0-0.2-0.132-0.339-0.33-0.339h-0.004zM7.993 11.998v-0.665h15.974v0.665h-15.974zM21.636 12.668v7.344h-1.328v-7.345h1.328zM18.308 12.668v7.344h-1.331v-7.345h1.33zM14.98 12.668v7.344h-1.328v-7.345h1.328zM11.652 12.668v7.344h-1.327v-7.345h1.327zM23.967 21.346h-15.97v-0.669h15.973v0.669h-0.003z"></path>
</svg>
