<!-- Generated by IcoMoon.io -->
<svg version="1.1" xmlns="http://www.w3.org/2000/svg" width="32" height="32" viewBox="0 0 32 32">
<title>ppt</title>
<path d="M16 32c-8.837 0-16-7.163-16-16s7.163-16 16-16 16 7.163 16 16-7.163 16-16 16zM16.049 8.316c1.316 0 2.382-0.733 2.382-1.638s-1.066-1.638-2.382-1.638-2.383 0.733-2.383 1.638c0 0.905 1.067 1.638 2.383 1.638zM14.816 26.6c0 0.196 0.173 0.375 0.37 0.375h1.667c0.196 0 0.347-0.179 0.347-0.375v-7.080h2.928c0.196 0 0.336-0.168 0.336-0.364v-9.708c0-0.197-0.139-0.344-0.336-0.344h-5.312v17.497zM13.92 19.519v-10.415h-2.010c-0.197 0-0.374 0.147-0.374 0.344v9.708c0 0.196 0.177 0.364 0.373 0.364h2.011z"></path>
</svg>
