<!-- Generated by IcoMoon.io -->
<svg version="1.1" xmlns="http://www.w3.org/2000/svg" width="32" height="32" viewBox="0 0 32 32">
<title>pre</title>
<path d="M16 32c-8.837 0-16-7.163-16-16s7.163-16 16-16 16 7.163 16 16-7.163 16-16 16zM13.47 18.045h1.678c0.003 0 0.007 0 0.010 0 0.5 0 0.973-0.114 1.396-0.316l-0.019 0.008c0.41-0.203 0.776-0.484 1.077-0.828 0.299-0.356 0.53-0.763 0.684-1.201 0.157-0.408 0.248-0.879 0.248-1.372 0-0.006 0-0.011-0-0.017v0.001c0-0.006 0-0.013 0-0.019 0-0.479-0.099-0.935-0.279-1.348l0.008 0.022c-0.185-0.454-0.429-0.844-0.728-1.185l0.004 0.005c-0.304-0.345-0.669-0.629-1.077-0.838l-0.021-0.010c-0.397-0.209-0.867-0.332-1.366-0.332-0.006 0-0.013 0-0.019 0h-4.409v10.703h2.816l-0.004-3.272zM13.47 13.199h1.427c0.206 0.014 0.388 0.107 0.517 0.248l0.001 0.001c0.166 0.165 0.27 0.456 0.27 0.911s-0.103 0.725-0.25 0.872c-0.123 0.145-0.289 0.248-0.475 0.248h-1.49v-2.279zM7.023 8.031v15.887c0 0.57 0.461 1.030 1.030 1.030h15.888c0.569 0 1.030-0.46 1.030-1.030v-15.888c0-0 0-0.001 0-0.001 0-0.569-0.461-1.030-1.030-1.030 0 0 0 0 0 0h-15.888c-0.569 0-1.030 0.461-1.030 1.030v0zM21.826 22.834h-11.68c-0 0-0.001 0-0.001 0-0.569 0-1.030-0.461-1.030-1.030 0 0 0 0 0 0v0-11.68c0-0 0-0.001 0-0.001 0-0.569 0.461-1.030 1.030-1.030 0 0 0.001 0 0.001 0h11.68c0.57 0 1.030 0.461 1.030 1.030v11.68c0 0.57-0.46 1.031-1.030 1.031zM14.733 19.309v2.030h6.607v-2.030h-6.607z"></path>
</svg>
