<!-- Generated by IcoMoon.io -->
<svg version="1.1" xmlns="http://www.w3.org/2000/svg" width="32" height="32" viewBox="0 0 32 32">
<title>ren</title>
<path d="M16 32c-8.837 0-16-7.163-16-16s7.163-16 16-16 16 7.163 16 16-7.163 16-16 16zM9.026 9.636l1.61-0.928 0.228 0.374 5.97-3.448-0.44-0.26-0.44-0.244-0.211-0.13-9.743 5.628v0.244l2.798-1.61 0.228 0.374zM9.026 13.181l4.683-2.7 0.211 0.376 5.987-3.45-0.439-0.26-0.438-0.244-0.214-0.13-12.816 7.383v0.26l2.798-1.609 0.228 0.374zM9.026 14.953l6.213-3.592 0.21 0.373 5.987-3.447-0.438-0.246-0.442-0.26-0.21-0.131-14.346 8.281v0.258l2.798-1.624 0.228 0.388zM9.026 16.711l7.79-4.49 0.213 0.376 5.937-3.433-0.442-0.245-0.438-0.259-0.21-0.115-15.876 9.159v0.243l2.798-1.61 0.228 0.374zM9.026 18.483l9.32-5.382 0.212 0.39 5.937-3.432-0.441-0.26-0.421-0.246-0.229-0.128-17.404 10.051v0.243l2.798-1.61 0.228 0.374zM25.159 10.433l-0.225-0.13-18.934 10.946v0.243l2.798-1.61 0.228 0.374 9.32-5.383 0.212 0.374 6.927-3.984v-0.634l-0.326-0.196zM7.203 22.567l1.562-0.895 0.229 0.374 9.303-5.383 0.226 0.389 6.962-4.034v-1.251l-18.492 10.67 0.21 0.13zM18.297 18.436l0.226 0.39 6.962-4.033v-1.254l-16.963 9.793 0.21 0.13 1.595-0.927 0.226 0.373 7.744-4.472zM10.262 24.34l1.61-0.928 0.21 0.391 6.215-3.595 0.226 0.374 6.962-4.017v-1.268l-15.435 8.913 0.213 0.13zM11.806 25.217l1.595-0.91 0.21 0.374 4.686-2.7 0.226 0.373 6.962-4.016v-1.268l-13.907 8.035 0.228 0.112zM13.108 25.982l0.228 0.13 1.594-0.927 0.211 0.391 3.156-1.823 0.226 0.376 6.962-4.019v-1.268l-12.377 7.14zM14.865 26.99l1.595-0.91 0.225 0.373 1.612-0.942 0.226 0.39 6.962-4.018v-1.269l-10.833 6.263 0.213 0.113zM18.378 6.512l-0.44-0.243-0.438-0.261-0.228-0.13-11.272 6.522v0.243l2.798-1.61 0.228 0.374 3.154-1.82 0.213 0.374 5.985-3.45z"></path>
</svg>
