<!-- Generated by IcoMoon.io -->
<svg version="1.1" xmlns="http://www.w3.org/2000/svg" width="32" height="32" viewBox="0 0 32 32">
<title>sc</title>
<path d="M16 32c-8.837 0-16-7.163-16-16s7.163-16 16-16 16 7.163 16 16-7.163 16-16 16zM16 7.5c-4.694 0-8.5 3.806-8.5 8.5s3.806 8.5 8.5 8.5v0h8.5v-8.5c0-4.694-3.806-8.5-8.5-8.5v0zM21.1 21.1h-5.023c-2.82 0-5.163-2.255-5.177-5.074-0-0.006-0-0.013-0-0.020 0-2.82 2.286-5.106 5.106-5.106 0.007 0 0.014 0 0.021 0h-0.001c2.819 0.014 5.074 2.358 5.074 5.177v5.023z"></path>
</svg>
