<!-- Generated by IcoMoon.io -->
<svg version="1.1" xmlns="http://www.w3.org/2000/svg" width="32" height="32" viewBox="0 0 32 32">
<title>smart</title>
<path d="M16 32c-8.837 0-16-7.163-16-16s7.163-16 16-16 16 7.163 16 16-7.163 16-16 16zM26.667 10.147l-3.438-1.979c-0.118-0.070-0.227-0.131-0.344-0.198-0.114-0.065-0.225-0.135-0.341-0.202-0.689-0.394-1.38-0.776-2.061-1.184l-3.266-1.886c-0.19-0.115-1.172-0.692-1.214-0.692-0.017 0-0.141 0.080-0.168 0.097l-4.462 2.57c-0.065 0.037-0.11 0.066-0.176 0.102-0.078 0.043-0.133 0.075-0.187 0.109l0.019-0.011-0.342 0.2c-0.025 0.016-0.082 0.051-0.14 0.084l-0.036 0.019-0.336 0.194c-0.118 0.070-0.229 0.13-0.345 0.197l-0.691 0.395c-0.060 0.031-0.11 0.064-0.168 0.097l-0.864 0.5c-0.12 0.070-0.231 0.128-0.348 0.195l-0.683 0.403c-0.343 0.196-0.687 0.405-1.035 0.594-0.153 0.082-0.956 0.572-1.035 0.593v12.714c0.064 0.006 0.942 0.529 1.033 0.583l1.376 0.796c0.115 0.070 0.23 0.133 0.344 0.199l0.68 0.392c0.058 0.030 0.11 0.064 0.17 0.097 0.066 0.036 0.109 0.067 0.176 0.1 0.175 0.090 0.343 0.197 0.51 0.298l0.866 0.499c0.060 0.033 0.108 0.062 0.167 0.097 0.338 0.204 0.689 0.387 1.026 0.59l1.207 0.7c0.797 0.471 1.61 0.91 2.403 1.386l0.943 0.546c0.15 0.101 0.205-0.013 0.441-0.142l2.066-1.192c0.114-0.066 0.225-0.13 0.345-0.197l0.337-0.193c0.057-0.031 0.11-0.064 0.167-0.099l1.895-1.097c0.566-0.339 1.15-0.646 1.716-0.986l3.773-2.186c0.055-0.033 0.11-0.066 0.168-0.098 0.060-0.032 0.117-0.077 0.185-0.092v-12.715c-0.107-0.072-0.218-0.127-0.333-0.197zM19.877 22.591h-3.215v0.842c0 0.010-0.004 0.013-0.014 0.013h-1.55v-0.855h-2.969v-2.38c0-0.025 0.030-0.046 0.045-0.060l0.301-0.325c0.009-0.008 0.017-0.017 0.025-0.026l0-0c0.007-0.010 0.015-0.019 0.023-0.027v0l0.175-0.186 0.002-0.003 0.052-0.053 0.023-0.028 0.056-0.059 0.006-0.007 0.187-0.202c0.040-0.041 0.080-0.080 0.118-0.125l0.002-0.002 0.006-0.008 0.126-0.134c0.018-0.020 0.032-0.031 0.049-0.053l0.152-0.162 0.025-0.025c0.008-0.008 0.015-0.018 0.022-0.027l0.001-0.001 0.257-0.274 0.006-0.007 0.039-0.040c0.050-0.064 0.14-0.144 0.193-0.208l0.006-0.008c0.017-0.020 0.036-0.034 0.052-0.053l0.099-0.107c0.070-0.070 0.13-0.146 0.2-0.216l0.225-0.242 0.025-0.025 0.098-0.108c0.019-0.019 0.037-0.033 0.052-0.053s0.034-0.034 0.051-0.054l0.099-0.107c0.010-0.010 0.018-0.017 0.027-0.028l0.075-0.081c0.015-0.020 0.034-0.034 0.051-0.054 0.044-0.049 0.17-0.178 0.197-0.214 0.016-0.020 0.035-0.032 0.049-0.052-0.041-0.050-0.083-0.095-0.127-0.138l-0-0-0.098-0.108-0.026-0.025c-0.010-0.012-0.013-0.018-0.025-0.030-0.077-0.078-0.148-0.161-0.226-0.24l-0.125-0.135c-0.008-0.010-0.015-0.019-0.024-0.027l-0-0-1.15-1.234c-0.008-0.011-0.016-0.021-0.025-0.030l0 0-0.549-0.591c-0.008-0.010-0.016-0.016-0.025-0.025l-0.1-0.11c-0.068-0.070-0.133-0.146-0.202-0.215l-0.022-0.024-0.002-0.002-0.074-0.081c-0.034-0.037-0.070-0.071-0.103-0.108-0.011-0.012-0.013-0.018-0.025-0.030-0.068-0.069-0.13-0.144-0.2-0.212-0.008-0.010-0.016-0.016-0.024-0.025-0.009-0.010-0.045-0.045-0.045-0.056v-2.389h2.968v-0.992c0.522 0 1.038 0.010 1.56 0.010v0.95c0 0.011 0.003 0.015 0.014 0.015h3.206v2.411h-4.423c0.026 0.040 0.066 0.073 0.097 0.109l0.246 0.27c0.015 0.020 0.031 0.034 0.048 0.054 0.042 0.050 0.089 0.093 0.13 0.143l0.358 0.393c0.070 0.068 0.13 0.145 0.197 0.215l0.913 1.003 0.006 0.008 0.327 0.36 0.025 0.024c0.044 0.044 0.080 0.094 0.124 0.138l0.588 0.643c0.024 0.026 0.050 0.050 0.070 0.080-0.009 0.014-0.016 0.018-0.027 0.030-0.008 0.010-0.015 0.019-0.023 0.027l0-0-0.123 0.133c-0.007 0.010-0.015 0.019-0.023 0.027l0-0-0.295 0.323c-0.020 0.019-0.030 0.035-0.050 0.054-0.040 0.040-0.1 0.115-0.147 0.16l-0.206 0.229c-0.041 0.049-0.151 0.158-0.184 0.2l-0.293 0.32c-0.063 0.077-0.134 0.143-0.198 0.219l-0.12 0.13c-0.060 0.061-0.112 0.126-0.17 0.188-0.010 0.010-0.018 0.017-0.027 0.028-0.068 0.077-0.142 0.15-0.209 0.23l-0.010 0.012-0.257 0.279-0.006 0.007-0.009 0.010-0.002 0.003-0.118 0.13c-0.008 0.008-0.016 0.016-0.023 0.025l-0 0.001c-0.008 0.009-0.016 0.018-0.025 0.026l-0 0c-0.051 0.050-0.095 0.11-0.146 0.16-0.008 0.008-0.016 0.017-0.023 0.026l-0.001 0.001-0.098 0.108c-0.008 0.010-0.016 0.016-0.025 0.025l-0.292 0.322h4.3c0.041 0 0.123-0.010 0.123 0.013v2.38z"></path>
</svg>
