<!-- Generated by IcoMoon.io -->
<svg version="1.1" xmlns="http://www.w3.org/2000/svg" width="32" height="32" viewBox="0 0 32 32">
<title>soc</title>
<path d="M16 32c-8.837 0-16-7.163-16-16s7.163-16 16-16 16 7.163 16 16-7.163 16-16 16zM16 4c-6.627 0-12 5.373-12 12s5.373 12 12 12 12-5.373 12-12c0-6.627-5.373-12-12-12v0zM18.743 26.236c-0.818 0.227-1.758 0.357-2.728 0.357-5.852 0-10.596-4.744-10.596-10.596 0-5.192 3.735-9.512 8.664-10.42l0.065-0.010c0.554-0.103 1.192-0.162 1.844-0.162 5.853 0 10.597 4.744 10.597 10.597 0 4.874-3.291 8.98-7.771 10.216l-0.074 0.018zM18.931 7.286c0 0.518 0 1.034 0.018 1.552-0.619-0.249-1.341-0.445-2.092-0.557l-0.053-0.006c-0.030-0.469 0.104-0.984-0.033-1.429-0.283-0.021-0.613-0.034-0.947-0.034-0.22 0-0.439 0.005-0.656 0.016l0.031-0.001c-0.026 0.482-0.017 0.966 0 1.45-0.805 0.123-1.528 0.323-2.212 0.598l0.066-0.024c0.014-0.522 0.020-1.043 0.013-1.566-3.672 1.263-6.264 4.689-6.264 8.719s2.592 7.456 6.2 8.7l0.065 0.019c0-0.512-0.005-1.022-0.015-1.532 0.618 0.25 1.337 0.442 2.086 0.544l0.047 0.005c0 0.469 0 0.938-0.028 1.402 0.56 0.080 1.128 0.080 1.688 0-0.024-0.411-0.039-0.896-0.040-1.383v-0.004c0.802-0.115 1.524-0.305 2.209-0.567l-0.069 0.023c-0.008 0.227-0.012 0.493-0.012 0.76s0.004 0.534 0.013 0.799l-0.001-0.039c3.669-1.266 6.257-4.689 6.257-8.717 0-4.032-2.594-7.458-6.204-8.701l-0.065-0.019-0.002-0.007zM20.299 21.222c-1.207 1.095-2.923 1.354-4.5 1.331-1.381 0-2.846-0.375-3.845-1.376-0.53-0.512-0.83-1.196-1.099-1.875 0.966-0.25 1.963-0.334 2.936-0.542 0.127 0.604 0.56 1.083 1.126 1.273l0.012 0.004c0.883 0.276 1.977 0.315 2.713-0.315 0.522-0.433 0.537-1.38-0.11-1.705-1.517-0.783-3.407-0.517-4.841-1.509-1.975-1.245-2.121-4.547-0.188-5.891 1.478-1.037 3.454-1.166 5.168-0.75 1.55 0.392 2.655 1.706 3.187 3.161-0.954 0.165-1.907 0.334-2.861 0.495-0.251-1.515-2.372-1.875-3.426-0.992-0.6 0.499-0.446 1.562 0.304 1.828 1.64 0.68 3.61 0.484 5.063 1.622 1.687 1.144 1.863 3.876 0.361 5.24z"></path>
</svg>
