<!-- Generated by IcoMoon.io -->
<svg version="1.1" xmlns="http://www.w3.org/2000/svg" width="32" height="32" viewBox="0 0 32 32">
<title>storj</title>
<path d="M16 32c-8.837 0-16-7.163-16-16s7.163-16 16-16 16 7.163 16 16-7.163 16-16 16zM24.977 18.971c-0.063-0.037-0.138-0.072-0.216-0.102l-0.011-0.004v-5.618c0.089-0.030 0.178-0.078 0.267-0.116 0.92-0.505 1.256-1.65 0.742-2.552-0.341-0.582-0.964-0.966-1.676-0.966-0.43 0-0.828 0.14-1.15 0.378l0.005-0.004-5.044-2.862c0.010-0.088 0.020-0.165 0.020-0.253 0-1.038-0.86-1.872-1.91-1.872-1.048 0-1.928 0.854-1.928 1.882 0 0.088 0.010 0.165 0.020 0.252l-5.007 2.843c-0.323-0.249-0.734-0.399-1.179-0.399-0.262 0-0.512 0.052-0.739 0.146l0.013-0.005c-0.625 0.253-1.076 0.814-1.169 1.49l-0.001 0.010c-0.009 0.070-0.015 0.15-0.015 0.232 0 0.616 0.3 1.163 0.761 1.501l0.005 0.004c0.070 0.048 0.139 0.097 0.218 0.145 0.080 0.049 0.167 0.088 0.257 0.117v5.608c-0.98 0.388-1.454 1.475-1.059 2.435 0.298 0.697 0.978 1.177 1.77 1.177 0.257 0 0.503-0.051 0.727-0.143l-0.013 0.005c0.090-0.029 0.168-0.077 0.248-0.116 0.094-0.056 0.172-0.107 0.247-0.162l-0.010 0.007 4.956 2.804c-0.169 1.018 0.544 1.979 1.582 2.144 1.039 0.165 2.018-0.534 2.186-1.553 0.020-0.106 0.020-0.203 0.020-0.31-0.002-0.097-0.009-0.192-0.021-0.284l0.001 0.012 4.926-2.784c0.080 0.058 0.159 0.116 0.248 0.165 0.92 0.504 2.087 0.184 2.601-0.718 0.151-0.265 0.24-0.582 0.24-0.92 0-0.681-0.362-1.278-0.905-1.609l-0.008-0.005zM25.324 21.319c-0.265 0.428-0.732 0.709-1.265 0.709-0.27 0-0.523-0.072-0.741-0.198l0.007 0.004c-0.434-0.248-0.721-0.708-0.721-1.235 0-0.116 0.014-0.229 0.040-0.337l-0.002 0.010-2.315-1.33c-0.473 0.466-1.122 0.754-1.839 0.754-0.346 0-0.676-0.067-0.978-0.189l0.018 0.006c-0.346 0.107-1.088 0.175-1.088 0.175v3.997c0.628 0.188 1.078 0.76 1.078 1.438 0 0.159-0.025 0.312-0.071 0.456l0.003-0.011c-0.247 0.795-1.108 1.232-1.92 0.99-0.010 0-0.020-0.010-0.030-0.010-0.072-0.023-0.134-0.049-0.193-0.081l0.006 0.003c-0.504-0.246-0.845-0.755-0.845-1.343 0-0.246 0.060-0.479 0.166-0.683l-0.004 0.008c0.188-0.369 0.525-0.64 0.92-0.766v-4.075c-0.339-0.103-0.621-0.212-0.893-0.338l0.043 0.018c-0.181 0.037-0.389 0.059-0.602 0.059-0.732 0-1.406-0.253-1.938-0.676l0.006 0.005-2.76 1.562c0.024 0.099 0.038 0.213 0.038 0.331 0 0.684-0.477 1.257-1.117 1.404l-0.010 0.002c-0.789 0.185-1.581-0.292-1.77-1.066-0.025-0.1-0.039-0.214-0.039-0.331 0-0.684 0.477-1.257 1.117-1.404l0.010-0.002c0.102-0.025 0.22-0.039 0.341-0.039 0.388 0 0.741 0.148 1.006 0.39l-0.001-0.001 2.582-1.466c-0.356-0.486-0.57-1.096-0.57-1.756 0-0.841 0.347-1.6 0.905-2.143l0.001-0.001-2.938-1.65c-0.26 0.241-0.61 0.389-0.995 0.389-0.418 0-0.795-0.175-1.062-0.455l-0.001-0.001c-0.244-0.254-0.395-0.6-0.395-0.98 0-0.415 0.178-0.788 0.463-1.047l0.001-0.001c0.26-0.241 0.61-0.389 0.994-0.389 0.418 0 0.795 0.175 1.062 0.456l0.001 0.001c0.244 0.252 0.394 0.595 0.394 0.974 0 0.116-0.014 0.228-0.040 0.335l0.002-0.010 3.255 1.833c0.402-0.216 0.877-0.347 1.381-0.359l0.004-0c0.455-0.368 1.621-0.746 1.621-0.746v-4.366c-0.563-0.164-0.968-0.676-0.968-1.282 0-0.138 0.021-0.272 0.060-0.397l-0.003 0.009c0.218-0.708 0.98-1.096 1.702-0.882 0.722 0.213 1.128 0.96 0.91 1.669-0.137 0.432-0.474 0.764-0.901 0.89l-0.009 0.002v4.28s2.137 0.523 2.81 1.309l3.461-1.93c-0.023-0.097-0.037-0.208-0.037-0.322 0-0.687 0.481-1.261 1.125-1.404l0.010-0.002c0.792-0.174 1.583 0.301 1.761 1.077 0.023 0.097 0.036 0.207 0.036 0.321 0 0.687-0.481 1.261-1.125 1.404l-0.010 0.002c-0.097 0.023-0.209 0.036-0.324 0.036-0.391 0-0.746-0.15-1.012-0.395l0.001 0.001-3.423 1.902c0.099 0.203 0.188 0.407 0.247 0.62 1.059 0.709 1.435 2.067 0.87 3.202l2.266 1.29c0.26-0.236 0.606-0.381 0.987-0.381 0.27 0 0.524 0.073 0.741 0.201l-0.007-0.004c0.683 0.398 0.92 1.271 0.505 1.96zM7.984 19.961c-0.002-0-0.004-0-0.006-0-0.334 0-0.605 0.269-0.608 0.602v0c0 0.332 0.275 0.601 0.614 0.601s0.613-0.27 0.613-0.601c-0.002-0.111-0.031-0.214-0.082-0.304l0.002 0.003c-0.111-0.181-0.308-0.3-0.533-0.3h-0v-0.001zM16.649 6.873c-0.003-0.333-0.274-0.602-0.608-0.602-0.002 0-0.004 0-0.006 0h0c-0.002 0-0.003-0-0.005-0-0.334 0-0.605 0.269-0.608 0.602v0c0 0.332 0.275 0.601 0.613 0.601 0.001 0 0.002 0 0.003 0 0.334 0 0.605-0.268 0.611-0.6v-0.001zM24.127 12.093c0.34 0 0.614-0.27 0.614-0.602-0.003-0.333-0.274-0.602-0.608-0.602-0.002 0-0.004 0-0.006 0h0c-0.002 0-0.003-0-0.005-0-0.334 0-0.605 0.269-0.608 0.602v0c0.007 0.334 0.279 0.601 0.613 0.602h0zM8.27 10.937c-0.087-0.051-0.191-0.080-0.303-0.080-0.224 0-0.42 0.121-0.526 0.301l-0.002 0.003c-0.051 0.085-0.082 0.188-0.082 0.299 0 0.222 0.124 0.415 0.306 0.515l0.003 0.002c0.087 0.051 0.191 0.080 0.303 0.080 0.224 0 0.42-0.121 0.526-0.301l0.002-0.003c0.051-0.085 0.081-0.188 0.081-0.298 0-0.222-0.123-0.416-0.305-0.516l-0.003-0.002zM24.374 20.077c-0.088-0.052-0.193-0.084-0.306-0.088l-0.001-0c-0.003-0-0.007-0-0.010-0-0.223 0-0.418 0.118-0.526 0.295l-0.002 0.003c-0.053 0.087-0.084 0.191-0.084 0.303s0.031 0.217 0.085 0.306l-0.002-0.003c0.11 0.18 0.305 0.298 0.528 0.298 0.004 0 0.007-0 0.011-0h-0.001c0.225-0.002 0.421-0.12 0.533-0.297l0.002-0.003c0.051-0.085 0.081-0.188 0.081-0.298 0-0.223-0.124-0.416-0.306-0.516l-0.003-0.002zM15.422 25.092c-0.002 0.017-0.003 0.037-0.003 0.058 0 0.329 0.26 0.598 0.585 0.612l0.001 0c0.001 0 0.003 0 0.004 0 0.309 0 0.567-0.219 0.628-0.51l0.001-0.004c0.003-0.024 0.005-0.051 0.005-0.079 0-0.303-0.225-0.554-0.517-0.594l-0.003-0c-0.028-0.005-0.060-0.007-0.093-0.007-0.3 0-0.549 0.217-0.599 0.502l-0.001 0.004c-0.005 0.005-0.009 0.012-0.010 0.020l-0 0zM18.944 15.807l-0.030-0.223c-0.011-0.061-0.025-0.113-0.042-0.163l0.002 0.008c0-0.020-0.010-0.039-0.010-0.058-0.020-0.058-0.040-0.126-0.059-0.185v-0.010c-0.163-0.414-0.417-0.763-0.738-1.034l-0.004-0.003-0.010-0.010c-0.055-0.049-0.117-0.094-0.182-0.133l-0.006-0.003-0.010-0.010c-0.059-0.038-0.128-0.087-0.187-0.116l-0.010-0.010c-0.054-0.031-0.119-0.064-0.186-0.092l-0.012-0.005-0.020-0.010c-0.039-0.018-0.11-0.048-0.183-0.076l-0.034-0.011-0.010-0.010c-0.080-0.019-0.149-0.048-0.228-0.058h-0.010c-0.065-0.015-0.146-0.029-0.228-0.037l-0.009-0.001h-0.010c-0.104-0.015-0.223-0.024-0.345-0.024-0.324 0-0.634 0.062-0.918 0.175l0.017-0.006-0.050 0.039c-0.060 0.020-0.158 0.068-0.217 0.097-0.029 0.019-0.062 0.035-0.097 0.047l-0.003 0.001c-0.029 0.010-0.078 0.049-0.108 0.068l-0.139 0.097-0.030 0.020c-0.059 0.039-0.108 0.087-0.168 0.136l-0.049 0.048c-0.055 0.052-0.107 0.106-0.156 0.162l-0.002 0.003c-0.107-0.018-0.23-0.029-0.356-0.029h-0c-0.040 0-0.070 0-0.1 0.010-0.707 0.035-1.313 0.437-1.635 1.018l-0.005 0.010-0.011 0.020c-0.030 0.056-0.057 0.115-0.080 0.175-0.010 0.019-0.010 0.029-0.020 0.048-0.019 0.043-0.036 0.095-0.048 0.149l-0.001 0.006c-0.010 0.020-0.010 0.049-0.020 0.068l-0.029 0.155c0 0.020-0.010 0.040-0.010 0.068-0.007 0.056-0.010 0.121-0.010 0.187 0 0.013 0 0.025 0 0.038l-0-0.002c-0.001 0.062 0.002 0.124 0.010 0.185 0 0.020 0.010 0.039 0.010 0.068 0.010 0.039 0.010 0.077 0.020 0.116s0.010 0.049 0.020 0.078c0.011 0.026 0.018 0.055 0.020 0.086l0 0.001c0 0.030 0.019 0.058 0.029 0.087 0.009 0.027 0.019 0.049 0.031 0.070l-0.001-0.002c0.012 0.025 0.026 0.057 0.038 0.090l0.002 0.007c0.010 0.020 0.019 0.030 0.019 0.049 0.139 0.32 0.374 0.59 0.673 0.776 0.148 0.087 0.297 0.165 0.455 0.213 0.061 0.021 0.124 0.037 0.188 0.049l0.020 0.010 0.178 0.029 0.040 0.010c0.068 0.010 0.138 0.010 0.217 0.010 0.267 0 0.524-0.050 0.761-0.156 0.060 0.039 0.11 0.078 0.169 0.116l0.020 0.010c0.049 0.030 0.108 0.058 0.168 0.087h0.010c0.338 0.172 0.737 0.273 1.159 0.273 0.239 0 0.47-0.032 0.689-0.093l-0.018 0.004h0.010c0.097-0.022 0.183-0.052 0.263-0.091l0.26-0.113c0.255 0.195 0.568 0.3 0.89 0.3 0.070 0 0.13-0.010 0.198-0.010l0.050-0.009c0.136-0.019 0.26-0.056 0.374-0.109l-0.008 0.003 0.030-0.010c0.059-0.030 0.108-0.058 0.168-0.087 0.317-0.206 0.544-0.527 0.621-0.903l0.002-0.009v-0.030c0.010-0.038 0.010-0.077 0.020-0.116 0-0.048 0.010-0.097 0.010-0.146 0-0.64-0.406-1.193-1.010-1.377z"></path>
</svg>
