<!-- Generated by IcoMoon.io -->
<svg version="1.1" xmlns="http://www.w3.org/2000/svg" width="32" height="32" viewBox="0 0 32 32">
<title>stq</title>
<path d="M16 32c-8.837 0-16-7.163-16-16s7.163-16 16-16 16 7.163 16 16-7.163 16-16 16zM5.155 9.036c-0.060 0.63-0.060 1.274 0.060 1.904 0.618 0.024 1.25 0.024 1.88 0.024 0.179 0.334 0.37 0.655 0.524 1.012 0.75 1.584 1.512 3.155 2.298 4.726 0.452 0.905 0.821 1.893 1.512 2.667 0.214 0.286 0.595 0.321 0.952 0.321h6.667c0.56 0 1.166-0.023 1.607-0.392 0.535-0.465 0.774-1.131 1.13-1.727 0.953-1.666 1.882-3.345 2.858-5 0.202-0.357 0.357-0.821 0.143-1.214-0.179-0.357-0.62-0.369-0.976-0.393-4.81 0-9.643 0.024-14.453 0-0.369-0.619-0.476-1.369-0.952-1.904-1.072-0.096-2.179-0.024-3.25-0.024zM12.667 20.976c-0.584 0.131-1.060 0.643-1.131 1.238-0.107 0.715-0.107 1.548 0.404 2.12 0.477 0.476 1.215 0.523 1.858 0.476 0.56-0.048 1.154-0.31 1.392-0.858 0.25-0.607 0.25-1.285 0.108-1.916-0.131-0.548-0.608-0.965-1.155-1.084-0.488-0.095-1-0.095-1.476 0.024zM18.619 20.976c-0.583 0.131-1.036 0.62-1.155 1.203-0.046 0.19-0.072 0.407-0.072 0.631 0 0.451 0.106 0.877 0.294 1.254l-0.007-0.016c0.297 0.535 0.916 0.75 1.488 0.773 0.583 0.012 1.226-0.047 1.666-0.464 0.477-0.5 0.548-1.25 0.477-1.905-0.048-0.56-0.334-1.154-0.881-1.38-0.572-0.215-1.215-0.227-1.81-0.096z"></path>
</svg>
