<!-- Generated by IcoMoon.io -->
<svg version="1.1" xmlns="http://www.w3.org/2000/svg" width="32" height="32" viewBox="0 0 32 32">
<title>sys</title>
<path d="M13.147 15.434c0.006 0.014 0.010 0.029 0.010 0.046 0 0.019-0.005 0.037-0.013 0.053l0-0.001c-0.021 0.036-0.060 0.059-0.104 0.059-0.019 0-0.038-0.005-0.054-0.013l0.001 0c-7.537-3.92 6.841-8.485 14.764-3.14 0.096 0.055 0.18 0.11 0.249 0.163-0.081-0.058-0.166-0.107-0.249-0.163-2.94-1.676-17.604-3.343-14.604 2.995zM21.473 20.754c4.158-1.89 0.776-8.362-4.725-7.113-0.008 0.002-0.016 0.003-0.025 0.003-0.054 0-0.1-0.037-0.114-0.087l-0-0.001c-0.001-0.007-0.002-0.015-0.002-0.023 0-0.036 0.017-0.067 0.043-0.087l0-0c4.28-3.216 12.314 4.292 4.823 7.307zM4 18.011c12.101 7.743 18.334 0.467 13.955-2.71l-0.006-0.005c-0.025-0.020-0.041-0.050-0.041-0.084 0-0.026 0.009-0.049 0.024-0.068l-0 0c0.021-0.026 0.054-0.043 0.090-0.043 0.009 0 0.017 0.001 0.025 0.003l-0.001-0c10.501 1.896-3.786 12.561-14.046 2.906zM12.2 10.854c-6.619 4.54 0.744 6.6 2.081 6.164 0.011-0.003 0.023-0.005 0.036-0.005 0.010 0 0.019 0.001 0.029 0.003l-0.001-0c0.050 0.011 0.087 0.056 0.087 0.108 0 0.011-0.001 0.021-0.004 0.030l0-0.001c-0.903 3.463-11.31-3.392-2.228-6.3zM16 0c-8.836 0-16 7.163-16 16 0 8.836 7.164 16 16 16s16-7.164 16-16c0-8.837-7.164-16-16-16z"></path>
</svg>
