<!-- Generated by IcoMoon.io -->
<svg version="1.1" xmlns="http://www.w3.org/2000/svg" width="32" height="32" viewBox="0 0 32 32">
<title>tau</title>
<path d="M16 32c-8.837 0-16-7.163-16-16s7.163-16 16-16 16 7.163 16 16-7.163 16-16 16zM8.094 13.678l-2.094 2.11h4.203zM10.204 16.228h-4.204l2.094 2.094zM13.056 13.375l-2.11-2.11v4.204zM10.506 15.469v-4.203l-2.093 2.109zM13.36 13.056l2.109-2.094h-4.203zM13.36 8.413l-2.094 2.109h4.203zM18.322 8.109l-2.11-2.109v4.203zM15.772 10.203v-4.203l-2.094 2.11zM13.056 18.64l-2.11-2.109v4.203zM8.413 18.64l2.094 2.094v-4.203zM18.625 13.056l2.11-2.094h-4.205zM16.531 10.522h4.203l-2.109-2.11zM15.47 21.493h-4.203l2.094 2.094zM13.36 18.943l-2.093 2.11h4.203zM23.588 13.375l-2.109-2.11v4.204zM18.945 13.375l2.094 2.094v-4.203zM13.679 23.905l2.093 2.095v-4.203zM16.213 21.797v4.203l2.11-2.094zM18.626 23.587l2.11-2.094h-4.206zM18.626 18.944l-2.094 2.11h4.203zM21.479 16.531v4.203l2.11-2.094zM18.945 18.641l2.094 2.093v-4.203zM23.892 18.321l2.108-2.092h-4.203zM23.892 13.678l-2.094 2.11h4.202z"></path>
</svg>
