<!-- Generated by IcoMoon.io -->
<svg version="1.1" xmlns="http://www.w3.org/2000/svg" width="32" height="32" viewBox="0 0 32 32">
<title>tnb</title>
<path d="M16 32c-8.837 0-16-7.163-16-16s7.163-16 16-16 16 7.163 16 16-7.163 16-16 16zM15.598 11.857l0.075-0.357h-7.333l-2.178 9h2.396l1.646-7.286h2.932l-1.747 7.286h2.179l1.713-7.286h0.030l0.26-1.228 0.030-0.129zM19.739 11.5l-2.178 8.929h4.567c0.008 0 0.017 0 0.027 0 0.569 0 1.118-0.089 1.632-0.254l-0.038 0.010c0.867-0.275 1.922-0.852 2.090-2.043h0.653l0.218-0.857h-0.8s0.073-1.286-1.596-1.5c0 0 1.452-0.429 1.67-1.215h0.726l0.29-0.857h-0.799s0.29-2.071-2.831-2.214zM7.323 13.214l0.437-1.714h-2.324l-0.436 1.714zM17.271 19.5l0.798-3.643-1.887-4.214-0.8 3.428zM22.825 15.071h-1.851l0.435-1.928h1.416c0.26 0 0.51 0.101 0.693 0.282s0.287 0.426 0.287 0.682c0 0.256-0.103 0.501-0.287 0.682s-0.433 0.283-0.693 0.282zM22.336 18.786h-2.226l0.524-2.215h1.702c0.654 0 1.179 0.496 1.179 1.108 0 0.611-0.528 1.107-1.179 1.107z"></path>
</svg>
