<!-- Generated by IcoMoon.io -->
<svg version="1.1" xmlns="http://www.w3.org/2000/svg" width="32" height="32" viewBox="0 0 32 32">
<title>tnt</title>
<path d="M16 32c-8.837 0-16-7.163-16-16s7.163-16 16-16 16 7.163 16 16-7.163 16-16 16zM13.89 21.503l0.158 3.497s1.875-0.318 3.828 0l0.156-3.497zM11.626 18.8s5.469-0.477 8.672 0l0.312-3.815c-1.368-0.113-2.962-0.177-4.57-0.177s-3.202 0.064-4.778 0.19l0.208-0.013zM26 8.944s-10.469-2.226-20 0.159l0.703 4.371 0.86-1.669s8.984-1.351 17.030 0l0.782 1.67z"></path>
</svg>
