<!-- Generated by IcoMoon.io -->
<svg version="1.1" xmlns="http://www.w3.org/2000/svg" width="32" height="32" viewBox="0 0 32 32">
<title>wicc</title>
<path d="M16 32c-8.837 0-16-7.163-16-16s7.163-16 16-16 16 7.163 16 16-7.163 16-16 16zM15.24 4c-6.1 0.421-10.929 5.319-11.239 11.411l-0.001 0.029v1.12c0.3 6.18 5.224 11.118 11.37 11.439l0.030 0.001h1.18c3.055-0.156 5.784-1.441 7.801-3.441l-0.001 0.001c1.99-1.97 3.273-4.651 3.439-7.63l0.001-0.030 0.040-1.24c0.001-0.009 0.001-0.020 0.001-0.031 0-0.233-0.189-0.422-0.422-0.422-0.216 0-0.394 0.162-0.419 0.371l-0 0.002c-0.050 0.748-0.164 1.491-0.34 2.22-0.803 3.753-3.47 6.739-6.964 7.977l-0.076 0.023c-1.029 0.37-2.216 0.584-3.453 0.584-5.799 0-10.5-4.701-10.5-10.5 0-2.52 0.888-4.833 2.368-6.643l-0.015 0.019c1.984-2.399 4.962-3.916 8.293-3.916 2.458 0 4.723 0.825 6.532 2.214l-0.026-0.019c0.26 0.18 0.52 0.48 0.86 0.4 0.4-0.14 0.4-0.68 0.060-0.9-1.922-1.77-4.457-2.9-7.253-3.039l-0.027-0.001h-1.24zM25 10.22h0.020c-0.54 0.48-0.42 1.24-0.32 1.88-0.9 1.94-2.24 3.64-3.7 5.18l-0.6 0.040c-0.578-0.619-1.066-1.331-1.438-2.109l-0.022-0.051c0.24-0.58 0.38-1.3-0.040-1.84-0.56-0.88-2-0.86-2.54 0.020-0.36 0.5-0.26 1.12-0.1 1.66-0.895 1.913-2.056 3.548-3.459 4.939l-0.001 0.001c-1.273-1.51-2.331-3.255-3.094-5.151l-0.046-0.129c0.46-0.82 0.2-2.020-0.74-2.36-1.060-0.5-2.34 0.58-2.080 1.7 0.1 0.82 0.92 1.28 1.7 1.32 1.191 1.489 2.177 3.209 2.877 5.070l0.043 0.13c-0.24 0.62-0.3 1.36 0.16 1.88 0.62 0.76 1.94 0.68 2.44-0.14 0.38-0.48 0.28-1.12 0.14-1.66 0.873-1.863 1.95-3.465 3.234-4.876l-0.014 0.016 0.6-0.020c0.596 0.61 1.098 1.316 1.479 2.092l0.021 0.048c-0.26 0.62-0.4 1.4 0.1 1.96 0.68 0.88 2.24 0.66 2.6-0.4 0.3-0.54-0.18-1.22 0.2-1.74 0.94-1.74 2.040-3.4 3.42-4.8 1.040 0.080 2.060-0.82 1.8-1.88-0.18-1.18-1.84-1.66-2.64-0.78z"></path>
</svg>
