<!-- Generated by IcoMoon.io -->
<svg version="1.1" xmlns="http://www.w3.org/2000/svg" width="32" height="32" viewBox="0 0 32 32">
<title>wings</title>
<path fill="#000" d="M16.895 17.299l-8.625 6.694 15.81-6.766 0.065-3.264 1.855 0.513-1.414-3.146-3.818 2.963-2.719-4.674-12.049-0.619 9.183 2.461 0.233 0.795-8.028-0.413 7.224 1.935 1.247 4.325zM16 32c-8.837 0-16-7.163-16-16s7.163-16 16-16 16 7.163 16 16-7.163 16-16 16z"></path>
<path fill="#000" opacity="0.7" d="M16.895 17.299l-1.036 0.804-1.247-4.325-7.224-1.935 8.028 0.413z"></path>
<path fill="#000" opacity="0.3" d="M16.895 17.299l0.778 2.652 4.327-1.833-13.73 5.875zM20.768 14.293l3.818-2.963 1.414 3.146-1.855-0.513-0.065 3.264-1.285 0.55z"></path>
</svg>
