<!-- Generated by IcoMoon.io -->
<svg version="1.1" xmlns="http://www.w3.org/2000/svg" width="32" height="32" viewBox="0 0 32 32">
<title>xrp</title>
<path d="M16 32c-8.837 0-16-7.163-16-16s7.163-16 16-16 16 7.163 16 16-7.163 16-16 16zM23.070 8l-4.574 4.523c-0.642 0.634-1.524 1.025-2.498 1.025s-1.856-0.391-2.498-1.026l0 0-4.57-4.523h-2.895l6.020 5.957c1.014 1 2.408 1.617 3.945 1.617s2.931-0.617 3.946-1.618l-0.001 0.001 6.016-5.957h-2.89zM8.895 24.563l4.609-4.563c0.642-0.634 1.524-1.025 2.498-1.025s1.856 0.391 2.498 1.026l-0-0 4.605 4.563h2.895l-6.055-5.993c-1.014-1-2.407-1.617-3.945-1.617s-2.931 0.617-3.946 1.618l0.001-0.001-6.055 5.992h2.895z"></path>
</svg>
