<!-- Generated by IcoMoon.io -->
<svg version="1.1" xmlns="http://www.w3.org/2000/svg" width="32" height="32" viewBox="0 0 32 32">
<title>zel</title>
<path d="M16 32c-8.837 0-16-7.163-16-16s7.163-16 16-16 16 7.163 16 16-7.163 16-16 16zM5 15.615v4.847l4.495 2.538 4.494-2.538v-4.847l-4.494-2.538-4.495 2.538zM18.010 15.615v4.847l4.496 2.538 4.494-2.538v-4.847l-4.495-2.538-4.494 2.538zM17.538 19.825v-4.594l4.021-2.271v-1.73l-5.598-3.23-5.599 3.23v1.685l4.1 2.316v4.638l1.499 0.823 1.577-0.866z"></path>
</svg>
