<!-- Generated by IcoMoon.io -->
<svg version="1.1" xmlns="http://www.w3.org/2000/svg" width="32" height="32" viewBox="0 0 32 32">
<title>zilla</title>
<path d="M16 32c-8.837 0-16-7.163-16-16s7.163-16 16-16 16 7.163 16 16-7.163 16-16 16zM15.505 6.274c-0.092 0.39-0.368 1.62-0.494 2.444-0.050 0.338-0.26 0.789 0.326 1.032-0.134 0.026-0.175 0.043-0.217 0.034-0.418-0.052-0.845-0.112-1.263-0.164-0.092-0.009-0.209-0.026-0.293 0.017-0.56 0.295-0.81 0.997-0.527 1.595 0.16 0.338 0.21 0.65 0.143 1.006-0.001 0.014-0.002 0.030-0.002 0.046 0 0.081 0.019 0.157 0.053 0.225l-0.001-0.003c0.326 0.798 0.385 1.595 0.125 2.427-0.042 0.13-0.016 0.287-0.008 0.425 0.017 0.269 0.033 0.538 0.058 0.806-0.41-0.329-0.86-0.624-1.204-1.023-0.296-0.346-0.475-0.798-0.475-1.292 0-0.061 0.003-0.121 0.008-0.18l-0.001 0.008c0.008-0.104-0.075-0.226-0.142-0.321-0.193-0.286-0.418-0.546-0.577-0.85-0.226-0.433-0.502-0.615-0.954-0.476-0.225 0.069-0.435 0.216-0.627 0.364-0.167 0.12-0.31 0.277-0.46 0.416-0.017-0.018-0.042-0.035-0.058-0.052 0.025-0.061 0.033-0.13 0.067-0.191 0.234-0.433 0.225-0.425-0.1-0.789-0.628-0.702-1.172-1.456-1.406-2.41-0.117-0.476-0.26-0.945-0.384-1.413-0.628 0.78-0.711 3.59-0.092 4.699-0.193-0.98-0.385-1.907-0.168-2.861 0.042 0.217 0.067 0.425 0.076 0.642 0.033 0.771 0.217 1.5 0.543 2.184 0.067 0.147 0.26 0.234 0.402 0.338 0.050 0.035 0.117 0.052 0.175 0.078-0.008 0.035-0.008 0.070-0.017 0.095-0.309-0.017-0.61-0.052-0.92-0.060-0.2-0.009-0.434-0.061-0.593 0.026-0.21 0.112-0.377 0.33-0.494 0.546-0.033 0.060 0.134 0.303 0.26 0.399 0.334 0.251 0.56 0.528 0.51 0.996-0.009 0.113 0.117 0.313 0.226 0.356 0.3 0.113 0.384 0.338 0.434 0.624 0.034 0.182 0.059 0.416 0.176 0.52 0.376 0.347 0.493 0.763 0.502 1.266 0.008 0.32 0.175 0.65 0.134 0.962-0.034 0.269 0.016 0.468 0.125 0.624h-0.008l0.025 0.026c0.067 0.104 0.159 0.19 0.267 0.269l0.218 0.208s0.376 0.407 0.384 0.806c0.009 0.399-0.025 0.45 0.092 0.806 0.118 0.347 0.276 0.624 0.327 0.919s-0.059 0.381 0.117 0.572c0.175 0.19 0.368 0.32 0.568 0.538 0.193 0.225 0.469 0.303 0.653 0.494s0.476 0.546 0.702 0.771c0.117 0.122 0.276 0.217 0.393 0.286 0.034 0.035 0.050 0.052 0.042 0.070-0.159 0.346 0.167 0.338 0.293 0.45 0.217 0.191 0.527 0.312 0.685 0.546 0.285 0.425 0.653 0.642 1.113 0.772 0.042 0.009 0.092 0.017 0.108 0.043 0.059 0.070 0.1 0.156 0.151 0.234-0.017 0.026-0.042 0.052-0.059 0.078 0.46 0.165 0.92 0.338 1.38 0.494 0.092 0.035 0.21 0.035 0.293 0.010 0.385-0.13 0.77-0.27 1.154-0.408 0.075-0.026 0.192-0.104 0.184-0.139-0.058-0.277 0.167-0.234 0.293-0.303 0.3-0.165 0.652-0.286 0.878-0.52 0.276-0.295 0.527-0.599 0.895-0.798 0.15-0.087 0.451-0.121 0.3-0.45-0.008-0.018 0.076-0.087 0.118-0.13 0.058-0.053 0.125-0.096 0.209-0.165 0.058-0.026 0.125-0.070 0.234-0.148 0.345-0.285 0.654-0.585 0.937-0.91l0.008-0.009c0.2-0.251 0.527-0.563 0.527-0.563s-0.21-0.494-0.075-0.928l0.71-0.528c0.151-0.321 0.193-0.443 0.36-0.772 0.159-0.33 0.2-0.962 0.427-1.214 0.2-0.216 0.443-0.39 0.434-0.528 0.037-0.1 0.058-0.215 0.058-0.335 0-0.044-0.003-0.088-0.008-0.13l0.001 0.005c-0.024-0.225 0.050-0.46 0.076-0.685 0.017-0.19 0-0.381 0.050-0.563 0.084-0.295 0.142-0.641 0.326-0.85 0.2-0.225 0.335-0.424 0.36-0.728 0.025-0.26 0.125-0.468 0.385-0.59 0.125-0.060 0.25-0.268 0.25-0.407-0.008-0.39 0.117-0.667 0.435-0.875 0.092-0.060 0.16-0.165 0.251-0.234 0.15-0.113 0.126-0.243 0.042-0.39-0.217-0.39-0.544-0.529-0.978-0.45-0.327 0.060-0.82 0.094-0.996 0.094s-0.050-0.13-0.050-0.13c0.619-0.017 0.694-0.528 0.836-0.944 0.118-0.347 0.184-0.711 0.243-1.075 0.059-0.347 0.059-0.512 0.125-1.050 0.067-0.537 0.226 1.041-0.025 2.333 0.502-0.763 0.343-3.529-0.217-4.343-0.017 0.017-0.034 0.026-0.034 0.043-0.025 0.104-0.041 0.208-0.066 0.312-0.243 1.326-0.745 2.514-1.673 3.485-0.343 0.355-0.326 0.364-0.092 0.823 0.025 0.044 0.025 0.104 0.033 0.165-0.2-0.095-0.35-0.234-0.501-0.364-0.244-0.236-0.578-0.382-0.945-0.382-0.018 0-0.036 0-0.054 0.001l0.003-0c-0.4 0-0.51 0.294-0.627 0.58-0.217 0.52-0.727 0.841-0.744 1.535-0.025 1.014-0.928 1.525-1.514 2.201-0.008 0.010-0.033-0.008-0.067-0.008-0.008-0.035-0.033-0.078-0.025-0.113 0-0.624 0.168-1.257-0.108-1.855-0.017-0.035-0.009-0.087 0-0.121 0.108-0.876 0.209-1.743 0.326-2.61 0.016-0.112 0.075-0.216 0.125-0.32 0.293-0.624 0.075-1.335-0.518-1.647-0.052-0.024-0.114-0.039-0.178-0.039-0.020 0-0.039 0.001-0.058 0.004l0.002-0c-0.327 0.043-0.644 0.104-0.962 0.147-0.16 0.026-0.326 0.026-0.485 0.035-0.009-0.026-0.017-0.052-0.025-0.070 0.267-0.086 0.401-0.25 0.343-0.545l-0.603-3c-0.016-0.078-0.033-0.468 0.059-0.268 0.092 0.208 0.385 1.1 0.552 1.664 0.159 0.546 0.284 1.11 0.426 1.664-0.234-1.551-0.593-3.060-1.48-4.438-0.226 0.281-0.415 0.605-0.551 0.955l-0.009 0.025c-0.126 0.322-0.332 0.957-0.523 1.598l-0.079 0.309c-0.142 0.494-0.51 1.465-0.351 1.49 0.158 0.027 0.936-2.886 0.986-3.094s0.143-0.2 0.050 0.19z"></path>
</svg>
