<!-- Generated by IcoMoon.io -->
<svg version="1.1" xmlns="http://www.w3.org/2000/svg" width="32" height="32" viewBox="0 0 32 32">
<title>flm</title>
<path fill="#df4aac" d="M15 10.5c0 0 0 0 0 0 0 0.1 0 0.1 0 0 0 0 0 0 0 0s0 0 0 0z"></path>
<path fill="#df4aac" d="M15.2 10.4c-0.1 0-0.1 0 0 0-0.1 0-0.1 0.1 0 0-0.1 0.1-0.1 0.1 0 0-0.1 0-0.1 0 0 0z"></path>
<path fill="#df4aac" d="M15 10.6v0 0z"></path>
<path fill="#df4aac" d="M16 0c-8.8 0-16 7.2-16 16s7.2 16 16 16 16-7.2 16-16-7.2-16-16-16zM24.5 12.6v0.2c0 1.6-0.7 3.1-1.7 4.2l-8.3 8.3c-0.5 0.4-1.1 0.7-1.7 0.7-0.2 0-0.3 0-0.5 0l-0.5-0.2c-0.5-0.2-1-0.4-1.5-0.6l-0.1-0.1c-0.1-0.1-0.1-0.2-0.1-0.3s0-0.2 0.1-0.2l9.3-9.3c0 0 0.1-0.1 0.1-0.2 0.1-0.1 0.1-0.2 0.1-0.3s0-0.2 0-0.2c0 0 0-0.1 0-0.2 0-0.9-0.7-1.6-1.6-1.6h-7.5l-2.2 2.2c0 0.1-0.1 0.1-0.2 0.2-0.3 0.2-0.6 0.1-0.8-0.2-0.1-0.1-0.1-0.2-0.1-0.3v-2.8c0-1.4 1.2-2.4 2.5-2.4h1.9c0 0 0.5-0.5 0.6-0.7 0.4-0.5 0.9-1 1.5-1.4 1.4-0.9 2.7-1.4 4.1-1.4 0.8 0 1.6 0.2 2.4 0.5l0.3 0.1c0.6 0.3 1.1 0.6 1.5 1l0.1 0.1c1.5 1.2 2.3 3 2.3 4.9v0z"></path>
<path fill="#df4aac" d="M15.4 10.2c-0.3 0-0.5 0.2-0.5 0.5s0.2 0.5 0.5 0.5c0.3 0 0.5-0.2 0.5-0.5 0-0.2-0.2-0.5-0.5-0.5z"></path>
</svg>
