<?xml version="1.0" encoding="utf-8"?>
<!-- Generator: Adobe Illustrator 24.2.0, SVG Export Plug-In . SVG Version: 6.00 Build 0)  -->
<svg version="1.1" id="Layer_1" xmlns="http://www.w3.org/2000/svg" xmlns:xlink="http://www.w3.org/1999/xlink" x="0px" y="0px"
	 viewBox="0 0 32 32" style="enable-background:new 0 0 32 32;" xml:space="preserve">
<style type="text/css">
	.st0{fill:#13B5EC;}
</style>
<g>
	<polygon class="st0" points="16.6,18.1 20.2,16 16.6,13.9 	"/>
	<polygon class="st0" points="11.2,17 11.2,21.9 16,24.7 20.8,21.9 20.8,17 16,19.8 	"/>
	<polygon class="st0" points="11.2,10.8 11.2,15 14.8,12.9 	"/>
	<polygon class="st0" points="15.4,13.9 11.8,16 15.4,18.1 	"/>
	<polygon class="st0" points="20.8,15 20.8,10.8 17.2,12.9 	"/>
	<polygon class="st0" points="11.8,9.8 16,12.2 20.2,9.8 16,7.3 	"/>
	<path class="st0" d="M16,0C7.2,0,0,7.2,0,16s7.2,16,16,16s16-7.2,16-16S24.8,0,16,0z M22,22.5l-6,3.4l-6-3.4V9.4L16,6l6,3.4V22.5z"
		/>
</g>
</svg>
