<?xml version="1.0" encoding="utf-8"?>
<!-- Generator: Adobe Illustrator 24.2.0, SVG Export Plug-In . SVG Version: 6.00 Build 0)  -->
<svg version="1.1" id="Layer_1" xmlns="http://www.w3.org/2000/svg" xmlns:xlink="http://www.w3.org/1999/xlink" x="0px" y="0px"
	 viewBox="0 0 32 32" style="enable-background:new 0 0 32 32;" xml:space="preserve">
<g>
	<path d="M18.8,11H15c-0.1,0-0.2,0.1-0.2,0.2v3.7c0,0.1,0.1,0.2,0.2,0.2h3.8c0.5,0,1-0.4,1-1v-2.2C19.7,11.4,19.3,11,18.8,11z"/>
	<path d="M16,0C7.2,0,0,7.2,0,16s7.2,16,16,16c8.8,0,16-7.2,16-16S24.8,0,16,0z M23.1,24.1h-3c-0.1,0-0.2,0-0.2-0.1l-2.5-5.7
		c0-0.1-0.1-0.1-0.2-0.1H15c-0.1,0-0.2,0.1-0.2,0.2v5.5c0,0.1-0.1,0.2-0.2,0.2h-2.8c-0.1,0-0.2-0.1-0.2-0.2V18H8.7
		c-0.1,0-0.2-0.1-0.2-0.2v-2.4c0-0.1,0.1-0.2,0.2-0.2h2.9v-1.5H8.7c-0.1,0-0.2-0.1-0.2-0.2V11c0-0.1,0.1-0.2,0.2-0.2h2.9V8.1
		c0-0.1,0.1-0.2,0.2-0.2h7.8c1.8,0,3.4,1.5,3.4,3.4v3.6c0,1.4-0.8,2.5-2,3c-0.1,0-0.2,0.2-0.1,0.3l2.5,5.6
		C23.4,23.9,23.3,24.1,23.1,24.1z"/>
</g>
</svg>
