<?xml version="1.0" encoding="utf-8"?>
<!-- Generator: Adobe Illustrator 24.2.0, SVG Export Plug-In . SVG Version: 6.00 Build 0)  -->
<svg version="1.1" id="logo" xmlns="http://www.w3.org/2000/svg" xmlns:xlink="http://www.w3.org/1999/xlink" x="0px" y="0px"
	 viewBox="0 0 150 56" style="enable-background:new 0 0 150 56;" xml:space="preserve">
<style type="text/css">
	.st0{fill:#2F7AEA;}
	.st1{fill:#FFFFFF;}
	.st2{fill:#94A6C3;}
	.st3{fill:#1B314F;}
	.st4{fill:#FFD923;}
	.st5{fill:#D82122;}
</style>
<path d="M60,13h6v24h6V7h-6C62.7,7,60,9.7,60,13z"/>
<path d="M78,37h6V25c0-3.3-2.7-6-6-6V37z"/>
<path d="M90,19v18h6V25h6v6c0,3.3,2.7,6,6,6V25c0-3.3-2.7-6-6-6H90z"/>
<path d="M144,19h-6v-6c0-3.3-2.7-6-6-6v24h-12v-6h6v-6h-6c-3.3,0-6,2.7-6,6v6c0,3.3,2.7,6,6,6h18V25h6v6c0,3.3,2.7,6,6,6V25
	C150,21.7,147.3,19,144,19z"/>
<path d="M78,13h6c0-3.3-2.7-6-6-6V13z"/>
<path class="st0" d="M68.5,47.1H66v-4.1h2.4v0.7h-1.7v1h1.5v0.7h-1.5v1.1h1.7V47.1z"/>
<path class="st0" d="M79.4,43.1h0.9l-1.4,2l1.5,2.1h-0.9l-1.1-1.5l-1.1,1.5h-0.9l1.5-2.1l-1.4-2h0.9l1,1.5L79.4,43.1z"/>
<path class="st0" d="M91.1,46.2l0.3,0.5c-0.1,0.1-0.3,0.2-0.6,0.3c-0.2,0.1-0.5,0.1-0.8,0.1c-0.6,0-1.2-0.2-1.6-0.6
	c-0.4-0.4-0.6-0.9-0.6-1.5c0-0.6,0.2-1.1,0.6-1.5c0.4-0.4,0.9-0.6,1.6-0.6c0.5,0,1,0.1,1.3,0.4L91,43.9c-0.3-0.2-0.6-0.3-0.9-0.3
	c-0.4,0-0.7,0.1-1,0.4c-0.3,0.3-0.4,0.6-0.4,1c0,0.4,0.1,0.8,0.4,1c0.3,0.3,0.6,0.4,1,0.4C90.5,46.5,90.8,46.4,91.1,46.2z"/>
<path class="st0" d="M103,47.1h-0.7v-1.7h-1.9v1.7h-0.7v-4.1h0.7v1.7h1.9v-1.7h0.7V47.1z"/>
<path class="st0" d="M111.9,47.1h-0.7l1.8-4.1h0.6l1.8,4.1h-0.8l-0.4-1h-1.8L111.9,47.1z M113.8,45.4l-0.6-1.4l-0.6,1.4H113.8z"/>
<path class="st0" d="M127,43.1v4.1h-0.6l-2.3-2.8v2.8h-0.7v-4.1h0.6l2.3,2.8v-2.8H127z"/>
<path class="st0" d="M138.4,45.6h-1v-0.7h1.7v1.7c-0.2,0.2-0.4,0.3-0.7,0.4c-0.3,0.1-0.6,0.2-0.9,0.2c-0.7,0-1.2-0.2-1.6-0.6
	c-0.4-0.4-0.6-0.9-0.6-1.5c0-0.6,0.2-1.1,0.6-1.5c0.4-0.4,0.9-0.6,1.5-0.6c0.5,0,1,0.1,1.3,0.4l-0.3,0.6c-0.1-0.1-0.2-0.2-0.4-0.2
	c-0.2-0.1-0.3-0.1-0.5-0.1c-0.4,0-0.8,0.1-1,0.4c-0.3,0.3-0.4,0.6-0.4,1c0,0.4,0.1,0.8,0.4,1c0.3,0.3,0.6,0.4,1,0.4
	c0.2,0,0.3,0,0.5-0.1c0.2-0.1,0.3-0.1,0.4-0.2V45.6z"/>
<path class="st0" d="M150,47.1h-2.5v-4.1h2.4v0.7h-1.7v1h1.5v0.7h-1.5v1.1h1.8V47.1z"/>
<path class="st1" d="M13.9,30.6L15.3,20L3.2,11.6l11.1,3.8l2.6-4l9.6-5.9L47.6,17l1.1,17.8l-9.4,13.1L31.9,49l3.9-7v-6.8l-2.8-5.3
	L30.1,28l-4.4,4.5v4.8l-3.4,3.2L18,41L16,42.1l-3.2-1l-1.3-4.7l2.4-3.3V30.6z"/>
<path class="st2" d="M33.4,11.5c-2.3-0.5-4.9-0.3-4.9-0.3s-0.8,3.8-6,4.9C22.5,16,29.3,18.3,33.4,11.5z"/>
<path class="st2" d="M35.5,46.4c2.8-2.2,4.9-5.2,5.9-8.6c0-0.1,0.4-0.4,0.7-0.5c0.4-0.3,0.9-0.5,1-0.8c0.2-1,0.3-2.1,0.3-3.1
	c0-0.4-0.4-0.8-0.8-1.2c-0.3-0.3-0.6-0.6-0.6-0.8c-0.4-4-2.3-7.7-5.2-10.4l-0.3,0.3c2.8,2.7,4.7,6.3,5.1,10.1c0,0.4,0.4,0.7,0.7,1.1
	c0.3,0.3,0.7,0.7,0.7,0.8c0,1-0.1,2-0.3,3c0,0.2-0.4,0.4-0.7,0.5c-0.4,0.2-0.8,0.4-0.9,0.8c-1,3.7-3.5,7-6.7,9.1
	c0.6-1.2,2.4-5.2,3.3-7.2L37.4,33l-5.6-5.4L28.7,28l-3.5,5.6c0,0,1.6,2.1-0.7,4.5c-2.2,2.4-4,2.9-4,2.9L19,40.1
	c0.5-0.6,1.4-1.5,2.2-2.1c1.3-1,2.5-1.1,2.5-2.3c0-2.4-2.5-1.7-2.5-1.7l-0.9,0.9l-0.4,3.2L18,40.5l-0.2,0l-3.1-0.7
	c0,0,1.9-1,2.2-2.1c0.3-1.1-0.6-4.7-0.7-4.9c0,0,0.9,0.8,1.3,2c0.7-1.9,1.6-3.8,1.9-3.9c0.3-0.2,3.8-2.1,3.8-2.1L22,31.8l0.9-0.5
	l2.1-5.2c0,0,2.1-1,3.6-1c2.8,0,6.8-3.4,5-9.4c0.5,0.2,9.6,4.8,11.2,13.7C45.9,36.2,42,42.7,35.5,46.4z"/>
<path class="st3" d="M25,12.4c1-1.2,0.6-2.9,0.6-2.9l-2.9,4.3C22.7,13.8,23.8,13.9,25,12.4z"/>
<path class="st3" d="M15.2,36.1l0.4-1.8c0,0-1.4,2.5-1.6,2.9c-0.1,0.4,0.1,1.1,0.7,1c0.6,0,1.3-0.9,1.3-1.5
	C15.9,36,15.2,36.1,15.2,36.1z"/>
<path class="st3" d="M41.2,8.3c0,0,2.2,0.1,4.5,0.4c-5.1-4-10-5.2-13.9-5.2c-5.4,0-9.1,2.2-9.3,2.4l1.7-2.7c0,0-6.8-0.7-9.2,6.6
	c-0.6-1.5-1.2-3.8-1.2-3.8s-3.5,3.1-1.9,8.3c-4.1-1.5-9.9-3.5-10.1-3.6c-0.3,0-0.4,0.1-0.4,0.1S1.2,10.8,1.5,11
	c0.5,0.4,9.7,7.2,11.7,8.5c-0.4,1.6-0.4,2.3,0,3.1c0.6,1,0.7,1.5,0.6,2.3c-0.1,0.7-0.9,7.2-1.1,8c-0.2,0.8-2,3.6-1.9,4.4
	C10.9,38,12,41.6,13,42c0.7,0.3,2.6,0.8,3.8,0.8c0.4,0,0.8-0.1,1-0.3c0.7-0.7,1-0.8,1.5-0.8c0,0,0.1,0,0.1,0c0.2,0,0.5,0,0.8,0
	c0.7,0,1.6-0.1,2.3-0.7c1-1,2.6-2.3,3.1-2.9c0.7-0.8,1-2,0.8-3.1c-0.1-1,0.4-2,1.1-2.9c0.8-1.1,2.4-3.1,2.4-3.1
	c3,2.3,4.9,5.7,4.9,9.6c0,6.8-6,12.3-13.3,12.3c-1.1,0-2.2-0.1-3.3-0.4c3.4,1.2,6.2,1.6,8.5,1.6c4.9,0,7.6-1.8,7.6-1.8
	s-0.9,1.2-2.4,2.5c0,0,0,0,0,0c8.2-1.1,12.2-7.9,12.2-7.9s-0.3,2.2-0.7,3.7c10.9-8.2,9.1-18.4,9-18.8c0.1,0.1,1.2,1.4,1.8,2.1
	C55.9,14.1,41.2,8.3,41.2,8.3z M24.4,37.1c-0.2,0.2-0.9,0.9-1.4,1.4c-0.5,0.5-1.1,1-1.5,1.4c-0.2,0.2-0.5,0.3-1.1,0.3
	c-0.2,0-0.4,0-0.5,0c-0.1,0-0.2,0-0.3,0s-0.1,0-0.2,0c-0.1,0-0.3,0-0.4,0c0.7-0.9,2.6-2.9,3.2-3.3c0.8-0.5,1.2-1,0.7-2
	c-0.5-0.9-1.8-0.7-1.8-0.7s0.7-0.3,1.4-0.3c-0.8-0.2-1.9,0-2.4,0.5c-0.5,0.5-0.4,2.2-0.7,3.3c-0.2,1.1-1,1.7-2.1,2.8
	c-0.6,0.6-1,0.7-1.4,0.7c-0.7-0.1-1.6-0.3-2.2-0.6c-0.4-0.6-1.1-2.5-1.3-3.2c0.1-0.4,0.7-1.4,0.9-1.9c0.5-1,0.8-1.6,0.9-2.1
	c0.2-0.7,0.7-5.3,1-7.3c0.6,0.7,1.4,2,1.2,2.8c1.3-1.8,0.3-3.5-0.1-4.2c-0.4-0.7-0.9-2.1-0.5-3.6c0.4-1.5,2-5.6,2-5.6
	s0.5,0.9,1.3,0.7c0.7-0.2,6.7-9.2,6.7-9.2s1.6,3.5-0.1,6.1c-1.8,2.6-3.5,3.1-3.5,3.1s2.4,0.4,4.6-1.2c0.9,2.1,1.8,4.4,1.8,4.7
	c-0.1,0.3-1.9,4.5-2.1,4.8c-0.1,0.1-0.7,0.3-1.1,0.3c-0.7,0.2-1.2,0.4-1.4,0.5c-0.3,0.3-1.7,4.1-2.4,6c-0.8,0.2-1.6,0.7-2.1,1.5
	c0.3-0.2,1.3-0.4,2-0.4c0.6,0,2.5,1,3,2.8c0,0,0,0,0,0.1C25,35.9,24.8,36.5,24.4,37.1z M20.3,37.6c0.4-0.6,0.4-1.5,0.4-1.8
	c0-0.3,0.1-0.9,0.5-1c0.4-0.1,1.2,0,1.2,0.7c0,0.6-0.6,0.7-1,1.1C21,36.9,20.4,37.5,20.3,37.6z M37.8,29.2c0.4-2.2,0.5-4.2,0.4-5.7
	c1.7,2.3,2.8,5,3.1,7.9c0,0.4,0.4,0.7,0.7,1.1c0.3,0.3,0.7,0.6,0.7,0.8c0,1-0.1,2-0.3,3c0,0.1-0.4,0.4-0.7,0.5
	c-0.4,0.2-0.8,0.4-0.9,0.8c-1,3.4-3,6.3-5.8,8.4C39,41.8,40.9,34.8,37.8,29.2z M35,46.4c2.8-2.2,5-5.3,6-8.7c0-0.1,0.4-0.4,0.7-0.5
	c0.4-0.2,0.9-0.5,1-0.8c0.2-1,0.3-2.1,0.3-3.1c0-0.4-0.4-0.8-0.8-1.2c-0.2-0.3-0.6-0.6-0.6-0.8c-0.4-3.2-1.6-6.2-3.6-8.7
	c-0.9-5.3-4.4-6.9-4.5-6.9c0.1,0.1,2.4,3.4,0.8,7.3c-1.6,3.9-5.8,3.3-6.1,3.3c-0.4,0-1.7,1.8-3.4,5c-0.2-0.1-1.1-0.3-2.2-0.1
	c0.8-2.2,2-5.3,2.2-5.6c0.1-0.1,0.7-0.3,1.2-0.4c0.8-0.2,1.2-0.4,1.4-0.5c0.1-0.1,0.5-1.1,1-2.2c0.4,0,1.4-0.1,1.5-0.1
	c0.1-0.1,0.9-2.2,0.9-2.5c0-0.2-1.7-4.5-2.4-6.1c0.3-0.4,0.6-0.8,0.9-1.3c9,1,16,8.6,16,17.8C45.2,37.4,41.1,43.5,35,46.4z"/>
<path class="st3" d="M23.4,22.8c0.8-1,0.4-2.8-1.1-3.1c0.4-0.9,1-2.8,1-2.8s-4.5,7-4.9,7.1c-0.4,0.1-0.8-1.4-0.8-1.4
	c-0.8,3.2,1.4,3.6,1.7,2.6C20.4,25,22.5,23.7,23.4,22.8z"/>
<path class="st4" d="M19.6,24.5l2.3-3.9c0,0,1.3,0.7,0.7,1.7C21.7,23.6,19.6,24.5,19.6,24.5z"/>
<path class="st5" d="M47.7,42.5c-0.7,0.9-1.4,1.8-2.3,2.7c5.6-10.9,0.3-20.8,0-21.2c0.4,0.4,0.8,0.8,1.1,1.2
	C50.9,30.1,51.5,37.3,47.7,42.5z"/>
<path class="st5" d="M53,28.6c-2-5.3-4.8-9.8-10.9-13.9c-6-3.9-12.3-3.6-12.7-3.6c0,0-0.1,0-0.1,0c0.2-0.1,0.4-0.1,0.7-0.2
	c1.4-0.4,3.1-0.8,4.9-1c4.6-0.7,9.3,0.9,12.5,4.3c0,0,0,0,0.1,0.1C51,18.2,52.9,23,53,28.6z"/>
<path class="st5" d="M40.6,6.9c-6.5-1.2-10.7-0.6-13.7,0.5c-0.1-0.3-0.4-1-0.7-1.6c-0.9,1.1-1.9,2.4-2.5,3.2
	c-1.7,1.1-2.4,2.2-2.4,2.2c1-3.3,3.8-5.7,7.2-6.3c1-0.2,2-0.3,3.2-0.3C34.7,4.7,37.7,5.5,40.6,6.9z"/>
<path class="st5" d="M16.5,15.3c-5.1-0.2-3.4-6.1-3.3-6.5C13.2,8.9,13.5,13.5,16.5,15.3z"/>
<path class="st5" d="M21.5,4.6c-3.9,2.4-3.1,8-3.1,8C14.6,6.9,21.2,4.7,21.5,4.6z"/>
<path class="st1" d="M15.1,16.9c0.3,0.2,0.5,0.6,0.2,1.2c-0.2,0.3-0.4,0.3-0.8,0.1c-0.5-0.3-3.7-2.1-6.5-4
	C11.2,15.3,14.5,16.6,15.1,16.9C15,16.8,15,16.9,15.1,16.9z"/>
</svg>
