<?xml version="1.0" encoding="utf-8"?>
<!-- Generator: Adobe Illustrator 24.2.0, SVG Export Plug-In . SVG Version: 6.00 Build 0)  -->
<svg version="1.1" id="Layer_1" xmlns="http://www.w3.org/2000/svg" xmlns:xlink="http://www.w3.org/1999/xlink" x="0px" y="0px"
	 viewBox="0 0 32 32" style="enable-background:new 0 0 32 32;" xml:space="preserve">
<style type="text/css">
	.st0{fill:#1B314F;}
	.st1{fill:#FFFFFF;}
	.st2{fill:#94A6C3;}
	.st3{fill:#FFD923;}
	.st4{fill:#D82122;}
</style>
<g>
	<path class="st0" d="M-118.4,1.2c1-1.2,0.6-2.9,0.6-2.9l-2.9,4.3C-120.8,2.6-119.7,2.6-118.4,1.2z"/>
	<path class="st0" d="M-128.3,24.9l0.4-1.8c0,0-1.4,2.5-1.6,2.9c-0.1,0.4,0.1,1.1,0.7,1c0.6,0,1.3-0.9,1.3-1.5
		C-127.6,24.8-128.3,24.9-128.3,24.9z"/>
	<path class="st0" d="M-121.2,8.5c0.4-0.9,1-2.8,1-2.8s-4.5,7-4.9,7.1c-0.4,0.1-0.8-1.4-0.8-1.4c-0.8,3.2,1.4,3.6,1.7,2.6
		c1.2-0.3,3.3-1.6,4.2-2.5C-119.3,10.6-119.7,8.8-121.2,8.5z M-121,11.1c-0.8,1.2-2.9,2.2-2.9,2.2l2.3-3.9
		C-121.6,9.4-120.3,10-121,11.1z"/>
	<path class="st0" d="M-102.3-3c0,0,2.2,0.1,4.5,0.4c-5.1-4-10-5.2-13.9-5.2c-5.4,0-9.1,2.2-9.3,2.4l1.7-2.7c0,0-6.8-0.7-9.2,6.6
		c-0.6-1.5-1.2-3.8-1.2-3.8s-3.5,3.1-1.9,8.3c-4.1-1.5-9.9-3.5-10.1-3.6c-0.3,0-0.4,0.1-0.4,0.1s-0.1,0.1,0.2,0.4
		c0.5,0.4,9.7,7.2,11.7,8.5c-0.4,1.6-0.4,2.3,0,3.1c0.6,1,0.7,1.5,0.6,2.3c-0.1,0.7-0.9,7.2-1,8c-0.2,0.8-2,3.6-1.9,4.4
		c0.1,0.8,1.2,4.4,2.2,4.8c0.7,0.3,2.6,0.8,3.8,0.8c0.4,0,0.8-0.1,1-0.3c0.7-0.7,1-0.8,1.5-0.8c0,0,0.1,0,0.1,0c0.2,0,0.5,0,0.8,0
		c0.7,0,1.6-0.1,2.3-0.7c1-1,2.6-2.3,3.1-2.9c0.7-0.8,1-2,0.8-3.1c-0.1-1.1,0.4-2,1.1-2.9c0.8-1.1,2.4-3.1,2.4-3.1
		c3,2.3,4.9,5.7,4.9,9.6c0,6.8-5.9,12.3-13.3,12.3c-1.1,0-2.2-0.1-3.3-0.4c3.4,1.2,6.2,1.6,8.5,1.6c4.9,0,7.6-1.8,7.6-1.8
		s-0.9,1.2-2.4,2.5c0,0,0,0,0,0c8.2-1.1,12.2-7.9,12.2-7.9s-0.3,2.2-0.7,3.7c10.9-8.2,9.1-18.4,9-18.8c0.1,0.1,1.2,1.4,1.8,2.1
		C-87.6,2.9-102.3-3-102.3-3z M-135.6,2.9c3.2,1.1,6.5,2.4,7,2.6c0,0,0,0,0.1,0.1c0.3,0.2,0.5,0.6,0.2,1.2c-0.2,0.3-0.4,0.3-0.8,0.1
		C-129.6,6.7-132.7,4.8-135.6,2.9z M-119.1,25.8c-0.2,0.2-0.9,0.9-1.4,1.4c-0.5,0.5-1.1,1-1.5,1.4c-0.2,0.2-0.5,0.3-1.1,0.3
		c-0.2,0-0.3,0-0.5,0c-0.1,0-0.2,0-0.3,0c-0.1,0-0.1,0-0.2,0c-0.1,0-0.3,0-0.4,0c0.7-0.9,2.6-2.9,3.2-3.3c0.8-0.5,1.2-1,0.7-2
		c-0.5-0.9-1.8-0.7-1.8-0.7s0.7-0.3,1.4-0.3c-0.8-0.2-1.9,0-2.4,0.5c-0.5,0.5-0.4,2.2-0.7,3.3c-0.2,1.1-1,1.7-2.1,2.8
		c-0.6,0.6-1,0.7-1.4,0.7c-0.7-0.1-1.6-0.3-2.2-0.6c-0.4-0.6-1.1-2.5-1.3-3.2c0.1-0.4,0.7-1.4,0.9-1.9c0.5-1,0.8-1.6,0.9-2.1
		c0.2-0.7,0.7-5.3,1-7.3c0.6,0.7,1.4,2,1.2,2.8c1.3-1.8,0.3-3.5-0.1-4.2c-0.4-0.7-0.9-2.1-0.5-3.6c0.4-1.5,2-5.6,2-5.6
		s0.5,0.9,1.3,0.7c0.7-0.2,6.7-9.2,6.7-9.2s1.6,3.5-0.1,6.1c-1.8,2.6-3.5,3.1-3.5,3.1s2.4,0.4,4.6-1.2c0.9,2.1,1.8,4.4,1.8,4.7
		c-0.1,0.3-1.9,4.5-2.1,4.8c-0.1,0.1-0.7,0.3-1.1,0.3c-0.7,0.2-1.2,0.4-1.4,0.5c-0.3,0.3-1.7,4.1-2.4,6c-0.8,0.2-1.6,0.7-2.1,1.5
		c0.3-0.2,1.3-0.3,2-0.4c0.6,0,2.5,1,3,2.8c0,0,0,0,0,0.1C-118.5,24.6-118.7,25.3-119.1,25.8z M-123.2,26.4c0.4-0.6,0.3-1.5,0.4-1.8
		c0-0.3,0.1-0.9,0.5-1c0.3-0.1,1.2,0,1.2,0.7c0,0.6-0.6,0.7-1,1.1C-122.5,25.6-123.1,26.3-123.2,26.4z M-105.7,18
		c0.4-2.2,0.5-4.2,0.3-5.7c1.7,2.3,2.8,5,3.1,7.9c0,0.4,0.4,0.7,0.7,1.1c0.3,0.3,0.7,0.6,0.7,0.8c0,1-0.1,2-0.3,3
		c0,0.1-0.4,0.3-0.7,0.5c-0.4,0.2-0.8,0.4-0.9,0.8c-1,3.4-3,6.3-5.8,8.4C-104.5,30.6-102.6,23.6-105.7,18z M-108.5,35.2
		c2.8-2.2,5-5.2,6-8.7c0-0.1,0.4-0.4,0.7-0.5c0.4-0.2,0.9-0.5,1-0.8c0.2-1,0.3-2.1,0.3-3.1c0-0.4-0.4-0.8-0.8-1.2
		c-0.2-0.3-0.6-0.6-0.6-0.8c-0.4-3.2-1.6-6.2-3.6-8.7c-0.9-5.3-4.4-6.9-4.5-6.9c0.1,0.1,2.4,3.4,0.8,7.3c-1.6,3.9-5.8,3.3-6.1,3.3
		c-0.4,0-1.7,1.7-3.4,5c-0.2-0.1-1.1-0.3-2.2-0.1c0.8-2.2,2-5.3,2.2-5.6c0.1-0.1,0.7-0.3,1.2-0.4c0.8-0.2,1.2-0.4,1.4-0.5
		c0.1-0.1,0.5-1.1,1-2.2c0.4,0,1.4-0.1,1.5-0.1c0.1-0.1,0.9-2.2,0.9-2.5c0-0.2-1.7-4.5-2.4-6.1c0.3-0.3,0.6-0.8,0.9-1.3
		c9,1,16,8.6,16,17.8C-98.3,26.1-102.4,32.3-108.5,35.2z"/>
</g>
<g>
	<path class="st1" d="M-326,19.7l1.4-10.5l-12.2-8.4l11.1,3.8l2.6-4l9.6-5.9l21.1,11.6l1.1,17.8l-9.4,13.1l-7.4,1.1l3.9-7v-6.8
		L-307,19l-2.8-1.9l-4.4,4.5v4.8l-3.4,3.2l-4.3,0.5l-1.9,1.1l-3.2-1l-1.3-4.7l2.4-3.3V19.7z"/>
	<path class="st2" d="M-306.6,0.6c-2.3-0.5-4.9-0.3-4.9-0.3s-0.8,3.8-6,4.9C-317.4,5.1-310.6,7.5-306.6,0.6z"/>
	<path class="st2" d="M-304.5,35.6c2.8-2.2,4.9-5.2,5.9-8.6c0-0.1,0.4-0.4,0.7-0.5c0.4-0.3,0.9-0.5,1-0.8c0.2-1,0.3-2.1,0.3-3.1
		c0-0.4-0.4-0.8-0.8-1.2c-0.3-0.3-0.6-0.6-0.6-0.8c-0.4-4-2.3-7.7-5.2-10.4l-0.3,0.3c2.8,2.7,4.7,6.3,5.1,10.1
		c0,0.4,0.4,0.7,0.7,1.1c0.3,0.3,0.7,0.7,0.7,0.8c0,1-0.1,2-0.3,3c0,0.2-0.4,0.4-0.7,0.5c-0.4,0.2-0.8,0.4-0.9,0.8
		c-1,3.7-3.5,7-6.6,9.1c0.6-1.2,2.4-5.2,3.3-7.2l-0.2-6.5l-5.6-5.4l-3.1,0.4l-3.5,5.6c0,0,1.6,2.1-0.7,4.5c-2.2,2.4-4,2.9-4,2.9
		l-1.6-0.9c0.5-0.6,1.4-1.5,2.2-2.1c1.3-1,2.5-1.1,2.5-2.3c0-2.4-2.5-1.7-2.5-1.7l-0.9,0.9l-0.4,3.2l-1.9,2.4l-0.2,0l-3.1-0.7
		c0,0,1.9-1,2.2-2.1c0.3-1.1-0.6-4.7-0.7-4.9c0,0,0.9,0.8,1.3,2c0.7-1.9,1.6-3.8,1.9-3.9c0.3-0.2,3.8-2.1,3.8-2.1l-1.2,3.1l0.9-0.5
		l2.1-5.2c0,0,2.1-1,3.6-1c2.8,0,6.8-3.4,5-9.4c0.5,0.2,9.6,4.8,11.2,13.7C-294,25.4-297.9,31.8-304.5,35.6z"/>
	<path class="st0" d="M-314.9,1.6c1-1.2,0.6-2.9,0.6-2.9l-2.9,4.3C-317.2,3-316.1,3-314.9,1.6z"/>
	<path class="st0" d="M-324.7,25.3l0.4-1.8c0,0-1.4,2.5-1.6,2.9c-0.1,0.4,0.1,1.1,0.7,1c0.6,0,1.3-0.9,1.3-1.5
		C-324,25.2-324.7,25.3-324.7,25.3z"/>
	<path class="st0" d="M-298.7-2.6c0,0,2.2,0.1,4.5,0.4c-5.1-4-10-5.2-13.9-5.2c-5.4,0-9.1,2.2-9.3,2.4l1.7-2.7c0,0-6.8-0.7-9.2,6.6
		c-0.6-1.5-1.2-3.8-1.2-3.8s-3.5,3.1-1.9,8.3c-4.1-1.5-9.9-3.5-10.1-3.6c-0.3,0-0.4,0.1-0.4,0.1s-0.1,0.1,0.2,0.4
		c0.5,0.4,9.7,7.2,11.7,8.5c-0.4,1.6-0.4,2.3,0,3.1c0.6,1,0.7,1.5,0.6,2.3c-0.1,0.7-0.9,7.2-1,8c-0.2,0.8-2,3.6-1.9,4.4
		c0.1,0.8,1.2,4.4,2.2,4.8c0.7,0.3,2.6,0.8,3.8,0.8c0.4,0,0.8-0.1,1-0.3c0.7-0.7,1-0.8,1.5-0.8c0,0,0.1,0,0.1,0c0.2,0,0.5,0,0.8,0
		c0.7,0,1.6-0.1,2.3-0.7c1-1,2.6-2.3,3.1-2.9c0.7-0.8,1-2,0.8-3.1c-0.1-1,0.4-2,1.1-2.9c0.8-1.1,2.4-3.1,2.4-3.1
		c3,2.3,4.9,5.7,4.9,9.6c0,6.8-5.9,12.3-13.3,12.3c-1.1,0-2.2-0.1-3.3-0.4c3.4,1.2,6.2,1.6,8.5,1.6c4.9,0,7.6-1.8,7.6-1.8
		s-0.9,1.2-2.4,2.5c0,0,0,0,0,0c8.2-1.1,12.2-7.9,12.2-7.9s-0.3,2.2-0.7,3.7c10.9-8.2,9.1-18.4,9-18.8c0.1,0.1,1.2,1.4,1.8,2.1
		C-284,3.3-298.7-2.6-298.7-2.6z M-315.5,26.2c-0.2,0.2-0.9,0.9-1.4,1.4c-0.5,0.5-1.1,1-1.5,1.4c-0.2,0.2-0.5,0.3-1.1,0.3
		c-0.2,0-0.4,0-0.5,0c-0.1,0-0.2,0-0.3,0c-0.1,0-0.1,0-0.2,0c-0.1,0-0.3,0-0.4,0c0.7-0.9,2.6-2.9,3.2-3.3c0.8-0.5,1.2-1,0.7-2
		c-0.5-0.9-1.8-0.7-1.8-0.7s0.7-0.3,1.4-0.3c-0.8-0.2-1.9,0-2.4,0.5c-0.5,0.5-0.4,2.2-0.7,3.3c-0.2,1.1-1,1.7-2.1,2.8
		c-0.6,0.6-1.1,0.7-1.4,0.7c-0.7-0.1-1.6-0.3-2.2-0.6c-0.4-0.6-1.1-2.5-1.3-3.2c0.1-0.4,0.7-1.4,0.9-1.9c0.5-1,0.8-1.6,0.9-2.1
		c0.2-0.7,0.7-5.3,1-7.3c0.6,0.7,1.4,2,1.2,2.8c1.3-1.8,0.3-3.5-0.1-4.2c-0.4-0.7-0.9-2.1-0.5-3.6c0.4-1.5,2-5.6,2-5.6
		s0.5,0.9,1.3,0.7c0.7-0.2,6.7-9.2,6.7-9.2s1.6,3.5-0.1,6.1c-1.8,2.6-3.5,3.1-3.5,3.1s2.4,0.4,4.6-1.2c0.9,2.1,1.8,4.4,1.8,4.7
		c-0.1,0.3-1.9,4.5-2.1,4.8c-0.1,0.1-0.7,0.3-1.1,0.3c-0.7,0.2-1.2,0.4-1.4,0.5c-0.3,0.3-1.7,4.1-2.4,6c-0.8,0.2-1.6,0.7-2.1,1.5
		c0.3-0.2,1.3-0.4,2-0.4c0.6,0,2.5,1,3,2.8c0,0,0,0,0,0.1C-314.9,25.1-315.1,25.7-315.5,26.2z M-319.6,26.8c0.4-0.6,0.4-1.5,0.4-1.8
		c0-0.3,0.1-0.9,0.5-1c0.4-0.1,1.2,0,1.2,0.7c0,0.6-0.6,0.7-1.1,1.1C-318.9,26-319.5,26.7-319.6,26.8z M-302.1,18.4
		c0.4-2.2,0.5-4.2,0.4-5.7c1.7,2.3,2.8,5,3.1,7.9c0,0.4,0.4,0.7,0.7,1.1c0.3,0.3,0.7,0.6,0.7,0.8c0,1-0.1,2-0.3,3
		c0,0.1-0.4,0.4-0.7,0.5c-0.4,0.2-0.8,0.4-0.9,0.8c-1,3.4-3,6.3-5.8,8.4C-301,31-299,24-302.1,18.4z M-304.9,35.6
		c2.8-2.2,5-5.3,6-8.7c0-0.1,0.4-0.4,0.7-0.5c0.4-0.2,0.9-0.5,1-0.8c0.2-1,0.3-2.1,0.3-3.1c0-0.4-0.4-0.8-0.8-1.2
		c-0.2-0.3-0.6-0.6-0.6-0.8c-0.4-3.2-1.6-6.2-3.6-8.7c-0.9-5.3-4.4-6.9-4.5-6.9c0.1,0.1,2.4,3.4,0.8,7.3c-1.6,3.9-5.8,3.3-6.1,3.3
		c-0.4,0-1.7,1.8-3.4,5c-0.2-0.1-1.1-0.3-2.2-0.1c0.8-2.2,2-5.3,2.2-5.6c0.1-0.1,0.7-0.3,1.2-0.4c0.8-0.2,1.2-0.4,1.4-0.5
		c0.1-0.1,0.5-1.1,1-2.2c0.4,0,1.4-0.1,1.5-0.1c0.1-0.1,0.9-2.2,0.9-2.5c0-0.2-1.7-4.5-2.4-6.1c0.3-0.4,0.6-0.8,0.9-1.3
		c9,1,16,8.6,16,17.8C-294.7,26.5-298.9,32.7-304.9,35.6z"/>
	<path class="st0" d="M-316.5,12c0.8-1,0.4-2.8-1.1-3.1c0.4-0.9,1-2.8,1-2.8s-4.5,7-4.9,7.1c-0.4,0.1-0.8-1.4-0.8-1.4
		c-0.8,3.2,1.4,3.6,1.7,2.6C-319.5,14.2-317.4,12.9-316.5,12z"/>
	<path class="st3" d="M-320.3,13.7l2.3-3.9c0,0,1.3,0.7,0.7,1.7C-318.2,12.7-320.3,13.7-320.3,13.7z"/>
	<path class="st4" d="M-292.2,31.7c-0.7,0.9-1.4,1.8-2.3,2.7c5.6-10.9,0.3-20.8,0-21.2c0.4,0.4,0.8,0.8,1.1,1.2
		C-289,19.2-288.4,26.5-292.2,31.7z"/>
	<path class="st4" d="M-287,17.7c-2-5.3-4.8-9.8-10.9-13.9c-5.9-3.9-12.3-3.6-12.7-3.6c0,0-0.1,0-0.1,0c0.2-0.1,0.4-0.1,0.7-0.2
		c1.4-0.4,3.1-0.8,4.9-1c4.6-0.7,9.3,0.9,12.5,4.3c0,0,0,0,0.1,0.1C-288.9,7.3-287,12.1-287,17.7z"/>
	<path class="st4" d="M-299.3-3.9c-6.5-1.2-10.7-0.6-13.7,0.5c-0.1-0.3-0.4-1-0.7-1.6c-0.9,1.1-1.9,2.4-2.5,3.2
		c-1.7,1.1-2.4,2.2-2.4,2.2c1-3.3,3.8-5.7,7.2-6.3c1-0.2,2-0.3,3.1-0.3C-305.2-6.1-302.2-5.4-299.3-3.9z"/>
	<path class="st4" d="M-323.4,4.5c-5.1-0.2-3.4-6.1-3.3-6.5C-326.7-1.9-326.4,2.7-323.4,4.5z"/>
	<path class="st4" d="M-318.4-6.2c-3.9,2.4-3.2,8-3.2,8C-325.3-4-318.7-6.1-318.4-6.2z"/>
	<path class="st1" d="M-324.8,6.1c0.3,0.2,0.5,0.6,0.2,1.2c-0.2,0.3-0.4,0.3-0.8,0.1c-0.5-0.3-3.7-2.1-6.5-4
		C-328.7,4.5-325.5,5.7-324.8,6.1C-324.9,6-324.9,6-324.8,6.1z"/>
</g>
<g>
	<path class="st0" d="M-56.4,1.6c1-1.2,0.6-2.9,0.6-2.9L-58.8,3C-58.8,3-57.7,3.1-56.4,1.6z"/>
	<path class="st0" d="M-66.3,25.3l0.3-1.8c0,0-1.4,2.5-1.6,2.9c-0.1,0.4,0.1,1.1,0.7,1c0.6,0,1.3-0.9,1.3-1.5
		C-65.6,25.2-66.3,25.3-66.3,25.3z"/>
	<path class="st0" d="M-40.3-2.5c0,0,2.2,0.1,4.5,0.4c-5.1-4-10-5.2-13.9-5.2c-5.4,0-9.1,2.2-9.3,2.4l1.7-2.7c0,0-6.8-0.7-9.2,6.6
		c-0.6-1.5-1.2-3.8-1.2-3.8s-3.5,3.1-1.9,8.3c-4.1-1.5-9.9-3.5-10.1-3.6c-0.3,0-0.4,0.1-0.4,0.1S-80.2,0-80,0.2
		c0.5,0.4,9.7,7.2,11.7,8.5c-0.4,1.6-0.4,2.3,0,3.1c0.6,1,0.7,1.5,0.6,2.3c-0.1,0.7-0.9,7.2-1.1,8c-0.2,0.8-2,3.6-1.9,4.4
		c0.1,0.8,1.2,4.4,2.2,4.8c0.7,0.3,2.6,0.8,3.8,0.8c0.4,0,0.8-0.1,1-0.3c0.7-0.7,1-0.8,1.5-0.8c0,0,0.1,0,0.1,0c0.2,0,0.5,0,0.8,0
		c0.7,0,1.6-0.1,2.3-0.7c1-1,2.6-2.3,3.2-2.9c0.7-0.8,1-2,0.8-3.1c-0.1-1,0.4-2,1.1-2.9c0.8-1.1,2.4-3.1,2.4-3.1
		c3,2.3,4.9,5.7,4.9,9.6c0,6.8-6,12.3-13.3,12.3c-1.1,0-2.2-0.1-3.3-0.4c3.4,1.2,6.2,1.6,8.5,1.6c4.9,0,7.6-1.8,7.6-1.8
		s-0.9,1.2-2.4,2.5c0,0,0,0,0,0c8.2-1.1,12.2-7.9,12.2-7.9s-0.3,2.2-0.7,3.7c10.9-8.2,9.1-18.4,9-18.8c0.1,0.1,1.2,1.4,1.8,2.1
		C-25.5,3.3-40.3-2.5-40.3-2.5z M-57,26.3c-0.2,0.2-0.9,0.9-1.4,1.4c-0.5,0.5-1.1,1-1.5,1.4c-0.2,0.2-0.5,0.3-1,0.3
		c-0.2,0-0.4,0-0.5,0c-0.1,0-0.2,0-0.3,0c-0.1,0-0.1,0-0.2,0c-0.1,0-0.3,0-0.4,0c0.7-0.9,2.6-2.9,3.2-3.3c0.8-0.5,1.2-1,0.7-2
		c-0.5-0.9-1.8-0.7-1.8-0.7s0.7-0.3,1.4-0.3c-0.8-0.2-1.9,0-2.4,0.5c-0.5,0.5-0.4,2.2-0.7,3.3c-0.2,1.1-1,1.7-2.1,2.8
		c-0.6,0.6-1,0.7-1.4,0.7c-0.7-0.1-1.6-0.3-2.2-0.6c-0.4-0.6-1.1-2.5-1.3-3.2c0.1-0.4,0.7-1.4,0.9-1.9c0.5-1,0.8-1.6,0.9-2.1
		c0.2-0.7,0.7-5.3,1-7.3c0.6,0.7,1.4,2,1.2,2.8c1.3-1.8,0.3-3.5-0.1-4.2c-0.4-0.7-0.9-2.1-0.5-3.6c0.4-1.5,2-5.6,2-5.6
		s0.5,0.9,1.3,0.7c0.7-0.2,6.7-9.2,6.7-9.2s1.6,3.5-0.1,6.1c-1.8,2.6-3.5,3.1-3.5,3.1s2.4,0.4,4.6-1.2c0.9,2.1,1.8,4.4,1.8,4.7
		c-0.1,0.3-1.9,4.5-2.1,4.8c-0.1,0.1-0.7,0.3-1.1,0.3c-0.7,0.2-1.2,0.4-1.4,0.5c-0.3,0.3-1.7,4.1-2.4,6c-0.8,0.2-1.6,0.7-2.1,1.5
		c0.3-0.2,1.3-0.4,2-0.4c0.6,0,2.5,1,3,2.8c0,0,0,0,0,0.1C-56.5,25.1-56.7,25.7-57,26.3z M-61.2,26.8c0.4-0.6,0.4-1.5,0.4-1.8
		c0-0.3,0.1-0.9,0.5-1c0.4-0.1,1.2,0,1.2,0.7c0,0.6-0.6,0.7-1,1.1C-60.5,26-61.1,26.7-61.2,26.8z M-43.7,18.4
		c0.4-2.2,0.5-4.2,0.4-5.7c1.7,2.3,2.8,5,3.1,7.9c0,0.4,0.4,0.7,0.7,1.1c0.3,0.3,0.7,0.6,0.7,0.8c0,1-0.1,2-0.3,3
		c0,0.1-0.4,0.4-0.7,0.5c-0.4,0.2-0.8,0.4-0.9,0.8c-1,3.4-3,6.3-5.8,8.4C-42.5,31-40.6,24-43.7,18.4z M-46.5,35.6
		c2.8-2.2,5-5.3,6-8.7c0-0.1,0.4-0.4,0.7-0.5c0.4-0.2,0.9-0.5,1-0.8c0.2-1,0.3-2.1,0.3-3.1c0-0.4-0.4-0.8-0.8-1.2
		c-0.2-0.3-0.6-0.6-0.6-0.8c-0.4-3.2-1.6-6.2-3.6-8.7c-0.9-5.3-4.4-6.9-4.5-6.9c0.1,0.1,2.4,3.4,0.8,7.3c-1.6,3.9-5.8,3.3-6.1,3.3
		c-0.3,0-1.7,1.7-3.4,5c-0.2-0.1-1.1-0.3-2.2-0.1c0.8-2.2,2-5.3,2.2-5.6c0.1-0.1,0.7-0.3,1.2-0.4c0.8-0.2,1.2-0.4,1.4-0.5
		c0.1-0.1,0.5-1.1,1-2.2c0.4,0,1.4-0.1,1.5-0.1c0.1-0.1,0.9-2.2,0.9-2.5c0-0.2-1.7-4.5-2.4-6.1c0.3-0.4,0.6-0.8,0.9-1.3
		c9,1,16,8.6,16,17.8C-36.3,26.6-40.4,32.7-46.5,35.6z"/>
	<path class="st0" d="M-59.2,8.9c0.4-0.9,1-2.8,1-2.8s-4.5,7-4.9,7.1c-0.4,0.1-0.8-1.4-0.8-1.4c-0.8,3.2,1.4,3.6,1.7,2.6
		c1.2-0.3,3.3-1.6,4.2-2.5C-57.3,11-57.7,9.2-59.2,8.9z M-59,11.5c-0.8,1.2-2.9,2.2-2.9,2.2l2.3-3.9C-59.6,9.8-58.3,10.5-59,11.5z"
		/>
</g>
<g>
	<path class="st0" d="M-185.6,1.6c1-1.2,0.6-2.9,0.6-2.9l-2.9,4.3C-188,3-186.9,3.1-185.6,1.6z"/>
	<path class="st0" d="M-195.4,25.3l0.4-1.8c0,0-1.4,2.5-1.6,2.9c-0.1,0.4,0.1,1.1,0.7,1c0.6,0,1.3-0.9,1.3-1.5
		C-194.7,25.2-195.4,25.3-195.4,25.3z"/>
	<path class="st0" d="M-188.4,8.9c0.4-0.9,1-2.8,1-2.8s-4.5,7-4.9,7.1c-0.4,0.1-0.8-1.4-0.8-1.4c-0.8,3.2,1.4,3.6,1.7,2.6
		c1.2-0.3,3.3-1.6,4.2-2.5C-186.4,11-186.9,9.2-188.4,8.9z M-188.1,11.5c-0.8,1.2-2.9,2.2-2.9,2.2l2.3-3.9
		C-188.8,9.8-187.5,10.5-188.1,11.5z"/>
	<path class="st0" d="M-169.5-2.5c0,0,2.2,0.1,4.5,0.4c-5.1-4-10-5.2-13.9-5.2c-5.4,0-9.1,2.2-9.3,2.4l1.7-2.7c0,0-6.8-0.7-9.2,6.6
		c-0.6-1.5-1.2-3.8-1.2-3.8s-3.5,3.1-1.9,8.3c-4.1-1.5-9.9-3.5-10.1-3.6c-0.3,0-0.4,0.1-0.4,0.1s-0.1,0.1,0.2,0.4
		c0.5,0.4,9.7,7.2,11.7,8.5c-0.4,1.6-0.4,2.3,0,3.1c0.6,1,0.7,1.5,0.6,2.3c-0.1,0.7-0.9,7.2-1,8c-0.2,0.8-2,3.6-1.9,4.4
		c0.1,0.8,1.2,4.4,2.2,4.8c0.7,0.3,2.6,0.8,3.8,0.8c0.4,0,0.8-0.1,1-0.3c0.7-0.7,1-0.8,1.5-0.8c0,0,0.1,0,0.1,0c0.2,0,0.5,0,0.8,0
		c0.7,0,1.6-0.1,2.3-0.7c1-1,2.6-2.3,3.1-2.9c0.7-0.8,1-2,0.8-3.1c-0.1-1.1,0.4-2,1.1-2.9c0.8-1.1,2.4-3.1,2.4-3.1
		c3,2.3,4.9,5.7,4.9,9.6c0,6.8-5.9,12.3-13.3,12.3c-1.1,0-2.2-0.1-3.3-0.4c3.4,1.2,6.2,1.6,8.5,1.6c4.9,0,7.6-1.8,7.6-1.8
		s-0.9,1.2-2.4,2.5c0,0,0,0,0,0c8.2-1.1,12.2-7.9,12.2-7.9s-0.3,2.2-0.7,3.7c10.9-8.2,9.1-18.4,9-18.8c0.1,0.1,1.2,1.4,1.8,2.1
		C-154.7,3.3-169.5-2.5-169.5-2.5z M-182.1-5.8c1-0.2,2-0.3,3.2-0.3c3,0,6,0.8,8.9,2.2c-6.5-1.2-10.7-0.6-13.7,0.5
		c-0.1-0.4-0.4-1.1-0.7-1.6c-0.9,1.1-1.9,2.4-2.5,3.2c-1.7,1.1-2.4,2.2-2.4,2.2C-188.3-2.8-185.5-5.2-182.1-5.8z M-189.1-6.2
		c-3.9,2.4-3.1,8-3.1,8C-196-3.9-189.4-6.1-189.1-6.2z M-197.5-2c0,0,0.3,4.7,3.3,6.5C-199.2,4.3-197.5-1.6-197.5-2z M-202.7,3.4
		c3.2,1.1,6.5,2.4,7,2.6c0,0,0,0,0.1,0.1c0.3,0.2,0.5,0.6,0.2,1.2c-0.2,0.3-0.4,0.3-0.8,0.1C-196.7,7.1-199.9,5.3-202.7,3.4z
		 M-186.2,26.3c-0.2,0.2-0.9,0.9-1.4,1.4c-0.5,0.5-1.1,1-1.5,1.4c-0.2,0.2-0.5,0.3-1.1,0.3c-0.2,0-0.3,0-0.5,0c-0.1,0-0.2,0-0.3,0
		c-0.1,0-0.1,0-0.2,0c-0.1,0-0.3,0-0.4,0c0.7-0.9,2.6-2.9,3.2-3.3c0.8-0.5,1.2-1,0.7-2c-0.5-0.9-1.8-0.7-1.8-0.7s0.7-0.3,1.4-0.3
		c-0.8-0.2-1.9,0-2.4,0.5c-0.5,0.5-0.4,2.2-0.7,3.3c-0.2,1.1-1,1.7-2.1,2.8c-0.6,0.6-1,0.7-1.4,0.7c-0.7-0.1-1.6-0.3-2.2-0.6
		c-0.4-0.6-1.1-2.5-1.3-3.2c0.1-0.4,0.7-1.4,0.9-1.9c0.5-1,0.8-1.6,0.9-2.1c0.2-0.7,0.7-5.3,1-7.3c0.6,0.7,1.4,2,1.2,2.8
		c1.3-1.8,0.3-3.5-0.1-4.2c-0.4-0.7-0.9-2.1-0.5-3.6c0.4-1.5,2-5.6,2-5.6s0.5,0.9,1.3,0.7c0.7-0.2,6.7-9.2,6.7-9.2s1.6,3.5-0.1,6.1
		c-1.8,2.6-3.5,3.1-3.5,3.1s2.4,0.4,4.6-1.2c0.9,2.1,1.8,4.4,1.8,4.7c-0.1,0.3-1.9,4.5-2.1,4.8c-0.1,0.1-0.7,0.3-1.1,0.3
		c-0.7,0.2-1.2,0.4-1.4,0.5c-0.3,0.3-1.7,4.1-2.4,6c-0.8,0.2-1.6,0.7-2.1,1.5c0.3-0.2,1.3-0.3,2-0.4c0.6,0,2.5,1,3,2.8
		c0,0,0,0,0,0.1C-185.6,25.1-185.9,25.7-186.2,26.3z M-190.3,26.8c0.4-0.6,0.3-1.5,0.4-1.8c0-0.3,0.1-0.9,0.5-1
		c0.3-0.1,1.2,0,1.2,0.7c0,0.6-0.6,0.7-1,1.1C-189.6,26-190.2,26.7-190.3,26.8z M-172.9,18.4c0.4-2.2,0.5-4.2,0.3-5.7
		c1.7,2.3,2.8,5,3.1,7.9c0,0.4,0.4,0.7,0.7,1.1c0.3,0.3,0.7,0.6,0.7,0.8c0,1-0.1,2-0.3,3c0,0.1-0.4,0.3-0.7,0.5
		c-0.4,0.2-0.8,0.4-0.9,0.8c-1,3.4-3,6.3-5.8,8.4C-171.7,31-169.7,24-172.9,18.4z M-175.6,35.6c2.8-2.2,5-5.2,6-8.7
		c0-0.1,0.4-0.4,0.7-0.5c0.4-0.2,0.9-0.5,1-0.8c0.2-1,0.3-2.1,0.3-3.1c0-0.4-0.4-0.8-0.8-1.2c-0.2-0.3-0.6-0.6-0.6-0.8
		c-0.4-3.2-1.6-6.2-3.6-8.7c-0.9-5.3-4.4-6.9-4.5-6.9c0.1,0.1,2.4,3.4,0.8,7.3c-1.6,3.9-5.8,3.3-6.1,3.3c-0.4,0-1.7,1.8-3.4,5
		c-0.2-0.1-1.1-0.3-2.2-0.1c0.8-2.2,2-5.3,2.2-5.6c0.1-0.1,0.7-0.3,1.2-0.4c0.8-0.2,1.2-0.4,1.4-0.5c0.1-0.1,0.5-1.1,1-2.2
		c0.4,0,1.4-0.1,1.5-0.1c0.1-0.1,0.9-2.2,0.9-2.5c0-0.2-1.7-4.5-2.4-6.1c0.3-0.3,0.6-0.8,0.9-1.3c9,1,16,8.6,16,17.8
		C-165.4,26.6-169.6,32.7-175.6,35.6z M-162.9,31.7c-0.7,0.9-1.4,1.8-2.3,2.7c5.6-10.9,0.3-20.8,0-21.2c0.4,0.4,0.8,0.8,1.1,1.2
		C-159.7,19.3-159.2,26.5-162.9,31.7z M-168.6,3.9c-6-3.9-12.3-3.6-12.7-3.6c0,0-0.1,0-0.1,0c0.2-0.1,0.4-0.1,0.7-0.2
		c1.4-0.4,3.1-0.8,4.9-1c4.6-0.7,9.3,0.9,12.5,4.3c0,0,0,0,0.1,0.1c3.6,3.8,5.5,8.7,5.6,14.3C-159.7,12.5-162.5,8-168.6,3.9z"/>
</g>
<g>
	<path class="st0" d="M-244.3,1.6c1-1.2,0.6-2.9,0.6-2.9l-2.9,4.3C-246.7,3-245.6,3.1-244.3,1.6z"/>
	<path class="st0" d="M-254.1,25.3l0.3-1.8c0,0-1.4,2.5-1.6,2.9c-0.1,0.4,0.1,1.1,0.7,1c0.6,0,1.3-0.9,1.3-1.5
		C-253.4,25.2-254.1,25.3-254.1,25.3z"/>
	<path class="st0" d="M-228.2-2.5c0,0,2.2,0.1,4.5,0.4c-5.1-4-10-5.2-13.9-5.2c-5.4,0-9.1,2.2-9.3,2.4l1.7-2.7c0,0-6.8-0.7-9.2,6.6
		c-0.6-1.5-1.2-3.8-1.2-3.8s-3.5,3.1-1.9,8.3c-4.1-1.5-9.9-3.5-10.1-3.6c-0.3,0-0.4,0.1-0.4,0.1s-0.1,0.1,0.2,0.4
		c0.5,0.4,9.7,7.2,11.7,8.5c-0.4,1.6-0.4,2.3,0,3.1c0.6,1,0.7,1.5,0.6,2.3c-0.1,0.7-0.9,7.2-1.1,8c-0.2,0.8-2,3.6-1.9,4.4
		c0.1,0.8,1.2,4.4,2.2,4.8c0.7,0.3,2.6,0.8,3.8,0.8c0.4,0,0.8-0.1,1-0.3c0.7-0.7,1-0.8,1.5-0.8c0,0,0.1,0,0.1,0c0.2,0,0.5,0,0.8,0
		c0.7,0,1.6-0.1,2.3-0.7c1-1,2.6-2.3,3.1-2.9c0.7-0.8,1-2,0.8-3.1c-0.1-1,0.4-2,1.1-2.9c0.8-1.1,2.4-3.1,2.4-3.1
		c3,2.3,4.9,5.7,4.9,9.6c0,6.8-5.9,12.3-13.3,12.3c-1.1,0-2.2-0.1-3.3-0.4c3.4,1.2,6.2,1.6,8.5,1.6c4.9,0,7.6-1.8,7.6-1.8
		s-0.9,1.2-2.4,2.5c0,0,0,0,0,0c8.2-1.1,12.2-7.9,12.2-7.9s-0.3,2.2-0.7,3.7c10.9-8.2,9.1-18.4,9-18.8c0.1,0.1,1.2,1.4,1.8,2.1
		C-213.4,3.3-228.2-2.5-228.2-2.5z M-244.9,26.3c-0.2,0.2-0.9,0.9-1.4,1.4c-0.5,0.5-1.1,1-1.5,1.4c-0.2,0.2-0.5,0.3-1.1,0.3
		c-0.2,0-0.3,0-0.5,0c-0.1,0-0.2,0-0.3,0s-0.1,0-0.2,0c-0.1,0-0.3,0-0.4,0c0.7-0.9,2.6-2.9,3.2-3.3c0.8-0.5,1.2-1,0.7-2
		c-0.5-0.9-1.8-0.7-1.8-0.7s0.7-0.3,1.4-0.3c-0.8-0.2-1.9,0-2.4,0.5c-0.5,0.5-0.4,2.2-0.7,3.3c-0.2,1.1-1,1.7-2.1,2.8
		c-0.6,0.6-1,0.7-1.4,0.7c-0.7-0.1-1.6-0.3-2.2-0.6c-0.4-0.6-1.1-2.5-1.3-3.2c0.1-0.4,0.7-1.4,0.9-1.9c0.5-1,0.8-1.6,0.9-2.1
		c0.2-0.7,0.7-5.3,1-7.3c0.6,0.7,1.4,2,1.2,2.8c1.3-1.8,0.4-3.5-0.1-4.2c-0.4-0.7-0.9-2.1-0.5-3.6c0.4-1.5,2-5.6,2-5.6
		s0.5,0.9,1.3,0.7c0.7-0.2,6.7-9.2,6.7-9.2s1.6,3.5-0.1,6.1c-1.8,2.6-3.5,3.1-3.5,3.1s2.4,0.4,4.6-1.2c0.9,2.1,1.8,4.4,1.8,4.7
		c-0.1,0.3-1.9,4.5-2.1,4.8c-0.1,0.1-0.7,0.3-1.1,0.3c-0.7,0.2-1.2,0.4-1.4,0.5c-0.3,0.3-1.7,4.1-2.4,6c-0.8,0.2-1.6,0.7-2.1,1.5
		c0.3-0.2,1.3-0.4,2-0.4c0.6,0,2.5,1,3,2.8c0,0,0,0,0,0.1C-244.3,25.1-244.6,25.7-244.9,26.3z M-249,26.8c0.4-0.6,0.3-1.5,0.4-1.8
		c0-0.3,0.1-0.9,0.5-1c0.3-0.1,1.2,0,1.2,0.7c0,0.6-0.6,0.7-1,1.1C-248.3,26-248.9,26.7-249,26.8z M-231.6,18.4
		c0.4-2.2,0.5-4.2,0.4-5.7c1.7,2.3,2.8,5,3.1,7.9c0,0.4,0.4,0.7,0.7,1.1c0.3,0.3,0.7,0.6,0.7,0.8c0,1-0.1,2-0.3,3
		c0,0.1-0.4,0.4-0.7,0.5c-0.4,0.2-0.8,0.4-0.9,0.8c-1,3.4-3,6.3-5.8,8.4C-230.4,31-228.4,24-231.6,18.4z M-234.3,35.6
		c2.8-2.2,5-5.3,6-8.7c0-0.1,0.4-0.4,0.7-0.5c0.4-0.2,0.9-0.5,1-0.8c0.2-1,0.3-2.1,0.3-3.1c0-0.4-0.4-0.8-0.8-1.2
		c-0.2-0.3-0.6-0.6-0.6-0.8c-0.4-3.2-1.6-6.2-3.6-8.7c-0.9-5.3-4.4-6.9-4.5-6.9c0.1,0.1,2.4,3.4,0.8,7.3c-1.6,3.9-5.8,3.3-6.1,3.3
		c-0.4,0-1.7,1.7-3.4,5c-0.2-0.1-1.1-0.3-2.2-0.1c0.8-2.2,2-5.3,2.2-5.6c0.1-0.1,0.7-0.3,1.2-0.4c0.8-0.2,1.2-0.4,1.4-0.5
		c0.1-0.1,0.5-1.1,1-2.2c0.4,0,1.4-0.1,1.5-0.1c0.1-0.1,0.9-2.2,0.9-2.5c0-0.2-1.7-4.5-2.4-6.1c0.3-0.4,0.6-0.8,0.9-1.3
		c9,1,16,8.6,16,17.8C-224.1,26.6-228.3,32.7-234.3,35.6z"/>
	<path class="st0" d="M-246,12c0.8-1,0.4-2.8-1.1-3.1c0.4-0.9,1-2.8,1-2.8s-4.5,7-4.9,7.1c-0.4,0.1-0.8-1.4-0.8-1.4
		c-0.8,3.2,1.4,3.6,1.7,2.6C-248.9,14.2-246.8,12.9-246,12z"/>
</g>
<g>
	<path class="st0" d="M14.1,7.1c0.3-0.4,0.7-1,1.2-1.5c0.1,0.3,0.3,0.6,0.3,0.8C17,5.8,19,5.5,22,6.1c-1.4-0.7-2.8-1-4.2-1.1
		c-0.5,0-1,0-1.5,0.1c-1.6,0.3-2.9,1.4-3.4,3C13,8.1,13.3,7.6,14.1,7.1z"/>
	<path class="st0" d="M13.2,18c-0.3,0-0.8,0.1-0.9,0.2c0.3-0.4,0.6-0.6,1-0.7c0.3-0.9,1-2.7,1.1-2.8c0.1-0.1,0.3-0.1,0.6-0.2
		c0.2,0,0.5-0.1,0.5-0.2c0.1-0.1,0.9-2.1,1-2.2c0-0.1-0.4-1.2-0.9-2.2c-1.1,0.8-2.2,0.6-2.2,0.6s0.8-0.2,1.6-1.4
		c0.8-1.2,0-2.9,0-2.9s-2.8,4.2-3.2,4.3S11.4,10,11.4,10s-0.7,1.9-0.9,2.6c-0.2,0.7,0,1.4,0.2,1.7c0.2,0.3,0.6,1.2,0,2
		c0.1-0.4-0.3-0.9-0.6-1.3c-0.1,0.9-0.4,3.1-0.5,3.4c0,0.2-0.2,0.5-0.4,1c-0.1,0.2-0.4,0.7-0.4,0.9c0.1,0.4,0.4,1.3,0.6,1.5
		c0.3,0.1,0.7,0.2,1.1,0.3c0.2,0,0.4-0.1,0.7-0.4c0.5-0.5,0.9-0.8,1-1.3c0.1-0.5,0.1-1.3,0.3-1.5c0.2-0.2,0.7-0.3,1.1-0.2
		c-0.3,0-0.7,0.1-0.7,0.1s0.6-0.1,0.8,0.3c0.2,0.4,0,0.7-0.3,0.9c-0.3,0.2-1.2,1.2-1.5,1.6c0.1,0,0.1,0,0.2,0c0,0,0,0,0.1,0
		c0,0,0.1,0,0.1,0c0.1,0,0.1,0,0.2,0c0.2,0,0.4,0,0.5-0.1c0.2-0.2,0.5-0.4,0.7-0.7s0.6-0.5,0.7-0.6c0.2-0.2,0.3-0.6,0.2-0.9
		c0,0,0,0,0,0C14.4,18.5,13.5,18,13.2,18z M15,7.3c0,0,0.2,0.8-0.3,1.4c-0.6,0.7-1.1,0.7-1.1,0.7L15,7.3z M9.8,20.8
		c-0.3,0-0.4-0.3-0.3-0.5c0.1-0.2,0.7-1.4,0.7-1.4l-0.2,0.8c0,0,0.3,0,0.3,0.3C10.4,20.4,10.1,20.8,9.8,20.8z M11.9,14.7
		c-0.1,0.5-1.2,0.3-0.8-1.2c0,0,0.2,0.7,0.4,0.7c0.2-0.1,2.3-3.4,2.3-3.4s-0.3,0.9-0.5,1.3c0.7,0.1,0.9,1,0.5,1.4
		C13.5,14,12.5,14.6,11.9,14.7z"/>
	<path class="st0" d="M10.1,11.3c0.1-0.3,0-0.5-0.1-0.6c0,0,0,0,0,0C9.7,10.6,8.2,10,6.6,9.5c1.3,0.9,2.8,1.8,3.1,1.9
		C9.9,11.4,10,11.5,10.1,11.3z"/>
	<path class="st0" d="M10.7,10C9.3,9.2,9.1,7,9.1,7C9.1,7.1,8.3,9.9,10.7,10z"/>
	<path class="st0" d="M13.4,19.5c0-0.3-0.4-0.4-0.6-0.3c-0.2,0-0.2,0.3-0.2,0.5c0,0.1,0,0.6-0.2,0.9c0,0,0.3-0.4,0.5-0.5
		C13.1,19.8,13.4,19.8,13.4,19.5z"/>
	<path class="st0" d="M13,5C12.9,5,9.8,6,11.6,8.7C11.6,8.7,11.2,6.1,13,5z"/>
	<path class="st0" d="M13.2,12.5l-1.1,1.8c0,0,1-0.5,1.4-1C13.8,12.8,13.2,12.5,13.2,12.5z"/>
	<path class="st0" d="M25.2,9.5c-1.5-1.6-3.7-2.3-5.9-2C18.4,7.6,17.6,7.8,17,8c-0.1,0-0.2,0-0.3,0.1c0,0,0,0,0,0
		c0.2,0,3.2-0.2,6,1.7c2.9,1.9,4.2,4,5.2,6.5C27.8,13.6,26.9,11.4,25.2,9.5C25.2,9.5,25.2,9.5,25.2,9.5z"/>
	<path class="st0" d="M16,0C7.2,0,0,7.2,0,16s7.2,16,16,16s16-7.2,16-16S24.8,0,16,0z M23.3,25.8c0.2-0.7,0.3-1.7,0.3-1.7
		s-1.9,3.2-5.7,3.7c0,0,0,0,0,0c0.7-0.6,1.1-1.2,1.1-1.2s-1.2,0.8-3.6,0.8c-1.1,0-2.4-0.2-4-0.7c0.5,0.1,1,0.2,1.6,0.2
		c3.5,0,6.3-2.6,6.3-5.8c0-1.8-0.9-3.4-2.3-4.5c0,0-0.7,0.9-1.1,1.4c-0.3,0.4-0.6,0.9-0.5,1.4c0.1,0.5-0.1,1.1-0.4,1.5
		c-0.2,0.3-1,0.9-1.5,1.4c-0.3,0.3-0.7,0.4-1.1,0.4c-0.1,0-0.3,0-0.4,0c0,0,0,0-0.1,0c-0.2,0-0.4,0.1-0.7,0.4
		C11.2,22.9,11,23,10.8,23c-0.6,0-1.4-0.3-1.8-0.4c-0.5-0.2-1-1.9-1.1-2.2c0-0.4,0.8-1.7,0.9-2.1c0.1-0.4,0.5-3.4,0.5-3.8
		s0-0.6-0.3-1.1c-0.2-0.4-0.2-0.7,0-1.4c-0.9-0.6-5.3-3.8-5.5-4C3.5,7.9,3.5,7.8,3.5,7.8s0-0.1,0.2,0c0.1,0,2.8,1,4.8,1.7
		C7.7,7,9.4,5.6,9.4,5.6s0.3,1.1,0.6,1.8c1.1-3.4,4.3-3.1,4.3-3.1l-0.8,1.3c0.1-0.1,1.8-1.1,4.4-1.1c1.9,0,4.1,0.6,6.6,2.5
		c-1.1-0.1-2.1-0.2-2.1-0.2s6.9,2.7,6.1,11.2c-0.3-0.3-0.8-0.9-0.8-1C27.6,17.1,28.5,21.9,23.3,25.8z"/>
	<path class="st0" d="M24.3,14.1c0.1,0.2,2.6,4.9,0,10c0.4-0.4,0.8-0.8,1.1-1.3c1.8-2.5,1.5-5.9-0.5-8.1
		C24.7,14.5,24.5,14.3,24.3,14.1z"/>
	<path class="st0" d="M22.1,20.5c0-0.2,0.2-0.3,0.4-0.4c0.1-0.1,0.3-0.2,0.4-0.2c0.1-0.5,0.1-0.9,0.1-1.4c0-0.1-0.2-0.3-0.3-0.4
		c-0.2-0.2-0.3-0.3-0.4-0.5c-0.1-1.3-0.6-2.6-1.4-3.7c0.1,0.7,0,1.6-0.2,2.7c1.5,2.6,0.6,5.9-1.4,7.9C20.6,23.5,21.6,22.1,22.1,20.5
		z"/>
	<path class="st0" d="M16.7,8.7c-0.1,0.2-0.3,0.4-0.4,0.6c0.3,0.8,1.1,2.8,1.1,2.9c0,0.1-0.4,1.1-0.4,1.2c0,0-0.5,0.1-0.7,0.1
		c-0.2,0.5-0.4,1-0.5,1c-0.1,0.1-0.2,0.1-0.6,0.2c-0.2,0.1-0.5,0.1-0.6,0.2c-0.1,0.1-0.7,1.6-1,2.6c0.5-0.1,0.9,0,1,0.1
		c0.8-1.5,1.4-2.4,1.6-2.4c0.2,0,2.1,0.3,2.9-1.6c0.7-1.8-0.3-3.4-0.4-3.4c0,0,1.7,0.8,2.1,3.3c0.9,1.2,1.5,2.6,1.7,4.1
		c0,0.1,0.2,0.2,0.3,0.4c0.2,0.2,0.4,0.4,0.4,0.6c0,0.5,0,1-0.1,1.5c0,0.2-0.2,0.3-0.5,0.4c-0.1,0.1-0.3,0.2-0.3,0.2
		c-0.5,1.6-1.5,3.1-2.8,4.1c2.8-1.4,4.8-4.3,4.8-7.6C24.2,12.7,20.9,9.1,16.7,8.7z"/>
</g>
</svg>
