<!-- Generated by IcoMoon.io -->
<svg version="1.1" xmlns="http://www.w3.org/2000/svg" width="44" height="32" viewBox="0 0 44 32">
<title>actn</title>
<path fill="#f00" d="M0.741 30.519l9.748-17.747c0.403-0.741 1.074-0.942 1.753-0.539h0.070c0.189 0.115 0.417 0.184 0.662 0.184 0.503 0 0.939-0.289 1.149-0.711l0.003-0.007 6.846-10.488c0.246-0.463 0.537-0.861 0.878-1.211l-0.001 0.001c0.295 0.359 0.525 0.785 0.664 1.25l0.007 0.026 2.959 7.328c0.671 1.683 2.284 2.893 3.967 2.893h0.535c0.898 0.034 1.702 0.413 2.287 1.008l0 0 2.148 2.284c0.615 0.649 1.191 1.351 1.714 2.093l0.040 0.059 6.925 9.949q0.39 0.592 0.736 1.21v0.066c-0.377-0.295-0.708-0.62-0.999-0.979l-0.009-0.011-9.344-9.695c-0.563-0.568-1.054-1.208-1.457-1.905l-0.024-0.045c-0.745-1.613-1.683-2.288-3.16-2.218h-1.88c-1.14 0-1.411-0.202-1.753-1.346l-2.682-8.402c-0.469-1.683-0.539-1.683-1.008 0l-1.815 5.698c-0.403 1.14-0.539 3.024-0.337 3.024 0.070 0 0.539-0.877 1.28-2.419 0.15-0.335 0.328-0.623 0.54-0.884l-0.006 0.007c0.163 0.588 0.262 1.264 0.272 1.962l0 0.006c-0.225 0.531-0.451 0.973-0.704 1.398l0.029-0.052-0.066 0.202c-0.806 1.477-0.806 1.547 0.066 2.958l0.806 1.341c0.291 0.388 0.54 0.832 0.727 1.307l0.013 0.039c-0.357 0.304-0.752 0.593-1.168 0.852l-0.042 0.024-4.168 2.687c-0.699 0.39-1.527 0.635-2.409 0.67l-0.011 0c-1.481-0.066-2.757 0.675-3.901 2.218l-1.613 2.288c-0.589 0.722-1.228 1.361-1.926 1.931l-0.024 0.019-1.477 1.21c-0.697 0.49-1.492 0.94-2.33 1.31l-0.090 0.035-0.806 0.202c-0.531 0.198-1.147 0.34-1.787 0.397l-0.028 0.002c-0.276 0-0.539 0-0.539-0.066 0.237-0.548 0.484-1.012 0.765-1.452l-0.024 0.041z"></path>
</svg>
