<!-- Generated by IcoMoon.io -->
<svg version="1.1" xmlns="http://www.w3.org/2000/svg" width="35" height="32" viewBox="0 0 35 32">
<title>ada</title>
<path fill="#000" d="M17.054 0.086c0.697-0.358 1.548 0.472 1.178 1.157-0.215 0.559-1.031 0.707-1.447 0.281-0.441-0.409-0.297-1.216 0.27-1.438zM9.556 0.881c0.423-0.171 0.96 0.21 0.916 0.664 0.045 0.493-0.568 0.856-0.999 0.621-0.572-0.218-0.506-1.131 0.083-1.286zM24.913 2.181c-0.662-0.079-0.767-1.102-0.129-1.308 0.494-0.237 0.948 0.208 1.020 0.668-0.104 0.393-0.439 0.754-0.89 0.64zM11.262 4.021c0.708-0.441 1.718 0.216 1.609 1.025-0.037 0.817-1.14 1.29-1.762 0.738-0.602-0.434-0.51-1.429 0.153-1.762zM22.070 4.488c0.316-0.801 1.596-0.825 1.955-0.045 0.355 0.607-0.082 1.358-0.715 1.564-0.839 0.154-1.635-0.738-1.24-1.519zM16.151 5.962c-0.007-0.688 0.63-1.201 1.295-1.248 0.441 0.087 0.922 0.272 1.111 0.71 0.353 0.604 0.040 1.436-0.598 1.713-0.291 0.161-0.636 0.1-0.953 0.082-0.485-0.234-0.893-0.694-0.856-1.256zM5.001 6.965c0.647-0.391 1.519 0.323 1.274 1.014-0.135 0.598-0.952 0.841-1.419 0.459-0.498-0.358-0.419-1.217 0.144-1.473zM28.945 6.963c0.549-0.419 1.454 0.062 1.389 0.743 0.037 0.621-0.746 1.090-1.291 0.77-0.6-0.265-0.661-1.173-0.098-1.513zM19.287 8.201c0.905-0.32 1.981 0.063 2.497 0.857 0.681 0.971 0.319 2.45-0.738 3.007-1.095 0.659-2.693 0.1-3.097-1.102-0.459-1.077 0.21-2.424 1.338-2.761zM13.974 8.307c1.004-0.466 2.354-0.075 2.839 0.935 0.57 0.983 0.129 2.352-0.89 2.859-1.021 0.57-2.462 0.138-2.956-0.917-0.554-1.021-0.062-2.407 1.008-2.877zM8.655 10.096c0.076-0.636 0.686-1.050 1.302-1.093 0.663 0.079 1.193 0.585 1.265 1.245-0.043 0.654-0.557 1.292-1.261 1.288-0.774 0.066-1.454-0.692-1.306-1.441zM24.367 9.141c0.795-0.455 1.899 0.208 1.864 1.106 0.055 0.952-1.167 1.623-1.959 1.065-0.822-0.465-0.758-1.775 0.095-2.171zM11.812 12.497c0.93-0.252 1.993 0.18 2.449 1.020 0.5 0.846 0.295 2.022-0.481 2.643-0.995 0.911-2.831 0.545-3.36-0.698-0.609-1.139 0.131-2.666 1.391-2.966zM21.889 12.492c0.904-0.254 1.966 0.088 2.452 0.899 0.643 0.927 0.336 2.309-0.621 2.906-1.002 0.694-2.554 0.329-3.106-0.755-0.668-1.122 0.004-2.708 1.274-3.050zM5.831 13.55c0.803-0.299 1.694 0.573 1.368 1.357-0.199 0.714-1.221 0.978-1.75 0.451-0.618-0.494-0.389-1.594 0.381-1.808zM27.604 14.687c-0.023-0.655 0.464-1.235 1.146-1.271 0.55 0.086 1.085 0.522 1.042 1.112 0.050 0.778-0.903 1.307-1.577 0.941-0.316-0.158-0.478-0.477-0.611-0.782zM1.882 13.934c0.483-0.208 1.081 0.205 0.971 0.733-0.026 0.598-0.923 0.828-1.253 0.328-0.291-0.347-0.117-0.882 0.282-1.061zM32.353 13.922c0.34-0.238 0.886-0.067 1.021 0.324 0.229 0.427-0.191 1.012-0.679 0.94-0.686 0.062-0.908-0.967-0.342-1.264zM14.437 16.792c1.272-0.325 2.639 0.718 2.647 2.006 0.083 1.302-1.263 2.456-2.565 2.155-1.006-0.159-1.796-1.113-1.763-2.113-0.003-0.957 0.731-1.846 1.682-2.048zM19.474 16.789c1.291-0.355 2.698 0.707 2.678 2.025 0.068 1.278-1.236 2.393-2.511 2.14-1.199-0.153-2.084-1.449-1.75-2.594 0.169-0.763 0.817-1.384 1.582-1.571zM9.763 17.582c0.893-0.15 1.73 0.83 1.368 1.665-0.264 0.889-1.579 1.13-2.161 0.404-0.682-0.697-0.173-1.973 0.793-2.069zM24.533 17.621c0.796-0.328 1.774 0.35 1.713 1.2 0.032 0.936-1.175 1.582-1.954 1.035-0.882-0.491-0.722-1.934 0.241-2.235zM28.661 21.695c-0.312-0.572 0.255-1.33 0.9-1.224 0.321-0.005 0.546 0.244 0.752 0.453 0.042 0.339 0.113 0.743-0.173 1.004-0.388 0.483-1.268 0.346-1.479-0.233zM4.998 20.63c0.603-0.395 1.471 0.194 1.336 0.888-0.072 0.614-0.858 0.964-1.375 0.616-0.555-0.316-0.535-1.216 0.040-1.504zM16.915 21.915c0.79-0.343 1.796 0.334 1.721 1.189 0.059 0.946-1.186 1.6-1.958 1.033-0.858-0.488-0.715-1.922 0.237-2.222zM11.396 23.182c0.673-0.348 1.575 0.253 1.514 0.994 0.020 0.608-0.583 1.126-1.193 1.037-0.505-0.011-0.835-0.456-0.997-0.88 0.008-0.462 0.201-0.976 0.675-1.15zM22.576 23.192c0.692-0.421 1.675 0.183 1.609 0.975 0.018 0.828-1.093 1.358-1.737 0.814-0.624-0.426-0.547-1.451 0.128-1.79zM24.521 27.921c-0.308-0.458 0.055-1.010 0.554-1.114 0.402 0.080 0.826 0.378 0.742 0.836-0.059 0.62-0.98 0.81-1.296 0.278zM9.087 27.524c0.123-0.363 0.419-0.724 0.854-0.629 0.633 0.044 0.821 0.983 0.267 1.272-0.498 0.331-1.076-0.122-1.121-0.643zM16.533 27.94c0.121-0.537 0.828-0.798 1.293-0.513 0.308 0.13 0.398 0.469 0.477 0.757-0.042 0.15-0.080 0.3-0.117 0.45-0.191 0.222-0.436 0.445-0.753 0.437-0.59 0.068-1.122-0.588-0.9-1.13z"></path>
<path fill="#fff" d="M17.054 0.086c0.697-0.358 1.548 0.472 1.178 1.157-0.215 0.559-1.031 0.707-1.447 0.281-0.441-0.409-0.297-1.216 0.27-1.438zM9.556 0.881c0.423-0.171 0.96 0.21 0.916 0.664 0.045 0.493-0.568 0.856-0.999 0.621-0.572-0.218-0.506-1.131 0.083-1.286zM24.913 2.181c-0.662-0.079-0.767-1.102-0.129-1.308 0.494-0.237 0.948 0.208 1.020 0.668-0.104 0.393-0.439 0.754-0.89 0.64zM11.262 4.021c0.708-0.441 1.718 0.216 1.609 1.025-0.037 0.817-1.14 1.29-1.762 0.738-0.602-0.434-0.51-1.429 0.153-1.762zM22.070 4.488c0.316-0.801 1.596-0.825 1.955-0.045 0.355 0.607-0.082 1.358-0.715 1.564-0.839 0.154-1.635-0.738-1.24-1.519zM16.151 5.962c-0.007-0.688 0.63-1.201 1.295-1.248 0.441 0.087 0.922 0.272 1.111 0.71 0.353 0.604 0.040 1.436-0.598 1.713-0.291 0.161-0.636 0.1-0.953 0.082-0.485-0.234-0.893-0.694-0.856-1.256zM5.001 6.965c0.647-0.391 1.519 0.323 1.274 1.014-0.135 0.598-0.952 0.841-1.419 0.459-0.498-0.358-0.419-1.217 0.144-1.473zM28.945 6.963c0.549-0.419 1.454 0.062 1.389 0.743 0.037 0.621-0.746 1.090-1.291 0.77-0.6-0.265-0.661-1.173-0.098-1.513zM19.287 8.201c0.905-0.32 1.981 0.063 2.497 0.857 0.681 0.971 0.319 2.45-0.738 3.007-1.095 0.659-2.693 0.1-3.097-1.102-0.459-1.077 0.21-2.424 1.338-2.761zM13.974 8.307c1.004-0.466 2.354-0.075 2.839 0.935 0.57 0.983 0.129 2.352-0.89 2.859-1.021 0.57-2.462 0.138-2.956-0.917-0.554-1.021-0.062-2.407 1.008-2.877zM8.655 10.096c0.076-0.636 0.686-1.050 1.302-1.093 0.663 0.079 1.193 0.585 1.265 1.245-0.043 0.654-0.557 1.292-1.261 1.288-0.774 0.066-1.454-0.692-1.306-1.441zM24.367 9.141c0.795-0.455 1.899 0.208 1.864 1.106 0.055 0.952-1.167 1.623-1.959 1.065-0.822-0.465-0.758-1.775 0.095-2.171zM11.812 12.497c0.93-0.252 1.993 0.18 2.449 1.020 0.5 0.846 0.295 2.022-0.481 2.643-0.995 0.911-2.831 0.545-3.36-0.698-0.609-1.139 0.131-2.666 1.391-2.966zM21.889 12.492c0.904-0.254 1.966 0.088 2.452 0.899 0.643 0.927 0.336 2.309-0.621 2.906-1.002 0.694-2.554 0.329-3.106-0.755-0.668-1.122 0.004-2.708 1.274-3.050zM5.831 13.55c0.803-0.299 1.694 0.573 1.368 1.357-0.199 0.714-1.221 0.978-1.75 0.451-0.618-0.494-0.389-1.594 0.381-1.808zM27.604 14.687c-0.023-0.655 0.464-1.235 1.146-1.271 0.55 0.086 1.085 0.522 1.042 1.112 0.050 0.778-0.903 1.307-1.577 0.941-0.316-0.158-0.478-0.477-0.611-0.782zM1.882 13.934c0.483-0.208 1.081 0.205 0.971 0.733-0.026 0.598-0.923 0.828-1.253 0.328-0.291-0.347-0.117-0.882 0.282-1.061zM32.353 13.922c0.34-0.238 0.886-0.067 1.021 0.324 0.229 0.427-0.191 1.012-0.679 0.94-0.686 0.062-0.908-0.967-0.342-1.264zM14.437 16.792c1.272-0.325 2.639 0.718 2.647 2.006 0.083 1.302-1.263 2.456-2.565 2.155-1.006-0.159-1.796-1.113-1.763-2.113-0.003-0.957 0.731-1.846 1.682-2.048zM19.474 16.789c1.291-0.355 2.698 0.707 2.678 2.025 0.068 1.278-1.236 2.393-2.511 2.14-1.199-0.153-2.084-1.449-1.75-2.594 0.169-0.763 0.817-1.384 1.582-1.571zM9.763 17.582c0.893-0.15 1.73 0.83 1.368 1.665-0.264 0.889-1.579 1.13-2.161 0.404-0.682-0.697-0.173-1.973 0.793-2.069zM24.533 17.621c0.796-0.328 1.774 0.35 1.713 1.2 0.032 0.936-1.175 1.582-1.954 1.035-0.882-0.491-0.722-1.934 0.241-2.235zM28.661 21.695c-0.312-0.572 0.255-1.33 0.9-1.224 0.321-0.005 0.546 0.244 0.752 0.453 0.042 0.339 0.113 0.743-0.173 1.004-0.388 0.483-1.268 0.346-1.479-0.233zM4.998 20.63c0.603-0.395 1.471 0.194 1.336 0.888-0.072 0.614-0.858 0.964-1.375 0.616-0.555-0.316-0.535-1.216 0.040-1.504zM16.915 21.915c0.79-0.343 1.796 0.334 1.721 1.189 0.059 0.946-1.186 1.6-1.958 1.033-0.858-0.488-0.715-1.922 0.237-2.222zM11.396 23.182c0.673-0.348 1.575 0.253 1.514 0.994 0.020 0.608-0.583 1.126-1.193 1.037-0.505-0.011-0.835-0.456-0.997-0.88 0.008-0.462 0.201-0.976 0.675-1.15zM22.576 23.192c0.692-0.421 1.675 0.183 1.609 0.975 0.018 0.828-1.093 1.358-1.737 0.814-0.624-0.426-0.547-1.451 0.128-1.79zM24.521 27.921c-0.308-0.458 0.055-1.010 0.554-1.114 0.402 0.080 0.826 0.378 0.742 0.836-0.059 0.62-0.98 0.81-1.296 0.278zM9.087 27.524c0.123-0.363 0.419-0.724 0.854-0.629 0.633 0.044 0.821 0.983 0.267 1.272-0.498 0.331-1.076-0.122-1.121-0.643zM16.533 27.94c0.121-0.537 0.828-0.798 1.293-0.513 0.308 0.13 0.398 0.469 0.477 0.757-0.042 0.15-0.080 0.3-0.117 0.45-0.191 0.222-0.436 0.445-0.753 0.437-0.59 0.068-1.122-0.588-0.9-1.13z"></path>
</svg>
