<!-- Generated by IcoMoon.io -->
<svg version="1.1" xmlns="http://www.w3.org/2000/svg" width="32" height="32" viewBox="0 0 32 32">
<title>add</title>
<path d="M25.296 16.889h-4.762l-0.832-2.535h5.595v-0.008c0.397 0 0.72-0.322 0.72-0.72s-0.322-0.72-0.72-0.72h-6.067l-2.43-7.417c-0.060-0.517-0.495-0.915-1.027-0.915-0.51 0-0.93 0.367-1.020 0.855l-5.85 17.661c0 0 0 0 0 0v0 0c-0.030 0.090-0.045 0.188-0.045 0.285 0 0.54 0.435 0.975 0.975 0.975 0.457 0 0.832-0.315 0.945-0.735l4.972-14.864 1.395 4.147h-1.222c-0.397 0-0.72 0.322-0.72 0.72s0.322 0.72 0.72 0.72v0.008h1.71l0.855 2.535h-2.565c-0.397 0-0.72 0.322-0.72 0.72s0.322 0.72 0.72 0.72v0.008h3.052l1.372 4.065h-7.297v0.008c-0.525 0.045-0.937 0.487-0.937 1.020s0.412 0.975 0.937 1.020v0.008h8.624c0 0 0 0 0.008 0 0.532 0 0.967-0.435 0.967-0.967 0-0.157-0.038-0.3-0.098-0.427v0l-1.545-4.717h4.29v-0.008c0.397 0 0.72-0.322 0.72-0.72s-0.322-0.72-0.72-0.72z"></path>
</svg>
