<!-- Generated by IcoMoon.io -->
<svg version="1.1" xmlns="http://www.w3.org/2000/svg" width="21" height="32" viewBox="0 0 21 32">
<title>aeur</title>
<path d="M10.645 21.29c-5.879 0-10.645-4.766-10.645-10.645s4.766-10.645 10.645-10.645c5.879 0 10.645 4.766 10.645 10.645v0c-0.008 5.876-4.769 10.638-10.644 10.645h-0.001zM10.645 10.58c-0.036 0-0.065 0.029-0.065 0.065s0.029 0.065 0.065 0.065c0.036 0 0.065-0.029 0.065-0.065v0c-0.004-0.034-0.031-0.061-0.065-0.065l-0-0z"></path>
<path d="M10.645 32c-5.879 0-10.645-4.766-10.645-10.645s4.766-10.645 10.645-10.645c5.879 0 10.645 4.766 10.645 10.645v0c-0.008 5.876-4.769 10.638-10.644 10.645h-0.001zM10.645 21.29c-0.036 0-0.065 0.029-0.065 0.065s0.029 0.065 0.065 0.065c0.036 0 0.065-0.029 0.065-0.065v0c-0.004-0.034-0.031-0.061-0.065-0.065l-0-0z"></path>
</svg>
