<!-- Generated by IcoMoon.io -->
<svg version="1.1" xmlns="http://www.w3.org/2000/svg" width="32" height="32" viewBox="0 0 32 32">
<title>arg</title>
<path fill="#a71435" d="M8.899 1.667c2.069-1.049 4.512-1.663 7.097-1.663 8.823 0 15.975 7.152 15.975 15.975 0 4.017-1.482 7.687-3.93 10.494l0.016-0.019c-0.796-1.734-1.407-3.553-2.089-5.344l-4.122-10.802c-0.398-1.094-1.066-2.146-2.104-2.715-1.032-0.509-2.246-0.806-3.529-0.806-0.404 0-0.802 0.030-1.191 0.087l0.044-0.005c-1.279 0.142-2.615 0.583-3.482 1.592-0.824 0.952-1.194 2.175-1.663 3.326l-2.97 7.533c-0.995 2.388-1.833 4.861-2.914 7.234-1.508-1.624-2.658-3.602-3.313-5.794l-0.027-0.104c-0.441-1.396-0.696-3.001-0.696-4.665 0-6.252 3.589-11.667 8.819-14.295l0.092-0.042z"></path>
<path fill="#000" d="M14.84 12.554c0.284-0.853 1.421-1.137 2.16-0.654 0.398 0.298 0.54 0.81 0.725 1.265 1.848 4.832 3.667 9.693 5.5 14.54 0.242 0.696 0.597 1.364 0.739 2.089-0.114 0.121-0.245 0.225-0.39 0.308l-0.008 0.004c-2.187 1.193-4.789 1.894-7.556 1.894-2.013 0-3.94-0.372-5.715-1.050l0.11 0.037c-0.796-0.327-1.62-0.611-2.317-1.109 0.071-0.654 0.398-1.236 0.64-1.833 2.047-5.159 4.051-10.333 6.111-15.492z"></path>
</svg>
