<!-- Generated by IcoMoon.io -->
<svg version="1.1" xmlns="http://www.w3.org/2000/svg" width="32" height="32" viewBox="0 0 32 32">
<title>atom</title>
<path fill="#2e3148" d="M32 16c0 8.837-7.163 16-16 16s-16-7.163-16-16c0-8.837 7.163-16 16-16s16 7.163 16 16z"></path>
<path fill="#1b1e36" d="M25.284 16c0 5.127-4.157 9.284-9.284 9.284s-9.284-4.157-9.284-9.284c0-5.127 4.157-9.284 9.284-9.284s9.284 4.157 9.284 9.284z"></path>
<path fill="#6f7390" d="M16.033 2.042c-1.727 0-3.127 6.264-3.127 13.991s1.4 13.992 3.127 13.992 3.128-6.264 3.128-13.992-1.401-13.991-3.128-13.991zM16.249 29.235c-0.198 0.264-0.395 0.066-0.395 0.066-0.795-0.922-1.193-2.634-1.193-2.634-1.391-4.477-1.060-14.091-1.060-14.091 0.654-7.632 1.844-9.435 2.248-9.835 0.045-0.044 0.106-0.071 0.173-0.071 0.054 0 0.104 0.017 0.144 0.046l-0.001-0.001c0.587 0.416 1.080 2.156 1.080 2.156 1.454 5.399 1.323 10.469 1.323 10.469 0.132 4.412-0.729 9.35-0.729 9.35-0.662 3.753-1.59 4.543-1.59 4.543z"></path>
<path fill="#6f7390" d="M28.169 9.070c-0.86-1.499-6.989 0.404-13.695 4.25s-11.436 8.178-10.577 9.676 6.99-0.404 13.695-4.25 11.436-8.178 10.577-9.676zM4.689 22.79c-0.329-0.042-0.255-0.312-0.255-0.312 0.404-1.148 1.689-2.345 1.689-2.345 3.193-3.435 11.697-7.932 11.697-7.932 6.945-3.231 9.102-3.095 9.648-2.944 0.105 0.030 0.181 0.125 0.181 0.238 0 0.009-0 0.018-0.001 0.027l0-0.001c-0.066 0.716-1.333 2.010-1.333 2.010-3.957 3.951-8.421 6.36-8.421 6.36-3.761 2.311-8.474 4.020-8.474 4.020-3.585 1.291-4.732 0.88-4.732 0.88z"></path>
<path fill="#6f7390" d="M28.139 23.046c0.866-1.495-3.852-5.847-10.535-9.721s-12.811-5.801-13.677-4.304 3.852 5.847 10.538 9.721 12.808 5.8 13.674 4.304zM4.501 9.598c-0.128-0.303 0.142-0.377 0.142-0.377 1.196-0.226 2.877 0.289 2.877 0.289 4.572 1.041 12.723 6.147 12.723 6.147 6.276 4.391 7.239 6.326 7.383 6.875 0.005 0.019 0.008 0.040 0.008 0.062 0 0.099-0.059 0.185-0.143 0.224l-0.002 0.001c-0.654 0.3-2.407-0.147-2.407-0.147-5.402-1.449-9.723-4.103-9.723-4.103-3.882-2.094-7.721-5.316-7.721-5.316-2.917-2.456-3.135-3.654-3.135-3.654z"></path>
<path fill="#b7b9c8" d="M17.646 16c0 0.909-0.737 1.646-1.646 1.646s-1.646-0.737-1.646-1.646c0-0.909 0.737-1.646 1.646-1.646s1.646 0.737 1.646 1.646z"></path>
<path fill="#b7b9c8" d="M23.704 9.679c0 0.545-0.427 0.988-0.955 0.988s-0.955-0.442-0.955-0.988c0-0.545 0.427-0.988 0.955-0.988s0.955 0.442 0.955 0.988z"></path>
<path fill="#b7b9c8" d="M8.033 13.037c0 0.545-0.427 0.988-0.955 0.988s-0.955-0.442-0.955-0.988c0-0.545 0.427-0.988 0.955-0.988s0.955 0.442 0.955 0.988z"></path>
<path fill="#b7b9c8" d="M15.012 25.152c0 0.545-0.427 0.988-0.955 0.988s-0.955-0.442-0.955-0.988c0-0.545 0.427-0.988 0.955-0.988s0.955 0.442 0.955 0.988z"></path>
</svg>
