<!-- Generated by IcoMoon.io -->
<svg version="1.1" xmlns="http://www.w3.org/2000/svg" width="32" height="32" viewBox="0 0 32 32">
<title>audr</title>
<path fill="#30337d" d="M7.228 12.357l4.811 2.496 2.586-1.344-6.144-3.192v-5.837l11.767 6.113 2.586-1.344-15.094-7.841c-0.151-0.080-0.329-0.127-0.519-0.127-0.622 0-1.126 0.504-1.126 1.126v0 8.084c0 0.807 0.455 1.508 1.122 1.86l0.011 0.006z"></path>
<path fill="#fff" d="M25.906 20.207v-0.33c-0.001 0.418-0.124 0.807-0.335 1.134l0.005-0.008c0.204-0.201 0.33-0.481 0.33-0.79 0-0.002 0-0.005-0-0.007v0z"></path>
<path fill="#30337d" d="M25.576 10.997c-0.203-0.204-0.485-0.331-0.796-0.331-0.19 0-0.369 0.047-0.525 0.13l0.006-0.003-17.033 8.849c-0.679 0.358-1.133 1.059-1.133 1.866v0 8.084c0 0.622 0.504 1.126 1.126 1.126 0.19 0 0.368-0.047 0.525-0.13l-0.006 0.003 17.033-8.849c0.676-0.361 1.129-1.060 1.133-1.865v-8.084c0-0.002 0-0.004 0-0.007 0-0.309-0.126-0.588-0.33-0.79l-0-0zM23.521 19.706l-15.043 7.814v-5.841l15.040-7.814z"></path>
</svg>
