<!-- Generated by IcoMoon.io -->
<svg version="1.1" xmlns="http://www.w3.org/2000/svg" width="32" height="32" viewBox="0 0 32 32">
<title>bab</title>
<path fill="#f39e17" d="M22.996 14.407h4.848l0.36-1.967h-4.682c-0.665 0.028-1.829 0.249-2.577 0.859-0.277-1.025-2.965-0.859-2.965-0.859l0.36-1.967h-1.108l-0.36 1.967h-1.081l0.305-1.967h-1.136l-0.416 1.967h-1.191l-0.61 3.103-0.803-3.075h-2.687l-4.932 7.342h4.1l0.416-1.939h-0.831l2.383-3.519 0.859 3.519h-0.859l-0.388 1.939h3.048l-0.249 1.33h1.191l0.249-1.33h1.053l-0.249 1.33h1.247l0.222-1.33c0 0 1.274 0 1.552 0 0.471 0.028 1.635-0.526 1.856-0.942 1.025 0.997 2.189 0.942 2.189 0.942h4.682l0.305-1.939-4.211-0.028c-2.881 0-1.662-3.463 0.111-3.436zM17.732 17.842h-3.103l0.249-0.942h3.020c0.72 0 0.471 0.942-0.166 0.942zM18.203 15.293h-3.103l0.249-0.942h3.020c0.72 0 0.443 0.942-0.166 0.942z"></path>
</svg>
