<!-- Generated by IcoMoon.io -->
<svg version="1.1" xmlns="http://www.w3.org/2000/svg" width="32" height="32" viewBox="0 0 32 32">
<title>bcbc</title>
<path fill="#fff" d="M30.856 10.593c2.986 8.205-1.244 17.277-9.449 20.263s-17.277-1.244-20.263-9.449c-2.986-8.205 1.244-17.277 9.449-20.263s17.277 1.244 20.263 9.449z"></path>
<path fill="#004ab5" d="M11.904 5.59c-2.852 1.096-5.096 3.238-6.299 5.948l-0.029 0.072c-0.58 1.299-0.922 2.815-0.931 4.411-0.025 4.411 2.501 8.241 6.194 10.093l0.065 0.030c1.427 0.719 3.11 1.144 4.892 1.154 4.224 0.024 7.916-2.292 9.847-5.731l0.030-0.057-9.814-5.425 3.981-10.483c-1.163-0.455-2.51-0.723-3.919-0.73-1.443-0.008-2.825 0.257-4.095 0.747l0.076-0.026zM12.604 7.605c0.98-0.381 2.114-0.596 3.299-0.583 1.125 0.012 2.2 0.228 3.191 0.612l-0.062-0.021-3.224 8.489 7.947 4.393c-1.596 2.846-4.606 4.723-8.043 4.687-1.427-0.015-2.774-0.359-3.97-0.958l0.053 0.024c-3.058-1.531-5.106-4.654-5.068-8.241 0.013-1.276 0.29-2.488 0.776-3.585l-0.023 0.059c0.997-2.254 2.816-3.988 5.062-4.854l0.062-0.021zM16.344 0.194c-0.167-0.004-0.364-0.005-0.561-0.002-1.864 0.026-3.647 0.373-5.299 0.988l0.11-0.036c-6.197 2.302-10.495 8.207-10.401 15.074 0.026 1.864 0.373 3.647 0.988 5.299l-0.036-0.11c2.302 6.197 8.207 10.495 15.074 10.401 1.864-0.026 3.647-0.373 5.299-0.988l-0.11 0.036c6.197-2.302 10.495-8.207 10.401-15.074-0.026-1.864-0.373-3.647-0.988-5.299l0.036 0.11c-2.237-6.022-7.87-10.247-14.484-10.398l-0.028-0zM16.365 1.987c1.618 0.066 3.141 0.394 4.554 0.942l-0.096-0.033-5.015 13.205 12.362 6.834c-2.456 4.38-7.069 7.292-12.362 7.292-2.273 0-4.42-0.537-6.322-1.49l0.081 0.037c-4.708-2.357-7.884-7.143-7.884-12.672 0-2.038 0.431-3.975 1.208-5.724l-0.036 0.090c1.55-3.502 4.376-6.202 7.874-7.55l0.097-0.033c1.48-0.575 3.192-0.908 4.982-0.908 0.196 0 0.391 0.004 0.586 0.012l-0.028-0.001zM26.008 6.869c0.339-0 0.653 0.040 0.943 0.122 0.853 0.235 1.43 0.764 1.73 1.59 0.182 0.501 0.222 0.993 0.12 1.475-0.093 0.479-0.314 0.91-0.664 1.293 0.657-0.028 1.233 0.118 1.728 0.439 0.491 0.311 0.853 0.785 1.086 1.424 0.329 0.904 0.229 1.73-0.299 2.479-0.522 0.735-1.456 1.348-2.802 1.838l-5.334 1.941-3.754-10.314 5.039-1.834c0.825-0.3 1.561-0.451 2.208-0.452zM25.226 9.003c-0.306 0.001-0.662 0.075-1.067 0.223l-2.372 0.864 0.885 2.431 2.372-0.864c0.589-0.215 0.999-0.48 1.228-0.797s0.271-0.677 0.124-1.080c-0.147-0.403-0.408-0.647-0.784-0.733-0.119-0.030-0.248-0.044-0.387-0.044zM27.227 13.003c-0.323 0.003-0.702 0.084-1.137 0.242l-2.785 1.014 0.928 2.549 2.785-1.014c0.629-0.229 1.063-0.504 1.302-0.824 0.249-0.324 0.295-0.703 0.138-1.135-0.204-0.561-0.614-0.838-1.23-0.833z"></path>
</svg>
