<!-- Generated by IcoMoon.io -->
<svg version="1.1" xmlns="http://www.w3.org/2000/svg" width="32" height="32" viewBox="0 0 32 32">
<title>bcio</title>
<path fill="#3f43ad" d="M15.984 14.651c-0.722 0-1.308 0.587-1.308 1.308s0.587 1.308 1.308 1.308c0.721 0 1.308-0.587 1.308-1.308s-0.587-1.308-1.308-1.308z"></path>
<path fill="#3f43ad" d="M22.032 11.022c-0.722 0-1.308 0.587-1.308 1.308s0.586 1.308 1.308 1.308c0.721 0 1.308-0.587 1.308-1.308s-0.587-1.308-1.308-1.308z"></path>
<path fill="#3f43ad" d="M28.078 7.394c-0.721 0-1.308 0.587-1.308 1.308s0.587 1.309 1.308 1.309c0.722 0 1.308-0.587 1.308-1.309s-0.586-1.308-1.308-1.308z"></path>
<path fill="#3f43ad" d="M9.937 3.765c-0.721 0-1.308 0.587-1.308 1.308s0.587 1.308 1.308 1.308c0.721 0 1.308-0.587 1.308-1.308s-0.587-1.308-1.308-1.308z"></path>
<path fill="#3f43ad" d="M15.984 0.137c-0.722 0-1.308 0.587-1.308 1.308s0.587 1.308 1.308 1.308c0.721 0 1.308-0.587 1.308-1.308s-0.587-1.308-1.308-1.308z"></path>
<path fill="#3f43ad" d="M15.984 7.394c-0.722 0-1.308 0.587-1.308 1.308s0.587 1.309 1.308 1.309c0.721 0 1.308-0.587 1.308-1.309s-0.587-1.308-1.308-1.308z"></path>
<path fill="#3f43ad" d="M22.032 3.765c-0.722 0-1.308 0.587-1.308 1.308s0.586 1.308 1.308 1.308c0.721 0 1.308-0.587 1.308-1.308s-0.587-1.308-1.308-1.308z"></path>
<path fill="#3f43ad" d="M22.032 18.279c-0.722 0-1.308 0.587-1.308 1.307s0.586 1.308 1.308 1.308c0.721 0 1.308-0.587 1.308-1.308s-0.587-1.307-1.308-1.307z"></path>
<path fill="#3f43ad" d="M28.078 14.651c-0.721 0-1.308 0.587-1.308 1.308s0.587 1.308 1.308 1.308c0.722 0 1.308-0.587 1.308-1.308s-0.586-1.308-1.308-1.308z"></path>
<path fill="#3f43ad" d="M22.032 25.536c-0.722 0-1.308 0.587-1.308 1.308s0.586 1.308 1.308 1.308c0.721 0 1.308-0.587 1.308-1.308s-0.587-1.308-1.308-1.308z"></path>
<path fill="#3f43ad" d="M28.078 21.907c-0.721 0-1.308 0.587-1.308 1.308s0.587 1.308 1.308 1.308c0.722 0 1.308-0.587 1.308-1.308s-0.586-1.308-1.308-1.308z"></path>
<path fill="#3f43ad" d="M15.984 29.164c-0.722 0-1.308 0.587-1.308 1.308s0.587 1.308 1.308 1.308c0.721 0 1.308-0.587 1.308-1.308s-0.587-1.308-1.308-1.308z"></path>
<path fill="#3f43ad" d="M15.984 21.907c-0.722 0-1.308 0.587-1.308 1.308s0.587 1.308 1.308 1.308c0.721 0 1.308-0.587 1.308-1.308s-0.587-1.308-1.308-1.308z"></path>
<path fill="#3f43ad" d="M9.937 11.022c-0.721 0-1.308 0.587-1.308 1.308s0.587 1.308 1.308 1.308c0.721 0 1.308-0.587 1.308-1.308s-0.587-1.308-1.308-1.308z"></path>
<path fill="#3f43ad" d="M9.937 25.536c-0.721 0-1.308 0.587-1.308 1.308s0.587 1.308 1.308 1.308c0.721 0 1.308-0.587 1.308-1.308s-0.587-1.308-1.308-1.308z"></path>
<path fill="#3f43ad" d="M9.937 18.279c-0.721 0-1.308 0.587-1.308 1.307s0.587 1.308 1.308 1.308c0.721 0 1.308-0.587 1.308-1.308s-0.587-1.307-1.308-1.307z"></path>
<path fill="#3f43ad" d="M3.89 7.394c-0.721 0-1.308 0.587-1.308 1.308s0.587 1.309 1.308 1.309c0.721 0 1.308-0.587 1.308-1.309s-0.587-1.308-1.308-1.308z"></path>
<path fill="#3f43ad" d="M3.89 21.907c-0.721 0-1.308 0.587-1.308 1.308s0.587 1.308 1.308 1.308c0.721 0 1.308-0.587 1.308-1.308s-0.587-1.308-1.308-1.308z"></path>
<path fill="#3f43ad" d="M3.89 14.651c-0.721 0-1.308 0.587-1.308 1.308s0.587 1.308 1.308 1.308c0.721 0 1.308-0.587 1.308-1.308s-0.587-1.308-1.308-1.308z"></path>
</svg>
