<!-- Generated by IcoMoon.io -->
<svg version="1.1" xmlns="http://www.w3.org/2000/svg" width="32" height="32" viewBox="0 0 32 32">
<title>booty</title>
<path fill="#00b4f4" d="M4.956 24.933v0.206h-2.116v-3.88l-0.066 0.215-2.023-0.619 1.143-3.738-0.141 0.209-1.754-1.183 2.192-3.249-0.209 0.169-1.331-1.644 3.154-2.554-0.403 0.155-0.758-1.975 3.767-1.446-0.44 0.031-0.148-2.11 3.944-0.276-0.356-0.082 0.476-2.061 3.768 0.87-0.237-0.137 1.058-1.832 3.286 1.897-0.128-0.137 1.547-1.443 2.559 2.744-0.055-0.112 1.902-0.927 1.642 3.365-0.015-0.094 2.090-0.331 0.616 3.887 0.044-0.277 2.090 0.331-0.625 3.945 0.154-0.317 1.902 0.927-1.761 3.61 0.257-0.276 1.547 1.443-2.735 2.933 0.331-0.191 1.058 1.832-3.438 1.985 0.346-0.080 0.476 2.061-3.799 0.877 0.293 0.020-0.148 2.11-3.803-0.266 0.194 0.074-0.758 1.975-3.64-1.397 0.23 0.186-1.331 1.644-3.005-2.433 0.148 0.22-1.754 1.183-2.148-3.184 0.064 0.209-2.024 0.619-1.125-3.681zM4.956 22.419l1.321-0.404 1.027 3.359 1.143-0.771 1.953 2.895 0.872-1.077 2.706 2.191 0.484-1.261 3.261 1.252 0.096-1.366 3.49 0.244-0.314-1.36 3.421-0.79-0.709-1.228 3.054-1.763-1.046-0.975 2.412-2.587-1.287-0.628 1.551-3.18-1.407-0.223 0.553-3.492-1.346 0.213-0.553-3.491-1.212 0.591-1.54-3.158-0.988 0.921-2.383-2.555-0.682 1.181-3.017-1.742-0.312 1.35-3.394-0.783 0.099 1.409-3.484 0.244 0.515 1.342-3.28 1.259 0.883 1.090-2.754 2.23 1.162 0.784-1.985 2.943 1.338 0.409-1.037 3.392h1.39v3.534zM9.632 9.481h4.267c0.496 0 0.989 0.035 1.479 0.105s0.921 0.21 1.293 0.42c0.372 0.21 0.655 0.504 0.848 0.881s0.248 0.878 0.162 1.503c-0.086 0.646-0.342 1.182-0.768 1.608s-0.945 0.73-1.56 0.913v0.032c0.366 0.054 0.692 0.159 0.978 0.315s0.52 0.355 0.703 0.598c0.183 0.242 0.312 0.525 0.388 0.848s0.086 0.668 0.032 1.034c-0.086 0.603-0.285 1.107-0.598 1.511s-0.69 0.73-1.131 0.978c-0.442 0.248-0.927 0.426-1.454 0.533s-1.045 0.162-1.551 0.162h-4.687l1.6-11.441zM11.507 14.054h1.826c0.194 0 0.388-0.022 0.582-0.065s0.374-0.113 0.541-0.21c0.167-0.097 0.307-0.226 0.42-0.388s0.186-0.355 0.218-0.582c0.032-0.237 0.008-0.434-0.073-0.59s-0.197-0.277-0.347-0.364c-0.151-0.086-0.326-0.148-0.525-0.186s-0.396-0.057-0.59-0.057h-1.713l-0.339 2.44zM10.844 18.789h2.263c0.194 0 0.396-0.022 0.606-0.065s0.401-0.119 0.574-0.226c0.172-0.108 0.323-0.248 0.453-0.42s0.21-0.382 0.242-0.63c0.032-0.269-0.005-0.487-0.113-0.654s-0.259-0.294-0.453-0.38c-0.194-0.086-0.407-0.145-0.638-0.178s-0.45-0.048-0.655-0.048h-1.907l-0.372 2.602zM23.008 9.662l-2.675 9.773-2.209-0.155 1.665-10.077 3.219 0.459zM20.675 20.455l-0.695 3.453-2.939-0.856 0.673-3.313 2.961 0.715z"></path>
</svg>
