<!-- Generated by IcoMoon.io -->
<svg version="1.1" xmlns="http://www.w3.org/2000/svg" width="27" height="32" viewBox="0 0 27 32">
<title>btch</title>
<path d="M10.064 12.77c-0.466 0.305-1.002 0.628-1.556 0.965v3.043c0.503-0.254 1.021-0.513 1.556-0.767z"></path>
<path d="M2.282 18.399c0.198 0.38 0.589 0.636 1.039 0.637h0c0.192-0.001 0.373-0.047 0.533-0.128l-0.007 0.003c0.356-0.18 0.85-0.43 1.455-0.734 0.009-1.224 0.014-2.152 0.014-2.522v-0.097c-1.233 0.614-2.171 1.085-2.531 1.265-0.379 0.199-0.633 0.59-0.633 1.040 0 0.195 0.048 0.38 0.132 0.541l-0.003-0.006z"></path>
<path d="M10.503 18.090c0 0.001 0 0.002 0 0.003 0 0.641 0.519 1.16 1.159 1.161h0.014c0.643-0.001 1.163-0.521 1.164-1.164v-9.643c-0.001-0.107-0.014-0.21-0.039-0.309l0.002 0.009c-0.138-0.501-0.589-0.864-1.126-0.864-0 0-0.001 0-0.001 0h0c-0.051 0-0.102 0.005-0.152 0.009-0.575 0.073-1.016 0.559-1.016 1.148 0 0.001 0 0.001 0 0.002v-0 4.817c-0.005 1.616-0.005 3.224-0.005 4.831z"></path>
<path d="M27.087 10.622c-0.074-0.563-0.448-0.877-1.016-1.025-0.453-0.115-0.919-0.139-1.395-0.143-1.108-0.005-2.208 0.175-3.297 0.388-1.878 0.365-3.445 0.771-4.975 1.258l0.311-0.085c-0.462 0.143-0.919 0.291-1.381 0.439 0-0.005-0.005-0.014-0.005-0.018l0.083-0.069c0.891-0.762 1.778-1.524 2.674-2.277 1.967-1.663 3.741-3.487 5.39-5.413 0.448-0.522 0.836-1.081 1.035-1.718 0.3-0.956-0.037-1.552-1.007-1.82-0.406-0.111-0.831-0.134-1.256-0.139-0.924-0.005-1.838 0.148-2.739 0.333-0.942 0.194-2.305 0.54-3.228 0.822-1.478 0.453-3.302 1.228-4.932 1.889-0.831 0.323-1.718 0.739-2.545 1.062l-3.131 1.275c-4.156 1.787-5.366 0.503-5.366 0.503 0.001 0.005 0.002 0.010 0.005 0.014l-0-0c-0.008-0.011-0.014-0.023-0.018-0.036l-0-0.001c-0.808 1.593-0.134 4.489 4.54 2.42 0.734-0.286 1.482-0.596 2.212-0.877 1.409-0.55 2.803-1.228 4.216-1.773 0.309-0.129 1.501-0.614 2.942-1.141 0.296-0.115 0.596-0.231 0.891-0.346 0.914-0.3 1.829-0.6 2.762-0.831 1.016-0.263 1.903-0.42 2.438-0.351 0.055 0.005 0.111 0.009 0.162 0.018 0.245 0.032 0.374 0.162 0.351 0.333-0.009 0.263-0.434 1.136-4.3 4.355-0.282 0.24-0.563 0.485-0.845 0.725-0.434 0.374-0.854 0.744-1.279 1.113l-0.356 0.314-0.005 0.005-0.166 0.148c-0.013 0.013-0.026 0.025-0.041 0.036l-0.001 0.001s-0.018 0.018-0.042 0.037l-0.323 0.245c-0.009 0.009-0.055 0.051-0.069 0.060v4.087c1.367-0.466 8.022-2.688 8.738-2.037 0.055 0.074 0.901 0.6-6.835 5.893-0.305 0.231-0.6 0.462-0.905 0.693l-1.118 0.854c-1.399 1.011-2.789 2.027-4.189 3.039l-0.605 0.439c-0.009 1.104-0.014 2.161-0.018 3.131l14.76-10.89c0.921-0.779 1.754-1.574 2.538-2.416l0.016-0.018c0.453-0.485 0.859-0.998 1.127-1.584 0.139-0.305 0.24-0.6 0.199-0.919z"></path>
<path d="M3.040 27.372c-0.171 0.212-0.274 0.484-0.274 0.78 0 0.28 0.092 0.539 0.249 0.747l-0.002-0.003c0.033 0.046 0.068 0.087 0.106 0.125l0 0c0.226 0.239 0.545 0.387 0.899 0.387 0.234 0 0.453-0.065 0.64-0.178l-0.006 0.003 0.591-0.434c0.005-0.887 0.014-1.967 0.023-3.131l-1.995 1.478c-0.087 0.067-0.163 0.141-0.229 0.224l-0.002 0.003z"></path>
<path d="M8.078 10.414c-0.138-0.501-0.59-0.864-1.126-0.864-0 0-0.001 0-0.001 0h0c-0.051 0-0.102 0.005-0.152 0.009-0.575 0.073-1.016 0.559-1.016 1.148 0 0.001 0 0.001 0 0.002v-0 4.817c0 0.974-0.042 5.81-0.079 9.823-0.009 1.15-0.018 2.231-0.023 3.131-0.009 1.145-0.014 2.004-0.014 2.355 0 0.001 0 0.002 0 0.003 0 0.641 0.519 1.16 1.159 1.161h0.014c0.643-0.001 1.163-0.521 1.164-1.164v-0c0-0.808 0.009-2.281 0.018-4.087 0.005-0.965 0.014-2.027 0.018-3.131 0.032-5.020 0.079-10.936 0.074-12.908-0.001-0.105-0.014-0.207-0.039-0.305l0.002 0.009z"></path>
</svg>
