<!-- Generated by IcoMoon.io -->
<svg version="1.1" xmlns="http://www.w3.org/2000/svg" width="32" height="32" viewBox="0 0 32 32">
<title>btdx</title>
<path fill="#fff" d="M31.408 16.074c0 8.522-6.908 15.43-15.43 15.43s-15.43-6.908-15.43-15.43c0-8.522 6.908-15.43 15.43-15.43s15.43 6.908 15.43 15.43z"></path>
<path fill="#000" d="M31.114 16.074c0 8.359-6.777 15.136-15.136 15.136s-15.136-6.777-15.136-15.136c0-8.359 6.777-15.136 15.136-15.136s15.136 6.777 15.136 15.136z"></path>
<path fill="#fff" d="M21.306 15.219c-0.88-0.019-1.667 0.381-2.176 1.014-0.147 0.182-0.41 0.227-0.608 0.102l-2.003-1.232c-0.138-0.086-0.224-0.237-0.224-0.4v-0.019c0-0.218 0.15-0.4 0.358-0.454 1.226-0.317 2.112-1.472 2.016-2.816-0.096-1.357-1.213-2.442-2.57-2.506-1.552-0.070-2.835 1.165-2.835 2.704 0 1.197 0.778 2.211 1.853 2.57 0.192 0.064 0.323 0.243 0.323 0.445v0.115c0 0.17-0.093 0.326-0.24 0.41l-1.907 1.069c-0.189 0.106-0.429 0.070-0.573-0.093-0.506-0.566-1.245-0.918-2.064-0.906-1.466 0.022-2.659 1.235-2.662 2.704-0.003 1.523 1.258 2.755 2.79 2.707 1.398-0.042 2.547-1.168 2.618-2.563 0.010-0.179 0-0.352-0.022-0.522-0.026-0.182 0.061-0.365 0.218-0.461l1.981-1.222c0.15-0.093 0.336-0.093 0.486-0.003l2.256 1.35c0.154 0.093 0.243 0.266 0.224 0.448-0.016 0.166-0.019 0.333-0.003 0.506 0.115 1.338 1.216 2.4 2.557 2.467 1.59 0.080 2.899-1.216 2.845-2.8-0.048-1.43-1.216-2.582-2.637-2.614z"></path>
<path fill="#fff" d="M15.933 1.994c-7.754 0-14.038 6.285-14.038 14.038s6.285 14.038 14.038 14.038c7.754 0 14.038-6.285 14.038-14.038s-6.285-14.038-14.038-14.038zM15.933 28.864c-7.088 0-12.832-5.747-12.832-12.835s5.744-12.832 12.832-12.832c7.088 0 12.835 5.744 12.835 12.832s-5.747 12.835-12.835 12.835z"></path>
<path fill="#fff" d="M22.79 11.802c-0.019 0.736-0.157 1.446-0.394 2.106 1.747 0.499 3.024 2.109 3.024 4.016 0 2.307-1.872 4.179-4.179 4.179-2.166 0-3.949-1.651-4.157-3.763-0.362 0.061-0.733 0.090-1.114 0.090-0.349 0-0.694-0.026-1.030-0.077 0.221 3.286 2.957 5.885 6.301 5.885 3.488 0 6.314-2.826 6.314-6.314 0-2.954-2.029-5.434-4.765-6.122z"></path>
<path fill="#fff" d="M10.701 22.102c-2.307 0-4.179-1.872-4.179-4.179s1.872-4.179 4.179-4.179c0.918 0 1.766 0.298 2.454 0.8-0.746-0.717-1.219-1.712-1.251-2.819-0.39-0.077-0.794-0.115-1.206-0.115-3.488 0-6.314 2.826-6.314 6.314s2.826 6.314 6.314 6.314c2.003 0 3.786-0.931 4.944-2.387-0.496-0.707-0.864-1.51-1.062-2.378-0.614 1.542-2.118 2.63-3.878 2.63z"></path>
<path fill="#fff" d="M20.038 11.61c0 1.152-0.48 2.192-1.251 2.931 0.688-0.499 1.536-0.797 2.454-0.797 0.246 0 0.486 0.022 0.72 0.061 0.253-0.685 0.39-1.427 0.39-2.198 0-3.523-2.854-6.378-6.378-6.378-3.376 0-6.138 2.624-6.362 5.942 0.355-0.058 0.72-0.086 1.091-0.086 0.419 0 0.826 0.038 1.222 0.109 0.208-2.051 1.939-3.654 4.045-3.654 2.246 0.003 4.067 1.824 4.067 4.070z"></path>
</svg>
