<!-- Generated by IcoMoon.io -->
<svg version="1.1" xmlns="http://www.w3.org/2000/svg" width="32" height="32" viewBox="0 0 32 32">
<title>cc</title>
<path fill="#ffd900" d="M13.446 0.279c0.855-0.179 1.837-0.282 2.843-0.282 0.144 0 0.288 0.002 0.432 0.006l-0.021-0.001c0.002 0 0.005 0 0.008 0 0.716 0 1.416 0.067 2.095 0.195l-0.070-0.011c1.307 0.179 2.566 0.595 3.794 1.061 0.893 0.399 1.829 0.774 2.555 1.452 0.203 0.148 0.094 0.442-0.085 0.558-0.416 0.267-0.915 0.344-1.389 0.448-2.138 0.367-4.314 0.532-6.413 1.102-0.942 0.211-1.847 0.557-2.743 0.915-1.665 0.745-3.196 1.839-4.303 3.301-0.211 0.31-0.417 0.623-0.612 0.944-0.175 0.343-0.352 0.684-0.496 1.042q-0.159 0.384-0.299 0.774c-0.189 0.554-0.281 1.131-0.422 1.698-0.044 0.372-0.070 0.748-0.146 1.116-0.051 0.844-0.026 1.688-0.020 2.532 0 0.281 0.076 0.557 0.080 0.839 0.004 0.275 0.044 0.54 0.116 0.791l-0.005-0.021c0.134 0.703 0.297 1.415 0.595 2.074 0.387 0.933 0.99 1.807 1.847 2.363 0.712 0.529 1.591 0.754 2.454 0.888 1.152 0.15 2.321 0.013 3.455-0.193 0.594-0.108 1.184-0.242 1.768-0.398 0.372-0.104 0.753-0.173 1.12-0.298 0.127-0.023 0.274-0.037 0.424-0.040l0.002-0c-0.459 0.409-0.921 0.817-1.441 1.147-1.77 1.142-3.829 1.736-5.882 2.12-0.929 0.19-1.873 0.302-2.808 0.464-1.065 0.154-2.168 0.281-3.128 0.803-0.288 0.202-0.509 0.475-0.709 0.759-0.061 0.122-0.173 0-0.241-0.045-0.219-0.25-0.499-0.434-0.736-0.665-0.252-0.246-0.502-0.49-0.744-0.746-0.39-0.454-0.791-0.901-1.135-1.391-0.686-0.929-1.293-1.925-1.738-2.991l-0.077-0.034c-0.056-0.306-0.211-0.578-0.315-0.868-0.213-0.535-0.416-1.188-0.571-1.859l-0.019-0.096c-0.051-0.168-0.099-0.377-0.133-0.591l-0.004-0.029c-0.068-0.213-0.114-0.46-0.129-0.716l-0-0.008c-0.131-0.576-0.106-1.17-0.189-1.752 0-0.485-0.032-0.974 0.025-1.458 0.065-0.402 0.039-0.813 0.122-1.214 0.082-0.324 0.065-0.665 0.168-0.985 0.121-0.661 0.267-1.227 0.449-1.777l-0.026 0.093c0.044-0.141 0.089-0.281 0.141-0.422 0.096-0.251 0.184-0.506 0.274-0.76 0.047-0.098 0.092-0.217 0.129-0.339l0.005-0.018 0.071-0.084c0.096-0.278 0.208-0.517 0.341-0.742l-0.010 0.018c0.118-0.241 0.24-0.48 0.376-0.711 0.015-0.027 0.046-0.080 0.061-0.108 0.045-0.096 0.096-0.189 0.15-0.281 0.844-1.322 1.829-2.575 3.016-3.609 1.417-1.266 3.071-2.305 4.881-3.039l0.113-0.040c0.901-0.367 1.96-0.672 3.058-0.866l0.097-0.014z"></path>
<path fill="#36b0f3" d="M25.703 4.47c0.293-0.171 0.497-0.449 0.7-0.713 3.456 2.967 5.631 7.34 5.631 12.221 0 4.015-1.472 7.687-3.906 10.505l0.017-0.021c-2.462 2.89-5.995 4.854-9.761 5.375-1.731 0.255-3.497 0.187-5.226-0.050-1.438-0.207-2.736-0.584-3.95-1.117l0.097 0.038c-0.67-0.295-1.337-0.639-1.86-1.162-0.135-0.117-0.22-0.313-0.132-0.484 0.135-0.207 0.376-0.31 0.602-0.384 0.651-0.189 1.32-0.297 1.988-0.4 1.208-0.211 2.428-0.345 3.626-0.61 1.992-0.43 3.984-1.040 5.708-2.157 1.169-0.746 2.202-1.719 2.961-2.884 1.090-1.645 1.594-3.615 1.714-5.569 0.061-1.453 0.027-2.92-0.277-4.347-0.278-1.232-0.764-2.474-1.684-3.372-0.703-0.722-1.66-1.171-2.649-1.343-1.64-0.306-3.316-0.010-4.924 0.352-0.753 0.178-1.495 0.402-2.255 0.548 1.082-1.019 2.407-1.747 3.799-2.245 0.799-0.296 1.63-0.492 2.457-0.687 1.811-0.407 3.664-0.563 5.49-0.877 0.638-0.134 1.286-0.263 1.834-0.618z"></path>
</svg>
