<!-- Generated by IcoMoon.io -->
<svg version="1.1" xmlns="http://www.w3.org/2000/svg" width="33" height="32" viewBox="0 0 33 32">
<title>colx</title>
<path d="M31.569 11.067l-2.591-2.591c-0.753-0.75-1.791-1.214-2.938-1.214-0.010 0-0.021 0-0.031 0h-0.417v-0.419c-0.003-1.184-0.482-2.256-1.256-3.034l0 0-2.561-2.585c-0.754-0.75-1.793-1.214-2.94-1.214-0.009 0-0.019 0-0.028 0h-11.952c-0.008-0-0.017-0-0.027-0-1.147 0-2.187 0.464-2.94 1.214l0-0-2.567 2.585c-0.75 0.754-1.214 1.794-1.214 2.943 0 0 0 0 0 0v0l-0.109 11.195c-0 0.007-0 0.016-0 0.025 0 1.158 0.463 2.207 1.214 2.973l2.59 2.59c0.754 0.75 1.793 1.214 2.94 1.214 0.009 0 0.019-0 0.028-0h0.472v0.413c0.002 1.183 0.479 2.255 1.25 3.034l2.584 2.584c0.754 0.75 1.793 1.214 2.94 1.214 0.009 0 0.019-0 0.028-0h11.964c0.008 0 0.017 0 0.027 0 1.147 0 2.187-0.464 2.94-1.214l2.591-2.591c0.75-0.753 1.214-1.791 1.214-2.938 0-0.010-0-0.021-0-0.031v0.002-11.188c0-0.008 0-0.017 0-0.027 0-1.147-0.464-2.187-1.214-2.94l0 0zM6.783 21.006c-0.001 0-0.002 0-0.003 0-0.115 0-0.219-0.046-0.295-0.121l-1.292-1.292-1.286-1.311-0.055-0.067c-0.029-0.043-0.050-0.094-0.060-0.149l-0-0.003c-0.001-0.013-0.002-0.027-0.002-0.042s0.001-0.030 0.002-0.044l-0 0.002v-11.176c0-0.001 0-0.002 0-0.003 0-0.115 0.046-0.219 0.121-0.295l2.591-2.591c0.077-0.074 0.182-0.12 0.297-0.121h11.953c0.001 0 0.003-0 0.004-0 0.067 0 0.13 0.016 0.186 0.044l-0.002-0.001c0.044 0.021 0.083 0.047 0.115 0.079l2.591 2.591c0.034 0.034 0.063 0.074 0.084 0.119l0.001 0.003v0.049c0.001 0.009 0.001 0.020 0.001 0.030s-0 0.021-0.001 0.032l0-0.001c0.002 0.016 0.004 0.035 0.004 0.055s-0.001 0.038-0.004 0.057l0-0.002v0.546c0 0.235-0.19 0.425-0.425 0.425v0h-2.020c-0.001 0-0.002 0-0.003 0-0.115 0-0.219-0.046-0.295-0.121l-1.171-1.171h-10.102l-1.038 1.038v9.708l1.038 1.013h10.102l1.171-1.213c0.028-0.023 0.060-0.044 0.094-0.060l0.003-0.001c0.053-0.027 0.116-0.042 0.182-0.042h2.075c0.139 0.002 0.263 0.070 0.339 0.175l0.001 0.001c0.049 0.068 0.079 0.153 0.079 0.245 0 0.001 0 0.003-0 0.004v-0 0.607c0 0.001 0 0.002 0 0.003 0 0.115-0.046 0.219-0.121 0.295l-2.585 2.585-0.073 0.061h-12.202zM29.015 25.223c0 0.001 0 0.002 0 0.003 0 0.115-0.046 0.219-0.121 0.295l-2.591 2.591c-0.077 0.074-0.182 0.12-0.297 0.121h-11.941c-0.001 0-0.003 0-0.004 0-0.067 0-0.13-0.016-0.186-0.044l0.002 0.001c-0.044-0.021-0.083-0.047-0.115-0.079l-2.591-2.591c-0.034-0.034-0.063-0.074-0.084-0.119l-0.001-0.003v-0.049c-0.001-0.009-0.001-0.020-0.001-0.030s0-0.021 0.001-0.032l-0 0.001c-0.002-0.016-0.004-0.035-0.004-0.055s0.001-0.038 0.004-0.057l-0 0.002v-0.546c0-0.235 0.19-0.425 0.425-0.425v0h2.008c0.001 0 0.002 0 0.003 0 0.115 0 0.219 0.046 0.295 0.121l1.171 1.171h10.102l1.038-1.038v-9.708l-1.038-1.025h-10.102l-1.171 1.213c-0.028 0.023-0.060 0.044-0.094 0.060l-0.003 0.001c-0.053 0.027-0.116 0.042-0.182 0.042h-2.087c-0.139-0.002-0.263-0.070-0.339-0.175l-0.001-0.001c-0.047-0.064-0.076-0.144-0.079-0.23l-0-0.001v-0.607c0-0.001 0-0.002 0-0.003 0-0.115 0.046-0.219 0.121-0.295l2.585-2.585 0.073-0.061h12.208c0.001 0 0.002 0 0.003 0 0.115 0 0.219 0.046 0.295 0.121l2.585 2.585 0.055 0.067c0.029 0.043 0.050 0.094 0.060 0.149l0 0.003c0.001 0.013 0.002 0.027 0.002 0.042s-0.001 0.030-0.002 0.044l0-0.002z"></path>
</svg>
