<!-- Generated by IcoMoon.io -->
<svg version="1.1" xmlns="http://www.w3.org/2000/svg" width="37" height="32" viewBox="0 0 37 32">
<title>ctxs</title>
<path d="M18.436 0.674c-0.248-0.558 0.645-0.955 0.893-0.422q8.709 14.999 17.419 30.024c-0.31 0-0.608-0.099-0.906-0.149l-15.496-3.089c-0.509-0.025-0.62-0.844-0.124-0.968l6.079-1.675c0.222-0.057 0.383-0.255 0.383-0.491 0-0.078-0.018-0.153-0.050-0.219l0.001 0.003-8.201-23.026z"></path>
<path d="M17.543 0.723c0.052 0.075 0.102 0.16 0.144 0.25l0.005 0.011c1.836 5.211 3.722 10.421 5.546 15.632 0.161 0.434-0.447 0.794-0.744 0.471-1.563-1.638-3.052-3.325-4.59-4.963-0.248-0.223-0.608-0.074-0.769 0.161l-15.98 18.771c-0.186 0.198-0.347 0.496-0.658 0.533-0.223 0-0.372-0.174-0.496-0.347v-0.285q8.784-15.111 17.543-30.235z"></path>
<path d="M12.655 18.601c0.298-0.087 0.695 0.124 0.595 0.484-0.62 2.159-1.278 4.305-1.923 6.451-0.099 0.273 0.149 0.521 0.409 0.533 8.362 1.675 16.724 3.412 25.086 5.087 0.161 0.025 0.273 0.149 0.397 0.248v0.347l-0.236 0.248h-35.495c3.722-4.466 7.431-8.957 11.166-13.399z"></path>
</svg>
