<!-- Generated by IcoMoon.io -->
<svg version="1.1" xmlns="http://www.w3.org/2000/svg" width="39" height="32" viewBox="0 0 39 32">
<title>dash</title>
<path fill="#008de4" d="M25.823 0h-14.355l-1.19 6.65 12.954 0.016c6.38 0 8.266 2.316 8.212 6.161-0.028 1.97-0.882 5.299-1.25 6.379-0.983 2.877-3.002 6.161-10.574 6.148l-12.592-0.005-1.192 6.652h14.323c5.052 0 7.202-0.587 9.476-1.639 5.044-2.329 8.046-7.307 9.248-13.804 1.791-9.675-0.439-16.557-13.059-16.557z"></path>
<path fill="#008de4" d="M5.273 12.66c-3.76 0-4.299 2.451-4.655 3.931-0.466 1.939-0.619 2.725-0.619 2.725h14.698c3.76 0 4.299-2.451 4.655-3.931 0.466-1.939 0.619-2.725 0.619-2.725z"></path>
</svg>
