<!-- Generated by IcoMoon.io -->
<svg version="1.1" xmlns="http://www.w3.org/2000/svg" width="24" height="32" viewBox="0 0 24 32">
<title>dock</title>
<path d="M13.186 8.521l-2.405-2.412c-0.322-0.308-0.522-0.741-0.522-1.221 0-0.933 0.756-1.689 1.689-1.689 0.453 0 0.865 0.178 1.168 0.469l-0.001-0.001 5.425 5.425c0.305 0.305 0.494 0.727 0.494 1.193s-0.189 0.888-0.494 1.193v0l-5.374 5.369c-0.301 0.281-0.706 0.453-1.151 0.453-0.932 0-1.688-0.756-1.688-1.688 0-0.445 0.172-0.85 0.454-1.152l-0.001 0.001 2.52-2.52c-0.438-0.080-0.943-0.125-1.458-0.125-0.011 0-0.022 0-0.034 0h0.002c-4.631 0.016-8.379 3.774-8.379 8.408 0 4.644 3.764 8.408 8.408 8.408 4.633 0 8.391-3.748 8.408-8.377v-18.568c0.027-0.911 0.772-1.64 1.687-1.64s1.66 0.729 1.687 1.637l0 0.002v18.693c0 0.033 0 0.066 0 0.099-0.13 6.422-5.367 11.579-11.809 11.579-6.523 0-11.811-5.288-11.811-11.811s5.287-11.81 11.809-11.811h0c0.001 0 0.003 0 0.004 0 0.482 0 0.958 0.028 1.426 0.084l-0.057-0.005z"></path>
</svg>
