<!-- Generated by IcoMoon.io -->
<svg version="1.1" xmlns="http://www.w3.org/2000/svg" width="36" height="32" viewBox="0 0 36 32">
<title>eqli</title>
<path d="M8.086 23.495l1.26-2.503c0.097-0.194 0.081-0.42-0.032-0.614-0.113-0.178-0.323-0.291-0.533-0.291h-2.713l7.105-13.129 6.346 11.546c0.113 0.194 0.323 0.323 0.549 0.323h2.858c0.226 0 0.436-0.113 0.533-0.307 0.113-0.194 0.113-0.436 0.016-0.63l-9.77-17.569c-0.226-0.404-0.872-0.404-1.098 0l-12.531 22.592c-0.113 0.194-0.097 0.436 0.016 0.63s0.323 0.307 0.533 0.307h6.895c0.242 0 0.468-0.145 0.565-0.355z"></path>
<path d="M36.313 22.914l-12.547-22.592c-0.113-0.21-0.355-0.323-0.565-0.323-0.226 0-0.436 0.145-0.549 0.339l-3.133 6.282c-0.081 0.178-0.081 0.388 0 0.565l1.26 2.503c0.21 0.42 0.904 0.42 1.13 0l1.34-2.681 7.089 13.080h-13.387c-0.339 0-0.63 0.275-0.63 0.63v2.503c0 0.339 0.275 0.63 0.63 0.63h18.813c0.226 0 0.436-0.113 0.533-0.307 0.129-0.194 0.129-0.436 0.016-0.63z"></path>
<path d="M28.158 25.417c-0.113-0.194-0.323-0.323-0.549-0.323h-3.133c-0.226 0-0.436 0.129-0.549 0.323s-0.113 0.436 0.016 0.63l1.308 2.18h-14.114l6.362-10.981c0.113-0.178 0.113-0.404 0.016-0.598l-1.26-2.503c-0.097-0.21-0.307-0.339-0.549-0.339-0.226-0.016-0.452 0.113-0.565 0.323l-5.006 8.769-5.022 8.155c-0.113 0.194-0.129 0.436-0.016 0.63s0.323 0.323 0.549 0.323h25.095c0.226 0 0.436-0.113 0.533-0.307 0.113-0.194 0.113-0.436 0-0.63l-3.117-5.652z"></path>
</svg>
