<!-- Generated by IcoMoon.io -->
<svg version="1.1" xmlns="http://www.w3.org/2000/svg" width="32" height="32" viewBox="0 0 32 32">
<title>give</title>
<path d="M14.707 29.888v2.097h1.056v-3.137h-2.097v1.040zM4.193 18.38h-1.040v5.233h1.040v-2.097h1.056v-2.097h-1.056zM16.82 24.654h1.040v3.137h-1.040zM15.764 27.791h1.056v1.056h-1.056zM5.249 26.751h3.153v3.137h-3.153zM3.153 16.284h1.056v1.040h-1.056zM9.458 14.187h1.056v1.056h-1.056zM15.764 13.131h1.056v2.097h-1.056zM2.097 9.994h3.153v3.137h-3.153zM11.555 29.888h1.056v2.097h-1.056zM12.611 13.131h-1.040v2.097h1.040v-1.040h1.056v-2.097h-1.056zM13.667 11.050h1.040v1.040h-1.040zM13.667 14.187h1.040v1.040h-1.040zM8.402 16.284h3.153v1.040h-3.153z"></path>
<path d="M12.611 12.091v-1.040h1.040v-1.056h-1.040v-2.081h-3.153v1.040h2.097v1.040h-1.056v1.040h-1.040v1.040h-1.040v-1.025h-1.072v-1.040h1.056v1.025h1.056v-1.040h-1.040v-2.081h-8.418v7.33h8.418v-1.056h1.040v-2.097h1.056v1.040h1.056v-1.040h1.040zM6.305 14.187h-5.249v-5.233h5.249v5.233zM7.346 14.187v-2.097h1.056v2.097h-1.056zM11.555 11.034v-1.025h1.056v1.025h-1.056zM19.972 22.558v-1.040h-2.112v-2.097h-1.040v1.040h-1.040v-1.040h1.040v-3.153h-2.097v1.056h-1.072v2.097h-1.040v1.040h1.056v-1.040h1.040v3.137h-2.097v-1.040h-1.056v-2.097h-1.040v-1.040h-2.112v-1.040h-1.056v-1.040h-2.097v1.040h-1.056v1.040h1.056v1.040h1.056v-1.040h1.056v1.040h-1.056v1.040h1.056v1.040h1.040v-1.040h1.056v-1.040h1.040v1.040h-1.040v1.040h-1.040v2.097h2.097v1.056h-2.112v-1.040h-1.056v1.040h-2.097v-1.040h-1.040v1.040h-1.056v7.33h7.362v-6.29h1.040v3.153h2.112v-1.040h1.056v-2.112h-1.056v-1.040h-1.056v1.040h-1.040v-2.097h3.153v1.040h1.056v-2.081h2.081v1.056h1.056v-1.056h1.056zM9.458 30.928h-5.249v-5.233h5.249v5.233zM10.514 22.558h-1.056v-1.040h1.056v1.040zM12.611 26.751h1.056v1.040h-1.056v-1.040zM19.972 7.913h1.040v2.081h-1.040zM17.86 7.913h-1.040v3.137h-1.056v1.040h1.056v1.040h1.040v2.097h1.056v-2.097h1.056v2.112h1.040v-1.056h1.056v-2.097h-2.097v-2.097h-2.112z"></path>
<path d="M27.318 19.421h-2.097v1.040h-1.056v1.056h-1.040v-3.137h1.040v-1.056h-1.040v1.040h-1.056v1.056h-1.056v-2.097h-1.040v2.097h-1.056v1.056l1.056-0.016h1.040v2.097h3.153v1.056h-3.153v1.040h-1.040v1.040h-1.056v1.056h1.056v1.040h-1.056v1.056h1.056v1.040h1.040v1.040h-1.040v1.056h8.402v-6.29h-1.056v5.233h-5.249v-5.233h3.153v-4.177h1.056v1.040h2.097v-2.081h-1.040v-1.056h1.040v-3.137h-1.056z"></path>
<path d="M18.916 23.614h1.056v1.040h-1.056zM24.166 18.38h1.056v1.040h-1.056zM26.278 23.614h2.097v1.056h-2.097zM26.278 10.010h3.153v3.137h-3.153zM22.069 14.187h1.056v1.056h-1.056zM17.86 16.284h1.056v1.040h-1.056zM25.222 16.284h1.056v1.040h-1.056zM23.125 26.751h3.153v3.137h-3.153zM22.069 16.284h1.056v1.040h-1.056zM14.707 9.994h1.056v1.056h-1.056z"></path>
<path d="M22.069 7.913v1.040h2.097v1.040h-1.056v1.040h-1.040v-1.040h-1.056v1.056h1.056v1.025h1.056v1.040h1.056v2.097h7.346v-7.299h-9.458zM30.471 14.187h-5.249v-5.233h5.249v5.233zM6.952 6.069c0.725 0.489 1.545 0.583 2.191 0.615 0.552 0.032 1.482 0.032 2.459 0.032 1.813 0 3.941 0.032 4.162 0.032 0.583 0.016 2.365 0.016 3.941 0.016 0.977 0 1.892-0.016 2.459-0.032 0.646-0.032 1.466-0.142 2.191-0.615 0.914-0.615 1.371-1.624 1.371-2.995 0-1.103-0.457-1.766-0.835-2.144-1.025-0.993-2.601-0.93-3.121-0.914h-0.063c-0.315 0-1.45 0.173-2.79 0.93-1.182 0.662-2.207 1.608-3.042 2.79l-0.095 0.236-0.079-0.126c-0.883-1.324-2.034-2.223-3.31-2.948-1.324-0.757-2.459-0.914-2.774-0.914h-0.063c-0.52-0.016-2.097-0.079-3.121 0.914-0.694 0.662-0.835 1.529-0.835 2.144-0.016 1.356 0.441 2.365 1.356 2.979zM19.689 2.538c1.119-0.646 1.97-0.741 2.034-0.741h0.11c0.899-0.032 1.529 0.11 1.86 0.426 0.205 0.205 0.315 0.489 0.315 0.899 0 1.498-0.709 1.829-1.923 1.892-1.025 0.047-3.405 0.032-4.95 0.016 0.678-1.072 1.545-1.907 2.554-2.491zM7.614 2.175c0.3-0.284 0.835-0.426 1.608-0.426h0.378c0.063 0 0.914 0.095 2.034 0.741 1.009 0.583 1.876 1.419 2.569 2.491-1.561 0.016-3.941 0.032-4.966-0.016-1.214-0.063-1.923-0.394-1.923-1.892 0-0.41 0.095-0.694 0.3-0.899zM17.86 29.888h-1.040v2.097h1.056v-2.097h1.040v-1.040h-1.056z"></path>
</svg>
