<!-- Generated by IcoMoon.io -->
<svg version="1.1" xmlns="http://www.w3.org/2000/svg" width="32" height="32" viewBox="0 0 32 32">
<title>glxt</title>
<path d="M11.103 0.799c1.386-0.436 2.826-0.71 4.279-0.755 1.995-0.091 4.002 0.231 5.89 0.879 3.056 1.071 5.774 3.091 7.663 5.723 0.441 0.584 0.811 1.218 1.167 1.856 0.418 0.809 0.79 1.644 1.072 2.511 0.374 1.191 0.651 2.418 0.738 3.665 0.046 0.27 0.016 0.546 0.053 0.817 0.013 0.337 0.010 0.675 0.001 1.012-0.037 0.271-0.009 0.547-0.054 0.816-0.079 1.123-0.312 2.232-0.63 3.311-0.257 0.895-0.628 1.753-1.037 2.588-1.557 3.065-4.123 5.608-7.215 7.116-0.87 0.423-1.772 0.784-2.708 1.033-1.566 0.448-3.2 0.64-4.825 0.595-0.271-0.037-0.547-0.009-0.817-0.054-1.216-0.084-2.414-0.349-3.577-0.71-3.069-0.983-5.815-2.929-7.773-5.487-1.018-1.323-1.821-2.809-2.385-4.38-0.52-1.514-0.853-3.1-0.897-4.702-0.055-0.771 0.004-1.544 0.068-2.311 0.118-1.136 0.376-2.255 0.722-3.343 1.046-3.156 3.103-5.97 5.804-7.911 0.586-0.441 1.219-0.813 1.859-1.169 0.837-0.432 1.701-0.817 2.601-1.099zM14.182 6.569c0 1.246-0 2.491 0 3.737-0.010 0.066 0.053 0.103 0.089 0.148 0.573 0.602 1.15 1.201 1.724 1.802-0.005-1.896-0.005-3.793 0.001-5.689-0.605 0.003-1.21 0-1.814 0.001zM6.303 8.503c0.137 0.092 0.237 0.224 0.354 0.339 1.233 1.248 2.474 2.489 3.702 3.743 1.125 1.139 2.256 2.272 3.378 3.414-1.359 1.391-2.742 2.76-4.1 4.153-1.083 1.093-2.169 2.184-3.249 3.279-0.022 0.017-0.064 0.049-0.085 0.066 1.598-0 3.196 0.004 4.794-0.007 1.635-1.708 3.276-3.411 4.904-5.125 1.634 1.708 3.27 3.417 4.906 5.124 1.596 0.012 3.193 0.006 4.789 0.007-0.244-0.193-0.438-0.441-0.665-0.653-1.145-1.157-2.294-2.31-3.434-3.472-1.106-1.127-2.232-2.235-3.327-3.373 0.265-0.267 0.517-0.546 0.788-0.806 2.091-2.106 4.171-4.222 6.263-6.328 0.125-0.12 0.231-0.263 0.376-0.361-1.598 0.002-3.195-0.004-4.793 0.002-1.632 1.709-3.27 3.412-4.902 5.12-1.63-1.711-3.269-3.414-4.904-5.122-1.598-0.002-3.197-0-4.796-0.001zM16.007 19.726c-0.002 1.902 0.004 3.804-0.004 5.706 0.606-0.003 1.212-0.001 1.818-0.001-0.001-1.247 0.001-2.494-0.001-3.74 0.004-0.044-0.011-0.081-0.044-0.11-0.306-0.331-0.633-0.642-0.934-0.977-0.274-0.297-0.57-0.573-0.835-0.878z"></path>
</svg>
