<!-- Generated by IcoMoon.io -->
<svg version="1.1" xmlns="http://www.w3.org/2000/svg" width="28" height="32" viewBox="0 0 28 32">
<title>gmr</title>
<path fill="#f4aa34" d="M1.649 7.26h24.628v16.248h-24.628z"></path>
<path fill="#e95a27" d="M2.045 15.362h23.837v15.981h-23.837z"></path>
<path fill="#372d2c" d="M0.986 6.603h25.954v25.397h-25.954z"></path>
<path fill="#6dc8bd" d="M4.129 16.677h13.022v13.702h-13.022z"></path>
<path fill="#4daa9d" d="M11.144 16.677h12.66v13.702h-12.66z"></path>
<path fill="#fff5c6" d="M4.129 16.995h9.701v12.91h-9.701z"></path>
<path fill="#372d2c" d="M3.878 16.242h13.289v14.142h-13.289z"></path>
<path fill="#372d2c" d="M10.782 16.242h13.289v14.142h-13.289z"></path>
<path fill="#372d2c" d="M6.636 16.917h14.654v14.253h-14.654z"></path>
<path fill="#372d2c" d="M0 10.063h27.932v7.634h-27.932z"></path>
<path fill="#372d2c" d="M17.444 18.988l1.73-10.924 8.024 1.271-1.73 10.924z"></path>
<path fill="#372d2c" d="M17.529 8.38h9.3v11.796h-9.3z"></path>
<path fill="#fff5c6" d="M0.705 9.357l8.046-1.274 1.722 10.875-8.044 1.274z"></path>
<path fill="#372d2c" d="M1.075 8.38h9.3v11.796h-9.3z"></path>
<path fill="#6dc8bd" d="M2.491 3.527h14.292v19.43h-14.292z"></path>
<path fill="#4daa9d" d="M11.144 3.527h14.292v19.43h-14.292z"></path>
<path fill="#fff5c6" d="M3.232 3.561h13.546v9.099h-13.546z"></path>
<path fill="#fff5c6" d="M2.491 5.823h13.897v15.451h-13.897z"></path>
<path fill="#372d2c" d="M2.156 3.048h23.592v20.070h-23.592z"></path>
<path fill="#372d2c" d="M10.737 5.851h6.447v9.194h-6.447z"></path>
<path fill="#372d2c" d="M10.737 15.68h6.447v7.283h-6.447z"></path>
<path fill="#372d2c" d="M11.138 3.561h13.546v9.099h-13.546z"></path>
<path fill="#372d2c" d="M9.673 4.29h8.581v6.742h-8.581z"></path>
<path fill="#372d2c" d="M12.108 4.207h6.809v6.909h-6.809z"></path>
<path fill="#372d2c" d="M10.67 1.254h6.586v9.227h-6.586z"></path>
<path fill="#fff5c6" d="M10.843 1.415h6.062v8.91h-6.062z"></path>
<path fill="#fff5c6" d="M10.057 4.491h6.954v6.335h-6.954z"></path>
<path fill="#372d2c" d="M9.874 0h8.174v8.152h-8.174z"></path>
<path fill="#372d2c" d="M2.858 5.761h16.443v7.327h-16.443z"></path>
<path fill="#372d2c" d="M15.992 6.302h9.027v6.709h-9.027z"></path>
<path fill="#6dc8bd" d="M4.251 8.486h19.675v12.838h-19.675z"></path>
<path fill="#372d2c" d="M4.396 8.525h19.134v12.208h-19.134z"></path>
<path fill="#372d2c" d="M4.341 8.252h19.508v12.749h-19.508z"></path>
<path fill="#372d2c" d="M10.241 6.202h5.94v5.934h-5.94z"></path>
<path fill="#372d2c" d="M3.51 7.567h5.94v5.934h-5.94z"></path>
<path fill="#372d2c" d="M4.212 15.239h5.94v5.934h-5.94z"></path>
<path fill="#372d2c" d="M10.364 16.203h5.94v5.934h-5.94z"></path>
<path fill="#372d2c" d="M11.746 6.213h5.94v5.934h-5.94z"></path>
<path fill="#372d2c" d="M17.775 15.245h5.94v5.934h-5.94z"></path>
<path fill="#372d2c" d="M11.623 16.209h5.94v5.934h-5.94z"></path>
<path fill="#372d2c" d="M4.302 21.904h19.318v9.924h-19.318z"></path>
<path fill="#372d2c" d="M4.764 17.92h5.94v5.934h-5.94z"></path>
<path fill="#372d2c" d="M6.285 17.457h5.94v5.934h-5.94z"></path>
<path fill="#372d2c" d="M15.702 17.457h5.94v5.934h-5.94z"></path>
<path fill="#372d2c" d="M4.017 7.405h21.391v15.551h-21.391z"></path>
<path fill="#372d2c" d="M14.086 16.995h9.667v12.91h-9.667z"></path>
<path fill="#372d2c" d="M15.992 6.302h9.612v14.721h-9.612z"></path>
<path fill="#fff5c6" d="M10.247 0.262h7.032v7.622h-7.032z"></path>
<path fill="#f4aa34" d="M4.396 8.525h13.038v11.785h-13.038z"></path>
<path fill="#f4aa34" d="M10.353 8.564h10.587v12.169h-10.587z"></path>
<path fill="#f4aa34" d="M13.144 8.748h9.628v11.428h-9.628z"></path>
<path fill="#372d2c" d="M8.581 18.070h10.743v10.698h-10.743z"></path>
<path fill="#f4aa34" d="M9.138 18.616h9.628v9.595h-9.628z"></path>
<path fill="#f4aa34" d="M8.352 17.836h11.205v11.155h-11.205z"></path>
<path fill="#372d2c" d="M7.505 16.749h13.077v13.936h-13.078z"></path>
<path fill="#fff5c6" d="M5.316 8.52h9.818v10.899h-9.818z"></path>
<path fill="#fff5c6" d="M9.266 18.616h7.974v9.043h-7.974z"></path>
<path fill="#fff5c6" d="M10.994 19.413h7.606v8.798h-7.606z"></path>
</svg>
