<!-- Generated by IcoMoon.io -->
<svg version="1.1" xmlns="http://www.w3.org/2000/svg" width="32" height="32" viewBox="0 0 32 32">
<title>gsc</title>
<path d="M30.75 9.775v0h-14.75c-3.45 0-6.25 2.8-6.25 6.25s2.8 6.25 6.25 6.25c2.7 0 4.975-1.7 5.85-4.075h-5.85c-0.925 0-1.65-0.75-1.65-1.65v-0.2c0-0.925 0.75-1.65 1.65-1.65h6.1c0 0 0 0 0 0h3.65c0.075 0.45 0.1 0.9 0.1 1.375 0 5.45-4.425 9.85-9.85 9.85s-9.85-4.45-9.85-9.9 4.425-9.85 9.85-9.85l0.3-0.050c0.075 0.025 0.125 0.050 0.2 0.050 1.025 0 7.875 0 8.75 0 4.775 0 6.725-2.55 6.725-6.15h-15.975c-8.825 0-16 7.175-16 16s7.175 16 16 16c8.8 0 15.95-7.125 16-15.925v0-5.050c0-0.7-0.55-1.275-1.25-1.275z"></path>
</svg>
