<!-- Generated by IcoMoon.io -->
<svg version="1.1" xmlns="http://www.w3.org/2000/svg" width="32" height="32" viewBox="0 0 32 32">
<title>gusd</title>
<path fill="#00dcfa" d="M20.907 0.006c-5.595 0-10.349 4.304-10.947 9.843-5.539 0.599-9.843 5.352-9.843 10.947 0 6.082 4.94 11.022 11.022 11.022 5.595 0 10.367-4.304 10.947-9.843 5.539-0.599 9.843-5.352 9.843-10.947 0-6.082-4.94-11.022-11.022-11.022zM29.346 12.263c-0.581 3.711-3.475 6.605-7.138 7.18l-0.048 0.006v-7.186h7.186zM2.698 19.561c0.574-3.719 3.47-6.621 7.137-7.198l0.049-0.006v7.186h-7.186v0.019zM19.578 22.050c-0.628 4.142-4.164 7.28-8.433 7.28-0.002 0-0.005 0-0.008 0h0c-4.248 0-7.822-3.106-8.44-7.28h16.88zM19.672 12.263v7.28h-7.298v-7.28h7.298zM29.346 9.774h-16.88c0.628-4.142 4.164-7.28 8.433-7.28 0.003 0 0.005 0 0.008 0h-0c4.248 0 7.822 3.106 8.44 7.28z"></path>
</svg>
