<!-- Generated by IcoMoon.io -->
<svg version="1.1" xmlns="http://www.w3.org/2000/svg" width="32" height="32" viewBox="0 0 32 32">
<title>hight</title>
<path fill="#43b1e0" d="M30.046 8.304l-11.374 18.749h-6.781l5.212-8.603h-5.18l-6.040 9.958c2.732 2.235 6.259 3.59 10.104 3.59 8.844 0 16.013-7.169 16.013-16.013 0-2.814-0.726-5.458-2-7.755l0.042 0.082z"></path>
<path fill="#117fc0" d="M20.115 4.939l-4.936 8.124h5.189l5.749-9.482c-2.732-2.235-6.259-3.59-10.104-3.59-8.844 0-16.013 7.169-16.013 16.013 0 2.814 0.726 5.458 2 7.755l-0.042-0.082 11.369-18.739z"></path>
</svg>
