<!-- Generated by IcoMoon.io -->
<svg version="1.1" xmlns="http://www.w3.org/2000/svg" width="41" height="32" viewBox="0 0 41 32">
<title>hot</title>
<path fill="#00838d" d="M5.476 24.459c0.321 0 0.658 0.015 0.979 0 0.612-0.046 1.224-0.168 1.82-0.321 1.178-0.321 2.279-0.872 3.243-1.621 0.275-0.214 0.551-0.444 0.811-0.688 0.551-0.551 1.025-1.178 1.407-1.851 0.337-0.597 0.581-1.239 0.765-1.897 0.015-0.046 0.015-0.107 0.031-0.153h-0.597c-0.597 0-1.208 0-1.805 0-0.505 0-0.994-0.061-1.484-0.168-0.046-0.015-0.092-0.031-0.138-0.031-0.031-0.015-0.046-0.031-0.061-0.046 0.138-0.306 0.26-0.597 0.382-0.902l0.933-2.157c0.031-0.107 0.076-0.199 0.138-0.291 0.061-0.061 0.153-0.092 0.245-0.092 0.75-0.015 1.484 0 2.233 0h0.199c-0.031-0.122-0.031-0.214-0.061-0.321-0.275-1.040-0.75-2.004-1.407-2.845-0.321-0.413-0.673-0.795-1.055-1.163-0.474-0.444-0.994-0.826-1.576-1.147-0.597-0.337-1.224-0.612-1.866-0.826-0.535-0.168-1.086-0.291-1.652-0.367-0.444-0.046-0.872-0.061-1.316-0.092-0.107 0-0.214-0.015-0.321-0.031-0.046-0.015-0.076-0.046-0.092-0.092-0.153-0.352-0.306-0.688-0.459-1.040-0.184-0.413-0.352-0.826-0.535-1.224-0.138-0.337-0.291-0.658-0.444-1.010 0.107-0.031 0.214-0.061 0.321-0.092 0.673-0.092 1.361-0.122 2.050-0.092 1.086 0.031 2.172 0.199 3.243 0.474 0.673 0.184 1.346 0.413 1.989 0.688 0.902 0.382 1.759 0.857 2.554 1.423 0.352 0.26 0.704 0.535 1.040 0.811 0.153 0.122 0.306 0.26 0.459 0.398 0.765 0.734 1.438 1.576 2.004 2.478s0.979 1.881 1.254 2.906c0.092 0.337 0.153 0.688 0.229 1.025 0.015 0.046 0.061 0.092 0.122 0.092 1.025 0 2.065 0 3.105 0 0.061-0.245 0.107-0.489 0.153-0.734 0.184-0.719 0.428-1.407 0.734-2.065 0.245-0.551 0.551-1.086 0.902-1.576 0.321-0.444 0.658-0.887 1.025-1.3 0.275-0.321 0.566-0.627 0.872-0.902 0.642-0.581 1.331-1.101 2.080-1.56 0.765-0.474 1.56-0.857 2.402-1.163 0.581-0.199 1.163-0.382 1.744-0.535 0.444-0.107 0.872-0.184 1.331-0.245 0.367-0.061 0.75-0.092 1.132-0.122 0.245-0.015 0.474-0.031 0.719-0.031 0.367 0 0.719-0.015 1.071 0s0.704 0.092 1.055 0.153c0.015 0 0.015 0.015 0.046 0.046l-0.26 0.612c-0.275 0.642-0.551 1.285-0.841 1.943-0.107 0.229-0.214 0.459-0.306 0.704-0.061 0.153-0.214 0.092-0.321 0.122-0.092 0.015-0.168 0.015-0.26 0-0.964 0.015-1.912 0.153-2.83 0.413-0.581 0.168-1.147 0.382-1.683 0.642-0.658 0.321-1.27 0.719-1.836 1.193-0.229 0.199-0.489 0.398-0.704 0.627-0.551 0.551-1.025 1.178-1.407 1.866-0.306 0.566-0.551 1.163-0.734 1.79-0.015 0.046-0.015 0.107-0.031 0.153h0.168c0.795 0 1.606-0.015 2.402 0 0.474 0 0.948 0.076 1.407 0.229 0.015 0.015 0.031 0.015 0.046 0.031l-0.444 1.010c-0.306 0.719-0.627 1.438-0.933 2.172-0.092 0.214-0.153 0.26-0.398 0.26h-2.233c0.061 0.214 0.107 0.398 0.168 0.581 0.214 0.642 0.52 1.254 0.902 1.82 0.229 0.337 0.474 0.642 0.734 0.948 0.153 0.184 0.321 0.367 0.489 0.52 0.566 0.551 1.208 1.025 1.897 1.407 0.581 0.337 1.208 0.612 1.851 0.826 0.612 0.214 1.254 0.352 1.912 0.413 0.398 0.031 0.811 0.061 1.208 0.092 0.153 0.015 0.306 0.015 0.459 0.031 0.031 0.015 0.061 0.031 0.076 0.061 0.26 0.612 0.52 1.224 0.795 1.836 0.214 0.489 0.428 0.979 0.658 1.499-0.214 0.046-0.413 0.092-0.627 0.107-0.52 0.031-1.055 0.061-1.576 0.061-0.474 0-0.948-0.046-1.407-0.107-0.627-0.092-1.27-0.199-1.897-0.337-0.75-0.184-1.484-0.428-2.203-0.734-0.857-0.367-1.652-0.811-2.417-1.346-0.398-0.291-0.78-0.597-1.163-0.902-0.245-0.199-0.489-0.428-0.704-0.658-0.489-0.505-0.948-1.040-1.346-1.621-0.382-0.551-0.719-1.132-1.010-1.744-0.352-0.734-0.597-1.514-0.765-2.31-0.031-0.076-0.046-0.168-0.061-0.245 0-0.153-0.076-0.184-0.214-0.184-0.979 0-1.943 0-2.922 0h-0.168c-0.153 0.826-0.398 1.637-0.734 2.417-0.275 0.658-0.612 1.285-1.025 1.866-0.321 0.444-0.658 0.887-1.025 1.3-0.26 0.321-0.551 0.612-0.857 0.887-0.474 0.413-0.979 0.795-1.484 1.178-0.612 0.428-1.254 0.811-1.927 1.117-0.811 0.382-1.652 0.688-2.509 0.902-0.489 0.122-0.979 0.214-1.468 0.291-0.474 0.076-0.948 0.122-1.423 0.168-0.275 0.015-0.551 0.015-0.811 0-0.398 0-0.795-0.015-1.178-0.031-0.138-0.015-0.275-0.031-0.413-0.061-0.076-0.015-0.107-0.046-0.061-0.138 0.306-0.704 0.627-1.407 0.933-2.111 0.184-0.428 0.352-0.826 0.551-1.27z"></path>
</svg>
