<!-- Generated by IcoMoon.io -->
<svg version="1.1" xmlns="http://www.w3.org/2000/svg" width="21" height="32" viewBox="0 0 21 32">
<title>ht</title>
<path fill="#c7cce6" d="M13.612 9.848c0-4.595-2.223-8.546-3.914-9.833-0.007 0-0.129-0.073-0.119 0.11 0 0 0 0 0 0.005-0.141 8.872-4.643 11.275-7.118 14.514-5.711 7.474-0.399 15.669 5.009 17.184 3.026 0.847-0.699-1.499-1.179-6.457-0.58-5.99 7.322-10.565 7.322-15.525z"></path>
<path fill="#c7cce6" d="M16.58 12.868c-0.015-0.014-0.034-0.023-0.056-0.023-0.029 0-0.055 0.015-0.069 0.039l-0 0c-0.1 1.117-1.309 3.505-2.841 5.699-5.199 7.44-2.236 11.025-0.57 12.953 0.967 1.118 0 0 2.418-1.143 0.19-0.087 4.717-2.484 5.208-7.942 0.475-5.285-2.89-8.616-4.088-9.584z"></path>
</svg>
