<!-- Generated by IcoMoon.io -->
<svg version="1.1" xmlns="http://www.w3.org/2000/svg" width="32" height="32" viewBox="0 0 32 32">
<title>iq</title>
<path fill="#5df" d="M12.688 0.469c-3.958 0.909-7.53 3.396-9.773 6.792-1.131 1.703-1.809 3.32-2.271 5.415-0.32 1.397-0.424 3.855-0.236 5.367 0.481 3.951 2.422 7.462 5.56 10.122 1.64 1.387 3.487 2.411 3.487 1.933 0-0.067-0.198-0.306-0.434-0.545-1.611-1.579-2.46-4.343-2.12-6.917 0.452-3.425 1.838-5.711 4.542-7.491 0.509-0.335 0.971-0.612 1.027-0.612 0.198 0 0.075-0.402-0.415-1.358-0.942-1.808-1.282-3.052-1.282-4.697 0-2.526 1.056-5.223 2.676-6.859 0.471-0.469 0.528-0.564 0.528-0.938s-0.019-0.402-0.254-0.392c-0.151 0-0.613 0.086-1.037 0.182z"></path>
<path fill="#b3b3b3" d="M22.272 1.474c0 0.077 0.141 0.344 0.32 0.593 0.839 1.205 1.282 2.506 1.348 3.999 0.085 1.808-0.396 3.377-1.282 4.171-0.65 0.584-1.216 0.603-2.026 0.086-0.575-0.373-0.641-0.641-0.254-1.138 0.65-0.832 1.046-2.133 1.046-3.473 0-1.387-0.264-2.162-0.98-2.832-0.773-0.717-1.555-0.928-2.601-0.679-1.065 0.239-2.064 1.397-2.601 3.014-0.273 0.832-0.509 2.267-0.509 3.1 0.009 1.569 0.471 3.415 1.14 4.544 0.377 0.641 1.31 1.693 1.866 2.105 0.207 0.153 0.386 0.316 0.386 0.344 0 0.038-0.198 0.134-0.443 0.23-1.809 0.679-3.628 2.717-4.439 4.965-0.518 1.435-0.707 2.602-0.641 3.942 0.075 1.645 0.368 2.42 1.291 3.434 0.726 0.804 2.102 1.167 3.751 1.005 1.904-0.201 3.364-0.89 4.618-2.2 0.547-0.584 0.66-0.651 0.763-0.526 0.094 0.115 0.075 0.21-0.122 0.555-1.244 2.143-3.562 3.98-5.711 4.515-0.471 0.115-0.669 0.21-0.669 0.316 0 0.344 2.931-0.134 4.703-0.765 4.533-1.607 8.265-5.424 9.773-9.978 0.622-1.885 0.726-2.631 0.735-4.975 0.009-1.827-0.019-2.248-0.207-3.176-0.914-4.611-3.845-8.543-8.133-10.916-0.754-0.421-1.121-0.507-1.121-0.258z"></path>
</svg>
