<!-- Generated by IcoMoon.io -->
<svg version="1.1" xmlns="http://www.w3.org/2000/svg" width="32" height="32" viewBox="0 0 32 32">
<title>klown</title>
<path fill="#000" d="M22.861 15.145c0.046 0 0.154 0.046 0.246 0.103 0.257 0.154 0.39 0.467 0.364 0.842-0.015 0.257-0.077 0.431-0.334 0.955-0.175 0.354-0.503 0.95-0.729 1.325-0.385 0.637-0.57 0.97-0.57 1.022 0 0.015 0.262-0.221 0.58-0.524 0.601-0.565 1.022-0.832 1.212-0.77 0.257 0.082 0.334 0.57 0.164 1.058-0.098 0.293-0.359 0.821-0.621 1.268-0.185 0.303-0.164 0.308 0.303 0.026 0.529-0.318 0.868-0.354 1.052-0.103 0.205 0.277 0.169 1.119-0.082 1.848-0.056 0.164-0.087 0.313-0.072 0.329s0.175-0.036 0.349-0.113c0.18-0.082 0.447-0.175 0.601-0.21 0.518-0.123 0.739 0.098 0.837 0.832 0.087 0.637-0.154 1.165-0.596 1.325-0.077 0.026-0.087 0.015-0.062-0.082 0.021-0.067 0.046-0.185 0.067-0.267 0.026-0.133 0.021-0.139-0.072-0.087-0.149 0.077-0.318 0.385-0.38 0.693-0.185 0.914-0.416 1.366-1.022 1.982-0.667 0.678-1.36 1.135-2.439 1.617-0.503 0.226-1.212 0.673-1.966 1.242v0l-0.221 0.169-0.436-0.4-0.17-0.15c-0.454-0.39-0.913-0.695-1.278-0.841-0.159-0.062-0.303-0.123-0.313-0.128-0.010-0.010 0.077-0.123 0.195-0.257 0.118-0.139 0.231-0.334 0.262-0.452 0.072-0.282 0.113-0.349 0.272-0.442 0.185-0.103 0.483-0.021 1.191 0.334 0.313 0.154 0.58 0.282 0.606 0.282 0.056 0 0.046-0.149-0.026-0.339-0.053-0.144-0.038-0.234 0.156-0.821v0l0.044-0.134c0.313-0.934 0.395-1.273 0.334-1.335-0.077-0.077-0.139 0.046-0.498 0.96-0.19 0.477-0.354 0.883-0.364 0.893-0.015 0.015-0.128-0.026-0.257-0.087-0.21-0.103-0.231-0.133-0.205-0.246 0.149-0.596 0.236-1.941 0.144-2.269-0.067-0.231-0.139-0.133-0.2 0.272-0.133 0.862-0.282 1.545-0.344 1.607-0.056 0.056-0.092 0.041-0.205-0.092v0l-0.133-0.164v-4.826l1.314-1.693c1.871-2.415 2.4-3.103 2.809-3.626 0.226-0.287 0.447-0.524 0.493-0.524zM12.865 22.445c0.488-0.462 0.596-0.503 0.765-0.267 0.128 0.175 0.2 0.585 0.2 1.145v0 0.462l0.236 0.252 0.065 0.072c0.107 0.126 0.209 0.278 0.243 0.36 0.077 0.19 0.108 0.919 0.046 1.165-0.021 0.082 0.031 0.236 0.169 0.503 0.95 1.817 1.145 2.213 1.119 2.243v0l-0.023 0.006-0.041-0.002c-0.048-0.005-0.117-0.020-0.188-0.045-0.221-0.072-0.483-0.082-1.412-0.056-0.56 0.015-0.893-0.077-0.924-0.257-0.015-0.072 0.195-0.406 0.637-1.017 0.133-0.185 0.149-0.293 0.072-0.416-0.036-0.062-0.216-0.082-0.873-0.103-1.099-0.036-1.135-0.098-0.359-0.683 0.323-0.246 0.703-0.637 0.75-0.77 0.015-0.051-0.010-0.149-0.056-0.221v0l-0.087-0.133-0.753 0.043c-0.726 0.035-0.861-0.061-0.623-0.392 0.056-0.077 0.087-0.154 0.067-0.175-0.015-0.015-0.318-0.031-0.662-0.031-0.59 0-1.124-0.067-1.217-0.149-0.021-0.021 0.231-0.123 0.565-0.226 0.57-0.175 1.335-0.524 1.684-0.77 0.082-0.062 0.354-0.303 0.601-0.539zM14.769 18.023l0.011 0.002c0.010 0.015 0.067 0.472 0.128 1.022 0.056 0.549 0.103 1.052 0.103 1.114 0 0.067 0.021 0.118 0.046 0.118s0.18-0.205 0.344-0.462c0.169-0.252 0.318-0.462 0.334-0.462 0.041 0 0.067 0.195 0.205 1.653 0.067 0.673 0.133 1.222 0.149 1.222s0.098-0.288 0.175-0.642c0.082-0.354 0.164-0.642 0.185-0.642 0.031 0 1.443 4.087 1.437 4.169 0 0.113-0.123-0.021-0.616-0.657-0.298-0.39-0.58-0.75-0.626-0.811v0l-0.092-0.108-0.139 0.154-0.038 0.044c-0.091 0.104-0.264 0.297-0.418 0.464v0l-0.323 0.354-0.026-0.175-0.004-0.026c-0.021-0.165-0.088-0.867-0.156-1.627-0.067-0.816-0.139-1.504-0.159-1.53-0.015-0.026-0.21 0.118-0.436 0.323s-0.431 0.385-0.462 0.39c-0.031 0.010-0.036-0.062-0.021-0.18 0.036-0.262 0.385-3.558 0.385-3.655 0-0.041 0.010-0.062 0.026-0.051zM8.178 15.191c0.37-0.046 1.135-0.005 1.489 0.092 0.39 0.098 0.827 0.282 1.176 0.483 0.344 0.205 1.191 1.022 1.319 1.278 0.103 0.205 0.154 0.231-0.467-0.241-0.441-0.339-1.109-0.688-1.612-0.847-0.329-0.103-0.493-0.118-1.104-0.118l-0.151 0c-0.516 0.003-0.64 0.025-0.978 0.138-2.346 0.796-3.532 3.778-2.305 5.796 0.364 0.606 0.95 1.145 1.74 1.602 0.447 0.262 0.411 0.303-0.139 0.164-1.011-0.267-1.781-0.893-2.254-1.848-0.282-0.575-0.406-1.109-0.441-1.874-0.051-1.237 0.272-2.218 1.042-3.152 0.611-0.744 1.694-1.335 2.685-1.473zM6.289 19.19c0.077-0.236 0.087-0.221 0.282 0.323 0.344 0.955 1.011 2.018 1.745 2.772 0.18 0.19 0.329 0.359 0.329 0.38 0 0.082-0.406-0.021-0.791-0.195-0.934-0.436-1.484-1.345-1.602-2.675-0.021-0.277-0.015-0.462 0.036-0.606zM10.596 11.526c0.647-0.098 0.678-0.087 0.257 0.108-0.21 0.098-0.416 0.19-0.452 0.216-0.19 0.103-0.010 0.139 0.796 0.164 0.94 0.026 0.945 0.031 0.868 0.339-0.031 0.123-0.041 0.123-0.611 0.123-0.313 0.005-0.755 0.036-0.981 0.077-0.4 0.072-0.981 0.313-0.981 0.411 0 0.026 0.241 0.077 0.539 0.113 0.914 0.108 1.802 0.349 2.418 0.657 0.241 0.128 0.37 0.293 0.852 1.129 1.299 2.243 1.494 2.562 1.961 3.183 0.596 0.791 1.237 1.509 1.935 2.172v0l0.637 0.601v0.678l-0.001 0.11c-0.004 0.324-0.023 0.58-0.051 0.598-0.051 0.031-0.021 0.082-0.719-1.104-0.534-0.898-0.929-1.509-1.648-2.516-0.21-0.298-0.4-0.58-0.421-0.631l-0.017-0.033c-0.021-0.031-0.054-0.055-0.081-0.059-0.036 0-0.205-0.164-0.375-0.364-0.483-0.565-1.571-1.545-2.31-2.074-0.426-0.308-0.986-0.688-1.017-0.688-0.010 0-0.19-0.092-0.4-0.21-0.39-0.216-1.094-0.508-1.458-0.606-0.354-0.098-1.063-0.123-1.514-0.062-0.56 0.082-1.345 0.37-1.853 0.678-0.226 0.139-0.426 0.252-0.441 0.252-0.036 0-0.488 0.323-0.837 0.606-0.159 0.128-0.287 0.2-0.298 0.169-0.026-0.072 0.406-0.673 0.78-1.099 0.359-0.406 1.155-1.088 1.679-1.432 1.063-0.708 2.618-1.335 3.743-1.504zM7.090 17.927c-0.19-0.518-0.185-0.56 0.056-0.421 0.103 0.062 0.329 0.21 0.498 0.334 0.934 0.667 1.853 1.776 2.336 2.818 0.221 0.467 0.375 0.904 0.339 0.939v0l-0.017 0.006-0.028-0.004c-0.21-0.058-1.024-0.713-1.628-1.322-0.734-0.744-1.248-1.509-1.556-2.351zM8.799 16.541c0-0.062 0.549 0.082 0.873 0.231 0.673 0.303 1.165 0.888 1.381 1.617 0.144 0.493 0.185 0.868 0.133 1.253-0.041 0.344-0.036 0.354-0.359-0.37-0.323-0.708-0.924-1.581-1.514-2.182-0.282-0.293-0.513-0.539-0.513-0.549zM17.219 7.968c0.252-0.072 0.246-0.072 0.329 0.051 0.139 0.216 0.39 1.052 0.498 1.663 0.067 0.4 0.113 0.95 0.133 1.607v0l0.031 0.996-0.252-0.036-0.038-0.006c-0.363-0.057-0.63-0.156-2.585-0.975-1.037-0.436-1.894-0.78-1.91-0.765-0.026 0.026 0.488 1.037 0.832 1.638 0.626 1.088 1.787 1.679 3.127 1.591 0.385-0.026 0.524-0.015 0.642 0.041 0.277 0.149 0.457 0.406 0.626 0.909 0.21 0.616 0.596 1.366 0.924 1.797 0.139 0.185 0.246 0.339 0.246 0.339-0.005 0.005-0.169-0.026-0.37-0.062-0.898-0.185-2.454-0.837-2.875-1.206-0.483-0.426-0.041 0.257 0.472 0.724 0.626 0.575 1.53 1.073 2.562 1.417 0.308 0.103 0.57 0.195 0.575 0.2 0.056 0.051-1.458 1.823-1.55 1.823s-0.616-0.313-1.124-0.667c-0.56-0.39-1.828-1.638-2.279-2.233-1.283-1.715-2.218-3.655-2.793-5.817v0l-0.159-0.585 0.2-0.205 0.085-0.083c0.731-0.672 2.702-1.584 4.654-2.156zM25.089 6.233c0.108 0.010 0.252 0.056 0.318 0.103 0.072 0.046 0.164 0.139 0.21 0.21 0.046 0.067 0.59 2.11 1.206 4.528 1.232 4.821 1.222 4.754 0.945 5.047-0.082 0.082-0.216 0.175-0.303 0.205-0.236 0.077-3.897 0.873-3.917 0.852-0.010-0.010 0.036-0.149 0.108-0.308 0.262-0.596 0.277-1.15 0.031-1.545-0.169-0.277-0.606-0.539-0.888-0.539-0.164 0-0.216 0.051-1.088 1.181-0.503 0.652-0.934 1.165-0.955 1.145s-0.488-2.023-1.047-4.441c-0.719-3.121-1.001-4.446-0.975-4.554 0.041-0.18 0.195-0.39 0.349-0.477 0.221-0.118 5.806-1.427 6.007-1.407zM25.525 12.393c-0.216 0.2-0.657 0.611-0.975 0.914l-0.585 0.549-1.258-0.406c-0.688-0.226-1.273-0.4-1.299-0.395-0.021 0.005 0.462 0.462 1.078 1.011 0.621 0.549 1.294 1.155 1.504 1.35 0.21 0.19 0.4 0.329 0.421 0.308 0.056-0.056 1.54-3.624 1.525-3.666-0.010-0.021-0.195 0.128-0.411 0.334zM22.861 13.661c0.354 0.118 0.75 0.226 0.878 0.246l0.231 0.031 0.169 0.765c0.092 0.421 0.159 0.775 0.144 0.785-0.010 0.010-0.133-0.092-0.267-0.226-0.139-0.139-0.621-0.58-1.073-0.986s-0.827-0.76-0.837-0.78c-0.031-0.077 0.092-0.051 0.755 0.164zM10.314 7.259c0.862-0.216 1.206-0.267 1.206-0.18 0 0.026-0.123 0.077-0.267 0.108-0.421 0.103-1.504 0.483-2.043 0.719-0.585 0.257-1.335 0.693-1.617 0.939v0l-0.205 0.175 0.321 0.074c0.713 0.178 2.134 0.711 2.8 1.056 0.467 0.241 1.063 0.647 1.063 0.729 0 0.021-0.154 0.056-0.344 0.077-0.785 0.077-2.074 0.395-2.993 0.734-1.124 0.421-2.551 1.186-3.424 1.843-0.57 0.431-0.57 0.431-0.37 0.144 0.241-0.349 0.975-1.109 1.422-1.468 0.965-0.765 2.233-1.319 3.578-1.561v0l0.205-0.036-0.364-0.169-0.134-0.059c-0.776-0.319-2.491-0.744-3.506-0.86-0.169-0.021-0.339-0.056-0.38-0.077-0.133-0.072 1.607-1.006 2.639-1.412 0.734-0.293 1.566-0.554 2.413-0.775zM22.635 8.225c-0.385 1.135-1.309 3.999-1.309 4.061 0 0.046-0.021 0.098-0.051 0.113-0.164 0.103 0.026 0.19 1.227 0.585 0.703 0.226 1.314 0.416 1.36 0.416 0.103 0 2.007-1.781 2.007-1.874 0-0.036-0.657-0.75-1.453-1.581-0.801-0.837-1.504-1.581-1.561-1.653-0.108-0.139-0.185-0.164-0.221-0.067zM15.786 12.511c-0.051-0.144-0.051-0.144 0.113-0.113 0.087 0.021 0.293 0.098 0.447 0.175 0.375 0.18 0.39 0.262 0.051 0.262-0.318 0-0.544-0.118-0.611-0.323zM22.707 8.502c0.026 0.026 0.164 0.575 0.308 1.222l0.267 1.181-0.144 0.139c-0.2 0.195-1.725 1.335-1.745 1.309-0.015-0.010 0.021-0.108 0.077-0.221 0.103-0.2 1.114-3.255 1.165-3.527 0.021-0.082 0.051-0.128 0.072-0.103zM11.397 7.701l-0.041 0.37-0.012 0.101c-0.037 0.346-0.021 0.428 0.073 0.428 0.056 0 0.092 0.108 0.133 0.411 0.087 0.585 0.108 1.165 0.046 1.191-0.031 0.005-0.246-0.103-0.488-0.241-0.539-0.323-1.232-0.657-1.756-0.852-0.221-0.082-0.4-0.164-0.4-0.18 0-0.108 0.631-0.59 1.011-0.775 0.488-0.236 1.099-0.447 1.304-0.452v0h0.128zM19.246 5.237c1.797-0.339 2.172-0.37 2.49-0.205 0.108 0.056 0.246 0.169 0.303 0.252 0.128 0.175 0.467 0.878 0.467 0.96 0 0.036-0.288 0.103-0.729 0.175-3.229 0.508-5.878 1.273-7.896 2.285-0.616 0.308-1.027 0.549-1.396 0.827-0.344 0.262-0.308 0.334-0.431-0.832-0.087-0.791-0.087-0.837 0-1.068 0.082-0.216 0.128-0.257 0.431-0.411 0.416-0.21 1.627-0.688 2.192-0.868 1.371-0.436 2.741-0.77 4.569-1.114zM14.286 1.77l0.032 0.002c0.031 0 0.123 0.144 0.216 0.313 0.436 0.796 1.319 3.255 1.212 3.363-0.026 0.026-0.133 0.062-0.231 0.077v0l-0.18 0.031-0.175-0.375-0.055-0.12c-0.516-1.096-1.494-2.648-1.608-2.539-0.015 0.015 0.021 0.164 0.077 0.334 0.262 0.75 0.616 2.428 0.616 2.906 0 0.144-0.026 0.19-0.128 0.236-0.072 0.036-0.164 0.062-0.2 0.062-0.031 0-0.2-0.185-0.364-0.411s-0.318-0.395-0.339-0.375c-0.015 0.026-0.067 0.282-0.113 0.575-0.077 0.529-0.154 0.714-0.236 0.58-0.021-0.036-0.067-0.554-0.103-1.155-0.031-0.596-0.072-1.15-0.087-1.232-0.015-0.077-0.005-0.139 0.021-0.139s0.226 0.169 0.441 0.38c0.216 0.205 0.4 0.364 0.411 0.344 0.041-0.077-0.513-1.735-0.862-2.577-0.031-0.072 0.021-0.098 0.313-0.144 0.354-0.062 1.283-0.149 1.376-0.133zM10.088 2.87c0.411-0.262 0.76-0.349 0.991-0.257 0.087 0.031 0.092 0.098 0.087 0.755-0.005 0.39-0.021 0.878-0.036 1.083v0l-0.036 0.364-0.955-0.026-0.287-0.006c-0.925-0.010-1.558 0.070-2.454 0.298-0.323 0.082-0.621 0.159-0.657 0.164v0l-0.027 0-0.024-0.012c-0.015-0.012-0.026-0.030-0.031-0.050-0.031-0.185 1.15-1.027 2.475-1.766 0.395-0.226 0.827-0.472 0.955-0.549zM15.252 1.746l0.308 0.524 0.067 0.115c0.524 0.91 1.283 2.513 1.283 2.719 0 0.087-0.344 0.175-0.406 0.103-0.021-0.026-0.082-0.149-0.133-0.277-0.226-0.539-0.914-1.92-1.253-2.5-0.2-0.349-0.364-0.642-0.364-0.657s0.113-0.026 0.246-0.026v0h0.252zM16.217 1.797l0.123 0.001c0.234 0.006 0.756 0.039 1.227 0.076 0.513 0.041 0.991 0.087 1.063 0.103s0.185 0.036 0.257 0.051c0.159 0.036 0.282 0.231 0.642 1.001 0.236 0.518 0.585 1.437 0.549 1.463-0.005 0.005-0.267 0.051-0.585 0.098-0.313 0.051-0.883 0.154-1.268 0.231-0.667 0.139-0.801 0.139-0.801-0.010 0-0.108-0.811-1.776-1.15-2.362-0.411-0.703-0.411-0.652 0.005-0.652z"></path>
<path fill="#fff" d="M17.142 8.25c0.128 0.313 0.195 0.647 0.262 1.35 0.067 0.75 0.19 1.787 0.262 2.218 0.031 0.221 0.118 0.267 0.118 0.067 0-0.072-0.036-0.354-0.077-0.631-0.036-0.272-0.108-0.904-0.154-1.396s-0.108-1.001-0.133-1.119c-0.067-0.313-0.185-0.575-0.257-0.575-0.036 0-0.041 0.036-0.021 0.087z"></path>
<path fill="#fff" d="M18.245 14.257c0 0.226 0.719 1.879 0.955 2.192 0.159 0.221 0.118 0.021-0.067-0.313-0.241-0.426-0.529-1.058-0.683-1.504-0.118-0.329-0.205-0.488-0.205-0.375z"></path>
<path fill="#000" d="M12.172 0.451c4.076-0.986 8.286-0.344 11.916 1.817 2.269 1.35 4.348 3.476 5.637 5.765 1.396 2.469 2.079 5.026 2.079 7.767 0.005 1.864-0.236 3.363-0.806 5.072-0.513 1.54-1.376 3.193-2.326 4.451-0.673 0.898-1.92 2.192-2.777 2.885-2.531 2.048-5.462 3.219-8.805 3.501-3.558 0.308-7.49-0.796-10.416-2.921-3.445-2.495-5.724-6.114-6.443-10.216-0.775-4.415 0.426-9.061 3.255-12.578 0.436-0.544 1.432-1.576 2.043-2.115 1.833-1.617 4.21-2.844 6.643-3.429zM16.859 1.272c-1.458-0.108-3.178 0.056-4.636 0.436-1.812 0.472-3.897 1.489-5.221 2.546-0.185 0.144-0.426 0.339-0.539 0.426-0.657 0.508-2.089 2.079-2.628 2.885-1.745 2.603-2.582 5.313-2.582 8.342 0 2.433 0.493 4.472 1.627 6.689 1.366 2.685 3.573 4.898 6.253 6.274 1.745 0.898 3.696 1.463 5.57 1.612 3.224 0.257 6.243-0.493 9.092-2.254 1.314-0.811 2.998-2.367 3.84-3.542 1.571-2.202 2.439-4.292 2.808-6.777 0.133-0.888 0.139-3.311 0.005-4.097-0.462-2.798-1.622-5.385-3.27-7.295-0.159-0.185-0.359-0.421-0.442-0.518-0.318-0.38-1.155-1.165-1.648-1.54-1.514-1.16-2.67-1.797-4.405-2.423-1.176-0.421-2.326-0.652-3.825-0.765z"></path>
</svg>
