<!-- Generated by IcoMoon.io -->
<svg version="1.1" xmlns="http://www.w3.org/2000/svg" width="32" height="32" viewBox="0 0 32 32">
<title>kmd</title>
<path d="M0 16c-0 0.009-0 0.020-0 0.031 0 8.837 7.163 16 16 16 8.826 0 15.983-7.146 16-15.968v-0.124c-0.006-1.3-0.165-2.56-0.461-3.767l0.023 0.11c-0.186-0.762-0.863-1.318-1.669-1.318-0.948 0-1.716 0.768-1.716 1.716 0 0.141 0.017 0.278 0.049 0.409l-0.002-0.012c0.22 0.879 0.346 1.889 0.346 2.928 0 6.945-5.63 12.574-12.574 12.574s-12.574-5.63-12.574-12.574c0-6.945 5.63-12.574 12.574-12.574 1.036 0 2.044 0.125 3.007 0.362l-0.086-0.018c0.119 0.030 0.257 0.047 0.398 0.047 0.948 0 1.716-0.768 1.716-1.716 0-0.807-0.557-1.483-1.307-1.667l-0.012-0.002c-1.115-0.278-2.395-0.437-3.713-0.437-8.836 0-15.999 7.163-15.999 15.999 0 0.001 0 0.001 0 0.002v-0z"></path>
<path d="M24.087 4.297c-0.023 0.022-0.038 0.048-0.060 0.071-0.377 0.399-0.626 0.923-0.679 1.503l-0.001 0.010c0 0.090 0 0.179 0 0.272 0 0.063-0.014 0.124-0.020 0.186-0.237 2.322-2.182 4.119-4.547 4.119-0.37 0-0.73-0.044-1.074-0.127l0.031 0.006q-0.173-0.038-0.343-0.094c-0.419-0.106-0.899-0.167-1.394-0.167-1.552 0-2.963 0.6-4.015 1.582l0.003-0.003c-0.058 0.054-0.122 0.101-0.179 0.158-1.071 1.071-1.734 2.551-1.734 4.186 0 3.27 2.651 5.92 5.92 5.92 1.635 0 3.115-0.663 4.186-1.734v0c0.239-0.242 0.457-0.506 0.651-0.788l0.013-0.020c0.667-0.945 1.066-2.12 1.066-3.388 0-0.486-0.059-0.958-0.169-1.41l0.008 0.041c-0.034-0.107-0.061-0.213-0.087-0.322 0-0.016-0.010-0.031-0.014-0.048-0.074-0.309-0.117-0.663-0.117-1.027 0-2.39 1.834-4.351 4.171-4.554l0.017-0.001c0.034 0 0.067-0.010 0.101-0.011 0.097 0 0.193-0.011 0.29-0.011h0.023c0.615-0.058 1.158-0.328 1.563-0.735l0-0c0.096-0.1 0.186-0.208 0.266-0.323l0.006-0.009c0.293-0.41 0.468-0.921 0.468-1.473 0-1.408-1.142-2.55-2.55-2.55-0.703 0-1.339 0.284-1.8 0.744l0-0z"></path>
</svg>
