<!-- Generated by IcoMoon.io -->
<svg version="1.1" xmlns="http://www.w3.org/2000/svg" width="29" height="32" viewBox="0 0 29 32">
<title>leo</title>
<path d="M6.749 13.892h0.015l0.234 0.088 0.248 0.088 0.234 0.088 0.248 0.102 0.234 0.088 0.248 0.073 0.234 0.088 0.234 0.102 0.467 0.175 0.248 0.073 0.234 0.102 0.248 0.088 0.234 0.088 0.248 0.088 0.234 0.088 0.248 0.088 0.234 0.088 0.248 0.088 0.234 0.102 0.248 0.073v-3.403h-5.39l-0.234 0.117-0.555 0.292-0.57 0.292-1.11 0.584-1.139 0.584-1.11 0.584-0.57 0.292-0.555 0.292-0.511 0.278-0.058 8.37 0.57 0.394 0.555 0.394 0.57 0.38 1.11 0.789 0.57 0.394 0.248 0.19 0.321-0.394 0.555-0.73 0.044-0.073-0.044-0.044-0.555-0.394-0.57-0.409-0.57-0.394-1.11-0.789-0.161-0.102 0.044-6.763 0.672-0.336 0.555-0.292 0.57-0.263 0.57-0.292 1.11-0.555 0.57-0.278 0.555-0.278z"></path>
<path d="M16.419 29.872l-0.482 0.19-0.526 0.204-0.526 0.219-0.526 0.204-0.234 0.102-0.278-0.146-0.526-0.263-0.511-0.263-2.103-1.052-0.526-0.278-0.526-0.248-0.511-0.278-0.526-0.263-0.511-0.248-0.526-0.278-0.058-0.029v-6.822h-1.519v7.756l2.103 1.052 0.511 0.263 0.526 0.278 0.511 0.248 0.526 0.278 0.526 0.263 0.526 0.248 0.526 0.278 1.052 0.526 0.511 0.263 0.73 0.365 0.307-0.131 1.052-0.409 1.052-0.438 0.526-0.19-0.526-1.315z"></path>
<path d="M25.753 20.363l0.029 3.228-0.146 0.102-0.891 0.628-0.876 0.643-0.891 0.628-0.891 0.643-0.906 0.613-0.876 0.643-1.417 1.023-0.365-0.292-0.876-0.672-0.891-0.687-0.891-0.672-0.876-0.687-0.161-0.102v-3.477l0.161-0.146 0.876-0.935 0.891-0.92 2.629-2.761h-10.62l1.768 1.855 0.906 0.92 1.768 1.855 0.117 0.131v4.207l0.774 0.599 0.891 0.672 0.876 0.687 0.891 0.672 0.891 0.687 0.876 0.672 0.336 0.263 0.555-0.409 0.891-0.628 0.876-0.643 0.906-0.628 1.782-1.256 0.876-0.643 1.782-1.256 0.73-0.54 0.146-3.959-0.876-0.029z"></path>
<path d="M1.446 12.898h0.102l0.015-4.295 0.584-0.365 0.701-0.424 0.716-0.424 0.687-0.453 0.716-0.424 0.701-0.438 1.402-0.847 0.701-0.438 0.716-0.424 0.015-0.015 0.672 0.394 0.716 0.394 1.402 0.818 0.701 0.394 0.716 0.394 0.687 0.409 0.687 0.38 0.029-0.058 0.701-1.256-0.701-0.409-0.716-0.394-0.687-0.394-0.716-0.394-0.701-0.424-1.402-0.789-0.716-0.394-0.687-0.394-0.029-0.015-0.687 0.409-0.701 0.438-0.701 0.424-0.701 0.438-0.701 0.424-0.716 0.424-0.687 0.438-0.716 0.424-1.402 0.876-0.701 0.424-0.687 0.424-0.029 5.127h0.716z"></path>
<path d="M28.908 8.954l-0.351-0.278-0.38-0.307-0.73-0.584-0.365-0.307-0.365-0.278-0.38-0.292-0.365-0.307-0.38-0.292-0.263-0.219-0.102 0.117-0.365 0.453-0.38 0.467-0.088 0.131 0.088 0.102 0.38 0.307 0.365 0.292 0.365 0.321 0.38 0.307 0.365 0.307 0.38 0.321 0.365 0.307 0.175 0.146 0.015 6.909-0.19 0.117-0.365 0.248-0.38 0.219-0.365 0.248-0.38 0.219-0.365 0.248-0.365 0.219-0.38 0.248-0.365 0.219-0.365 0.248-0.365 0.219-0.365 0.248-0.38 0.219-0.365 0.248-0.365 0.219-0.365 0.248-0.38 0.219 0.38 0.584 0.365 0.599 0.073 0.102 0.292-0.19 0.365-0.234 0.38-0.219 1.096-0.701 0.365-0.219 0.38-0.234 0.365-0.219 0.365-0.234 0.38-0.234 0.365-0.234 0.38-0.219 0.365-0.234 0.365-0.219 0.73-0.467 0.38-0.234 0.365-0.219z"></path>
<path d="M16.871 13.074v2.995l0.117-0.044 0.482-0.204 0.497-0.19 0.482-0.204 0.497-0.19 0.497-0.204 0.482-0.204 0.497-0.19 0.497-0.204 0.482-0.19 0.497-0.204 0.482-0.19v-9.057l-0.555-0.336-0.57-0.321-0.555-0.336-0.57-0.336-0.57-0.321-0.57-0.336-0.555-0.336-0.555-0.321-1.139-0.672-0.57-0.321-1.11-0.672-0.57-0.321-0.292-0.161-0.278 0.131-0.57 0.321-0.555 0.292-0.555 0.307-0.57 0.321-0.57 0.292-0.57 0.307 0.57 0.336 0.57 0.321 0.351 0.204 0.219-0.102 0.555-0.307 0.555-0.292 0.57-0.292 0.234-0.117 0.336 0.19 0.57 0.336 1.11 0.643 1.139 0.672 0.57 0.321 1.11 0.672 0.57 0.321 1.139 0.672 0.175 0.088v6.676h-3.988z"></path>
<path d="M16.871 16.068l5.507-2.22-5.522-1.534z"></path>
<path d="M11.803 16.068v-3.696l-5.040 1.505 5.040 2.176z"></path>
</svg>
