<!-- Generated by IcoMoon.io -->
<svg version="1.1" xmlns="http://www.w3.org/2000/svg" width="125" height="32" viewBox="0 0 125 32">
<title>lpt</title>
<path d="M44.15 5.65c-3.4 0-6.050 1.75-7.45 4.1-1.1 1.85-1.5 3.95-1.5 6.3 0 2.8 0.8 5.4 2.45 7.3 1.5 1.8 3.75 2.95 6.55 2.95 1.85 0 3.6-0.55 5-1.5 1.6-1.1 2.75-2.9 3.050-4.85h-3.25c-0.25 1.050-0.6 1.6-1.15 2.15-0.8 0.85-2.1 1.3-3.65 1.3-1.5 0-2.7-0.5-3.6-1.4-1.2-1.2-1.9-3.15-1.9-4.95h13.95l0.050-2c0.050-2.65-0.9-5.2-2.5-6.95-1.5-1.5-3.5-2.45-6.050-2.45zM38.75 14.25c0.1-2.9 1.85-5.8 5.4-5.8 1.75 0 3.050 0.7 3.9 1.8 0.8 1.050 1.2 2.55 1.2 4h-10.5z"></path>
<path d="M64 5.7c-2.2 0-4.75 1.1-5.9 3.050l-0.6-2.55h-2.55v27.3h3.3v-9.95c1.050 1.8 3.6 2.8 5.7 2.8 2.3 0 4.1-0.8 5.4-2 2-1.9 3-5 3-8.4 0-3.25-0.95-6.25-2.85-8.15-1.2-1.3-3.1-2.1-5.5-2.1zM63.45 23.6c-1.45 0-2.4-0.6-3.2-1.3-1.65-1.45-2.2-3.8-2.2-6.25s0.55-4.85 2.2-6.25c0.8-0.7 1.75-1.3 3.2-1.3 4.4 0 5.55 3.95 5.55 7.55s-1.15 7.55-5.55 7.55z"></path>
<path d="M83.65 5.65c-3.4 0-6.050 1.75-7.45 4.1-1.1 1.85-1.5 3.95-1.5 6.3 0 2.8 0.8 5.4 2.45 7.3 1.5 1.8 3.75 2.95 6.55 2.95 1.85 0 3.6-0.55 5-1.5 1.6-1.1 2.75-2.9 3.050-4.85h-3.25c-0.25 1.050-0.6 1.6-1.15 2.15-0.8 0.85-2.1 1.3-3.65 1.3-1.5 0-2.7-0.5-3.6-1.4-1.2-1.2-1.9-3.15-1.9-4.95h13.95l0.050-2c0.050-2.65-0.9-5.2-2.5-6.95-1.5-1.5-3.5-2.45-6.050-2.45zM78.25 14.25c0.1-2.9 1.85-5.8 5.4-5.8 1.75 0 3.050 0.7 3.9 1.8 0.8 1.050 1.2 2.55 1.2 4h-10.5z"></path>
<path d="M103.4 5.65c-3.4 0-6.050 1.75-7.45 4.1-1.1 1.85-1.5 3.95-1.5 6.3 0 2.8 0.8 5.4 2.45 7.3 1.5 1.8 3.75 2.95 6.55 2.95 1.85 0 3.6-0.55 5-1.5 1.6-1.1 2.75-2.9 3.050-4.85h-3.25c-0.25 1.050-0.6 1.6-1.15 2.15-0.8 0.85-2.1 1.3-3.65 1.3-1.5 0-2.7-0.5-3.6-1.4-1.2-1.2-1.9-3.15-1.9-4.95h13.95l0.050-2c0.050-2.65-0.9-5.2-2.5-6.95-1.5-1.5-3.5-2.45-6.050-2.45zM98 14.25c0.1-2.9 1.85-5.8 5.4-5.8 1.75 0 3.050 0.7 3.9 1.8 0.8 1.050 1.2 2.55 1.2 4h-10.5z"></path>
<path d="M125.050 8.7l-0.75-2.4-6.95 2.45-0.6-2.55h-2.55v19.65h3.3v-13.95z"></path>
<path d="M22 22.25h3.65v3.65h-3.65v-3.65z"></path>
<path d="M22 6.15h3.65v3.65h-3.65v-3.65z"></path>
<path d="M30.6 6.15h3.65v3.65h-3.65v-3.65z"></path>
<path d="M13.45 6.15h3.65v3.65h-3.65v-3.65z"></path>
<path d="M26.3 14.2h3.65v3.65h-3.65v-3.65z"></path>
<path d="M17.7 14.2h3.65v3.65h-3.65v-3.65z"></path>
<path d="M6.65-1.5h3.65v3.65h-3.65v-3.65z"></path>
<path d="M0-1.5h3.3v27.3h-3.3v-27.3z"></path>
<path d="M6.8 6.15h3.3v19.7h-3.3v-19.7z"></path>
</svg>
