<!-- Generated by IcoMoon.io -->
<svg version="1.1" xmlns="http://www.w3.org/2000/svg" width="54" height="32" viewBox="0 0 54 32">
<title>mft</title>
<path fill="#00b3f0" d="M38.417 22.999c-3.78 0-6.845-3.065-6.845-6.845s3.065-6.845 6.845-6.845 6.845 3.064 6.845 6.845c0 3.78-3.065 6.845-6.845 6.845zM38.417 0.368c-4.439 0-8.448 1.835-11.316 4.784 2.765 2.843 4.471 6.722 4.471 11.002s-1.705 8.159-4.471 11.002c2.868 2.949 6.877 4.784 11.316 4.784 8.719 0 15.786-7.068 15.786-15.786s-7.068-15.786-15.786-15.786z"></path>
<path fill="#d91b5b" d="M15.786 22.999c-3.78 0-6.845-3.065-6.845-6.845s3.065-6.845 6.845-6.845 6.845 3.064 6.845 6.845c0 3.78-3.064 6.845-6.845 6.845zM27.102 5.153c-2.868-2.95-6.877-4.784-11.316-4.784-8.719 0-15.786 7.068-15.786 15.786s7.067 15.786 15.786 15.786c4.439 0 8.448-1.835 11.316-4.784-2.765-2.843-4.47-6.723-4.47-11.002s1.705-8.158 4.47-11.002z"></path>
<path fill="#19396a" d="M22.63 16.156c0 4.279 1.705 8.158 4.47 11.002 2.765-2.843 4.47-6.722 4.47-11.002s-1.705-8.159-4.47-11.002c-2.765 2.843-4.47 6.722-4.47 11.002z"></path>
</svg>
