<!-- Generated by IcoMoon.io -->
<svg version="1.1" xmlns="http://www.w3.org/2000/svg" width="95" height="32" viewBox="0 0 95 32">
<title>mnz</title>
<path fill="#7f368a" d="M16.192 1.728c7.936 0 14.4 6.464 14.4 14.4s-6.464 14.4-14.4 14.4-14.4-6.464-14.4-14.4 6.464-14.4 14.4-14.4zM16.192 0.576c-8.64 0-15.616 6.976-15.616 15.552 0 8.64 6.976 15.616 15.616 15.616s15.616-6.976 15.616-15.616c-0.064-8.576-7.040-15.552-15.616-15.552z"></path>
<path fill="#000" d="M25.536 22.080c-0.128-0.768-0.384-1.536-0.576-2.24-0.192-0.768-0.384-1.536-0.576-2.304-0.512-1.92-1.024-3.84-1.536-5.76-0.128-0.448-0.192-0.896-0.32-1.344-0.064-0.192-0.128-0.448-0.32-0.576-0.192-0.064-0.384-0.064-0.576-0.064-0.256 0-0.512 0-0.768 0-0.512 0-1.088 0-1.6 0-0.384 0-0.704 0-1.088 0.064-0.32 0.064-0.64 0.256-0.768 0.576-0.064 0.128 0 0.32 0.128 0.384 0.064 0.064 0.192 0 0.256-0.064 0.064 0 0.256-0.192 0.32-0.192l3.008 11.072v0.064c0.064 0.256 0.192 0.512 0.384 0.576 0.128 0.064 0.256 0.128 0.448 0.128h3.2c0.192 0.064 0.448-0.064 0.384-0.32z"></path>
<path fill="#000" d="M18.112 22.080c-0.128-0.768-0.384-1.536-0.576-2.24-0.192-0.768-0.384-1.536-0.576-2.304-0.512-1.92-1.024-3.84-1.536-5.76-0.128-0.448-0.192-0.896-0.32-1.344-0.064-0.192-0.128-0.448-0.32-0.576-0.192-0.064-0.384-0.064-0.576-0.064-0.256 0-0.512 0-0.768 0-0.512 0-1.088 0-1.6 0-0.384 0-0.704 0-1.088 0.064-0.32 0.064-0.64 0.256-0.768 0.576-0.064 0.128 0 0.32 0.128 0.384 0.064 0.064 0.192 0 0.256-0.064 0.064 0 0.256-0.192 0.32-0.192l3.008 11.072v0.064c0.064 0.256 0.192 0.512 0.384 0.576 0.128 0.064 0.256 0.128 0.448 0.128h3.2c0.192 0.064 0.448-0.064 0.384-0.32z"></path>
<path fill="#000" d="M12.224 19.648l-2.048-8c0-0.128-0.128-0.256-0.32-0.256-0.128 0-0.256 0.128-0.32 0.256l-2.688 10.112v0.128c0 0.32 0.256 0.64 0.64 0.64h3.392c0.256 0 0.512-0.192 0.576-0.448z"></path>
<path fill="#000" d="M19.776 19.456l-2.24-8.064c0-0.128-0.128-0.192-0.256-0.192s-0.256 0.064-0.256 0.192l-0.448 1.6 2.24 7.808c0.064 0.128 0.128 0.192 0.256 0.192s0.192-0.064 0.256-0.192z"></path>
<path fill="#222e3b" d="M62.656 16.576v4.288c0 0.064 0.064 0.192 0.192 0.192h1.664c0.064 0 0.192-0.064 0.192-0.192v-5.12c0-1.28-1.088-2.304-2.368-2.304-0.896 0-1.728 0.512-2.112 1.216v-1.088c0-0.064-0.064-0.192-0.192-0.192h-1.664c-0.064 0-0.192 0.064-0.192 0.192v7.232c0 0.064 0.064 0.192 0.192 0.192h1.664c0.064 0 0.192-0.064 0.192-0.192v-4.352c0-0.64 0.576-1.216 1.28-1.216 0.576 0.128 1.152 0.64 1.152 1.344z"></path>
<path fill="#222e3b" d="M52.8 13.504c-2.112 0-3.904 1.664-3.904 3.776s1.728 3.776 3.904 3.776c2.112 0 3.904-1.664 3.904-3.776s-1.728-3.776-3.904-3.776zM52.8 19.264c-1.088 0-2.048-0.896-2.048-1.984s0.896-1.984 2.048-1.984c1.088 0 2.048 0.896 2.048 1.984s-0.896 1.984-2.048 1.984z"></path>
<path fill="#222e3b" d="M38.080 11.392v9.536c0 0.064 0.064 0.192 0.192 0.192h1.664c0.064 0 0.192-0.064 0.192-0.192v-5.76l2.048 3.328c0 0.064 0.064 0.064 0.128 0.064h1.088c0.064 0 0.064 0 0.128-0.064l2.112-3.328v5.76c0 0.064 0.064 0.128 0.128 0.128h1.664c0.064 0 0.128-0.064 0.128-0.128v-9.536c0-0.064-0.064-0.192-0.192-0.192h-1.664c-0.064 0-0.128 0.064-0.128 0.064l-2.752 4.864-2.752-4.864c0-0.064-0.064-0.064-0.128-0.064h-1.664c-0.128 0-0.192 0.064-0.192 0.192z"></path>
<path fill="#222e3b" d="M73.984 20.8l-2.944-7.232c0-0.064-0.064-0.128-0.128-0.128h-1.664c-0.064 0-0.128 0.064-0.128 0.064l-3.008 7.232v0.064c0 0.064 0.064 0.192 0.192 0.192h1.664c0.064 0 0.128-0.064 0.128-0.128l0.384-1.024c0.448 0.192 1.024 0.32 1.6 0.32s1.152-0.128 1.6-0.32l0.384 1.024c0 0.064 0.064 0.064 0.128 0.064h1.664c0.064 0 0.192-0.064 0.192-0.192-0.064 0.128-0.064 0.128-0.064 0.064zM70.080 18.56c-0.384 0-0.704-0.064-1.024-0.192l0.832-2.24c0-0.064 0.064-0.128 0.128-0.128s0.128 0.064 0.128 0.128l0.896 2.304c-0.32 0.064-0.64 0.128-0.96 0.128z"></path>
<path fill="#222e3b" d="M77.312 13.504h-1.664c-0.064 0-0.192 0.064-0.192 0.192v7.232c0 0.064 0.064 0.192 0.192 0.192h1.664c0.064 0 0.192-0.064 0.192-0.192v-7.296c-0.064-0.064-0.128-0.128-0.192-0.128z"></path>
<path fill="#222e3b" d="M77.312 11.2h-1.664c-0.064 0-0.192 0.064-0.192 0.192v1.088c0 0.064 0.064 0.192 0.192 0.192h1.664c0.064 0 0.192-0.064 0.192-0.192v-1.088c-0.064-0.128-0.128-0.192-0.192-0.192z"></path>
<path fill="#222e3b" d="M85.184 15.232c0 0.064 0 0.064-0.064 0.128l-3.712 3.84h3.584c0.064 0 0.192 0.064 0.192 0.192v1.536c0 0.064-0.064 0.192-0.192 0.192h-5.952c-0.064 0-0.192-0.064-0.192-0.192v-1.536c0-0.064 0-0.064 0.064-0.128l3.52-3.776h-3.456c-0.064 0-0.192-0.064-0.192-0.192v-1.6c0-0.064 0.064-0.192 0.192-0.192h5.952c0.064 0 0.192 0.064 0.192 0.192z"></path>
<path fill="#222e3b" d="M93.376 15.040c-0.64-0.96-1.728-1.6-2.944-1.6s-2.304 0.64-3.008 1.6c-0.448 0.64-0.704 1.344-0.704 2.176 0 2.112 1.792 3.776 4.032 3.776 1.152 0 2.176-0.512 2.88-1.216s0.064-0.064 0.064-0.064c0-0.064 0-0.064-0.064-0.128l-0.896-0.96c0-0.064-0.064-0.064-0.128-0.064s-0.064 0-0.128 0.064c-0.384 0.384-0.96 0.64-1.664 0.64-1.088 0-1.984-0.64-1.984-1.408h5.184c0.064 0 0.192-0.064 0.192-0.192v-0.384c-0.064-0.832-0.32-1.6-0.832-2.24zM88.832 16.704c0-0.832 0.704-1.536 1.664-1.536 0.896 0 1.664 0.704 1.664 1.536z"></path>
</svg>
