<!-- Generated by IcoMoon.io -->
<svg version="1.1" xmlns="http://www.w3.org/2000/svg" width="32" height="32" viewBox="0 0 32 32">
<title>msr</title>
<path fill="#4cb860" d="M11.171 10.391l4.829 6.926 4.827-6.926 3.629 6.236h7.513c0.008-0.209 0.032-0.415 0.032-0.626 0-8.836-7.164-16-16-16s-16 7.164-16 16c0 0.211 0.023 0.417 0.032 0.626h7.513l3.627-6.236zM3.032 14.7c0.655-6.579 6.22-11.734 12.968-11.734s12.314 5.155 12.968 11.734h-1.943c-0.647-5.514-5.34-9.808-11.025-9.808s-10.378 4.294-11.025 9.808h-1.943z"></path>
<path fill="#658289" d="M20.68 13.968l-4.68 6.719-4.682-6.719-2.668 4.584h-8.428c1.225 7.62 7.812 13.447 15.778 13.447s14.552-5.827 15.777-13.447h-8.428l-2.669-4.584zM26.156 20.479h2.068c-1.832 4.984-6.612 8.555-12.224 8.555s-10.393-3.571-12.225-8.555h2.068c1.726 3.899 5.626 6.629 10.156 6.629s8.431-2.73 10.157-6.629z"></path>
</svg>
