<!-- Generated by IcoMoon.io -->
<svg version="1.1" xmlns="http://www.w3.org/2000/svg" width="37" height="32" viewBox="0 0 37 32">
<title>nexo</title>
<path fill="#3ca9e5" d="M9.584 0.204l18.121 10.461v10.665l-27.706-16 8.89-5.127c0.102-0.060 0.224-0.095 0.355-0.095s0.253 0.035 0.358 0.097l-0.003-0.002z"></path>
<path fill="#2853c3" d="M27.706 0l-9.231 5.335 9.231 5.331v-10.665z"></path>
<path fill="#1a4199" d="M27.706 0l8.886 5.127c0.222 0.122 0.37 0.354 0.371 0.62v20.919l-9.258-5.335z"></path>
<path fill="#2853c3" d="M36.963 26.665l-8.916 5.127c-0.102 0.057-0.225 0.090-0.355 0.090s-0.252-0.033-0.359-0.092l0.004 0.002-18.106-10.461v-10.68z"></path>
<path fill="#60beff" d="M0 5.331v20.922c0.001 0.267 0.15 0.498 0.368 0.619l0.004 0.002 8.89 5.127v-21.349z"></path>
<path fill="#3ca9e5" d="M9.246 32l9.228-5.335-9.228-5.331v10.665z"></path>
</svg>
