<!-- Generated by IcoMoon.io -->
<svg version="1.1" xmlns="http://www.w3.org/2000/svg" width="32" height="32" viewBox="0 0 32 32">
<title>pasc</title>
<path fill="#f7931e" d="M16 0c-8.837 0-16 7.163-16 16s7.163 16 16 16c8.837 0 16-7.163 16-16v0c0-8.837-7.163-16-16-16v0zM24 7.75c1.657 0 3 1.343 3 3v0 4.5c0 1.657-1.343 3-3 3v0h-3.715l-0.239 1.125c-0.068 0.28-0.311 0.487-0.605 0.5l-0.001 0h-0.75c-0.005 0-0.011 0-0.016 0-0.217 0-0.392-0.176-0.392-0.392 0-0.038 0.006-0.076 0.016-0.111l-0.001 0.003 0.239-1.125h-1.75l-0.239 1.125c-0.068 0.28-0.311 0.487-0.605 0.5l-0.001 0h-0.75c-0.005 0-0.011 0-0.016 0-0.217 0-0.393-0.176-0.393-0.392 0-0.038 0.006-0.076 0.016-0.111l-0.001 0.003 0.239-1.125h-1.875l-1.648 7.75h-4l2.922-13.75h4l-0.637 3h7.703c0.828 0 1.5-0.672 1.5-1.5v0-1.5c0-0.828-0.672-1.5-1.5-1.5v0h-16.5l2.5-3h9.767l0.239-1.125c0.068-0.28 0.311-0.487 0.605-0.5l0.001-0h0.75c0.005-0 0.011-0 0.016-0 0.217 0 0.392 0.176 0.392 0.393 0 0.038-0.006 0.076-0.016 0.111l0.001-0.003-0.239 1.125h1.75l0.239-1.125c0.068-0.28 0.311-0.487 0.605-0.5l0.001-0h0.75c0.005-0 0.011-0 0.016-0 0.217 0 0.392 0.176 0.392 0.393 0 0.038-0.006 0.076-0.016 0.111l0.001-0.003-0.239 1.125z"></path>
</svg>
