<!-- Generated by IcoMoon.io -->
<svg version="1.1" xmlns="http://www.w3.org/2000/svg" width="32" height="32" viewBox="0 0 32 32">
<title>pax</title>
<path fill="#e9e223" d="M19.81 5.68c0.499 0.139 1.025 0.416 1.552 0.776 2.66 0.776 5.319 2.549 7.647 5.901 0.222 0.332 0.443 0.665 0.637 0.97 1.219-3.242 0.997-5.763-0.166-6.871-2.078-1.995-5.042-0.887-8.45-2.272-2.771-2.022-4.433-2.494-6.732-2.494 0 0-1.939 0.139-4.156 2.022 3.491 0 7.508 1.358 9.669 1.967z"></path>
<path fill="#b2cc3a" d="M5.624 10.944c1.247-3.657 2.965-5.79 4.488-7.203-1.995 0.055-3.823 0.554-4.987 1.939-1.358 1.607-1.662 6.012-1.884 7.12s-2.577 5.597-2.3 8.090c0.249 2.327 2.050 5.098 7.176 5.763 0.139-1.219-6.4-5.68-2.494-15.709z"></path>
<path fill="#55b14b" d="M4.987 17.039c0.36-5.818 5.597-8.949 5.597-8.949 2.604-1.607 6.677-2.826 10.777-1.607-0.526-0.36-1.081-0.693-1.579-0.859-2.106-0.665-6.151-1.967-9.669-1.884-1.552 1.33-3.242 3.546-4.488 7.203-3.906 10.029 2.604 15.46 2.909 15.737 0.139 0.028-0.582-0.055-0.416-0.028-1.718-1.995-3.020-5.015-3.131-9.614z"></path>
<path fill="#1893d2" d="M29.617 13.354c-0.97 2.577-2.909 5.597-6.040 8.672-0.222 0.222-0.443 0.443-0.693 0.637-1.745 2.106-4.184 3.214-6.816 3.74-3.602 0.97-6.732 0.305-7.951 0.249 2.549 2.909 6.040 3.546 7.647 3.38 2.687-0.277 6.317-4.378 8.589-6.012 2.161-1.552 9.919-2.992 5.264-10.667z"></path>
<path fill="#00855d" d="M21.361 6.483c2.881 1.967 5.624 6.816 3.436 12.883-0.471 1.302-1.108 2.41-1.884 3.325 0.222-0.194 0.443-0.416 0.693-0.637 3.131-3.103 5.042-6.095 6.040-8.672-0.194-0.305-0.388-0.637-0.637-0.97-2.327-3.38-4.987-5.153-7.647-5.929z"></path>
<path fill="#035127" d="M8.118 26.653c-0.028-0.028 0.028 0.028 0 0v0z"></path>
<path fill="#035127" d="M21.361 6.483c-4.322-1.274-8.173 0.028-10.777 1.607 0 0-5.209 3.131-5.597 8.949 0.111 4.599 1.413 7.619 3.131 9.586 1.164 0.249 4.35 0.748 7.951-0.222 2.632-0.526 5.070-1.607 6.843-3.713 0.776-0.914 1.413-1.995 1.884-3.325 2.189-6.068-0.554-10.916-3.436-12.883zM17.261 23.661c-6.095 1.33-9.281-4.1-9.558-5.209s-0.831-6.732 3.879-9.503c3.491-2.050 8.395-2.216 10.473 2.355s1.302 11.055-4.793 12.357z"></path>
</svg>
