<!-- Generated by IcoMoon.io -->
<svg version="1.1" xmlns="http://www.w3.org/2000/svg" width="37" height="32" viewBox="0 0 37 32">
<title>polis</title>
<path d="M36.217 30.766v-1.844c0-0.366-0.244-0.611-0.617-0.611h-1.228v-1.851c0-0.366-0.244-0.617-0.611-0.617h-1.228v-13.546h1.221c0.366 0 0.617-0.244 0.617-0.617v-1.844h1.228c0.007 0 0.016 0.001 0.025 0.001 0.293 0 0.537-0.212 0.585-0.492l0.001-0.004c0.061-0.305-0.061-0.55-0.305-0.678l-17.186-8.618c-0.082-0.029-0.176-0.046-0.275-0.046s-0.193 0.017-0.281 0.048l0.006-0.002-17.803 8.618c-0.192 0.106-0.32 0.308-0.32 0.539 0 0.047 0.005 0.093 0.015 0.137l-0.001-0.004c0 0.311 0.244 0.501 0.55 0.501h1.844v1.844c0 0.366 0.244 0.611 0.611 0.611h1.228v13.552h-1.221c-0.366 0-0.617 0.244-0.617 0.611v1.851h-1.228c-0.366 0-0.611 0.244-0.611 0.611v1.851c-0.366 0-0.617 0.244-0.617 0.617s0.244 0.617 0.611 0.617h35.606c0.366 0 0.617-0.244 0.617-0.611s-0.244-0.623-0.611-0.623zM3.677 11.064v-1.228h29.462v1.228h-29.462zM28.839 12.297v13.546h-2.449v-13.546zM22.701 12.297v13.546h-2.455v-13.546zM16.563 12.297v13.546h-2.449v-13.546zM10.425 12.297v13.546h-2.449v-13.546zM33.139 28.305h-29.456v-1.234h29.462v1.234z"></path>
</svg>
