<!-- Generated by IcoMoon.io -->
<svg version="1.1" xmlns="http://www.w3.org/2000/svg" width="32" height="32" viewBox="0 0 32 32">
<title>pre</title>
<path fill="#2d8eff" d="M11.69 19.492h2.829c0.006 0 0.013 0 0.020 0 0.843 0 1.641-0.191 2.353-0.533l-0.033 0.014c0.712-0.357 1.314-0.826 1.811-1.391l0.006-0.007c0.485-0.574 0.876-1.247 1.139-1.98l0.014-0.045c0.265-0.688 0.419-1.484 0.419-2.315 0-0.009-0-0.018-0-0.027v0.001c0-0.011 0-0.023 0-0.036 0-0.807-0.167-1.575-0.468-2.271l0.014 0.037c-0.313-0.765-0.724-1.423-1.229-1.997l0.007 0.008c-0.513-0.582-1.127-1.062-1.817-1.415l-0.035-0.016c-0.669-0.353-1.461-0.56-2.303-0.56-0.011 0-0.023 0-0.034 0h-7.436v18.051h4.75zM11.69 11.319h2.407c0.347 0.023 0.654 0.18 0.873 0.418l0.001 0.001c0.279 0.279 0.454 0.769 0.454 1.537s-0.173 1.222-0.419 1.47c-0.209 0.245-0.489 0.419-0.803 0.419h-2.512z"></path>
<path fill="#2d8eff" d="M0.816 2.603v26.794c0 0.96 0.778 1.738 1.738 1.738v0h26.794c0.96 0 1.738-0.778 1.738-1.738v0-26.794c0-0.96-0.778-1.738-1.738-1.738h-26.794c-0.96 0-1.738 0.778-1.738 1.738v0zM25.782 27.569h-19.698c-0 0-0.001 0-0.001 0-0.96 0-1.738-0.778-1.738-1.738v0-19.698c0-0.96 0.778-1.738 1.738-1.738 0 0 0.001 0 0.001 0h19.698c0.96 0 1.738 0.778 1.738 1.738v0 19.698c0 0.96-0.778 1.738-1.738 1.738v0z"></path>
<path fill="#2d8eff" d="M13.821 21.623h11.142v3.423h-11.142v-3.423z"></path>
</svg>
