<!-- Generated by IcoMoon.io -->
<svg version="1.1" xmlns="http://www.w3.org/2000/svg" width="28" height="32" viewBox="0 0 28 32">
<title>ren</title>
<path d="M4.404 6.746l2.342-1.35 0.332 0.544 8.687-5.017-0.638-0.379-0.642-0.354-0.306-0.19-14.178 8.191v0.354l4.072-2.342 0.332 0.544z"></path>
<path d="M4.404 11.905l6.815-3.929 0.306 0.547 8.712-5.020-0.638-0.379-0.638-0.354-0.31-0.19-18.651 10.745v0.379l4.072-2.342 0.332 0.544z"></path>
<path d="M4.404 14.484l9.041-5.228 0.306 0.544 8.712-5.017-0.638-0.358-0.642-0.379-0.306-0.19-20.876 12.051v0.376l4.072-2.364 0.332 0.566z"></path>
<path d="M4.404 17.042l11.336-6.534 0.31 0.547 8.639-4.995-0.642-0.358-0.638-0.376-0.306-0.168-23.102 13.328v0.354l4.072-2.342 0.332 0.544z"></path>
<path d="M4.404 19.621l13.561-7.833 0.31 0.569 8.639-4.995-0.642-0.379-0.613-0.358-0.332-0.186-25.327 14.626v0.354l4.072-2.342 0.332 0.544z"></path>
<path d="M27.881 7.906l-0.328-0.19-27.553 15.929v0.354l4.072-2.342 0.332 0.544 13.561-7.833 0.31 0.544 10.081-5.797v-0.923l-0.474-0.285z"></path>
<path d="M1.751 25.564l2.273-1.302 0.332 0.544 13.539-7.833 0.328 0.566 10.132-5.87v-1.821l-26.91 15.528 0.306 0.19z"></path>
<path d="M17.895 19.552l0.328 0.569 10.132-5.87v-1.824l-24.685 14.251 0.306 0.19 2.32-1.35 0.328 0.544z"></path>
<path d="M6.202 28.144l2.342-1.35 0.306 0.569 9.044-5.232 0.328 0.544 10.132-5.845v-1.846l-22.463 12.97 0.31 0.19z"></path>
<path d="M8.45 29.421l2.32-1.324 0.306 0.544 6.819-3.929 0.328 0.544 10.132-5.845v-1.846l-20.238 11.693 0.332 0.164z"></path>
<path d="M10.343 30.533l0.332 0.19 2.32-1.35 0.306 0.569 4.593-2.652 0.328 0.547 10.132-5.848v-1.846l-18.012 10.391z"></path>
<path d="M12.901 32l2.32-1.324 0.328 0.544 2.346-1.372 0.328 0.569 10.132-5.848v-1.846l-15.765 9.114 0.31 0.164z"></path>
<path d="M18.012 2.2l-0.638-0.354-0.638-0.379-0.332-0.19-16.403 9.493v0.354l4.072-2.342 0.332 0.544 4.59-2.649 0.31 0.544 8.709-5.020z"></path>
</svg>
