<!-- Generated by IcoMoon.io -->
<svg version="1.1" xmlns="http://www.w3.org/2000/svg" width="28" height="32" viewBox="0 0 28 32">
<title>req</title>
<path d="M18.877 17.821l7.881-8.090c0.591-0.607 0.923-1.432 0.921-2.291l0.013-6.539c-0.001-0.335-0.127-0.658-0.352-0.9l-15.12 15.534c-0.594 0.606-0.927 1.431-0.927 2.291s0.334 1.685 0.927 2.291l10.661 10.943c0.795 0.814 1.952 1.13 3.034 0.829s1.926-1.175 2.214-2.291c0.288-1.116-0.025-2.305-0.82-3.12l-8.433-8.656z"></path>
<path d="M27.341 0h-23.972c-1.938 0-3.369 1.479-3.369 3.497v25.249c-0.011 0.867 0.326 1.701 0.933 2.314s1.434 0.952 2.293 0.94v0c0.859 0.015 1.688-0.323 2.295-0.937s0.942-1.45 0.928-2.317v-22.516h15.947l5.84-5.866c-0.236-0.239-0.559-0.37-0.894-0.363z"></path>
</svg>
