<!-- Generated by IcoMoon.io -->
<svg version="1.1" xmlns="http://www.w3.org/2000/svg" width="28" height="32" viewBox="0 0 28 32">
<title>safe</title>
<path fill="#fff" d="M0 0h27.898v32h-27.898v-32z"></path>
<path fill="#07698d" d="M26.639 8.221l-12.703-7.32-12.679 7.326v14.628l12.673 7.301 12.709-7.303zM24.34 20.543l-10.409 6.077-9.652-5.511 1.69-0.989 7.945 4.557 7.104-4.163-2.167-1.243-4.836 2.808c-0.013 0.008-0.029 0.012-0.046 0.012s-0.033-0.005-0.046-0.013l0 0-5.549-3.215-0.002-5.594-4.874-2.795 10.39-6.090c0.004-0.002 0.009-0.004 0.014-0.004s0.010 0.001 0.014 0.004l-0-0 9.649 5.517-1.707 0.987-7.937-4.567-7.040 4.132 2.442 1.404 4.605-2.679 5.623 3.216-0.003 5.323 4.793 2.744z"></path>
<path fill="#535352" d="M15.459 14.163c-0-0.856-0.694-1.55-1.55-1.55s-1.55 0.694-1.55 1.55c0 0.641 0.389 1.191 0.944 1.427l0.010 0.004-0.67 3.062h2.533l-0.675-3.061c0.567-0.239 0.957-0.79 0.957-1.432 0-0 0-0 0-0v0z"></path>
<path fill="#5d5d5d" d="M15.459 14.163c-0-0.845-0.677-1.532-1.518-1.549l-0.002-0 0.020 6.042h1.217l-0.675-3.061c0.567-0.239 0.957-0.79 0.957-1.432 0-0 0-0 0-0v0z"></path>
<path fill="#0c789f" d="M18.851 19.27l-4.836 2.808c-0.013 0.008-0.029 0.012-0.046 0.012s-0.033-0.005-0.046-0.013l0 0-0.001 2.592 7.095-4.158z"></path>
<path fill="#0c789f" d="M26.639 8.221l-12.703-7.32-0.017 0.010 0.006 3.479 9.64 5.512-1.707 0.987-7.937-4.567 0.004 2.859 0.003-0.002 5.623 3.216-0.003 5.323 4.793 2.744-0.001 0.082-10.409 6.077-0.002 3.536 0.002 0.001 12.709-7.303-0.001-14.632z"></path>
</svg>
