<!-- Generated by IcoMoon.io -->
<svg version="1.1" xmlns="http://www.w3.org/2000/svg" width="32" height="32" viewBox="0 0 32 32">
<title>sin</title>
<path d="M0.002 16.198c-0.008-1.884 0.266-3.59 0.811-5.25 0.638-1.943 1.608-3.695 2.903-5.259 1.496-1.807 3.296-3.209 5.393-4.207 1.392-0.662 2.849-1.1 4.37-1.318 0.913-0.131 1.83-0.19 2.752-0.154 1.799 0.070 3.54 0.434 5.215 1.113 0.026 0.011 0.051 0.021 0.076 0.033s0.056 0.023 0.059 0.055c0.003 0.041-0.034 0.055-0.064 0.067-0.191 0.075-0.383 0.149-0.575 0.224-1.254 0.491-2.482 1.042-3.675 1.672-1.323 0.698-2.594 1.483-3.772 2.418-1.025 0.815-1.961 1.721-2.72 2.805-0.511 0.729-0.916 1.515-1.137 2.389-0.281 1.108-0.211 2.204 0.108 3.291 0.236 0.803 0.589 1.554 0.979 2.288 0.493 0.928 1.052 1.816 1.566 2.73 0.467 0.832 0.902 1.682 1.189 2.6 0.201 0.641 0.321 1.298 0.308 1.975-0.018 0.89-0.252 1.723-0.66 2.507-0.484 0.933-1.148 1.721-1.888 2.448-0.682 0.669-1.425 1.261-2.191 1.825-0.112 0.082-0.201 0.077-0.318 0.018-1.118-0.568-2.153-1.263-3.111-2.082-1.155-0.99-2.15-2.129-2.987-3.41-0.681-1.042-1.234-2.151-1.66-3.328-0.424-1.17-0.709-2.375-0.858-3.614-0.078-0.653-0.125-1.31-0.112-1.836z"></path>
<path d="M9.674 30.786c0.030-0.070 0.101-0.071 0.156-0.091 1.118-0.412 2.219-0.863 3.296-1.369 1.264-0.595 2.494-1.253 3.659-2.023 0.907-0.599 1.771-1.253 2.561-2 0.779-0.737 1.471-1.543 2.009-2.471 0.436-0.751 0.729-1.554 0.825-2.418 0.087-0.793-0.001-1.574-0.218-2.341-0.24-0.847-0.615-1.636-1.038-2.406-0.506-0.923-1.080-1.807-1.61-2.716-0.45-0.773-0.869-1.56-1.173-2.403-0.297-0.822-0.446-1.667-0.381-2.541 0.044-0.593 0.197-1.162 0.436-1.709 0.358-0.822 0.876-1.54 1.476-2.204 0.876-0.97 1.895-1.777 2.958-2.535 0.117-0.084 0.214-0.094 0.345-0.028 1.129 0.567 2.186 1.242 3.16 2.044 0.996 0.82 1.883 1.743 2.655 2.773 1.403 1.873 2.358 3.949 2.848 6.233 0.151 0.706 0.257 1.418 0.308 2.138 0.036 0.504 0.067 1.008 0.052 1.514-0.042 1.476-0.257 2.925-0.691 4.341-0.474 1.549-1.168 2.994-2.079 4.336-0.681 1.003-1.466 1.919-2.358 2.743-1.035 0.958-2.176 1.773-3.424 2.437-1.512 0.805-3.112 1.355-4.8 1.658-0.648 0.116-1.303 0.186-1.961 0.225-0.441 0.026-0.882 0.034-1.322 0.022-1.41-0.038-2.793-0.25-4.148-0.643-0.468-0.136-0.928-0.29-1.381-0.469-0.058-0.025-0.126-0.032-0.158-0.096z"></path>
</svg>
