<!-- Generated by IcoMoon.io -->
<svg version="1.1" xmlns="http://www.w3.org/2000/svg" width="28" height="32" viewBox="0 0 28 32">
<title>smart</title>
<path fill="#fdc50c" d="M0 7.993v16.034c0.081 0.007 1.188 0.667 1.303 0.736l1.735 1.003c0.146 0.087 0.29 0.168 0.434 0.251l0.859 0.494c0.072 0.039 0.136 0.080 0.213 0.122 0.083 0.046 0.138 0.085 0.223 0.128 0.221 0.112 0.432 0.248 0.644 0.375l1.091 0.629c0.076 0.042 0.136 0.078 0.211 0.123 0.426 0.256 0.869 0.487 1.294 0.744l1.523 0.882c1.004 0.594 2.029 1.146 3.030 1.748l1.19 0.689c0.188 0.127 0.259-0.017 0.556-0.179l2.605-1.503c0.144-0.083 0.285-0.165 0.436-0.249l0.425-0.244c0.072-0.039 0.138-0.081 0.21-0.124l2.39-1.383c0.714-0.427 1.45-0.815 2.164-1.244l4.759-2.757c0.069-0.041 0.137-0.084 0.211-0.123 0.076-0.041 0.148-0.097 0.234-0.117v-16.035c-0.135-0.091-0.275-0.161-0.421-0.248l-4.335-2.496c-0.148-0.089-0.287-0.166-0.434-0.251-0.143-0.082-0.283-0.171-0.43-0.255-0.868-0.496-1.741-0.978-2.599-1.493l-4.118-2.379c-0.241-0.145-1.478-0.873-1.532-0.873-0.021 0-0.178 0.102-0.212 0.122l-5.627 3.242c-0.082 0.046-0.139 0.083-0.222 0.128-0.075 0.041-0.142 0.081-0.212 0.123l-0.432 0.253c-0.075 0.045-0.144 0.085-0.221 0.129l-0.424 0.245c-0.15 0.088-0.289 0.164-0.436 0.249l-0.871 0.498c-0.074 0.040-0.139 0.082-0.212 0.123l-1.090 0.629c-0.15 0.088-0.291 0.162-0.438 0.246l-0.862 0.508c-0.433 0.248-0.866 0.512-1.305 0.749-0.193 0.104-1.205 0.722-1.306 0.748z"></path>
<path fill="#050708" d="M12.727 8.735h-3.744v3.012c0 0.014 0.046 0.059 0.056 0.071s0.020 0.020 0.032 0.032c0.087 0.086 0.165 0.181 0.251 0.268 0.015 0.015 0.018 0.023 0.031 0.037 0.043 0.046 0.087 0.089 0.13 0.135l0.094 0.103 0.003 0.003 0.028 0.030c0.087 0.087 0.169 0.182 0.254 0.271l0.127 0.139c0.012 0.012 0.021 0.020 0.032 0.032l0.478 0.514 0.214 0.23c0.011 0.011 0.022 0.024 0.031 0.037l0.001 0.001 1.45 1.555c0.010 0.010 0.020 0.021 0.029 0.033l0.001 0.001 0.158 0.171c0.098 0.099 0.188 0.204 0.286 0.303 0.015 0.015 0.018 0.023 0.031 0.037 0.011 0.012 0.020 0.020 0.032 0.032l0.124 0.136c0.039 0.039 0.135 0.137 0.16 0.174-0.017 0.026-0.041 0.040-0.061 0.066-0.034 0.045-0.194 0.208-0.249 0.27-0.022 0.025-0.045 0.042-0.065 0.067l-0.094 0.102c-0.012 0.014-0.022 0.023-0.034 0.035l-0.124 0.136c-0.022 0.025-0.045 0.042-0.065 0.067s-0.042 0.044-0.065 0.067l-0.124 0.136c-0.012 0.012-0.020 0.020-0.032 0.032l-0.282 0.306c-0.089 0.088-0.166 0.184-0.254 0.271l-0.125 0.135c-0.019 0.024-0.044 0.043-0.065 0.067l-0.008 0.009c-0.068 0.081-0.18 0.182-0.245 0.263l-0.048 0.050c-0.004 0.005-0.004 0.004-0.008 0.009l-0.003 0.003-0.321 0.343c-0.009 0.013-0.019 0.024-0.029 0.035l0-0-0.032 0.032-0.192 0.206c-0.021 0.027-0.039 0.042-0.061 0.066l-0.159 0.17c-0.005 0.005-0.005 0.005-0.008 0.009l-0.003 0.003c-0.047 0.056-0.098 0.105-0.148 0.158l-0.236 0.254c-0.004 0.005-0.003 0.004-0.008 0.009l-0.070 0.074c-0.013 0.014-0.015 0.021-0.029 0.035l-0.066 0.067-0.003 0.003-0.22 0.237c-0.010 0.010-0.020 0.021-0.029 0.033l-0.001 0.001c-0.010 0.012-0.020 0.022-0.031 0.032l-0 0-0.381 0.41c-0.019 0.018-0.056 0.045-0.056 0.076v3.001h3.744v1.079h1.955c0.013 0 0.017-0.004 0.017-0.017v-1.062h4.055v-3.001c0-0.029-0.103-0.017-0.156-0.017h-5.423l0.368-0.405c0.011-0.012 0.021-0.019 0.032-0.032l0.124-0.136c0.009-0.013 0.019-0.024 0.029-0.035l-0 0c0.065-0.064 0.12-0.138 0.185-0.202 0.011-0.010 0.021-0.021 0.031-0.032l0-0c0.009-0.013 0.019-0.024 0.029-0.034l0-0 0.149-0.162 0.013-0.016c0.004-0.005 0.004-0.005 0.008-0.009l0.323-0.352c0.007-0.007 0.008-0.008 0.014-0.015 0.084-0.1 0.177-0.193 0.263-0.29 0.012-0.013 0.023-0.022 0.035-0.035 0.072-0.078 0.139-0.16 0.213-0.237l0.152-0.165c0.080-0.095 0.17-0.179 0.25-0.275l0.369-0.404c0.042-0.054 0.18-0.191 0.231-0.253l0.261-0.287c0.058-0.058 0.134-0.152 0.185-0.202 0.025-0.025 0.039-0.045 0.064-0.069l0.372-0.407c0.010-0.010 0.020-0.022 0.028-0.034l0.001-0.001 0.156-0.168c0.010-0.010 0.020-0.022 0.028-0.033l0.001-0.001c0.013-0.015 0.022-0.020 0.033-0.036-0.026-0.038-0.057-0.069-0.088-0.102l-0.741-0.811c-0.055-0.055-0.1-0.118-0.156-0.173-0.012-0.011-0.021-0.020-0.032-0.032l-0.413-0.453c-0.005-0.005-0.005-0.005-0.008-0.009l-1.152-1.266c-0.085-0.088-0.161-0.185-0.248-0.271l-0.451-0.495c-0.053-0.063-0.112-0.117-0.165-0.181-0.021-0.025-0.042-0.042-0.060-0.067l-0.311-0.343c-0.040-0.046-0.089-0.088-0.123-0.137h5.578v-3.041h-4.043c-0.013 0-0.017-0.004-0.017-0.017v-1.2c-0.658 0-1.309-0.012-1.967-0.012v1.252z"></path>
</svg>
