<!-- Generated by IcoMoon.io -->
<svg version="1.1" xmlns="http://www.w3.org/2000/svg" width="28" height="32" viewBox="0 0 28 32">
<title>tern</title>
<path fill="#f4c257" d="M4.252 23.22l-1.454-0.844v-12.75l2.345-1.363 1.454 0.844-2.345 1.364v4.432l5.93 3.446v1.64l-5.93-3.445v6.677zM24.737 20.684v1.69l-10.97 6.374-2.345-1.363v-1.69l2.345 1.362 3.814-2.216v-6.891l1.411-0.82v6.892l5.745-3.339zM27.535 16v-0.289l-5.663 3.292v-1.64l5.662-3.291v-6.072l-13.767-8-7.132 4.144 5.663 3.29-1.411 0.82-5.663-3.291-5.224 3.036v16l7.131 4.144v-6.581l1.411 0.82v6.581l5.225 3.035 13.767-8q0-4 0-8v0zM20.401 12.964l-5.7 3.314v6.892l-0.933 0.542-0.706-0.41v-6.627l-5.93-3.446v-1.085l0.705-0.411 5.701 3.313 5.93-3.445 0.933 0.543v0.82zM12.313 4.096l1.454-0.844 10.969 6.374v2.725l-1.454 0.844v-2.725l-3.814-2.216-5.93 3.446-1.411-0.82 5.93-3.446-5.745-3.338z"></path>
</svg>
