<!-- Generated by IcoMoon.io -->
<svg version="1.1" xmlns="http://www.w3.org/2000/svg" width="32" height="32" viewBox="0 0 32 32">
<title>tks</title>
<path fill="#000" d="M32 16c0 8.837-7.163 16-16 16s-16-7.163-16-16c0-8.837 7.163-16 16-16s16 7.163 16 16z"></path>
<path fill="#fff" d="M13.518 11.555v0.117c0 1.939 2.492 2.973 2.57 3.005v-7.135c-0.077 0.075-2.57 2.464-2.57 4.014z"></path>
<path fill="#fff" d="M16.088 14.679v0c-0.001 0-0.001 0-0.001 0h0.001z"></path>
<path fill="#fff" d="M16.090 14.679c0 0 0 0-0.001-0.001v0.001h0.001z"></path>
<path fill="#fff" d="M16.087 7.54c0 0 0 0 0.001 0.001v-0.001h-0.001z"></path>
<path fill="#fff" d="M16.088 7.541v7.136c0.079-0.031 2.57-1.067 2.57-3.005v-0.117c0-1.552-2.491-3.94-2.57-4.015z"></path>
<path fill="#fff" d="M16.088 7.54v0.001c0.001-0.001 0.001-0.001 0.001-0.001h-0.001z"></path>
<path fill="#fff" d="M16.041 14.514c0 0-1.047-0.975-3.026-0.843s-2.879 2.817-4.132 2.73c0 0 2.161 1.757 4.028 2.064 1.683 0.257 3.421-0.997 3.129-3.951z"></path>
<path fill="#fff" d="M16.089 14.445c0 0 0.436-0.434 1.476-0.668 0.406-0.092 0.888-0.142 1.444-0.104 1.979 0.132 2.879 2.817 4.132 2.73 0 0-2.161 1.757-4.028 2.064-1.367 0.208-2.771-0.579-3.094-2.465-0.073-0.438 0.016-1.002 0.071-1.557z"></path>
<path fill="#fff" d="M16.067 26.254l-9.018-5.206v0.495l9.018 5.208 8.908-5.143v-0.495z"></path>
<path fill="#fff" d="M16.012 23.266l-8.944-5.163v-8.512l8.944-4.333 8.944 4.333v8.514l-8.944 5.162zM7.986 17.574l8.026 4.634 8.026-4.634v-7.409l-8.026-3.889-8.026 3.889v7.409z"></path>
<path fill="#fff" d="M15.81 14.445h0.404v8.292h-0.404v-8.292z"></path>
<path fill="#fff" d="M16.067 26.254l-9.018-5.206v0.497l9.018 5.206 8.908-5.143v-0.495z"></path>
<path fill="#fff" d="M7.049 20.043v0.497l9.018 5.208 8.908-5.143v-0.497l-8.908 5.143z"></path>
<path fill="#fff" d="M16.067 24.742l8.908-5.142v-0.497l-8.908 5.143-9.018-5.208v0.497z"></path>
<path fill="#fff" d="M16.012 14.916l-8.579-4.556 0.19-0.356 8.389 4.454 8.389-4.454 0.19 0.356z"></path>
</svg>
