<!-- Generated by IcoMoon.io -->
<svg version="1.1" xmlns="http://www.w3.org/2000/svg" width="32" height="32" viewBox="0 0 32 32">
<title>tomo</title>
<path d="M14.514 22.003c0.557 0.274 1.211 0.435 1.904 0.435h0c1.045-0.001 2.004-0.371 2.753-0.987l-0.008 0.006c0.106-0.085 0.213-0.176 0.32-0.272 0.175-0.161 0.284-0.391 0.284-0.646 0-0.484-0.393-0.877-0.877-0.877-0.229 0-0.437 0.088-0.593 0.231l0.001-0.001c-0.078 0.072-0.16 0.139-0.235 0.203-0.442 0.367-1.016 0.59-1.642 0.59-0.419 0-0.815-0.1-1.164-0.277l0.015 0.007c-0.911-0.426-1.531-1.334-1.531-2.388 0-0.011 0-0.022 0-0.033l-0 0.002v-4.669h5.25c0.010 0.001 0.023 0.001 0.035 0.001 0.424 0 0.768-0.344 0.768-0.768s-0.344-0.768-0.768-0.768c-0.012 0-0.025 0-0.037 0.001l0.002-0h-5.253v-1.357c0-0.486-0.394-0.88-0.88-0.88s-0.88 0.394-0.88 0.88v0 1.357h-1.44c-0.409 0.019-0.733 0.355-0.733 0.767s0.324 0.748 0.731 0.767l0.002 0h1.44v4.674c-0 0.005-0 0.011-0 0.017 0 1.753 1.026 3.267 2.511 3.973l0.027 0.011z"></path>
<path d="M27.72 18.522c0.009-0.041 0.014-0.089 0.014-0.138 0-0.371-0.301-0.672-0.672-0.672-0 0-0.001 0-0.002 0h-0.201c-0.001 0-0.002 0-0.003 0-0.313 0-0.576 0.218-0.644 0.511l-0.001 0.004c-1.041 4.587-4.981 7.996-9.754 8.217l-0.023 0.001c-7.387 0.299-13.186-7.112-9.987-14.827 0.994-2.35 2.829-4.183 5.118-5.151l0.063-0.024c5.293-2.19 10.442-0.146 13.053 3.739 0.122 0.179 0.324 0.295 0.553 0.295 0.132 0 0.255-0.038 0.358-0.104l-0.003 0.002 0.118-0.075c0.205-0.129 0.34-0.355 0.34-0.611 0-0.152-0.047-0.294-0.128-0.41l0.002 0.002c-2.88-4.232-8.376-6.539-14.142-4.547-3.26 1.146-5.791 3.647-6.952 6.809l-0.025 0.079c-3.040 8.437 3.173 16.366 11.2 16.366 5.725-0.008 10.51-4.020 11.705-9.386l0.015-0.080z"></path>
<path d="M15.266 0.016c-8.226 0.371-14.886 7.038-15.25 15.266-0.011 0.218-0.017 0.473-0.017 0.73 0 1.596 0.234 3.138 0.67 4.593l-0.029-0.113c0.098 0.314 0.386 0.538 0.727 0.538 0.119 0 0.232-0.027 0.332-0.076l-0.004 0.002h0.013c0.259-0.125 0.435-0.386 0.435-0.688 0-0.078-0.012-0.152-0.033-0.223l0.001 0.005c-0.366-1.209-0.577-2.599-0.577-4.038 0-0.21 0.004-0.419 0.013-0.626l-0.001 0.030c0.301-7.467 6.341-13.538 13.814-13.866 0.193-0.009 0.419-0.014 0.646-0.014 7.989 0 14.466 6.476 14.466 14.466s-6.476 14.466-14.466 14.466c-1.106 0-2.183-0.124-3.218-0.359l0.097 0.019c-0.046-0.010-0.099-0.016-0.153-0.016-0.232 0-0.438 0.108-0.571 0.277l-0.001 0.002c-0.106 0.132-0.17 0.302-0.17 0.486 0 0.369 0.257 0.679 0.602 0.759l0.005 0.001c1.028 0.233 2.208 0.367 3.42 0.367 0.201 0 0.401-0.004 0.601-0.011l-0.029 0.001c8.294-0.298 15.048-6.997 15.405-15.29 0.009-0.204 0.015-0.443 0.015-0.684 0-8.846-7.171-16.018-16.018-16.018-0.255 0-0.509 0.006-0.761 0.018l0.036-0.001z"></path>
</svg>
