<!-- Generated by IcoMoon.io -->
<svg version="1.1" xmlns="http://www.w3.org/2000/svg" width="32" height="32" viewBox="0 0 32 32">
<title>tpay</title>
<path fill="#3058a6" d="M24.85 16.003c0 4.89-3.964 8.854-8.854 8.854s-8.854-3.964-8.854-8.854 3.964-8.854 8.854-8.854c4.89 0 8.854 3.964 8.854 8.854z"></path>
<path fill="#3058a6" d="M15.997 23.971c-4.393 0-7.967-3.574-7.967-7.967s3.574-7.967 7.967-7.967 7.968 3.574 7.968 7.967c0 4.393-3.574 7.967-7.968 7.967z"></path>
<path fill="#fff" d="M15.997 23.725c-4.264 0-7.721-3.457-7.721-7.721s3.457-7.721 7.721-7.721 7.721 3.457 7.721 7.721c0 4.265-3.457 7.721-7.721 7.721zM15.997 7.79c-4.529 0-8.213 3.685-8.213 8.213s3.685 8.213 8.213 8.213 8.213-3.685 8.213-8.213c0-4.529-3.685-8.213-8.213-8.213z"></path>
<path fill="#fff" d="M18.889 18.941l-0.532 2.306-2.84-0.001c-0.95-0.016-1.696-0.268-2.185-0.714 0.423 0.745 1.32 1.177 2.572 1.197l2.84 0.001 0.532-2.306-0.334-0.71z"></path>
<path fill="#fff" d="M18.144 10.98l-0.338-0.704-0.048 0.22-0.322 1.464h0.493z"></path>
<path fill="#fff" d="M19.855 12.673l-0.532 2.252h-2.568l-0.652 2.978c-0.014 0.085-0.023 0.172-0.023 0.219 0 0.043 0.005 0.070 0.009 0.082 0.015 0.007 0.060 0.023 0.153 0.027h0.281l0.618-2.822h2.568l0.105-0.446 0.427-1.806-0.332-0.713z"></path>
<path fill="#fff" d="M13.483 14.926h-1.79l0.616 0.483h1.068z"></path>
<path fill="#fff" d="M16.299 18.811h-0.065c-0.499-0.013-0.734-0.272-0.734-0.688 0-0.098 0.017-0.23 0.033-0.328l0.755-3.448h2.576l0.427-1.806h-2.576l0.476-2.167h-2.102l-0.476 2.167h-2.28l-0.41 1.806h2.28l-0.887 4.056c-0.049 0.197-0.066 0.427-0.066 0.542 0 1.157 0.913 1.7 2.276 1.723l2.37 0.001 0.428-1.857h-1.47z"></path>
</svg>
