<!-- Generated by IcoMoon.io -->
<svg version="1.1" xmlns="http://www.w3.org/2000/svg" width="29" height="32" viewBox="0 0 29 32">
<title>trtl</title>
<path fill="#00843d" d="M14.688 4.322c0 0 0 0 0 0 0.455 0 0.882 0.123 1.249 0.338l-0.012-0.006 7.892 4.556c0.745 0.436 1.237 1.232 1.237 2.143 0 0 0 0 0 0v0 9.295c0 0 0 0 0 0 0 0.911-0.492 1.707-1.226 2.137l-0.012 0.006-7.892 4.556c-0.355 0.208-0.782 0.332-1.237 0.332s-0.882-0.123-1.249-0.338l0.012 0.006-7.892-4.556c-0.745-0.436-1.237-1.232-1.237-2.143v0-9.295c0-0.911 0.492-1.707 1.226-2.137l0.012-0.006 7.892-4.556c0.355-0.208 0.781-0.332 1.237-0.332 0 0 0 0 0 0h-0zM14.688 2.602c-0.772 0-1.495 0.209-2.117 0.573l0.020-0.011-7.892 4.556c-1.261 0.74-2.095 2.089-2.097 3.632v9.295c0.003 1.544 0.836 2.892 2.077 3.622l0.020 0.011 7.892 4.556c0.602 0.353 1.325 0.562 2.097 0.562s1.495-0.209 2.117-0.573l-0.020 0.011 7.892-4.556c1.261-0.74 2.095-2.089 2.097-3.632v-9.295c-0.003-1.544-0.836-2.892-2.077-3.622l-0.020-0.011-7.892-4.556c-0.602-0.353-1.325-0.562-2.097-0.562h-0z"></path>
<path fill="#00843d" d="M13.719 17.459c-0.19 0-0.356-0.103-0.445-0.256l-0.001-0.002-0.95-1.645c-0.043-0.074-0.069-0.163-0.069-0.258s0.026-0.184 0.070-0.26l-0.001 0.002 0.95-1.645c0.091-0.155 0.257-0.258 0.447-0.258h1.938c0.19 0 0.356 0.103 0.445 0.255l0.001 0.002 0.95 1.645c0.043 0.074 0.069 0.163 0.069 0.258s-0.026 0.184-0.070 0.26l0.001-0.002-0.95 1.645c-0.091 0.155-0.257 0.258-0.447 0.258v0z"></path>
<path fill="#00843d" d="M11.131 14.868c0.19 0 0.356-0.103 0.445-0.255l0.001-0.002 0.95-1.645c0.043-0.074 0.069-0.163 0.069-0.258s-0.026-0.184-0.070-0.26l0.001 0.002-1.184-2.052-2.31 1.261c-0.161 0.089-0.269 0.259-0.269 0.453 0 0.004 0 0.008 0 0.012v-0.001c0.021 0.984 0.137 1.929 0.339 2.841l-0.018-0.096z"></path>
<path fill="#00843d" d="M18.245 14.868c-0.19 0-0.356-0.103-0.445-0.255l-0.001-0.002-0.95-1.645c-0.043-0.074-0.069-0.163-0.069-0.258s0.026-0.184 0.070-0.26l-0.001 0.002 1.184-2.052 2.31 1.261c0.161 0.089 0.269 0.259 0.269 0.453 0 0.004-0 0.008-0 0.012v-0.001c-0.021 0.984-0.137 1.929-0.339 2.841l0.018-0.096z"></path>
<path fill="#00843d" d="M14.935 8.707c-0.071-0.040-0.157-0.063-0.247-0.063s-0.176 0.023-0.25 0.064l0.003-0.001-2.343 1.279 1.174 2.034c0.091 0.155 0.257 0.258 0.447 0.258 0 0 0 0 0 0h1.938c0 0 0 0 0 0 0.19 0 0.356-0.103 0.445-0.255l0.001-0.002 1.174-2.034z"></path>
<path fill="#00843d" d="M9.299 15.728c0.479 1.674 1.193 3.136 2.119 4.438l-0.030-0.044 1.14-1.975c0.043-0.074 0.069-0.163 0.069-0.258s-0.026-0.184-0.070-0.26l0.001 0.002-0.95-1.645c-0.091-0.155-0.257-0.258-0.447-0.258 0 0 0 0 0 0v0z"></path>
<path fill="#00843d" d="M20.077 15.728c-0.479 1.674-1.193 3.136-2.119 4.438l0.030-0.044-1.14-1.975c-0.043-0.074-0.069-0.163-0.069-0.258s0.026-0.184 0.070-0.26l-0.001 0.002 0.95-1.645c0.091-0.155 0.257-0.258 0.447-0.258v0z"></path>
<path fill="#00843d" d="M13.719 18.319c0 0 0 0 0 0-0.19 0-0.356 0.103-0.445 0.256l-0.001 0.002-1.323 2.291c0.72 0.89 1.515 1.672 2.39 2.355l0.032 0.024c0.086 0.068 0.197 0.108 0.316 0.108s0.229-0.041 0.317-0.109l-0.001 0.001c0.908-0.708 1.703-1.49 2.401-2.353l0.021-0.027-1.323-2.291c-0.091-0.155-0.257-0.258-0.447-0.258v0z"></path>
</svg>
