<!-- Generated by IcoMoon.io -->
<svg version="1.1" xmlns="http://www.w3.org/2000/svg" width="30" height="32" viewBox="0 0 30 32">
<title>tusd</title>
<path fill="#5aafff" d="M16.628 20.744v-8.088h1.064c3.512 0 4.378-3.277 4.378-3.277h-9.225c-4.378 0-5.12 3.277-5.12 3.277h5.441v12.171s3.463-1.040 3.463-4.083z"></path>
<path fill="#5dc9bc" d="M26.757 27.047c3.102-3.224 4.293-7.703 3.176-11.985-0.571-2.215-1.762-4.258-3.425-5.906-0.149-0.148-0.298-0.295-0.471-0.443l-0.149-0.148c-0.099-0.098-0.223-0.197-0.323-0.271l-0.199-0.148c-0.099-0.074-0.199-0.148-0.298-0.221l-0.174-0.123c-0.149-0.098-0.248-0.172-0.347-0.246l-0.223-0.148c-0.099-0.074-0.199-0.123-0.298-0.172l-0.223-0.148c-0.099-0.049-0.199-0.123-0.298-0.172l-0.223-0.123c-0.099-0.049-0.199-0.098-0.323-0.148l-0.074-0.025c0.273 0.221 0.546 0.468 0.794 0.714 4.765 4.725 4.765 12.428 0 17.153-6.055 6.005-15.882 6.005-21.937 0-0.223-0.221-0.422-0.443-0.645-0.664l-0.174-0.197c-0.124-0.148-0.248-0.295-0.372-0.468 0.769 1.526 1.787 2.904 3.003 4.135 6.328 6.276 16.602 6.276 22.93 0 0.124-0.074 0.199-0.148 0.273-0.246z"></path>
<path fill="#5aafff" d="M7.438 25.379c-0.273-0.222-0.546-0.468-0.795-0.714-4.769-4.73-4.769-12.44 0-17.17 6.061-6.011 15.897-6.011 21.957 0 0.422 0.419 0.82 0.862 1.192 1.33-0.77-1.503-1.788-2.907-3.005-4.114-6.334-6.282-16.617-6.282-22.951 0-0.075 0.074-0.149 0.172-0.248 0.246-4.198 4.385-4.769 10.938-1.416 15.914 1.316 1.921 3.155 3.523 5.266 4.508z"></path>
</svg>
