<!-- Generated by IcoMoon.io -->
<svg version="1.1" xmlns="http://www.w3.org/2000/svg" width="32" height="32" viewBox="0 0 32 32">
<title>unity</title>
<path fill="#f58634" d="M16 32c-8.837 0-16-7.163-16-16s7.163-16 16-16 16 7.163 16 16-7.163 16-16 16zM13.288 22.732c0.866 0.132 1.74 0.198 2.617 0.197 2.976 0 5.677-0.743 7.66-1.948-2.434-3.414-6.087-8.182-9.913-9.546-0.825-0.304-1.779-0.48-2.773-0.48-0.002 0-0.005 0-0.007 0h0c-1.002 0-1.826 0.19-2.478 0.562-0.653 0.373-0.977 0.847-0.977 1.408-0.001 0.212 0.052 0.422 0.157 0.61 0.12 0.203 0.284 0.381 0.48 0.522 0.545 0.39 1.722 0.637 3.536 0.748 0.832 0.047 1.48 0.090 1.937 0.149 1.345 0.144 2.41 0.559 3.198 1.242 0.785 0.685 1.178 1.522 1.178 2.522 0 1.186-0.537 2.164-1.612 2.934-0.81 0.576-1.81 0.936-3 1.080zM9.009 20.79c0.894 0.34 1.929 0.539 3.008 0.545h0.003c1.226 0 2.222-0.249 2.987-0.747s1.149-1.139 1.149-1.922c0-0.623-0.275-1.134-0.825-1.534-1.63-1.19-5.594-0.591-7.749-1.527-0.616-0.287-1.088-0.652-1.407-1.1-0.244-0.337-0.41-0.745-0.462-1.189l-0.001-0.012c-1.725 3.060-0.196 6.21 3.297 7.486zM25.912 18.875c0.657-0.89 1.024-1.881 1.024-2.927s-0.367-2.038-1.024-2.927zM24.263 11.415c-2.023-1.479-5.019-2.415-8.358-2.415-0.012-0-0.026-0-0.040-0-1.433 0-2.825 0.179-4.153 0.515l0.117-0.025c0.78 0.074 1.55 0.234 2.293 0.477 4.303 1.398 7.804 5.583 10.147 8.91z"></path>
<path fill="#f58634" opacity="0.5" d="M25.912 18.875v-5.854c0.657 0.889 1.024 1.882 1.024 2.927s-0.367 2.037-1.024 2.927zM24.263 11.415l0.005 7.461c-2.343-3.326-5.844-7.511-10.147-8.909-0.667-0.226-1.445-0.395-2.249-0.474l-0.044-0.003c1.212-0.311 2.603-0.49 4.037-0.49 0.014 0 0.028 0 0.043 0h-0.002c3.34 0 6.335 0.936 8.358 2.415z"></path>
</svg>
