<!-- Generated by IcoMoon.io -->
<svg version="1.1" xmlns="http://www.w3.org/2000/svg" width="32" height="32" viewBox="0 0 32 32">
<title>usdc</title>
<path fill="#2775c9" d="M32 16c0 8.837-7.163 16-16 16s-16-7.163-16-16c0-8.837 7.163-16 16-16s16 7.163 16 16z"></path>
<path fill="#fff" d="M15.040 10.059v-0.999c0-0.53 0.43-0.96 0.96-0.96s0.96 0.43 0.96 0.96v0.996c1.737 0.262 2.928 1.249 3.246 2.656 0.069 0.305-0.123 0.609-0.428 0.677-0.041 0.009-0.083 0.014-0.125 0.014l-0.519 0c-0.42 0-0.803-0.243-0.982-0.623-0.331-0.704-1.116-1.109-2.162-1.109-1.307 0-2.19 0.642-2.19 1.604 0 0.77 0.586 1.219 2.005 1.556l1.331 0.305c2.35 0.537 3.345 1.508 3.345 3.232 0 1.911-1.334 3.203-3.522 3.508v1.157c0 0.53-0.43 0.96-0.96 0.96s-0.96-0.43-0.96-0.96v-1.139c-1.938-0.234-3.248-1.26-3.555-2.83-0.051-0.258 0.118-0.509 0.376-0.559 0.030-0.006 0.061-0.009 0.092-0.009v0l0.788 0c0.357 0 0.682 0.205 0.835 0.528 0.363 0.763 1.292 1.237 2.455 1.237 1.396 0 2.366-0.69 2.366-1.652 0-0.834-0.594-1.315-2.053-1.66l-1.5-0.353c-2.134-0.489-3.144-1.516-3.144-3.168 0-1.779 1.343-3.059 3.34-3.368zM4 16c0-5.295 3.456-9.786 8.244-11.356 0.302-0.099 0.628 0.066 0.727 0.368 0.019 0.058 0.029 0.119 0.029 0.18v0.338c0 0.516-0.313 0.98-0.791 1.173-3.684 1.492-6.281 5.093-6.281 9.298 0 4.203 2.595 7.802 6.276 9.295 0.481 0.195 0.796 0.663 0.796 1.182l0 0.282c0 0.338-0.274 0.612-0.612 0.612-0.066 0-0.131-0.011-0.193-0.031-4.762-1.585-8.195-6.063-8.195-11.34zM28 16c0 5.264-3.416 9.734-8.161 11.329-0.333 0.112-0.694-0.067-0.806-0.401-0.022-0.065-0.033-0.134-0.033-0.203l0-0.226c0-0.532 0.322-1.011 0.814-1.211 3.671-1.497 6.257-5.092 6.257-9.288 0-4.192-2.581-7.784-6.247-9.284-0.499-0.204-0.825-0.689-0.825-1.228l0-0.206c0-0.354 0.287-0.642 0.642-0.642 0.070 0 0.139 0.011 0.205 0.034 4.741 1.597 8.153 6.065 8.153 11.326z"></path>
</svg>
