<!-- Generated by IcoMoon.io -->
<svg version="1.1" xmlns="http://www.w3.org/2000/svg" width="32" height="32" viewBox="0 0 32 32">
<title>vrsc</title>
<path fill="#fff" d="M14.566 8.472c0.022-0.259 0.41-0.262 0.444-0.006 0.125 1.14 0.155 2.291 0.246 3.436 0.017 0.342 0.028 0.688 0.103 1.025 0.172-0.225 0.116-0.623 0.433-0.716 0.259-0.087 0.555 0.057 0.803-0.097 0.34-0.204 0.465-0.61 0.678-0.924 0.123-0.205 0.401-0.35 0.63-0.233 0.228 0.086 0.323 0.33 0.442 0.523 0.134 0.22 0.255 0.468 0.475 0.616 0.194 0.082 0.411 0.097 0.62 0.092 0.424-0.956 0.861-1.906 1.292-2.859 0.755 0.947 1.469 1.924 2.22 2.873-1.181-0.013-2.362 0.007-3.542-0.010-0.044 0.106-0.087 0.211-0.129 0.317-0.283-0.032-0.588-0.064-0.824-0.237-0.325-0.282-0.449-0.716-0.738-1.028-0.341 0.369-0.461 0.964-0.97 1.153-0.262 0.127-0.575 0.021-0.833 0.118-0.225 0.444-0.196 0.968-0.371 1.43-0.116 0.218-0.468 0.109-0.468-0.13-0.148-1.253-0.159-2.518-0.294-3.772-0.142 1.127-0.179 2.266-0.358 3.389 0 0.287-0.455 0.336-0.499 0.045-0.088-0.326-0.109-0.672-0.271-0.975-0.284-0.006-0.568-0.004-0.852 0.002-1.287 0.006-2.573 0.001-3.86 0.001-0.038-0.073-0.075-0.145-0.113-0.218 0.031-0.019 0.095-0.058 0.126-0.077 1.238-0.015 2.478-0.001 3.717-0.006 0.403-0.001 0.807 0.008 1.21-0.016 0.148 0.138 0.227 0.324 0.287 0.513 0.074-0.194 0.104-0.4 0.115-0.606 0.129-1.204 0.149-2.419 0.281-3.623z"></path>
<path fill="#fff" d="M22.853 12.498c0.060-0.006 0.116-0.025 0.17-0.054-0.044 0.067-0.086 0.136-0.122 0.208-1.512 3.185-3.025 6.37-4.537 9.555-0.22 0.457-0.435 0.916-0.682 1.359-0.569-1.26-1.103-2.536-1.678-3.793 1.082-2.423 2.199-4.831 3.274-7.256 1.191-0.040 2.384-0.003 3.576-0.019z"></path>
<path fill="#659dda" d="M14.943 5.679c1.882-0.183 3.812 0.163 5.51 0.995 1.265 0.619 2.408 1.495 3.319 2.571 1.306 1.521 2.148 3.434 2.39 5.425 0.247 1.965-0.092 3.999-0.962 5.779-0.691 1.42-1.712 2.679-2.964 3.642-1.768 1.373-3.996 2.141-6.235 2.15-2.888 0.033-5.763-1.226-7.692-3.377-1.348-1.475-2.246-3.354-2.552-5.329-0.329-2.066-0.005-4.229 0.914-6.109 0.567-1.161 1.35-2.221 2.307-3.089 1.629-1.503 3.759-2.447 5.965-2.657zM14.566 8.472c-0.132 1.204-0.152 2.419-0.281 3.623-0.012 0.206-0.042 0.412-0.115 0.606-0.060-0.189-0.139-0.375-0.287-0.513-0.403 0.024-0.807 0.015-1.21 0.016-0.397-0.897-0.794-1.795-1.186-2.694-0.038-0.081-0.081-0.159-0.129-0.234-0.103 0.102-0.202 0.209-0.291 0.323-0.701 0.872-1.411 1.738-2.111 2.611-0.031 0.019-0.095 0.058-0.126 0.077 0.038 0.072 0.075 0.145 0.113 0.218 1.795 3.683 3.578 7.372 5.368 11.058 1.124 0.001 2.247-0.006 3.371 0.003 0.248-0.443 0.463-0.902 0.682-1.359 1.512-3.185 3.025-6.371 4.537-9.555 0.036-0.072 0.078-0.141 0.122-0.208 0.063-0.111 0.039-0.191-0.071-0.241-0.751-0.949-1.466-1.926-2.22-2.873-0.431 0.953-0.868 1.903-1.292 2.859-0.209 0.005-0.426-0.010-0.62-0.092-0.22-0.148-0.341-0.396-0.475-0.616-0.119-0.193-0.213-0.436-0.442-0.523-0.23-0.117-0.508 0.028-0.63 0.233-0.212 0.314-0.337 0.719-0.678 0.924-0.248 0.154-0.544 0.010-0.803 0.097-0.317 0.093-0.262 0.492-0.433 0.716-0.075-0.337-0.086-0.682-0.103-1.025-0.092-1.145-0.121-2.296-0.246-3.436-0.035-0.255-0.422-0.253-0.444 0.006z"></path>
<path fill="#659dda" d="M14.783 10.044c0.135 1.254 0.146 2.518 0.294 3.772 0 0.239 0.351 0.348 0.468 0.13 0.174-0.462 0.146-0.986 0.371-1.43 0.258-0.097 0.571 0.010 0.833-0.118 0.509-0.189 0.629-0.785 0.97-1.153 0.289 0.312 0.413 0.747 0.738 1.028 0.236 0.173 0.541 0.205 0.824 0.237l-0.003 0.007c-1.075 2.426-2.192 4.833-3.274 7.256-1.069-2.422-2.133-4.846-3.201-7.268 0.284-0.006 0.568-0.008 0.852-0.002 0.161 0.303 0.182 0.65 0.271 0.975 0.044 0.291 0.499 0.243 0.499-0.045 0.179-1.123 0.216-2.262 0.358-3.389z"></path>
<path fill="#ffb400" d="M11.358 9.277c0.047 0.075 0.091 0.152 0.129 0.234 0.392 0.899 0.789 1.796 1.186 2.694-1.239 0.004-2.479-0.010-3.717 0.006 0.7-0.873 1.411-1.738 2.111-2.611 0.090-0.114 0.188-0.22 0.291-0.323z"></path>
<path fill="#ffb400" d="M19.41 12.192c1.18 0.017 2.361-0.003 3.542 0.010 0.11 0.050 0.134 0.131 0.071 0.241-0.054 0.029-0.11 0.048-0.17 0.054-1.192 0.016-2.385-0.021-3.576 0.019l0.003-0.007c0.042-0.106 0.086-0.212 0.129-0.317z"></path>
<path fill="#ffb400" d="M8.942 12.505c1.287 0 2.573 0.005 3.86-0.001 1.068 2.422 2.132 4.847 3.201 7.268 0.575 1.257 1.109 2.533 1.678 3.793-1.124-0.009-2.247-0.003-3.371-0.003-1.791-3.686-3.573-7.375-5.368-11.058z"></path>
</svg>
