<svg xmlns="http://www.w3.org/2000/svg" width="2000" height="1220" viewBox="0 0 2000 1220"><defs><linearGradient id="0" x2="2000" gradientUnits="userSpaceOnUse" x1="0"><stop stop-color="#c40000"/><stop offset="1" stop-color="#960000"/></linearGradient></defs><path d="m1989.33 429.35c-15.2-26.58-39.72-39.35-71.83-39.35-196.85.69-393.71 2.07-590.56.35-49.73-.35-79.43 19-102.57 61.1-49.73 89.75-102.23 178.12-153.69 267.18-21.76 37.63-42.82 75.6-64.24 113.22a27.48 27.48 0 0 1 -6.91 7.25c-2.42-2.42-5.18-4.49-6.91-7.25-21.76-37.63-42.82-75.6-64.24-113.22-51.11-89.06-104-177.08-153.69-267.18-23.14-42.11-52.84-61.44-102.57-61.1-196.85 1.73-393.71.35-590.56-.35-31.43 0-55.95 12.77-71.14 39.35-15.54 26.92-13.12 55.23 3.45 82.85 22.79 37.63 44.55 75.94 66.65 113.91q91.18 157.89 182.01 315.89 95.84 166.17 192.37 332c57.33 99.07 114.31 197.79 172 296.52 15.89 26.92 39.72 40.73 71.14 39.35 30.74-1.38 52.49-16.91 67-43.84 14.85-26.92 30.39-53.85 45.93-80.43q76.67-132.55 153.34-265.45c11.4-20 23.48-39.7 36.26-61.79 13.12 22.09 24.87 41.77 36.26 61.79q76.67 132.55 153.34 265.45c15.54 26.92 31.08 53.5 45.93 80.43 14.51 26.92 36.26 42.46 67 43.84 31.43 1.38 55.26-12.08 71.14-39.35q86-148.09 172-296.52 96.35-166.18 192.36-332 91.17-157.92 182-315.85c22.1-38 43.52-76.29 66.65-113.91 15.55-27.66 17.62-55.96 2.08-82.89m-1084.43 585.1q-86.51 151.71-174.41 302.73c-11.05 19.33-22.79 38-36.61 61.44-160.59-278.57-319.46-554.38-479.7-832.25 9-.69 15.2-1.73 21.41-1.73 131.24-.35 262.47-.35 393.71-1 14.51 0 22.79 4.49 30 16.91 70.11 122.54 140.56 244.39 211 366.59 11.74 20.37 24.87 40 34.88 60.75 3.52 7.23 3.82 19.66-.28 26.56m401 364.18c-13.81-23.13-25.56-42.11-36.61-61.44q-87.55-151.19-174.41-302.73c-3.8-6.9-3.8-19.33 0-26.58 10.36-21.06 23.14-40.73 34.88-60.75q105.68-183.3 211-366.59c7.25-12.43 15.54-16.91 30-16.91 131.24.69 262.47.69 393.71 1 6.22 0 12.09 1 21.41 1.73-160.56 277.89-319.43 553.7-480.02 832.27" transform="translate(0-390)" fill="url(#0)"/></svg>