<!-- Generated by IcoMoon.io -->
<svg version="1.1" xmlns="http://www.w3.org/2000/svg" width="32" height="32" viewBox="0 0 32 32">
<title>wicc</title>
<path fill="#5783cb" d="M14.987 0h1.653c3.764 0.187 7.144 1.694 9.718 4.063l-0.011-0.010c0.453 0.293 0.453 1.013-0.080 1.2-0.453 0.107-0.8-0.293-1.147-0.533-2.379-1.827-5.399-2.927-8.676-2.927-4.442 0-8.412 2.022-11.038 5.197l-0.019 0.024c-1.954 2.388-3.137 5.472-3.137 8.832 0 7.732 6.268 14 14 14 1.649 0 3.232-0.285 4.702-0.809l-0.098 0.030c4.759-1.682 8.316-5.662 9.37-10.572l0.017-0.095c0.218-0.858 0.379-1.869 0.45-2.905l0.003-0.055c0.034-0.281 0.271-0.497 0.559-0.497 0.311 0 0.563 0.252 0.563 0.563 0 0.014-0.001 0.029-0.002 0.043l0-0.002-0.053 1.653c-0.222 4.012-1.934 7.586-4.585 10.212l-0.001 0.001c-2.688 2.666-6.326 4.378-10.362 4.585l-0.038 0.002h-1.573c-8.235-0.429-14.8-7.013-15.199-15.216l-0.001-0.037v-1.493c0.414-8.161 6.854-14.692 14.937-15.251l0.050-0.003z"></path>
<path fill="#5783cb" d="M28 8.293c1.067-1.173 3.28-0.533 3.52 1.040 0.347 1.413-1.013 2.613-2.4 2.507-1.84 1.867-3.307 4.080-4.56 6.4-0.507 0.693 0.133 1.6-0.267 2.32-0.48 1.413-2.56 1.707-3.467 0.533-0.667-0.747-0.48-1.787-0.133-2.613-0.536-1.098-1.205-2.040-2.002-2.855l0.002 0.002-0.8 0.027c-1.693 1.86-3.129 3.996-4.227 6.323l-0.066 0.157c0.187 0.72 0.32 1.573-0.187 2.213-0.667 1.093-2.427 1.2-3.253 0.187-0.613-0.693-0.533-1.68-0.213-2.507-0.99-2.654-2.306-4.948-3.932-6.983l0.039 0.050c-1.040-0.053-2.133-0.667-2.267-1.76-0.347-1.493 1.36-2.933 2.773-2.267 1.253 0.453 1.6 2.053 0.987 3.147 1.079 2.7 2.49 5.027 4.218 7.078l-0.032-0.038c1.872-1.856 3.421-4.036 4.555-6.448l0.058-0.138c-0.213-0.72-0.347-1.547 0.133-2.213 0.72-1.173 2.64-1.2 3.387-0.027 0.56 0.72 0.373 1.68 0.053 2.453 0.525 1.105 1.176 2.055 1.953 2.886l-0.006-0.006 0.8-0.053c1.947-2.053 3.733-4.32 4.933-6.907-0.133-0.853-0.293-1.867 0.427-2.507z"></path>
</svg>
