<!-- Generated by IcoMoon.io -->
<svg version="1.1" xmlns="http://www.w3.org/2000/svg" width="33" height="32" viewBox="0 0 33 32">
<title>x</title>
<path d="M13.359 0.015h3.095v9.683l-3.095-3.231v-6.452z"></path>
<path d="M0.018 3.28h8.146c2.76 2.89 5.533 5.773 8.294 8.669 1.598-1.66 3.191-3.332 4.783-4.998 1.177-1.22 2.349-2.447 3.523-3.67h8.128c-3.793 3.833-7.58 7.673-11.374 11.506-0.4 0.4-0.799 0.802-1.19 1.208 0.095 0.101 0.197 0.203 0.283 0.31l12.284 12.416h-6.305c-0.163 0-0.326 0.009-0.486-0.012-0.449-0.012-0.901 0.006-1.349-0.009-0.815-0.842-1.62-1.694-2.435-2.539-1.602-1.666-3.197-3.341-4.798-5.011-0.357-0.369-0.704-0.747-1.067-1.107-0.775 0.824-1.568 1.635-2.345 2.459l-4.408 4.599c-0.513 0.535-1.021 1.073-1.537 1.598-0.446 0.012-0.891 0-1.34 0.006-0.255 0.031-0.513 0.009-0.769 0.015h-6.037l11.964-12.099c0.206-0.206 0.409-0.415 0.609-0.627l-12.573-12.714z"></path>
<path d="M16.461 22.274c1.030 1.091 2.075 2.17 3.108 3.258 0.006 2.152 0 4.3 0 6.452h-3.111c0-3.237 0-6.474 0.006-9.711z"></path>
</svg>
