<!-- Generated by IcoMoon.io -->
<svg version="1.1" xmlns="http://www.w3.org/2000/svg" width="32" height="32" viewBox="0 0 32 32">
<title>xbp</title>
<path fill="#fff" d="M32 16c0 8.837-7.163 16-16 16s-16-7.163-16-16c0-8.837 7.163-16 16-16s16 7.163 16 16z"></path>
<path fill="#263238" d="M22.151 10.202c-0.235-0.32-0.618-0.581-1.143-0.783s-1.246-0.304-2.16-0.304h-1.934l2.617-7.188c-0.958-0.25-2.062-0.405-3.199-0.429l-0.015-0c-0.106 0-0.211-0.008-0.318-0.008-0.165 0-0.328 0.007-0.491 0.013-7.772 0.261-14.017 6.662-14.017 14.497 0 0 0 0.001 0 0.001 0 4.338 1.909 8.231 4.932 10.884l0.016 0.014 1.136-3.128c-1.888-2.033-3.046-4.765-3.046-7.769 0-0.001 0-0.002 0-0.003v0c0-5.77 4.282-10.556 9.836-11.353 0.274-0.040 0.558-0.069 0.84-0.091v0l-4.189 11.513 8.358-0.823c-0.004-0.002-0.008-0.004-0.013-0.005l-0.001-0c0.286-0.093 0.533-0.206 0.765-0.342l-0.018 0.010c0.312-0.18 0.581-0.371 0.83-0.584l-0.008 0.006c0.281-0.238 0.53-0.497 0.749-0.78l0.009-0.012c0.227-0.292 0.415-0.628 0.549-0.992l0.008-0.026c0.14-0.361 0.23-0.779 0.248-1.216l0-0.008c0.001-0.021 0.002-0.047 0.002-0.072 0-0.386-0.128-0.742-0.345-1.028l0.003 0.004zM18.586 13.008c-0.183 0.496-0.466 0.845-0.86 1.047-0.346 0.188-0.758 0.3-1.195 0.304h-1.508l1.011-2.779h1.507c0.001 0 0.003 0 0.005 0 0.188 0 0.369 0.025 0.542 0.072l-0.014-0.003c0.166 0.041 0.31 0.119 0.428 0.226l-0.001-0.001c0.115 0.114 0.189 0.267 0.202 0.438l0 0.002c0.002 0.029 0.003 0.064 0.003 0.098 0 0.215-0.044 0.42-0.123 0.606l0.004-0.010z"></path>
<path fill="#20af65" d="M20.267 2.131l-1.042 2.862c4.808 1.438 8.253 5.822 8.253 11.010 0 6.335-5.136 11.471-11.471 11.471-1.611 0-3.145-0.332-4.537-0.932l0.074 0.029c-0.235-0.1-0.464-0.209-0.691-0.324l1.189-3.259h1.932q2.622 0 4.305-0.89t2.396-2.846c0.176-0.483 0.24-0.907 0.188-1.272-0.041-0.352-0.156-0.67-0.328-0.949l0.006 0.010c-0.16-0.253-0.365-0.463-0.606-0.622l-0.008-0.005c-0.176-0.115-0.377-0.222-0.589-0.308l-0.024-0.009-8.435 0.832-2.713 7.441-1.108 3.046c0.799 0.633 1.701 1.201 2.662 1.666l0.087 0.038q0.345 0.162 0.697 0.306c1.622 0.686 3.509 1.084 5.488 1.084 0.002 0 0.005 0 0.007 0h-0c8.001 0 14.51-6.509 14.51-14.51 0-6.516-4.318-12.042-10.243-13.869zM14.080 17.431h1.761c0.222 0.002 0.438 0.023 0.648 0.063l-0.022-0.004c0.213 0.035 0.404 0.11 0.572 0.218l-0.006-0.004c0.157 0.107 0.272 0.266 0.321 0.452l0.001 0.005q0.085 0.303-0.091 0.792c-0.112 0.327-0.283 0.608-0.503 0.843l0.001-0.001c-0.185 0.192-0.404 0.349-0.647 0.463l-0.013 0.006c-0.209 0.097-0.452 0.169-0.706 0.204l-0.013 0.002c-0.198 0.029-0.428 0.047-0.662 0.048h-1.767z"></path>
</svg>
