<!-- Generated by IcoMoon.io -->
<svg version="1.1" xmlns="http://www.w3.org/2000/svg" width="32" height="32" viewBox="0 0 32 32">
<title>xbtc</title>
<path fill="#ff914d" d="M32 16c0 8.837-7.163 16-16 16s-16-7.163-16-16c0-8.837 7.163-16 16-16s16 7.163 16 16z"></path>
<path fill="#fff" d="M31.111 16c0 8.346-6.765 15.111-15.111 15.111s-15.111-6.765-15.111-15.111c0-8.346 6.766-15.111 15.111-15.111s15.111 6.765 15.111 15.111z"></path>
<path fill="#ff914d" d="M30.222 16c0 7.855-6.367 14.222-14.222 14.222s-14.222-6.368-14.222-14.222c0-7.855 6.367-14.222 14.222-14.222s14.222 6.368 14.222 14.222z"></path>
<path fill="#fff" d="M13.436 26.916c0.333-0.138 1.636-1.142 2.893-2.222 1.769-1.52 2.813-2.493 4.493-4.178 1.378-1.378 1.889-1.969 1.973-2.276 0.298-1.076-2.96-12.893-3.622-13.147-0.404-0.156-4.018 2.849-7.218 5.996-1.876 1.844-2.396 2.458-2.436 2.858-0.027 0.311 0.080 1.089 0.28 2.009 0.796 3.653 2.244 8.702 2.978 10.36 0.307 0.702 0.342 0.733 0.658 0.6z"></path>
</svg>
