<!-- Generated by IcoMoon.io -->
<svg version="1.1" xmlns="http://www.w3.org/2000/svg" width="42" height="32" viewBox="0 0 42 32">
<title>xmcc</title>
<path fill="#dd0632" d="M33.036 0h-9.125l-2.712 4.69-2.703-4.69h-9.129l-9.367 16.225 9.069 15.703 6.15-10.644 6.001 10.364 5.984-10.364 6.162 10.716 9.074-15.703zM9.057 25.719l-5.483-9.49 4.363-7.554 5.483 9.498-4.363 7.554zM9.736 5.555l1.447-2.512h5.466l2.75 4.762-4.18 7.249zM21.195 25.418l-4.176-7.253 4.18-7.245 1.867 3.225 2.317 4.019-4.185 7.245zM22.994 7.805l2.754-4.762h5.466l1.464 2.512-5.517 9.498zM37.084 19.366l-3.701 6.421-4.401-7.639 5.483-9.477 1.477 2.546 2.924 5.063z"></path>
</svg>
