<!-- Generated by IcoMoon.io -->
<svg version="1.1" xmlns="http://www.w3.org/2000/svg" width="28" height="32" viewBox="0 0 28 32">
<title>xsg</title>
<path fill="#d21e2b" d="M3.546 22.019v-12.037l10.428-5.989 10.399 5.989v12.037l-10.399 6.019z"></path>
<path fill="#df616b" d="M14.182 3.635v-3.635l13.527 7.806-3.128 1.817z"></path>
<path fill="#d21e2b" d="M24.79 21.989v-11.978l3.158-1.818v15.613zM14.182 28.365l10.399-5.989 3.128 1.817-13.527 7.806zM0.209 24.194l3.158-1.817 10.369 5.989v3.635z"></path>
<path fill="#df616b" d="M0 8.194l3.128 1.817v11.978l-3.128 1.817z"></path>
<path fill="#f6d2d5" d="M0.209 7.806l13.527-7.806v3.635l-10.369 5.989zM13.736 24.879v-2.801l-2.503 1.4-0.477-0.775 2.98-1.639v-4.291l-3.814 2.145v3.307h-0.953v-2.801l-2.473 1.4-0.477-0.775 2.503-1.4-2.503-1.4 0.477-0.775 2.95 1.669 3.844-2.145-3.844-2.145-2.95 1.669-0.477-0.775 2.503-1.4-2.503-1.4 0.477-0.775 2.473 1.4v-2.801h0.953v3.307l3.814 2.145v-4.29l-2.95-1.639 0.447-0.775 2.503 1.4v-2.801h0.924v2.801l2.503-1.4 0.447 0.775-2.95 1.639v4.29l3.814-2.145v-3.307h0.924v2.801l2.503-1.4 0.447 0.775-2.503 1.4 2.503 1.4-0.447 0.775-2.98-1.669-3.814 2.145 3.814 2.145 2.98-1.669 0.447 0.775-2.503 1.4 2.503 1.4-0.447 0.775-2.503-1.4v2.801h-0.924v-3.307l-3.814-2.145v4.291l2.95 1.639-0.447 0.775-2.503-1.4v2.801z"></path>
</svg>
