<!-- Generated by IcoMoon.io -->
<svg version="1.1" xmlns="http://www.w3.org/2000/svg" width="24" height="32" viewBox="0 0 24 32">
<title>zest</title>
<path fill="#198d9e" d="M16.952 0.015l0.147 0.037c0.683 0.28 1.271 0.639 1.793 1.075l-0.011-0.009c0.861 0.719 1.508 1.668 1.849 2.752l0.011 0.042c0.094 0.335 0.175 0.672 0.187 1.016-0.547 0.073-1.032 0.179-1.502 0.321l0.067-0.017c-0.175 0.034-0.341 0.119-0.52 0.147-0.247-1.157-0.928-2.207-1.844-2.954-0.13-0.103-0.262-0.212-0.413-0.291 0.125 0.065 0.187 0.2 0.285 0.297 0.554 0.664 0.984 1.454 1.239 2.318l0.012 0.046c0.056 0.225 0.134 0.444 0.147 0.675-0.13-0.012-0.25-0.065-0.375-0.094-0.193-0.048-0.426-0.088-0.665-0.111l-0.021-0.002c-0.262 0.003-0.525-0.025-0.782 0.032-0.636 0.094-1.207 0.31-1.71 0.624l0.019-0.011c-0.086-0.319-0.148-0.693-0.174-1.076l-0.001-0.018c-0.047-0.275-0.019-0.557-0.022-0.838 0.028-0.172 0.033-0.344 0.062-0.52 0.226-1.42 0.989-2.628 2.071-3.434l0.014-0.010c0.012-0.016 0.134-0.016 0.137 0zM19.39 5.654c0.49-0.278 1.065-0.469 1.677-0.536l0.020-0.002c0.434-0.019 0.875-0.019 1.297 0.084 0.614 0.144 1.153 0.398 1.622 0.743l-0.012-0.009v0.353c-0.302 0.614-0.678 1.14-1.126 1.595l0.001-0.001c-0.291 0.266-0.66 0.513-1.072 0.455-0.297-0.441-0.607-0.825-0.946-1.183l0.004 0.004c-0.041-0.072 0.044-0.103 0.091-0.137 0.528-0.344 1.15-0.516 1.769-0.603l-0.025-0.037c-0.291-0.081-0.594-0.053-0.888-0.050-0.458 0.063-0.872 0.195-1.252 0.386l0.023-0.010c-0.050 0.019-0.122 0.069-0.169 0.016-0.366-0.341-0.777-0.642-1.222-0.89l-0.032-0.016c0.056-0.081 0.156-0.112 0.238-0.162z"></path>
<path fill="#198d9e" d="M16.102 5.783c0.682-0.197 1.413-0.112 2.079 0.1 0.572 0.187 1.107 0.469 1.604 0.803 0.522 0.345 0.958 0.775 1.3 1.275l0.010 0.016c0.235 0.354 0.394 0.779 0.442 1.237l0.001 0.012c0.003 0.288 0.016 0.594-0.1 0.863-0.203 0.106-0.444 0.062-0.663 0.072-0.288 0.009-0.563-0.097-0.816-0.212-0.71-0.338-1.313-0.845-1.923-1.332-0.516-0.41-1.029-0.841-1.624-1.137-0.169-0.116-0.375-0.162-0.575-0.21-0.077-0.021-0.165-0.032-0.255-0.032-0.178 0-0.345 0.046-0.491 0.126l0.005-0.003c-0.198 0.127-0.343 0.323-0.402 0.553l-0.001 0.006c-0.012 0.037 0.003 0.075 0.012 0.112-0.13 0.062-0.244-0.084-0.335-0.16 0.041-0.406 0.2-0.794 0.419-1.135 0.306-0.461 0.762-0.802 1.296-0.956l0.016-0.004z"></path>
<path fill="#07bc9c" d="M13.398 7.908c0.316-0.081 0.65-0.050 0.972-0.034 0.091 0.075 0.203 0.225 0.335 0.16l0.216 0.072c0.3 0.096 0.556 0.256 0.763 0.466l0 0c0.336 0.354 0.581 0.798 0.696 1.291l0.004 0.019c0.032 0.128 0.1 0.247 0.153 0.369 0.091 0.178 0.175 0.366 0.3 0.525 0.319 0.512 0.658 0.957 1.034 1.366l-0.006-0.007c0.413 0.488 0.797 1.031 1.133 1.605l0.029 0.055c0.025 0.089 0.062 0.167 0.111 0.237l-0.002-0.002c0.258 0.453 0.515 0.993 0.733 1.551l0.030 0.087c0.065 0.187 0.15 0.375 0.197 0.572-0.078-0.025-0.134-0.116-0.222-0.097-0.665-0.368-1.44-0.701-2.25-0.957l-0.092-0.025c0-0.147-0.084-0.275-0.13-0.406-0.062-0.178-0.156-0.341-0.219-0.516-0.072-0.2-0.2-0.375-0.303-0.563-0.323-0.561-0.68-1.047-1.084-1.488l0.006 0.006c-0.227-0.2-0.416-0.438-0.647-0.634-1.15-1.011-2.626-1.676-4.251-1.821l-0.029-0.002c-0.106-0.187-0.335-0.269-0.544-0.25-0.017-0.001-0.037-0.002-0.057-0.002-0.251 0-0.48 0.094-0.654 0.249l0.001-0.001c-0.325-0.009-0.647 0.053-0.969 0.11-0.256 0.053-0.513 0.11-0.766 0.187-0.721 0.223-1.345 0.501-1.927 0.842l0.043-0.023c-0.195-0.050-0.388-0.094-0.578-0.156 0.341-0.213 0.744-0.428 1.161-0.617l0.066-0.027c0.247-0.078 0.475-0.197 0.719-0.281 0.567-0.224 1.246-0.422 1.946-0.561l0.079-0.013c0.513-0.097 1.038-0.128 1.544-0.269 0.241-0.047 0.469-0.134 0.703-0.203 0.372-0.134 0.747-0.281 1.054-0.538 0.199-0.11 0.429-0.205 0.671-0.273l0.023-0.005zM1.098 15.555c0.524-1.214 1.23-2.251 2.096-3.131l-0.001 0.001c0.016 0.227-0.033 0.455-0.075 0.678-0.053 0.241-0.053 0.487-0.112 0.725-0.006-0.128 0.012-0.26 0.009-0.388-0.263 0.281-0.455 0.613-0.672 0.925-0.527 0.825-0.967 1.776-1.27 2.786l-0.021 0.081c-0.052 0.154-0.102 0.348-0.142 0.546l-0.005 0.032c-0.028 0.156-0.094 0.3-0.125 0.455-0.041 0.256-0.094 0.513-0.119 0.775-0.062 0.463-0.062 0.928-0.069 1.394 0.009 0.266 0 0.532 0.022 0.794 0.108 1.354 0.472 2.6 1.042 3.724l-0.026-0.057c0.508 0.99 1.172 1.829 1.968 2.517l0.010 0.009c0.875 0.755 1.94 1.316 3.112 1.602l0.052 0.011c0.45 0.094 0.906 0.187 1.372 0.181 0.15-0.006 0.303 0.028 0.455 0.009 0.181-0.022 0.366 0 0.547-0.016 0.531-0.056 1.063-0.119 1.576-0.275 1.135-0.322 2.197-0.875 3.135-1.588 0.316-0.253 0.638-0.506 0.913-0.807 0.134-0.147 0.297-0.269 0.425-0.422 0.359-0.387 0.694-0.81 0.996-1.257l0.024-0.037c0.247-0.369 0.478-0.75 0.66-1.157 0.211-0.371 0.409-0.804 0.567-1.256l0.017-0.057c0.034-0.112 0.11-0.219 0.075-0.341 0.61-0.25 1.12-0.634 1.514-1.118l0.005-0.007c0.419-0.49 0.806-1.035 1.141-1.614l0.028-0.053c0.112-0.188 0.249-0.348 0.407-0.482l0.003-0.002c0.003 0.091 0 0.181 0.009 0.272 0.032 0.26 0.019 0.522 0.022 0.782 0.006 0.187-0.044 0.375-0.034 0.563-0.022 0.281-0.062 0.563-0.1 0.845-0.059 0.227-0.078 0.469-0.144 0.697-0.124 0.529-0.261 0.973-0.425 1.403l0.025-0.075c-0.156 0.388-0.281 0.785-0.455 1.166-0.594 1.329-1.413 2.457-2.419 3.385l-0.007 0.006c-0.212 0.203-0.438 0.397-0.674 0.579l-0.020 0.014c-0.106 0.053-0.197 0.13-0.292 0.2-1.27 0.918-2.767 1.613-4.386 1.993l-0.084 0.017c-0.531 0.144-1.085 0.172-1.624 0.285-0.551 0.108-1.037 0.261-1.498 0.459l0.048-0.018c-0.158 0.066-0.292 0.14-0.418 0.225l0.009-0.006-0.285 0.187c-0.103 0.019-0.187 0.081-0.288 0.116-0.144 0.059-0.312 0.106-0.487 0.133l-0.013 0.002c-0.102 0.001-0.201 0.010-0.298 0.027l0.011-0.002c-0.144 0.022-0.288-0.028-0.431-0.019-0.227 0.003-0.422-0.144-0.638-0.2-0.235-0.062-0.444-0.191-0.632-0.344-0.412-0.362-0.71-0.846-0.838-1.395l-0.003-0.018c-0.084-0.278-0.225-0.532-0.366-0.785-0.313-0.563-0.713-1.069-1.141-1.551-1.009-1.219-1.798-2.661-2.282-4.237l-0.023-0.088q-0.165-0.572-0.281-1.157c-0.003-0.119-0.041-0.227-0.050-0.344-0.056-0.3-0.062-0.607-0.106-0.906-0.009-0.335-0.016-0.666-0.009-1 0.006-0.4 0.062-0.794 0.103-1.188 0.034-0.122 0.047-0.25 0.072-0.369 0.094-0.476 0.201-0.877 0.331-1.268l-0.021 0.073 0.091-0.281c0.175-0.455 0.331-0.916 0.522-1.364z"></path>
<path fill="#fff" d="M9.625 9.737c0.173-0.156 0.404-0.252 0.657-0.252 0.019 0 0.037 0.001 0.055 0.002l-0.003-0c0.21-0.016 0.438 0.062 0.544 0.253 0.009 0.087 0.025 0.181-0.012 0.262-0.067 0.124-0.165 0.224-0.284 0.29l-0.004 0.002c-0.056 0.032-0.123 0.063-0.192 0.090l-0.011 0.004c-0.187 0.025-0.375 0.016-0.563 0.019-0.118-0.028-0.218-0.091-0.292-0.177l-0.001-0.001c-0.108-0.164-0.033-0.373 0.105-0.492z"></path>
<path fill="#09d9b7" d="M8.659 9.846c0.319-0.056 0.641-0.119 0.969-0.11-0.137 0.122-0.216 0.328-0.11 0.494-0.187 0.062-0.394 0.022-0.594 0.062-0.406 0.065-0.822 0.125-1.21 0.281-0.385 0.124-0.705 0.253-1.013 0.402l0.047-0.021c-0.044 0.019-0.069 0.062-0.097 0.094-0.212-0.072-0.431-0.13-0.647-0.197 0.54-0.318 1.164-0.596 1.82-0.802l0.064-0.017c0.198-0.063 0.457-0.128 0.72-0.179l0.050-0.008zM10.877 9.74c1.654 0.147 3.13 0.812 4.288 1.83l-0.008-0.007c0.231 0.195 0.419 0.434 0.647 0.634 0.398 0.436 0.755 0.923 1.057 1.445l0.021 0.040c0.103 0.187 0.231 0.36 0.306 0.563 0.062 0.172 0.156 0.335 0.219 0.509 0.044 0.134 0.125 0.262 0.128 0.406-0.381-0.124-0.87-0.247-1.368-0.344l-0.085-0.014c-0.212-0.050-0.438-0.012-0.653-0.044l-0.225-0.019c0.144-0.041 0.292-0.022 0.441-0.025-0.1-0.341-0.25-0.663-0.413-0.979-0.386-0.76-0.885-1.406-1.485-1.942l-0.006-0.006c-0.728-0.654-1.625-1.134-2.617-1.367l-0.040-0.008c-0.169-0.041-0.347-0.044-0.506-0.119 0.123-0.069 0.221-0.168 0.286-0.289l0.002-0.004c0.037-0.081 0.022-0.175 0.012-0.262zM2.344 14.367c0.216-0.313 0.411-0.644 0.671-0.925 0.003 0.128-0.016 0.26-0.009 0.388-0.002 0.143-0.013 0.281-0.035 0.416l0.002-0.016c-0.016 0.381-0.022 0.76 0 1.141-0.019-0.033-0.050-0.062-0.050-0.106-0.009-0.147 0-0.292-0.012-0.438-0.032 0.123-0.069 0.227-0.112 0.327l0.005-0.014c-0.219 0.455-0.375 0.942-0.509 1.432-0.069 0.313-0.156 0.622-0.187 0.942-0.033 0.344-0.094 0.688-0.094 1.032 0 0.313-0.016 0.625 0.025 0.938 0.025 0.7 0.178 1.388 0.406 2.051 0.091 0.227 0.166 0.463 0.281 0.682 0.25 0.528 0.547 1.035 0.929 1.479 0.21 0.269 0.463 0.494 0.703 0.735 0.415 0.364 0.887 0.678 1.398 0.926l0.037 0.016c0.38 0.18 0.825 0.332 1.289 0.436l0.043 0.008c0.303 0.044 0.609 0.091 0.916 0.1 0.363 0.047 0.728 0 1.088-0.032 0.325-0.034 0.644-0.106 0.963-0.172 0.987-0.281 1.847-0.727 2.592-1.312l-0.016 0.012c0.244-0.178 0.463-0.39 0.688-0.588 0.455-0.443 0.862-0.931 1.214-1.459l0.021-0.033c0.087-0.141 0.185-0.278 0.253-0.428 0.345 0.157 0.745 0.267 1.165 0.311l0.017 0.001c0.103 0.006 0.223 0.009 0.344 0.009s0.241-0.003 0.36-0.010l-0.017 0.001c0.303-0.029 0.582-0.099 0.842-0.204l-0.020 0.007c0.034 0.119-0.041 0.227-0.075 0.338-0.176 0.511-0.373 0.947-0.606 1.36l0.021-0.041c-0.181 0.406-0.413 0.785-0.66 1.157-0.327 0.481-0.662 0.901-1.026 1.295l0.006-0.007c-0.125 0.156-0.291 0.275-0.425 0.422-0.275 0.3-0.594 0.552-0.913 0.807-0.938 0.713-2.001 1.267-3.135 1.588-0.513 0.156-1.047 0.219-1.576 0.275-0.181 0.016-0.366-0.006-0.547 0.016-0.15 0.019-0.303-0.016-0.455-0.012-0.466 0.009-0.922-0.084-1.372-0.178-1.163-0.281-2.26-0.828-3.164-1.613-0.807-0.697-1.47-1.536-1.957-2.48l-0.022-0.046c-0.545-1.067-0.908-2.313-1.014-3.632l-0.002-0.035c-0.025-0.262-0.012-0.532-0.022-0.794 0.006-0.466 0.003-0.931 0.065-1.394 0.025-0.262 0.081-0.52 0.125-0.775 0.025-0.156 0.094-0.303 0.125-0.455 0.037-0.225 0.086-0.421 0.149-0.61l-0.008 0.029c0.324-1.091 0.764-2.042 1.319-2.913l-0.027 0.046z"></path>
<path fill="#07f0c3" d="M9.521 10.231c0.073 0.088 0.173 0.152 0.287 0.177l0.003 0.001c0.172 0.097 0.388 0.047 0.563-0.019 0.069-0.028 0.134-0.059 0.2-0.094 0.162 0.075 0.341 0.078 0.509 0.122 1.033 0.239 1.93 0.718 2.663 1.377l-0.005-0.005c0.606 0.542 1.106 1.187 1.474 1.911l0.017 0.037c0.162 0.313 0.313 0.638 0.413 0.979-0.147 0-0.297-0.016-0.441 0.025-0.788-0.072-1.582-0.16-2.345-0.363l0.065-0.062c-0.090-0.444-0.222-0.836-0.395-1.204l0.014 0.032c-0.21-0.397-0.459-0.78-0.791-1.085-0.639-0.637-1.521-1.032-2.495-1.032-0.010 0-0.020 0-0.029 0h0.002c-0.541-0.009-1.072 0.125-1.572 0.328l0.037 0.050-0.078 0.006q-0.477-0.199-0.969-0.36c0.032-0.037 0.056-0.078 0.1-0.094 0.265-0.133 0.585-0.264 0.915-0.37l0.051-0.014c0.388-0.156 0.803-0.216 1.213-0.281 0.197-0.041 0.4 0 0.594-0.062zM2.913 14.826c0.012 0.144 0.003 0.291 0.012 0.438 0 0.041 0.033 0.072 0.047 0.106 0.072 0.757 0.375 1.507 0.919 2.047 0.41 0.418 0.918 0.738 1.487 0.924l0.026 0.007c-0.057 0.002-0.111 0.008-0.164 0.017l0.007-0.001c0.154 0.248 0.304 0.459 0.465 0.661l-0.011-0.014c0.445 0.524 1.031 0.916 1.7 1.116l0.025 0.006c0.322 0.106 0.663 0.134 0.997 0.156 0.392-0.006 0.768-0.061 1.126-0.16l-0.031 0.007c0.498-0.154 0.932-0.369 1.322-0.642l-0.015 0.010c0.36-0.261 0.673-0.555 0.943-0.885l0.007-0.009c0.062-0.087 0.169-0.169 0.147-0.288-0.016-0.303-0.016-0.603-0.016-0.906 0.004-0.062 0.016-0.119 0.036-0.173l-0.001 0.004c0.009 0.35-0.019 0.703 0.033 1.054 0.075 0.746 0.331 1.42 0.724 1.993l-0.009-0.015c0.293 0.417 0.652 0.765 1.064 1.039l0.015 0.009c0.338 0.227 0.71 0.39 1.072 0.572-0.069 0.15-0.166 0.288-0.253 0.428-0.372 0.56-0.778 1.049-1.23 1.489l-0.002 0.002c-0.227 0.197-0.447 0.406-0.691 0.588-0.73 0.573-1.591 1.018-2.526 1.287l-0.053 0.013c-0.316 0.065-0.634 0.137-0.96 0.172-0.36 0.032-0.725 0.078-1.088 0.032-0.306-0.009-0.613-0.056-0.916-0.1-0.507-0.111-0.952-0.264-1.372-0.461l0.040 0.017c-0.549-0.264-1.022-0.578-1.445-0.948l0.007 0.006c-0.237-0.241-0.491-0.469-0.7-0.735-0.358-0.427-0.667-0.914-0.909-1.438l-0.017-0.040c-0.119-0.219-0.195-0.455-0.285-0.685-0.222-0.604-0.368-1.302-0.406-2.029l-0.001-0.017c-0.041-0.313-0.025-0.625-0.028-0.938 0-0.344 0.062-0.688 0.097-1.032 0.033-0.319 0.119-0.632 0.187-0.942 0.148-0.558 0.321-1.035 0.53-1.492l-0.024 0.057c0.045-0.089 0.084-0.194 0.11-0.302l0.002-0.010z"></path>
<path fill="#0d2434" d="M2.872 11.228c0.116-0.275 0.212-0.559 0.322-0.838 0.757-0.006 1.501 0.147 2.232 0.306 0.187 0.062 0.385 0.106 0.578 0.156 1.256 0.351 2.354 0.837 3.36 1.458l-0.056-0.032c0.475 0.375 0.954 0.741 1.457 1.075 0.65 0.428 1.332 0.835 2.095 1.025 0.751 0.192 1.63 0.328 2.532 0.38l0.038 0.002c0.219 0.033 0.438-0.006 0.657 0.044 0.583 0.111 1.071 0.236 1.547 0.386l-0.097-0.026c0.81 0.253 1.813 0.647 2.557 1.057 0.635 0.364 1.18 0.735 1.693 1.143l-0.027-0.021c0.024 0.014 0.039 0.039 0.039 0.068 0 0.012-0.003 0.023-0.007 0.032l0-0c-0.072 0.219-0.235 0.625-0.238 0.603-0.032 0.094-0.062 0.187-0.087 0.285-0.087 0.022-0.175 0.032-0.26 0.053-0.219 0.069-0.406 0.2-0.572 0.357-0.16 0.137-0.295 0.297-0.402 0.476l-0.005 0.009c-0.364 0.63-0.752 1.174-1.184 1.678l0.012-0.015c-0.399 0.492-0.911 0.877-1.497 1.119l-0.025 0.009c-0.241 0.098-0.521 0.168-0.813 0.196l-0.012 0.001c-0.102 0.006-0.222 0.009-0.342 0.009s-0.24-0.003-0.359-0.010l0.016 0.001c-0.436-0.045-0.835-0.155-1.203-0.322l0.024 0.010c-0.363-0.181-0.738-0.344-1.075-0.572-0.427-0.282-0.785-0.631-1.070-1.035l-0.008-0.012c-0.384-0.558-0.641-1.233-0.713-1.961l-0.001-0.018c-0.050-0.35-0.022-0.703-0.033-1.054 0.044-0.503 0.116-1.013 0.292-1.488 0.028-0.13 0.11-0.262 0.062-0.4-0.044-0.178-0.219-0.322-0.403-0.306-0.16-0.006-0.297 0.112-0.363 0.25-0.11 0.235-0.191 0.481-0.325 0.7-0.498 0.912-1.212 1.651-2.075 2.165l-0.026 0.014c-0.458 0.261-0.999 0.433-1.575 0.477l-0.013 0.001c-0.096 0.013-0.208 0.020-0.321 0.020-0.129 0-0.256-0.010-0.38-0.028l0.014 0.002c-0.487-0.025-0.96-0.178-1.429-0.306-0.566-0.187-1.1-0.497-1.513-0.931-0.516-0.536-0.854-1.247-0.918-2.035l-0.001-0.012c-0.019-0.381-0.012-0.76 0.003-1.141 0.019-0.119 0.031-0.258 0.032-0.399v-0.002c0.059-0.238 0.062-0.484 0.112-0.725 0.047-0.222 0.094-0.45 0.075-0.678 0.006-0.363-0.050-0.76-0.313-1.031-0.053-0.041-0.033-0.11-0.009-0.162z"></path>
<path fill="#80f7e1" d="M9.812 10.409c0.187 0 0.375 0.006 0.563-0.019-0.175 0.062-0.391 0.116-0.563 0.019z"></path>
<path fill="#05ffca" d="M7.658 11.353c0.5-0.197 1.031-0.335 1.572-0.322 0.008-0 0.018-0 0.028-0 0.974 0 1.856 0.394 2.495 1.032l-0-0c0.331 0.303 0.582 0.688 0.791 1.082 0.161 0.338 0.294 0.733 0.379 1.145l0.006 0.034-0.071 0.062c-0.76-0.195-1.441-0.6-2.091-1.031q-0.75-0.506-1.457-1.072c-0.476-0.297-1.032-0.587-1.61-0.835l-0.082-0.031 0.078-0.003-0.037-0.053zM11.535 15.304c0.065-0.137 0.203-0.256 0.363-0.25 0.187-0.016 0.36 0.128 0.403 0.306 0.047 0.137-0.034 0.269-0.062 0.4-0.178 0.475-0.25 0.981-0.292 1.485-0.019 0.051-0.031 0.11-0.032 0.171v0.001c-0.003 0.303 0 0.603 0.012 0.906 0.022 0.119-0.081 0.2-0.147 0.288-0.269 0.344-0.6 0.634-0.95 0.894-0.375 0.263-0.809 0.478-1.273 0.623l-0.033 0.009c-0.325 0.089-0.701 0.146-1.088 0.156l-0.006 0c-0.335-0.025-0.675-0.053-1-0.16-0.692-0.208-1.276-0.599-1.715-1.117l-0.004-0.005c-0.154-0.189-0.306-0.4-0.446-0.62l-0.016-0.027 0.156-0.016c0.472 0.125 0.944 0.281 1.435 0.306 0.11 0.017 0.236 0.027 0.365 0.027 0.113 0 0.224-0.007 0.333-0.022l-0.013 0.001c0.589-0.046 1.13-0.217 1.607-0.488l-0.019 0.010c0.894-0.5 1.604-1.291 2.101-2.179 0.134-0.219 0.215-0.469 0.325-0.7z"></path>
</svg>
