<!-- Generated by IcoMoon.io -->
<svg version="1.1" xmlns="http://www.w3.org/2000/svg" width="32" height="32" viewBox="0 0 32 32">
<title>add</title>
<path d="M16 32c-8.837 0-16-7.163-16-16s7.163-16 16-16 16 7.163 16 16-7.163 16-16 16zM24.984 17.631h-4.928l-0.88-2.64h5.8c0.413 0 0.748-0.335 0.748-0.748s-0.335-0.748-0.748-0.748h-6.276l-2.517-7.673c-0.069-0.533-0.52-0.94-1.066-0.94-0.521 0-0.955 0.371-1.053 0.863l-0.001 0.007-6.020 18.303c-0.016 0.1-0.016 0.2 0 0.3 0.010 0.551 0.459 0.995 1.012 0.995 0.465 0 0.857-0.314 0.975-0.742l0.002-0.007 5.051-15.4 1.443 4.294h-1.25c-0.413 0-0.748 0.335-0.748 0.748s0.335 0.748 0.748 0.748h1.76l0.88 2.64h-2.64c-0.413 0-0.748 0.335-0.748 0.748s0.335 0.748 0.748 0.748h3.16l1.425 4.224h-7.559c-0.583 0-1.056 0.473-1.056 1.056s0.473 1.056 1.056 1.056h8.941c0.554 0 1.003-0.449 1.003-1.003 0-0.001 0-0.002 0-0.004 0-0.158-0.036-0.308-0.1-0.443l0.003 0.006-1.61-4.893h4.4c0.413 0 0.748-0.335 0.748-0.748s-0.335-0.748-0.748-0.748h0.044z"></path>
</svg>
