<!-- Generated by IcoMoon.io -->
<svg version="1.1" xmlns="http://www.w3.org/2000/svg" width="32" height="32" viewBox="0 0 32 32">
<title>agi</title>
<path fill="#000" d="M16 32c-8.837 0-16-7.163-16-16s7.163-16 16-16 16 7.163 16 16-7.163 16-16 16zM17.144 6.424c0.502 0.483 0.956 1.010 1.356 1.576 0.429 0.726 0.683 1.601 0.683 2.535 0 1.018-0.301 1.965-0.819 2.758l0.012-0.019c-0.055 0.091-0.087 0.202-0.087 0.319 0 0.156 0.057 0.299 0.151 0.408l-0.001-0.001c0.214 0.29 0.624 0.37 0.937 0.182 1.188-0.97 1.25-3.030 1.313-3.455-0.002-0.454-0.070-0.892-0.196-1.304l0.008 0.032c-0.145-0.444-0.314-0.825-0.517-1.184l0.017 0.032c-0.203-0.375-0.453-0.695-0.748-0.968l-0.002-0.002c-0.52-0.534-1.143-0.964-1.838-1.258l-0.037-0.014c-0.044-0.029-0.098-0.046-0.157-0.046s-0.112 0.017-0.158 0.047l0.001-0.001c-0.022 0.039-0.035 0.086-0.035 0.135 0 0.093 0.046 0.176 0.116 0.227l0.001 0.001zM15.3 25.006c-0.51-0.481-0.97-1.010-1.375-1.576-0.429-0.726-0.682-1.601-0.682-2.534 0-1.018 0.301-1.965 0.819-2.757l-0.012 0.019c0.088-0.096 0.141-0.224 0.141-0.364s-0.054-0.268-0.142-0.364l0 0c-0.132-0.173-0.338-0.284-0.57-0.284-0.136 0-0.263 0.038-0.371 0.104l0.003-0.002c-1.187 0.97-1.25 3.030-1.312 3.455 0 0.43 0.064 0.86 0.188 1.273 0.128 0.398 0.295 0.784 0.5 1.151 0.193 0.361 0.446 0.689 0.75 0.97 0.52 0.534 1.143 0.964 1.838 1.259l0.037 0.014c0.062 0.060 0.187 0 0.25-0.060s0.062-0.183-0.063-0.304zM20.694 20.006c-0.097-1.215-0.578-2.303-1.319-3.158l0.006 0.007c-0.754-0.757-1.618-1.403-2.567-1.912l-0.058-0.028c-0.901-0.502-1.678-1.046-2.395-1.659l0.020 0.017c-0.588-0.553-1.009-1.278-1.182-2.095l-0.005-0.026c-0.042-0.224-0.066-0.481-0.066-0.743 0-0.629 0.137-1.226 0.383-1.763l-0.011 0.027c0.435-0.887 1.026-1.634 1.745-2.233l0.011-0.009c0.053-0.048 0.087-0.117 0.087-0.194 0-0.040-0.009-0.077-0.025-0.111l0.001 0.002c-0.042-0.074-0.121-0.124-0.211-0.124-0.063 0-0.121 0.024-0.164 0.064l0-0c-1.012 0.449-1.841 1.156-2.425 2.039l-0.013 0.021c-0.562 0.798-0.898 1.791-0.898 2.862 0 0.145 0.006 0.288 0.018 0.43l-0.001-0.018c0.055 0.625 0.21 1.201 0.451 1.73l-0.013-0.033c0.276 0.557 0.609 1.036 1.003 1.459l-0.003-0.004c0.771 0.738 1.656 1.364 2.625 1.85l0.062 0.028c0.848 0.44 1.645 0.969 2.375 1.576 0.624 0.55 1.055 1.307 1.186 2.162l0.003 0.020c0.176 0.879 0.066 1.79-0.313 2.606-0.44 0.877-1.052 1.607-1.798 2.171l-0.015 0.011c-0.063 0.036-0.104 0.103-0.104 0.18 0 0.047 0.015 0.089 0.041 0.124l-0-0.001c0.035 0.064 0.1 0.11 0.173 0.121s0.149-0.010 0.203-0.060c0.944-0.552 1.735-1.261 2.36-2.101l0.015-0.021c0.62-0.958 0.906-2.084 0.819-3.212z"></path>
<path fill="#000" opacity="0.5" d="M17.144 6.424c-0.071-0.051-0.116-0.134-0.116-0.227 0-0.050 0.013-0.097 0.036-0.137l-0.001 0.001c0.044-0.029 0.098-0.046 0.156-0.046s0.112 0.017 0.157 0.046l-0.001-0.001c0.732 0.308 1.355 0.738 1.874 1.271l0.001 0.001c0.303 0.281 0.557 0.609 0.75 0.97 0.204 0.368 0.371 0.753 0.5 1.152 0.123 0.413 0.187 0.842 0.188 1.272-0.063 0.425-0.125 2.485-1.313 3.455-0.105 0.064-0.232 0.102-0.368 0.102-0.232 0-0.438-0.111-0.569-0.282l-0.001-0.002c-0.093-0.109-0.15-0.251-0.15-0.407 0-0.118 0.033-0.229 0.090-0.323l-0.002 0.003c0.506-0.773 0.808-1.721 0.808-2.738 0-0.934-0.253-1.808-0.695-2.558l0.013 0.024c-0.4-0.566-0.854-1.093-1.356-1.576zM15.3 25.006c0.125 0.121 0.125 0.242 0.063 0.303s-0.188 0.121-0.25 0.060c-0.732-0.308-1.355-0.738-1.874-1.271l-0.001-0.001c-0.297-0.275-0.547-0.595-0.74-0.951l-0.010-0.019c-0.186-0.327-0.355-0.708-0.487-1.105l-0.013-0.046c-0.118-0.381-0.187-0.819-0.188-1.272v-0.001c0.063-0.424 0.125-2.485 1.313-3.455 0.105-0.064 0.232-0.102 0.367-0.102 0.232 0 0.438 0.111 0.568 0.282l0.001 0.002c0.088 0.096 0.141 0.224 0.141 0.364s-0.054 0.268-0.142 0.364l0-0c-0.506 0.773-0.807 1.721-0.807 2.738 0 0.933 0.253 1.808 0.695 2.558l-0.013-0.024c0.405 0.567 0.866 1.095 1.375 1.576z"></path>
</svg>
