<!-- Generated by IcoMoon.io -->
<svg version="1.1" xmlns="http://www.w3.org/2000/svg" width="32" height="32" viewBox="0 0 32 32">
<title>ampl</title>
<path d="M16 0c8.837 0 16 7.163 16 16s-7.163 16-16 16-16-7.163-16-16 7.163-16 16-16zM16.583 6.25c-0.282 0.073-0.554 0.15-0.83 0.227-0.017 0.040-0.034 0.079-0.049 0.118-1.739 4.753-2.511 6.672-3.296 8.584l1.009-2.774-2.459 6.092-0.72 1.77c-0.119 0.29-0.254 0.576-0.406 0.853-0.117 0.217-0.242 0.403-0.383 0.577l0.005-0.007c-0.207 0.251-0.474 0.445-0.778 0.564l-0.013 0.004c-0.040 0.017-0.103 0.039-0.167 0.059l-0.024 0.006c-0.236 0.070-0.475 0.126-0.717 0.167-0.092 0.011-0.176 0.028-0.256 0.053l0.010-0.003c-0.013 0.236-0.012 0.473 0.002 0.709v-0.001h5.691c0.023-0.003 0.044-0.006 0.064-0.011l-0.004 0.001c0.004-0.010 0.006-0.023 0.008-0.035l0-0.001v-0.618c-0.002-0.018-0.006-0.034-0.011-0.049l0 0.002-0.047-0.008c-0.218-0.034-0.437-0.064-0.654-0.103-0.221-0.036-0.417-0.087-0.604-0.154l0.024 0.008c-0.126-0.043-0.235-0.1-0.334-0.17l0.004 0.003c-0.15-0.107-0.254-0.273-0.277-0.463l-0-0.003c-0.006-0.051-0.010-0.11-0.010-0.169 0-0.091 0.008-0.18 0.024-0.267l-0.001 0.009c0.035-0.236 0.087-0.446 0.157-0.648l-0.008 0.025c0.173-0.53 0.35-1.062 0.535-1.59 0.46-1.316 0.954-2.621 1.447-3.926 0.669-1.763 1.34-3.525 1.97-5.3 0.006-0.022 0.014-0.042 0.025-0.060l-0.001 0.001c0.010-0.011 0.027-0.017 0.040-0.025 0.040 0.035 0.045 0.079 0.059 0.118 1.29 3.612 2.593 7.219 3.91 10.82 0.067 0.184 0.137 0.368 0.187 0.557 0.034 0.121 0.056 0.245 0.068 0.37 0.021 0.276-0.080 0.492-0.331 0.63-0.046 0.027-0.094 0.050-0.144 0.070-0.1 0.036-0.2 0.072-0.303 0.1-0.211 0.057-0.474 0.109-0.742 0.145l-0.034 0.004c-0.060 0.006-0.114 0.017-0.167 0.032l0.007-0.002c-0.004 0.008-0.007 0.017-0.009 0.026l-0 0.001v0.639c0.003 0.016 0.008 0.031 0.014 0.044l-0-0.001h6.363c0.020-0.002 0.040-0.006 0.066-0.010 0.005-0.078 0.007-0.155 0.004-0.233 0-0.080 0.003-0.165 0-0.24-0.002-0.076 0.014-0.152-0.012-0.231l-0.18-0.026c-0.293-0.039-0.549-0.090-0.798-0.157l0.043 0.010c-0.469-0.12-0.858-0.403-1.113-0.783l-0.004-0.007c-0.072-0.105-0.149-0.232-0.221-0.362l-0.013-0.026c-0.143-0.261-0.287-0.577-0.411-0.903l-0.018-0.055c0.635 1.94 0.324 1.142 0.016 0.344l-0.935-2.756c0.934 3.17-0.174 0.239-1.267-2.7l-2.006-6.154-0.95-2.601c-0.013-0.036-0.029-0.070-0.045-0.11z"></path>
</svg>
