<!-- Generated by IcoMoon.io -->
<svg version="1.1" xmlns="http://www.w3.org/2000/svg" width="32" height="32" viewBox="0 0 32 32">
<title>ant</title>
<path d="M7.965 17.598c-0.536-1.001-1.033-2.178-1.424-3.402l-0.042-0.152c-0.149-0.442-0.308-1.027-0.438-1.623l-0.022-0.123c1.812-1.488 3.95-2.762 6.248-3.828 0.861-0.4 1.697-0.748 2.486-1.045 0.49-0.184 0.9-0.326 1.222-0.43 0.332 0.108 0.73 0.246 1.22 0.43 0.79 0.298 1.625 0.645 2.486 1.045 2.3 1.067 4.438 2.34 6.25 3.827-0.442 1.949-1.080 3.665-1.91 5.266l0.057-0.121c-0.574 1.12-1.192 2.082-1.891 2.977l0.031-0.041c-3.111-0.222-2.922-2.1-2.922-2.1 0-0.075 0-0.15 0.014-0.224 0 0 0.15-1.477 1.452-1.477 0.016-0.001 0.034-0.002 0.052-0.002 0.159 0 0.308 0.041 0.438 0.112l-0.005-0.002c0.681 0.366 0.238 1.050 0.238 1.050 0.853-0.135 1.91-1.084 1.74-2.744s-2.163-2.514-2.163-2.514c0.062-0.38 0-0.508 0-0.508-4.228-2.541-7.521-1.992-7.521-1.992l0.818 0.813c-0.082-0.007-0.17-0.007-0.252-0.007-3.43 0.122-6.172 2.981-6.172 6.498 0 0.11 0.004 0.215 0.010 0.317zM16 32c-8.837 0-16-7.163-16-16s7.163-16 16-16 16 7.163 16 16-7.163 16-16 16zM27 11.902l-0.226-0.16c-1.842-1.55-4.020-2.88-6.372-3.996-1.102-0.548-2.453-1.105-3.843-1.575l-0.241-0.071-0.108-0.035-0.217-0.065-0.318 0.1c-1.083 0.347-2.518 0.9-4.087 1.646-2.355 1.119-4.536 2.45-6.38 4.002l-0.088 0.075-0.12 0.1 0.052 0.288c-0.010-0.040 0.045 0.24 0.095 0.464 0.461 1.974 1.111 3.709 1.95 5.33l-0.060-0.127c0.901 1.757 2 3.293 3.268 4.574 1.47 1.494 3.263 2.665 5.267 3.401l0.099 0.032 0.118 0.040 0.21 0.075 0.214-0.082 0.112-0.040c2.008-0.718 3.81-1.87 5.367-3.432 1.262-1.268 2.362-2.808 3.268-4.574 0.586-1.116 1.119-2.426 1.528-3.789l0.041-0.161c0.218-0.745 0.395-1.523 0.421-1.74l0.050-0.28zM19.398 12.626l-0.014 0.014c-1.193-0.251-1.623-0.86-1.623-0.86 1.126-0.008 2.142 0.257 2.885 0.704 0 0-0.402-0.129-0.811-0.183-0.205 0.21-0.382 0.298-0.437 0.325z"></path>
</svg>
