<!-- Generated by IcoMoon.io -->
<svg version="1.1" xmlns="http://www.w3.org/2000/svg" width="32" height="32" viewBox="0 0 32 32">
<title>auto</title>
<path d="M16 32c-8.837 0-16-7.163-16-16s7.163-16 16-16 16 7.163 16 16-7.163 16-16 16zM24.5 19.267v-8.2l-8.5-5.067-8.5 5.067v9.955l8.5 4.978 7.015-4.108-7.538-4.47 1.365-0.755v-7.9l5.74 3.422v3.633l-1.787-1.055-0.48 1.989 4.185 2.511zM9.418 12.19l5.518-3.29v6.568l-5.518 3.2v-6.478zM13.515 18.534l5.66 3.353-3.175 1.858-5.623-3.293 3.138-1.919z"></path>
</svg>
