<!-- Generated by IcoMoon.io -->
<svg version="1.1" xmlns="http://www.w3.org/2000/svg" width="32" height="32" viewBox="0 0 32 32">
<title>avax</title>
<path fill="#000" d="M16 0c-8.8 0-16 7.2-16 16s7.2 16 16 16 16-7.2 16-16-7.2-16-16-16zM13.9 21.9c-0.7 1.1-1.7 1.7-3 1.7-0.7 0-1.3 0-2 0-0.6 0-1.2 0-1.9 0-1.5 0-1.9-0.6-1.1-1.9 2.5-4.3 4.9-8.6 7.4-13 0.6-1 1.1-2 1.7-3s1.4-1 2 0c0.7 1.2 1.4 2.5 2.1 3.7 0.6 1.1 0.6 2.3 0 3.4-1.7 3.1-3.5 6.1-5.2 9.1zM25.2 23.6c-1 0-2.1 0-3.1 0s-2.1 0-3.1 0c-1.1 0-1.6-0.7-1-1.7 1-1.8 2.1-3.7 3.2-5.5 0.6-0.9 1.4-0.9 1.9 0 1 1.8 2.1 3.6 3.1 5.4 0.6 1.1 0.1 1.8-1 1.8z"></path>
</svg>
