<!-- Generated by IcoMoon.io -->
<svg version="1.1" xmlns="http://www.w3.org/2000/svg" width="32" height="32" viewBox="0 0 32 32">
<title>bab</title>
<path d="M16 32c-8.837 0-16-7.163-16-16s7.163-16 16-16 16 7.163 16 16-7.163 16-16 16zM22.77 13.95h4.87l0.36-2h-4.71c-0.973 0.031-1.866 0.349-2.605 0.87l0.015-0.010c-0.28-1-3-0.86-3-0.86l0.36-2h-1.060l-0.36 2h-1.11l0.31-2h-1.15l-0.42 2h-1.19l-0.61 3.12-0.81-3.060h-2.66l-5 7.35h4.12l0.42-1.95h-0.84l2.4-3.51 0.9 3.53h-0.9l-0.39 1.93h3.060l-0.25 1.34h1.2l0.28-1.34h1l-0.25 1.34h1.25l0.25-1.34h1.56c0.744-0.087 1.395-0.434 1.868-0.948l0.002-0.002c0.563 0.57 1.338 0.929 2.196 0.95l0.004 0h4.71l0.31-1.95h-4.23c-2.91-0.050-1.67-3.48 0.1-3.46zM17.48 17.36h-3.12l0.25-0.95h3c0.76 0.050 0.51 0.95-0.13 0.95zM17.95 14.8h-3.12l0.25-0.95h3c0.76 0.050 0.48 0.99-0.13 0.99v-0.040z"></path>
</svg>
