<!-- Generated by IcoMoon.io -->
<svg version="1.1" xmlns="http://www.w3.org/2000/svg" width="32" height="32" viewBox="0 0 32 32">
<title>bcbc</title>
<path d="M16 32c8.837 0 16-7.163 16-16s-7.163-16-16-16-16 7.163-16 16 7.163 16 16 16zM12.483 7.793c-3.34 1.284-5.668 4.467-5.668 8.193 0 4.835 3.92 8.755 8.755 8.755 3.281 0 6.141-1.805 7.64-4.477l0.023-0.044-7.662-4.235 3.109-8.185c-0.922-0.361-1.99-0.57-3.107-0.57-1.11 0-2.172 0.207-3.149 0.583l0.060-0.020zM13.029 9.366c0.743-0.289 1.602-0.456 2.501-0.456 0.905 0 1.77 0.169 2.565 0.478l-0.048-0.017-2.517 6.627 6.204 3.43c-1.232 2.198-3.548 3.659-6.204 3.659-3.915 0-7.089-3.174-7.089-7.089 0-3.016 1.884-5.593 4.54-6.617l0.048-0.016zM15.965 4.98c1.191 0.047 2.366 0.287 3.48 0.71l-3.915 10.309 9.651 5.335c-1.917 3.42-5.519 5.693-9.652 5.693-6.091 0-11.028-4.937-11.028-11.028s4.937-11.028 11.028-11.028c0.153 0 0.306 0.003 0.458 0.009l-0.022-0.001zM23.494 8.792c0.264 0 0.51 0.031 0.736 0.095 0.666 0.183 1.116 0.597 1.35 1.241 0.143 0.391 0.174 0.775 0.094 1.152-0.072 0.374-0.245 0.71-0.519 1.010 0.514-0.023 0.963 0.092 1.35 0.342 0.383 0.242 0.666 0.613 0.847 1.111 0.257 0.706 0.18 1.351-0.233 1.935-0.408 0.574-1.137 1.053-2.188 1.435l-4.164 1.516-2.931-8.053 3.934-1.432c0.644-0.234 1.219-0.352 1.724-0.352zM22.884 10.458c-0.24 0-0.517 0.058-0.833 0.173l-1.852 0.674 0.69 1.899 1.853-0.675c0.46-0.167 0.78-0.374 0.958-0.622 0.18-0.248 0.212-0.529 0.097-0.843s-0.318-0.505-0.612-0.572c-0.086-0.022-0.185-0.034-0.287-0.034-0.005 0-0.010 0-0.015 0h0.001zM24.446 13.58c-0.252 0.003-0.548 0.066-0.888 0.19l-2.174 0.791 0.724 1.99 2.174-0.791c0.49-0.179 0.83-0.393 1.016-0.644 0.195-0.253 0.23-0.548 0.108-0.886-0.16-0.437-0.48-0.654-0.96-0.65z"></path>
</svg>
