<!-- Generated by IcoMoon.io -->
<svg version="1.1" xmlns="http://www.w3.org/2000/svg" width="32" height="32" viewBox="0 0 32 32">
<title>booty</title>
<path d="M16 32c-8.837 0-16-7.163-16-16s7.163-16 16-16 16 7.163 16 16-7.163 16-16 16zM7.773 22.98l0.857 2.802 1.54-0.471-0.048-0.16 1.635 2.425 1.335-0.9-0.113-0.168 2.288 1.852 1.013-1.252-0.175-0.141 2.772 1.063 0.577-1.503-0.148-0.057 2.895 0.203 0.113-1.607-0.223-0.015 2.892-0.668-0.362-1.57-0.263 0.062 2.617-1.511-0.805-1.395-0.252 0.145 2.082-2.232-1.178-1.099-0.196 0.21 1.34-2.747-1.447-0.706-0.118 0.24 0.476-3.002-1.59-0.252-0.034 0.21-0.469-2.959-1.59 0.252 0.010 0.072-1.249-2.562-1.447 0.706 0.041 0.085-1.948-2.089-1.178 1.099 0.098 0.104-2.502-1.444-0.805 1.395 0.18 0.104-2.867-0.662-0.363 1.569 0.271 0.063-3.002 0.21 0.112 1.606 0.335-0.023-2.867 1.1 0.577 1.504 0.307-0.118-2.401 1.944 1.013 1.252 0.16-0.13-1.669 2.475 1.335 0.9 0.107-0.158-0.87 2.845 1.54 0.471 0.050-0.163v2.953h1.61v-0.156zM7.773 21.066v-2.69h-1.058l0.79-2.582-1.020-0.311 1.512-2.24-0.885-0.597 2.097-1.698-0.672-0.83 2.497-0.958-0.392-1.022 2.652-0.185-0.075-1.073 2.584 0.597 0.237-1.028 2.297 1.326 0.519-0.9 1.814 1.946 0.752-0.701 1.173 2.403 0.922-0.45 0.421 2.658 1.025-0.162-0.421 2.658 1.071 0.17-1.18 2.42 0.979 0.479-1.837 1.969 0.797 0.742-2.325 1.342 0.54 0.934-2.605 0.602 0.24 1.035-2.657-0.186-0.073 1.040-2.482-0.953-0.369 0.96-2.060-1.668-0.664 0.82-1.487-2.204-0.87 0.587-0.781-2.557-1.006 0.307zM11.333 11.217l-1.218 8.71h3.567c0.386 0 0.78-0.041 1.181-0.123 0.417-0.084 0.788-0.225 1.127-0.416l-0.019 0.010c0.336-0.189 0.623-0.437 0.86-0.745 0.239-0.307 0.39-0.69 0.456-1.15 0.016-0.099 0.026-0.212 0.026-0.328 0-0.163-0.018-0.321-0.054-0.473l0.003 0.014c-0.056-0.247-0.158-0.463-0.298-0.65l0.003 0.004c-0.144-0.187-0.322-0.34-0.526-0.451l-0.009-0.004c-0.215-0.117-0.466-0.202-0.732-0.239l-0.012-0.001v-0.025c0.467-0.139 0.863-0.37 1.187-0.695 0.324-0.323 0.519-0.731 0.584-1.224 0.066-0.475 0.025-0.857-0.123-1.144-0.147-0.285-0.368-0.514-0.638-0.666l-0.008-0.004c-0.284-0.159-0.617-0.272-0.97-0.318l-0.014-0.002c-0.338-0.051-0.728-0.080-1.125-0.080-0 0-0.001 0-0.001 0h-3.248zM12.76 14.7l0.258-1.858h1.304c0.148 0 0.297 0.014 0.45 0.043 0.15 0.029 0.284 0.076 0.399 0.141 0.114 0.065 0.204 0.16 0.262 0.273l0.002 0.004c0.043 0.092 0.069 0.2 0.069 0.313 0 0.048-0.005 0.096-0.013 0.141l0.001-0.005c-0.025 0.172-0.080 0.32-0.166 0.442-0.084 0.121-0.191 0.22-0.315 0.292l-0.005 0.003c-0.119 0.070-0.256 0.125-0.402 0.158l-0.010 0.002c-0.148 0.033-0.296 0.050-0.443 0.050h-1.39zM12.255 18.304l0.283-1.98h1.452c0.156 0 0.322 0.012 0.498 0.036s0.338 0.070 0.486 0.136c0.144 0.062 0.261 0.161 0.343 0.286l0.002 0.003c0.082 0.127 0.11 0.293 0.086 0.498-0.020 0.182-0.087 0.346-0.187 0.483l0.002-0.003c-0.187 0.25-0.459 0.428-0.773 0.491l-0.008 0.001c-0.16 0.032-0.314 0.049-0.461 0.049h-1.723zM21.515 11.356l-2.451-0.349-1.268 7.671 1.682 0.118 2.037-7.44zM19.739 19.572l-2.254-0.544-0.512 2.521 2.237 0.652 0.53-2.629z"></path>
</svg>
