<!-- Generated by IcoMoon.io -->
<svg version="1.1" xmlns="http://www.w3.org/2000/svg" width="32" height="32" viewBox="0 0 32 32">
<title>btdx</title>
<path d="M16 32c8.837 0 16-7.163 16-16s-7.163-16-16-16-16 7.163-16 16 7.163 16 16 16zM16 3c7.179 0 13 5.821 13 13s-5.821 13-13 13-13-5.821-13-13 5.821-13 13-13zM15.962 4.94c6.087 0 11.023 4.934 11.023 11.022s-4.936 11.023-11.023 11.023c-6.088 0-11.022-4.936-11.022-11.023 0-6.088 4.934-11.022 11.022-11.022zM15.962 28.022c6.659 0 12.057-5.398 12.057-12.058s-5.399-12.057-12.057-12.057c-6.66 0-12.058 5.398-12.058 12.057 0 6.66 5.398 12.058 12.058 12.058zM18.012 16.978c0.117 0.071 0.194 0.198 0.194 0.343 0 0.015-0.001 0.029-0.002 0.044l0-0.002c-0.007 0.067-0.011 0.145-0.011 0.225 0 1.243 0.972 2.259 2.198 2.328l0.006 0c0.027 0.001 0.058 0.002 0.090 0.002 1.285 0 2.327-1.042 2.327-2.327 0-1.253-0.991-2.275-2.232-2.325l-0.005-0c-0.017-0-0.036-0.001-0.056-0.001-0.732 0-1.385 0.338-1.811 0.867l-0.003 0.004c-0.074 0.091-0.186 0.148-0.311 0.148-0.078 0-0.151-0.022-0.213-0.061l0.002 0.001-1.72-1.058c-0.116-0.072-0.192-0.199-0.193-0.343v-0.017c0-0.187 0.13-0.343 0.308-0.39 1.007-0.268 1.737-1.173 1.737-2.247 0-0.060-0.002-0.12-0.007-0.18l0 0.008c-0.092-1.168-1.033-2.090-2.201-2.152l-0.006-0c-0.032-0.002-0.069-0.002-0.107-0.002-1.285 0-2.326 1.041-2.326 2.326 0 1.021 0.658 1.889 1.574 2.202l0.016 0.005c0.162 0.055 0.276 0.205 0.277 0.382v0.099c0 0.145-0.080 0.28-0.206 0.351l-1.638 0.918c-0.056 0.033-0.124 0.052-0.196 0.052-0.117 0-0.223-0.051-0.296-0.131l-0-0c-0.427-0.478-1.045-0.777-1.733-0.777-0.014 0-0.028 0-0.042 0l0.002-0c-1.264 0.028-2.278 1.055-2.286 2.321v0.001c0.007 1.278 1.044 2.31 2.323 2.31 1.283 0 2.323-1.040 2.323-2.323 0-0.11-0.008-0.218-0.022-0.324l0.001 0.012c-0.002-0.017-0.004-0.036-0.004-0.055 0-0.143 0.076-0.269 0.189-0.34l0.002-0.001 1.701-1.050c0.060-0.038 0.133-0.060 0.211-0.060 0.077 0 0.148 0.022 0.209 0.059l-0.002-0.001 1.938 1.16zM15.997 6.686c-2.893 0.001-5.262 2.244-5.463 5.086l-0.001 0.017c0.281-0.047 0.604-0.073 0.934-0.073 0.372 0 0.736 0.034 1.090 0.099l-0.037-0.006c0.187-1.77 1.671-3.138 3.475-3.139h0c1.929 0.002 3.492 1.566 3.493 3.496v0c0 0.99-0.413 1.883-1.075 2.518 0.583-0.429 1.316-0.687 2.108-0.687 0.219 0 0.433 0.020 0.64 0.057l-0.022-0.003c0.213-0.562 0.336-1.211 0.336-1.889 0-3.025-2.452-5.477-5.477-5.477-0 0-0.001 0-0.001 0h0zM11.465 23.010c1.72 0 3.251-0.8 4.246-2.050-0.414-0.581-0.729-1.265-0.904-2.003l-0.008-0.040c-0.542 1.335-1.828 2.259-3.33 2.259-0 0-0.001 0-0.001 0h0c-1.957-0.034-3.53-1.628-3.53-3.59s1.573-3.556 3.527-3.589l0.003-0c0.789 0 1.517 0.256 2.108 0.687-0.64-0.614-1.047-1.467-1.075-2.416l-0-0.005c-0.312-0.064-0.671-0.1-1.038-0.1-2.994 0-5.421 2.427-5.421 5.421 0 0.001 0 0.002 0 0.003v-0c0 0 0 0.001 0 0.001 0 2.994 2.427 5.421 5.421 5.421 0.001 0 0.001 0 0.002 0h-0zM20.521 23.010c0.402 0.107 0.864 0.168 1.339 0.168 2.996 0 5.424-2.428 5.424-5.424s-2.428-5.424-5.424-5.424c-0.003 0-0.007 0-0.010 0h0.001c-0.017 0.653-0.14 1.272-0.351 1.848l0.013-0.040c1.51 0.447 2.594 1.821 2.594 3.449 0 1.981-1.605 3.588-3.586 3.59h-0c-1.856-0.001-3.382-1.41-3.569-3.217l-0.001-0.015c-0.287 0.050-0.618 0.078-0.955 0.078-0.313 0-0.62-0.024-0.919-0.071l0.033 0.004c0.2 2.832 2.546 5.054 5.411 5.054v0z"></path>
</svg>
