<!-- Generated by IcoMoon.io -->
<svg version="1.1" xmlns="http://www.w3.org/2000/svg" width="32" height="32" viewBox="0 0 32 32">
<title>call</title>
<path d="M16 32c-8.837 0-16-7.163-16-16s7.163-16 16-16 16 7.163 16 16-7.163 16-16 16zM16.017 21.804c-0.067 0.003-0.147 0.005-0.226 0.005-0.724 0-1.412-0.155-2.032-0.434l0.031 0.013c-0.762-0.333-1.407-0.802-1.933-1.381l-0.004-0.005c-0.856-0.933-1.38-2.183-1.38-3.554 0-0.013 0-0.026 0-0.039v0.002c-0.026-0.74 0.075-1.48 0.298-2.186 0.199-0.596 0.5-1.153 0.888-1.646 0.447-0.569 0.993-1.037 1.616-1.384l0.027-0.014c0.554-0.312 1.205-0.528 1.897-0.604l0.023-0.002c0.225-0.030 0.486-0.048 0.75-0.048 0.318 0 0.629 0.025 0.933 0.073l-0.034-0.004c0.7 0.116 1.37 0.374 1.966 0.758 0.623 0.403 1.143 0.908 1.55 1.498l0.012 0.018c0.051 0.071 0.11 0.1 0.186 0.025l0.488-0.489c0.16-0.16 0.333-0.315 0.476-0.48 0.143-0.164 0.316-0.29 0.467-0.45 0.434-0.459 0.893-0.897 1.34-1.347 0.075-0.076 0.083-0.114 0.163 0.020s0.19 0.25 0.278 0.375c0.792 1.084 1.367 2.378 1.633 3.781l0.009 0.059c0.068 0.338 0.109 0.68 0.123 1.024 0.032 0.605 0.020 1.211-0.038 1.814-0.096 0.787-0.278 1.56-0.543 2.308-0.322 0.855-0.722 1.594-1.208 2.269l0.020-0.029c-0.084 0.105-0.097 0.18 0 0.278 0.468 0.463 0.93 0.938 1.394 1.406 0.139 0.164 0.177 0.16 0.299 0 0.8-1.047 1.418-2.22 1.831-3.47 0.17-0.504 0.31-1.017 0.421-1.536 0.131-0.62 0.165-1.255 0.232-1.883 0.059-0.551-0.063-1.103-0.063-1.654 0.001-0.005 0.001-0.011 0.001-0.017s-0-0.012-0.001-0.018l0 0.001c-0.13-0.594-0.185-1.2-0.354-1.794-0.2-0.721-0.46-1.425-0.775-2.105-0.425-0.879-0.909-1.637-1.469-2.329l0.017 0.022c-0.451-0.57-0.95-1.101-1.49-1.588-0.178-0.16-0.22-0.155-0.384 0.021l-1.402 1.49-0.973 1.028c-0.063 0.068-0.126 0.101-0.206 0.030-0.384-0.311-0.816-0.591-1.277-0.823l-0.041-0.019c-0.402-0.22-0.868-0.408-1.356-0.541l-0.046-0.011c-0.522-0.161-1.124-0.261-1.747-0.278l-0.009-0c-0.029 0.002-0.063 0.003-0.096 0.003s-0.068-0.001-0.101-0.003l0.005 0c-0.127-0.011-0.274-0.017-0.423-0.017-0.235 0-0.467 0.015-0.694 0.045l0.027-0.003c-0.47 0.045-0.934 0.135-1.386 0.27-0.614 0.179-1.146 0.402-1.645 0.678l0.041-0.021c-1.353 0.726-2.446 1.781-3.196 3.061l-0.021 0.038c-0.329 0.57-0.608 1.228-0.802 1.922l-0.015 0.061c-0.113 0.453-0.194 0.913-0.244 1.377-0.035 0.238-0.055 0.512-0.055 0.791 0 0.219 0.012 0.436 0.037 0.649l-0.002-0.026c0.048 0.642 0.167 1.276 0.353 1.891 0.113 0.337 0.239 0.667 0.38 0.99 0.185 0.41 0.41 0.802 0.669 1.17 0.473 0.688 1.015 1.281 1.628 1.791l0.014 0.011c0.666 0.553 1.444 1.001 2.292 1.302l0.053 0.016c0.791 0.274 1.703 0.432 2.652 0.432 0.151 0 0.302-0.004 0.451-0.012l-0.021 0.001c0.82-0.030 1.632-0.18 2.409-0.446 0.676-0.239 1.262-0.543 1.797-0.913l-0.025 0.016c0.135-0.093 0.14-0.13 0.026-0.249l-1.58-1.625c-0.033-0.048-0.088-0.079-0.15-0.079-0.046 0-0.088 0.017-0.12 0.045l0-0c-0.218 0.14-0.45 0.255-0.695 0.342-0.512 0.215-1.108 0.341-1.732 0.341-0.073 0-0.146-0.002-0.218-0.005l0.010 0zM25.037 23.711l-4.26-4.337c-0.093-0.097-0.17-0.1-0.245 0-0.308 0.446-0.666 0.829-1.071 1.154l-0.011 0.008c-0.101 0.080-0.101 0.143 0 0.236 0.383 0.383 0.762 0.775 1.141 1.158 0.493 0.501 0.985 1.002 1.482 1.503 0.088 0.088 0.084 0.13 0 0.206-0.198 0.148-0.392 0.3-0.598 0.421-1.021 0.713-2.231 1.234-3.538 1.482l-0.058 0.009c-0.458 0.108-0.984 0.173-1.525 0.177l-0.003 0h-0.206c-0.364 0.025-0.73 0.014-1.090-0.034-0.422-0.063-0.818-0.114-1.218-0.202-0.572-0.132-1.067-0.295-1.54-0.498l0.058 0.022c-0.867-0.366-1.615-0.814-2.29-1.35l0.020 0.015c-0.687-0.544-1.284-1.155-1.796-1.835l-0.018-0.025c-0.523-0.688-0.961-1.481-1.276-2.332l-0.021-0.064c-0.324-0.778-0.531-1.679-0.572-2.623l-0.001-0.017c-0.003-0.043-0.005-0.093-0.005-0.143s0.002-0.101 0.006-0.15l-0 0.007v-0.993c-0.011-0.049-0.017-0.105-0.017-0.162s0.006-0.114 0.018-0.168l-0.001 0.005c0-0.080 0.034-0.155 0.047-0.235 0.042-0.373 0.108-0.743 0.198-1.108 0.115-0.49 0.268-0.97 0.459-1.436 0.872-2.098 2.394-3.781 4.312-4.834l0.050-0.025c1.094-0.619 2.383-1.028 3.757-1.138l0.033-0.002h0.243c0.179-0.012 0.388-0.019 0.598-0.019 1.248 0 2.439 0.242 3.529 0.682l-0.063-0.023 0.362 0.151c0.607 0.272 1.125 0.565 1.612 0.902l-0.033-0.022c0.031 0.028 0.072 0.045 0.117 0.045 0.057 0 0.107-0.027 0.139-0.070l0-0c0.447-0.51 0.918-0.994 1.386-1.482 0.088-0.093 0.092-0.177 0-0.253-1.467-1.077-3.232-1.838-5.148-2.147l-0.069-0.009c-0.476-0.080-1.039-0.136-1.612-0.155l-0.022-0.001c-0.055-0.001-0.12-0.001-0.184-0.001-0.829 0-1.638 0.086-2.418 0.251l0.076-0.013c-0.617 0.123-1.142 0.269-1.652 0.447l0.086-0.026c-0.912 0.305-1.782 0.723-2.59 1.242-0.97 0.62-1.847 1.372-2.606 2.236-0.979 1.107-1.762 2.415-2.277 3.85l-0.026 0.083c-0.212 0.612-0.38 1.238-0.501 1.874-0.093 0.557-0.156 1.12-0.19 1.684-0.009 0.149-0.014 0.324-0.014 0.5 0 0.464 0.036 0.919 0.104 1.363l-0.006-0.050c0.066 0.597 0.18 1.187 0.341 1.765 0.114 0.391 0.228 0.783 0.375 1.162 0.294 0.76 0.663 1.49 1.103 2.177 0.571 0.874 1.205 1.633 1.918 2.31l0.006 0.005c0.473 0.436 0.98 0.833 1.516 1.188 0.718 0.491 1.49 0.9 2.3 1.217 0.806 0.32 1.647 0.548 2.504 0.682 0.643 0.096 1.292 0.152 1.942 0.168 0.42 0 0.842-0.067 1.237-0.076 0.3-0.022 0.597-0.067 0.889-0.134 0.324-0.055 0.644-0.14 0.964-0.224 1.28-0.341 2.401-0.855 3.41-1.525l-0.042 0.026c0.937-0.6 1.787-1.325 2.527-2.155 0.122-0.14 0.118-0.164-0.050-0.316z"></path>
</svg>
