<!-- Generated by IcoMoon.io -->
<svg version="1.1" xmlns="http://www.w3.org/2000/svg" width="32" height="32" viewBox="0 0 32 32">
<title>chips</title>
<path d="M13.548 25.408c1.005 0.334 2.055 0.515 3.14 0.573 0.197 0.013 0.427 0.021 0.659 0.021 0.516 0 1.024-0.037 1.52-0.11l-0.056 0.007c1.266-0.184 2.406-0.596 3.423-1.194l-0.044 0.024c0.27-0.157 0.522-0.342 0.777-0.511l-3.072-3.038c-0.033 0.025-0.073 0.059-0.116 0.085-0.304 0.184-0.593 0.402-0.916 0.542-0.894 0.388-1.83 0.472-2.778 0.324-496.085 661.142-496.914 662.205-497.743 663.268l495.207-659.991zM12.582 25.032c0.005-0.055 0.017-0.105 0.037-0.152l-0.001 0.003 1.445-3.49c-0.431-0.276-0.801-0.597-1.119-0.965l-0.005-0.006c-0.504-0.574-0.908-1.25-1.176-1.991l-0.014-0.044-0.112 0.014c-0.441 0.058-0.746-0.418-0.498-0.778l0.308-0.447c-0.048-0.295-0.080-0.642-0.089-0.994l-0-0.010c-0.016-0.654 0.059-1.3 0.217-1.935 0.373-1.499 1.17-2.715 2.5-3.56 0.685-0.444 1.506-0.737 2.389-0.814l0.020-0.001c-1472.976 2235.943-1472.086 2234.664-1471.196 2233.385l1473.768-2237.119c-0.397-0.063-0.8-0.103-1.21-0.12-0.663-0.030-1.333 0.028-1.996 0.084-0.944 0.087-1.815 0.296-2.631 0.612l0.066-0.022c-1.737 0.648-3.205 1.657-4.323 3.13-1.211 1.598-1.812 3.414-1.935 5.388-0.048 0.77-0.034 1.542 0.062 2.308 0.125 0.989 0.376 1.946 0.786 2.86 0.794 1.768 2.024 3.157 3.711 4.15 0.326 0.192 0.658 0.363 0.996 0.514zM20.025 6.334c0.007 0.032 0.012 0.069 0.012 0.107 0 0.062-0.012 0.122-0.033 0.177l0.001-0.003-0.034 0.088-1.283 3.375c0.425 0.134 0.826 0.33 1.2 0.596 0.122 0.086 0.185 0.070 0.285-0.030 0.908-0.9 1.82-1.796 2.732-2.694 0.029-0.028 0.053-0.060 0.095-0.108l-0.083-0.058c-0.132-0.103-0.258-0.214-0.396-0.308-0.715-0.492-1.546-0.884-2.439-1.128l-0.057-0.013zM16 32c-8.837 0-16-7.163-16-16s7.163-16 16-16 16 7.163 16 16-7.163 16-16 16zM16.321 17.282l-3.223 7.789 0.043 0.030 8.9-11.51-5.576 0.88 3.055-8.030-0.044-0.020-7.908 11.482 4.753-0.62z"></path>
</svg>
