<!-- Generated by IcoMoon.io -->
<svg version="1.1" xmlns="http://www.w3.org/2000/svg" width="32" height="32" viewBox="0 0 32 32">
<title>cix</title>
<path fill="#000" d="M24.668 18.863l-6.634 3.659-2.792-3.729-8.073 4.252v0.94l7.831-4.123 2.792 3.728 7.364-4.062 0.145 1.27 1.62-2.636-0.955 0.011v-0.025l-0.048 0.026-2.31 0.027 1.059 0.663zM16 32c-8.837 0-16-7.163-16-16s7.163-16 16-16 16 7.163 16 16-7.163 16-16 16zM14.556 17.958v-9.314h-3.060v10.925l3.060-1.611zM23.209 18.439v-9.795h-3.060v11.495l3.060-1.7zM18.883 20.843v-10.95h-3.061v8.104l2.404 3.21 0.657-0.364zM10.229 20.236v-8.924h-3.060v10.536l3.060-1.612z"></path>
<path fill="#000" opacity="0.5" d="M18.883 20.843l-0.657 0.364-2.404-3.21v-8.103h3.060v10.949zM10.229 20.236l-3.060 1.612v-10.536h3.060v8.924z"></path>
</svg>
