<!-- Generated by IcoMoon.io -->
<svg version="1.1" xmlns="http://www.w3.org/2000/svg" width="32" height="32" viewBox="0 0 32 32">
<title>cmm</title>
<path d="M16 32c-8.837 0-16-7.163-16-16s7.163-16 16-16 16 7.163 16 16-7.163 16-16 16zM16.57 4.007c-0.122-0.005-0.265-0.007-0.409-0.007-2.68 0-5.152 0.894-7.132 2.401l0.029-0.021c-0.43 0.325-0.705 0.836-0.705 1.411 0 0.525 0.229 0.996 0.593 1.32l0.002 0.002c0.622 0.588 1.58 0.634 2.256 0.109 1.406-1.102 3.2-1.768 5.15-1.768 2.424 0 4.608 1.028 6.139 2.673l0.005 0.005c0.59 0.61 0.608 1.571 0.042 2.203-0.291 0.311-0.703 0.505-1.161 0.505-0.419 0-0.801-0.162-1.084-0.428l0.001 0.001-0.077-0.078c-0.961-1.052-2.339-1.709-3.87-1.709-2.893 0-5.238 2.345-5.238 5.238s2.345 5.238 5.238 5.238c1.531 0 2.909-0.657 3.867-1.704l0.004-0.004c0.286-0.319 0.7-0.519 1.16-0.519 0.255 0 0.496 0.061 0.709 0.17l-0.009-0.004c0.52 0.265 0.871 0.797 0.871 1.411 0 0.408-0.155 0.781-0.41 1.061l0.001-0.001c-1.544 1.686-3.755 2.739-6.212 2.739-1.939 0-3.724-0.656-5.147-1.757l0.019 0.014c-0.293-0.225-0.666-0.361-1.070-0.361-0.464 0-0.886 0.179-1.201 0.472l0.001-0.001c-0.357 0.328-0.579 0.796-0.579 1.317 0 0.588 0.285 1.11 0.724 1.436l0.005 0.003c1.946 1.457 4.401 2.332 7.060 2.332 6.546 0 11.852-5.306 11.852-11.852 0-6.394-5.064-11.606-11.4-11.844l-0.022-0.001zM16.35 18.795c-1.615-0.006-2.922-1.317-2.922-2.933 0-1.62 1.313-2.933 2.933-2.933 0.004 0 0.008 0 0.012 0h-0.001c1.615 0.006 2.923 1.317 2.923 2.933 0 1.62-1.313 2.933-2.933 2.933-0.004 0-0.007 0-0.011-0h0.001z"></path>
</svg>
