<!-- Generated by IcoMoon.io -->
<svg version="1.1" xmlns="http://www.w3.org/2000/svg" width="32" height="32" viewBox="0 0 32 32">
<title>cnx</title>
<path fill="#000" d="M14.514 25.556c0.726 0.601 1.571 1.091 2.491 1.425l0.059 0.019-0.142-1.374c4.455-0.441 7.997-3.846 8.644-8.196l0.006-0.053c0.593-0.721 1.077-1.559 1.409-2.471l0.019-0.059-1.383 0.143c-0.478-4.416-3.867-7.914-8.187-8.556l-0.053-0.006c-0.721-0.593-1.559-1.077-2.471-1.409l-0.059-0.019 0.143 1.383c-4.416 0.478-7.914 3.867-8.556 8.187l-0.006 0.053c-0.593 0.72-1.077 1.559-1.409 2.471l-0.019 0.059 1.383-0.143c0.474 4.378 3.809 7.854 8.076 8.539l0.055 0.007zM15.084 21.424c-2.424-0.421-4.285-2.381-4.552-4.82l-0.002-0.025 1.3-0.135c-0.479-0.377-0.895-0.8-1.254-1.27l-0.012-0.017c0.393-2.458 2.368-4.355 4.832-4.625l0.025-0.002 0.135 1.3c0.377-0.479 0.8-0.895 1.27-1.254l0.017-0.012c2.458 0.393 4.355 2.368 4.625 4.832l0.002 0.025-1.3 0.135c0.479 0.377 0.895 0.8 1.254 1.27l0.012 0.017c-0.398 2.488-2.417 4.401-4.923 4.633l-0.022 0.002-0.136-1.309c-0.389 0.491-0.812 0.91-1.271 1.255zM16 32c-8.837 0-16-7.163-16-16s7.163-16 16-16 16 7.163 16 16-7.163 16-16 16z"></path>
<path fill="#000" opacity="0.5" d="M6.383 17.010l-1.383 0.143c0.74-2.070 2.203-3.726 4.391-4.968 0.207 1.716 1.020 3.135 2.44 4.259l-1.3 0.135c0.269 2.463 2.13 4.423 4.52 4.84l0.033 0.005c-0.831 0.63-1.85 1.056-2.959 1.182l-0.028 0.003c0.681 1.2 1.487 2.183 2.417 2.947-4.322-0.692-7.657-4.168-8.127-8.503l-0.004-0.043zM25.617 14.99l1.383-0.143c-0.74 2.070-2.203 3.726-4.391 4.968-0.207-1.716-1.020-3.135-2.44-4.259l1.3-0.135c-0.272-2.489-2.168-4.464-4.595-4.853l-0.031-0.004c0.828-0.624 1.841-1.044 2.944-1.17l0.028-0.003c-0.687-1.209-1.499-2.196-2.438-2.963 4.373 0.648 7.762 4.146 8.236 8.519l0.004 0.043z"></path>
</svg>
