<!-- Generated by IcoMoon.io -->
<svg version="1.1" xmlns="http://www.w3.org/2000/svg" width="32" height="32" viewBox="0 0 32 32">
<title>colx</title>
<path d="M16 32c-8.837 0-16-7.163-16-16s7.163-16 16-16 16 7.163 16 16-7.163 16-16 16zM25.678 13.283l-1.688-1.688c-0.492-0.494-1.172-0.8-1.925-0.8-0.004 0-0.008 0-0.012 0h-0.259v-0.27c0-0.473-0.112-0.923-0.348-1.328-0.127-0.243-0.285-0.451-0.472-0.629l-0.001-0.001-1.688-1.689c-0.492-0.494-1.172-0.8-1.925-0.8-0.004 0-0.009 0-0.013 0h-7.777c-0.732 0-1.418 0.282-1.936 0.8l-1.688 1.688c-0.494 0.485-0.8 1.16-0.8 1.906 0 0.007 0 0.013 0 0.020v-0.001l-0.045 7.295c-0.010 0.731 0.282 1.44 0.8 1.958l1.688 1.689c0.492 0.494 1.172 0.799 1.923 0.799 0.005 0 0.009 0 0.014-0h0.303v0.27c0 0.473 0.113 0.923 0.349 1.328 0.124 0.237 0.281 0.45 0.473 0.63l1.688 1.69c0.492 0.493 1.173 0.798 1.924 0.798 0.004 0 0.008 0 0.012-0h7.789c0.732 0 1.418-0.281 1.936-0.799l1.689-1.688c0.494-0.492 0.799-1.173 0.799-1.926 0-0.004 0-0.007-0-0.011v0.001-7.317c-0.004-0.753-0.313-1.434-0.81-1.925l-0-0zM9.525 19.755c-0 0-0 0-0 0-0.074 0-0.142-0.030-0.191-0.078l0 0-0.844-0.845-0.845-0.844c-0.035-0.041-0.062-0.090-0.078-0.143l-0.001-0.003v-7.339c0-0.080 0.034-0.147 0.080-0.192l1.688-1.688c0.022-0.023 0.045-0.034 0.067-0.045 0.039-0.021 0.086-0.033 0.135-0.034h7.79c0.045 0 0.079 0.011 0.124 0.034 0.034 0.011 0.056 0.034 0.079 0.056l1.688 1.689c0.024 0.021 0.044 0.047 0.056 0.077l0 0.001c0.012 0.012 0.012 0.023 0.012 0.034s0.010 0.023 0.010 0.034c0 0.011 0.012 0.045 0.012 0.067v0.36c0 0.158-0.124 0.27-0.27 0.27h-1.35c-0 0-0.001 0-0.001 0-0.074 0-0.142-0.030-0.191-0.078l0 0-0.766-0.765h-6.596l-0.281 0.28-0.383 0.384v6.337l0.664 0.664h6.585l0.766-0.776 0.010-0.012c0.023-0.011 0.046-0.034 0.068-0.045 0.034-0.022 0.080-0.022 0.113-0.022h1.35c0.090 0 0.17 0.045 0.226 0.112 0.034 0.043 0.055 0.098 0.056 0.158v0.383c-0 0.075-0.030 0.142-0.079 0.191v0l-1.688 1.688c-0.011 0.012-0.034 0.023-0.045 0.034 0 0-0.011 0.011-0.023 0.011-0.011 0.012-0.022 0.012-0.034 0.012-0.010 0-0.010 0-0.022 0.011-0.011 0-0.023 0.011-0.034 0.011h-7.857v0.011zM24.024 22.502c-0 0.075-0.031 0.142-0.080 0.191v0l-1.688 1.689c-0.019 0.018-0.041 0.033-0.066 0.044l-0.002 0.001c-0.039 0.021-0.086 0.033-0.135 0.034h-7.79c-0.046-0.001-0.088-0.013-0.125-0.035l0.001 0.001c-0.031-0.013-0.057-0.032-0.078-0.056l-0-0-1.689-1.689c-0.022-0.022-0.045-0.045-0.056-0.079-0.012-0.010-0.012-0.022-0.012-0.033s-0.010-0.023-0.010-0.034-0.012-0.045-0.012-0.068v-0.36c0-0.157 0.124-0.27 0.27-0.27h1.35c0.080 0 0.147 0.034 0.192 0.079l0.766 0.765h6.585l0.664-0.664v-6.337l-0.664-0.665h-6.574l-0.765 0.777-0.012 0.011c-0.022 0.012-0.045 0.034-0.067 0.045-0.034 0.023-0.079 0.023-0.113 0.023h-1.35c-0.092-0.002-0.173-0.045-0.226-0.112l-0-0.001c-0.034-0.043-0.054-0.097-0.056-0.157v-0.383c0-0 0-0 0-0 0-0.075 0.030-0.142 0.079-0.191l1.688-1.689c0.012-0.011 0.034-0.022 0.045-0.034 0 0 0.012-0.010 0.023-0.010 0.011-0.012 0.022-0.012 0.034-0.012 0.010 0 0.010 0 0.022-0.011 0.011 0 0.023-0.012 0.034-0.012h7.846c0.078 0 0.146 0.034 0.191 0.080l1.689 1.688c0.013 0.013 0.024 0.028 0.033 0.044l0 0.001c0.019 0.029 0.034 0.063 0.044 0.098l0.001 0.003v0.056c0.012-0.022 0.012 7.272 0.012 7.272z"></path>
</svg>
