<!-- Generated by IcoMoon.io -->
<svg version="1.1" xmlns="http://www.w3.org/2000/svg" width="32" height="32" viewBox="0 0 32 32">
<title>coqui</title>
<path d="M16 32c-8.837 0-16-7.163-16-16s7.163-16 16-16 16 7.163 16 16-7.163 16-16 16zM25.82 14.715c0.377-0.018 0.75-0.091 1.18-0.146-0.087-0.62-0.132-1.218-0.26-1.797-0.533-2.417-1.796-4.374-3.78-5.85-1.661-1.233-3.538-1.863-5.604-1.911-0.863-0.020-1.726-0.007-2.59-0.004-0.889 0.003-1.749 0.126-2.565 0.354l0.068-0.016c-4.123 1.145-7.121 4.807-7.252 9.188l-0 0.015c-0.010 0.354-0.016 0.771-0.016 1.189 0 0.692 0.016 1.38 0.048 2.064l-0.004-0.097c0.022 0.553 0.098 1.113 0.224 1.652 0.563 2.429 1.869 4.375 3.892 5.826 1.681 1.205 3.57 1.792 5.635 1.814 0.745 0.008 1.49 0 2.235 0.002 0.034 0 0.074 0.001 0.114 0.001 0.697 0 1.377-0.075 2.032-0.217l-0.063 0.011c3.055-0.675 5.313-2.406 6.777-5.171 0.593-1.12 0.914-2.327 1.036-3.588 0.018-0.194 0.021-0.39 0.033-0.62-0.68-0.063-1.34-0.15-2.003-0.177-0.209-0.008-0.453-0.013-0.699-0.013-0.425 0-0.846 0.014-1.264 0.042l0.057-0.003c-0.563 0.035-1.124 0.126-1.685 0.2-0.087 0.014-0.163 0.049-0.226 0.101l0.001-0.001c-1.109 0.905-2.196 1.838-3.163 2.9-0.392 0.43-0.768 0.872-0.931 1.458-0.16 0.57-0.617 0.888-1.213 0.888-0.656-0.002-1.199-0.481-1.302-1.108l-0.001-0.008c-0.091-0.64 0.232-1.272 0.888-1.429 0.328-0.078 0.622-0.234 0.863-0.466 0.54-0.519 1.050-1.025 1.552-1.54l0.013-0.013c0.244-0.25 0.462-0.527 0.688-0.795 0.188-0.223 0.106-0.45-0.178-0.496-0.102-0.016-0.206-0.021-0.309-0.028-0.757-0.047-1.514-0.114-2.271-0.132-0.071-0.001-0.155-0.001-0.239-0.001-0.545 0-1.084 0.021-1.618 0.062l0.071-0.004c-0.37 0.023-0.729 0.11-1.058 0.3-0.117 0.072-0.254 0.129-0.398 0.164l-0.010 0.002c-0.492 0.103-1.040-0.175-1.318-0.651-0.111-0.19-0.176-0.418-0.176-0.661 0-0.361 0.144-0.688 0.378-0.927l-0 0c0.334-0.342 0.934-0.58 1.513-0.232 0.175 0.104 0.375 0.192 0.573 0.226 0.431 0.072 0.868 0.14 1.303 0.144 0.779 0.008 1.558-0.023 2.336-0.055 0.413-0.017 0.825-0.060 1.236-0.108 0.265-0.030 0.353-0.27 0.18-0.477-0.604-0.725-1.226-1.435-1.92-2.076-0.387-0.358-0.796-0.674-1.327-0.802-0.153-0.044-0.285-0.123-0.39-0.228l0 0c-0.613-0.592-0.488-1.625 0.24-2.069 0.694-0.423 1.63-0.142 1.854 0.589 0.166 0.542 0.462 0.988 0.828 1.401 1.004 1.13 2.149 2.108 3.314 3.063 0.054 0.046 0.121 0.079 0.195 0.092l0.002 0c0.704 0.082 1.407 0.2 2.113 0.225 0.787 0.028 1.577-0.018 2.364-0.055z"></path>
</svg>
