<!-- Generated by IcoMoon.io -->
<svg version="1.1" xmlns="http://www.w3.org/2000/svg" width="32" height="32" viewBox="0 0 32 32">
<title>edg</title>
<path d="M16 32c-8.837 0-16-7.163-16-16s7.163-16 16-16 16 7.163 16 16-7.163 16-16 16zM24.99 12.502c-0.003-0.42-0.098-0.816-0.264-1.172l0.007 0.017c-0.258-0.571-0.655-1.105-1.196-1.426-2.030-1.192-4.062-2.374-6.091-3.565-0.232-0.136-0.494-0.212-0.751-0.284-0.202-0.041-0.434-0.064-0.672-0.064-0.379 0-0.745 0.059-1.087 0.169l0.025-0.007c-0.333 0.114-0.624 0.322-0.93 0.492-1.866 1.090-3.73 2.18-5.595 3.266-0.249 0.154-0.46 0.341-0.635 0.559l-0.004 0.005c-0.44 0.53-0.75 1.192-0.788 1.892v7.186c0 0.481 0.16 0.943 0.38 1.363 0.27 0.484 0.636 0.934 1.126 1.207 2.006 1.17 4.013 2.343 6.020 3.512 0.295 0.17 0.623 0.269 0.96 0.314 0.646 0.080 1.334 0.027 1.916-0.284 1.906-1.112 3.807-2.225 5.714-3.334 0.28-0.167 0.575-0.314 0.811-0.54 0.488-0.462 0.841-1.062 0.997-1.738l0.005-0.023c0.067-0.29 0.052-0.593 0.052-0.889v-6.656zM15.94 10.026c0.065 0.022 0.116 0.070 0.141 0.131l0.001 0.002c0.362 0.674 0.87 1.256 1.401 1.801 0.344 0.337 0.598 0.776 0.684 1.256 0.113 0.534-0.201 1.125-0.706 1.318-0.37 0.144-0.8 0.117-1.155-0.057-0.067-0.023-0.18-0.102-0.22-0.008 0.067 0.462 0.303 0.866 0.516 1.267 0.052 0.087-0.048 0.148-0.097 0.204-0.22 0.204-0.407 0.447-0.646 0.632-0.071-0.023-0.12-0.091-0.172-0.14-0.205-0.216-0.422-0.424-0.627-0.644-0.004-0.015-0.008-0.053-0.011-0.068 0.228-0.409 0.516-0.81 0.59-1.283-0.017-0.003-0.037-0.004-0.057-0.004-0.058 0-0.113 0.013-0.163 0.035l0.002-0.001c-0.377 0.148-0.808 0.182-1.188 0.030-0.379-0.151-0.652-0.49-0.706-0.899l-0.001-0.006c-0.038-0.299 0.052-0.597 0.186-0.86 0.167-0.37 0.448-0.669 0.74-0.946 0.549-0.523 1.038-1.099 1.463-1.723l0.024-0.037zM12.307 16.536c0.308-0.187 0.68-0.297 1.078-0.297 0.297 0 0.579 0.061 0.835 0.172l-0.014-0.005c0.048 0.020 0.060 0.030 0.097 0.054 0.194 0.076 0.362 0.2 0.519 0.34 0.355 0.307 0.642 0.685 1.005 0.984 0.352-0.333 0.676-0.697 1.032-1.021 0.5-0.462 1.233-0.598 1.882-0.466 1.017 0.2 1.772 1.252 1.7 2.294-0.033 0.658-0.361 1.309-0.9 1.684-0.366 0.254-0.8 0.435-1.249 0.424-0.59 0.023-1.169-0.242-1.587-0.655-0.789-0.79-1.55-1.608-2.343-2.396-0.232-0.25-0.546-0.432-0.89-0.454-0.013-0-0.029-0.001-0.044-0.001-0.243 0-0.472 0.059-0.673 0.165l0.008-0.004c-0.34 0.181-0.568 0.544-0.624 0.927-0.070 0.405 0.075 0.843 0.377 1.12 0.467 0.451 1.286 0.447 1.741-0.015 0.116-0.098 0.224-0.295 0.404-0.216 0.112 0.068 0.19 0.182 0.288 0.27 0.075 0.086 0.19 0.158 0.201 0.287 0 0.13-0.115 0.204-0.194 0.288-0.21 0.22-0.452 0.405-0.736 0.519-0.55 0.216-1.184 0.22-1.73-0.015-0.864-0.39-1.42-1.386-1.282-2.34 0.098-0.678 0.498-1.317 1.1-1.643zM17.344 17.588c-0.276 0.288-0.56 0.564-0.837 0.852 0.004 0.019 0.008 0.060 0.011 0.083 0.333 0.31 0.624 0.662 0.971 0.957 0.467 0.398 1.211 0.345 1.644-0.076 0.423-0.412 0.52-1.131 0.19-1.63-0.212-0.332-0.574-0.553-0.988-0.565l-0.002-0c-0.364-0.030-0.73 0.121-0.989 0.38z"></path>
</svg>
