<!-- Generated by IcoMoon.io -->
<svg version="1.1" xmlns="http://www.w3.org/2000/svg" width="32" height="32" viewBox="0 0 32 32">
<title>egld</title>
<path fill="#000" d="M16 0c-8.8 0-16 7.2-16 16s7.2 16 16 16 16-7.2 16-16-7.2-16-16-16zM24.3 6.1c0.9 0 1.6 0.7 1.6 1.6s-0.7 1.6-1.6 1.6c-0.9 0-1.6-0.7-1.6-1.6s0.7-1.6 1.6-1.6zM22.1 9.3c0.2-0.1 0.4-0.1 0.6 0 0.1 0.1 0.1 0.2 0.1 0.3s0 0.2-0.1 0.3c-0.1 0.1-0.2 0.1-0.3 0.1s-0.2 0-0.3-0.1c0-0.1-0.1-0.2-0.1-0.3s0.1-0.2 0.1-0.3zM16 5.8c2.2 0 4.1 0.7 5.9 2.1l-2.3 2.3c-1.1-0.7-2.3-1.1-3.6-1.1s-2.5 0.4-3.6 1.1l-2.3-2.3c1.8-1.4 3.7-2.1 5.9-2.1zM21.7 10.9c-0.1 0.1-0.2 0.1-0.3 0.1s-0.2 0-0.3-0.1c-0.1-0.1-0.1-0.1-0.1-0.2s0-0.2 0.1-0.3c0.1-0.1 0.4-0.1 0.5 0s0.1 0.2 0.1 0.3c0.1 0.1 0 0.1 0 0.2zM21.8 21.3c0 0.1 0 0.2-0.1 0.3s-0.2 0.1-0.3 0.1-0.2 0-0.3-0.1-0.1-0.2-0.1-0.3 0-0.2 0.1-0.3 0.4-0.1 0.5 0c0.1 0.1 0.2 0.2 0.2 0.3zM20.5 12c-0.1 0.1-0.2 0.1-0.3 0.1s-0.2 0-0.3-0.1c-0.1-0.1-0.1-0.2-0.1-0.3s0-0.2 0.1-0.3c0.1-0.1 0.4-0.1 0.5 0s0.1 0.2 0.1 0.3c0.1 0.1 0.1 0.2 0 0.3zM20.6 20.3c0 0.1 0 0.2-0.1 0.3s-0.2 0.1-0.3 0.1c-0.1 0-0.2 0-0.3-0.1s-0.1-0.2-0.1-0.3c0-0.1 0-0.2 0.1-0.3s0.4-0.1 0.5 0c0.2 0.1 0.2 0.1 0.2 0.3zM19.5 13.1c-0.1 0.1-0.2 0.1-0.3 0.1s-0.2 0-0.3-0.1c-0.1-0.1-0.1-0.2-0.1-0.3s0-0.2 0.1-0.3c0.2-0.1 0.4-0.1 0.6 0 0.1 0.1 0.1 0.2 0.1 0.3s0 0.2-0.1 0.3zM19.6 19.2c0 0.1 0 0.2-0.1 0.3s-0.2 0.1-0.3 0.1c-0.1 0-0.2 0-0.3-0.1s-0.1-0.2-0.1-0.3 0-0.2 0.1-0.3 0.4-0.1 0.5 0c0.2 0.1 0.2 0.2 0.2 0.3zM18.5 14.1c-0.1 0.1-0.2 0.1-0.3 0.1s-0.2 0-0.3-0.1c-0.1-0.1-0.1-0.2-0.1-0.3s0-0.2 0.1-0.3c0.1-0.1 0.4-0.1 0.5 0s0.1 0.2 0.1 0.3c0.1 0.2 0 0.3 0 0.3zM18.6 18.1c0 0.1 0 0.2-0.1 0.3s-0.2 0.1-0.3 0.1c-0.1 0-0.2 0-0.3-0.1s-0.1-0.2-0.1-0.3c0-0.1 0-0.2 0.1-0.3s0.4-0.1 0.5 0c0.1 0.1 0.2 0.2 0.2 0.3zM16.8 16.8c0.1-0.1 0.4-0.1 0.6 0 0.1 0.1 0.1 0.2 0.1 0.3s0 0.2-0.1 0.3c-0.1 0.1-0.2 0.1-0.3 0.1s-0.2 0-0.3-0.1c-0.1-0.1-0.1-0.2-0.1-0.3 0-0.2 0-0.3 0.1-0.3zM16.7 14.9c0-0.1 0-0.2 0.1-0.3s0.4-0.1 0.5 0c0.1 0.1 0.1 0.2 0.1 0.3s0 0.2-0.1 0.3c-0.1 0.1-0.2 0.1-0.3 0.1s-0.2 0-0.3-0.1c0-0.1 0-0.2 0-0.3zM16.4 16c0 0.1 0 0.2-0.1 0.3s-0.2 0.1-0.3 0.1-0.2 0-0.3-0.1-0.1-0.2-0.1-0.3c0-0.1 0-0.2 0.1-0.3s0.4-0.1 0.5 0c0.2 0.1 0.2 0.2 0.2 0.3zM15.2 15.2c-0.1 0.1-0.2 0.1-0.3 0.1s-0.2 0-0.3-0.1c-0.1-0.1-0.1-0.2-0.1-0.3s0-0.2 0.1-0.3c0.1-0.1 0.4-0.1 0.5 0s0.1 0.2 0.1 0.3 0.1 0.2 0 0.3zM15.3 17c0 0.1 0 0.2-0.1 0.3s-0.2 0.1-0.3 0.1c-0.1 0-0.2 0-0.3-0.1s-0.1-0.2-0.1-0.3c0-0.1 0-0.2 0.1-0.3s0.4-0.1 0.5 0c0.2 0.1 0.2 0.2 0.2 0.3zM13.6 17.8c0.2-0.1 0.4-0.1 0.6 0 0.1 0.1 0.1 0.2 0.1 0.3s0 0.2-0.1 0.3c-0.1 0.1-0.2 0.1-0.3 0.1s-0.2 0-0.3-0.1c-0.1-0.1-0.1-0.2-0.1-0.3-0.1-0.1 0-0.2 0.1-0.3zM13.4 13.9c0-0.1 0-0.2 0.1-0.3s0.4-0.1 0.6 0c0.1 0.1 0.1 0.2 0.1 0.3s0 0.2-0.1 0.3c-0.1 0.1-0.2 0.1-0.3 0.1s-0.2 0-0.3-0.1c0-0.1-0.1-0.2-0.1-0.3zM13.1 13.1c-0.1 0.1-0.2 0.1-0.3 0.1s-0.2 0-0.3-0.1c-0.1-0.1-0.1-0.2-0.1-0.3s0-0.2 0.1-0.3c0.1-0.1 0.4-0.1 0.5 0s0.1 0.2 0.1 0.3 0.1 0.2 0 0.3zM13.2 19.2c0 0.1 0 0.2-0.1 0.3s-0.2 0.1-0.3 0.1c-0.1 0-0.2 0-0.3-0.1s-0.1-0.2-0.1-0.3 0-0.2 0.1-0.3 0.4-0.1 0.5 0c0.2 0.1 0.2 0.2 0.2 0.3zM12 12c-0.1 0.1-0.2 0.1-0.3 0.1s-0.2 0-0.3-0.1c-0.1-0.1-0.1-0.2-0.1-0.3s0-0.2 0.1-0.3c0.1-0.1 0.4-0.1 0.5 0s0.1 0.2 0.1 0.3c0.1 0.1 0.1 0.2 0 0.3zM12.1 20.3c0 0.1 0 0.2-0.1 0.3s-0.2 0.1-0.3 0.1-0.2 0-0.3-0.1-0.1-0.2-0.1-0.3c0-0.1 0-0.2 0.1-0.3s0.4-0.1 0.5 0c0.2 0.1 0.2 0.1 0.2 0.3zM10.9 10.9c-0.1 0.1-0.2 0.1-0.3 0.1s-0.2 0-0.3-0.1c-0.1-0.1-0.1-0.2-0.1-0.3s0-0.2 0.1-0.3c0.2-0.1 0.4-0.1 0.6 0 0.1 0.1 0.1 0.2 0.1 0.3 0.1 0.2 0 0.2-0.1 0.3zM11.1 21.3c0 0.1 0 0.2-0.1 0.3s-0.2 0.1-0.3 0.1c-0.1 0-0.2 0-0.3-0.1s-0.1-0.2-0.1-0.3 0-0.2 0.1-0.3c0.2-0.1 0.4-0.1 0.6 0 0 0.1 0.1 0.2 0.1 0.3zM9.9 9.3c0 0.1 0.1 0.2 0.1 0.3s0 0.2-0.1 0.3c-0.1 0-0.2 0.1-0.3 0-0.1 0-0.2 0-0.3-0.1 0 0-0.1-0.1-0.1-0.2s0-0.2 0.1-0.3c0.2-0.1 0.4-0.1 0.6 0zM7.8 6.1c0.9 0 1.6 0.7 1.6 1.6s-0.7 1.6-1.6 1.6c-0.9 0-1.6-0.7-1.6-1.6s0.7-1.6 1.6-1.6zM7.8 10.1l2.3 2.3c-0.7 1.1-1.1 2.3-1.1 3.6s0.4 2.5 1.1 3.6l-2.3 2.3c-1.4-1.8-2-3.7-2-5.9s0.7-4.1 2-5.9zM7.8 25.8c-0.9 0-1.6-0.7-1.6-1.6s0.7-1.6 1.6-1.6 1.6 0.7 1.6 1.6c0 0.9-0.7 1.6-1.6 1.6zM9.9 22.7c-0.1 0.1-0.2 0.1-0.3 0.1s-0.2 0-0.3-0.1c-0.1-0.1-0.1-0.2-0.1-0.3s0-0.2 0.1-0.3c0.1-0.1 0.4-0.1 0.5 0s0.1 0.2 0.1 0.3c0.1 0.1 0 0.2 0 0.3zM16 26.2c-2.2 0-4.1-0.7-5.9-2.1l2.3-2.3c1.1 0.8 2.3 1.1 3.6 1.1s2.5-0.4 3.6-1.1l2.3 2.3c-1.8 1.4-3.7 2.1-5.9 2.1zM22.2 22.7c-0.1-0.1-0.1-0.2-0.1-0.3s0-0.2 0.1-0.3c0.1-0.1 0.4-0.1 0.6 0 0.1 0.1 0.1 0.2 0.1 0.3s0 0.2-0.1 0.3c-0.1 0.1-0.2 0.1-0.3 0.1-0.2 0-0.3-0.1-0.3-0.1zM24.3 25.8c-0.9 0-1.6-0.7-1.6-1.6s0.7-1.6 1.6-1.6c0.9 0 1.6 0.7 1.6 1.6s-0.7 1.6-1.6 1.6zM24.1 21.8l-2.3-2.3c0.7-1.1 1.1-2.2 1.1-3.5s-0.4-2.5-1.1-3.6l2.3-2.3c1.4 1.8 2.1 3.7 2.1 5.9 0 2.1-0.7 4.1-2.1 5.8z"></path>
</svg>
