<!-- Generated by IcoMoon.io -->
<svg version="1.1" xmlns="http://www.w3.org/2000/svg" width="32" height="32" viewBox="0 0 32 32">
<title>elix</title>
<path fill="#000" d="M16 32c-8.837 0-16-7.163-16-16s7.163-16 16-16 16 7.163 16 16-7.163 16-16 16zM10.098 23.596l5.887 2.345 5.884-2.348-3.186-7.61 3.188-7.618-5.886-2.342-5.887 2.345 3.189 7.615z"></path>
<path fill="#000" opacity="0.197" d="M15.985 15.984v5.306l-5.89 2.31 5.89-7.62v-5.306l5.89-2.31z"></path>
<path fill="#000" opacity="0.5" d="M15.985 21.29v4.651l-5.89-2.344 5.89-2.315v-5.298l-5.89-7.62 5.89 2.31v-4.651l5.89 2.343-5.89 2.315v5.299l5.89 7.62z"></path>
<path fill="#000" opacity="0.75" d="M10.095 8.366l5.89-2.343v4.658zM21.875 23.597l-5.89 2.344v-4.659z"></path>
</svg>
