<!-- Generated by IcoMoon.io -->
<svg version="1.1" xmlns="http://www.w3.org/2000/svg" width="32" height="32" viewBox="0 0 32 32">
<title>eng</title>
<path d="M16 32c-8.837 0-16-7.163-16-16s7.163-16 16-16 16 7.163 16 16-7.163 16-16 16zM25.149 10.295c-0.030-0.017-0.051-0.029-0.071-0.042l0.007 0.004-0.004-0.002-6.098-3.549c-0.93-0.54-1.89-1.1-2.837-1.649l-0.096-0.057-0.103 0.040c-0.103 0.039-0.191 0.081-0.274 0.13l0.009-0.005-0.010 0.006-5.708 3.385c-1.049 0.622-2.134 1.265-3.194 1.898-0.26 0.125-0.253 0.402-0.25 0.536l0.001 0.032v0.060c-0.004 2.432-0.007 4.947-0.013 7.423l-0.008 2.752c-0.014 0.204 0.080 0.383 0.238 0.46 1.892 1.088 3.812 2.196 5.668 3.267l3.342 1.928c0.077 0.052 0.171 0.085 0.272 0.088l0.001 0c0 0 0.001 0 0.001 0 0.080 0 0.154-0.027 0.213-0.073l-0.001 0.001 6.665-3.89c0.754-0.441 1.535-0.898 2.3-1.343 0.168-0.076 0.283-0.243 0.283-0.436 0-0.013-0-0.025-0.001-0.038l0 0.002 0.015-10.417c0.026-0.31-0.235-0.45-0.349-0.51zM16.38 25.965l0.006-4.443 1.644-0.955c0.455-0.266 0.92-0.536 1.37-0.797l1.245-0.725 0.026-0.017c0.073-0.040 0.135-0.094 0.183-0.158l0.001-0.001 0.045-0.062v-0.076c-0.008-0.95-0.010-2.006-0.007-3.325l0.001-0.612v-1.164l3.85-2.252-0.006 3.865-0.009 5.849c-24.625 13.543-26.384 14.584-28.143 15.627l22.756-12.484zM12.184 13.41l3.822-2.244 3.783 2.232-3.777 2.208-1.304-0.749c4.626 2.456 3.801 1.976 2.975 1.497l-5.499-2.944zM11.794 14.060l3.845 2.205-0.006 4.38-3.768-2.196zM7.274 11.466l3.76 2.16 0.082 4.958c-0.010 0.195 0.086 0.373 0.241 0.446 0.535 0.313 1.080 0.63 1.607 0.936l2.668 1.554-0.003 4.45-8.374-4.83zM24.368 10.72l-3.83 2.238-4.275-2.521c-0.072-0.051-0.161-0.081-0.257-0.081-0.090 0-0.174 0.027-0.244 0.072l0.002-0.001-4.333 2.543-3.78-2.164 2.626-1.557c1.76-1.045 3.637-2.157 5.736-3.397 1.89 1.106 3.72 2.17 5.264 3.066 0.54 0.316 1.090 0.636 1.622 0.945l1.469 0.856zM16.386 20.647l0.003-4.382 3.789-2.214v4.392c-10.344 5.68-11.583 6.41-12.82 7.142l9.028-4.938zM21.513 19.854c0.137-0.033 0.246-0.129 0.297-0.255l0.001-0.003c0.026-0.056 0.041-0.122 0.041-0.192 0-0.12-0.045-0.23-0.119-0.313l0 0-0.001-0.002c-0.081-0.092-0.198-0.151-0.33-0.153h-0c-0.22 0.003-0.401 0.163-0.437 0.373l-0 0.003c-0.006 0.028-0.009 0.060-0.009 0.093 0 0.138 0.060 0.262 0.155 0.347l0 0c0.071 0.072 0.171 0.117 0.28 0.117 0.002 0 0.004 0 0.006-0h-0c0 0 0.001 0 0.002 0 0.041 0 0.080-0.006 0.117-0.018l-0.003 0.001zM23.577 21.262c0.071 0.063 0.166 0.102 0.269 0.102 0.062 0 0.121-0.014 0.173-0.039l-0.002 0.001c0.148-0.063 0.255-0.199 0.276-0.362l0-0.002c0.004-0.022 0.006-0.047 0.006-0.072 0-0.16-0.082-0.301-0.206-0.384l-0.002-0.001c-0.068-0.048-0.152-0.077-0.243-0.077h-0c-0.082 0-0.159 0.025-0.223 0.067l0.002-0.001c-0.129 0.081-0.215 0.22-0.222 0.379l-0 0.001c-0.001 0.010-0.001 0.021-0.001 0.033 0 0.144 0.067 0.272 0.172 0.354l0.001 0.001zM10.388 18.942c-0.218 0.005-0.398 0.16-0.44 0.366l-0.001 0.003c-0.007 0.030-0.011 0.065-0.011 0.101 0 0.246 0.195 0.447 0.439 0.456l0.001 0c0.034 0 0.070-0.005 0.102-0.013 0.143-0.032 0.258-0.129 0.313-0.258l0.001-0.003c0.026-0.055 0.041-0.12 0.041-0.189 0-0.118-0.045-0.226-0.118-0.308l0 0c-0.078-0.095-0.196-0.155-0.327-0.156h-0zM22.344 20.518c0.075 0.061 0.172 0.098 0.278 0.098 0.056 0 0.109-0.010 0.158-0.029l-0.003 0.001c0.145-0.053 0.253-0.177 0.282-0.329l0-0.003c0.008-0.033 0.013-0.070 0.013-0.109 0-0.135-0.059-0.256-0.152-0.339l-0-0c-0.078-0.075-0.183-0.121-0.3-0.121h-0c-0.222 0.008-0.404 0.173-0.438 0.387l-0 0.003c-0.004 0.024-0.007 0.052-0.007 0.081 0 0.145 0.065 0.274 0.168 0.36l0.001 0.001zM9.439 19.795c-0.074-0.067-0.172-0.109-0.28-0.11h-0c-0.056 0-0.109 0.012-0.157 0.033l0.003-0.001c-0.162 0.062-0.277 0.212-0.289 0.39l-0 0.001c-0.016 0.185 0.070 0.36 0.217 0.446 0.063 0.040 0.139 0.065 0.222 0.066h0c0.069-0.001 0.134-0.017 0.193-0.045l-0.003 0.001h0.001c0.134-0.061 0.231-0.184 0.254-0.332l0-0.002c0.005-0.026 0.008-0.057 0.008-0.088 0-0.144-0.066-0.273-0.169-0.358l-0.001-0.001zM15.949 6.167c-0.026 0-0.052 0.003-0.077 0.007l0.003-0c-0.157 0.022-0.286 0.121-0.351 0.256l-0.001 0.003v0.002c-0.029 0.058-0.046 0.126-0.046 0.198 0 0.091 0.027 0.175 0.073 0.246l-0.001-0.002c0.083 0.128 0.226 0.212 0.388 0.212 0.031 0 0.062-0.003 0.091-0.009l-0.003 0h0.002l0.003-0.001c0.181-0.026 0.325-0.16 0.365-0.334l0.001-0.003c0.010-0.035 0.015-0.074 0.015-0.115 0-0.118-0.047-0.226-0.123-0.305l0 0c-0.083-0.095-0.205-0.154-0.34-0.155h-0zM8.15 20.49c-0.062-0.038-0.136-0.060-0.216-0.060s-0.154 0.022-0.218 0.061l0.002-0.001c-0.139 0.082-0.231 0.231-0.231 0.402 0 0.003 0 0.006 0 0.009v-0c0 0.174 0.092 0.333 0.236 0.408 0.060 0.035 0.13 0.054 0.204 0.054 0.091-0.001 0.175-0.028 0.246-0.075l-0.002 0.001c0.128-0.082 0.212-0.223 0.212-0.384 0-0.008-0-0.017-0.001-0.025l0 0.001c-0.001-0.167-0.093-0.313-0.23-0.389l-0.002-0.001zM16.19 9.205c-0.073-0.048-0.163-0.077-0.259-0.077h-0c-0 0-0.001 0-0.002 0-0.083 0-0.16 0.022-0.227 0.061l0.002-0.001c-0.133 0.072-0.224 0.207-0.233 0.364l-0 0.001c-0.001 0.013-0.002 0.027-0.002 0.042 0 0.146 0.070 0.275 0.179 0.356l0.001 0.001c0.080 0.063 0.177 0.096 0.284 0.096 0.072-0.001 0.14-0.017 0.201-0.045l-0.003 0.001h0.001c0.153-0.065 0.26-0.209 0.272-0.379l0-0.001c0.001-0.009 0.001-0.020 0.001-0.031 0-0.163-0.085-0.307-0.214-0.388l-0.002-0.001zM15.62 8.447c0.085 0.080 0.192 0.122 0.31 0.122 0.073-0 0.141-0.017 0.203-0.045l-0.003 0.001c0.162-0.069 0.273-0.226 0.275-0.41v-0c0-0.004 0-0.009 0-0.014 0-0.17-0.095-0.318-0.234-0.394l-0.002-0.001c-0.068-0.038-0.148-0.060-0.234-0.060h-0c-0.001 0-0.003-0-0.004-0-0.089 0-0.172 0.027-0.242 0.073l0.002-0.001c-0.121 0.076-0.204 0.203-0.218 0.35l-0 0.002v0.003c-0.001 0.013-0.002 0.027-0.002 0.042 0 0.132 0.058 0.25 0.15 0.331l0 0z"></path>
</svg>
