<!-- Generated by IcoMoon.io -->
<svg version="1.1" xmlns="http://www.w3.org/2000/svg" width="32" height="32" viewBox="0 0 32 32">
<title>eon</title>
<path d="M15.81 27.675c0.1 0.053 0.233 0.079 0.313 0.079 0.158-0.008 0.301-0.069 0.411-0.167l-0.001 0.001c0.869-0.548 4.96-3.127 7.098-4.388 0.43-0.246 0.554-0.492 0.43-0.923 3.317 18.65 2.57 15.223 1.829 11.795l-3.982-21.949-0.008 0.020c-0.006-0.156-0.083-0.295-0.238-0.512 0 0-3.385-4.923-4.862-7.077-0.308-0.37-0.492-0.554-0.677-0.554s-0.43 0.185-0.677 0.554c-1.477 2.092-4.861 7.077-4.861 7.077-0.14 0.196-0.217 0.328-0.235 0.466l-0.012-0.035s-1.476 7.076-2.215 10.215c-0.123 0.43 0 0.677 0.43 0.923 2.4 1.415 7.262 4.492 7.262 4.492l-0.005-0.017zM10.768 13.419c0.637 1.77 2.347 6.541 3.14 8.92 0.338 0.93 1.055 3.053 1.47 4.29l-4.424-2.69c-0.616-0.37-1.292-0.739-1.908-1.17-0.246-0.184-0.246-0.369-0.246-0.492 0.615-2.891 1.292-6.028 1.968-8.858zM16.901 26.571c-0.034 0.311 0.455-1.094 0.931-2.505l0.506-1.728c0.779-2.285 2.441-6.955 3.104-8.812 0.668 2.802 1.335 5.896 1.943 8.75 0 0.124 0 0.309-0.247 0.493-0.615 0.431-1.292 0.8-1.907 1.17-1.342 0.816-2.96 1.798-4.33 2.632zM20.551 12.492c-0.598 1.76-3.181 9.36-4.428 13.046 6.139 20.207 4.595 15.88 3.058 11.549l-7.607-24.596h8.977zM11.656 11.815c0.75-1.097 3.31-4.843 4.406-6.461 7.633 11.636 9.083 13.74 10.536 15.843l-6.131-9.382h-8.81zM16 32c-8.837 0-16-7.163-16-16s7.163-16 16-16 16 7.163 16 16-7.163 16-16 16z"></path>
</svg>
