<!-- Generated by IcoMoon.io -->
<svg version="1.1" xmlns="http://www.w3.org/2000/svg" width="32" height="32" viewBox="0 0 32 32">
<title>etn</title>
<path d="M16 32c-8.837 0-16-7.163-16-16s7.163-16 16-16 16 7.163 16 16-7.163 16-16 16zM19.879 13.469l2.98 2.254-3.878 1.98 2.131 1.473-9.58 4.938c1.286 0.722 2.822 1.147 4.457 1.147 0.004 0 0.008 0 0.012 0h-0.001c5.12 0 9.27-4.149 9.27-9.266 0-0.005 0-0.010 0-0.016 0-2.261-0.813-4.332-2.163-5.936l0.011 0.014-3.24 3.412zM12.121 19.003l-2.98-2.254 3.878-1.98-2.131-1.472 10.018-5.165c-1.389-0.881-3.080-1.404-4.894-1.404-0.004 0-0.009 0-0.013 0h0.001c-5.12 0-9.27 4.149-9.27 9.267 0 0.004 0 0.008 0 0.013 0 2.379 0.9 4.548 2.378 6.184l-0.007-0.008 3.020-3.18zM8.536 22.78c-1.631-1.78-2.63-4.161-2.63-6.776 0-0.003 0-0.006 0-0.008v0c0-5.563 4.529-10.089 10.094-10.089 0.003 0 0.006 0 0.010 0 2.144 0 4.131 0.672 5.763 1.817l-0.032-0.021 0.903-0.465c-1.819-1.397-4.127-2.238-6.633-2.238-0.004 0-0.007 0-0.011 0h0.001c-6.065 0-11 4.932-11 10.995 0 0.002 0 0.005 0 0.007 0 2.874 1.107 5.489 2.917 7.442l-0.006-0.007 0.625-0.658zM23.684 9.46c1.498 1.743 2.41 4.028 2.41 6.526 0 0.003 0 0.006 0 0.009v-0c0 5.562-4.529 10.088-10.094 10.088-0.003 0-0.007 0-0.011 0-1.971 0-3.809-0.568-5.359-1.549l0.041 0.024-0.924 0.477c1.742 1.223 3.906 1.955 6.242 1.955 0.004 0 0.008 0 0.012 0h-0.001c6.065 0 11-4.932 11-10.994 0-0.003 0-0.007 0-0.011 0-2.755-1.018-5.272-2.699-7.195l0.011 0.013-0.628 0.66zM10.842 16.9l2.635 1.993-5.952 6.268 11.829-6.098-2.137-1.476 3.941-2.013-2.635-1.993 5.952-6.268-11.829 6.098 2.137 1.476-3.941 2.013z"></path>
</svg>
