<!-- Generated by IcoMoon.io -->
<svg version="1.1" xmlns="http://www.w3.org/2000/svg" width="32" height="32" viewBox="0 0 32 32">
<title>evx</title>
<path d="M10.082 17.21c0.249 0.166 0.555 0.264 0.884 0.264 0.335 0 0.647-0.103 0.905-0.278l-0.006 0.004 1.114 1.114 1.163-1.162-1.583-1.582c-0.141-0.762-0.8-1.332-1.593-1.334h-0c-0.807 0-1.477 0.592-1.6 1.365l-2.486 2.488c-0.15-0.627-0.236-1.347-0.236-2.087 0-0.001 0-0.001 0-0.002v0c0-5.16 4.197-9.356 9.356-9.356s9.356 4.196 9.356 9.356c0 0.764-0.092 1.506-0.266 2.217l-3.874-3.874c-0.086-0.821-0.774-1.455-1.61-1.456h-0c-0.849 0-1.545 0.654-1.614 1.485l-0 0.006-9.579 9.58c0.398 0.38 0.825 0.73 1.277 1.047 1.753 1.248 3.938 1.995 6.298 1.995 0.004 0 0.008 0 0.012 0h-0.001c6.065 0 11-4.935 11-11s-4.935-11-11-11-11 4.935-11 11c0 0.002 0 0.004 0 0.006 0 1.846 0.457 3.585 1.263 5.111l-0.029-0.060 1.23-1.23zM18.791 15.904c0.233 0.139 0.515 0.222 0.815 0.222 0.309 0 0.597-0.087 0.842-0.238l-0.007 0.004 4.045 4.046c-1.49 3.197-4.733 5.418-8.486 5.418-0.003 0-0.007 0-0.010 0-1.905 0-3.676-0.573-5.151-1.555l0.034 0.021zM16 32c-8.837 0-16-7.163-16-16s7.163-16 16-16 16 7.163 16 16-7.163 16-16 16zM19.635 13.788c0.008-0 0.017-0 0.026-0 0.402 0 0.728 0.326 0.728 0.728s-0.326 0.728-0.728 0.728c-0.010 0-0.019-0-0.029-0.001l0.001 0c-0.39-0.015-0.701-0.335-0.701-0.727s0.311-0.713 0.7-0.727l0.001-0zM10.975 15.115c0.402 0.001 0.727 0.326 0.727 0.728s-0.326 0.728-0.728 0.728c-0 0-0.001 0-0.001 0h0c-0.402-0-0.728-0.326-0.728-0.728s0.326-0.728 0.728-0.728c0 0 0 0 0.001 0h-0z"></path>
</svg>
