<!-- Generated by IcoMoon.io -->
<svg version="1.1" xmlns="http://www.w3.org/2000/svg" width="32" height="32" viewBox="0 0 32 32">
<title>fair</title>
<path d="M16 32c-8.837 0-16-7.163-16-16s7.163-16 16-16 16 7.163 16 16-7.163 16-16 16zM8 24.254v0.266l0.045 0.175c0.16 0.599 0.575 0.972 1.175 1.154 0.708 0.215 1.432 0.172 2.15 0.047 1.052-0.182 1.932-0.677 2.675-1.399 0.514-0.5 0.936-1.064 1.281-1.683 0.712-1.277 1.147-2.649 1.536-4.036 0.194-0.69 0.362-1.386 0.537-2.080 0.030-0.119 0.083-0.158 0.217-0.158 0.493 0.003 0.987-0.003 1.48-0.022 0.288-0.011 0.559-0.090 0.753-0.319 0.093-0.11 0.196-0.214 0.282-0.329 0.265-0.353 0.22-0.803-0.096-1.117-0.259-0.256-0.587-0.349-0.942-0.362-0.33-0.012-0.66-0.002-0.994-0.002-0.002-0.028-0.007-0.046-0.003-0.062 0.080-0.326 0.165-0.652 0.242-0.979 0.018-0.080 0.068-0.079 0.131-0.080 0.475-0.008 0.95-0.012 1.424-0.028 0.355-0.012 0.695-0.061 0.985-0.299 0.356-0.29 0.431-0.59 0.358-0.971-0.072-0.375-0.345-0.594-0.702-0.728-0.293-0.11-0.599-0.111-0.906-0.106-0.212 0.003-0.425 0-0.642 0 0.005-0.043 0.003-0.070 0.011-0.096 0.25-0.816 0.554-1.612 0.974-2.364 0.202-0.361 0.442-0.698 0.749-0.987 0.057-0.054 0.134-0.090 0.202-0.134l0.027 0.035c-0.012 0.033-0.025 0.066-0.035 0.1-0.134 0.448-0.093 0.87 0.24 1.23 0.354 0.386 0.812 0.53 1.344 0.512 0.693-0.023 1.458-0.595 1.5-1.495 0.016-0.317-0.117-0.585-0.254-0.854-0.213-0.419-0.576-0.735-1.018-0.88l-0.012-0.004c-0.776-0.266-1.573-0.232-2.362-0.092-1.19 0.211-2.183 0.787-3.026 1.6-0.64 0.617-1.156 1.328-1.596 2.085-0.241 0.416-0.445 0.852-0.653 1.285-0.060 0.126-0.127 0.175-0.278 0.172-0.325-0.005-0.708-0.008-1.093-0.008-0.274 0-0.548 0.002-0.822 0.005l0.042-0c-0.002 0-0.004 0-0.006 0-0.154 0-0.303 0.020-0.444 0.058l0.012-0.003c-0.398 0.11-0.647 0.369-0.705 0.757-0.057 0.384 0.040 0.73 0.393 0.974 0.284 0.196 0.613 0.273 0.952 0.287 0.432 0.017 0.865 0.004 1.303 0.004 0 0.034 0.005 0.057 0 0.077-0.092 0.346-0.183 0.693-0.281 1.037-0.009 0.031-0.068 0.070-0.104 0.070-0.386 0.006-0.772-0.001-1.159 0.005-0.403 0.007-0.815-0.019-1.207 0.050-0.56 0.096-0.854 0.477-0.844 0.973 0.010 0.567 0.418 0.936 1.017 0.982 0.44 0.034 0.884 0.021 1.326 0.028 0.13 0.002 0.259 0 0.4 0-0.020 0.093-0.033 0.172-0.054 0.248-0.527 1.94-1.050 3.883-1.586 5.821-0.099 0.357-0.246 0.702-0.377 1.050-0.020 0.053-0.077 0.093-0.117 0.138-0.037-0.046-0.084-0.088-0.108-0.14-0.088-0.189-0.222-0.344-0.388-0.454l-0.004-0.003c-0.533-0.362-1.12-0.426-1.735-0.257-0.606 0.167-1.012 0.535-1.167 1.132l-0.043 0.175z"></path>
</svg>
