<!-- Generated by IcoMoon.io -->
<svg version="1.1" xmlns="http://www.w3.org/2000/svg" width="32" height="32" viewBox="0 0 32 32">
<title>flm</title>
<path fill="#000" d="M15.9 10.7c0 0.3-0.2 0.5-0.5 0.5s-0.5-0.2-0.5-0.5 0.2-0.5 0.5-0.5c0.3 0 0.5 0.3 0.5 0.5zM32 16c0 8.8-7.2 16-16 16s-16-7.2-16-16 7.2-16 16-16 16 7.2 16 16zM24.5 12.6c0-1.9-0.8-3.7-2.3-4.9l-0.1-0.1c-0.4-0.4-0.9-0.7-1.5-1l-0.3-0.1c-0.8-0.3-1.6-0.5-2.4-0.5-1.4 0-2.7 0.5-4.1 1.4-0.6 0.4-1.1 0.9-1.5 1.4-0.1 0.2-0.6 0.7-0.6 0.7h-1.9c-1.3 0-2.5 1-2.5 2.4v2.8c0 0.1 0 0.2 0.1 0.3 0.2 0.3 0.5 0.4 0.8 0.2 0.1-0.1 0.2-0.1 0.2-0.2l2.2-2.2h7.5c0.9 0 1.6 0.7 1.6 1.6 0 0.1 0 0.2 0 0.2s0 0.1 0 0.2c0 0.1 0 0.2-0.1 0.3 0 0.1-0.1 0.2-0.1 0.2l-9.3 9.3c-0.1 0-0.1 0.1-0.1 0.2s0 0.2 0.1 0.3l0.1 0.1c0.5 0.2 1 0.4 1.5 0.6l0.5 0.2c0.2 0 0.3 0 0.5 0 0.6 0 1.2-0.3 1.7-0.7l8.3-8.3c1-1.1 1.7-2.6 1.7-4.2v-0.2z"></path>
</svg>
