<!-- Generated by IcoMoon.io -->
<svg version="1.1" xmlns="http://www.w3.org/2000/svg" width="32" height="32" viewBox="0 0 32 32">
<title>ftm</title>
<path fill="#000" d="M16.6 13.9l3.6 2.1-3.6 2.1v-4.2zM11.2 17v4.9l4.8 2.8 4.8-2.8v-4.9l-4.8 2.8-4.8-2.8zM11.2 10.8v4.2l3.6-2.1-3.6-2.1zM15.4 13.9l-3.6 2.1 3.6 2.1v-4.2zM20.8 15v-4.2l-3.6 2.1 3.6 2.1zM11.8 9.8l4.2 2.4 4.2-2.4-4.2-2.5-4.2 2.5zM32 16c0 8.8-7.2 16-16 16s-16-7.2-16-16 7.2-16 16-16 16 7.2 16 16zM22 9.4l-6-3.4-6 3.4v13.1l6 3.4 6-3.4v-13.1z"></path>
</svg>
