<!-- Generated by IcoMoon.io -->
<svg version="1.1" xmlns="http://www.w3.org/2000/svg" width="32" height="32" viewBox="0 0 32 32">
<title>generic</title>
<path d="M16 32c-8.837 0-16-7.163-16-16s7.163-16 16-16 16 7.163 16 16-7.163 16-16 16zM21.002 9.855l0.81-3.241-2.596-0.646-0.643 2.575c-0.363-0.128-0.8-0.24-1.249-0.316l-0.049-0.007 0.644-2.575-2.596-0.645-0.81 3.241c-2.983 0.542-5.509 2.737-6.28 5.823s0.426 6.206 2.804 8.080l-0.81 3.242 2.596 0.646 0.643-2.575c0.363 0.128 0.8 0.24 1.249 0.316l0.049 0.007-0.644 2.575 2.596 0.645 0.81-3.241c2.176-0.4 4.007-1.637 5.182-3.358l0.018-0.027-2.847-0.708c-0.974 0.984-2.325 1.593-3.819 1.593-0.467 0-0.92-0.060-1.352-0.172l0.037 0.008c-2.866-0.712-4.62-3.572-3.917-6.387s3.599-4.519 6.466-3.806c1.854 0.464 3.303 1.849 3.85 3.629l0.010 0.038 2.846 0.708c-0.238-2.211-1.352-4.123-2.981-5.41l-0.017-0.013z"></path>
</svg>
