<!-- Generated by IcoMoon.io -->
<svg version="1.1" xmlns="http://www.w3.org/2000/svg" width="32" height="32" viewBox="0 0 32 32">
<title>grc</title>
<path d="M16 32c-8.837 0-16-7.163-16-16s7.163-16 16-16 16 7.163 16 16-7.163 16-16 16zM16.053 5h-0.11c-0.063 0.050-0.122 0.107-0.191 0.147-2.985 1.73-5.97 3.46-8.958 5.183-0.204 0.118-0.29 0.243-0.29 0.491 0.008 3.465 0.005 6.929-0.004 10.393 0 0.21 0.060 0.33 0.242 0.435 11.462 6.285 13.576 7.526 15.687 8.771l-9.219-5.028c0.914 0.531 1.822 1.072 2.733 1.608h0.11c0.043-0.032 0.084-0.068 0.13-0.095 3.015-1.749 6.030-3.498 9.047-5.244 0.166-0.096 0.27-0.19 0.27-0.419-0.007-2.061-0.011-4.502-0.011-6.944 0-1.241 0.001-2.482 0.003-3.722l-0 0.191c0-0.205-0.074-0.312-0.24-0.408-19.020-10.399-21.505-11.858-23.988-13.319l16.38 8.917c-0.535-0.31-1.061-0.637-1.591-0.956zM18.859 22.48c-0.065-0.045-0.195-0.064-0.259-0.028-0.676 0.378-1.345 0.77-2.016 1.16-0.029 0.016-0.052 0.044-0.092 0.079l1.464 0.915c-0.441 0.26-0.867 0.456-1.23 0.735-0.506 0.388-0.946 0.39-1.451 0-0.351-0.272-0.764-0.462-1.149-0.69-0.013-0.007-0.018-0.029-0.047-0.082 0.632-0.377 4.356-2.572 5.527-3.377 1.071-0.738 1.95-1.696 2.424-2.943 0.2-0.523 0.288-1.090 0.42-1.64 0.018-0.074-0.004-0.158-0.009-0.253-0.097-0.005-0.177-0.013-0.257-0.014-2.007 0-4.015-0.002-6.022 0.003-0.098 0-0.245 0.028-0.285 0.094-0.435 0.729-0.854 1.467-1.305 2.25h4.426l0.030 0.069c-0.183 0.154-0.35 0.333-0.552 0.458-1.185 0.737-5.45 3.41-6.381 4.033-0.146 0.097-0.24 0.1-0.385 0.016-1.3-0.76-2.601-1.517-3.907-2.266-0.149-0.085-0.193-0.183-0.192-0.349 0.005-3.097 0.006-6.195 0.001-9.293 0-0.168 0.047-0.265 0.192-0.348 3.624-2.001 4.909-2.755 6.191-3.515l-2.257 1.239c0.162-0.095 0.258-0.084 0.403 0.032 0.327 0.262 0.673 0.502 1.018 0.74 0.061 0.041 0.181 0.066 0.237 0.034 0.703-0.403 1.398-0.819 2.133-1.253l-1.438-0.904c0.303-0.179 0.566-0.335 0.83-0.489 0.299-0.175 0.594-0.358 0.902-0.517 0.089-0.046 0.238-0.063 0.32-0.018 0.56 0.308 1.108 0.635 1.66 0.957 0.020 0.013 0.032 0.041 0.072 0.093-0.465 0.285-3.976 2.368-5.234 3.192-0.973 0.638-1.767 1.47-2.342 2.447l-0.019 0.034c-1.262 2.17-0.91 5.142 0.82 6.955 0.61 0.638 1.27 1.21 2.014 1.681 0.076 0.049 0.215 0.085 0.282 0.048 0.693-0.386 1.378-0.789 2.064-1.187 0.014-0.009 0.022-0.028 0.036-0.048-0.52-0.335-1.048-0.659-1.56-1.008-0.642-0.44-1.241-0.933-1.69-1.583-0.907-1.31-0.81-2.98 0.227-4.185 0.752-0.874 1.702-1.488 2.674-2.070 1.244-0.747 4.42-2.687 4.743-2.94 0.117-0.090 0.194-0.116 0.332-0.035 1.331 0.78 2.669 1.547 3.998 2.329 0.080 0.047 0.156 0.18 0.156 0.275 0.010 3.125 0.010 6.25 0.003 9.376 0 0.095-0.070 0.233-0.15 0.28-1.346 0.79-2.698 1.569-4.050 2.35-0.030 0.017-0.064 0.030-0.087 0.041-0.416-0.3-0.82-0.597-1.233-0.88zM21.753 13.143c-0.702-1.244-1.748-2.142-2.917-2.911-0.080-0.053-0.261-0.019-0.362 0.037-0.558 0.308-1.107 0.634-1.659 0.955-0.107 0.063-0.213 0.128-0.348 0.209l0.18 0.124c0.593 0.391 1.203 0.76 1.777 1.18 0.806 0.589 1.49 1.29 1.81 2.28 0.018 0.056 0.112 0.126 0.172 0.127 0.655 0.009 1.31 0.005 1.987 0.005-0.038-0.607-0.295-1.394-0.64-2.006z"></path>
</svg>
