<!-- Generated by IcoMoon.io -->
<svg version="1.1" xmlns="http://www.w3.org/2000/svg" width="32" height="32" viewBox="0 0 32 32">
<title>gto</title>
<path d="M15.547 10.221c-0.785-1.35-1.503-2.268-2.177-2.764-0.832-0.613-1.685-0.618-2.353 0.038-0.635 0.623-0.694 1.41-0.207 2.154 0.127 0.193 0.29 0.384 0.488 0.572h-2.94c-0.79 0-1.358 0.667-1.358 1.333 0 0.776 0.68 1.334 1.358 1.334h7.018v-1.778h1.132v1.778h7.134c0.79 0 1.358-0.667 1.358-1.334 0-0.775-0.68-1.333-1.358-1.333h-2.908c0.192-0.198 0.347-0.4 0.462-0.606 0.412-0.74 0.295-1.508-0.329-2.12-0.668-0.656-1.52-0.65-2.352-0.038-0.675 0.496-1.393 1.415-2.177 2.764zM14.231 10.221h-1.020c-0.716-0.406-1.213-0.813-1.45-1.174-0.206-0.316-0.19-0.524 0.056-0.767 0.241-0.236 0.465-0.235 0.873 0.066 0.443 0.325 0.962 0.952 1.541 1.875zM17.653 10.221c0.58-0.923 1.098-1.55 1.54-1.875 0.409-0.3 0.633-0.302 0.874-0.066 0.27 0.266 0.306 0.497 0.136 0.801-0.196 0.352-0.647 0.748-1.33 1.14zM16 32c-8.837 0-16-7.163-16-16s7.163-16 16-16 16 7.163 16 16-7.163 16-16 16zM15.376 14h-7.356v7.222c-0.008 0.739 0.288 1.45 0.82 1.972s1.257 0.813 2.010 0.806h4.527zM16.508 14v10h4.528c0.009 0 0.020 0 0.031 0 0.77 0 1.468-0.308 1.979-0.807l-0.001 0c0.506-0.495 0.82-1.185 0.82-1.949 0-0.008-0-0.016-0-0.025v0.001-7.223z"></path>
</svg>
