<!-- Generated by IcoMoon.io -->
<svg version="1.1" xmlns="http://www.w3.org/2000/svg" width="32" height="32" viewBox="0 0 32 32">
<title>ht</title>
<path d="M16 32c-8.837 0-16-7.163-16-16s7.163-16 16-16 16 7.163 16 16-7.163 16-16 16zM18.347 10.533c0-3.52-1.707-6.506-2.987-7.466 0 0-0.107-0.107-0.107 0.106-0.106 6.72-3.52 8.534-5.333 11.094-4.373 5.653-0.32 11.946 3.84 13.12 2.347 0.64-0.533-1.174-0.853-4.907-0.534-4.693 5.44-8.107 5.44-11.947zM20.587 12.88c-0.214 0.853-1.067 2.667-2.24 4.373-3.947 5.654-1.707 8.427-0.427 9.92 0.747 0.854 0 0 1.813-0.853 0.107-0.107 3.627-1.92 3.947-6.080 0.427-4.053-2.133-6.613-3.093-7.36z"></path>
</svg>
