<!-- Generated by IcoMoon.io -->
<svg version="1.1" xmlns="http://www.w3.org/2000/svg" width="32" height="32" viewBox="0 0 32 32">
<title>ion</title>
<path d="M7.026 19.009c1.352 3.793 4.962 6.508 9.202 6.508 0.002 0 0.004 0 0.005 0 0.764 0 1.508-0.088 2.221-0.254l-0.066 0.013c0.404 1.017 1.38 1.723 2.521 1.724h0c1.495-0.004 2.705-1.217 2.705-2.712 0-0.002 0-0.004 0-0.006v0c0-0.598-0.192-1.15-0.518-1.6 1.793-1.778 2.903-4.243 2.903-6.967 0-0.006 0-0.011 0-0.017v0.001c0-0.005 0-0.011 0-0.017 0-2.578-0.995-4.924-2.622-6.675l0.006 0.006c0.205-0.373 0.326-0.816 0.326-1.289 0-0.002 0-0.004 0-0.006v0c0-0.002 0-0.005 0-0.007 0-1.495-1.21-2.708-2.705-2.712h-0c-0 0-0 0-0 0-0.936 0-1.761 0.476-2.245 1.2l-0.006 0.010c-0.754-0.21-1.62-0.33-2.514-0.33-0.004 0-0.008 0-0.011 0h0.001c-4.677 0-8.586 3.301-9.546 7.711-1.485 0.017-2.682 1.225-2.682 2.712 0 0.003 0 0.005 0 0.008v-0c0 0.002 0 0.004 0 0.006 0 1.498 1.214 2.712 2.712 2.712 0.111 0 0.22-0.007 0.327-0.020l-0.013 0.001zM7.516 18.904c1.108-0.36 1.895-1.383 1.895-2.59 0-0.002 0-0.003 0-0.005v0c0-1.338-0.963-2.45-2.23-2.676 0.935-4.154 4.63-7.255 9.047-7.255 0.788 0 1.553 0.098 2.283 0.284-0.134 0.311-0.212 0.673-0.212 1.053 0 0.001 0 0.002 0 0.003v-0c0 0.002 0 0.005 0 0.007 0 1.496 1.211 2.709 2.706 2.712h0c0.845 0 1.6-0.39 2.095-1 1.492 1.645 2.405 3.838 2.405 6.245 0 0.006 0 0.011 0 0.017v-0.001c0 0.005 0 0.010 0 0.016 0 2.576-1.046 4.908-2.736 6.594l-0 0c-0.482-0.461-1.137-0.745-1.858-0.745-0.001 0-0.001 0-0.002 0h0c-1.496 0.002-2.709 1.215-2.709 2.712 0 0.185 0.018 0.365 0.054 0.539l-0.003-0.017c-0.606 0.141-1.302 0.222-2.016 0.222-0.002 0-0.005 0-0.007 0h0c-4.002 0-7.412-2.547-8.713-6.115zM16 32c-8.837 0-16-7.163-16-16s7.163-16 16-16 16 7.163 16 16-7.163 16-16 16zM16.228 18.42c1.497-0.003 2.709-1.218 2.709-2.715 0-0.002 0-0.005 0-0.007v0c0-1.503-1.213-2.721-2.709-2.721s-2.708 1.218-2.708 2.721c0 0.002 0 0.005 0 0.007 0 1.497 1.212 2.711 2.708 2.715h0z"></path>
</svg>
