<!-- Generated by IcoMoon.io -->
<svg version="1.1" xmlns="http://www.w3.org/2000/svg" width="32" height="32" viewBox="0 0 32 32">
<title>klown</title>
<path fill="#000" d="M16 0c8.837 0 16 7.163 16 16s-7.163 16-16 16-16-7.163-16-16 7.163-16 16-16zM21.56 6.56c-1.601-0.98-3.54-1.56-5.613-1.56-0.915 0-1.804 0.113-2.654 0.326l0.075-0.016c-1.673 0.402-3.307 1.246-4.567 2.358-0.42 0.37-1.105 1.080-1.405 1.454-1.944 2.417-2.77 5.612-2.237 8.647 0.494 2.82 2.060 5.308 4.43 7.024 2.011 1.461 4.715 2.22 7.16 2.008 2.298-0.194 4.314-0.999 6.054-2.407 0.705-0.598 1.331-1.248 1.887-1.955l0.022-0.029c0.654-0.878 1.196-1.891 1.575-2.981l0.024-0.079c0.392-1.175 0.558-2.206 0.554-3.487 0-1.885-0.47-3.642-1.43-5.34-0.885-1.574-2.315-3.035-3.875-3.964zM13.404 6.175c0.764-0.203 1.642-0.32 2.547-0.32 0.225 0 0.449 0.007 0.671 0.021l-0.030-0.002c1.030 0.077 1.82 0.236 2.63 0.525 1.192 0.431 1.986 0.869 3.027 1.666 0.34 0.258 0.915 0.798 1.133 1.060l0.304 0.356c1.133 1.313 1.93 3.092 2.248 5.015 0.092 0.54 0.088 2.206-0.003 2.817-0.254 1.708-0.85 3.144-1.93 4.659-0.58 0.808-1.737 1.877-2.641 2.435-1.959 1.21-4.034 1.726-6.25 1.55-1.418-0.127-2.719-0.523-3.886-1.136l0.056 0.027c-1.858-0.97-3.335-2.451-4.274-4.258l-0.026-0.055c-0.78-1.525-1.118-2.926-1.118-4.599 0-2.082 0.575-3.946 1.775-5.735 0.37-0.554 1.356-1.634 1.807-1.984 0.078-0.060 0.244-0.194 0.371-0.293 0.91-0.727 2.344-1.426 3.59-1.75zM20.717 15.412c-0.032 0-0.184 0.162-0.34 0.36-0.277 0.356-0.636 0.822-1.889 2.44l-0.16 0.207-0.784 1.010v3.317l0.091 0.113 0.041 0.046c0.048 0.048 0.070 0.049 0.1 0.018 0.043-0.042 0.145-0.512 0.237-1.105 0.042-0.279 0.092-0.346 0.138-0.187 0.063 0.226 0.003 1.15-0.1 1.56-0.017 0.078-0.003 0.099 0.142 0.17 0.088 0.042 0.166 0.070 0.177 0.060 0.007-0.007 0.12-0.286 0.25-0.615 0.247-0.628 0.29-0.713 0.342-0.66 0.043 0.043-0.014 0.276-0.229 0.918-0.162 0.487-0.176 0.55-0.138 0.657 0.050 0.13 0.057 0.233 0.018 0.233-0.018 0-0.201-0.089-0.416-0.195-0.487-0.243-0.692-0.3-0.82-0.229-0.109 0.064-0.137 0.11-0.186 0.304-0.043 0.119-0.104 0.222-0.181 0.311l0.001-0.001c-0.081 0.092-0.141 0.17-0.134 0.177 0.007 0.003 0.105 0.045 0.215 0.088 0.242 0.097 0.544 0.295 0.845 0.55l0.15 0.131 0.3 0.275 0.152-0.116 0.193-0.143c0.445-0.323 0.856-0.575 1.159-0.711 0.74-0.332 1.217-0.646 1.676-1.112 0.417-0.424 0.576-0.734 0.703-1.362 0.042-0.212 0.158-0.424 0.26-0.477 0.064-0.035 0.068-0.032 0.050 0.060-0.014 0.057-0.032 0.138-0.046 0.184-0.017 0.067-0.010 0.074 0.043 0.056 0.303-0.11 0.47-0.473 0.41-0.91-0.068-0.505-0.22-0.657-0.576-0.572-0.16 0.041-0.298 0.091-0.429 0.151l0.016-0.007c-0.12 0.053-0.23 0.089-0.24 0.078s0.010-0.113 0.050-0.226c0.172-0.501 0.197-1.080 0.056-1.27-0.127-0.173-0.36-0.149-0.724 0.070l-0.146 0.086c-0.175 0.1-0.166 0.067-0.062-0.104 0.18-0.307 0.36-0.67 0.427-0.871 0.116-0.336 0.064-0.67-0.113-0.727-0.13-0.043-0.42 0.14-0.833 0.529-0.124 0.124-0.254 0.242-0.39 0.353l-0.009 0.007c0-0.035 0.127-0.265 0.392-0.702 0.155-0.258 0.381-0.667 0.501-0.91 0.177-0.361 0.22-0.481 0.23-0.657 0.017-0.258-0.074-0.473-0.25-0.58-0.048-0.033-0.106-0.057-0.167-0.069l-0.003-0.001zM14.371 20.248c-0.117-0.163-0.191-0.135-0.526 0.183-0.128 0.124-0.262 0.245-0.401 0.36l-0.012 0.009c-0.24 0.17-0.766 0.41-1.158 0.53-0.23 0.070-0.402 0.141-0.388 0.155 0.063 0.057 0.43 0.103 0.836 0.103 0.237 0 0.445 0.010 0.456 0.020 0.014 0.015-0.007 0.068-0.046 0.12-0.16 0.224-0.075 0.291 0.399 0.272l0.116-0.006 0.43-0.025 0.060 0.092 0.027 0.053c0.014 0.037 0.020 0.075 0.012 0.098-0.031 0.092-0.292 0.36-0.515 0.53-0.533 0.402-0.508 0.445 0.247 0.47 0.452 0.013 0.576 0.028 0.6 0.070 0.053 0.085 0.043 0.159-0.050 0.286-0.303 0.42-0.447 0.65-0.437 0.699 0.021 0.123 0.25 0.187 0.636 0.176 0.638-0.018 0.818-0.010 0.97 0.039 0.040 0.014 0.080 0.024 0.112 0.029l0.040 0.003 0.021-0.004c0.003-0.050-0.15-0.355-0.77-1.542-0.095-0.184-0.13-0.29-0.116-0.346 0.043-0.17 0.021-0.67-0.032-0.801-0.042-0.084-0.091-0.157-0.146-0.223l0.001 0.002-0.066-0.076-0.163-0.173v-0.317l-0.003-0.159c-0.012-0.303-0.059-0.526-0.134-0.628zM15.151 17.392l-0.005 0.012-0.002 0.023c0 0.068-0.24 2.333-0.265 2.513-0.010 0.082-0.007 0.131 0.014 0.124 0.021-0.004 0.162-0.127 0.318-0.268s0.29-0.24 0.3-0.223c0.014 0.018 0.063 0.491 0.11 1.052 0.044 0.507 0.089 0.976 0.105 1.108l0.003 0.029 0.018 0.12 0.222-0.244 0.076-0.082 0.199-0.222 0.040-0.045 0.095-0.106 0.063 0.074 0.020 0.025c0.060 0.080 0.232 0.298 0.411 0.533 0.339 0.437 0.424 0.53 0.424 0.451 0.003-0.056-0.968-2.866-0.989-2.866-0.014 0-0.070 0.198-0.127 0.442-0.053 0.243-0.11 0.44-0.12 0.44s-0.056-0.377-0.102-0.84c-0.095-1.002-0.113-1.136-0.141-1.136-0.010 0-0.113 0.145-0.23 0.318-0.113 0.176-0.219 0.318-0.236 0.318s-0.032-0.036-0.032-0.082c0-0.042-0.032-0.388-0.070-0.765-0.043-0.378-0.082-0.692-0.098-0.703zM11.646 15.507c-0.244-0.067-0.77-0.095-1.024-0.063-0.68 0.095-1.426 0.501-1.846 1.013-0.53 0.642-0.751 1.316-0.716 2.167 0.025 0.526 0.11 0.893 0.303 1.288 0.302 0.629 0.859 1.094 1.534 1.267l0.016 0.003c0.378 0.096 0.402 0.068 0.095-0.112-0.543-0.314-0.946-0.685-1.196-1.101-0.844-1.387-0.029-3.438 1.584-3.985 0.255-0.085 0.332-0.095 0.777-0.095h0.144l0.138 0.003c0.207 0.007 0.312 0.026 0.477 0.078 0.346 0.11 0.804 0.35 1.108 0.582 0.427 0.325 0.392 0.307 0.321 0.166-0.088-0.176-0.67-0.738-0.907-0.879-0.232-0.136-0.501-0.249-0.784-0.327l-0.024-0.005zM9.518 18.416c-0.135-0.374-0.142-0.385-0.195-0.223-0.035 0.1-0.038 0.226-0.024 0.417 0.080 0.914 0.459 1.539 1.1 1.839 0.266 0.12 0.544 0.19 0.544 0.134 0-0.014-0.102-0.13-0.225-0.261-0.508-0.532-0.915-1.166-1.187-1.867l-0.013-0.039zM12.461 12.998c0.29-0.134 0.268-0.141-0.176-0.074-0.773 0.116-1.843 0.547-2.573 1.034-0.36 0.236-0.907 0.706-1.154 0.985-0.258 0.293-0.555 0.706-0.537 0.755 0.007 0.021 0.095-0.028 0.205-0.116 0.24-0.195 0.55-0.417 0.575-0.417 0.010 0 0.148-0.078 0.304-0.173 0.367-0.217 0.795-0.379 1.25-0.462l0.024-0.004c0.31-0.042 0.797-0.024 1.041 0.043 0.25 0.067 0.734 0.268 1.002 0.416 0.145 0.081 0.269 0.145 0.276 0.145 0.020 0 0.406 0.261 0.698 0.473 0.509 0.363 1.257 1.037 1.589 1.426 0.116 0.137 0.233 0.25 0.257 0.25 0.025 0.004 0.057 0.032 0.067 0.064 0.015 0.035 0.145 0.23 0.29 0.434 0.356 0.484 0.731 1.049 1.078 1.631l0.055 0.099c0.48 0.815 0.459 0.78 0.494 0.758 0.018-0.012 0.031-0.172 0.034-0.38l0.001-0.573-0.437-0.413-0.284-0.278c-0.366-0.371-0.709-0.767-1.025-1.185l-0.022-0.030c-0.321-0.427-0.455-0.646-1.348-2.188-0.332-0.575-0.42-0.688-0.586-0.776-0.424-0.212-1.034-0.378-1.663-0.452-0.204-0.025-0.37-0.060-0.37-0.078 0-0.067 0.399-0.233 0.674-0.282 0.155-0.028 0.459-0.050 0.674-0.053 0.392 0 0.399 0 0.42-0.085 0.053-0.212 0.050-0.215-0.596-0.233-0.508-0.016-0.654-0.038-0.575-0.096l0.028-0.017c0.024-0.017 0.165-0.081 0.31-0.148zM9.913 17.036c-0.166-0.096-0.17-0.067-0.039 0.29 0.212 0.578 0.565 1.104 1.070 1.616 0.397 0.4 0.927 0.83 1.098 0.901l0.033 0.010 0.020-0.004 0.003-0.018c-0.003-0.074-0.102-0.343-0.237-0.628-0.385-0.781-0.928-1.43-1.592-1.928l-0.014-0.010c-0.092-0.068-0.204-0.144-0.318-0.216l-0.024-0.014zM11.649 16.531c-0.222-0.102-0.6-0.201-0.6-0.159 0 0.007 0.16 0.177 0.353 0.378 0.413 0.429 0.761 0.924 1.027 1.466l0.015 0.034c0.222 0.498 0.218 0.49 0.247 0.254 0.035-0.265 0.007-0.522-0.092-0.861-0.143-0.498-0.488-0.897-0.939-1.108l-0.011-0.005zM17.064 10.513c-0.057-0.085-0.053-0.085-0.226-0.035-1.316 0.385-2.644 0.996-3.17 1.455l-0.088 0.084-0.138 0.14 0.11 0.403 0.126 0.442c0.4 1.31 1 2.496 1.794 3.557 0.31 0.41 1.182 1.267 1.567 1.536 0.35 0.243 0.71 0.458 0.773 0.458s1.105-1.217 1.066-1.253c-0.064-0.027-0.195-0.074-0.328-0.118l-0.068-0.019c-0.709-0.237-1.33-0.58-1.76-0.974-0.354-0.322-0.657-0.791-0.325-0.498 0.289 0.254 1.358 0.702 1.976 0.83 0.138 0.024 0.25 0.045 0.254 0.042 0 0-0.074-0.106-0.17-0.233-0.225-0.297-0.49-0.812-0.635-1.236-0.116-0.345-0.24-0.522-0.43-0.624-0.081-0.040-0.177-0.046-0.441-0.028-0.922 0.060-1.72-0.346-2.15-1.095-0.236-0.413-0.59-1.108-0.572-1.126 0.011-0.010 0.6 0.226 1.313 0.526 1.182 0.495 1.467 0.608 1.688 0.654l0.077 0.015 0.039 0.006 0.173 0.024-0.021-0.685-0.009-0.22c-0.012-0.324-0.042-0.629-0.089-0.928l0.006 0.044c-0.074-0.42-0.247-0.996-0.342-1.144zM22.248 9.285c-0.137-0.014-3.977 0.886-4.13 0.967-0.116 0.076-0.201 0.19-0.239 0.324l-0.001 0.004c-0.017 0.074 0.177 0.985 0.672 3.13 0.384 1.663 0.705 3.040 0.72 3.054 0.014 0.014 0.31-0.339 0.656-0.787 0.6-0.777 0.635-0.812 0.748-0.812 0.194 0 0.494 0.18 0.61 0.37 0.17 0.272 0.16 0.654-0.020 1.063-0.033 0.061-0.059 0.132-0.073 0.207l-0.001 0.005c0.014 0.014 2.53-0.533 2.693-0.586 0.081-0.036 0.15-0.083 0.208-0.141l-0 0c0.19-0.201 0.198-0.156-0.65-3.47-0.423-1.662-0.797-3.067-0.829-3.113-0.040-0.057-0.088-0.105-0.143-0.143l-0.002-0.001c-0.063-0.037-0.137-0.062-0.217-0.071l-0.002-0zM22.831 13.291c0.010 0.028-1.010 2.481-1.048 2.52-0.015 0.014-0.145-0.081-0.29-0.212-0.271-0.248-0.607-0.551-0.946-0.852l-0.088-0.076c-0.424-0.378-0.755-0.692-0.741-0.695 0.017-0.004 0.42 0.116 0.893 0.271l0.864 0.28 0.403-0.378c0.219-0.209 0.522-0.491 0.67-0.629 0.149-0.14 0.276-0.243 0.283-0.23zM20.717 14.392c-0.456-0.148-0.54-0.166-0.52-0.113 0.008 0.014 0.266 0.258 0.576 0.537 0.31 0.278 0.642 0.582 0.738 0.677 0.092 0.092 0.176 0.163 0.183 0.156 0.010-0.007-0.035-0.251-0.098-0.54l-0.117-0.526-0.159-0.021c-0.244-0.054-0.445-0.113-0.642-0.182l0.039 0.012zM12.92 9.867c0-0.060-0.236-0.024-0.83 0.124-0.666 0.171-1.218 0.353-1.755 0.567l0.097-0.034c-0.71 0.279-1.906 0.921-1.814 0.97 0.028 0.015 0.144 0.040 0.26 0.053 0.685 0.079 1.832 0.361 2.38 0.58l0.123 0.052 0.25 0.117-0.14 0.024-0.307 0.063c-0.81 0.19-1.564 0.543-2.154 1.010-0.307 0.247-0.811 0.77-0.977 1.010-0.138 0.197-0.138 0.197 0.254-0.1 0.6-0.45 1.581-0.977 2.354-1.266 0.632-0.233 1.518-0.452 2.058-0.505 0.13-0.014 0.236-0.039 0.236-0.053 0-0.056-0.41-0.335-0.73-0.501-0.442-0.229-1.367-0.578-1.871-0.712l-0.275-0.065 0.14-0.12 0.088-0.069c0.295-0.208 0.632-0.4 0.986-0.56l0.039-0.016c0.372-0.164 0.838-0.333 1.317-0.473l0.087-0.022c0.1-0.020 0.184-0.056 0.184-0.074zM20.561 10.654c0.025-0.067 0.078-0.049 0.152 0.046 0.039 0.050 0.522 0.561 1.073 1.137 0.547 0.572 0.999 1.062 0.999 1.087 0 0.063-1.31 1.288-1.38 1.288-0.032 0-0.452-0.13-0.935-0.286-0.826-0.272-0.957-0.332-0.844-0.402 0.021-0.010 0.035-0.046 0.035-0.078 0-0.042 0.636-2.012 0.9-2.792zM15.931 13.524c-0.113-0.021-0.113-0.021-0.078 0.078 0.046 0.14 0.201 0.222 0.42 0.222 0.233 0 0.222-0.057-0.035-0.18-0.086-0.044-0.188-0.085-0.294-0.117l-0.013-0.003zM20.611 10.845c-0.014-0.018-0.036 0.014-0.050 0.070-0.035 0.188-0.73 2.288-0.8 2.425-0.040 0.078-0.064 0.145-0.054 0.152 0.014 0.018 1.063-0.766 1.2-0.9l0.1-0.095-0.184-0.812c-0.1-0.445-0.195-0.822-0.212-0.84zM12.835 10.295h-0.088l-0.065 0.007c-0.18 0.032-0.538 0.16-0.831 0.303-0.262 0.127-0.696 0.459-0.696 0.533 0 0.010 0.124 0.067 0.276 0.123 0.36 0.135 0.836 0.364 1.207 0.586 0.166 0.096 0.314 0.17 0.335 0.166 0.042-0.017 0.028-0.416-0.032-0.819-0.028-0.208-0.053-0.282-0.092-0.282-0.061 0-0.074-0.051-0.053-0.263l0.011-0.1 0.028-0.255zM19.944 8.459c-0.22-0.113-0.477-0.092-1.712 0.141-1.257 0.237-2.199 0.466-3.141 0.766-0.617 0.207-1.115 0.409-1.6 0.636l0.093-0.039c-0.209 0.105-0.24 0.134-0.297 0.282-0.060 0.159-0.060 0.19 0 0.734 0.085 0.801 0.060 0.752 0.297 0.572 0.277-0.203 0.592-0.393 0.924-0.552l0.036-0.016c1.387-0.696 3.208-1.222 5.428-1.571 0.303-0.050 0.501-0.095 0.501-0.12 0-0.056-0.233-0.54-0.321-0.66-0.057-0.070-0.126-0.128-0.204-0.171l-0.004-0.002zM14.808 6.217l-0.064 0.002c-0.326 0.021-0.616 0.053-0.903 0.097l0.057-0.007c-0.202 0.032-0.237 0.050-0.216 0.1 0.24 0.578 0.622 1.718 0.593 1.771-0.007 0.014-0.134-0.095-0.282-0.236-0.148-0.145-0.286-0.261-0.304-0.261-0.017 0-0.024 0.042-0.014 0.095 0.010 0.056 0.040 0.437 0.060 0.847 0.025 0.413 0.057 0.77 0.070 0.794 0.057 0.092 0.11-0.035 0.163-0.399 0.032-0.201 0.067-0.377 0.078-0.395 0.014-0.014 0.12 0.102 0.233 0.258s0.23 0.282 0.25 0.282c0.051-0.006 0.098-0.021 0.14-0.043l-0.002 0.001c0.070-0.032 0.088-0.064 0.088-0.163 0-0.328-0.243-1.482-0.423-1.997-0.039-0.117-0.064-0.22-0.053-0.23 0.077-0.073 0.723 0.949 1.083 1.7l0.18 0.386 0.124-0.021 0.050-0.010c0.041-0.008 0.078-0.023 0.11-0.044l-0.001 0.001c0.074-0.074-0.533-1.765-0.833-2.312-0.064-0.116-0.127-0.215-0.148-0.215l-0.036-0.001zM12.616 6.797c-0.158-0.064-0.398-0.004-0.68 0.176-0.089 0.053-0.385 0.222-0.657 0.378-0.91 0.508-1.723 1.087-1.701 1.214 0.007 0.028 0.031 0.050 0.056 0.042 0.025-0.003 0.23-0.056 0.452-0.113 0.459-0.131 0.987-0.206 1.532-0.206 0.030 0 0.060 0 0.089 0.001l-0.005-0 0.268 0.004 0.656 0.018 0.025-0.25 0.005-0.086c0.009-0.166 0.017-0.436 0.020-0.66v-0.225c0-0.244-0.013-0.276-0.060-0.293zM15.486 6.2l-0.226 0.001c-0.067 0.002-0.116 0.008-0.116 0.017s0.113 0.212 0.25 0.452c0.255 0.441 0.542 1.005 0.806 1.582l0.055 0.136c0.036 0.089 0.078 0.173 0.092 0.191 0.042 0.050 0.279-0.010 0.279-0.070 0-0.14-0.5-1.197-0.859-1.829l-0.070-0.12-0.211-0.36zM16.086 6.235c-0.174 0-0.14 0.034 0.102 0.449 0.233 0.402 0.79 1.55 0.79 1.623 0 0.103 0.093 0.103 0.552 0.007 0.231-0.054 0.663-0.133 1.098-0.203l0.176-0.023c0.024-0.017-0.216-0.649-0.378-1.005-0.247-0.53-0.332-0.664-0.441-0.689l-0.177-0.035c-0.050-0.010-0.377-0.042-0.73-0.070-0.239-0.023-0.546-0.042-0.856-0.053l-0.030-0.001h-0.057z"></path>
<path fill="#fff" d="M16.785 10.672c0.088 0.215 0.134 0.445 0.18 0.928 0.046 0.516 0.13 1.229 0.18 1.525 0.021 0.152 0.081 0.184 0.081 0.046 0-0.050-0.025-0.244-0.053-0.434-0.026-0.168-0.063-0.498-0.096-0.829l-0.010-0.131c-0.026-0.31-0.059-0.574-0.1-0.835l0.008 0.065c-0.045-0.215-0.127-0.395-0.176-0.395-0.025 0-0.028 0.025-0.014 0.060zM17.544 14.802c0 0.155 0.494 1.291 0.656 1.507 0.11 0.151 0.081 0.014-0.046-0.216-0.165-0.289-0.323-0.63-0.454-0.985l-0.016-0.049c-0.080-0.226-0.14-0.335-0.14-0.257z"></path>
</svg>
