<!-- Generated by IcoMoon.io -->
<svg version="1.1" xmlns="http://www.w3.org/2000/svg" width="32" height="32" viewBox="0 0 32 32">
<title>ksm</title>
<path fill="#000" d="M16 0c-8.8 0-16 7.2-16 16s7.2 16 16 16 16-7.2 16-16-7.2-16-16-16zM24.9 10.5c-0.3 0.2-0.7 0.6-1 1.4-0.2 0.6-0.7 1.8-0.9 2.4-0.3 0.6-0.8 1.4-2.7 2.4-1.7 0.9-2.6 1.2-2.8 1.8-0.2 0.7-0.1 1.4 0.2 1.8 0.3 0.5 1 1.1 1.7 1.4 0.7 0.2 0.8 0.5 0.8 0.5-0.5 0-0.8 0-1.2-0.1-0.7 0-1.5 0.2-1.5 0.2 0-0.2 0.6-0.5 0.6-0.5s0-0.3-1-1c-0.6-0.3-1-1-1-1.7l-1.7-0.1 1-0.3c-1.8-1.1-10.3 2.3-10.3 2.3v-0.1c-0.8 0.5-1.7 0.2-1.7 0.2l1-0.8h-0.9l7.2-3.7h-1.6s6.2-4.1 7.9-5c1.6-0.9 2.6-1.2 2.9-1.5 0.3-0.2 1.4-1.2 1.8-1.6s1.2-0.8 1.9-0.7c0.8 0.1 1.2 0.5 1.6 0.8 0.3 0.2 1.4 1.1 1.4 1.1s-1.3 0.6-1.7 0.8z"></path>
</svg>
