<!-- Generated by IcoMoon.io -->
<svg version="1.1" xmlns="http://www.w3.org/2000/svg" width="32" height="32" viewBox="0 0 32 32">
<title>leo</title>
<path d="M16 0c8.837 0 16 7.163 16 16s-7.163 16-16 16-16-7.163-16-16 7.163-16 16-16zM11.437 18.786h-0.997v5.090l1.38 0.69 0.336 0.172 0.345 0.183 0.335 0.163 0.345 0.182 0.346 0.172 0.345 0.163 0.345 0.182 0.69 0.345 0.335 0.173 0.48 0.24 0.201-0.087 0.69-0.268 0.69-0.288 0.346-0.124-0.346-0.863-0.028-0.058-0.317 0.125-0.345 0.134-0.345 0.144-0.345 0.134-0.153 0.067-0.182-0.095-0.346-0.173-0.335-0.173-0.345-0.172-0.345-0.173-0.345-0.172-0.345-0.173-0.346-0.182-0.345-0.163-0.335-0.182-0.345-0.173-0.336-0.162-0.345-0.183-0.038-0.019v-4.476zM19.221 16.514h-6.97l1.161 1.217 0.594 0.604 0.585 0.613 0.575 0.604 0.076 0.087v2.76l0.509 0.393 0.584 0.441 0.575 0.451 0.585 0.44 0.585 0.451 0.575 0.441 0.22 0.173 0.365-0.268 0.585-0.413 0.575-0.421 0.594-0.413 1.17-0.824 0.575-0.422 1.169-0.824 0.48-0.355 0.095-2.598-0.575-0.019-0.508-0.019 0.020 2.118-0.096 0.068-0.585 0.412-0.575 0.422-0.585 0.412-0.585 0.422-0.594 0.402-0.575 0.422-0.93 0.671-0.24-0.192-0.575-0.44-0.585-0.451-0.585-0.441-0.575-0.45-0.105-0.068v-2.28l0.105-0.096 0.575-0.614 0.585-0.604 0.585-0.613 1.141-1.198zM14.246 13.35h-3.538l-0.153 0.077-0.364 0.192-0.374 0.191-0.729 0.384-0.747 0.383-0.729 0.384-0.374 0.191-0.364 0.192-0.336 0.182-0.038 5.494 0.374 0.259 0.364 0.259 0.374 0.249 0.729 0.518 0.373 0.258 0.163 0.125 0.211-0.259 0.365-0.48 0.028-0.047-0.028-0.029-0.365-0.259-0.374-0.268-0.373-0.259-0.729-0.517-0.105-0.068 0.028-4.438 0.077-0.038 0.364-0.182 0.365-0.192 0.373-0.173 0.374-0.191 0.729-0.365 0.374-0.182 0.364-0.182 0.374-0.192h0.010l0.153 0.058 0.011 0.003 3.143 1.358v-2.436zM23.122 9.247l-0.067 0.077-0.24 0.297-0.249 0.307-0.057 0.086 0.057 0.067 0.25 0.202 0.24 0.191 0.239 0.211 0.249 0.202 0.24 0.2 0.249 0.212 0.355 0.297 0.010 4.534-0.125 0.077-0.24 0.163-0.25 0.144-0.239 0.163-0.25 0.143-0.239 0.163-0.24 0.144-0.249 0.163-0.24 0.144-0.24 0.163-0.239 0.144-0.24 0.163-0.249 0.143-0.24 0.163-0.239 0.144-0.24 0.163-0.249 0.144 0.25 0.383 0.24 0.393 0.047 0.067 0.192-0.124 0.24-0.154 0.249-0.143 0.479-0.307 0.24-0.153 0.24-0.144 0.248-0.154 0.24-0.143 0.24-0.154 0.249-0.153 0.24-0.154 0.249-0.143 0.24-0.154 0.24-0.143 0.239-0.154 0.24-0.153 0.249-0.154 0.24-0.143-0.010-5.55-0.23-0.183-0.25-0.201-0.24-0.192-0.239-0.192-0.24-0.2-0.24-0.183-0.248-0.192-0.24-0.201-0.25-0.192-0.172-0.144zM15.818 5.25l-0.182 0.086-0.374 0.211-0.365 0.192-0.364 0.201-0.374 0.211-0.374 0.192-0.373 0.201 0.373 0.22 0.374 0.211 0.23 0.135 0.144-0.067 0.364-0.202 0.365-0.191 0.374-0.192 0.153-0.077 0.22 0.125 0.374 0.22 0.729 0.422 0.747 0.441 0.374 0.21 0.729 0.442 0.374 0.21 0.747 0.442 0.115 0.057v4.381h-2.617v0.005l-0.019-0.005 0.010 2.464 0.077-0.030 0.097-0.041 0.418-0.169 0.127-0.048 0.125-0.054 0.381-0.153 0.136-0.052 0.348-0.143 1.905-0.767v-5.944l-0.364-0.22-0.374-0.211-0.365-0.22-0.373-0.221-0.374-0.211-0.374-0.22-0.364-0.221-0.365-0.21-0.747-0.441-0.374-0.212-0.729-0.44-0.374-0.212-0.191-0.105zM12.050 6.966l-0.45 0.268-0.46 0.288-0.46 0.278-0.46 0.287-0.46 0.278-0.47 0.278-0.451 0.288-0.47 0.278-0.46 0.288-0.46 0.287-0.46 0.278-0.45 0.278-0.020 3.365h0.47l0.46 0.010h0.067l0.010-2.819 0.383-0.24 0.46-0.277 0.47-0.278 0.45-0.298 0.47-0.278 0.46-0.287 0.92-0.556 0.46-0.288 0.47-0.278 0.010-0.010 0.441 0.26 0.47 0.258 0.92 0.537 0.46 0.259 0.47 0.259 0.45 0.268 0.451 0.25 0.020-0.039 0.46-0.824-0.46-0.269-0.47-0.259-0.451-0.258-0.47-0.26-0.46-0.277-0.92-0.518-0.47-0.259-0.45-0.259-0.020-0.010z"></path>
</svg>
