<!-- Generated by IcoMoon.io -->
<svg version="1.1" xmlns="http://www.w3.org/2000/svg" width="32" height="32" viewBox="0 0 32 32">
<title>med</title>
<path d="M16 32c-8.837 0-16-7.163-16-16s7.163-16 16-16 16 7.163 16 16-7.163 16-16 16zM24 12.061l-8 4.805-8-4.805v8.915l2.536 1.48v-5.953l5.464 3.274 5.464-3.27v5.95l2.536-1.48v-8.917zM16.030 23.178l-2.338-1.399-2.31 1.399 4.648 2.822 4.649-2.822-2.31-1.399-2.34 1.399zM20.65 8.822l-4.65-2.822-4.65 2.822 2.311 1.399 2.339-1.399 2.339 1.399 2.31-1.399z"></path>
</svg>
