<!-- Generated by IcoMoon.io -->
<svg version="1.1" xmlns="http://www.w3.org/2000/svg" width="32" height="32" viewBox="0 0 32 32">
<title>meetone</title>
<path d="M16 32c-8.837 0-16-7.163-16-16s7.163-16 16-16 16 7.163 16 16-7.163 16-16 16zM9.916 21.379c0.427-1.927 0.854-3.9 1.282-5.823 0.112-0.449 0.224-0.954 0.336-1.515 0.056 0.225 0.056 0.281 0.112 0.393 2.586 9.024 3.648 12.331 4.73 15.629l-1.618-5.695-4.842-2.988zM17.15 24.427l0.050-0.176c1.066-3.253 2.076-6.507 3.141-9.76 0.057-0.113 0.113-0.281 0.169-0.45 0.056 0.169 0.112 0.225 0.112 0.337 0.474 2.318 0.998 4.587 1.525 6.853l-4.997 3.196zM22.766 22.358c0.032 0.007 0.069 0.010 0.106 0.010 0.058 0 0.114-0.009 0.166-0.025l-0.004 0.001c0.393-0.112 0.561-0.449 0.449-0.954-0.505-2.131-0.954-4.32-1.459-6.451-0.28-1.122-0.504-2.3-0.785-3.422-0.035-0.185-0.147-0.338-0.301-0.426l-0.003-0.002 0.024-0.020-4.488-6.732s-0.393-0.505-1.010 0l-4.6 6.9 0.065 0.033c-0.080 0.119-0.141 0.258-0.175 0.407l-0.002 0.008c-0.056 0.45-0.169 0.898-0.28 1.347-0.618 2.805-1.291 5.61-1.908 8.414-0.056 0.337 0 0.617 0.28 0.786 0.102 0.069 0.228 0.11 0.364 0.11h0l6.146 3.866c0.123 0.278 0.329 0.4 0.615 0.4 0.22 0 0.392-0.073 0.516-0.233l6.284-4.017zM19.923 11.788c-0.044 0.162-0.073 0.259-0.104 0.355l0.018-0.065c-1.010 3.142-2.020 6.34-3.030 9.48-0.224 0.786-0.505 1.515-0.729 2.3h-0.168c-1.229-4.020-2.513-8.096-3.797-12.116l3.853-5.835 3.957 5.882z"></path>
</svg>
