<!-- Generated by IcoMoon.io -->
<svg version="1.1" xmlns="http://www.w3.org/2000/svg" width="32" height="32" viewBox="0 0 32 32">
<title>nano</title>
<path d="M16 32c-8.837 0-16-7.163-16-16s7.163-16 16-16 16 7.163 16 16-7.163 16-16 16zM24.95 11c-0.858 0-1.583 0.693-1.583 1.583 0 1.254-0.198 1.583-1.584 1.583h-0.132c-0.797 0.069-1.418 0.733-1.418 1.543 0 0.003 0 0.005 0 0.008v-0 0.034c0 1.22-0.23 1.517-1.583 1.517-0.066 0-0.132 0-0.165 0.033-0.792 0.099-1.418 0.758-1.418 1.55 0 0.858 0.692 1.583 1.583 1.583 0.825 0 1.517-0.66 1.55-1.451v-0.132c0-1.121 0.363-1.55 1.55-1.583h0.033c0.825 0 1.518-0.66 1.55-1.484v-0.1c0-1.154 0.363-1.583 1.584-1.583 0.857 0 1.583-0.692 1.583-1.583 0-0.824-0.693-1.517-1.55-1.517zM15.648 14.166h-0.132c-1.385 0-1.583-0.33-1.583-1.583-0.031-0.85-0.728-1.528-1.583-1.528s-1.552 0.677-1.583 1.525l-0 0.003c0 1.254-0.198 1.55-1.583 1.55h-0.132c-0.798 0.069-1.419 0.733-1.419 1.543 0 0.003 0 0.005 0 0.008v-0c0 0.858 0.693 1.584 1.584 1.584 0.824 0 1.517-0.66 1.55-1.451v-0.1c0-1.154 0.363-1.583 1.583-1.583s1.583 0.43 1.583 1.55c0 0.858 0.693 1.584 1.583 1.584 0.891 0 1.584-0.693 1.584-1.583-0.038-0.8-0.659-1.444-1.446-1.518l-0.006-0zM6.083 20.433c0.874 0 1.583-0.709 1.583-1.583s-0.709-1.583-1.583-1.583v0c-0.874 0-1.583 0.709-1.583 1.583s0.709 1.583 1.583 1.583v0z"></path>
</svg>
