<!-- Generated by IcoMoon.io -->
<svg version="1.1" xmlns="http://www.w3.org/2000/svg" width="32" height="32" viewBox="0 0 32 32">
<title>ndz</title>
<path d="M16 32c-8.837 0-16-7.163-16-16s7.163-16 16-16 16 7.163 16 16-7.163 16-16 16zM18.586 17.376v-3.836c-0.785-0.249-1.344-0.97-1.345-1.823v-0c0-0 0-0.001 0-0.001 0-1.055 0.856-1.911 1.911-1.911 0.281 0 0.547 0.060 0.787 0.169l-0.012-0.005 1.786-1.033-4.519-2.616c-0.342-0.202-0.754-0.321-1.194-0.321s-0.852 0.119-1.205 0.327l0.011-0.006-2.273 1.315 0.984 0.55v2.673c0.812 0.232 1.396 0.968 1.396 1.839 0 0.351-0.095 0.681-0.261 0.964l0.005-0.009 3.676 3.821c0.082-0.038 0.166-0.071 0.253-0.098zM19.724 17.376c0.785 0.248 1.345 0.97 1.345 1.823s-0.559 1.575-1.331 1.819l-0.014 0.004v3.192l4.091-2.368c0.713-0.418 1.185-1.18 1.185-2.053v-7.586c0-0.846-0.451-1.628-1.185-2.053l-0.968-0.56-2.031 1.174c0.159 0.272 0.252 0.6 0.252 0.949 0 0.853-0.559 1.575-1.331 1.821l-0.014 0.004zM17.497 18.245l-3.676-3.822c-0.085 0.041-0.186 0.080-0.291 0.11l-0.013 0.003v3.598c0.812 0.232 1.397 0.967 1.397 1.839v0c-0 1.056-0.856 1.912-1.912 1.912-0.471 0-0.902-0.17-1.235-0.452l0.003 0.002-1.83 1.428 4.865 2.816c0.738 0.428 1.65 0.428 2.388 0l1.392-0.806v-3.85c-0.785-0.249-1.344-0.971-1.344-1.824 0-0.351 0.095-0.68 0.26-0.963l-0.005 0.009zM12.379 18.166v-3.662c-0.752-0.257-1.293-0.969-1.293-1.806s0.541-1.55 1.293-1.807v-2.040l-0.99-0.553-3.204 1.856c-0.713 0.418-1.185 1.18-1.185 2.053v7.586c0 0.846 0.451 1.628 1.185 2.053l0.697 0.403 2.27-1.775c-0.043-0.151-0.067-0.323-0.067-0.502 0-0.834 0.535-1.543 1.281-1.802l0.013-0.004zM13 13.523c0.009 0 0.019 0.001 0.030 0.001 0.457 0 0.827-0.37 0.827-0.827s-0.37-0.827-0.827-0.827c-0.010 0-0.019 0-0.029 0.001l0.001-0c-0.445 0.015-0.799 0.38-0.799 0.827s0.354 0.81 0.796 0.826l0.002 0zM13 20.798c0.009 0 0.019 0.001 0.030 0.001 0.457 0 0.827-0.37 0.827-0.827s-0.37-0.827-0.827-0.827c-0.010 0-0.019 0-0.029 0l0.001-0c-0.445 0.015-0.799 0.38-0.799 0.827s0.354 0.81 0.796 0.826l0.002 0zM19.155 12.543c0.009 0 0.019 0.001 0.030 0.001 0.457 0 0.827-0.37 0.827-0.827s-0.37-0.827-0.827-0.827c-0.010 0-0.019 0-0.029 0.001l0.001-0c-0.445 0.015-0.799 0.38-0.799 0.827s0.354 0.81 0.796 0.826l0.002 0zM19.155 20.025c0 0 0.001 0 0.001 0 0.457 0 0.827-0.37 0.827-0.827s-0.37-0.826-0.826-0.827h-0c-0 0-0.001 0-0.001 0-0.457 0-0.827 0.37-0.827 0.827s0.37 0.826 0.826 0.827h0z"></path>
</svg>
