<!-- Generated by IcoMoon.io -->
<svg version="1.1" xmlns="http://www.w3.org/2000/svg" width="32" height="32" viewBox="0 0 32 32">
<title>near</title>
<path fill="#000" d="M16 0c-8.8 0-16 7.2-16 16s7.2 16 16 16 16-7.2 16-16-7.2-16-16-16zM25 23.1c0 1.1-0.9 1.9-1.9 1.9h-0.4c-0.6 0-1.1-0.2-1.5-0.7l-11.2-13.4c-0.1-0.1-0.3 0-0.3 0.1v10c0 0.1 0.1 0.2 0.2 0.1l3.7-3.2c0.4-0.3 0.9 0.1 0.6 0.5l-3.8 5.6c-0.4 0.6-1 0.9-1.6 0.9-0.9 0.1-1.8-0.8-1.8-1.8v-14.2c0-1 0.9-1.9 1.9-1.9h0.4c0.6 0 1.1 0.2 1.5 0.7l11.2 13.4c0.1 0.1 0.3 0 0.3-0.1v-10c0-0.1-0.1-0.2-0.2-0.1l-3.8 3.1c-0.4 0.3-0.9-0.1-0.6-0.5l3.8-5.6c0.4-0.6 1-0.9 1.6-0.9 1 0 1.9 0.9 1.9 1.9v14.2z"></path>
</svg>
