<!-- Generated by IcoMoon.io -->
<svg version="1.1" xmlns="http://www.w3.org/2000/svg" width="32" height="32" viewBox="0 0 32 32">
<title>ngc</title>
<path d="M16 32c-8.837 0-16-7.163-16-16s7.163-16 16-16 16 7.163 16 16-7.163 16-16 16zM20.5 16.842l-2.608 0.134 2.326-5.925-7.084 0.976-0.634 6.532h1.55l-0.245 7.441zM15.002 23.34c0 0.13-0.11 0.236-0.246 0.236s-0.247-0.106-0.247-0.236v-1.75c0-0.13 0.11-0.236 0.247-0.236s0.246 0.105 0.246 0.235zM13.17 18.054l0.544-5.73c0.014-0.111 0.108-0.196 0.221-0.196 0.002 0 0.003 0 0.005 0h0.040c0.064 0 0.124 0.025 0.167 0.070s0.064 0.105 0.059 0.165l-0.473 5.22h1.41l-0.065 3.176c-0.007 0.144-0.125 0.258-0.27 0.258-0.002 0-0.004-0-0.006-0h-0.012c-0.074 0-0.145-0.029-0.197-0.080s-0.080-0.119-0.079-0.19l0.064-2.693zM13.17 11.454l6.907-0.808-3.383-1.414s0.352-2.559-1.974-3.232l-0.211 0.808s1.41 0.337 1.269 2.492z"></path>
</svg>
