<!-- Generated by IcoMoon.io -->
<svg version="1.1" xmlns="http://www.w3.org/2000/svg" width="32" height="32" viewBox="0 0 32 32">
<title>nxt</title>
<path d="M16 32c-8.837 0-16-7.163-16-16s7.163-16 16-16 16 7.163 16 16-7.163 16-16 16zM26.082 16.833c0.507 0 0.918-0.373 0.918-0.833v-1.667c0-0.46-0.41-0.833-0.918-0.833h-5.53c-0.507 0-0.918 0.373-0.918 0.833s0.411 0.833 0.918 0.833h4.612v0.834c0 0.46 0.411 0.833 0.918 0.833zM21.533 16.833h-0.7l-5.232-3.18c-0.149-0.096-0.331-0.153-0.526-0.153-0.002 0-0.004 0-0.006 0h-1.835c-0.507 0-0.918 0.373-0.918 0.833s0.41 0.833 0.918 0.833h1.542l5.352 3.24c0.127 0.060 0.27 0.094 0.423 0.094h2.816c0.507 0 0.918-0.373 0.918-0.834s-0.41-0.833-0.918-0.833h-1.835zM15.070 16.833h-1.554l-5.232-3.18c-0.149-0.096-0.331-0.153-0.526-0.153-0.002 0-0.004 0-0.005 0h-1.835c-0.507 0-0.918 0.373-0.918 0.833s0.41 0.833 0.918 0.833h1.542l5.352 3.24c0.126 0.060 0.27 0.094 0.423 0.094h1.835c0.507 0 0.918-0.373 0.918-0.834s-0.411-0.833-0.918-0.833zM5.918 16.833c-0.507 0-0.918 0.373-0.918 0.834s0.41 0.833 0.918 0.833h1.835c0.507 0 0.918-0.373 0.918-0.833s-0.411-0.834-0.918-0.834h-1.835z"></path>
</svg>
