<!-- Generated by IcoMoon.io -->
<svg version="1.1" xmlns="http://www.w3.org/2000/svg" width="32" height="32" viewBox="0 0 32 32">
<title>oax</title>
<path d="M19.544 19.969l-0.612-1.301h-1.382l0.626 1.33h2.962l2.141-2.91-0.779-1.070 0.779-1.070-2.141-2.91h-1.615l2.952 3.98zM16 32c-8.837 0-16-7.163-16-16s7.163-16 16-16 16 7.163 16 16-7.163 16-16 16zM14.090 18.668l0.594-1.296 1.121-2.354 1.121 2.315h1.415l-2.503-5.333-3.753 7.999h1.382zM24.070 16l2.93-3.997h-1.58l-2.141 2.91zM24.070 16l-0.79 1.088 2.14 2.91h1.58zM11.422 13.158c-0.645-0.71-1.572-1.155-2.603-1.155-0.022 0-0.044 0-0.066 0.001l0.003-0c-0.016-0-0.035-0-0.054-0-0.804 0-1.542 0.277-2.126 0.742l0.007-0.005 0.92 0.98c0.336-0.22 0.747-0.351 1.189-0.351 0.021 0 0.043 0 0.064 0.001l-0.003-0c0.014-0 0.031-0 0.048-0 0.687 0 1.304 0.297 1.731 0.768l0.002 0.002c0.462 0.508 0.722 1.188 0.723 1.896 0.001 0.022 0.001 0.047 0.001 0.073 0 0.706-0.276 1.348-0.726 1.823l0.001-0.001c-0.438 0.494-1.072 0.805-1.779 0.81h-0.001c-0.708-0.005-1.342-0.316-1.778-0.808l-0.002-0.003c-0.447-0.497-0.721-1.159-0.721-1.884 0-0.507 0.134-0.983 0.368-1.395l-0.007 0.014-0.921-0.98c-0.433 0.626-0.692 1.402-0.692 2.238 0 0.027 0 0.054 0.001 0.081l-0-0.004c-0.001 0.030-0.001 0.066-0.001 0.102 0 1.061 0.413 2.026 1.088 2.742l-0.002-0.002c0.656 0.712 1.593 1.157 2.633 1.157 0.012 0 0.024-0 0.036-0h-0.002c1.053 0 1.945-0.347 2.668-1.156 0.673-0.731 1.085-1.712 1.085-2.788 0-0.019-0-0.038-0-0.057l0 0.003c0.001-0.035 0.002-0.075 0.002-0.116 0-1.057-0.414-2.018-1.088-2.729l0.002 0.002z"></path>
</svg>
