<!-- Generated by IcoMoon.io -->
<svg version="1.1" xmlns="http://www.w3.org/2000/svg" width="32" height="32" viewBox="0 0 32 32">
<title>oot</title>
<path d="M16 32c-8.837 0-16-7.163-16-16s7.163-16 16-16 16 7.163 16 16-7.163 16-16 16zM16.346 24.993c0.216-0.021 0.624-0.040 1.026-0.104 2.118-0.34 3.918-1.294 5.335-2.902 1.917-2.176 2.638-4.722 2.14-7.58-0.394-2.258-1.521-4.107-3.334-5.511-2.030-1.573-4.342-2.16-6.88-1.788-1.912 0.272-3.585 1.139-4.863 2.405l0.001-0.001c-2.095 2.052-3.004 4.555-2.71 7.477 0.143 1.394 0.599 2.658 1.298 3.753l-0.021-0.035c0.025 0.035 0.040 0.079 0.040 0.126 0 0.026-0.005 0.052-0.013 0.075l0.001-0.002c-0.222 0.694-0.567 1.292-1.015 1.798l0.005-0.005c-0.71 0.805-0.3 2.047 0.747 2.26 0.386 0.079 0.774 0.025 1.158-0.025 0.954-0.135 1.815-0.438 2.585-0.881l-0.035 0.019c0.080-0.045 0.14-0.042 0.22-0.003 1.3 0.645 2.677 0.94 4.316 0.923zM9.916 22.605c0.104-0.225 0.2-0.424 0.29-0.626 0.204-0.469 0.364-0.952 0.479-1.451 0.020-0.079 0.032-0.17 0.032-0.264 0-0.238-0.076-0.459-0.204-0.639l0.002 0.003c-0.48-0.718-0.818-1.498-0.964-2.349-0.446-2.583 0.331-4.736 2.344-6.417 1.038-0.867 2.258-1.331 3.61-1.425 2.002-0.138 3.73 0.504 5.152 1.912 1.18 1.169 1.83 2.604 1.905 4.266 0.117 2.595-0.963 4.599-3.133 5.992-1.255 0.805-2.658 1.088-4.145 0.929-0.957-0.105-1.826-0.403-2.595-0.854l0.031 0.017c-0.371-0.213-0.718-0.2-1.070 0.048-0.458 0.332-0.986 0.609-1.551 0.804l-0.043 0.013c-0.037 0.012-0.075 0.022-0.14 0.040zM16.007 12.193c-0.029 0.052-0.045 0.077-0.059 0.104-0.38 0.768-0.76 1.535-1.137 2.305-0.038 0.077-0.080 0.126-0.172 0.139-0.577 0.079-1.152 0.163-1.728 0.245l-0.916 0.132-0.030 0.048c0.040 0.026 0.089 0.045 0.123 0.079 0.598 0.583 1.194 1.167 1.79 1.752 0.056 0.055 0.112 0.101 0.093 0.202-0.124 0.681-0.241 1.364-0.36 2.046l-0.104 0.632c0.059-0.028 0.090-0.041 0.121-0.058 0.747-0.392 1.494-0.783 2.238-1.18 0.104-0.056 0.181-0.050 0.282 0.003 0.74 0.397 1.482 0.787 2.224 1.178 0.032 0.017 0.067 0.028 0.113 0.046-0.003-0.040-0.003-0.063-0.006-0.084-0.143-0.845-0.282-1.69-0.432-2.533-0.022-0.123 0.010-0.197 0.094-0.278 0.478-0.458 0.953-0.92 1.427-1.382 0.151-0.147 0.295-0.303 0.45-0.462-0.036-0.008-0.065-0.016-0.094-0.020-0.84-0.122-1.678-0.245-2.518-0.362-0.112-0.015-0.18-0.053-0.23-0.161-0.193-0.415-0.398-0.823-0.6-1.234-0.185-0.377-0.37-0.755-0.569-1.157z"></path>
</svg>
