<!-- Generated by IcoMoon.io -->
<svg version="1.1" xmlns="http://www.w3.org/2000/svg" width="32" height="32" viewBox="0 0 32 32">
<title>ox</title>
<path d="M16 32c-8.837 0-16-7.163-16-16s7.163-16 16-16 16 7.163 16 16-7.163 16-16 16zM16.858 25.5c1.288 0 1.653-1.194 1.653-2.106s-0.065-1.325-0.065-1.737c0-0.65 0.328-2.273 0.923-2.953 1.159-1.325 1.889-2.512 1.889-4.234 1.008-0.521 2.79-0.999 3.476-1.78s1.266-1.89 1.266-3.476c0-0.405-0.086-0.977-0.258-1.715-0.395 1.234-1.003 2.080-1.824 2.54-1.201 0.674-2.555 1.173-3.712 1.173h-8.412c-1.157 0-2.51-0.5-3.712-1.173-0.82-0.46-1.429-1.306-1.824-2.54-0.172 0.739-0.258 1.311-0.258 1.716 0 1.585 0.58 2.693 1.266 3.474s2.468 1.26 3.476 1.78c0 1.723 0.73 2.91 1.889 4.235 0.595 0.68 0.923 2.303 0.923 2.953 0 0.412-0.065 0.825-0.065 1.737s0.365 2.106 1.653 2.106z"></path>
</svg>
