<!-- Generated by IcoMoon.io -->
<svg version="1.1" xmlns="http://www.w3.org/2000/svg" width="32" height="32" viewBox="0 0 32 32">
<title>pax</title>
<path d="M16 32c-8.837 0-16-7.163-16-16s7.163-16 16-16 16 7.163 16 16-7.163 16-16 16zM26.88 13.35l0.5 0.75c1-2.52 0.77-4.49-0.13-5.35-1.62-1.56-4-0.69-6.58-1.77-2.15-1.58-3.45-2-5.24-2-1.274 0.224-2.384 0.808-3.252 1.642l0.002-0.002c-0.087-0.005-0.189-0.009-0.292-0.009-1.417 0-2.697 0.59-3.606 1.537l-0.002 0.002c-1.060 1.25-1.3 4.68-1.46 5.55s-2 4.38-1.81 6.3c0.19 1.92 1.6 4 5.59 4.49 1.398 1.617 3.452 2.634 5.744 2.634 0.090 0 0.18-0.002 0.269-0.005l-0.013 0c2.090-0.22 5-3.42 6.69-4.69s7.71-2.37 4.12-8.28c-0.175-0.293-0.34-0.537-0.517-0.773l0.017 0.023-0.030-0.050zM17.75 22.15c-0.381 0.078-0.82 0.122-1.268 0.122-2.785 0-5.171-1.71-6.166-4.137l-0.016-0.044c-0.22-0.86-0.65-5.24 3-7.41 2.72-1.54 6.55-1.75 8.16 1.84s1.020 8.62-3.71 9.63z"></path>
</svg>
