<!-- Generated by IcoMoon.io -->
<svg version="1.1" xmlns="http://www.w3.org/2000/svg" width="32" height="32" viewBox="0 0 32 32">
<title>pirl</title>
<path d="M16 32c-8.837 0-16-7.163-16-16s7.163-16 16-16 16 7.163 16 16-7.163 16-16 16zM11.594 16.105c0.092 0.254 0.224 0.492 0.391 0.705l0.031 0.040-0.045-0.054c0.058 0.083 0.12 0.162 0.187 0.237l0.092 0.092c0.036 0.035 0.065 0.070 0.094 0.095l1.996 2.011c0.35 0.352 0.86 0.49 1.337 0.36 0.477-0.128 0.85-0.504 0.978-0.985s-0.009-0.994-0.358-1.346l-3.897-3.927c0.002-0.002 0.005-0.005 0.007-0.007l0-0 0.060-0.051 3.943-3.944 0.024 0.026 0.009 0.010 7.37 7.44c0.217 0.142 0.483 0.226 0.769 0.226 0.395 0 0.752-0.161 1.010-0.421l0-0c0.48-0.483 0.543-1.244 0.15-1.8l-8.342-8.404c-0.25-0.252-0.596-0.408-0.978-0.408-0.381 0-0.726 0.155-0.975 0.405l-2.547 2.549-0.091 0.080c-0.060 0.055-0.122 0.106-0.187 0.154l-3.145 3.146c-0.251 0.253-0.406 0.601-0.406 0.986s0.155 0.733 0.406 0.986l-0-0 2.493 2.518c-0.156-0.206-0.284-0.444-0.372-0.7l-0.005-0.018zM19.74 18.678c-0.002 0.002-0.004 0.004-0.006 0.006l-0 0-0.058 0.047-3.935 3.935-0.025-0.030-7.384-7.457c-0.246-0.229-0.577-0.37-0.941-0.37-0.359 0-0.686 0.137-0.932 0.361l0.001-0.001c-0.283 0.258-0.46 0.629-0.46 1.041 0 0.315 0.103 0.605 0.278 0.84l-0.003-0.004 8.477 8.547c0.54 0.543 1.414 0.543 1.954 0l2.624-2.624c0.060-0.053 0.124-0.104 0.19-0.15l3.148-3.149c0.54-0.544 0.54-1.427 0-1.972l-2.611-2.627c0.011 0.015 0.032 0.045 0.053 0.075l0.011 0.017c-0.048-0.069-0.095-0.128-0.146-0.185l0.002 0.002-0.091-0.092c-0.037-0.035-0.066-0.070-0.094-0.095l-1.997-2.010c-0.25-0.255-0.598-0.412-0.983-0.412-0.761 0-1.378 0.617-1.378 1.378 0 0.005 0 0.010 0 0.015v-0.001c0 0.37 0.145 0.725 0.405 0.986z"></path>
</svg>
