<!-- Generated by IcoMoon.io -->
<svg version="1.1" xmlns="http://www.w3.org/2000/svg" width="32" height="32" viewBox="0 0 32 32">
<title>pivx</title>
<path d="M16 32c-8.837 0-16-7.163-16-16s7.163-16 16-16 16 7.163 16 16-7.163 16-16 16zM17.153 11.741h-7.153v2.255h7.153v-2.255zM23 12.831l-0.020-0.5c-0.225-2.92-2.433-4.831-5.52-4.831h-6.41v2.432l6.231-0.014c1.92 0 3.070 1.076 3.070 2.913 0 1.873-1.161 2.976-3.096 2.976h-5.924v8.693h2.599v-6.274h3.542c3.238 0 5.528-2.187 5.528-5.395z"></path>
</svg>
