<!-- Generated by IcoMoon.io -->
<svg version="1.1" xmlns="http://www.w3.org/2000/svg" width="32" height="32" viewBox="0 0 32 32">
<title>powr</title>
<path d="M16 32c-8.837 0-16-7.163-16-16s7.163-16 16-16 16 7.163 16 16-7.163 16-16 16zM27.995 15.954c-0.019-0.082-0.086-0.145-0.169-0.158l-0.001-0-2.258-2.263 0.894-3.344c0.004-0.016 0.007-0.034 0.007-0.053 0-0.095-0.064-0.174-0.151-0.198l-0.001-0-3.356-0.902-0.84-3.143c-0.002-0.015-0.006-0.029-0.010-0.041l0 0.001-0.024-0.087c-0.024-0.089-0.104-0.153-0.198-0.153-0.019 0-0.037 0.003-0.054 0.007l0.001-0-3.282 0.882-2.437-2.443c-0.038-0.036-0.089-0.058-0.145-0.058s-0.107 0.022-0.145 0.058l0-0-2.408 2.414-3.174-0.853c-0.016-0.005-0.035-0.007-0.054-0.007-0.095 0-0.175 0.064-0.198 0.152l-0 0.001-0.874 3.27-3.355 0.902c-0.089 0.024-0.153 0.104-0.153 0.198 0 0.019 0.003 0.038 0.008 0.055l-0-0.001 0.865 3.236-2.422 2.428c-0.037 0.037-0.060 0.089-0.060 0.146s0.023 0.108 0.060 0.146l2.49 2.497-0.864 3.237c-0.004 0.016-0.007 0.034-0.007 0.053 0 0.095 0.064 0.174 0.151 0.198l0.001 0 3.208 0.861 0.885 3.31c0.024 0.089 0.104 0.153 0.198 0.153 0.019 0 0.037-0.003 0.054-0.007l-0.001 0 3.282-0.882 2.369 2.375c0.037 0.037 0.088 0.061 0.145 0.061s0.108-0.023 0.145-0.061l0-0 2.397-2.404 3.39 0.911c0.016 0.005 0.035 0.007 0.054 0.007 0.094 0 0.174-0.064 0.197-0.151l0-0.001 0.885-3.31 3.209-0.862c0.088-0.025 0.152-0.104 0.152-0.199 0-0.019-0.003-0.037-0.007-0.055l0 0.001-0.894-3.345 2.306-2.312 0.076-0.036c0.071-0.034 0.119-0.105 0.119-0.187 0-0.015-0.002-0.030-0.005-0.045l0 0.001zM25.376 18.074l-0.171-0.641 1.517-0.707zM25.867 21.501l-2.1-1.231 1.397-1.401zM23.657 20.681l2.010 1.179-2.505 0.673zM21.859 25.817l-1.25-2.173 1.973-0.53zM19.355 24.692l1.482 1.043-1.989-0.534zM16.176 27.298v-2.39l1.88 0.505zM15.766 24.945v2.353l-1.851-1.856zM10.577 25.913l1.182-2.050 1.364 1.367zM9.497 23.114l0.735 0.198-0.17 1.916zM6.407 21.859l2.010-1.193 0.5 1.867zM8.214 20.309l-2.002 1.188 0.674-2.52zM4.734 16.239h2.459l-0.52 1.944zM6.814 14.664l-1.843 0.858 1.634-1.638zM6.142 10.562l2.025 1.174-1.35 1.353zM8.48 11.422l-0.013 0.013-2.12-1.23 2.649-0.711zM10.252 6.382l1.171 2.034-1.847 0.496zM12.594 7.298l-1.427-1.005 1.916 0.515zM15.766 4.7v2.403l-1.89-0.508zM16.176 7.14v-2.44l1.92 1.924zM21.572 6.116l-1.246 2.163-1.438-1.442zM21.875 8.744l0.145-1.639 0.483 1.807zM25.725 10.204l-2.131 1.202-0.511-1.912zM23.8 11.761l2.139-1.208-0.707 2.643zM27.242 15.792h-2.279l0.482-1.801zM24.876 16.203h1.991l-1.77 0.825zM24.566 17.275l0.086-0.32 0.067 0.25zM24.428 17.793l0.399-0.186 0.214 0.802-1.062 1.065zM23.187 20.85l-0.483 1.805-1.8 0.483zM20.32 23.143l-1.56-2.709 5.183-2.415-0.544 2.037zM20.232 23.813l0.962 1.67-1.544-1.087zM19.141 24.038l0.391-0.106-0.223 0.224zM18.624 24.176l0.39 0.275-0.623 0.626-1.56-0.42zM15.247 24.658l-1.667 0.448-1.22-1.224zM10.69 22.79l0.297 0.298-0.316-0.085zM10.311 22.41l-0.042 0.485-0.895-0.24-0.432-1.617zM8.15 19.663l-1.142-1.145 0.418-1.563zM7.125 15.828h-1.837l1.633-0.761zM7.589 14.755l-0.163 0.612-0.127-0.476zM7.728 14.238l-0.537 0.25-0.251-0.94 1.328-1.332zM9.060 10.84l0.393-1.469 1.466-0.394zM11.744 8.15l-0.92-1.596 1.476 1.039zM12.904 8.018l-0.613 0.165 0.35-0.35zM13.421 7.879l-0.486-0.342 0.606-0.606 1.706 0.458zM16.831 7.389l1.6-0.43 1.17 1.174zM21.408 9.363l-0.435-0.436 0.463 0.124zM21.786 9.743l0.052-0.584 0.787 0.212 0.443 1.657zM23.86 12.403l1.25 1.253-0.458 1.71zM18.086 19.264l1.587-2.828 0.998 1.689c0.036 0.060 0.102 0.1 0.176 0.1 0.107 0 0.194-0.082 0.204-0.186l0-0.001 0.163-1.834h3.215l-0.347 1.298-5.528 2.575zM17.302 20.661l0.55-0.98 0.329 0.57zM13.816 20.291l0.52-0.903 3.23-0.036-0.933 1.663c-0.016 0.029-0.026 0.064-0.026 0.1 0 0.114 0.092 0.206 0.206 0.206 0.031 0 0.060-0.007 0.086-0.019l-0.001 0.001 1.489-0.694 1.599 2.777-1.283 0.344zM13.61 20.648l4.576 3.221-2.147 0.577-3.998-1.074zM13.859 19.393l-0.38 0.66-0.917-0.645zM11.269 16.239h1.015l1.62 2.742-1.983 0.023c-0.113 0-0.205 0.092-0.205 0.205 0 0.070 0.035 0.132 0.088 0.169l0.001 0 1.468 1.032-1.602 2.782-0.934-0.935zM10.859 16.239l-0.5 5.638-1.63-1.633-1.070-4.005zM12.041 15.828h-0.735l0.096-1.082zM13.491 12.006l0.51 0.885-1.568 2.793-1.002-1.697c-0.036-0.061-0.102-0.101-0.177-0.101-0.107 0-0.195 0.082-0.204 0.187l-0 0.001-0.155 1.754h-3.167l0.347-1.298zM13.285 11.649l-5.072 2.363 0.635-2.377 2.808-2.815zM18.292 11.811l-0.483 0.838-3.222 0.036 0.936-1.668c0.016-0.029 0.026-0.064 0.026-0.1 0-0.114-0.092-0.206-0.206-0.206-0.031 0-0.060 0.007-0.086 0.019l0.001-0.001-1.6 0.746-1.612-2.8 1.296-0.349zM18.498 11.453l-4.64-3.265 2.181-0.586 4.050 1.088zM18.286 12.643l0.343-0.595 0.827 0.583zM20.802 16.204l-0.103 1.162-0.686-1.162zM14.234 12.474l-0.37-0.642 0.99-0.46zM17.797 18.941c-0.007-0.001-0.013-0.003-0.020-0.003l-3.398 0.038-1.704-2.883 1.68-2.994 3.326-0.037 0.005 0.011 1.745 2.954zM21.739 10.277l1.541 1.545 1.062 3.971h-3.092zM20.839 15.793h-1.070l-1.616-2.737 1.945-0.021c0.113-0.001 0.204-0.092 0.204-0.205 0-0.070-0.035-0.132-0.088-0.169l-0.001-0-1.378-0.97 1.579-2.743 0.947 0.95zM21.472 8.636l-0.76-0.205 0.92-1.598zM10.634 23.42l0.784 0.21-0.949 1.648z"></path>
</svg>
