<!-- Generated by IcoMoon.io -->
<svg version="1.1" xmlns="http://www.w3.org/2000/svg" width="32" height="32" viewBox="0 0 32 32">
<title>ppp</title>
<path d="M16 32c-8.837 0-16-7.163-16-16s7.163-16 16-16 16 7.163 16 16-7.163 16-16 16zM23.312 7.044c-0.228-0.235-0.548-0.381-0.901-0.381s-0.673 0.146-0.901 0.381l-0 0-2.327 2.386-2.983-3.053c-0.059-0.061-0.125-0.116-0.196-0.163l-0.004-0.003c-0.184-0.132-0.415-0.211-0.663-0.211-0.324 0-0.616 0.134-0.825 0.35l-0.025 0.026h-0.001l-0.001 0.002-7.624 7.819c-0.005 0.005-0.009 0.010-0.014 0.015l-0 0-0.016 0.015c-0.44 0.45-0.44 1.181 0 1.632l2.306 2.354c0.44 0.443 1.146 0.44 1.582-0.007 0.204-0.21 0.329-0.497 0.329-0.814 0-0.313-0.123-0.597-0.323-0.807l0 0-1.45-1.483 6.005-6.16 3.118 3.195c0.382 0.39 0.97 0.477 1.442 0.21 0.132-0.067 0.245-0.151 0.342-0.25l3.13-3.208c0.23-0.239 0.372-0.564 0.372-0.923s-0.142-0.684-0.373-0.923l0 0zM25.17 16.146l-0.028-0.029-0.003-0.002-0.002-0.002-2.273-2.325c-0.201-0.204-0.479-0.33-0.788-0.33-0.312 0-0.593 0.129-0.794 0.337l-0 0c-0.204 0.21-0.329 0.497-0.329 0.814 0 0.313 0.123 0.597 0.323 0.807l-0-0 1.45 1.483-5.994 6.144-3.126-3.198c-0.217-0.225-0.522-0.365-0.859-0.365-0.093 0-0.183 0.011-0.269 0.030l0.008-0.002c-0.249 0.050-0.478 0.176-0.656 0.362l-3.13 3.208c-0.324 0.329-0.451 0.81-0.334 1.262s0.462 0.805 0.904 0.925 0.911-0.010 1.233-0.342l2.313-2.378 2.917 2.984c0.211 0.288 0.548 0.473 0.928 0.473 0.324 0 0.617-0.134 0.825-0.35l0-0 7.654-7.848c0.005-0.005 0.010-0.010 0.015-0.015l0-0 0.016-0.015c0.204-0.21 0.331-0.497 0.331-0.813s-0.127-0.604-0.332-0.814l0 0z"></path>
</svg>
