<!-- Generated by IcoMoon.io -->
<svg version="1.1" xmlns="http://www.w3.org/2000/svg" width="32" height="32" viewBox="0 0 32 32">
<title>qiwi</title>
<path d="M16 32c-8.837 0-16-7.163-16-16s7.163-16 16-16 16 7.163 16 16-7.163 16-16 16zM22.59 19.445c-0.025-0.22-0.152-0.724-0.482-0.853-0.165-0.065-0.305-0.013-0.368 0.103-0.102 0.181-0.026 0.53 0.165 0.84 0.19 0.311 0.368 0.466 0.495 0.466s0.241-0.155 0.19-0.556zM20.813 20.325c-0.203-0.182-0.432-0.272-0.635-0.272-0.008-0-0.018-0.001-0.027-0.001-0.153 0-0.289 0.070-0.379 0.18l-0.001 0.001c-0.228 0.285-0.126 0.802 0.23 1.113 0.152 0.142 0.38 0.22 0.596 0.22 0.005 0 0.010 0 0.015 0 0.202 0 0.382-0.090 0.504-0.232l0.001-0.001c0.204-0.285 0.090-0.672-0.304-1.009zM7 14.894c0 4.912 3.91 8.894 8.734 8.894 1.283 0 2.552-0.245 4.419-0.259 1.663 0 3.491 0.595 5.497 2.405 0.203 0.181 0.47-0.052 0.292-0.271-1.968-2.547-3.796-3.025-5.624-3.44-2.235-0.503-3.377-1.77-4.177-3.18-0.153-0.284-0.229-0.232-0.242 0.13-0.002 0.064-0.003 0.139-0.003 0.215 0 0.486 0.043 0.962 0.125 1.424l-0.007-0.049h-0.267c-3.186 0-5.776-2.637-5.776-5.883-0.001-3.244 2.589-5.88 5.776-5.88s5.777 2.637 5.777 5.882c0 0.233-0.013 0.466-0.038 0.686-0.432-0.078-1.257-0.090-1.841-0.039-0.216 0.026-0.19 0.129-0.025 0.155 1.904 0.362 3.212 1.564 3.516 3.75 0.013 0.051 0.076 0.064 0.102 0.025 0.774-1.308 1.231-2.882 1.231-4.563 0-0 0-0 0-0.001v0c0.001-4.913-3.909-8.895-8.735-8.895-4.824 0-8.734 3.982-8.734 8.894z"></path>
</svg>
