<!-- Generated by IcoMoon.io -->
<svg version="1.1" xmlns="http://www.w3.org/2000/svg" width="32" height="32" viewBox="0 0 32 32">
<title>qlc</title>
<path d="M16 32c-8.837 0-16-7.163-16-16s7.163-16 16-16 16 7.163 16 16-7.163 16-16 16zM16.49 5.003c-0.173 0-0.346-0.007-0.519 0.001-0.502 0.025-0.862 0.383-0.876 0.864-0.014 0.486 0.316 0.869 0.814 0.925 0.654 0.074 1.322 0.076 1.962 0.213 4.278 0.914 7.24 4.532 7.338 8.92 0.013 0.595 0.36 0.978 0.89 0.98 0.54 0 0.932-0.404 0.9-1.004-0.038-0.68-0.074-1.367-0.208-2.031-1.019-5.032-5.172-8.592-10.301-8.868zM15.532 27c0.257-0.017 0.524 0.002 0.77-0.059 0.384-0.095 0.636-0.542 0.581-0.942-0.058-0.423-0.406-0.718-0.84-0.763-0.76-0.080-1.536-0.11-2.272-0.292-4.080-1.006-6.923-4.624-6.996-8.828-0.001-0.213-0.051-0.414-0.141-0.592l0.003 0.008c-0.18-0.337-0.592-0.488-0.947-0.397-0.426 0.11-0.72 0.44-0.689 0.901 0.050 0.753 0.103 1.513 0.245 2.252 0.934 4.833 5.362 8.564 10.285 8.712zM15.984 11.997c-2.634 0.008-4.546 2.53-3.847 5.076 0.468 1.704 2.086 2.956 3.802 2.94 0.546-0.004 0.949-0.382 0.953-0.893 0.004-0.502-0.372-0.87-0.907-0.899-0.176-0.009-0.34-0.031-0.5-0.066l0.020 0.004c-1.153-0.249-1.893-1.4-1.664-2.582 0.224-1.157 1.344-1.939 2.496-1.743 1.049 0.166 1.845 1.053 1.867 2.13l0 0.002c0.014 0.384 0.16 0.67 0.5 0.843 0.627 0.32 1.305-0.146 1.3-0.887-0.015-2.147-1.843-3.932-4.020-3.925zM23.539 15.754c-0.030-0.283-0.051-0.53-0.083-0.777-0.465-3.657-3.671-6.497-7.342-6.504-0.61-0.002-1.012 0.35-1.017 0.888s0.395 0.89 0.996 0.918c2.458 0.117 4.191 1.316 5.204 3.551 0.306 0.676 0.427 1.4 0.434 2.146 0.005 0.49 0.316 0.849 0.754 0.92 0.419 0.070 0.849-0.165 0.98-0.569 0.060-0.19 0.054-0.402 0.074-0.573zM8.478 16.215c0.032 1.878 0.767 3.578 1.951 4.855l-0.004-0.005c1.485 1.618 3.342 2.443 5.544 2.463 0.416 0.004 0.72-0.206 0.859-0.565 0.246-0.638-0.205-1.2-0.98-1.22-2.373-0.056-4.383-1.551-5.196-3.643l-0.013-0.039c-0.232-0.591-0.37-1.275-0.378-1.991l-0-0.003c-0.012-0.719-0.653-1.157-1.265-0.874-0.465 0.214-0.57 0.615-0.518 1.022zM20.012 19.035c-0.044-0.106-0.078-0.32-0.2-0.45-0.467-0.509-0.936-0.981-1.424-1.434l-0.016-0.014c-0.339-0.31-0.893-0.242-1.203 0.090-0.305 0.328-0.335 0.851-0.024 1.183 0.45 0.482 0.917 0.95 1.4 1.397 0.268 0.247 0.607 0.271 0.94 0.115 0.337-0.157 0.49-0.44 0.527-0.887z"></path>
</svg>
