<!-- Generated by IcoMoon.io -->
<svg version="1.1" xmlns="http://www.w3.org/2000/svg" width="32" height="32" viewBox="0 0 32 32">
<title>rdd</title>
<path fill="#000" d="M18.886 7.093c-1.046-0.386-2.253-0.609-3.513-0.609-0.004 0-0.009 0-0.013 0h0.001c-5.721 0-10.361 4.593-10.361 10.258s4.639 10.258 10.361 10.258c5.723 0 10.362-4.593 10.362-10.258 0-0.003 0-0.007 0-0.011 0-1.361-0.268-2.659-0.755-3.845l0.025 0.068c1.208-0.776 1.997-2.111 1.999-3.632v-0c0-2.386-1.955-4.321-4.365-4.321-0.003 0-0.006 0-0.009 0-1.572 0-2.95 0.829-3.72 2.074l-0.011 0.019zM18.296 8.779c-0.021 0.162-0.034 0.349-0.034 0.539 0 0.24 0.020 0.475 0.057 0.704l-0.003-0.025c-0.324-0.193-0.708-0.385-1.105-0.551l-0.062-0.023 0.238-1.055c0.315 0.13 0.618 0.267 0.909 0.41zM23.226 13.603c0.084 0.174 0.163 0.35 0.238 0.53l-0.931 0.648c-0.239-0.489-0.459-0.883-0.697-1.266l0.036 0.062c0.229 0.042 0.492 0.066 0.761 0.066 0.209 0 0.415-0.014 0.616-0.043l-0.023 0.003zM16 32c-8.837 0-16-7.163-16-16s7.163-16 16-16 16 7.163 16 16-7.163 16-16 16z"></path>
<path fill="#000" opacity="0.6" d="M18.886 7.093c-0.299 0.483-0.508 1.053-0.588 1.665l-0.002 0.021c-0.209-0.109-0.509-0.247-0.813-0.375l-0.096-0.036-0.238 1.055c0.408 0.167 0.796 0.359 1.166 0.574v0.003c1.454 0.847 2.622 2.061 3.554 3.577h0.003c0.235 0.383 0.455 0.784 0.661 1.204l0.93-0.647c-0.098-0.242-0.178-0.416-0.262-0.588l0.025 0.057c0.665-0.093 1.263-0.322 1.784-0.66l-0.017 0.010c0.471 1.173 0.73 2.45 0.73 3.79 0 5.663-4.64 10.257-10.363 10.257s-10.36-4.593-10.36-10.258c0-5.665 4.639-10.258 10.361-10.258 1.238 0 2.425 0.215 3.525 0.609z"></path>
</svg>
