<!-- Generated by IcoMoon.io -->
<svg version="1.1" xmlns="http://www.w3.org/2000/svg" width="32" height="32" viewBox="0 0 32 32">
<title>ric</title>
<path d="M10.144 20.024h-3.050c-0 0-0.001 0-0.001 0-0.051 0-0.093 0.042-0.093 0.093 0 0 0 0 0 0v0 0.637c0 0.051 0.042 0.093 0.093 0.093h2.514c-0.257 0.351-0.918 1.379-1.568 2.415l-0.432 0.738h7.319c-1.909-0.936-2.887-1.987-2.936-3.153h2.749c0.051 0 0.093-0.042 0.093-0.093v0-0.637c0-0.051-0.042-0.093-0.093-0.093v0h-2.631c0.097-0.364 0.252-0.8 0.46-1.28h3.010c0.051 0 0.093-0.042 0.093-0.093v0-0.636c0-0.051-0.042-0.093-0.093-0.093v0h-2.624c1.52-3.012 4.687-7.038 8.405-7.038 2.368 0 2.412 2.103 3.59 2.103s2.051-0.314 2.051-0.914c0-0.6-0.746-2.788-3.543-2.788-4.655 0-6.57 3.564-8.811 3.564-1.9 0-2.75-1.645-2.75-2.604 0-1.435 1.63-2.925 2.377-2.97 0.279-0.018 0.186-0.275-0.42-0.275-1.306 0-3.543 1.68-3.543 3.062 0 2.542 2.145 3.473 3.45 3.473 0.66 0 0.7 0.091 0.7 0.274 0 0.12-0.97 1.284-2.906 4.113h-3.622c-0.051 0-0.093 0.042-0.093 0.093v0 0.636c0 0.052 0.042 0.094 0.093 0.094h3.064c-0.268 0.398-0.552 0.824-0.852 1.28zM16 32c-8.837 0-16-7.163-16-16s7.163-16 16-16 16 7.163 16 16-7.163 16-16 16z"></path>
</svg>
