<!-- Generated by IcoMoon.io -->
<svg version="1.1" xmlns="http://www.w3.org/2000/svg" width="32" height="32" viewBox="0 0 32 32">
<title>rsr</title>
<path fill="#000" d="M19.8 11.9v2.2c0 0.6-0.5 1-1 1h-3.8c-0.1 0-0.2-0.1-0.2-0.2v-3.7c0-0.1 0.1-0.2 0.2-0.2h3.8c0.5 0 0.9 0.4 1 0.9zM32 16c0 8.8-7.2 16-16 16s-16-7.2-16-16 7.2-16 16-16 16 7.2 16 16zM23.4 23.8l-2.5-5.6c-0.1-0.1 0-0.3 0.1-0.3 1.2-0.5 2-1.6 2-3v-3.6c0-1.9-1.6-3.4-3.4-3.4h-7.8c-0.1 0-0.2 0.1-0.2 0.2v2.7h-2.9c-0.1 0-0.2 0.1-0.2 0.2v2.5c0 0.1 0.1 0.2 0.2 0.2h2.9v1.5h-2.9c-0.1 0-0.2 0.1-0.2 0.2v2.4c0 0.1 0.1 0.2 0.2 0.2h2.9v5.9c0 0.1 0.1 0.2 0.2 0.2h2.8c0.1 0 0.2-0.1 0.2-0.2v-5.5c0-0.1 0.1-0.2 0.2-0.2h2.2c0.1 0 0.2 0 0.2 0.1l2.5 5.7c0 0.1 0.1 0.1 0.2 0.1h3c0.2 0 0.3-0.2 0.3-0.3z"></path>
</svg>
