<!-- Generated by IcoMoon.io -->
<svg version="1.1" xmlns="http://www.w3.org/2000/svg" width="32" height="32" viewBox="0 0 32 32">
<title>rvn</title>
<path d="M16 32c-8.837 0-16-7.163-16-16s7.163-16 16-16 16 7.163 16 16-7.163 16-16 16zM9.5 27l5.649-4.188-2.031-12.6-3.618 16.788zM13.188 10.115l2.054 12.649 3.443 0.060-5.497-12.71zM13.27 10.019l5.532 12.805 1.669-11.782-7.201-1.023zM18.93 22.643l2.685-10.145-1.062-1.348-1.623 11.493zM20.447 10.933l-0.7-3.080-6.326 2.081 7.026 1zM13.387 9.826l6.36-2.082-2.054-0.903-4.307 2.985zM13.281 9.79l4.342-2.997-3.513 1.408-0.829 1.589zM14.111 8.13l3.29-1.337-2.894 0.096-0.397 1.24zM14.484 6.793l2.94-0.096-2.007-0.903-0.933 1zM15.476 5.734l3.21 1.432-1.81-2.118-1.4 0.686zM17.075 5.132l1.715 2.046 0.374-1.131-2.090-0.915zM18.86 7.214l0.852 0.434-0.467-1.589-0.385 1.155zM16.923 5l2.232 0.918c0.005 0.002 0.011 0.003 0.018 0.003 0.026 0 0.048-0.021 0.048-0.048 0-0.012-0.004-0.023-0.012-0.031l0 0-0.757-0.842h-1.53zM19.339 5.963l0.467 1.733 2.642-0.725c0.032-0.008 0.055-0.036 0.055-0.070s-0.023-0.062-0.055-0.070l-0-0-3.11-0.868z"></path>
</svg>
