<!-- Generated by IcoMoon.io -->
<svg version="1.1" xmlns="http://www.w3.org/2000/svg" width="32" height="32" viewBox="0 0 32 32">
<title>san</title>
<path d="M16 32c-8.837 0-16-7.163-16-16s7.163-16 16-16 16 7.163 16 16-7.163 16-16 16zM27 16.039c0.045-6.043-4.87-10.998-10.95-11.039-6.037-0.040-11 4.85-11.050 10.886-0.049 6.094 4.838 11.067 10.923 11.114 6.080 0.045 11.030-4.853 11.077-10.961zM5.796 16.004c-0.010-5.514 4.542-10.106 9.944-10.198 5.587-0.096 10.44 4.325 10.462 10.184 0.020 5.626-4.58 10.195-10.217 10.183-5.631-0.012-10.178-4.55-10.189-10.17zM18.681 11.228c-1.213-0.642-2.43-0.777-3.685-0.48-0.67 0.152-1.208 0.612-1.465 1.219l-0.005 0.014c-0.175 0.378-0.276 0.821-0.276 1.287 0 1.012 0.48 1.913 1.224 2.486l0.007 0.005c0.29 0.226 0.623 0.396 0.921 0.612 0.447 0.325 0.926 0.622 1.308 1.012 0.495 0.506 0.595 1.17 0.28 1.8-0.315 0.624-0.956 0.718-1.568 0.621-0.642-0.102-1.266-0.318-1.949-0.498l-0.469 1.364c1.070 0.72 2.978 0.944 4.098 0.49 0.732-0.297 1.303-0.784 1.544-1.556 0.405-1.302 0.23-2.51-0.757-3.506-0.364-0.367-0.823-0.64-1.24-0.955-0.453-0.342-0.94-0.647-1.354-1.032-0.403-0.376-0.383-0.895-0.215-1.382 0.164-0.475 0.601-0.585 1.023-0.544 0.71 0.070 1.413 0.22 2.17 0.344 0.107-0.34 0.253-0.804 0.408-1.302zM10.601 15.818c0-0.005 0-0.012 0-0.018 0-0.691-0.556-1.252-1.244-1.26h-0.001c0 0 0 0 0 0-0.697 0-1.266 0.551-1.294 1.241l-0 0.003c-0.016 0.697 0.583 1.307 1.282 1.304 0.696-0.007 1.258-0.573 1.258-1.27 0-0 0-0 0-0v0zM22.694 14.575c-0.77 0-1.3 0.503-1.3 1.235 0 0.7 0.556 1.268 1.251 1.278 0.71 0.010 1.285-0.575 1.276-1.297-0.010-0.702-0.529-1.217-1.227-1.216z"></path>
</svg>
