<!-- Generated by IcoMoon.io -->
<svg version="1.1" xmlns="http://www.w3.org/2000/svg" width="32" height="32" viewBox="0 0 32 32">
<title>sberbank</title>
<path d="M16 32c-8.837 0-16-7.163-16-16s7.163-16 16-16 16 7.163 16 16-7.163 16-16 16zM22.681 7.368l-10.987 6.249-5.236-2.977-0.54 1.073 5.776 3.325 11.932-6.812-0.945-0.858zM20.279 6l-8.585 4.908-3.806-2.172-0.782 0.938 4.588 2.602 9.853-5.632-1.267-0.644zM24.463 9.111l-12.769 7.295-6.208-3.54-0.297 1.18 6.505 3.701 13.47-7.697-0.701-0.939zM26.406 12.571l-0.594-1.502-14.118 8.046-6.694-3.782v0.724c0 1.465 0.293 2.915 0.864 4.265 0.571 1.358 1.365 2.517 2.347 3.485l0.001 0.001c0.979 0.951 2.133 1.729 3.408 2.279l0.074 0.028c1.368 0.59 2.799 0.885 4.293 0.885 1.476 0 2.906-0.295 4.292-0.885 1.363-0.564 2.528-1.343 3.511-2.309l-0.002 0.002c0.971-0.977 1.763-2.133 2.32-3.414l0.028-0.072 0.27-0.724c0.396-1.144 0.594-2.325 0.594-3.54 0-1.217-0.198-2.378-0.594-3.487z"></path>
</svg>
