<!-- Generated by IcoMoon.io -->
<svg version="1.1" xmlns="http://www.w3.org/2000/svg" width="32" height="32" viewBox="0 0 32 32">
<title>sib</title>
<path d="M16 32c-8.837 0-16-7.163-16-16s7.163-16 16-16 16 7.163 16 16-7.163 16-16 16zM16 4c-6.627 0-12 5.373-12 12s5.373 12 12 12 12-5.373 12-12c0-6.627-5.373-12-12-12v0zM20.176 20.527h-0.488v2.732h-1.64v-2.732h-2.497v-1.015h2.537v-1.834c-0.903 0.512-1.983 0.814-3.134 0.814-0.424 0-0.838-0.041-1.238-0.119l0.041 0.007c-0.82-0.195-1.639-0.643-2.068-1.385-0.37-0.647-0.588-1.421-0.588-2.247 0-0.047 0.001-0.094 0.002-0.14l-0 0.007v-4.332h1.659v4.488c0.039 0.975 0.663 1.951 1.62 2.244 0.336 0.080 0.721 0.127 1.117 0.127 0.949 0 1.837-0.265 2.592-0.725l-0.022 0.012c0-1.366-0.020-3.414 0-6.146h1.678v9.23h0.43v1.014z"></path>
</svg>
