<!-- Generated by IcoMoon.io -->
<svg version="1.1" xmlns="http://www.w3.org/2000/svg" width="32" height="32" viewBox="0 0 32 32">
<title>snt</title>
<path d="M16 32c-8.837 0-16-7.163-16-16s7.163-16 16-16 16 7.163 16 16-7.163 16-16 16zM13.3 15.020c2.25 0 3.315 0.435 5.564 0.435 3.047 0 5.136-1.244 5.136-3.819 0-2.574-1.74-3.818-4.28-3.818-4.148 0-7.632 3.165-8.084 7.346 0.485-0.091 1.042-0.143 1.612-0.143 0.018 0 0.037 0 0.055 0h-0.003zM13.136 16.545c-3.047 0-5.136 1.245-5.136 3.819s1.74 3.818 4.28 3.818c4.148 0 7.632-3.165 8.084-7.346-0.486 0.092-1.046 0.144-1.617 0.144-0.017 0-0.033-0-0.049-0h0.003c-2.25 0-3.315-0.435-5.564-0.435z"></path>
</svg>
