<!-- Generated by IcoMoon.io -->
<svg version="1.1" xmlns="http://www.w3.org/2000/svg" width="32" height="32" viewBox="0 0 32 32">
<title>spank</title>
<path d="M16 32c-8.837 0-16-7.163-16-16s7.163-16 16-16 16 7.163 16 16-7.163 16-16 16zM8.459 22.141l0.785 2.53 1.412-0.425-0.044-0.143 1.499 2.189 1.224-0.814-0.104-0.15 2.097 1.672 0.93-1.13-0.161-0.128 2.54 0.96 0.529-1.358-0.135-0.050 2.654 0.182 0.103-1.45-0.205-0.015 2.652-0.603-0.333-1.417-0.24 0.055 2.398-1.365-0.738-1.26-0.23 0.132 1.908-2.016-1.080-0.992-0.18 0.19 1.23-2.482-1.328-0.638-0.107 0.218 0.436-2.712-1.459-0.228-0.030 0.19-0.43-2.672-1.458 0.228 0.010 0.065-1.144-2.314-1.327 0.638 0.038 0.076-1.786-1.886-1.080 0.992 0.090 0.094-2.294-1.304-0.738 1.26 0.165 0.094-2.629-0.598-0.332 1.417 0.249 0.056-2.752 0.19 0.102 1.45 0.308-0.020-2.629 0.994 0.53 1.358 0.28-0.107-2.2 1.756 0.929 1.13 0.145-0.116-1.529 2.234 1.224 0.813 0.098-0.144-0.797 2.57 1.411 0.426 0.046-0.148v2.667h1.478zM8.459 20.413v-2.43h-0.97l0.723-2.331-0.933-0.282 1.385-2.023-0.811-0.539 1.922-1.533-0.616-0.75 2.289-0.865-0.36-0.923 2.432-0.167-0.070-0.969 2.37 0.539 0.217-0.928 2.105 1.197 0.476-0.812 1.663 1.757 0.69-0.633 1.074 2.17 0.846-0.406 0.386 2.4 0.939-0.147-0.386 2.401 0.982 0.154-1.083 2.186 0.898 0.432-1.683 1.778 0.73 0.67-2.13 1.212 0.494 0.844-2.387 0.543 0.219 0.935-2.436-0.168-0.066 0.94-2.276-0.861-0.338 0.867-1.888-1.507-0.609 0.74-1.362-1.99-0.798 0.53-0.716-2.309zM15.709 17.688c0 0.011 0.001 0.023 0.001 0.036 0 0.311-0.153 0.586-0.387 0.755l-0.003 0.002c-0.26 0.186-0.62 0.279-1.082 0.279-1.243 0-1.865-0.522-1.865-1.565h-1.95c0 0.61 0.156 1.147 0.467 1.61 0.315 0.463 0.77 0.83 1.366 1.098 0.565 0.251 1.225 0.396 1.918 0.396 0.023 0 0.045-0 0.067-0l-0.003 0c1.045 0 1.876-0.232 2.494-0.695 0.617-0.468 0.926-1.11 0.926-1.929 0-0.735-0.252-1.35-0.758-1.844-0.505-0.493-1.31-0.907-2.416-1.24-0.6-0.182-1.055-0.377-1.366-0.584-0.307-0.208-0.46-0.466-0.46-0.773 0-0.329 0.132-0.593 0.395-0.792 0.263-0.204 0.633-0.305 1.108-0.305 0.492 0 0.874 0.12 1.146 0.363 0.272 0.238 0.408 0.574 0.408 1.007h1.943c0-0.013 0-0.027 0-0.042 0-0.55-0.164-1.061-0.447-1.488l0.006 0.010c-0.301-0.452-0.717-0.806-1.206-1.025l-0.018-0.007c-0.527-0.247-1.127-0.37-1.801-0.37-0.67 0-1.274 0.112-1.814 0.337-0.535 0.225-0.947 0.54-1.237 0.942-0.267 0.369-0.427 0.831-0.427 1.33 0 0.012 0 0.024 0 0.036l-0-0.002c0 0.982 0.535 1.764 1.606 2.344 0.393 0.212 0.926 0.428 1.6 0.649 0.674 0.216 1.14 0.424 1.399 0.623 0.26 0.195 0.389 0.476 0.389 0.844zM21.639 11.89l-2.249-0.32-1.167 7.064 1.543 0.108zM20.005 19.456l-2.068-0.5-0.471 2.322 2.052 0.599z"></path>
</svg>
