<!-- Generated by IcoMoon.io -->
<svg version="1.1" xmlns="http://www.w3.org/2000/svg" width="32" height="32" viewBox="0 0 32 32">
<title>srm</title>
<path fill="#000" d="M16 0c-8.8 0-16 7.2-16 16s7.2 16 16 16 16-7.2 16-16-7.2-16-16-16zM15.5 7l0.3-0.3 0.4 0.3c0.3 0.3 6.4 6.6 6.4 10.1 0 3.7-3 6.7-6.7 6.7s-6.7-3-6.7-6.7c0-3.6 6-9.9 6.3-10.1zM14 5.6c0.2-0.2 0.5-0.2 0.6 0 0.2 0.2 0.2 0.5 0 0.6-0.1 0.1-6.6 6.6-6.6 11s3.5 7.9 7.9 7.9c4.4 0 7.9-3.5 7.9-7.9 0-1.8-1.2-4.3-3.4-7.2-1.7-2.2-3.4-3.9-3.4-3.9-0.2-0.2-0.2-0.5 0-0.6 0.2-0.2 0.5-0.2 0.6 0 0.3 0.3 7 7 7 11.7 0 4.8-4 8.8-8.8 8.8s-8.7-4-8.7-8.8 6.6-11.4 6.9-11.6zM15.9 28.1c-5.9 0-10.7-4.8-10.7-10.7 0-2.4 1.2-5.4 3.6-8.9 1.8-2.6 3.5-4.4 3.6-4.5 0.2-0.2 0.5-0.2 0.6 0 0.2 0.2 0.2 0.5 0 0.6 0 0-1.8 1.9-3.5 4.4-2.3 3.3-3.5 6.2-3.5 8.4 0 5.4 4.4 9.8 9.8 9.8s9.8-4.4 9.8-9.8c0-2.2-1.2-5.1-3.5-8.4-1.8-2.5-3.5-4.3-3.6-4.4-0.2-0.2-0.2-0.5 0-0.6 0.2-0.2 0.5-0.2 0.6 0 0.3 0.3 7.3 7.6 7.3 13.4 0.2 5.9-4.6 10.7-10.5 10.7zM10.2 17.1c0-1.3 1-3.3 3-5.9 1.1-1.5 2.2-2.7 2.7-3.3 0.6 0.6 1.7 1.9 2.8 3.3 2 2.6 3 4.6 3 5.9 0 3.2-2.6 5.8-5.8 5.8s-5.8-2.6-5.7-5.8z"></path>
</svg>
