<!-- Generated by IcoMoon.io -->
<svg version="1.1" xmlns="http://www.w3.org/2000/svg" width="32" height="32" viewBox="0 0 32 32">
<title>sub</title>
<path d="M16 32c-8.837 0-16-7.163-16-16s7.163-16 16-16 16 7.163 16 16-7.163 16-16 16zM12.117 5.314l-4.017 3.014c-0.062 0.046-0.101 0.118-0.101 0.2s0.040 0.154 0.101 0.2l0.001 0 15.801 11.853-0.894 0.67c-0.061 0.046-0.101 0.119-0.101 0.201 0 0.139 0.112 0.251 0.251 0.251 0.057 0 0.109-0.019 0.151-0.050l-0.001 0 1.162-0.87c0.062-0.046 0.101-0.12 0.101-0.202s-0.040-0.156-0.101-0.202l-0.001-0-15.799-11.853 3.598-2.697 1.106 0.827c0.041 0.031 0.093 0.050 0.15 0.050 0.138 0 0.25-0.112 0.25-0.25 0-0.082-0.039-0.154-0.099-0.2l-1.256-0.942c-0.041-0.031-0.093-0.050-0.15-0.050v0c-0.001-0-0.003-0-0.004-0-0.055 0-0.107 0.019-0.147 0.050l0.001-0zM16.134 5.314l-5.19 3.892c-0.061 0.046-0.101 0.119-0.101 0.201 0 0.139 0.112 0.251 0.251 0.251 0.057 0 0.109-0.019 0.151-0.050l-0.001 0 5.040-3.78 7.28 5.46h-3.178l-5.207-3.904c-0.041-0.031-0.093-0.050-0.15-0.050-0.139 0-0.251 0.112-0.251 0.251 0 0.082 0.039 0.155 0.1 0.201l0.001 0 5.271 3.953c0.044 0.033 0.096 0.050 0.15 0.051h4.018c0.11-0 0.203-0.071 0.236-0.17l0-0.002c0.009-0.024 0.014-0.052 0.014-0.081 0-0.081-0.039-0.153-0.099-0.197l-0.001-0-8.035-6.027c-0.041-0.031-0.093-0.050-0.149-0.050-0.057 0-0.11 0.019-0.152 0.052l0.001-0zM9.21 10.509l-1.11 0.83c-0.061 0.047-0.099 0.119-0.099 0.201s0.039 0.154 0.099 0.201l0.001 0 15.802 11.853-3.6 2.699-1.010-0.757c-0.042-0.031-0.094-0.050-0.151-0.050-0.139 0-0.251 0.113-0.251 0.251 0 0.082 0.039 0.155 0.1 0.201l1.163 0.872c0.041 0.031 0.094 0.049 0.15 0.049s0.109-0.018 0.151-0.050l-0.001 0 4.018-3.013c0.062-0.046 0.101-0.119 0.101-0.201s-0.040-0.155-0.101-0.201l-0.001-0-15.8-11.854 0.841-0.63c0.062-0.046 0.101-0.118 0.101-0.2 0-0.057-0.019-0.109-0.051-0.151l0 0.001c-0.046-0.061-0.119-0.1-0.201-0.1-0.056 0-0.108 0.018-0.15 0.049l0.001-0zM8.251 20.328c-0.001 0-0.002-0-0.003-0-0.139 0-0.251 0.112-0.251 0.251 0 0.083 0.040 0.156 0.101 0.202l0.001 0 8.037 6.025c0.041 0.031 0.093 0.050 0.15 0.050s0.109-0.019 0.151-0.050l5.181-3.884c0.061-0.046 0.1-0.119 0.1-0.201 0-0.139-0.113-0.252-0.252-0.252-0.057 0-0.11 0.019-0.152 0.051l0.001-0-5.029 3.773-7.281-5.461h3.18l5.146 3.86c0.041 0.031 0.094 0.050 0.151 0.050 0.138 0 0.25-0.112 0.25-0.25 0-0.081-0.039-0.154-0.099-0.2l-0.001-0-5.216-3.911c-0.040-0.032-0.091-0.051-0.146-0.051-0.001 0-0.003 0-0.004 0l-4.016-0.002z"></path>
</svg>
