<!-- Generated by IcoMoon.io -->
<svg version="1.1" xmlns="http://www.w3.org/2000/svg" width="32" height="32" viewBox="0 0 32 32">
<title>sumo</title>
<path d="M16 32c-8.837 0-16-7.163-16-16s7.163-16 16-16 16 7.163 16 16-7.163 16-16 16zM18.061 9.084h-4.071c-3.013 3.362-4.476 4.744-6.99 6.816l10.81 2.338-1.86 2.090c-2.483-1.47-4.183-1.659-7.24-1.94 2.297 1.058 3.49 1.908 5.279 4.526h4.072c2.115-2.627 3.573-4.152 6.939-7.014l-10.76-2.39 1.71-1.99c2.709 1.422 4.331 1.626 7.206 1.986-0.827-0.227-1.691-0.857-5.095-4.423zM14.24 8.587h3.57c-0.891-1.112-1.27-1.675-1.76-2.587-0.499 0.885-0.88 1.442-1.81 2.587zM17.81 23.413h-3.57c0.89 1.112 1.27 1.675 1.76 2.587 0.498-0.885 0.879-1.442 1.81-2.587z"></path>
</svg>
