<!-- Generated by IcoMoon.io -->
<svg version="1.1" xmlns="http://www.w3.org/2000/svg" width="32" height="32" viewBox="0 0 32 32">
<title>tel</title>
<path d="M16 32c-8.837 0-16-7.163-16-16s7.163-16 16-16 16 7.163 16 16-7.163 16-16 16zM25.080 11.478l-6.054-4.918c-0.633-0.512-1.78-0.71-2.553-0.438l-7.42 2.606c-0.772 0.27-1.522 1.134-1.664 1.918l-1.36 7.524c-0.143 0.784 0.257 1.84 0.89 2.353l6.058 4.917c0.632 0.513 1.78 0.71 2.552 0.438l7.419-2.605c0.772-0.27 1.522-1.134 1.664-1.918l1.36-7.524c0.14-0.779-0.26-1.84-0.892-2.353zM18.769 14.856l-2.83-0.004-0.526 2.662c-0.165 0.825-0.21 1.29 0.64 1.29h1.914l-0.4 1.69h-2.288c-1.353 0-2.233-1.263-1.881-3.042 0.14-0.699 0.56-2.593 0.56-2.593h-1.239l0.257-1.319c1.147-0.451 2.087-1.222 2.735-2.203l0.013-0.022h0.915l-0.4 2.016 2.832-0.004z"></path>
</svg>
