<!-- Generated by IcoMoon.io -->
<svg version="1.1" xmlns="http://www.w3.org/2000/svg" width="32" height="32" viewBox="0 0 32 32">
<title>tgch</title>
<path d="M16 32c-8.837 0-16-7.163-16-16s7.163-16 16-16 16 7.163 16 16-7.163 16-16 16zM16 4c-6.579 0-11.912 5.333-11.912 11.912s5.333 11.912 11.912 11.912v0c6.579 0 11.911-5.333 11.911-11.912 0-6.578-5.331-11.911-11.911-11.911zM16 27.341c-6.318 0-11.44-5.122-11.44-11.44 0-6.316 5.123-11.438 11.44-11.438s11.44 5.122 11.44 11.44c0 6.317-5.122 11.439-11.44 11.439zM17.308 17.082h3.020v4.456c0 0.442-0.453 0.678-0.885 0.905-0.423 0.226-1.112 0.177-2.273 0.177h-1.416c-2.174 0.049-2.784-0.118-3.305-0.345-0.521-0.236-0.787-0.57-0.787-1.003v-4.19h-1.564v4.721c0 0.256 0.128 0.551 0.325 0.817 0.226 0.305 0.197 0.393 0.688 0.639 0.443 0.226 0.886 0.403 1.682 0.502 0.62 0.078 0.512 0.059 1.614 0.078h2.616c1.967-0.039 2.37 0.099 3.54-0.491 0.955-0.473 1.28-1.023 1.348-1.378v-6.422h-4.593v1.534h-0.010zM13.236 7.993c-0.797 0.050-1.456 0.296-1.967 0.492-0.521 0.197-0.63 0.433-0.846 0.689-0.2 0.232-0.312 0.529-0.315 0.836v5.233h1.574v-4.733c0-0.403 0.246-0.727 0.728-0.963 0.492-0.246 1.21-0.364 1.879-0.364h3.068c1.17 0 1.8-0.020 2.164 0.196 0.374 0.236 0.817 0.443 0.817 0.886v1.249h1.573v-1.681c-0.029-0.217-0.265-0.836-1.377-1.358-1.003-0.472-1.327-0.501-2.901-0.501l-4.397 0.020z"></path>
</svg>
