<!-- Generated by IcoMoon.io -->
<svg version="1.1" xmlns="http://www.w3.org/2000/svg" width="32" height="32" viewBox="0 0 32 32">
<title>tks</title>
<path d="M16 32c-8.837 0-16-7.163-16-16s7.163-16 16-16 16 7.163 16 16-7.163 16-16 16zM17.77 14.25c0.072-0.005 0.156-0.007 0.24-0.007s0.168 0.003 0.251 0.008l-0.011-0.001c1.48 0.1 2.16 2.11 3.1 2-0.843 0.693-1.846 1.226-2.942 1.536l-0.058 0.014c-0.087 0.013-0.187 0.021-0.289 0.021-0.861 0-1.595-0.544-1.877-1.307l-0.004-0.014v4l5.82-3.32v-5.18l-4.23 2.25zM14.88 14.24c-0.432-0.36-0.713-0.89-0.74-1.486l-0-0.004v-0.080c0-1.16 1.87-3 1.93-3 0.060 0.060 1.93 1.85 1.93 3v0.090c-0.019 0.534-0.245 1.012-0.6 1.36l-0 0 4.6-2.47-6-2.94-6 2.91 4.88 2.62zM15.86 16.54c-0.284 0.782-1.020 1.33-1.885 1.33-0.101 0-0.2-0.007-0.296-0.022l0.011 0.001c-1.154-0.324-2.157-0.857-3.014-1.561l0.014 0.011c0.94 0.070 1.61-1.95 3.1-2 0.072-0.005 0.156-0.007 0.24-0.007s0.168 0.003 0.251 0.008l-0.011-0.001-4.27-2.3v5.19l5.87 3.39-0.010-4.040zM16 4c-6.627 0-12 5.373-12 12s5.373 12 12 12 12-5.373 12-12c0-6.627-5.373-12-12-12v0zM9.3 11.19l6.7-3.25 6.71 3.25v6.39l-6.71 3.87-6.7-3.87v-6.39zM22.73 20.19l-6.68 3.86-6.76-3.9v-0.37l6.76 3.9 6.68-3.86v0.37zM22.73 19.44l-6.68 3.86-6.76-3.9v-0.4l6.76 3.91 6.68-3.86v0.39zM22.73 18.69l-6.68 3.86-6.76-3.9v-0.37l6.76 3.91 6.68-3.86v0.36z"></path>
</svg>
