<!-- Generated by IcoMoon.io -->
<svg version="1.1" xmlns="http://www.w3.org/2000/svg" width="32" height="32" viewBox="0 0 32 32">
<title>trtl</title>
<path d="M16 32c-8.837 0-16-7.163-16-16s7.163-16 16-16 16 7.163 16 16-7.163 16-16 16zM16.006 5.6c0.394 0 0.781 0.103 1.122 0.3l7.16 4.134c0.675 0.395 1.122 1.118 1.122 1.944 0 0 0 0.001 0 0.001v-0 8.434c0 0.802-0.427 1.543-1.122 1.944l-7.161 4.135c-0.322 0.189-0.709 0.301-1.122 0.301s-0.8-0.112-1.133-0.306l0.011 0.006-7.162-4.135c-0.676-0.395-1.123-1.117-1.123-1.944v-8.434c0-0.802 0.428-1.543 1.123-1.945l7.16-4.134c0.342-0.197 0.73-0.301 1.123-0.301h0.002zM16.004 4.039c-0.7 0-1.356 0.19-1.92 0.52l0.018-0.010-7.162 4.133c-1.144 0.672-1.901 1.895-1.903 3.296v8.434c0.002 1.401 0.759 2.624 1.885 3.286l0.018 0.010 7.16 4.134c1.178 0.68 2.629 0.68 3.806 0l7.161-4.134c1.144-0.672 1.901-1.895 1.903-3.296v-8.434c-0.002-1.401-0.759-2.624-1.885-3.286l-0.018-0.010-7.16-4.135c-0.546-0.321-1.203-0.51-1.904-0.51v0zM20.894 15.949h-1.662c-0.172 0-0.323 0.093-0.404 0.232l-0.001 0.002-0.863 1.493c-0.039 0.067-0.063 0.148-0.063 0.234s0.023 0.167 0.064 0.236l-0.001-0.002 1.036 1.792c0.812-1.141 1.461-2.468 1.872-3.895l0.023-0.092zM15.127 17.519h1.758c0 0 0.001 0 0.001 0 0.172 0 0.322-0.093 0.403-0.231l0.001-0.002 0.862-1.493c0.039-0.067 0.063-0.148 0.063-0.234s-0.023-0.167-0.064-0.236l0.001 0.002-0.862-1.493c-0.082-0.141-0.233-0.234-0.405-0.234h-1.758c-0 0-0 0-0.001 0-0.172 0-0.323 0.093-0.404 0.232l-0.001 0.002-0.861 1.493c-0.039 0.067-0.063 0.148-0.063 0.234s0.023 0.167 0.064 0.236l-0.001-0.002 0.861 1.493c0.082 0.141 0.233 0.234 0.405 0.234 0 0 0.001 0 0.001 0h-0zM12.778 15.169c0.172-0 0.323-0.093 0.405-0.232l0.001-0.002 0.861-1.493c0.039-0.067 0.063-0.148 0.063-0.234s-0.023-0.167-0.064-0.236l0.001 0.002-1.074-1.861-2.097 1.144c-0.146 0.081-0.243 0.234-0.243 0.41 0 0.004 0 0.007 0 0.011v-0.001c0.017 0.838 0.115 1.672 0.291 2.491h1.856zM19.233 15.169h1.856c0.176-0.82 0.274-1.653 0.291-2.491 0-0.003 0-0.007 0-0.010 0-0.176-0.098-0.33-0.242-0.41l-0.002-0.001-2.096-1.144-1.074 1.861c-0.039 0.067-0.063 0.148-0.063 0.234s0.023 0.167 0.064 0.236l-0.001-0.002 0.862 1.493c0.082 0.141 0.233 0.234 0.405 0.234h0zM16.23 9.579c-0.065-0.036-0.142-0.057-0.224-0.057s-0.159 0.021-0.226 0.058l0.002-0.001-2.126 1.16 1.066 1.845c0.082 0.141 0.233 0.234 0.405 0.234h1.758c0 0 0 0 0 0 0.172 0 0.323-0.093 0.404-0.232l0.001-0.002 1.066-1.845-2.126-1.16zM15.127 18.3c-0 0-0 0-0.001 0-0.172 0-0.323 0.093-0.404 0.232l-0.001 0.002-1.2 2.080c0.653 0.808 1.375 1.517 2.17 2.137l0.029 0.022c0.078 0.061 0.178 0.097 0.287 0.097s0.208-0.037 0.288-0.098l-0.001 0.001c0.823-0.642 1.545-1.352 2.178-2.135l0.020-0.025-1.2-2.079c-0.082-0.141-0.233-0.234-0.405-0.234h-1.76zM11.116 15.949c0.434 1.519 1.083 2.846 1.922 4.027l-0.027-0.040 1.035-1.792c0.039-0.067 0.063-0.148 0.063-0.234s-0.023-0.167-0.064-0.236l0.001 0.002-0.862-1.493c-0.082-0.141-0.233-0.234-0.405-0.234h-1.663z"></path>
</svg>
