<!-- Generated by IcoMoon.io -->
<svg version="1.1" xmlns="http://www.w3.org/2000/svg" width="32" height="32" viewBox="0 0 32 32">
<title>trx</title>
<path d="M16 32c-8.837 0-16-7.163-16-16s7.163-16 16-16 16 7.163 16 16-7.163 16-16 16zM24.745 12.266c-0.799-0.567-1.654-1.172-2.49-1.772-0.019-0.014-0.037-0.028-0.060-0.042-0.093-0.077-0.202-0.141-0.32-0.184l-0.008-0.003-0.010-0.005c-24.348-5.287-26.601-5.857-28.852-6.43l22.143 4.776-6.141-1.519c-0.18-0.051-0.388-0.108-0.61-0.080-0.064 0.010-0.122 0.033-0.171 0.067l0.002-0.001-0.056 0.047c-0.068 0.070-0.122 0.154-0.155 0.248l-0.002 0.005-0.014 0.038v0.215l0.010 0.033c1.26 3.585 2.554 7.222 3.802 10.741 0.961 2.71 1.96 5.516 2.934 8.272 0.060 0.187 0.231 0.31 0.444 0.328h0.046c0.004 0 0.009 0 0.013 0 0.191 0 0.357-0.103 0.447-0.256l0.001-0.002 3.66-5.413c0.891-1.317 1.783-2.638 2.675-3.955l1.095-1.622c0.6-0.89 1.22-1.809 1.835-2.704l0.032-0.046v-0.057c0.014-0.164 0.018-0.501-0.25-0.68zM20.457 14.239c-0.86 0.454-1.737 0.923-2.62 1.387l1.544-1.678c0.642-0.703 1.312-1.43 1.968-2.142l0.014-0.014c0.055-0.075 0.125-0.145 0.199-0.22 0.050-0.051 0.106-0.103 0.157-0.164 0.342 0.24 0.688 0.483 1.021 0.722 0.24 0.173 0.485 0.347 0.735 0.52-2.398 1.198-3.386 1.727-4.37 2.262l1.352-0.673zM18.249 14.014c-0.661 0.726-1.345 1.471-2.024 2.207-3.148-3.922-4.446-5.502-5.747-7.079l1.782 2.224-1.783-2.175c-0.134-0.154-0.264-0.323-0.393-0.482-0.083-0.108-0.171-0.211-0.259-0.319 0.536 0.14 1.077 0.272 1.608 0.398 0.467 0.113 0.952 0.23 1.428 0.352l8.045 1.982c-0.892 0.966-1.789 1.945-2.657 2.892zM15.924 23.148c0.051-0.492 0.107-0.998 0.153-1.495 0.042-0.399 0.083-0.806 0.125-1.195 0.064-0.624 0.134-1.27 0.19-1.903l0.013-0.112c0.046-0.404 0.092-0.82 0.12-1.238 0.046-0.027 0.101-0.053 0.158-0.077l0.009-0.003c0.069-0.032 0.138-0.060 0.207-0.102-2.183 1.033-1.132 0.468-0.081-0.094l3.288-1.603c1.068-0.562 2.163-1.144 3.249-1.72 1.081-1.744 0.111-0.327-0.854 1.093l-2.090 3.257c-0.827 1.222-1.677 2.483-2.523 3.725-0.332 0.497-0.679 1.003-1.007 1.49-0.37 0.544-0.749 1.101-1.118 1.66 0.046-0.563 0.101-1.13 0.161-1.683zM9.484 9.496c-0.060-0.169-0.126-0.342-0.181-0.506 1.248 1.528 2.504 3.065 3.729 4.555 0.633 0.773 1.266 1.542 1.899 2.32 0.125 0.145 0.25 0.3 0.37 0.45 0.157 0.192 0.314 0.394 0.485 0.586-0.056 0.482-0.102 0.97-0.153 1.438-0.032 0.328-0.064 0.657-0.101 0.99v0.004c-0.014 0.21-0.042 0.422-0.065 0.628l-0.106 0.933-0.005 0.032c-0.083 0.947-0.185 1.903-0.282 2.831-0.041 0.384-0.078 0.778-0.12 1.172-0.023-0.070-0.050-0.141-0.074-0.207-0.024-0.045-0.092-0.236-0.159-0.428l-0.044-0.148-0.495-1.392-4.699-13.258z"></path>
</svg>
