<!-- Generated by IcoMoon.io -->
<svg version="1.1" xmlns="http://www.w3.org/2000/svg" width="32" height="32" viewBox="0 0 32 32">
<title>veri</title>
<path d="M16 32c-8.837 0-16-7.163-16-16s7.163-16 16-16 16 7.163 16 16-7.163 16-16 16zM6 8v0.010c1.175 5.23 2.35 10.46 3.527 15.688h3.977l3.527-15.698h-3.204l-1.904 9.7c-0.137 0.655-0.24 1.32-0.404 1.97-0.032-0.108-0.072-0.273-0.107-0.441l-0.009-0.050-2.090-11.179c-1.105 0.003-2.21 0.003-3.313 0zM18.314 12.932v-0.001c-0.793 0.968-1.014 2.262-1.107 3.484-0.070 1.253-0.061 2.515 0.087 3.762 0.148 1.083 0.521 2.213 1.376 2.926 0.92 0.777 2.173 0.934 3.327 0.89 1.062-0.043 2.184-0.397 2.88-1.263 0.694-0.833 0.89-1.953 0.95-3.013h-2.664c-0.096 0.639-0.188 1.337-0.628 1.835-0.33 0.364-0.874 0.46-1.326 0.313-0.424-0.152-0.69-0.565-0.834-0.982-0.296-0.845-0.24-1.756-0.244-2.638h5.869c0.001-1.195-0.012-2.4-0.263-3.57-0.207-0.936-0.643-1.876-1.438-2.432-0.898-0.632-2.040-0.728-3.1-0.654-1.074 0.070-2.188 0.467-2.885 1.343zM20.588 14.177h0.001c0.495-0.742 1.791-0.74 2.2 0.089 0.331 0.67 0.326 1.445 0.373 2.178h-3.032c-0.008-0.771 0.004-1.613 0.458-2.267z"></path>
</svg>
