<!-- Generated by IcoMoon.io -->
<svg version="1.1" xmlns="http://www.w3.org/2000/svg" width="32" height="32" viewBox="0 0 32 32">
<title>zcl</title>
<path d="M16 32c-8.837 0-16-7.163-16-16s7.163-16 16-16 16 7.163 16 16-7.163 16-16 16zM15.992 27c6.172-0.008 10.996-4.996 11.008-10.998 0.008-6.068-4.92-10.998-10.985-11.002-6.083-0.004-11.015 4.915-11.015 10.986 0 6.084 4.917 11.010 10.992 11.014zM11.509 21.030c3.719 0.002 7.436 0 11.151-0.008-1.933 2.698-6.056 4.313-9.988 2.558-4.060-1.81-5.68-6.328-4.534-9.93h0.136c2.26-0.002 4.522 0 6.784 0.003 0.006 0.001 0.014 0.001 0.021 0.001 0.080 0 0.149-0.048 0.18-0.116l0.001-0.001c0.434-0.777 0.876-1.55 1.313-2.326 0.031-0.050 0.059-0.104 0.097-0.178h-7.18c-0.003-0.012-0.011-0.020-0.015-0.031 0.159-0.187 0.31-0.38 0.477-0.56 1.27-1.374 2.82-2.243 4.66-2.57 1.85-0.325 3.612-0.054 5.286 0.8 0.705 0.359 1.31 0.791 1.843 1.3l-0.003-0.003c1.217 1.165 2.042 2.558 2.418 4.208 0.134 0.558 0.21 1.2 0.21 1.859 0 0.808-0.115 1.589-0.33 2.327l0.015-0.059c-0.019 0.074-0.046 0.105-0.131 0.105-2.516-0.003-5.033-0.004-7.552-0.004-0.027 0-0.054 0-0.105-0.004 1.395-2.457 2.779-4.9 4.173-7.36h-0.143c-1.003 0-2.010 0-3.014-0.004-0.005-0.001-0.011-0.001-0.016-0.001-0.060 0-0.112 0.037-0.134 0.089l-0 0.001c-0.86 1.52-1.72 3.040-2.585 4.558-0.987 1.732-1.972 3.466-2.956 5.202-0.023 0.038-0.047 0.085-0.078 0.143zM24.152 22.928l-1.441-1.468c2.642-3.269 2.534-7.822-0.027-10.9 0.488-0.494 0.98-0.987 1.484-1.495 1.615 1.96 2.48 4.177 2.541 6.7 0.078 3.063-1.162 5.614-2.557 7.163z"></path>
</svg>
