<!-- Generated by IcoMoon.io -->
<svg version="1.1" xmlns="http://www.w3.org/2000/svg" width="32" height="32" viewBox="0 0 32 32">
<title>act</title>
<path fill="#767dff" d="M32 16c0 8.837-7.163 16-16 16s-16-7.163-16-16c0-8.837 7.163-16 16-16s16 7.163 16 16z"></path>
<path fill="#fff" d="M13.77 6.5h4.46c0 0 0 0 0 0 0.324 0 0.607 0.177 0.756 0.44l0.002 0.004 6.906 12.319c0.070 0.122 0.111 0.269 0.111 0.425s-0.041 0.303-0.113 0.429l0.002-0.004-2.21 3.942c-0.152 0.267-0.434 0.445-0.758 0.445h-13.854c-0.324-0-0.607-0.178-0.757-0.441l-0.002-0.004-2.209-3.942c-0.070-0.122-0.111-0.269-0.111-0.425s0.041-0.303 0.113-0.429l-0.002 0.004 6.906-12.319c0.152-0.267 0.435-0.444 0.759-0.444 0 0 0 0 0 0h-0zM16 11.401l-4.653 8.287h9.306l-4.653-8.287z"></path>
</svg>
