<!-- Generated by IcoMoon.io -->
<svg version="1.1" xmlns="http://www.w3.org/2000/svg" width="32" height="32" viewBox="0 0 32 32">
<title>actn</title>
<path fill="#f00" d="M32 16c0 8.837-7.163 16-16 16s-16-7.163-16-16c0-8.837 7.163-16 16-16s16 7.163 16 16z"></path>
<path fill="#fff" d="M4.406 21.711l5.337-9.717c0.221-0.406 0.588-0.516 0.96-0.296h0.039c0.103 0.063 0.228 0.101 0.362 0.101 0.275 0 0.513-0.158 0.629-0.388l0.002-0.004 3.749-5.744c0.127-0.242 0.289-0.465 0.48-0.662 0.168 0.206 0.293 0.443 0.367 0.698l1.62 4.013c0.367 0.922 1.25 1.584 2.172 1.584h0.293c0.473 0.018 0.921 0.215 1.253 0.552l1.176 1.25c0.349 0.37 0.67 0.763 0.96 1.179l3.792 5.448c0.142 0.216 0.277 0.437 0.403 0.662v0.036c-0.207-0.162-0.388-0.339-0.547-0.536l-0.005-0.006-5.117-5.309c-0.308-0.311-0.577-0.662-0.798-1.043l-0.013-0.025c-0.408-0.883-0.922-1.253-1.73-1.214h-1.030c-0.624 0-0.773-0.11-0.96-0.737l-1.469-4.6c-0.257-0.922-0.295-0.922-0.552 0l-0.993 3.12c-0.221 0.623-0.296 1.655-0.185 1.655 0.038 0 0.295-0.48 0.7-1.325 0.077-0.172 0.175-0.333 0.293-0.48 0.094 0.352 0.144 0.714 0.15 1.078-0.108 0.254-0.231 0.5-0.37 0.737l-0.036 0.11c-0.442 0.809-0.442 0.847 0.036 1.62l0.441 0.735c0.168 0.226 0.304 0.474 0.406 0.736-0.196 0.166-0.412 0.325-0.64 0.467l-0.023 0.013-2.282 1.472c-0.383 0.214-0.836 0.347-1.319 0.367l-0.006 0c-0.811-0.036-1.51 0.37-2.136 1.214l-0.883 1.253c-0.318 0.392-0.676 0.75-1.068 1.068l-0.809 0.662c-0.382 0.268-0.817 0.515-1.276 0.718l-0.049 0.019-0.441 0.11c-0.32 0.116-0.655 0.19-0.994 0.219-0.151 0-0.295 0-0.295-0.036 0.115-0.268 0.25-0.526 0.406-0.773z"></path>
</svg>
