<!-- Generated by IcoMoon.io -->
<svg version="1.1" xmlns="http://www.w3.org/2000/svg" width="32" height="32" viewBox="0 0 32 32">
<title>actn</title>
<path fill="#f00" d="M16 32c-8.837 0-16-7.163-16-16s7.163-16 16-16 16 7.163 16 16-7.163 16-16 16zM4.406 21.711c-0.141 0.219-0.277 0.473-0.392 0.737l-0.014 0.036c0 0.036 0.144 0.036 0.295 0.036 0.34-0.030 0.673-0.103 0.994-0.218l0.441-0.11c0.508-0.223 0.943-0.469 1.35-0.754l-0.025 0.016 0.809-0.662c0.392-0.318 0.75-0.676 1.068-1.068l0.883-1.253c0.627-0.845 1.325-1.25 2.136-1.214 0.489-0.020 0.942-0.153 1.34-0.375l-0.015 0.008 2.282-1.472c0.251-0.155 0.467-0.313 0.671-0.486l-0.008 0.006c-0.11-0.281-0.247-0.524-0.412-0.744l0.006 0.008-0.441-0.735c-0.478-0.773-0.478-0.811-0.036-1.62l0.036-0.11c0.123-0.204 0.247-0.446 0.355-0.697l0.015-0.040c-0.006-0.386-0.060-0.756-0.157-1.109l0.007 0.031c-0.113 0.139-0.21 0.297-0.287 0.466l-0.005 0.014c-0.406 0.845-0.663 1.325-0.701 1.325-0.11 0-0.036-1.032 0.185-1.656l0.993-3.12c0.257-0.921 0.295-0.921 0.552 0l1.469 4.601c0.187 0.626 0.336 0.737 0.96 0.737h1.030c0.808-0.039 1.322 0.331 1.73 1.214 0.222 0.39 0.495 0.75 0.811 1.068l5.117 5.309c0.162 0.201 0.348 0.383 0.552 0.542v-0.036c-0.126-0.225-0.26-0.446-0.403-0.662l-3.792-5.448c-0.29-0.416-0.611-0.81-0.96-1.178l-1.176-1.25c-0.321-0.326-0.761-0.534-1.25-0.553l-0.003-0h-0.293c-0.921 0-1.805-0.662-2.172-1.584l-1.62-4.013c-0.080-0.268-0.206-0.501-0.37-0.701l0.003 0.003c-0.191 0.197-0.353 0.42-0.48 0.662l-3.749 5.744c-0.117 0.234-0.356 0.393-0.631 0.393-0.134 0-0.259-0.037-0.365-0.102l0.003 0.002h-0.039c-0.372-0.22-0.739-0.11-0.96 0.296l-5.337 9.716z"></path>
</svg>
