<!-- Generated by IcoMoon.io -->
<svg version="1.1" xmlns="http://www.w3.org/2000/svg" width="32" height="32" viewBox="0 0 32 32">
<title>ada</title>
<path fill="#0d1e30" d="M32 16c0 8.837-7.163 16-16 16s-16-7.163-16-16c0-8.837 7.163-16 16-16s16 7.163 16 16z"></path>
<path fill="#000" d="M15.725 6.060c0.479-0.247 1.064 0.324 0.81 0.795-0.149 0.384-0.71 0.486-0.996 0.193-0.303-0.28-0.204-0.836 0.186-0.989zM10.57 6.606c0.291-0.118 0.66 0.144 0.63 0.457 0.030 0.338-0.39 0.588-0.687 0.427-0.393-0.15-0.348-0.778 0.057-0.884zM21.128 7.499c-0.455-0.054-0.527-0.758-0.090-0.9 0.34-0.162 0.652 0.143 0.702 0.46-0.072 0.27-0.302 0.518-0.612 0.44zM11.743 8.764c0.487-0.303 1.181 0.148 1.106 0.705-0.025 0.561-0.783 0.887-1.211 0.507-0.414-0.298-0.351-0.982 0.105-1.212zM19.173 9.086c0.217-0.55 1.097-0.568 1.344-0.032 0.245 0.417-0.056 0.934-0.491 1.076-0.577 0.106-1.124-0.508-0.853-1.044zM15.104 10.099c-0.005-0.474 0.433-0.826 0.89-0.859 0.304 0.060 0.634 0.187 0.764 0.488 0.243 0.416 0.027 0.987-0.41 1.178-0.2 0.11-0.438 0.069-0.656 0.056-0.333-0.16-0.614-0.477-0.588-0.863zM7.438 10.789c0.445-0.27 1.045 0.22 0.876 0.696-0.092 0.411-0.654 0.578-0.975 0.316-0.343-0.246-0.289-0.837 0.1-1.013zM23.9 10.787c0.377-0.288 1 0.043 0.954 0.511 0.026 0.427-0.513 0.75-0.887 0.53-0.412-0.183-0.455-0.807-0.067-1.040zM17.26 11.638c0.622-0.22 1.362 0.043 1.716 0.59 0.468 0.667 0.22 1.683-0.507 2.066-0.752 0.453-1.851 0.070-2.13-0.758-0.315-0.74 0.145-1.666 0.92-1.898zM13.607 11.711c0.69-0.32 1.619-0.052 1.952 0.642 0.392 0.676 0.089 1.617-0.612 1.966-0.702 0.393-1.693 0.095-2.032-0.63-0.381-0.702-0.043-1.655 0.692-1.978zM9.95 12.94c0.053-0.437 0.472-0.722 0.895-0.752 0.455 0.049 0.814 0.404 0.87 0.852l0.001 0.005c-0.030 0.45-0.383 0.888-0.867 0.886-0.533 0.045-1-0.477-0.898-0.991zM20.752 12.284c0.547-0.313 1.306 0.142 1.282 0.76 0.037 0.655-0.803 1.116-1.347 0.732-0.566-0.32-0.522-1.22 0.065-1.492zM12.122 14.591c0.638-0.173 1.37 0.123 1.683 0.701 0.343 0.582 0.203 1.39-0.33 1.818-0.685 0.626-1.946 0.374-2.31-0.48-0.419-0.783 0.090-1.833 0.956-2.040zM19.049 14.588c0.621-0.175 1.351 0.060 1.685 0.617 0.442 0.637 0.231 1.588-0.426 1.998-0.69 0.477-1.756 0.227-2.136-0.519-0.46-0.771 0.003-1.861 0.877-2.096zM8.009 15.314c0.552-0.205 1.164 0.394 0.94 0.933-0.136 0.49-0.839 0.672-1.202 0.31-0.425-0.34-0.268-1.095 0.262-1.243zM22.978 16.096c-0.001-0.012-0.001-0.026-0.001-0.039 0-0.445 0.348-0.809 0.787-0.835l0.002-0c0.378 0.060 0.746 0.36 0.716 0.765 0.035 0.535-0.62 0.898-1.084 0.647-0.217-0.109-0.328-0.328-0.42-0.538zM5.294 15.58c0.332-0.143 0.743 0.14 0.667 0.503-0.018 0.411-0.635 0.57-0.861 0.226-0.2-0.239-0.080-0.606 0.194-0.73zM26.243 15.571c0.234-0.163 0.61-0.046 0.702 0.223 0.157 0.294-0.131 0.696-0.467 0.647-0.472 0.042-0.624-0.665-0.235-0.87zM13.926 17.544c0.874-0.223 1.814 0.494 1.82 1.38 0.056 0.895-0.87 1.688-1.764 1.482-0.692-0.11-1.235-0.766-1.212-1.453-0.002-0.658 0.502-1.27 1.156-1.409zM17.388 17.543c0.887-0.244 1.855 0.486 1.841 1.392 0.047 0.878-0.85 1.645-1.726 1.47-0.825-0.104-1.433-0.995-1.203-1.783 0.116-0.524 0.562-0.95 1.088-1.080zM10.712 18.088c0.614-0.103 1.19 0.57 0.941 1.144-0.182 0.612-1.086 0.777-1.486 0.278-0.468-0.48-0.118-1.356 0.545-1.422zM20.866 18.115c0.548-0.226 1.22 0.24 1.178 0.825 0.022 0.643-0.808 1.087-1.343 0.711-0.607-0.337-0.496-1.33 0.165-1.536zM23.704 20.915c-0.214-0.393 0.175-0.914 0.62-0.841 0.22-0.004 0.375 0.167 0.516 0.311 0.029 0.233 0.078 0.511-0.119 0.69-0.267 0.333-0.872 0.238-1.017-0.16zM7.436 20.183c0.415-0.271 1.012 0.134 0.918 0.61-0.050 0.423-0.59 0.664-0.945 0.424-0.382-0.217-0.368-0.836 0.027-1.034zM15.629 21.066c0.543-0.235 1.235 0.23 1.183 0.818 0.040 0.65-0.815 1.1-1.346 0.71-0.59-0.335-0.491-1.321 0.163-1.528zM11.835 21.937c0.462-0.239 1.082 0.174 1.040 0.684 0.014 0.418-0.4 0.774-0.82 0.712-0.347-0.007-0.573-0.314-0.685-0.605 0.006-0.317 0.139-0.67 0.465-0.79zM19.521 21.945c0.476-0.29 1.152 0.126 1.107 0.67 0.012 0.57-0.752 0.934-1.195 0.56-0.428-0.293-0.376-0.997 0.088-1.23zM20.858 25.195c-0.212-0.314 0.037-0.693 0.38-0.765 0.277 0.055 0.57 0.26 0.511 0.574-0.040 0.427-0.674 0.557-0.891 0.192zM10.247 24.922c0.084-0.25 0.288-0.497 0.587-0.432 0.435 0.030 0.564 0.676 0.183 0.875-0.342 0.227-0.74-0.084-0.77-0.443zM15.367 25.209c0.083-0.37 0.568-0.549 0.888-0.353 0.212 0.090 0.274 0.322 0.328 0.52-0.014 0.041-0.042 0.145-0.067 0.25l-0.013 0.061c-0.131 0.152-0.3 0.305-0.518 0.3-0.405 0.047-0.771-0.404-0.619-0.777z"></path>
<path fill="#fff" d="M15.725 6.060c0.479-0.247 1.064 0.324 0.81 0.795-0.149 0.384-0.71 0.486-0.996 0.193-0.303-0.28-0.204-0.836 0.186-0.989zM10.57 6.606c0.291-0.118 0.66 0.144 0.63 0.457 0.030 0.338-0.39 0.588-0.687 0.427-0.393-0.15-0.348-0.778 0.057-0.884zM21.128 7.499c-0.455-0.054-0.527-0.758-0.090-0.9 0.34-0.162 0.652 0.143 0.702 0.46-0.072 0.27-0.302 0.518-0.612 0.44zM11.743 8.764c0.487-0.303 1.181 0.148 1.106 0.705-0.025 0.561-0.783 0.887-1.211 0.507-0.414-0.298-0.351-0.982 0.105-1.212zM19.173 9.086c0.217-0.55 1.097-0.568 1.344-0.032 0.245 0.417-0.056 0.934-0.491 1.076-0.577 0.106-1.124-0.508-0.853-1.044zM15.104 10.099c-0.005-0.474 0.433-0.826 0.89-0.859 0.304 0.060 0.634 0.187 0.764 0.488 0.243 0.416 0.027 0.987-0.41 1.178-0.2 0.11-0.438 0.069-0.656 0.056-0.333-0.16-0.614-0.477-0.588-0.863zM7.438 10.789c0.445-0.27 1.045 0.22 0.876 0.696-0.092 0.411-0.654 0.578-0.975 0.316-0.343-0.246-0.289-0.837 0.1-1.013zM23.9 10.787c0.377-0.288 1 0.043 0.954 0.511 0.026 0.427-0.513 0.75-0.887 0.53-0.412-0.183-0.455-0.807-0.067-1.040zM17.26 11.638c0.622-0.22 1.362 0.043 1.716 0.59 0.468 0.667 0.22 1.683-0.507 2.066-0.752 0.453-1.851 0.070-2.13-0.758-0.315-0.74 0.145-1.666 0.92-1.898zM13.607 11.711c0.69-0.32 1.619-0.052 1.952 0.642 0.392 0.676 0.089 1.617-0.612 1.966-0.702 0.393-1.693 0.095-2.032-0.63-0.381-0.702-0.043-1.655 0.692-1.978zM9.95 12.94c0.053-0.437 0.472-0.722 0.895-0.752 0.455 0.049 0.814 0.404 0.87 0.852l0.001 0.005c-0.030 0.45-0.383 0.888-0.867 0.886-0.533 0.045-1-0.477-0.898-0.991zM20.752 12.284c0.547-0.313 1.306 0.142 1.282 0.76 0.037 0.655-0.803 1.116-1.347 0.732-0.566-0.32-0.522-1.22 0.065-1.492zM12.122 14.591c0.638-0.173 1.37 0.123 1.683 0.701 0.343 0.582 0.203 1.39-0.33 1.818-0.685 0.626-1.946 0.374-2.31-0.48-0.419-0.783 0.090-1.833 0.956-2.040zM19.049 14.588c0.621-0.175 1.351 0.060 1.685 0.617 0.442 0.637 0.231 1.588-0.426 1.998-0.69 0.477-1.756 0.227-2.136-0.519-0.46-0.771 0.003-1.861 0.877-2.096zM8.009 15.314c0.552-0.205 1.164 0.394 0.94 0.933-0.136 0.49-0.839 0.672-1.202 0.31-0.425-0.34-0.268-1.095 0.262-1.243zM22.978 16.096c-0.001-0.012-0.001-0.026-0.001-0.039 0-0.445 0.348-0.809 0.787-0.835l0.002-0c0.378 0.060 0.746 0.36 0.716 0.765 0.035 0.535-0.62 0.898-1.084 0.647-0.217-0.109-0.328-0.328-0.42-0.538zM5.294 15.58c0.332-0.143 0.743 0.14 0.667 0.503-0.018 0.411-0.635 0.57-0.861 0.226-0.2-0.239-0.080-0.606 0.194-0.73zM26.243 15.571c0.234-0.163 0.61-0.046 0.702 0.223 0.157 0.294-0.131 0.696-0.467 0.647-0.472 0.042-0.624-0.665-0.235-0.87zM13.926 17.544c0.874-0.223 1.814 0.494 1.82 1.38 0.056 0.895-0.87 1.688-1.764 1.482-0.692-0.11-1.235-0.766-1.212-1.453-0.002-0.658 0.502-1.27 1.156-1.409zM17.388 17.543c0.887-0.244 1.855 0.486 1.841 1.392 0.047 0.878-0.85 1.645-1.726 1.47-0.825-0.104-1.433-0.995-1.203-1.783 0.116-0.524 0.562-0.95 1.088-1.080zM10.712 18.088c0.614-0.103 1.19 0.57 0.941 1.144-0.182 0.612-1.086 0.777-1.486 0.278-0.468-0.48-0.118-1.356 0.545-1.422zM20.866 18.115c0.548-0.226 1.22 0.24 1.178 0.825 0.022 0.643-0.808 1.087-1.343 0.711-0.607-0.337-0.496-1.33 0.165-1.536zM23.704 20.915c-0.214-0.393 0.175-0.914 0.62-0.841 0.22-0.004 0.375 0.167 0.516 0.311 0.029 0.233 0.078 0.511-0.119 0.69-0.267 0.333-0.872 0.238-1.017-0.16zM7.436 20.183c0.415-0.271 1.012 0.134 0.918 0.61-0.050 0.423-0.59 0.664-0.945 0.424-0.382-0.217-0.368-0.836 0.027-1.034zM15.629 21.066c0.543-0.235 1.235 0.23 1.183 0.818 0.040 0.65-0.815 1.1-1.346 0.71-0.59-0.335-0.491-1.321 0.163-1.528zM11.835 21.937c0.462-0.239 1.082 0.174 1.040 0.684 0.014 0.418-0.4 0.774-0.82 0.712-0.347-0.007-0.573-0.314-0.685-0.605 0.006-0.317 0.139-0.67 0.465-0.79zM19.521 21.945c0.476-0.29 1.152 0.126 1.107 0.67 0.012 0.57-0.752 0.934-1.195 0.56-0.428-0.293-0.376-0.997 0.088-1.23zM20.858 25.195c-0.212-0.314 0.037-0.693 0.38-0.765 0.277 0.055 0.57 0.26 0.511 0.574-0.040 0.427-0.674 0.557-0.891 0.192zM10.247 24.922c0.084-0.25 0.288-0.497 0.587-0.432 0.435 0.030 0.564 0.676 0.183 0.875-0.342 0.227-0.74-0.084-0.77-0.443zM15.367 25.209c0.083-0.37 0.568-0.549 0.888-0.353 0.212 0.090 0.274 0.322 0.328 0.52-0.014 0.041-0.042 0.145-0.067 0.25l-0.013 0.061c-0.131 0.152-0.3 0.305-0.518 0.3-0.405 0.047-0.771-0.404-0.619-0.777z"></path>
</svg>
