<!-- Generated by IcoMoon.io -->
<svg version="1.1" xmlns="http://www.w3.org/2000/svg" width="32" height="32" viewBox="0 0 32 32">
<title>adx</title>
<path fill="#1b75bc" d="M32 16c0 8.837-7.163 16-16 16s-16-7.163-16-16c0-8.837 7.163-16 16-16s16 7.163 16 16z"></path>
<path fill="#fff" d="M11.587 8.602l4.413 4.606 4.305-4.606 2.695 2.758-4.396 4.64 4.396 4.603-2.695 2.793-4.305-4.604-4.413 4.604-2.587-2.716 4.36-4.706-4.36-4.614 2.587-2.757zM11.942 8.226l4.040-4.226 4.040 4.226-2.126 2.265-1.914-2.114-1.914 2.114-2.126-2.265zM11.942 23.774l2.126-2.265 1.914 2.114 1.914-2.114 2.126 2.265-4.040 4.226-4.040-4.226z"></path>
</svg>
