<!-- Generated by IcoMoon.io -->
<svg version="1.1" xmlns="http://www.w3.org/2000/svg" width="32" height="32" viewBox="0 0 32 32">
<title>aeon</title>
<path fill="#134451" d="M32 16c0 8.837-7.163 16-16 16s-16-7.163-16-16c0-8.837 7.163-16 16-16s16 7.163 16 16z"></path>
<path fill="#fff" d="M13.999 16.322c-0.497 0-0.873 0.084-1.133 0.243-0.25 0.155-0.376 0.39-0.376 0.698 0 0.23 0.078 0.416 0.225 0.548 0.151 0.133 0.363 0.199 0.627 0.199 0.41 0 0.752-0.128 1.024-0.38 0.273-0.256 0.458-0.614 0.55-1.073l0.042-0.235h-0.96zM19.263 14.153c-0.151-0.132-0.363-0.198-0.626-0.198-0.411 0-0.753 0.128-1.025 0.38-0.272 0.256-0.458 0.614-0.549 1.073l-0.043 0.234 0.96-0.004c0.497 0 0.873-0.084 1.132-0.243 0.25-0.155 0.376-0.389 0.376-0.698 0-0.23-0.073-0.411-0.225-0.544z"></path>
<path fill="#fff" d="M26.965 14.71c-0.328-2.964-5.51-4.798-11.57-4.095-6.060 0.702-10.706 3.675-10.378 6.64 0.329 2.964 5.507 4.797 11.57 4.095 6.065-0.703 10.707-3.676 10.378-6.64zM20.625 16.194c-0.614 0.438-1.509 0.654-2.684 0.659l-1.141 0.004-0.035 0.163c-0.010 0.033-0.016 0.070-0.017 0.109v0.001c-0.005 0.023-0.005 0.045-0.005 0.063 0 0.252 0.117 0.437 0.346 0.56 0.23 0.129 0.57 0.19 1.016 0.19 0.423 0 0.83-0.048 1.214-0.136 0.38-0.089 0.748-0.221 1.098-0.398l-0.29 1.555c-0.436 0.106-0.855 0.19-1.27 0.243-0.361 0.055-0.779 0.087-1.204 0.089h-0.002c-0.553 0-1.011-0.067-1.379-0.208-0.38-0.146-0.804-0.464-1.015-0.919-0.38 0.362-0.823 0.662-1.311 0.88l-0.029 0.012c-0.427 0.187-0.924 0.296-1.447 0.296-0.002 0-0.004 0-0.007 0h0c-0.63 0.005-1.128-0.15-1.482-0.455-0.359-0.304-0.536-0.729-0.54-1.263-0.005-0.822 0.302-1.445 0.912-1.878 0.613-0.437 1.508-0.653 2.684-0.658l1.14-0.004 0.035-0.164c0.010-0.033 0.017-0.070 0.018-0.109l0-0.001c0.004-0.022 0.004-0.044 0.004-0.062 0-0.252-0.117-0.437-0.346-0.561-0.229-0.128-0.57-0.19-1.016-0.19-0.423 0-0.83 0.049-1.214 0.137-0.38 0.088-0.748 0.22-1.098 0.398l0.29-1.555c0.436-0.106 0.855-0.19 1.27-0.243 0.361-0.055 0.779-0.087 1.204-0.089h0.002c0.554 0 1.012 0.067 1.38 0.208 0.38 0.146 0.803 0.464 1.015 0.919 0.38-0.363 0.823-0.663 1.311-0.881l0.029-0.012c0.427-0.187 0.924-0.296 1.447-0.296 0.002 0 0.004 0 0.005 0h-0c0.631-0.004 1.128 0.15 1.482 0.455 0.36 0.305 0.536 0.73 0.54 1.264 0.005 0.817-0.297 1.444-0.911 1.877z"></path>
<path fill="#fff" d="M16.523 21.703c-0.877 0.102-1.746 0.15-2.589 0.15-2.006 0-3.881-0.282-5.442-0.835-0.704-0.245-1.311-0.543-1.875-0.904l0.035 0.021c-0.213 1.118-0.070 2.103 0.479 2.836 1.577 2.107 5.99 1.436 10.356-1.4-0.32 0.048-0.64 0.092-0.964 0.132zM15.499 10.306c2.96-0.345 5.813-0.102 8.030 0.684 0.704 0.245 1.313 0.544 1.877 0.905l-0.035-0.021c0.211-1.118 0.069-2.103-0.48-2.836-1.578-2.107-5.99-1.436-10.356 1.4 0.32-0.053 0.644-0.097 0.964-0.132z"></path>
<path fill="#fff" d="M12.279 24.265c-0.519 0.13-1.123 0.217-1.742 0.242l-0.018 0.001c0.446 1.18 1.142 2.006 2.062 2.315 2.222 0.747 5.096-1.7 7.132-5.752-0.48 0.133-0.977 0.252-1.478 0.354-1.989 1.405-4.063 2.399-5.956 2.84zM19.877 7.712c0.52-0.128 1.125-0.212 1.745-0.234l0.015-0c-0.442-1.18-1.133-2.010-2.054-2.323-2.217-0.756-5.104 1.678-7.153 5.716 0.48-0.132 0.977-0.247 1.482-0.344 1.989-1.4 4.068-2.382 5.965-2.815z"></path>
</svg>
