<!-- Generated by IcoMoon.io -->
<svg version="1.1" xmlns="http://www.w3.org/2000/svg" width="32" height="32" viewBox="0 0 32 32">
<title>aeur</title>
<path fill="#051d2d" d="M32 16c0 8.837-7.163 16-16 16s-16-7.163-16-16c0-8.837 7.163-16 16-16s16 7.163 16 16z"></path>
<path fill="#000" d="M15.993 19.986c-3.862 0-6.993-3.131-6.993-6.993s3.131-6.993 6.993-6.993c3.862 0 6.993 3.131 6.993 6.993v0c-0.005 3.86-3.133 6.988-6.992 6.993h-0.001zM16 12.951c-0.027 0-0.049 0.022-0.049 0.049s0.022 0.049 0.049 0.049c0.027 0 0.049-0.022 0.049-0.049v0c-0.002-0.027-0.023-0.048-0.050-0.050h-0z"></path>
<path fill="#000" d="M15.993 26.986c-3.862 0-6.993-3.131-6.993-6.993s3.131-6.993 6.993-6.993c3.862 0 6.993 3.131 6.993 6.993v0c-0.005 3.86-3.133 6.988-6.992 6.993h-0.001zM16 19.951c-0.027 0-0.049 0.022-0.049 0.049s0.022 0.049 0.049 0.049c0.027 0 0.049-0.022 0.049-0.049v0c-0.002-0.027-0.023-0.048-0.050-0.050h-0z"></path>
</svg>
