<!-- Generated by IcoMoon.io -->
<svg version="1.1" xmlns="http://www.w3.org/2000/svg" width="32" height="32" viewBox="0 0 32 32">
<title>aion</title>
<path fill="#00bfec" d="M32 16c0 8.837-7.163 16-16 16s-16-7.163-16-16c0-8.837 7.163-16 16-16s16 7.163 16 16z"></path>
<path fill="#fff" d="M15.971 23.15c-3.957 0-7.176-3.199-7.176-7.13s3.22-7.13 7.176-7.13c3.957 0 7.176 3.198 7.176 7.13s-3.219 7.13-7.176 7.13zM15.971 10.286c-3.181 0-5.77 2.572-5.77 5.734s2.589 5.733 5.77 5.733c3.182 0 5.77-2.572 5.77-5.733s-2.588-5.734-5.77-5.734zM20.996 7.871c-1.428-0.883-3.159-1.406-5.013-1.406-0.004 0-0.009 0-0.013 0h0.001c-0.001 0-0.003 0-0.004 0-1.71 0-3.317 0.444-4.711 1.223l0.049-0.025-0.684-1.22c1.543-0.866 3.386-1.376 5.349-1.376 0.001 0 0.001 0 0.002 0h-0c2.040 0 4.032 0.558 5.761 1.614l-0.736 1.19zM23.091 24.381l-0.909-1.067c2.087-1.758 3.404-4.372 3.405-7.294v-0h1.406c0 3.226-1.422 6.273-3.902 8.36zM15.971 26.971c-2.557 0-5.049-0.89-7.016-2.505l0.896-1.076c1.652 1.36 3.79 2.185 6.12 2.185h0c1.56 0 3.048-0.36 4.422-1.068l0.647 1.24c-1.473 0.772-3.218 1.225-5.069 1.225h-0z"></path>
<path fill="#fff" opacity="0.5" d="M25.35 13.425c-0.393-1.385-1.046-2.586-1.908-3.604l0.012 0.014 0.9-0.746c0.953 1.126 1.684 2.472 2.107 3.949l0.018 0.076-1.128 0.311zM6.86 21.976c-1.123-1.671-1.793-3.728-1.793-5.942 0-0.005 0-0.010 0-0.015v0.001c0-2.962 1.18-5.728 3.323-7.789l0.814 0.837c-1.829 1.745-2.966 4.202-2.966 6.924 0 0.010 0 0.020 0 0.030v-0.002c0 1.899 0.554 3.737 1.6 5.316l-0.978 0.64z"></path>
</svg>
