<!-- Generated by IcoMoon.io -->
<svg version="1.1" xmlns="http://www.w3.org/2000/svg" width="32" height="32" viewBox="0 0 32 32">
<title>amb</title>
<path fill="#3c5be0" d="M32 16c0 8.837-7.163 16-16 16s-16-7.163-16-16c0-8.837 7.163-16 16-16s16 7.163 16 16z"></path>
<path fill="#fff" d="M27 16.015v0.008c-0.004 0.084-0.026 0.162-0.064 0.231l0.001-0.003c-0.14 0.255-3.491 6.249-10.936 6.249s-10.798-5.994-10.937-6.249c-0.037-0.066-0.060-0.144-0.064-0.227l-0-0.001v-0.045l0.001-0.023c0.006-0.070 0.026-0.134 0.055-0.192l-0.001 0.003 0.008-0.016c0.14-0.256 3.492-6.25 10.937-6.25s10.797 5.995 10.936 6.25l0.006 0.012 0.003 0.005c0.028 0.055 0.047 0.118 0.053 0.186l0 0.002v0.046l0.002 0.014zM25.89 16c-0.563-0.874-2.679-3.793-6.515-4.967 1.212 0.857 2.087 2.121 2.429 3.589l0.008 0.041c0.263 0.060 0.452 0.296 0.457 0.57s-0.175 0.516-0.437 0.586-0.535-0.050-0.665-0.29c-0.045-0.082-0.072-0.18-0.072-0.285 0-0.173 0.073-0.329 0.19-0.439l0-0c-0.494-2.223-2.322-3.94-4.574-4.239-0.019-0.002-0.036-0.006-0.052-0.012l0.002 0.001c-0.198-0.011-0.429-0.018-0.662-0.018s-0.465 0.006-0.694 0.019l0.032-0.001c-0.014 0.005-0.031 0.009-0.049 0.011l-0.001 0c-0.923 0.127-1.748 0.472-2.445 0.981l0.015-0.011c-0.044 0.031-0.098 0.050-0.158 0.050-0.121 0-0.224-0.079-0.259-0.188l-0.001-0.002c-0.008-0.025-0.013-0.054-0.013-0.084 0-0.092 0.044-0.173 0.113-0.224l0.001-0.001c0.009-0.007 0.033-0.025 0.057-0.041l0.016-0.011c-3.83 1.177-5.942 4.090-6.504 4.964 0.557 0.867 2.64 3.74 6.41 4.935-1.217-0.895-2.078-2.213-2.369-3.732l-0.006-0.038c-0.254-0.095-0.41-0.353-0.38-0.626s0.24-0.49 0.508-0.525 0.526 0.12 0.624 0.377c0.025 0.064 0.039 0.137 0.039 0.214 0 0.201-0.098 0.379-0.25 0.488l-0.002 0.001c0.43 2.21 2.148 3.927 4.332 4.33 0.295 0.026 0.638 0.040 0.984 0.040s0.689-0.015 1.028-0.043l-0.044 0.003c0.858-0.165 1.615-0.512 2.258-1.002l-0.013 0.010c0.045-0.035 0.103-0.057 0.166-0.057 0.038 0 0.075 0.008 0.108 0.023l-0.002-0.001c0.098 0.044 0.165 0.141 0.165 0.254 0 0.092-0.044 0.173-0.112 0.223l-0.001 0.001-0.087 0.065c3.778-1.193 5.865-4.072 6.423-4.94zM20.82 16.017c0 2.697-2.162 4.892-4.82 4.892s-4.82-2.195-4.82-4.892c0-2.697 2.162-4.891 4.82-4.891s4.82 2.193 4.82 4.891zM20.276 16.017c0-2.392-1.918-4.339-4.276-4.339s-4.277 1.946-4.277 4.34 1.919 4.338 4.277 4.338 4.276-1.946 4.276-4.339zM17.576 14.674c0 0.524-0.259 1.012-0.69 1.3l0.43 2.627c0.004 0.020 0.007 0.042 0.007 0.065 0 0.173-0.141 0.314-0.314 0.314-0.003 0-0.007-0-0.010-0h-1.92c-0.003 0-0.006 0-0.010 0-0.174 0-0.315-0.141-0.315-0.315 0-0.023 0.002-0.045 0.007-0.066l-0 0.002 0.428-2.627c-0.612-0.411-0.852-1.205-0.573-1.894s1-1.081 1.72-0.937c0.721 0.145 1.24 0.786 1.24 1.531zM21.923 16.717c-0.15 1.307-0.696 2.465-1.515 3.373l0.005-0.005c-0.050 0.057-0.122 0.092-0.203 0.092-0.121 0-0.224-0.080-0.258-0.191l-0-0.002c-0.008-0.025-0.013-0.054-0.013-0.084 0-0.073 0.028-0.139 0.073-0.189l-0 0c0.739-0.82 1.236-1.872 1.37-3.035l0.002-0.025c0.016-0.138 0.132-0.244 0.272-0.244 0.010 0 0.020 0.001 0.030 0.002l-0.001-0c0.15 0.018 0.256 0.155 0.239 0.306zM12.053 11.849c0.052 0.051 0.085 0.122 0.085 0.2 0 0.073-0.029 0.14-0.075 0.19l0-0c-0.742 0.793-1.253 1.81-1.419 2.94l-0.004 0.030c-0.020 0.133-0.134 0.234-0.271 0.234-0.014 0-0.027-0.001-0.040-0.003l0.002 0c-0.132-0.022-0.232-0.136-0.232-0.272 0-0.014 0.001-0.028 0.003-0.042l-0 0.002c0.188-1.276 0.75-2.395 1.57-3.27l-0.003 0.003c0.049-0.053 0.12-0.086 0.197-0.086 0.073 0 0.139 0.029 0.188 0.076l-0-0z"></path>
</svg>
