<!-- Generated by IcoMoon.io -->
<svg version="1.1" xmlns="http://www.w3.org/2000/svg" width="32" height="32" viewBox="0 0 32 32">
<title>amp</title>
<path fill="#2daee4" d="M32 16c0 8.837-7.163 16-16 16s-16-7.163-16-16c0-8.837 7.163-16 16-16s16 7.163 16 16z"></path>
<path fill="#fff" d="M8.303 11.957h0.11c0.963-0.018 1.8-0.382 2.51-1.091 0.69-0.746 1.036-1.601 1.036-2.565 0-0.491 0.177-0.914 0.532-1.269 0.321-0.329 0.768-0.532 1.263-0.532 0.012 0 0.023 0 0.035 0l-0.002-0c0.49 0 0.914 0.177 1.268 0.532s0.532 0.778 0.532 1.269c0 0.49-0.168 0.914-0.504 1.269-0.303 0.332-0.732 0.544-1.211 0.559l-0.003 0c-1.037-0.037-1.928 0.318-2.674 1.064s-1.1 1.619-1.064 2.62c0.036 1.036 0.41 1.9 1.119 2.591 0.782 0.691 1.655 1.028 2.619 1.010 0.482 0.015 0.911 0.228 1.213 0.559l0.001 0.001c0.336 0.354 0.504 0.768 0.504 1.24 0 0.51-0.177 0.942-0.532 1.297-0.316 0.328-0.759 0.532-1.249 0.532-0.007 0-0.013-0-0.020-0h0.001c-0.51 0-0.941-0.178-1.296-0.532-0.329-0.321-0.532-0.768-0.532-1.263 0-0.012 0-0.023 0-0.035l-0 0.002c0-0.017 0-0.037 0-0.056 0-0.962-0.397-1.831-1.037-2.453l-0.001-0.001c-0.633-0.67-1.52-1.095-2.505-1.12l-0.005-0c-0.345 0.019-0.64-0.036-0.886-0.163s-0.447-0.308-0.596-0.526l-0.004-0.006c-0.149-0.218-0.263-0.474-0.325-0.749l-0.003-0.015c-0.038-0.158-0.060-0.34-0.060-0.527 0-0.108 0.007-0.214 0.021-0.317l-0.001 0.012c0.236-0.891 0.818-1.337 1.745-1.337zM8.328 17.414c0.473 0 0.887 0.173 1.241 0.519 0.355 0.345 0.541 0.755 0.56 1.228-0.019 1 0.327 1.873 1.036 2.619 0.71 0.727 1.564 1.091 2.565 1.091h0.082c0.982 0 1.827-0.364 2.537-1.091 0.727-0.728 1.082-1.6 1.064-2.62-0.003-1.003-0.432-1.905-1.117-2.535l-0.002-0.002c-0.718-0.683-1.553-1.029-2.507-1.037h-0.112c-0.482-0.015-0.911-0.227-1.213-0.558l-0.001-0.001c-0.312-0.32-0.505-0.759-0.505-1.242 0-0.009 0-0.019 0-0.028l-0 0.001c0-0.49 0.178-0.914 0.532-1.269 0.301-0.3 0.658-0.474 1.070-0.52l0.12-0.012 0.046 0.001c0.017-0 0.037-0.001 0.057-0.001 0.030 0 0.061 0.001 0.091 0.002l-0.004-0c0.94-0.012 1.758-0.367 2.457-1.066 0.746-0.746 1.11-1.628 1.091-2.647 0-0.4 0.137-0.764 0.41-1.091l0.027-0.027 0.027-0.028c0-0.018 0.010-0.027 0.027-0.027l0.028-0.027v-0.027h0.027v-0.029c0.018 0 0.027-0.009 0.027-0.027l0.027-0.027h0.055c0-0.019 0.010-0.028 0.027-0.028l0.028-0.027v-0.027h0.054c0-0.019 0.010-0.028 0.027-0.028l0.028-0.027 0.027-0.027h0.027c0-0.018 0.010-0.027 0.028-0.027s0.027-0.010 0.027-0.028h0.027l0.027-0.027h0.055v-0.027h0.027l0.028-0.028h0.054v-0.025h0.055l0.027-0.027h0.055l0.027-0.027h0.082l0.027-0.028h0.082c0.018 0 0.027-0.009 0.027-0.027h0.573l0.014 0.014c0.009 0.009 0.022 0.013 0.040 0.013h0.055l0.014 0.014c0.009 0.009 0.022 0.014 0.040 0.014h0.055l0.027 0.027h0.055l0.027 0.027h0.055c0.018 0.018 0.036 0.027 0.054 0.027l0.028 0.028h0.054v0.027h0.028l0.027 0.027 0.013 0.014c0.010 0.010 0.023 0.014 0.041 0.014l0.028 0.027h0.027c0 0.018 0.018 0.027 0.054 0.027l0.028 0.027v0.028h0.027c0 0.018 0.018 0.027 0.055 0.027 0 0.018 0.009 0.027 0.027 0.027v0.028h0.027l0.028 0.027c0.018 0.018 0.036 0.027 0.054 0.027l0.027 0.028c0 0.018 0.010 0.027 0.028 0.027v0.027h0.027c0 0.018 0.005 0.032 0.014 0.040l0.013 0.015c0 0.018 0.010 0.027 0.028 0.027l0.027 0.027c0 0.018 0.004 0.032 0.013 0.041l0.041 0.041 0.028 0.027v0.055l0.027 0.027v0.026h0.027c0 0.019 0.005 0.032 0.014 0.041l0.013 0.014c0 0.018 0.010 0.027 0.028 0.027v0.028c0 0.018 0.004 0.031 0.013 0.040l0.041 0.041c0 0.037 0.010 0.055 0.028 0.055v0.027c0 0.019 0.004 0.032 0.013 0.041l0.014 0.014v0.054l0.027 0.028v0.082c0.018 0.018 0.027 0.036 0.027 0.054v0.082c0.019 0.018 0.028 0.036 0.028 0.055v0.217c0 0.964 0.345 1.819 1.036 2.565 0.71 0.709 1.556 1.073 2.538 1.091 0.49-0.018 0.927 0.15 1.31 0.505 0.381 0.354 0.572 0.786 0.572 1.296s-0.177 0.94-0.532 1.296c-0.316 0.328-0.759 0.532-1.249 0.532-0.007 0-0.014-0-0.021-0h0.001c-0.008 0-0.017 0-0.026 0-0.483 0-0.922-0.193-1.243-0.506l0 0c-0.336-0.311-0.549-0.75-0.56-1.24l-0-0.002c0.019-1-0.345-1.882-1.090-2.646-0.728-0.728-1.61-1.082-2.647-1.064-0.99 0.025-1.877 0.449-2.508 1.117l-0.002 0.002c-0.64 0.622-1.037 1.491-1.037 2.453 0 0.020 0 0.040 0.001 0.060l-0-0.003-0.001 0.084c0.020 0.93 0.365 1.757 1.036 2.48 0.709 0.71 1.555 1.074 2.537 1.092 0.654-0.036 1.155 0.2 1.5 0.71 0.346 0.49 0.455 1.010 0.328 1.555-0.255 0.91-0.837 1.364-1.746 1.364h-0.082c-1.019 0.036-1.865 0.41-2.537 1.119-0.692 0.691-1.037 1.537-1.037 2.537 0 0.491-0.177 0.914-0.532 1.269-0.316 0.328-0.759 0.532-1.249 0.532-0.007 0-0.014-0-0.021-0h-0.053c-0.491 0-0.91-0.177-1.255-0.532-0.321-0.318-0.519-0.759-0.519-1.246 0-0.008 0-0.016 0-0.024v0.001c0-1-0.345-1.846-1.036-2.537-0.633-0.67-1.52-1.094-2.505-1.119l-0.005-0c-0.030 0.002-0.065 0.003-0.1 0.003-0.486 0-0.928-0.194-1.251-0.508l0 0c-0.345-0.321-0.56-0.777-0.56-1.284 0-0.014 0-0.027 0-0.041l-0 0.002c0-0.491 0.177-0.914 0.532-1.269 0.321-0.329 0.768-0.532 1.263-0.532 0.012 0 0.023 0 0.035 0l-0.002-0z"></path>
</svg>
