<!-- Generated by IcoMoon.io -->
<svg version="1.1" xmlns="http://www.w3.org/2000/svg" width="32" height="32" viewBox="0 0 32 32">
<title>ampl</title>
<path fill="#000" d="M32 16c0 8.837-7.163 16-16 16s-16-7.163-16-16c0-8.837 7.163-16 16-16s16 7.163 16 16z"></path>
<path fill="#fff" d="M7.511 23.25c-0.007-0.111-0.011-0.241-0.011-0.372 0-0.118 0.003-0.236 0.010-0.353l-0.001 0.016c0.080-0.024 0.162-0.040 0.246-0.050 0.242-0.041 0.481-0.097 0.717-0.167 0.064-0.020 0.128-0.042 0.19-0.066 0.31-0.119 0.584-0.315 0.792-0.569 0.144-0.177 0.27-0.368 0.378-0.57 0.152-0.276 0.287-0.561 0.406-0.853 0.241-0.588 0.481-1.178 0.72-1.769l2.459-6.093c0.777-1.931 1.54-3.867 2.287-5.809 0.015-0.040 0.032-0.078 0.049-0.118 0.276-0.076 0.548-0.154 0.83-0.227 0.016 0.040 0.032 0.074 0.045 0.11l0.95 2.601c3.167 9.295 4.275 12.226 5.398 15.15l-2.125-6.296c0.304 0.805 0.61 1.61 0.919 2.412 0.122 0.328 0.265 0.648 0.429 0.958 0.085 0.156 0.162 0.282 0.245 0.405l-0.011-0.018c0.257 0.392 0.656 0.675 1.117 0.791 0.248 0.065 0.5 0.114 0.754 0.147l0.181 0.026c0.026 0.079 0.010 0.155 0.012 0.23 0.003 0.076 0 0.16 0 0.241 0.003 0.078 0.001 0.155-0.004 0.233-0.026 0.004-0.046 0.008-0.066 0.010h-6.363c-0.006-0.012-0.011-0.027-0.014-0.042l-0-0.001v-0.639c0.002-0.011 0.005-0.020 0.008-0.029l-0 0.001c0.046-0.013 0.101-0.024 0.157-0.030l0.004-0c0.262-0.033 0.52-0.083 0.776-0.148 0.102-0.028 0.203-0.064 0.303-0.1 0.050-0.020 0.098-0.043 0.144-0.070 0.251-0.138 0.352-0.354 0.33-0.63-0.012-0.137-0.036-0.263-0.071-0.385l0.004 0.015c-0.050-0.19-0.12-0.373-0.186-0.557 1.943 6.425 0.618 2.84-0.694-0.751l-3.217-10.069c-0.014-0.040-0.018-0.083-0.059-0.118-0.013 0.008-0.030 0.014-0.040 0.025-0.010 0.017-0.018 0.036-0.024 0.056l-0 0.002c-0.63 1.776-1.301 3.538-1.97 5.3-0.493 1.306-0.987 2.61-1.447 3.927-0.005-0.061-0.187 0.467-0.364 0.997l-0.171 0.593c-0.061 0.176-0.114 0.386-0.147 0.602l-0.003 0.021c-0.014 0.077-0.022 0.165-0.022 0.255 0 0.061 0.004 0.12 0.011 0.179l-0.001-0.007c0.023 0.193 0.126 0.358 0.274 0.465l0.002 0.001c0.102 0.071 0.214 0.128 0.332 0.167 0.188 0.065 0.382 0.114 0.579 0.146 0.217 0.039 0.436 0.069 0.654 0.103l0.047 0.008c0.005 0.014 0.008 0.030 0.010 0.047l0 0.001v0.618c-0.002 0.014-0.005 0.026-0.008 0.037l0-0.001c-0.016 0.004-0.036 0.007-0.056 0.010l-0.003 0-5.691 0.001z"></path>
</svg>
