<!-- Generated by IcoMoon.io -->
<svg version="1.1" xmlns="http://www.w3.org/2000/svg" width="32" height="32" viewBox="0 0 32 32">
<title>ant</title>
<path fill="#2cd3e1" d="M32 16c0 8.837-7.163 16-16 16s-16-7.163-16-16c0-8.837 7.163-16 16-16s16 7.163 16 16z"></path>
<path fill="#fff" d="M7.965 17.598c-0.006-0.094-0.010-0.205-0.010-0.317v-0c0-3.517 2.742-6.376 6.172-6.498 0.082 0 0.17 0 0.252 0.007l-0.818-0.813s3.293-0.55 7.521 1.992c0 0 0.062 0.129 0 0.508 0 0 1.992 0.854 2.162 2.514s-0.886 2.609-1.739 2.744c0 0 0.443-0.684-0.238-1.050-0.125-0.069-0.274-0.11-0.433-0.11-0.018 0-0.037 0.001-0.055 0.002l0.003-0c-1.302 0-1.452 1.477-1.452 1.477-0.014 0.074-0.014 0.149-0.014 0.223 0 0-0.19 1.879 2.922 2.1 0.668-0.854 1.286-1.815 1.813-2.831l0.048-0.103c0.773-1.48 1.411-3.197 1.825-4.999l0.028-0.147c-1.813-1.486-3.951-2.76-6.25-3.827-0.862-0.4-1.697-0.747-2.488-1.045-0.213-0.091-0.618-0.237-1.027-0.374l-0.193-0.056c-0.322 0.104-0.73 0.246-1.22 0.43-0.79 0.297-1.626 0.645-2.487 1.045-2.297 1.066-4.436 2.34-6.249 3.828 0.098 0.472 0.247 1.061 0.461 1.745 0.433 1.377 0.93 2.554 1.522 3.672l-0.056-0.117zM27 11.902l-0.050 0.28c-0.026 0.217-0.203 0.995-0.421 1.74-0.45 1.524-0.983 2.834-1.628 4.076l0.059-0.126c-0.906 1.766-2.006 3.306-3.268 4.574-1.557 1.561-3.359 2.714-5.367 3.432l-0.112 0.040-0.213 0.082-0.211-0.074-0.118-0.041c-2.103-0.768-3.896-1.939-5.364-3.431l-0.002-0.002c-1.268-1.28-2.367-2.817-3.268-4.574-0.779-1.494-1.429-3.229-1.859-5.049l-0.031-0.154c-0.050-0.224-0.105-0.504-0.095-0.464l-0.052-0.288 0.12-0.1 0.088-0.075c1.844-1.552 4.025-2.883 6.38-4.002 1.103-0.549 2.454-1.106 3.846-1.576l0.241-0.071 0.318-0.099 0.217 0.065 0.108 0.035c1.080 0.347 2.515 0.9 4.084 1.646 2.352 1.117 4.53 2.446 6.372 3.995l0.226 0.16zM19.398 12.626c0.055-0.027 0.232-0.115 0.437-0.325 0.409 0.054 0.811 0.183 0.811 0.183-0.743-0.447-1.76-0.712-2.885-0.705 0 0 0.43 0.61 1.623 0.86l0.014-0.013z"></path>
</svg>
