<!-- Generated by IcoMoon.io -->
<svg version="1.1" xmlns="http://www.w3.org/2000/svg" width="32" height="32" viewBox="0 0 32 32">
<title>arg</title>
<path fill="#a71435" d="M32 16c0 8.837-7.163 16-16 16s-16-7.163-16-16c0-8.837 7.163-16 16-16s16 7.163 16 16z"></path>
<path fill="#fff" d="M10.755 5.246c1.546-0.784 3.371-1.243 5.304-1.243 6.592 0 11.936 5.344 11.936 11.936 0 3.001-1.108 5.744-2.937 7.841l0.012-0.014c-0.595-1.296-1.051-2.655-1.561-3.993l-3.080-8.070c-0.297-0.818-0.796-1.604-1.571-2.029-0.771-0.38-1.678-0.603-2.638-0.603-0.302 0-0.599 0.022-0.889 0.065l0.033-0.004c-0.956 0.107-1.954 0.436-2.602 1.19-0.616 0.711-0.892 1.625-1.242 2.485l-2.22 5.628c-0.743 1.784-1.37 3.632-2.177 5.405-1.126-1.214-1.986-2.691-2.475-4.329l-0.020-0.078c-0.33-1.043-0.52-2.242-0.52-3.486 0-4.672 2.681-8.717 6.589-10.681l0.069-0.031-0.011 0.010z"></path>
<path fill="#fff" d="M15.194 13.38c0.212-0.637 1.062-0.85 1.614-0.488 0.297 0.223 0.404 0.605 0.542 0.945 1.38 3.61 2.74 7.242 4.11 10.864 0.18 0.52 0.445 1.019 0.552 1.56-0.085 0.091-0.184 0.169-0.292 0.231l-0.006 0.003c-1.634 0.891-3.579 1.415-5.646 1.415-1.504 0-2.943-0.277-4.269-0.784l0.082 0.028c-0.595-0.245-1.21-0.457-1.731-0.829 0.053-0.488 0.297-0.924 0.478-1.37 1.529-3.854 3.026-7.72 4.566-11.575z"></path>
</svg>
