<!-- Generated by IcoMoon.io -->
<svg version="1.1" xmlns="http://www.w3.org/2000/svg" width="32" height="32" viewBox="0 0 32 32">
<title>arn</title>
<path fill="#0092b5" d="M32 16c0 8.837-7.163 16-16 16s-16-7.163-16-16c0-8.837 7.163-16 16-16s16 7.163 16 16z"></path>
<path fill="#fff" d="M11.76 14.102l4.282-7.538c0.008-0.014 0.024-0.023 0.080 0l4.074 7.401c-0.22 0.18-0.359 0.452-0.359 0.756 0 0.315 0.15 0.596 0.382 0.774l0.002 0.002-3.763 6.788c-0.128-0.063-0.278-0.099-0.436-0.099-0.154 0-0.299 0.034-0.43 0.096l0.006-0.003-3.873-6.899c0.159-0.172 0.257-0.404 0.257-0.658 0-0.236-0.084-0.453-0.225-0.621l0.001 0.002zM11.35 15.636l3.888 6.925c-0.081 0.1-0.143 0.219-0.178 0.349l-0.002 0.007c-3.139-0.752-5.089-1.217-5.852-1.396-0.299-0.414-0.58-0.886-0.819-1.381l-0.025-0.057 2.492-4.386c0.039 0.005 0.083 0.008 0.129 0.008 0.132 0 0.258-0.025 0.374-0.071l-0.007 0.002zM10.811 13.753l-3.087-5.5c2.104-1.117 4.715-1.703 7.835-1.753l-4.162 7.326c-0.121-0.056-0.263-0.088-0.412-0.088-0.061 0-0.122 0.005-0.18 0.016l0.006-0.001zM10.391 13.929c-0.247 0.18-0.405 0.467-0.405 0.792 0 0.339 0.173 0.638 0.436 0.813l0.004 0.002-2.29 4.030c-0.361-0.868-0.601-1.874-0.669-2.926l-0.001-0.028-0.463-7.382c-0.001-0.016-0.002-0.035-0.002-0.054 0-0.28 0.13-0.53 0.332-0.693l0.002-0.001zM16.991 22.927c-0.036-0.136-0.096-0.255-0.177-0.357l0.002 0.002 3.818-6.887c0.060 0.013 0.129 0.020 0.2 0.020 0.105 0 0.207-0.016 0.303-0.046l-0.007 0.002 2.474 4.494c-0.21 0.432-0.452 0.848-0.724 1.245zM16.25 24.127c0.37-0.086 0.657-0.37 0.746-0.732l0.001-0.007 5.456-1.415c-0.661 0.817-1.432 1.51-2.298 2.069l-0.038 0.023-3.623 2.314c-0.070 0.046-0.151 0.083-0.238 0.108l-0.006 0.002zM15.796 24.127v2.373c-0.11-0.025-0.207-0.067-0.294-0.123l0.004 0.002-3.623-2.314c-0.865-0.557-1.605-1.213-2.233-1.966l-0.013-0.016c0.99 0.235 2.793 0.665 5.409 1.291 0.080 0.373 0.374 0.668 0.75 0.754zM21.166 13.793c-0.098-0.035-0.212-0.055-0.33-0.055-0.083 0-0.164 0.010-0.241 0.029l0.007-0.001-3.997-7.262c3.032 0.067 5.58 0.646 7.641 1.735zM21.549 14.034l3.090-5.572c0.22 0.164 0.362 0.424 0.362 0.716 0 0.019-0.001 0.037-0.002 0.055l0-0.002-0.463 7.383c-0.071 1.107-0.322 2.137-0.723 3.087l0.023-0.062-2.314-4.203c0.192-0.178 0.312-0.432 0.312-0.714 0-0.269-0.109-0.512-0.285-0.688l0 0zM16 11.234c-0.294 0.005-0.532 0.24-0.541 0.533l-0 0.001v1.954l-2.886 1.778 0.309 0.667 2.577-0.844v1.954l-0.722 0.533v0.533l1.263-0.356 1.263 0.355v-0.533l-0.722-0.533v-1.954l2.533 0.89 0.353-0.712-2.886-1.778v-1.954c-0.009-0.293-0.246-0.528-0.54-0.533h-0z"></path>
</svg>
