<!-- Generated by IcoMoon.io -->
<svg version="1.1" xmlns="http://www.w3.org/2000/svg" width="32" height="32" viewBox="0 0 32 32">
<title>ary</title>
<path fill="#343434" d="M32 16c0 8.837-7.163 16-16 16s-16-7.163-16-16c0-8.837 7.163-16 16-16s16 7.163 16 16z"></path>
<path fill="#fff" d="M23.917 21.11c0.336-0.118 0.572-0.432 0.572-0.802 0-0.020-0.001-0.041-0.002-0.061l0 0.003v1.1c0 0.002 0 0.004 0 0.006 0 0.39-0.245 0.722-0.589 0.852l-0.006 0.002-7.588 2.733c-0.088 0.036-0.191 0.057-0.298 0.057s-0.21-0.021-0.303-0.059l-7.583-2.73c-0.35-0.129-0.595-0.459-0.595-0.847 0-0.005 0-0.009 0-0.014v0.001-1.1c0 0.379 0.235 0.733 0.595 0.86l7.613 2.732c0.088 0.036 0.19 0.057 0.297 0.057s0.209-0.021 0.303-0.059l-0.005 0.002zM23.917 19.162c0.336-0.125 0.571-0.442 0.571-0.815 0-0.016-0-0.032-0.001-0.047l0 0.002v1.1c0 0.002 0 0.004 0 0.006 0 0.39-0.245 0.722-0.589 0.852l-0.006 0.002-7.588 2.733c-0.088 0.036-0.191 0.057-0.298 0.057s-0.21-0.021-0.303-0.059l-7.583-2.73c-0.35-0.129-0.595-0.459-0.595-0.847 0-0.005 0-0.009 0-0.014v0.001-1.113c0 0.392 0.235 0.733 0.595 0.872l7.613 2.733c0.088 0.036 0.19 0.057 0.297 0.057s0.209-0.021 0.303-0.059l-0.005 0.002zM23.917 17.202c0.343-0.125 0.583-0.449 0.583-0.828 0-0.007-0-0.014-0-0.021l0 0.001v1.1c0 0.002 0 0.004 0 0.006 0 0.39-0.245 0.722-0.59 0.852l-0.006 0.002-7.588 2.733c-0.088 0.036-0.19 0.057-0.297 0.057s-0.209-0.021-0.303-0.059l0.005 0.002-7.601-2.745c-0.35-0.129-0.595-0.459-0.595-0.847 0-0.005 0-0.009 0-0.014v0.001-1.1c0 0.379 0.235 0.733 0.595 0.86l7.613 2.732c0.088 0.036 0.19 0.057 0.297 0.057s0.209-0.021 0.303-0.059l-0.005 0.002zM7.5 10.662c-0-0.004-0-0.009-0-0.013 0-0.388 0.245-0.718 0.589-0.845l0.006-0.002 7.601-2.745c0.088-0.036 0.19-0.057 0.297-0.057s0.209 0.021 0.303 0.059l-0.005-0.002 7.601 2.745c0.35 0.129 0.595 0.459 0.595 0.847 0 0.005-0 0.009-0 0.014v-0.001 4.832c0 0.002 0 0.004 0 0.006 0 0.389-0.245 0.722-0.589 0.852l-0.006 0.002-7.613 2.732c-0.088 0.036-0.19 0.057-0.297 0.057s-0.209-0.021-0.303-0.059l0.005 0.002-7.589-2.732c-0.35-0.129-0.595-0.459-0.595-0.847 0-0.005 0-0.009 0-0.014v0.001z"></path>
</svg>
