<!-- Generated by IcoMoon.io -->
<svg version="1.1" xmlns="http://www.w3.org/2000/svg" width="32" height="32" viewBox="0 0 32 32">
<title>ast</title>
<path fill="#0061ff" d="M32 16c0 8.837-7.163 16-16 16s-16-7.163-16-16c0-8.837 7.163-16 16-16s16 7.163 16 16z"></path>
<path fill="#fff" d="M16.010 6l9.99 10.14-0.375 0.34c-0.163 0.154-0.336 0.305-0.516 0.447l-0.016 0.013c-0.326 0.261-0.67 0.521-1.016 0.752-1.315 0.902-2.849 1.605-4.497 2.021l-0.099 0.021c-1.136 0.28-2.302 0.42-3.471 0.42-1.48 0-2.95-0.22-4.36-0.67-1.539-0.491-2.877-1.176-4.075-2.042l0.042 0.029c-0.464-0.341-0.865-0.666-1.252-1.007l0.019 0.017-0.385-0.341 1.095-1.112zM24.748 16.47c0.148-0.12 0.295-0.24 0.424-0.37l-9.172-9.29-9.171 9.29 0.187 0.16c0.306 0.25 0.611 0.5 0.927 0.72 2.225 1.615 5.010 2.583 8.022 2.583 0.016 0 0.032-0 0.048-0h-0.002c1.188-0.001 2.34-0.151 3.44-0.431l-0.097 0.021c1.679-0.422 3.153-1.098 4.466-1.993l-0.048 0.031c0.338-0.222 0.664-0.463 0.977-0.72zM9.718 15.99c1.803-0.824 3.911-1.309 6.13-1.321l0.004-0c2.486 0 4.931 0.66 7.071 1.922l0.139 0.080-0.139 0.090c-1.329 0.865-2.89 1.505-4.565 1.82l-0.080 0.012-0.039 0.010-0.030-0.020c-2.383-1.507-5.283-2.401-8.393-2.403h-0.542zM18.357 17.992c1.252-0.24 2.446-0.67 3.55-1.291-1.758-0.915-3.839-1.452-6.046-1.452-0.007 0-0.014 0-0.020 0h0.001c-1.27 0-2.533 0.17-3.757 0.51 2.22 0.3 4.354 1.060 6.272 2.233zM21.661 19.964c-0.484 0.656-0.95 1.227-1.44 1.775l0.020-0.023-4.231 4.284-2.978-3.013 0.63-0.040c2.222-0.141 4.265-0.789 6.053-1.827l-0.066 0.035c0.552-0.27 2.012-1.191 2.012-1.191zM14.314 23.468l1.696 1.721 2.998-3.043c-1.367 0.67-2.956 1.139-4.632 1.317l-0.062 0.005z"></path>
</svg>
