<!-- Generated by IcoMoon.io -->
<svg version="1.1" xmlns="http://www.w3.org/2000/svg" width="32" height="32" viewBox="0 0 32 32">
<title>atm</title>
<path fill="#346fce" d="M32 16c0 8.837-7.163 16-16 16s-16-7.163-16-16c0-8.837 7.163-16 16-16s16 7.163 16 16z"></path>
<path fill="#fff" d="M20.16 18.706l0.956 1.797c0.322 0.594 0.511 1.3 0.511 2.051 0 1.662-0.928 3.107-2.294 3.846l-0.023 0.011-0.124 0.066c-0.594 0.322-1.301 0.512-2.052 0.512-1.662 0-3.107-0.928-3.846-2.294l-0.011-0.023-3.223-6.062c-0.322-0.594-0.511-1.301-0.511-2.051 0-1.576 0.834-2.956 2.085-3.725l0.019-0.011-0.956-1.797c-0.322-0.594-0.511-1.3-0.511-2.050 0-1.662 0.928-3.108 2.295-3.846l0.023-0.011 0.124-0.066c0.594-0.322 1.3-0.511 2.051-0.511 1.662 0 3.107 0.928 3.846 2.294l0.011 0.023 3.223 6.062c0.322 0.594 0.512 1.301 0.512 2.052 0 1.575-0.834 2.956-2.084 3.724l-0.019 0.011zM20.16 18.706l-2.267-4.265c-0.75-1.389-2.195-2.317-3.857-2.317-0.751 0-1.457 0.189-2.074 0.523l0.023-0.011-0.124 0.065c-0.073 0.040-0.145 0.080-0.215 0.122l2.268 4.265c0.75 1.389 2.195 2.317 3.857 2.317 0.751 0 1.457-0.189 2.074-0.523l-0.023 0.011 0.124-0.065c0.073-0.040 0.145-0.080 0.215-0.122z"></path>
</svg>
