<!-- Generated by IcoMoon.io -->
<svg version="1.1" xmlns="http://www.w3.org/2000/svg" width="32" height="32" viewBox="0 0 32 32">
<title>atom</title>
<path fill="#2e3148" d="M32 16c0 8.837-7.163 16-16 16s-16-7.163-16-16c0-8.837 7.163-16 16-16s16 7.163 16 16z"></path>
<path fill="#fff" d="M16.020 5.53c-1.295 0-2.345 4.697-2.345 10.49s1.050 10.49 2.345 10.49c1.294 0 2.344-4.697 2.344-10.49s-1.050-10.49-2.344-10.49zM16.182 25.917c-0.148 0.198-0.297 0.050-0.297 0.050-0.596-0.692-0.894-1.975-0.894-1.975-1.043-3.357-0.795-10.564-0.795-10.564 0.49-5.721 1.382-7.073 1.685-7.373 0.033-0.033 0.079-0.054 0.13-0.054 0.040 0 0.078 0.013 0.108 0.035l-0.001-0c0.44 0.313 0.81 1.617 0.81 1.617 1.090 4.048 0.991 7.848 0.991 7.848 0.099 3.308-0.546 7.010-0.546 7.010-0.497 2.814-1.192 3.406-1.192 3.406z"></path>
<path fill="#fff" d="M25.118 10.8c-0.645-1.124-5.24 0.303-10.267 3.186s-8.573 6.13-7.93 7.254c0.645 1.124 5.241-0.303 10.268-3.186s8.574-6.131 7.93-7.254zM7.515 21.085c-0.246-0.030-0.19-0.234-0.19-0.234 0.302-0.86 1.266-1.758 1.266-1.758 2.393-2.575 8.769-5.946 8.769-5.946 5.206-2.422 6.823-2.32 7.233-2.208 0.079 0.022 0.136 0.094 0.136 0.178 0 0.007-0 0.014-0.001 0.020l0-0.001c-0.050 0.537-1 1.507-1 1.507-2.966 2.961-6.312 4.768-6.312 4.768-2.82 1.732-6.353 3.013-6.353 3.013-2.688 0.968-3.548 0.66-3.548 0.66z"></path>
<path fill="#fff" d="M25.095 21.277c0.65-1.12-2.887-4.383-7.898-7.288-5.010-2.904-9.604-4.348-10.253-3.226s2.888 4.383 7.9 7.288c5.013 2.904 9.602 4.348 10.251 3.226zM7.375 11.196c-0.097-0.228 0.106-0.283 0.106-0.283 0.897-0.17 2.157 0.217 2.157 0.217 3.427 0.78 9.538 4.608 9.538 4.608 4.705 3.292 5.427 4.743 5.535 5.154 0.004 0.014 0.006 0.030 0.006 0.046 0 0.075-0.044 0.139-0.108 0.168l-0.001 0c-0.49 0.225-1.805-0.11-1.805-0.11-4.050-1.086-7.289-3.075-7.289-3.075-2.91-1.57-5.788-3.985-5.788-3.985-2.187-1.842-2.35-2.74-2.35-2.74l-0.002-0.001z"></path>
<path fill="#fff" d="M17.229 15.995c0 0.682-0.552 1.234-1.234 1.234s-1.234-0.552-1.234-1.234c0-0.682 0.552-1.234 1.234-1.234s1.234 0.552 1.234 1.234z"></path>
<path fill="#fff" d="M22.055 11.256c0 0.552-0.448 1-1 1s-1-0.448-1-1c0-0.552 0.448-1 1-1s1 0.448 1 1z"></path>
<path fill="#fff" d="M10.306 13.774c0 0.552-0.448 1-1 1s-1-0.448-1-1c0-0.552 0.448-1 1-1s1 0.448 1 1z"></path>
<path fill="#fff" d="M15.539 22.856c0 0.552-0.448 1-1 1s-1-0.448-1-1c0-0.552 0.448-1 1-1s1 0.448 1 1z"></path>
</svg>
