<!-- Generated by IcoMoon.io -->
<svg version="1.1" xmlns="http://www.w3.org/2000/svg" width="32" height="32" viewBox="0 0 32 32">
<title>auto</title>
<path fill="#fab431" d="M32 16c0 8.837-7.163 16-16 16s-16-7.163-16-16c0-8.837 7.163-16 16-16s16 7.163 16 16z"></path>
<path fill="#fff" d="M24.5 19.267l-4.185-2.511 0.48-1.989 1.787 1.055v-3.632l-5.74-3.422v7.9l-1.365 0.755 7.538 4.47-7.015 4.107-8.5-4.978v-9.955l8.5-5.067 8.5 5.067v8.2zM9.418 12.19v6.478l5.518-3.2v-6.568l-5.518 3.289zM13.515 18.534l-3.138 1.919 5.623 3.292 3.175-1.86-5.66-3.352z"></path>
</svg>
