<!-- Generated by IcoMoon.io -->
<svg version="1.1" xmlns="http://www.w3.org/2000/svg" width="32" height="32" viewBox="0 0 32 32">
<title>aywa</title>
<path fill="#3355b5" d="M32 16c0 8.837-7.163 16-16 16s-16-7.163-16-16c0-8.837 7.163-16 16-16s16 7.163 16 16z"></path>
<path fill="#fff" d="M16 4c-6.627 0-12 5.373-12 12s5.373 12 12 12 12-5.373 12-12c0-6.627-5.373-12-12-12v0zM16 27.77c-6.5 0-11.77-5.27-11.77-11.77s5.27-11.77 11.77-11.77 11.77 5.27 11.77 11.77c0 6.5-5.27 11.77-11.77 11.77v0z"></path>
<path fill="#fff" d="M19.29 13.5l-0.060-0.22-0.030-0.12-0.040-0.1-0.030-0.11-0.040-0.1-0.050-0.11-0.040-0.1-0.050-0.090-0.050-0.1-0.050-0.090-0.060-0.090-0.050-0.080-0.060-0.090-0.060-0.070-0.070-0.080-0.12-0.14-0.21-0.18-0.070-0.050-0.080-0.050-0.070-0.040-0.080-0.050-0.070-0.030-0.080-0.040-0.16-0.060-0.090-0.020-0.16-0.040-0.18-0.020-0.080-0.010h-0.27l-0.18 0.020-0.1 0.010-0.27 0.060-0.1 0.030-0.090 0.030-0.1 0.030-0.1 0.040-0.090 0.040-0.1 0.050-0.090 0.040-0.1 0.050-0.1 0.060-0.090 0.050-0.1 0.060-0.1 0.070-0.090 0.060-0.1 0.070-0.1 0.080-0.1 0.070-0.090 0.080-0.1 0.080-0.090 0.090-0.2 0.18-0.090 0.1-0.1 0.1-0.18 0.2-0.1 0.11-0.18 0.22-0.18 0.24-0.090 0.13-0.12 0.17-0.12 0.18-0.12 0.19-0.11 0.18-0.11 0.2-0.11 0.19-0.1 0.19-0.1 0.2-0.18 0.4-0.080 0.2-0.070 0.16 7.19-2.35zM12.8 17.010l6.37-0.050 0.090-0.42 0.030-0.15 0.020-0.14 0.030-0.14 0.020-0.14 0.010-0.14 0.020-0.14 0.010-0.14 0.010-0.13 0.020-0.28v-0.29z"></path>
<path fill="#fff" d="M16 4.56c-6.318 0-11.44 5.122-11.44 11.44s5.122 11.44 11.44 11.44 11.44-5.122 11.44-11.44c0-6.318-5.122-11.44-11.44-11.44v0zM22.48 16.92l-0.2 1.18h-1.79l-0.060 0.2-0.22 0.6-0.12 0.3-0.090 0.3-0.13 0.29-0.28 0.58-0.3 0.56-0.32 0.54-0.17 0.27-0.2 0.26-0.18 0.26-0.93-1.56 0.18-0.26 0.4-0.65 0.070-0.13 0.28-0.56 0.3-0.7 0.050-0.14v-0.12l-7.27 0.060v1.85l-1.86 1.29v-3.14h-0.54l-0.2 0.070-0.34-1.19 1.68-0.55v-0.13l0.070-0.21 0.1-0.19 0.070-0.2 0.32-0.8 0.27-0.6 0.090-0.19 0.4-0.76 0.11-0.19 0.22-0.36 0.11-0.19 0.11-0.18 0.24-0.34 0.11-0.19 0.12-0.17 0.12-0.16 0.13-0.16 0.17-0.14 0.39-0.45 0.42-0.42 0.42-0.39 0.11-0.11 0.15-0.12 0.45-0.33 0.15-0.1 0.3-0.18 0.3-0.16 0.13-0.11 0.18-0.050 0.28-0.12 0.14-0.050h2.41l0.22 0.1 0.22 0.12 0.2 0.14 0.2 0.16 0.18 0.18 0.18 0.2 0.24 0.33 0.080 0.12 0.070 0.12 0.14 0.26 0.18 0.42 0.060 0.15 0.050 0.15v1.77l1-0.32 0.34 1.19-1.28 0.42v1.63l-0.050 0.3-0.060 0.3-0.070 0.3v0.13l1.75-0.030z"></path>
</svg>
