<!-- Generated by IcoMoon.io -->
<svg version="1.1" xmlns="http://www.w3.org/2000/svg" width="32" height="32" viewBox="0 0 32 32">
<title>bcc</title>
<path fill="#f7931c" d="M32 16c0 8.837-7.163 16-16 16s-16-7.163-16-16c0-8.837 7.163-16 16-16s16 7.163 16 16z"></path>
<path fill="#fefdfc" d="M7.351 19.32c-0.008-3.012 2.113-5.54 5.147-6.109 0.26-0.048 0.334-0.135 0.327-0.389-0.008-0.302-0.012-0.658-0.012-1.014s0.005-0.712 0.013-1.067l-0.001 0.053c0.005-0.243-0.072-0.388-0.281-0.524-0.729-0.475-1.027-1.339-0.76-2.116 0.253-0.757 0.955-1.293 1.782-1.293 0.037 0 0.074 0.001 0.111 0.003l-0.005-0c0.77 0.036 1.475 0.609 1.683 1.37 0.21 0.764-0.082 1.595-0.76 2.026-0.24 0.152-0.315 0.305-0.307 0.577 0.020 0.676 0.013 1.352 0.004 2.029-0.003 0.196 0.026 0.301 0.259 0.331 0.443 0.059 0.876 0.178 1.286 0.354 0.154 0.066 0.237 0.026 0.34-0.088 1.435-1.581 2.875-3.159 4.318-4.733 0.149-0.162 0.106-0.273 0.038-0.44-0.352-0.868-0.146-1.805 0.518-2.425 0.606-0.565 1.608-0.726 2.332-0.375 0.852 0.413 1.32 1.205 1.262 2.135-0.078 1.244-1.288 2.181-2.516 1.926-0.249-0.052-0.393 0.008-0.554 0.186-1.895 2.099-3.209 3.536-4.527 4.968l0.503-0.554c-0.163 0.177-0.186 0.272 0.017 0.448 2.204 1.922 2.804 4.818 1.548 7.456-0.095 0.2-0.074 0.314 0.080 0.46 0.367 0.349 0.722 0.71 1.074 1.075 0.14 0.145 0.271 0.183 0.479 0.13 0.81-0.204 1.65 0.16 2.054 0.863 0.156 0.267 0.249 0.588 0.249 0.931 0 0.497-0.194 0.948-0.511 1.283l0.001-0.001c-0.554 0.589-1.459 0.76-2.162 0.408-0.768-0.384-1.192-1.205-1.010-2.048 0.053-0.242-0.003-0.38-0.165-0.533-0.3-0.284-0.583-0.569-0.856-0.863l-0.011-0.011c-0.163-0.176-0.264-0.179-0.45-0.004-1.899 1.77-4.101 2.228-6.531 1.364-2.416-0.857-3.999-3.206-4.006-5.787z"></path>
</svg>
