<!-- Generated by IcoMoon.io -->
<svg version="1.1" xmlns="http://www.w3.org/2000/svg" width="32" height="32" viewBox="0 0 32 32">
<title>bcd</title>
<path fill="#fcc339" d="M32 16c0 8.837-7.163 16-16 16s-16-7.163-16-16c0-8.837 7.163-16 16-16s16 7.163 16 16z"></path>
<path fill="#fff" d="M22.585 9.694l0.077 0.171-3.054 1.402 1.374 4.55 4.521-2.283 0.060 0.119 0.018-0.022-2.929-3.906zM22.42 9.617l-2.773-1.29h-7.171l-2.962 1.36 3.080 1.296h6.85zM9.266 9.937l-2.773 3.601 4.514 2.28 1.38-4.568zM12.706 11.31l-1.425 4.72 4.713 8.332 4.714-8.332-1.426-4.72zM25.218 14.043l-4.218 2.131-4.205 7.433zM15.171 23.567l-4.182-7.393-4.196-2.119zM6.431 13.643l0.033-0.067-0.043 0.056zM9.222 9.462l3.183-1.462h7.312l3.144 1.462 3.139 4.186-10 11.352-10-11.354zM18.423 14.834c0.059 0.607-0.192 0.972-0.594 1.179 0.661 0.16 1.075 0.558 0.993 1.45-0.1 1.106-0.915 1.402-2.079 1.47v1.163h-0.692v-1.147c-0.18 0-0.363-0.002-0.553-0.006v1.153h-0.691v-1.166c-0.162-0.001-0.327-0.004-0.495-0.004h-0.9l0.137-0.837s0.512 0.008 0.503 0c0.196 0 0.248-0.143 0.26-0.232v-1.837h0.074c-0.022-0.003-0.048-0.005-0.074-0.005 0 0 0 0 0 0v0-1.311c-0.026-0.143-0.117-0.307-0.398-0.308 0.009-0.010-0.502 0-0.502 0v-0.748h0.954v0.004c0.144 0 0.29-0.003 0.44-0.006v-1.151h0.693v1.129c0.184-0.004 0.37-0.008 0.552-0.008v-1.12l0.692-0.001v1.151c0.894 0.080 1.601 0.358 1.68 1.188zM17.455 17.324c0-0.908-1.471-0.771-1.94-0.771v1.543c0.469 0 1.94 0.098 1.94-0.772zM17.133 15.147c0-0.826-1.228-0.7-1.618-0.7v1.4c0.39 0 1.618 0.092 1.618-0.7z"></path>
</svg>
