<!-- Generated by IcoMoon.io -->
<svg version="1.1" xmlns="http://www.w3.org/2000/svg" width="32" height="32" viewBox="0 0 32 32">
<title>bcio</title>
<path fill="#3f43ad" d="M32 16c0 8.837-7.163 16-16 16s-16-7.163-16-16c0-8.837 7.163-16 16-16s16 7.163 16 16z"></path>
<path fill="#fff" d="M11.94 7.436c-0.462 0.028-0.826 0.409-0.826 0.876s0.364 0.848 0.823 0.875l0.002 0c0.462-0.028 0.826-0.409 0.826-0.876s-0.364-0.848-0.823-0.875l-0.002-0zM15.99 5.006c-0.466 0.023-0.835 0.406-0.835 0.876s0.369 0.853 0.833 0.876l0.002 0c0.466-0.023 0.835-0.406 0.835-0.876s-0.369-0.853-0.833-0.876l-0.002-0zM15.99 14.725c-0.462 0.028-0.826 0.409-0.826 0.876s0.364 0.848 0.823 0.875l0.002 0c0.462-0.028 0.826-0.409 0.826-0.876s-0.364-0.848-0.823-0.875l-0.002-0zM20.039 12.295c-0.484 0.001-0.875 0.393-0.875 0.877s0.392 0.877 0.877 0.877c0 0 0.001 0 0.001 0h-0c0.484-0.001 0.875-0.393 0.875-0.877s-0.392-0.877-0.877-0.877c-0 0-0.001 0-0.001 0h0zM24.088 9.866c-0.009-0-0.019-0-0.029-0-0.484 0-0.877 0.393-0.877 0.877s0.393 0.877 0.877 0.877c0.011 0 0.021-0 0.032-0.001l-0.002 0c0.471-0.017 0.846-0.403 0.846-0.876s-0.377-0.861-0.847-0.877l-0.001-0zM11.94 17.155c-0.462 0.028-0.826 0.409-0.826 0.875s0.364 0.848 0.823 0.875l0.002 0c0.462-0.028 0.826-0.409 0.826-0.875s-0.364-0.848-0.823-0.875l-0.002-0zM7.89 9.866c-0.483 0.001-0.875 0.393-0.875 0.876s0.392 0.876 0.876 0.876c0 0 0.001 0 0.001 0h-0c0.483-0.001 0.875-0.393 0.875-0.876s-0.392-0.876-0.876-0.876c-0 0-0.001 0-0.001 0h0zM7.89 19.584c-0.484 0.001-0.875 0.393-0.875 0.877s0.392 0.877 0.877 0.877c0 0 0.001 0 0.001 0h-0c0.484-0.001 0.876-0.393 0.876-0.877s-0.392-0.877-0.877-0.877c-0 0-0.001 0-0.001 0h0zM7.89 14.725c-0.462 0.028-0.826 0.409-0.826 0.876s0.364 0.848 0.823 0.875l0.002 0c0.462-0.028 0.826-0.409 0.826-0.876s-0.364-0.848-0.823-0.875l-0.002-0zM15.99 9.866c-0.009-0-0.019-0.001-0.030-0.001-0.484 0-0.877 0.393-0.877 0.877s0.393 0.877 0.877 0.877c0.010 0 0.021-0 0.031-0.001l-0.002 0c0.471-0.016 0.847-0.403 0.847-0.877s-0.376-0.86-0.846-0.876l-0.002-0zM20.039 7.436c-0.009-0-0.019-0-0.029-0-0.484 0-0.877 0.393-0.877 0.877s0.393 0.877 0.877 0.877c0.011 0 0.021-0 0.032-0.001l-0.002 0c0.471-0.017 0.846-0.403 0.846-0.876s-0.377-0.861-0.847-0.877l-0.001-0zM20.039 17.155c-0.484 0-0.875 0.392-0.875 0.876s0.392 0.876 0.876 0.876c0 0 0 0 0.001 0h-0c0.484-0 0.875-0.392 0.875-0.876s-0.392-0.876-0.876-0.876c-0 0-0 0-0.001 0h0zM24.088 14.725c-0.462 0.028-0.826 0.409-0.826 0.876s0.364 0.848 0.823 0.875l0.002 0c0.462-0.028 0.826-0.409 0.826-0.876s-0.364-0.848-0.823-0.875l-0.002-0zM20.039 22.014c-0.484 0-0.876 0.393-0.876 0.877s0.392 0.877 0.877 0.877c0 0 0 0 0.001 0h-0c0.484-0 0.876-0.393 0.876-0.877s-0.392-0.877-0.877-0.877c-0 0-0 0-0.001 0h0zM24.088 19.584c-0.466 0.023-0.835 0.406-0.835 0.876s0.369 0.853 0.833 0.876l0.002 0c0.466-0.023 0.835-0.406 0.835-0.876s-0.369-0.853-0.833-0.876l-0.002-0zM15.99 24.444c-0.462 0.028-0.826 0.409-0.826 0.875s0.364 0.848 0.823 0.875l0.002 0c0.483-0.001 0.875-0.392 0.876-0.875v-0c-0.001-0.484-0.392-0.875-0.876-0.876h-0zM15.99 19.584c-0.484 0-0.877 0.393-0.877 0.877s0.393 0.877 0.877 0.877c0 0 0 0 0.001 0h-0c0.484-0 0.876-0.393 0.876-0.877s-0.393-0.877-0.877-0.877c-0 0-0 0-0.001 0h0zM11.94 12.295c-0.462 0.028-0.826 0.409-0.826 0.876s0.364 0.848 0.823 0.875l0.002 0c0.458-0.032 0.818-0.411 0.818-0.875s-0.36-0.843-0.815-0.875l-0.003-0zM11.94 22.014c-0.462 0.028-0.826 0.409-0.826 0.875s0.364 0.848 0.823 0.875l0.002 0c0.462-0.028 0.826-0.409 0.826-0.875s-0.364-0.848-0.823-0.875l-0.002-0z"></path>
</svg>
