<!-- Generated by IcoMoon.io -->
<svg version="1.1" xmlns="http://www.w3.org/2000/svg" width="32" height="32" viewBox="0 0 32 32">
<title>bcn</title>
<path fill="#f04086" d="M15.999 31.997c-8.836 0-15.999-7.163-15.999-15.998 0-8.836 7.163-15.999 15.999-15.999s15.998 7.163 15.998 15.999c0 8.835-7.163 15.998-15.998 15.998zM23.437 16.754c-0.63-0.696-1.536-1.128-2.72-1.296v-0.025c1.037-0.168 1.852-0.593 2.406-1.273 0.536-0.64 0.862-1.472 0.862-2.38 0-0.008-0-0.017-0-0.025v0.001c0-1.461-0.47-2.454-1.444-3.235s-2.436-1.037-4.417-1.037h-7.481v6.963h-4.296v2.667h11.727c0.923 0 1.616 0.065 2.074 0.434s0.692 0.846 0.692 1.551-0.231 1.307-0.692 1.685c-0.46 0.377-1.154 0.626-2.074 0.626h-4.024v-2.074h-3.407v4.741h7.727c1.965 0 3.467-0.513 4.509-1.31 1.041-0.797 1.53-1.974 1.53-3.419 0-0.015 0-0.033 0-0.052 0-0.979-0.369-1.871-0.975-2.546l0.003 0.003zM17.644 14.44h-3.594v-4.296h3.594c1.848 0 2.77 0.721 2.77 2.148s-0.922 2.148-2.77 2.148z"></path>
</svg>
