<!-- Generated by IcoMoon.io -->
<svg version="1.1" xmlns="http://www.w3.org/2000/svg" width="32" height="32" viewBox="0 0 32 32">
<title>bco</title>
<path fill="#2c76b7" d="M32 16c0 8.837-7.163 16-16 16s-16-7.163-16-16c0-8.837 7.163-16 16-16s16 7.163 16 16z"></path>
<path fill="#fff" d="M14.122 20.826l-1.506-0.848c-0.38 0.515-0.998 0.85-1.698 0.85s-1.32-0.336-1.699-0.853l-0.489 0.277c0.042 0.097 0.066 0.211 0.066 0.33 0 0 0 0 0 0v-0c-0.006 0.485-0.401 0.876-0.887 0.876-0.004 0-0.008-0-0.012-0h0.001c-0.496 0-0.898-0.392-0.898-0.876s0.402-0.877 0.898-0.877c0.289 0 0.545 0.133 0.71 0.34l0.48-0.272c-0.163-0.282-0.259-0.621-0.259-0.982 0-0.001 0-0.001 0-0.002v0c0-1.1 0.892-1.996 2.008-2.038v-1.554c-1.087-0.042-1.954-0.915-1.954-1.986 0-0.34 0.088-0.662 0.243-0.942l-0.51-0.284c-0.167 0.214-0.425 0.35-0.714 0.35-0.001 0-0.003 0-0.004 0h0c-0.496 0-0.898-0.393-0.898-0.877s0.402-0.876 0.898-0.876 0.898 0.392 0.898 0.876c0 0.112-0.022 0.22-0.061 0.318l0.52 0.29c0.368-0.51 0.976-0.842 1.663-0.842 0.702 0 1.32 0.346 1.686 0.873l1.533-0.849c-0.14-0.272-0.22-0.58-0.22-0.905 0-1.072 0.858-1.948 1.94-2.010v-0.588c-0.436-0.056-0.771-0.423-0.775-0.869v-0c0-0.484 0.402-0.876 0.898-0.876s0.898 0.392 0.898 0.876c0 0.444-0.338 0.81-0.776 0.869v0.588c1.082 0.062 1.94 0.938 1.94 2.010 0 0.326-0.080 0.635-0.221 0.908l1.53 0.861c0.373-0.551 0.995-0.908 1.701-0.908 0.003 0 0.006 0 0.010 0h-0c0.709 0 1.332 0.353 1.697 0.889l0.505-0.321c-0.037-0.093-0.059-0.2-0.059-0.312 0-0.001 0-0.001 0-0.002v0c0-0.484 0.402-0.876 0.898-0.876s0.898 0.392 0.898 0.876-0.402 0.877-0.898 0.877c-0.001 0-0.002 0-0.003 0-0.291 0-0.55-0.137-0.715-0.351l-0.002-0.002-0.5 0.318c0.137 0.268 0.215 0.57 0.215 0.891 0 1.091-0.9 1.977-2.015 1.987v1.618c1.13 0.010 2.042 0.908 2.042 2.013 0 0.335-0.084 0.651-0.233 0.93l0.514 0.29c0.167-0.199 0.416-0.324 0.694-0.324 0.001 0 0.002 0 0.003 0h-0c0.496 0 0.898 0.393 0.898 0.877s-0.402 0.876-0.898 0.876c-0.003 0-0.007 0-0.011 0-0.486 0-0.881-0.391-0.887-0.875v-0.001c0-0.001 0-0.001 0-0.002 0-0.126 0.027-0.245 0.076-0.352l-0.002 0.005-0.513-0.29c-0.371 0.53-0.996 0.879-1.704 0.879-0.701 0-1.32-0.342-1.693-0.864l-1.534 0.863c0.167 0.295 0.262 0.635 0.262 0.996 0 1.087-0.86 1.978-1.953 2.060v0.384c0.417 0.073 0.731 0.431 0.735 0.863v0c-0.006 0.485-0.401 0.876-0.887 0.876-0.004 0-0.008-0-0.012-0h0.001c-0.003 0-0.007 0-0.011 0-0.486 0-0.881-0.391-0.887-0.875v-0.001c0-0.458 0.358-0.833 0.816-0.873v-0.37c-1.13-0.042-2.034-0.95-2.034-2.064 0-0.36 0.093-0.697 0.258-0.991zM14.252 20.623c0.392-0.531 1.016-0.872 1.719-0.872 0.003 0 0.006 0 0.010 0h-0.001c0.71 0 1.34 0.343 1.724 0.868l1.536-0.865c-0.152-0.272-0.241-0.597-0.241-0.943 0-0.001 0-0.001 0-0.002v0c0-1.038 0.804-1.892 1.838-2.002v-1.64c-1.019-0.11-1.811-0.952-1.811-1.976 0-0.312 0.073-0.608 0.205-0.87l-1.534-0.864c-0.37 0.542-1 0.899-1.717 0.899s-1.35-0.358-1.72-0.9l-1.53 0.847c0.143 0.272 0.224 0.58 0.224 0.908 0 1.044-0.824 1.9-1.872 1.98v1.565c1.077 0.080 1.926 0.96 1.926 2.033 0 0.358-0.095 0.694-0.261 0.987zM10.918 19.857c0.605 0 1.095-0.478 1.095-1.068s-0.49-1.068-1.095-1.068c-0.604 0-1.094 0.478-1.094 1.068s0.49 1.068 1.094 1.068zM10.918 14.252c0.59 0 1.067-0.466 1.067-1.040s-0.478-1.042-1.067-1.042-1.066 0.466-1.066 1.041 0.477 1.041 1.066 1.041zM15.98 11.397c0.596 0 1.080-0.472 1.080-1.054s-0.484-1.055-1.080-1.055c-0.597 0-1.080 0.472-1.080 1.055s0.483 1.054 1.080 1.054zM21.061 14.232c0.59 0 1.067-0.466 1.067-1.040 0-0.576-0.478-1.042-1.067-1.042s-1.066 0.466-1.066 1.041 0.477 1.041 1.066 1.041zM21.061 19.863c0.597 0 1.080-0.472 1.080-1.054 0-0.583-0.483-1.055-1.080-1.055s-1.080 0.472-1.080 1.055c0 0.582 0.484 1.054 1.080 1.054zM15.98 22.9c0.612 0 1.108-0.485 1.108-1.082s-0.496-1.082-1.108-1.082c-0.613 0-1.109 0.484-1.109 1.082s0.496 1.082 1.109 1.082zM15.98 18.92c-1.652 0-2.991-1.307-2.991-2.919s1.339-2.92 2.99-2.92c1.653 0 2.992 1.308 2.992 2.92s-1.34 2.92-2.991 2.92zM15.98 17.145c0.647 0 1.172-0.512 1.172-1.144s-0.525-1.144-1.172-1.144c-0.648 0-1.173 0.512-1.173 1.144s0.525 1.144 1.173 1.144z"></path>
</svg>
