<!-- Generated by IcoMoon.io -->
<svg version="1.1" xmlns="http://www.w3.org/2000/svg" width="32" height="32" viewBox="0 0 32 32">
<title>bdl</title>
<path fill="#e54c40" d="M32 16c0 8.837-7.163 16-16 16s-16-7.163-16-16c0-8.837 7.163-16 16-16s16 7.163 16 16z"></path>
<path fill="#fff" d="M9.328 8.617c-0.020-0.147 0.118-0.235 0.197-0.335 1.009-0.998 1.976-1.964 2.938-2.935l0.030-0.030c-0.014 2.716 0.008 5.432-0.011 8.148 2.049-1.13 4.63-1.18 6.736-0.168-0.002 0.175-0.002 0.349-0.002 0.525-1.681-0.904-3.748-1.020-5.541-0.39-2.063 0.71-3.707 2.457-4.35 4.536 0.003-3.118-0.001-6.234 0.003-9.351zM22.718 20.279c-0.067 1.721-0.778 3.265-1.898 4.406l0.001-0.001c-1.218 1.251-2.918 2.027-4.8 2.027-1.38 0-2.662-0.417-3.727-1.132l0.024 0.015c-1.48-0.974-2.55-2.554-2.878-4.296-0.285-1.38-0.092-2.845 0.501-4.12 0.687-1.439 1.825-2.571 3.227-3.235l0.041-0.017c1.884-0.888 4.18-0.813 6.004 0.192-0.011 1.494-0.010 2.988 0.001 4.482-0.298-0.617-0.74-1.169-1.325-1.535-1.157-0.747-2.765-0.712-3.882 0.098-1.23 0.846-1.785 2.524-1.296 3.935 0.437 1.391 1.82 2.412 3.282 2.396 1.406 0.035 2.763-0.884 3.266-2.195 0.32-0.743 0.24-1.564 0.247-2.35 0.006-4.055-0.010-8.11-0.008-12.164 0.001-0.51 0.010-1.020-0.020-1.528 1.090 1.074 2.17 2.161 3.25 3.246-0.022 3.925 0 7.85-0.010 11.777z"></path>
</svg>
