<!-- Generated by IcoMoon.io -->
<svg version="1.1" xmlns="http://www.w3.org/2000/svg" width="32" height="32" viewBox="0 0 32 32">
<title>beam</title>
<path fill="#0b76ff" d="M32 16c0 8.837-7.163 16-16 16s-16-7.163-16-16c0-8.837 7.163-16 16-16s16 7.163 16 16z"></path>
<path fill="#fff" d="M27.16 12.66v-2.2l-7.16 4.17-4.42-7.62v5l2.25 3.9-0.91 0.54-1.34-2.36-1.44 2.56-1-0.41 2.44-4.23v-5l-4.84 8.24-6.74-2.79v2.55l6 1.48-3.8 6.52h9.38v-2.69h-4.79l1.79-3.14 1.080 0.27-1.080 1.9h6l-0.9-1.59 1.19-0.090 1.53 2.65h-4.82v2.69h9.42l-3.24-5.53 5.44-0.4v-2.21l-6.12 1.51 6.11-1.57v-2l-6.63 2.69 6.6-2.84zM18.46 17.010l-1.080 0.27 1.060-0.27h0.020zM18.12 16.41l-1 0.4 1-0.41v0.010z"></path>
</svg>
