<!-- Generated by IcoMoon.io -->
<svg version="1.1" xmlns="http://www.w3.org/2000/svg" width="32" height="32" viewBox="0 0 32 32">
<title>bela</title>
<path fill="#13a0f6" d="M32 16c0 8.837-7.163 16-16 16s-16-7.163-16-16c0-8.837 7.163-16 16-16s16 7.163 16 16z"></path>
<path fill="#fff" d="M8.297 11.568c-0.777-0.414-1.297-1.219-1.297-2.145 0-0 0-0.001 0-0.001v0c-0.176-0.327-0.279-0.715-0.279-1.127 0-1.334 1.082-2.416 2.416-2.416 1.332 0 2.412 1.078 2.416 2.409v0c1.285-0.764 2.834-1.216 4.488-1.216 0.005 0 0.009 0 0.013 0h-0.001c4.94 0 8.946 4.014 8.946 8.964s-4.005 8.964-8.946 8.964-8.946-4.013-8.946-8.964c0-0.004 0-0.009 0-0.013 0-1.64 0.441-3.176 1.212-4.497l-0.023 0.043zM16.054 20.446c2.43 0 4.4-1.974 4.4-4.41s-1.97-4.41-4.4-4.41-4.4 1.975-4.4 4.41 1.97 4.41 4.4 4.41z"></path>
</svg>
