<!-- Generated by IcoMoon.io -->
<svg version="1.1" xmlns="http://www.w3.org/2000/svg" width="32" height="32" viewBox="0 0 32 32">
<title>bix</title>
<path fill="#000" d="M32 16c0 8.837-7.163 16-16 16s-16-7.163-16-16c0-8.837 7.163-16 16-16s16 7.163 16 16z"></path>
<path fill="#fff" d="M16.941 24.577c0.052 0.122 0.080 0.255 0.080 0.395 0 0.568-0.468 1.028-1.045 1.028s-1.045-0.46-1.045-1.028c0-0.136 0.027-0.266 0.076-0.385l-6.21-3.527c-0.191 0.194-0.456 0.314-0.749 0.314-0.001 0-0.002 0-0.003 0h0c-0.577 0-1.045-0.46-1.045-1.028 0-0.48 0.333-0.882 0.784-0.996v-7.027c-0.452-0.115-0.781-0.516-0.784-0.996v-0c0-0.568 0.468-1.028 1.045-1.028 0.346 0 0.653 0.166 0.844 0.422l6.072-3.45c-0.019-0.072-0.030-0.155-0.030-0.24 0-0.001 0-0.002 0-0.003v0c0-0.568 0.469-1.028 1.045-1.028 0.002 0 0.004 0 0.005 0 0.573 0 1.037 0.464 1.037 1.037 0 0.081-0.009 0.16-0.027 0.235l0.001-0.007 6.108 3.47c0.19-0.264 0.501-0.436 0.854-0.436 0.577 0 1.045 0.46 1.045 1.028 0 0.48-0.335 0.884-0.787 0.997l-0.018 7.020c0.461 0.107 0.805 0.515 0.805 1.002 0 0.568-0.468 1.028-1.045 1.028-0.001 0-0.002 0-0.002 0-0.306 0-0.581-0.131-0.773-0.339l-0.001-0.001zM16.662 24.197l6.287-3.572c-0.025-0.084-0.039-0.18-0.039-0.28 0-0.123 0.022-0.24 0.062-0.349l-0.002 0.007-6.065-3.9c-0.227 0.239-0.546 0.388-0.901 0.388-0.001 0-0.002 0-0.003 0h0c-0.001 0-0.002 0-0.003 0-0.395 0-0.747-0.185-0.974-0.472l-0.002-0.003-5.977 4.027c0.029 0.090 0.046 0.194 0.046 0.302 0 0.112-0.018 0.22-0.052 0.321l0.002-0.007 6.242 3.545c0.184-0.161 0.426-0.26 0.692-0.26 0.001 0 0.002 0 0.002 0h-0c0.263 0 0.503 0.095 0.686 0.252zM16.781 7.684c-0.14 0.164-0.327 0.284-0.54 0.338l-0.007 0.002-0.016 6.056c0.578 0.101 1.013 0.597 1.017 1.196v0c0 0.151-0.028 0.297-0.080 0.43l6.070 3.904c0.135-0.13 0.305-0.223 0.495-0.266l0.018-7.011c-0.475-0.099-0.827-0.515-0.827-1.012 0-0.052 0.004-0.103 0.011-0.153l-0.001 0.006zM15.176 7.689l-6.101 3.465c0.009 0.050 0.014 0.108 0.014 0.167 0 0.499-0.353 0.915-0.823 1.012l-0.007 0.001v7.005c0.212 0.044 0.4 0.15 0.544 0.3l6.005-4.045c-0.026-0.093-0.040-0.2-0.040-0.311 0-0.587 0.415-1.077 0.967-1.194l0.008-0.001 0.016-6.054c-0.235-0.050-0.435-0.173-0.582-0.344l-0.001-0.001z"></path>
</svg>
