<!-- Generated by IcoMoon.io -->
<svg version="1.1" xmlns="http://www.w3.org/2000/svg" width="32" height="32" viewBox="0 0 32 32">
<title>blcn</title>
<path fill="#2aabe4" d="M32 16c0 8.837-7.163 16-16 16s-16-7.163-16-16c0-8.837 7.163-16 16-16s16 7.163 16 16z"></path>
<path fill="#fff" d="M7.9 7h6.2c0.497 0 0.9 0.403 0.9 0.9v0 6.2c0 0.497-0.403 0.9-0.9 0.9v0h-6.2c-0.497 0-0.9-0.403-0.9-0.9v0-6.2c0-0.497 0.403-0.9 0.9-0.9v0zM17.9 7h6.2c0.497 0 0.9 0.403 0.9 0.9v0 6.2c0 0.497-0.403 0.9-0.9 0.9v0h-6.2c-0.497 0-0.9-0.403-0.9-0.9v0-6.2c0-0.497 0.403-0.9 0.9-0.9v0zM17.9 17h6.2c0.497 0 0.9 0.403 0.9 0.9v0 6.2c0 0.497-0.403 0.9-0.9 0.9v0h-6.2c-0.497 0-0.9-0.403-0.9-0.9v0-6.2c0-0.497 0.403-0.9 0.9-0.9v0zM7.9 17h6.2c0.497 0 0.9 0.403 0.9 0.9v0 6.2c0 0.497-0.403 0.9-0.9 0.9v0h-6.2c-0.497 0-0.9-0.403-0.9-0.9v0-6.2c0-0.497 0.403-0.9 0.9-0.9v0z"></path>
</svg>
