<!-- Generated by IcoMoon.io -->
<svg version="1.1" xmlns="http://www.w3.org/2000/svg" width="32" height="32" viewBox="0 0 32 32">
<title>blk</title>
<path fill="#181818" d="M32 16c0 8.837-7.163 16-16 16s-16-7.163-16-16c0-8.837 7.163-16 16-16s16 7.163 16 16z"></path>
<path fill="#fff" d="M23.1 11.13c0.003 0.054 0.004 0.118 0.004 0.181 0 1.61-1.001 2.987-2.415 3.542l-0.026 0.009s1.012-1 0.965-3.563c-0.048-2.563-1.93-3.83-1.93-3.83s3.354 0.747 3.4 3.66zM11.936 24.819l-3.436 0.169v-0.321s2.103-0.217 2.103-3.99v-9.64c0-3.194-2.103-3.747-2.103-3.747v-0.29l3.436 0.168zM17.428 24.999c-1.495 0.013-4.268-0.196-4.268-0.196v-17.61c1.828-0.025 2.467-0.277 3.973-0.060 1.507 0.216 2.801 1.721 3.154 3.226s-0.023 2.938-0.506 3.72-1.541 1.325-1.541 1.325 1.6 0.554 2.165 1.035c0.565 0.482 1.66 1.794 1.236 4.648s-2.719 3.9-4.213 3.912zM21.399 24.349s1.63-1.42 1.558-4.301-1.558-4.235-1.558-4.235 3.066 0.77 3.1 4.202c0.036 3.431-3.1 4.335-3.1 4.335zM18.299 14.015c1.098-1.461 0.753-4.21-0.577-5.15s-2.73-0.47-3-0.205c-0.272 0.265-0.26 6.43-0.26 6.43s2.738 0.386 3.836-1.075zM18.502 16.64c-1.028-0.458-4.040-0.338-4.040-0.338s-0.047 1.557 0.063 4.471 1.083 2.898 2.095 2.938c1.012 0.040 2.942-0.032 3.577-2.545 0.636-2.512-0.667-4.069-1.695-4.526z"></path>
</svg>
