<!-- Generated by IcoMoon.io -->
<svg version="1.1" xmlns="http://www.w3.org/2000/svg" width="32" height="32" viewBox="0 0 32 32">
<title>block</title>
<path fill="#101341" d="M32 16c0 8.837-7.163 16-16 16s-16-7.163-16-16c0-8.837 7.163-16 16-16s16 7.163 16 16z"></path>
<path fill="#fff" d="M11.022 7h10.228l5.25 9-5.25 9h-10.319l5.16-9-5.070-9zM16.452 10.166l3.351 5.834-3.35 5.834h2.988l3.348-5.834-3.35-5.834h-2.986z"></path>
<path fill="#fff" opacity="0.5" d="M12.113 11.026l-2.902 4.974 2.876 4.93-1.839 3.209-4.748-8.139 4.789-8.211z"></path>
</svg>
