<!-- Generated by IcoMoon.io -->
<svg version="1.1" xmlns="http://www.w3.org/2000/svg" width="32" height="32" viewBox="0 0 32 32">
<title>blz</title>
<path fill="#18578c" d="M32 16c0 8.837-7.163 16-16 16s-16-7.163-16-16c0-8.837 7.163-16 16-16s16 7.163 16 16z"></path>
<path fill="#fff" d="M11.633 20.336c0.662 0.675 0.662 1.769 0 2.444s-1.736 0.677-2.4 0.003c-0.32-0.324-0.5-0.765-0.5-1.225s0.18-0.9 0.5-1.225c0.305-0.311 0.729-0.504 1.199-0.504 0.471 0 0.897 0.194 1.201 0.507l0 0zM22.696 8.726c0.622 0.272 1.048 0.881 1.048 1.59 0 0.003 0 0.006-0 0.010v-0.001c0 0.7-0.414 1.33-1.048 1.598s-1.365 0.12-1.85-0.375c-0.308-0.314-0.498-0.745-0.498-1.221 0-0.001 0-0.002 0-0.002v0c0-0.46 0.179-0.9 0.498-1.223 0.305-0.312 0.73-0.506 1.2-0.506 0.235 0 0.458 0.048 0.661 0.135l-0.011-0.004zM11.41 19.003l1.637-1.676c0.331 0.833 0.971 1.484 1.775 1.822l0.021 0.008-1.641 1.671zM21.107 12.866l-1.641 1.672c-0.168-0.428-0.409-0.793-0.71-1.098l0 0c-0.3-0.306-0.659-0.552-1.060-0.719l-0.021-0.008 1.64-1.672zM20.42 20.808c0.256-0.628 0.861-1.064 1.569-1.067h0c0.687 0 1.306 0.421 1.569 1.067s0.117 1.39-0.368 1.885c-0.305 0.313-0.73 0.507-1.201 0.508h-0c-0.47-0.001-0.895-0.195-1.2-0.508l-0-0c-0.308-0.316-0.498-0.748-0.498-1.224 0-0.238 0.047-0.465 0.134-0.672l-0.004 0.012zM9.035 9.51c0.256-0.629 0.861-1.065 1.569-1.068h0c0.687 0 1.306 0.421 1.569 1.068 0.262 0.646 0.117 1.39-0.368 1.885-0.305 0.313-0.73 0.506-1.201 0.507h-0c-0.47-0.001-0.895-0.195-1.2-0.507l-0-0c-0.308-0.316-0.498-0.748-0.498-1.224 0-0.238 0.047-0.465 0.134-0.672l-0.004 0.012zM19.18 20.754l-1.645-1.667c0.825-0.346 1.465-0.997 1.788-1.808l0.008-0.022 1.64 1.672zM13.339 10.944l1.64 1.673c-0.421 0.173-0.779 0.418-1.076 0.722l-0.001 0.001c-0.308 0.314-0.551 0.69-0.714 1.102l-1.64-1.672zM16.281 9.463c-0.939 0-1.7-0.775-1.7-1.732s0.761-1.731 1.7-1.731c0.45 0 0.883 0.182 1.202 0.507s0.498 0.765 0.497 1.224c0 0.957-0.76 1.732-1.7 1.732zM17.981 24.269c0 0.956-0.762 1.731-1.7 1.731s-1.7-0.775-1.7-1.731 0.761-1.732 1.7-1.732c0.45 0 0.883 0.182 1.202 0.507s0.498 0.765 0.497 1.225zM16.898 10.369v2.144c-0.161-0.030-0.346-0.047-0.535-0.047s-0.374 0.017-0.554 0.050l0.019-0.003v-2.144zM16.898 19.581v2.145h-1.070v-2.146c0.354 0.063 0.716 0.063 1.070 0zM22.23 16.189c-0.082-0.196-0.13-0.423-0.13-0.662 0-0.477 0.19-0.909 0.499-1.226l-0 0c0.305-0.313 0.731-0.507 1.202-0.507 0.235 0 0.458 0.048 0.661 0.135l-0.011-0.004c0.635 0.268 1.049 0.9 1.049 1.6 0 0.46-0.179 0.9-0.497 1.225-0.306 0.314-0.733 0.509-1.205 0.509-0.709 0-1.316-0.439-1.564-1.059l-0.004-0.011zM6.5 15.82c0-0.956 0.76-1.731 1.7-1.731 0.938 0 1.699 0.774 1.7 1.73 0 0.46-0.18 0.9-0.498 1.225-0.305 0.313-0.731 0.506-1.202 0.507h-0c-0.939 0-1.7-0.775-1.7-1.73zM21.583 16.365l-2.104-0.002c0.029-0.164 0.046-0.352 0.046-0.545s-0.017-0.381-0.049-0.564l0.003 0.019h2.104zM12.94 16.365h-2.105v-1.090h2.105c-0.029 0.164-0.046 0.352-0.046 0.545s0.017 0.381 0.049 0.564l-0.003-0.019zM16.23 18.402c-1.331 0-2.41-1.099-2.41-2.454s1.079-2.455 2.41-2.455c1.33 0 2.409 1.1 2.41 2.455 0 1.355-1.080 2.454-2.41 2.454z"></path>
</svg>
