<!-- Generated by IcoMoon.io -->
<svg version="1.1" xmlns="http://www.w3.org/2000/svg" width="32" height="32" viewBox="0 0 32 32">
<title>bnt</title>
<path fill="#000d2b" d="M32 16c0 8.837-7.163 16-16 16s-16-7.163-16-16c0-8.837 7.163-16 16-16s16 7.163 16 16z"></path>
<path fill="#fff" d="M15.92 5.88l-4.518 2.647 4.518 2.648 4.603-2.648-4.603-2.647zM16.663 20.014v5.295l6.137-3.501v-5.296l-6.137 3.502zM21.266 10.192v5.296l-4.604 2.648v-5.296l4.604-2.648zM10.184 15.488l4.604 2.648v-5.296l-4.604-2.648v5.296zM10.184 22.662l4.604 2.647v-5.295l-4.604-2.647v5.294z"></path>
</svg>
