<!-- Generated by IcoMoon.io -->
<svg version="1.1" xmlns="http://www.w3.org/2000/svg" width="32" height="32" viewBox="0 0 32 32">
<title>bnty</title>
<path fill="#fd7a3d" d="M32 16c0 8.837-7.163 16-16 16s-16-7.163-16-16c0-8.837 7.163-16 16-16s16 7.163 16 16z"></path>
<path fill="#fff" d="M25.195 19.4c0.77 0.42 1.027 1.386 0.513 2.142-0.427 0.756-1.41 1.008-2.18 0.588-0.46-0.269-0.774-0.745-0.813-1.297l-0-0.005h-3.935l-1.882 3.191c0 0.042-0.043 0.084-0.085 0.126 0.427 0.252 0.727 0.756 0.727 1.302 0 0.84-0.727 1.553-1.583 1.553s-1.582-0.672-1.582-1.553c0-0.546 0.3-1.008 0.727-1.302 0-0.042-0.043-0.084-0.086-0.126l-1.881-3.19h-3.935c-0.043 0.545-0.342 1.007-0.813 1.3-0.77 0.42-1.753 0.169-2.181-0.587s-0.171-1.721 0.599-2.141c0.513-0.294 1.069-0.294 1.54-0.042 0.042-0.042 0.042-0.126 0.085-0.168l1.925-3.191-1.882-3.19c-0.044-0.045-0.075-0.103-0.086-0.167l-0-0.002c-0.47 0.21-1.069 0.252-1.54-0.042-0.484-0.271-0.805-0.78-0.805-1.364 0-0.286 0.077-0.554 0.211-0.784l-0.004 0.007c0.427-0.756 1.411-1.008 2.181-0.588 0.513 0.294 0.77 0.798 0.813 1.302h3.977l1.882-3.191c0-0.042 0.043-0.084 0.085-0.126-0.439-0.274-0.727-0.754-0.727-1.302v-0c0-0.84 0.727-1.553 1.583-1.553s1.582 0.672 1.582 1.553c0 0.546-0.3 1.008-0.727 1.302 0 0.042 0.043 0.084 0.086 0.126l1.881 3.19h3.935c0.043-0.545 0.342-1.007 0.813-1.3 0.77-0.42 1.753-0.169 2.181 0.587 0.13 0.223 0.207 0.491 0.207 0.776 0 0.585-0.322 1.094-0.798 1.361l-0.008 0.004c-0.513 0.294-1.069 0.294-1.54 0.042-0.042 0.042-0.042 0.126-0.085 0.168l-1.882 3.191 1.882 3.19c0.044 0.045 0.075 0.103 0.086 0.167l0 0.002c0.47-0.21 1.069-0.252 1.54 0.042zM18.053 14.95c0-0.881-0.727-1.595-1.625-1.595h-2.053c-0.002-0-0.003-0-0.005-0-0.209 0-0.379 0.169-0.38 0.378v4.534c0 0.21 0.171 0.378 0.385 0.378h2.053c0.898 0 1.625-0.714 1.625-1.595 0-0.378-0.128-0.756-0.385-1.008 0.214-0.336 0.385-0.672 0.385-1.092z"></path>
</svg>
