<!-- Generated by IcoMoon.io -->
<svg version="1.1" xmlns="http://www.w3.org/2000/svg" width="32" height="32" viewBox="0 0 32 32">
<title>bnty</title>
<path fill="#fd7a3d" d="M16 32c-8.837 0-16-7.163-16-16s7.163-16 16-16 16 7.163 16 16-7.163 16-16 16zM25.195 19.4c-0.47-0.293-1.069-0.251-1.54-0.041-0.011-0.066-0.042-0.123-0.085-0.168l0 0-1.882-3.191 1.882-3.19c0.043-0.043 0.043-0.127 0.086-0.169 0.47 0.252 1.026 0.252 1.54-0.042 0.484-0.271 0.805-0.78 0.805-1.364 0-0.286-0.077-0.554-0.211-0.784l0.004 0.007c-0.428-0.756-1.411-1.008-2.181-0.588-0.47 0.294-0.77 0.756-0.813 1.302h-3.935l-1.881-3.192c-0.043-0.042-0.086-0.084-0.086-0.126 0.428-0.294 0.727-0.756 0.727-1.302 0-0.881-0.727-1.553-1.582-1.553s-1.583 0.714-1.583 1.553c0 0.546 0.3 1.050 0.727 1.302-0.042 0.042-0.085 0.084-0.085 0.126l-1.882 3.19h-3.977c-0.040-0.556-0.353-1.032-0.805-1.296l-0.008-0.004c-0.77-0.42-1.754-0.169-2.181 0.587-0.13 0.223-0.207 0.491-0.207 0.776 0 0.585 0.322 1.094 0.798 1.361l0.008 0.004c0.47 0.294 1.069 0.252 1.54 0.042 0 0.042 0.042 0.126 0.085 0.168l1.882 3.192-1.925 3.19c-0.043 0.043-0.043 0.127-0.086 0.169-0.47-0.252-1.026-0.252-1.54 0.042-0.769 0.42-1.026 1.385-0.598 2.141s1.411 1.008 2.181 0.588c0.47-0.294 0.77-0.756 0.813-1.302h3.935l1.881 3.191c0.043 0.042 0.086 0.084 0.086 0.126-0.428 0.294-0.727 0.756-0.727 1.302 0 0.881 0.727 1.553 1.582 1.553s1.583-0.714 1.583-1.553c0-0.546-0.3-1.050-0.727-1.302 0.042-0.042 0.085-0.084 0.085-0.126l1.882-3.19h3.935c0.042 0.503 0.299 1.007 0.812 1.3 0.77 0.42 1.754 0.169 2.181-0.587 0.167-0.235 0.267-0.528 0.267-0.845 0-0.559-0.313-1.045-0.773-1.293l-0.008-0.004zM18.053 14.95c0 0.42-0.171 0.756-0.385 1.092 0.257 0.252 0.385 0.63 0.385 1.008 0 0.881-0.727 1.595-1.625 1.595h-2.053c-0.002 0-0.003 0-0.005 0-0.209 0-0.379-0.169-0.38-0.378v-4.534c0.001-0.209 0.171-0.378 0.38-0.378 0.002 0 0.004 0 0.005 0h2.053c0.898 0 1.625 0.714 1.625 1.595z"></path>
</svg>
