<!-- Generated by IcoMoon.io -->
<svg version="1.1" xmlns="http://www.w3.org/2000/svg" width="32" height="32" viewBox="0 0 32 32">
<title>booty</title>
<path fill="#00b4f4" d="M32 16c0 8.837-7.163 16-16 16s-16-7.163-16-16c0-8.837 7.163-16 16-16s16 7.163 16 16z"></path>
<path fill="#feffff" d="M7.773 22.98v0.156h-1.61v-2.953l-0.050 0.163-1.54-0.47 0.87-2.846-0.108 0.159-1.335-0.9 1.668-2.474-0.159 0.129-1.013-1.252 2.4-1.944-0.306 0.118-0.577-1.504 2.867-1.1-0.335 0.023-0.112-1.606 3.002-0.21-0.27-0.063 0.362-1.57 2.868 0.663-0.181-0.104 0.805-1.395 2.502 1.444-0.098-0.104 1.178-1.099 1.948 2.090-0.041-0.086 1.447-0.706 1.25 2.562-0.011-0.072 1.59-0.252 0.469 2.96 0.033-0.211 1.591 0.252-0.476 3.003 0.118-0.241 1.448 0.706-1.34 2.747 0.195-0.21 1.178 1.099-2.082 2.232 0.252-0.145 0.805 1.395-2.617 1.51 0.263-0.060 0.362 1.569-2.892 0.668 0.223 0.015-0.113 1.607-2.895-0.203 0.148 0.057-0.577 1.503-2.772-1.063 0.175 0.141-1.013 1.252-2.288-1.852 0.113 0.167-1.335 0.9-1.635-2.423 0.049 0.159-1.541 0.47-0.857-2.801zM7.773 21.066l1.006-0.307 0.782 2.557 0.87-0.587 1.486 2.204 0.664-0.82 2.060 1.668 0.369-0.96 2.482 0.953 0.073-1.040 2.656 0.186-0.239-1.035 2.605-0.602-0.54-0.934 2.325-1.342-0.797-0.742 1.837-1.97-0.98-0.477 1.181-2.421-1.071-0.17 0.42-2.658-1.024 0.162-0.42-2.658-0.923 0.45-1.173-2.403-0.752 0.701-1.814-1.945-0.52 0.899-2.296-1.326-0.237 1.028-2.584-0.597 0.075 1.073-2.652 0.185 0.392 1.022-2.497 0.958 0.672 0.83-2.097 1.698 0.885 0.596-1.511 2.24 1.018 0.312-0.79 2.582h1.059v2.69zM11.333 11.217h3.247c0.378 0 0.753 0.027 1.126 0.080s0.701 0.16 0.984 0.32c0.283 0.16 0.499 0.383 0.646 0.67s0.189 0.669 0.123 1.144c-0.065 0.493-0.26 0.9-0.584 1.224s-0.72 0.556-1.187 0.695v0.025c0.278 0.041 0.527 0.121 0.744 0.24s0.396 0.27 0.535 0.455c0.14 0.185 0.238 0.4 0.295 0.646s0.066 0.508 0.025 0.787c-0.066 0.46-0.217 0.843-0.455 1.15-0.234 0.302-0.52 0.552-0.847 0.738l-0.014 0.007c-0.32 0.181-0.691 0.322-1.084 0.402l-0.024 0.004c-0.354 0.077-0.761 0.122-1.179 0.123h-3.569l1.217-8.71zM12.76 14.7h1.39c0.147 0 0.295-0.017 0.443-0.050 0.156-0.035 0.293-0.090 0.419-0.164l-0.007 0.004c0.129-0.075 0.236-0.174 0.318-0.292l0.002-0.003c0.086-0.123 0.141-0.27 0.166-0.443 0.008-0.041 0.013-0.088 0.013-0.137 0-0.113-0.025-0.221-0.071-0.317l0.002 0.005c-0.060-0.117-0.15-0.212-0.261-0.275l-0.003-0.002c-0.116-0.065-0.25-0.114-0.392-0.14l-0.008-0.001c-0.135-0.027-0.29-0.043-0.449-0.043h-1.304l-0.258 1.858zM12.255 18.304h1.723c0.147 0 0.301-0.017 0.46-0.050 0.322-0.064 0.594-0.242 0.779-0.489l0.002-0.003c0.099-0.134 0.165-0.298 0.186-0.475l0-0.005c0.024-0.204-0.004-0.37-0.086-0.497-0.084-0.128-0.201-0.228-0.34-0.288l-0.005-0.002c-0.141-0.063-0.305-0.111-0.477-0.134l-0.009-0.001c-0.149-0.023-0.322-0.036-0.497-0.037h-1.453l-0.283 1.98zM21.515 11.356l-2.037 7.44-1.682-0.118 1.268-7.67 2.45 0.348zM19.739 19.572l-0.529 2.628-2.237-0.652 0.512-2.521 2.254 0.544z"></path>
</svg>
