<!-- Generated by IcoMoon.io -->
<svg version="1.1" xmlns="http://www.w3.org/2000/svg" width="32" height="32" viewBox="0 0 32 32">
<title>bos</title>
<path fill="#00a8d6" d="M32 16c0 8.837-7.163 16-16 16s-16-7.163-16-16c0-8.837 7.163-16 16-16s16 7.163 16 16z"></path>
<path fill="#fff" d="M14.432 18.95v-1.917h2.954c1.97 0 2.955-0.492 2.955-1.476v-5.164c0-0.983-0.985-1.475-2.955-1.475h-4.726v3.098h-2.66v-5.016h7.090c3.94 0 5.91 1.082 5.91 3.246v5.459c0 2.164-1.97 3.246-5.91 3.246h-2.658zM20.341 20.131h2.659v1.623c0 2.164-1.97 3.246-5.91 3.246h-7.090v-11.508h7.090c0.417 0 0.81 0.012 1.183 0.036v1.921c-0.257-0.025-0.555-0.040-0.857-0.040-0.011 0-0.021 0-0.032 0h-4.724v7.673h4.727c1.97 0 2.955-0.492 2.955-1.475v-1.477z"></path>
</svg>
