<!-- Generated by IcoMoon.io -->
<svg version="1.1" xmlns="http://www.w3.org/2000/svg" width="32" height="32" viewBox="0 0 32 32">
<title>bpt</title>
<path fill="#0f63d8" d="M32 16c0 8.837-7.163 16-16 16s-16-7.163-16-16c0-8.837 7.163-16 16-16s16 7.163 16 16z"></path>
<path fill="#fff" d="M25.884 20.737c-0.114 0.235-0.22 0.425-0.334 0.609l0.017-0.029c-0.077 0.138-0.151 0.276-0.232 0.407-0.037 0.061-0.067 0.124-0.104 0.183h-0.012c-1.961 3.079-5.356 5.093-9.223 5.093-2.263 0-4.366-0.69-6.108-1.871l0.038 0.024c-0.050-0.034-0.093-0.071-0.142-0.104-0.212-0.138-0.391-0.267-0.563-0.405l0.014 0.011c-0.295-0.226-0.556-0.45-0.803-0.687l0.003 0.003c-0.125-0.116-0.24-0.228-0.353-0.344l-0.002-0.002c-0.124-0.127-0.232-0.25-0.358-0.393-0.113-0.127-0.234-0.269-0.352-0.413l-0.018-0.023c-0.076-0.096-0.166-0.215-0.253-0.337l-0.020-0.029c-0.099-0.133-0.215-0.301-0.327-0.472l-0.027-0.043c-0.073-0.114-0.141-0.23-0.21-0.348-0.088-0.142-0.195-0.331-0.294-0.523l-0.025-0.053c-0.059-0.116-0.114-0.234-0.169-0.352-0.055-0.108-0.144-0.307-0.228-0.508l-0.035-0.095c-0.050-0.126-0.095-0.254-0.14-0.382-0.069-0.2-0.137-0.409-0.196-0.605-0.040-0.142-0.065-0.277-0.109-0.423-0.035-0.124-0.082-0.323-0.122-0.523l-0.011-0.067c-0.020-0.15-0.053-0.308-0.067-0.45-0.022-0.133-0.048-0.335-0.069-0.539l-0.004-0.051c-0.014-0.155-0.031-0.31-0.031-0.466-0.016-0.196-0.016-0.393-0.016-0.59 0-0.15 0.012-0.3 0.012-0.451 0.018-0.388 0.052-0.747 0.103-1.1l-0.007 0.060c0.111-0.779 0.284-1.476 0.52-2.144l-0.024 0.077c0.085-0.246 0.18-0.49 0.285-0.733 0.023-0.055 0.050-0.122 0.064-0.167 0.017-0.052 0.045-0.096 0.080-0.132l-0 0c0.103-0.222 0.217-0.442 0.337-0.66 0.057-0.122 0.126-0.242 0.197-0.36 0.050-0.086 0.084-0.167 0.15-0.261 0.064-0.095 0.139-0.193 0.206-0.291 0.099-0.155 0.189-0.283 0.284-0.408l-0.011 0.015c0.126-0.17 0.257-0.335 0.393-0.496 0.247-0.291 0.493-0.554 0.752-0.805l0.003-0.003c0.098-0.092 0.195-0.185 0.295-0.273 0.242-0.209 0.513-0.427 0.79-0.637l0.041-0.030c0.188-0.13 0.38-0.262 0.574-0.393 0.073-0.050 0.176-0.114 0.28-0.177l0.035-0.019c0.197-0.114 0.393-0.224 0.59-0.327 0.379-0.202 0.834-0.403 1.304-0.571l0.074-0.023c0.417-0.156 0.923-0.3 1.444-0.405l0.068-0.011c0.264-0.056 0.61-0.11 0.961-0.149l0.055-0.005c0.222-0.024 0.446-0.040 0.672-0.050 0.122-0.010 0.246-0.010 0.37-0.010 0.037-0 0.081-0.001 0.125-0.001 0.331 0 0.658 0.016 0.981 0.046l-0.041-0.003c0.636 0.056 1.218 0.159 1.781 0.306l-0.074-0.016c0.143 0.038 0.287 0.078 0.43 0.12 0.21 0.060 0.407 0.125 0.604 0.197 0.147 0.053 0.295 0.11 0.44 0.171 0.11 0.046 0.222 0.081 0.332 0.13v0.016c3.874 1.727 6.525 5.544 6.525 9.98 0 1.698-0.388 3.305-1.081 4.738l0.028-0.065c-0.020 0.042-0.044 0.077-0.063 0.118zM11.828 25.237v-0.002c1.22 0.56 2.646 0.887 4.148 0.887 3.632 0 6.818-1.908 8.611-4.777l0.025-0.043c0.072-0.12 0.14-0.244 0.208-0.366 0.094-0.18 0.2-0.354 0.291-0.55 0.641-1.288 1.016-2.806 1.016-4.411 0-4.207-2.576-7.813-6.237-9.326l-0.067-0.025c-0.078-0.036-0.208-0.089-0.339-0.137l-0.054-0.018c-0.234-0.089-0.554-0.189-0.879-0.275l-0.079-0.018c-0.457-0.123-1-0.218-1.556-0.268l-0.374-0.027c-0.217-0.010-0.432-0.015-0.647-0.015h-0.338c-0.209 0.009-0.416 0.024-0.623 0.045-0.125 0.014-0.249 0.030-0.372 0.047-0.389 0.053-0.724 0.12-1.052 0.204l0.063-0.014c-0.395 0.095-0.719 0.195-1.035 0.311l0.065-0.021c-0.141 0.048-0.277 0.1-0.408 0.153-0.366 0.149-0.649 0.281-0.925 0.424l0.065-0.031c-0.341 0.177-0.615 0.336-0.88 0.507l0.044-0.027c-0.209 0.13-0.382 0.251-0.55 0.379l0.017-0.013c-0.090 0.061-0.18 0.127-0.268 0.196-0.277 0.22-0.524 0.436-0.759 0.662l0.004-0.003c-0.147 0.148-0.291 0.298-0.433 0.45-0.211 0.231-0.419 0.48-0.616 0.739l-0.019 0.026c-0.184 0.244-0.376 0.526-0.554 0.817l-0.028 0.048c-0.065 0.108-0.124 0.216-0.185 0.324-0.12 0.202-0.218 0.407-0.316 0.62-0.16 0.334-0.323 0.743-0.458 1.165l-0.020 0.072c-0.096 0.267-0.188 0.599-0.258 0.94l-0.009 0.051c-0.043 0.21-0.079 0.423-0.108 0.635-0.016 0.122-0.034 0.246-0.045 0.368-0.020 0.197-0.042 0.393-0.042 0.59-0.012 0.134-0.012 0.27-0.012 0.405 0 0.187 0.016 0.373 0.016 0.56 0.020 0.365 0.055 0.698 0.105 1.027l-0.007-0.057c0.026 0.135 0.048 0.263 0.073 0.408 0.036 0.185 0.079 0.37 0.124 0.555 0.032 0.125 0.063 0.251 0.1 0.379 0.055 0.19 0.118 0.377 0.185 0.564 0.041 0.114 0.080 0.23 0.126 0.344 0.075 0.189 0.157 0.372 0.234 0.566 0.051 0.108 0.1 0.217 0.155 0.323 0.098 0.179 0.193 0.356 0.295 0.53 0.067 0.109 0.13 0.215 0.197 0.321 0.102 0.161 0.214 0.318 0.326 0.476 0.083 0.114 0.143 0.208 0.252 0.338s0.23 0.271 0.336 0.393 0.224 0.254 0.33 0.364c0.106 0.11 0.189 0.188 0.326 0.318 0.225 0.217 0.464 0.424 0.714 0.616l0.020 0.015c0.603 0.477 1.288 0.899 2.019 1.236l0.063 0.026zM15.98 24.412c-0.002 0-0.004 0-0.006 0-4.649 0-8.418-3.769-8.418-8.418s3.769-8.418 8.418-8.418c4.648 0 8.416 3.767 8.418 8.414v0c-0.003 4.646-3.766 8.413-8.411 8.422h-0.001zM15.98 10.334c-0.002 0-0.005 0-0.007 0-3.126 0-5.66 2.534-5.66 5.66s2.534 5.66 5.66 5.66c3.126 0 5.66-2.534 5.66-5.66 0-0.001 0-0.003 0-0.004v0c-0.003-3.122-2.531-5.653-5.652-5.66h-0.001z"></path>
</svg>
