<!-- Generated by IcoMoon.io -->
<svg version="1.1" xmlns="http://www.w3.org/2000/svg" width="32" height="32" viewBox="0 0 32 32">
<title>bq</title>
<path fill="#1d1d1d" d="M32 16c0 8.837-7.163 16-16 16s-16-7.163-16-16c0-8.837 7.163-16 16-16s16 7.163 16 16z"></path>
<path fill="#fff" d="M9.962 16.954c0.001 2.125 1.724 3.848 3.849 3.848 0.007 0 0.014-0 0.021-0h-0.001c2.122-0.013 3.846-1.716 3.847-3.8 0-0.010 0-0.023 0-0.035 0-2.117-1.717-3.834-3.834-3.834-0.008 0-0.017 0-0.025 0h0.001c-2.132 0.003-3.858 1.712-3.858 3.821zM9.966 21.094v1.273h-1.966v-14.367c0.559 0.010 1.031 0.21 1.41 0.605 0.363 0.38 0.544 0.835 0.542 1.363-0.005 0.947-0.002 1.894-0.002 2.886 1.373-1.147 2.902-1.712 4.683-1.44 1.765 0.27 3.12 1.158 4.044 2.677 1.395 2.295 0.943 5.226-1.078 7.050-1.971 1.78-5.246 2.056-7.633-0.047zM16.325 22.341c0.078-0.047 0.119-0.075 0.162-0.097 0.641-0.319 1.187-0.728 1.647-1.219l0.003-0.003c0.094-0.106 0.228-0.174 0.379-0.179l0.001-0c1.67-0.096 3.175-1.44 3.458-3.084 0.372-2.16-0.94-4.066-3.11-4.48-0.309-0.048-0.576-0.2-0.769-0.419l-0.001-0.001c-0.4-0.442-0.886-0.787-1.403-1.084-0.044-0.025-0.086-0.052-0.158-0.096 0.984-0.27 1.943-0.334 2.915-0.113 0.967 0.219 1.8 0.693 2.58 1.34v-1.275h1.971v14.369c-0.55-0.003-1.047-0.233-1.4-0.601l-0.001-0.001c-0.341-0.344-0.552-0.817-0.552-1.34 0-0.013 0-0.025 0-0.038l-0 0.002v-2.87c-1.698 1.423-3.576 1.849-5.722 1.189z"></path>
</svg>
