<!-- Generated by IcoMoon.io -->
<svg version="1.1" xmlns="http://www.w3.org/2000/svg" width="32" height="32" viewBox="0 0 32 32">
<title>brd</title>
<path fill="#fe5d86" d="M32 16c0 8.837-7.163 16-16 16s-16-7.163-16-16c0-8.837 7.163-16 16-16s16 7.163 16 16z"></path>
<path fill="#fff" d="M8 9.039c0-0.574 0.472-1.039 1.054-1.039h7.588c4.476 0 6.055 0.528 7.143 1.601 0.609 0.619 0.986 1.469 0.986 2.406 0 0.070-0.002 0.14-0.006 0.209l0-0.010c0 1.851-0.997 3.106-3.687 3.657 2.598 0.454 3.917 1.51 3.917 3.634 0.003 0.053 0.004 0.116 0.004 0.179 0 0.98-0.391 1.868-1.025 2.518l0.001-0.001c-1.065 1.050-2.805 1.806-7.488 1.806h-7.433c-0.002 0-0.005 0-0.007 0-0.575 0-1.042-0.464-1.047-1.039v-0zM13.761 15.001c0-0.383 0.315-0.693 0.703-0.693h2.443c1.394 0 2.437-0.068 2.92-0.568 0.202-0.211 0.326-0.498 0.326-0.814 0-0.027-0.001-0.054-0.003-0.081l0 0.004c0.030-0.32-0.078-0.638-0.3-0.875-0.49-0.482-1.532-0.567-2.943-0.567h-4.547v9.232h4.5c1.532 0 2.667-0.114 3.197-0.642 0.244-0.25 0.37-0.59 0.346-0.937 0.022-0.353-0.103-0.7-0.346-0.96-0.536-0.527-1.67-0.567-3.197-0.567h-2.38c-0.005 0-0.011 0-0.018 0-0.194 0-0.371-0.078-0.499-0.205l0 0c-0.126-0.125-0.204-0.298-0.204-0.489 0-0.007 0-0.015 0-0.022l-0 0.001z"></path>
</svg>
