<!-- Generated by IcoMoon.io -->
<svg version="1.1" xmlns="http://www.w3.org/2000/svg" width="32" height="32" viewBox="0 0 32 32">
<title>bsv</title>
<path fill="#eab304" d="M32 16c0 8.837-7.163 16-16 16s-16-7.163-16-16c0-8.837 7.163-16 16-16s16 7.163 16 16z"></path>
<path fill="#fff" d="M22.15 14.57l0.070-0.14c0-0.070 0-0.14 0.14-0.090 0.005-0.029 0.008-0.061 0.008-0.095s-0.003-0.066-0.009-0.098l0 0.003c0.016-0.042 0.025-0.090 0.025-0.14s-0.009-0.098-0.026-0.143l0.001 0.003c-0.081-0.192-0.128-0.415-0.128-0.649 0-0.157 0.021-0.309 0.061-0.453l-0.003 0.012c0.005-0.021 0.008-0.045 0.008-0.070s-0.003-0.049-0.009-0.072l0 0.002 0.070-0.070c0.028 0.025 0.051 0.055 0.069 0.088l0.001 0.002c0.005 0.021 0.008 0.045 0.008 0.070s-0.003 0.049-0.009 0.072l0-0.002v0.070c0 0.070 0.12-0.070 0.17-0.12 0.058-0.045 0.124-0.085 0.194-0.117l0.006-0.003c0.002-0.030 0.004-0.064 0.004-0.099 0-0.158-0.027-0.31-0.076-0.451l0.003 0.010c-0.044-0.142-0.069-0.305-0.069-0.474 0-0.241 0.051-0.47 0.143-0.677l-0.004 0.011c0 0.070 0.090 0.12 0.090 0.19 0.017 0.26 0.127 0.505 0.31 0.69 0.203 0.233 0.356 0.505 0.45 0.8 0 0 0 0.090 0.070 0.090 0.288 0.083 0.55 0.237 0.76 0.45 0.242 0.218 0.472 0.448 0.69 0.69 0.037 0.040 0.067 0.086 0.089 0.137l0.001 0.003h0.070c0.006-0.099 0.009-0.214 0.009-0.33s-0.003-0.231-0.009-0.346l0.001 0.016c0-0.19 0.090-0.38 0.28-0.35h0.090c0.009-0.175 0.133-0.32 0.297-0.359l0.003-0.001c0.034 0.057 0.054 0.126 0.054 0.2s-0.020 0.143-0.055 0.202l0.001-0.002c0.14 0.17 0.17 0.26 0 0.45s-0.090 0.21 0 0.4c0.021-0.117 0.063-0.221 0.122-0.313l-0.002 0.003c0.050-0.1 0.070-0.26 0.19-0.31 0.018-0.007 0.038-0.010 0.060-0.010s0.042 0.004 0.061 0.011l-0.001-0c0.053 0.011 0.113 0.017 0.175 0.017s0.122-0.006 0.181-0.018l-0.006 0.001c0.009-0.001 0.019-0.001 0.029-0.001 0.143 0 0.266 0.086 0.32 0.209l0.001 0.002-0.33 0.16c0.070 0.14 0 0.19-0.14 0.28-0.069 0.064-0.131 0.132-0.187 0.206l-0.003 0.004c0.151-0.027 0.279-0.058 0.404-0.096l-0.024 0.006c0.027-0.007 0.059-0.011 0.091-0.011 0.151 0 0.28 0.090 0.338 0.219l0.001 0.002c0.028 0.057 0.068 0.105 0.119 0.139l0.001 0.001c0.094 0.082 0.157 0.198 0.17 0.328l0 0.002c0.004 0.014 0.006 0.029 0.006 0.045s-0.002 0.031-0.006 0.046l0-0.001-0.19-0.14c-0.023-0.022-0.055-0.036-0.090-0.036s-0.067 0.014-0.090 0.036l0-0c-0.032 0.031-0.076 0.050-0.125 0.050s-0.093-0.019-0.125-0.051l0 0c-0.064-0.039-0.142-0.062-0.225-0.062s-0.161 0.023-0.227 0.063l0.002-0.001c-0.092 0.062-0.2 0.125-0.312 0.182l-0.018 0.008c0.272 0.038 0.5 0.2 0.628 0.426l0.002 0.004c0.070 0.14 0.17 0.28 0.24 0.43 0.014 0.031 0.023 0.066 0.023 0.104 0 0.099-0.058 0.185-0.141 0.225l-0.002 0.001h-0.050v-0.050c0-0.12-0.070-0.14-0.19-0.12-0.024 0.008-0.052 0.013-0.082 0.013-0.116 0-0.215-0.076-0.248-0.181l-0-0.002c-0.118-0.233-0.309-0.415-0.543-0.517l-0.007-0.003-0.21-0.090c-0.017 0.098-0.049 0.185-0.092 0.264l0.002-0.004c-0.034 0.054-0.074 0.1-0.119 0.139l-0.001 0.001c-0.14 0.12-0.14 0.14 0 0.31s0.070 0.090 0.12 0.17c-0.008 0.001-0.018 0.001-0.028 0.001-0.148 0-0.281-0.066-0.371-0.17l-0.001-0.001c-0.12-0.134-0.221-0.29-0.296-0.459l-0.004-0.011c-0.015-0.039-0.023-0.085-0.023-0.133 0-0.13 0.064-0.246 0.162-0.317l0.001-0.001c0.069-0.068 0.125-0.147 0.168-0.235l0.002-0.005-0.71-0.19c0.005 0.050 0.009 0.107 0.009 0.165s-0.003 0.116-0.009 0.172l0.001-0.007c0.024 0.403 0.024 0.807 0 1.21-0.026 0.641-0.127 1.246-0.293 1.824l0.013-0.054c-0.13 0.488-0.301 0.914-0.516 1.312l0.016-0.032c-0.206 0.415-0.409 0.762-0.632 1.094l0.022-0.034c-0.205 0.299-0.416 0.56-0.644 0.804l0.004-0.004c-0.238 0.278-0.493 0.527-0.769 0.751l-0.011 0.009c-0.31 0.26-0.64 0.47-1 0.69-0.449 0.289-0.966 0.531-1.516 0.698l-0.044 0.012c-0.302 0.094-0.683 0.184-1.071 0.252l-0.059 0.008c-0.176 0.037-0.395 0.069-0.617 0.088l-0.023 0.002c-0.134 0.043-0.237 0.146-0.279 0.277l-0.001 0.003c-0.062 0.328-0.252 0.604-0.516 0.777l-0.004 0.003c-0.12 0.090-0.26 0.17-0.4 0.26l0.070-0.21c0.006-0.021 0.009-0.045 0.009-0.069 0-0.075-0.030-0.142-0.079-0.191v0c-0.070-0.070-0.17 0-0.26 0s-0.17 0.12-0.19 0.26c-0.041 0.265-0.212 0.483-0.445 0.588l-0.005 0.002h-0.12c0.028-0.074 0.053-0.161 0.069-0.251l0.001-0.009c0-0.070-0.070-0.14-0.12-0.21s-0.090 0-0.14 0l-0.43 0.21-0.14 0.070 0.38 0.17c0.207 0.1 0.37 0.263 0.467 0.464l0.003 0.006c0.039 0.052 0.063 0.118 0.063 0.19s-0.023 0.138-0.063 0.191l0.001-0.001c-0.011 0.017-0.018 0.038-0.018 0.060s0.007 0.043 0.018 0.060l-0-0c0.021 0.074 0.033 0.159 0.033 0.247 0 0.17-0.046 0.33-0.126 0.467l0.002-0.004c0 0.070-0.12 0.14-0.17 0.21l-0.070-0.48c0-0.050-0.040-0.090-0.090-0.090v0c-0.010 0-0.021 0.001-0.032 0.001-0.285 0-0.532-0.161-0.656-0.397l-0.002-0.004-0.070-0.090c-0.123 0.174-0.304 0.3-0.514 0.349l-0.006 0.001c-0.287 0.132-0.503 0.38-0.588 0.682l-0.002 0.008c-0.038 0.189-0.097 0.356-0.175 0.511l0.005-0.011c-0.067 0.169-0.23 0.286-0.419 0.286-0.054 0-0.106-0.010-0.154-0.027l0.003 0.001v0.38c-0.183-0.048-0.316-0.212-0.316-0.407 0-0.040 0.006-0.079 0.016-0.116l-0.001 0.003c0.006-0.026 0.009-0.055 0.009-0.085s-0.003-0.059-0.010-0.088l0.001 0.003c-0.043-0.082-0.068-0.18-0.068-0.283 0-0.215 0.11-0.405 0.276-0.516l0.002-0.001c0.197-0.144 0.362-0.317 0.495-0.513l0.005-0.007c0.003-0.010 0.005-0.023 0.005-0.035s-0.002-0.025-0.005-0.036l0 0.001-0.71-0.090c-0.053-0.015-0.114-0.024-0.178-0.024-0.126 0-0.244 0.035-0.345 0.096l0.003-0.002-0.14 0.18c-0.21 0.24-0.31 0.26-0.59 0.12-0.082 0.142-0.131 0.312-0.131 0.494 0 0.051 0.004 0.102 0.011 0.151l-0.001-0.006c-0.103-0.1-0.177-0.23-0.209-0.375l-0.001-0.005c-0.006-0.036-0.009-0.078-0.009-0.12s0.003-0.084 0.010-0.124l-0.001 0.004v-0.14c-0.011-0.031-0.017-0.067-0.017-0.105s0.006-0.074 0.018-0.107l-0.001 0.002c0.086-0.193 0.237-0.344 0.425-0.428l0.005-0.002c0.201-0.134 0.444-0.22 0.705-0.24l0.005-0c0.19-0.012 0.38-0.012 0.57 0h0.14c-0.087-0.21-0.255-0.371-0.464-0.448l-0.006-0.002-0.54-0.21c-0.010 0.002-0.021 0.002-0.033 0.002-0.114 0-0.208-0.083-0.227-0.191l-0-0.001c0-0.050-0.040-0.090-0.090-0.090v0c-0.001 0-0.002 0-0.003 0-0.174 0-0.336 0.052-0.47 0.142l0.003-0.002c0.070-0.21 0.17-0.43 0.4-0.47 0.047-0.006 0.1-0.009 0.155-0.009s0.108 0.003 0.161 0.010l-0.006-0.001h0.090c0.14-0.21 0.35-0.17 0.54-0.070 0.277 0.132 0.507 0.344 0.66 0.61 0.071 0.138 0.196 0.24 0.346 0.279l0.004 0.001c0.002-0.030 0.004-0.064 0.004-0.099 0-0.158-0.027-0.31-0.076-0.451l0.003 0.010c-0.008-0.168-0.123-0.306-0.277-0.349l-0.003-0.001c-0.24-0.070-0.31-0.24-0.19-0.5-0.105-0.094-0.245-0.151-0.398-0.151-0.069 0-0.134 0.012-0.196 0.033l0.004-0.001c0.070-0.19 0.35-0.26 0.54-0.24 0.146 0.089 0.324 0.142 0.513 0.142 0.020 0 0.040-0.001 0.060-0.002l-0.003 0c0.138 0.027 0.251 0.116 0.309 0.237l0.001 0.003 0.14 0.28c0.12 0.21 0.21 0.45 0.31 0.66 0.14-0.4 0.31-0.83 0.47-1.28l-0.24-0.090-0.69-0.28c-0.569-0.249-1.059-0.533-1.512-0.865l0.022 0.015c-0.075-0.041-0.162-0.073-0.255-0.089l-0.005-0.001c-0.070 0-0.17 0.090-0.12 0.17s0.12 0.090 0.17 0.17c0.050 0.080 0 0.070 0.090 0.12h-0.12c-0.005 0-0.012 0-0.018 0-0.334 0-0.62-0.204-0.74-0.495l-0.002-0.005c-0.14-0.276-0.233-0.6-0.259-0.941l-0.001-0.009c0.004-0.010 0.007-0.022 0.007-0.035s-0.003-0.025-0.007-0.036l0 0.001-0.64-0.71c-0.023 0.056-0.036 0.122-0.036 0.19s0.013 0.134 0.037 0.194l-0.001-0.003 0.070 0.14v0.17h-0.19c-0.105-0.114-0.192-0.246-0.256-0.391l-0.004-0.009c-0.090-0.35-0.14-0.71-0.21-1.060-0.020-0.196-0.051-0.373-0.095-0.545l0.005 0.025c-0.062-0.238-0.127-0.435-0.203-0.626l0.013 0.036v0.55c0 0.050-0.12 0-0.14-0.090-0.104-0.175-0.172-0.383-0.19-0.605l-0-0.005c-0.001-0.032-0.001-0.070-0.001-0.107 0-0.494 0.077-0.969 0.22-1.415l-0.009 0.033c0.054-0.208 0.112-0.382 0.181-0.55l-0.011 0.030c-0.025 0.061-0.055 0.114-0.091 0.162l0.001-0.002-0.090 0.090v-0.12c-0-0.005-0-0.010-0-0.016 0-0.23 0.063-0.446 0.173-0.63l-0.003 0.006c0.17-0.38 0.38-0.76 0.57-1.13 0.087-0.146 0.173-0.27 0.266-0.388l-0.006 0.008-0.17 0.18-0.12 0.070v-0.070c0.072-0.12 0.142-0.221 0.216-0.318l-0.006 0.008c0.225-0.272 0.482-0.506 0.767-0.702l0.013-0.008c0.031-0.011 0.067-0.018 0.105-0.018s0.074 0.007 0.107 0.018l-0.002-0.001 1 0.21 0.35 0.090c-0.093 0.095-0.172 0.204-0.236 0.322l-0.004 0.008c-0.029 0.057-0.047 0.124-0.047 0.195s0.017 0.138 0.048 0.197l-0.001-0.002c0.017 0.024 0.026 0.053 0.026 0.085s-0.010 0.061-0.027 0.085l0-0.001c-0.225 0.195-0.415 0.423-0.563 0.677l-0.007 0.013v0.090s0.33 0.33 0.5 0.52c0.010 0.030 0.010 0.060 0 0.090-0.073 0.122-0.115 0.268-0.115 0.425s0.043 0.303 0.118 0.429l-0.002-0.004c0.039 0.148 0.172 0.255 0.329 0.255 0.036 0 0.071-0.006 0.103-0.016l-0.002 0.001c-0.001 0.011-0.001 0.023-0.001 0.036 0 0.191 0.064 0.366 0.172 0.506l-0.001-0.002c0.070 0.070 0.17 0.12 0.24 0.19 0.041 0.029 0.073 0.070 0.089 0.118l0.001 0.002c0.115 0.361 0.42 0.629 0.794 0.689l0.006 0.001c0.288 0.040 0.58-0.020 0.83-0.17 0.090 0 0.12-0.070 0.14 0 0.056 0.349 0.168 0.686 0.33 1 0.207 0.366 0.463 0.702 0.76 1 0.267 0.255 0.594 0.44 0.95 0.54 0.44 0.099 0.9-0.025 1.23-0.33 0.202-0.204 0.375-0.438 0.512-0.694l0.008-0.016 0.43-0.69c0.19-0.26 0.427-0.474 0.699-0.634l0.011-0.006c0.065-0.051 0.148-0.081 0.238-0.081 0.033 0 0.064 0.004 0.095 0.012l-0.003-0.001-0.070 0.14c-0.051 0.081-0.081 0.179-0.081 0.285s0.030 0.204 0.083 0.287l-0.001-0.002c0.070 0.090 0.12 0.090 0.17 0s0.14-0.26 0.33-0.24c0.19 0.020 0.19-0.12 0.21-0.24 0.021-0.547 0.186-1.052 0.457-1.482l-0.007 0.012c0.050-0.052 0.106-0.098 0.166-0.138l0.004-0.002v0.38c0.019 0.106 0.050 0.21 0.090 0.31l0.060-0.13c0.035-0.072 0.106-0.12 0.19-0.12 0 0 0 0 0 0v0c0.049-0.009 0.090-0.034 0.12-0.070l0-0c0.090-0.106 0.146-0.244 0.146-0.395 0-0.062-0.009-0.122-0.027-0.179l0.001 0.004c-0.011-0.068-0.018-0.146-0.018-0.225s0.006-0.157 0.019-0.233l-0.001 0.008c0-0.001 0-0.002 0-0.003 0-0.197 0.052-0.382 0.143-0.542l-0.003 0.005c0.023-0.054 0.053-0.1 0.090-0.14l-0 0h0.070v0.33c-0.004 0.014-0.006 0.029-0.006 0.045s0.002 0.031 0.006 0.046l-0-0.001h0.090l0.18-0.12c0.058-0.101 0.092-0.222 0.092-0.351 0-0.017-0.001-0.034-0.002-0.051l0 0.002c-0.007-0.036-0.010-0.078-0.010-0.12s0.004-0.084 0.011-0.124l-0.001 0.004v-0.82c0-0.11 0-0.12 0.070-0.19l0.11-0.060v0.44c0.015-0.030 0.045-0.050 0.080-0.050h0zM9.86 10.010l0.59-0.59c0.034-0.036 0.073-0.067 0.118-0.089l0.002-0.001c0.070-0.070 0-0.14 0-0.21s-0.090 0-0.17 0h-0.090v-0.12c0.052-0.167 0.172-0.3 0.326-0.368l0.004-0.002c0.119-0.044 0.257-0.070 0.4-0.070s0.281 0.026 0.408 0.072l-0.008-0.003c0.020 0.010 0.045 0.016 0.070 0.016s0.050-0.006 0.071-0.017l-0.001 0 0.57-0.31c0.090 0 0.070-0.090 0-0.14s-0.17-0.12-0.26 0c-0.014 0.004-0.029 0.006-0.045 0.006s-0.031-0.002-0.046-0.006l0.001 0c0-0.17 0.17-0.31 0.33-0.38 0.27-0.083 0.56-0.083 0.83 0h0.040c0.070 0 0.28 0.090 0.45 0l0.35-0.12c0.090 0 0.090-0.070 0-0.12s-0.12-0.14-0.21-0.070 0 0-0.090 0c-0.018-0.020-0.030-0.046-0.030-0.075s0.011-0.055 0.030-0.075l-0 0c0.137-0.104 0.311-0.167 0.5-0.167 0.039 0 0.077 0.003 0.115 0.008l-0.004-0c0.206 0.016 0.392 0.093 0.542 0.212l-0.002-0.002h0.070c0.052 0.060 0.128 0.098 0.213 0.098 0.024 0 0.047-0.003 0.069-0.009l-0.002 0c0.054-0.033 0.12-0.053 0.19-0.053s0.136 0.020 0.192 0.053l-0.002-0.001h0.070v-0.090c-0.032-0.122-0.141-0.21-0.271-0.21-0.003 0-0.006 0-0.009 0h-0.070c0.144-0.114 0.329-0.182 0.529-0.182 0.116 0 0.226 0.023 0.327 0.064l-0.006-0.002c0.206 0.084 0.386 0.222 0.52 0.4 0.049 0.031 0.106 0.055 0.166 0.069l0.004 0.001c0.009-0 0.020-0 0.031-0 0.133 0 0.26 0.026 0.375 0.073l-0.007-0.002c0.12 0.070 0.070 0 0.090 0.090 0.016-0.034 0.026-0.073 0.026-0.115 0-0.108-0.063-0.201-0.154-0.244l-0.002-0.001h-0.2v-0.15c0.050-0.010 0.107-0.016 0.165-0.016s0.115 0.006 0.171 0.017l-0.006-0.001c0.316 0.037 0.6 0.208 0.78 0.47 0.070 0.12 0.128 0.247 0.17 0.38 0.018-0.002 0.039-0.004 0.060-0.004 0.159 0 0.3 0.075 0.389 0.192l0.001 0.001h0.070c0.045-0.009 0.085-0.023 0.123-0.041l-0.003 0.001c-0.005-0.163-0.111-0.299-0.257-0.349l-0.003-0.001h-0.070c0.090 0 0.17-0.070 0.26 0 0.15 0.014 0.295 0.055 0.43 0.12 0.356 0.145 0.622 0.449 0.72 0.82 0.17 0.090 0.28 0.19 0.4 0.26h0.14v-0.21c-0.031-0.147-0.128-0.267-0.257-0.329l-0.003-0.001-0.090-0.070c0.042-0.010 0.090-0.016 0.14-0.016 0.186 0 0.353 0.079 0.47 0.205l0 0c0.185 0.156 0.323 0.36 0.4 0.59 0.017 0.077 0.069 0.139 0.138 0.169l0.002 0.001c0.076 0.057 0.146 0.12 0.21 0.19 0.090-0.26-0.12-0.4-0.19-0.59 0.16 0.003 0.303 0.076 0.399 0.189l0.001 0.001c0.14 0.146 0.266 0.303 0.38 0.47 0.072 0.122 0.152 0.239 0.24 0.35 0.072 0.134 0.119 0.28 0.14 0.43 0.002 0.035 0.002 0.076 0.002 0.117 0 0.316-0.052 0.62-0.148 0.903l0.006-0.020c-0.006 0.099-0.009 0.214-0.009 0.33s0.003 0.231 0.010 0.346l-0.001-0.016c0.010 0.030 0.010 0.060 0 0.090-0.173 0.144-0.289 0.351-0.31 0.587l-0 0.003c-0.023 0.135-0.036 0.291-0.036 0.45s0.013 0.315 0.038 0.467l-0.002-0.017v0.070c-0.271 0.181-0.448 0.484-0.45 0.83v0.52c-0.296 0.061-0.529 0.275-0.618 0.554l-0.002 0.006c-0.070 0.14-0.090 0.31-0.17 0.45s-0.090 0.090-0.14 0.14v-0.19c0.047-0.234 0.074-0.503 0.074-0.778 0-0.060-0.001-0.121-0.004-0.181l0 0.009c0-0.021 0.001-0.046 0.001-0.070 0-0.469-0.096-0.916-0.269-1.322l0.008 0.022v-0.17c0.152-0.155 0.254-0.358 0.28-0.585l0-0.005c0.012-0.15 0.019-0.324 0.019-0.5s-0.007-0.35-0.020-0.523l0.001 0.023c0-0.005 0-0.011 0-0.016 0-0.24-0.091-0.459-0.241-0.624l0.001 0.001c-0.105-0.108-0.253-0.175-0.415-0.175-0.081 0-0.158 0.017-0.228 0.047l0.004-0.001c-0.279 0.12-0.47 0.392-0.47 0.709 0 0 0 0.001 0 0.001v-0 0.35c-0.344-0.345-0.761-0.618-1.226-0.792l-0.024-0.008c-0.235-0.086-0.515-0.159-0.803-0.206l-0.027-0.004h-0.61c-0.415 0.002-0.814 0.071-1.186 0.198l0.026-0.008c-0.21 0.070-0.4 0.17-0.61 0.24-0.020 0.011-0.044 0.017-0.070 0.017s-0.050-0.006-0.071-0.018l0.001 0c-0.414-0.254-0.893-0.463-1.401-0.601l-0.039-0.009c-0.214-0.060-0.463-0.103-0.719-0.119l-0.011-0.001c-0.5-0.1-1-0.17-1.42-0.3-0.402-0.098-0.756-0.253-1.074-0.458l0.014 0.008c-0.023-0.069-0.065-0.127-0.119-0.169l-0.001-0.001zM19.31 14.71c0 0.17-0.31 0.21-0.64 0.12v0.35c0.002 0.018 0.004 0.039 0.004 0.060s-0.001 0.042-0.004 0.062l0-0.002h-0.14c-0.102-0.083-0.193-0.168-0.279-0.259l-0.001-0.001c-0.118 0.052-0.206 0.153-0.239 0.277l-0.001 0.003c-0.070 0.19-0.17 0.21-0.31 0-0.051-0.051-0.106-0.097-0.166-0.138l-0.004-0.002c-0.069 0.097-0.137 0.182-0.212 0.262l0.002-0.002c-0.034 0.040-0.084 0.066-0.139 0.070l-0.001 0c-0.035-0.034-0.065-0.074-0.089-0.117l-0.001-0.003c-0.005-0.032-0.008-0.068-0.008-0.105s0.003-0.073 0.008-0.109l-0 0.004c-0.12 0.31-0.26 0.57-0.61 0.64-0.002-0.020-0.003-0.044-0.003-0.068 0-0.114 0.027-0.221 0.075-0.316l-0.002 0.004c0.070-0.12 0 0 0-0.070-0.151 0.145-0.248 0.345-0.26 0.568l-0 0.002c0.016 0.433 0.128 0.857 0.33 1.24 0.14 0.35 0.31 0.69 0.45 1 0.128 0.317 0.186 0.658 0.17 1 0.002 0.025 0.004 0.054 0.004 0.083 0 0.497-0.403 0.9-0.9 0.9-0.205 0-0.395-0.069-0.546-0.184l0.002 0.002c-0.232-0.145-0.428-0.325-0.586-0.535l-0.004-0.005c-0.14-0.19-0.28-0.38-0.4-0.57-0.059-0.118-0.117-0.261-0.164-0.408l-0.006-0.022v-0.14c0.005-0 0.010-0 0.016-0 0.111 0 0.207 0.070 0.243 0.169l0.001 0.002c0.050 0.080 0.26 0.4 0.4 0.59 0.115 0.23 0.288 0.426 0.5 0.57 0.066 0.029 0.144 0.046 0.225 0.046 0.239 0 0.445-0.145 0.533-0.352l0.001-0.004v-0.070c0.031-0.090 0.050-0.193 0.050-0.301 0-0.169-0.044-0.327-0.122-0.463l0.002 0.005c-0.17-0.38-0.38-0.76-0.57-1.13-0.208-0.37-0.365-0.799-0.446-1.255l-0.004-0.025c-0.006-0.049-0.009-0.107-0.009-0.165s0.003-0.116 0.009-0.172l-0.001 0.007c-0.15 0.012-0.3 0.012-0.45 0l-0.45-0.12-0.21 0.14c0.005-0.021 0.007-0.045 0.007-0.070s-0.003-0.049-0.007-0.072l0 0.002c0-0.003 0-0.007 0-0.011 0-0.188-0.104-0.352-0.258-0.437l-0.003-0.001c-0.105 0-0.19 0.085-0.19 0.19v0c-0.001 0.012-0.001 0.026-0.001 0.041 0 0.2 0.103 0.376 0.259 0.478l0.002 0.001 0.4 0.28c0.14 0.090 0.12 0.090 0.19 0 0.005-0.021 0.007-0.045 0.007-0.070s-0.003-0.049-0.008-0.072l0 0.002c0.19 0 0.26 0.12 0.28 0.31 0.046 0.24 0.11 0.478 0.19 0.71 0.001 0.010 0.001 0.021 0.001 0.033 0 0.095-0.035 0.181-0.092 0.248l0-0c-0.122 0.153-0.281 0.273-0.462 0.347l-0.008 0.003c-0.070 0.028-0.15 0.044-0.235 0.044s-0.165-0.016-0.239-0.046l0.004 0.002c0.085-0.085 0.177-0.163 0.273-0.235l0.007-0.005c0.062-0.063 0.1-0.15 0.1-0.245 0-0.030-0.004-0.059-0.011-0.087l0.001 0.002c-0.015-0.038-0.049-0.065-0.089-0.070l-0.001-0c-0.042-0.006-0.091-0.009-0.14-0.009s-0.098 0.003-0.146 0.009l0.006-0.001c-0.075 0.006-0.142 0.039-0.19 0.090l-0 0c-0.152 0.122-0.322 0.237-0.5 0.34l-0.020 0.010c-0.106 0.056-0.231 0.089-0.364 0.089-0.217 0-0.413-0.087-0.556-0.229l0 0c-0.083-0.092-0.147-0.202-0.188-0.323l-0.002-0.007-0.070-0.14c-0.034 0.035-0.074 0.065-0.117 0.089l-0.003 0.001c-0.050 0-0.070-0.12 0-0.14 0.029-0.13 0.070-0.257 0.12-0.38 0.011-0.020 0.017-0.044 0.017-0.070s-0.006-0.050-0.018-0.071l0 0.001c-0.080-0.11-0.184-0.199-0.305-0.258l-0.005-0.002c-0.090-0.070-0.17 0-0.24 0h-0.12c0.001-0.018 0.002-0.039 0.002-0.060s-0.001-0.042-0.002-0.063l0 0.003c0.036-0.217 0.192-0.389 0.396-0.449l0.004-0.001h0.12c-0.298-0.115-0.551-0.285-0.76-0.5l-0-0c-0.070-0.070-0.090-0.12 0-0.19s0.26-0.23 0.4-0.33c0.124-0.045 0.266-0.072 0.415-0.072s0.291 0.026 0.424 0.074l-0.009-0.003c0.247 0.082 0.473 0.218 0.66 0.4l0.070 0.070c-0.117-0.348-0.384-0.618-0.722-0.737l-0.008-0.003c-0.281-0.108-0.605-0.176-0.944-0.19l-0.006-0c0.034-0.123 0.133-0.216 0.258-0.24l0.002-0 0.54-0.1c0.201-0.046 0.376-0.136 0.522-0.261l-0.002 0.001c-0.091-0.075-0.192-0.145-0.3-0.205l-0.010-0.005c-0.28-0.12-0.57-0.26-0.85-0.35-0.233-0.106-0.503-0.183-0.786-0.219l-0.014-0.001c-0.424-0.060-0.805-0.158-1.169-0.293l0.039 0.013c-0.475-0.132-0.89-0.32-1.269-0.561l0.019 0.011c-0.4-0.26-0.74-0.6-1-1-0.057-0.095-0.104-0.204-0.138-0.32l-0.002-0.010v-0.12h0.12l0.16 0.090c0.26 0.21 0.5 0.47 0.76 0.66 0.302 0.221 0.656 0.393 1.038 0.495l0.022 0.005c0.31 0.070 0.61 0.14 0.92 0.19s0.52 0 0.78 0.070l0.57 0.070c0.217 0.015 0.432 0.055 0.64 0.12 0.33 0.12 0.64 0.26 0.95 0.38 0.017 0.011 0.038 0.018 0.060 0.018s0.043-0.007 0.060-0.018l-0 0c0.13-0.029 0.257-0.070 0.38-0.12v-0.11c-0.188-0.108-0.421-0.225-0.66-0.33l-0.050-0.020c-0.416-0.169-0.898-0.286-1.402-0.329l-0.018-0.001-0.66-0.070c-0.418-0.070-0.779-0.157-1.129-0.266l0.059 0.016c-0.384-0.142-0.715-0.335-1.006-0.575l0.006 0.005c-0.247-0.192-0.435-0.451-0.537-0.749l-0.003-0.011v-0.21c0.025-0.011 0.054-0.017 0.085-0.017s0.060 0.006 0.086 0.018l-0.001-0.001 0.26 0.28c0.14 0.14 0.28 0.28 0.45 0.43 0.396 0.31 0.852 0.535 1.34 0.66 0.28 0.070 0.57 0.12 0.85 0.17 0.45 0.070 0.92 0.14 1.37 0.24 0.558 0.102 1.047 0.346 1.444 0.693l-0.004-0.003c0.17 0.14 0.31 0.070 0.47 0 0.022-0.004 0.048-0.007 0.074-0.007 0.154 0 0.288 0.087 0.355 0.215l0.001 0.002c0.12 0.323 0.12 0.677 0 1-0.003 0.016-0.005 0.034-0.005 0.053 0 0.108 0.057 0.203 0.143 0.256l0.001 0.001h0.12c0.095-0.040 0.206-0.064 0.322-0.064 0.2 0 0.384 0.069 0.529 0.185l-0.002-0.001c0.035 0.028 0.081 0.045 0.13 0.045s0.095-0.017 0.13-0.045l-0 0c0.225-0.106 0.412-0.209 0.592-0.323l-0.022 0.013c0.19-0.12 0.090-0.17 0.14-0.26 0.122-0.243 0.369-0.408 0.655-0.408 0.037 0 0.073 0.003 0.109 0.008l-0.004-0.001c0.215 0 0.43 0.023 0.64 0.070 0.078 0.022 0.168 0.034 0.26 0.034s0.182-0.013 0.267-0.036l-0.007 0.002c0.221-0.027 0.397-0.193 0.439-0.407l0.001-0.003v-0.64c0-0.070 0-0.14 0.12-0.14s0.090 0.090 0.090 0.17c0.072 0.33 0.072 0.67 0 1-0.039 0.269-0.268 0.474-0.545 0.474-0.023 0-0.046-0.001-0.068-0.004l0.003 0h-0.85c-0.009-0.001-0.020-0.001-0.030-0.001-0.23 0-0.422 0.162-0.469 0.378l-0.001 0.003c-0.005 0.021-0.008 0.045-0.008 0.070s0.003 0.049 0.009 0.072l-0-0.002c0.070 0.14 0.12 0.26 0.33 0.24 0.112 0.010 0.2 0.098 0.21 0.21 0.046 0.245 0.249 0.431 0.498 0.45l0.002 0 0.22-0.010zM13.74 14.020c0.12 0.123 0.247 0.24 0.38 0.35 0.065 0.049 0.146 0.079 0.235 0.079s0.17-0.030 0.236-0.079l-0.001 0.001c0.146-0.087 0.27-0.173 0.388-0.266l-0.008 0.006v-0.070c-0.024-0.093-0.086-0.168-0.168-0.209l-0.002-0.001c-0.039-0.011-0.084-0.017-0.13-0.017s-0.091 0.006-0.134 0.018l0.004-0.001-0.17 0.070c-0.078 0.022-0.168 0.034-0.26 0.034s-0.182-0.013-0.267-0.036l0.007 0.002-0.11 0.12zM17 14.35c0.039 0.032 0.086 0.057 0.138 0.069l0.002 0.001c0.181 0.035 0.336 0.129 0.449 0.259l0.001 0.001c0.116 0.011 0.234 0.011 0.35 0 0.070 0 0.12-0.070 0.19-0.090-0.058-0.070-0.12-0.132-0.188-0.188l-0.002-0.002c-0.159-0.069-0.345-0.109-0.539-0.109-0.143 0-0.281 0.022-0.41 0.062l0.010-0.003zM4.54 17.43c0.183 0.195 0.442 0.317 0.73 0.317 0.096 0 0.189-0.014 0.277-0.039l-0.007 0.002c0.12-0.036 0.215-0.124 0.259-0.237l0.001-0.003c-0.11 0.026-0.235 0.042-0.365 0.042-0.272 0-0.529-0.067-0.754-0.186l0.009 0.004c-0.322-0.186-0.556-0.495-0.638-0.861l-0.002-0.009c-0.031-0.105-0.049-0.227-0.049-0.352 0-0.453 0.232-0.852 0.584-1.085l0.005-0.003c-0.038 0.117-0.059 0.251-0.059 0.39 0 0.584 0.382 1.079 0.91 1.248l0.009 0.003h0.14c0.084 0.018 0.18 0.029 0.279 0.029 0.538 0 1.003-0.31 1.227-0.761l0.004-0.008c-0.11 0.086-0.208 0.171-0.301 0.261l0.001-0.001c-0.437 0.3-1.013 0.3-1.45 0-0.242-0.162-0.4-0.434-0.4-0.743 0-0.287 0.136-0.543 0.348-0.706l0.002-0.002c0.029 0.173 0.133 0.317 0.277 0.399l0.003 0.001c0.136 0.076 0.293 0.135 0.46 0.168l0.010 0.002c0.056 0.009 0.121 0.015 0.187 0.015 0.315 0 0.602-0.124 0.814-0.325l-0 0c0.141-0.144 0.253-0.318 0.327-0.51l0.003-0.010c0.19-0.45 0.33-0.92 0.54-1.37 0.159-0.32 0.309-0.582 0.471-0.835l-0.021 0.035c0-0.070 0.090 0 0.14 0l0.52 0.28 0.33 0.14-0.14 0.12c-0.304 0.323-0.569 0.687-0.786 1.082l-0.014 0.028c-0.17 0.31-0.33 0.59-0.47 0.9s-0.28 0.71-0.4 1.060l-0.28 0.8c-0.070 0.21-0.17 0.4-0.26 0.61-0.138 0.307-0.367 0.552-0.652 0.706l-0.008 0.004c-0.16 0.080-0.347 0.133-0.544 0.15l-0.006 0c-0.086 0.011-0.185 0.018-0.285 0.018s-0.199-0.006-0.296-0.019l0.011 0.001c-0.318-0.025-0.579-0.242-0.669-0.535l-0.001-0.005c0.004-0.021 0.007-0.046 0.007-0.071 0-0.050-0.010-0.098-0.028-0.141l0.001 0.002zM18.61 16.63c0.012 0.11 0.012 0.22 0 0.33 0 0.14-0.090 0.14-0.21 0.070l-0.28-0.14h-0.12c0.039 0.076 0.062 0.165 0.062 0.26s-0.023 0.184-0.063 0.263l0.002-0.003c-0.017 0.050-0.049 0.091-0.089 0.119l-0.001 0h-0.11l-0.070-0.21c-0.036-0.082-0.117-0.138-0.211-0.138-0.032 0-0.063 0.007-0.091 0.019l0.002-0.001c-0.099 0.028-0.185 0.069-0.263 0.122l0.003-0.002h-0.14c-0.164-0.307-0.28-0.665-0.328-1.045l-0.002-0.015 0.1 0.12c0.078 0.060 0.177 0.096 0.285 0.096s0.207-0.036 0.286-0.097l-0.001 0.001c0.023-0.048 0.037-0.105 0.037-0.165s-0.014-0.117-0.038-0.167l0.001 0.002c0-0.070-0.070-0.12-0.090-0.19 0.14 0 0.14-0.12 0.5 0.31l0.26-0.14c0.090 0 0-0.14 0-0.19v-0.21l0.17 0.070c0.050 0.017 0.091 0.049 0.119 0.089l0 0.001c0.149 0.167 0.313 0.315 0.491 0.444l0.009 0.006c0.104 0.087 0.17 0.217 0.17 0.362 0 0.006-0 0.013-0 0.019l0-0.001v0.090h-0.070c-0.25-0.080-0.25-0.080-0.32-0.080zM6.8 15.040c-0.153-0.091-0.337-0.145-0.533-0.145-0.038 0-0.075 0.002-0.111 0.006l0.005-0c-0.042 0.005-0.091 0.009-0.14 0.009s-0.098-0.003-0.146-0.009l0.006 0.001c-0.181-0.031-0.318-0.187-0.318-0.375 0-0.060 0.014-0.117 0.039-0.167l-0.001 0.002c0.090 0 0.17 0.12 0.26 0.17s0.12 0 0.12-0.070c-0-0.005-0-0.010-0-0.016 0-0.117 0.069-0.218 0.169-0.263l0.002-0.001c0.044-0.016 0.096-0.025 0.149-0.025 0.116 0 0.222 0.044 0.301 0.116l-0-0c0.202 0.2 0.28 0.496 0.2 0.77z"></path>
</svg>
