<!-- Generated by IcoMoon.io -->
<svg version="1.1" xmlns="http://www.w3.org/2000/svg" width="32" height="32" viewBox="0 0 32 32">
<title>btcd</title>
<path fill="#f60" d="M32 16c0 8.837-7.163 16-16 16s-16-7.163-16-16c0-8.837 7.163-16 16-16s16 7.163 16 16z"></path>
<path fill="#fff" d="M17.078 19.356c5.080-1.567 3.267-6.834 0-7.034 0.83 0 1.508-2.377 1.508-5.322 7.976 0.567 11.723 13.711-0.24 17.823 0.077-1.067-0.36-4.045-1.267-5.467zM6 17.8v-5.467h0.010c2.885-0.011 5.212-2.4 5.202-5.322h5.56c0.001 5.966-4.817 10.789-10.772 10.789zM13.287 16.81c3.3 2.712 3.486 7.279 3.486 8.19h-5.561c0-3.022-1.967-5.467-4.403-5.467 4.13-0.666 4.971-1.366 6.478-2.722z"></path>
</svg>
