<!-- Generated by IcoMoon.io -->
<svg version="1.1" xmlns="http://www.w3.org/2000/svg" width="32" height="32" viewBox="0 0 32 32">
<title>btcp</title>
<path fill="#272d63" d="M32 16c0 8.837-7.163 16-16 16s-16-7.163-16-16c0-8.837 7.163-16 16-16s16 7.163 16 16z"></path>
<path fill="#fefefe" d="M20.215 7.2l-0.7 2.842c2.164 0.756 3.757 1.89 3.446 3.99-0.090 0.638-0.31 1.277-0.764 1.76-0.389 0.417-0.997 0.638-1.516 0.808-0.573 0.201-1.235 0.324-1.923 0.339l-0.007 0c-0.44 0-0.868-0.013-1.308-0.052-0.712-0.053-1.438-0.118-2.137-0.274-0.22-0.052-0.428-0.091-0.622-0.144l-0.946 3.82-0.557 2.086-0.7 2.856-1.722-0.43 0.713-2.882c-0.402-0.104-0.817-0.221-1.231-0.326l-2.241-0.56 0.855-1.97s1.27 0.34 1.256 0.314c0.493 0.117 0.7-0.209 0.79-0.417l0.972-3.912 0.453-1.812 0.519-2.086c0.025-0.365-0.104-0.834-0.804-1.004 0.026-0.013-1.256-0.313-1.256-0.313l0.453-1.851 2.37 0.6c0.364 0.090 0.726 0.169 1.102 0.26l0.7-2.842 1.722 0.43-0.686 2.79c0.453 0.105 0.92 0.209 1.373 0.326l0.673-2.777zM20.073 17.5c0.479-0.079 1.062-0.274 1.476-0.444 0.013-0.013 0.040-0.013 0.052-0.026 0.894 0.795 1.321 2.086 0.738 3.742-0.92 2.686-3.134 2.907-6.062 2.347l-0.712 2.881-1.71-0.43 0.66-2.751 0.026-0.091 0.519-2.113c1.528 0.34 3.588 0.561 3.976-1.030 0.208-0.847-0.194-1.46-0.842-1.903l0.674-0.040c0.48-0.025 0.725-0.064 1.205-0.143zM19.567 14.005c0.506-2.047-2.63-2.49-3.6-2.75l-0.856 3.467c0.972 0.248 3.977 1.239 4.456-0.717z"></path>
</svg>
