<!-- Generated by IcoMoon.io -->
<svg version="1.1" xmlns="http://www.w3.org/2000/svg" width="32" height="32" viewBox="0 0 32 32">
<title>btcz</title>
<path fill="#f8c24a" d="M32 16c0 8.837-7.163 16-16 16s-16-7.163-16-16c0-8.837 7.163-16 16-16s16 7.163 16 16z"></path>
<path fill="#fff" d="M16 27c-6.066 0-11-4.934-11-11s4.937-11 11-11 11 4.937 11 11c0 1.002-0.136 2-0.405 2.966-0.114 0.368-0.451 0.63-0.85 0.63-0.49 0-0.888-0.398-0.888-0.888 0-0.078 0.010-0.154 0.029-0.226l-0.001 0.006c0.225-0.81 0.34-1.647 0.339-2.488 0-5.086-4.138-9.224-9.224-9.224s-9.224 4.138-9.224 9.224 4.138 9.224 9.224 9.224c0.952 0 1.899-0.146 2.806-0.435 0.086-0.031 0.186-0.049 0.29-0.049 0.49 0 0.888 0.398 0.888 0.888 0 0.402-0.267 0.741-0.633 0.851l-0.006 0.002c-0.996 0.329-2.143 0.519-3.334 0.519-0.003 0-0.007 0-0.010 0h0.001zM19.375 15.974c0.38 0.318 0.636 0.778 0.768 1.379 0.086 0.346 0.080 0.709-0.016 1.052-0.102 0.332-0.272 0.617-0.495 0.851l0.001-0.001c-0.245 0.255-0.532 0.468-0.85 0.629l-0.018 0.008c-0.342 0.177-0.423 0.234-0.831 0.324l-0.254 0.061c-0.131 0.033-0.226 0.149-0.226 0.288 0 0.023 0.003 0.045 0.007 0.066l-0-0.002 0.15 0.672c0.004 0.019 0.007 0.041 0.007 0.064 0 0.141-0.099 0.259-0.231 0.289l-0.002 0-0.677 0.15c-0.019 0.004-0.041 0.007-0.064 0.007-0.141 0-0.259-0.098-0.289-0.23l-0-0.002-0.148-0.667c-0.030-0.134-0.148-0.232-0.289-0.232-0.023 0-0.045 0.003-0.066 0.007l0.002-0-1.833 0.406c-0.047 0.011-0.1 0.017-0.155 0.017-0.344 0-0.631-0.24-0.704-0.562l-0.001-0.005-1.65-7.459c-0.011-0.047-0.017-0.1-0.017-0.155 0-0.344 0.24-0.631 0.562-0.704l0.005-0.001 1.833-0.406c0.134-0.030 0.232-0.148 0.232-0.289 0-0.023-0.003-0.045-0.007-0.066l0 0.002-0.15-0.672c-0.004-0.019-0.007-0.040-0.007-0.063 0-0.141 0.099-0.26 0.232-0.289l0.002-0 0.677-0.15c0.019-0.004 0.041-0.007 0.064-0.007 0.141 0 0.259 0.098 0.289 0.23l0 0.002 0.148 0.668c0.031 0.133 0.148 0.231 0.289 0.231 0.023 0 0.045-0.003 0.066-0.007l-0.002 0 0.56-0.122c0.29-0.068 0.593-0.063 0.88 0.015 0.274 0.075 0.53 0.203 0.753 0.377 0.443 0.356 0.762 0.85 0.891 1.417l0.003 0.017c0.094 0.42 0.075 0.858-0.054 1.27-0.14 0.438-0.408 0.801-0.761 1.056l-0.006 0.004c0.506 0.024 0.99 0.21 1.382 0.532zM13.945 14.377l0.098 0.426c0.074 0.327 0.361 0.567 0.705 0.567 0.055 0 0.108-0.006 0.16-0.018l-0.005 0.001 1.307-0.29c0.227-0.050 0.419-0.178 0.548-0.354l0.002-0.003c0.141-0.188 0.177-0.44 0.107-0.757-0.065-0.292-0.192-0.5-0.38-0.624-0.121-0.084-0.272-0.135-0.434-0.135-0.063 0-0.124 0.008-0.183 0.022l0.005-0.001-1.38 0.305c-0.327 0.074-0.567 0.361-0.567 0.705 0 0.055 0.006 0.109 0.018 0.161l-0.001-0.005zM17.854 18.144h0.002c0.089-0.142 0.142-0.315 0.142-0.5 0-0.087-0.012-0.171-0.034-0.252l0.002 0.007c-0.052-0.264-0.194-0.488-0.391-0.645l-0.002-0.002c-0.131-0.11-0.302-0.176-0.488-0.176-0.062 0-0.122 0.007-0.18 0.021l0.005-0.001-1.656 0.367c-0.327 0.074-0.567 0.361-0.567 0.705 0 0.055 0.006 0.108 0.018 0.16l-0.001-0.005 0.116 0.527c0.074 0.327 0.361 0.567 0.705 0.567 0.055 0 0.109-0.006 0.161-0.018l-0.005 0.001 1.569-0.347c0.255-0.049 0.469-0.199 0.602-0.405l0.002-0.004zM21.152 23.527l1.533-1.832c0.040-0.048 0.065-0.11 0.065-0.178 0-0.153-0.124-0.277-0.277-0.277-0 0-0.001 0-0.001 0h-1.032c-0 0-0.001 0-0.001 0-0.153 0-0.277-0.124-0.277-0.277 0 0 0 0 0 0v0-0.216c0-0.153 0.124-0.277 0.278-0.277h2.358c0.153 0 0.277 0.124 0.277 0.277v0 0.284c-0 0.065-0.023 0.125-0.060 0.173l0-0.001-1.467 1.842c-0.038 0.047-0.061 0.107-0.061 0.173 0 0.153 0.124 0.277 0.277 0.277 0 0 0 0 0.001 0h1.051c0.153 0 0.278 0.124 0.278 0.277v0.215c0 0 0 0 0 0 0 0.153-0.124 0.277-0.277 0.277-0 0-0.001 0-0.001 0h-2.452c-0.153 0-0.277-0.124-0.277-0.277v0-0.28c0-0 0-0 0-0.001 0-0.068 0.025-0.131 0.065-0.18l-0 0z"></path>
</svg>
