<!-- Generated by IcoMoon.io -->
<svg version="1.1" xmlns="http://www.w3.org/2000/svg" width="32" height="32" viewBox="0 0 32 32">
<title>btg</title>
<path fill="#eba809" d="M32 16c0 8.837-7.163 16-16 16s-16-7.163-16-16c0-8.837 7.163-16 16-16s16 7.163 16 16z"></path>
<path fill="#fff" d="M16 27c-6.075 0-11-4.925-11-11s4.925-11 11-11 11 4.925 11 11-4.925 11-11 11zM15.012 6.74c0.002 0.875 0.002 1.75 0.002 2.625l1.31 0.002c0.003-0.897 0.005-1.795 0-2.692-0.437 0.015-0.876 0.036-1.312 0.065zM18.164 9.407c1.152 0.155 2.39 0.331 3.307 1.108 1.401 1.257 1.22 3.896-0.495 4.807 1.027 0.24 2.044 0.923 2.297 2.002 0.33 1.414 0.068 3.11-1.069 4.106-1.126 0.925-2.65 1.047-4.043 1.18 0.006 0.818 0.004 1.636 0.002 2.456 2.93-0.715 5.46-2.895 6.535-5.715 1.020-2.602 0.78-5.663-0.662-8.060-1.273-2.16-3.437-3.75-5.867-4.358-0.006 0.825-0.006 1.65-0.004 2.474zM9.418 9.372c1.27 0.060 2.54 0.048 3.81 0.046 0-0.772 0.003-1.544-0.004-2.316-1.422 0.461-2.688 1.288-3.807 2.27h0.001zM7.936 11.362c-1.493 2.54-1.661 5.799-0.416 8.472 1.075 2.396 3.208 4.26 5.705 5.063 0.005-0.77 0.003-1.542 0.003-2.312-1.275-0.013-2.553 0.034-3.825-0.035 0.014-0.71 0.18-1.404 0.423-2.071 0.624-0.013 1.275 0.096 1.878-0.107 0.352-0.296 0.252-0.785 0.27-1.19-0.018-2.314 0.010-4.629-0.012-6.943 0.023-0.373-0.211-0.776-0.6-0.85-0.64-0.127-1.297-0.077-1.944-0.081-0.076-0.52-0.084-1.047-0.093-1.574 0.005-0.022 0.007-0.048 0.007-0.074 0-0.088-0.029-0.169-0.079-0.235l0.001 0.001c-0.366 0.694-0.948 1.243-1.318 1.935zM15.066 11.463v3.412c1.141-0.020 2.406 0.106 3.404-0.556 0.828-0.541 0.775-1.914-0.080-2.4-0.998-0.592-2.216-0.424-3.323-0.456zM15.066 16.711v3.785c1.408-0.114 2.988 0.123 4.213-0.726 0.876-0.581 0.771-2.019-0.132-2.522-1.227-0.733-2.718-0.5-4.080-0.537zM15.015 22.636c0 0.875-0.002 1.75-0.005 2.627 0.456 0.030 0.912 0.048 1.368 0.060 0.004-0.895 0.002-1.791 0.002-2.687h-1.365z"></path>
</svg>
