<!-- Generated by IcoMoon.io -->
<svg version="1.1" xmlns="http://www.w3.org/2000/svg" width="32" height="32" viewBox="0 0 32 32">
<title>btm</title>
<path fill="#504c4c" d="M32 16c0 8.837-7.163 16-16 16s-16-7.163-16-16c0-8.837 7.163-16 16-16s16 7.163 16 16z"></path>
<path fill="#fff" d="M10.827 15.376l-1.745 3.698 0.812 3.032 2.066 0.552 2.564 2.567-0.772 0.775-6.112-1.64-1.64-6.112 1.23-1.228 5.342-5.343-3.49 7.397 5.442-5.442-1.952-1.955-1.745 3.699zM13.632 17.476l5.442 5.442 3.032-0.812 0.554-2.066 2.565-2.564 0.775 0.772-1.638 6.114-6.114 1.638-6.569-6.572 1.953-1.952zM18.368 14.524l-5.442-5.442-3.034 0.812-0.552 2.063-2.565 2.567-0.775-0.772 1.64-6.114 6.112-1.638 1.228 1.23 5.34 5.34-1.952 1.954zM20.040 9.34l-2.564-2.565 0.772-0.775 6.114 1.638 1.638 6.114-6.572 6.569-1.952-1.953 5.444-5.444-0.814-3.032-2.066-0.552z"></path>
</svg>
