<!-- Generated by IcoMoon.io -->
<svg version="1.1" xmlns="http://www.w3.org/2000/svg" width="32" height="32" viewBox="0 0 32 32">
<title>bts</title>
<path fill="#35baeb" d="M32 16c0 8.837-7.163 16-16 16s-16-7.163-16-16c0-8.837 7.163-16 16-16s16 7.163 16 16z"></path>
<path fill="#fff" d="M9.030 5l6.274 5.565c0.073 0.067 0.152 0.123 0.213 0.195 0.006 0.034 0.009 0.073 0.009 0.113 0 0.006-0 0.011-0 0.017v-0.001c-0.003 2.397 0.006 4.792-0.003 7.186-0.336 0.070-0.634 0.19-0.903 0.352l0.013-0.007-5.543-5.542c-0.037-0.030-0.060-0.076-0.060-0.126 0-0.007 0-0.014 0.001-0.020l-0 0.001c0.006-2.578 0-5.154 0.006-7.73l-0.007-0.002zM16.477 13.607c1.586 0.109 3.009 0.733 4.12 1.705l-0.008-0.007c-0.327 0.35-0.68 0.68-1.018 1.023-0.714 0.712-1.423 1.43-2.14 2.135-0.272-0.18-0.592-0.315-0.935-0.385l-0.017-0.003c-0.008-1.487 0-2.977 0-4.468h-0.002zM9.033 14.275c1.628 1.613 3.246 3.237 4.871 4.853-0.19 0.295-0.326 0.62-0.402 0.963h-4.472v-5.819l0.003 0.003zM20.639 16.608c0.213-0.204 0.408-0.423 0.633-0.62 0.965 1.099 1.59 2.517 1.699 4.078l0.001 0.022c-1.467 0.006-2.937 0-4.404 0.003-0.088 0.020-0.088-0.082-0.105-0.137-0.076-0.308-0.2-0.579-0.365-0.82l0.006 0.009c0.84-0.846 1.689-1.689 2.535-2.532v-0.003zM9.030 21.042h3.821c0.219 0 0.438-0.010 0.66 0.005 0.068 0.338 0.2 0.66 0.387 0.948l-3.1 3.092c-0.023 0.018-0.061 0.073-0.088 0.030-0.954-1.094-1.572-2.503-1.679-4.053l-0.001-0.022zM18.492 21.047c0.63-0.014 1.254 0 1.884-0.005h2.596c-0.105 1.559-0.715 2.958-1.664 4.054l0.007-0.009-1.808-1.802c-0.452-0.455-0.913-0.902-1.36-1.363 0.167-0.268 0.284-0.565 0.345-0.875zM17.238 22.777c0.070-0.040 0.14-0.082 0.21-0.117l3.156 3.15c-1.105 0.973-2.534 1.601-4.106 1.706l-0.021 0.001v-4.463c0.286-0.058 0.539-0.155 0.771-0.287l-0.013 0.007 0.003 0.003zM12.647 24.571c0.642-0.636 1.277-1.28 1.925-1.91 0.29 0.186 0.613 0.32 0.95 0.393v4.463c-1.587-0.107-3.010-0.731-4.12-1.705l0.008 0.007c0.403-0.423 0.826-0.828 1.237-1.245v-0.003z"></path>
</svg>
