<!-- Generated by IcoMoon.io -->
<svg version="1.1" xmlns="http://www.w3.org/2000/svg" width="32" height="32" viewBox="0 0 32 32">
<title>btt</title>
<path fill="#000" d="M16 32c-8.837 0-16-7.163-16-16s7.163-16 16-16 16 7.163 16 16-7.163 16-16 16zM27.743 13.539c-0.178-0.855-0.419-1.605-0.728-2.318l0.030 0.077c-0.334-0.781-0.703-1.449-1.129-2.075l0.027 0.042c-0.449-0.659-0.928-1.236-1.457-1.763l-0-0c-0.527-0.529-1.104-1.008-1.723-1.431l-0.041-0.026c-0.583-0.396-1.25-0.764-1.951-1.071l-0.081-0.031c-1.369-0.596-2.965-0.944-4.641-0.944s-3.272 0.347-4.718 0.973l0.077-0.030c-1.476 0.632-2.736 1.496-3.796 2.56l-0 0c-0.529 0.527-1.008 1.103-1.431 1.721l-0.026 0.041c-0.396 0.583-0.764 1.251-1.071 1.952l-0.031 0.081c-0.596 1.369-0.944 2.965-0.944 4.641s0.347 3.272 0.973 4.718l-0.030-0.077c0.294 0.71 0.674 1.383 1.102 2.032 0.449 0.66 0.928 1.236 1.457 1.764l0 0c0.527 0.529 1.104 1.008 1.723 1.431l0.041 0.026c0.636 0.428 1.322 0.796 2.032 1.102 1.369 0.596 2.965 0.944 4.641 0.944s3.272-0.347 4.718-0.973l-0.077 0.030c0.71-0.294 1.383-0.674 2.032-1.102 0.66-0.449 1.237-0.928 1.764-1.457l0-0c0.529-0.527 1.008-1.104 1.431-1.723l0.026-0.041c0.428-0.636 0.796-1.322 1.102-2.032 0.596-1.369 0.943-2.964 0.943-4.64 0-0.85-0.089-1.679-0.259-2.479l0.014 0.078zM16.060 26.384c-5.767 0-10.432-4.678-10.432-10.433s4.678-10.433 10.432-10.433c5.755 0 10.433 4.678 10.433 10.433s-4.677 10.433-10.433 10.433zM16.244 25.478h0.283c0.049 0 0.097 0 0.146-0.013h0.013c0.049 0 0.085 0 0.134-0.012h0.037c0.037 0 0.074 0 0.11-0.012h0.037c0.037 0 0.074-0.012 0.123-0.012h0.024c0.049 0 0.098-0.013 0.147-0.013s0.086-0.012 0.135-0.024h0.024c0.037 0 0.074-0.012 0.11-0.012h0.025c0.049-0.013 0.086-0.013 0.135-0.025 0.097-0.012 0.195-0.037 0.281-0.061h0.025c0.036-0.012 0.085-0.012 0.122-0.025h0.012c0.098-0.024 0.184-0.049 0.282-0.073-0.103 0.003-0.225 0.006-0.347 0.006-0.845 0-1.667-0.096-2.457-0.277l0.074 0.014c-1.348-0.294-2.633-0.82-3.723-1.727-1.666-1.394-2.718-3.473-2.718-5.799 0-0.023 0-0.047 0-0.070l-0 0.004c0.009-1.741 0.642-3.333 1.686-4.565l-0.009 0.010c1.396-1.653 3.38-2.523 5.412-2.572h0.282v-1.628h-0.318c-0.658 0.012-1.29 0.092-1.899 0.232l0.062-0.012c-0.672 0.154-1.26 0.36-1.817 0.623l0.054-0.023c-0.576 0.27-1.115 0.6-1.617 0.98-0.527 0.403-0.988 0.845-1.397 1.333l-0.011 0.014c-0.375 0.44-0.712 0.934-0.994 1.461l-0.022 0.045c-0.256 0.463-0.485 1.003-0.658 1.567l-0.016 0.061c-0.153 0.492-0.269 1.071-0.327 1.667l-0.003 0.036-0.037 0.538v0.318c0.012 0.625 0.086 1.237 0.22 1.837 0.135 0.613 0.343 1.2 0.6 1.764 0.307 0.673 0.858 1.665 1.678 2.412 1.596 1.267 3.64 2.033 5.863 2.033 0.005 0 0.010 0 0.015 0h0.22zM18.914 23.91c-0.654-0.024-1.273-0.094-1.877-0.208l0.077 0.012c-2.523-0.453-4.69-1.996-5.486-4.322-0.968-2.829 0.514-5.89 3.33-6.82 0.494-0.171 1.063-0.27 1.655-0.27 0.003 0 0.007 0 0.010 0h-0.001c0.723 0 1.445 0.147 2.107 0.416l0.685-1.457c-0.116-0.052-0.323-0.13-0.532-0.204l-0.092-0.028c-0.646-0.21-1.389-0.331-2.16-0.331-0.003 0-0.006 0-0.008 0h0c-0.776 0.002-1.521 0.131-2.215 0.369l0.048-0.014c-0.934 0.313-1.738 0.79-2.418 1.402l0.006-0.005c-0.336 0.3-0.637 0.625-0.906 0.975l-0.012 0.017c-0.254 0.331-0.486 0.704-0.681 1.1l-0.017 0.039c-0.376 0.753-0.623 1.633-0.685 2.563l-0.001 0.021c-0.061 0.93 0.061 1.86 0.367 2.742 0.331 0.947 0.833 1.76 1.473 2.44l-0.003-0.003c0.6 0.649 1.298 1.139 2.142 1.592 0.882 0.465 1.972 0.71 3.11 0.87 0.735 0.097 1.715 0.122 2.29 0.122 0.502-0.184 0.71-0.27 0.98-0.38 0.233-0.11 0.465-0.22 0.698-0.355s0.27-0.16 0.661-0.416c0.037-0.023 0.069-0.047 0.099-0.075l-0.001 0c-1.347 0.233-1.69 0.22-2.645 0.208zM21.926 22.086c-0.38 0.024-0.919 0.060-1.531 0.060-1.090 0-2.425-0.097-3.563-0.477-1.764-0.587-3.429-2.093-3.429-3.955 0-0.001 0-0.002 0-0.003 0-1.851 1.501-3.352 3.352-3.352 0.001 0 0.002 0 0.003 0h-0c1.261 0 2.351 0.698 2.927 1.714l1.457-0.722c-0.24-0.447-0.53-0.83-0.869-1.162l-0.001-0.001c-0.899-0.9-2.142-1.458-3.514-1.458s-2.616 0.557-3.514 1.457l-0 0c-0.9 0.899-1.457 2.141-1.457 3.514 0 0 0 0 0 0v0c0.004 0.719 0.162 1.401 0.443 2.015l-0.013-0.031c0.256 0.563 0.612 1.090 1.065 1.58 0.796 0.856 1.885 1.542 3.049 1.934 1.114 0.367 2.755 0.502 4.347 0.392 0.44-0.037 0.771-0.074 1.334-0.196 0.549-0.435 1.031-0.914 1.456-1.44l0.014-0.017c-0.38 0.037-1.078 0.11-1.555 0.147z"></path>
</svg>
