<!-- Generated by IcoMoon.io -->
<svg version="1.1" xmlns="http://www.w3.org/2000/svg" width="32" height="32" viewBox="0 0 32 32">
<title>btx</title>
<path fill="#fb2ea3" d="M32 16c0 8.837-7.163 16-16 16s-16-7.163-16-16c0-8.837 7.163-16 16-16s16 7.163 16 16z"></path>
<path fill="#fff" d="M22.632 14.020c-0.227 1.535-1.078 2.278-2.207 2.538 1.55 0.807 2.34 2.046 1.588 4.192-0.933 2.666-3.149 2.89-6.096 2.333l-0.717 2.867-1.728-0.431 0.706-2.828c-0.919-0.217-1.381-0.34-1.84-0.468l0.462 0.11-0.708 2.842-1.727-0.43 0.716-2.873c-0.404-0.103-0.814-0.213-1.233-0.318l-2.249-0.56 0.858-1.98s1.274 0.34 1.256 0.314c0.49 0.121 0.707-0.198 0.793-0.41l1.13-4.532 0.183 0.045c-0.049-0.020-0.108-0.039-0.17-0.055l-0.010-0.002 0.806-3.235c0.021-0.368-0.105-0.83-0.805-1.006 0.027-0.018-1.256-0.312-1.256-0.312l0.46-1.846 2.384 0.595-0.002 0.010c0.358 0.088 0.728 0.173 1.104 0.259l0.709-2.839 1.728 0.43-0.694 2.784c0.463 0.106 0.93 0.212 1.384 0.326l0.69-2.765 1.728 0.43-0.708 2.84c2.183 0.752 3.779 1.879 3.465 3.975zM18.682 19.558c0.56-2.238-3.198-2.817-4.37-3.11l-0.949 3.805c1.172 0.291 4.786 1.452 5.32-0.695zM19.217 13.989c0.508-2.037-2.634-2.49-3.61-2.734l-0.86 3.451c0.975 0.244 3.983 1.236 4.47-0.717zM24.247 21.618c-0.026-0.004-0.055-0.006-0.085-0.006-0.148 0-0.284 0.050-0.392 0.134l0.001-0.001c-0.127 0.109-0.216 0.258-0.249 0.427l-0.001 0.005c-0.015 0.063-0.023 0.136-0.023 0.211 0 0.026 0.001 0.052 0.003 0.078l-0-0.003c0.009 0.115 0.046 0.219 0.104 0.309l-0.002-0.003c0.060 0.1 0.156 0.194 0.286 0.282 0.13 0.087 0.31 0.157 0.54 0.21 0.124 0.030 0.252 0.044 0.383 0.043 0.132 0 0.254-0.021 0.366-0.063 0.239-0.086 0.418-0.288 0.469-0.536l0.001-0.005c0.015-0.054 0.024-0.115 0.024-0.179 0-0.128-0.035-0.247-0.095-0.35l0.002 0.003c-0.092-0.154-0.243-0.272-0.454-0.354l0.154-0.666c0.38 0.153 0.646 0.372 0.8 0.655s0.186 0.621 0.096 1.011c-0.049 0.229-0.141 0.43-0.268 0.605l0.003-0.005c-0.23 0.312-0.584 0.52-0.988 0.554l-0.005 0c-0.053 0.005-0.116 0.008-0.178 0.008-0.165 0-0.324-0.020-0.477-0.058l0.014 0.003c-0.232-0.053-0.438-0.136-0.625-0.246l0.010 0.006c-0.18-0.104-0.33-0.238-0.45-0.396l-0.003-0.004c-0.114-0.154-0.197-0.337-0.237-0.536l-0.001-0.009c-0.016-0.085-0.025-0.183-0.025-0.283 0-0.141 0.018-0.279 0.053-0.409l-0.003 0.011c0.042-0.183 0.105-0.345 0.188-0.494l-0.005 0.010c0.081-0.148 0.18-0.273 0.299-0.375 0.118-0.102 0.254-0.176 0.408-0.222 0.155-0.047 0.327-0.056 0.518-0.029l-0.154 0.667zM26.939 19.505c-0.051 0.235-0.144 0.443-0.273 0.624l0.004-0.005c-0.123 0.17-0.27 0.304-0.44 0.403-0.165 0.095-0.359 0.16-0.566 0.181l-0.006 0.001c-0.059 0.006-0.128 0.010-0.198 0.010-0.166 0-0.328-0.020-0.482-0.059l0.014 0.003c-0.232-0.052-0.438-0.139-0.622-0.255l0.008 0.005c-0.174-0.108-0.318-0.247-0.431-0.409l-0.003-0.005c-0.107-0.158-0.184-0.346-0.219-0.548l-0.001-0.008c-0.013-0.079-0.021-0.17-0.021-0.263 0-0.146 0.018-0.287 0.053-0.422l-0.003 0.012c0.051-0.235 0.144-0.443 0.273-0.624l-0.004 0.005c0.124-0.17 0.27-0.305 0.441-0.403 0.165-0.095 0.359-0.16 0.566-0.181l0.006-0.001c0.21-0.023 0.43-0.008 0.66 0.045 0.235 0.052 0.442 0.139 0.628 0.255l-0.008-0.005c0.18 0.114 0.324 0.252 0.434 0.415s0.183 0.348 0.22 0.555c0.013 0.079 0.021 0.17 0.021 0.263 0 0.146-0.018 0.287-0.053 0.422l0.003-0.012zM24.315 16.707l0.145-0.625 0.584 0.135 0.003-0.012c-0.084-0.044-0.154-0.101-0.212-0.169l-0.001-0.001c-0.131-0.152-0.223-0.34-0.259-0.548l-0.001-0.007c-0.007-0.039-0.010-0.084-0.010-0.13 0-0.064 0.007-0.127 0.022-0.187l-0.001 0.006c0.021-0.095 0.047-0.178 0.080-0.257l-0.004 0.010 0.643 0.148c-0.011 0.024-0.029 0.070-0.046 0.116l-0.007 0.023c-0.014 0.037-0.029 0.084-0.040 0.133l-0.002 0.008c-0.014 0.055-0.023 0.118-0.023 0.183 0 0.173 0.058 0.332 0.156 0.458l-0.001-0.002c0.078 0.1 0.172 0.184 0.279 0.247l0.005 0.003c0.119 0.073 0.262 0.129 0.43 0.168l1.438 0.332-0.154 0.666-3.023-0.698zM26.595 14.517c0.116 0.028 0.233 0.037 0.35 0.030s0.227-0.038 0.325-0.086l-0.005 0.002c0.102-0.050 0.187-0.12 0.254-0.204l0.001-0.002c0.074-0.097 0.129-0.213 0.155-0.339l0.001-0.006c0.020-0.067 0.031-0.144 0.031-0.223 0-0.099-0.018-0.194-0.050-0.282l0.002 0.006c-0.067-0.15-0.176-0.271-0.311-0.351l-0.004-0.002 0.145-0.631c0.433 0.2 0.733 0.622 0.755 1.116l0 0.003c0.010 0.16-0.004 0.322-0.041 0.486-0.055 0.238-0.143 0.44-0.263 0.605-0.229 0.319-0.589 0.532-1 0.56l-0.004 0c-0.050 0.004-0.108 0.007-0.167 0.007-0.401 0-0.776-0.113-1.094-0.308l0.009 0.005c-0.174-0.11-0.321-0.247-0.439-0.406l-0.003-0.004c-0.112-0.153-0.196-0.334-0.239-0.53l-0.002-0.010c-0.045-0.198-0.040-0.41 0.011-0.637 0.051-0.234 0.155-0.438 0.299-0.608l-0.002 0.002c0.136-0.159 0.304-0.288 0.494-0.376l0.009-0.004c0.184-0.084 0.399-0.135 0.625-0.14l0.002-0c0.226-0.008 0.448 0.028 0.668 0.107l-0.513 2.222zM26.413 19.384c0.016-0.059 0.025-0.126 0.025-0.196 0-0.208-0.081-0.397-0.213-0.538l0 0c-0.086-0.094-0.187-0.172-0.3-0.231l-0.006-0.003c-0.212-0.114-0.464-0.181-0.731-0.181-0.015 0-0.031 0-0.046 0.001l0.002-0c-0.136 0.003-0.266 0.031-0.384 0.080l0.007-0.003c-0.248 0.098-0.432 0.311-0.486 0.572l-0.001 0.005c-0.016 0.059-0.025 0.128-0.025 0.198 0 0.206 0.080 0.394 0.21 0.534l-0-0c0.083 0.094 0.185 0.171 0.306 0.234 0.213 0.114 0.466 0.181 0.734 0.181 0.014 0 0.029-0 0.043-0.001l-0.002 0c0.137-0.003 0.266-0.031 0.385-0.080l-0.007 0.003c0.249-0.097 0.434-0.31 0.489-0.571l0.001-0.005zM26.515 12.861c-0.051-0.008-0.11-0.013-0.17-0.013-0.053 0-0.105 0.004-0.156 0.011l0.006-0.001c-0.211 0.024-0.394 0.13-0.518 0.285l-0.001 0.002c-0.101 0.135-0.161 0.305-0.161 0.489 0 0.048 0.004 0.095 0.012 0.14l-0.001-0.005c0.020 0.105 0.057 0.2 0.113 0.285 0.123 0.176 0.302 0.305 0.511 0.362l0.006 0.001 0.359-1.556z"></path>
</svg>
