<!-- Generated by IcoMoon.io -->
<svg version="1.1" xmlns="http://www.w3.org/2000/svg" width="32" height="32" viewBox="0 0 32 32">
<title>burst</title>
<path fill="#2d2d2d" d="M32 16c0 8.837-7.163 16-16 16s-16-7.163-16-16c0-8.837 7.163-16 16-16s16 7.163 16 16z"></path>
<path fill="#fff" d="M11.706 19.296l-7.706-2.526h5.155l0.51-2.443 4.578 0.003 1.142-6.33h4.606c3.118 0 4.382 1.255 3.915 3.845l-0.1 0.555c-0.273 1.509-0.962 2.512-2.146 3.091 1.173 0.6 1.567 1.735 1.272 3.37l-0.228 1.266c-0.456 2.526-2.314 3.873-5.332 3.873h-4.875l1.263-6.993h-1.53zM16.772 16.549l-0.944 5.23h1.945c1.154 0 1.795-0.512 2.013-1.72l0.245-1.353c0.278-1.543-0.256-2.157-1.769-2.157zM17.915 10.22l-0.824 4.564h1.412c1.288 0 2.041-0.55 2.272-1.83l0.157-0.866c0.225-1.247-0.241-1.868-1.422-1.868h-1.41z"></path>
</svg>
