<!-- Generated by IcoMoon.io -->
<svg version="1.1" xmlns="http://www.w3.org/2000/svg" width="32" height="32" viewBox="0 0 32 32">
<title>call</title>
<path fill="#fbb413" d="M32 16c0 8.837-7.163 16-16 16s-16-7.163-16-16c0-8.837 7.163-16 16-16s16 7.163 16 16z"></path>
<path fill="#fff" d="M16.017 21.804c0.062 0.003 0.135 0.005 0.209 0.005 0.625 0 1.22-0.125 1.762-0.352l-0.030 0.011c0.244-0.087 0.477-0.202 0.695-0.342 0.032-0.028 0.074-0.046 0.12-0.046 0.062 0 0.117 0.031 0.149 0.079l0 0.001 1.579 1.625c0.113 0.118 0.109 0.156-0.026 0.249-0.51 0.354-1.096 0.657-1.719 0.881l-0.053 0.016c-0.713 0.252-1.537 0.413-2.394 0.446l-0.015 0c-0.128 0.007-0.279 0.011-0.43 0.011-0.949 0-1.861-0.158-2.711-0.45l0.059 0.018c-0.901-0.317-1.679-0.765-2.357-1.328l0.012 0.010c-0.627-0.521-1.169-1.114-1.623-1.773l-0.019-0.029c-0.241-0.337-0.465-0.721-0.652-1.126l-0.018-0.044c-0.11-0.241-0.239-0.569-0.353-0.903l-0.026-0.087c-0.174-0.552-0.299-1.196-0.351-1.86l-0.002-0.030c-0.022-0.188-0.035-0.406-0.035-0.628 0-0.278 0.020-0.551 0.058-0.818l-0.004 0.031c0.050-0.464 0.132-0.924 0.245-1.377 0.209-0.755 0.488-1.413 0.839-2.025l-0.022 0.042c0.771-1.319 1.864-2.374 3.174-3.079l0.043-0.021c0.458-0.254 0.99-0.477 1.547-0.642l0.057-0.014c0.401-0.125 0.871-0.22 1.356-0.268l0.029-0.002c0.2-0.027 0.432-0.042 0.667-0.042 0.149 0 0.296 0.006 0.442 0.018l-0.019-0.001c0.065 0.004 0.13 0.004 0.194 0 0.632 0.017 1.234 0.117 1.804 0.291l-0.048-0.013c0.487 0.13 0.958 0.314 1.402 0.552 0.469 0.232 0.91 0.514 1.318 0.842 0.080 0.071 0.143 0.038 0.206-0.030l0.973-1.027 1.402-1.49c0.164-0.177 0.206-0.182 0.383-0.022 0.54 0.487 1.040 1.018 1.49 1.588 0.544 0.67 1.028 1.428 1.422 2.237l0.031 0.070c0.315 0.68 0.574 1.384 0.775 2.105 0.169 0.594 0.223 1.2 0.354 1.794 0.001 0.005 0.001 0.011 0.001 0.017s-0 0.012-0.001 0.018l0-0.001c0 0.551 0.122 1.103 0.063 1.654-0.067 0.628-0.101 1.264-0.232 1.883-0.111 0.52-0.252 1.032-0.42 1.536-0.446 1.327-1.068 2.478-1.853 3.498l0.021-0.028c-0.122 0.16-0.16 0.164-0.3 0-0.462-0.468-0.925-0.943-1.393-1.406-0.097-0.097-0.084-0.173 0-0.278 0.466-0.646 0.866-1.385 1.166-2.174l0.022-0.066c0.265-0.747 0.447-1.521 0.543-2.308 0.058-0.603 0.070-1.21 0.038-1.814-0.016-0.373-0.060-0.725-0.13-1.067l0.007 0.043c-0.275-1.462-0.85-2.756-1.661-3.867l0.019 0.027c-0.088-0.126-0.198-0.24-0.278-0.374s-0.088-0.097-0.164-0.021c-0.446 0.45-0.905 0.888-1.339 1.347-0.151 0.16-0.324 0.286-0.467 0.45s-0.316 0.32-0.476 0.48l-0.488 0.489c-0.076 0.076-0.135 0.046-0.186-0.025-0.419-0.608-0.939-1.113-1.541-1.503l-0.021-0.013c-0.562-0.367-1.224-0.633-1.935-0.754l-0.031-0.004c-0.27-0.044-0.582-0.069-0.9-0.069-0.265 0-0.525 0.017-0.78 0.051l0.030-0.003c-0.715 0.078-1.365 0.294-1.946 0.619l0.026-0.013c-0.65 0.361-1.196 0.829-1.634 1.386l-0.009 0.011c-0.373 0.469-0.675 1.015-0.877 1.608l-0.011 0.038c-0.192 0.587-0.303 1.262-0.303 1.963 0 0.078 0.001 0.157 0.004 0.234l-0-0.011c-0 0.011-0 0.023-0 0.036 0 1.372 0.525 2.622 1.385 3.559l-0.004-0.004c0.53 0.584 1.175 1.053 1.901 1.372l0.036 0.014c0.7 0.308 1.463 0.451 2.227 0.416z"></path>
<path fill="#fff" d="M25.037 23.711l-4.26-4.337c-0.093-0.097-0.17-0.1-0.245 0-0.308 0.446-0.666 0.829-1.071 1.154l-0.011 0.008c-0.101 0.080-0.101 0.143 0 0.236 0.383 0.383 0.762 0.775 1.141 1.158 0.493 0.501 0.985 1.002 1.482 1.503 0.088 0.088 0.084 0.13 0 0.206-0.198 0.148-0.392 0.3-0.598 0.421-1.021 0.713-2.231 1.234-3.538 1.482l-0.058 0.009c-0.458 0.108-0.984 0.173-1.525 0.177l-0.003 0h-0.206c-0.364 0.025-0.73 0.014-1.090-0.034-0.422-0.063-0.818-0.114-1.218-0.202-0.572-0.132-1.067-0.295-1.54-0.498l0.058 0.022c-0.867-0.366-1.615-0.814-2.29-1.35l0.020 0.015c-0.687-0.544-1.284-1.155-1.796-1.835l-0.018-0.025c-0.523-0.688-0.961-1.481-1.276-2.332l-0.021-0.064c-0.324-0.778-0.531-1.679-0.572-2.623l-0.001-0.017c-0.003-0.043-0.005-0.093-0.005-0.143s0.002-0.101 0.006-0.15l-0 0.007v-0.993c-0.011-0.049-0.017-0.105-0.017-0.162s0.006-0.114 0.018-0.168l-0.001 0.005c0-0.080 0.034-0.155 0.047-0.235 0.042-0.373 0.108-0.743 0.198-1.108 0.115-0.49 0.268-0.97 0.459-1.436 0.872-2.098 2.394-3.781 4.312-4.834l0.050-0.025c1.094-0.619 2.383-1.028 3.757-1.138l0.033-0.002h0.243c0.179-0.012 0.388-0.019 0.598-0.019 1.248 0 2.439 0.242 3.529 0.682l-0.063-0.023 0.362 0.151c0.607 0.272 1.125 0.565 1.612 0.902l-0.033-0.022c0.031 0.028 0.072 0.045 0.117 0.045 0.057 0 0.107-0.027 0.139-0.070l0-0c0.447-0.51 0.918-0.994 1.386-1.482 0.088-0.093 0.092-0.177 0-0.253-1.467-1.077-3.232-1.838-5.148-2.147l-0.069-0.009c-0.476-0.080-1.039-0.136-1.612-0.155l-0.022-0.001c-0.055-0.001-0.12-0.001-0.184-0.001-0.829 0-1.638 0.086-2.418 0.251l0.076-0.013c-0.617 0.123-1.142 0.269-1.652 0.447l0.086-0.026c-0.912 0.305-1.782 0.723-2.59 1.242-0.97 0.62-1.847 1.372-2.606 2.236-0.979 1.107-1.762 2.415-2.277 3.85l-0.026 0.083c-0.212 0.612-0.38 1.238-0.501 1.874-0.093 0.557-0.156 1.12-0.19 1.684-0.009 0.149-0.014 0.324-0.014 0.5 0 0.464 0.036 0.919 0.104 1.363l-0.006-0.050c0.066 0.597 0.18 1.187 0.341 1.765 0.114 0.391 0.228 0.783 0.375 1.162 0.294 0.76 0.663 1.49 1.103 2.177 0.571 0.874 1.205 1.633 1.918 2.31l0.006 0.005c0.473 0.436 0.98 0.833 1.516 1.188 0.718 0.491 1.49 0.9 2.3 1.217 0.806 0.32 1.647 0.548 2.504 0.682 0.643 0.096 1.292 0.152 1.942 0.168 0.42 0 0.842-0.067 1.237-0.076 0.3-0.022 0.597-0.067 0.889-0.134 0.324-0.055 0.644-0.14 0.964-0.224 1.28-0.341 2.401-0.855 3.41-1.525l-0.042 0.026c0.937-0.6 1.787-1.325 2.527-2.155 0.122-0.14 0.118-0.164-0.050-0.316z"></path>
</svg>
