<!-- Generated by IcoMoon.io -->
<svg version="1.1" xmlns="http://www.w3.org/2000/svg" width="32" height="32" viewBox="0 0 32 32">
<title>cc</title>
<path fill="#36b0f3" d="M32 16c0 8.837-7.163 16-16 16s-16-7.163-16-16c0-8.837 7.163-16 16-16s16 7.163 16 16z"></path>
<path fill="#fff" d="M14.090 4.261c0.8-0.16 1.615-0.229 2.43-0.206 0.508 0 1.016 0.046 1.517 0.137 0.975 0.134 1.915 0.444 2.832 0.792 0.667 0.298 1.366 0.578 1.908 1.084 0.151 0.11 0.070 0.33-0.064 0.417-0.31 0.199-0.683 0.256-1.037 0.334-1.596 0.274-3.22 0.397-4.788 0.822-0.703 0.158-1.379 0.416-2.048 0.683-1.243 0.556-2.386 1.373-3.213 2.465-0.12 0.171-0.271 0.401-0.416 0.635l-0.040 0.070c-0.131 0.255-0.263 0.51-0.37 0.777-0.080 0.191-0.154 0.384-0.224 0.578-0.141 0.413-0.21 0.844-0.315 1.268-0.033 0.278-0.052 0.558-0.11 0.833-0.037 0.63-0.019 1.26-0.014 1.89 0 0.21 0.057 0.416 0.060 0.627 0.003 0.194 0.030 0.387 0.082 0.574 0.1 0.525 0.222 1.057 0.445 1.548 0.289 0.697 0.739 1.35 1.379 1.765 0.531 0.394 1.188 0.562 1.832 0.662 0.86 0.112 1.733 0.010 2.58-0.144 0.443-0.080 0.883-0.18 1.32-0.297 0.277-0.078 0.562-0.13 0.836-0.223 0.094-0.017 0.204-0.028 0.316-0.030l0.002-0c-0.343 0.306-0.688 0.61-1.076 0.857-1.322 0.852-2.859 1.296-4.392 1.582-0.693 0.142-1.398 0.226-2.096 0.346-0.795 0.115-1.619 0.21-2.336 0.6-0.214 0.15-0.38 0.354-0.529 0.566-0.045 0.092-0.13 0-0.18-0.033-0.163-0.187-0.372-0.324-0.549-0.497-0.191-0.184-0.372-0.365-0.55-0.55l-0.006-0.006c-0.291-0.339-0.59-0.673-0.847-1.038-0.512-0.694-0.965-1.437-1.297-2.233l-0.058-0.026c-0.042-0.229-0.158-0.431-0.235-0.648-0.159-0.399-0.311-0.887-0.426-1.389l-0.014-0.071c-0.038-0.125-0.074-0.281-0.1-0.44l-0.003-0.022c-0.051-0.159-0.085-0.343-0.096-0.534l-0-0.006c-0.098-0.43-0.080-0.874-0.142-1.308 0-0.362-0.024-0.727 0.020-1.088 0.048-0.3 0.028-0.607 0.090-0.906 0.061-0.243 0.049-0.497 0.126-0.736 0.11-0.604 0.255-1.132 0.442-1.64l-0.022 0.068c0.072-0.188 0.137-0.378 0.204-0.567 0.040-0.087 0.073-0.176 0.1-0.267l0.053-0.063c0.072-0.208 0.155-0.386 0.255-0.554l-0.008 0.014c0.121-0.254 0.229-0.454 0.346-0.649l-0.021 0.037c0.034-0.071 0.072-0.14 0.112-0.21 0.63-0.987 1.366-1.922 2.252-2.694 1.058-0.945 2.293-1.721 3.645-2.269l0.084-0.030c0.673-0.274 1.463-0.502 2.283-0.646l0.072-0.011z"></path>
<path fill="#fff" d="M23.241 7.39c0.22-0.128 0.371-0.335 0.523-0.532 2.579 2.215 4.203 5.479 4.203 9.123 0 2.998-1.099 5.739-2.916 7.842l0.013-0.015c-1.837 2.158-4.475 3.624-7.286 4.013-1.293 0.19-2.61 0.14-3.902-0.037-0.99-0.14-1.958-0.41-2.877-0.805-0.5-0.22-0.997-0.478-1.388-0.868-0.101-0.088-0.165-0.234-0.098-0.361 0.1-0.155 0.28-0.232 0.45-0.287 0.485-0.14 0.984-0.222 1.483-0.299 0.902-0.157 1.813-0.258 2.708-0.455 1.487-0.321 2.974-0.776 4.26-1.61 0.874-0.558 1.644-1.284 2.211-2.154 0.814-1.228 1.19-2.699 1.28-4.157 0.045-1.085 0.020-2.18-0.207-3.246-0.207-0.92-0.57-1.847-1.257-2.517-0.525-0.539-1.24-0.874-1.978-1.002-1.225-0.229-2.476-0.008-3.676 0.262-0.562 0.133-1.116 0.3-1.684 0.41 0.808-0.761 1.797-1.305 2.836-1.677 0.597-0.221 1.217-0.368 1.834-0.513 1.352-0.304 2.736-0.42 4.1-0.654 0.476-0.1 0.96-0.196 1.368-0.461z"></path>
</svg>
