<!-- Generated by IcoMoon.io -->
<svg version="1.1" xmlns="http://www.w3.org/2000/svg" width="32" height="32" viewBox="0 0 32 32">
<title>cdt</title>
<path fill="#272731" d="M16 32c-8.837 0-16-7.163-16-16s7.163-16 16-16 16 7.163 16 16-7.163 16-16 16zM27 16.030c-0.025-6.059-4.872-10.973-10.88-11.030v2.802c3.944-0.002 7.316 2.863 7.984 6.782h-3.89c0.15 0.458 0.228 0.935 0.234 1.416-0.001 0.482-0.080 0.96-0.234 1.416h3.89c-0.659 3.925-4.036 6.794-7.984 6.782v2.802c2.886 0 5.653-1.155 7.694-3.212 1.969-1.989 3.186-4.726 3.186-7.748 0-0.004 0-0.008 0-0.012v0.001zM19.746 18.389c-0.773 1.215-2.113 2.010-3.639 2.010-0.864 0-1.669-0.255-2.343-0.694l0.017 0.010c-2.011-1.295-2.6-3.988-1.316-6.015 0.773-1.216 2.113-2.010 3.639-2.010 0.864 0 1.669 0.255 2.342 0.694l-0.017-0.010c0.522 0.35 0.97 0.8 1.316 1.327h3.072c-1.136-3.305-4.472-5.3-7.893-4.72s-5.925 3.567-5.925 7.064 2.505 6.484 5.925 7.064c3.421 0.58 6.757-1.414 7.893-4.72z"></path>
</svg>
