<!-- Generated by IcoMoon.io -->
<svg version="1.1" xmlns="http://www.w3.org/2000/svg" width="32" height="32" viewBox="0 0 32 32">
<title>cdt</title>
<path fill="#272731" d="M32 16c0 8.837-7.163 16-16 16s-16-7.163-16-16c0-8.837 7.163-16 16-16s16 7.163 16 16z"></path>
<path fill="#fff" d="M27 16.030c0 2.91-1.145 5.7-3.186 7.758-1.963 1.983-4.685 3.211-7.694 3.212h-0v-2.802c3.948 0.012 7.325-2.857 7.984-6.782h-3.89c0.154-0.456 0.233-0.934 0.234-1.416-0.007-0.508-0.092-0.994-0.244-1.45l0.010 0.034h3.89c-0.668-3.92-4.040-6.784-7.984-6.782v-2.802c6.008 0.058 10.855 4.972 10.88 11.030zM19.746 18.389h3.072c-1.136 3.305-4.472 5.3-7.893 4.72-3.42-0.582-5.925-3.568-5.925-7.066s2.505-6.483 5.925-7.064c3.421-0.58 6.757 1.415 7.893 4.72h-3.072c-0.352-0.53-0.79-0.971-1.299-1.316l-0.017-0.011c-0.657-0.429-1.462-0.683-2.326-0.683-1.526 0-2.866 0.795-3.629 1.993l-0.010 0.017c-1.284 2.027-0.695 4.72 1.316 6.015 0.657 0.429 1.462 0.684 2.326 0.684 1.525 0 2.865-0.795 3.628-1.992l0.010-0.017z"></path>
</svg>
