<!-- Generated by IcoMoon.io -->
<svg version="1.1" xmlns="http://www.w3.org/2000/svg" width="32" height="32" viewBox="0 0 32 32">
<title>cenz</title>
<path fill="#3089f2" d="M32 16c0 8.837-7.163 16-16 16s-16-7.163-16-16c0-8.837 7.163-16 16-16s16 7.163 16 16z"></path>
<path fill="#fff" d="M21.627 17.878c-0.422 0.363-0.8 0.686-1.174 1.013-0.042 0.037-0.084 0.103-0.084 0.156-0.006 0.638-0.004 1.275-0.004 1.935 0.961-0.406 1.463-1.64 1.262-3.104zM20.469 13.981c1.071-0.638 1.198-0.859 1.202-2.125 0-0.1 0.003-0.199-0.001-0.298-0.046-1.163-0.842-2.19-1.944-2.436-0.99-0.22-1.988-0.403-2.988-0.572-0.509-0.087-1.030-0.161-1.543-0.144-0.621 0.020-1.128 0.346-1.595 0.878 1.132 0.211 2.183 0.428 3.241 0.6 1.453 0.236 2.562 0.965 3.168 2.354 0.235 0.539 0.31 1.15 0.46 1.743zM11.646 10.973c-0.86 0.534-1.284 1.258-1.297 2.158-0.015 1.177-0.024 2.568-0.024 3.96 0 1.171 0.006 2.34 0.018 3.508l-0.001-0.178c0.010 1.177 0.787 2.186 1.909 2.46 0.96 0.234 1.942 0.378 2.914 0.566 0.616 0.12 1.226 0.302 1.862 0.144 0.52-0.13 0.984-0.349 1.35-0.863-1.166-0.219-2.261-0.46-3.367-0.624-1.893-0.281-3.361-1.958-3.363-3.91-0.003-2.232-0.001-4.463-0.001-6.695v-0.526zM12.984 10.622c-0.012 0.247-0.030 0.431-0.030 0.615-0.001 1.001-0.002 2.185-0.002 3.369 0 1.186 0.001 2.371 0.002 3.556l-0-0.187c0.003 1.476 0.895 2.536 2.312 2.784 1.024 0.18 2.044 0.38 3.066 0.57 0.071 0.013 0.143 0.020 0.215 0.028 0.485 0.054 0.502 0.045 0.505-0.441 0.005-0.745-0.020-1.49 0.015-2.233 0.010-0.22 0.121-0.497 0.28-0.638 0.811-0.723 1.653-1.41 2.484-2.11 0.226-0.19 0.458-0.32 0.762-0.173 0.321 0.155 0.405 0.423 0.4 0.76-0.012 0.844 0.006 1.689-0.020 2.531-0.049 1.522-1.153 3.020-2.57 3.5-0.246 0.077-0.444 0.246-0.558 0.465l-0.002 0.005c-0.873 1.55-2.369 2.148-3.972 1.936-1.314-0.175-2.618-0.452-3.916-0.73-1.672-0.358-2.907-1.914-2.934-3.776-0.036-2.506-0.024-5.013 0.019-7.518 0.026-1.566 1.19-3.020 2.666-3.5 0.167-0.063 0.303-0.176 0.392-0.322l0.002-0.003c0.99-1.718 2.598-2.415 4.509-1.987 1.060 0.237 2.139 0.393 3.205 0.61 1.892 0.386 3.156 1.948 3.181 3.914 0.007 0.559 0.011 1.118-0.020 1.675-0.009 0.177-0.087 0.403-0.213 0.514-0.907 0.8-1.825 1.588-2.766 2.346-0.145 0.117-0.47 0.144-0.632 0.057-0.159-0.086-0.293-0.365-0.304-0.567-0.039-0.667 0.035-1.344-0.030-2.007-0.13-1.329-1.035-2.207-2.399-2.434-1.084-0.18-2.166-0.375-3.249-0.561-0.116-0.020-0.234-0.029-0.398-0.048z"></path>
</svg>
