<!-- Generated by IcoMoon.io -->
<svg version="1.1" xmlns="http://www.w3.org/2000/svg" width="32" height="32" viewBox="0 0 32 32">
<title>chat</title>
<path fill="#1c98f7" d="M32 16c0 8.837-7.163 16-16 16s-16-7.163-16-16c0-8.837 7.163-16 16-16s16 7.163 16 16z"></path>
<path fill="#fff" d="M16.28 23.325c0.767-0.054 1.478-0.175 2.164-0.358l-0.080 0.018c0.497 0.157 1.069 0.248 1.663 0.248 0.332 0 0.657-0.028 0.973-0.083l-0.034 0.005c0.030-0.005 0.065-0.008 0.1-0.008 0.001 0 0.003 0 0.004 0h-0c0.31 0 0.717 0.18 1.31 0.56v-0.625c0-0.227 0.124-0.424 0.308-0.529l0.003-0.002c0.258-0.146 0.498-0.314 0.717-0.499 0.864-0.732 1.352-1.708 1.352-2.742 0-0.347-0.055-0.684-0.159-1.006 0.261-0.487 0.472-0.999 0.627-1.53 0.481 0.713 0.77 1.59 0.772 2.535v0.001c0 1.405-0.654 2.715-1.785 3.673-0.176 0.15-0.37 0.295-0.573 0.428l-0.022 0.014v1.461c0 0.503-0.58 0.792-0.989 0.493-0.339-0.257-0.731-0.524-1.135-0.773l-0.065-0.037c-0.102-0.063-0.223-0.125-0.349-0.18l-0.019-0.007c-0.34 0.051-0.688 0.077-1.039 0.077-1.412 0-2.716-0.423-3.743-1.134zM8.814 20.403c-1.784-1.513-2.814-3.574-2.814-5.783 0-4.513 4.258-8.12 9.457-8.12s9.458 3.607 9.458 8.12c0 4.514-4.259 8.121-9.458 8.121-0.584 0-1.162-0.045-1.728-0.135-0.245 0.058-1.224 0.64-2.635 1.67-0.511 0.374-1.236 0.013-1.236-0.616v-2.492c-0.395-0.25-0.735-0.502-1.057-0.776l0.013 0.011zM13.763 21.069c0.043 0 0.087 0.003 0.13 0.010 0.51 0.086 1.034 0.13 1.564 0.13 4.392 0 7.907-2.978 7.907-6.589s-3.515-6.588-7.907-6.588c-4.39 0-7.907 2.978-7.907 6.588 0 1.746 0.821 3.39 2.273 4.62 0.365 0.308 0.766 0.588 1.196 0.832 0.241 0.136 0.39 0.39 0.39 0.664v1.437c1.116-0.749 1.85-1.104 2.354-1.104zM11.426 16.153c-0.685 0-1.24-0.55-1.24-1.226 0-0.677 0.555-1.226 1.24-1.226s1.24 0.549 1.24 1.226c0 0.677-0.555 1.226-1.24 1.226zM15.457 16.153c-0.685 0-1.24-0.55-1.24-1.226 0-0.677 0.555-1.226 1.24-1.226s1.24 0.549 1.24 1.226c0 0.677-0.555 1.226-1.24 1.226zM19.488 16.153c-0.685 0-1.24-0.55-1.24-1.226 0-0.677 0.555-1.226 1.24-1.226s1.24 0.549 1.24 1.226c0 0.677-0.555 1.226-1.24 1.226z"></path>
</svg>
