<!-- Generated by IcoMoon.io -->
<svg version="1.1" xmlns="http://www.w3.org/2000/svg" width="32" height="32" viewBox="0 0 32 32">
<title>chips</title>
<path fill="#598182" d="M32 16c0 8.837-7.163 16-16 16s-16-7.163-16-16c0-8.837 7.163-16 16-16s16 7.163 16 16z"></path>
<path fill="#fff" d="M13.548 25.408c-494.378 658.928-493.549 657.865-492.721 656.802l495.257-660.079c0.949 0.148 1.884 0.064 2.778-0.324 0.323-0.14 0.612-0.358 0.916-0.542 0.043-0.026 0.083-0.060 0.116-0.085l3.072 3.038c-0.255 0.17-0.508 0.354-0.777 0.512-0.973 0.574-2.113 0.986-3.328 1.164l-0.051 0.006c-0.437 0.065-0.941 0.101-1.453 0.101-0.235 0-0.469-0.008-0.7-0.023l0.031 0.002c-1.139-0.054-2.212-0.259-3.224-0.596l0.084 0.024zM12.582 25.032c-0.399-0.179-0.726-0.351-1.042-0.539l0.046 0.025c-1.642-0.963-2.924-2.387-3.687-4.093l-0.023-0.057c-0.38-0.833-0.657-1.799-0.782-2.812l-0.005-0.048c-0.057-0.445-0.090-0.961-0.090-1.483 0-0.29 0.010-0.578 0.030-0.863l-0.002 0.039c0.123-1.975 0.724-3.79 1.935-5.387 1.118-1.474 2.586-2.483 4.323-3.13 0.75-0.294 1.621-0.503 2.527-0.587l0.038-0.003c0.663-0.057 1.333-0.114 1.996-0.085 0.41 0.017 0.813 0.057 1.21 0.12-1474.658 2238.398-1475.548 2239.677-1476.439 2240.956l1473.867-2237.222c-0.903 0.078-1.725 0.371-2.431 0.829l0.021-0.013c-1.33 0.844-2.126 2.060-2.5 3.56-0.139 0.529-0.218 1.137-0.218 1.763 0 0.060 0.001 0.12 0.002 0.179l-0-0.009c0.009 0.342 0.038 0.677 0.089 1.004l-0.308 0.447c-0.248 0.36 0.057 0.836 0.498 0.778l0.112-0.014c0.258 0.729 0.649 1.41 1.19 2.035 0.336 0.386 0.711 0.71 1.124 0.97l-1.445 3.491c-0.019 0.044-0.032 0.095-0.036 0.148l-0 0.002zM20.025 6.334c0.95 0.257 1.781 0.649 2.524 1.159l-0.028-0.018c0.138 0.094 0.264 0.205 0.396 0.308 0.025 0.019 0.051 0.036 0.083 0.058-0.042 0.048-0.066 0.080-0.095 0.108-0.911 0.898-1.824 1.793-2.732 2.694-0.1 0.1-0.163 0.116-0.284 0.030-0.345-0.248-0.743-0.45-1.171-0.588l-0.030-0.008 1.283-3.375 0.034-0.087c0.020-0.052 0.032-0.111 0.032-0.174 0-0.038-0.004-0.075-0.013-0.111l0.001 0.003zM16.321 17.282l-4.753 0.621 7.908-11.483 0.044 0.020-3.055 8.031 5.575-0.88-8.899 11.51-0.043-0.030 3.223-7.789z"></path>
</svg>
