<!-- Generated by IcoMoon.io -->
<svg version="1.1" xmlns="http://www.w3.org/2000/svg" width="32" height="32" viewBox="0 0 32 32">
<title>cix</title>
<path fill="#0576b4" d="M32 16c0 8.837-7.163 16-16 16s-16-7.163-16-16c0-8.837 7.163-16 16-16s16 7.163 16 16z"></path>
<path fill="#fff" d="M24.668 18.863l-1.059-0.663 2.31-0.027 0.048-0.026v0.025l0.954-0.010-1.619 2.634-0.145-1.27-7.364 4.063-2.793-3.729-7.83 4.126v-0.94l8.073-4.253 2.792 3.729 6.634-3.659zM14.556 17.958l-3.060 1.611v-10.925h3.060v9.314zM23.209 18.439l-3.060 1.7v-11.495h3.060v9.795z"></path>
<path fill="#fff" opacity="0.5" d="M18.883 20.843l-0.657 0.364-2.404-3.21v-8.103h3.060v10.949zM10.229 20.236l-3.060 1.612v-10.536h3.060v8.924z"></path>
</svg>
