<!-- Generated by IcoMoon.io -->
<svg version="1.1" xmlns="http://www.w3.org/2000/svg" width="32" height="32" viewBox="0 0 32 32">
<title>clam</title>
<path fill="#20c5d3" d="M32 16c0 8.837-7.163 16-16 16s-16-7.163-16-16c0-8.837 7.163-16 16-16s16 7.163 16 16z"></path>
<path fill="#fff" d="M17.81 7.87v-0.089c0.177-0.075 0.528-0.146 1.132 0.016 0.691 0.186 1.225 0.88 1.47 1.254l-0.002 0.24c-0.012 1.339-0.438 4.647-1.176 7.127-0.645 2.167-2.052 5.050-2.338 5.626-0.118-0.028-0.263-0.051-0.411-0.066l-0.015-0.001c0.119-0.731 0.638-3.987 0.965-6.954 0.347-3.148 0.374-6.27 0.374-7.152zM20.709 9.294v-0.011c0.26-0.006 0.836 0.041 1.493 0.464 0.636 0.409 0.964 1.187 1.1 1.605l-0.063 0.247c-0.155 0.602-1.303 3.705-2.538 6.044-1.048 1.982-2.721 4.175-3.086 4.645-0.116-0.057-0.257-0.114-0.402-0.161l-0.023-0.006c0.34-0.687 1.697-3.491 2.33-5.62 0.746-2.506 1.176-5.852 1.189-7.207zM20.966 17.778c1.176-2.227 2.364-5.352 2.56-6.097 0.259 0.094 0.815 0.343 1.177 0.837 0.31 0.422 0.411 0.993 0.444 1.352l-0.121 0.282c-0.234 0.543-1.66 3.045-3.097 4.828-1.244 1.544-3.113 3.376-3.561 3.81-0.144-0.13-0.304-0.249-0.474-0.352l-0.014-0.008c0.421-0.544 2.053-2.697 3.086-4.652zM11.005 9.526l-0.035-0.274c0.163-0.355 0.523-0.947 1.212-1.262 0.75-0.342 1.333-0.249 1.594-0.173l0.002 0.059c0.020 0.595 0.177 3.524 0.56 6.981 0.352 3.163 0.919 6.527 1.028 7.166-0.15 0.027-0.297 0.064-0.441 0.11-0.278-0.59-1.516-3.27-2.348-5.955-0.928-2.995-1.46-5.775-1.572-6.652zM14.076 7.866l-0.004-0.137c0.274-0.246 0.912-0.729 1.71-0.729 0.796 0 1.448 0.483 1.729 0.73v0.14c0 0.879-0.027 3.988-0.373 7.12-0.331 3.004-0.86 6.307-0.968 6.971l-0.078-0.002c-0.144 0-0.287 0.008-0.43 0.022-0.106-0.615-0.675-3.987-1.027-7.156-0.382-3.448-0.538-6.367-0.559-6.96zM16.092 22.253c1.617 0 2.362 0.981 2.587 1.355-1.225 0.86-2.222 1.392-2.574 1.392s-1.227-0.44-2.603-1.435c0.22-0.355 0.962-1.312 2.59-1.312zM25.293 14.285c0.246 0.16 0.751 0.591 0.704 1.42-0.062 1.092-1.935 3.256-4.287 5.445-0.843 0.785-1.753 1.535-2.706 2.229l-0.084 0.058c-0.106-0.165-0.219-0.308-0.343-0.441l0.002 0.002c0.456-0.441 2.332-2.28 3.584-3.835 1.44-1.786 2.873-4.295 3.13-4.878zM6.82 14.073c-0.040-0.087-0.11-0.268-0.176-0.45l-0.031-0.097c0-0.002 0-0.005 0-0.008 0-0.337 0.085-0.655 0.235-0.932l-0.005 0.010c0.342-0.62 1.21-0.904 1.554-0.995l0.002 0.006 0.037 0.13c0.25 0.871 0.834 2.912 2.372 5.862 1.373 2.633 2.865 4.453 3.283 4.94-0.12 0.082-0.224 0.165-0.323 0.254l0.003-0.003c-1.418-1.232-2.697-2.539-3.865-3.941l-0.044-0.055c-1.482-1.792-2.505-3.38-3.042-4.722zM13.56 23.001c-0.11 0.12-0.21 0.25-0.3 0.388-0.964-0.721-1.788-1.386-2.588-2.079l0.058 0.049c-3.012-2.575-4.66-4.366-4.726-5.497-0.050-0.863 0.388-1.35 0.6-1.533 0.562 1.337 1.578 2.9 3.026 4.652 1.219 1.465 2.505 2.779 3.889 3.984l0.041 0.035zM8.687 11.527c-0.015-0.038-0.046-0.15-0.076-0.263l-0.016-0.072c0.077-0.366 0.267-0.914 0.732-1.252 0.353-0.258 0.795-0.414 1.274-0.414 0.037 0 0.073 0.001 0.109 0.003l-0.005-0 0.005 0.034c0.113 0.885 0.648 3.688 1.582 6.7 0.828 2.671 2.053 5.337 2.353 5.975-0.121 0.051-0.219 0.099-0.314 0.152l0.016-0.008c-0.365-0.422-1.879-2.243-3.272-4.916-1.525-2.924-2.103-4.945-2.35-5.808z"></path>
</svg>
