<!-- Generated by IcoMoon.io -->
<svg version="1.1" xmlns="http://www.w3.org/2000/svg" width="32" height="32" viewBox="0 0 32 32">
<title>cloak</title>
<path fill="#ff3a00" d="M32 16c0 8.837-7.163 16-16 16s-16-7.163-16-16c0-8.837 7.163-16 16-16s16 7.163 16 16z"></path>
<path fill="#fff" d="M16.003 5c6.067 0.010 10.999 4.946 10.997 11.003-0.002 6.064-4.938 10.997-11.004 10.997h-0.010c-6.060-0.006-10.989-4.947-10.986-11.014 0.003-6.056 4.94-10.986 11.003-10.986zM16 6.418c-5.277 0-9.572 4.298-9.574 9.58-0.001 5.276 4.288 9.572 9.562 9.576 5.283 0 9.585-4.296 9.589-9.576 0-0.008 0-0.018 0-0.028 0-2.635-1.072-5.020-2.805-6.741l-0-0c-1.724-1.736-4.111-2.81-6.75-2.81-0.007 0-0.014 0-0.021 0h0.001zM20.728 15.017c0.339 1.719-0.097 3.163-1.332 4.417l-0.17 0.171-0.216-0.106c-0.081-0.042-0.201-0.097-0.322-0.148l-0.042-0.016-0.489-0.204 0.394-0.354c0.769-0.69 1.178-1.591 1.217-2.677 0.040-1.086-0.345-2.033-1.143-2.814-0.671-0.659-1.593-1.066-2.609-1.066-0.004 0-0.009 0-0.013 0h0.001c-0.001 0-0.002 0-0.003 0-1.124 0-2.134 0.493-2.824 1.275l-0.004 0.004c-0.798 0.91-1.103 2.018-0.88 3.203 0.146 0.813 0.546 1.515 1.112 2.039l0.002 0.002 0.387 0.359-0.489 0.197c-0.122 0.049-0.25 0.102-0.387 0.16l-0.21 0.088-0.16-0.163c-0.823-0.848-1.269-1.824-1.362-2.984-0.197-2.445 1.388-4.599 3.77-5.121 0.321-0.074 0.69-0.117 1.069-0.118h0c2.315 0.002 4.245 1.643 4.695 3.825l0.005 0.031zM9.973 21.307c-1.476-1.646-2.673-4.566-1.603-7.824 1.088-3.231 4.089-5.517 7.625-5.519h0c0.003 0 0.006 0 0.009 0 3.503 0 6.482 2.244 7.578 5.373l0.017 0.056c0.946 2.772 0.288 5.924-1.675 8.030l-0.25 0.267-0.897-1.002 0.198-0.223c1.228-1.383 1.798-3.023 1.695-4.873-0.096-1.69-0.768-3.162-1.998-4.374-1.193-1.18-2.834-1.909-4.645-1.909-0.008 0-0.016 0-0.023 0h0.001c-1.675 0.001-3.205 0.616-4.379 1.632l0.008-0.007c-0.922 0.79-1.619 1.819-1.996 2.99l-0.013 0.047c-0.201 0.605-0.317 1.3-0.317 2.024 0 0.569 0.072 1.121 0.207 1.648l-0.010-0.046c0.265 1.073 0.762 2.005 1.437 2.778l-0.007-0.008 0.196 0.227-0.916 0.986z"></path>
</svg>
