<!-- Generated by IcoMoon.io -->
<svg version="1.1" xmlns="http://www.w3.org/2000/svg" width="32" height="32" viewBox="0 0 32 32">
<title>cmt</title>
<path fill="#c1a05c" d="M32 16c0 8.837-7.163 16-16 16s-16-7.163-16-16c0-8.837 7.163-16 16-16s16 7.163 16 16z"></path>
<path fill="#fff" d="M16.276 26c-2.319-0.006-4.395-0.718-6.249-2.080-0.493-0.362-0.508-0.57-0.088-1.021l0.038-0.040c0.513-0.556 0.51-0.553 1.119-0.115 1.337 0.986 3.004 1.596 4.811 1.646l0.012 0c1.846 0.064 3.542-0.377 5.075-1.366 1.839-1.186 3.093-2.838 3.618-4.947 0.659-2.648 0.169-5.1-1.567-7.255-1.216-1.51-2.796-2.483-4.705-2.944-1.704-0.412-3.378-0.311-5.023 0.255-0.871 0.3-1.676 0.742-2.403 1.31-0.359 0.28-0.495 0.274-0.8-0.068-0.14-0.152-0.275-0.315-0.401-0.486l-0.011-0.016c-0.188-0.266-0.162-0.424 0.092-0.626 1.153-0.921 2.535-1.607 4.045-1.96l0.070-0.014c0.701-0.173 1.507-0.273 2.335-0.273 0.64 0 1.265 0.059 1.872 0.173l-0.063-0.010c1.868 0.338 3.53 1.106 4.957 2.35 1.056 0.922 1.91 2 2.504 3.26 0.818 1.736 1.151 3.554 0.906 5.472-0.235 1.835-0.947 3.471-2.006 4.821l0.016-0.021c-1.107 1.442-2.524 2.494-4.218 3.185-1.146 0.487-2.479 0.77-3.878 0.77-0.021 0-0.041-0-0.062-0h0.003zM15.64 19.617c-0.067 0.102-0.102 0.178-0.158 0.236-0.338 0.355-0.751 0.568-1.249 0.584-0.345 0.010-0.691-0.019-1.036-0.011-0.002-0-0.005-0-0.007-0-0.138 0-0.267 0.036-0.379 0.098l0.004-0.002c-1.594 1-3.31 1.146-5.118 0.762-0.595-0.126-1.128-0.355-1.582-0.745-0.342-0.293-0.583-0.639-0.612-1.125-0.050-0.847 0.577-1.425 1.223-1.614 1.193-0.35 2.328-0.137 3.414 0.39 0.496 0.24 0.96 0.546 1.434 0.83 0.272 0.161 0.353 0.155 0.489-0.123 0.615-1.256 0.218-2.641-1.284-3.153-1.318-0.45-2.607-0.405-3.876 0.18-0.186 0.086-0.39 0.25-0.609 0.074-0.227-0.184-0.075-0.403-0.017-0.597 0.417-1.404 0.84-2.805 1.269-4.205 0.094-0.307 0.339-0.465 0.697-0.446 0.527 0.029 1.051 0.108 1.578 0.12 0.79 0.020 1.583 0.027 2.372-0.012 0.587-0.030 1.102-0.288 1.555-0.662 0.055-0.045 0.166-0.097 0.202-0.073 0.053 0.035 0.085 0.133 0.090 0.207 0.037 0.606-0.223 1.073-0.705 1.436-0.57 0.43-1.221 0.63-1.932 0.647-0.737 0.017-1.474 0.027-2.21 0.030-0.166 0.002-0.254 0.062-0.293 0.218-0.066 0.26-0.136 0.521-0.211 0.78-0.057 0.193 0.016 0.27 0.211 0.262 0.464-0.017 0.928-0.048 1.391-0.045 0.007-0 0.016-0 0.025-0 1.102 0 2.107 0.42 2.862 1.109l-0.003-0.003c0.773 0.688 1.086 1.576 1.133 2.568 0.037 0.795-0.115 1.556-0.552 2.241-0.119 0.187-0.065 0.268 0.136 0.321 0.534 0.141 1.027 0.045 1.498-0.218 0.040-0.022 0.077-0.047 0.118-0.066 0.014-0.006 0.035 0.001 0.133 0.007zM11.072 19.843l-0.016-0.097c-0.067-0.041-0.13-0.092-0.203-0.124-0.53-0.235-1.053-0.495-1.597-0.693-0.555-0.203-1.132-0.348-1.736-0.207-0.272 0.063-0.544 0.132-0.623 0.445-0.088 0.345 0.123 0.56 0.369 0.748 0.077 0.059 0.172 0.101 0.264 0.137 0.934 0.36 1.882 0.37 2.834 0.088 0.244-0.072 0.473-0.197 0.708-0.297z"></path>
</svg>
