<!-- Generated by IcoMoon.io -->
<svg version="1.1" xmlns="http://www.w3.org/2000/svg" width="32" height="32" viewBox="0 0 32 32">
<title>cnx</title>
<path fill="#4c6bae" d="M32 16c0 8.837-7.163 16-16 16s-16-7.163-16-16c0-8.837 7.163-16 16-16s16 7.163 16 16z"></path>
<path fill="#fff" opacity="0.5" d="M6.383 17.010l-1.383 0.143c0.74-2.070 2.203-3.726 4.391-4.968 0.207 1.716 1.020 3.135 2.44 4.259l-1.3 0.135c0.269 2.463 2.13 4.423 4.52 4.84l0.033 0.005c-0.831 0.63-1.85 1.056-2.959 1.182l-0.028 0.003c0.681 1.2 1.487 2.183 2.417 2.947-4.322-0.692-7.657-4.168-8.127-8.503l-0.004-0.043zM25.617 14.99l1.383-0.143c-0.74 2.070-2.203 3.726-4.391 4.968-0.207-1.716-1.020-3.135-2.44-4.259l1.3-0.135c-0.272-2.489-2.168-4.464-4.595-4.853l-0.031-0.004c0.828-0.624 1.841-1.044 2.944-1.17l0.028-0.003c-0.687-1.209-1.499-2.196-2.438-2.963 4.373 0.648 7.762 4.146 8.236 8.519l0.004 0.043z"></path>
<path fill="#fff" d="M16.922 25.626l0.143 1.374c-2.070-0.74-3.726-2.203-4.968-4.391 1.715-0.207 3.134-1.020 4.258-2.44l0.136 1.31c2.529-0.234 4.548-2.148 4.941-4.605l0.004-0.031c0.624 0.828 1.044 1.841 1.17 2.944l0.003 0.028c1.209-0.687 2.196-1.499 2.963-2.438-0.653 4.403-4.195 7.808-8.61 8.246l-0.040 0.003zM14.99 6.383l-0.143-1.383c2.070 0.74 3.726 2.203 4.968 4.391-1.716 0.207-3.135 1.020-4.259 2.44l-0.135-1.3c-2.489 0.272-4.464 2.168-4.853 4.595l-0.004 0.031c-0.624-0.828-1.044-1.841-1.17-2.944l-0.003-0.028c-1.209 0.687-2.196 1.499-2.963 2.438 0.648-4.373 4.146-7.762 8.519-8.236l0.043-0.004z"></path>
</svg>
