<!-- Generated by IcoMoon.io -->
<svg version="1.1" xmlns="http://www.w3.org/2000/svg" width="32" height="32" viewBox="0 0 32 32">
<title>cny</title>
<path fill="#ff4314" d="M32 16c0 8.837-7.163 16-16 16s-16-7.163-16-16c0-8.837 7.163-16 16-16s16 7.163 16 16z"></path>
<path fill="#fff" d="M9.171 8h13.816v1.925h-13.817zM7.631 13.641h17.073v1.945h-5.23v6.507c0 0.5 0.217 0.75 0.67 0.75h2.172c0.237 0 0.434-0.153 0.552-0.442 0.139-0.308 0.237-1.252 0.277-2.811l1.855 0.578c-0.138 2.175-0.395 3.465-0.75 3.87-0.355 0.384-0.868 0.596-1.56 0.596h-3.137c-1.402 0-2.092-0.712-2.092-2.118v-6.93h-2.922v0.385c-0.098 2.445-0.65 4.408-1.657 5.872-0.987 1.347-2.566 2.406-4.777 3.157l-1.105-1.694c2.132-0.732 3.553-1.656 4.303-2.734 0.75-1.194 1.144-2.715 1.223-4.601v-0.385h-4.894z"></path>
</svg>
