<!-- Generated by IcoMoon.io -->
<svg version="1.1" xmlns="http://www.w3.org/2000/svg" width="32" height="32" viewBox="0 0 32 32">
<title>cob</title>
<path fill="#13bf99" d="M32 16c0 8.837-7.163 16-16 16s-16-7.163-16-16c0-8.837 7.163-16 16-16s16 7.163 16 16z"></path>
<path fill="#fff" d="M16 25h-4.536l2.272-3.957h4.528l2.272 3.957h-4.536zM13.737 10.956h-0.001l-2.272-3.956h9.072l-2.272 3.956h-4.528zM23.736 20.495v0l-2.273 3.958-2.263-3.957 2.263-3.958h4.537l-2.264 3.957zM8.264 11.496l2.272-3.957 2.264 3.957-2.264 3.956h-4.536zM12.799 20.496h0.001l-2.264 3.957-2.272-3.957-2.264-3.959h4.536l2.264 3.957zM23.736 11.496l2.264 3.957h-4.536l-2.265-3.957 2.264-3.957 2.273 3.957z"></path>
</svg>
