<!-- Generated by IcoMoon.io -->
<svg version="1.1" xmlns="http://www.w3.org/2000/svg" width="32" height="32" viewBox="0 0 32 32">
<title>comp</title>
<path fill="#00d395" d="M16 0c-8.8 0-16 7.2-16 16s7.2 16 16 16 16-7.2 16-16-7.2-16-16-16zM17.3 24.6c0 0.4-0.4 0.8-0.8 0.8-0.1 0-0.3 0-0.4-0.1l-6.7-4.1c-0.5-0.3-0.8-0.8-0.8-1.4v-3.1c0-0.4 0.3-0.7 0.7-0.7 0.1 0 0.2 0 0.3 0.1l7 4.1c0.4 0.2 0.7 0.7 0.7 1.2v3.2zM20.5 23c0 0.2-0.1 0.4-0.3 0.5l-1.5 0.9h-0.1v-3.6c0-0.5-0.2-0.9-0.6-1.1l-6.1-3.7v-4.1c0-0.4 0.3-0.7 0.7-0.7 0.1 0 0.2 0 0.3 0.1l7 4.1c0.4 0.2 0.7 0.7 0.7 1.2v6.4zM23.6 21.2c0 0.2-0.1 0.4-0.3 0.5l-1.5 0.8v-6.6c0-0.5-0.2-0.9-0.6-1.1l-6.3-3.8v-4c0-0.1 0-0.2 0.1-0.3 0.2-0.3 0.6-0.4 0.9-0.2l7 4.1c0.4 0.2 0.7 0.7 0.7 1.2v9.4z"></path>
</svg>
