<!-- Generated by IcoMoon.io -->
<svg version="1.1" xmlns="http://www.w3.org/2000/svg" width="32" height="32" viewBox="0 0 32 32">
<title>coqui</title>
<path fill="#71c800" d="M32 16c0 8.837-7.163 16-16 16s-16-7.163-16-16c0-8.837 7.163-16 16-16s16 7.163 16 16z"></path>
<path fill="#fff" d="M25.82 14.715c-0.787 0.037-1.577 0.083-2.364 0.055-0.706-0.026-1.409-0.143-2.113-0.225-0.076-0.013-0.143-0.046-0.198-0.092l0.001 0c-1.165-0.955-2.31-1.932-3.314-3.063-0.366-0.413-0.662-0.859-0.828-1.401-0.223-0.731-1.16-1.012-1.854-0.589-0.728 0.444-0.853 1.477-0.24 2.069 0.105 0.105 0.237 0.184 0.384 0.226l0.006 0.002c0.53 0.128 0.94 0.444 1.327 0.802 0.694 0.641 1.316 1.35 1.92 2.076 0.173 0.207 0.085 0.447-0.18 0.477-0.41 0.048-0.823 0.091-1.236 0.108-0.778 0.032-1.557 0.063-2.336 0.055-0.435-0.005-0.872-0.072-1.303-0.144-0.216-0.043-0.409-0.122-0.58-0.23l0.007 0.004c-0.579-0.347-1.179-0.11-1.513 0.232-0.233 0.239-0.377 0.566-0.377 0.927 0 0.243 0.065 0.471 0.18 0.667l-0.003-0.006c0.278 0.476 0.826 0.754 1.318 0.65 0.142-0.030 0.282-0.093 0.408-0.166 0.33-0.188 0.688-0.276 1.058-0.299 0.594-0.036 1.192-0.070 1.787-0.056 0.757 0.018 1.514 0.085 2.271 0.132 0.103 0.007 0.207 0.012 0.309 0.028 0.284 0.046 0.366 0.273 0.178 0.496-0.226 0.268-0.444 0.545-0.688 0.795-0.515 0.528-1.025 1.034-1.543 1.532l-0.022 0.021c-0.233 0.223-0.525 0.386-0.85 0.463l-0.013 0.003c-0.656 0.157-0.98 0.79-0.888 1.43 0.092 0.636 0.66 1.114 1.303 1.115 0.596 0 1.054-0.318 1.213-0.888 0.163-0.586 0.539-1.028 0.931-1.459 0.967-1.061 2.054-1.994 3.163-2.9 0.062-0.051 0.139-0.086 0.222-0.1l0.003-0c0.561-0.073 1.122-0.164 1.685-0.199 0.361-0.025 0.783-0.039 1.208-0.039 0.246 0 0.491 0.005 0.735 0.014l-0.035-0.001c0.663 0.027 1.323 0.114 2.003 0.177-0.012 0.23-0.015 0.426-0.033 0.62-0.122 1.26-0.443 2.467-1.036 3.588-1.464 2.765-3.722 4.496-6.777 5.171-0.592 0.131-1.271 0.206-1.969 0.206-0.040 0-0.080-0-0.12-0.001l0.006 0c-0.745-0.001-1.49 0.006-2.235-0.002-2.065-0.022-3.954-0.61-5.635-1.814-2.023-1.45-3.33-3.397-3.892-5.826-0.119-0.486-0.199-1.053-0.223-1.634l-0.001-0.018c-0.028-0.587-0.044-1.275-0.044-1.967 0-0.418 0.006-0.835 0.018-1.25l-0.001 0.061c0.131-4.396 3.129-8.058 7.183-9.187l0.069-0.016c0.748-0.212 1.608-0.335 2.495-0.338h0.002c0.864-0.003 1.727-0.016 2.59 0.004 2.066 0.048 3.943 0.678 5.603 1.912 1.985 1.475 3.248 3.432 3.78 5.849 0.129 0.58 0.174 1.178 0.261 1.797-0.43 0.055-0.803 0.128-1.18 0.146z"></path>
</svg>
