<!-- Generated by IcoMoon.io -->
<svg version="1.1" xmlns="http://www.w3.org/2000/svg" width="32" height="32" viewBox="0 0 32 32">
<title>crpt</title>
<path fill="#00bdcd" d="M32 16c0 8.837-7.163 16-16 16s-16-7.163-16-16c0-8.837 7.163-16 16-16s16 7.163 16 16z"></path>
<path fill="#fff" d="M21.833 9.744c-1.345-1.148-3.104-1.847-5.027-1.847-0.011 0-0.022 0-0.033 0h0.002c-4.195 0-7.65 3.317-7.938 7.557h-0.822c0.288-4.744 4.113-8.397 8.76-8.397 2.057 0 4.030 0.756 5.634 2.1zM21.545 12.515c-1.072-1.502-2.807-2.471-4.769-2.477h-0.001c-3.249 0-5.881 2.687-5.881 5.962 0 3.316 2.632 6.004 5.88 6.004 1.886 0 3.659-0.92 4.771-2.478l0.577 0.588c-1.276 1.721-3.25 2.73-5.347 2.73-3.702 0-6.704-3.066-6.704-6.844 0-3.736 3.002-6.802 6.704-6.802 2.189 0.009 4.128 1.074 5.334 2.712l0.013 0.018zM22.491 10.374l0.577-0.588c0.205 0.21 0.37 0.42 0.534 0.63l-0.576 0.587c-0.177-0.233-0.352-0.438-0.538-0.633l0.003 0.003zM16.734 24.984c-4.647 0-8.472-3.652-8.76-8.396h0.822c0.288 4.24 3.743 7.557 7.938 7.557 1.85 0 3.62-0.63 5.058-1.847l0.576 0.587c-1.504 1.299-3.476 2.092-5.632 2.1h-0.002zM22.491 21.668c0.206-0.21 0.37-0.42 0.535-0.63l0.576 0.587c-0.165 0.21-0.329 0.42-0.534 0.63zM6.823 16c0 5.584 4.482 10.16 9.952 10.16 2.961 0 5.757-1.301 7.65-3.694l0.575 0.587c-2.056 2.52-5.017 3.947-8.225 3.947-5.963 0-10.775-4.955-10.775-11 0-6.088 4.853-11 10.775-11 3.165 0 6.17 1.427 8.225 3.947l-0.576 0.588c-1.892-2.351-4.688-3.695-7.65-3.695-5.47 0-9.951 4.576-9.951 10.16z"></path>
</svg>
