<!-- Generated by IcoMoon.io -->
<svg version="1.1" xmlns="http://www.w3.org/2000/svg" width="32" height="32" viewBox="0 0 32 32">
<title>cs</title>
<path fill="#262626" d="M32 16c0 8.837-7.163 16-16 16s-16-7.163-16-16c0-8.837 7.163-16 16-16s16 7.163 16 16z"></path>
<path fill="#fff" d="M16.931 9.625c2.453 0.181 3.643 1.645 3.643 1.91 0 0.187-0.045 0.595-0.045 0.845 0 0.167 0.060 0.434 0.18 0.8-0.030 0.25-0.195 0.376-0.496 0.376-0.45 0-0.324-0.505-0.992-1.505-0.72-1.077-1.448-1.303-2.294-1.35 0.017 2.296 0.080 8.616 0.085 10.79 2.255-0.328 3.507-2.012 3.832-2.012 0.18 0 0.406 0.14 0.406 0.47 0 0.695-1.782 2.267-4.272 2.578-0.186 2.029-1.146 4.473-3.528 4.473-1.127 0-2.074-0.87-2.074-1.88 0-0.658 0.496-0.94 0.947-0.94s0.901 0.329 0.901 0.94c0 0.407-0.135 0.69-0.405 0.846 0.27 0.188 0.54 0.282 0.811 0.282 0.902 0 1.58-1.632 1.696-3.73-2.628-0.422-5.077-2.926-5.077-6.565 0-4.093 2.55-5.863 5.051-6.258 0.050-1.84 1.011-4.65 3.47-4.695 1.487 0 2.118 1.222 2.118 1.88s-0.473 0.94-0.946 0.94c-0.474 0-0.947-0.376-0.947-0.94 0-0.376 0.15-0.642 0.45-0.799-0.21-0.188-0.48-0.282-0.81-0.282-1.251 0-1.644 2.638-1.705 3.826zM15.344 21.413c-0.004-2.434-0.035-8.043-0.043-10.62-2.308 0.567-3.067 3.313-3.067 5.16 0 2.928 1.384 4.939 3.11 5.46z"></path>
</svg>
