<!-- Generated by IcoMoon.io -->
<svg version="1.1" xmlns="http://www.w3.org/2000/svg" width="32" height="32" viewBox="0 0 32 32">
<title>ctr</title>
<path fill="#fdde6c" d="M32 16c0 8.837-7.163 16-16 16s-16-7.163-16-16c0-8.837 7.163-16 16-16s16 7.163 16 16z"></path>
<path fill="#fff" d="M16 27c-6.075 0-11-4.925-11-11s4.925-11 11-11 11 4.925 11 11-4.925 11-11 11zM16 25.454c5.221 0 9.454-4.233 9.454-9.454s-4.233-9.454-9.454-9.454v0c-5.221 0-9.454 4.233-9.454 9.454s4.233 9.454 9.454 9.454v0zM16.072 22.541c-3.597 0-6.494-2.75-6.494-6.505v-0.036c0-3.666 2.825-6.54 6.638-6.54 2.572 0 4.227 1.078 5.343 2.623l-2.627 2.030c-0.72-0.898-1.547-1.473-2.752-1.473-1.763 0-3.004 1.491-3.004 3.324v0.036c0 1.887 1.241 3.36 3.004 3.36 1.313 0 2.087-0.61 2.842-1.527l2.627 1.869c-1.188 1.635-2.789 2.839-5.577 2.839z"></path>
</svg>
