<!-- Generated by IcoMoon.io -->
<svg version="1.1" xmlns="http://www.w3.org/2000/svg" width="32" height="32" viewBox="0 0 32 32">
<title>ctxc</title>
<path fill="#000" d="M32 16c0 8.837-7.163 16-16 16s-16-7.163-16-16c0-8.837 7.163-16 16-16s16 7.163 16 16z"></path>
<path fill="#fff" d="M15.897 4.398c-0.146-0.33 0.382-0.564 0.528-0.25 3.432 5.912 6.864 11.827 10.296 17.748-0.183 0-0.359-0.060-0.535-0.088l-9.16-1.826c-0.3-0.015-0.366-0.5-0.073-0.572l3.594-0.99c0.131-0.034 0.226-0.151 0.226-0.291 0-0.046-0.010-0.090-0.029-0.129l0.001 0.002-4.848-13.612v0.007z"></path>
<path fill="#fff" d="M15.37 4.428c0.033 0.048 0.062 0.1 0.087 0.154 1.086 3.080 2.2 6.16 3.278 9.24 0.096 0.256-0.264 0.469-0.44 0.278-0.924-0.968-1.804-1.965-2.713-2.933-0.147-0.132-0.36-0.044-0.455 0.095l-9.445 11.096c-0.11 0.117-0.205 0.293-0.389 0.315-0.132 0-0.22-0.103-0.293-0.205v-0.17c3.461-5.954 6.918-11.91 10.37-17.87z"></path>
<path fill="#fff" d="M12.48 14.995c0.176-0.051 0.41 0.073 0.352 0.286-0.367 1.276-0.755 2.545-1.137 3.813-0.058 0.162 0.088 0.308 0.242 0.316 4.943 0.99 9.886 2.016 14.828 3.006 0.096 0.015 0.162 0.088 0.235 0.147v0.205l-0.14 0.147h-20.98c2.2-2.64 4.393-5.295 6.6-7.92z"></path>
</svg>
