<!-- Generated by IcoMoon.io -->
<svg version="1.1" xmlns="http://www.w3.org/2000/svg" width="32" height="32" viewBox="0 0 32 32">
<title>dat</title>
<path fill="#2d9cdb" d="M32 16c0 8.837-7.163 16-16 16s-16-7.163-16-16c0-8.837 7.163-16 16-16s16 7.163 16 16z"></path>
<path fill="#fff" d="M20.054 5.606c0.392 0 0.708 0.12 0.947 0.359s0.358 0.554 0.358 0.947v11.674c0 1.33-0.315 2.543-0.947 3.635-0.614 1.070-1.472 1.936-2.502 2.542l-0.032 0.018c-1.058 0.614-2.244 0.921-3.559 0.921-1.314 0-2.517-0.307-3.61-0.921-1.062-0.624-1.92-1.49-2.516-2.527l-0.018-0.033c-0.614-1.092-0.921-2.304-0.921-3.635s0.281-2.535 0.845-3.61c0.58-1.092 1.365-1.946 2.355-2.56 1.007-0.614 2.125-0.922 3.353-0.922 0.014-0 0.030-0 0.046-0 1.97 0 3.729 0.904 4.886 2.319l0.009 0.011v-6.912c0-0.393 0.12-0.708 0.359-0.947 0.237-0.223 0.557-0.36 0.909-0.36 0.013 0 0.026 0 0.039 0.001l-0.002-0zM14.319 23.398c0.854 0 1.622-0.204 2.304-0.614 0.695-0.426 1.252-1.015 1.627-1.716l0.012-0.024c0.392-0.735 0.589-1.554 0.589-2.458s-0.197-1.716-0.59-2.432c-0.382-0.721-0.94-1.304-1.618-1.705l-0.020-0.011c-0.682-0.426-1.45-0.64-2.304-0.64-0.853 0-1.63 0.214-2.33 0.64-0.69 0.422-1.246 1.002-1.626 1.693l-0.012 0.023c-0.392 0.716-0.588 1.527-0.588 2.432s0.196 1.723 0.588 2.457c0.397 0.718 0.952 1.305 1.62 1.73l0.019 0.011c0.7 0.41 1.476 0.614 2.33 0.614z"></path>
</svg>
