<!-- Generated by IcoMoon.io -->
<svg version="1.1" xmlns="http://www.w3.org/2000/svg" width="32" height="32" viewBox="0 0 32 32">
<title>data</title>
<path fill="#e9570f" d="M32 16c0 8.837-7.163 16-16 16s-16-7.163-16-16c0-8.837 7.163-16 16-16s16 7.163 16 16z"></path>
<path fill="#fff" d="M24.14 9.914l1.607-1.594c0.38-0.376 0.301-1.064-0.174-1.535s-1.17-0.549-1.549-0.172l-5.747 5.698c-0.739-0.538-1.665-0.861-2.667-0.861-1.247 0-2.377 0.501-3.2 1.312l0.001-0.001c-0.817 0.809-1.322 1.931-1.322 3.171 0 0.996 0.326 1.915 0.877 2.658l-0.008-0.012-2.006 1.99c-0.497-0.656-0.901-1.417-1.173-2.238l-0.016-0.055c-0.673-2.038-0.492-4.27 0.6-6.11 1.703-2.87 4.75-4.118 7.638-3.752 0.045 0.007 0.096 0.010 0.149 0.010 0.565 0 1.028-0.438 1.067-0.993l0-0.003c0.001-0.022 0.002-0.048 0.002-0.074 0-0.676-0.513-1.232-1.17-1.3l-0.006-0c-2.901-0.297-5.9 0.65-8.115 2.846-3.67 3.638-3.885 9.409-0.66 13.338l-1.84 1.825c-0.363 0.36-0.273 1.035 0.203 1.506 0.475 0.471 1.155 0.562 1.518 0.202l5.739-5.69c0.509 0.213 1.1 0.337 1.719 0.337 1.248 0 2.378-0.501 3.201-1.313l-0 0c0.818-0.809 1.324-1.932 1.324-3.173 0-0.616-0.125-1.202-0.35-1.736l0.011 0.029 2.634-2.611c1.931 2.908 1.548 6.934-1.11 9.568-1.426 1.421-3.393 2.299-5.566 2.299-0.199 0-0.395-0.007-0.59-0.022l0.026 0.002c-0.017-0.001-0.036-0.002-0.056-0.002-0.509 0-0.927 0.389-0.974 0.886l-0 0.004-0.028 0.32c-0.003 0.028-0.004 0.060-0.004 0.093 0 0.558 0.441 1.014 0.993 1.037l0.002 0c0.165 0.009 0.358 0.015 0.552 0.015 2.842 0 5.415-1.15 7.28-3.011l-0 0c3.597-3.567 4.013-9.061 1.19-12.89zM17.139 17.449c-0.393 0.388-0.934 0.627-1.53 0.627s-1.137-0.239-1.53-0.627l0 0c-0.39-0.387-0.632-0.924-0.632-1.517s0.242-1.129 0.632-1.516l0-0c0.393-0.388 0.934-0.627 1.53-0.627s1.137 0.24 1.53 0.628l-0-0c0.39 0.387 0.632 0.924 0.632 1.517s-0.242 1.129-0.632 1.516l-0 0z"></path>
</svg>
