<!-- Generated by IcoMoon.io -->
<svg version="1.1" xmlns="http://www.w3.org/2000/svg" width="32" height="32" viewBox="0 0 32 32">
<title>dbc</title>
<path fill="#5bc1d4" d="M32 16c0 8.837-7.163 16-16 16s-16-7.163-16-16c0-8.837 7.163-16 16-16s16 7.163 16 16z"></path>
<path fill="#fff" d="M13.785 16.928l-1.65 1.724c-0.297 0.31-0.588 0.623-0.886 0.931-0.050 0.052-0.121 0.083-0.182 0.124-0.13-0.021-0.23-0.102-0.247-0.22-0.017-0.089-0.043-0.273-0.066-0.459l-0.008-0.081c-0.030-0.238-0.103-0.304-0.344-0.334-0.497-0.060-0.993-0.125-1.49-0.19l-1.134-0.147c-0.226-0.030-0.308-0.192-0.19-0.385 0.272-0.438 0.546-0.874 0.819-1.31l1.67-2.668c0.066-0.108 0.14-0.182 0.282-0.178 0.090 0.002 0.184-0.020 0.273-0.043 0.106-0.026 0.189 0.006 0.263 0.076 0.131 0.123 0.264 0.245 0.394 0.369l1.508 1.431c0.325 0.308 0.653 0.614 0.978 0.922 0.168 0.158 0.168 0.272 0.010 0.438zM24.875 19.247c0.094 0.078 0.196 0.152 0.216 0.285 0.025 0.17-0.043 0.293-0.187 0.386-0.85 0.55-1.7 1.103-2.55 1.654l-1.643 1.065c-0.056 0.036-0.104 0.072-0.15 0.11l0.002-0.002c-0.077 0.063-0.125 0.159-0.125 0.265 0 0.006 0 0.012 0 0.018l-0-0.001c0.008 0.205 0.020 0.41 0.023 0.614 0.003 0.235-0.17 0.382-0.406 0.355-0.088-0.012-0.163-0.057-0.214-0.122l-0.001-0.001c0.138 0.167-0.055-0.056-0.248-0.279l-0.344-0.406c-0.247-0.286-0.493-0.574-0.741-0.859-0.086-0.086-0.139-0.204-0.139-0.335 0-0.021 0.001-0.042 0.004-0.062l-0 0.002 0.034-1.195c0.004-0.14 0.087-0.23 0.199-0.302l1.358-0.868c0.76-0.485 1.522-0.968 2.28-1.458 0.16-0.103 0.309-0.134 0.485-0.044 0.13 0.066 0.277 0.078 0.418 0.034 0.211-0.067 0.373-0.008 0.536 0.136 0.39 0.344 0.795 0.672 1.194 1.008zM17.577 20.239c0.060 0.059 0.104 0.133 0.126 0.217l0.001 0.003c0.037 0.187-0.037 0.314-0.213 0.399-0.585 0.282-1.169 0.567-1.759 0.84-0.106 0.048-0.239 0.054-0.36 0.060-0.489 0.022-0.978 0.035-1.467 0.055-0.289 0.011-0.577 0.029-0.843 0.043h-0.196c-0.002 0-0.005 0-0.008 0-0.090 0-0.172-0.036-0.232-0.095l0 0c-0.062-0.057-0.126-0.112-0.187-0.17-0.344-0.327-0.682-0.66-1.033-0.98-0.196-0.178-0.199-0.417-0.012-0.608 0.421-0.434 0.837-0.872 1.255-1.31 0.451-0.472 0.902-0.946 1.352-1.42 0.071-0.083 0.177-0.136 0.294-0.136 0.104 0 0.199 0.041 0.268 0.108l-0-0 1.8 1.789c0.404 0.402 0.812 0.8 1.214 1.205zM20.055 12.19c-0.193-0.298 0.025-0.71 0.346-0.763 0.858-0.143 1.713-0.307 2.57-0.456 0.189-0.033 0.339 0.054 0.443 0.21 0.18 0.27 0.357 0.541 0.535 0.812 0.376 0.57 0.753 1.14 1.125 1.712 0.050 0.077 0.075 0.17 0.112 0.255l-0.022 0.010c-0.007 0.153-0.064 0.291-0.155 0.399l0.001-0.001c-0.524 0.704-1.054 1.405-1.577 2.11-0.091 0.114-0.229 0.186-0.385 0.186-0.179 0-0.336-0.096-0.421-0.239l-0.001-0.002c-0.765-1.27-1.538-2.536-2.308-3.803-0.087-0.144-0.172-0.29-0.263-0.43zM18.55 15.722l-0.15 1.335c-0.042 0.37-0.087 0.738-0.129 1.108l-0.148 1.3c-0.010 0.091-0.011 0.184-0.030 0.272-0.010 0.043-0.042 0.098-0.078 0.112s-0.1-0.006-0.132-0.033c-0.142-0.123-0.277-0.253-0.413-0.382-0.49-0.464-0.977-0.929-1.467-1.391-0.426-0.403-0.853-0.803-1.281-1.203-0.142-0.132-0.143-0.174-0.006-0.317l1.958-2.050 1.993-2.094c0.019-0.020 0.035-0.047 0.058-0.055 0.047-0.017 0.105-0.040 0.146-0.027 0.034 0.012 0.050 0.073 0.060 0.090l-0.1 0.88-0.129 1.131-0.152 1.324zM22.356 16.742c0.064 0.103 0.074 0.201 0.004 0.308-0.060 0.094-0.096 0.208-0.096 0.331 0 0.026 0.002 0.051 0.005 0.076l-0-0.003c0.012 0.126-0.040 0.203-0.147 0.27-0.837 0.531-1.67 1.066-2.504 1.6-0.262 0.168-0.524 0.335-0.787 0.501-0.104 0.066-0.211 0.061-0.268-0.023-0.032-0.046-0.036-0.11-0.045-0.142l0.11-0.808 0.245-1.782 0.27-1.95 0.263-1.907 0.1-0.71c0.002-0.019 0.003-0.041 0.013-0.055 0.026-0.033 0.055-0.082 0.088-0.088 0.036-0.006 0.092 0.022 0.115 0.053 0.061 0.082 0.11 0.173 0.164 0.261l1.955 3.216c0.172 0.284 0.342 0.569 0.516 0.851zM18.303 11.838c0.031 0.020 0.091 0.041 0.123 0.084 0.049 0.066 0.006 0.128-0.045 0.181l-0.68 0.715-1.982 2.074c-0.414 0.435-0.826 0.872-1.24 1.306-0.15 0.156-0.27 0.156-0.426 0.008-0.483-0.458-0.966-0.918-1.45-1.375-0.47-0.444-0.942-0.887-1.414-1.33-0.063-0.060-0.113-0.125-0.106-0.217 0.010-0.125 0.082-0.196 0.225-0.22 0.261-0.047 0.523-0.093 0.785-0.138l6.21-1.088zM11.564 12.47c0.466-0.319 0.932-0.636 1.399-0.953l4.51-3.072c0.15-0.102 0.245-0.081 0.32 0.081 0.311 0.666 0.62 1.333 0.93 2 0.040 0.086 0.078 0.173 0.119 0.26 0.033 0.070 0.011 0.127-0.031 0.19-0.051 0.071-0.097 0.152-0.135 0.238l-0.003 0.009c-0.033 0.083-0.083 0.128-0.173 0.144-0.664 0.118-1.327 0.24-1.99 0.358l-4.924 0.885c-0.036 0.006-0.073 0-0.11 0l-0.022-0.041c0.037-0.033 0.070-0.071 0.11-0.099zM6.874 13.996c-0.294-0.006-0.469-0.292-0.328-0.555 0.119-0.222 0.251-0.436 0.379-0.653 0.368-0.629 0.738-1.256 1.104-1.885 0.061-0.103 0.145-0.186 0.247-0.243l0.003-0.002c0.976-0.561 1.95-1.125 2.926-1.687 0.058-0.036 0.125-0.064 0.197-0.079l0.004-0.001c0.020-0.004 0.044-0.007 0.067-0.007 0.118 0 0.223 0.059 0.286 0.149l0.001 0.001c0.047 0.060 0.076 0.137 0.076 0.221 0 0.062-0.015 0.12-0.043 0.17l0.001-0.002c-0.147 0.314-0.3 0.625-0.45 0.937-0.28 0.572-0.56 1.143-0.837 1.716-0.054 0.128-0.163 0.223-0.297 0.255l-0.003 0.001c-0.253 0.062-0.449 0.257-0.511 0.505l-0.001 0.005c-0.032 0.125-0.126 0.222-0.246 0.258l-0.003 0.001c-0.802 0.282-1.603 0.57-2.404 0.855-0.054 0.020-0.111 0.026-0.167 0.040zM11.027 12.17c0.004-0.044 0.016-0.085 0.035-0.122l-0.001 0.002 1.048-2.297c0.218-0.478 0.439-0.955 0.654-1.434 0.050-0.11 0.123-0.165 0.247-0.17 0.327-0.010 0.654-0.027 0.981-0.040l1.93-0.073c0.226-0.010 0.453-0.025 0.68-0.036 0.162-0.007 0.273 0.091 0.274 0.25 0.007 0.097-0.055 0.16-0.135 0.215l-5.492 3.738c-0.026 0.020-0.054 0.037-0.085 0.053l-0.003 0.001c-0.070 0.030-0.137-0.012-0.133-0.087zM9.664 13.82c-0.163 0.263-0.328 0.524-0.492 0.786-0.613 0.98-1.226 1.961-1.84 2.94-0.026 0.048-0.060 0.089-0.099 0.122l-0.001 0c-0.106 0.076-0.247 0.023-0.297-0.11-0.080-0.214-0.156-0.43-0.233-0.645l-0.669-1.882c-0.016-0.047-0.027-0.095-0.033-0.118 0.001-0.127 0.043-0.181 0.162-0.22 0.356-0.115 0.712-0.228 1.068-0.341l2.28-0.722c0.063-0.020 0.126-0.047 0.178 0.023 0.047 0.063 0.008 0.115-0.024 0.166zM25.782 16.429l0.202 1.156c0.006 0.037 0.010 0.075 0.016 0.124-0.010 0.050-0.021 0.11-0.037 0.168l-0.265 0.956c-0.076 0.275-0.294 0.34-0.514 0.154-0.451-0.38-0.904-0.76-1.357-1.138-0.103-0.086-0.146-0.185-0.122-0.321 0.009-0.040 0.014-0.086 0.014-0.133 0-0.098-0.022-0.19-0.062-0.272l0.002 0.004c-0.062-0.123-0.042-0.232 0.039-0.34 0.37-0.496 0.737-0.994 1.106-1.49l0.225-0.304c0.075-0.103 0.174-0.153 0.3-0.125 0.132 0.030 0.2 0.12 0.222 0.249l0.23 1.313zM18.218 8.485l-0.020-0.042c-0.027-0.060-0.038-0.13 0.023-0.164 0.029-0.013 0.063-0.021 0.098-0.021 0.026 0 0.050 0.004 0.074 0.011l-0.002-0c0.088 0.027 0.167 0.077 0.25 0.118l3.959 1.979c0.067 0.033 0.12 0.072 0.106 0.156-0.014 0.083-0.077 0.101-0.15 0.114-0.808 0.144-1.615 0.29-2.422 0.435l-0.079 0.016c-0.023-0.015-0.067-0.032-0.095-0.064-0.142-0.177-0.355-0.293-0.595-0.303l-0.002-0c-0.090-0.004-0.136-0.057-0.17-0.132-0.142-0.308-0.287-0.614-0.43-0.921l-0.545-1.182z"></path>
</svg>
