<!-- Generated by IcoMoon.io -->
<svg version="1.1" xmlns="http://www.w3.org/2000/svg" width="32" height="32" viewBox="0 0 32 32">
<title>dcn</title>
<path fill="#136485" d="M32 16c0 8.837-7.163 16-16 16s-16-7.163-16-16c0-8.837 7.163-16 16-16s16 7.163 16 16z"></path>
<path fill="#fff" d="M10.436 31.006c-2.183-0.824-4.049-2.030-5.607-3.551l0.003 0.003 0.147-0.257c2.388-3.773 4.533-7.678 6.148-11.85 1.713-4.425 3.084-8.967 4.39-13.527 0.117-0.407 0.256-0.807 0.384-1.21 0.138 0.158 0.188 0.305 0.23 0.454 0.82 2.926 1.613 5.86 2.464 8.776 1.55 5.313 3.73 10.353 6.617 15.077 0.337 0.55 0.91 1.472 1.72 2.762-1.669 1.567-3.686 2.784-5.922 3.522l-0.113 0.032c-10.567-35.519-12.27-40.56-13.981-45.596l8.979 30.426-0.154-0.002c-1.166 3.277-2.934 8.257-5.305 14.941zM16.075 0.049h-0.124l0.049-0.049 0.075 0.049z"></path>
</svg>
