<!-- Generated by IcoMoon.io -->
<svg version="1.1" xmlns="http://www.w3.org/2000/svg" width="32" height="32" viewBox="0 0 32 32">
<title>dcn</title>
<path fill="#136485" d="M4.774 27.4c-2.947-2.896-4.774-6.925-4.774-11.38 0-0.007 0-0.014 0-0.021v0.001c0-8.837 7.163-16 16-16s16 7.163 16 16c0 4.61-1.95 8.763-5.068 11.683 0.177 0.359-0.391-0.542-0.955-1.446l-0.765-1.316c-2.888-4.724-5.068-9.764-6.617-15.077-0.85-2.917-1.644-5.85-2.464-8.776-0.042-0.176-0.122-0.329-0.231-0.456l0.001 0.001c-0.128 0.404-0.267 0.804-0.383 1.21-1.307 4.561-2.678 9.103-4.391 13.528-1.584 4.092-4.008 8.328-6.353 12.050zM21.147 32h-7.63l-3.146-0.812c49.834-156.372 51.657-161.388 53.482-166.404l-48.112 151.281 0.154 0.003c-8.003-27.933-6.215-22.638-4.436-17.339l9.688 33.271z"></path>
</svg>
