<!-- Generated by IcoMoon.io -->
<svg version="1.1" xmlns="http://www.w3.org/2000/svg" width="32" height="32" viewBox="0 0 32 32">
<title>dcr</title>
<path fill="#2ed6a1" d="M32 16c0 8.837-7.163 16-16 16s-16-7.163-16-16c0-8.837 7.163-16 16-16s16 7.163 16 16z"></path>
<path fill="#fff" d="M14.856 17.62h4.42c1.646-0.005 2.978-1.34 2.978-2.987 0-0.003 0-0.006 0-0.009v0.001c0-0.002 0-0.005 0-0.008 0-1.646-1.332-2.982-2.978-2.987h-1.406l-3.014-2.629h4.42c2.715 0.007 4.975 1.943 5.482 4.509l0.006 0.036c0.067 0.326 0.105 0.7 0.105 1.084 0 2.336-1.422 4.339-3.447 5.193l-0.037 0.014 3.485 3.042h-3.991l-6.023-5.258zM17.013 14.26h-4.42c-1.646 0.005-2.978 1.34-2.978 2.987 0 0.002 0 0.005 0 0.007v-0c0 0.002 0 0.005 0 0.008 0 1.646 1.332 2.982 2.978 2.987h1.408l3.012 2.63h-4.419c-2.715-0.007-4.975-1.943-5.482-4.509l-0.006-0.036c-0.067-0.326-0.105-0.7-0.105-1.084 0-2.336 1.422-4.339 3.447-5.193l0.037-0.014-3.482-3.044h3.991l6.020 5.26z"></path>
</svg>
