<!-- Generated by IcoMoon.io -->
<svg version="1.1" xmlns="http://www.w3.org/2000/svg" width="32" height="32" viewBox="0 0 32 32">
<title>deez</title>
<path fill="#939393" d="M32 16c0 8.837-7.163 16-16 16s-16-7.163-16-16c0-8.837 7.163-16 16-16s16 7.163 16 16z"></path>
<path fill="#fff" d="M13.707 19.86c0.365-0.237 2.818-1.74 5.208-3.204 1.723-1.054 1.723-1.054 1.693-1.157-0.030-0.125-10.7-6.609-10.809-6.674-0.296-0.173-0.493-0.295-0.687-0.42l0.085 0.051c0.196-0.136 0.577-0.396 1.033-0.706l1.11-0.75 0.762 0.456c0.94 0.562 11.26 6.892 12.706 7.793-0.59 0.355-2.68 1.592-5.49 3.247l-5.583 3.29c-0.009-0.241-0.016-0.547-0.020-0.853l-0-0.021c-0.005-0.248-0.008-0.541-0.008-0.834 0-0.076 0-0.153 0.001-0.229l-0 0.012zM11.339 13.564c0.185 0.11 0.505 0.303 0.899 0.548l1.029 0.638 0.022 1.93c0.065 5.577 0.065 5.577 0.146 5.634l0.054 0.037 0.060-0.022c0.030-0.009 0.041-0.013 10.871-6.402l0.58-0.342-0.191 2.683-0.070 0.040c19.865-10.499 15.49-7.957 11.11-5.422l-24.499 13.086c-0.004-0.699-0.010-3.085-0.011-6.196v-6.212zM9 24.8l0.025-15.967 0.388 0.229c0.312 0.182 2.416 1.465 4.793 2.919-3.486-1.947-1.817-0.915-0.145 0.112l5.259 3.006 0.715 0.43-2.364 1.446-0.472-0.275c-2.151-1.264-3.075-1.837-3.995-2.415l1.165 0.683c0.19 0.073-0.711-0.485-1.615-1.038l-1.145-0.65-0.652-0.38-0.005 6.769c-0.002 3.054-0.005 5.592-0.007 6.332-0.193-0.117-0.522-0.32-0.908-0.56l-1.037-0.641z"></path>
</svg>
