<!-- Generated by IcoMoon.io -->
<svg version="1.1" xmlns="http://www.w3.org/2000/svg" width="32" height="32" viewBox="0 0 32 32">
<title>dent</title>
<path fill="#666" d="M32 16c0 8.837-7.163 16-16 16s-16-7.163-16-16c0-8.837 7.163-16 16-16s16 7.163 16 16z"></path>
<path fill="#fff" d="M25.082 21.15c-0.273 0.449-0.759 0.745-1.315 0.745-0.278 0-0.539-0.074-0.764-0.204l0.007 0.004-4.779-2.71v-1.72l1.518-0.86 4.778 2.709c0.726 0.411 0.974 1.323 0.555 2.035zM17.517 24.809c0 0.823-0.679 1.49-1.517 1.49s-1.517-0.667-1.517-1.49v-5.419l1.517-0.86 1.517 0.86zM8.99 21.695c-0.217 0.126-0.478 0.2-0.757 0.2-0.556 0-1.043-0.296-1.312-0.739l-0.004-0.007c-0.127-0.214-0.202-0.471-0.202-0.746 0-0.551 0.302-1.032 0.75-1.285l0.007-0.004 4.778-2.71 1.518 0.861v1.72zM7.473 12.886c-0.455-0.257-0.757-0.738-0.757-1.289 0-0.275 0.075-0.532 0.206-0.753l-0.004 0.007c0.273-0.45 0.759-0.746 1.315-0.746 0.278 0 0.539 0.074 0.764 0.204l-0.007-0.004 4.779 2.71v1.72l-1.518 0.86zM14.483 7.191c0-0.823 0.68-1.49 1.517-1.49 0.838 0 1.517 0.667 1.517 1.49v5.418l-1.517 0.861-1.517-0.86zM18.231 15.545l0.804 0.455-0.804 0.455zM16.714 13.875l0.803-0.456v0.911zM14.483 14.33v-0.91l0.803 0.455zM13.769 16.455l-0.804-0.455 0.804-0.455zM15.286 18.125l-0.803 0.456v-0.911zM17.517 17.67v0.91l-0.803-0.455zM16 17.72l-1.517-0.86v-1.72l1.517-0.86 1.517 0.86v1.72zM23.010 10.305c0.218-0.126 0.478-0.2 0.757-0.2 0.556 0 1.043 0.296 1.312 0.739l0.004 0.007c0.42 0.712 0.17 1.624-0.555 2.035l-4.778 2.71-1.518-0.861v-1.72zM24.884 18.507l-4.421-2.507 4.421-2.507c0.67-0.378 1.115-1.085 1.115-1.896 0-0.404-0.111-0.783-0.303-1.107l0.006 0.010c-0.616-1.048-1.981-1.407-3.048-0.802l-4.422 2.507v-5.015c0-1.209-0.999-2.19-2.231-2.19s-2.231 0.981-2.231 2.191v5.014l-4.422-2.507c-1.067-0.605-2.432-0.246-3.047 0.802-0.187 0.314-0.298 0.693-0.298 1.097 0 0.811 0.445 1.518 1.104 1.89l0.011 0.006 4.42 2.507-4.42 2.507c-0.67 0.378-1.115 1.085-1.115 1.896 0 0.404 0.111 0.783 0.303 1.107l-0.005-0.010c0.616 1.048 1.981 1.407 3.048 0.802l4.422-2.507v5.014c0 1.21 0.999 2.191 2.231 2.191s2.231-0.981 2.231-2.191v-5.014l4.422 2.507c1.067 0.605 2.432 0.246 3.048-0.802 0.187-0.314 0.298-0.693 0.298-1.097 0-0.811-0.445-1.518-1.104-1.89l-0.011-0.006z"></path>
</svg>
