<!-- Generated by IcoMoon.io -->
<svg version="1.1" xmlns="http://www.w3.org/2000/svg" width="32" height="32" viewBox="0 0 32 32">
<title>dew</title>
<path fill="#fec907" d="M32 16c0 8.837-7.163 16-16 16s-16-7.163-16-16c0-8.837 7.163-16 16-16s16 7.163 16 16z"></path>
<path fill="#fff" d="M12.161 22.816c0.618 0 1.12 0.49 1.12 1.092 0 0.603-0.502 1.092-1.12 1.092h-1.453c-0.32 0-0.628-0.124-0.854-0.345-0.218-0.211-0.353-0.506-0.354-0.833v-15.673c0-0.305 0.124-0.597 0.345-0.813 0.22-0.215 0.52-0.336 0.833-0.336h1.557c0.618 0 1.12 0.489 1.12 1.092 0 0.29-0.119 0.567-0.329 0.772s-0.495 0.32-0.791 0.32h-0.345v13.632zM24.331 11.364c0.779 1.338 1.169 2.835 1.169 4.491s-0.395 3.153-1.182 4.492-1.662 2.365-3.099 3.294c-1.32 0.854-2.698 1.358-4.407 1.358h-0.567c-0.618 0-1.12-0.489-1.12-1.092s0.502-1.091 1.12-1.091h0.69c1.21 0 2.089-0.501 3.076-1.070 0.986-0.568 1.618-1.499 2.19-2.503 0.573-1.003 0.86-2.124 0.86-3.362-0.001-1.255-0.291-2.384-0.872-3.388-0.576-0.994-1.381-1.798-2.345-2.356l-0.031-0.016c-1.004-0.577-2.12-0.866-3.347-0.866h-0.297c-0.618 0-1.12-0.488-1.12-1.091 0-0.29 0.119-0.568 0.329-0.772s0.494-0.32 0.791-0.32h0.349c1.692 0 3.222 0.38 4.59 1.142 1.352 0.75 2.445 1.82 3.202 3.111l0.021 0.039z"></path>
</svg>
