<!-- Generated by IcoMoon.io -->
<svg version="1.1" xmlns="http://www.w3.org/2000/svg" width="32" height="32" viewBox="0 0 32 32">
<title>dgb</title>
<path fill="#006ad2" d="M32 16c0 8.837-7.163 16-16 16s-16-7.163-16-16c0-8.837 7.163-16 16-16s16 7.163 16 16z"></path>
<path fill="#fff" d="M12.368 25l0.479-1.282-0.85 0.084-0.306 0.81c-0.024 0.061-0.044 0.125-0.075 0.183-0.067 0.125-0.17 0.203-0.313 0.204-0.63 0.001-1.258 0-1.888-0.001-0.015 0-0.030-0.009-0.063-0.019l0.402-1.085c-0.733-0.020-1.446-0.032-2.156-0.113 0.012-0.133 4.062-10.345 4.223-10.652 0.040-0.003 0.087-0.010 0.135-0.010h3.27c0.033 0 0.066 0 0.098 0.002 0.331 0.025 0.515 0.305 0.4 0.623-0.153 0.42-0.315 0.838-0.472 1.256l-2.058 5.474c-0.021 0.056-0.039 0.114-0.065 0.19 0.058 0.003 0.103 0.009 0.148 0.007 3.096-0.135 5.368-1.613 6.836-4.39 0.302-0.559 0.535-1.208 0.664-1.893l0.006-0.042c0.073-0.395 0.096-0.791-0.003-1.186-0.105-0.428-0.354-0.785-0.693-1.026l-0.005-0.004c-0.468-0.337-0.994-0.481-1.562-0.484h-11.020c0.024-0.060 0.035-0.1 0.054-0.136l1.388-2.501c0.126-0.25 0.381-0.419 0.675-0.419 0.011 0 0.022 0 0.032 0.001l-0.002-0h5.866l0.601-1.59h1.782c0.044 0 0.088-0.003 0.13 0.003 0.127 0.020 0.2 0.12 0.181 0.25-0.008 0.054-0.028 0.106-0.048 0.158-0.123 0.331-0.249 0.661-0.372 0.992-0.021 0.056-0.038 0.113-0.060 0.18h0.805c0.020-0.043 0.040-0.087 0.058-0.132l0.496-1.317c0.050-0.133 0.052-0.134 0.185-0.134 0.564 0 1.129-0.002 1.693 0 0.238 0.001 0.323 0.127 0.238 0.357-0.135 0.369-0.274 0.735-0.412 1.102-0.019 0.051-0.036 0.103-0.060 0.173 0.055 0.010 0.1 0.020 0.145 0.026 0.785 0.096 1.549 0.274 2.274 0.601 0.551 0.249 1.052 0.574 1.464 1.030 0.558 0.615 0.835 1.35 0.879 2.18 0.042 0.805-0.105 1.581-0.372 2.33-0.632 1.775-1.53 3.388-2.83 4.747-0.896 0.936-1.93 1.68-3.064 2.282-1.224 0.65-2.518 1.105-3.858 1.427-0.12 0.030-0.183 0.082-0.224 0.2-0.147 0.41-0.303 0.818-0.457 1.226-0.095 0.25-0.19 0.318-0.452 0.318h-1.868z"></path>
</svg>
