<!-- Generated by IcoMoon.io -->
<svg version="1.1" xmlns="http://www.w3.org/2000/svg" width="32" height="32" viewBox="0 0 32 32">
<title>dlt</title>
<path fill="#f4ae95" d="M32 16c0 8.837-7.163 16-16 16s-16-7.163-16-16c0-8.837 7.163-16 16-16s16 7.163 16 16z"></path>
<path fill="#fff" d="M15.807 8.958l-6.094 13.007h10.117c0.293 0 0.558 0.18 0.673 0.455l0.011 0.025c0.032 0.073 0.050 0.159 0.050 0.248 0 0.114-0.030 0.222-0.083 0.315l0.002-0.003c-0.166 0.296-0.477 0.493-0.835 0.495h-10.752c-0.174-0-0.336-0.055-0.469-0.147l0.003 0.002-0.056-0.038c-0.227-0.16-0.374-0.421-0.374-0.717 0-0.136 0.031-0.264 0.086-0.379l-0.002 0.005 7.19-15.149c0.075-0.158 0.182-0.298 0.313-0.41 0.12-0.104 0.279-0.168 0.452-0.168 0.168 0 0.321 0.060 0.441 0.159l-0.001-0.001c0.056 0.046 0.102 0.104 0.134 0.169l0.001 0.003 7.293 15.252c0.1 0.207 0.12 0.444 0.058 0.666-0.067 0.245-0.287 0.422-0.548 0.423h-0.084c-0.351-0.002-0.654-0.211-0.792-0.511l-0.002-0.005-6.29-13.695c-0.038-0.085-0.122-0.144-0.22-0.145h-0c-0.098 0-0.183 0.058-0.221 0.142l-0.001 0.002z"></path>
</svg>
