<!-- Generated by IcoMoon.io -->
<svg version="1.1" xmlns="http://www.w3.org/2000/svg" width="32" height="32" viewBox="0 0 32 32">
<title>dnt</title>
<path fill="#2c398f" d="M32 16c0 8.837-7.163 16-16 16s-16-7.163-16-16c0-8.837 7.163-16 16-16s16 7.163 16 16z"></path>
<path fill="#fff" d="M25.075 19.1c0.549-0.028 1.044-0.242 1.428-0.579l-0.003 0.002c-0.551 2.816-2.091 5.587-4.734 7.11-2.022 1.178-4.55 1.57-7.008 1.27-0.368-1.062-1.333-2.193-3.010-3.047-2.643-1.362-3.884-3.717-5.010-2.563-0.104 0.1-0.19 0.217-0.253 0.346-0.039-0.078-0.086-0.185-0.128-0.293l-0.010-0.030c-2.16-5.356 0-10.736 4.32-14.591 2.574-2.286 5.584-2.032 8.273-0.785-0.31 0.252-0.506 0.633-0.506 1.060 0 0.009 0 0.018 0 0.027l-0-0.001v5.402c-0.784-0.464-1.727-0.738-2.735-0.738-1.693 0-3.205 0.774-4.201 1.987l-0.008 0.009c-0.774 0.94-1.243 2.156-1.243 3.482 0 1.383 0.51 2.646 1.353 3.612l-0.006-0.007c1.002 1.15 2.469 1.873 4.105 1.873 1.064 0 2.057-0.306 2.896-0.835l-0.022 0.013c0.228 0.482 0.71 0.809 1.268 0.809 0.772 0 1.398-0.626 1.398-1.398 0-0.004-0-0.008-0-0.012v0.001-13.922c2.068 1.454 3.722 3.301 4.48 4.571 0.37 0.638 0.634 1.332 0.782 2.055-0.325-0.24-0.704-0.4-1.103-0.462-0.85-0.046-1.494 1.109-1.057 2.77 0.368 1.502-0.092 2.818 0.735 2.864zM14.712 19.192c-2.896-1.662-0.46-5.933 2.436-4.271 0.873 0.485 0.965 2.032 0.804 3.024-0.299 1.709-1.907 2.009-3.24 1.247zM16.068 8.156c-0.644 0.023-1.103 0.808-1.080 1.155s0.505 0.554 1.171 0.323c0.598-0.208 1.15-0.070 1.126-0.416s-0.597-1.085-1.217-1.062z"></path>
</svg>
