<!-- Generated by IcoMoon.io -->
<svg version="1.1" xmlns="http://www.w3.org/2000/svg" width="32" height="32" viewBox="0 0 32 32">
<title>dock</title>
<path fill="#786dbc" d="M32 16c0 8.837-7.163 16-16 16s-16-7.163-16-16c0-8.837 7.163-16 16-16s16 7.163 16 16z"></path>
<path fill="#fff" d="M15.931 10.771l-1.629-1.633c-0.218-0.209-0.353-0.502-0.353-0.827 0-0.632 0.512-1.144 1.144-1.144 0.307 0 0.586 0.121 0.791 0.318l3.674 3.674c0.447 0.447 0.447 1.17 0 1.617l-3.64 3.636c-0.205 0.196-0.483 0.316-0.789 0.316-0.631 0-1.143-0.512-1.143-1.143 0-0.306 0.12-0.584 0.316-0.789l-0 0 1.707-1.707c-0.298-0.055-0.64-0.087-0.99-0.087-3.145 0-5.695 2.55-5.695 5.695s2.55 5.695 5.695 5.695c3.138 0 5.683-2.537 5.695-5.672v-12.577c0-0.631 0.512-1.143 1.143-1.143s1.143 0.512 1.143 1.143v0 12.729c-0.089 4.35-3.636 7.842-7.998 7.842-4.418 0-8-3.582-8-8s3.582-8 8-8c0.327 0 0.65 0.020 0.967 0.058l-0.038-0.004 0.001 0.004z"></path>
</svg>
