<!-- Generated by IcoMoon.io -->
<svg version="1.1" xmlns="http://www.w3.org/2000/svg" width="32" height="32" viewBox="0 0 32 32">
<title>doge</title>
<path fill="#c3a634" d="M32 16c0 8.837-7.163 16-16 16s-16-7.163-16-16c0-8.837 7.163-16 16-16s16 7.163 16 16z"></path>
<path fill="#fff" d="M13.248 14.61h4.314v2.286h-4.314v4.818h2.721c1.077 0 1.958-0.145 2.644-0.437 0.686-0.291 1.224-0.694 1.615-1.21 0.384-0.51 0.663-1.122 0.792-1.787l0.004-0.028c0.134-0.655 0.21-1.408 0.21-2.179 0-0.026-0-0.051-0-0.077l0 0.004c0-0.022 0-0.047 0-0.073 0-0.771-0.077-1.524-0.222-2.252l0.012 0.073c-0.133-0.693-0.412-1.305-0.804-1.826l0.008 0.011c-0.391-0.516-0.93-0.919-1.615-1.21-0.686-0.292-1.567-0.437-2.644-0.437h-2.721v4.325zM10.482 16.896h-1.482v-2.285h1.482v-6.611h6.549c1.21 0 2.257 0.21 3.142 0.627 0.885 0.419 1.607 0.99 2.168 1.715 0.56 0.724 0.977 1.572 1.25 2.543s0.409 2.010 0.409 3.115c0 0.022 0 0.049 0 0.075 0 1.082-0.15 2.129-0.43 3.121l0.019-0.081c-0.272 0.97-0.689 1.819-1.25 2.543-0.56 0.725-1.282 1.296-2.167 1.715-0.885 0.418-1.933 0.627-3.142 0.627h-6.549v-7.104z"></path>
</svg>
