<!-- Generated by IcoMoon.io -->
<svg version="1.1" xmlns="http://www.w3.org/2000/svg" width="32" height="32" viewBox="0 0 32 32">
<title>dta</title>
<path fill="#74d269" d="M32 16c0 8.837-7.163 16-16 16s-16-7.163-16-16c0-8.837 7.163-16 16-16s16 7.163 16 16z"></path>
<path fill="#fff" d="M24.963 14.512h0.020l0.017 4.966-11.177 6.522-3.011-1.692-2.812-1.803v-13.021l3.073-1.813 0.006 0.003 2.713-1.674 11.15 6.563zM21.688 17.624l-2.339-1.339-7.807 4.594 2.292 1.363zM18.822 15.984l-4.816-2.758-0.021 5.681zM14.008 12.618l7.742 4.531v-2.705l-7.732-4.515zM10.82 23.57l0.030-2.713-0.018 0.011v-9.572l-2.347-1.4v12.28zM11.236 20.569l2.345-1.418v-9.255l-2.345 1.401zM14.117 22.6l-0.047 2.836 10.436-6.136 0.030-2.82zM21.91 14.016l2.429-1.386-10.455-6.105-2.406 1.392z"></path>
</svg>
