<!-- Generated by IcoMoon.io -->
<svg version="1.1" xmlns="http://www.w3.org/2000/svg" width="32" height="32" viewBox="0 0 32 32">
<title>dth</title>
<path fill="#3c80f1" d="M16 32c-8.837 0-16-7.163-16-16s7.163-16 16-16 16 7.163 16 16-7.163 16-16 16zM16.084 4c-5.47 0.004-9.904 4.436-9.91 9.905 0.005 0.534 0.065 1.066 0.178 1.588 0.016 0.069 0.077 0.119 0.15 0.119 0.034 0 0.065-0.011 0.090-0.029l-0 0c0.36-0.261 0.811-0.417 1.298-0.418h0c0.002 0 0.003 0 0.005 0 0.084 0 0.152-0.068 0.152-0.152 0-0.009-0.001-0.018-0.002-0.026l0 0.001c-0.063-0.321-0.1-0.692-0.102-1.070v-0.002c0-4.496 3.644-8.14 8.14-8.14s8.14 3.644 8.14 8.14v0c0 4.49-5.744 10.225-7.8 12.25-0.087 0.086-0.207 0.139-0.339 0.139s-0.252-0.053-0.339-0.139l0 0c-0.862-0.842-1.688-1.697-2.488-2.576l-0.044-0.049h-0.042c-0.847-0.085-1.624-0.28-2.352-0.57l0.058 0.020-0.136-0.055c-0.018-0.008-0.040-0.013-0.062-0.013-0.084 0-0.152 0.068-0.152 0.152 0 0.038 0.014 0.072 0.036 0.098l-0-0c1.32 1.572 2.642 2.993 4.032 4.344l0.014 0.013c0.38 0.371 0.899 0.599 1.473 0.599s1.093-0.229 1.473-0.6l-0 0c3.62-3.576 8.44-8.866 8.44-13.625-0.006-5.47-4.44-9.901-9.91-9.905zM20.204 14.907v-0.405c-0.008-0.275-0.041-0.538-0.096-0.792l0.005 0.028c-0.061-0.288-0.137-0.536-0.231-0.775l0.011 0.032c-0.111-0.274-0.227-0.504-0.358-0.724l0.013 0.024c-0.548-0.91-1.334-1.628-2.271-2.079l-0.032-0.014c-0.427-0.209-0.925-0.35-1.45-0.392l-0.015-0.001h-2.143c-0.162 0.022-0.291 0.145-0.321 0.303l-0 0.002v0.034c-0 0.003-0 0.006-0 0.009s0 0.006 0 0.009l-0-0v6.491c0.007 0.192 0.001 0.384-0.018 0.575-0.032 0.228-0.091 0.45-0.178 0.663-0.192 0.473-0.523 0.857-0.942 1.11l-0.010 0.006c-0.2 0.119-0.414 0.21-0.638 0.273-0.225 0.065-0.486 0.107-0.755 0.116l-0.005 0c0.795 0.575 1.73 0.93 2.707 1.027 0.164 0.015 0.354 0.024 0.546 0.024 0.888 0 1.732-0.186 2.497-0.522l-0.040 0.016c0.986-0.423 1.82-1.028 2.494-1.779l0.006-0.007-0.010-0.009c0.35-0.393 0.637-0.837 0.853-1.316 0.2-0.482 0.321-0.994 0.357-1.514 0.014-0.122 0.022-0.265 0.024-0.41l0-0.003zM21.968 14.441c-0.012-0.386-0.058-0.754-0.136-1.111l0.007 0.040c-0.162-0.747-0.431-1.408-0.792-2.006l0.016 0.029c-0.731-1.216-1.781-2.174-3.034-2.775l-0.043-0.018c-0.608-0.296-1.316-0.494-2.063-0.553l-0.021-0.001c-0.091 0-0.179 0-0.279-0.010h-1.998c-0.064 0-0.13 0-0.195 0.014-0.261 0.030-0.515 0.11-0.748 0.234-0.637 0.345-1.075 0.988-1.128 1.736l-0 0.007v6.63c0 0.116-0.008 0.232-0.024 0.347-0.010 0.078-0.029 0.154-0.057 0.228-0.023 0.058-0.054 0.108-0.091 0.153l0.001-0.001c-0.090 0.096-0.207 0.166-0.339 0.197l-0.005 0.001c-0.197 0.050-0.4 0.066-0.603 0.047-0.755-0.076-1.425-0.392-1.943-0.87l0.002 0.002c-0.157-0.146-0.368-0.235-0.6-0.235-0.488 0-0.884 0.396-0.884 0.884 0 0.155 0.040 0.3 0.11 0.427l-0.002-0.005c0.644 1.162 1.487 2.135 2.492 2.907l0.022 0.016c0.501 0.377 1.073 0.702 1.686 0.947l0.050 0.018c0.566 0.228 1.222 0.392 1.906 0.461l0.031 0.003c0.221 0.022 0.477 0.034 0.736 0.034 1.13 0 2.205-0.235 3.179-0.658l-0.052 0.020c1.248-0.525 2.299-1.303 3.127-2.275l0.010-0.012 0.011 0.009c0.452-0.509 0.834-1.093 1.122-1.73l0.018-0.044c0.258-0.606 0.432-1.308 0.484-2.044l0.001-0.021c0.014-0.178 0.023-0.339 0.029-0.509v-0.251c0.007-0.074 0.001-0.175 0-0.263h-0.002z"></path>
</svg>
