<!-- Generated by IcoMoon.io -->
<svg version="1.1" xmlns="http://www.w3.org/2000/svg" width="32" height="32" viewBox="0 0 32 32">
<title>dth</title>
<path fill="#3c80f1" d="M32 16c0 8.837-7.163 16-16 16s-16-7.163-16-16c0-8.837 7.163-16 16-16s16 7.163 16 16z"></path>
<path fill="#fff" d="M16.084 4c-5.47 0.004-9.904 4.436-9.91 9.905 0.005 0.534 0.065 1.066 0.178 1.588 0.016 0.069 0.077 0.119 0.15 0.119 0.034 0 0.065-0.011 0.090-0.029l-0 0c0.36-0.261 0.811-0.417 1.298-0.418h0c0.002 0 0.003 0 0.005 0 0.084 0 0.152-0.068 0.152-0.152 0-0.009-0.001-0.018-0.002-0.026l0 0.001c-0.063-0.321-0.1-0.692-0.102-1.070v-0.002c0-4.496 3.644-8.14 8.14-8.14s8.14 3.644 8.14 8.14v0c0 4.49-5.744 10.225-7.8 12.25-0.087 0.086-0.207 0.139-0.339 0.139s-0.252-0.053-0.339-0.139l0 0c-0.862-0.842-1.689-1.698-2.49-2.577l-0.043-0.048h-0.040c-0.847-0.085-1.625-0.28-2.353-0.57l0.058 0.020-0.136-0.055c-0.019-0.009-0.041-0.014-0.064-0.014-0.084 0-0.152 0.068-0.152 0.152 0 0.038 0.014 0.073 0.037 0.099l-0-0c1.32 1.572 2.643 2.993 4.033 4.344l0.014 0.013c0.38 0.371 0.899 0.599 1.472 0.599s1.093-0.229 1.473-0.6l-0 0c3.62-3.576 8.44-8.866 8.44-13.625-0.006-5.47-4.44-9.901-9.91-9.905z"></path>
<path fill="#fff" d="M20.204 14.907c0 0.14-0.011 0.277-0.024 0.413-0.039 0.555-0.167 1.070-0.369 1.545l0.012-0.031c-0.216 0.48-0.504 0.923-0.853 1.316l0.010 0.009c-0.68 0.758-1.514 1.363-2.454 1.768l-0.046 0.017c-0.724 0.32-1.569 0.506-2.457 0.506-0.192 0-0.383-0.009-0.571-0.026l0.024 0.002c-1.026-0.105-1.95-0.474-2.723-1.038l0.016 0.011c0.257-0.008 0.512-0.047 0.76-0.116 0.243-0.068 0.454-0.161 0.65-0.279l-0.012 0.006c0.429-0.259 0.76-0.643 0.946-1.101l0.006-0.015c0.087-0.213 0.146-0.435 0.178-0.663 0.020-0.19 0.025-0.383 0.018-0.575v-6.49c-0-0.003-0-0.006-0-0.009s0-0.007 0-0.010l-0 0v-0.034c0.030-0.16 0.159-0.283 0.319-0.305l0.002-0h2.143c0.508 0.040 1.005 0.173 1.465 0.393 0.97 0.465 1.755 1.183 2.29 2.069l0.013 0.024c0.132 0.224 0.248 0.458 0.345 0.7 0.093 0.24 0.167 0.49 0.22 0.742s0.083 0.508 0.090 0.765v0.406zM21.968 14.441c-0.012-0.386-0.058-0.754-0.136-1.111l0.007 0.040c-0.162-0.747-0.431-1.408-0.792-2.006l0.016 0.029c-0.731-1.216-1.781-2.174-3.034-2.775l-0.043-0.018c-0.608-0.296-1.316-0.494-2.063-0.553l-0.021-0.001c-0.091 0-0.179 0-0.279-0.010h-1.998c-0.064 0-0.13 0-0.195 0.014-0.261 0.030-0.515 0.11-0.748 0.234-0.637 0.345-1.075 0.988-1.128 1.736l-0 0.007v6.63c0 0.116-0.008 0.232-0.024 0.347-0.010 0.078-0.029 0.154-0.057 0.228-0.023 0.058-0.054 0.108-0.091 0.153l0.001-0.001c-0.090 0.096-0.207 0.166-0.339 0.197l-0.005 0.001c-0.197 0.050-0.4 0.066-0.603 0.047-0.755-0.076-1.425-0.392-1.943-0.87l0.002 0.002c-0.157-0.146-0.368-0.235-0.6-0.235-0.488 0-0.884 0.396-0.884 0.884 0 0.155 0.040 0.3 0.11 0.427l-0.002-0.005c0.644 1.162 1.487 2.135 2.492 2.907l0.022 0.016c0.501 0.377 1.073 0.702 1.686 0.947l0.050 0.018c0.566 0.228 1.222 0.392 1.906 0.461l0.031 0.003c0.221 0.022 0.477 0.034 0.736 0.034 1.13 0 2.205-0.235 3.179-0.658l-0.052 0.020c1.248-0.525 2.299-1.303 3.127-2.275l0.010-0.012 0.011 0.009c0.452-0.509 0.834-1.093 1.122-1.73l0.018-0.044c0.258-0.606 0.432-1.308 0.484-2.044l0.001-0.021c0.014-0.178 0.023-0.339 0.029-0.509v-0.251c0.007-0.074 0.001-0.175 0-0.263h-0.002z"></path>
</svg>
