<!-- Generated by IcoMoon.io -->
<svg version="1.1" xmlns="http://www.w3.org/2000/svg" width="32" height="32" viewBox="0 0 32 32">
<title>ebst</title>
<path fill="#1693d4" d="M32 16c0 8.837-7.163 16-16 16s-16-7.163-16-16c0-8.837 7.163-16 16-16s16 7.163 16 16z"></path>
<path fill="#fff" d="M9.928 16.574c-0.013-0.173-0.021-0.374-0.021-0.577 0-0.177 0.006-0.352 0.017-0.526l-0.001 0.024h-2.8l-3.123-2.498h6.494c1.235-2.956 4.103-4.996 7.448-4.996 0.004 0 0.009 0 0.013 0h-0.001c4.444 0 8.046 3.582 8.046 8s-3.602 8-8.046 8c-0.004 0-0.008 0-0.012 0-3.319 0-6.168-2.008-7.4-4.876l-0.020-0.052h-6.522l3.123-2.498zM22.537 16.149c0-0.83-0.112-1.554-0.337-2.172s-0.537-1.136-0.935-1.55c-0.399-0.415-0.871-0.728-1.418-0.938s-1.14-0.316-1.783-0.316c-0.694 0-1.34 0.118-1.938 0.354s-1.115 0.568-1.552 0.995c-0.437 0.428-0.78 0.944-1.031 1.55s-0.376 1.28-0.376 2.020c0 0.752 0.125 1.425 0.376 2.018s0.597 1.094 1.040 1.502c0.444 0.409 0.968 0.724 1.572 0.948 0.573 0.212 1.234 0.335 1.924 0.335 0.022 0 0.043-0 0.065-0l-0.003 0c1.735 0 3.060-0.613 3.972-1.838l-1.543-1.224c-0.257 0.37-0.584 0.66-0.983 0.87-0.398 0.21-0.887 0.316-1.465 0.316-0.334 0-0.656-0.057-0.964-0.172s-0.585-0.271-0.83-0.469c-0.483-0.387-0.802-0.961-0.848-1.61l-0-0.007h7.038c0.013-0.102 0.019-0.204 0.019-0.306zM20.223 15.115h-4.743c0.052-0.65 0.318-1.183 0.8-1.598 0.483-0.414 1.070-0.622 1.765-0.622 0.372 0 0.697 0.060 0.973 0.182s0.505 0.284 0.685 0.488c0.18 0.204 0.311 0.44 0.395 0.708 0.079 0.247 0.125 0.532 0.125 0.827 0 0.005 0 0.010-0 0.015v-0.001z"></path>
</svg>
