<!-- Generated by IcoMoon.io -->
<svg version="1.1" xmlns="http://www.w3.org/2000/svg" width="32" height="32" viewBox="0 0 32 32">
<title>ebst</title>
<path fill="#1693d4" d="M9.928 16.574h-2.805l-3.123 2.498h6.522c1.252 2.92 4.101 4.928 7.42 4.928 0.004 0 0.008 0 0.013 0h-0.001c4.444 0 8.046-3.582 8.046-8s-3.602-8-8.046-8c-0.004 0-0.008 0-0.012 0-3.344 0-6.212 2.040-7.428 4.943l-0.020 0.053h-6.494l3.123 2.498h2.8c-0.010 0.15-0.016 0.326-0.016 0.503 0 0.203 0.008 0.405 0.022 0.604l-0.002-0.027zM16 32c-8.837 0-16-7.163-16-16s7.163-16 16-16 16 7.163 16 16-7.163 16-16 16zM22.537 16.149v0.306c0 0.102-0.006 0.204-0.020 0.306h-7.037c0.046 0.657 0.366 1.23 0.845 1.614l0.005 0.003c0.244 0.198 0.52 0.354 0.829 0.469s0.63 0.172 0.964 0.172c0.578 0 1.067-0.105 1.465-0.316 0.399-0.21 0.726-0.5 0.983-0.87l1.543 1.224c-0.913 1.225-2.237 1.838-3.972 1.838-0.72 0-1.382-0.112-1.986-0.335-0.608-0.223-1.13-0.545-1.575-0.951l0.004 0.003c-0.442-0.412-0.794-0.912-1.031-1.474l-0.010-0.028c-0.251-0.593-0.376-1.266-0.376-2.019 0-0.74 0.125-1.413 0.376-2.019s0.594-1.122 1.031-1.55c0.437-0.427 0.955-0.759 1.552-0.995s1.244-0.354 1.938-0.354c0.643 0 1.237 0.105 1.783 0.316s1.019 0.523 1.418 0.937c0.398 0.415 0.71 0.932 0.935 1.55s0.337 1.343 0.337 2.173zM20.223 15.115c0-0.004 0-0.009 0-0.015 0-0.295-0.046-0.58-0.13-0.847l0.005 0.020c-0.085-0.274-0.221-0.51-0.397-0.71l0.002 0.002c-0.18-0.204-0.408-0.367-0.685-0.488s-0.6-0.182-0.973-0.182c-0.694 0-1.282 0.208-1.765 0.622-0.46 0.39-0.762 0.955-0.8 1.592l-0 0.006z"></path>
</svg>
