<!-- Generated by IcoMoon.io -->
<svg version="1.1" xmlns="http://www.w3.org/2000/svg" width="32" height="32" viewBox="0 0 32 32">
<title>eca</title>
<path fill="#aa15dd" d="M32 16c0 8.837-7.163 16-16 16s-16-7.163-16-16c0-8.837 7.163-16 16-16s16 7.163 16 16z"></path>
<path fill="#fff" d="M15.999 25.612c0.24 0.001 0.435 0.2 0.436 0.444 0 0.001 0 0.003 0 0.004 0 0.241-0.194 0.437-0.435 0.44h-0c-0.241-0.002-0.436-0.198-0.436-0.44 0-0.001 0-0.003 0-0.004v0c0-0.001-0-0.003-0-0.004 0-0.242 0.195-0.438 0.436-0.44h0zM7.219 11.358c-0.132-0.080-0.219-0.223-0.219-0.386 0-0.082 0.022-0.159 0.060-0.225l-0.001 0.002c0.076-0.134 0.218-0.222 0.38-0.222 0.203 0 0.374 0.139 0.422 0.327l0.001 0.003c0.010 0.035 0.015 0.074 0.015 0.115 0 0.143-0.067 0.271-0.171 0.353l-0.001 0.001c-0.073 0.057-0.165 0.092-0.266 0.092-0.081 0-0.157-0.022-0.222-0.061l0.002 0.001zM7.219 20.652c0.062-0.037 0.137-0.058 0.218-0.058 0.162 0 0.303 0.088 0.377 0.219l0.001 0.002c0.037 0.064 0.058 0.14 0.058 0.221 0 0.163-0.087 0.305-0.216 0.384l-0.002 0.001c-0.063 0.037-0.138 0.059-0.218 0.059-0.162 0-0.302-0.089-0.377-0.22l-0.001-0.002c-0.037-0.064-0.058-0.14-0.058-0.221 0-0.163 0.087-0.305 0.216-0.384l0.002-0.001zM24.779 11.358c-0.062 0.037-0.137 0.059-0.218 0.059-0.162 0-0.303-0.088-0.377-0.219l-0.001-0.002c-0.038-0.065-0.060-0.142-0.060-0.225 0-0.102 0.034-0.196 0.091-0.272l-0.001 0.001c0.080-0.107 0.206-0.175 0.348-0.175 0.040 0 0.080 0.006 0.117 0.016l-0.003-0.001c0.19 0.055 0.326 0.227 0.326 0.431 0 0.164-0.088 0.308-0.22 0.386l-0.002 0.001zM16 6.388c-0.238-0.006-0.429-0.201-0.429-0.44 0-0.001 0-0.003 0-0.004v0c0-0.18 0.108-0.343 0.271-0.411 0.049-0.021 0.106-0.033 0.166-0.033 0.122 0 0.233 0.051 0.311 0.133l0 0c0.078 0.081 0.125 0.191 0.125 0.311 0 0.063-0.013 0.123-0.036 0.177l0.001-0.003c-0.067 0.159-0.222 0.269-0.403 0.269-0.002 0-0.004-0-0.007-0h0zM23.8 20.582c-0.074 0.128-0.118 0.282-0.118 0.446 0 0.285 0.132 0.539 0.338 0.705l0.002 0.001-7.151 4.2c-0.058-0.434-0.425-0.766-0.87-0.769h-0c-0.445 0.003-0.812 0.335-0.87 0.764l-0.001 0.005-7.153-4.2c0.207-0.167 0.338-0.421 0.338-0.705 0-0.164-0.044-0.318-0.12-0.451l0.002 0.004c-0.152-0.269-0.436-0.447-0.761-0.447-0.118 0-0.231 0.024-0.334 0.066l0.006-0.002v-8.4c0.097 0.040 0.21 0.064 0.328 0.064 0.325 0 0.608-0.178 0.758-0.442l0.002-0.004c0.074-0.129 0.118-0.283 0.118-0.447 0-0.283-0.13-0.536-0.334-0.701l-0.002-0.001 7.151-4.2c0.058 0.434 0.425 0.766 0.87 0.769h0c0.445-0.003 0.812-0.335 0.869-0.766l0-0.005 7.153 4.2c-0.206 0.167-0.337 0.42-0.337 0.704 0 0.164 0.044 0.317 0.12 0.45l-0.002-0.004c0.152 0.269 0.436 0.447 0.761 0.447 0.118 0 0.231-0.024 0.334-0.066l-0.006 0.002v8.395c-0.097-0.040-0.21-0.064-0.328-0.064-0.327 0-0.612 0.18-0.762 0.447l-0.002 0.004zM17.688 19.295c-0.526 0.314-1.161 0.5-1.839 0.5-1.202 0-2.267-0.584-2.927-1.484l-0.007-0.010 10.372-6.085c0.2-0.117 0.27-0.377 0.156-0.581-0.070-0.129-0.204-0.215-0.359-0.215-0.079 0-0.152 0.022-0.215 0.061l0.002-0.001-2.382 1.405c-0.905-1.339-2.342-2.26-4.001-2.457l-0.027-0.003v-2.729c0-0.001 0-0.003 0-0.004 0-0.239-0.193-0.434-0.432-0.436h-0c-0.239 0.002-0.433 0.196-0.433 0.436 0 0.001 0 0.003 0 0.004v-0 2.704c-0.935 0.047-1.798 0.321-2.545 0.768l0.025-0.014c-0.701 0.416-1.286 0.954-1.742 1.59l-0.012 0.017-2.184-1.281c-0.060-0.036-0.132-0.057-0.209-0.057-0.155 0-0.29 0.085-0.361 0.211l-0.001 0.002c-0.035 0.061-0.056 0.134-0.056 0.211 0 0.156 0.083 0.292 0.207 0.368l0.002 0.001 2.167 1.274c-0.382 0.75-0.606 1.635-0.606 2.573 0 0.151 0.006 0.301 0.017 0.449l-0.001-0.020 0.201 1.144c0.090 0.31 0.203 0.612 0.341 0.903l-2.119 1.245c-0.126 0.076-0.209 0.213-0.209 0.369 0 0.079 0.021 0.153 0.058 0.216l-0.001-0.002c0.073 0.128 0.208 0.212 0.363 0.212 0.078 0 0.15-0.021 0.212-0.058l-0.002 0.001 2.127-1.246c0.969 1.402 2.527 2.338 4.309 2.449l0.016 0.001v2.578c0 0.243 0.194 0.44 0.433 0.44 0.239-0.002 0.432-0.197 0.432-0.436 0-0.001 0-0.003-0-0.004v0-2.6c0.823-0.087 1.57-0.347 2.225-0.743l-0.024 0.013c0.764-0.459 1.39-1.072 1.852-1.799l0.013-0.023 2.337 1.368c0.2 0.114 0.452 0.043 0.567-0.159 0.036-0.061 0.057-0.135 0.057-0.214 0-0.154-0.081-0.289-0.203-0.365l-2.354-1.381c0.006-0.013 0.020-0.028 0.020-0.044 0.714-1.644-1.197-2.35-1.622-1.084-0.294 0.864-0.873 1.567-1.622 2.013l-0.017 0.009zM24.78 20.652c0.132 0.080 0.218 0.223 0.218 0.386 0 0.081-0.022 0.158-0.059 0.224l0.001-0.002c-0.075 0.133-0.216 0.221-0.377 0.221-0.081 0-0.156-0.022-0.221-0.061l0.002 0.001c-0.132-0.080-0.218-0.222-0.218-0.385 0-0.081 0.022-0.158 0.060-0.223l-0.001 0.002c0.075-0.134 0.216-0.222 0.378-0.222 0.080 0 0.156 0.022 0.22 0.060l-0.002-0.001zM12.284 16.587c-0.043-1.667 0.155-2.83 1.734-3.758 0.525-0.314 1.159-0.5 1.836-0.5 0.872 0 1.671 0.308 2.296 0.821l-0.006-0.005-5.86 3.442z"></path>
</svg>
