<!-- Generated by IcoMoon.io -->
<svg version="1.1" xmlns="http://www.w3.org/2000/svg" width="32" height="32" viewBox="0 0 32 32">
<title>edg</title>
<path fill="#2b1544" d="M32 16c0 8.837-7.163 16-16 16s-16-7.163-16-16c0-8.837 7.163-16 16-16s16 7.163 16 16z"></path>
<path fill="#fff" d="M24.99 12.502v6.656c0 0.296 0.015 0.598-0.052 0.889-0.161 0.698-0.514 1.298-1 1.759l-0.002 0.002c-0.236 0.227-0.53 0.374-0.811 0.54-1.907 1.11-3.808 2.223-5.714 3.335-0.582 0.311-1.27 0.364-1.916 0.284-0.358-0.045-0.683-0.156-0.973-0.321l0.013 0.007c-2.007-1.17-4.014-2.343-6.020-3.512-0.49-0.273-0.856-0.723-1.125-1.207-0.22-0.42-0.381-0.882-0.381-1.363v-7.186c0.037-0.7 0.347-1.363 0.788-1.892 0.179-0.223 0.39-0.41 0.628-0.558l0.011-0.006c1.865-1.086 3.73-2.176 5.594-3.266 0.307-0.17 0.598-0.378 0.93-0.492 0.318-0.103 0.683-0.162 1.062-0.162 0.238 0 0.47 0.023 0.695 0.068l-0.023-0.004c0.257 0.072 0.519 0.148 0.75 0.284 2.030 1.191 4.063 2.373 6.092 3.565 0.541 0.32 0.938 0.855 1.196 1.426 0.163 0.36 0.257 0.757 0.257 1.155zM15.94 10.026c-0.449 0.661-0.938 1.237-1.483 1.756l-0.004 0.004c-0.292 0.277-0.573 0.576-0.74 0.947-0.134 0.262-0.224 0.56-0.186 0.86 0.045 0.404 0.333 0.76 0.707 0.904 0.38 0.152 0.81 0.118 1.188-0.030 0.047-0.022 0.102-0.034 0.16-0.034 0.020 0 0.040 0.002 0.059 0.004l-0.002-0c-0.074 0.474-0.362 0.874-0.59 1.283l0.010 0.068c0.206 0.22 0.423 0.428 0.628 0.644 0.052 0.049 0.1 0.117 0.172 0.14 0.239-0.185 0.426-0.428 0.646-0.632 0.049-0.056 0.15-0.117 0.097-0.204-0.213-0.4-0.449-0.805-0.516-1.267 0.040-0.094 0.153-0.015 0.22 0.008 0.355 0.174 0.784 0.2 1.155 0.057 0.505-0.193 0.819-0.784 0.706-1.318-0.086-0.48-0.34-0.92-0.684-1.256-0.53-0.545-1.039-1.127-1.401-1.801-0.026-0.063-0.077-0.111-0.14-0.133l-0.002-0.001zM12.307 16.536c-0.6 0.326-1.001 0.965-1.1 1.644-0.137 0.953 0.42 1.949 1.283 2.339 0.546 0.235 1.18 0.23 1.73 0.015 0.284-0.114 0.527-0.3 0.736-0.519 0.079-0.084 0.194-0.159 0.194-0.288-0.010-0.129-0.126-0.2-0.201-0.288-0.098-0.087-0.176-0.2-0.288-0.269-0.18-0.079-0.288 0.118-0.404 0.216-0.455 0.462-1.274 0.466-1.74 0.015-0.243-0.229-0.395-0.554-0.395-0.914 0-0.073 0.006-0.144 0.018-0.213l-0.001 0.007c0.056-0.383 0.284-0.746 0.624-0.928 0.22-0.11 0.467-0.17 0.71-0.159 0.343 0.022 0.657 0.204 0.889 0.454 0.792 0.788 1.554 1.605 2.343 2.396 0.418 0.413 0.997 0.678 1.587 0.655 0.45 0.010 0.883-0.17 1.249-0.424 0.539-0.375 0.867-1.026 0.9-1.684 0.072-1.042-0.683-2.093-1.7-2.294-0.649-0.132-1.382 0.004-1.882 0.466-0.356 0.324-0.68 0.688-1.032 1.021-0.363-0.299-0.65-0.677-1.005-0.983-0.147-0.14-0.319-0.254-0.509-0.337l-0.011-0.004c-0.036-0.023-0.048-0.034-0.096-0.053-0.243-0.106-0.525-0.167-0.822-0.167-0.397 0-0.769 0.11-1.086 0.302l0.009-0.005zM17.344 17.588c0.259-0.258 0.625-0.409 0.99-0.379 0.396 0.011 0.78 0.223 0.99 0.564 0.328 0.5 0.232 1.219-0.19 1.631-0.434 0.421-1.178 0.474-1.645 0.076-0.347-0.295-0.638-0.647-0.97-0.957-0.004-0.022-0.008-0.064-0.012-0.083 0.277-0.288 0.56-0.564 0.837-0.852z"></path>
</svg>
