<!-- Generated by IcoMoon.io -->
<svg version="1.1" xmlns="http://www.w3.org/2000/svg" width="32" height="32" viewBox="0 0 32 32">
<title>edo</title>
<path fill="#242424" d="M32 16c0 8.837-7.163 16-16 16s-16-7.163-16-16c0-8.837 7.163-16 16-16s16 7.163 16 16z"></path>
<path fill="#fff" d="M13.060 23.874l2.683-2.697 2.694 2.697-1.719 1.722c-0.249 0.25-0.594 0.405-0.975 0.405s-0.726-0.155-0.975-0.405l-0-0zM20.010 14.632l-2.692-2.697 2.693-2.697 2.692 2.697zM19.341 22.995l-2.693-2.697 7.23-7.242 1.718 1.721c0.539 0.54 0.539 1.413 0 1.953zM11.938 22.717l-2.692-2.697 7.218-7.23 2.692 2.697zM8.116 18.917l-1.719-1.722c-0.245-0.249-0.397-0.592-0.397-0.969 0-0.384 0.157-0.732 0.41-0.982l0-0 1.718-1.722 2.693 2.698zM18.883 8.129l-7.23 7.238-2.693-2.697 6.255-6.266c0.249-0.25 0.594-0.405 0.975-0.405s0.726 0.155 0.975 0.405l0 0z"></path>
</svg>
