<!-- Generated by IcoMoon.io -->
<svg version="1.1" xmlns="http://www.w3.org/2000/svg" width="32" height="32" viewBox="0 0 32 32">
<title>edoge</title>
<path fill="#0facf3" d="M32 16c0 8.837-7.163 16-16 16s-16-7.163-16-16c0-8.837 7.163-16 16-16s16 7.163 16 16z"></path>
<path fill="#fff" d="M9.471 9.016h5.432c2.154 0 3.224-0.068 4.83 0.079 1.607 0.17 3.214 0.826 4.254 2.083 1.225 1.46 1.583 3.43 1.502 5.263-0.080 1.823-0.705 3.735-2.138 4.98-1.271 1.144-3.050 1.563-4.738 1.574-3.282 0.011-6.553 0-9.835 0-0.358-0.023-0.763 0.011-1.040-0.238-0.485-0.486-0.196-1.528 0.578-1.483 1.826-0.056 3.663 0 5.49-0.034-0.035-1.539-0.012-3.078-0.012-4.606-1.41-0.012-2.809 0-4.218 0-0.313-0.012-0.66-0.012-0.902-0.216-0.289-0.26-0.289-0.701-0.162-1.040 0.162-0.374 0.601-0.442 0.971-0.442 1.433-0.012 2.878 0 4.31 0 0.024-1.404-0.022-2.808 0.024-4.2-1.607-0.011-3.213 0-4.82 0-0.358-0.011-0.762-0.011-1.040-0.26-0.288-0.374-0.23-0.906 0.012-1.28 0.462-0.226 0.994-0.18 1.502-0.18zM15.805 14.936c0.658 0.011 1.317-0.046 1.976 0.045 0.786 0.113 0.786 1.494-0.012 1.607-0.647 0.102-1.317 0.034-1.976 0.046 0.012 1.335 0 2.66 0 3.995 0.012 0.227 0.023 0.566 0.312 0.589 0.786 0.068 1.47 0.045 2.358 0.045 1.317 0.057 2.704-0.35 3.628-1.313 0.948-1.007 1.295-2.41 1.318-3.747 0.035-1.482-0.243-3.112-1.33-4.222-0.981-0.996-2.46-1.335-3.836-1.256-0.784 0-1.456-0.023-2.184 0.045-0.231 0.068-0.243 0.351-0.254 0.555v3.61z"></path>
</svg>
