<!-- Generated by IcoMoon.io -->
<svg version="1.1" xmlns="http://www.w3.org/2000/svg" width="32" height="32" viewBox="0 0 32 32">
<title>elf</title>
<path fill="#2b5ebb" d="M32 16c0 8.837-7.163 16-16 16s-16-7.163-16-16c0-8.837 7.163-16 16-16s16 7.163 16 16z"></path>
<path fill="#fff" d="M26 15.962c-0.001 2.336-1.81 4.158-4.122 4.151-2.264-0.007-4.102-1.879-4.090-4.166s1.87-4.15 4.122-4.135c2.299 0.015 4.091 1.834 4.090 4.15zM9.090 23.92c-0.001 0-0.001 0-0.002 0-1.667 0-3.019-1.352-3.019-3.019 0-0.012 0-0.025 0-0.037l-0 0.002c0.005-1.706 1.339-3.085 3.016-3.046 0.482 0.011 0.966 0.191 1.436 0.338 0.668 0.209 1.32 0.468 1.986 0.686 0.413 0.136 0.808 0.040 1.173-0.186 0.53-0.33 0.98-0.728 1.267-1.312 0.29-0.594 0.95-0.815 1.537-0.563 0.544 0.234 0.827 0.827 0.67 1.403-0.177 0.647-0.71 0.995-1.374 0.879-0.589-0.103-1.173-0.293-1.771-0.076-1.070 0.389-1.54 1.275-1.892 2.286-0.192 0.553-0.396 1.134-0.74 1.59-0.552 0.736-1.364 1.059-2.287 1.055zM9.026 8.082c1.367 0 2.432 0.8 2.896 2.117 0.184 0.52 0.46 1.007 0.696 1.508 0.583 1.24 2.046 1.362 2.974 1.023 0.822-0.3 1.614 0.228 1.633 1.080 0.013 0.59-0.29 1.020-0.844 1.194-0.49 0.152-1.042-0.055-1.342-0.502-0.107-0.16-0.207-0.326-0.326-0.477-0.816-1.030-1.722-1.3-2.95-0.838-0.428 0.16-0.829 0.4-1.231 0.623-0.429 0.249-0.944 0.396-1.494 0.396-1.208 0-2.25-0.71-2.733-1.735l-0.008-0.018c-0.956-2.030 0.504-4.37 2.728-4.37zM18.556 23.99c-0.012 1.119-0.925 2.030-2.015 2.010-1.053-0.020-1.933-0.927-1.96-1.947-0.029-1.154 0.819-2.093 1.998-2.104 1.128-0.011 1.99 0.919 1.978 2.040zM14.594 8.020c0-1.132 0.886-2.030 1.995-2.020 1.078 0.010 1.98 0.933 1.971 2.018-0.008 1.141-0.862 2.056-1.986 2.035-1.279-0.024-2.032-1.055-1.98-2.033z"></path>
</svg>
