<!-- Generated by IcoMoon.io -->
<svg version="1.1" xmlns="http://www.w3.org/2000/svg" width="32" height="32" viewBox="0 0 32 32">
<title>elix</title>
<path fill="#00aded" d="M32 16c0 8.837-7.163 16-16 16s-16-7.163-16-16c0-8.837 7.163-16 16-16s16 7.163 16 16z"></path>
<path fill="#fff" d="M10.097 23.603l0.002-0.004 3.188-7.616-3.19-7.615 5.885 7.615-5.881 7.615zM21.873 23.603l-0.004-0.005-5.881-7.615 5.885-7.615-3.19 7.615 3.188 7.616z"></path>
<path fill="#fff" opacity="0.8" d="M15.985 15.984v5.306l-5.89 2.31 5.89-7.62v-5.306l5.89-2.31z"></path>
<path fill="#fff" opacity="0.5" d="M15.985 21.29v4.651l-5.89-2.344 5.89-2.315v-5.298l-5.89-7.62 5.89 2.31v-4.651l5.89 2.343-5.89 2.315v5.299l5.89 7.62z"></path>
<path fill="#fff" opacity="0.145" d="M10.095 8.366l5.89-2.343v4.658zM21.875 23.597l-5.89 2.344v-4.659z"></path>
</svg>
