<!-- Generated by IcoMoon.io -->
<svg version="1.1" xmlns="http://www.w3.org/2000/svg" width="32" height="32" viewBox="0 0 32 32">
<title>ella</title>
<path fill="#396a28" d="M32 16c0 8.837-7.163 16-16 16s-16-7.163-16-16c0-8.837 7.163-16 16-16s16 7.163 16 16z"></path>
<path fill="#fff" d="M18.073 13.212l-2.073-2.072-2.087 2.086-2.164-2.164 4.251-6.062 4.28 6.005zM13.19 13.95l-2.050 2.050 2.072 2.073-2.156 2.156-6.056-4.229 5.99-4.25zM18.774 18.087l2.086-2.087-2.064-2.064 2.226-2.226 5.978 4.29-6.044 4.269zM13.936 18.797l2.064 2.063 2.050-2.050 2.182 2.183-4.232 6.007-4.204-6.064zM16 12.527l3.472 3.473-3.472 3.472-3.472-3.472z"></path>
</svg>
