<!-- Generated by IcoMoon.io -->
<svg version="1.1" xmlns="http://www.w3.org/2000/svg" width="32" height="32" viewBox="0 0 32 32">
<title>eng</title>
<path fill="#2f2f2f" d="M32 16c0 8.837-7.163 16-16 16s-16-7.163-16-16c0-8.837 7.163-16 16-16s16 7.163 16 16z"></path>
<path fill="#fff" d="M25.149 10.295c0.114 0.060 0.375 0.202 0.35 0.511l-0.016 10.417c0.001 0.011 0.001 0.023 0.001 0.036 0 0.194-0.115 0.36-0.281 0.435l-0.003 0.001-8.964 5.233c-0.058 0.045-0.132 0.072-0.213 0.072-0 0-0.001 0-0.001 0h0c-0.102-0.003-0.196-0.036-0.275-0.089l0.002 0.001-3.342-1.928c-1.856-1.071-3.776-2.179-5.668-3.267-0.159-0.077-0.252-0.256-0.238-0.46l0.007-2.752c0.006-2.476 0.010-4.991 0.012-7.423v-0.010c0.001-0.010 0.001-0.021 0.001-0.033 0-0.006-0-0.012-0-0.018l0 0.001v-0.031c-0.004-0.135-0.010-0.412 0.25-0.537 1.060-0.633 2.144-1.276 3.193-1.898l1.737-1.030c1.322-0.783 2.668-1.582 3.97-2.355l0.010-0.006c0.075-0.044 0.162-0.086 0.253-0.121l0.013-0.004 0.103-0.040 0.096 0.057c0.946 0.548 1.908 1.108 2.837 1.65l6.166 3.588zM16.38 25.965l2.962-1.73c40.602-22.294 42.363-23.336 44.124-24.379l-38.737 21.236 0.010-5.849 0.005-3.865-3.85 2.252v1.776c-0.001 0.339-0.002 0.74-0.002 1.141 0 0.768 0.003 1.535 0.009 2.301l-0.001-0.118v0.076l-0.045 0.062c-0.049 0.066-0.111 0.119-0.181 0.159l-0.003 0.002-0.026 0.016h-0.001l-1.244 0.725c-0.45 0.26-0.915 0.53-1.37 0.797l-1.644 0.955zM12.184 13.41c-5.367-2.854-4.542-2.374-3.716-1.895l6.24 3.342 1.304 0.749 3.777-2.208-3.783-2.232zM11.794 14.060l0.071 4.389 3.768 2.195 0.006-4.379zM7.274 11.466l-0.019 9.675 8.374 4.83 0.003-4.451-2.668-1.554c-0.527-0.306-1.072-0.623-1.607-0.936-0.155-0.073-0.252-0.251-0.241-0.446l-0.081-4.959zM24.368 10.72l-3.091-1.801c-1.544-0.896-3.375-1.96-5.264-3.066-16.974 9.51-18.848 10.635-20.72 11.762l14.984-8.365-2.626 1.557 3.778 2.165 4.334-2.545c0.069-0.045 0.152-0.071 0.243-0.071 0.096 0 0.186 0.030 0.259 0.082l-0.001-0.001 4.276 2.521zM16.386 20.647c-7.791 4.206-6.552 3.476-5.313 2.747l9.105-4.951v-4.393l-3.789 2.214zM21.513 19.854l0.003-0.001c0.134-0.033 0.243-0.129 0.295-0.257l-0.001 0.003c0.027-0.059 0.042-0.125 0.042-0.195 0-0.12-0.045-0.23-0.119-0.312l-0.001-0.002c-0.087-0.097-0.207-0.153-0.33-0.153h-0c-0.219 0.004-0.4 0.164-0.436 0.377l0.001-0.003c-0.006 0.031-0.010 0.063-0.010 0.096 0 0.137 0.059 0.261 0.154 0.347l0 0c0.071 0.072 0.171 0.117 0.28 0.117 0.002 0 0.004 0 0.006-0h-0c0.001 0 0.001 0 0.002 0 0.041 0 0.080-0.006 0.114-0.017zM23.577 21.262l-0-0c0.071 0.063 0.165 0.101 0.267 0.101h0c0.231-0.001 0.421-0.175 0.449-0.401l-0 0.003c0.004-0.024 0.006-0.049 0.006-0.075 0-0.16-0.082-0.301-0.208-0.385-0.074-0.050-0.158-0.077-0.244-0.077h-0c-0.082 0-0.158 0.025-0.22 0.066-0.132 0.080-0.214 0.221-0.222 0.38l0-0.002c-0.001 0.011-0.001 0.023-0.001 0.035 0 0.144 0.067 0.272 0.173 0.355zM10.388 18.942h-0.001c-0.217 0.005-0.398 0.161-0.44 0.37l0.001-0.003c-0.008 0.033-0.012 0.068-0.012 0.103 0 0.246 0.195 0.446 0.439 0.456h-0c0.002 0 0.005 0 0.008 0 0.184 0 0.341-0.112 0.409-0.274l-0.001 0.003c0.027-0.058 0.042-0.123 0.042-0.192 0-0.118-0.045-0.226-0.118-0.307-0.083-0.099-0.202-0.156-0.327-0.156zM22.344 20.518l-0.001-0.001c0.075 0.063 0.171 0.1 0.277 0.1 0.057 0 0.111-0.011 0.157-0.030l0.003-0.001c0.142-0.052 0.25-0.176 0.279-0.331 0.042-0.16-0.011-0.331-0.138-0.449-0.084-0.078-0.19-0.122-0.3-0.122l-0.001 0c-0.222 0.008-0.403 0.173-0.437 0.39l0-0.003c-0.005 0.028-0.008 0.056-0.008 0.085 0 0.144 0.065 0.274 0.168 0.36zM9.439 19.795c-0.082-0.072-0.179-0.11-0.279-0.11h-0c-0.056 0-0.109 0.012-0.155 0.032l-0.003 0.001c-0.159 0.061-0.274 0.211-0.286 0.39l0-0.002c-0.002 0.017-0.003 0.034-0.003 0.052 0 0.166 0.087 0.312 0.22 0.396l-0.002-0.001c0.065 0.041 0.141 0.066 0.224 0.067h0c0.069-0.001 0.134-0.017 0.19-0.044h0.001l0.003-0.001c0.132-0.060 0.228-0.183 0.251-0.333 0.034-0.162-0.028-0.337-0.161-0.447zM15.95 6.167h-0c-0.027 0-0.052 0.003-0.075 0.007l-0.002 0c-0.154 0.022-0.284 0.12-0.35 0.259l0-0.001c-0.030 0.060-0.047 0.128-0.047 0.2 0 0.091 0.027 0.176 0.072 0.245l0.001 0.002c0.082 0.126 0.224 0.209 0.386 0.209 0.031 0 0.062-0.003 0.089-0.009h0.005l0.002-0c0.179-0.026 0.323-0.161 0.364-0.338 0.040-0.15 0-0.307-0.107-0.42-0.087-0.098-0.21-0.154-0.34-0.154zM8.15 20.49l0.002 0.001c-0.063-0.039-0.138-0.061-0.218-0.061s-0.154 0.022-0.216 0.060c-0.142 0.080-0.231 0.237-0.231 0.41v-0c-0 0.003-0 0.005-0 0.008 0 0.171 0.094 0.321 0.236 0.401l-0.002-0.001c0.059 0.035 0.128 0.055 0.202 0.055 0.001 0 0.002 0 0.004-0h0c0.091-0.001 0.175-0.028 0.244-0.074l0.002-0.001c0.126-0.081 0.21-0.222 0.21-0.383 0-0.008-0-0.017-0.001-0.024 0.001-0.16-0.087-0.308-0.232-0.39zM16.191 9.205l0.002 0.001c-0.075-0.049-0.165-0.077-0.261-0.077-0 0-0.001 0-0.001 0h0c-0.001 0-0.001 0-0.002 0-0.083 0-0.16 0.022-0.225 0.060l-0.002 0.001c-0.131 0.070-0.222 0.205-0.231 0.363l0-0.002c-0.001 0.014-0.002 0.029-0.002 0.044 0 0.146 0.070 0.275 0.18 0.357l-0.001-0.001c0.077 0.061 0.174 0.097 0.279 0.097 0.002 0 0.003 0 0.005-0h0c0.072-0 0.141-0.017 0.2-0.044l0.003-0.001c0.15-0.063 0.257-0.207 0.269-0.378l-0 0.001c0.001-0.011 0.001-0.022 0.001-0.033 0-0.163-0.085-0.307-0.216-0.389zM15.62 8.447l-0-0c0.079 0.076 0.187 0.122 0.305 0.122 0.002 0 0.004 0 0.005-0h0c0.072-0 0.141-0.017 0.2-0.044l0.003-0.001c0.159-0.068 0.27-0.225 0.272-0.409l-0 0.001c0-0.005 0-0.010 0-0.014 0-0.17-0.095-0.318-0.236-0.395l-0.001-0.001c-0.073-0.039-0.153-0.060-0.233-0.060h0c-0.001 0-0.002 0-0.003 0-0.090 0-0.174 0.027-0.242 0.073l-0.002 0.001c-0.12 0.074-0.203 0.202-0.217 0.351v0.003l0-0.002c-0.001 0.014-0.002 0.029-0.002 0.044 0 0.132 0.058 0.25 0.15 0.332z"></path>
</svg>
