<!-- Generated by IcoMoon.io -->
<svg version="1.1" xmlns="http://www.w3.org/2000/svg" width="32" height="32" viewBox="0 0 32 32">
<title>enj</title>
<path fill="#624dbf" d="M32 16c0 8.837-7.163 16-16 16s-16-7.163-16-16c0-8.837 7.163-16 16-16s16 7.163 16 16z"></path>
<path fill="#fff" d="M22.313 9c0.494 0.057 0.994 0.088 1.482 0.176 0.967 0.183 1.283 0.643 1.119 1.576-0.066 0.378-0.31 0.611-0.698 0.674-0.209 0.031-0.451 0.049-0.697 0.050h-0.001c-3.173 0.007-6.353 0.013-9.526 0.026-0.48 0-0.955 0.044-1.422 0.12-1.574 0.246-2.166 0.87-2.298 2.388-0.060 0.713-0.060 0.713 0.685 0.713h13.028c0.205 0.006 0.402 0.044 0.573 0.15 0.58 0.354 0.435 0.908 0.402 1.419-0.026 0.41-0.283 0.636-0.724 0.718-0.152 0.024-0.327 0.038-0.505 0.038-0.019 0-0.038-0-0.058-0l0.003 0h-12.99c-0.48 0-0.473 0-0.434 0.454 0.033 0.416 0.060 0.826 0.165 1.229 0.197 0.75 0.678 1.216 1.455 1.424 0.862 0.233 1.751 0.284 2.64 0.29 3.1 0.019 6.195 0.013 9.296 0.013 0.395 0 0.763 0.050 0.994 0.397 0.448 0.668 0.099 1.6-0.685 1.84-0.671 0.208-1.376 0.258-2.074 0.265-2.91 0.050-5.82 0.057-8.73 0-0.961-0.025-1.881-0.132-2.774-0.313l0.102 0.017c-2.074-0.41-3.108-1.418-3.457-3.41-0.079-0.46-0.125-0.926-0.184-1.387v-3.636c0.040-0.36 0.072-0.718 0.119-1.071 0.276-2.257 1.33-3.366 3.647-3.857 0.823-0.177 1.665-0.215 2.495-0.297 3.009-0.006 6.029-0.006 9.052-0.006z"></path>
</svg>
