<!-- Generated by IcoMoon.io -->
<svg version="1.1" xmlns="http://www.w3.org/2000/svg" width="32" height="32" viewBox="0 0 32 32">
<title>eon</title>
<path fill="#443f54" d="M32 16c0 8.837-7.163 16-16 16s-16-7.163-16-16c0-8.837 7.163-16 16-16s16 7.163 16 16z"></path>
<path fill="#fefffe" opacity="0.7" d="M15.508 26.708c-1.416-0.862-3.139-1.908-4.554-2.77-0.616-0.369-1.292-0.738-1.908-1.169-0.246-0.184-0.246-0.369-0.246-0.492 0.615-2.892 1.292-6.030 1.97-8.862l-0.432-1.353s-1.476 7.076-2.215 10.215c-0.123 0.43 0 0.677 0.43 0.923 2.4 1.415 7.262 4.492 7.262 4.492l-0.307-0.984zM16.677 26.708c1.415-0.862 3.138-1.908 4.554-2.77 0.615-0.369 1.292-0.738 1.907-1.169 0.247-0.184 0.247-0.369 0.247-0.492-0.616-2.892-1.293-6.030-1.97-8.862l0.493-1.292s1.477 7.015 2.154 10.154c0.123 0.43 0 0.677-0.431 0.923-2.4 1.415-7.262 4.492-7.262 4.492l0.308-0.984zM21.354 12.185l-0.246-0.37h-9.97l-0.246 0.37s0.185 0.492 0.123 0.307h10.277c-0.123 0.123 0.062-0.307 0.062-0.307z"></path>
<path fill="#fefffe" d="M21.662 11.63s-3.385-4.921-4.862-7.075c-0.308-0.37-0.492-0.554-0.677-0.554s-0.43 0.185-0.677 0.554c-1.477 2.092-4.861 7.077-4.861 7.077-0.308 0.43-0.308 0.554-0.062 1.107 0 0 2.4 6.647 3.385 9.6 0.492 1.354 1.784 5.231 1.784 5.231 0.062 0.123 0.308 0.185 0.431 0.185 0.168-0.008 0.318-0.077 0.43-0.185l-0 0s1.355-3.877 1.785-5.23c0.985-2.893 3.385-9.6 3.385-9.6 0.246-0.554 0.246-0.677-0.061-1.108zM16.123 25.538c6.555 21.559 4.967 17.109 3.387 12.655l-8.064-26.070s3.323-4.861 4.616-6.77c1.292 1.909 4.615 6.77 4.615 6.77s-3.139 9.23-4.554 13.415z"></path>
</svg>
