<!-- Generated by IcoMoon.io -->
<svg version="1.1" xmlns="http://www.w3.org/2000/svg" width="32" height="32" viewBox="0 0 32 32">
<title>eqli</title>
<path fill="#c9a35e" d="M32 16c0 8.837-7.163 16-16 16s-16-7.163-16-16c0-8.837 7.163-16 16-16s16 7.163 16 16z"></path>
<path fill="#fff" d="M10.027 19.38c-0.062 0.125-0.188 0.21-0.334 0.21h-4.073c-0.134-0.001-0.25-0.073-0.314-0.18l-0.001-0.002c-0.035-0.055-0.055-0.123-0.055-0.195 0-0.065 0.017-0.126 0.046-0.179l-0.001 0.002 7.404-13.346c0.133-0.239 0.515-0.239 0.648 0l5.772 10.378c0.026 0.051 0.042 0.112 0.042 0.177 0 0.072-0.019 0.139-0.053 0.197l0.001-0.002c-0.060 0.109-0.174 0.181-0.304 0.181-0.004 0-0.008-0-0.011-0h-1.687c-0.138-0.002-0.258-0.077-0.323-0.188l-0.001-0.002-3.75-6.82-4.196 7.755h1.602c0.131 0.001 0.246 0.068 0.314 0.17l0.001 0.001c0.035 0.056 0.056 0.125 0.056 0.199 0 0.060-0.014 0.116-0.039 0.166l0.001-0.002-0.744 1.478zM26.701 19.036c0.031 0.051 0.049 0.112 0.049 0.178 0 0.072-0.022 0.139-0.059 0.195l0.001-0.001c-0.060 0.109-0.174 0.181-0.304 0.181-0.003 0-0.007-0-0.010-0h-11.113c-0.205 0-0.372-0.167-0.372-0.372v0-1.477c0-0.21 0.171-0.372 0.372-0.372h7.908l-4.188-7.728-0.792 1.583c-0.133 0.248-0.543 0.248-0.667 0l-0.744-1.478c-0.023-0.049-0.036-0.107-0.036-0.167s0.013-0.118 0.037-0.17l-0.001 0.003 1.85-3.71c0.065-0.116 0.185-0.195 0.323-0.201l0.001-0c0.141 0 0.265 0.076 0.333 0.188l0.001 0.002 7.412 13.346zM21.884 20.514l1.84 3.339c0.032 0.053 0.050 0.117 0.050 0.186s-0.019 0.133-0.051 0.188l0.001-0.002c-0.060 0.109-0.174 0.181-0.304 0.181-0.003 0-0.007-0-0.010-0h-14.823c-0.138-0.002-0.259-0.077-0.324-0.188l-0.001-0.002c-0.029-0.051-0.046-0.113-0.046-0.178 0-0.072 0.021-0.14 0.056-0.197l-0.001 0.002 2.966-4.817 2.957-5.18c0.067-0.123 0.2-0.2 0.334-0.19 0.003-0 0.006-0 0.009-0 0.139 0 0.259 0.081 0.315 0.198l0.001 0.002 0.744 1.479c0.026 0.049 0.042 0.106 0.042 0.168 0 0.069-0.019 0.132-0.053 0.187l0.001-0.002-3.758 6.486h8.337l-0.773-1.288c-0.037-0.055-0.059-0.122-0.059-0.194 0-0.066 0.018-0.127 0.050-0.18l-0.001 0.002c0.066-0.113 0.187-0.188 0.325-0.19h1.85c0.134 0 0.258 0.076 0.325 0.19z"></path>
</svg>
