<!-- Generated by IcoMoon.io -->
<svg version="1.1" xmlns="http://www.w3.org/2000/svg" width="32" height="32" viewBox="0 0 32 32">
<title>equa</title>
<path fill="#f68922" d="M32 16c0 8.837-7.163 16-16 16s-16-7.163-16-16c0-8.837 7.163-16 16-16s16 7.163 16 16z"></path>
<path fill="#fff" d="M16.72 10.078s-4.127 0.606-4.728 5.193c0 0-0.638 5.134 4.608 6.52 0.332 0.091 0.714 0.143 1.107 0.143 0.002 0 0.004 0 0.006 0h0.258c0.534 0 1.046 0.214 1.424 0.594s0.59 0.896 0.59 1.434c0 0.004 0 0.009 0 0.014 0 1.057-0.814 1.923-1.849 2.007l-0.007 0c-2.579 0.174-6.040-1.092-8.286-4.136 0 0-4.399-6.325 0.395-12.137 1.118-1.359 2.559-2.412 4.207-3.048l0.070-0.024c1.97-0.737 4.856-1.211 7.361 0.756 0 0 3.353 2.597 1.634 6.837 0 0-1.204 3.375-5.33 3.635l-0.573-0.032c-0.569-0.015-1.074-0.28-1.411-0.688l-0.003-0.003c-0.272-0.329-0.438-0.756-0.438-1.221 0-0.108 0.009-0.214 0.026-0.317l-0.002 0.011c0.146-0.895 0.898-1.574 1.815-1.605l0.003-0 0.582-0.040s1.977-0.086 1.805-2.423c0 0-0.172-2.077-3.266-1.47z"></path>
</svg>
