<!-- Generated by IcoMoon.io -->
<svg version="1.1" xmlns="http://www.w3.org/2000/svg" width="32" height="32" viewBox="0 0 32 32">
<title>etc</title>
<path fill="#328332" d="M32 16c0 8.837-7.163 16-16 16s-16-7.163-16-16c0-8.837 7.163-16 16-16s16 7.163 16 16z"></path>
<path fill="#fff" d="M15.989 16.553l-6.721-0.577 6.72-3.802v4.379zM15.989 21.013v6.94c-2.337-3.638-4.913-7.642-6.989-10.883 2.45 1.38 5.008 2.823 6.989 3.944zM15.989 10.945l-6.989 3.9 6.989-10.845v6.945z"></path>
<path fill="#fff" opacity="0.601" d="M22.71 15.976l-6.721 0.577v-4.379l6.72 3.802zM15.989 21.014c1.98-1.12 4.537-2.564 6.988-3.944-2.076 3.242-4.652 7.246-6.988 10.882v-6.938zM15.989 10.945v-6.945l6.988 10.845-6.988-3.9z"></path>
<path fill="#fff" opacity="0.2" d="M15.989 16.553l6.72-0.577-6.72 3.775z"></path>
<path fill="#fff" opacity="0.603" d="M15.988 16.553l-6.721-0.577 6.721 3.775z"></path>
</svg>
