<!-- Generated by IcoMoon.io -->
<svg version="1.1" xmlns="http://www.w3.org/2000/svg" width="32" height="32" viewBox="0 0 32 32">
<title>ethos</title>
<path fill="#00ffba" d="M32 16c0 8.837-7.163 16-16 16s-16-7.163-16-16c0-8.837 7.163-16 16-16s16 7.163 16 16z"></path>
<path fill="#fff" d="M10.871 10.904c-0.301 0.307-0.486 0.729-0.486 1.193 0 0.356 0.109 0.687 0.296 0.961l-0.004-0.006c0.308 0.458 0.824 0.756 1.41 0.756 0.004 0 0.007 0 0.010-0h-0.001c1.208 0 2.188 0.98 2.188 2.188s-0.98 2.188-2.188 2.188c-0 0-0 0-0.001 0h0c-0.001 0-0.002 0-0.002 0-3.361 0-6.086-2.725-6.086-6.086 0-1.695 0.693-3.228 1.811-4.331l0.001-0.001c1.099-1.087 2.61-1.759 4.278-1.759 1.49 0 2.854 0.535 3.912 1.424l-0.009-0.008c-1.338 1.124-2.182 2.798-2.182 4.668 0 0.002 0 0.003 0 0.005v-0c0 0 0 0.001 0 0.001 0 1.204 0.972 2.181 2.174 2.188h0.001c-1.208 0-2.188-0.98-2.188-2.188 0-0 0-0.001 0-0.001v0c0-0.002 0-0.005 0-0.008 0-0.353-0.108-0.681-0.294-0.952l0.004 0.006c-0.187-0.274-0.443-0.487-0.743-0.618l-0.011-0.004c-0.196-0.084-0.425-0.133-0.665-0.133s-0.469 0.049-0.676 0.138l0.011-0.004c-0.218 0.094-0.404 0.223-0.56 0.383l-0 0zM25.511 17.532c0.303 0.699 0.479 1.513 0.479 2.369 0 1.651-0.656 3.148-1.723 4.246l0.001-0.001c-1.107 1.14-2.654 1.847-4.366 1.847-3.36 0-6.084-2.724-6.084-6.084 0-0.002 0-0.004 0-0.006v0c-0-0.014-0.001-0.030-0.001-0.047 0-1.208 0.98-2.188 2.188-2.188s2.188 0.98 2.188 2.188c0 0.016-0 0.033-0.001 0.049l0-0.002c0 0.002-0 0.005-0 0.008 0 0.702 0.426 1.305 1.034 1.565l0.011 0.004c0.43 0.18 0.913 0.178 1.341-0.005 0.41-0.181 0.73-0.505 0.901-0.907l0.004-0.011c0.081-0.192 0.128-0.416 0.128-0.65 0-0.705-0.425-1.311-1.033-1.575l-0.011-0.004c-0.195-0.085-0.422-0.134-0.66-0.134-0.002 0-0.003 0-0.005 0h0c-1.209 0-2.189-0.98-2.189-2.189s0.98-2.188 2.189-2.188v0c0.001 0 0.002 0 0.003 0 2.505 0 4.656 1.514 5.588 3.678l0.015 0.040z"></path>
<path fill="#fff" opacity="0.7" d="M15.994 17.714c1.208 0 2.188 0.98 2.188 2.188 0 0.001 0 0.003 0 0.004 0 3.361-2.724 6.085-6.085 6.085-1.72 0-3.274-0.714-4.38-1.861l-0.002-0.002c-1.056-1.093-1.706-2.584-1.706-4.226 0-3.362 2.725-6.087 6.087-6.087 0 0 0 0 0 0v0c1.209 0 2.188 0.98 2.188 2.189s-0.98 2.189-2.188 2.189v0c-0.34-0.001-0.672 0.1-0.954 0.29-0.274 0.187-0.487 0.443-0.618 0.744l-0.004 0.011c-0.085 0.196-0.134 0.424-0.134 0.664 0 0.462 0.183 0.881 0.481 1.189l-0-0v0.002c0.311 0.322 0.746 0.523 1.229 0.523 0.356 0 0.687-0.109 0.961-0.296l-0.006 0.004c0.458-0.309 0.755-0.827 0.755-1.413 0-0.002 0-0.005 0-0.007v0c0-1.207 0.98-2.187 2.189-2.187zM25.32 9.318c0.423 0.807 0.671 1.764 0.671 2.778 0 3.363-2.725 6.089-6.087 6.090h-0c-1.209 0-2.189-0.98-2.189-2.189s0.98-2.189 2.189-2.189v0c0 0 0.001 0 0.002 0 0.704 0 1.309-0.426 1.571-1.034l0.004-0.011c0.084-0.196 0.133-0.424 0.133-0.664 0-0.285-0.069-0.553-0.192-0.79l0.005 0.010c-0.288-0.558-0.86-0.934-1.52-0.934-0.357 0-0.688 0.11-0.962 0.297l0.006-0.004c-0.458 0.309-0.756 0.826-0.756 1.413 0 0.003 0 0.005 0 0.008v-0c0 0.014 0 0.030 0 0.046 0 1.208-0.98 2.188-2.188 2.188s-2.188-0.98-2.188-2.188c0-0.017 0-0.033 0.001-0.050l-0 0.002c0-0.001 0-0.002 0-0.004 0-3.361 2.724-6.085 6.085-6.085 1.368 0 2.631 0.452 3.648 1.214l-0.016-0.011 0.004 0.003c0.741 0.556 1.341 1.26 1.764 2.069l0.016 0.034z"></path>
</svg>
