<!-- Generated by IcoMoon.io -->
<svg version="1.1" xmlns="http://www.w3.org/2000/svg" width="32" height="32" viewBox="0 0 32 32">
<title>etn</title>
<path fill="#23bee2" d="M32 16c0 8.837-7.163 16-16 16s-16-7.163-16-16c0-8.837 7.163-16 16-16s16 7.163 16 16z"></path>
<path fill="#fff" d="M19.879 13.469l3.239-3.412c1.339 1.591 2.153 3.662 2.153 5.923 0 0.005 0 0.010 0 0.015v-0.001c0 5.117-4.15 9.266-9.271 9.266-0.003 0-0.007 0-0.011 0-1.635 0-3.171-0.425-4.503-1.171l0.047 0.024 9.58-4.938-2.131-1.473 3.878-1.98-2.98-2.254zM12.121 19.003l-3.020 3.18c-1.472-1.628-2.372-3.797-2.372-6.177 0-0.004 0-0.008 0-0.012v0.001c0-5.118 4.15-9.267 9.271-9.267 0.004 0 0.008 0 0.012 0 1.813 0 3.505 0.523 4.931 1.426l-0.038-0.022-10.018 5.165 2.131 1.472-3.878 1.98 2.98 2.254zM8.536 22.78l-0.625 0.658c-1.804-1.946-2.911-4.561-2.911-7.435 0-0.003 0-0.006 0-0.009v0c0-6.063 4.935-10.995 11-10.995 2.493 0 4.796 0.834 6.643 2.237l-0.902 0.465c-1.599-1.124-3.586-1.796-5.73-1.796-0.004 0-0.007 0-0.011 0h0.001c-5.565 0-10.093 4.526-10.093 10.089 0 2.61 0.996 4.991 2.63 6.784zM23.684 9.46l0.628-0.66c1.67 1.911 2.688 4.429 2.688 7.184 0 0.004 0 0.008 0 0.012v-0.001c0 6.062-4.935 10.994-11 10.994-0.004 0-0.008 0-0.013 0-2.335 0-4.499-0.731-6.275-1.977l0.035 0.023 0.924-0.477c1.509 0.957 3.348 1.525 5.318 1.525 0.004 0 0.008 0 0.011 0h-0.001c5.565 0 10.093-4.526 10.093-10.088 0-2.49-0.907-4.772-2.409-6.534zM10.842 16.9l3.941-2.013-2.137-1.476 11.83-6.098-5.953 6.268 2.635 1.993-3.941 2.013 2.137 1.476-11.83 6.098 5.953-6.268-2.635-1.993z"></path>
</svg>
