<!-- Generated by IcoMoon.io -->
<svg version="1.1" xmlns="http://www.w3.org/2000/svg" width="32" height="32" viewBox="0 0 32 32">
<title>etp</title>
<path fill="#00a5ff" d="M32 16c0 8.837-7.163 16-16 16s-16-7.163-16-16c0-8.837 7.163-16 16-16s16 7.163 16 16z"></path>
<path fill="#fff" d="M18.080 12.574c-0.003 0.893-0.009 1.785-0.010 2.677-0.001 1.484-0.003 2.969 0.004 4.453 0 0.18-0.050 0.287-0.207 0.382-0.61 0.367-1.21 0.75-1.854 1.153v-0.325c0-2.297-0.003-4.595 0.004-6.892 0.001-0.191-0.050-0.299-0.222-0.392-0.535-0.29-1.058-0.602-1.586-0.904-0.058-0.033-0.12-0.060-0.209-0.104v0.315c0 2.059-0.004 4.118 0.006 6.176 0 0.207-0.066 0.315-0.24 0.412-0.525 0.29-1.038 0.6-1.557 0.902-0.073 0.042-0.15 0.079-0.266 0.14v-0.32c0-2.068-0.005-4.136 0.007-6.203 0.001-0.24-0.080-0.36-0.28-0.47-0.584-0.326-1.157-0.672-1.764-1.027 0.672-0.387 1.318-0.763 1.971-1.124 0.060-0.033 0.185 0.010 0.26 0.053 0.569 0.32 1.136 0.643 1.697 0.976 0.136 0.080 0.235 0.090 0.377 0.003 0.518-0.317 1.054-0.608 1.57-0.93 0.186-0.116 0.32-0.097 0.497 0.009 0.597 0.357 1.204 0.7 1.808 1.047l-0.006-0.007zM18.086 12.581c0.044-0.046 0.082-0.105 0.135-0.136 0.563-0.328 1.126-0.658 1.699-0.968 0.051-0.023 0.11-0.036 0.172-0.036 0.065 0 0.126 0.014 0.181 0.040l-0.003-0.001c0.582 0.313 1.156 0.641 1.723 0.979 0.078 0.046 0.156 0.168 0.156 0.255 0.009 2.163 0.008 4.327 0.004 6.49 0 0.070-0.018 0.18-0.065 0.208-0.648 0.386-1.303 0.761-1.998 1.163v-0.329c0-2.084-0.002-4.168 0.004-6.251 0-0.177-0.042-0.284-0.208-0.375-0.608-0.338-1.206-0.696-1.807-1.046l0.006 0.007zM6.939 18.788c-0.005 0-0.011 0-0.017 0-0.782 0-1.417-0.632-1.422-1.413v-0c-0-0.004-0-0.009-0-0.014 0-0.784 0.635-1.419 1.419-1.419 0 0 0.001 0 0.001 0h-0c0.006-0 0.014-0 0.021-0 0.782 0 1.415 0.633 1.417 1.414v0c0 0.005 0 0.010 0 0.016 0 0.782-0.634 1.416-1.416 1.416-0.001 0-0.002 0-0.003 0h0zM8.854 23.075c-0.003 0-0.007 0-0.011 0-0.738 0-1.338-0.593-1.349-1.329v-0.001c0-0.001 0-0.002 0-0.003 0-0.741 0.593-1.344 1.331-1.361l0.002-0c0.725-0.016 1.352 0.6 1.36 1.337 0 0.003 0 0.007 0 0.010 0 0.739-0.595 1.338-1.331 1.347h-0.001zM7.767 11.399c0.72 0.002 1.298 0.58 1.298 1.295 0 0.727-0.592 1.312-1.32 1.304-0.705-0.005-1.275-0.578-1.275-1.284 0-0.010 0-0.020 0-0.030l-0 0.001c-0-0.004-0-0.008-0-0.012 0-0.704 0.571-1.275 1.275-1.275 0.008 0 0.016 0 0.023 0l-0.001-0zM25.289 16.305c-0.671 0-1.215-0.544-1.215-1.215s0.544-1.215 1.215-1.215v0c0.671 0 1.215 0.544 1.215 1.215s-0.544 1.215-1.215 1.215v0zM9.542 8.617c-0-0.005-0-0.010-0-0.016 0-0.602 0.488-1.090 1.090-1.090 0.005 0 0.011 0 0.016 0h-0.001c0 0 0.001 0 0.001 0 0.608 0 1.101 0.493 1.101 1.101 0 0.005-0 0.010-0 0.015v-0.001c0 0.001 0 0.003 0 0.004 0 0.609-0.493 1.102-1.102 1.102-0.003 0-0.006 0-0.008-0h0c-0.002 0-0.003 0-0.005 0-0.603 0-1.092-0.489-1.092-1.092 0-0.008 0-0.016 0-0.024l-0 0.001zM24.636 20.91c-0.007 0-0.015 0-0.023 0-0.6 0-1.087-0.487-1.087-1.087 0-0.004 0-0.009 0-0.013v0.001c-0-0.005-0-0.010-0-0.016 0-0.607 0.489-1.1 1.094-1.107h0.001c0.001 0 0.002 0 0.003 0 0.612 0 1.107 0.495 1.108 1.107v0c0 0.008 0 0.018 0 0.027 0 0.601-0.487 1.088-1.088 1.088-0.003 0-0.006 0-0.009-0h0zM15.986 6.855c-0.001 0.451-0.367 0.816-0.818 0.816-0.012 0-0.024-0-0.036-0.001l0.002 0c-0.448-0.008-0.808-0.374-0.808-0.823 0-0.014 0-0.027 0.001-0.041l-0 0.002c0.015-0.449 0.382-0.807 0.834-0.807 0.003 0 0.005 0 0.008 0h-0c0.453 0.004 0.818 0.372 0.818 0.826 0 0.010-0 0.020-0.001 0.029l0-0.001zM21.757 24.357c-0.001 0-0.003 0-0.004 0-0.45 0-0.814-0.364-0.814-0.814 0-0.004 0-0.008 0-0.013v0.001c0-0.001 0-0.003 0-0.004 0-0.455 0.368-0.823 0.823-0.823 0.009 0 0.018 0 0.027 0l-0.001-0c0.46 0.006 0.82 0.37 0.818 0.83 0 0.472-0.368 0.827-0.849 0.823zM17.477 26c-0.005 0-0.011 0-0.016 0-0.424 0-0.767-0.343-0.767-0.767 0-0.007 0-0.015 0-0.022l-0 0.001c0-0.001 0-0.002 0-0.003 0-0.432 0.35-0.782 0.782-0.782 0.005 0 0.009 0 0.014 0h-0.001c0.437 0.005 0.789 0.359 0.791 0.796v0c-0.001 0.43-0.349 0.777-0.779 0.777-0.008 0-0.017-0-0.025-0l0.001 0zM20.105 8.277c-0.39-0.002-0.706-0.319-0.706-0.71 0-0.392 0.318-0.71 0.71-0.71 0.001 0 0.003 0 0.004 0h-0c0.384 0.002 0.71 0.331 0.709 0.714-0.011 0.389-0.327 0.702-0.717 0.706h-0zM13.567 24.559c-0.001 0.337-0.275 0.61-0.612 0.61-0.006 0-0.013-0-0.019-0l0.001 0c-0.335-0-0.606-0.271-0.606-0.606 0-0.009 0-0.019 0.001-0.028l-0 0.001c0.004-0.339 0.28-0.612 0.62-0.612 0.003 0 0.006 0 0.010 0h-0c0.336 0.008 0.606 0.282 0.606 0.62 0 0.005-0 0.011-0 0.016l0-0.001zM24.23 10.58c0 0.007 0 0.014 0 0.022 0 0.289-0.231 0.524-0.518 0.532h-0.001c-0.003 0-0.006 0-0.009 0-0.293 0-0.531-0.233-0.539-0.524v-0.001c-0-0.006-0-0.014-0-0.021 0-0.289 0.232-0.524 0.52-0.529h0c0.299-0.010 0.54 0.221 0.546 0.522z"></path>
</svg>
