<!-- Generated by IcoMoon.io -->
<svg version="1.1" xmlns="http://www.w3.org/2000/svg" width="32" height="32" viewBox="0 0 32 32">
<title>eur</title>
<path fill="#0f8ff8" d="M32 16c0 8.837-7.163 16-16 16s-16-7.163-16-16c0-8.837 7.163-16 16-16s16 7.163 16 16z"></path>
<path fill="#fff" d="M8 19.004l0.81-2.004h0.857c-0.021-0.307-0.034-0.667-0.034-1.029v-0.001c0-0.448 0.019-0.864 0.056-1.25h-1.689l0.81-2.003h1.274c1.186-3.811 3.86-5.717 8.019-5.717 1.367 0 2.666 0.177 3.897 0.532v2.524c-1.070-0.49-2.321-0.776-3.639-0.776-0.015 0-0.031 0-0.046 0h0.002c-2.493 0-4.096 1.146-4.81 3.438h7.423l-0.81 2.003h-7.097c-0.036 0.266-0.057 0.574-0.057 0.886 0 0.038 0 0.076 0.001 0.114l-0-0.006c0 0.479 0.015 0.907 0.045 1.285h6.183l-0.8 2.003h-4.955c0.533 1.389 1.183 2.355 1.949 2.9 0.765 0.544 1.858 0.816 3.277 0.816 1.014 0 2.125-0.247 3.334-0.741v2.373c-1.149 0.432-2.515 0.648-4.1 0.648-4.167 0-6.803-1.999-7.906-5.996z"></path>
</svg>
