<!-- Generated by IcoMoon.io -->
<svg version="1.1" xmlns="http://www.w3.org/2000/svg" width="32" height="32" viewBox="0 0 32 32">
<title>evx</title>
<path fill="#044aac" d="M32 16c0 8.837-7.163 16-16 16s-16-7.163-16-16c0-8.837 7.163-16 16-16s16 7.163 16 16z"></path>
<path fill="#fff" d="M10.082 17.21l-3.848 3.85c-0.777-1.465-1.234-3.202-1.234-5.047 0-0.005 0-0.009 0-0.014v0.001c0-6.065 4.935-11 11-11s11 4.935 11 11-4.935 11-11 11c-2.346 0-4.522-0.739-6.31-1.995-0.475-0.336-0.892-0.679-1.281-1.051l0.004 0.004 9.579-9.58c0.070-0.836 0.766-1.489 1.614-1.49h0c0.836 0.001 1.524 0.635 1.609 1.448l0.001 0.007 3.874 3.874c0.169-0.665 0.266-1.428 0.266-2.214 0-0.001 0-0.002 0-0.003v0c0-5.16-4.197-9.356-9.356-9.356s-9.356 4.196-9.356 9.356c0 0.718 0.081 1.417 0.235 2.089l2.488-2.489c0.128-0.778 0.795-1.364 1.599-1.365h0c0.793 0.001 1.453 0.571 1.591 1.324l0.002 0.010 1.583 1.582-1.163 1.162-1.114-1.114c-0.252 0.172-0.564 0.274-0.899 0.274-0.329 0-0.635-0.099-0.89-0.268l0.006 0.004zM18.791 15.904l-7.918 7.918c1.441 0.961 3.212 1.534 5.117 1.534 0.004 0 0.007 0 0.011 0h-0.001c3.753 0 6.997-2.221 8.486-5.418l-4.045-4.046c-0.238 0.147-0.526 0.234-0.835 0.234-0.3 0-0.582-0.082-0.822-0.226l0.007 0.004zM19.635 13.788c-0.008-0-0.017-0-0.026-0-0.402 0-0.728 0.326-0.728 0.728s0.326 0.728 0.728 0.728c0.010 0 0.020-0 0.029-0.001l-0.001 0c0.39-0.015 0.7-0.335 0.7-0.727s-0.311-0.713-0.701-0.727l-0.001-0zM10.975 15.115c-0.402 0-0.728 0.326-0.728 0.728s0.326 0.728 0.728 0.728v0c0.402 0 0.728-0.326 0.728-0.728s-0.326-0.728-0.728-0.728v0z"></path>
</svg>
