<!-- Generated by IcoMoon.io -->
<svg version="1.1" xmlns="http://www.w3.org/2000/svg" width="32" height="32" viewBox="0 0 32 32">
<title>exmo</title>
<path fill="#347ffb" d="M32 16c0 8.837-7.163 16-16 16s-16-7.163-16-16c0-8.837 7.163-16 16-16s16 7.163 16 16z"></path>
<path fill="#fff" d="M19.7 13.055l-2.887 7.797-0.526-1.055-1.1 0.5 2.885-7.797 1.1-0.5 0.527 1.055zM26.88 13.238l-2.868 7.762-0.527-1.058-1.1 0.5 0.067-0.182 2.867-7.76 1.1-0.5 0.525 1.055-0.064 0.183zM20.74 19.95l1.689-4.563-1.103 0.5-0.524-1.057-1.694 4.562 0.525 1.058 1.107-0.5zM11.603 15.45h-5.045l0.86 0.8-0.86 0.813h5.040l0.856-0.813-0.851-0.8zM5.86 18.833h8.155l-0.857 0.807 0.857 0.805h-8.155l-0.86-0.805 0.86-0.808zM8.361 12.065h8.15l-0.854 0.808 0.855 0.805h-8.15l-0.86-0.806 0.86-0.807z"></path>
</svg>
