<!-- Generated by IcoMoon.io -->
<svg version="1.1" xmlns="http://www.w3.org/2000/svg" width="32" height="32" viewBox="0 0 32 32">
<title>exp</title>
<path fill="#ffaa5c" d="M32 16c0 8.837-7.163 16-16 16s-16-7.163-16-16c0-8.837 7.163-16 16-16s16 7.163 16 16z"></path>
<path fill="#fff" d="M26 14.717c-0.004 0.039-0.010 0.077-0.010 0.116-0.005 1.22-0.010 2.441-0.012 3.662l-0.004 2.507c0 0.080-0.007 0.16-0.012 0.26-0.044-0.020-0.076-0.033-0.106-0.050l-4.654-2.595c-0.083-0.046-0.090-0.087-0.050-0.169 0.793-1.628 0.796-3.26 0.015-4.892-0.037-0.078-0.030-0.117 0.050-0.161l4.656-2.613c0.039-0.022 0.084-0.033 0.127-0.049v3.984zM16.3 5c0.078 0.047 0.155 0.097 0.235 0.142l9.049 5.085c0.034 0.019 0.066 0.040 0.113 0.068-0.042 0.027-0.070 0.047-0.101 0.064l-4.618 2.579c-0.121 0.067-0.12 0.066-0.2-0.048-1.024-1.435-2.428-2.255-4.212-2.463-0.048-0.006-0.104-0.010-0.16-0.010h-0c-0.094 0-0.13-0.036-0.13-0.135-0.001-1.013-0.007-2.027-0.010-3.040l-0.003-2.099c0-0.048 0.011-0.095 0.017-0.143h0.020zM15.68 27c-0.034-0.025-0.065-0.053-0.1-0.073l-9.117-5.125c-0.043-0.024-0.084-0.050-0.143-0.084 0.040-0.027 0.066-0.048 0.096-0.065 1.53-0.855 3.060-1.709 4.59-2.566 0.092-0.052 0.135-0.032 0.192 0.047 0.956 1.326 2.262 2.11 3.901 2.377 0.167 0.027 0.338 0.040 0.507 0.048 0.096 0.004 0.134 0.030 0.134 0.13-0.001 0.897 0.003 1.794 0.006 2.69l0.005 2.546c0 0.025-0.007 0.050-0.011 0.075h-0.060zM6 20.45c0.005-0.030 0.015-0.061 0.016-0.092l0.004-1.263 0.007-2.827 0.013-4.459 0.005-0.961c0-0.028 0.004-0.056 0.007-0.101 0.044 0.021 0.076 0.034 0.106 0.051 1.522 0.85 3.043 1.7 4.567 2.548 0.089 0.049 0.101 0.087 0.057 0.18-0.8 1.641-0.796 3.284 0 4.927 0.065 0.132 0.067 0.131-0.063 0.204-1.528 0.86-3.056 1.718-4.585 2.575-0.039 0.022-0.090 0.024-0.134 0.035v-0.816zM19.473 19.52c0.163-0.573 0.216-1.15 0.18-1.736-0.042-0.718-0.22-1.4-0.594-2.026-0.43-0.722-1.052-1.245-1.81-1.625-0.2-0.101-0.222-0.050-0.103-0.3 0.269-0.563 0.74-0.913 1.32-1.137 0.372-0.14 0.802-0.229 1.25-0.246l0.008-0c0.063 0.003 0.119 0.030 0.16 0.072l0 0c0.698 0.726 1.178 1.666 1.335 2.712l0.003 0.027c0.383 2.607-1.316 5.054-3.954 5.702-2.927 0.72-5.896-1.082-6.504-3.944-0.568-2.679 1.148-5.27 3.708-5.954 1.923-0.513 3.629-0.104 5.122 1.17l0.169 0.144-0.021 0.032c-0.147-0.018-0.293-0.040-0.44-0.054-0.913-0.086-1.811-0.026-2.682 0.273-1.085 0.366-1.961 1.106-2.496 2.062l-0.012 0.023c-0.080 0.142-0.086 0.143-0.24 0.090-0.205-0.073-0.379-0.188-0.518-0.336l-0.001-0.001c-0.276-0.286-0.492-0.634-0.623-1.020l-0.006-0.019c-0.117-0.34-0.203-0.69-0.303-1.035-0.008-0.027-0.014-0.055-0.038-0.084-0.014 0.080-0.030 0.158-0.042 0.238s-0.022 0.16-0.030 0.24c-0.095 0.894-0.044 1.774 0.265 2.627 0.384 1.064 1.107 1.83 2.163 2.296 0.138 0.061 0.138 0.062 0.064 0.188-0.391 0.664-1.004 0.998-1.761 1.112-0.352 0.053-0.704 0.032-1.063 0.006 0.033 0.013 0.065 0.028 0.098 0.040 1.73 0.595 3.63 0.328 5.061-1.186 0.348-0.372 0.659-0.787 0.92-1.234l0.018-0.033c0.068-0.118 0.073-0.119 0.183-0.039 0.469 0.342 0.748 0.81 0.94 1.335 0.179 0.483 0.25 0.985 0.267 1.496 0.001 0.041 0.004 0.082 0.007 0.123zM25.741 21.732l-9.463 5.249c-0.005-0.055-0.012-0.089-0.012-0.122 0-1.73 0-3.46-0.002-5.19 0-0.077 0.023-0.105 0.106-0.112 1.84-0.152 3.299-0.958 4.37-2.423 0.093-0.129 0.092-0.13 0.23-0.053l4.643 2.575c0.036 0.020 0.072 0.043 0.128 0.076zM15.739 5.036c0.003 0.056 0.006 0.090 0.006 0.124 0 1.707 0 3.414 0.002 5.12 0 0.080-0.012 0.12-0.11 0.127-1.878 0.136-3.363 0.949-4.451 2.443-0.086 0.118-0.084 0.119-0.21 0.049l-4.521-2.51c-0.053-0.030-0.102-0.066-0.153-0.1 0.052-0.036 0.1-0.077 0.156-0.108l9.11-5.056c0.051-0.028 0.103-0.053 0.17-0.089z"></path>
</svg>
