<!-- Generated by IcoMoon.io -->
<svg version="1.1" xmlns="http://www.w3.org/2000/svg" width="32" height="32" viewBox="0 0 32 32">
<title>fct</title>
<path fill="#417ba4" d="M32 16c0 8.837-7.163 16-16 16s-16-7.163-16-16c0-8.837 7.163-16 16-16s16 7.163 16 16z"></path>
<path fill="#fff" d="M7.686 10.633c-0.033 0.222-0.024 0.376 0.094 0.493-0.152 0.265-0.27 0.462-0.383 0.682 0.114-0.22 0.231-0.413 0.383-0.64 0.339 0.424 1.398 0.424 2.839-0.042 0.17-0.042 0.17 0.339 0.17 0.339 0 0.212-0.043 0.508-1.865 0.763-0.509 0.084-1.23 0.042-1.568-0.34-0.085-0.126-0.127-0.296-0.127-0.508 0-0.042 0-0.084 0.042-0.17 0.007-0.010 0.008-0.012 0.010-0.014l-0.005 0.007c0.019-0.077 0.046-0.145 0.082-0.208l-0.002 0.004c0.042-0.127 0.127-0.212 0.212-0.339-0.043 0.085-0.127 0.254-0.212 0.339 0.048-0.132 0.12-0.246 0.212-0.339l-0 0zM7.94 10.088c0.062-0.092 0.13-0.183 0.221-0.275l-0.127 0.17c-0.008 0.007-0.015 0.014-0.022 0.022l-0 0c0.045-0.063 0.094-0.126 0.149-0.192l-0.127 0.17c-0.032 0.033-0.063 0.067-0.092 0.102l-0.002 0.002zM7.94 10.088c-0.053 0.078-0.102 0.155-0.16 0.233-0.005 0.005-0.011 0.011-0.016 0.017l-0 0c-0.018 0.026-0.052 0.080-0.085 0.135l-0.018 0.032zM8.841 9.073c0.127-0.106 0.253-0.225 0.38-0.32-0.114 0.144-0.202 0.314-0.253 0.5l-0.002 0.010c-0.042 0.126-0.042 0.253 0.042 0.338-0.008 0.008-0.015 0.015-0.023 0.023l-0 0c0.28 0.312 1.196 0.22 2.354-0.277 0.381-0.17 0.763-0.34 1.102-0.55 0.127-0.043 0.296 0.169 0.339 0.21 0.042 0.043 0.084 0.17 0 0.255-0.424 0.254-0.89 0.508-1.399 0.678-1.456 0.624-2.627 0.717-2.949 0.319l-0.017 0.020c-0.042-0.127-0.084-0.212-0.042-0.381 0-0.043 0-0.085 0.042-0.128 0.040-0.052 0.081-0.098 0.125-0.141l0-0c-0.058 0.057-0.113 0.117-0.164 0.18l-0.003 0.004c0-0.043 0.042-0.127 0.042-0.17 0.085-0.17 0.17-0.296 0.297-0.466 0.030-0.022 0.058-0.045 0.088-0.069 0.128-0.18 0.317-0.335 0.505-0.524 0.34-0.296 0.34-0.296 0.509-0.423 0.035-0.036 0.073-0.069 0.114-0.098l0.003-0.002c-0.047 0.039-0.061 0.051-0.075 0.063l0.032-0.027c0.12-0.090 0.244-0.179 0.374-0.266l0.018-0.010 0.065-0.046c0.552-0.368 1.186-0.708 1.852-0.985l0.074-0.027c0.11-0.062 0.22-0.116 0.33-0.164-0.065 0.026-0.117 0.049-0.178 0.075-0.066 0.032-0.172 0.075-0.279 0.116l-0.041 0.014c-0.17 0.043-0.17 0.043-0.51 0.213-0.17 0.084-0.17 0.084-0.466 0.254-0.127 0.085-0.127 0.085-0.424 0.254-0.152 0.101-0.269 0.183-0.384 0.268l0.026-0.018c2.774-1.365 2.58-1.306 2.385-1.229-0.296 0.091-0.533 0.179-0.763 0.278l0.050-0.019c-0.982 0.42-1.906 1.016-2.484 1.569-0.087 0.070-0.128 0.11-0.228 0.21 0.054-0.051 0.111-0.102 0.17-0.153-0.089 0.087-0.172 0.178-0.25 0.274l-0.005 0.006c-0.133 0.133-0.266 0.24-0.379 0.362zM6.434 18.903c0.010 0.036 0.021 0.070 0.032 0.103 0.033 0.116 0.092 0.216 0.17 0.296l-0-0c-0.040-0.098-0.116-0.33-0.188-0.563l-0.035-0.132c-0.004 0.275 0.079 0.516 0.223 0.695-0.087-0.228-0.161-0.499-0.208-0.778l-0.004-0.026c0.762 1.059 3.644 0.804 7.33-0.763 4.704-1.991 8.983-5.38 9.577-7.583 0.127-0.551 0.042-0.932-0.255-1.229 0.212 0.212 0.424 0.466 0.636 0.678 0.254 0.297 0.296 0.678 0.17 1.186-0.594 2.245-4.958 5.677-9.789 7.71-4.194 1.826-7.357 1.907-7.66 0.407-0.073-0.247-0.147-0.566-0.221-0.788 0.042 0.127 0.085 0.254 0.17 0.382l0.025 0.089c-0.001 0.013-0.001 0.028-0.001 0.044 0 0.041 0.003 0.081 0.008 0.12l-0-0.005c-0.002-0.027-0.003-0.060-0.003-0.092 0-0.019 0-0.038 0.001-0.057l-0 0.003c0.023 0.085 0.022 0.081 0.020 0.077l-0.024-0.090zM13.314 6.363l0.059-0.024c1.271-0.339 2.076-0.17 1.907 0.55-0.043 0.255-0.212 0.509-0.466 0.763-0.212 0.085-0.678 0-0.763-0.085 0.212-0.254 0.339-0.466 0.381-0.635 0.132-0.56-0.478-0.71-1.472-0.451l-0.044 0.016zM13.237 6.393l0.178-0.054c-0.070 0.014-0.104 0.022-0.138 0.031l0.037-0.008zM6.212 17.408v0.030c-0.12-0.12-0.165-0.277-0.17-0.472-0.007-0.049-0.010-0.105-0.010-0.163 0-0.032 0.001-0.065 0.004-0.097l-0 0.004c0.005 0.072 0.008 0.156 0.008 0.241v0.001c-0.007-0.049-0.011-0.105-0.011-0.163 0-0.031 0.001-0.062 0.004-0.092l-0 0.004c-0.012-0.222-0.035-0.476-0.035-0.662 0 0.255 0.085 0.424 0.17 0.593 0 0.128 0.010 0.265 0.020 0.403-0.020-0.138-0.020-0.275-0.020-0.403 2.838 3.008 15.593-4.787 15.72-8.091 0.042-0.593-0.297-0.805-0.466-0.932l0.339 0.212 0.423 0.296c0.34 0.297 0.467 0.72 0.34 1.271-0.551 2.118-4.704 5.38-9.238 7.287-3.59 1.549-6.363 1.752-7.076 0.732zM6.191 14.176l0.063-0.254c-0.085 0.34-0.042 0.636 0.127 0.805 0.003-0.011 0.002-0.008 0.001-0.004l-0.004 0.014c0.083 0.1 0.197 0.172 0.342 0.244 0.127 0.17 0.043 0.593 0.043 0.593-0.043 0.127-0.085 0.297-0.17 0.255-0.424-0.212-0.593-0.551-0.55-1.060-0.008 0.047-0.012 0.1-0.012 0.155 0 0.212 0.068 0.408 0.183 0.568l-0.002-0.003 0.004-0.024c-0.089-0.145-0.142-0.321-0.142-0.508 0-0.051 0.004-0.101 0.011-0.15l-0.001 0.005 0.017-0.11c-0.010 0.033-0.016 0.070-0.017 0.109l-0 0.001 0.084-0.593 0.085-0.34v-0.084l-0.063 0.381zM6.813 13.136c-0.074 0.153-0.135 0.331-0.174 0.517l-0.003 0.015c-0.128-0.17-0.17-0.381-0.128-0.636 0-0.084 0-0.127 0.043-0.211 0.093-0.283 0.194-0.521 0.31-0.75l-0.014 0.030c-0.029 0.086-0.045 0.184-0.045 0.287 0 0.175 0.048 0.339 0.133 0.479l-0.002-0.004-0.027 0.063c0.531 0.696 2.467 0.52 4.942-0.529 3.178-1.398 6.102-3.686 6.484-5.126 0.127-0.55-0.043-0.89-0.509-1.060 0.085-0.042 0.085-0.042 0.339 0.043 0.17 0.043 0.297 0.085 0.381 0.085 0.551 0.212 0.763 0.593 0.594 1.186-0.424 1.61-3.602 4.11-7.077 5.592-2.754 1.144-4.873 1.356-5.423 0.551l0.177-0.532zM13.351 25.346c-0.509 0.017-0.931-0.036-1.25-0.155-0.254-0.127-0.593-0.254-0.804-0.381 0.517 0.214 1.195 0.267 1.975 0.19 4.465-0.44 12.295-5.132 12.728-8.197l-0.042 0.127c-0.044 0.223-0.075 0.486-0.085 0.754l-0 0.009c0 0.042 0 0.084-0.042 0.127-0.509 1.821-4.11 4.66-8.051 6.354-1.775 0.757-3.31 1.133-4.427 1.172-0 0-0.001 0-0.001 0s-0.001 0-0.001 0h0zM13.847 23.604l0.077-0.107c-0.026 0.035-0.050 0.070-0.075 0.106 0.643-0.18 1.335-0.413 2.066-0.7 0.466-0.127 0.636 0.17 0.636 0.17 0.042 0.042 0.042 0.212-0.212 0.339-1.064 0.416-2.044 0.715-2.905 0.895 0.010-0.023 0.004-0.011-0.002 0.001l-0.017 0.036 0.013-0.036c-1.502 0.315-2.641 0.27-3.233-0.134-0.212-0.17-0.509-0.38-0.72-0.55 0.682 0.584 2.26 0.571 4.372-0.020zM8.542 22.692c-0.17-0.212-0.381-0.424-0.508-0.636 0.17 0.212 0.424 0.508 0.593 0.72-0.004-0.045-0.040-0.081-0.085-0.084h-0zM15.28 6.042c0.254 0 0.593-0.042 0.847-0.042 0.89 0 1.314 0.339 1.144 1.017-0.212 0.805-1.356 1.949-2.839 2.965-0.296 0.127-0.593-0.254-0.508-0.423 0-0.043 0.042-0.043 0.042-0.043 1.314-0.89 2.288-1.864 2.5-2.584 0.17-0.678-0.381-0.974-1.356-0.89h0.17zM20.364 7.017c0.509 0.254 0.72 0.678 0.551 1.313-0.508 1.906-4.237 4.83-8.305 6.567-0.763 0.338-1.525 0.593-2.203 0.804-0.382 0.043-0.424-0.466-0.254-0.72 0.042-0.084 0.084-0.084 0.127-0.127 0.635-0.17 1.313-0.423 2.034-0.72 3.855-1.652 7.372-4.448 7.839-6.228 0.169-0.635-0.085-1.059-0.636-1.27 0.254 0.127 0.593 0.254 0.847 0.38zM24.771 11.211l0.127 0.212c0.127 0.339 0.127 0.339 0.127 0.508v0.042c-0.127-0.042-0.38-0.55-0.423-0.762 0-0.254-0.043-0.424-0.17-0.593l0.34 0.593zM25.661 13.456c0.042 0.212 0.042 0.466-0.042 0.763-0.509 1.864-3.687 4.617-7.543 6.609-0.423 0.169-0.678-0.128-0.593-0.424 0.036-0.111 0.111-0.2 0.21-0.253l0.002-0.001c3.898-2.034 7.16-4.83 7.67-6.736 0.084-0.34 0.084-0.636 0-0.89 0.127 0.339 0.254 0.678 0.296 0.932zM25.958 15.236v0.338c0 0.17 0 0.297-0.043 0.509-0.296 1.144-1.695 2.626-3.601 4.067-0.297 0.212-0.467-0.085-0.424-0.297 0.042-0.134 0.115-0.249 0.212-0.339l0-0c1.991-1.482 3.432-3.008 3.729-4.194 0.042-0.212 0.084-0.423 0.042-0.635l0.085 0.55zM8.415 10.278c-0.042-0.127-0.084-0.212-0.042-0.381-0.042 0.169 0 0.254 0.042 0.38zM7.355 11.888c-0.084-0.127-0.126-0.297-0.126-0.509 0 0.212 0 0.34 0.127 0.509zM6.635 13.667c-0.127-0.17-0.169-0.381-0.127-0.636-0.042 0.255 0 0.467 0.128 0.636zM22.61 15.15c0.022 0.059 0.035 0.127 0.035 0.197 0 0.133-0.045 0.256-0.121 0.354l0.001-0.001c-1.864 1.695-4.618 3.39-7.5 4.618-4.28 1.78-7.5 1.907-7.796 0.381-0.043-0.127 0-0.042 0.042-0.084 0 0.042 0 0.254 0.17 0.508-0.043-0.085-0.085-0.127-0.127-0.212-0.043-0.042-0.043-0.084-0.085-0.127-0.085-0.127-0.127-0.296-0.212-0.423 0.805 1.059 3.771 0.847 7.585-0.805 2.881-1.229 5.635-2.966 7.5-4.618 0.339-0.17 0.466 0.085 0.508 0.212zM11.89 22.902c0.042 0.085 0.085 0.255-0.085 0.297-1.525 0.254-2.627 0.127-3.136-0.424-0.169-0.212-0.423-0.508-0.593-0.72 0.466 0.593 1.61 0.763 3.263 0.508 0.297 0 0.508 0.255 0.55 0.34zM25.237 19.81c0.127-0.254 0.255-0.636 0.34-0.89-0.51 1.652-3.772 4.194-7.331 5.72-2.204 0.931-4.026 1.27-5 0.974 0.254 0.084 0.635 0.17 0.932 0.212 2.712 0.423 9.576-2.966 11.060-6.016zM23.034 22.86c0 0.042-0.085 0.17-0.254 0.297-0.933 0.762-2.204 1.525-3.517 2.075-1.102 0.466-2.077 0.72-2.797 0.763h-1.060c0.848 0.042 2.077-0.254 3.56-0.847 1.483-0.636 2.924-1.483 3.983-2.373 0.043 0 0.043-0.042 0.085-0.042 0 0 0 0.042 0.042 0.042 0 0 0 0.043-0.042 0.085zM6.508 12.863c0-0.042 0.043-0.127 0.043-0.17 0.085-0.254 0.254-0.635 0.339-0.89 0 0.128-0.043 0.213-0.085 0.34-0.127 0.212-0.212 0.466-0.297 0.72z"></path>
</svg>
