<!-- Generated by IcoMoon.io -->
<svg version="1.1" xmlns="http://www.w3.org/2000/svg" width="32" height="32" viewBox="0 0 32 32">
<title>fil</title>
<path fill="#42c1ca" d="M32 16c0 8.837-7.163 16-16 16s-16-7.163-16-16c0-8.837 7.163-16 16-16s16 7.163 16 16z"></path>
<path fill="#fff" d="M15.932 12.908c0.372-1.563 0.82-2.968 1.296-3.885 0.175-0.438 0.885-1.487 1.664-2.18 1.297-1.155 2.752-1.448 4.267-0.497v0c0.773 0.485 1.083 0.984 0.947 1.454-0.1 0.35-0.483 0.63-0.688 0.601-0.3 0.030-0.602-0.030-0.89-0.242-0.239-0.185-0.425-0.429-0.537-0.71l-0.004-0.011c-0.212-0.5-0.49-0.67-0.831-0.63-0.247 0.028-0.534 0.186-0.625 0.292l-0.235 0.26c-0.177 0.188-0.336 0.396-0.474 0.618l-0.010 0.017c-0.476 0.793-0.915 2.246-1.524 5.257l4.036 0.591-0.222 1.617-4.096-0.6-0.175 1.064-0.045 0.266c-0.024 0.138-0.050 0.288-0.080 0.448l4.136 0.606-0.237 1.615-4.233-0.62c-0.489 2.078-1.133 4.305-1.588 5.184-0.176 0.439-0.885 1.486-1.664 2.18-1.297 1.154-2.752 1.448-4.267 0.497-0.773-0.485-1.083-0.985-0.947-1.455 0.1-0.35 0.483-0.629 0.688-0.6 0.3-0.030 0.602 0.030 0.89 0.241 0.222 0.164 0.406 0.402 0.541 0.722 0.212 0.499 0.49 0.67 0.831 0.63 0.247-0.029 0.534-0.187 0.625-0.293 0.907-1.010 1.626-2.956 2.535-7.45l-4.036-0.592 0.222-1.617 4.096 0.6 0.176-1.063c0.066-0.426 0.11-0.669 0.156-0.911l-0.031 0.196-4.12-0.603 0.236-1.615 4.217 0.618z"></path>
</svg>
