<!-- Generated by IcoMoon.io -->
<svg version="1.1" xmlns="http://www.w3.org/2000/svg" width="32" height="32" viewBox="0 0 32 32">
<title>fldc</title>
<path fill="#c40e09" d="M32 16c0 8.837-7.163 16-16 16s-16-7.163-16-16c0-8.837 7.163-16 16-16s16 7.163 16 16z"></path>
<path fill="#fff" d="M22.2 7.14c0.090 0.070 0.171 0.13 0.246 0.195 0.198 0.175 0.397 0.35 0.59 0.531 0.153 0.146 0.298 0.302 0.445 0.455 0.012 0.012 0.022 0.040 0.018 0.056-0.090 0.348-0.226 0.676-0.408 0.982-0.16 0.268-0.344 0.514-0.558 0.735-0.29 0.3-0.615 0.55-0.971 0.755-0.155 0.090-0.314 0.17-0.473 0.25-0.507 0.257-1.047 0.401-1.597 0.503-0.375 0.070-0.754 0.12-1.131 0.172-0.496 0.068-0.993 0.123-1.488 0.195-0.73 0.106-1.445 0.272-2.123 0.587-0.746 0.347-1.367 0.854-1.789 1.603-0.281 0.5-0.395 1.045-0.39 1.623 0.009 1.107 0.388 2.064 1.042 2.915 0.4 0.52 0.856 0.982 1.336 1.418 0.332 0.303 0.671 0.597 1.002 0.9 0.423 0.39 0.847 0.779 1.21 1.234 0.19 0.24 0.378 0.486 0.541 0.747 0.278 0.446 0.499 0.925 0.644 1.438 0.080 0.28 0.128 0.565 0.15 0.857 0.007 0.088 0.011 0.192 0.011 0.296 0 0.354-0.046 0.697-0.131 1.025l0.006-0.028c-0.043 0.173-0.045 0.176-0.216 0.207-0.241 0.045-0.482 0.091-0.724 0.13-0.177 0.027-0.355 0.044-0.533 0.064-0.062 0.008-0.125 0.011-0.188 0.016l-0.037-0.001c0.001-0.014 0-0.028 0.004-0.040 0.054-0.143 0.114-0.284 0.165-0.428 0.105-0.278 0.184-0.602 0.224-0.938l0.002-0.020c0.012-0.101 0.019-0.217 0.019-0.336 0-0.488-0.119-0.948-0.33-1.353l0.008 0.016c-0.194-0.362-0.424-0.674-0.694-0.946l0 0c-0.376-0.395-0.79-0.741-1.205-1.086-0.693-0.577-1.363-1.18-1.975-1.852-0.358-0.389-0.691-0.814-0.989-1.264l-0.023-0.038c-0.311-0.462-0.571-0.994-0.755-1.561l-0.013-0.045c-0.135-0.419-0.213-0.901-0.213-1.401 0-0.469 0.069-0.923 0.196-1.351l-0.009 0.033c0.146-0.514 0.343-0.997 0.647-1.43 0.402-0.573 0.921-1 1.516-1.33 0.6-0.335 1.24-0.555 1.899-0.72 0.53-0.134 1.067-0.234 1.608-0.3 0.61-0.074 1.22-0.136 1.83-0.205 0.498-0.056 0.993-0.125 1.474-0.277 0.458-0.141 0.852-0.372 1.179-0.674l-0.002 0.002c0.291-0.272 0.507-0.598 0.662-0.972 0.143-0.345 0.213-0.709 0.264-1.078 0.011-0.082 0.017-0.166 0.027-0.267zM15.14 19.966c0.219-0.043 0.427-0.080 0.634-0.125 0.532-0.118 1.057-0.26 1.55-0.512 0.498-0.256 0.92-0.591 1.264-0.994l0.005-0.006c0.36-0.426 0.655-0.895 0.809-1.451 0.070-0.247 0.111-0.53 0.111-0.823 0-0.091-0.004-0.182-0.012-0.271l0.001 0.012c-0.068-0.778-0.332-1.484-0.743-2.081l0.009 0.015c-0.33-0.482-0.685-0.903-1.078-1.286l-0.002-0.002c-0.070-0.071-0.144-0.14-0.215-0.21-0.010-0.010-0.018-0.022-0.033-0.040l0.38-0.059 0.823-0.125c0.144-0.022 0.288-0.046 0.432-0.065 0.017-0.002 0.041 0.017 0.055 0.032 0.256 0.298 0.518 0.59 0.764 0.897 0.32 0.398 0.59 0.834 0.81 1.304 0.195 0.419 0.338 0.855 0.408 1.317 0.049 0.323 0.070 0.649 0.037 0.975-0.096 0.913-0.367 1.758-0.902 2.496-0.332 0.459-0.741 0.83-1.202 1.14-0.499 0.334-1.074 0.614-1.686 0.81l-0.049 0.013c-0.263 0.084-0.529 0.156-0.794 0.23-0.006 0.001-0.012 0.002-0.019 0.002-0.020 0-0.038-0.006-0.052-0.017l0 0c-0.427-0.38-0.852-0.763-1.277-1.145-0.008-0.006-0.014-0.015-0.027-0.030zM17.256 10.268l-1.374 0.213c-0.085 0.014-0.171 0.030-0.258 0.039-0.003 0-0.006 0-0.009 0-0.030 0-0.058-0.011-0.079-0.028l0 0c-0.28-0.258-0.535-0.53-0.77-0.821l-0.011-0.014c-0.13-0.165-0.262-0.33-0.377-0.507-0.39-0.604-0.695-1.249-0.824-1.974-0.043-0.219-0.067-0.47-0.067-0.727 0-0.404 0.060-0.794 0.173-1.161l-0.007 0.028c0.011-0.040 0.023-0.060 0.070-0.069 0.268-0.046 0.533-0.106 0.8-0.15 0.22-0.035 0.444-0.053 0.666-0.079l0.182-0.018c-0.016 0.036-0.025 0.060-0.036 0.081-0.18 0.359-0.316 0.776-0.388 1.215l-0.003 0.025c-0.021 0.131-0.033 0.282-0.033 0.436 0 0.469 0.112 0.911 0.312 1.302l-0.008-0.016c0.221 0.445 0.523 0.822 0.865 1.17 0.356 0.36 0.742 0.684 1.129 1.007 0.014 0.012 0.026 0.025 0.049 0.048zM14.082 21.556l-0.426 0.045c-0.18 0.020-0.36 0.034-0.54 0.062-0.277 0.043-0.555 0.085-0.829 0.146-1.003 0.222-1.784 0.754-2.21 1.777-0.143 0.331-0.263 0.719-0.341 1.123l-0.006 0.036c-0.003 0.018-0.009 0.036-0.017 0.068-0.057-0.044-0.11-0.080-0.158-0.122-0.2-0.178-0.399-0.354-0.594-0.536-0.141-0.132-0.274-0.273-0.414-0.407-0.047-0.045-0.056-0.090-0.039-0.154 0.2-0.709 0.576-1.315 1.077-1.788l0.002-0.002c0.322-0.3 0.687-0.561 1.082-0.771l0.028-0.014c0.566-0.31 1.171-0.488 1.791-0.622 0.072-0.015 0.146-0.023 0.216-0.042 0.044-0.012 0.073 0 0.104 0.029l0.578 0.529 0.641 0.589c0.019 0.017 0.037 0.035 0.055 0.053l0 0zM18.409 17.178c-0.050-0.012-0.1-0.023-0.148-0.038l-3.451-1.079c-0.443-0.138-0.885-0.275-1.327-0.414-0.17-0.053-0.257-0.192-0.244-0.334 0.018-0.21 0.088-0.356 0.285-0.395 0.016-0.002 0.034-0.004 0.052-0.004 0.039 0 0.077 0.007 0.112 0.019l-0.002-0.001c0.374 0.115 0.747 0.235 1.12 0.351l3.694 1.151c0.145 0.041 0.25 0.172 0.25 0.328 0 0.015-0.001 0.030-0.003 0.044l0-0.002c-0.029 0.223-0.162 0.368-0.338 0.374zM11.119 23.674c0.032 0.008 0.070 0.015 0.107 0.026l4.805 1.5c0.165 0.052 0.263 0.19 0.248 0.352-0.019 0.218-0.133 0.363-0.304 0.378-0.006 0-0.013 0-0.021 0-0.049 0-0.095-0.008-0.138-0.023l0.003 0.001c-1.325-0.412-2.649-0.826-3.973-1.24-0.276-0.086-0.552-0.17-0.827-0.257-0.154-0.049-0.256-0.18-0.245-0.33 0.016-0.198 0.089-0.349 0.266-0.394 0.023-0.007 0.048-0.008 0.080-0.013zM21.249 7.91c-0.015 0.044-0.035 0.136-0.078 0.213-0.070 0.126-0.213 0.173-0.354 0.129l-2.317-0.724c-0.829-0.259-1.658-0.518-2.488-0.775-0.141-0.044-0.246-0.127-0.262-0.287-0.018-0.18 0.065-0.421 0.301-0.448 0.007-0 0.014-0.001 0.022-0.001 0.039 0 0.077 0.007 0.112 0.019l-0.002-0.001 4.816 1.503c0.16 0.050 0.25 0.168 0.25 0.371zM14.334 14.373c0.010-0.207 0.1-0.363 0.262-0.395 0.021-0.004 0.046-0.006 0.071-0.006 0.043 0 0.084 0.007 0.123 0.019l-0.003-0.001c0.486 0.148 0.97 0.301 1.456 0.453l1.832 0.57c0.145 0.041 0.249 0.172 0.249 0.328 0 0.021-0.002 0.041-0.005 0.060l0-0.002c-0.037 0.23-0.174 0.37-0.36 0.35-0.095-0.012-0.188-0.050-0.282-0.079l-3.1-0.968c-0.141-0.038-0.243-0.165-0.243-0.315 0-0.005 0-0.010 0-0.014l-0 0.001zM14.002 16.263c0.064 0.017 0.112 0.026 0.159 0.040l3.020 0.944c0.083 0.026 0.167 0.050 0.25 0.077 0.185 0.060 0.275 0.232 0.227 0.428-0.037 0.155-0.111 0.274-0.271 0.301-0.015 0.002-0.032 0.004-0.050 0.004-0.038 0-0.075-0.006-0.109-0.017l0.002 0.001c-0.384-0.117-0.767-0.238-1.15-0.358-0.713-0.222-1.425-0.445-2.137-0.665-0.132-0.041-0.232-0.12-0.254-0.265-0.025-0.161 0.017-0.31 0.146-0.413 0.050-0.039 0.116-0.053 0.166-0.075zM11.219 25.45c0.014-0.216 0.108-0.385 0.303-0.406 0.009-0.001 0.020-0.002 0.032-0.002 0.034 0 0.067 0.005 0.098 0.015l-0.002-0.001c1.108 0.345 2.216 0.69 3.324 1.037 0.178 0.056 0.265 0.232 0.22 0.42-0.038 0.16-0.12 0.272-0.277 0.308-0.015 0.004-0.031 0.007-0.049 0.007-0.015 0-0.029-0.002-0.042-0.005l0.001 0-3.107-0.97c-0.091-0.029-0.183-0.056-0.275-0.086-0.132-0.045-0.225-0.168-0.225-0.312 0-0.002 0-0.004 0-0.006v0zM12.216 22.73c0.030 0.008 0.070 0.015 0.109 0.027l3.281 1.024c0.16 0.050 0.26 0.19 0.248 0.346-0.017 0.214-0.127 0.361-0.295 0.382-0.010 0.001-0.022 0.001-0.033 0.001-0.048 0-0.094-0.008-0.137-0.023l0.003 0.001c-0.885-0.275-1.77-0.553-2.654-0.83-0.211-0.065-0.423-0.13-0.633-0.197-0.154-0.050-0.247-0.177-0.234-0.335 0.016-0.206 0.096-0.34 0.268-0.385 0.022-0.006 0.045-0.006 0.078-0.010zM19.838 9.168c-0.108-0.032-0.213-0.061-0.318-0.094-1.027-0.32-2.054-0.643-3.082-0.964-0.205-0.065-0.288-0.23-0.232-0.448 0.035-0.139 0.107-0.239 0.242-0.27 0.024-0.005 0.051-0.009 0.078-0.009 0.036 0 0.071 0.005 0.104 0.015l-0.003-0.001c0.91 0.281 1.821 0.566 2.732 0.85 0.195 0.060 0.389 0.122 0.584 0.183 0.134 0.044 0.229 0.168 0.229 0.314 0 0.016-0.001 0.032-0.003 0.048l0-0.002c-0.017 0.132-0.054 0.26-0.18 0.325-0.047 0.024-0.1 0.034-0.152 0.052zM20.821 6.468c-0.019 0.133-0.055 0.278-0.207 0.352-0.039 0.018-0.084 0.028-0.131 0.028-0.041 0-0.080-0.008-0.116-0.022l0.002 0.001-3.288-1.030c-0.194-0.060-0.278-0.228-0.225-0.435 0.036-0.141 0.104-0.25 0.245-0.28 0.022-0.005 0.047-0.007 0.073-0.007 0.040 0 0.079 0.006 0.116 0.018l-0.003-0.001c0.622 0.192 1.243 0.388 1.864 0.582l1.425 0.444c0.155 0.049 0.246 0.17 0.245 0.35z"></path>
</svg>
