<!-- Generated by IcoMoon.io -->
<svg version="1.1" xmlns="http://www.w3.org/2000/svg" width="32" height="32" viewBox="0 0 32 32">
<title>flo</title>
<path fill="#2080a2" d="M32 16c0 8.837-7.163 16-16 16s-16-7.163-16-16c0-8.837 7.163-16 16-16s16 7.163 16 16z"></path>
<path fill="#fff" d="M15.98 20.297c-1.145 1.307-1.173 3.1 0.013 4.294 1.121-1.080 1.122-3.093-0.013-4.294zM15.981 8.105c-2.705 3.128-2.603 6.826-0.002 9.899 2.648-3.136 2.655-6.816 0.002-9.9zM17.893 17.13c2.25-2.3 4.995-2.826 8.107-2.328-1.003 2.3-2.418 4.137-4.918 5.098 0.552-0.433 1.055-0.787 1.51-1.193 0.76-0.677 1.298-1.497 1.567-2.482 0.085-0.311-0.025-0.399-0.311-0.445-1.047-0.168-2.030 0.052-2.969 0.48-1.58 0.72-2.867 1.829-4.074 3.034-0.021 0.022-0.030 0.054-0.068 0.123 2.365 0.090 4.166 1.034 5.233 3.215-1.386 0.308-2.654 0.243-3.83-0.513 0.886 0.272 1.77 0.47 2.74 0.010-0.12-0.2-0.19-0.434-0.35-0.565-0.437-0.357-0.885-0.718-1.38-0.99-0.765-0.418-1.62-0.614-2.566-0.808 1.277 2.237 0.957 4.268-0.604 6.234-0.726-0.915-1.234-1.872-1.373-3.002-0.14-1.134 0.179-2.164 0.726-3.15-1.21-0.194-3.821 1.207-4.225 2.287 0.937 0.474 1.851 0.258 2.792-0.092-0.676 0.696-2.625 0.981-3.896 0.562 1.055-2.15 2.847-3.097 5.265-3.187-0.178-0.18-0.31-0.319-0.448-0.452-1.006-0.97-2.075-1.86-3.331-2.508-1.027-0.53-2.104-0.862-3.287-0.685-0.14 0.021-0.279 0.055-0.475 0.095 0.36 1.85 1.6 2.997 3.134 3.964-1.612-0.195-4.332-3.012-4.862-5.034 3.11-0.504 5.87 0.048 8.11 2.399-1.853-4.127-0.867-7.78 1.87-11.197 2.715 3.39 3.711 7.017 1.913 11.13z"></path>
</svg>
