<!-- Generated by IcoMoon.io -->
<svg version="1.1" xmlns="http://www.w3.org/2000/svg" width="32" height="32" viewBox="0 0 32 32">
<title>fsn</title>
<path fill="#1d9ad7" d="M32 16c0 8.837-7.163 16-16 16s-16-7.163-16-16c0-8.837 7.163-16 16-16s16 7.163 16 16z"></path>
<path fill="#fff" d="M26 12.212c-1.009-1.054-3.082-1.936-6.948-2.477-0.927-0.142-2.187-0.284-3.459-0.385l-0.211-0.014c-0.953-0.057-1.878-0.114-2.774-0.114-1.485 2.22-2.886 4.897-4.119 8.114-1.345 3.53-2.549 7.004-3.389 10.164h-0.252c0.084-3.388 0.644-7.231 1.793-11.217 0.757-2.59 1.653-4.869 2.662-6.861-4.54 0.484-7.79 1.879-9.302 3.871 1.289-3.16 5.127-5.836 10.983-6.775 3.11-4.641 6.78-6.72 9.834-5.808 1.064 0.313 1.961 0.996 2.69 1.964-0.085-0.057-0.169-0.114-0.28-0.142-2.242-0.911-5.268 0.398-8.21 3.644h0.14c6.584-0.028 9.918 2.762 10.843 6.036zM17.763 16.482c1.793 0 3.25 1.509 3.25 3.36s-1.457 3.359-3.25 3.359-3.25-1.509-3.25-3.36c0-1.878 1.457-3.359 3.25-3.359z"></path>
</svg>
