<!-- Generated by IcoMoon.io -->
<svg version="1.1" xmlns="http://www.w3.org/2000/svg" width="32" height="32" viewBox="0 0 32 32">
<title>ftc</title>
<path fill="#27323a" d="M32 16c0 8.837-7.163 16-16 16s-16-7.163-16-16c0-8.837 7.163-16 16-16s16 7.163 16 16z"></path>
<path fill="#fff" d="M24.603 6s1.647 1.464 0.478 4.443c-0.238 0.578-0.545 1.075-0.92 1.514l0.006-0.008-4.065 4.77-3.262 4.258s-3.746-0.616-5.202 0.895l6.174 0.274s-1.318 1.443-6.52 0.41c0 0 0.070 1.448 2.429 1.86 0 0-2.083 0.689-3.332-1.307 0 0 0 1.448 1.456 2.064 0 0-1.18 0.274-2.152-0.963l-1.663 1.784s-0.345 0.069-0.138-0.273l1.387-1.648s0.138-1.169-0.696-0.758c0 0-0.553 0.205-0.346 0.826 0 0-0.834-0.684 0.139-1.579l-1.876-1.858 2.428 1.305-1.041-2.543 1.732 2.201s-0.144-2.474 0.622-3.159c0 0 0.207 2.406 1.18 2.612l-0.070-5.018 1.042-0.894 0.138 3.158s0.276 0.342 0.552-0.068c0 0 0.627-1.032 0.627-4.054l1.663-1.58 0.208 1.238s0.281 0.479 0.627 0.068l0.345-2.405s2.22-2.543 8.050-5.565zM13.503 19.95c5.754-5.29 8.81-10.444 8.804-10.444-2.842 1.99-8.804 10.445-8.804 10.445z"></path>
</svg>
