<!-- Generated by IcoMoon.io -->
<svg version="1.1" xmlns="http://www.w3.org/2000/svg" width="32" height="32" viewBox="0 0 32 32">
<title>fun</title>
<path fill="#ed1968" d="M32 16c0 8.837-7.163 16-16 16s-16-7.163-16-16c0-8.837 7.163-16 16-16s16 7.163 16 16z"></path>
<path fill="#fff" d="M12.7 26.9c-1.345-0.38-2.515-0.998-3.518-1.814l0.018 0.014c-1.016-0.788-1.877-1.713-2.573-2.758l-0.027-0.042c-0.716-1.059-1.268-2.295-1.585-3.624l-0.015-0.076c-0.167-0.721-0.263-1.549-0.263-2.4s0.096-1.679 0.277-2.474l-0.014 0.074c0.326-1.437 0.844-2.706 1.533-3.86l-0.033 0.060c1.028-1.631 2.452-2.927 4.14-3.773l0.060-0.027c0.538-0.297 1.167-0.568 1.823-0.779l0.077-0.021c1 1.2 2 2.5 3 3.8 0.1 0.2 0.3 0.3 0.4 0.5-1.060 0.046-2.051 0.299-2.947 0.72l0.047-0.020c-0.826 0.438-1.524 1.007-2.091 1.689l-0.009 0.011c-0.545 0.714-0.987 1.544-1.283 2.441l-0.017 0.059c-0.113 0.441-0.178 0.948-0.178 1.47 0 0.653 0.102 1.283 0.29 1.874l-0.012-0.044 4.3-3.4c1 1.3 2 2.5 3 3.8-1.4 1.1-2.9 2.2-4.3 3.4 1.4 1.8 2.9 3.7 4.3 5.6-0.376 0.047-0.812 0.074-1.254 0.074-1.123 0-2.205-0.173-3.222-0.494l0.076 0.021zM22.23 14.786c-0.046-0.207-0.091-0.37-0.142-0.53l0.012 0.044c-0.135 0.106-3.11 2.38-4.3 3.4-1-1.3-2-2.5-3-3.8 1.4-1.1 2.9-2.2 4.3-3.4-1.4-1.8-2.8-3.6-4.3-5.5 0-0.1-0.1-0.1-0.1-0.2h1.4c2.678 0.026 5.123 1.005 7.016 2.613l-0.016-0.013c0.947 0.787 1.745 1.712 2.373 2.752l0.027 0.048c0.714 1.081 1.21 2.368 1.395 3.754l0.005 0.046c0.114 0.629 0.178 1.353 0.178 2.092 0 0.924-0.101 1.824-0.294 2.69l0.015-0.082c-0.309 1.371-0.864 2.578-1.62 3.629l0.020-0.029c-0.688 1.053-1.518 1.946-2.475 2.681l-0.025 0.019c-0.92 0.803-2.024 1.421-3.238 1.784l-0.062 0.016c-0.9-1.1-1.7-2.1-2.5-3.2-0.285-0.325-0.549-0.685-0.781-1.066l-0.019-0.034c0.006 0 0.013 0 0.021 0 1.98 0 3.742-0.934 4.869-2.386l0.010-0.014c0.553-0.703 0.969-1.541 1.191-2.456l0.009-0.044c0.186-0.759 0.196-1.697 0.030-2.814zM17.507 23.159c0.801 1.092 1.506 1.994 2.234 2.875l-0.084-0.105c0.998-0.366 1.857-0.884 2.597-1.533l-0.009 0.008c0.922-0.709 1.7-1.549 2.32-2.501l0.024-0.039c0.68-0.944 1.192-2.057 1.466-3.261l0.012-0.061c0.314-1.452 0.345-2.951 0.090-4.446-0.177-1.324-0.638-2.513-1.32-3.543l0.019 0.031c-0.611-1.015-1.356-1.878-2.223-2.598l-0.017-0.013c-1.725-1.467-3.966-2.375-6.417-2.422l-0.010-0c0.927 1.18 1.866 2.383 3.503 4.489l0.44 0.564-0.544 0.465c-0.617 0.529-1.326 1.105-2.049 1.665l-0.129 0.096c-0.070 0.055-0.92 0.708-1.558 1.202 0.263 0.335 0.568 0.717 1.034 1.3 0.46 0.575 0.765 0.958 1.028 1.293 0.464-0.383 0.97-0.785 1.576-1.255 0.098-0.076 1.696-1.306 2.147-1.66l0.856-0.673 0.323 1.040c0.198 0.614 0.312 1.32 0.312 2.053 0 0.583-0.072 1.149-0.208 1.69l0.010-0.048c-0.257 1.068-0.72 2.003-1.348 2.802l0.012-0.016c-1.004 1.294-2.435 2.214-4.078 2.551l-0.045 0.008 0.036 0.042z"></path>
</svg>
