<!-- Generated by IcoMoon.io -->
<svg version="1.1" xmlns="http://www.w3.org/2000/svg" width="32" height="32" viewBox="0 0 32 32">
<title>game</title>
<path fill="#2d475b" d="M32 16c0 8.837-7.163 16-16 16s-16-7.163-16-16c0-8.837 7.163-16 16-16s16 7.163 16 16z"></path>
<path fill="#fff" d="M12.869 12.685h11.085v2.488h-11.085zM23.954 16.829h0.046v6.543s-8.647 6.265-15.363-0.552c0 0-3.68-3.732-2.346-9.168 0 0 1.058-6.771 9.108-7.6 0 0 4.967-0.692 8.187 2.994l-1.932 1.888s-4.094-4.238-9.567-0.92c0 0-4.462 2.487-2.622 8.752 0 0 2.024 5.436 8.371 4.33 0 0 2.162-0.492 3.266-1.444v-2.335h-8.232v-2.488z"></path>
</svg>
