<!-- Generated by IcoMoon.io -->
<svg version="1.1" xmlns="http://www.w3.org/2000/svg" width="32" height="32" viewBox="0 0 32 32">
<title>gbp</title>
<path fill="#bc3fe0" d="M32 16c0 8.837-7.163 16-16 16s-16-7.163-16-16c0-8.837 7.163-16 16-16s16 7.163 16 16z"></path>
<path fill="#fff" d="M11.087 14.815v-2.332c0-3.676 2.219-5.983 6.075-5.983 2.932 0 4.57 1.242 5.838 2.84l-2.483 1.9c-0.951-1.165-1.85-1.85-3.328-1.85-1.77 0-2.827 1.217-2.827 3.17v2.255h6.578v2.637h-6.578v4.335h8.585v2.713h-13.947v-1.977l2.087-0.609v-4.462h-2.087v-2.637z"></path>
</svg>
