<!-- Generated by IcoMoon.io -->
<svg version="1.1" xmlns="http://www.w3.org/2000/svg" width="32" height="32" viewBox="0 0 32 32">
<title>gbx</title>
<path fill="#1666af" d="M32 16c0 8.837-7.163 16-16 16s-16-7.163-16-16c0-8.837 7.163-16 16-16s16 7.163 16 16z"></path>
<path fill="#fff" d="M15.699 11.006v2.060h-4.7c-0.61 0-1.361 0.214-1.92 0.61-0.693 0.492-1.080 1.229-1.080 2.327s0.387 1.835 1.080 2.327c0.559 0.396 1.31 0.61 1.92 0.61h2v2.060h-2c-1.144-0.012-2.201-0.374-3.071-0.985l0.017 0.012c-1.228-0.872-1.945-2.238-1.945-4.024s0.717-3.152 1.945-4.024c0.853-0.599 1.909-0.961 3.050-0.973l0.003-0zM10.699 17.188v-2.060h5v5.872h-1.999v-3.812zM19 13.060v-2.060h7v10h-9.002v-7.933h2v5.872h5.002v-5.878z"></path>
</svg>
