<!-- Generated by IcoMoon.io -->
<svg version="1.1" xmlns="http://www.w3.org/2000/svg" width="32" height="32" viewBox="0 0 32 32">
<title>generic</title>
<path fill="#efb914" d="M32 16c0 8.837-7.163 16-16 16s-16-7.163-16-16c0-8.837 7.163-16 16-16s16 7.163 16 16z"></path>
<path fill="#fff" d="M21.002 9.855c1.646 1.3 2.76 3.212 2.995 5.388l0.003 0.035-2.847-0.708c-0.557-1.818-2.006-3.203-3.823-3.659l-0.037-0.008c-2.866-0.713-5.76 0.991-6.465 3.806s1.050 5.675 3.917 6.388c0.395 0.104 0.848 0.163 1.315 0.163 1.494 0 2.845-0.609 3.818-1.593l0-0 2.847 0.707c-1.193 1.748-3.024 2.985-5.151 3.377l-0.049 0.008-0.81 3.241-2.596-0.645 0.644-2.575c-0.498-0.083-0.935-0.195-1.356-0.34l0.058 0.017-0.643 2.575-2.596-0.646 0.81-3.241c-2.378-1.875-3.575-4.996-2.804-8.081s3.297-5.281 6.28-5.823l0.81-3.241 2.596 0.645-0.644 2.575c0.498 0.083 0.935 0.195 1.356 0.34l-0.058-0.017 0.643-2.575 2.596 0.646z"></path>
</svg>
