<!-- Generated by IcoMoon.io -->
<svg version="1.1" xmlns="http://www.w3.org/2000/svg" width="32" height="32" viewBox="0 0 32 32">
<title>glxt</title>
<path fill="#005396" d="M32 16c0 8.837-7.163 16-16 16s-16-7.163-16-16c0-8.837 7.163-16 16-16s16 7.163 16 16z"></path>
<path fill="#fff" d="M12.328 4.598c0.951-0.317 2.049-0.522 3.187-0.566l0.023-0.001c1.497-0.068 3.002 0.175 4.417 0.658 2.361 0.849 4.319 2.339 5.721 4.261l0.024 0.034c0.33 0.44 0.608 0.913 0.876 1.393 0.311 0.608 0.592 1.234 0.804 1.883 0.28 0.891 0.49 1.814 0.555 2.749 0.034 0.202 0.012 0.408 0.040 0.61 0.010 0.253 0.006 0.506 0 0.761-0.028 0.203-0.006 0.409-0.040 0.611-0.060 0.842-0.234 1.674-0.474 2.484-0.23 0.753-0.495 1.396-0.811 2.008l0.031-0.066c-1.201 2.325-3.065 4.165-5.341 5.305l-0.069 0.032c-0.577 0.296-1.252 0.559-1.956 0.755l-0.077 0.018c-1.175 0.337-2.4 0.48-3.618 0.446-0.203-0.028-0.412-0.006-0.611-0.040-0.913-0.063-1.811-0.262-2.684-0.534-3.563-1.181-6.336-3.882-7.59-7.314l-0.027-0.084c-0.39-1.135-0.64-2.322-0.67-3.525-0.041-0.577 0.003-1.157 0.050-1.733 0.087-0.851 0.28-1.693 0.542-2.506 0.831-2.442 2.348-4.47 4.32-5.912l0.034-0.024c0.44-0.33 0.913-0.61 1.393-0.876 0.549-0.299 1.194-0.578 1.865-0.801l0.086-0.025zM14.638 8.928v2.802c-0.006 0.050 0.040 0.078 0.065 0.112 0.43 0.452 0.864 0.9 1.294 1.353-0.002-0.633-0.002-1.383-0.002-2.133s0.001-1.499 0.003-2.249l-0 0.115c-0.452 0-0.907-0.003-1.36 0zM8.728 10.378c0.103 0.068 0.178 0.167 0.265 0.252 0.926 0.935 1.855 1.867 2.777 2.808 0.845 0.854 1.693 1.705 2.534 2.559-1.019 1.044-2.057 2.070-3.073 3.114-0.813 0.82-1.627 1.64-2.437 2.459-0.019 0.015-0.040 0.032-0.062 0.048l-0.004 0.002c1.197 0 2.397 0.003 3.597-0.006 1.225-1.282 2.456-2.56 3.678-3.844 1.225 1.281 2.453 2.562 3.678 3.844 1.197 0.009 2.394 0.003 3.59 0.006-0.183-0.147-0.327-0.33-0.498-0.49-0.857-0.866-1.72-1.733-2.575-2.602-0.829-0.845-1.673-1.677-2.496-2.528 0.2-0.2 0.386-0.408 0.592-0.605 1.568-1.58 3.13-3.166 4.697-4.747 0.094-0.090 0.172-0.196 0.28-0.27-1.2 0-2.396-0.004-3.593 0.002-1.225 1.281-2.453 2.56-3.678 3.84-1.222-1.284-2.453-2.562-3.678-3.84-1.197-0.003-2.397-0.003-3.594-0.003zM16.006 18.793c0 1.427 0.003 2.852-0.003 4.28 0.455-0.004 0.91 0 1.362 0v-2.806c0-0.003 0.001-0.007 0.001-0.012 0-0.028-0.012-0.053-0.032-0.069l-0-0c-0.23-0.25-0.474-0.483-0.701-0.732-0.206-0.225-0.427-0.43-0.627-0.661z"></path>
</svg>
