<!-- Generated by IcoMoon.io -->
<svg version="1.1" xmlns="http://www.w3.org/2000/svg" width="32" height="32" viewBox="0 0 32 32">
<title>gmr</title>
<path fill="#372d2c" d="M32 16c0 8.837-7.163 16-16 16s-16-7.163-16-16c0-8.837 7.163-16 16-16s16 7.163 16 16z"></path>
<path fill="#000" d="M9.965 18.487l0.101-0.075h-0.034l-0.466 0.43c0.11-0.142 0.243-0.26 0.394-0.351l0.006-0.004z"></path>
<path fill="#fff" d="M26.95 13.44c-0.049-0.076-0.124-0.131-0.212-0.153l-0.003-0.001c-0.083-0.031-0.433-0.114-0.785-0.192l-0.255-0.048 0.094-0.464 0.060-0.292 0.028-0.148 0.027-0.16c0.011-0.064 0.017-0.137 0.017-0.211 0-0.177-0.034-0.347-0.097-0.502l0.003 0.009c-0.192-0.48-0.613-0.831-1.124-0.921l-0.009-0.001c-0.097-0.585-0.217-1.088-0.367-1.578l0.023 0.086-0.017-0.060-2.486-3.020-0.093-0.027c-0.101-0.027-2.341-0.689-5.39-0.69l0.034-0.602c0.498-0.167 0.85-0.63 0.85-1.174 0-0.683-0.553-1.236-1.236-1.236-0.005 0-0.010 0-0.014 0h0.001c-0.003-0-0.007-0-0.011-0-0.683 0-1.236 0.553-1.236 1.236 0 0.543 0.351 1.005 0.838 1.17l0.009 0.003 0.035 0.605c-3.062 0.003-5.314 0.661-5.41 0.693l-0.093 0.027-2.486 3.020-0.016 0.060c-0.146 0.49-0.261 0.987-0.344 1.49h-0.008l-0.176 0.044c-0.598 0.187-1.025 0.736-1.025 1.384 0 0.069 0.005 0.136 0.014 0.202l-0.001-0.008 0.027 0.159 0.028 0.148 0.060 0.292 0.094 0.466c-0.345 0.076-0.69 0.154-1.034 0.238-0.091 0.023-0.166 0.078-0.214 0.153l-0.001 0.001c-0.030 0.050-0.048 0.11-0.048 0.175 0 0.188 0.153 0.341 0.341 0.341 0.029 0 0.057-0.004 0.084-0.010l-0.002 0.001c0.336-0.082 0.672-0.16 1.009-0.233l0.025 0.128c-0.305 0.935-0.481 2.010-0.481 3.127 0 1.606 0.364 3.127 1.014 4.485l-0.027-0.063c1.508 3.218 4.978 6.688 9.038 6.688s7.53-3.47 9.042-6.693c0.619-1.292 0.981-2.809 0.981-4.41 0-1.122-0.178-2.203-0.506-3.216l0.021 0.074 0.024-0.118c0.338 0.074 0.676 0.152 1.013 0.234 0.024 0.006 0.052 0.010 0.081 0.010 0.188 0 0.341-0.153 0.341-0.341 0-0.065-0.018-0.125-0.049-0.176l0.001 0.002 0.002-0.003zM15.112 3.298c0.002-0.536 0.433-0.971 0.967-0.979h0.001c0.54 0 0.54 1.953 0 1.958-0.535-0.008-0.966-0.443-0.968-0.979v-0zM15.76 4.508c0.079 0.015 0.158 0.023 0.238 0.023h0.038l0.076 2.102c0.042 0.056 0.068 0.127 0.068 0.204 0 0.094-0.038 0.179-0.1 0.24v0c-0.062 0.062-0.147 0.1-0.241 0.1-0 0-0.001 0-0.001 0h0c-0.506 0-0.913-0.154-0.913-0.34 0-0.172 0.342-0.315 0.79-0.339l0.123-0.003h0.034l-0.112-1.987zM8.156 9.345l0.291-0.104 0.495-0.165 0.65-0.192c0.236-0.072 0.5-0.138 0.775-0.21l0.874-0.197c0.303-0.060 0.616-0.127 0.94-0.182s0.65-0.099 0.98-0.154 0.66-0.082 0.984-0.12c0.325-0.040 0.644-0.056 0.957-0.083 0.165-0.015 0.334-0.022 0.495-0.028h0.017l0.385 3.427 0.39-3.456h0.418c0.248 0 0.479-0.011 0.682 0l0.528 0.022 0.462 0.016-0.984-0.094c-0.204-0.021-0.43-0.027-0.682-0.043-0.238-0.019-0.52-0.031-0.804-0.033l-0.005-0h-0.004c-0.284 0-0.59-0.017-0.902-0.006s-0.638 0.006-0.968 0.028l-1.001 0.066c-0.336 0.027-0.671 0.055-1.001 0.099s-0.655 0.093-0.963 0.132c-0.297 0.037-0.59 0.094-0.866 0.143l-0.492-0.039 0.979-1.336 4.889-1.066 0.030 0.53c-0.66 0.052-1.155 0.271-1.155 0.534 0 0.3 0.65 0.544 1.452 0.544s1.452-0.243 1.452-0.544c0-0.263-0.495-0.482-1.155-0.534l0.030-0.528 4.868 1.063 0.98 1.336-1.362 0.11-0.025-0.003 0.015 0.004h-0.020l2.607 1.292s1.124 3.61-0.425 6.678c-0.195 0.379-0.399 0.703-0.628 1.008l0.013-0.018s-2.406 1.111-6.105 1.307l-0.247-1.017c0.022 0.001 0.047 0.001 0.073 0.001 0.292 0 0.571-0.057 0.826-0.16l-0.015 0.005 0.77-0.253c1.564-0.482 3.13-0.957 4.697-1.424l0.154-0.044 0.1-0.286 0.038-0.138 0.071-0.27c0.126-0.53 0.216-1.068 0.27-1.611l0.044-0.55 0.010-0.275v-0.28l0.006-0.286-0.027-0.286-0.044-0.286c-0.023-0.111-0.047-0.203-0.077-0.293l0.005 0.018-0.044-0.143-0.050-0.171-0.035-0.005-0.014-0.044-0.050-0.171-0.197-0.027c-1.424-0.177-3.118-0.298-4.833-0.335l-0.057-0.001-0.17-0.005-0.072 0.143-0.896 1.756-0.484 0.008-0.53 0.010-0.96-1.72-0.050-0.093-0.1 0.006c-0.813 0.045-1.625 0.111-2.436 0.198-1.002 0.106-1.826 0.224-2.642 0.368l0.228-0.033h0.006l-0.034 0.11c-0.006 0.019-0.015 0.047-0.022 0.077l-0.002 0.009c0.016-0.065 0.035-0.129 0.055-0.196-0.037 0.105-0.075 0.19-0.116 0.273l0.006-0.014c-0.018 0.070-0.038 0.139-0.051 0.209l-0.010 0.027-0.060 0.27-0.044 0.269-0.028 0.275c-0.010 0.182-0.016 0.369-0.010 0.55l0.021 0.55c0.037 0.55 0.11 1.098 0.22 1.639l0.060 0.27 0.078 0.275 0.022 0.066 0.077 0.027 3.113 1.023c0.916 0.298 1.831 0.605 2.744 0.919 0.078 0.016 0.157 0.027 0.237 0.033l0.055 0.005h0.016l0.028 0.006 0.115 0.005h0.017l-0.254 1.035c-0.182 0.006-0.395 0.009-0.61 0.009-0.743 0-1.477-0.039-2.201-0.115l0.090 0.008c-2.222-0.298-3.684-0.83-4.064-0.981-0.751-1.508-1.191-3.284-1.191-5.163 0-1.059 0.14-2.086 0.402-3.063l-0.019 0.082zM19.956 10.875l-3.138 5.915-0.143 0.049c-0.158 0.059-0.34 0.096-0.53 0.104l-0.003 0c-0.057 0.006-0.123 0.010-0.191 0.010-0.227 0-0.445-0.040-0.648-0.113l0.013 0.004-0.1-0.038 0.126-0.235 3.219-6.063c0.5 0.022 1.012 0.061 1.534 0.105l-0.14 0.262zM20.86 10.965l0.144-0.272 0.423 0.039 0.402 0.044 0.050 0.005h0.032l-0.148 0.28-2.64 4.975-1.144 0.363 0.197-0.373 2.684-5.061zM6.51 12.235l-0.016-0.148-0.011-0.143c-0.001-0.020-0.002-0.043-0.002-0.066 0-0.45 0.302-0.829 0.714-0.947l0.007-0.002c-0.053 0.425-0.083 0.917-0.083 1.416 0 1.232 0.184 2.422 0.526 3.543l-0.023-0.086-0.045-0.014c-0.33-0.119-0.585-0.374-0.701-0.696l-0.003-0.008c-0.041-0.124-0.070-0.268-0.082-0.418l-0-0.006-0.248-2.126-0.033-0.3zM9.264 23.688l-0.015-0.012 0.007 0.010c-0.058-0.016-0.109-0.044-0.15-0.082l0 0c-0.587-0.723-1.108-1.54-1.53-2.414l-0.032-0.075c-0.582-1.213-0.922-2.637-0.922-4.14 0-0.626 0.059-1.239 0.172-1.832l-0.010 0.061 0.004 0.010c0.174 0.326 0.478 0.563 0.842 0.642l0.008 0.002c0.213 0.702 0.489 1.383 0.825 2.035l0.050 0.088 0.093 0.044c0.352 0.144 0.711 0.27 1.076 0.379h0.009l-0.026 0.008c-0.103 0.035-0.182 0.065-0.26 0.099l0.021-0.008c-0.097 0.040-0.161 0.069-0.225 0.1l0.029-0.013-0.561 0.269-0.017 0.138c-0.031 0.253-0.048 0.546-0.048 0.843 0 0.809 0.13 1.588 0.369 2.318l-0.015-0.052c0.155 0.499 0.373 0.976 0.649 1.42l0.005 0.010 0.017 0.044c0.024 0.111-0.19 0.156-0.365 0.11zM13.044 25.9c-0.808-0.3-1.5-0.739-2.081-1.293l0.002 0.002c-0.333-0.326-0.62-0.697-0.85-1.104l-0.013-0.025c-0.214-0.379-0.395-0.818-0.519-1.28l-0.009-0.040c-0.111-0.413-0.187-0.895-0.214-1.39l-0.001-0.018c-0.010-0.13-0.016-0.282-0.016-0.436 0-0.287 0.020-0.57 0.058-0.846l-0.004 0.032 0.258-0.103c0.265-0.087 0.533-0.164 0.803-0.23l0.413-0.083c0.357-0.060 0.716-0.103 1.078-0.127h0.043l0.016 0.002c-0.291 0.77-0.46 1.66-0.46 2.59 0 0.014 0 0.028 0 0.043v-0.002c0 1.79 0.59 3.313 1.527 4.328l-0.032-0.019zM17.344 24.757c-0.384 0.221-0.845 0.352-1.337 0.352-0.007 0-0.015-0-0.022-0h0.001c-0.004 0-0.008 0-0.013 0-0.515 0-0.997-0.143-1.407-0.392l0.012 0.007c-0.195-0.211-0.366-0.45-0.503-0.709l-0.009-0.018c0.468 0.54 1.155 0.88 1.921 0.88 0.735 0 1.396-0.312 1.86-0.812l0.001-0.002c-0.145 0.264-0.312 0.492-0.505 0.695l0.001-0.001v-0.001zM15.986 24.339c-0.003 0-0.006 0-0.009 0-1.080 0-1.955-0.873-1.96-1.952v-0.007c0-0.001 0-0.001 0-0.002 0-1.082 0.878-1.96 1.96-1.96s1.96 0.878 1.96 1.96c0 1.079-0.872 1.954-1.949 1.96h-0.001v0.001zM18.474 22c-0.209-1.201-1.243-2.102-2.488-2.102-1.275 0-2.328 0.945-2.499 2.173l-0.002 0.013c-0.028-0.197-0.047-0.433-0.055-0.673l-0-0.010c0.409-1.023 1.392-1.733 2.541-1.733 0.006 0 0.011 0 0.017 0h0.009c0.002 0 0.004 0 0.006 0 1.13 0 2.099 0.686 2.514 1.665l0.007 0.018c-0.008 0.239-0.026 0.463-0.055 0.685l0.004-0.035zM18.906 25.931h0.010l-0.020 0.007c0.95-1.016 1.55-2.549 1.55-4.353 0-0.013 0-0.029 0-0.045 0-0.928-0.169-1.817-0.478-2.637l0.017 0.052h0.014c1.415 0.204 2.152 0.93 2.152 0.93s0.15 4.146-3.243 6.046h-0.002zM25.369 16.991v0.214c0 0.049-0.004 0.097-0.005 0.145-0.004 0.126-0.010 0.239-0.020 0.353l0.002-0.025c0 0.034-0.006 0.069-0.009 0.103-0.006 0.071-0.012 0.143-0.020 0.213 0 0.016-0.003 0.032-0.005 0.048-0.012 0.116-0.021 0.187-0.031 0.257l0.006-0.051v0.010l-0.028 0.198v0.007c-0.174 1.107-0.509 2.103-0.984 3.014l0.026-0.054-0.034 0.066c-0.035 0.067-0.070 0.135-0.107 0.202-0.394 0.728-0.815 1.355-1.288 1.938l0.018-0.023c-0.039 0.038-0.088 0.066-0.142 0.081l-0.002 0.001 0.006-0.010-0.015 0.012c-0.173 0.050-0.394 0.007-0.37-0.11l0.017-0.044 0.010-0.010c0.273-0.446 0.49-0.922 0.645-1.42 0.221-0.677 0.349-1.456 0.349-2.265 0-0.295-0.017-0.586-0.050-0.872l0.003 0.035-0.016-0.137-0.138-0.066c-0.143-0.072-0.28-0.143-0.423-0.204l-0.435-0.176-0.039-0.014 0.010-0.003c0.363-0.107 0.72-0.235 1.069-0.381l0.093-0.044 0.050-0.088c0.335-0.652 0.61-1.332 0.822-2.032 0.375-0.077 0.695-0.317 0.873-0.655 0.105 0.562 0.16 1.133 0.165 1.705-0.002 0.024-0.003 0.053-0.003 0.082v0z"></path>
<path fill="#000" d="M9.646 11.135l0.231-0.28h-0.038c-0.116 0.17-0.258 0.333-0.385 0.5 0.073-0.074 0.13-0.143 0.192-0.22z"></path>
<path fill="#fff" d="M16.95 6.21c0.484 0.127 0.803 0.358 0.803 0.627s-0.324 0.5-0.803 0.627c0.66-0.060 1.155-0.319 1.155-0.627s-0.495-0.569-1.155-0.627zM15.359 8.682c0 0 0 0 0 0 0.139 0 0.252-0.111 0.254-0.25v-0c0-0 0-0 0-0 0-0.070-0.029-0.134-0.075-0.18l-0-0c-0.044-0.043-0.104-0.070-0.171-0.070-0.003 0-0.006 0-0.009 0h0c-0.136 0.002-0.245 0.112-0.245 0.248 0 0.001 0 0.001 0 0.002v-0c0 0.138 0.11 0.25 0.246 0.25zM8.714 9.524c-0.138 0.001-0.25 0.114-0.25 0.252 0 0.069 0.028 0.132 0.074 0.178v0c0.047 0.047 0.11 0.072 0.176 0.070 0.138-0.001 0.25-0.114 0.25-0.252 0-0.069-0.028-0.132-0.074-0.178v0c-0.043-0.043-0.102-0.070-0.168-0.070-0.003 0-0.005 0-0.008 0h0zM9.407 17.597c0.138-0.001 0.25-0.114 0.25-0.252 0-0.070-0.028-0.132-0.074-0.178v0c-0.043-0.043-0.102-0.070-0.168-0.070-0.003 0-0.005 0-0.008 0h0c-0.138 0.001-0.249 0.112-0.25 0.25v0c0.005 0.14 0.115 0.25 0.25 0.25zM15.479 18.554c0.138-0.001 0.25-0.114 0.25-0.252 0-0.070-0.028-0.132-0.074-0.178v0c-0.043-0.043-0.102-0.070-0.168-0.070-0.003 0-0.005 0-0.008 0h0c-0.139 0.003-0.25 0.116-0.25 0.255 0 0 0 0 0 0v0c0.009 0.133 0.116 0.238 0.249 0.245l0.001 0zM16.844 8.687c0 0 0 0 0 0 0.139 0 0.252-0.111 0.254-0.25v-0c0-0 0-0 0-0 0-0.070-0.029-0.134-0.075-0.18l-0-0c-0.044-0.043-0.105-0.070-0.171-0.070-0.003 0-0.006 0-0.009 0h0c-0.136 0.002-0.245 0.112-0.245 0.248 0 0.001 0 0.001 0 0.002v-0c0 0.139 0.11 0.25 0.246 0.25zM16.722 18.060c-0.137 0.002-0.248 0.113-0.25 0.25v0c0.010 0.137 0.117 0.245 0.25 0.25 0.138-0.001 0.25-0.114 0.25-0.252 0-0.070-0.028-0.132-0.074-0.178v0c-0.043-0.043-0.102-0.070-0.168-0.070-0.003 0-0.005 0-0.008 0h0zM9.945 19.743c-0.005-0-0.011-0.001-0.017-0.001-0.086 0-0.161 0.046-0.201 0.116l-0.001 0.001c-0.023 0.038-0.037 0.085-0.037 0.134 0 0.045 0.011 0.088 0.032 0.125l-0.001-0.001c0.044 0.080 0.126 0.129 0.214 0.125h0.010c0.136-0.003 0.245-0.114 0.245-0.25 0-0 0-0 0-0v0c0-0.001 0-0.002 0-0.003 0-0.065-0.025-0.125-0.066-0.169l0 0c-0.044-0.047-0.107-0.077-0.177-0.077-0.001 0-0.002 0-0.003 0h0zM11.454 19.292c-0.136 0.001-0.246 0.112-0.246 0.248 0 0.001 0 0.001 0 0.002v-0c0 0.138 0.11 0.25 0.246 0.25 0 0 0 0 0 0 0.139 0 0.252-0.111 0.254-0.25v-0c0-0 0-0 0-0 0-0.070-0.029-0.134-0.075-0.18l-0-0c-0.044-0.043-0.104-0.070-0.171-0.070-0.003 0-0.006 0-0.009 0h0zM20.75 19.292c-0.134 0.005-0.241 0.115-0.241 0.25 0 0.138 0.112 0.25 0.25 0.25 0.003 0 0.007-0 0.010-0h-0c0.134-0.006 0.24-0.115 0.24-0.25 0-0.138-0.112-0.25-0.25-0.25-0.004 0-0.007 0-0.011 0l0-0z"></path>
</svg>
