<!-- Generated by IcoMoon.io -->
<svg version="1.1" xmlns="http://www.w3.org/2000/svg" width="32" height="32" viewBox="0 0 32 32">
<title>gno</title>
<path fill="#00a6c4" d="M32 16c0 8.837-7.163 16-16 16s-16-7.163-16-16c0-8.837 7.163-16 16-16s16 7.163 16 16z"></path>
<path fill="#fff" d="M24.777 10.5l0.2 0.331c0.957 1.581 1.523 3.492 1.523 5.534 0 0.001 0 0.002 0 0.003v-0c-0.018 5.868-4.715 10.632-10.5 10.632h-0.018c-5.785 0-10.5-4.801-10.482-10.669 0-1.968 0.544-3.881 1.541-5.537l0.182-0.312 0.961 0.975c-0.18 0.259-0.333 0.557-0.445 0.874l-0.008 0.026c-0.154 0.413-0.243 0.89-0.243 1.388 0 1.75 1.099 3.243 2.645 3.827l0.028 0.009c0.402 0.148 0.866 0.233 1.35 0.233 0.843 0 1.625-0.259 2.272-0.702l-0.014 0.009 2.231 2.281 2.557-2.594c0.236 0.166 0.508 0.295 0.798 0.405 2.050 0.736 4.298-0.35 5.023-2.41 0.435-1.214 0.236-2.483-0.399-3.495l0.798-0.809zM9.363 12.652l3.010 3.035c-0.363 0.295-0.816 0.46-1.306 0.46-1.178 0-2.14-0.975-2.14-2.17 0-0.497 0.164-0.957 0.436-1.325zM19.863 15.503l2.974-3.016c0.236 0.35 0.362 0.772 0.362 1.214 0 1.195-0.96 2.17-2.14 2.17-0.453 0-0.852-0.129-1.196-0.368zM16.036 17.784l-8.668-8.83 0.344-0.367c2.14-2.3 5.060-3.587 8.198-3.587h0.018c3.174 0 6.22 1.38 8.342 3.77l0.327 0.369-8.56 8.645zM8.782 8.954l7.254 7.377 7.164-7.229c-1.922-1.95-4.533-3.072-7.253-3.072h-0.019c-2.702 0-5.222 1.030-7.145 2.925z"></path>
</svg>
