<!-- Generated by IcoMoon.io -->
<svg version="1.1" xmlns="http://www.w3.org/2000/svg" width="32" height="32" viewBox="0 0 32 32">
<title>gnt</title>
<path fill="#001d57" d="M32 16c0 8.837-7.163 16-16 16s-16-7.163-16-16c0-8.837 7.163-16 16-16s16 7.163 16 16z"></path>
<path fill="#fff" d="M20.499 5.288l1.203 1.204-2.277 2.34c0.48 0.73 0.738 1.591 0.738 2.479 0 0.009 0 0.020 0 0.031 0 1.206-0.48 2.3-1.259 3.101l0.001-0.001c-0.579 0.611-1.337 1.046-2.19 1.221l-0.027 0.005v2.039c0.876 0.185 1.631 0.617 2.212 1.219l0.001 0.001c0.781 0.801 1.262 1.897 1.262 3.105 0 0.011-0 0.022-0 0.032v-0.002c0 0.009 0 0.019 0 0.030 0 1.208-0.481 2.304-1.263 3.106l0.001-0.001c-0.776 0.803-1.863 1.302-3.066 1.302-0.001 0-0.002 0-0.004 0h0c-0.004 0-0.008 0-0.013 0-1.2 0-2.284-0.499-3.056-1.301l-0.001-0.001c-0.78-0.804-1.261-1.903-1.261-3.113 0-0.008 0-0.015 0-0.023v0.001c0-1.18 0.448-2.299 1.258-3.132 0.579-0.61 1.337-1.045 2.19-1.22l0.027-0.005v-2.040c-0.876-0.185-1.631-0.617-2.212-1.219l-0.001-0.001c-0.781-0.804-1.262-1.903-1.262-3.114 0-0.008 0-0.015 0-0.023v0.001c0-1.18 0.448-2.299 1.262-3.135 0.776-0.804 1.864-1.303 3.067-1.303 0.001 0 0.002 0 0.003 0h-0c0.86 0 1.687 0.262 2.395 0.749l2.273-2.333zM15.832 19.345c-0.006-0-0.013-0-0.020-0-0.723 0-1.375 0.303-1.836 0.789l-0.001 0.001c-0.479 0.495-0.775 1.17-0.775 1.914 0 0.005 0 0.010 0 0.015v-0.001c0 0.725 0.275 1.402 0.775 1.927 0.47 0.487 1.128 0.79 1.857 0.79h0c0.006 0 0.012 0 0.019 0 0.723 0 1.375-0.303 1.836-0.789l0.001-0.001c0.479-0.495 0.775-1.17 0.775-1.914 0-0.005 0-0.009-0-0.014v0.001c0-0.725-0.275-1.402-0.778-1.931-0.461-0.485-1.112-0.787-1.833-0.787-0.007 0-0.014 0-0.021 0h0.001zM17.685 13.255c0.481-0.495 0.778-1.172 0.778-1.918 0-0.004 0-0.009-0-0.013v0.001c0-0.010 0-0.022 0-0.035 0-0.738-0.296-1.406-0.776-1.894l0 0c-0.469-0.487-1.127-0.79-1.856-0.79h-0c-0.006-0-0.013-0-0.020-0-0.723 0-1.375 0.303-1.836 0.789l-0.001 0.001c-0.479 0.495-0.775 1.17-0.775 1.914 0 0.005 0 0.010 0 0.015v-0.001c0 0.725 0.275 1.402 0.775 1.927 0.47 0.487 1.128 0.79 1.857 0.79h0c0.711 0 1.367-0.276 1.853-0.786z"></path>
</svg>
