<!-- Generated by IcoMoon.io -->
<svg version="1.1" xmlns="http://www.w3.org/2000/svg" width="32" height="32" viewBox="0 0 32 32">
<title>grc</title>
<path fill="#5411b3" d="M32 16c0 8.837-7.163 16-16 16s-16-7.163-16-16c0-8.837 7.163-16 16-16s16 7.163 16 16z"></path>
<path fill="#fff" d="M16.053 5c0.53 0.319 1.056 0.645 1.59 0.956 2.535 1.47 5.070 2.938 7.608 4.402 0.167 0.096 0.241 0.203 0.241 0.408-0.005 3.492-0.004 6.984 0.008 10.476 0 0.228-0.104 0.323-0.27 0.419-3.017 1.746-6.032 3.495-9.047 5.244-0.046 0.027-0.087 0.063-0.13 0.095h-0.11c-0.91-0.536-1.82-1.077-2.733-1.608-2.154-1.251-4.31-2.5-6.468-3.743-0.183-0.105-0.243-0.225-0.242-0.435 0.010-3.464 0.012-6.928 0.005-10.393 0-0.248 0.085-0.373 0.289-0.49 2.989-1.724 5.973-3.454 8.958-5.184 0.069-0.040 0.128-0.098 0.191-0.147h0.11zM18.859 22.48c0.413 0.283 0.817 0.58 1.233 0.88 0.023-0.010 0.057-0.024 0.088-0.041 1.35-0.781 2.703-1.56 4.049-2.35 0.080-0.047 0.15-0.185 0.15-0.28 0.007-3.126 0.006-6.251-0.003-9.376-0.010-0.114-0.069-0.212-0.155-0.274l-0.001-0.001c-1.33-0.782-2.667-1.55-3.998-2.329-0.138-0.080-0.215-0.056-0.332 0.035-0.323 0.253-3.499 2.193-4.743 2.94-0.972 0.582-1.922 1.196-2.674 2.070-1.037 1.205-1.134 2.875-0.227 4.185 0.449 0.65 1.048 1.144 1.69 1.583 0.512 0.349 1.040 0.673 1.56 1.008-0.014 0.020-0.022 0.040-0.036 0.048-0.686 0.398-1.37 0.8-2.064 1.187-0.067 0.037-0.206 0-0.282-0.048-0.762-0.496-1.422-1.050-2.009-1.674l-0.005-0.006c-1.73-1.814-2.082-4.787-0.82-6.956 0.594-1.011 1.388-1.843 2.332-2.464l0.028-0.017c1.26-0.824 4.77-2.907 5.235-3.192-0.040-0.052-0.051-0.080-0.072-0.093-0.552-0.322-1.1-0.65-1.66-0.957-0.082-0.045-0.231-0.028-0.32 0.018-0.308 0.159-0.603 0.342-0.902 0.517-0.264 0.154-0.527 0.31-0.83 0.489l1.438 0.904c-0.735 0.434-1.43 0.85-2.133 1.253-0.056 0.032-0.176 0.007-0.237-0.035-0.401-0.27-0.732-0.514-1.055-0.768l0.037 0.028c-0.145-0.115-0.241-0.126-0.403-0.031 0.975-0.479-0.311 0.276-1.6 1.025l-2.334 1.251c-0.145 0.083-0.192 0.18-0.192 0.348 0.005 3.098 0.004 6.196-0.001 9.293 0 0.166 0.043 0.264 0.192 0.35 1.306 0.748 2.608 1.504 3.907 2.265 0.144 0.085 0.24 0.081 0.385-0.016 0.932-0.623 5.196-3.296 6.381-4.033 0.201-0.125 0.37-0.304 0.552-0.458l-0.030-0.070h-4.426c0.45-0.782 0.87-1.52 1.305-2.249 0.040-0.066 0.187-0.094 0.285-0.094 2.007-0.005 4.015-0.003 6.022-0.003 0.080 0 0.16 0.009 0.257 0.014 0.005 0.095 0.027 0.18 0.009 0.254-0.132 0.549-0.22 1.116-0.42 1.64-0.474 1.246-1.353 2.204-2.424 2.942-1.17 0.805-4.895 3-5.527 3.377 0.030 0.053 0.034 0.075 0.047 0.083 0.385 0.227 0.798 0.417 1.149 0.689 0.505 0.39 0.945 0.388 1.45 0 0.364-0.279 0.79-0.476 1.231-0.735l-1.464-0.915c0.040-0.035 0.063-0.063 0.092-0.080 0.67-0.389 1.34-0.78 2.016-1.16 0.064-0.035 0.194-0.016 0.259 0.029zM21.753 13.143c0.345 0.612 0.602 1.399 0.64 2.006-0.678 0-1.332 0.004-1.987-0.005-0.060-0.001-0.154-0.070-0.173-0.128-0.32-0.988-1.003-1.69-1.81-2.28-0.573-0.419-1.183-0.788-1.776-1.18-0.050-0.032-0.099-0.067-0.18-0.123 0.135-0.081 0.24-0.146 0.348-0.209 0.552-0.32 1.1-0.647 1.66-0.955 0.1-0.056 0.28-0.090 0.361-0.037 1.17 0.769 2.215 1.667 2.917 2.911z"></path>
</svg>
