<!-- Generated by IcoMoon.io -->
<svg version="1.1" xmlns="http://www.w3.org/2000/svg" width="32" height="32" viewBox="0 0 32 32">
<title>grs</title>
<path fill="#377e96" d="M10.664 28.193c-0.61 0.64-1.215 1.287-1.84 1.914-0.069 0.069-0.291 0.073-0.38 0.014-0.919-0.6-1.879-1.154-2.722-1.85-2.303-1.898-3.928-4.29-4.888-7.123-0.723-2.132-0.964-4.322-0.77-6.564 0.27-3.096 1.345-5.886 3.252-8.33 2.662-3.412 6.148-5.47 10.44-6.086 3.086-0.443 6.066-0.010 8.911 1.287 0.077 0.035 0.153 0.073 0.227 0.113 0.016 0.008 0.024 0.030 0.044 0.057-0.402 0-0.802-0.045-1.188 0.010-1.183 0.165-1.888 0.909-2.269 1.999-0.075 0.217-0.12 0.448-0.153 0.676-0.013 0.083 0.043 0.177 0.067 0.266 0.102-0.050 0.242-0.073 0.297-0.153 0.148-0.217 0.237-0.475 0.39-0.687 0.772-1.081 2.288-1.209 3.169-0.26 0.6 0.646 0.68 1.424 0.492 2.252-0.24 1.062-0.823 1.942-1.511 2.752-0.553 0.653-1.153 1.266-1.744 1.885-0.064 0.067-0.24 0.113-0.31 0.074-1.25-0.713-2.59-1.030-4.025-1.063-1.939-0.044-3.706 0.403-5.206 1.676-1.54 1.307-2.409 2.962-2.385 5.005 0.027 2.388 1.068 4.217 3.155 5.42l0.19 0.111c0.008 0.005 0.011 0.018 0.036 0.062-0.074 0.068-0.158 0.14-0.237 0.216-0.65 0.635-1.33 1.241-1.938 1.914-0.513 0.57-0.862 1.249-0.912 2.046-0.033 0.519 0.125 0.972 0.503 1.314 0.405 0.366 0.85 0.689 1.305 1.053zM25.36 28.973c-0.33-1.213-1.086-2.043-2.152-2.606-0.828-0.439-1.735-0.6-2.654-0.656-1.517-0.090-3.037-0.124-4.555-0.207-1.073-0.060-2.144-0.161-3.216-0.244-0.011-0.001-0.022-0.002-0.032-0.004l0.001 0c-1.093-0.23-1.425-0.892-0.852-1.844 0.278-0.462 0.686-0.851 1.072-1.237 0.085-0.085 0.331-0.053 0.49-0.015 1.795 0.429 3.59 0.451 5.337-0.166 2.141-0.757 3.613-2.21 4.15-4.46 0.364-1.526 0.172-3.020-0.547-4.43l-0.15-0.301h1.328c0.37 0 0.74 0.009 1.11-0.007 0.097-0.004 0.252-0.060 0.278-0.13 0.306-0.83 0.591-1.667 0.882-2.503l-0.070-0.097c-0.124 0.052-0.298 0.070-0.362 0.162-0.337 0.483-0.822 0.664-1.368 0.674-1.046 0.022-2.093 0.007-3.14 0.006-0.016 0-0.032-0.020-0.060-0.038 0.685-0.735 1.369-1.466 2.049-2.2 0.743-0.802 1.431-1.644 1.903-2.64 0.555-1.175 0.669-2.33-0.214-3.42-0.010-0.012-0.005-0.038-0.015-0.141 4.254 2.889 6.789 6.785 7.332 11.864 0.063 0.529 0.099 1.141 0.099 1.762 0 5.293-2.602 9.978-6.596 12.846l-0.047 0.032zM19.566 16.656c-0.118 0.758-0.172 1.532-0.369 2.268-0.343 1.29-1.186 2.156-2.525 2.378-1.411 0.236-2.546-0.286-3.36-1.48-0.633-0.932-0.947-1.979-1.080-3.079-0.139-1.156-0.16-2.317 0.112-3.463 0.286-1.211 0.92-2.161 2.118-2.623 1.459-0.564 2.979 0.004 3.888 1.411 0.615 0.951 0.932 2.005 1.050 3.121 0.052 0.482 0.071 0.968 0.105 1.452l0.061 0.015zM23.709 30.008c-2.936 2.2-10.477 2.7-13.523 0.883 0.137-0.275 0.246-0.575 0.422-0.83 0.36-0.52 0.747-1.023 1.147-1.514 0.076-0.094 0.267-0.144 0.4-0.135 1.526 0.1 3.050 0.229 4.577 0.322 1.37 0.083 2.743 0.106 4.112 0.204 0.616 0.044 1.23 0.177 1.834 0.321 0.423 0.1 0.8 0.324 1.031 0.749z"></path>
</svg>
