<!-- Generated by IcoMoon.io -->
<svg version="1.1" xmlns="http://www.w3.org/2000/svg" width="32" height="32" viewBox="0 0 32 32">
<title>grs</title>
<path fill="#377e96" d="M32 16c0 8.837-7.163 16-16 16s-16-7.163-16-16c0-8.837 7.163-16 16-16s16 7.163 16 16z"></path>
<path fill="#fff" d="M23.625 30.070l0.084-0.062c-0.232-0.425-0.608-0.648-1.031-0.749-0.604-0.144-1.218-0.277-1.834-0.32-1.369-0.099-2.742-0.122-4.112-0.205-1.526-0.093-3.050-0.222-4.577-0.322-0.133-0.010-0.324 0.040-0.4 0.135-0.4 0.49-0.787 0.994-1.147 1.514-0.176 0.255-0.285 0.555-0.422 0.83l0.105 0.060c-0.705-0.27-1.285-0.538-1.844-0.839l0.085 0.042c0.104 0.020 0.24 0.004 0.291-0.047 0.626-0.627 1.232-1.274 1.841-1.914-0.455-0.364-0.9-0.687-1.305-1.053-0.378-0.342-0.536-0.795-0.503-1.314 0.050-0.797 0.399-1.476 0.912-2.046 0.607-0.673 1.288-1.28 1.938-1.914 0.080-0.077 0.163-0.148 0.237-0.216-0.025-0.044-0.028-0.057-0.035-0.062l-0.19-0.11c-2.088-1.204-3.129-3.033-3.156-5.42-0.024-2.044 0.846-3.699 2.385-5.006 1.5-1.273 3.267-1.72 5.206-1.676 1.435 0.033 2.776 0.35 4.025 1.063 0.070 0.040 0.246-0.007 0.31-0.074 0.591-0.619 1.19-1.232 1.744-1.885 0.688-0.81 1.27-1.69 1.511-2.752 0.188-0.828 0.108-1.606-0.492-2.252-0.881-0.949-2.397-0.821-3.17 0.26-0.152 0.212-0.24 0.47-0.389 0.687-0.055 0.080-0.195 0.103-0.297 0.153-0.024-0.090-0.080-0.183-0.067-0.266 0.034-0.228 0.078-0.46 0.153-0.676 0.38-1.090 1.086-1.834 2.27-2 0.385-0.054 0.785-0.009 1.187-0.009-0.020-0.027-0.028-0.050-0.044-0.057-0.053-0.030-0.127-0.067-0.203-0.103l-0.024-0.010c-0.642-0.304-1.416-0.597-2.215-0.831l-0.117-0.029c1.612 0.46 3.021 1.106 4.303 1.932l-0.063-0.038c0.008 0.087 0.003 0.11 0.013 0.122 0.883 1.089 0.77 2.244 0.214 3.42-0.472 0.995-1.16 1.837-1.903 2.639-0.68 0.734-1.364 1.465-2.049 2.2 0.028 0.018 0.044 0.038 0.060 0.038 1.047 0.001 2.094 0.016 3.14-0.006 0.546-0.010 1.031-0.191 1.368-0.674 0.064-0.093 0.238-0.11 0.362-0.162l0.070 0.097c-0.29 0.836-0.576 1.673-0.882 2.502-0.026 0.070-0.18 0.127-0.278 0.131-0.37 0.016-0.74 0.007-1.11 0.007h-1.33l0.151 0.3c0.72 1.41 0.911 2.905 0.547 4.43-0.537 2.25-2.009 3.704-4.15 4.46-1.748 0.618-3.542 0.596-5.337 0.167-0.159-0.038-0.405-0.070-0.49 0.015-0.386 0.386-0.794 0.775-1.072 1.237-0.573 0.952-0.24 1.614 0.852 1.844l0.031 0.004c1.072 0.083 2.143 0.185 3.216 0.244 1.518 0.083 3.038 0.116 4.555 0.207 0.919 0.055 1.826 0.217 2.654 0.656 1.066 0.563 1.821 1.393 2.152 2.606 0.078-0.055 0.156-0.11 0.234-0.167-0.623 0.467-1.28 0.89-1.97 1.264zM18.775 31.76c-0.834 0.153-1.794 0.241-2.774 0.241-0.058 0-0.116-0-0.174-0.001l0.009 0c1.046-0.011 2.064-0.097 3.057-0.255l-0.117 0.015zM32 16.050v-0.050c0-1.38-0.175-2.719-0.503-3.996 0.312 1.213 0.495 2.607 0.503 4.042l0 0.005zM28.28 5.745c-0.929-1.106-1.977-2.066-3.137-2.878l-0.052-0.034c1.217 0.88 2.283 1.85 3.19 2.912zM8.306 30.030c-0.855-0.474-1.59-0.968-2.278-1.518l0.032 0.025c0.713 0.541 1.491 1.005 2.246 1.493zM0 16.031c0.002-0.9 0.074-1.782 0.21-2.643l-0.013 0.097c-0.125 0.755-0.197 1.626-0.197 2.513 0 0.011 0 0.023 0 0.034v-0.002zM2.916 6.788c0.653-0.903 1.346-1.698 2.104-2.425l0.006-0.006c-0.772 0.728-1.465 1.523-2.077 2.381l-0.033 0.049zM11.133 0.754c1.453-0.465 3.125-0.739 4.859-0.754l0.008-0c-0.004 0-0.010 0-0.015 0-1.733 0-3.402 0.276-4.965 0.786l0.113-0.032zM19.566 16.656l-0.060-0.015c-0.035-0.484-0.054-0.97-0.106-1.452-0.118-1.116-0.435-2.17-1.050-3.12-0.91-1.408-2.43-1.976-3.888-1.412-1.197 0.462-1.832 1.412-2.118 2.623-0.272 1.146-0.25 2.307-0.112 3.463 0.133 1.1 0.447 2.147 1.080 3.078 0.814 1.195 1.949 1.717 3.36 1.481 1.34-0.222 2.182-1.089 2.525-2.378 0.197-0.736 0.251-1.51 0.37-2.268z"></path>
</svg>
