<!-- Generated by IcoMoon.io -->
<svg version="1.1" xmlns="http://www.w3.org/2000/svg" width="32" height="32" viewBox="0 0 32 32">
<title>gsc</title>
<path fill="#ff0060" d="M32 16c0 8.837-7.163 16-16 16s-16-7.163-16-16c0-8.837 7.163-16 16-16s16 7.163 16 16z"></path>
<path fill="#fff" d="M25.070 12.047h-9.148c-0.002 0-0.004 0-0.006 0-2.141 0-3.876 1.735-3.876 3.876s1.735 3.876 3.876 3.876c1.657 0 3.070-1.039 3.625-2.501l0.009-0.027h-3.628c-0 0-0.001 0-0.001 0-0.564 0-1.022-0.458-1.022-1.022 0-0 0-0.001 0-0.001v0-0.124c0-0 0-0.001 0-0.001 0-0.564 0.458-1.022 1.022-1.022 0 0 0.001 0 0.001 0h6.047c0.044 0.282 0.065 0.567 0.062 0.852-0.017 3.361-2.746 6.079-6.109 6.079-3.374 0-6.109-2.735-6.109-6.109s2.735-6.109 6.109-6.109v0l0.187-0.031c0.039 0.018 0.080 0.028 0.124 0.031h5.426c2.961 0 4.17-1.581 4.17-3.814h-9.907c-5.472 0-9.912 4.433-9.922 9.907-0.008 5.474 4.418 9.92 9.892 9.938 5.474 0.017 9.927-4.402 9.953-9.876v-3.132c0-0.004 0-0.010 0-0.015 0-0.428-0.347-0.775-0.775-0.775-0 0-0 0-0 0v0z"></path>
</svg>
