<!-- Generated by IcoMoon.io -->
<svg version="1.1" xmlns="http://www.w3.org/2000/svg" width="32" height="32" viewBox="0 0 32 32">
<title>gto</title>
<path fill="#7f27ff" d="M32 16c0 8.837-7.163 16-16 16s-16-7.163-16-16c0-8.837 7.163-16 16-16s16 7.163 16 16z"></path>
<path fill="#fff" d="M15.376 14h-7.356v7.222c-0.008 0.739 0.288 1.45 0.82 1.972s1.257 0.813 2.010 0.806h4.527zM15.546 10.221h0.792c0.784-1.35 1.502-2.268 2.177-2.764 0.832-0.613 1.684-0.618 2.352 0.038 0.624 0.612 0.741 1.38 0.33 2.12-0.116 0.206-0.27 0.408-0.463 0.606h2.908c0.679 0 1.358 0.558 1.358 1.333 0 0.667-0.569 1.334-1.358 1.334h-7.134v-1.778h-1.132v1.778h-7.018c-0.678 0-1.358-0.558-1.358-1.334 0-0.666 0.569-1.333 1.358-1.333h2.94c-0.181-0.169-0.342-0.357-0.481-0.561l-0.007-0.011c-0.487-0.744-0.428-1.53 0.207-2.154 0.668-0.656 1.52-0.65 2.353-0.038 0.674 0.496 1.392 1.415 2.177 2.764zM14.231 10.221c-0.58-0.923-1.098-1.55-1.54-1.875-0.409-0.3-0.633-0.302-0.874-0.066-0.247 0.243-0.262 0.451-0.055 0.767 0.236 0.361 0.733 0.768 1.449 1.174zM17.653 10.221h1.22c0.683-0.392 1.134-0.788 1.33-1.14 0.17-0.304 0.134-0.535-0.136-0.8-0.241-0.237-0.465-0.236-0.873 0.065-0.443 0.325-0.962 0.952-1.54 1.875zM16.508 13.999h7.357v7.223c0 0.007 0 0.015 0 0.023 0 0.763-0.314 1.453-0.82 1.948l-0 0c-0.51 0.499-1.208 0.806-1.978 0.806-0.011 0-0.022-0-0.034-0h-4.525z"></path>
</svg>
