<!-- Generated by IcoMoon.io -->
<svg version="1.1" xmlns="http://www.w3.org/2000/svg" width="32" height="32" viewBox="0 0 32 32">
<title>gup</title>
<path fill="#37dcd8" d="M32 16c0 8.837-7.163 16-16 16s-16-7.163-16-16c0-8.837 7.163-16 16-16s16 7.163 16 16z"></path>
<path fill="#fff" d="M15.99 12.679l-2.784-2.804c0.908-1.467 1.829-2.732 2.834-3.924l-0.040 0.049c0.964 1.139 1.884 2.399 2.71 3.722l0.080 0.137-2.8 2.82zM21.708 15.489c0.786 2.202 1.939 4.404 0.84 6.518-0.713 1.341-1.778 2.413-3.072 3.115l-0.040 0.020c-3.619 1.92-8.099 0.51-10.005-3.135-1.11-2.114 0.183-4.49 0.97-6.691 0.721-1.623 1.45-3.119 2.278-4.557l3.31 3.334 3.329-3.352c0.875 1.514 1.631 3.072 2.39 4.749z"></path>
</svg>
