<!-- Generated by IcoMoon.io -->
<svg version="1.1" xmlns="http://www.w3.org/2000/svg" width="32" height="32" viewBox="0 0 32 32">
<title>gvt</title>
<path fill="#16b9ad" d="M32 16c0 8.837-7.163 16-16 16s-16-7.163-16-16c0-8.837 7.163-16 16-16s16 7.163 16 16z"></path>
<path fill="#fff" d="M26 13.193c0 5.408-4.487 9.807-10 9.807s-10-4.4-10-9.805c0-0.398 0.024-0.797 0.074-1.193h1.796c-0.060 0.395-0.090 0.794-0.090 1.193 0 4.445 3.688 8.062 8.221 8.062 4.326 0 7.882-3.292 8.2-7.455h-12.721c0.27 1.944 1.803 3.488 3.777 3.807 1.975 0.318 3.93-0.664 4.822-2.42h1.925c-0.875 2.522-3.29 4.218-6.006 4.22-3.496 0-6.341-2.789-6.341-6.216 0-0.4 0.040-0.8 0.117-1.193h16.152c0.050 0.396 0.074 0.794 0.074 1.193z"></path>
</svg>
