<!-- Generated by IcoMoon.io -->
<svg version="1.1" xmlns="http://www.w3.org/2000/svg" width="32" height="32" viewBox="0 0 32 32">
<title>gxs</title>
<path fill="#35a5f3" d="M32 16c0 8.837-7.163 16-16 16s-16-7.163-16-16c0-8.837 7.163-16 16-16s16 7.163 16 16z"></path>
<path fill="#fff" d="M7.020 7.027c1.27-1.327 3.59-1.38 4.901-0.090 1.37 1.34 2.726 2.692 4.068 4.057 1.428-1.357 2.764-2.805 4.198-4.156 1.364-1.232 3.684-1.083 4.895 0.297 1.242 1.302 1.222 3.573-0.067 4.837-1.327 1.351-2.671 2.682-4.010 4.022 1.368 1.409 2.793 2.763 4.15 4.19 1.216 1.333 1.1 3.605-0.219 4.83-1.297 1.31-3.623 1.314-4.918-0.002-1.347-1.322-2.665-2.676-4.003-4.004-1.428 1.374-2.79 2.816-4.233 4.176-1.382 1.226-3.712 1.043-4.902-0.364-1.2-1.299-1.17-3.512 0.080-4.77 1.189-1.216 2.351-2.379 3.526-3.528l0.040-0.039 1.507 1.505c-1.176 1.214-2.413 2.376-3.571 3.608-0.781 0.8-0.093 2.292 1.004 2.274 0.665 0.059 1.124-0.492 1.556-0.908 1.147-1.168 2.311-2.315 3.458-3.483-2.5-2.522-5.040-5.009-7.528-7.542-1.298-1.308-1.257-3.64 0.070-4.91zM8.473 10.417c1.323 1.38 2.697 2.711 4.044 4.068 0.65-0.658 1.304-1.312 1.962-1.963-1.303-1.313-2.601-2.635-3.922-3.93-0.421-0.455-1.141-0.624-1.69-0.298-0.764 0.37-1.005 1.506-0.395 2.123zM21.413 8.627c-2.486 2.44-4.922 4.932-7.395 7.384 0.667 0.647 1.332 1.296 1.983 1.96 0.499-0.492 0.995-0.99 1.492-1.488 0.502 0.501 1.001 1.005 1.507 1.503-0.491 0.5-0.985 0.996-1.484 1.49 1.341 1.349 2.656 2.723 4.041 4.028 0.703 0.74 2.067 0.291 2.27-0.684 0.218-0.69-0.278-1.287-0.746-1.721-2.237-2.226-4.386-4.375-6.53-6.527l-0.066-0.066c0.497-0.495 0.986-0.987 1.473-1.481l0.028-0.028c0.5 0.498 0.999 0.996 1.51 1.486 1.315-1.363 2.709-2.65 4.004-4.034 0.653-0.634 0.392-1.849-0.442-2.192-0.56-0.289-1.243-0.085-1.646 0.37z"></path>
</svg>
