<!-- Generated by IcoMoon.io -->
<svg version="1.1" xmlns="http://www.w3.org/2000/svg" width="32" height="32" viewBox="0 0 32 32">
<title>hight</title>
<path fill="#117fc0" d="M32 16c0 8.837-7.163 16-16 16s-16-7.163-16-16c0-8.837 7.163-16 16-16s16 7.163 16 16z"></path>
<path fill="#fff" d="M26.496 10.332l-8.455 13.94h-5.042l3.875-6.397h-3.851l-4.49 7.404c2.030 1.661 4.652 2.667 7.509 2.667 6.575 0 11.905-5.33 11.905-11.905 0-2.091-0.539-4.056-1.485-5.763l0.031 0.061 0.003-0.007zM19.114 7.83l-3.67 6.040h3.856l4.274-7.049c-2.030-1.661-4.652-2.667-7.509-2.667-6.575 0-11.905 5.33-11.905 11.905 0 2.091 0.539 4.056 1.485 5.763l-0.031-0.061 8.452-13.93h5.047z"></path>
</svg>
