<!-- Generated by IcoMoon.io -->
<svg version="1.1" xmlns="http://www.w3.org/2000/svg" width="32" height="32" viewBox="0 0 32 32">
<title>hot</title>
<path fill="#8834ff" d="M32 16c0 8.837-7.163 16-16 16s-16-7.163-16-16c0-8.837 7.163-16 16-16s16 7.163 16 16z"></path>
<path fill="#fff" d="M7 21.23c0.191 0 0.392 0.010 0.583 0 0.363-0.027 0.727-0.1 1.082-0.19 0.739-0.206 1.383-0.537 1.94-0.974l-0.012 0.009c0.164-0.127 0.327-0.263 0.482-0.409 0.327-0.327 0.61-0.7 0.837-1.1 0.2-0.355 0.345-0.737 0.455-1.128 0.009-0.027 0.009-0.064 0.018-0.091h-1.428c-0.313-0.001-0.617-0.038-0.91-0.105l0.028 0.005c-0.024-0.010-0.052-0.017-0.081-0.018l-0.001-0c-0.014-0.007-0.027-0.017-0.037-0.028l-0-0c0.082-0.181 0.155-0.354 0.228-0.536l0.555-1.283c0.019-0.066 0.047-0.123 0.082-0.174l-0.001 0.002c0.037-0.034 0.086-0.055 0.141-0.055 0.002 0 0.004 0 0.006 0h-0c0.446-0.009 0.882 0 1.328 0h0.118c-0.018-0.073-0.018-0.127-0.036-0.19-0.173-0.649-0.462-1.215-0.845-1.703l0.008 0.010c-0.199-0.252-0.405-0.478-0.625-0.687l-0.003-0.003c-0.273-0.257-0.58-0.484-0.913-0.671l-0.023-0.012c-0.315-0.181-0.682-0.347-1.065-0.478l-0.045-0.013c-0.278-0.091-0.61-0.167-0.951-0.214l-0.031-0.004c-0.264-0.028-0.519-0.037-0.782-0.055-0.064 0-0.128-0.009-0.191-0.018-0.026-0.008-0.047-0.029-0.055-0.054l-0-0.001c-0.091-0.209-0.182-0.409-0.273-0.618-0.11-0.246-0.21-0.491-0.318-0.728-0.082-0.2-0.173-0.39-0.264-0.6l0.191-0.055c0.4-0.054 0.81-0.072 1.219-0.054 0.696 0.024 1.357 0.125 1.989 0.296l-0.061-0.014c0.4 0.109 0.8 0.245 1.182 0.409 0.537 0.227 1.046 0.51 1.52 0.846 0.208 0.154 0.417 0.318 0.618 0.482 0.090 0.073 0.181 0.155 0.272 0.236 0.455 0.437 0.855 0.937 1.192 1.474 0.336 0.536 0.582 1.118 0.746 1.728 0.054 0.2 0.090 0.41 0.136 0.61 0.011 0.031 0.039 0.053 0.073 0.054h1.846c0.037-0.146 0.064-0.291 0.091-0.437 0.11-0.427 0.255-0.837 0.437-1.228 0.145-0.327 0.327-0.645 0.536-0.936 0.191-0.264 0.391-0.528 0.61-0.773 0.164-0.194 0.334-0.369 0.514-0.533l0.005-0.004c0.367-0.334 0.771-0.64 1.202-0.908l0.035-0.020c0.455-0.282 0.928-0.51 1.428-0.691 0.346-0.118 0.691-0.227 1.037-0.318 0.263-0.064 0.518-0.11 0.791-0.146 0.218-0.036 0.446-0.054 0.673-0.073 0.146-0.009 0.282-0.018 0.428-0.018 0.218 0 0.427-0.009 0.636 0 0.21 0.010 0.419 0.055 0.628 0.091 0.009 0 0.009 0.010 0.027 0.027l-0.155 0.364c-0.163 0.382-0.327 0.764-0.5 1.155-0.051 0.101-0.112 0.239-0.168 0.379l-0.014 0.040c-0.036 0.090-0.127 0.054-0.19 0.072-0.055 0.010-0.1 0.010-0.155 0-0.978 0.010-1.899 0.241-2.72 0.644l0.037-0.016c-0.416 0.205-0.775 0.442-1.1 0.717l0.008-0.007c-0.136 0.118-0.29 0.236-0.418 0.372-0.328 0.328-0.61 0.7-0.837 1.11-0.168 0.303-0.316 0.656-0.426 1.025l-0.010 0.039c-0.010 0.027-0.010 0.064-0.019 0.091h0.1c0.473 0 0.955-0.010 1.428 0 0.282 0 0.564 0.045 0.837 0.136 0.010 0.010 0.018 0.010 0.027 0.019l-0.263 0.6c-0.182 0.427-0.373 0.855-0.555 1.291-0.055 0.128-0.091 0.155-0.237 0.155h-1.328c0.037 0.127 0.064 0.236 0.1 0.346 0.128 0.382 0.31 0.745 0.537 1.082 0.137 0.2 0.282 0.382 0.437 0.564 0.090 0.109 0.19 0.218 0.29 0.309 0.337 0.327 0.72 0.61 1.128 0.837 0.346 0.2 0.719 0.364 1.101 0.49 0.364 0.128 0.746 0.21 1.137 0.246l0.718 0.055c0.091 0.010 0.182 0.010 0.273 0.018 0.018 0.010 0.037 0.018 0.046 0.037 0.154 0.363 0.309 0.727 0.473 1.091l0.39 0.891c-0.127 0.028-0.245 0.055-0.372 0.064-0.31 0.018-0.628 0.036-0.937 0.036-0.282 0-0.564-0.027-0.837-0.063-0.475-0.067-0.858-0.137-1.236-0.22l0.108 0.020c-0.51-0.126-0.946-0.276-1.365-0.458l0.055 0.021c-0.55-0.238-1.022-0.505-1.461-0.817l0.025 0.017c-0.279-0.207-0.504-0.383-0.725-0.564l0.034 0.027c-0.152-0.125-0.289-0.252-0.417-0.389l-0.002-0.002c-0.559-0.569-1.028-1.229-1.381-1.956l-0.019-0.044c-0.191-0.395-0.348-0.854-0.448-1.335l-0.007-0.039c-0.018-0.046-0.027-0.1-0.037-0.146 0-0.090-0.045-0.109-0.127-0.109h-1.837c-0.102 0.543-0.254 1.025-0.454 1.48l0.017-0.043c-0.177 0.424-0.381 0.79-0.621 1.128l0.012-0.018c-0.208 0.291-0.408 0.543-0.62 0.784l0.010-0.011c-0.159 0.192-0.325 0.364-0.504 0.523l-0.005 0.004c-0.282 0.246-0.582 0.473-0.882 0.7-0.331 0.238-0.706 0.46-1.102 0.646l-0.044 0.019c-0.687 0.335-1.483 0.583-2.321 0.704l-0.044 0.005c-0.282 0.045-0.564 0.073-0.845 0.1-0.072 0.004-0.156 0.007-0.241 0.007s-0.169-0.002-0.253-0.007l0.012 0.001c-0.237 0-0.473-0.010-0.7-0.018-0.083-0.010-0.165-0.018-0.246-0.037-0.046-0.009-0.064-0.027-0.037-0.081 0.182-0.419 0.373-0.837 0.555-1.256 0.11-0.254 0.21-0.49 0.327-0.754z"></path>
</svg>
