<!-- Generated by IcoMoon.io -->
<svg version="1.1" xmlns="http://www.w3.org/2000/svg" width="32" height="32" viewBox="0 0 32 32">
<title>hot</title>
<path fill="#8834ff" d="M16 32c-8.837 0-16-7.163-16-16s7.163-16 16-16 16 7.163 16 16-7.163 16-16 16zM7 21.23c-0.118 0.264-0.218 0.5-0.327 0.755-0.182 0.419-0.373 0.837-0.555 1.256-0.027 0.054-0.009 0.072 0.037 0.081 0.081 0.019 0.163 0.028 0.245 0.037 0.228 0.009 0.464 0.018 0.7 0.018 0.155 0.010 0.319 0.010 0.483 0 0.281-0.027 0.563-0.055 0.845-0.1 0.882-0.126 1.678-0.375 2.413-0.731l-0.048 0.021c0.44-0.205 0.816-0.426 1.168-0.678l-0.022 0.015c0.3-0.228 0.6-0.455 0.882-0.7 0.182-0.164 0.355-0.337 0.51-0.528 0.218-0.246 0.418-0.51 0.609-0.773 0.246-0.346 0.446-0.719 0.61-1.11 0.2-0.464 0.345-0.946 0.436-1.437h1.837c0.082 0 0.127 0.018 0.127 0.11 0.010 0.045 0.019 0.1 0.037 0.145 0.1 0.473 0.245 0.937 0.455 1.373 0.371 0.772 0.84 1.433 1.401 2.002l-0.001-0.001c0.128 0.136 0.273 0.273 0.419 0.391 0.227 0.182 0.454 0.364 0.69 0.537 0.456 0.318 0.928 0.582 1.438 0.8 0.364 0.161 0.8 0.311 1.251 0.424l0.059 0.013c0.372 0.081 0.754 0.145 1.127 0.2 0.273 0.036 0.555 0.063 0.837 0.063 0.31 0 0.628-0.018 0.937-0.036 0.127-0.010 0.245-0.036 0.373-0.064-0.137-0.309-0.264-0.6-0.391-0.891-0.026-0.021-0.184-0.38-0.34-0.741l-0.133-0.35c-0.010-0.019-0.028-0.028-0.046-0.037-0.090-0.009-0.182-0.009-0.273-0.018l-0.718-0.055c-0.419-0.039-0.805-0.125-1.17-0.255l0.033 0.010c-0.423-0.141-0.786-0.307-1.128-0.506l0.028 0.015c-0.551-0.31-1.020-0.691-1.415-1.14l-0.005-0.006c-0.145-0.167-0.288-0.351-0.422-0.542l-0.014-0.022c-0.214-0.311-0.396-0.669-0.528-1.051l-0.009-0.031c-0.036-0.11-0.063-0.219-0.1-0.346h1.328c0.146 0 0.182-0.027 0.237-0.155 0.182-0.436 0.373-0.864 0.555-1.291l0.263-0.6c-0.009-0.010-0.018-0.010-0.027-0.019-0.25-0.086-0.538-0.136-0.837-0.136-0 0-0 0-0 0v0c-0.473-0.010-0.955 0-1.428 0h-0.1c0.010-0.027 0.010-0.064 0.019-0.091 0.109-0.373 0.254-0.728 0.436-1.064 0.227-0.41 0.51-0.782 0.837-1.11 0.127-0.136 0.282-0.254 0.418-0.373 0.337-0.282 0.7-0.518 1.092-0.709 0.784-0.387 1.705-0.618 2.68-0.628l0.003-0c0.054 0.010 0.1 0.010 0.154 0 0.064-0.018 0.155 0.019 0.191-0.072 0.055-0.146 0.118-0.282 0.182-0.419 0.173-0.39 0.337-0.773 0.5-1.155l0.155-0.364c-0.018-0.018-0.018-0.027-0.027-0.027-0.21-0.036-0.419-0.082-0.628-0.090-0.209-0.010-0.418 0-0.636 0-0.146 0-0.282 0.008-0.428 0.017-0.227 0.019-0.455 0.037-0.673 0.073-0.312 0.041-0.58 0.092-0.843 0.157l0.052-0.011c-0.346 0.090-0.691 0.2-1.037 0.318-0.5 0.182-0.973 0.41-1.428 0.691-0.466 0.288-0.87 0.594-1.244 0.934l0.007-0.006c-0.184 0.168-0.353 0.343-0.511 0.529l-0.007 0.008c-0.203 0.23-0.403 0.482-0.59 0.744l-0.020 0.029c-0.209 0.29-0.39 0.609-0.536 0.936-0.182 0.391-0.328 0.8-0.437 1.228-0.034 0.195-0.065 0.343-0.101 0.489l0.011-0.052h-1.847c-0.034-0.001-0.063-0.024-0.073-0.054l-0-0.001c-0.045-0.2-0.082-0.41-0.136-0.61-0.176-0.656-0.432-1.23-0.761-1.753l0.015 0.026c-0.351-0.558-0.745-1.041-1.19-1.472l-0.002-0.002c-0.090-0.081-0.181-0.163-0.272-0.236-0.2-0.164-0.41-0.328-0.619-0.482-0.439-0.315-0.938-0.598-1.467-0.826l-0.052-0.020c-0.321-0.142-0.714-0.282-1.118-0.395l-0.064-0.015c-0.572-0.156-1.233-0.257-1.913-0.281l-0.015-0c-0.092-0.005-0.201-0.007-0.31-0.007-0.321 0-0.636 0.022-0.945 0.065l0.036-0.004-0.191 0.055c0.091 0.21 0.182 0.4 0.264 0.6 0.109 0.237 0.209 0.482 0.318 0.728 0.091 0.209 0.182 0.41 0.273 0.618 0.008 0.027 0.028 0.047 0.054 0.055l0.001 0c0.063 0.009 0.127 0.018 0.19 0.018 0.264 0.018 0.519 0.027 0.783 0.055 0.336 0.045 0.664 0.118 0.982 0.218 0.382 0.127 0.755 0.291 1.11 0.491 0.345 0.191 0.654 0.418 0.936 0.682 0.228 0.218 0.437 0.446 0.628 0.691 0.391 0.5 0.673 1.074 0.837 1.692 0.018 0.064 0.018 0.118 0.036 0.191h-0.118c-0.446 0-0.882-0.009-1.328 0-0.002-0-0.004-0-0.005-0-0.054 0-0.104 0.021-0.141 0.055l0-0c-0.034 0.049-0.062 0.107-0.080 0.168l-0.001 0.004-0.555 1.283c-0.106 0.269-0.182 0.445-0.263 0.62l0.035-0.084c0.010 0.010 0.019 0.019 0.037 0.028 0.027 0 0.054 0.009 0.082 0.018 0.29 0.064 0.582 0.1 0.882 0.1h1.428c-0.010 0.027-0.010 0.064-0.018 0.090-0.117 0.43-0.272 0.805-0.468 1.154l0.013-0.026c-0.228 0.4-0.51 0.773-0.837 1.1-0.147 0.138-0.304 0.272-0.467 0.399l-0.015 0.011c-0.545 0.428-1.189 0.759-1.889 0.955l-0.039 0.009c-0.312 0.087-0.68 0.155-1.058 0.188l-0.024 0.002c-0.191 0.010-0.392 0-0.583 0z"></path>
</svg>
