<!-- Generated by IcoMoon.io -->
<svg version="1.1" xmlns="http://www.w3.org/2000/svg" width="32" height="32" viewBox="0 0 32 32">
<title>hpb</title>
<path fill="#1591ca" d="M32 16c0 8.837-7.163 16-16 16s-16-7.163-16-16c0-8.837 7.163-16 16-16s16 7.163 16 16z"></path>
<path fill="#fff" d="M16.572 15.272s1.327-2.95-1.275-5.8c0 0-1.48-1.9-4.54-1.75l0.611-0.24c0.102-0.040 0.209-0.068 0.317-0.082l0.602-0.078 4.234-0.65s1.497-0.294 2.632 0.030c0.323 0.093 0.617 0.268 0.85 0.506 0.626 0.634 1.883 2.311 1.060 4.964 0 0-0.817 2.95-3.878 3.65 0 0-0.766 0.2-0.613-0.55zM16.383 16.916s1.913 2.623 5.742 1.884c0 0 2.422-0.279 3.851-2.937l-0.102 0.639c-0.017 0.106-0.047 0.21-0.090 0.309l-0.238 0.547-1.588 3.9s-0.505 1.411-1.368 2.203c-0.239 0.218-0.535 0.379-0.863 0.456l-0.013 0.003c-0.875 0.203-2.988 0.408-4.898-1.638 0 0-2.173-2.192-1.227-5.13 0-0.002 0.214-0.747 0.794-0.236zM14.998 15.969s-3.27 0.344-4.495 3.975c0 0-0.944 2.204 0.714 4.73l-0.517-0.4c-0.087-0.067-0.162-0.143-0.228-0.226l-0.002-0.003-0.37-0.472-2.684-3.273s-1.007-1.127-1.284-2.25c-0.080-0.322-0.072-0.66 0.022-0.978 0.249-0.847 1.106-2.75 3.863-3.372 0 0 3.017-0.777 5.162 1.476 0.002 0 0.56 0.55-0.18 0.793z"></path>
<path fill="#fff" opacity="0.5" d="M17.106 16.159s3.26-0.424 4.39-4.085c0 0 0.887-2.227-0.837-4.711l0.528 0.387c0.087 0.065 0.167 0.14 0.236 0.223l0.381 0.462 2.77 3.206s1.034 1.1 1.342 2.218c0.087 0.32 0.087 0.656 0 0.976-0.227 0.853-1.034 2.778-3.775 3.468 0 0-2.996 0.85-5.198-1.346 0.002 0-0.57-0.536 0.163-0.798zM15.468 16.763s-1.401 2.916 1.127 5.829c0 0 1.429 1.935 4.495 1.86l-0.618 0.225c-0.093 0.035-0.201 0.060-0.313 0.073l-0.006 0-0.603 0.064-4.25 0.546s-1.503 0.257-2.63-0.095c-0.331-0.107-0.613-0.288-0.836-0.526l-0.001-0.001c-0.61-0.65-1.823-2.356-0.932-4.987 0 0 0.89-2.93 3.969-3.554 0 0.003 0.773-0.18 0.598 0.566zM15.577 15.226s-1.952-2.596-5.769-1.8c0 0-2.418 0.312-3.808 2.99l0.092-0.641c0.017-0.116 0.047-0.22 0.089-0.319l-0.003 0.008 0.23-0.55 1.53-3.924s0.485-1.418 1.336-2.222c0.237-0.222 0.532-0.385 0.859-0.466l0.013-0.003c0.872-0.217 2.982-0.45 4.92 1.569 0 0 2.205 2.161 1.302 5.112 0-0.002-0.204 0.748-0.791 0.245z"></path>
</svg>
