<!-- Generated by IcoMoon.io -->
<svg version="1.1" xmlns="http://www.w3.org/2000/svg" width="32" height="32" viewBox="0 0 32 32">
<title>hsr</title>
<path fill="#56428e" d="M32 16c0 8.837-7.163 16-16 16s-16-7.163-16-16c0-8.837 7.163-16 16-16s16 7.163 16 16z"></path>
<path fill="#fff" d="M10.75 7.5h4.354c-0.524 0.83-0.845 1.747-0.825 2.74 1.295 0.013 2.594 0.013 3.89 0 0.017-0.987-0.248-1.93-0.815-2.74h4.384c-0.302 0.633-0.815 1.22-0.766 1.963-0.020 3.324 0.007 6.65-0.003 9.974 0.43 0 0.865 0 1.3 0.003 0.317-0.63 0.599-1.273 0.824-1.94 1.302 0.033 2.611-0.037 3.907 0.137-1.282 1.106-1.952 2.68-2.787 4.113-3.314 0.007-6.627-0.010-9.944 0.010-0.156 1.21 0.59 2.043 1.454 2.74h-5.597c0.487-0.643 1.468-1.057 1.365-2 0.033-3.213 0-6.43 0.010-9.647h2.84v1.98h3.768v-2.27h-7.867l-1.955 3.437c0.65 1.147 1.302 2.292 1.958 3.437h0.968v2.313h-2.959c-1.080-1.92-2.2-3.817-3.254-5.75v-0.003c1.057-1.93 2.18-3.827 3.254-5.747 1.104 0 2.207 0 3.31-0.010 0-0.021 0.001-0.047 0.001-0.072 0-0.995-0.305-1.92-0.826-2.685l0.011 0.016zM14.342 17.167v2.27h3.767v-2.27h-3.767zM21.257 10.25h2.95c0.808 1.3 1.364 2.8 2.53 3.84 0.024 0.077 0.067 0.234 0.090 0.31-1.246 0.164-2.508 0.037-3.764 0.1-0.16-0.693-0.474-1.33-0.822-1.94l-0.984 0.003v-2.313zM18.212 22.040c0.871 0.003 1.746 0 2.618-0.003-0.020 1.113 0.759 1.803 1.524 2.463h-5.637c0.723-0.686 1.568-1.337 1.495-2.46z"></path>
</svg>
