<!-- Generated by IcoMoon.io -->
<svg version="1.1" xmlns="http://www.w3.org/2000/svg" width="32" height="32" viewBox="0 0 32 32">
<title>html</title>
<path fill="#cfa967" d="M16.020 16.945l-0.529 1.64h-0.788l1.317-4.107v-6.533h7.344l-1.397 15.39-5.947 1.602zM16 32c-8.837 0-16-7.163-16-16s7.163-16 16-16 16 7.163 16 16-7.163 16-16 16zM8.636 24.469l7.344 2.031 7.384-2.031 1.636-17.969h-18zM13.799 17.676l-3.526-1.432v-0.592l3.526-1.433v0.742l-2.469 0.99 2.47 0.984zM21.732 16.244v-0.592l-3.527-1.433v0.742l2.47 0.987-2.47 0.987v0.741zM16.020 16.944l1.1-3.413h-0.796l-0.304 0.947z"></path>
</svg>
