<!-- Generated by IcoMoon.io -->
<svg version="1.1" xmlns="http://www.w3.org/2000/svg" width="32" height="32" viewBox="0 0 32 32">
<title>html</title>
<path fill="#cfa967" d="M32 16c0 8.837-7.163 16-16 16s-16-7.163-16-16c0-8.837 7.163-16 16-16s16 7.163 16 16z"></path>
<path fill="#fff" d="M16.020 16.945v7.993l5.947-1.602 1.397-15.39h-7.344v6.532l0.304-0.947h0.796zM8.636 24.469l-1.636-17.969h18l-1.636 17.969-7.384 2.031zM13.799 17.676v-0.741l-2.469-0.984 2.47-0.99v-0.742l-3.527 1.433v0.592zM21.732 16.244l-3.527 1.432v-0.741l2.47-0.987-2.47-0.987v-0.742l3.527 1.433zM16.020 16.944v-2.466l-1.317 4.107h0.788z"></path>
</svg>
