<!-- Generated by IcoMoon.io -->
<svg version="1.1" xmlns="http://www.w3.org/2000/svg" width="32" height="32" viewBox="0 0 32 32">
<title>hush</title>
<path fill="#292929" d="M16 32c-8.837 0-16-7.163-16-16s7.163-16 16-16 16 7.163 16 16-7.163 16-16 16zM15.007 18.657v1.317c0 0.056 0 0.113 0.008 0.168 0.070 0.446 0.453 0.758 0.888 0.726 0.434-0.041 0.771-0.403 0.771-0.845 0-0.004-0-0.007-0-0.011v0.001c0.002-0.484 0.001-0.97 0-1.454-0.002-0.038-0.017-0.073-0.039-0.1l0 0c-0.097-0.12-0.198-0.237-0.298-0.354-0.285-0.336-0.569-0.672-0.855-1.006-0.096-0.112-0.212-0.146-0.321-0.098-0.12 0.052-0.156 0.15-0.155 0.278 0.003 0.46 0 0.919 0 1.378zM15.010 9.647c0.2-0.309 0.47-0.467 0.832-0.468 0.366 0 0.634 0.165 0.828 0.497l0.005-0.048c-0.002-0.931 0.003-1.863-0.006-2.794 0-0.001 0-0.002 0-0.003 0-0.459-0.372-0.831-0.831-0.831-0.054 0-0.106 0.005-0.157 0.015l0.005-0.001c-0.39 0.068-0.678 0.421-0.678 0.842-0.002 0.91-0.001 1.822-0.001 2.732l0.003 0.060zM15.007 22.26v0.228c0 0.893-0.003 1.786 0.002 2.679 0.002 0.441 0.345 0.802 0.779 0.832l0.003 0c0.445 0.020 0.83-0.305 0.87-0.752 0.020-0.225 0.013-0.454 0.013-0.68 0.002-0.748 0-1.496 0-2.243v-0.072c-0.197 0.308-0.462 0.474-0.826 0.475s-0.637-0.157-0.841-0.467zM16.675 13.434l-0.001-1.638c0-0.070-0.006-0.143-0.021-0.212-0.092-0.414-0.484-0.708-0.879-0.664-0.431 0.039-0.766 0.399-0.766 0.837 0 0.002 0 0.004 0 0.006v-0c-0.003 0.714-0.002 1.429 0 2.143 0.002 0.038 0.017 0.073 0.040 0.1l-0-0c0.122 0.149 0.248 0.294 0.373 0.44 0.242 0.282 0.482 0.566 0.725 0.848 0.057 0.072 0.144 0.117 0.242 0.117 0.042 0 0.083-0.009 0.12-0.024l-0.002 0.001c0.119-0.048 0.169-0.134 0.169-0.292v-1.66zM18.406 10.057v2.167c0 0.051 0.002 0.102 0.006 0.153 0.040 0.52 0.544 0.882 1.037 0.749 0.379-0.103 0.627-0.437 0.627-0.85v-2.796c0-0.553 0.003-1.107 0-1.661-0.003-0.588-0.542-0.996-1.083-0.825-0.356 0.112-0.585 0.44-0.586 0.842v2.22zM13.362 20.76c0-0.862 0.002-1.725-0.001-2.587 0-0.001 0-0.002 0-0.003 0-0.461-0.373-0.834-0.834-0.834-0.072 0-0.143 0.009-0.21 0.027l0.006-0.001c-0.365 0.1-0.628 0.428-0.628 0.818 0 0.005 0 0.010 0 0.015v-0.001 4.753c0 0.143-0.003 0.286 0 0.429 0.015 0.499 0.493 0.89 0.974 0.797 0.396-0.075 0.692-0.418 0.692-0.831 0-0.006-0-0.011-0-0.017v0.001c0.002-0.855 0-1.71 0-2.565zM13.362 11.314v-0.82c0-0.898 0.002-1.796-0.001-2.695 0-0.001 0-0.003 0-0.004 0-0.461-0.374-0.835-0.835-0.835-0.063 0-0.125 0.007-0.185 0.020l0.006-0.001c-0.377 0.091-0.652 0.425-0.652 0.824 0 0.006 0 0.013 0 0.019l-0-0.001v5.505c0 0.506-0.004 1.011 0 1.516 0.005 0.53 0.505 0.928 1.011 0.81 0.378-0.089 0.655-0.423 0.655-0.823 0-0.006-0-0.012-0-0.018v0.001-3.498zM18.406 19.5v3.751c0 0.054 0.002 0.107 0.006 0.16 0.042 0.522 0.554 0.884 1.048 0.742 0.377-0.108 0.616-0.44 0.616-0.858v-7.648c-0.020-0.614-0.628-1.014-1.17-0.763-0.338 0.157-0.5 0.44-0.5 0.818v3.798zM23.5 15.634v-5.957c-0.001-0.614-0.598-1.027-1.148-0.798-0.326 0.136-0.52 0.443-0.52 0.828v11.843l0.001 0.076c0.014 0.513 0.504 0.906 0.996 0.799 0.386-0.086 0.67-0.425 0.67-0.831 0-0.007-0-0.015-0-0.022l0 0.001v-5.94zM10.167 15.625v-4.012c0-0.656 0.004-1.312-0.001-1.967-0.003-0.459-0.375-0.829-0.834-0.829-0.075 0-0.148 0.010-0.217 0.028l0.006-0.001c-0.376 0.104-0.62 0.436-0.62 0.845l-0.001 11.882v0.053c0.014 0.525 0.514 0.919 1.015 0.8 0.393-0.094 0.652-0.43 0.652-0.851v-5.949z"></path>
</svg>
