<!-- Generated by IcoMoon.io -->
<svg version="1.1" xmlns="http://www.w3.org/2000/svg" width="32" height="32" viewBox="0 0 32 32">
<title>hush</title>
<path fill="#292929" d="M32 16c0 8.837-7.163 16-16 16s-16-7.163-16-16c0-8.837 7.163-16 16-16s16 7.163 16 16z"></path>
<path fill="#fff" d="M15.007 18.657c0-0.46 0.002-0.919-0.001-1.378-0.001-0.128 0.036-0.226 0.155-0.278 0.11-0.048 0.225-0.014 0.321 0.098 0.286 0.334 0.57 0.67 0.855 1.006 0.1 0.117 0.201 0.233 0.298 0.354 0.022 0.027 0.036 0.062 0.038 0.1l0 0c0.002 0.485 0.003 0.97 0.001 1.454 0 0.003 0 0.007 0 0.011 0 0.441-0.337 0.804-0.768 0.844l-0.003 0c-0.016 0.001-0.035 0.002-0.054 0.002-0.425 0-0.776-0.314-0.834-0.723l-0.001-0.004c-0.009-0.055-0.008-0.112-0.008-0.168v-1.317zM15.010 9.647c-0.001-0.020-0.003-0.039-0.003-0.059v-2.732c0.001-0.42 0.289-0.774 0.679-0.843 0.046-0.009 0.098-0.014 0.152-0.014 0.459 0 0.831 0.372 0.831 0.831 0 0.001 0 0.003 0 0.004v-0c0.010 0.931 0.004 1.863 0.006 2.794l-0.005 0.048c-0.194-0.332-0.462-0.498-0.828-0.497-0.362 0-0.632 0.16-0.832 0.468zM15.007 22.26c0.204 0.31 0.476 0.468 0.841 0.467s0.629-0.167 0.827-0.475v2.314c-0.001 0.227 0.006 0.456-0.014 0.68-0.040 0.424-0.394 0.754-0.826 0.754-0.016 0-0.031-0-0.047-0.001l0.002 0c-0.437-0.030-0.78-0.391-0.782-0.832v-0c-0.005-0.893-0.002-1.786-0.002-2.68v-0.227zM16.675 13.434v1.661c0 0.158-0.050 0.244-0.17 0.292-0.035 0.015-0.075 0.023-0.118 0.023-0.098 0-0.185-0.046-0.242-0.117l-0-0.001-0.724-0.848c-0.125-0.146-0.25-0.291-0.373-0.44-0.023-0.027-0.037-0.062-0.040-0.099l-0-0.001c-0.002-0.714-0.003-1.429 0-2.143 0-0.002-0-0.003-0-0.005 0-0.438 0.335-0.797 0.763-0.837l0.003-0c0.395-0.044 0.787 0.25 0.879 0.664 0.015 0.069 0.020 0.141 0.020 0.212 0.002 0.546 0.002 1.092 0.002 1.638zM18.406 10.057v-2.22c0.002-0.402 0.231-0.73 0.587-0.842 0.54-0.171 1.080 0.237 1.083 0.825 0.003 0.554 0 1.108 0 1.661v2.795c0 0.413-0.248 0.747-0.627 0.85-0.493 0.133-0.996-0.23-1.037-0.749-0.003-0.042-0.005-0.091-0.005-0.141 0-0.004 0-0.009 0-0.013v0.001-2.167zM13.362 20.76v2.565c0 0.005 0 0.010 0 0.016 0 0.413-0.296 0.757-0.688 0.83l-0.005 0.001c-0.48 0.092-0.959-0.298-0.973-0.797-0.004-0.143-0.001-0.286-0.001-0.429v-4.753c0-0.399 0.256-0.736 0.628-0.832 0.061-0.016 0.132-0.025 0.204-0.025 0.461 0 0.834 0.373 0.834 0.834 0 0.001 0 0.002 0 0.004v-0c0.003 0.862 0 1.725 0 2.587zM13.362 11.314v3.499c0 0.005 0 0.011 0 0.016 0 0.4-0.278 0.735-0.65 0.822l-0.006 0.001c-0.052 0.012-0.112 0.018-0.174 0.018-0.459 0-0.832-0.37-0.836-0.828v-0c-0.005-0.506-0.001-1.011-0.002-1.517v-5.506c0-0.412 0.268-0.756 0.653-0.843 0.054-0.012 0.116-0.019 0.179-0.019 0.461 0 0.835 0.374 0.835 0.835 0 0.002 0 0.004-0 0.006v-0c0.003 0.899 0 1.797 0 2.696zM18.406 19.5v-3.8c0-0.379 0.162-0.66 0.5-0.818 0.542-0.251 1.15 0.15 1.17 0.763v7.648c0 0.418-0.239 0.75-0.616 0.858-0.494 0.142-1.006-0.22-1.048-0.741-0.003-0.043-0.005-0.093-0.005-0.143 0-0.006 0-0.012 0-0.018v0.001-3.752zM23.5 15.634v5.94c0 0.006 0 0.014 0 0.021 0 0.406-0.285 0.746-0.666 0.83l-0.006 0.001c-0.492 0.107-0.982-0.286-0.996-0.799v-11.92c0-0.385 0.193-0.692 0.519-0.828 0.55-0.23 1.147 0.184 1.147 0.798v5.956zM10.167 15.625v5.949c0 0.42-0.26 0.757-0.652 0.85-0.5 0.12-1.001-0.274-1.015-0.799v-11.937c0-0.409 0.245-0.741 0.62-0.845 0.064-0.017 0.137-0.027 0.212-0.027 0.459 0 0.831 0.371 0.834 0.829v0c0.005 0.655 0.001 1.311 0.001 1.967v4.012z"></path>
</svg>
