<!-- Generated by IcoMoon.io -->
<svg version="1.1" xmlns="http://www.w3.org/2000/svg" width="32" height="32" viewBox="0 0 32 32">
<title>icx</title>
<path fill="#1fc5c9" d="M32 16c0 8.837-7.163 16-16 16s-16-7.163-16-16c0-8.837 7.163-16 16-16s16 7.163 16 16z"></path>
<path fill="#fff" d="M11.296 22.472l2.164-2.164c0.727 0.437 1.605 0.695 2.543 0.695 2.761 0 5-2.239 5-5 0-0.938-0.258-1.816-0.708-2.566l0.013 0.023 2.164-2.164c0.957 1.303 1.532 2.938 1.532 4.708 0 4.418-3.582 8-8 8-1.77 0-3.405-0.575-4.73-1.548l0.022 0.016zM9.528 20.704c-0.957-1.303-1.532-2.938-1.532-4.708 0-4.418 3.582-8 8-8 1.77 0 3.405 0.575 4.73 1.548l-0.022-0.016-2.164 2.164c-0.727-0.437-1.605-0.695-2.543-0.695-2.761 0-5 2.239-5 5 0 0.938 0.258 1.816 0.708 2.566l-0.013-0.023zM24 10c-1.105 0-2-0.895-2-2s0.895-2 2-2v0c1.105 0 2 0.895 2 2s-0.895 2-2 2v0zM8 26c-1.105 0-2-0.895-2-2s0.895-2 2-2v0c1.105 0 2 0.895 2 2s-0.895 2-2 2v0z"></path>
</svg>
