<!-- Generated by IcoMoon.io -->
<svg version="1.1" xmlns="http://www.w3.org/2000/svg" width="32" height="32" viewBox="0 0 32 32">
<title>ignis</title>
<path fill="#f9c011" d="M32 16c0 8.837-7.163 16-16 16s-16-7.163-16-16c0-8.837 7.163-16 16-16s16 7.163 16 16z"></path>
<path fill="#fff" d="M14.812 6c1.518 0.887 2.946 1.914 4.45 2.825l-5.544 9.671c-0.736-1.291-1.426-2.608-2.153-3.906 1.047-2.875 2.243-5.7 3.247-8.59zM10 26c3.139-5.709 6.4-11.355 9.504-17.079 0.83 1.457 1.661 2.913 2.496 4.37-2.406 4.232-4.83 8.454-7.217 12.695-1.595 0-3.188-0.020-4.783 0.014zM15.082 25.977c1.33-2.275 2.583-4.59 3.93-6.855 0.803 1.027 1.618 2.048 2.415 3.080 0.628-0.268-1.444 0.982-3.524 2.22l-2.821 1.555z"></path>
</svg>
