<!-- Generated by IcoMoon.io -->
<svg version="1.1" xmlns="http://www.w3.org/2000/svg" width="32" height="32" viewBox="0 0 32 32">
<title>ilk</title>
<path fill="#98c23a" d="M32 16c0 8.837-7.163 16-16 16s-16-7.163-16-16c0-8.837 7.163-16 16-16s16 7.163 16 16z"></path>
<path fill="#fff" d="M15.79 4c-6.511 0-11.79 5.279-11.79 11.79s5.279 11.79 11.79 11.79c6.511 0 11.79-5.279 11.79-11.79-0.011-6.507-5.283-11.779-11.79-11.79zM15.79 26c-5.632 0-10.198-4.565-10.2-10.197s4.561-10.2 10.193-10.203c5.632-0.004 10.201 4.558 10.207 10.19-0.006 5.631-4.569 10.194-10.2 10.2v0.010zM10.58 14.74h-1.9v-4.16c0-0.78 0.37-1.17 1.11-1.17h4.12c0.050-0.009 0.108-0.014 0.167-0.014 0.552 0 1 0.448 1 1 0 0.065-0.006 0.129-0.018 0.19l0.001-0.006v4.16h-1.88v-3.7h-2.6v3.7zM13.18 15.96h1.9v5c0.010 0.052 0.015 0.112 0.015 0.174 0 0.552-0.448 1-1 1-0.058 0-0.116-0.005-0.171-0.015l0.006 0.001h-4.14c-0.035 0.004-0.076 0.007-0.118 0.007-0.552 0-1-0.448-1-1 0-0.066 0.006-0.131 0.019-0.193l-0.001 0.006v-5h4.5l-0.010 0.020zM20.98 16.030h1.92v5c0.010 0.053 0.016 0.113 0.016 0.176 0 0.552-0.448 1-1 1-0.062 0-0.123-0.006-0.182-0.016l0.006 0.001h-4.17c-0.047 0.008-0.1 0.012-0.155 0.012-0.552 0-1-0.448-1-1 0-0.061 0.005-0.12 0.016-0.178l-0.001 0.006v-10.36c-0.011-0.056-0.018-0.121-0.018-0.188 0-0.552 0.448-1 1-1 0.066 0 0.131 0.006 0.194 0.019l-0.006-0.001h4.1c0.066-0.015 0.141-0.024 0.219-0.024 0.552 0 1 0.448 1 1 0 0.069-0.007 0.136-0.020 0.201l0.001-0.006v3h-2v-2.54h-2.5v4.9h2.58z"></path>
</svg>
