<!-- Generated by IcoMoon.io -->
<svg version="1.1" xmlns="http://www.w3.org/2000/svg" width="32" height="32" viewBox="0 0 32 32">
<title>ink</title>
<path fill="#df1a14" d="M32 16c0 8.837-7.163 16-16 16s-16-7.163-16-16c0-8.837 7.163-16 16-16s16 7.163 16 16z"></path>
<path fill="#fff" d="M14.86 11.527c0.307-0.097 0.656 0.076 0.783 0.378 0.307 0.702 0.582 1.425 0.9 2.126 0.19 0.421 0.837 0.475 1.090 0.087 0.424-0.702 0.763-1.447 1.176-2.16 0.339-0.442 0.953-0.226 1.419-0.269 0.487-0.032 0.847 0.583 0.571 1.004-1.334 2.493-2.678 4.976-4.012 7.47-0.223 0.453-0.953 0.453-1.154-0.022-0.297-0.723-0.53-1.479-0.816-2.202-0.17-0.475-0.9-0.55-1.143-0.097-0.413 0.745-0.773 1.522-1.186 2.256-0.201 0.334-0.625 0.28-0.953 0.28-0.318-0.021-0.699 0.076-0.942-0.194-0.121-0.125-0.195-0.296-0.195-0.484 0-0.132 0.037-0.256 0.101-0.362l-0.002 0.003c1.25-2.364 2.52-4.738 3.77-7.124 0.148-0.27 0.275-0.605 0.593-0.69zM10.497 11.711c0.166-0.010 0.36-0.016 0.556-0.016s0.39 0.006 0.583 0.017l-0.027-0.001c0.413 0.043 0.678 0.572 0.477 0.95-1.24 2.342-2.489 4.673-3.727 7.005-0.149 0.26-0.265 0.605-0.583 0.69-0.37 0.055-0.751 0.023-1.122 0.023-0.455 0.021-0.836-0.573-0.561-0.972 1.292-2.418 2.583-4.847 3.875-7.275 0.106-0.205 0.286-0.41 0.53-0.421zM23.637 11.732c0.402-0.119 0.826-0.032 1.239-0.065 0.317 0.011 0.72-0.054 0.953 0.227 0.286 0.292 0.2 0.842-0.16 1.026-0.73 0.464-1.45 0.96-2.19 1.414-0.467 0.323-1.155-0.227-0.954-0.767 0.18-0.432 0.434-0.83 0.636-1.252 0.116-0.216 0.222-0.496 0.476-0.583zM20.132 18.187c0.212-0.13 0.477-0.086 0.678 0.022 0.561 0.28 1.122 0.583 1.694 0.853 0.244 0.108 0.498 0.313 0.508 0.604 0.043 0.389-0.286 0.766-0.667 0.734-0.815 0-1.63 0.010-2.435 0-0.402 0-0.72-0.475-0.572-0.863 0.106-0.281 0.265-0.53 0.392-0.8 0.095-0.204 0.19-0.453 0.402-0.55z"></path>
</svg>
