<!-- Generated by IcoMoon.io -->
<svg version="1.1" xmlns="http://www.w3.org/2000/svg" width="32" height="32" viewBox="0 0 32 32">
<title>ion</title>
<path fill="#57beea" d="M32 16c0 8.837-7.163 16-16 16s-16-7.163-16-16c0-8.837 7.163-16 16-16s16 7.163 16 16z"></path>
<path fill="#fff" d="M7.026 19.009c-0.094 0.012-0.203 0.018-0.314 0.018-1.498 0-2.712-1.214-2.712-2.712 0-0.002 0-0.004 0-0.007v0c0-0.002 0-0.004 0-0.006 0-1.487 1.197-2.695 2.68-2.712h0.002c0.96-4.41 4.87-7.711 9.546-7.711 0.873 0 1.72 0.115 2.525 0.33 0.491-0.734 1.315-1.21 2.252-1.21 0 0 0 0 0 0h-0c1.495 0.004 2.705 1.217 2.705 2.712 0 0.002 0 0.004 0 0.006v-0c0 0.469-0.118 0.91-0.326 1.294 1.621 1.745 2.616 4.091 2.616 6.669 0 0.006 0 0.012-0 0.018v-0.001c0 0.005 0 0.011 0 0.017 0 2.724-1.11 5.189-2.903 6.967l-0.001 0.001c0.326 0.448 0.518 1.001 0.518 1.599 0 0.002 0 0.004 0 0.006 0 1.496-1.211 2.709-2.706 2.712h-0c-1.14-0.001-2.115-0.707-2.513-1.706l-0.006-0.018c-0.646 0.153-1.389 0.24-2.151 0.24-0.003 0-0.006 0-0.009 0h0c-4.241 0-7.851-2.714-9.203-6.507zM7.516 18.904c1.3 3.568 4.71 6.115 8.712 6.115 0.695 0 1.372-0.077 2.023-0.222-0.032-0.157-0.050-0.337-0.050-0.521 0-1.496 1.212-2.709 2.707-2.712h0c0.72 0 1.376 0.283 1.86 0.744 1.691-1.686 2.737-4.019 2.737-6.595 0-0.005 0-0.011 0-0.016v0.001c0-2.41-0.91-4.606-2.405-6.26-0.496 0.61-1.25 0.999-2.095 0.999-1.495-0.003-2.706-1.216-2.706-2.712 0-0.002 0-0.005 0-0.007v0c0-0.374 0.076-0.731 0.212-1.056-0.683-0.18-1.467-0.284-2.275-0.284-0.003 0-0.006 0-0.009 0h0c-4.416 0-8.112 3.101-9.047 7.255 1.277 0.238 2.23 1.343 2.23 2.671 0 0.002 0 0.003 0 0.005v-0c0 0.001 0 0.003 0 0.004 0 1.207-0.787 2.231-1.877 2.585l-0.019 0.005zM16.228 18.42c-1.496-0.004-2.708-1.218-2.708-2.715 0-0.002 0-0.005 0-0.007v0c0-1.503 1.212-2.721 2.708-2.721s2.709 1.218 2.709 2.721c0 0.002 0 0.005 0 0.007 0 1.497-1.212 2.712-2.709 2.715h-0z"></path>
</svg>
