<!-- Generated by IcoMoon.io -->
<svg version="1.1" xmlns="http://www.w3.org/2000/svg" width="32" height="32" viewBox="0 0 32 32">
<title>iop</title>
<path fill="#0cafa5" d="M32 16c0 8.837-7.163 16-16 16s-16-7.163-16-16c0-8.837 7.163-16 16-16s16 7.163 16 16z"></path>
<path fill="#fff" d="M8.413 11.919c-0.033-0.020-0.060-0.004-0.060 0.035v2.302c0.002 0.044 0.025 0.082 0.059 0.105l0.001 0 2.91 1.682c0.035 0.023 0.058 0.061 0.060 0.105v8.33c0.003 0.044 0.027 0.082 0.061 0.105l0.001 0 1.993 1.15c0.033 0.020 0.060 0.004 0.060-0.035v-10.77c-0.002-0.044-0.025-0.083-0.059-0.106l-0.001-0-5.025-2.903zM23.587 11.919c0.033-0.020 0.060-0.004 0.060 0.035v2.302c-0.002 0.044-0.025 0.082-0.059 0.105l-0 0-2.91 1.68c-0.035 0.023-0.058 0.062-0.060 0.106v8.33c-0.002 0.044-0.026 0.083-0.061 0.106l-0 0-1.993 1.15c-0.034 0.020-0.061 0.004-0.061-0.035v-10.77c0.002-0.044 0.025-0.083 0.060-0.106l0-0 5.025-2.903z"></path>
<path fill="#fff" d="M23.98 7.503c0-0.038-0.027-0.054-0.060-0.035l-7.86 4.546c-0.017 0.009-0.038 0.014-0.060 0.014s-0.043-0.005-0.061-0.015l0.001 0-7.86-4.546c-0.034-0.020-0.061-0.003-0.061 0.035v2.302c0.002 0.044 0.025 0.082 0.059 0.105l0.001 0 6.804 3.934c0.034 0.023 0.058 0.061 0.060 0.105l0 0v14.285c0.002 0.044 0.026 0.083 0.060 0.106l0.001 0 0.935 0.54c0.018 0.009 0.039 0.014 0.061 0.014s0.043-0.005 0.062-0.015l-0.001 0 0.935-0.54c0.035-0.023 0.058-0.062 0.060-0.106v-14.284c0.003-0.044 0.026-0.082 0.061-0.105l0-0 6.803-3.935c0.035-0.023 0.058-0.062 0.060-0.106v-2.3zM16.036 13.319c-0.008 0-0.011-0.006-0.007-0.013s0.010-0.007 0.014 0 0 0.013-0.007 0.013z"></path>
<path fill="#fff" d="M15.012 7.202c-0.039 0.009-0.068 0.043-0.069 0.084v2.873c0.003 0.044 0.026 0.082 0.060 0.105l0.001 0 0.935 0.54c0.038 0.020 0.083 0.020 0.122 0l0.935-0.54c0.035-0.023 0.058-0.061 0.060-0.105l0-0v-2.874c-0-0.041-0.029-0.075-0.067-0.084l-0.001-0-0.92-0.169c-0.021-0.003-0.044-0.005-0.069-0.005s-0.048 0.002-0.071 0.005l0.003-0-0.919 0.17z"></path>
</svg>
