<!-- Generated by IcoMoon.io -->
<svg version="1.1" xmlns="http://www.w3.org/2000/svg" width="32" height="32" viewBox="0 0 32 32">
<title>iost</title>
<path fill="#1c1c1c" d="M32 16c0 8.837-7.163 16-16 16s-16-7.163-16-16c0-8.837 7.163-16 16-16s16 7.163 16 16z"></path>
<path fill="#fff" d="M24.5 11v10l-8.5 5-8.5-5v-10l8.5-5zM15.732 16.407l-0.79 0.467 1.476 0.862 0.785-0.463 2.099 1.235-3.131 1.84-6.495-3.786-0.027 1.843 6.526 3.79 6.27-3.687-3.674-2.162 0.74-0.437-1.476-0.862-0.735 0.434-1.030-0.606 0.901-0.533-1.476-0.863-0.897 0.53-1.754-1.032 3.13-1.841 4.328 2.529 1.586-0.938-5.917-3.438-6.27 3.688 3.329 1.959-0.628 0.37 1.476 0.863 0.623-0.368z"></path>
</svg>
