<!-- Generated by IcoMoon.io -->
<svg version="1.1" xmlns="http://www.w3.org/2000/svg" width="32" height="32" viewBox="0 0 32 32">
<title>iotx</title>
<path fill="#00d4d5" d="M32 16c0 8.837-7.163 16-16 16s-16-7.163-16-16c0-8.837 7.163-16 16-16s16 7.163 16 16z"></path>
<path fill="#fff" d="M16.519 5v5.457l4.738-2.725z"></path>
<path fill="#fff" opacity="0.9" d="M21.257 7.732v5.457l4.737-2.732z"></path>
<path fill="#fff" opacity="0.8" d="M16.519 10.457v5.457l4.738-2.725zM21.257 13.19v5.456l4.737-2.732z"></path>
<path fill="#fff" opacity="0.8" d="M16.519 15.914v5.457l4.738-2.725z"></path>
<path fill="#fff" d="M21.257 18.646v5.457l4.737-2.732z"></path>
<path fill="#fff" opacity="0.4" d="M4.273 10.273v5.457l4.738-2.732z"></path>
<path fill="#fff" opacity="0.2" d="M10.25 12.302v5.457l4.73-2.725z"></path>
<path fill="#fff" opacity="0.3" d="M6.738 15.753v5.457l4.737-2.732z"></path>
<path fill="#fff" opacity="0.9" d="M9.86 19.871v5.457l4.73-2.732z"></path>
<path fill="#fff" opacity="0.7" d="M16.48 22.22v5.458l4.73-2.733z"></path>
<path fill="#fff" opacity="0.9" d="M11.039 9.607v5.458l4.73-2.725z"></path>
<path fill="#fff" opacity="0.8" d="M16.519 5v5.457l-4.738-2.725z"></path>
<path fill="#fff" opacity="0.6" d="M11.039 7.32v5.456l-4.739-2.732z"></path>
<path fill="#fff" opacity="0.6" d="M15.777 10.020v5.458l-4.738-2.733z"></path>
<path fill="#fff" opacity="0.95" d="M10.228 12.302v5.457l-4.738-2.725z"></path>
<path fill="#fff" opacity="0.6" d="M16.519 15.914v5.457l-4.73-2.725z"></path>
<path fill="#fff" opacity="0.55" d="M6.738 17.185v5.457l-4.738-2.733z"></path>
<path fill="#fff" d="M25.994 10.457v5.457l-4.737-2.725z"></path>
<path fill="#fff" opacity="0.95" d="M21.257 13.19v5.456l-4.738-2.732z"></path>
<path fill="#fff" opacity="0.9" d="M25.994 15.914v5.457l-4.737-2.725z"></path>
<path fill="#fff" opacity="0.7" d="M21.257 18.646v5.457l-4.738-2.732z"></path>
<path fill="#fff" opacity="0.4" d="M15.47 20.92v5.457l-4.737-2.725z"></path>
<path fill="#fff" d="M21.257 7.732v5.457l-4.738-2.732z"></path>
</svg>
