<!-- Generated by IcoMoon.io -->
<svg version="1.1" xmlns="http://www.w3.org/2000/svg" width="32" height="32" viewBox="0 0 32 32">
<title>iotx</title>
<path fill="#00d4d5" d="M13.577 22.012l-3.717-2.14v5.456l1.89-1.091 3.72 2.14v-5.457l-1.893 1.092zM10.227 12.308l0.024 0.014v5.437l4.73-2.725-1.942-1.122 0.012-0.006 2.726 1.572v-5.448l0.742 0.427v-5.457l-4.738 2.732 3.988 2.293-2.008 1.155-2.722-1.573v3.15-5.438l-4.739 2.725 3.92 2.261-4.73 2.729 4.737 2.725v-5.45zM16 32c-8.837 0-16-7.163-16-16s7.163-16 16-16 16 7.163 16 16-7.163 16-16 16zM16.519 5v5.457l4.738-2.725-4.738-2.732zM21.257 7.732v5.457l4.737-2.732-4.737-2.725zM16.519 10.457v5.457l4.738-2.725-4.738-2.732zM21.257 13.189v5.457l4.737-2.732-4.737-2.725zM16.519 15.914v5.457l4.738-2.725-4.738-2.732zM21.257 18.646v5.457l4.737-2.732-4.737-2.725zM4.273 10.273v5.457l4.738-2.732-4.738-2.725zM6.738 15.753v5.457l4.737-2.732-4.737-2.725zM16.481 22.221v5.457l4.73-2.733-4.73-2.724zM16.519 15.914l-4.73 2.732 4.73 2.725v-5.457zM6.738 17.184l-4.738 2.726 4.738 2.733v-5.457zM25.994 10.457l-4.737 2.732 4.737 2.725v-5.457zM21.257 13.189l-4.738 2.725 4.738 2.732v-5.456zM25.994 15.914l-4.737 2.732 4.737 2.725v-5.457zM21.257 18.646l-4.738 2.725 4.738 2.732v-5.457zM21.257 7.732l-4.738 2.725 4.738 2.732v-5.457z"></path>
</svg>
