<!-- Generated by IcoMoon.io -->
<svg version="1.1" xmlns="http://www.w3.org/2000/svg" width="32" height="32" viewBox="0 0 32 32">
<title>itc</title>
<path fill="#102044" d="M32 16c0 8.837-7.163 16-16 16s-16-7.163-16-16c0-8.837 7.163-16 16-16s16 7.163 16 16z"></path>
<path fill="#fff" d="M24.248 19.35c0.45 0.173 0.748 0.601 0.752 1.080 0 0 0 0.001 0 0.001 0 0.421-0.226 0.788-0.563 0.989l-0.005 0.003c-0.17 0.101-0.374 0.161-0.593 0.161-0.204 0-0.396-0.052-0.563-0.144l0.006 0.003-6.030 3.29c0.003 0.032 0.005 0.070 0.005 0.108 0 0.633-0.508 1.148-1.139 1.159h-0.001c-0.008 0-0.018 0-0.028 0-0.631 0-1.144-0.503-1.16-1.13l-0-0.001-2.94-1.683h-0.067v-0.035l-3.098-1.771c-0.183 0.128-0.41 0.204-0.655 0.204-0.001 0-0.002 0-0.003 0h0c-0.002 0-0.004 0-0.006 0-0.582 0-1.063-0.428-1.147-0.987l-0.001-0.006c-0.007-0.048-0.011-0.103-0.011-0.16 0-0.527 0.353-0.971 0.835-1.109l0.008-0.002v-6.616c-0.459-0.132-0.796-0.528-0.84-1.009l-0-0.004c-0.040-0.478 0.221-0.931 0.658-1.138 0.147-0.071 0.319-0.113 0.502-0.113 0.312 0 0.595 0.122 0.805 0.321l-0.001-0.001 5.97-3.42c-0.009-0.054-0.014-0.116-0.014-0.18 0-0.641 0.519-1.16 1.16-1.16 0.001 0 0.003 0 0.004 0h-0c0.001 0 0.001 0 0.002 0 0.641 0 1.16 0.519 1.16 1.16 0 0.085-0.009 0.167-0.026 0.247l0.001-0.008 5.828 3.338c0.213-0.192 0.49-0.298 0.779-0.297 0.12-0.046 0.259-0.073 0.404-0.073 0.637 0 1.153 0.516 1.153 1.153 0 0.632-0.509 1.146-1.14 1.153h-0.001v6.678zM20.13 16.745v5.683l2.672-1.457c-0.083-0.156-0.132-0.341-0.132-0.537 0-0.559 0.395-1.025 0.921-1.135l0.008-0.001v-6.57c-0.535-0.109-0.933-0.574-0.935-1.133v-0c0-0.106 0.015-0.212 0.044-0.315l-2.533-1.452v5.284h-0.004l-0.010 0.346-0.143 0.067-0.913 0.546 0.873 0.52 0.139 0.066 0.004 0.062 0.005 0.027h0.004zM16.090 8.309c-0.332 0-0.648-0.14-0.869-0.387l-2.65 1.519v5.612l1.088 0.648 1.374-0.808c-0.012-0.058-0.018-0.124-0.018-0.192 0-0.566 0.459-1.025 1.025-1.025 0.002 0 0.004 0 0.005 0h-0c0.001 0 0.002 0 0.002 0 0.566 0 1.025 0.459 1.025 1.025 0 0.054-0.004 0.106-0.012 0.158l0.001-0.006 1.419 0.844 1.052-0.63v-5.609l-2.614-1.497c-0.21 0.214-0.503 0.347-0.826 0.347-0.001 0-0.001 0-0.002 0h0zM16.77 16.731l1.083-0.652-1.088-0.649c-0.186 0.181-0.441 0.293-0.721 0.293-0.269 0-0.514-0.102-0.698-0.27l0.001 0.001-1.070 0.621 1.065 0.635c0.184-0.17 0.431-0.275 0.702-0.275 0.283 0 0.539 0.113 0.726 0.297l-0-0zM9.242 20.878l2.68 1.536v-5.492l0.005-0.177 0.045-0.045 0.224-0.133 0.832-0.488-0.752-0.444-0.349-0.178v-0.213h-0.004v-5.435l-2.628 1.506c0.155 0.6-0.2 1.214-0.8 1.385v6.624c0.317 0.092 0.58 0.315 0.723 0.611 0.143 0.297 0.152 0.64 0.024 0.943zM16.090 23.671c0.365 0 0.708 0.17 0.926 0.462l2.47-1.35v-5.736l-1.006-0.6-1.42 0.853c0.010 0.050 0.014 0.1 0.014 0.15 0 0.565-0.46 1.022-1.030 1.022-0 0-0 0-0.001 0-0.566 0-1.025-0.459-1.025-1.025 0-0.063 0.006-0.124 0.017-0.184l-0.001 0.006-1.393-0.826-1.074 0.626v5.714l2.525 1.447c0.21-0.348 0.589-0.56 0.998-0.559z"></path>
</svg>
