<!-- Generated by IcoMoon.io -->
<svg version="1.1" xmlns="http://www.w3.org/2000/svg" width="32" height="32" viewBox="0 0 32 32">
<title>jnt</title>
<path fill="#0050db" d="M32 16c0 8.837-7.163 16-16 16s-16-7.163-16-16c0-8.837 7.163-16 16-16s16 7.163 16 16z"></path>
<path fill="#fff" d="M16 26c-0.68-0-1.317-0.188-1.86-0.514l0.016 0.009-5.306-3.12c-1.115-0.672-1.85-1.877-1.85-3.253 0-0.003 0-0.006 0-0.008v0-6.23c0-1.378 0.735-2.584 1.833-3.249l0.017-0.010 5.306-3.12c0.53-0.317 1.169-0.504 1.852-0.505h0c0.645 0 1.28 0.174 1.836 0.505l5.306 3.121c1.115 0.672 1.85 1.877 1.85 3.253 0 0.002 0 0.004 0 0.006v-0 6.23c0 0 0 0 0 0 0 1.378-0.734 2.585-1.833 3.25l-0.017 0.010-5.306 3.12c-0.56 0.33-1.196 0.505-1.844 0.505zM12.948 19.571l-0.983 1c0.49 0.507 1.176 0.822 1.936 0.822 0.007 0 0.015-0 0.022-0h-0.001c1.53-0.002 2.772-1.264 2.774-2.823v-0.852c0.42 0.247 0.897 0.377 1.382 0.376 0.015 0 0.032 0 0.050 0 0.751 0 1.43-0.311 1.914-0.812l0.001-0.001-0.982-1c-0.26 0.266-0.614 0.416-0.983 0.416-0.765-0.008-1.382-0.631-1.382-1.397 0-0.004 0-0.007 0-0.011v0.001-4.696h-1.382v7.984c0 0.779-0.62 1.41-1.385 1.41-0.385-0.001-0.732-0.161-0.981-0.418l-0-0z"></path>
</svg>
