<!-- Generated by IcoMoon.io -->
<svg version="1.1" xmlns="http://www.w3.org/2000/svg" width="32" height="32" viewBox="0 0 32 32">
<title>kin</title>
<path fill="#005fff" d="M32 16c0 8.837-7.163 16-16 16s-16-7.163-16-16c0-8.837 7.163-16 16-16s16 7.163 16 16z"></path>
<path fill="#fff" d="M13.701 18.007v-4.817h1.125c0.243 0 0.44 0.194 0.44 0.433v0.416c0 0.452 0.392 0.84 0.849 0.84s0.804-0.388 0.804-0.84v-0.4c0-0.248 0.203-0.45 0.455-0.45h1.253v1.218c0 0.248-0.204 0.45-0.455 0.45h-0.425c-0.001 0-0.003 0-0.004 0-0.453 0-0.82 0.365-0.824 0.817v0c0 0.451 0.424 0.817 0.881 0.817h0.375c0.25 0 0.452 0.2 0.452 0.446v1.070h1.009c0.35 0 0.633 0.278 0.633 0.62v0.367c0 0.342-0.284 0.62-0.633 0.62h-0.376c-0.002 0-0.005 0-0.007 0-0.344 0-0.623-0.277-0.626-0.62v-0.826h-1.257c-0.25 0-0.451-0.2-0.451-0.446v-0.412c-0.009-0.46-0.382-0.83-0.842-0.834h-0c-0.457 0-0.812 0.4-0.812 0.875v0.374c0 0.245-0.2 0.443-0.448 0.443h-1.116v0.826c0 0.342-0.283 0.62-0.633 0.62h-0.375c-0.002 0-0.005 0-0.007 0-0.344 0-0.623-0.277-0.626-0.62v-0.367c0-0.342 0.283-0.62 0.633-0.62zM19.636 13.029h-1.010v-0.986c0-0.342 0.284-0.62 0.634-0.62h0.376c0.35 0 0.633 0.278 0.633 0.62v0.367c0 0.342-0.284 0.62-0.633 0.62zM13.701 13.029h-1.008c-0.002 0-0.005 0-0.007 0-0.343 0-0.622-0.276-0.626-0.619v-0.367c0-0.342 0.283-0.62 0.633-0.62h0.375c0.35 0 0.633 0.278 0.633 0.62zM15.976 11.584c-0.002 0-0.005 0-0.007 0-0.344 0-0.623-0.277-0.626-0.62v-0.367c0-0.342 0.284-0.619 0.633-0.619h0.376c0.35 0 0.633 0.277 0.633 0.62v0.367c-0.004 0.343-0.283 0.619-0.626 0.619-0.002 0-0.005 0-0.007-0h0zM15.976 21.38c-0.002 0-0.005 0-0.007 0-0.344 0-0.623-0.277-0.626-0.62v-0.367c0-0.342 0.284-0.62 0.633-0.62h0.376c0.35 0 0.633 0.278 0.633 0.62v0.368c-0.004 0.343-0.283 0.619-0.626 0.619-0.002 0-0.005 0-0.007-0h0zM20.902 16.401c-0.002 0-0.005 0-0.007 0-0.343 0-0.622-0.276-0.626-0.619v-0.367c0-0.342 0.283-0.62 0.633-0.62h0.375c0.35 0 0.633 0.278 0.633 0.62v0.367c0 0.342-0.283 0.62-0.633 0.62zM10.887 16.401c-0.002 0-0.005 0-0.007 0-0.343 0-0.622-0.276-0.626-0.619v-0.367c0-0.342 0.283-0.62 0.633-0.62h0.375c0.35 0 0.634 0.278 0.634 0.62v0.367c0 0.342-0.284 0.62-0.634 0.62zM18.653 21.422c0.065-0.027 0.14-0.043 0.219-0.043 0.236 0 0.44 0.141 0.53 0.344l0.001 0.004c0.027 0.064 0.043 0.138 0.043 0.216 0 0.234-0.145 0.435-0.35 0.517l-0.004 0.001c-0.065 0.027-0.14 0.043-0.219 0.043-0.236 0-0.439-0.141-0.53-0.343l-0.001-0.004c-0.027-0.064-0.043-0.138-0.043-0.216 0-0.235 0.145-0.435 0.35-0.518l0.004-0.001zM13.4 8.897c0.065-0.027 0.14-0.043 0.219-0.043 0.236 0 0.439 0.141 0.53 0.343l0.001 0.004c0.027 0.063 0.043 0.137 0.043 0.215 0 0.234-0.145 0.435-0.349 0.518l-0.004 0.001c-0.065 0.027-0.14 0.043-0.22 0.043-0.236 0-0.439-0.141-0.53-0.344l-0.001-0.004c-0.027-0.063-0.043-0.137-0.043-0.215 0-0.234 0.145-0.435 0.349-0.518l0.004-0.001zM21.954 13.325c-0.027-0.064-0.043-0.138-0.043-0.216 0-0.235 0.145-0.436 0.351-0.518l0.004-0.001c0.065-0.027 0.14-0.043 0.219-0.043 0.236 0 0.439 0.141 0.53 0.343l0.001 0.004c0.027 0.064 0.043 0.138 0.043 0.216 0 0.235-0.145 0.435-0.35 0.518l-0.004 0.001c-0.065 0.027-0.14 0.043-0.219 0.043-0.236 0-0.439-0.141-0.53-0.343l-0.001-0.004zM9.312 18.463c-0.027-0.063-0.043-0.137-0.043-0.215 0-0.235 0.145-0.436 0.35-0.518l0.004-0.001c0.065-0.028 0.141-0.044 0.22-0.044 0.236 0 0.439 0.141 0.529 0.344l0.001 0.004c0.027 0.064 0.043 0.137 0.043 0.215 0 0.234-0.145 0.435-0.349 0.518l-0.004 0.001c-0.065 0.028-0.141 0.044-0.221 0.044-0.236 0-0.44-0.141-0.53-0.344l-0.001-0.004zM9.312 12.894c0.092-0.206 0.295-0.347 0.531-0.347 0.079 0 0.155 0.016 0.224 0.045l-0.004-0.001c0.209 0.084 0.354 0.285 0.354 0.52 0 0.078-0.016 0.152-0.045 0.219l0.001-0.004c-0.092 0.206-0.295 0.347-0.531 0.347-0.079 0-0.154-0.016-0.223-0.044l0.004 0.001c-0.21-0.083-0.355-0.285-0.355-0.52 0-0.078 0.016-0.152 0.045-0.219l-0.001 0.004zM18.489 9.935c-0.209-0.084-0.353-0.285-0.353-0.519 0-0.078 0.016-0.152 0.044-0.219l-0.001 0.004c0.092-0.206 0.295-0.347 0.531-0.347 0.079 0 0.154 0.016 0.223 0.044l-0.004-0.001c0.209 0.084 0.353 0.285 0.353 0.519 0 0.078-0.016 0.152-0.044 0.219l0.001-0.004c-0.092 0.206-0.295 0.347-0.531 0.347-0.079 0-0.154-0.016-0.223-0.044l0.004 0.001zM21.954 18.033c0.092-0.206 0.295-0.347 0.531-0.347 0.079 0 0.155 0.016 0.223 0.045l-0.004-0.001c0.209 0.084 0.355 0.285 0.355 0.52 0 0.077-0.016 0.151-0.044 0.218l0.001-0.004c-0.092 0.206-0.295 0.347-0.531 0.347-0.079 0-0.154-0.016-0.223-0.044l0.004 0.001c-0.209-0.084-0.355-0.285-0.355-0.52 0-0.077 0.016-0.151 0.044-0.218l-0.001 0.004zM13.071 22.621c-0.209-0.084-0.353-0.284-0.353-0.518 0-0.078 0.016-0.152 0.045-0.219l-0.001 0.004c0.092-0.206 0.295-0.347 0.531-0.347 0.079 0 0.154 0.016 0.223 0.044l-0.004-0.001c0.209 0.084 0.353 0.285 0.353 0.519 0 0.078-0.016 0.151-0.044 0.219l0.001-0.004c-0.092 0.206-0.295 0.347-0.531 0.347-0.079 0-0.154-0.016-0.223-0.044l0.004 0.001zM21.514 20.991c0.060-0.058 0.142-0.094 0.232-0.094s0.172 0.036 0.232 0.094l-0-0c0.129 0.126 0.129 0.33 0 0.455s-0.335 0.125-0.464 0c-0.059-0.058-0.096-0.138-0.096-0.227s0.037-0.169 0.096-0.227l0-0zM10.35 9.912c0.128-0.125 0.336-0.125 0.464 0s0.128 0.33 0 0.455c-0.060 0.058-0.142 0.094-0.232 0.094s-0.172-0.036-0.232-0.094l0 0c-0.059-0.058-0.096-0.138-0.096-0.227s0.037-0.169 0.096-0.227l0-0zM21.514 10.367c-0.059-0.058-0.096-0.138-0.096-0.227s0.037-0.169 0.096-0.227l0-0c0.129-0.126 0.336-0.126 0.464 0s0.129 0.328 0 0.454c-0.060 0.058-0.142 0.094-0.232 0.094s-0.172-0.036-0.232-0.094l0 0zM10.35 21.446c-0.059-0.058-0.096-0.138-0.096-0.227s0.037-0.169 0.096-0.227l0-0c0.060-0.058 0.142-0.094 0.232-0.094s0.172 0.036 0.232 0.094l-0-0c0.128 0.125 0.128 0.329 0 0.454s-0.336 0.125-0.464 0zM23.88 15.599c0-0.178 0.148-0.322 0.329-0.322s0.328 0.144 0.328 0.322c-0.003 0.177-0.147 0.32-0.325 0.32-0.001 0-0.002 0-0.003 0h0c-0.001 0-0.002 0-0.003 0-0.178 0-0.322-0.143-0.325-0.32v-0zM7.955 15.599c0-0.178 0.147-0.322 0.329-0.322 0.18 0 0.328 0.144 0.328 0.322-0.003 0.177-0.147 0.32-0.325 0.32-0.001 0-0.002 0-0.003 0h0c-0.001 0-0.003 0-0.004 0-0.178 0-0.322-0.143-0.325-0.32v-0zM16.165 8.212c-0.002 0-0.003 0-0.005 0-0.178 0-0.323-0.143-0.325-0.321v-0c0-0.178 0.148-0.322 0.33-0.322 0.18 0 0.328 0.144 0.328 0.322-0.003 0.177-0.147 0.32-0.325 0.32-0.001 0-0.003 0-0.004-0h0zM16.165 23.788c-0.002 0-0.003 0-0.005 0-0.178 0-0.322-0.143-0.325-0.32v-0c0-0.178 0.148-0.322 0.33-0.322 0.18 0 0.328 0.144 0.328 0.321-0.002 0.178-0.147 0.321-0.325 0.321-0.001 0-0.003 0-0.004-0h0zM26.343 15.598c0-0.177 0.148-0.32 0.329-0.32 0.18 0 0.328 0.143 0.328 0.32-0.002 0.178-0.147 0.322-0.325 0.322-0.001 0-0.002 0-0.003 0h0c-0.001 0-0.003 0-0.004 0-0.178 0-0.323-0.143-0.325-0.321v-0zM5.246 15.438c0.136 0 0.247 0.108 0.247 0.24s-0.11 0.242-0.247 0.242c-0.136 0-0.246-0.108-0.246-0.241s0.11-0.241 0.246-0.241zM15.672 5.321c0-0.177 0.147-0.321 0.328-0.321s0.328 0.144 0.328 0.321c0 0.177-0.147 0.321-0.328 0.321s-0.328-0.144-0.328-0.32zM25.397 19.426c0.079-0.175 0.253-0.295 0.454-0.295 0.069 0 0.134 0.014 0.194 0.039l-0.003-0.001c0.178 0.073 0.301 0.245 0.301 0.445 0 0.067-0.014 0.132-0.039 0.19l0.001-0.003c-0.078 0.175-0.251 0.296-0.452 0.296-0.070 0-0.137-0.015-0.197-0.041l0.003 0.001c-0.177-0.073-0.3-0.244-0.3-0.444 0-0.067 0.014-0.132 0.039-0.19l-0.001 0.003zM20.067 24.616c0.081 0.033 0.143 0.096 0.176 0.174l0.001 0.002c0.015 0.036 0.024 0.078 0.024 0.121s-0.009 0.087-0.026 0.126l0.001-0.002c-0.053 0.116-0.168 0.196-0.302 0.196-0.135 0-0.252-0.081-0.303-0.198l-0.001-0.002c-0.016-0.036-0.025-0.078-0.025-0.122s0.009-0.086 0.026-0.125l-0.001 0.002c0.035-0.080 0.099-0.141 0.178-0.172l0.002-0.001c0.036-0.015 0.078-0.023 0.122-0.023 0.046 0 0.090 0.009 0.13 0.026l-0.002-0.001zM6.442 11.289c0.080 0.034 0.143 0.096 0.176 0.175 0.016 0.036 0.025 0.078 0.025 0.122s-0.009 0.088-0.026 0.126l0.001-0.002c-0.053 0.116-0.168 0.196-0.302 0.196-0.135 0-0.252-0.081-0.303-0.198l-0.001-0.002c-0.016-0.036-0.025-0.078-0.025-0.122s0.009-0.088 0.026-0.126l-0.001 0.002c0.035-0.079 0.098-0.14 0.177-0.171l0.002-0.001c0.037-0.015 0.080-0.024 0.124-0.024s0.089 0.009 0.129 0.026l-0.002-0.001zM5.526 19.539c0.066-0.146 0.211-0.246 0.378-0.246 0.058 0 0.112 0.012 0.162 0.033l-0.003-0.001c0.148 0.060 0.25 0.203 0.25 0.369 0 0.057-0.012 0.11-0.033 0.159l0.001-0.003c-0.066 0.146-0.21 0.245-0.378 0.245-0.058 0-0.113-0.012-0.163-0.033l0.003 0.001c-0.148-0.060-0.25-0.203-0.25-0.369 0-0.057 0.012-0.11 0.033-0.159l-0.001 0.003zM19.863 6.252c-0.148-0.060-0.251-0.203-0.251-0.37 0-0.056 0.012-0.11 0.033-0.159l-0.001 0.003c0.066-0.146 0.211-0.246 0.378-0.246 0.058 0 0.112 0.012 0.162 0.033l-0.003-0.001c0.148 0.060 0.25 0.203 0.25 0.37 0 0.057-0.012 0.11-0.033 0.159l0.001-0.003c-0.066 0.146-0.211 0.246-0.378 0.246-0.057 0-0.112-0.012-0.162-0.033l0.003 0.001zM26.004 11.119c0.028-0.011 0.060-0.018 0.093-0.018s0.067 0.007 0.097 0.020l-0.002-0.001c0.088 0.037 0.149 0.122 0.149 0.222 0 0.101-0.062 0.187-0.15 0.223l-0.002 0.001c-0.027 0.011-0.059 0.018-0.093 0.018-0.102 0-0.189-0.061-0.228-0.148l-0.001-0.002c-0.012-0.027-0.019-0.058-0.019-0.091s0.007-0.066 0.020-0.095l-0.001 0.002c0.026-0.059 0.074-0.105 0.132-0.128l0.002-0.001zM11.587 5.95c0.039-0.088 0.126-0.147 0.226-0.147 0.035 0 0.068 0.007 0.098 0.020l-0.002-0.001c0.089 0.036 0.15 0.122 0.15 0.222 0 0.101-0.063 0.188-0.152 0.223l-0.002 0.001c-0.027 0.011-0.059 0.018-0.093 0.018s-0.067-0.007-0.097-0.019l0.002 0.001c-0.089-0.037-0.15-0.122-0.15-0.222 0-0.034 0.007-0.066 0.020-0.095l-0.001 0.002zM11.65 24.912c0.032 0 0.064 0.007 0.095 0.020 0.089 0.036 0.15 0.122 0.15 0.222 0 0.034-0.007 0.066-0.020 0.095l0.001-0.002c-0.040 0.087-0.126 0.147-0.227 0.147-0.034 0-0.067-0.007-0.097-0.020l0.002 0.001c-0.089-0.036-0.15-0.122-0.15-0.223 0-0.033 0.007-0.065 0.019-0.094l-0.001 0.002c0.039-0.088 0.126-0.148 0.226-0.148 0.001 0 0.001 0 0.002 0h-0zM23.292 23.212c-0.060 0.058-0.142 0.094-0.233 0.094s-0.172-0.036-0.233-0.094l0 0c-0.059-0.058-0.096-0.138-0.096-0.227s0.037-0.169 0.096-0.227l0-0c0.059-0.058 0.141-0.094 0.231-0.094 0.001 0 0.002 0 0.002 0h-0c0 0 0.001 0 0.001 0 0.090 0 0.171 0.036 0.231 0.094l-0-0c0.060 0.058 0.097 0.138 0.097 0.227s-0.037 0.17-0.097 0.227l-0 0zM7.935 8.033c0.090-0.087 0.213-0.141 0.349-0.141s0.258 0.054 0.349 0.141l-0-0c0.089 0.086 0.144 0.207 0.144 0.341s-0.055 0.254-0.144 0.34l-0 0c-0.090 0.088-0.213 0.143-0.348 0.143s-0.259-0.054-0.349-0.143l0 0c-0.089-0.086-0.144-0.207-0.144-0.341s0.055-0.254 0.144-0.34l0-0zM23.46 8.123c0.045-0.044 0.106-0.071 0.174-0.071s0.129 0.027 0.174 0.071l-0-0c0.044 0.043 0.071 0.103 0.071 0.17s-0.027 0.127-0.071 0.17l-0 0c-0.045 0.044-0.106 0.070-0.174 0.070s-0.129-0.027-0.174-0.071l0 0c-0.045-0.043-0.072-0.103-0.072-0.17s0.028-0.127 0.072-0.17l0-0zM8.027 22.735c0.045-0.044 0.106-0.071 0.174-0.071s0.129 0.027 0.174 0.071l-0-0c0.044 0.043 0.072 0.103 0.072 0.17s-0.028 0.127-0.072 0.17l-0 0c-0.045 0.044-0.106 0.070-0.174 0.070s-0.129-0.027-0.174-0.071l0 0c-0.044-0.043-0.072-0.103-0.072-0.17s0.028-0.127 0.072-0.17l0-0zM16.082 27c-0.001 0-0.003 0-0.004 0-0.222 0-0.403-0.179-0.406-0.401v-0c0-0.222 0.183-0.402 0.41-0.402s0.41 0.18 0.41 0.402c-0.003 0.222-0.183 0.401-0.406 0.401-0.001 0-0.003 0-0.004-0h0z"></path>
</svg>
