<!-- Generated by IcoMoon.io -->
<svg version="1.1" xmlns="http://www.w3.org/2000/svg" width="32" height="32" viewBox="0 0 32 32">
<title>klown</title>
<path fill="#ea0017" d="M32 16c0 8.837-7.163 16-16 16s-16-7.163-16-16c0-8.837 7.163-16 16-16s16 7.163 16 16z"></path>
<path fill="#fff" d="M20.717 15.412c0.031 0 0.106 0.032 0.17 0.070 0.176 0.107 0.267 0.322 0.25 0.58-0.010 0.176-0.053 0.296-0.23 0.656-0.12 0.244-0.346 0.653-0.5 0.91-0.266 0.438-0.393 0.668-0.393 0.703 0 0.010 0.18-0.152 0.4-0.36 0.412-0.388 0.701-0.572 0.832-0.53 0.177 0.057 0.23 0.392 0.113 0.728-0.067 0.2-0.247 0.564-0.427 0.871-0.104 0.17-0.113 0.204 0.062 0.104l0.146-0.086c0.364-0.219 0.597-0.243 0.724-0.070 0.14 0.19 0.116 0.769-0.057 1.27-0.039 0.113-0.060 0.215-0.050 0.226 0.011 0.010 0.12-0.025 0.24-0.078 0.124-0.056 0.308-0.12 0.414-0.144 0.356-0.085 0.508 0.067 0.575 0.571 0.060 0.438-0.106 0.802-0.41 0.911-0.052 0.018-0.060 0.010-0.042-0.056 0.014-0.046 0.032-0.127 0.046-0.184 0.018-0.092 0.014-0.095-0.050-0.060-0.102 0.053-0.218 0.265-0.26 0.477-0.127 0.628-0.286 0.938-0.703 1.362-0.459 0.466-0.935 0.78-1.676 1.112-0.346 0.155-0.833 0.462-1.352 0.854l-0.152 0.116-0.3-0.275-0.15-0.132c-0.301-0.254-0.603-0.452-0.845-0.55-0.109-0.041-0.18-0.070-0.25-0.101l0.035 0.014c-0.007-0.007 0.053-0.085 0.134-0.177 0.076-0.088 0.137-0.191 0.178-0.303l0.002-0.007c0.050-0.195 0.077-0.24 0.187-0.304 0.127-0.070 0.332-0.014 0.819 0.23 0.215 0.105 0.398 0.194 0.416 0.194 0.039 0 0.032-0.103-0.018-0.233-0.038-0.106-0.024-0.17 0.138-0.657 0.215-0.642 0.272-0.875 0.23-0.918-0.053-0.053-0.096 0.032-0.343 0.66-0.13 0.329-0.243 0.608-0.25 0.615-0.011 0.010-0.089-0.018-0.177-0.060-0.145-0.071-0.159-0.092-0.141-0.17 0.102-0.41 0.162-1.334 0.099-1.56-0.046-0.159-0.096-0.092-0.138 0.187-0.092 0.593-0.194 1.063-0.236 1.105-0.040 0.039-0.064 0.028-0.142-0.064l-0.091-0.113v-3.316l0.944-1.218c1.253-1.617 1.612-2.083 1.89-2.439 0.155-0.198 0.307-0.36 0.339-0.36zM13.845 20.432c0.335-0.319 0.41-0.347 0.526-0.184 0.088 0.12 0.137 0.402 0.137 0.787v0.317l0.163 0.173 0.066 0.076c0.065 0.080 0.124 0.17 0.145 0.22 0.053 0.131 0.075 0.632 0.032 0.802-0.014 0.056 0.021 0.162 0.117 0.346 0.653 1.25 0.787 1.521 0.77 1.542l-0.022 0.004-0.040-0.003c-0.043-0.008-0.080-0.018-0.117-0.032l0.005 0.002c-0.152-0.048-0.332-0.056-0.97-0.038-0.385 0.010-0.615-0.053-0.636-0.176-0.010-0.050 0.134-0.28 0.438-0.7 0.092-0.126 0.102-0.2 0.050-0.285-0.025-0.042-0.149-0.057-0.6-0.070-0.756-0.025-0.78-0.068-0.248-0.47 0.223-0.17 0.484-0.438 0.515-0.53 0.011-0.035-0.007-0.102-0.038-0.151l-0.060-0.092-0.43 0.025-0.117 0.006c-0.474 0.020-0.56-0.048-0.4-0.271 0.040-0.053 0.060-0.106 0.047-0.12-0.010-0.010-0.22-0.021-0.456-0.021-0.406 0-0.773-0.046-0.836-0.103-0.014-0.014 0.159-0.084 0.388-0.155 0.392-0.12 0.918-0.36 1.158-0.53 0.151-0.125 0.285-0.246 0.415-0.372l-0.002 0.002zM15.152 17.392c0.016 0.010 0.055 0.325 0.097 0.703 0.040 0.377 0.071 0.723 0.071 0.765 0 0.046 0.014 0.082 0.032 0.082 0.017 0 0.123-0.142 0.236-0.318 0.117-0.173 0.22-0.318 0.23-0.318 0.028 0 0.046 0.134 0.14 1.137 0.047 0.462 0.093 0.84 0.103 0.84s0.067-0.198 0.12-0.441c0.057-0.244 0.113-0.442 0.127-0.442 0.021 0 0.992 2.81 0.989 2.866 0 0.078-0.085-0.014-0.424-0.451-0.205-0.269-0.399-0.516-0.43-0.558l-0.064-0.074-0.095 0.106-0.040 0.045c-0.11 0.123-0.199 0.222-0.29 0.32l0.015-0.016-0.222 0.244-0.018-0.12-0.003-0.030c-0.016-0.13-0.061-0.6-0.106-1.107-0.046-0.561-0.095-1.034-0.11-1.052-0.010-0.017-0.144 0.082-0.3 0.223-0.155 0.141-0.296 0.264-0.317 0.268-0.021 0.007-0.025-0.042-0.014-0.124 0.025-0.18 0.265-2.445 0.265-2.513 0-0.028 0.007-0.042 0.017-0.035zM10.622 15.444c0.254-0.032 0.78-0.004 1.024 0.063 0.268 0.067 0.568 0.195 0.808 0.332 0.237 0.141 0.819 0.703 0.907 0.88 0.070 0.14 0.106 0.158-0.321-0.167-0.318-0.238-0.685-0.435-1.079-0.573l-0.029-0.009c-0.198-0.062-0.31-0.078-0.615-0.080l-0.144-0.001c-0.445 0-0.522 0.010-0.777 0.095-1.613 0.547-2.428 2.598-1.584 3.985 0.25 0.416 0.653 0.787 1.196 1.1 0.307 0.18 0.283 0.21-0.095 0.114-0.691-0.176-1.248-0.641-1.544-1.256l-0.006-0.014c-0.194-0.396-0.278-0.763-0.303-1.289-0.035-0.85 0.187-1.525 0.716-2.167 0.42-0.512 1.165-0.918 1.846-1.013zM9.323 18.194c0.053-0.163 0.060-0.152 0.195 0.222 0.285 0.74 0.692 1.374 1.202 1.908l-0.002-0.002c0.123 0.13 0.225 0.247 0.225 0.26 0 0.057-0.278-0.013-0.543-0.133-0.642-0.3-1.020-0.925-1.101-1.84-0.014-0.19-0.010-0.317 0.024-0.416zM12.285 12.924c0.444-0.067 0.466-0.060 0.176 0.074-0.145 0.067-0.286 0.13-0.31 0.148l-0.028 0.017c-0.080 0.058 0.067 0.080 0.575 0.096 0.646 0.018 0.65 0.021 0.596 0.233-0.021 0.085-0.028 0.085-0.42 0.085-0.241 0.003-0.474 0.022-0.702 0.056l0.028-0.003c-0.275 0.050-0.674 0.215-0.674 0.282 0 0.018 0.166 0.053 0.37 0.078 0.629 0.074 1.24 0.24 1.663 0.452 0.166 0.088 0.254 0.2 0.586 0.776 0.893 1.542 1.027 1.761 1.348 2.188 0.41 0.544 0.85 1.038 1.33 1.493l0.438 0.413v0.573c-0.004 0.208-0.017 0.368-0.035 0.38-0.035 0.021-0.014 0.057-0.494-0.759-0.402-0.681-0.777-1.246-1.176-1.791l0.043 0.061c-0.091-0.122-0.187-0.263-0.276-0.409l-0.014-0.024c-0.010-0.032-0.042-0.060-0.067-0.064-0.024 0-0.14-0.113-0.257-0.25-0.332-0.389-1.080-1.063-1.589-1.426-0.292-0.212-0.677-0.473-0.698-0.473-0.007 0-0.131-0.064-0.276-0.145-0.284-0.154-0.615-0.295-0.961-0.405l-0.041-0.011c-0.244-0.067-0.73-0.085-1.041-0.043-0.479 0.087-0.907 0.25-1.292 0.476l0.018-0.010c-0.084 0.055-0.183 0.113-0.286 0.165l-0.018 0.008c-0.025 0-0.335 0.222-0.575 0.417-0.11 0.088-0.198 0.137-0.205 0.116-0.018-0.050 0.279-0.462 0.537-0.755 0.344-0.362 0.722-0.686 1.13-0.969l0.024-0.016c0.73-0.487 1.8-0.918 2.573-1.034zM9.874 17.325c-0.13-0.356-0.127-0.385 0.039-0.29 0.138 0.086 0.25 0.162 0.358 0.241l-0.016-0.011c0.678 0.508 1.221 1.157 1.592 1.907l0.014 0.031c0.152 0.321 0.258 0.621 0.233 0.646l-0.019 0.004-0.033-0.010c-0.17-0.070-0.7-0.5-1.099-0.901-0.504-0.512-0.857-1.038-1.069-1.617zM11.049 16.372c0-0.042 0.378 0.057 0.6 0.159 0.463 0.208 0.802 0.61 0.95 1.112 0.099 0.339 0.127 0.596 0.092 0.861-0.029 0.236-0.025 0.244-0.247-0.254-0.281-0.576-0.629-1.071-1.044-1.502l0.002 0.002c-0.119-0.119-0.234-0.242-0.345-0.369l-0.008-0.009zM16.838 10.478c0.173-0.050 0.17-0.050 0.226 0.035 0.095 0.148 0.268 0.724 0.342 1.144 0.046 0.275 0.078 0.653 0.092 1.104l0.020 0.685-0.172-0.024-0.039-0.006c-0.244-0.040-0.443-0.115-1.765-0.669-0.713-0.3-1.302-0.536-1.313-0.526-0.017 0.018 0.336 0.713 0.572 1.126 0.43 0.749 1.228 1.155 2.15 1.095 0.264-0.018 0.36-0.011 0.44 0.028 0.191 0.102 0.315 0.279 0.431 0.624 0.145 0.424 0.41 0.94 0.636 1.236 0.095 0.127 0.17 0.233 0.17 0.233-0.004 0.003-0.117-0.018-0.255-0.043-0.618-0.127-1.687-0.575-1.976-0.829-0.332-0.293-0.029 0.176 0.324 0.498 0.43 0.395 1.052 0.737 1.761 0.974 0.212 0.070 0.392 0.134 0.396 0.137 0.039 0.036-1.003 1.253-1.066 1.253-0.064 0-0.424-0.215-0.773-0.458-0.385-0.269-1.257-1.126-1.567-1.536-0.854-1.135-1.515-2.471-1.902-3.918l-0.018-0.081-0.11-0.402 0.138-0.141 0.089-0.084c0.525-0.46 1.853-1.070 3.169-1.455zM22.248 9.285c0.082 0.008 0.157 0.033 0.223 0.071l-0.003-0.001c0.057 0.040 0.104 0.088 0.143 0.143l0.001 0.002c0.032 0.046 0.406 1.45 0.83 3.113 0.847 3.314 0.84 3.269 0.649 3.47-0.058 0.058-0.127 0.105-0.204 0.138l-0.004 0.002c-0.163 0.054-2.68 0.6-2.693 0.587 0.015-0.080 0.041-0.151 0.076-0.216l-0.002 0.004c0.18-0.41 0.19-0.79 0.020-1.062-0.116-0.19-0.416-0.37-0.61-0.37-0.113 0-0.148 0.034-0.748 0.81-0.346 0.45-0.642 0.802-0.656 0.788-0.015-0.014-0.336-1.39-0.72-3.053-0.495-2.146-0.689-3.057-0.671-3.13 0.038-0.139 0.124-0.253 0.238-0.328l0.002-0.001c0.152-0.081 3.992-0.981 4.13-0.967zM22.831 13.291c-0.007-0.014-0.134 0.088-0.283 0.23-0.148 0.137-0.451 0.42-0.67 0.628l-0.403 0.377-0.864-0.279c-0.204-0.076-0.501-0.168-0.804-0.25l-0.089-0.021c-0.014 0.003 0.317 0.317 0.741 0.695 0.427 0.378 0.89 0.794 1.034 0.928 0.145 0.13 0.275 0.226 0.29 0.212 0.038-0.039 1.058-2.492 1.048-2.52zM20.717 14.392c0.243 0.081 0.515 0.155 0.603 0.17l0.159 0.020 0.117 0.527c0.063 0.289 0.109 0.533 0.098 0.54-0.007 0.007-0.091-0.064-0.183-0.156-0.223-0.212-0.464-0.433-0.707-0.65l-0.030-0.027c-0.207-0.183-0.394-0.358-0.576-0.538l0.001 0.001c-0.021-0.053 0.063-0.035 0.519 0.113zM12.090 9.991c0.593-0.148 0.829-0.184 0.829-0.124 0 0.018-0.085 0.053-0.184 0.074-0.289 0.071-1.034 0.332-1.404 0.495-0.403 0.176-0.918 0.476-1.112 0.645l-0.141 0.12 0.275 0.065c0.504 0.134 1.43 0.483 1.87 0.712 0.322 0.166 0.731 0.445 0.731 0.501 0 0.014-0.106 0.039-0.236 0.053-0.54 0.053-1.426 0.272-2.058 0.505-0.773 0.29-1.754 0.815-2.354 1.267-0.392 0.296-0.392 0.296-0.254 0.099 0.166-0.24 0.67-0.763 0.977-1.010 0.664-0.526 1.536-0.907 2.46-1.073l0.142-0.024-0.25-0.117-0.125-0.053c-0.547-0.218-1.694-0.5-2.378-0.579-0.097-0.009-0.185-0.028-0.27-0.056l0.009 0.002c-0.092-0.049 1.104-0.691 1.814-0.97 0.44-0.18 0.993-0.362 1.559-0.511l0.1-0.022zM20.56 10.654c-0.264 0.78-0.9 2.75-0.9 2.792 0 0.032-0.014 0.067-0.035 0.078-0.113 0.070 0.018 0.13 0.844 0.402 0.483 0.156 0.903 0.286 0.935 0.286 0.070 0 1.38-1.225 1.38-1.288 0-0.025-0.452-0.515-0.999-1.087-0.338-0.349-0.688-0.719-1.033-1.093l-0.040-0.044c-0.074-0.095-0.127-0.113-0.152-0.046zM15.852 13.602c-0.035-0.1-0.035-0.1 0.078-0.078 0.060 0.014 0.2 0.067 0.307 0.12 0.257 0.123 0.268 0.18 0.035 0.18-0.219 0-0.374-0.081-0.42-0.222zM20.61 10.845c0.017 0.018 0.113 0.395 0.212 0.84l0.183 0.812-0.099 0.095c-0.137 0.134-1.186 0.918-1.2 0.9-0.010-0.007 0.014-0.074 0.053-0.152 0.070-0.137 0.766-2.237 0.801-2.424 0.014-0.057 0.036-0.089 0.050-0.071zM12.834 10.295l-0.028 0.253-0.011 0.101c-0.021 0.212-0.008 0.263 0.053 0.263 0.040 0 0.064 0.074 0.092 0.282 0.060 0.403 0.074 0.802 0.032 0.82-0.021 0.003-0.17-0.071-0.335-0.167-0.341-0.207-0.738-0.404-1.153-0.567l-0.054-0.019c-0.152-0.056-0.276-0.112-0.276-0.123 0-0.074 0.434-0.406 0.696-0.533 0.335-0.162 0.755-0.307 0.896-0.31h0.088zM18.232 8.6c1.235-0.233 1.493-0.254 1.712-0.141 0.074 0.039 0.17 0.117 0.208 0.173 0.088 0.12 0.321 0.604 0.321 0.66 0 0.025-0.198 0.070-0.501 0.12-2.22 0.35-4.041 0.875-5.428 1.57-0.368 0.176-0.682 0.365-0.977 0.581l0.017-0.012c-0.237 0.18-0.212 0.23-0.297-0.572-0.060-0.543-0.060-0.575 0-0.734 0.057-0.148 0.088-0.177 0.297-0.282 0.391-0.187 0.889-0.389 1.4-0.565l0.107-0.032c0.942-0.3 1.884-0.53 3.14-0.766zM14.808 6.217h0.036c0.020 0 0.084 0.1 0.148 0.216 0.3 0.547 0.907 2.238 0.833 2.312-0.046 0.027-0.1 0.046-0.158 0.053l-0.002 0-0.123 0.021-0.18-0.387c-0.36-0.75-1.006-1.772-1.083-1.699-0.010 0.010 0.014 0.113 0.053 0.23 0.18 0.515 0.423 1.669 0.423 1.997 0 0.099-0.017 0.13-0.088 0.163-0.040 0.021-0.087 0.036-0.136 0.042l-0.002 0c-0.020 0-0.137-0.127-0.25-0.282-0.113-0.156-0.219-0.272-0.233-0.258-0.010 0.018-0.046 0.194-0.078 0.395-0.053 0.364-0.106 0.49-0.162 0.4-0.014-0.026-0.046-0.382-0.070-0.795-0.014-0.327-0.036-0.62-0.065-0.911l0.005 0.064c-0.011-0.053-0.004-0.095 0.013-0.095 0.018 0 0.156 0.116 0.304 0.26 0.148 0.142 0.275 0.251 0.282 0.237 0.029-0.053-0.353-1.193-0.593-1.772-0.020-0.049 0.014-0.067 0.216-0.098 0.243-0.043 0.882-0.103 0.946-0.092zM11.935 6.973c0.283-0.18 0.523-0.24 0.681-0.176 0.048 0.017 0.060 0.050 0.061 0.293v0.225c-0.003 0.271-0.012 0.53-0.027 0.789l0.002-0.044-0.025 0.25-0.656-0.017-0.268-0.004c-0.025-0-0.055-0.001-0.085-0.001-0.545 0-1.073 0.075-1.573 0.215l0.041-0.010c-0.223 0.057-0.427 0.11-0.452 0.113-0.025 0.007-0.050-0.014-0.056-0.042-0.022-0.127 0.79-0.706 1.7-1.214 0.273-0.156 0.569-0.325 0.657-0.378zM15.485 6.2l0.213 0.36 0.070 0.12c0.359 0.632 0.858 1.69 0.858 1.828 0 0.060-0.237 0.12-0.279 0.071-0.033-0.054-0.064-0.116-0.089-0.182l-0.003-0.008c-0.318-0.714-0.606-1.279-0.916-1.828l0.056 0.108c-0.067-0.108-0.15-0.255-0.229-0.405l-0.022-0.046c0-0.010 0.077-0.018 0.169-0.018h0.173zM16.135 6.235h0.057c0.13 0 0.53 0.025 0.886 0.053 0.353 0.029 0.68 0.060 0.73 0.071l0.177 0.035c0.11 0.025 0.194 0.16 0.441 0.689 0.162 0.356 0.402 0.988 0.378 1.005-0.611 0.093-1.043 0.172-1.472 0.26l0.198-0.034c-0.46 0.096-0.551 0.096-0.551-0.007 0-0.074-0.558-1.22-0.79-1.623-0.283-0.484-0.283-0.449 0.003-0.449z"></path>
<path fill="#fff" d="M16.785 10.672c0.088 0.215 0.134 0.445 0.18 0.928 0.046 0.516 0.13 1.229 0.18 1.525 0.021 0.152 0.081 0.184 0.081 0.046 0-0.050-0.025-0.244-0.053-0.434-0.026-0.168-0.063-0.498-0.096-0.829l-0.010-0.131c-0.026-0.31-0.059-0.574-0.1-0.835l0.008 0.065c-0.045-0.215-0.127-0.395-0.176-0.395-0.025 0-0.028 0.025-0.014 0.060zM17.544 14.802c0 0.155 0.494 1.291 0.656 1.507 0.11 0.151 0.081 0.014-0.046-0.216-0.165-0.289-0.323-0.63-0.454-0.985l-0.016-0.049c-0.080-0.226-0.14-0.335-0.14-0.257z"></path>
<path fill="#fff" d="M13.368 5.31c0.774-0.197 1.663-0.31 2.579-0.31 2.074 0 4.012 0.58 5.661 1.587l-0.048-0.027c1.56 0.928 2.99 2.389 3.876 3.963 0.96 1.698 1.43 3.455 1.43 5.34 0.003 1.281-0.163 2.312-0.555 3.487-0.403 1.169-0.945 2.182-1.62 3.090l0.021-0.030c-0.578 0.736-1.205 1.386-1.891 1.968l-0.019 0.016c-1.74 1.408-3.755 2.213-6.052 2.407-2.446 0.212-5.15-0.547-7.162-2.008-2.368-1.716-3.935-4.204-4.43-7.024-0.532-3.035 0.294-6.23 2.238-8.647 0.3-0.374 0.985-1.084 1.405-1.454 1.26-1.112 2.894-1.956 4.567-2.358zM16.591 5.875c-0.191-0.013-0.415-0.020-0.64-0.020-0.905 0-1.782 0.117-2.618 0.336l0.072-0.016c-1.246 0.324-2.68 1.023-3.59 1.75l-0.37 0.293c-0.452 0.35-1.437 1.43-1.808 1.984-1.2 1.79-1.775 3.653-1.775 5.735 0 1.673 0.339 3.074 1.119 4.6 0.965 1.861 2.442 3.342 4.244 4.286l0.055 0.026c1.2 0.618 2.541 1.006 3.83 1.108 2.216 0.177 4.291-0.338 6.25-1.549 0.904-0.558 2.061-1.627 2.64-2.435 1.080-1.515 1.677-2.951 1.93-4.66 0.092-0.61 0.096-2.276 0.004-2.816-0.317-1.923-1.115-3.702-2.248-5.015-0.11-0.127-0.247-0.29-0.304-0.357-0.348-0.382-0.718-0.729-1.114-1.044l-0.019-0.015c-1.040-0.797-1.835-1.235-3.028-1.666-0.808-0.289-1.599-0.448-2.63-0.525z"></path>
</svg>
