<!-- Generated by IcoMoon.io -->
<svg version="1.1" xmlns="http://www.w3.org/2000/svg" width="32" height="32" viewBox="0 0 32 32">
<title>kmd</title>
<path fill="#2b6680" d="M16 32c8.837 0 16-7.163 16-16s-7.163-16-16-16-16 7.163-16 16 7.163 16 16 16z"></path>
<path fill="#fff" d="M5 16c0 0.006-0 0.014-0 0.021 0 6.075 4.925 11 11 11 6.068 0 10.988-4.913 11-10.978v-0.086c-0.004-0.894-0.114-1.76-0.317-2.589l0.016 0.076c-0.119-0.535-0.59-0.929-1.153-0.929-0.652 0-1.18 0.528-1.18 1.18 0 0.105 0.014 0.207 0.040 0.304l-0.002-0.008c0.151 0.605 0.238 1.299 0.238 2.013 0 4.774-3.87 8.645-8.645 8.645s-8.645-3.87-8.645-8.645c0-4.774 3.87-8.645 8.645-8.645 0.713 0 1.405 0.086 2.067 0.249l-0.059-0.012c0.075 0.017 0.162 0.027 0.251 0.027 0.652 0 1.18-0.528 1.18-1.18 0-0.546-0.371-1.006-0.876-1.14l-0.008-0.002c-0.767-0.191-1.647-0.3-2.553-0.3-6.074 0-10.999 4.924-10.999 10.999 0 0 0 0.001 0 0.001v-0z"></path>
<path fill="#fff" d="M21.56 7.954c-0.016 0.015-0.026 0.033-0.041 0.049-0.259 0.274-0.43 0.634-0.467 1.033l-0 0.007v0.187c0 0.043-0.009 0.085-0.014 0.128-0.163 1.597-1.5 2.832-3.126 2.832-0.34 0-0.668-0.054-0.974-0.154l0.022 0.006c-0.288-0.073-0.618-0.115-0.958-0.115-1.067 0-2.037 0.413-2.76 1.087l0.002-0.002c-0.040 0.037-0.084 0.069-0.123 0.108-0.737 0.737-1.192 1.754-1.192 2.878 0 2.248 1.822 4.070 4.070 4.070 1.124 0 2.141-0.456 2.878-1.192v0c0.168-0.171 0.321-0.357 0.456-0.555 0.459-0.649 0.733-1.458 0.733-2.33 0-0.334-0.040-0.659-0.116-0.969l0.006 0.028c-0.017-0.051-0.038-0.125-0.056-0.2l-0.004-0.021c0-0.011-0.007-0.021-0.009-0.033-0.051-0.212-0.081-0.456-0.081-0.707 0-1.643 1.261-2.992 2.868-3.131l0.012-0.001c0.023 0 0.046-0.007 0.069-0.007 0.066 0 0.133-0.008 0.199-0.008h0.016c0.423-0.040 0.796-0.226 1.075-0.506l0-0c0.068-0.071 0.131-0.147 0.187-0.228 0.201-0.281 0.321-0.632 0.321-1.011 0-0.968-0.785-1.753-1.753-1.753-0.482 0-0.919 0.195-1.236 0.51l0-0z"></path>
</svg>
