<!-- Generated by IcoMoon.io -->
<svg version="1.1" xmlns="http://www.w3.org/2000/svg" width="32" height="32" viewBox="0 0 32 32">
<title>knc</title>
<path fill="#188c92" d="M32 16c0 8.837-7.163 16-16 16s-16-7.163-16-16c0-8.837 7.163-16 16-16s16 7.163 16 16z"></path>
<path fill="#fff" d="M21.836 21.030c-0.061 0.087-0.098 0.195-0.098 0.312 0 0.091 0.022 0.176 0.061 0.251l-0.001-0.003-5.926 4.638c-0.073-0.058-0.162-0.1-0.259-0.117l-0.004-0.001-0.18-11.416c0.068-0.015 0.128-0.039 0.183-0.072l-0.003 0.002 6.227 6.407zM22.002 20.872l-6.222-6.402c0.067-0.090 0.108-0.203 0.108-0.325 0-0.053-0.008-0.104-0.022-0.152l0.001 0.004 6.326-3.080c0.081 0.098 0.192 0.169 0.319 0.198l0.004 0.001-0.315 9.678c-0.075 0.016-0.141 0.043-0.2 0.081l0.002-0.001zM15.262 26.149l-3.35-4.503c0.096-0.099 0.155-0.233 0.155-0.382v-0c-0.005-0.296-0.235-0.537-0.526-0.56l-0.002-0-1.046-9.467c0.252-0.059 0.438-0.28 0.441-0.546v-0c-0-0.136-0.050-0.26-0.132-0.356l0.001 0.001 4.205-4.513c0.054 0.030 0.114 0.053 0.178 0.066v7.704c-0.265 0.049-0.463 0.276-0.467 0.551v0c0.005 0.278 0.207 0.507 0.473 0.553l0.003 0 0.18 11.416c-0.043 0.009-0.080 0.022-0.116 0.038l0.004-0.002zM15.42 13.593v-7.703c0.106-0.021 0.198-0.069 0.274-0.135l-0.001 0.001 6.427 4.575c-0.035 0.069-0.055 0.151-0.055 0.238 0 0.053 0.008 0.104 0.022 0.152l-0.001-0.004-6.325 3.080c-0.085-0.103-0.203-0.175-0.337-0.202l-0.004-0.001zM15.303 5c0.193 0 0.35 0.151 0.35 0.337-0.003 0.187-0.156 0.338-0.344 0.338-0.002 0-0.004-0-0.006-0h0c-0.002 0-0.004 0-0.006 0-0.188 0-0.341-0.151-0.344-0.338v-0c0-0.186 0.156-0.337 0.35-0.337zM10.35 10.354c0.194 0 0.35 0.15 0.35 0.337-0.003 0.187-0.156 0.338-0.344 0.338-0.002 0-0.004-0-0.006-0h0c-0.002 0-0.004 0-0.006 0-0.188 0-0.341-0.151-0.344-0.338v-0c0-0.186 0.157-0.337 0.35-0.337zM11.483 20.926c0.194 0 0.35 0.151 0.35 0.338-0.004 0.187-0.156 0.337-0.344 0.337-0.002 0-0.004-0-0.006-0h0c-0.002 0-0.004 0-0.006 0-0.188 0-0.34-0.15-0.344-0.337v-0c0-0.187 0.157-0.338 0.35-0.338zM22.65 10.23c0.193 0 0.35 0.151 0.35 0.337-0.003 0.187-0.156 0.338-0.344 0.338-0.002 0-0.004-0-0.006-0h0c-0.002 0-0.004 0-0.006 0-0.188 0-0.341-0.151-0.344-0.338v-0c0-0.186 0.156-0.337 0.35-0.337zM15.303 13.807c0.193 0 0.35 0.15 0.35 0.337-0.003 0.187-0.156 0.338-0.344 0.338-0.002 0-0.004-0-0.006-0h0c-0.002 0-0.004 0-0.006 0-0.188 0-0.341-0.151-0.344-0.338v-0c0-0.186 0.156-0.337 0.35-0.337zM15.501 26.325c0.194 0 0.35 0.151 0.35 0.338-0.004 0.187-0.156 0.337-0.344 0.337-0.002 0-0.004-0-0.006-0h0c-0.002 0-0.004 0-0.006 0-0.188 0-0.34-0.15-0.344-0.337v-0c0-0.187 0.157-0.338 0.35-0.338zM22.323 21.005c0.193 0 0.35 0.151 0.35 0.338-0.004 0.187-0.156 0.337-0.344 0.337-0.002 0-0.004-0-0.006-0h0c-0.002 0-0.004 0-0.006 0-0.188 0-0.34-0.15-0.344-0.337v-0c0-0.187 0.156-0.338 0.35-0.338z"></path>
</svg>
