<!-- Generated by IcoMoon.io -->
<svg version="1.1" xmlns="http://www.w3.org/2000/svg" width="32" height="32" viewBox="0 0 32 32">
<title>krb</title>
<path fill="#00aeef" d="M32 16c0 8.837-7.163 16-16 16s-16-7.163-16-16c0-8.837 7.163-16 16-16s16 7.163 16 16z"></path>
<path fill="#fff" d="M15.76 14.706c0.238-0.041 0.448-0.13 0.632-0.265s0.358-0.363 0.521-0.675l3.625-6.987c0.142-0.234 0.316-0.42 0.516-0.566 0.191-0.133 0.427-0.213 0.683-0.213 0.006 0 0.012 0 0.018 0h2.298l-4.514 8.218c-0.2 0.338-0.427 0.613-0.68 0.826-0.242 0.202-0.524 0.366-0.832 0.477l-0.019 0.006c0.484 0.125 0.889 0.328 1.22 0.613 0.326 0.28 0.637 0.676 0.926 1.185l4.346 8.675h-2.53c-0.511 0-0.922-0.275-1.232-0.82l-3.562-7.351c-0.184-0.328-0.384-0.561-0.6-0.702-0.215-0.14-0.489-0.223-0.815-0.244v3.73h-1.989v-3.746h-1.462v9.133h-2.81v-20h2.81v8.738h1.462v-4.322h1.989v4.29z"></path>
</svg>
