<!-- Generated by IcoMoon.io -->
<svg version="1.1" xmlns="http://www.w3.org/2000/svg" width="32" height="32" viewBox="0 0 32 32">
<title>lbc</title>
<path fill="#006149" d="M32 16c0 8.837-7.163 16-16 16s-16-7.163-16-16c0-8.837 7.163-16 16-16s16 7.163 16 16z"></path>
<path fill="#fff" d="M24.176 17.184l-0.797-0.199 0.242-0.97 2.485 0.621-0.62 2.485-0.971-0.242 0.215-0.862-8.872 5.493-9.839-4.916v-3.752l10.224-6.394 9.375 4.573v1.544l-9.759 6.063-7.247-3.593 0.444-0.896 6.749 3.346 8.813-5.476v-0.363l-8.315-4.056-9.283 5.806v2.58l8.787 4.39z"></path>
</svg>
