<!-- Generated by IcoMoon.io -->
<svg version="1.1" xmlns="http://www.w3.org/2000/svg" width="32" height="32" viewBox="0 0 32 32">
<title>link</title>
<path fill="#01a6fb" d="M32 16c0 8.837-7.163 16-16 16s-16-7.163-16-16c0-8.837 7.163-16 16-16s16 7.163 16 16z"></path>
<path fill="#fff" d="M15 18.618l-0.001-0.001c-0.306-0.275-0.499-0.673-0.499-1.117 0-0.828 0.672-1.5 1.5-1.5s1.5 0.672 1.5 1.5c0 0.444-0.193 0.842-0.5 1.118v2.382c0 0.552-0.448 1-1 1s-1-0.448-1-1v-2.382zM10 14v0c-0.552 0-1 0.448-1 1v8c0 0.552 0.448 1 1 1h12c0.552 0 1-0.448 1-1v-8c0-0.552-0.448-1-1-1v-2c0-3.314-2.686-6-6-6s-6 2.686-6 6v2zM22 14h-9.5v-1.9c0-1.988 1.567-3.6 3.5-3.6s3.5 1.612 3.5 3.6v1.9h-3.5z"></path>
</svg>
