<!-- Generated by IcoMoon.io -->
<svg version="1.1" xmlns="http://www.w3.org/2000/svg" width="32" height="32" viewBox="0 0 32 32">
<title>loom</title>
<path fill="#48beff" d="M32 16c0 8.837-7.163 16-16 16s-16-7.163-16-16c0-8.837 7.163-16 16-16s16 7.163 16 16z"></path>
<path fill="#fff" d="M22.194 26.239l-16.384-11.495c-1.099-0.778-1.808-2.045-1.808-3.476s0.709-2.698 1.794-3.468l0.013-0.009 3.97-2.791 16.386 11.494c1.099 0.778 1.808 2.045 1.808 3.477s-0.709 2.698-1.794 3.468l-0.013 0.009-3.972 2.792zM9.776 6.863l-3.093 2.164c-0.708 0.5-1.165 1.315-1.165 2.236s0.457 1.737 1.157 2.231l0.009 0.006 15.514 10.877 3.094-2.164c0.708-0.5 1.165-1.315 1.165-2.236s-0.457-1.737-1.157-2.231l-0.009-0.006-15.515-10.877z"></path>
<path fill="#fff" d="M9.763 24.377l-3.090-2.167c-0.708-0.5-1.165-1.315-1.165-2.236s0.457-1.737 1.157-2.231l0.009-0.006 8-5.583-1.32-0.928-7.544 5.268c-1.099 0.778-1.808 2.045-1.808 3.477s0.709 2.698 1.794 3.468l0.013 0.009 3.957 2.779 4.897-3.429-1.314-0.926-3.586 2.506zM26.17 7.797l-3.96-2.777-4.9 3.429 1.314 0.925 3.58-2.505 3.090 2.167c0.708 0.5 1.165 1.315 1.165 2.236s-0.457 1.737-1.157 2.231l-0.009 0.006-8 5.582 1.315 0.926 7.554-5.277c1.099-0.778 1.808-2.045 1.808-3.476s-0.709-2.698-1.794-3.468l-0.013-0.009 0.008 0.010z"></path>
<path fill="#fff" d="M6.746 15.829l6.23-4.362 0.868 1.24-6.231 4.362zM24.496 14.071l-3.035 2.125 0.868 1.241 3.142-2.204c-0.334-0.382-0.657-0.772-0.981-1.163l0.006 0.001z"></path>
</svg>
