<!-- Generated by IcoMoon.io -->
<svg version="1.1" xmlns="http://www.w3.org/2000/svg" width="32" height="32" viewBox="0 0 32 32">
<title>lsk</title>
<path fill="#0d4ea0" d="M32 16c0 8.837-7.163 16-16 16s-16-7.163-16-16c0-8.837 7.163-16 16-16s16 7.163 16 16z"></path>
<path fill="#fff" d="M14.249 24.958c-0.014 0.014-0.042 0.028-0.056 0.042h-1.552c-0.028 0-0.042-0.014-0.056-0.028l-4.575-5.168c-0.006-0.012-0.010-0.026-0.010-0.041s0.004-0.029 0.010-0.042l-0 0 5.698-9.835c0.028-0.041 0.097-0.041 0.125 0l1.594 2.758c0.014 0.014 0.014 0.042 0 0.070l-3.854 6.645c-0.014 0.027 0 0.055 0.014 0.083l2.301 2.591c0.015 0.014 0.034 0.024 0.055 0.028l0.001 0h2.717c0.070 0 0.097 0.070 0.055 0.111zM15.939 6.042c0.029-0.056 0.098-0.056 0.112 0l7.943 13.65c0.014 0.029 0 0.057-0.014 0.084l-4.574 5.168c-0.015 0.014-0.034 0.024-0.055 0.028l-0.001 0h-3.715c-0.070 0-0.097-0.070-0.055-0.111l2.481-2.814 2.329-2.619c0.028-0.028 0.028-0.056 0.014-0.083l-6.072-10.476c-0.014-0.013-0.014-0.041 0-0.070z"></path>
</svg>
