<!-- Generated by IcoMoon.io -->
<svg version="1.1" xmlns="http://www.w3.org/2000/svg" width="32" height="32" viewBox="0 0 32 32">
<title>lun</title>
<path fill="#f55749" d="M32 16c0 8.837-7.163 16-16 16s-16-7.163-16-16c0-8.837 7.163-16 16-16s16 7.163 16 16z"></path>
<path fill="#fff" d="M15.813 6.048c0.054-0.030 0.118-0.048 0.186-0.048s0.132 0.018 0.188 0.049l-0.002-0.001 8.225 4.618c0.111 0.062 0.186 0.179 0.186 0.314v0c0 0.13-0.070 0.25-0.185 0.314l-7.155 4.034c-0.246-0.279-0.583-0.474-0.963-0.539l-0.010-0.001v-2.193c0.775-0.129 1.366-0.785 1.366-1.578 0-0.885-0.736-1.603-1.645-1.603s-1.645 0.718-1.645 1.603c0 0.788 0.585 1.442 1.354 1.576v2.198c-0.385 0.068-0.716 0.261-0.958 0.534l-0.002 0.002-7.154-4.017c-0.112-0.062-0.187-0.179-0.187-0.314s0.074-0.252 0.184-0.313l0.002-0.001 8.216-4.631zM24.434 11.868c0.054-0.031 0.118-0.049 0.187-0.049s0.132 0.018 0.187 0.049l-0.002-0.001c0.111 0.062 0.186 0.179 0.187 0.314v0l0.007 8.966c0 0.13-0.070 0.249-0.186 0.314l-7.965 4.49c-0.247 0.14-0.557-0.035-0.557-0.314l-0.007-7.693c0.386-0.064 0.736-0.261 0.987-0.555l1.99 1.115c-0.034 0.121-0.053 0.26-0.053 0.404 0 0.079 0.006 0.157 0.017 0.233l-0.001-0.009c0.126 0.877 0.959 1.487 1.858 1.364 0.9-0.124 1.526-0.935 1.4-1.812s-0.96-1.487-1.859-1.363c-0.465 0.064-0.862 0.314-1.119 0.672l-0.003 0.005-1.95-1.093c0.14-0.371 0.13-0.78-0.025-1.145l6.908-3.894zM7.008 12.18c0-0.212 0.178-0.363 0.372-0.363 0.065 0 0.13 0.017 0.186 0.050l6.915 3.898c-0.153 0.364-0.161 0.77-0.023 1.14l-1.949 1.093c-0.26-0.363-0.657-0.613-1.113-0.676l-0.009-0.001c-0.9-0.124-1.731 0.487-1.858 1.363s0.5 1.687 1.4 1.811 1.73-0.487 1.858-1.363c0.010-0.068 0.016-0.145 0.016-0.225 0-0.144-0.019-0.283-0.056-0.415l0.003 0.011 1.989-1.115c0.249 0.292 0.595 0.488 0.977 0.554l-0.006 7.695c0 0.279-0.31 0.453-0.558 0.313l-7.966-4.49c-0.111-0.062-0.186-0.179-0.186-0.314v-0l0.008-8.966z"></path>
</svg>
