<!-- Generated by IcoMoon.io -->
<svg version="1.1" xmlns="http://www.w3.org/2000/svg" width="32" height="32" viewBox="0 0 32 32">
<title>maid</title>
<path fill="#5592d7" d="M32 16c0 8.837-7.163 16-16 16s-16-7.163-16-16c0-8.837 7.163-16 16-16s16 7.163 16 16z"></path>
<path fill="#fff" d="M20.246 12.667v12.973l-10.956-6.307c-3.24-1.897-3.034-3.077-3.034-5.64l11.263 6.512v-5.949l2.726-1.59z"></path>
<path fill="#fff" opacity="0.6" d="M17.52 20.205l-11.263-6.513 10.954-6.307c3.24-1.847 4.166-1.077 6.429 0.205l-11.263 6.513 5.143 2.974v3.128z"></path>
<path fill="#fff" opacity="0.2" d="M12.377 14.103l11.263-6.513v12.615c0 3.744-1.131 4.154-3.394 5.436v-12.974l-5.196 2.973-2.674-1.538z"></path>
</svg>
