<!-- Generated by IcoMoon.io -->
<svg version="1.1" xmlns="http://www.w3.org/2000/svg" width="32" height="32" viewBox="0 0 32 32">
<title>mana</title>
<path fill="#bfb5af" d="M32 16c0 8.837-7.163 16-16 16s-16-7.163-16-16c0-8.837 7.163-16 16-16s16 7.163 16 16z"></path>
<path fill="#fff" d="M16 5c6.061 0 11 4.939 11 11s-4.939 11-11 11-11-4.939-11-11 4.939-11 11-11zM24.855 14.889l1.265 1.43v-0.319c0-5.577-4.543-10.12-10.12-10.12-5.533 0-10.054 4.466-10.12 9.988l0.517-0.011 1.683-2.948h2.31l0.946 3.102 1.881-0.484 0.979 0.539 1.221-1.54 0.869 0.506 0.88 0.319 0.539-0.275 0.055-0.055c-1.573-0.451-2.739-1.903-2.739-3.619 0-2.068 1.694-3.74 3.762-3.74 2.072 0.003 3.751 1.683 3.751 3.756 0 0.638-0.159 1.238-0.439 1.764l0.010-0.020h0.44l1.364 1.892 0.946-0.165zM16 26.12c0.003 0 0.007 0 0.011 0 1.284 0 2.513-0.238 3.644-0.672l-0.070 0.023c-0.704-0.209-1.584-0.385-2.442-0.561-0.473-0.099-0.968-0.198-1.43-0.297-0.242-0.063-0.643-0.147-1.048-0.221l-0.14-0.021c-1.287-0.242-2.134-0.407-2.266-1.056-0.11-0.539 0.319-1.056 1.562-1.914 0.594-0.396 0.66-0.627 0.649-0.671 0-0.022-0.198-0.55-3.124-0.869l-0.341-0.033c-0.022 0.462-0.528 0.792-1.221 0.792-0.715 0-1.232-0.352-1.232-0.836 0-0.022 0-0.044 0.022-0.11-0.053-0.007-0.115-0.011-0.178-0.011-0.011 0-0.022 0-0.033 0l0.002-0c-0.112 0.028-0.241 0.044-0.373 0.044-0.012 0-0.024-0-0.035-0l0.002 0c-0.17 0.002-0.341-0.020-0.506-0.066-0.308 0-0.616-0.011-0.902-0.011 1.463 3.795 5.148 6.49 9.449 6.49zM20.708 24.954c2.794-1.474 4.807-4.202 5.291-7.414l-1.485-1.683-1.012 0.176-1.43-1.969h-0.165l-0.66 0.528-0.825-1.111-1.375 1.463c0.033-0.022 0.077-0.033 0.11-0.044 0.495-0.154 0.88-0.385 1.012-0.836 0.121 0.407 0.484 0.638 0.902 0.792 0.055 0.022 0.11 0.033 0.165 0.055h0.011c0.836 0.319 1.419 0.979 1.474 1.76 0.121 0.165 0.297 0.297 0.495 0.396 0.132 0.044 0.275 0.088 0.396 0.154 0.022 0 0.033 0.011 0.044 0.011h-0.011c0.715 0.363 1.199 1.001 1.199 1.738 0 0.275-0.165 0.825-1.419 1.034-0.395 0.067-0.692 0.405-0.693 0.814v1.012c0 0.253-0.22 0.462-0.484 0.44-0.231-0.022-0.396-0.231-0.396-0.462v-0.99c-0.001-0.409-0.298-0.747-0.688-0.813l-0.005-0.001c-0.204-0.031-0.386-0.077-0.56-0.138l0.021 0.006v1.727c0 0.33-0.242 1.111-2.552 1.111-2.299 0-2.552-0.781-2.552-1.111 0-0.913 0.737-1.683 1.76-1.958 0.396-0.154 0.704-0.374 0.814-0.759 0.143 0.473 0.594 0.704 1.078 0.858h-0.011c0.22 0.077 0.418 0.187 0.594 0.308v-1.43c-0.001-0.409-0.298-0.747-0.688-0.813l-0.005-0.001c-1.254-0.209-1.419-0.77-1.419-1.034s0.066-0.517 0.176-0.748l-0.572 0.297-1.32-0.484-0.286-0.165-2.442 3.091-0.693-0.55 1.144-1.441-0.539-0.297-2.354 0.605-1.001-3.289h-1.155l-1.672 2.926-1.012 0.033c0.055 0.673 0.172 1.34 0.352 1.991h0.506c0.044-0.187 0.209-0.682 0.781-2.354l0.418-1.221 0.385 1.243c0.341 0.99 0.539 1.562 0.649 1.914 0.099-0.286 0.209-0.616 0.352-1.023l0.418-1.221 0.418 1.221c0.253 0.748 0.429 1.265 0.55 1.628 0.242 0.022 0.473 0.044 0.693 0.066 2.442 0.264 3.641 0.726 3.872 1.485 0.253 0.814-0.682 1.452-0.99 1.661-0.858 0.583-1.1 0.869-1.177 0.99 0.231 0.132 0.946 0.275 1.54 0.385 0.374 0.066 0.792 0.143 1.221 0.242 0.462 0.099 0.946 0.198 1.408 0.286 1.32 0.264 2.574 0.506 3.399 0.913zM19.74 21.533c-0.044-0.616-0.792-1.122-1.672-1.122s-1.628 0.506-1.672 1.122c0.154 0.11 0.726 0.286 1.672 0.286s1.518-0.176 1.672-0.286zM22.303 17.782c-0.88 0-1.628 0.506-1.672 1.122 0.154 0.11 0.737 0.286 1.672 0.286s1.518-0.176 1.672-0.286c-0.044-0.616-0.792-1.122-1.672-1.122zM21.852 16.704c-0.044-0.616-0.792-1.122-1.672-1.122s-1.628 0.506-1.672 1.122c0.154 0.11 0.737 0.286 1.672 0.286s1.518-0.176 1.672-0.286zM21.181 12.975c0.295-0.439 0.471-0.98 0.473-1.562v-0c-0.001-1.585-1.286-2.87-2.871-2.871h-0c-0.005-0-0.010-0-0.015-0-1.587 0-2.873 1.286-2.873 2.873 0 1.484 1.125 2.705 2.568 2.857l0.012 0.001 2.046-2.189 0.66 0.891zM9.499 19.696c0.194 0.059 0.4 0.059 0.594 0l-0.297-0.891-0.297 0.891zM7.684 18.761c0.187 0 0.374 0.011 0.572 0.011-0.055-0.198-0.165-0.517-0.286-0.869-0.121 0.341-0.22 0.66-0.286 0.858zM11.908 12.854c-1.409-0.001-2.551-1.143-2.552-2.552v-0c0.001-1.409 1.143-2.551 2.552-2.552h0c1.409 0.001 2.551 1.143 2.552 2.552v0c-0.005 1.408-1.144 2.547-2.552 2.552h-0zM11.908 8.63c-0.923 0-1.672 0.749-1.672 1.672s0.749 1.672 1.672 1.672c0.923 0 1.672-0.749 1.672-1.672v0c0-0.924-0.759-1.672-1.672-1.672z"></path>
</svg>
