<!-- Generated by IcoMoon.io -->
<svg version="1.1" xmlns="http://www.w3.org/2000/svg" width="32" height="32" viewBox="0 0 32 32">
<title>matic</title>
<path fill="#2b6def" d="M16 32c8.837 0 16-7.163 16-16s-7.163-16-16-16-16 7.163-16 16 7.163 16 16 16z"></path>
<path fill="#fff" d="M22.667 8l-3.333 1.92v3.84l-0.012 0.002-9.989-5.761-3.334 1.919v11.937l3.332 1.921 0.002-0.015v0.014l3.333-1.92v-4.253l3.331 1.919 3.338-1.911v4.247l3.318 1.912v0.010l0.008-0.005 0.006 0.003 0.005-0.009 3.313-1.909v-11.93l0.015-0.009-3.333-1.921z"></path>
</svg>
