<!-- Generated by IcoMoon.io -->
<svg version="1.1" xmlns="http://www.w3.org/2000/svg" width="32" height="32" viewBox="0 0 32 32">
<title>mcap</title>
<path fill="#033b4a" d="M32 16c0 8.837-7.163 16-16 16s-16-7.163-16-16c0-8.837 7.163-16 16-16s16 7.163 16 16z"></path>
<path fill="#fff" d="M15.532 7.064c0.557-0.163 1.148 0.003 1.629 0.294-0.146 0.015 1.967 1.222 4.090 2.412l2.374 1.223c0.833 0.441 1.387 1.346 1.375 2.28-0.002 3.094-0.010 6.19-0.005 9.284 0.034 0.215-0.112 0.46-0.356 0.438-0.961 0.006-1.922 0.002-2.883 0.001-0.21 0.031-0.412-0.145-0.39-0.358-0.092-2.635-0.057-5.273-0.030-7.91 0-0.33-0.064-0.678-0.277-0.945-0.216-0.283-0.557-0.428-0.862-0.596-0.5-0.262-0.971-0.579-1.489-0.808-0.196-0.078-0.451-0.162-0.636-0.013-0.205 0.193-0.203 0.498-0.224 0.758-0.020 0.64-0.031 1.393-0.031 2.148 0 0.609 0.007 1.216 0.022 1.822l-0.002-0.090c-0.001 0.306 0.009 0.662-0.225 0.9-0.239 0.234-0.6 0.238-0.914 0.243-0.568-0.006-1.136 0.015-1.702-0.013-0.24-0.026-0.528-0.040-0.684-0.25-0.14-0.207-0.134-0.468-0.146-0.706-0.003-1.359 0.014-2.719 0-4.077-0.014-0.24-0.010-0.51-0.18-0.7-0.163-0.168-0.423-0.113-0.619-0.042-0.425 0.166-0.806 0.42-1.209 0.63-0.403 0.232-0.836 0.43-1.182 0.746-0.225 0.205-0.285 0.517-0.292 0.805-0.005 2.67 0.003 5.338-0.020 8.008 0.023 0.202-0.097 0.448-0.333 0.444-0.99 0.012-1.98 0.005-2.97 0.003-0.198 0.019-0.38-0.155-0.36-0.352 0.040-3.245 0.015-6.491 0.018-9.737-0-0.015-0.001-0.033-0.001-0.051 0-0.694 0.383-1.299 0.948-1.615l0.009-0.005c2.255-1.264 4.514-2.52 6.76-3.799 0.254-0.144 0.51-0.295 0.796-0.373z"></path>
</svg>
