<!-- Generated by IcoMoon.io -->
<svg version="1.1" xmlns="http://www.w3.org/2000/svg" width="32" height="32" viewBox="0 0 32 32">
<title>mda</title>
<path fill="#01a64f" d="M32 16c0 8.837-7.163 16-16 16s-16-7.163-16-16c0-8.837 7.163-16 16-16s16 7.163 16 16z"></path>
<path fill="#fff" d="M20.663 7.992c1.216 1.3 1.837 2.932 1.837 4.84 0 1.937-0.621 3.57-1.838 4.87-0.973 1.023-2.135 1.631-3.486 1.853v1.134h2.756v1.245h-2.784v0.664h2.784v1.161h-2.756v2.241h-2.352v-2.24h-2.73v-1.162h2.757v-0.664h-2.756v-1.245h2.73v-1.162c-1.325-0.221-2.487-0.83-3.46-1.853-1.243-1.3-1.865-2.933-1.865-4.869 0-1.964 0.595-3.596 1.838-4.869 1.242-1.3 2.784-1.936 4.676-1.936 1.865 0 3.405 0.636 4.649 1.992zM18.122 15.378c0.513-0.664 0.784-1.522 0.784-2.573 0-1.023-0.27-1.88-0.838-2.545-0.54-0.691-1.243-1.023-2.054-1.023-0.838 0-1.54 0.332-2.081 0.996s-0.812 1.493-0.812 2.545c0 1.078 0.271 1.936 0.812 2.6s1.243 0.996 2.080 0.996c0.866 0 1.595-0.332 2.109-0.996z"></path>
</svg>
