<!-- Generated by IcoMoon.io -->
<svg version="1.1" xmlns="http://www.w3.org/2000/svg" width="32" height="32" viewBox="0 0 32 32">
<title>mds</title>
<path fill="#1e252c" d="M16 32c-8.837 0-16-7.163-16-16s7.163-16 16-16 16 7.163 16 16-7.163 16-16 16zM14.22 15.589c0.832 0 1.507-0.675 1.507-1.507s-0.675-1.507-1.507-1.507v0c-0.832 0-1.507 0.675-1.507 1.507s0.675 1.507 1.507 1.507v0zM17.918 15.589c0.832 0 1.507-0.675 1.507-1.507s-0.675-1.507-1.507-1.507v0c-0.832 0-1.507 0.675-1.507 1.507s0.675 1.507 1.507 1.507v0zM14.219 19.288c0.832 0 1.507-0.675 1.507-1.507s-0.675-1.507-1.507-1.507v0c-0.832 0-1.507 0.675-1.507 1.507s0.675 1.507 1.507 1.507v0zM17.918 19.288c0.832 0 1.507-0.675 1.507-1.507s-0.675-1.507-1.507-1.507v0c-0.832 0-1.507 0.675-1.507 1.507s0.675 1.507 1.507 1.507v0zM21.616 15.178c0.605 0 1.096-0.491 1.096-1.096s-0.491-1.096-1.096-1.096v0c-0.605 0-1.096 0.491-1.096 1.096s0.491 1.096 1.096 1.096v0zM21.616 18.877c0.605 0 1.096-0.491 1.096-1.096s-0.491-1.096-1.096-1.096v0c-0.605 0-1.096 0.491-1.096 1.096s0.491 1.096 1.096 1.096v0zM10.384 15.178c0.605 0 1.096-0.491 1.096-1.096s-0.491-1.096-1.096-1.096v0c-0.605 0-1.096 0.491-1.096 1.096s0.491 1.096 1.096 1.096v0zM10.384 18.877c0.605 0 1.096-0.491 1.096-1.096s-0.491-1.096-1.096-1.096v0c-0.605 0-1.096 0.491-1.096 1.096s0.491 1.096 1.096 1.096v0zM14.219 22.575c0.010 0 0.021 0 0.033 0 0.605 0 1.096-0.491 1.096-1.096s-0.491-1.096-1.096-1.096c-0.012 0-0.023 0-0.035 0.001l0.002-0c-0.591 0.018-1.063 0.502-1.063 1.096s0.472 1.077 1.061 1.095l0.002 0zM17.918 22.575c0.010 0 0.021 0 0.033 0 0.605 0 1.096-0.491 1.096-1.096s-0.491-1.096-1.096-1.096c-0.012 0-0.023 0-0.035 0.001l0.002-0c-0.591 0.018-1.063 0.502-1.063 1.096s0.472 1.077 1.061 1.095l0.002 0zM14.219 11.48c0.010 0 0.021 0.001 0.033 0.001 0.605 0 1.096-0.491 1.096-1.096s-0.491-1.096-1.096-1.096c-0.012 0-0.023 0-0.035 0.001l0.002-0c-0.591 0.018-1.063 0.502-1.063 1.095s0.472 1.077 1.061 1.095l0.002 0zM17.918 11.48c0.010 0 0.021 0.001 0.033 0.001 0.605 0 1.096-0.491 1.096-1.096s-0.491-1.096-1.096-1.096c-0.012 0-0.023 0-0.035 0.001l0.002-0c-0.591 0.018-1.063 0.502-1.063 1.095s0.472 1.077 1.061 1.095l0.002 0zM14.219 7.37c0.008 0 0.017 0 0.026 0 0.378 0 0.685-0.307 0.685-0.685s-0.307-0.685-0.685-0.685c-0.009 0-0.018 0-0.027 0.001l0.001-0c-0.378 0-0.685 0.307-0.685 0.685s0.307 0.685 0.685 0.685v0zM17.918 7.37c0.008 0 0.017 0 0.026 0 0.378 0 0.685-0.307 0.685-0.685s-0.307-0.685-0.685-0.685c-0.009 0-0.018 0-0.027 0.001l0.001-0c-0.378 0-0.685 0.307-0.685 0.685s0.307 0.685 0.685 0.685v0zM25.315 14.768c0.378 0 0.685-0.307 0.685-0.685s-0.307-0.685-0.685-0.685v0c-0.378 0-0.685 0.307-0.685 0.685s0.307 0.685 0.685 0.685v0zM25.315 18.467c0.378 0 0.685-0.307 0.685-0.685s-0.307-0.685-0.685-0.685v0c-0.378 0-0.685 0.307-0.685 0.685s0.307 0.685 0.685 0.685v0zM6.685 14.768c0.378 0 0.685-0.307 0.685-0.685s-0.307-0.685-0.685-0.685v0c-0.378 0-0.685 0.307-0.685 0.685s0.307 0.685 0.685 0.685v0zM6.685 18.467c0.378 0 0.685-0.307 0.685-0.685s-0.307-0.685-0.685-0.685v0c-0.378 0-0.685 0.307-0.685 0.685s0.307 0.685 0.685 0.685v0zM14.219 26c0.378 0 0.685-0.307 0.685-0.685s-0.307-0.685-0.685-0.685v0c-0.378 0-0.685 0.307-0.685 0.685s0.307 0.685 0.685 0.685v0zM17.918 26c0.378 0 0.685-0.307 0.685-0.685s-0.307-0.685-0.685-0.685v0c-0.378 0-0.685 0.307-0.685 0.685s0.307 0.685 0.685 0.685v0z"></path>
</svg>
