<!-- Generated by IcoMoon.io -->
<svg version="1.1" xmlns="http://www.w3.org/2000/svg" width="32" height="32" viewBox="0 0 32 32">
<title>med</title>
<path fill="#00b0ff" d="M32 16c0 8.837-7.163 16-16 16s-16-7.163-16-16c0-8.837 7.163-16 16-16s16 7.163 16 16z"></path>
<path fill="#fff" d="M24 12.061v8.915l-2.536 1.48v-5.95l-5.464 3.27-5.464-3.273v5.953l-2.536-1.48v-8.916l8 4.805 8-4.805zM16.030 23.178l2.34-1.399 2.31 1.399-4.65 2.822-4.648-2.822 2.31-1.399 2.339 1.399zM20.65 8.822l-2.311 1.399-2.339-1.399-2.339 1.399-2.31-1.399 4.649-2.822 4.65 2.822z"></path>
</svg>
