<!-- Generated by IcoMoon.io -->
<svg version="1.1" xmlns="http://www.w3.org/2000/svg" width="32" height="32" viewBox="0 0 32 32">
<title>meetone</title>
<path fill="#000" d="M32 16c0 8.837-7.163 16-16 16s-16-7.163-16-16c0-8.837 7.163-16 16-16s16 7.163 16 16z"></path>
<path fill="#fff" opacity="0.703" d="M8.673 22.007l6.956 4.376h0.842l6.844-4.376-1.066-0.841-6.227 3.983-6.451-3.983zM12.039 11.854l3.927-5.947 4.039 6.003 0.954-0.842-4.488-6.731s-0.393-0.505-1.010 0l-4.6 6.9 1.178 0.617z"></path>
<path fill="#fff" d="M16.078 23.859c0.224-0.786 0.505-1.515 0.73-2.3 1.010-3.142 2.019-6.34 3.029-9.481 0.056-0.168 0.112-0.393 0.168-0.56 0.112-0.338 0.28-0.506 0.617-0.506 0.005-0 0.010-0 0.016-0 0.3 0 0.549 0.216 0.6 0.502l0.001 0.004c0.28 1.122 0.505 2.3 0.785 3.422 0.505 2.132 0.954 4.32 1.459 6.451 0.112 0.505-0.056 0.842-0.449 0.954s-0.673-0.168-0.785-0.673c-0.561-2.412-1.122-4.825-1.627-7.293 0-0.112-0.056-0.168-0.112-0.337-0.055 0.18-0.112 0.329-0.179 0.473l0.010-0.023c-1.065 3.253-2.075 6.507-3.141 9.76-0.168 0.617-0.393 1.178-0.561 1.795-0.112 0.393-0.337 0.561-0.673 0.561s-0.561-0.168-0.673-0.56c-1.234-3.871-2.469-7.742-3.647-11.613-0.056-0.112-0.056-0.168-0.112-0.393-0.14 0.726-0.257 1.236-0.385 1.742l0.049-0.227c-0.45 2.020-0.898 4.095-1.347 6.115-0.112 0.56-0.56 0.841-1.010 0.56-0.28-0.168-0.336-0.448-0.28-0.785 0.617-2.805 1.29-5.61 1.907-8.414 0.112-0.45 0.225-0.898 0.28-1.347 0.113-0.448 0.337-0.673 0.674-0.673s0.56 0.225 0.673 0.673c1.29 4.040 2.58 8.135 3.815 12.174h0.168z"></path>
</svg>
