<!-- Generated by IcoMoon.io -->
<svg version="1.1" xmlns="http://www.w3.org/2000/svg" width="32" height="32" viewBox="0 0 32 32">
<title>mft</title>
<path fill="#da1157" d="M32 16c0 8.837-7.163 16-16 16s-16-7.163-16-16c0-8.837 7.163-16 16-16s16 7.163 16 16z"></path>
<path fill="#fff" d="M20.985 19.168c1.671 0 3.026-1.355 3.026-3.026s-1.355-3.026-3.026-3.026v0c-1.671 0-3.026 1.355-3.026 3.026s1.355 3.026 3.026 3.026v0zM20.985 9.163c0.001 0 0.003 0 0.004 0 3.855 0 6.98 3.125 6.98 6.98s-3.125 6.98-6.98 6.98c-1.963 0-3.737-0.811-5.006-2.115l-0.002-0.002c1.223-1.252 1.977-2.967 1.977-4.857 0-0.002 0-0.005 0-0.007v0c0-0.002 0-0.005 0-0.007 0-1.89-0.754-3.605-1.978-4.858l0.001 0.001c1.266-1.305 3.036-2.115 4.995-2.115 0.003 0 0.005 0 0.008 0h-0zM10.98 19.168c1.671 0 3.026-1.355 3.026-3.026s-1.355-3.026-3.026-3.026v0c-1.671 0-3.026 1.355-3.026 3.026s1.355 3.026 3.026 3.026v0zM15.983 11.278c-1.222 1.252-1.976 2.966-1.976 4.856 0 0.003 0 0.006 0 0.008v-0c0 1.892 0.754 3.607 1.976 4.864-1.27 1.306-3.043 2.116-5.006 2.116-3.855 0-6.98-3.125-6.98-6.98s3.125-6.98 6.98-6.98c1.963 0 3.736 0.81 5.005 2.114l0.002 0.002zM14.006 16.143c0 1.892 0.754 3.607 1.977 4.864 1.222-1.252 1.976-2.966 1.976-4.856 0-0.003 0-0.006 0-0.009v0c0-0.002 0-0.005 0-0.008 0-1.89-0.754-3.604-1.977-4.857l0.001 0.001c-1.223 1.252-1.977 2.966-1.977 4.857 0 0.003 0 0.005 0 0.008v-0z"></path>
</svg>
