<!-- Generated by IcoMoon.io -->
<svg version="1.1" xmlns="http://www.w3.org/2000/svg" width="32" height="32" viewBox="0 0 32 32">
<title>miota</title>
<path fill="#242424" d="M32 16c0 8.837-7.163 16-16 16s-16-7.163-16-16c0-8.837 7.163-16 16-16s16 7.163 16 16z"></path>
<path fill="#fff" d="M22.257 6.77c0 0.701-0.57 1.27-1.274 1.27-0.001 0-0.001 0-0.002 0-0.702 0-1.271-0.568-1.272-1.27v-0c0-0.702 0.57-1.27 1.274-1.27s1.274 0.568 1.274 1.27zM21.339 11.194c-0.596 0-1.080-0.482-1.080-1.076s0.484-1.075 1.080-1.075c0.596 0 1.079 0.481 1.079 1.075s-0.483 1.076-1.080 1.076zM21.004 13.847c-0.001 0-0.001 0-0.002 0-0.503 0-0.91-0.407-0.91-0.91 0 0 0 0 0 0v0c0.001-0.502 0.408-0.909 0.91-0.909 0.001 0 0.001 0 0.002 0h-0c0.001 0 0.001 0 0.002 0 0.503 0 0.91 0.407 0.91 0.91 0 0 0 0 0 0v0c-0.001 0.502-0.408 0.909-0.91 0.909-0.001 0-0.001 0-0.002 0h0zM20.95 15.219c0 0.431-0.349 0.78-0.78 0.78s-0.78-0.349-0.78-0.78v0c0-0.431 0.349-0.78 0.78-0.78s0.78 0.349 0.78 0.78v0zM19.716 16.943c0 0.37-0.3 0.667-0.669 0.667-0.368-0.001-0.666-0.3-0.666-0.668s0.299-0.668 0.668-0.668 0.668 0.299 0.668 0.668c0 0 0 0.001 0 0.001v-0zM18.366 18.166c0 0.317-0.257 0.574-0.574 0.574s-0.574-0.257-0.574-0.574v0c0-0.317 0.257-0.574 0.574-0.574s0.574 0.257 0.574 0.574v0zM25.24 10.757c-0.13 0.463-0.549 0.798-1.046 0.798-0.599 0-1.084-0.485-1.084-1.084 0-0.072 0.007-0.143 0.021-0.212l-0.001 0.007c0.115-0.484 0.544-0.838 1.055-0.838 0.598 0 1.083 0.485 1.083 1.083 0 0.087-0.010 0.172-0.030 0.253l0.002-0.007zM24.722 13.56c-0.098 0.409-0.46 0.709-0.893 0.709-0.506 0-0.917-0.411-0.917-0.917 0-0.074 0.009-0.146 0.025-0.215l-0.001 0.006c0.098-0.409 0.46-0.709 0.893-0.709 0.506 0 0.917 0.411 0.917 0.917 0 0.074-0.009 0.146-0.025 0.215l0.001-0.006zM23.758 15.797c-0.083 0.346-0.389 0.599-0.755 0.599-0.428 0-0.775-0.347-0.775-0.775 0-0.062 0.007-0.123 0.021-0.181l-0.001 0.005c0.095-0.33 0.393-0.567 0.747-0.567 0.429 0 0.776 0.347 0.776 0.776 0 0.050-0.005 0.1-0.014 0.148l0.001-0.005zM22.516 17.5c-0.082 0.28-0.336 0.482-0.638 0.482-0.366 0-0.663-0.297-0.663-0.663 0-0.042 0.004-0.083 0.011-0.123l-0.001 0.004c0.071-0.295 0.332-0.511 0.644-0.511 0.054 0 0.106 0.006 0.156 0.018l-0.005-0.001c0.296 0.070 0.512 0.331 0.512 0.643 0 0.053-0.006 0.105-0.018 0.154l0.001-0.005zM21.159 18.689c-0.061 0.254-0.286 0.439-0.554 0.439-0.314 0-0.569-0.255-0.569-0.569 0-0.046 0.006-0.091 0.016-0.134l-0.001 0.004c0.061-0.254 0.286-0.439 0.554-0.439 0.314 0 0.569 0.255 0.569 0.569 0 0.046-0.006 0.091-0.016 0.134l0.001-0.004zM19.804 19.44c-0.064 0.202-0.249 0.345-0.468 0.345-0.271 0-0.49-0.219-0.49-0.49 0-0.027 0.002-0.054 0.006-0.080l-0 0.003c0.064-0.202 0.249-0.345 0.468-0.345 0.271 0 0.49 0.219 0.49 0.49 0 0.027-0.002 0.054-0.006 0.080l0-0.003zM26.908 14.584c-0.153 0.31-0.467 0.519-0.83 0.519-0.146 0-0.285-0.034-0.407-0.095l0.005 0.002c-0.311-0.151-0.521-0.465-0.521-0.827 0-0.146 0.034-0.285 0.095-0.407l-0.002 0.005c0.153-0.31 0.467-0.519 0.83-0.519 0.146 0 0.284 0.034 0.407 0.094l-0.005-0.002c0.311 0.152 0.521 0.466 0.521 0.829 0 0.146-0.034 0.283-0.094 0.406l0.002-0.005zM25.947 16.799c-0.135 0.248-0.394 0.414-0.692 0.414-0.434 0-0.785-0.351-0.785-0.785 0-0.112 0.023-0.219 0.066-0.315l-0.002 0.005c0.131-0.263 0.399-0.441 0.708-0.441 0.124 0 0.241 0.029 0.345 0.079l-0.005-0.002c0.265 0.129 0.444 0.395 0.444 0.704 0 0.124-0.029 0.242-0.081 0.346l0.002-0.005zM24.739 18.479c-0.113 0.228-0.344 0.381-0.611 0.381-0.107 0-0.209-0.025-0.299-0.069l0.004 0.002c-0.228-0.111-0.382-0.341-0.382-0.607 0-0.107 0.025-0.209 0.070-0.299l-0.002 0.004c0.117-0.214 0.34-0.357 0.597-0.357 0.374 0 0.678 0.304 0.678 0.678 0 0.097-0.020 0.189-0.057 0.273l0.002-0.004zM23.393 19.667c-0.098 0.197-0.298 0.33-0.53 0.33-0.093 0-0.181-0.021-0.259-0.060l0.003 0.002c-0.205-0.094-0.345-0.298-0.345-0.535 0-0.324 0.263-0.587 0.587-0.587 0.099 0 0.192 0.024 0.273 0.067l-0.003-0.002c0.198 0.097 0.332 0.297 0.332 0.529 0 0.093-0.022 0.181-0.060 0.259l0.002-0.003zM22.038 20.399c-0.087 0.158-0.252 0.264-0.443 0.264-0.278 0-0.503-0.225-0.503-0.503 0-0.072 0.015-0.14 0.042-0.201l-0.001 0.003c0.089-0.151 0.251-0.25 0.436-0.25 0.278 0 0.504 0.226 0.504 0.504 0 0.066-0.013 0.129-0.036 0.187l0.001-0.003zM20.765 20.768c-0.071 0.143-0.217 0.24-0.385 0.24-0.067 0-0.131-0.016-0.188-0.043l0.003 0.001c-0.143-0.071-0.24-0.216-0.24-0.383 0-0.235 0.191-0.426 0.426-0.426 0.068 0 0.132 0.016 0.189 0.044l-0.003-0.001c0.143 0.070 0.24 0.215 0.24 0.383 0 0.067-0.016 0.131-0.044 0.188l0.001-0.003zM21.801 25.624c-0.384-0.223-0.638-0.632-0.638-1.1 0-0.233 0.063-0.452 0.173-0.64l-0.003 0.006c0.225-0.383 0.635-0.636 1.104-0.636 0.234 0 0.453 0.063 0.642 0.173l-0.006-0.003c0.61 0.35 0.82 1.127 0.469 1.734-0.225 0.383-0.635 0.636-1.104 0.636-0.234 0-0.454-0.063-0.642-0.173l0.006 0.003zM18.811 24.092c-0.325-0.188-0.54-0.534-0.54-0.931 0-0.198 0.054-0.383 0.147-0.542l-0.003 0.005c0.191-0.324 0.538-0.538 0.935-0.538 0.198 0 0.384 0.053 0.543 0.146l-0.005-0.003c0.516 0.296 0.693 0.954 0.396 1.468-0.19 0.324-0.537 0.539-0.935 0.539-0.198 0-0.384-0.053-0.544-0.147l0.005 0.003zM16.609 22.252c-0.275-0.16-0.457-0.453-0.457-0.788 0-0.168 0.045-0.324 0.124-0.459l-0.002 0.004c0.161-0.274 0.455-0.455 0.79-0.455 0.168 0 0.325 0.045 0.46 0.124l-0.004-0.002c0.275 0.159 0.456 0.452 0.456 0.787 0 0.167-0.045 0.323-0.124 0.457l0.002-0.004c-0.161 0.275-0.455 0.457-0.791 0.457-0.167 0-0.324-0.045-0.459-0.124l0.004 0.002zM15.108 20.278c-0.234-0.137-0.388-0.387-0.388-0.673 0-0.429 0.348-0.778 0.778-0.778 0.143 0 0.278 0.039 0.393 0.107l-0.004-0.002c0.372 0.214 0.5 0.689 0.285 1.060-0.137 0.235-0.388 0.39-0.675 0.39-0.143 0-0.277-0.038-0.392-0.106l0.004 0.002zM14.225 18.352c-0.202-0.117-0.335-0.332-0.335-0.578 0-0.123 0.033-0.237 0.091-0.336l-0.002 0.003c0.118-0.201 0.334-0.334 0.58-0.334 0.123 0 0.239 0.033 0.338 0.091l-0.003-0.002c0.32 0.184 0.43 0.592 0.246 0.91-0.118 0.202-0.334 0.335-0.581 0.335-0.123 0-0.239-0.033-0.338-0.091l0.003 0.002zM13.836 16.575c-0.173-0.101-0.287-0.285-0.287-0.496 0-0.106 0.029-0.205 0.079-0.29l-0.001 0.003c0.102-0.172 0.286-0.286 0.498-0.286 0.105 0 0.204 0.028 0.289 0.078l-0.003-0.001c0.172 0.101 0.286 0.285 0.286 0.497 0 0.317-0.257 0.573-0.573 0.573-0.106 0-0.205-0.029-0.29-0.078l0.003 0.001zM17.586 26.501c-0.001 0-0.001 0-0.002 0-0.597 0-1.080-0.483-1.081-1.080v-0c0.001-0.596 0.484-1.079 1.080-1.079 0.001 0 0.002 0 0.003 0h-0c0.598 0 1.083 0.483 1.083 1.080 0 0.596-0.485 1.079-1.083 1.079zM14.668 24.363c-0.179-0.167-0.29-0.404-0.29-0.667 0-0.242 0.094-0.462 0.248-0.625l-0 0c0.168-0.178 0.406-0.289 0.67-0.289 0.243 0 0.464 0.094 0.628 0.248l-0.001-0c0.37 0.345 0.388 0.923 0.042 1.292-0.168 0.178-0.406 0.289-0.669 0.289-0.242 0-0.463-0.094-0.627-0.247l0.001 0zM13.203 22.415c-0.151-0.141-0.245-0.342-0.245-0.564 0-0.205 0.080-0.391 0.21-0.529l-0 0c0.142-0.151 0.343-0.245 0.566-0.245 0.205 0 0.392 0.079 0.53 0.209l-0-0c0.152 0.141 0.246 0.342 0.246 0.564 0 0.205-0.080 0.391-0.21 0.529l0-0c-0.142 0.151-0.343 0.245-0.567 0.245-0.205 0-0.392-0.079-0.531-0.209l0 0zM12.344 20.491c-0.129-0.12-0.209-0.292-0.209-0.481 0-0.175 0.068-0.334 0.18-0.452l-0 0c0.121-0.129 0.293-0.209 0.484-0.209 0.175 0 0.334 0.068 0.453 0.178l-0-0c0.129 0.121 0.21 0.292 0.21 0.482 0 0.175-0.068 0.334-0.179 0.452l0-0c-0.121 0.129-0.293 0.209-0.484 0.209-0.175 0-0.335-0.068-0.454-0.179l0 0zM11.988 18.727c-0.111-0.104-0.179-0.25-0.179-0.413 0-0.15 0.058-0.287 0.154-0.388l-0 0c0.104-0.111 0.252-0.18 0.416-0.18 0.151 0 0.287 0.058 0.389 0.154l-0-0c0.23 0.214 0.24 0.573 0.026 0.802-0.104 0.111-0.252 0.18-0.416 0.18-0.151 0-0.288-0.059-0.39-0.154l0 0zM12.012 17.181c-0.095-0.089-0.155-0.215-0.155-0.355 0-0.129 0.050-0.246 0.132-0.333l-0 0c0.090-0.095 0.216-0.154 0.357-0.154 0.129 0 0.247 0.050 0.335 0.132l-0-0c0.078 0.086 0.126 0.202 0.126 0.328 0 0.27-0.219 0.489-0.489 0.489-0.116 0-0.223-0.040-0.306-0.108l0.001 0.001zM12.687 25.741c-0.1-0.145-0.159-0.324-0.159-0.517 0-0.315 0.159-0.593 0.4-0.758l0.003-0.002c0.145-0.1 0.325-0.16 0.519-0.16 0.316 0 0.594 0.158 0.761 0.4l0.002 0.003c0.1 0.145 0.16 0.324 0.16 0.517 0 0.315-0.159 0.592-0.4 0.757l-0.003 0.002c-0.146 0.1-0.325 0.16-0.519 0.16-0.315 0-0.594-0.158-0.761-0.398l-0.002-0.003zM11.241 23.805c-0.085-0.123-0.136-0.276-0.136-0.441 0-0.268 0.135-0.504 0.341-0.645l0.003-0.002c0.124-0.085 0.277-0.135 0.441-0.135 0.268 0 0.505 0.134 0.647 0.339l0.002 0.003c0.085 0.123 0.136 0.276 0.136 0.441 0 0.268-0.135 0.504-0.341 0.645l-0.003 0.002c-0.124 0.085-0.277 0.136-0.442 0.136-0.268 0-0.505-0.134-0.647-0.339l-0.002-0.003zM10.383 21.922c-0.073-0.106-0.117-0.238-0.117-0.38 0-0.231 0.116-0.435 0.294-0.557l0.002-0.002c0.107-0.073 0.239-0.117 0.381-0.117 0.232 0 0.436 0.116 0.559 0.293l0.001 0.002c0.074 0.107 0.118 0.238 0.118 0.381 0 0.232-0.117 0.436-0.296 0.558l-0.002 0.002c-0.107 0.073-0.238 0.116-0.38 0.116-0.232 0-0.437-0.116-0.56-0.294l-0.001-0.002zM10.023 20.168c-0.064-0.092-0.102-0.207-0.102-0.33 0-0.201 0.101-0.378 0.255-0.484l0.002-0.001c0.093-0.064 0.208-0.102 0.331-0.102 0.201 0 0.379 0.101 0.486 0.255l0.001 0.002c0.064 0.092 0.102 0.207 0.102 0.33 0 0.201-0.102 0.378-0.256 0.483l-0.002 0.001c-0.093 0.063-0.207 0.101-0.33 0.101-0.201 0-0.379-0.101-0.485-0.254l-0.001-0.002zM10.063 18.632c-0.055-0.079-0.087-0.177-0.087-0.282 0-0.171 0.086-0.323 0.218-0.413l0.002-0.001c0.079-0.055 0.178-0.087 0.283-0.087 0.172 0 0.324 0.086 0.415 0.217l0.001 0.002c0.045 0.074 0.071 0.163 0.071 0.258 0 0.278-0.225 0.503-0.503 0.503-0.162 0-0.306-0.077-0.398-0.196l-0.001-0.001zM10.377 17.349c-0.050-0.069-0.080-0.156-0.080-0.249 0-0.236 0.191-0.427 0.427-0.427 0.15 0 0.282 0.077 0.358 0.194l0.001 0.002c0.043 0.065 0.068 0.145 0.068 0.231 0 0.236-0.191 0.427-0.427 0.427-0.142 0-0.268-0.070-0.346-0.177l-0.001-0.001zM5.637 15.807c0.183-0.107 0.402-0.17 0.636-0.17 0.469 0 0.879 0.253 1.101 0.63l0.003 0.006c0.107 0.182 0.17 0.401 0.17 0.634 0 0.468-0.254 0.877-0.631 1.097l-0.006 0.003c-0.61 0.35-1.388 0.141-1.739-0.465-0.107-0.182-0.171-0.401-0.171-0.635 0-0.468 0.253-0.877 0.631-1.096l0.006-0.003zM8.467 13.997c0.155-0.091 0.341-0.145 0.54-0.145 0.397 0 0.743 0.214 0.931 0.533l0.003 0.005c0.297 0.515 0.12 1.172-0.396 1.469-0.155 0.090-0.34 0.143-0.538 0.143-0.397 0-0.744-0.214-0.932-0.532l-0.003-0.005c-0.091-0.154-0.145-0.34-0.145-0.538 0-0.396 0.215-0.742 0.534-0.928l0.005-0.003zM11.168 13.020c0.131-0.076 0.288-0.121 0.455-0.121 0.336 0 0.629 0.181 0.788 0.45l0.002 0.004c0.076 0.13 0.122 0.287 0.122 0.455 0 0.335-0.181 0.628-0.451 0.786l-0.004 0.002c-0.131 0.076-0.288 0.121-0.455 0.121-0.336 0-0.63-0.181-0.789-0.451l-0.002-0.004c-0.077-0.13-0.122-0.287-0.122-0.455 0-0.335 0.182-0.628 0.452-0.785l0.004-0.002zM13.635 12.714c0.112-0.065 0.246-0.104 0.389-0.104 0.287 0 0.537 0.155 0.673 0.385l0.002 0.004c0.065 0.111 0.104 0.245 0.104 0.388 0 0.286-0.155 0.536-0.385 0.67l-0.004 0.002c-0.112 0.066-0.247 0.105-0.391 0.105-0.287 0-0.538-0.155-0.673-0.386l-0.002-0.004c-0.065-0.111-0.104-0.245-0.104-0.387 0-0.287 0.156-0.537 0.387-0.671l0.004-0.002zM15.749 12.918c0.096-0.056 0.211-0.089 0.334-0.089 0.246 0 0.462 0.133 0.578 0.331l0.002 0.003c0.046 0.088 0.072 0.192 0.072 0.303 0 0.37-0.3 0.67-0.67 0.67-0.235 0-0.441-0.12-0.561-0.303l-0.002-0.003c-0.056-0.096-0.090-0.211-0.090-0.334 0-0.246 0.134-0.461 0.332-0.577l0.003-0.002zM17.487 13.472c0.082-0.048 0.181-0.076 0.287-0.076 0.212 0 0.396 0.114 0.497 0.284l0.001 0.003c0.049 0.082 0.078 0.181 0.078 0.287 0 0.211-0.115 0.395-0.285 0.494l-0.003 0.001c-0.082 0.049-0.182 0.077-0.288 0.077-0.317 0-0.574-0.257-0.574-0.574 0-0.211 0.114-0.395 0.284-0.495l0.003-0.001zM7.614 11.24c0.094-0.029 0.201-0.046 0.313-0.046 0.486 0 0.897 0.32 1.035 0.761l0.002 0.008c0.020 0.077 0.031 0.165 0.031 0.256 0 0.599-0.485 1.084-1.084 1.084-0.467 0-0.865-0.295-1.017-0.709l-0.002-0.008c-0.030-0.094-0.047-0.202-0.047-0.314 0-0.485 0.321-0.896 0.762-1.030l0.008-0.002zM10.308 10.287c0.069-0.019 0.148-0.029 0.229-0.029 0.505 0 0.915 0.41 0.915 0.915 0 0.398-0.254 0.736-0.608 0.862l-0.006 0.002c-0.079 0.025-0.17 0.039-0.265 0.039-0.505 0-0.914-0.409-0.914-0.914 0-0.41 0.27-0.758 0.643-0.873l0.006-0.002zM12.734 10c0.067-0.021 0.144-0.033 0.223-0.033 0.427 0 0.773 0.346 0.773 0.773 0 0.347-0.229 0.641-0.544 0.739l-0.005 0.001c-0.067 0.021-0.144 0.033-0.223 0.033-0.427 0-0.773-0.346-0.773-0.773 0-0.347 0.229-0.641 0.544-0.739l0.005-0.001zM14.834 10.223c0.057-0.018 0.123-0.028 0.191-0.028 0.365 0 0.661 0.296 0.661 0.661 0 0.297-0.196 0.548-0.465 0.631l-0.005 0.001c-0.057 0.018-0.123 0.028-0.191 0.028-0.297 0-0.549-0.196-0.633-0.465l-0.001-0.005c-0.018-0.057-0.028-0.122-0.028-0.19 0-0.297 0.197-0.549 0.467-0.631l0.005-0.001zM16.544 10.8c0.041-0.010 0.087-0.016 0.136-0.016 0.314 0 0.568 0.254 0.568 0.568 0 0.245-0.155 0.453-0.372 0.533l-0.004 0.001c-0.049 0.015-0.105 0.024-0.164 0.024-0.313 0-0.567-0.254-0.567-0.567 0-0.255 0.168-0.47 0.399-0.542l0.004-0.001zM17.874 11.595c0.042-0.013 0.091-0.021 0.142-0.021 0.269 0 0.487 0.218 0.487 0.487 0 0.219-0.144 0.403-0.342 0.465l-0.003 0.001c-0.042 0.013-0.091 0.021-0.142 0.021-0.269 0-0.487-0.218-0.487-0.487 0-0.219 0.144-0.403 0.342-0.465l0.003-0.001zM10.104 7.888c0.021-0.002 0.046-0.003 0.070-0.003 0.484 0 0.881 0.374 0.917 0.85l0 0.003c0.002 0.020 0.002 0.043 0.002 0.067 0 0.509-0.413 0.922-0.922 0.922-0.486 0-0.884-0.376-0.92-0.852l-0-0.003c-0.002-0.020-0.002-0.043-0.002-0.066 0-0.485 0.376-0.883 0.852-0.918l0.003-0zM12.511 7.61c0.005-0 0.012-0 0.018-0 0.432 0 0.783 0.351 0.783 0.783 0 0.399-0.298 0.728-0.684 0.777l-0.004 0c-0.029 0.004-0.062 0.006-0.095 0.006-0.432 0-0.783-0.351-0.783-0.783 0-0.426 0.34-0.773 0.764-0.783l0.001-0zM14.575 7.814c0.003-0 0.005-0 0.008-0 0.374 0 0.677 0.303 0.677 0.677 0 0.342-0.254 0.625-0.584 0.671l-0.004 0c-0.009 0-0.021 0.001-0.032 0.001-0.373 0-0.676-0.303-0.676-0.676 0-0.35 0.266-0.638 0.607-0.673l0.003-0zM16.278 8.382c0.006-0 0.013-0 0.019-0 0.324 0 0.587 0.263 0.587 0.587 0 0.301-0.227 0.549-0.519 0.583l-0.003 0c-0.020 0.002-0.043 0.004-0.066 0.004-0.324 0-0.587-0.263-0.587-0.587 0-0.317 0.252-0.576 0.567-0.587l0.001-0z"></path>
</svg>
