<!-- Generated by IcoMoon.io -->
<svg version="1.1" xmlns="http://www.w3.org/2000/svg" width="32" height="32" viewBox="0 0 32 32">
<title>mith</title>
<path fill="#00316d" d="M32 16c0 8.837-7.163 16-16 16s-16-7.163-16-16c0-8.837 7.163-16 16-16s16 7.163 16 16z"></path>
<path fill="#fff" d="M18.156 19.887c-0.013-0.024-0.015-0.034-0.020-0.037-0.62-0.293-1.24-0.587-1.862-0.876-0.033-0.016-0.1-0.012-0.121 0.011-0.27 0.29-0.534 0.587-0.802 0.884 0.194 0.143 2.643 0.144 2.805 0.018zM12.482 12.724l-0.062-0.13c-0.052 0.037-0.12 0.064-0.154 0.114 0.266-0.465-0.297 0.37-0.856 1.208l-0.852 1.356c-0.035 0.054-0.033 0.133-0.050 0.2 0.070-0.014 0.148-0.011 0.205-0.046 0.727-0.432 1.198-0.729 1.664-1.032l-0.22 0.134c0.082-0.058 0.14-0.146 0.161-0.246l0-0.003c0.064-0.5 0.108-1.003 0.164-1.555zM24.479 19.974h0.826c0.159 0 0.22-0.060 0.119-0.213-0.525-0.802-1.048-1.605-1.575-2.404-0.028-0.044-0.092-0.063-0.14-0.093-0.025 0.050-0.068 0.1-0.073 0.153-0.061 0.782-0.116 1.564-0.176 2.346-0.011 0.149 0.041 0.216 0.193 0.213 0.275-0.006 0.55-0.002 0.826-0.002zM6.745 19.914c0.126 0.030 0.188 0.058 0.249 0.059 0.893 0.002 1.786 0 2.678 0.002 0.173 0 0.217-0.061 0.144-0.228-0.008 0.055-0.284-0.575-0.554-1.209l-0.268-0.705c-0.078-0.187-0.15-0.178-0.273-0.046-0.476 0.514-0.956 1.023-1.434 1.534-0.167 0.18-0.33 0.36-0.542 0.593zM19.94 15.301c0.058 0.113 0.077 0.162 0.106 0.204l1.208 1.754c0.499 0.725 0.997 1.45 1.5 2.172 0.034 0.050 0.1 0.077 0.15 0.114 0.026-0.060 0.068-0.117 0.076-0.179 0.020-0.17 0.024-0.34 0.035-0.51 0.054-0.775 0.114-1.549 0.16-2.323 0.020-0.33-0.123-0.5-0.436-0.578-0.835-0.209-1.67-0.419-2.506-0.626-0.075-0.018-0.154-0.015-0.293-0.028zM19.728 10.166l-0.076 0.013c-0.010 0.153-0.025 0.307-0.030 0.462l-0.111 3.771c-0.005 0.138 0.036 0.21 0.179 0.244 0.866 0.21 1.73 0.431 2.596 0.644 0.075 0.018 0.158 0.001 0.237 0-0.020-0.077-0.024-0.164-0.061-0.232-0.863-1.57-1.728-3.14-2.595-4.708-0.038-0.069-0.092-0.13-0.139-0.194zM15.843 17.873c0.024-0.133 0.047-0.213 0.050-0.293 0.013-0.419 0.014-0.838 0.033-1.257 0.001-0.023 0.002-0.050 0.002-0.076 0-0.307-0.101-0.59-0.273-0.818l0.003 0.004c1.148 1.71 0.368 0.633-0.411-0.447l-1.964-2.863c-0.036-0.050-0.051-0.115-0.076-0.173l-0.094 0.056c-0.023 0.084-0.059 0.167-0.068 0.252-0.070 0.68-0.13 1.36-0.205 2.038-0.004 0.022-0.006 0.047-0.006 0.073 0 0.126 0.051 0.24 0.133 0.323l-0-0c0.895 0.997 1.784 2 2.677 3 0.048 0.054 0.106 0.098 0.199 0.182zM16.42 17.664l0.060 0.040c0.055-0.043 0.12-0.077 0.164-0.13-0.085 0.132 0.659-0.771 1.4-1.677l0.873-1.099c0.045-0.056 0.073-0.127 0.078-0.204l0-0.001c0.036-1.235 0.067-2.47 0.095-3.705 0.002-0.068-0.037-0.137-0.058-0.205-0.055 0.053-0.132 0.096-0.163 0.16-0.7 1.482-1.369 2.979-2.103 4.442-0.388 0.774-0.326 1.573-0.346 2.38zM12.917 19.975c0.481 0 0.963 0.007 1.444-0.006 0.114-0.006 0.217-0.052 0.294-0.125l-0 0c0.335-0.351 0.649-0.723 0.983-1.075 0.125-0.13 0.097-0.21-0.009-0.326-0.459-0.495-1.006-1.097-1.549-1.704l-0.129-0.146c-0.134-0.15-0.211-0.149-0.331 0.015-0.761 1.041-1.53 2.075-2.295 3.114-0.038 0.052-0.052 0.121-0.078 0.182 0.067 0.024 0.134 0.067 0.202 0.067 0.49 0.006 0.978 0.004 1.468 0.004zM13.415 16.009c-0.266-0.309-0.527-0.6-0.774-0.905-0.104-0.127-0.184-0.14-0.324-0.053-0.836 0.526-1.681 1.038-2.515 1.567-0.151 0.096-0.27 0.245-0.398 0.376-0.119 0.122-0.103 0.256-0.038 0.406 0.325 0.743 0.642 1.489 0.963 2.234 0.122 0.28 0.168 0.285 0.355 0.035 0.495-0.66 0.988-1.323 1.481-1.984l1.25-1.676zM19.21 15.221c-0.065 0.105-0.096 0.169-0.14 0.221-0.792 0.966-1.585 1.932-2.383 2.894-0.13 0.157-0.063 0.219 0.084 0.286 0.917 0.42 1.83 0.847 2.749 1.265 0.11 0.051 0.238 0.081 0.373 0.084h0.001c0.756 0.007 1.513 0.005 2.27 0.001 0.070 0 0.141-0.032 0.212-0.050-0.025-0.074-0.036-0.159-0.080-0.222-2.682-4.041-3.373-5.035-4.066-6.028l1.967 2.976c-0.31-0.45-0.622-0.9-0.987-1.427zM15.993 20.998c-3.442 0-6.884-0.001-10.326 0.002-0.268 0-0.51-0.030-0.626-0.318-0.11-0.273 0.018-0.475 0.197-0.666 1.028-1.098 2.070-2.184 3.070-3.306 0.382-0.428 0.677-0.937 1-1.418 1.035-1.548 2.062-3.102 3.102-4.646 0.102-0.151 0.258-0.304 0.422-0.364 0.226-0.084 0.419 0.046 0.563 0.252 0.837 1.196 1.68 2.388 2.521 3.582 0.173 0.244 0.235 0.236 0.363-0.042l2.594-5.65c0.102-0.222 0.237-0.411 0.5-0.423 0.275-0.013 0.442 0.154 0.571 0.39 1.302 2.362 2.574 4.744 3.927 7.076 0.818 1.41 1.765 2.741 2.654 4.108 0.11 0.168 0.221 0.335 0.329 0.505 0.13 0.205 0.207 0.43 0.085 0.657-0.12 0.22-0.342 0.262-0.575 0.262-3.457-0.002-6.914-0.001-10.371-0.001z"></path>
</svg>
