<!-- Generated by IcoMoon.io -->
<svg version="1.1" xmlns="http://www.w3.org/2000/svg" width="32" height="32" viewBox="0 0 32 32">
<title>mln</title>
<path fill="#0b1529" d="M32 16c0 8.837-7.163 16-16 16s-16-7.163-16-16c0-8.837 7.163-16 16-16s16 7.163 16 16z"></path>
<path fill="#fff" d="M8.627 20.124l5.272 3.092v1.729l-6.899-4.060v-10.59l9-5.295 9 5.295v10.59l-6.899 4.060v-1.73l5.271-3.091-1.36-0.786 0.178-0.309 1.343 0.776v-7.852l-6.82 4.042v11.56l-0.713 0.445-0.714-0.445v-11.56l-6.819-4.042v7.851l1.342-0.775 0.178 0.31-1.36 0.785zM15.802 6.814l-6.622 3.885 6.82 4.043 6.82-4.043-6.661-3.908v1.604h-0.357v-1.581zM15.802 9.406h0.357v1.657h-0.357v-1.657zM15.802 12.074h0.357v1.657l-0.179 0.081-0.178-0.080v-1.658zM21.362 18.524l-0.178 0.31-1.436-0.83 0.179-0.309 1.435 0.83zM19.097 17.19l-0.179 0.31-1.435-0.83 0.020-0.194 0.158-0.114 1.436 0.828zM10.637 18.524l1.435-0.829 0.179 0.31-1.435 0.828-0.179-0.309zM12.903 17.19l1.435-0.828 0.16 0.114 0.018 0.195-1.435 0.828-0.178-0.309z"></path>
</svg>
