<!-- Generated by IcoMoon.io -->
<svg version="1.1" xmlns="http://www.w3.org/2000/svg" width="32" height="32" viewBox="0 0 32 32">
<title>mnx</title>
<path fill="#00adef" d="M32 16c0 8.837-7.163 16-16 16s-16-7.163-16-16c0-8.837 7.163-16 16-16s16 7.163 16 16z"></path>
<path fill="#fff" d="M14.863 26.986c-5.543-0.581-9.863-5.278-9.863-10.986s4.32-10.405 9.863-10.986v3.37c-3.718 0.589-6.527 3.772-6.527 7.61 0 0.002 0 0.004 0 0.006v-0c0 0.002 0 0.004 0 0.006 0 3.839 2.809 7.021 6.483 7.604l0.044 0.006v3.37zM17.038 5c5.23 0.479 9.403 4.617 9.948 9.837h-3.363c-0.528-3.379-3.191-6.004-6.545-6.469l-0.040-0.005v-3.363zM27 17.017c-0.482 5.29-4.684 9.5-9.962 9.983v-3.363c3.444-0.477 6.137-3.174 6.602-6.58l0.004-0.040h3.356z"></path>
</svg>
