<!-- Generated by IcoMoon.io -->
<svg version="1.1" xmlns="http://www.w3.org/2000/svg" width="32" height="32" viewBox="0 0 32 32">
<title>mnx</title>
<path fill="#00adef" d="M14.863 26.986v-3.37c-3.718-0.589-6.527-3.772-6.527-7.61 0-0.002 0-0.004 0-0.006v0c0-0.002 0-0.004 0-0.006 0-3.839 2.809-7.021 6.483-7.604l0.044-0.006v-3.37c-5.543 0.581-9.863 5.278-9.863 10.986s4.32 10.405 9.863 10.986zM17.038 5v3.363c3.394 0.47 6.057 3.095 6.579 6.431l0.006 0.043h3.363c-0.546-5.22-4.718-9.357-9.948-9.837zM27 17.017h-3.356c-0.469 3.446-3.162 6.143-6.566 6.615l-0.040 0.005v3.363c5.278-0.483 9.48-4.694 9.962-9.983zM16 32c-8.837 0-16-7.163-16-16s7.163-16 16-16 16 7.163 16 16-7.163 16-16 16z"></path>
</svg>
