<!-- Generated by IcoMoon.io -->
<svg version="1.1" xmlns="http://www.w3.org/2000/svg" width="32" height="32" viewBox="0 0 32 32">
<title>mnz</title>
<path fill="#7f368a" d="M16 32c-8.837 0-16-7.163-16-16s7.163-16 16-16 16 7.163 16 16-7.163 16-16 16zM25.569 21.316c-0.132-0.788-0.394-1.577-0.59-2.3l-0.59-2.365-1.574-5.914c-0.132-0.46-0.197-0.92-0.328-1.38-0.066-0.197-0.131-0.46-0.328-0.591-0.197-0.066-0.394-0.066-0.59-0.066h-2.427c-0.393 0-0.72 0-1.114 0.066-0.328 0.065-0.656 0.263-0.787 0.591-0.016 0.036-0.025 0.078-0.025 0.122 0 0.115 0.061 0.216 0.153 0.271l0.001 0.001c0.066 0.066 0.198 0 0.263-0.065 0.066 0 0.263-0.197 0.328-0.197l3.082 11.367v0.066c0.066 0.263 0.197 0.525 0.393 0.591 0.132 0.066 0.263 0.132 0.46 0.132h3.278c0.197 0.065 0.46-0.066 0.394-0.329zM17.962 21.316c-0.131-0.788-0.393-1.577-0.59-2.3l-0.59-2.365-1.574-5.914c-0.131-0.46-0.197-0.92-0.328-1.38-0.065-0.197-0.131-0.46-0.328-0.591-0.196-0.066-0.393-0.066-0.59-0.066h-2.427c-0.393 0-0.72 0-1.114 0.066-0.328 0.065-0.656 0.263-0.787 0.591-0.015 0.036-0.024 0.078-0.024 0.122 0 0.115 0.062 0.216 0.154 0.271l0.001 0.001c0.066 0.066 0.197 0 0.263-0.065 0.065 0 0.262-0.197 0.328-0.197l3.081 11.367v0.066c0.066 0.263 0.197 0.525 0.394 0.591 0.131 0.066 0.262 0.132 0.459 0.132h3.279c0.196 0.065 0.459-0.066 0.393-0.329zM11.929 18.819l-2.098-8.213c0-0.132-0.131-0.263-0.328-0.263-0.131 0-0.262 0.131-0.328 0.263l-2.754 10.381v0.132c0 0.328 0.262 0.657 0.656 0.657h3.475c0.281-0.008 0.515-0.198 0.589-0.456l0.001-0.004 0.787-2.497zM19.667 18.622l-2.295-8.28c0-0.13-0.131-0.196-0.262-0.196-0.132 0-0.263 0.065-0.263 0.197l-0.459 1.642 2.295 8.017c0.066 0.131 0.132 0.197 0.263 0.197 0.13 0 0.196-0.066 0.262-0.197l0.459-1.38z"></path>
</svg>
