<!-- Generated by IcoMoon.io -->
<svg version="1.1" xmlns="http://www.w3.org/2000/svg" width="32" height="32" viewBox="0 0 32 32">
<title>mnz</title>
<path fill="#7f368a" d="M32 16c0 8.837-7.163 16-16 16s-16-7.163-16-16c0-8.837 7.163-16 16-16s16 7.163 16 16z"></path>
<path fill="#fff" d="M25.569 21.316c0.065 0.263-0.197 0.394-0.394 0.329h-3.278c-0.197 0-0.328-0.066-0.46-0.132-0.196-0.066-0.327-0.328-0.393-0.591v-0.066l-3.082-11.366c-0.065 0-0.262 0.197-0.328 0.197-0.065 0.065-0.197 0.131-0.262 0.065-0.131-0.065-0.197-0.262-0.131-0.394 0.13-0.328 0.459-0.526 0.787-0.591 0.393-0.066 0.721-0.066 1.114-0.066h2.427c0.196 0 0.393 0 0.59 0.066 0.197 0.131 0.262 0.394 0.328 0.591 0.13 0.46 0.196 0.92 0.328 1.38l1.573 5.914 0.59 2.365c0.197 0.723 0.46 1.512 0.59 2.3zM17.962 21.316c0.066 0.263-0.197 0.394-0.393 0.329h-3.279c-0.197 0-0.328-0.066-0.46-0.132-0.196-0.066-0.327-0.328-0.393-0.591v-0.066l-3.081-11.366c-0.066 0-0.263 0.197-0.328 0.197-0.066 0.065-0.197 0.131-0.263 0.065-0.13-0.065-0.196-0.262-0.13-0.394 0.13-0.328 0.458-0.526 0.786-0.591 0.394-0.066 0.721-0.066 1.115-0.066h2.426c0.197 0 0.394 0 0.59 0.066 0.197 0.131 0.263 0.394 0.328 0.591 0.131 0.46 0.197 0.92 0.328 1.38l1.574 5.914 0.59 2.365c0.197 0.723 0.459 1.512 0.59 2.3zM11.929 18.819l-0.787 2.497c-0.075 0.262-0.309 0.452-0.589 0.46l-0.001 0h-3.475c-0.362-0.001-0.655-0.295-0.656-0.657v-0.132l2.754-10.381c0.066-0.132 0.197-0.263 0.328-0.263 0.197 0 0.328 0.131 0.328 0.263l2.098 8.213zM19.667 18.622l-0.459 1.38c-0.066 0.131-0.131 0.197-0.262 0.197s-0.197-0.066-0.263-0.197l-2.295-8.017 0.46-1.642c0-0.132 0.13-0.197 0.262-0.197 0.13 0 0.262 0.065 0.262 0.197l2.295 8.279z"></path>
</svg>
