<!-- Generated by IcoMoon.io -->
<svg version="1.1" xmlns="http://www.w3.org/2000/svg" width="32" height="32" viewBox="0 0 32 32">
<title>mth</title>
<path fill="#104fca" d="M32 16c0 8.837-7.163 16-16 16s-16-7.163-16-16c0-8.837 7.163-16 16-16s16 7.163 16 16z"></path>
<path fill="#fff" opacity="0.5" d="M7 9.568l4.234 7.103v7.329c-2.338 0-4.234-1.836-4.234-4.101z"></path>
<path fill="#fff" opacity="0.6" d="M20.765 16.663l4.234-7.099v10.336c0.001 2.264-1.895 4.1-4.234 4.1z"></path>
<path fill="#fff" opacity="0.8" d="M15.997 16.458l-2.117 3.552c-0.439-0.11-0.911-0.536-1.416-1.277l-5.464-9.165c2.025-1.133 4.615-0.46 5.784 1.5z"></path>
<path fill="#fff" d="M19.216 11.060c1.169-1.962 3.759-2.634 5.784-1.501l-5.464 9.165c-0.78 1.12-2.062 1.844-3.512 1.844-0.008 0-0.017-0-0.025-0h0.001c-0.002 0-0.005 0-0.008 0-0.688 0-1.339-0.161-1.917-0.446l0.025 0.011-0.22-0.123z"></path>
</svg>
