<!-- Generated by IcoMoon.io -->
<svg version="1.1" xmlns="http://www.w3.org/2000/svg" width="32" height="32" viewBox="0 0 32 32">
<title>mzc</title>
<path fill="#ffaa05" d="M32 16c0 8.837-7.163 16-16 16s-16-7.163-16-16c0-8.837 7.163-16 16-16s16 7.163 16 16z"></path>
<path fill="#fff" d="M16.811 11.567v1.863h2.214l-1 1.148h-1.487v1.443h1.547l-0.758 1.148h-0.789v2.944l-1.273 1.736v-4.68h-1.76l0.971-1.148h0.789v-1.443h-2.487l1-1.148h1.487v-1.93c-0.733-0.793-1.744-1.19-3.033-1.19-2.472 0-4.428 2.635-4.428 5.255 0 1.746 0.4 3.228 1.198 4.445l-1.38 1.604c-1.081-1.602-1.622-3.432-1.622-5.49 0-4.519 3.89-7.124 6.641-7.124 1.684 0 2.974 0.706 3.87 2.117 1.714-1.176 3.467-1.764 5.259-1.764 2.744 0 4.23 3.35 4.23 6.55 0 4.258-2.866 5.902-3.912 6.094-0.011 0.002-0.024 0.003-0.037 0.003-0.069 0-0.129-0.033-0.167-0.085l-0-0.001c-0.023-0.032-0.037-0.071-0.037-0.114 0-0.068 0.035-0.127 0.087-0.162l0.001-0c1.619-1.088 2.428-2.755 2.428-5 0-4.901-2.517-6.035-4.367-6.035-0.005 0-0.010-0-0.016-0-1.181 0-2.279 0.36-3.188 0.976l0.020-0.013z"></path>
</svg>
