<!-- Generated by IcoMoon.io -->
<svg version="1.1" xmlns="http://www.w3.org/2000/svg" width="32" height="32" viewBox="0 0 32 32">
<title>nano</title>
<path fill="#4a90e2" d="M32 16c0 8.837-7.163 16-16 16s-16-7.163-16-16c0-8.837 7.163-16 16-16s16 7.163 16 16z"></path>
<path fill="#fff" d="M24.95 11c-0.858 0-1.583 0.693-1.583 1.583 0 1.254-0.198 1.583-1.584 1.583h-0.132c-0.797 0.069-1.418 0.733-1.418 1.543 0 0.003 0 0.005 0 0.008v-0 0.034c0 1.22-0.23 1.517-1.583 1.517-0.066 0-0.132 0-0.165 0.033-0.792 0.099-1.418 0.758-1.418 1.55 0 0.858 0.692 1.583 1.583 1.583 0.825 0 1.517-0.66 1.55-1.451v-0.132c0-1.121 0.363-1.55 1.55-1.583h0.033c0.825 0 1.518-0.66 1.55-1.484v-0.1c0-1.154 0.363-1.583 1.584-1.583 0.857 0 1.583-0.692 1.583-1.583 0-0.824-0.693-1.517-1.55-1.517zM15.648 14.166c0.793 0.074 1.414 0.718 1.452 1.514l0 0.004c0 0.89-0.693 1.583-1.584 1.583s-1.583-0.726-1.583-1.583c0-1.122-0.363-1.55-1.583-1.55s-1.583 0.428-1.583 1.583v0.099c-0.033 0.791-0.726 1.45-1.55 1.45-0.89 0-1.584-0.725-1.584-1.582 0-0.825 0.627-1.485 1.419-1.55h0.132c1.385 0 1.583-0.297 1.583-1.55 0.031-0.85 0.728-1.528 1.583-1.528s1.552 0.677 1.583 1.525l0 0.003c0 1.253 0.198 1.582 1.583 1.582h0.132zM6.083 20.433c-0.874 0-1.583-0.709-1.583-1.583s0.709-1.583 1.583-1.583v0c0.874 0 1.583 0.709 1.583 1.583s-0.709 1.583-1.583 1.583v0z"></path>
</svg>
