<!-- Generated by IcoMoon.io -->
<svg version="1.1" xmlns="http://www.w3.org/2000/svg" width="32" height="32" viewBox="0 0 32 32">
<title>nas</title>
<path fill="#222" d="M32 16c0 8.837-7.163 16-16 16s-16-7.163-16-16c0-8.837 7.163-16 16-16s16 7.163 16 16z"></path>
<path fill="#fff" d="M12.73 18.655l3.146 6.382 1.616-4.773-4.761-1.609zM6.977 15.886l4.764 1.617 1.618-4.77-6.382 3.153zM13.008 17.91c0.075 0.040 0.106 0.064 0.141 0.076 1.536 0.522 3.070 1.048 4.61 1.557 0.125 0.040 0.303 0.006 0.426-0.054 1.761-0.859 3.517-1.728 5.273-2.595 0.5-0.247 0.998-0.497 1.543-0.769-0.12-0.046-0.182-0.072-0.247-0.094-1.487-0.505-2.974-1.013-4.466-1.504-0.059-0.018-0.127-0.028-0.197-0.028-0.101 0-0.197 0.022-0.284 0.060l0.004-0.002c-1.872 0.91-3.737 1.835-5.603 2.756-0.389 0.192-0.776 0.386-1.2 0.597zM19.507 13.845c-1.13-2.294-2.246-4.554-3.39-6.875l-3.48 10.267 6.87-3.392zM5 16.002c1.094-0.541 2.126-1.055 3.16-1.565 1.758-0.867 3.516-1.735 5.277-2.596 0.176-0.078 0.308-0.227 0.363-0.409l0.001-0.005c0.688-2.053 1.386-4.102 2.082-6.152 0.026-0.076 0.057-0.15 0.105-0.275 0.070 0.136 0.122 0.232 0.17 0.329 1.345 2.73 2.688 5.46 4.044 8.184 0.066 0.132 0.24 0.242 0.389 0.293 2.036 0.702 4.076 1.392 6.115 2.085 0.077 0.026 0.153 0.054 0.294 0.104-0.188 0.095-0.327 0.168-0.467 0.237-2.628 1.297-5.255 2.597-7.887 3.885-0.239 0.107-0.419 0.31-0.491 0.559l-0.002 0.006c-0.679 2.034-1.375 4.062-2.066 6.092-0.019 0.056-0.042 0.11-0.087 0.226-0.177-0.355-0.33-0.658-0.48-0.962-1.224-2.482-2.449-4.964-3.666-7.45-0.085-0.195-0.248-0.342-0.449-0.404l-0.005-0.001c-2.042-0.683-4.080-1.38-6.119-2.073-0.075-0.026-0.148-0.057-0.281-0.108z"></path>
</svg>
