<!-- Generated by IcoMoon.io -->
<svg version="1.1" xmlns="http://www.w3.org/2000/svg" width="32" height="32" viewBox="0 0 32 32">
<title>ncash</title>
<path fill="#36a9cf" d="M32 16c0 8.837-7.163 16-16 16s-16-7.163-16-16c0-8.837 7.163-16 16-16s16 7.163 16 16z"></path>
<path fill="#fff" d="M26.31 18.475c0.176 0.077 0.241 0.316 0.146 0.534-0.058 0.145-0.187 0.251-0.342 0.277l-0.003 0-2.225 4.103c0.008 0.034 0.012 0.073 0.012 0.113 0 0.157-0.067 0.297-0.174 0.396l-0 0c-0.099 0.104-0.239 0.168-0.394 0.168-0.012 0-0.025-0-0.037-0.001l0.002 0-4.339 2.598c-0.069 0.172-0.222 0.297-0.407 0.326l-0.003 0c-0.214 0.041-0.418-0.037-0.516-0.182l-5.098-0.357c-0.089 0.068-0.201 0.109-0.324 0.109-0.045 0-0.089-0.006-0.131-0.016l0.004 0.001c-0.252-0.055-0.426-0.256-0.416-0.463l-3.939-2.842c-0.028 0.005-0.060 0.008-0.093 0.008-0.143 0-0.272-0.057-0.367-0.148l0 0c-0.172-0.156-0.234-0.383-0.168-0.555l-1.62-3.757c-0.177-0.035-0.33-0.209-0.37-0.439-0.033-0.207 0.035-0.402 0.162-0.506l0.239-5.687c-0.066-0.089-0.106-0.201-0.106-0.322 0-0.070 0.013-0.136 0.037-0.197l-0.001 0.004c0.080-0.233 0.273-0.38 0.463-0.37l4.252-4.455c-0.037-0.21 0.123-0.433 0.374-0.512 0.051-0.018 0.11-0.028 0.172-0.028 0.111 0 0.215 0.034 0.3 0.093l-0.002-0.001 6.118-1.112c0.079-0.18 0.303-0.286 0.545-0.243 0.22 0.038 0.385 0.189 0.424 0.363l2.826 1.612c0.052-0.017 0.111-0.027 0.173-0.027 0.111 0 0.214 0.032 0.302 0.086l-0.002-0.001c0.153 0.090 0.261 0.244 0.286 0.425l0 0.003 1.216 0.818c0.042-0.012 0.089-0.018 0.139-0.018 0.121 0 0.233 0.041 0.323 0.109l-0.001-0.001c0.228 0.164 0.31 0.45 0.18 0.64l-0.008 0.010 1.783 3.48c0.17-0.023 0.344 0.109 0.406 0.318 0.068 0.229-0.026 0.462-0.208 0.52-0.183 0.060-0.386-0.078-0.453-0.306l-0.012-0.050-3.669-1.965c-0.058 0.081-0.136 0.146-0.226 0.187l-0.004 0.001v9.794c0.2 0.090 0.338 0.288 0.338 0.518 0 0.044-0.005 0.086-0.014 0.127l0.001-0.004 1.49 1.518c0.054-0.024 0.118-0.038 0.185-0.038 0.020 0 0.040 0.001 0.060 0.004l-0.002-0 2.25-3.976c-0.041-0.067-0.065-0.147-0.065-0.233 0-0.071 0.016-0.138 0.045-0.197l-0.001 0.003c0.095-0.218 0.315-0.331 0.49-0.254zM26.314 18.95c0.038-0.088 0.011-0.183-0.059-0.214s-0.158 0.015-0.196 0.102-0.012 0.182 0.059 0.214c0.070 0.030 0.157-0.015 0.196-0.102zM23.649 23.742c0.080-0.080 0.094-0.198 0.031-0.264s-0.179-0.055-0.26 0.024c-0.080 0.080-0.094 0.199-0.031 0.265s0.18 0.055 0.26-0.025zM23.020 23.492l0.011-0.024-1.429-1.454c-0.081 0.051-0.179 0.082-0.285 0.082h-0c-0.22-0-0.41-0.13-0.498-0.317l-0.001-0.003h-1.918c-0.051 0.105-0.13 0.19-0.227 0.247l-0.003 0.001 0.187 2.707c0.074 0.032 0.14 0.078 0.19 0.135zM18.852 26.278l3.467-2.076-3.16 1.092c-0.044 0.162-0.159 0.29-0.309 0.35l-0.003 0.001-0.096 0.564c0.039 0.019 0.073 0.042 0.102 0.069l-0-0zM18.527 26.816c0.11-0.020 0.185-0.11 0.169-0.202-0.016-0.090-0.12-0.148-0.23-0.126-0.109 0.020-0.185 0.11-0.169 0.201 0.017 0.091 0.12 0.148 0.23 0.127zM18.023 26.418c0.066-0.108 0.168-0.19 0.288-0.229l0.004-0.001 0.091-0.535c-0.084-0.032-0.155-0.080-0.213-0.142l-0-0-3.978 0.642zM14.302 22.082l-1.294 3.817 5.016-0.81-3.549-3.080c-0.050 0.032-0.107 0.057-0.169 0.072l-0.004 0.001zM12.637 25.637l1.234-3.639c-0.081-0.057-0.145-0.132-0.187-0.22l-0.001-0.003h-2.256c-0.016 0.031-0.031 0.057-0.049 0.082l0.002-0.002zM12.484 26.372c0.11 0.024 0.214-0.030 0.232-0.12 0.020-0.090-0.053-0.183-0.163-0.208-0.11-0.023-0.214 0.030-0.233 0.12-0.019 0.092 0.054 0.184 0.164 0.208zM8.397 22.96l3.805 2.746-1.202-3.616c-0.021 0.003-0.046 0.005-0.071 0.005-0.159 0-0.301-0.067-0.402-0.174l-0-0-2.123 0.925c0.001 0.010 0.001 0.023 0.001 0.035 0 0.028-0.003 0.056-0.008 0.083l0-0.003zM8.041 22.362c0.057 0.026 0.107 0.057 0.151 0.094l-0.001-0.001 2.183-0.95c0.005-0.113 0.041-0.217 0.101-0.304l-0.001 0.002-3.376-3.489zM8.018 22.971c0.060-0.068 0.040-0.186-0.043-0.262-0.084-0.075-0.2-0.081-0.26-0.012-0.060 0.070-0.042 0.188 0.042 0.263s0.201 0.080 0.26 0.011zM6.228 18.638l1.162 2.693-0.779-3.838-0.307 0.654c0.016 0.050 0.025 0.107 0.025 0.166 0 0.121-0.038 0.234-0.102 0.327l0.001-0.002zM6.2 14.298l-0.14 3.352 0.278-0.59c-0.041-0.075-0.064-0.165-0.064-0.26 0-0.111 0.033-0.215 0.089-0.302l-0.001 0.002zM6 11.647c-0.038 0.108 0.003 0.22 0.088 0.251 0.086 0.030 0.184-0.032 0.221-0.14s-0.002-0.22-0.088-0.251c-0.086-0.030-0.184 0.032-0.222 0.14zM6.844 16.8c0-0.114-0.083-0.206-0.183-0.206-0.101 0-0.184 0.092-0.184 0.206s0.083 0.207 0.184 0.207c0.1 0 0.183-0.092 0.183-0.207zM6.614 11.914c-0.030 0.089-0.077 0.164-0.137 0.227l0-0 0.29 3.99 1.78-5.629-1.905 1.293c-0.006 0.045-0.016 0.085-0.029 0.124l0.001-0.005zM9.64 8.329l-2.434 2.55 1.247-0.846c0.018-0.119 0.069-0.224 0.143-0.308l-0.001 0.001c0.077-0.091 0.18-0.157 0.298-0.186l0.004-0.001zM10.894 7.122l-1.587 2.582c0.031 0.057 0.050 0.125 0.050 0.197 0 0.013-0.001 0.025-0.002 0.038l0-0.002 1.175 0.361c0.1-0.107 0.242-0.174 0.399-0.174 0.22 0 0.41 0.13 0.496 0.318l0.001 0.003h1.967c0.074-0.157 0.216-0.272 0.386-0.309l0.004-0.001 1.069-2.274c-0.055-0.072-0.094-0.16-0.11-0.256l-0-0.003-3.268-0.724c-0.074 0.106-0.18 0.185-0.304 0.223l-0.004 0.001c-0.053 0.018-0.114 0.028-0.178 0.028-0.034 0-0.066-0.003-0.098-0.008l0.003 0zM10.952 6.469c-0.107 0.033-0.172 0.132-0.146 0.22 0.027 0.089 0.135 0.133 0.241 0.1s0.173-0.132 0.146-0.22c-0.026-0.089-0.133-0.134-0.241-0.1zM17.2 5.705l-4.932 0.898 2.58 0.571c0.101-0.137 0.261-0.224 0.442-0.224 0.066 0 0.128 0.011 0.187 0.033l-0.004-0.001zM17.805 5.802l-1.839 1.36 5.045 0.14 0.011-0.038-2.674-1.524c-0.089 0.066-0.201 0.105-0.322 0.105-0.037 0-0.074-0.004-0.109-0.011l0.003 0.001c-0.044-0.008-0.082-0.019-0.119-0.034l0.004 0.001zM18.043 5.183c-0.11-0.020-0.213 0.038-0.228 0.13-0.015 0.090 0.060 0.18 0.171 0.2 0.11 0.020 0.212-0.038 0.228-0.13 0.016-0.090-0.061-0.18-0.171-0.2zM21.276 7.908c-0.069-0.043-0.127-0.097-0.174-0.16l-0.001-0.002-5.263-0.146c-0.005 0.035-0.012 0.066-0.022 0.095l0.001-0.003 2.124 2.449c0.035-0.008 0.076-0.013 0.118-0.013 0.221 0 0.411 0.129 0.501 0.315l0.001 0.003h2.257c0.056-0.118 0.149-0.211 0.263-0.267l0.003-0.001zM21.316 10.466c-0.121 0-0.22 0.102-0.22 0.227s0.099 0.226 0.22 0.226c0.123 0 0.223-0.101 0.223-0.226s-0.1-0.227-0.222-0.227zM21.415 7.266c-0.055 0.096-0.014 0.226 0.092 0.288 0.105 0.064 0.236 0.037 0.29-0.060 0.056-0.096 0.015-0.225-0.091-0.288s-0.236-0.036-0.291 0.060zM25.33 12.584l-3.627-4.587-0.183 2.169c0.195 0.081 0.333 0.263 0.35 0.478l0 0.002zM23.037 8.587l-0.814-0.546 2.627 3.42-1.278-2.287c-0.112-0.009-0.213-0.048-0.298-0.11l0.002 0.001c-0.17-0.121-0.26-0.31-0.24-0.478zM23.417 8.53c-0.052 0.076-0.020 0.19 0.072 0.256 0.091 0.065 0.208 0.057 0.26-0.020 0.052-0.075 0.020-0.19-0.071-0.255-0.093-0.065-0.209-0.057-0.26 0.020zM17.847 10.693c0 0.122 0.095 0.221 0.216 0.221 0.12-0.002 0.217-0.1 0.217-0.22 0-0 0-0.001 0-0.001v0c0-0.001 0-0.001 0-0.002 0-0.12-0.097-0.218-0.217-0.22h-0c-0.12 0.002-0.217 0.1-0.217 0.22 0 0.001 0 0.001 0 0.002v-0zM17.966 15.466c-0.123 0.001-0.222 0.101-0.222 0.224 0 0.001 0 0.001 0 0.002v-0c0 0.125 0.1 0.227 0.222 0.227 0.122-0.002 0.221-0.101 0.221-0.224 0-0.001 0-0.002-0-0.003v0c0-0.001 0-0.002 0-0.003 0-0.122-0.099-0.222-0.221-0.223h-0zM15.069 7.442c0 0.125 0.099 0.226 0.221 0.226 0.123-0.001 0.222-0.101 0.222-0.224 0-0.001 0-0.001 0-0.002v0c0-0.125-0.1-0.227-0.222-0.227-0.122 0.002-0.221 0.101-0.221 0.224 0 0.001 0 0.002 0 0.003v-0zM15.231 8.079l-1.014 2.155c0.141 0.105 0.232 0.271 0.232 0.458 0 0.106-0.029 0.206-0.080 0.291l0.001-0.003 3.38 4.19c0.027-0.012 0.059-0.022 0.092-0.029l0.004-0.001v-3.926c-0.202-0.089-0.34-0.288-0.34-0.519 0-0.109 0.031-0.211 0.084-0.297l-0.001 0.002-2.060-2.374c-0.071 0.035-0.154 0.056-0.242 0.056-0.020 0-0.039-0.001-0.058-0.003l0.002 0zM13.671 10.693c0 0.125 0.1 0.226 0.222 0.226s0.221-0.101 0.221-0.226-0.1-0.227-0.221-0.227c-0.123 0.002-0.222 0.102-0.222 0.225 0 0.001 0 0.001 0 0.002v-0zM10.711 10.693c0 0.122 0.096 0.221 0.216 0.221s0.217-0.099 0.217-0.221c0-0.123-0.097-0.222-0.217-0.222s-0.216 0.1-0.216 0.222zM10.927 21.303c-0.122 0.002-0.22 0.101-0.22 0.223 0 0.001 0 0.002 0 0.003v-0c0 0.125 0.098 0.226 0.22 0.226 0.123-0.001 0.222-0.101 0.222-0.224 0-0.001 0-0.001 0-0.002v0c0-0.001 0-0.002 0-0.003 0-0.123-0.099-0.222-0.222-0.223h-0zM8.731 9.843c-0.073 0.086-0.079 0.205-0.010 0.266 0.067 0.060 0.182 0.042 0.256-0.045 0.074-0.085 0.079-0.204 0.011-0.265s-0.182-0.042-0.257 0.044zM7.106 16.502c0.053 0.084 0.085 0.186 0.085 0.295 0 0.001 0 0.002 0 0.003v-0c0 0.11-0.030 0.212-0.082 0.295l3.602 3.722v-9.603c-0.195-0.088-0.33-0.278-0.337-0.5l-0-0.001-1.222-0.375c-0.037 0.033-0.078 0.062-0.123 0.085l-0.003 0.002zM18.4 20.962c0.239 0 0.442 0.155 0.52 0.37h1.878c0.053-0.146 0.161-0.261 0.298-0.323l0.004-0.001v-9.794c-0.141-0.063-0.249-0.178-0.301-0.32l-0.001-0.004h-2.216c-0.054 0.146-0.162 0.261-0.298 0.323l-0.004 0.001v4.010c0.146 0.105 0.24 0.274 0.24 0.465 0 0.001 0 0.002 0 0.003v-0c0 0.002 0 0.004 0 0.006 0 0.307-0.247 0.557-0.554 0.561h-0c-0.307-0.003-0.554-0.253-0.554-0.56 0-0.002 0-0.005 0-0.007v0c0-0.070 0.012-0.137 0.036-0.2l-3.428-4.248c-0.037 0.009-0.080 0.014-0.124 0.014-0.239 0-0.444-0.152-0.521-0.364l-0.001-0.004h-1.926c-0.054 0.146-0.162 0.261-0.299 0.323l-0.004 0.001v9.794c0.14 0.060 0.249 0.178 0.303 0.324h2.215c0.054-0.146 0.162-0.261 0.299-0.323l0.004-0.001v-4.070c-0.161-0.102-0.266-0.279-0.266-0.481 0-0 0-0.001 0-0.001v0c-0-0.002-0-0.005-0-0.007 0-0.308 0.248-0.557 0.555-0.56h0c0.308 0.001 0.558 0.251 0.558 0.56 0 0.073-0.014 0.143-0.039 0.207l0.001-0.004 3.483 4.33c0.043-0.012 0.092-0.019 0.142-0.020h0zM18.64 25.009c-0.12 0-0.22 0.090-0.22 0.202s0.1 0.201 0.22 0.201c0.123 0 0.223-0.090 0.223-0.2s-0.1-0.203-0.222-0.203zM18.179 21.529c0 0.125 0.099 0.226 0.22 0.226 0.123-0.001 0.223-0.101 0.223-0.224 0-0.001 0-0.001 0-0.002v0c0-0.001 0-0.001 0-0.002 0-0.123-0.099-0.223-0.222-0.224h-0c-0.122 0.002-0.221 0.101-0.221 0.224 0 0.001 0 0.001 0 0.002v-0zM14.032 16.456c0 0.125 0.1 0.226 0.222 0.226s0.221-0.101 0.221-0.226c0-0.126-0.099-0.226-0.221-0.226s-0.222 0.1-0.222 0.226zM14.182 21.303c-0.123 0.001-0.222 0.101-0.222 0.224 0 0.001 0 0.001 0 0.002v-0c0 0.125 0.1 0.226 0.222 0.226s0.221-0.101 0.221-0.226c0-0.001 0-0.002 0-0.003 0-0.122-0.099-0.222-0.221-0.223h-0zM14.398 21.008c0.201 0.090 0.339 0.288 0.339 0.518 0 0.042-0.005 0.083-0.013 0.122l0.001-0.004 3.593 3.117c0.029-0.017 0.063-0.033 0.099-0.046l0.004-0.001-0.184-2.644c-0.228-0.077-0.39-0.289-0.39-0.539 0-0.001 0-0.002 0-0.003v0c0-0.1 0.025-0.193 0.070-0.273l-3.443-4.28c-0.021 0.009-0.046 0.018-0.072 0.025l-0.003 0.001zM21.538 21.528c0-0.001 0-0.001 0-0.002 0-0.122-0.099-0.222-0.221-0.223h-0c-0.123 0.001-0.222 0.101-0.222 0.224 0 0.001 0 0.001 0 0.002v-0c0 0.125 0.1 0.226 0.222 0.226s0.222-0.101 0.222-0.226zM5.828 18.507c0.090-0.015 0.147-0.119 0.128-0.231s-0.107-0.192-0.196-0.176c-0.090 0.015-0.146 0.12-0.127 0.232 0.018 0.113 0.106 0.192 0.195 0.175zM25.8 12.793c-0.072 0.023-0.11 0.117-0.083 0.208s0.108 0.146 0.18 0.123c0.074-0.023 0.11-0.117 0.084-0.208-0.026-0.092-0.108-0.146-0.18-0.123z"></path>
</svg>
