<!-- Generated by IcoMoon.io -->
<svg version="1.1" xmlns="http://www.w3.org/2000/svg" width="32" height="32" viewBox="0 0 32 32">
<title>ndz</title>
<path fill="#622fba" d="M32 16c0 8.837-7.163 16-16 16s-16-7.163-16-16c0-8.837 7.163-16 16-16s16 7.163 16 16z"></path>
<path fill="#fff" d="M18.586 17.376c-0.087 0.027-0.171 0.060-0.253 0.098l-3.676-3.821c0.161-0.274 0.256-0.603 0.256-0.955 0-0.872-0.584-1.607-1.382-1.836l-0.013-0.003v-2.673l-0.984-0.55 2.273-1.315c0.342-0.202 0.754-0.321 1.194-0.321s0.852 0.119 1.205 0.327l-0.011-0.006 4.519 2.616-1.786 1.033c-0.228-0.104-0.494-0.164-0.775-0.164-1.055 0-1.911 0.856-1.911 1.911 0 0 0 0 0 0v0c0 0.853 0.56 1.575 1.331 1.82l0.014 0.004zM19.724 17.376v-3.836c0.785-0.249 1.344-0.971 1.344-1.824 0-0.349-0.094-0.676-0.257-0.958l0.005 0.009 2.030-1.174 0.97 0.56c0.713 0.418 1.184 1.181 1.184 2.053 0 0 0 0.001 0 0.001v-0 7.586c0 0.846-0.451 1.628-1.185 2.053l-4.090 2.368v-3.192c0.783-0.25 1.34-0.972 1.34-1.823s-0.557-1.573-1.327-1.819l-0.014-0.004zM17.497 18.245c-0.16 0.273-0.255 0.602-0.255 0.953 0 0.853 0.559 1.575 1.33 1.82l0.014 0.004v3.851l-1.392 0.806c-0.342 0.202-0.754 0.321-1.194 0.321s-0.852-0.119-1.205-0.327l0.011 0.006-4.866-2.816 1.828-1.428c0.33 0.278 0.759 0.447 1.228 0.447 0.001 0 0.002 0 0.003 0h-0c0.001 0 0.002 0 0.003 0 1.055 0 1.91-0.855 1.911-1.91v-0c-0.001-0.872-0.585-1.606-1.384-1.835l-0.013-0.003v-3.598c0.105-0.029 0.207-0.067 0.304-0.113zM12.379 18.166c-0.758 0.265-1.293 0.974-1.293 1.808 0 0.178 0.024 0.35 0.070 0.514l-0.003-0.013-2.271 1.776-0.697-0.403c-0.713-0.418-1.185-1.181-1.185-2.054 0-0 0-0 0-0v0-7.586c0-0.846 0.451-1.628 1.185-2.053l3.205-1.856 0.99 0.553v2.040c-0.757 0.265-1.29 0.974-1.29 1.807s0.533 1.541 1.276 1.802l0.013 0.004zM13 13.523c-0.009 0-0.019 0.001-0.030 0.001-0.457 0-0.827-0.37-0.827-0.827s0.37-0.827 0.827-0.827c0.010 0 0.019 0 0.029 0.001l-0.001-0c0.445 0.015 0.799 0.38 0.799 0.827s-0.354 0.81-0.796 0.826l-0.002 0zM13 20.798c-0.009 0-0.019 0.001-0.030 0.001-0.457 0-0.827-0.37-0.827-0.827s0.37-0.827 0.827-0.827c0.010 0 0.019 0 0.029 0l-0.001-0c0.445 0.015 0.799 0.38 0.799 0.827s-0.354 0.81-0.796 0.826l-0.002 0zM19.155 12.543c-0.009 0-0.019 0.001-0.030 0.001-0.457 0-0.827-0.37-0.827-0.827s0.37-0.827 0.827-0.827c0.010 0 0.019 0 0.029 0.001l-0.001-0c0.445 0.015 0.799 0.38 0.799 0.827s-0.354 0.81-0.796 0.826l-0.002 0zM19.155 20.025c-0 0-0.001 0-0.001 0-0.457 0-0.827-0.37-0.827-0.827s0.37-0.826 0.826-0.827h0c0 0 0.001 0 0.001 0 0.457 0 0.827 0.37 0.827 0.827s-0.37 0.826-0.826 0.827h-0z"></path>
</svg>
