<!-- Generated by IcoMoon.io -->
<svg version="1.1" xmlns="http://www.w3.org/2000/svg" width="32" height="32" viewBox="0 0 32 32">
<title>nebl</title>
<path fill="#50479e" d="M32 16c0 8.837-7.163 16-16 16s-16-7.163-16-16c0-8.837 7.163-16 16-16s16 7.163 16 16z"></path>
<path fill="#fff" d="M20.36 13.66v4.784l-4.307 2.367v-4.782l4.306-2.367zM25.5 12.434v7.131c0 0.507-0.14 1.003-0.403 1.434-0.26 0.43-0.637 0.795-1.104 1.052l-3.212 1.765v-4.706l0.406-0.223v-5.679l3.934-2.163c0.244 0.42 0.379 0.895 0.379 1.39zM8.007 22.051c-0.442-0.245-0.805-0.585-1.068-0.995l-0.007-0.012c-0.27-0.418-0.431-0.929-0.432-1.478v-4.566l4.424 3.455v0.192l0.007 0.198 0.344 0.203 4.78 2.628v4.324c-0.019 0-0.040 0.001-0.062 0.001-0.55 0-1.067-0.142-1.516-0.391l0.016 0.008-6.486-3.568zM7.823 10.060l4.677-2.56 3.18 3.080-4.756 2.623v0.4l-4.414 2.424-0.010-3.594c0-0.507 0.14-1.005 0.405-1.436 0.232-0.38 0.546-0.7 0.918-0.938zM23.993 9.949c0.472 0.261 0.854 0.633 1.121 1.081l0.007 0.014-3.934 2.163v-0.036l-4.74-2.605 4.334-2.383 3.212 1.766zM6.51 16.029l4.414-2.427v4.853l-4.414-2.427zM16.055 10.38v-4.38c0.534 0.008 1.033 0.149 1.468 0.391l-0.016-0.008 3.274 1.8-4.334 2.382-0.392-0.185zM15.691 10.58l-4.408-2.422 3.402-1.871c0.385-0.182 0.837-0.288 1.313-0.288 0.020 0 0.040 0 0.060 0.001l-0.003-0v4.38l-0.364 0.2zM16.083 21.691l0.364-0.2 4.282 2.354-3.222 1.772c-0.419 0.233-0.918 0.374-1.45 0.382l-0.002 0v-4.323l0.028 0.015zM20.781 19.109v4.707l-0.052 0.029-4.282-2.354 4.334-2.382z"></path>
</svg>
