<!-- Generated by IcoMoon.io -->
<svg version="1.1" xmlns="http://www.w3.org/2000/svg" width="32" height="32" viewBox="0 0 32 32">
<title>neu</title>
<path fill="#b3ba00" d="M16 32c-8.837 0-16-7.163-16-16s7.163-16 16-16 16 7.163 16 16-7.163 16-16 16zM16 4c-6.625 0-12 5.375-12 12s5.375 12 12 12 12-5.375 12-12-5.375-12-12-12zM15.95 23.62l-6.476-3.84v-7.668l6.477-3.83 6.476 3.83v7.669l-6.476 3.838zM13.025 10.748l-0.132 0.082 6.107 9.65v-9.658l-3.050-1.808-2.925 1.734zM12.827 21.030l3.124 1.858 2.852-1.693-5.976-9.444v9.28zM10.1 12.482v6.937l2.178 1.29v-9.517l-2.178 1.29zM19.552 20.751l2.252-1.332v-6.937l-2.252-1.331v9.6z"></path>
</svg>
