<!-- Generated by IcoMoon.io -->
<svg version="1.1" xmlns="http://www.w3.org/2000/svg" width="32" height="32" viewBox="0 0 32 32">
<title>nexo</title>
<path fill="#1a4199" d="M32 16c0 8.837-7.163 16-16 16s-16-7.163-16-16c0-8.837 7.163-16 16-16s16 7.163 16 16z"></path>
<path fill="#fff" opacity="0.7" d="M10.676 7.125l10.732 6.191v6.319l-16.408-9.476 5.265-3.034c0.060-0.035 0.133-0.056 0.21-0.056s0.15 0.021 0.212 0.057l-0.002-0.001z"></path>
<path fill="#fff" opacity="0.9" d="M21.408 7l-5.467 3.16 5.467 3.156z"></path>
<path fill="#fff" d="M21.408 7l5.264 3.036c0.131 0.072 0.219 0.209 0.22 0.367v12.389l-5.484-3.157v-12.635z"></path>
<path fill="#fff" opacity="0.9" d="M26.881 22.792l-5.264 3.033c-0.061 0.034-0.133 0.053-0.21 0.053s-0.149-0.020-0.212-0.055l0.002 0.001-10.732-6.19v-6.328l16.416 9.485z"></path>
<path fill="#fff" opacity="0.6" d="M5 10.16v12.387c0 0.158 0.088 0.296 0.218 0.367l0.002 0.001 5.265 3.036v-12.644l-5.485-3.147z"></path>
<path fill="#fff" opacity="0.7" d="M10.476 25.95l5.465-3.158-5.465-3.157z"></path>
</svg>
