<!-- Generated by IcoMoon.io -->
<svg version="1.1" xmlns="http://www.w3.org/2000/svg" width="32" height="32" viewBox="0 0 32 32">
<title>ngc</title>
<path fill="#f80000" d="M32 16c0 8.837-7.163 16-16 16s-16-7.163-16-16c0-8.837 7.163-16 16-16s16 7.163 16 16z"></path>
<path fill="#fff" d="M20.5 16.842l-6.696 9.158 0.247-7.441h-1.551l0.634-6.532 7.084-0.976-2.326 5.925zM15.002 23.34v-1.75c0-0.13-0.11-0.236-0.246-0.236s-0.247 0.105-0.247 0.235v1.751c0 0.13 0.11 0.236 0.247 0.236s0.246-0.106 0.246-0.236zM13.17 18.054h1.41l-0.065 2.693c-0.001 0.071 0.027 0.14 0.079 0.19s0.123 0.080 0.197 0.080h0.012c0.002 0 0.003 0 0.005 0 0.145 0 0.263-0.114 0.27-0.257l0-0.001 0.065-3.177h-1.41l0.473-5.219c0.005-0.060-0.016-0.12-0.059-0.165s-0.103-0.070-0.167-0.070h-0.040c-0.001-0-0.003-0-0.005-0-0.114 0-0.208 0.086-0.221 0.196l-0 0.001zM13.17 11.454l2.608-2.154c0.14-2.155-1.27-2.492-1.27-2.492l0.212-0.808c2.326 0.673 1.974 3.232 1.974 3.232l3.383 1.414z"></path>
</svg>
