<!-- Generated by IcoMoon.io -->
<svg version="1.1" xmlns="http://www.w3.org/2000/svg" width="32" height="32" viewBox="0 0 32 32">
<title>nlc2</title>
<path fill="#f28f01" d="M32 16c0 8.837-7.163 16-16 16s-16-7.163-16-16c0-8.837 7.163-16 16-16s16 7.163 16 16z"></path>
<path fill="#fff" d="M18.151 13.719l-1.941-3.816c0.404-0.88 0.606-1.38 0.606-1.495 0-0.413-0.272-0.715-0.815-0.908h5.948c-0.733 0.33-1.385 1.155-1.955 2.476zM15.235 19.647l-0.905 1.84h5.337c2.417 0 4.033-0.453 4.848-1.36l-2.852 4.373h-14.585c1.575-0.303 3.164-2.2 4.766-5.694 0.54-1.074 1.035-2.066 1.487-2.974zM5 20.25c1.181-0.701 5.5-8.172 5.5-10.274 0-0.495-0.299-0.963-0.896-1.403h4.644l4.033 7.922 3.912-7.922h4.807c-2.037 0.536-6.070 10.146-6.070 11.264 0 0.22 0.040 0.358 0.122 0.413h-4.237l-3.626-7.262-3.585 7.262z"></path>
</svg>
