<!-- Generated by IcoMoon.io -->
<svg version="1.1" xmlns="http://www.w3.org/2000/svg" width="32" height="32" viewBox="0 0 32 32">
<title>nlg</title>
<path fill="#2ab0fd" d="M32 16c0 8.837-7.163 16-16 16s-16-7.163-16-16c0-8.837 7.163-16 16-16s16 7.163 16 16z"></path>
<path fill="#fff" d="M25.515 14.804c0.165-0.002 0.27 0.020 0.336 0.080 0.070 0.064 0.098 0.168 0.113 0.331 0.466 5.379-3.602 10.241-8.998 10.74-5.564 0.515-10.394-3.5-10.922-9.080-0.514-5.419 3.555-10.335 8.986-10.829 3.076-0.28 5.732 0.686 7.968 2.816 0.023 0.022 0.018 0.114-0.008 0.14-0.509 0.518-1.004 1.014-1.503 1.505l-0.017 0.016c-0.029 0.028-0.133 0.024-0.165-0.005-2.307-2.114-4.98-2.74-7.903-1.675-2.956 1.077-4.647 3.307-4.982 6.447-0.45 4.249 2.757 7.994 7.035 8.317 3.878 0.292 7.392-2.453 8.035-6.285 0.006-0.038-0.080-0.133-0.124-0.133-2.395-0.007-4.79-0.005-7.184-0.014-0.062 0-0.177-0.115-0.179-0.178-0.006-0.299-0.009-0.651-0.009-1.004s0.003-0.705 0.010-1.057l-0.001 0.053c0.001-0.060 0.108-0.168 0.167-0.169 1.596-0.009 7.826 0.005 9.344-0.017z"></path>
</svg>
