<!-- Generated by IcoMoon.io -->
<svg version="1.1" xmlns="http://www.w3.org/2000/svg" width="32" height="32" viewBox="0 0 32 32">
<title>npxs</title>
<path fill="#f5d100" d="M16 32c-8.837 0-16-7.163-16-16s7.163-16 16-16 16 7.163 16 16-7.163 16-16 16zM15.972 4c-6.6 0-11.972 5.372-11.972 11.972s5.372 11.982 11.982 11.982c6.609 0 11.981-5.372 11.981-11.982s-5.381-11.972-11.99-11.972zM15.972 27.030c-6.092 0-11.058-4.956-11.058-11.058 0.010-6.092 4.966-11.049 11.058-11.049s11.059 4.957 11.059 11.059c0 6.092-4.957 11.049-11.059 11.049zM9.774 10.658l4.686 4.686 0.882-0.881-4.687-4.687-0.881 0.882zM16.592 17.478l4.686 4.687 0.882-0.882-4.687-4.686-0.881 0.881zM15.096 15.976l0.888 0.888 0.881-0.881-0.887-0.888-0.882 0.881zM16.605 14.502l0.881 0.88 4.687-4.686-0.882-0.88-4.686 4.686zM9.808 21.29l0.88 0.881 4.687-4.686-0.881-0.881-4.686 4.686z"></path>
</svg>
