<!-- Generated by IcoMoon.io -->
<svg version="1.1" xmlns="http://www.w3.org/2000/svg" width="32" height="32" viewBox="0 0 32 32">
<title>nuls</title>
<path fill="#82bd39" d="M32 16c0 8.837-7.163 16-16 16s-16-7.163-16-16c0-8.837 7.163-16 16-16s16 7.163 16 16z"></path>
<path fill="#fff" d="M14.403 19.36l1.597 2.104v4.536l-6-2.663v-11.718c0-0.173 0.077-0.338 0.212-0.453l0.683-0.585c0.111-0.096 0.257-0.155 0.416-0.155 0.206 0 0.39 0.098 0.506 0.25l0.001 0.002 5.465 7.164 3.019 1.846v-9.88l-2.668-1.331-0.13 6.196-1.412-1.873-0.064-6.8 5.972 2.779v11.664l-1.357 1.118-4.274-2.387-4.744-6.223-0.065 9.454 2.825 1.447z"></path>
</svg>
