<!-- Generated by IcoMoon.io -->
<svg version="1.1" xmlns="http://www.w3.org/2000/svg" width="32" height="32" viewBox="0 0 32 32">
<title>nxs</title>
<path fill="#4099cd" d="M32 16c0 8.837-7.163 16-16 16s-16-7.163-16-16c0-8.837 7.163-16 16-16s16 7.163 16 16z"></path>
<path fill="#fff" d="M2.005 23.76c0.605-1.764 1.771-3.674 3.395-5.56-0.251-0.331-0.402-0.749-0.402-1.202 0-1.105 0.895-2 2-2 0.448 0 0.862 0.147 1.195 0.396l-0.005-0.004c1.221-1.080 2.561-2.103 3.971-3.027l0.133-0.082c6.934-4.503 14.262-5.94 17.836-3.798 0.982 1.806 1.635 3.926 1.817 6.18l0.004 0.056c-1.154 3.778-4.966 8.292-10.398 11.82-3.747 2.433-7.61 3.972-10.933 4.533-3.713-1.357-6.709-3.932-8.571-7.232l-0.042-0.080zM5.755 18.565c-2.344 2.708-3.283 5.494-2.147 7.244 1.716 2.643 7.52 1.92 12.961-1.613 5.442-3.534 8.462-8.542 6.746-11.185s-7.52-1.92-12.962 1.613c-0.603 0.392-1.177 0.802-1.717 1.225 0.228 0.32 0.365 0.72 0.365 1.151 0 1.105-0.895 2-2 2-0.473 0-0.907-0.164-1.249-0.438l0.004 0.003z"></path>
</svg>
