<!-- Generated by IcoMoon.io -->
<svg version="1.1" xmlns="http://www.w3.org/2000/svg" width="32" height="32" viewBox="0 0 32 32">
<title>nxt</title>
<path fill="#008fbb" d="M32 16c0 8.837-7.163 16-16 16s-16-7.163-16-16c0-8.837 7.163-16 16-16s16 7.163 16 16z"></path>
<path fill="#fff" d="M26.082 16.833c-0.507 0-0.918-0.373-0.918-0.833v-0.834h-4.612c-0.507 0-0.918-0.373-0.918-0.833s0.411-0.833 0.918-0.833h5.53c0.507 0 0.918 0.373 0.918 0.833v1.667c0 0.46-0.41 0.833-0.918 0.833zM21.533 16.833h1.835c0.507 0 0.918 0.373 0.918 0.833s-0.41 0.834-0.918 0.834h-2.816c-0.001 0-0.002 0-0.003 0-0.153 0-0.297-0.035-0.426-0.097l0.006 0.003-5.352-3.24h-1.542c-0.507 0-0.918-0.373-0.918-0.833s0.41-0.833 0.918-0.833h1.835c0.198 0 0.381 0.057 0.531 0.154l5.232 3.18h0.7zM15.070 16.833c0.507 0 0.918 0.373 0.918 0.833s-0.411 0.834-0.918 0.834h-1.835c-0.001 0-0.002 0-0.002 0-0.153 0-0.297-0.035-0.427-0.097l0.006 0.003-5.352-3.24h-1.542c-0.507 0-0.918-0.373-0.918-0.833s0.41-0.833 0.918-0.833h1.835c0.001 0 0.002 0 0.004 0 0.196 0 0.378 0.057 0.531 0.156l-0.004-0.002 5.232 3.18h1.554zM5.918 16.833h1.835c0.507 0 0.918 0.373 0.918 0.834s-0.411 0.833-0.918 0.833h-1.835c-0.507 0-0.918-0.373-0.918-0.833s0.41-0.834 0.918-0.834z"></path>
</svg>
