<!-- Generated by IcoMoon.io -->
<svg version="1.1" xmlns="http://www.w3.org/2000/svg" width="32" height="32" viewBox="0 0 32 32">
<title>oax</title>
<path fill="#164b79" d="M32 16c0 8.837-7.163 16-16 16s-16-7.163-16-16c0-8.837 7.163-16 16-16s16 7.163 16 16z"></path>
<path fill="#fff" d="M14.090 18.668l-0.623 1.33h-1.382l3.753-7.998 2.503 5.333h-1.415l-1.12-2.315-1.122 2.354zM19.544 19.968l2.93-3.95-2.951-3.98h1.615l2.141 2.91-0.779 1.070 0.779 1.070-2.14 2.91h-2.963l-0.626-1.33h1.382zM24.070 16.001l-0.791-1.087 2.141-2.91h1.58zM24.070 16.001l2.93 3.998h-1.58l-2.14-2.91zM11.422 13.159c0.673 0.709 1.087 1.67 1.087 2.727 0 0.041-0.001 0.081-0.002 0.122l0-0.006c0 0.016 0 0.035 0 0.054 0 1.077-0.412 2.057-1.088 2.791l0.003-0.003c-0.722 0.809-1.615 1.156-2.668 1.156-0.011 0-0.023 0-0.036 0-1.040 0-1.977-0.444-2.63-1.154l-0.002-0.003c-0.673-0.714-1.087-1.68-1.087-2.742 0-0.035 0-0.071 0.001-0.106l-0 0.005c-0-0.023-0.001-0.050-0.001-0.077 0-0.836 0.259-1.611 0.7-2.251l-0.009 0.013 0.92 0.98c-0.227 0.397-0.36 0.873-0.36 1.38 0 0.726 0.274 1.388 0.724 1.888l-0.002-0.003c0.438 0.494 1.072 0.805 1.779 0.81h0.001c0.672 0 1.314-0.293 1.78-0.81 0.448-0.474 0.724-1.115 0.724-1.82 0-0.026-0-0.052-0.001-0.079l0 0.004c0-0.003 0-0.006 0-0.009 0-0.727-0.275-1.389-0.726-1.889l0.002 0.002c-0.429-0.474-1.046-0.77-1.732-0.77-0.017 0-0.033 0-0.050 0.001l0.002-0c-0.018-0.001-0.039-0.001-0.060-0.001-0.442 0-0.853 0.131-1.197 0.356l0.008-0.005-0.92-0.98c0.576-0.459 1.315-0.736 2.119-0.736 0.019 0 0.038 0 0.057 0l-0.003-0c0.019-0 0.041-0.001 0.063-0.001 1.031 0 1.958 0.444 2.6 1.152l0.003 0.003z"></path>
</svg>
