<!-- Generated by IcoMoon.io -->
<svg version="1.1" xmlns="http://www.w3.org/2000/svg" width="32" height="32" viewBox="0 0 32 32">
<title>omni</title>
<path fill="#1c347a" d="M32 16c0 8.837-7.163 16-16 16s-16-7.163-16-16c0-8.837 7.163-16 16-16s16 7.163 16 16z"></path>
<path fill="#fff" d="M10.065 6.888c-1.282 0.845-2.347 1.912-3.165 3.155l-0.025 0.041v-3.196zM25.069 9.998c-0.835-1.247-1.879-2.283-3.093-3.085l-0.041-0.025h3.134zM21.981 25.082c1.234-0.822 2.263-1.848 3.063-3.041l0.025-0.039v3.080zM6.875 21.916c0.833 1.269 1.882 2.325 3.104 3.141l0.040 0.025h-3.144zM26 16c0 5.514-4.486 10-10 10s-10-4.486-10-10 4.486-10 10-10 10 4.486 10 10zM16 23.292c4.020 0 7.292-3.271 7.292-7.292 0-4.020-3.271-7.292-7.292-7.292-4.020 0-7.292 3.271-7.292 7.292 0 4.020 3.271 7.292 7.292 7.292z"></path>
</svg>
