<!-- Generated by IcoMoon.io -->
<svg version="1.1" xmlns="http://www.w3.org/2000/svg" width="32" height="32" viewBox="0 0 32 32">
<title>ong</title>
<path fill="#000" d="M32 16c0 8.837-7.163 16-16 16s-16-7.163-16-16c0-8.837 7.163-16 16-16s16 7.163 16 16z"></path>
<path fill="#fff" d="M15.943 26.311c5.74 0 10.088-3.846 10.99-8.878h-4.897c-0.732 2.672-3.004 4.628-6.035 4.628-3.009 0-5.31-1.97-6.073-4.628h-4.928c0.869 5.050 5.18 8.878 10.943 8.878z"></path>
<path fill="#fff" d="M18.498 7.527c0 1.396-1.131 2.527-2.527 2.527s-2.527-1.131-2.527-2.527c0-1.396 1.131-2.527 2.527-2.527s2.527 1.131 2.527 2.527z"></path>
<path fill="#fff" d="M9.655 17.433v-0.050c0-3.593 2.574-6.526 6.285-6.526 3.712 0 6.34 2.983 6.346 6.576h-12.631z"></path>
</svg>
