<!-- Generated by IcoMoon.io -->
<svg version="1.1" xmlns="http://www.w3.org/2000/svg" width="32" height="32" viewBox="0 0 32 32">
<title>ont</title>
<path fill="#32a4be" d="M32 16c0 8.837-7.163 16-16 16s-16-7.163-16-16c0-8.837 7.163-16 16-16s16 7.163 16 16z"></path>
<path fill="#fff" d="M25 24.217l-15.023-14.696c1.597-1.559 3.784-2.521 6.195-2.521 0.010 0 0.020 0 0.030 0h-0.002c4.86 0 8.8 3.854 8.8 8.609zM7 7.783l15.023 14.696c-1.597 1.559-3.784 2.521-6.195 2.521-0.010 0-0.020-0-0.030-0h0.002c-4.86 0-8.8-3.854-8.8-8.609z"></path>
</svg>
