<!-- Generated by IcoMoon.io -->
<svg version="1.1" xmlns="http://www.w3.org/2000/svg" width="32" height="32" viewBox="0 0 32 32">
<title>oot</title>
<path fill="#25aae1" d="M32 16c0 8.837-7.163 16-16 16s-16-7.163-16-16c0-8.837 7.163-16 16-16s16 7.163 16 16z"></path>
<path fill="#fff" d="M16.346 24.993c-1.64 0.018-3.017-0.278-4.315-0.923-0.080-0.040-0.14-0.042-0.22 0.003-0.736 0.424-1.596 0.727-2.513 0.858l-0.038 0.004c-0.384 0.050-0.772 0.104-1.158 0.025-0.633-0.128-1.103-0.679-1.103-1.34 0-0.355 0.135-0.678 0.357-0.921l-0.001 0.001c0.443-0.501 0.788-1.099 1-1.758l0.010-0.035c0.008-0.022 0.013-0.048 0.013-0.075 0-0.047-0.015-0.091-0.041-0.126l0 0.001c-0.678-1.060-1.134-2.324-1.274-3.681l-0.003-0.037c-0.294-2.922 0.615-5.425 2.71-7.477 1.277-1.265 2.95-2.132 4.817-2.399l0.046-0.005c2.537-0.371 4.849 0.215 6.88 1.788 1.812 1.404 2.94 3.253 3.333 5.511 0.498 2.858-0.223 5.404-2.14 7.58-1.417 1.608-3.217 2.563-5.335 2.902-0.402 0.065-0.81 0.083-1.026 0.104zM9.916 22.605c0.065-0.018 0.103-0.028 0.14-0.040 0.608-0.208 1.136-0.485 1.612-0.829l-0.018 0.012c0.352-0.248 0.699-0.26 1.070-0.048 0.796 0.456 1.649 0.74 2.564 0.837 1.487 0.159 2.89-0.124 4.145-0.93 2.17-1.392 3.25-3.396 3.133-5.991-0.075-1.662-0.726-3.097-1.905-4.266-1.421-1.408-3.15-2.050-5.153-1.912-1.35 0.094-2.57 0.558-3.609 1.425-2.013 1.68-2.79 3.834-2.344 6.417 0.146 0.85 0.485 1.63 0.963 2.35 0.127 0.177 0.203 0.398 0.203 0.636 0 0.093-0.012 0.183-0.033 0.269l0.002-0.008c-0.13 0.557-0.294 1.041-0.501 1.502l0.021-0.052c-0.089 0.203-0.185 0.402-0.288 0.627zM16.007 12.193l0.57 1.157c0.2 0.41 0.406 0.82 0.6 1.234 0.050 0.108 0.117 0.146 0.229 0.161 0.84 0.117 1.679 0.24 2.518 0.361 0.029 0.005 0.058 0.013 0.094 0.020-0.155 0.16-0.299 0.316-0.45 0.463-0.474 0.463-0.949 0.924-1.427 1.382-0.083 0.080-0.116 0.155-0.094 0.278 0.15 0.843 0.29 1.688 0.432 2.533 0.003 0.021 0.003 0.043 0.006 0.084-0.046-0.018-0.081-0.029-0.113-0.046-0.742-0.391-1.485-0.781-2.224-1.178-0.1-0.054-0.178-0.059-0.282-0.003-0.744 0.397-1.491 0.788-2.238 1.18-0.030 0.017-0.062 0.030-0.12 0.058 0.037-0.227 0.069-0.43 0.104-0.632 0.118-0.682 0.235-1.365 0.36-2.046 0.018-0.1-0.038-0.147-0.094-0.202-0.5-0.492-1.083-1.063-1.668-1.633l-0.122-0.119c-0.034-0.034-0.082-0.053-0.124-0.079l0.031-0.048 0.916-0.132c0.576-0.082 1.151-0.166 1.728-0.245 0.092-0.013 0.134-0.062 0.172-0.14 0.377-0.769 0.758-1.536 1.137-2.304 0.014-0.027 0.030-0.052 0.060-0.104z"></path>
</svg>
