<!-- Generated by IcoMoon.io -->
<svg version="1.1" xmlns="http://www.w3.org/2000/svg" width="32" height="32" viewBox="0 0 32 32">
<title>pac</title>
<path fill="#f5eb16" d="M32 16c0 8.837-7.163 16-16 16s-16-7.163-16-16c0-8.837 7.163-16 16-16s16 7.163 16 16z"></path>
<path fill="#fff" d="M15.935 4c-6.593 0.001-11.935 5.347-11.935 11.94 0.001 6.592 5.347 11.936 11.94 11.935 6.592-0.002 11.936-5.347 11.935-11.94-0.001-6.592-5.345-11.935-11.937-11.935-0.001 0-0.002 0-0.003 0h0zM11.088 9.23c0.002-0.067 0.056-0.12 0.123-0.12 0.001 0 0.001 0 0.002 0h4.973c0.039-0.001 0.085-0.001 0.131-0.001 1.050 0 2.046 0.232 2.939 0.647l-0.043-0.018c0.18 0.088 0.357 0.186 0.528 0.292l-3.237 1.853h-1.689c-0.067 0.002-0.12 0.056-0.12 0.123 0 0.001 0 0.002 0 0.003v-0 0.932l-3.607 2.086v-5.797zM9.749 19.708l-2.162-2.184 7.12-4.108v2.662c0.002 0.067 0.056 0.12 0.123 0.12 0.001 0 0.001 0 0.002-0h1.017l-6.1 3.51zM20.411 17.678c-1.044 0.872-2.477 1.308-4.299 1.308h-1.297c-0.068 0-0.123 0.055-0.123 0.123v0 2.688l-1.81 1.042-1.69 0.977-0.107 0.060v-4.455l5.603-3.224c0.5-0.016 0.952-0.207 1.299-0.515l-0.002 0.002c0.125-0.124 0.231-0.266 0.313-0.423l0.005-0.009 3.578-2.071c0.060 0.328 0.090 0.66 0.089 0.994 0.004 1.463-0.516 2.63-1.56 3.503zM18.491 14.659c0.024-0.153 0.036-0.309 0.037-0.464 0.002-0.036 0.003-0.078 0.003-0.12 0-0.594-0.214-1.137-0.569-1.558l0.003 0.004c-0.215-0.238-0.491-0.419-0.802-0.517l-0.013-0.004 4.973-2.871 2.182 2.183-5.814 3.347z"></path>
</svg>
