<!-- Generated by IcoMoon.io -->
<svg version="1.1" xmlns="http://www.w3.org/2000/svg" width="32" height="32" viewBox="0 0 32 32">
<title>part</title>
<path fill="#03e8b0" d="M16 32c-8.837 0-16-7.163-16-16s7.163-16 16-16 16 7.163 16 16-7.163 16-16 16zM15.424 6.173c-0.61 0.235-0.712 1.118-0.214 1.525 0.802 0.707 1.541 1.484 2.314 2.224 0.294 0.292 0.763 0.45 1.147 0.24 0.5-0.223 0.648-0.956 0.28-1.356-0.637-0.672-1.297-1.3-1.989-1.891l-0.035-0.030c-0.398-0.398-0.858-0.992-1.502-0.712zM22.458 8.224c-0.959 0.81-1.733 1.809-2.61 2.701-0.39 0.393-0.25 1.17 0.267 1.384 0.358 0.165 0.805 0.083 1.058-0.223 0.695-0.725 1.39-1.45 2.105-2.156 0.326-0.308 0.623-0.766 0.438-1.23-0.121-0.52-0.82-0.71-1.258-0.476zM8.49 8.37c-0.406 0.285-0.512 0.959-0.156 1.326 0.63 0.645 1.266 1.285 1.96 1.86 0.396 0.32 0.71 0.906 1.302 0.815 0.707-0.003 1.060-0.996 0.554-1.464-0.766-0.753-1.547-1.492-2.305-2.257-0.337-0.373-0.9-0.555-1.355-0.28zM9.078 12.89c-1.065 0.722-1.802 1.846-2.73 2.735-0.515 0.477-0.16 1.46 0.547 1.487 0.604 0.073 0.942-0.5 1.305-0.874 0.614-0.693 1.347-1.284 1.91-2.018 0.476-0.663-0.269-1.625-1.032-1.33zM24.554 15.017c-0.672 0.583-1.226 1.3-1.882 1.909-0.396 0.428-1.024 0.843-0.913 1.512 0.085 0.648 0.97 0.962 1.443 0.515 0.65-0.611 1.254-1.246 1.82-1.915l0.028-0.033c0.325-0.4 0.915-0.714 0.838-1.308-0.017-0.633-0.81-1.023-1.334-0.68zM11.069 19.72c-0.755 0.659-1.392 1.443-2.125 2.129-0.378 0.367-0.874 0.838-0.672 1.423 0.118 0.605 1.008 0.808 1.425 0.386 0.642-0.625 1.277-1.258 1.848-1.948 0.323-0.399 0.914-0.716 0.82-1.314-0.013-0.619-0.786-0.981-1.296-0.676zM20.131 19.697c-0.586 0.22-0.701 1.101-0.211 1.482 0.81 0.757 1.584 1.556 2.39 2.316 0.399 0.397 1.22 0.383 1.46-0.178 0.17-0.312 0.148-0.748-0.108-1.007-0.83-0.896-1.77-1.675-2.653-2.514-0.238-0.204-0.596-0.196-0.878-0.1zM13.331 21.842c-0.504 0.22-0.656 0.962-0.282 1.36 0.612 0.651 1.248 1.255 1.916 1.822l0.034 0.028c0.397 0.322 0.705 0.91 1.297 0.84 0.733-0.008 1.085-1.010 0.565-1.505-0.817-0.761-1.571-1.49-2.311-2.234l-0.003-0.003c-0.302-0.32-0.796-0.535-1.216-0.308zM11.981 6.935c0-0.479-0.389-0.868-0.868-0.868s-0.868 0.389-0.868 0.868v0c0 0.479 0.388 0.867 0.867 0.867s0.867-0.388 0.867-0.867v0zM14.509 9.243c0-0.479-0.388-0.867-0.867-0.867s-0.867 0.388-0.867 0.867v0c0 0.479 0.388 0.867 0.867 0.867s0.867-0.388 0.867-0.867v0zM7.735 11.363c0-0.479-0.388-0.867-0.867-0.867s-0.867 0.388-0.867 0.867v0c0 0.479 0.388 0.867 0.867 0.867s0.867-0.388 0.867-0.867v0zM21.507 6.866c0-0.009 0-0.019 0-0.029 0-0.479-0.388-0.867-0.867-0.867s-0.867 0.388-0.867 0.867c0 0.010 0 0.021 0.001 0.031l-0-0.002c0.016 0.466 0.398 0.838 0.866 0.838s0.85-0.372 0.866-0.836l0-0.002zM26 11.146c0-0.479-0.388-0.867-0.867-0.867s-0.867 0.388-0.867 0.867v0c0 0.479 0.388 0.867 0.867 0.867s0.867-0.388 0.867-0.867v0zM23.629 13.638c0-0.479-0.388-0.867-0.867-0.867s-0.867 0.388-0.867 0.867v0c0 0.479 0.388 0.867 0.867 0.867s0.867-0.388 0.867-0.867v0zM25.996 20.644c0-0.479-0.388-0.867-0.867-0.867s-0.867 0.388-0.867 0.867v0c0 0.479 0.388 0.867 0.867 0.867s0.867-0.388 0.867-0.867v0zM19.23 22.76c0-0.479-0.388-0.867-0.867-0.867s-0.867 0.388-0.867 0.867v0c0 0.479 0.388 0.867 0.867 0.867s0.867-0.388 0.867-0.867v0zM21.726 25.132c0-0.479-0.388-0.867-0.867-0.867s-0.867 0.388-0.867 0.867v0c0 0.479 0.388 0.867 0.867 0.867s0.867-0.388 0.867-0.867v0zM12.226 25.132c0-0.479-0.389-0.868-0.868-0.868s-0.868 0.389-0.868 0.868v0c0 0.479 0.388 0.867 0.867 0.867s0.867-0.388 0.867-0.867v0zM10.109 18.338c0-0.479-0.388-0.867-0.867-0.867s-0.867 0.388-0.867 0.867v0c0 0.479 0.388 0.867 0.867 0.867s0.867-0.388 0.867-0.867v0zM7.735 20.859c0-0.479-0.388-0.867-0.867-0.867s-0.867 0.388-0.867 0.867v0c0 0.479 0.388 0.867 0.867 0.867s0.867-0.388 0.867-0.867v0z"></path>
</svg>
