<!-- Generated by IcoMoon.io -->
<svg version="1.1" xmlns="http://www.w3.org/2000/svg" width="32" height="32" viewBox="0 0 32 32">
<title>part</title>
<path fill="#03e8b0" d="M32 16c0 8.837-7.163 16-16 16s-16-7.163-16-16c0-8.837 7.163-16 16-16s16 7.163 16 16z"></path>
<path fill="#fff" d="M15.424 6.173c0.644-0.28 1.104 0.314 1.502 0.712 0.71 0.603 1.386 1.244 2.026 1.92 0.367 0.401 0.218 1.134-0.281 1.357-0.384 0.21-0.853 0.052-1.147-0.24-0.773-0.74-1.512-1.517-2.314-2.224-0.498-0.407-0.396-1.29 0.214-1.525zM22.458 8.224c0.437-0.235 1.137-0.044 1.258 0.477 0.185 0.463-0.112 0.92-0.438 1.229-0.715 0.705-1.41 1.43-2.105 2.156-0.253 0.306-0.7 0.388-1.058 0.223-0.517-0.214-0.657-0.99-0.267-1.384 0.877-0.892 1.651-1.892 2.61-2.7zM8.49 8.368c0.455-0.275 1.018-0.093 1.355 0.28 0.758 0.765 1.54 1.504 2.305 2.257 0.507 0.468 0.153 1.46-0.554 1.464-0.592 0.090-0.906-0.495-1.302-0.815-0.694-0.575-1.33-1.215-1.96-1.86-0.356-0.367-0.25-1.041 0.157-1.326zM9.078 12.888c0.763-0.295 1.508 0.667 1.032 1.33-0.563 0.734-1.296 1.325-1.91 2.018-0.363 0.373-0.7 0.947-1.305 0.874-0.707-0.027-1.062-1.010-0.548-1.487 0.929-0.889 1.666-2.013 2.732-2.736zM24.554 15.015c0.525-0.343 1.317 0.047 1.334 0.68 0.077 0.594-0.513 0.908-0.838 1.308-0.572 0.688-1.2 1.33-1.848 1.948-0.474 0.447-1.358 0.133-1.443-0.515-0.111-0.669 0.517-1.084 0.913-1.512 0.656-0.609 1.21-1.326 1.882-1.909zM11.069 19.72c0.51-0.305 1.283 0.057 1.295 0.676 0.095 0.598-0.496 0.915-0.819 1.314-0.57 0.69-1.206 1.323-1.848 1.948-0.417 0.422-1.307 0.219-1.425-0.386-0.202-0.585 0.294-1.056 0.672-1.423 0.733-0.686 1.37-1.47 2.125-2.129zM20.131 19.697c0.282-0.097 0.64-0.105 0.878 0.099 0.883 0.839 1.823 1.618 2.653 2.514 0.256 0.26 0.279 0.695 0.109 1.007-0.24 0.561-1.062 0.575-1.461 0.178-0.806-0.76-1.58-1.559-2.39-2.316-0.49-0.38-0.375-1.262 0.21-1.482zM13.331 21.842c0.42-0.227 0.914-0.012 1.216 0.308 0.743 0.747 1.497 1.476 2.265 2.191l0.049 0.046c0.52 0.494 0.168 1.497-0.565 1.505-0.592 0.070-0.9-0.518-1.297-0.84-0.702-0.595-1.338-1.199-1.939-1.838l-0.011-0.012c-0.374-0.398-0.222-1.14 0.282-1.36zM11.981 6.935c0 0.479-0.389 0.868-0.868 0.868s-0.868-0.389-0.868-0.868v0c0.016-0.467 0.398-0.839 0.867-0.839s0.851 0.372 0.867 0.837l0 0.002zM14.509 9.243c0 0.479-0.388 0.867-0.867 0.867s-0.867-0.388-0.867-0.867v0c0-0.479 0.388-0.867 0.867-0.867s0.867 0.388 0.867 0.867v0zM7.735 11.363c0 0.009 0 0.019 0 0.029 0 0.479-0.389 0.868-0.868 0.868s-0.868-0.389-0.868-0.868c0-0.010 0-0.021 0.001-0.031l-0 0.002c0.016-0.467 0.398-0.839 0.867-0.839s0.851 0.372 0.867 0.837l0 0.002zM21.507 6.866c0 0.479-0.389 0.868-0.868 0.868s-0.868-0.389-0.868-0.868v0c0-0.48 0.389-0.869 0.869-0.869s0.869 0.389 0.869 0.869v0zM26 11.146c0 0.479-0.388 0.867-0.867 0.867s-0.867-0.388-0.867-0.867v0c0-0.479 0.388-0.867 0.867-0.867s0.867 0.388 0.867 0.867v0zM23.629 13.638c0 0.479-0.388 0.867-0.867 0.867s-0.867-0.388-0.867-0.867v0c0-0.479 0.388-0.867 0.867-0.867s0.867 0.388 0.867 0.867v0zM25.996 20.644c0 0.479-0.388 0.867-0.867 0.867s-0.867-0.388-0.867-0.867v0c0-0.479 0.388-0.867 0.867-0.867s0.867 0.388 0.867 0.867v0zM19.23 22.76c0 0.009 0 0.019 0 0.029 0 0.479-0.389 0.868-0.868 0.868s-0.868-0.389-0.868-0.868c0-0.010 0-0.021 0.001-0.031l-0 0.002c0.016-0.467 0.398-0.839 0.867-0.839s0.851 0.372 0.867 0.837l0 0.002zM21.726 25.132c0 0.009 0 0.019 0 0.029 0 0.479-0.389 0.868-0.868 0.868s-0.868-0.389-0.868-0.868c0-0.010 0-0.021 0.001-0.031l-0 0.002c0.016-0.467 0.398-0.839 0.867-0.839s0.851 0.372 0.867 0.837l0 0.002zM12.226 25.132c0 0.479-0.389 0.868-0.868 0.868s-0.868-0.389-0.868-0.868v0c0.016-0.467 0.398-0.839 0.867-0.839s0.851 0.372 0.867 0.837l0 0.002zM10.109 18.338c0 0.009 0.001 0.019 0.001 0.029 0 0.479-0.389 0.868-0.868 0.868s-0.868-0.389-0.868-0.868c0-0.010 0-0.021 0.001-0.031l-0 0.002c0.016-0.467 0.398-0.839 0.867-0.839s0.851 0.372 0.867 0.837l0 0.002zM7.735 20.859c0 0.009 0 0.019 0 0.029 0 0.479-0.389 0.868-0.868 0.868s-0.868-0.389-0.868-0.868c0-0.010 0-0.021 0.001-0.031l-0 0.002c0.016-0.467 0.398-0.839 0.867-0.839s0.851 0.372 0.867 0.837l0 0.002z"></path>
</svg>
