<!-- Generated by IcoMoon.io -->
<svg version="1.1" xmlns="http://www.w3.org/2000/svg" width="32" height="32" viewBox="0 0 32 32">
<title>pasl</title>
<path fill="#00acff" d="M32 16c0 8.837-7.163 16-16 16s-16-7.163-16-16c0-8.837 7.163-16 16-16s16 7.163 16 16z"></path>
<path fill="#fff" d="M15.080 20.156c0.058-0.025 0.125-0.039 0.196-0.039 0.212 0 0.395 0.13 0.471 0.315l0.001 0.003c0.025 0.058 0.039 0.125 0.039 0.196 0 0.212-0.129 0.395-0.312 0.474l-0.003 0.001-3.406 1.414-0.452 2.48h-2.344l0.257-1.426-1.382 0.573c-0.058 0.025-0.125 0.039-0.196 0.039-0.212 0-0.395-0.13-0.471-0.315l-0.001-0.003c-0.024-0.058-0.038-0.125-0.038-0.195 0-0.212 0.129-0.395 0.312-0.474l0.003-0.001 1.99-0.826 0.15-0.839-2.687 1.115c-0.058 0.024-0.124 0.039-0.195 0.039-0.212 0-0.394-0.13-0.471-0.314l-0.001-0.003c-0.025-0.058-0.039-0.125-0.039-0.196 0-0.212 0.129-0.395 0.312-0.474l0.003-0.001 3.293-1.367 2.398-13.321h6.773c4.147-0.143 6.22 1.242 6.22 4.155 0 3.695-2.702 6.553-7.285 6.553h-5.275l-0.283 1.556 1.487-0.617c0.058-0.024 0.124-0.039 0.195-0.039 0.212 0 0.394 0.13 0.471 0.314l0.001 0.003c0.024 0.058 0.038 0.125 0.038 0.195 0 0.212-0.129 0.395-0.312 0.474l-0.003 0.001-2.097 0.871-0.153 0.84zM14.51 9.109l-1.172 6.425h5.218c3.212 0 4.43-2.185 4.43-3.77s-0.766-2.655-3.322-2.655z"></path>
</svg>
