<!-- Generated by IcoMoon.io -->
<svg version="1.1" xmlns="http://www.w3.org/2000/svg" width="32" height="32" viewBox="0 0 32 32">
<title>payx</title>
<path fill="#630" d="M32 16c0 8.837-7.163 16-16 16s-16-7.163-16-16c0-8.837 7.163-16 16-16s16 7.163 16 16z"></path>
<path fill="#fff" d="M11.688 10.063l1.25-3.063 8.562 0.031c1.25 0.094 2.75 0.094 3.594 1.157 1 1.156 0.781 2.812 0.281 4.124-0.996 2.858-3.359 5.004-6.285 5.677l-0.059 0.011c-2.062 0.313-4.156 0.219-6.25 0.219 0.417-1.017 0.834-2.038 1.25-3.063 1.719 0 3.469 0.094 5.219-0.187 1.594-0.406 3.063-2 2.813-3.75-0.157-0.75-1-1.094-1.72-1.094-2.874-0.125-5.75 0-8.624-0.063h-0.031z"></path>
<path fill="#fff" d="M8 10.906h10.156l-1.343 3.469h-10.189l1.376-3.438v-0.030zM9.625 15.156h3.531l-3.686 9.375h-3.47l3.656-9.375h-0.031z"></path>
</svg>
