<!-- Generated by IcoMoon.io -->
<svg version="1.1" xmlns="http://www.w3.org/2000/svg" width="32" height="32" viewBox="0 0 32 32">
<title>pink</title>
<path fill="#ed79aa" d="M32 16c0 8.837-7.163 16-16 16s-16-7.163-16-16c0-8.837 7.163-16 16-16s16 7.163 16 16z"></path>
<path fill="#fff" opacity="0.5" d="M23.452 8.929l-1.87 1.883c-1.313-1.327-3.134-2.149-5.147-2.149-0.002 0-0.004 0-0.005 0h0c-3.915 0-7.11 3.11-7.278 7.010h-0.008v7.122c-1.639-1.776-2.644-4.158-2.644-6.775 0-0.007 0-0.014 0-0.021v0.001c0-5.523 4.446-10 9.93-10 0.002 0 0.005 0 0.007 0 2.744 0 5.226 1.12 7.014 2.928l0.001 0.001zM23.452 23.071c-1.753 1.773-4.173 2.885-6.852 2.929l-0.008 0v-2.664c1.956-0.044 3.713-0.856 4.989-2.146l0.001-0.001z"></path>
<path fill="#fff" d="M11.681 24.784v-9.11h0.007c0.14-2.605 2.282-4.674 4.904-4.674 2.712 0 4.911 2.214 4.911 4.946s-2.199 4.945-4.91 4.945c-0.002 0-0.005 0-0.008 0-0.913 0-1.767-0.252-2.497-0.689l0.022 0.012v5.511c-0.921-0.225-1.73-0.548-2.479-0.966l0.050 0.026zM16.592 18.446c1.372-0.005 2.483-1.118 2.483-2.491 0-0.003 0-0.006-0-0.009v0.001c0-1.381-1.112-2.5-2.483-2.5-1.372 0.005-2.482 1.118-2.482 2.491 0 0.003 0 0.006 0 0.009v-0.001c0 1.38 1.111 2.5 2.482 2.5z"></path>
</svg>
