<!-- Generated by IcoMoon.io -->
<svg version="1.1" xmlns="http://www.w3.org/2000/svg" width="32" height="32" viewBox="0 0 32 32">
<title>pirl</title>
<path fill="#96b73d" d="M32 16c0 8.837-7.163 16-16 16s-16-7.163-16-16c0-8.837 7.163-16 16-16s16 7.163 16 16z"></path>
<path fill="#fff" d="M11.594 16.105c0.086 0.258 0.213 0.5 0.377 0.718l-2.493-2.518c-0.251-0.253-0.406-0.601-0.406-0.985s0.155-0.732 0.406-0.985l3.145-3.147c0.065-0.048 0.127-0.1 0.187-0.154l0.091-0.080 2.547-2.549c0.249-0.25 0.594-0.405 0.975-0.405 0.382 0 0.729 0.156 0.978 0.408l0 0 8.343 8.403c0.16 0.226 0.257 0.507 0.257 0.81 0 0.386-0.156 0.736-0.408 0.991l0-0c-0.258 0.26-0.615 0.421-1.010 0.421-0.286 0-0.552-0.084-0.775-0.229l0.006 0.003-7.402-7.476-3.943 3.944-0.060 0.050c-0.003 0.003-0.005 0.006-0.007 0.008l0-0 3.896 3.927c0.25 0.253 0.405 0.6 0.405 0.984 0 0.639-0.429 1.179-1.015 1.346l-0.010 0.002c-0.107 0.030-0.231 0.047-0.358 0.047-0.383 0-0.729-0.156-0.979-0.408l-0-0-1.996-2.010c-0.029-0.026-0.058-0.060-0.094-0.096l-0.092-0.092c-0.063-0.071-0.125-0.148-0.182-0.229l-0.005-0.008 0.045 0.053-0.030-0.039c-0.16-0.202-0.293-0.435-0.386-0.687l-0.006-0.018zM19.74 18.678l-3.901-3.929c-0.251-0.253-0.406-0.601-0.406-0.985s0.155-0.732 0.406-0.985l-0 0c0.25-0.25 0.595-0.405 0.976-0.405 0.383 0 0.73 0.156 0.98 0.409l0 0 1.997 2.010c0.028 0.025 0.057 0.060 0.094 0.095l0.091 0.092c0.052 0.058 0.1 0.12 0.144 0.183l0.022 0.027c-0.038-0.055-0.066-0.093-0.095-0.132l0.009 0.013 2.61 2.627c0.251 0.253 0.406 0.601 0.406 0.986s-0.155 0.733-0.406 0.986l-3.147 3.148c-0.071 0.051-0.133 0.101-0.192 0.153l0.003-0.002-2.624 2.624c-0.249 0.251-0.595 0.407-0.977 0.407s-0.728-0.156-0.977-0.407l-0-0-8.477-8.547c-0.171-0.231-0.275-0.521-0.275-0.835 0-0.412 0.177-0.782 0.458-1.040l0.001-0.001c0.245-0.223 0.572-0.36 0.931-0.36 0.364 0 0.695 0.141 0.942 0.371l-0.001-0.001 7.409 7.485 3.935-3.934 0.058-0.047c0.002-0.002 0.004-0.004 0.006-0.006l0-0z"></path>
</svg>
