<!-- Generated by IcoMoon.io -->
<svg version="1.1" xmlns="http://www.w3.org/2000/svg" width="32" height="32" viewBox="0 0 32 32">
<title>pivx</title>
<path fill="#5e4778" d="M32 16c0 8.837-7.163 16-16 16s-16-7.163-16-16c0-8.837 7.163-16 16-16s16 7.163 16 16z"></path>
<path fill="#fff" stroke="#fff" stroke-linejoin="miter" stroke-linecap="butt" stroke-miterlimit="4" stroke-width="1" d="M10.5 12.241h6.153v1.255h-6.153v-1.255zM22.5 12.831c0 2.974-2.11 4.895-5.028 4.895h-4.042v6.274h-1.6v-7.693h5.425c2.175 0 3.595-1.292 3.595-3.476 0-2.158-1.42-3.413-3.57-3.413h-1.688l-4.043 0.013v-1.431h5.91c2.93 0 5.040 1.857 5.040 4.831h0.001z"></path>
</svg>
