<!-- Generated by IcoMoon.io -->
<svg version="1.1" xmlns="http://www.w3.org/2000/svg" width="32" height="32" viewBox="0 0 32 32">
<title>plr</title>
<path fill="#00bfff" d="M32 16c0 8.837-7.163 16-16 16s-16-7.163-16-16c0-8.837 7.163-16 16-16s16 7.163 16 16z"></path>
<path fill="#fff" d="M8.41 20.902h-0.098v4.098h-2.312v-13.875h2.26v0.64h0.089c0.789-0.756 1.794-0.777 2.358-0.777 2.364 0 3.914 2.253 3.914 5.262v0.39c0 3.131-1.794 4.997-3.954 4.997-1.011 0.003-1.76-0.228-2.257-0.735zM12.474 16.826v-0.683c0-1.96-0.747-3.271-2.078-3.271-1.438 0-2.209 1.524-2.209 3.271v0.68c0 1.665 0.759 2.94 2.249 2.94 1.173-0.004 2.038-0.918 2.038-2.937zM15.74 7h2.315v14.576h-2.315zM24.669 13.409c-1.298 0-2.587 1.030-2.587 2.332v5.844h-2.302v-10.362h2.133v0.637h0.087c0.518-0.546 1.785-0.802 2.827-0.787 0.104 0 0.018 0.003 0.119 0.003l0.012 2.333zM23.697 19.095h2.303v2.481h-2.303z"></path>
</svg>
