<!-- Generated by IcoMoon.io -->
<svg version="1.1" xmlns="http://www.w3.org/2000/svg" width="32" height="32" viewBox="0 0 32 32">
<title>poa</title>
<path fill="#444fa1" d="M32 16c0 8.837-7.163 16-16 16s-16-7.163-16-16c0-8.837 7.163-16 16-16s16 7.163 16 16z"></path>
<path fill="#fff" d="M5 24l11-19 11 19zM11.872 14.324c1.285-0.858 2.663-1.291 4.128-1.291s2.843 0.433 4.128 1.291l-4.128-7.13zM9.921 17.694l-2.997 5.177h18.152l-2.997-5.176c-1.81 1.989-3.843 2.999-6.079 2.999s-4.27-1.010-6.080-3zM16 19.565c1.938 0 3.711-0.89 5.338-2.7-1.627-1.813-3.4-2.702-5.338-2.702s-3.711 0.89-5.338 2.701c1.627 1.812 3.4 2.702 5.338 2.702zM16 19.082c-1.16 0-2.101-0.975-2.101-2.178s0.94-2.177 2.101-2.177 2.101 0.975 2.101 2.177c0 1.203-0.94 2.178-2.101 2.178zM16 17.952c0.559 0 1.012-0.469 1.012-1.048s-0.453-1.048-1.012-1.048-1.012 0.47-1.012 1.048c0 0.58 0.453 1.049 1.012 1.049z"></path>
</svg>
