<!-- Generated by IcoMoon.io -->
<svg version="1.1" xmlns="http://www.w3.org/2000/svg" width="32" height="32" viewBox="0 0 32 32">
<title>poe</title>
<path fill="#dcd6cc" d="M32 16c0 8.837-7.163 16-16 16s-16-7.163-16-16c0-8.837 7.163-16 16-16s16 7.163 16 16z"></path>
<path fill="#fff" d="M24.758 7.732c-0.773-0.762-1.834-1.232-3.006-1.232-0.004 0-0.007 0-0.011 0h0.001c-1.145 0-2.211 0.44-3.016 1.232l-9.856 9.706c-0.090 0.090-0.146 0.215-0.146 0.353 0 0.010 0 0.020 0.001 0.030l-0-0.001v4.996l-2.725 2.684h1.503l2.018-1.987h5.044c0.002 0 0.003 0 0.005 0 0.147 0 0.28-0.062 0.373-0.162l0-0 9.816-9.668c0.765-0.754 1.239-1.801 1.241-2.959v-0c0-0.006 0-0.013 0-0.020 0-1.162-0.475-2.213-1.242-2.969l-0-0zM19.026 8.86l0.417-0.41c0.587-0.579 1.393-0.936 2.283-0.936 0.006 0 0.011 0 0.017 0h-0.001c0.863 0 1.678 0.334 2.299 0.936 0.010 0.010 0.020 0.028 0.039 0.038 0.591 0.602 0.911 1.385 0.911 2.226 0 0.85-0.34 1.652-0.95 2.264l-0.427 0.42h-3.812l2.503-2.465c0.096-0.093 0.155-0.224 0.155-0.368 0-0.134-0.052-0.257-0.136-0.349l0 0c-0.010-0.010-0.010-0.020-0.020-0.029-0.097-0.093-0.228-0.15-0.373-0.15s-0.276 0.057-0.373 0.15l0-0-2.522 2.484v-3.813zM10.55 22.501l2.056-2.026h3.812l-2.056 2.026zM16.534 16.597l2.435-2.398h3.812l-2.435 2.398zM19.512 17.419l-2.27 2.235h-3.812l2.27-2.235zM15.759 12.079l2.444-2.408v3.802l-2.444 2.417zM12.655 15.135l2.27-2.235v3.802l-2.27 2.235zM9.745 18.001l2.085-2.044v3.802l-2.085 2.044z"></path>
</svg>
