<!-- Generated by IcoMoon.io -->
<svg version="1.1" xmlns="http://www.w3.org/2000/svg" width="32" height="32" viewBox="0 0 32 32">
<title>pot</title>
<path fill="#105b2f" d="M32 16c0 8.837-7.163 16-16 16s-16-7.163-16-16c0-8.837 7.163-16 16-16s16 7.163 16 16z"></path>
<path fill="#fff" d="M12.033 18.18l-0.39 1.987-0.71 3.651c-0.020 0.11-0.048 0.184-0.188 0.182-0.882-0.013-1.764-0.020-2.646-0.030-0.021 0-0.043-0.014-0.099-0.035l1.99-9.94h-1.677c0.004-0.074 0.002-0.118 0.010-0.16 0.103-0.537 0.214-1.073 0.307-1.612 0.026-0.15 0.093-0.188 0.233-0.187 0.41 0.004 0.82-0.011 1.228 0.003 0.195 0.006 0.27-0.050 0.308-0.242 0.228-1.188 0.472-2.372 0.706-3.558 0.028-0.141 0.059-0.238 0.243-0.238 2.008 0.006 4.017-0.013 6.025 0.013 1.172 0.015 2.347 0.075 3.5 0.312 0.397 0.082 0.8 0.188 1.168 0.352 1.058 0.47 1.695 1.284 1.872 2.411 0.275 1.751-0.096 3.36-1.22 4.762-0.83 1.032-1.968 1.611-3.239 1.963-1.008 0.279-2.042 0.366-3.084 0.368-1.355 0.003-2.71 0-4.065-0.001h-0.272zM12.588 15.442h0.283c1.433 0 2.866 0.003 4.3-0.002 0.305 0 0.614-0.013 0.917-0.050 1.157-0.138 2.036-0.693 2.598-1.7 0.168-0.298 0.267-0.655 0.267-1.034 0-0.141-0.014-0.279-0.040-0.413l0.002 0.014c-0.118-0.697-0.534-1.152-1.241-1.28-0.463-0.093-1.003-0.154-1.555-0.17l-0.014-0c-1.472-0.027-2.944-0.016-4.417-0.020-0.053 0-0.106 0.008-0.177 0.014l-0.244 1.248h4.090l-0.376 1.938h-4.103l-0.29 1.456z"></path>
</svg>
