<!-- Generated by IcoMoon.io -->
<svg version="1.1" xmlns="http://www.w3.org/2000/svg" width="32" height="32" viewBox="0 0 32 32">
<title>powr</title>
<path fill="#05bca9" d="M32 16c0 8.837-7.163 16-16 16s-16-7.163-16-16c0-8.837 7.163-16 16-16s16 7.163 16 16z"></path>
<path fill="#fff" d="M27.995 15.954c0.003 0.013 0.005 0.029 0.005 0.044 0 0.082-0.048 0.153-0.118 0.186l-0.001 0.001-0.076 0.036-2.306 2.312 0.894 3.345c0.004 0.016 0.007 0.034 0.007 0.053 0 0.095-0.064 0.174-0.151 0.198l-0.001 0-3.209 0.861-0.885 3.31c-0.024 0.089-0.104 0.153-0.198 0.153-0.018 0-0.036-0.002-0.053-0.007l0.001 0-3.39-0.91-2.398 2.403c-0.037 0.037-0.088 0.061-0.145 0.061s-0.108-0.023-0.145-0.061l-0-0-2.369-2.375-3.282 0.882c-0.016 0.004-0.034 0.007-0.053 0.007-0.094 0-0.173-0.064-0.197-0.151l-0-0.001-0.886-3.31-3.208-0.862c-0.088-0.024-0.152-0.104-0.152-0.198 0-0.019 0.003-0.038 0.008-0.055l-0 0.001 0.865-3.237-2.49-2.497c-0.037-0.037-0.060-0.088-0.060-0.145s0.023-0.108 0.060-0.145v0l2.421-2.429-0.865-3.236c-0.004-0.016-0.007-0.034-0.007-0.053 0-0.095 0.064-0.175 0.151-0.199l0.001-0 3.355-0.902 0.874-3.27c0.024-0.089 0.104-0.153 0.199-0.153 0.019 0 0.037 0.003 0.054 0.007l-0.001-0 3.174 0.853 2.408-2.414c0.038-0.036 0.089-0.058 0.145-0.058s0.107 0.022 0.145 0.058l-0-0 2.437 2.442 3.282-0.882c0.016-0.004 0.034-0.007 0.053-0.007 0.095 0 0.174 0.064 0.198 0.151l0 0.001 0.023 0.086c0.005 0.011 0.008 0.025 0.011 0.039l0 0.001 0.84 3.144 3.356 0.902c0.11 0.030 0.174 0.142 0.145 0.252l-0.894 3.344 2.257 2.263c0.085 0.012 0.152 0.075 0.171 0.157l0 0.001zM25.376 18.074l1.346-1.348-1.517 0.707 0.171 0.642zM25.867 21.501l-0.703-2.632-1.397 1.401 2.1 1.231zM23.657 20.681l-0.495 1.852 2.505-0.673-2.010-1.178zM21.859 25.817l0.723-2.703-1.974 0.53 1.251 2.173zM19.355 24.692l-0.507 0.509 1.989 0.534-1.482-1.043zM16.176 27.298l1.88-1.885-1.88-0.505v2.39zM15.766 24.945l-1.851 0.497 1.85 1.856v-2.353zM10.577 25.913l2.546-0.683-1.364-1.368-1.182 2.051zM9.497 23.114l0.565 2.114 0.17-1.916-0.735-0.198zM6.407 21.859l2.51 0.674-0.5-1.867-2.010 1.193zM8.214 20.309l-1.328-1.332-0.674 2.52 2.002-1.188zM4.734 16.239l1.94 1.944 0.519-1.944h-2.459zM6.814 14.664l-0.209-0.78-1.634 1.638 1.843-0.858zM6.142 10.562l0.675 2.527 1.35-1.353-2.025-1.174zM8.48 11.422l0.516-1.928-2.65 0.712 2.121 1.229 0.013-0.013zM10.252 6.382l-0.676 2.53 1.847-0.496-1.171-2.033zM12.594 7.298l0.489-0.49-1.916-0.515 1.427 1.005zM15.766 4.7l-1.89 1.895 1.89 0.508v-2.403zM16.176 7.14l1.92-0.516-1.92-1.924v2.44zM21.572 6.116l-2.684 0.72 1.438 1.443 1.246-2.163zM21.875 8.744l0.628 0.168-0.483-1.807-0.145 1.639zM25.725 10.204l-2.642-0.71 0.51 1.912 2.131-1.203zM23.8 11.761l1.432 1.435 0.707-2.643-2.139 1.208zM27.242 15.792l-1.797-1.801-0.482 1.801h2.279zM24.876 16.203l0.22 0.825 1.771-0.825h-1.99zM24.566 17.275l0.153-0.070-0.067-0.25-0.085 0.32zM24.428 17.793l-0.45 1.681 1.063-1.065-0.214-0.802-0.399 0.186zM23.187 20.85l-2.283 2.288 1.8-0.483 0.483-1.805zM20.32 23.143l3.079-3.087 0.544-2.037-5.183 2.415 1.56 2.709zM20.232 23.813l-0.582 0.583 1.544 1.087-0.962-1.67zM19.141 24.038l0.168 0.118 0.223-0.224-0.391 0.106zM18.624 24.176l-1.792 0.482 1.559 0.419 0.624-0.626-0.39-0.275zM15.247 24.658l-2.887-0.776 1.22 1.224 1.667-0.448zM10.69 22.79l-0.020 0.213 0.317 0.085-0.297-0.298zM10.311 22.41l-1.369-1.37 0.432 1.617 0.895 0.24 0.042-0.485zM8.15 19.663l-0.724-2.708-0.418 1.563 1.142 1.145zM7.125 15.828l-0.204-0.761-1.633 0.76h1.837zM7.589 14.755l-0.29 0.136 0.127 0.476 0.163-0.612zM7.728 14.238l0.54-2.022-1.328 1.332 0.251 0.94 0.537-0.25zM9.060 10.84l1.859-1.863-1.466 0.394-0.393 1.47zM11.744 8.15l0.556-0.557-1.476-1.039 0.92 1.596zM12.904 8.018l-0.263-0.185-0.35 0.35 0.613-0.165zM13.421 7.879l1.826-0.49-1.706-0.458-0.606 0.606 0.486 0.342zM16.831 7.389l2.77 0.744-1.17-1.173-1.6 0.429zM21.408 9.363l0.028-0.312-0.463-0.124 0.435 0.436zM21.786 9.743l1.282 1.285-0.443-1.657-0.787-0.212-0.052 0.584zM23.86 12.403l0.792 2.964 0.458-1.711-1.25-1.252zM18.086 19.264l0.468 0.813 5.528-2.575 0.347-1.298h-3.215l-0.163 1.834c-0.010 0.105-0.097 0.187-0.204 0.187-0.074 0-0.139-0.040-0.175-0.099l-0-0.001-0.998-1.69-1.587 2.829zM17.302 20.661l0.879-0.41-0.329-0.57-0.55 0.98zM13.816 20.291l4.887 3.44 1.283-0.345-1.6-2.777-1.488 0.694c-0.026 0.012-0.056 0.020-0.088 0.020-0.113 0-0.205-0.092-0.205-0.205 0-0.038 0.010-0.073 0.028-0.104l-0.001 0.001 0.933-1.663-3.23 0.036-0.52 0.902zM13.61 20.648l-1.57 2.724 4 1.074 2.146-0.577-4.576-3.221zM13.859 19.393l-1.297 0.015 0.917 0.645 0.38-0.66zM11.269 16.239l-0.532 6.018 0.934 0.935 1.602-2.782-1.468-1.032c-0.053-0.038-0.087-0.099-0.087-0.168 0-0.113 0.090-0.204 0.203-0.206l1.984-0.023-1.62-2.742h-1.015zM10.859 16.239h-3.2l1.070 4.005 1.63 1.633 0.5-5.638zM12.041 15.828l-0.639-1.082-0.096 1.082h0.735zM13.491 12.006l-5.416 2.524-0.347 1.298h3.167l0.155-1.754c0.011-0.104 0.099-0.185 0.205-0.185 0.074 0 0.138 0.039 0.175 0.097l0.001 0.001 1.003 1.697 1.567-2.793-0.51-0.885zM13.285 11.649l-1.63-2.829-2.807 2.815-0.635 2.377 5.072-2.363zM18.292 11.811l-4.95-3.485-1.296 0.349 1.612 2.8 1.6-0.746c0.026-0.012 0.056-0.020 0.088-0.020 0.113 0 0.205 0.092 0.205 0.205 0 0.038-0.010 0.073-0.028 0.104l0.001-0.001-0.936 1.668 3.222-0.036 0.483-0.838zM18.498 11.453l1.591-2.763-4.050-1.088-2.18 0.586 4.639 3.265zM18.286 12.643l1.17-0.012-0.827-0.583-0.343 0.596zM20.802 16.204h-0.79l0.687 1.162 0.103-1.162zM14.234 12.474l0.62-1.103-0.99 0.461 0.37 0.643zM17.797 18.941l1.634-2.914-1.745-2.954-0.005-0.011-3.327 0.037-1.68 2.994 1.705 2.883 3.398-0.038c0.007 0 0.013 0.002 0.020 0.003zM21.739 10.277l-0.489 5.516h3.092l-1.062-3.97-1.541-1.546zM20.839 15.793l0.522-5.896-0.947-0.949-1.58 2.742 1.38 0.97c0.054 0.038 0.088 0.099 0.088 0.169 0 0.113-0.091 0.205-0.204 0.206h-0l-1.945 0.021 1.617 2.737h1.068zM21.472 8.636l0.16-1.803-0.92 1.598 0.76 0.205zM10.634 23.42l-0.165 1.858 0.95-1.648-0.785-0.21z"></path>
</svg>
