<!-- Generated by IcoMoon.io -->
<svg version="1.1" xmlns="http://www.w3.org/2000/svg" width="32" height="32" viewBox="0 0 32 32">
<title>ppc</title>
<path fill="#3cb054" d="M32 16c0 8.837-7.163 16-16 16s-16-7.163-16-16c0-8.837 7.163-16 16-16s16 7.163 16 16z"></path>
<path fill="#fff" d="M9 7.5c12.093 0.447 16.756 7.706 14.415 14.183-0.663 1.803-1.368 2.79-2.85 3.817 0.060-0.26 0.122-0.52 0.17-0.787 0.876-5.053-0.785-11.134-8.912-14.493 6.466 3.848 9.075 10.695 6.060 15.115-5.133 0.807-8.883-3.576-8.883-8.626v-9.209z"></path>
</svg>
