<!-- Generated by IcoMoon.io -->
<svg version="1.1" xmlns="http://www.w3.org/2000/svg" width="32" height="32" viewBox="0 0 32 32">
<title>ppp</title>
<path fill="#348f8d" d="M32 16c0 8.837-7.163 16-16 16s-16-7.163-16-16c0-8.837 7.163-16 16-16s16 7.163 16 16z"></path>
<path fill="#fff" d="M23.312 7.044c0.23 0.239 0.372 0.564 0.372 0.923s-0.142 0.684-0.373 0.923l0-0-3.13 3.209c-0.097 0.099-0.21 0.183-0.335 0.247l-0.007 0.003c-0.168 0.097-0.37 0.154-0.585 0.154-0.337 0-0.64-0.14-0.857-0.364l-0-0-3.118-3.194-6.005 6.159 1.45 1.483c0.2 0.209 0.322 0.494 0.322 0.806 0 0.316-0.126 0.603-0.33 0.814l0-0c-0.201 0.208-0.483 0.337-0.794 0.337-0.308 0-0.587-0.126-0.787-0.33l-0-0-2.306-2.353c-0.204-0.211-0.33-0.499-0.33-0.816s0.126-0.605 0.33-0.816l-0 0 0.016-0.015c0.005-0.005 0.009-0.010 0.014-0.015l0-0 7.651-7.847c0.209-0.217 0.502-0.352 0.826-0.352 0.248 0 0.478 0.079 0.666 0.213l-0.003-0.002c0.072 0.049 0.14 0.104 0.2 0.167l2.984 3.053 2.327-2.386c0.228-0.235 0.548-0.381 0.901-0.381s0.673 0.146 0.901 0.381l0 0zM25.17 16.146c0.205 0.21 0.332 0.497 0.332 0.814s-0.126 0.603-0.331 0.813l0-0-0.016 0.015c-0.005 0.005-0.010 0.010-0.015 0.015l-0 0-7.654 7.847c-0.209 0.216-0.502 0.351-0.826 0.351-0.38 0-0.717-0.184-0.926-0.469l-0.002-0.003-2.917-2.984-2.313 2.378c-0.322 0.332-0.792 0.463-1.233 0.342s-0.786-0.473-0.904-0.925c-0.117-0.451 0.010-0.933 0.335-1.262l3.129-3.208c0.178-0.186 0.407-0.312 0.657-0.362 0.404-0.090 0.826 0.036 1.119 0.336l3.126 3.198 5.994-6.144-1.45-1.483c-0.2-0.209-0.322-0.494-0.322-0.806 0-0.316 0.126-0.603 0.33-0.814l-0 0c0.201-0.208 0.483-0.337 0.794-0.337 0.308 0 0.587 0.126 0.787 0.33l0 0 2.278 2.329z"></path>
</svg>
