<!-- Generated by IcoMoon.io -->
<svg version="1.1" xmlns="http://www.w3.org/2000/svg" width="32" height="32" viewBox="0 0 32 32">
<title>ppt</title>
<path fill="#152743" d="M32 16c0 8.837-7.163 16-16 16s-16-7.163-16-16c0-8.837 7.163-16 16-16s16 7.163 16 16z"></path>
<path fill="#fff" d="M16.049 8.316c-1.316 0-2.383-0.733-2.383-1.638s1.067-1.638 2.383-1.638 2.382 0.733 2.382 1.638c0 0.905-1.066 1.638-2.382 1.638zM14.816 26.6v-17.496h5.312c0.197 0 0.336 0.147 0.336 0.344v9.708c0 0.196-0.14 0.364-0.336 0.364h-2.928v7.080c0 0.197-0.15 0.376-0.347 0.376h-1.668c-0.203-0.008-0.364-0.172-0.369-0.375v-0zM13.92 19.519h-2.010c-0.202-0.002-0.366-0.163-0.374-0.363l-0-0.001v-9.707c0-0.197 0.177-0.344 0.373-0.344h2.011v10.416z"></path>
</svg>
