<!-- Generated by IcoMoon.io -->
<svg version="1.1" xmlns="http://www.w3.org/2000/svg" width="32" height="32" viewBox="0 0 32 32">
<title>prl</title>
<path fill="#1061e3" d="M32 16c0 8.837-7.163 16-16 16s-16-7.163-16-16c0-8.837 7.163-16 16-16s16 7.163 16 16z"></path>
<path fill="#fff" d="M24.281 20.867c0.084 0.861-0.185 1.711-1.018 2.263-0.399 0.265-0.844 0.37-1.322 0.37-3.96-0.002-7.92-0.001-11.88-0.002 0 0-0 0-0 0-0.091 0-0.182-0.003-0.272-0.008l0.013 0.001c-0.868-0.047-1.688-0.676-1.968-1.497-0.124-0.363-0.143-0.735-0.128-1.127h2.41c0.232-0.001 0.386-0.17 0.334-0.381-0.029-0.085-0.076-0.156-0.139-0.213l-0-0c-0.983-0.982-1.969-1.96-2.954-2.94l-0.902-0.898c-0.339-0.335-0.502-0.74-0.442-1.212 0.030-0.232 0.105-0.46 0.18-0.684 0.449-1.332 1.12-2.48 1.977-3.462l-0.010 0.012c1.222-1.416 2.806-2.488 4.609-3.075l0.073-0.020c0.924-0.313 1.989-0.494 3.095-0.494 0.203 0 0.404 0.006 0.604 0.018l-0.027-0.001c2.936 0.176 5.381 1.37 7.319 3.571 0.958 1.084 1.686 2.394 2.093 3.84l0.017 0.069c0.15 0.539 0.008 1.024-0.391 1.421-0.75 0.748-1.506 1.49-2.259 2.235-0.553 0.547-1.105 1.096-1.657 1.645-0.182 0.18-0.164 0.42 0.044 0.527 0.060 0.030 0.135 0.040 0.203 0.040 0.76 0.003 1.521 0.002 2.282 0.002zM8.442 21.407c0.011 0.322 0.097 0.608 0.285 0.858 0.312 0.416 0.733 0.612 1.255 0.611h12.028c0.047 0 0.094-0.002 0.14-0.005 0.464-0.018 0.869-0.253 1.12-0.606l0.003-0.004c0.186-0.25 0.273-0.536 0.278-0.853zM18.71 13.66c0.029 0.019 0.050 0.030 0.067 0.043 0.988 0.736 1.614 1.7 1.852 2.907 0.13 0.656 0.112 1.31-0.042 1.961-0.152 0.626-0.411 1.176-0.759 1.656l0.009-0.013c-0.048 0.060-0.077 0.137-0.077 0.221 0 0.029 0.003 0.057 0.010 0.083l-0-0.002c0.069 0.272 0.378 0.36 0.582 0.161 0.3-0.291 0.593-0.588 0.89-0.882 1.196-1.19 2.392-2.379 3.589-3.567 0.26-0.258 0.374-0.566 0.31-0.926-0.029-0.156-0.085-0.308-0.138-0.458-0.418-1.196-0.991-2.231-1.707-3.149l0.018 0.024c-0.564-0.725-1.213-1.347-1.942-1.865l-0.028-0.019c-0.037-0.027-0.064-0.067-0.074-0.113l-0-0.001c-0.037-0.345-0.326-0.612-0.678-0.612-0.096 0-0.187 0.020-0.27 0.056l0.004-0.002c-0.019 0.008-0.041 0.012-0.065 0.012s-0.044-0.004-0.063-0.012l0.001 0c-0.981-0.478-2.125-0.79-3.334-0.867l-0.026-0.001c-0.238-0.019-0.515-0.030-0.794-0.030-0.699 0-1.382 0.068-2.043 0.197l0.067-0.011c-0.83 0.161-1.567 0.412-2.255 0.749l0.053-0.023c-0.025 0.015-0.055 0.023-0.088 0.023s-0.062-0.009-0.088-0.024l0.001 0c-0.086-0.043-0.187-0.069-0.294-0.069-0.361 0-0.655 0.287-0.666 0.646l-0 0.001c0 0.060-0.022 0.095-0.068 0.131-0.306 0.243-0.624 0.474-0.91 0.739-1.344 1.245-2.258 2.764-2.845 4.487-0.148 0.436-0.050 0.81 0.275 1.133l3.56 3.539c0.298 0.297 0.595 0.594 0.896 0.889 0.173 0.17 0.434 0.14 0.547-0.061 0.077-0.139 0.058-0.276-0.033-0.404-0.46-0.63-0.766-1.399-0.85-2.234l-0.002-0.019c-0.016-0.142-0.025-0.307-0.025-0.474 0-0.539 0.093-1.056 0.265-1.537l-0.010 0.032c0.050-0.145 0.112-0.287 0.171-0.437l1.412 0.83c-0.149 0.351-0.236 0.76-0.236 1.189 0 1.171 0.647 2.191 1.602 2.723l0.016 0.008c0.434 0.242 0.951 0.384 1.502 0.384 0.962 0 1.822-0.434 2.396-1.118l0.004-0.005c0.46-0.547 0.704-1.182 0.718-1.897 0.020-1.066-0.421-1.916-1.25-2.578l0.844-1.417zM23.375 16.7c-0.026-0.166-0.050-0.319-0.076-0.472-0.107-0.617-0.278-1.167-0.51-1.684l0.018 0.044c-0.025-0.060-0.031-0.106-0.001-0.168 0.040-0.083 0.064-0.181 0.064-0.284 0-0.284-0.178-0.526-0.428-0.621l-0.005-0.002c-0.071-0.028-0.153-0.044-0.239-0.044-0.295 0-0.545 0.188-0.638 0.451l-0.001 0.005c-0.023 0.064-0.036 0.138-0.036 0.215 0 0.303 0.205 0.559 0.483 0.636l0.005 0.001c0.097 0.019 0.175 0.088 0.205 0.179l0.001 0.002c0.304 0.745 0.473 1.517 0.497 2.32 0 0.002 0 0.005 0 0.008 0 0.047-0.017 0.090-0.044 0.124l0-0c-0.457 0.46-0.918 0.916-1.377 1.373-0.016 0.015-0.035 0.027-0.042 0.034 0.438-2.17-0.095-4.051-1.838-5.467-1.811-1.47-3.829-1.583-5.948-0.627l-0.647-1.117c0.231-0.103 0.453-0.21 0.68-0.304 0.533-0.219 1.15-0.378 1.795-0.447l0.030-0.003c0.081-0.009 0.14 0.004 0.203 0.068 0.12 0.124 0.288 0.2 0.474 0.2 0.188 0 0.358-0.079 0.478-0.205l0-0c0.035-0.041 0.087-0.066 0.144-0.066 0.011 0 0.021 0.001 0.031 0.002l-0.001-0c1.533 0.166 2.863 0.768 3.985 1.821 0.090 0.085 0.175 0.174 0.262 0.262 0.155 0.156 0.326 0.16 0.484 0.008l1.051-1.017 0.098-0.093c0.126 0.16 0.253 0.314 0.371 0.474 0.652 0.872 1.179 1.885 1.53 2.977l0.020 0.073c0.014 0.036 0.022 0.077 0.022 0.12 0 0.101-0.043 0.192-0.112 0.255l-0 0-0.924 0.919c-0.016 0.015-0.035 0.027-0.062 0.050zM22.109 11.39l-0.898 0.869c-0.027-0.023-0.052-0.044-0.075-0.066-0.906-0.873-2.039-1.515-3.303-1.829l-0.050-0.011c-0.353-0.086-0.718-0.126-1.077-0.184-0.063-0.010-0.106-0.023-0.145-0.083-0.123-0.185-0.331-0.305-0.566-0.305s-0.445 0.121-0.566 0.305l-0.002 0.003c-0.030 0.039-0.073 0.067-0.123 0.076l-0.001 0c-2.314 0.254-4.13 1.338-5.46 3.232-0.030 0.046-0.079 0.077-0.135 0.083l-0.001 0c-0.466 0.076-0.703 0.53-0.51 0.96 0.007 0.018 0.011 0.038 0.011 0.060s-0.004 0.042-0.012 0.061l0-0.001c-0.263 0.582-0.458 1.258-0.551 1.966l-0.004 0.037c-0.006 0.043-0.015 0.085-0.025 0.144l-0.086-0.080c-0.286-0.285-0.57-0.573-0.86-0.854-0.134-0.13-0.178-0.268-0.115-0.45 0.673-1.93 1.743-3.582 3.41-4.815 0.019-0.014 0.039-0.026 0.057-0.041 0.060-0.053 0.115-0.068 0.204-0.044 0.054 0.016 0.116 0.025 0.18 0.025 0.327 0 0.6-0.234 0.658-0.544l0.001-0.004c0.011-0.040 0.036-0.073 0.070-0.094l0.001-0c0.38-0.193 0.826-0.368 1.291-0.502l0.055-0.014c1.095-0.311 2.213-0.392 3.343-0.311 1.104 0.072 2.127 0.348 3.055 0.79l-0.050-0.022c0.060 0.028 0.090 0.060 0.1 0.13 0.048 0.327 0.327 0.575 0.663 0.575 0.093 0 0.181-0.019 0.261-0.053l-0.004 0.002c0.032-0.012 0.083-0.013 0.108 0.004 0.409 0.282 0.785 0.602 1.132 0.955 0.007 0.007 0.010 0.017 0.018 0.032zM18.445 17.57c0.007 1.331-1.090 2.428-2.436 2.436-0.002 0-0.005 0-0.007 0-1.345 0-2.437-1.085-2.449-2.427v-0.001c-0.006-1.333 1.089-2.427 2.438-2.434 0.004-0 0.009-0 0.014-0 1.342 0 2.431 1.084 2.44 2.424v0.001zM10.747 18.834l-0.632-0.635c-0.26-0.26-0.522-0.516-0.78-0.778-0.032-0.033-0.053-0.077-0.056-0.127l-0-0c0.026-0.874 0.218-1.696 0.545-2.446l-0.017 0.043c0.017-0.050 0.060-0.087 0.112-0.095l0.001-0c0.449-0.105 0.658-0.497 0.499-0.925-0.010-0.030-0.010-0.075 0.005-0.1 0.499-0.731 1.116-1.34 1.831-1.815l0.025-0.015c0.003-0.002 0.006-0.002 0.020-0.006l0.265 0.452 0.556 0.96c0.112 0.196 0.258 0.239 0.451 0.122 0.473-0.291 1.027-0.503 1.62-0.6l0.026-0.004c0.236-0.042 0.508-0.066 0.786-0.066 0.785 0 1.525 0.192 2.175 0.531l-0.026-0.012c0.009 0.005 0.016 0.012 0.034 0.026l-0.839 1.407c-1.585-0.595-2.895-0.24-3.953 1.077l-1.407-0.827c0.126-0.169 0.246-0.332 0.369-0.492 0.050-0.066 0.108-0.126 0.164-0.188 0.086-0.096 0.086-0.15-0.002-0.24-0.078-0.079-0.155-0.156-0.231-0.231l-0.003-0.003c-0.106-0.104-0.158-0.104-0.258 0.004-0.414 0.442-0.754 0.959-0.999 1.527l-0.013 0.034c-0.266 0.608-0.422 1.318-0.422 2.063 0 0.175 0.009 0.348 0.025 0.519l-0.002-0.022c0.026 0.28 0.083 0.557 0.13 0.862zM15.995 10.824c-0.206-0.004-0.372-0.171-0.376-0.377v-0c0.007-0.206 0.174-0.37 0.38-0.374h0c0.206 0.005 0.372 0.172 0.375 0.378v0c-0.004 0.207-0.172 0.372-0.379 0.374h-0zM11.395 9.41c0.003-0 0.007-0 0.010-0 0.204 0 0.37 0.164 0.373 0.368v0c0 0.209-0.169 0.378-0.378 0.378s-0.378-0.169-0.378-0.378v0c0.002-0.204 0.168-0.368 0.372-0.368 0 0 0.001 0 0.001 0h-0zM22.196 14.51c-0.199-0.009-0.357-0.172-0.357-0.372 0-0.198 0.154-0.359 0.348-0.371l0.001-0c0.001 0 0.002-0 0.003-0 0.205 0 0.372 0.166 0.372 0.372 0 0.204-0.164 0.37-0.368 0.371h-0zM20.593 9.41c0.213 0 0.375 0.16 0.374 0.372-0.001 0.204-0.165 0.369-0.369 0.37h-0c-0.002 0-0.004 0-0.006 0-0.205 0-0.372-0.165-0.374-0.37v-0c-0-0.002-0-0.003-0-0.005 0-0.203 0.165-0.368 0.368-0.368 0.002 0 0.005 0 0.007 0h-0zM10.175 14.138c0 0.001 0 0.001 0 0.002 0 0.204-0.166 0.37-0.37 0.37-0.002 0-0.004-0-0.006-0h0c-0.002 0-0.003 0-0.005 0-0.203 0-0.368-0.165-0.368-0.368 0-0.002 0-0.005 0-0.007v0c0.001-0.203 0.166-0.368 0.37-0.368 0 0 0.001 0 0.001 0h-0c0.002-0 0.005-0 0.007-0 0.205 0 0.371 0.166 0.371 0.371 0 0 0 0 0 0v0z"></path>
</svg>
