<!-- Generated by IcoMoon.io -->
<svg version="1.1" xmlns="http://www.w3.org/2000/svg" width="32" height="32" viewBox="0 0 32 32">
<title>pungo</title>
<path fill="#22b573" d="M32 16c0 8.837-7.163 16-16 16s-16-7.163-16-16c0-8.837 7.163-16 16-16s16 7.163 16 16z"></path>
<path fill="#feffff" d="M15.22 26.804c0.877 0.050 1.918-0.002 2.666-0.135 1.623-0.28 3.288-1.005 4.654-2.027 0.613-0.461 1.664-1.512 2.12-2.12 1.028-1.372 1.705-2.907 2.055-4.67 0.129-0.667 0.146-2.967 0.030-3.65-0.643-3.615-2.85-6.558-6.085-8.111 0.005-0.002-0.079-0.042-0.164-0.081l-0.093-0.039 0.42 1.492c0.24 0.829 0.73 2.575 1.098 3.871 0.975 3.428 0.964 3.37 0.999 4.24 0.017 0.455 0.006 0.963-0.035 1.273-0.415 3.112-2.885 5.576-6.010 5.997-0.636 0.087-1.71 0.047-2.311-0.082-0.222-0.053-0.415-0.082-0.433-0.070-0.017 0.023 0.946 3.498 1.098 3.965 0.032 0.096 0.043 0.134-0.010 0.147zM11.64 25.931c-0.008-0.005-0.014-0.011-0.020-0.016l0 0c-0.035-0.040-0.303-0.893-0.59-1.903-0.285-1.010-0.817-2.88-1.173-4.146-0.362-1.267-0.69-2.505-0.736-2.745-0.093-0.525-0.105-1.752-0.017-2.277 0.122-0.701 0.325-1.329 0.603-1.913l-0.019 0.044c0.975-2.044 2.692-3.393 4.957-3.889 0.613-0.134 2.032-0.134 2.651 0 0.251 0.059 0.48 0.082 0.503 0.053 0.023-0.024-0.217-0.952-0.532-2.062-0.082-0.21-0.272-0.88-0.451-1.555l-0.101-0.45c-0.153-0.002-0.335-0.003-0.516-0.003-0.044 0-0.087 0-0.131 0l0.007-0c-1.301-0.006-1.634 0.029-2.639 0.262-2.172 0.508-4.274 1.805-5.728 3.516-2.412 2.838-3.223 6.71-2.149 10.23 0.391 1.297 0.876 2.249 1.688 3.352 1.133 1.513 2.612 2.706 4.323 3.474l0.070 0.028zM14.213 27.836c-0.315-0.046-0.619-0.099-0.671-0.122-0.124-0.040-0.312-0.091-0.502-0.135l-0.059-0.011c-1.857-0.45-3.83-1.553-5.308-2.967-1.127-1.080-2.254-2.715-2.727-3.947-0.064-0.158-0.14-0.345-0.17-0.409-0.157-0.333-0.437-1.308-0.595-2.096-0.17-0.823-0.181-0.97-0.181-2.167 0-0.735 0.030-1.436 0.064-1.635 0.041-0.192 0.117-0.619 0.181-0.94 0.059-0.327 0.146-0.654 0.187-0.73 0.026-0.040 0.046-0.087 0.058-0.137l0.001-0.003c-0.030 0 0.239-0.87 0.286-0.934 0.023-0.030 0.093-0.187 0.151-0.35 0.1-0.275 0.427-0.94 0.55-1.14 0.034-0.046 0.186-0.303 0.344-0.566 0.163-0.268 0.321-0.52 0.35-0.554 0.035-0.041 0.228-0.286 0.427-0.543 1.74-2.214 4.385-3.814 7.17-4.333 0.824-0.158 3.632-0.152 4.467 0.006 1.338 0.25 2.763 0.805 3.971 1.541 0.584 0.362 0.625 0.386 1.285 0.911 0.56 0.444 1.489 1.378 1.892 1.904 0.158 0.21 0.356 0.461 0.438 0.56 0.082 0.106 0.152 0.205 0.152 0.228 0 0.030 0.064 0.129 0.14 0.228s0.257 0.42 0.409 0.706c0.146 0.292 0.292 0.555 0.315 0.584 0.023 0.035 0.134 0.275 0.24 0.543 0.788 1.992 1.062 3.89 0.846 5.94-0.088 0.88-0.485 2.44-0.788 3.106-0.059 0.14-0.111 0.268-0.111 0.286 0 0.052-0.502 1.057-0.654 1.308-1.232 2.044-2.978 3.69-4.952 4.671-0.339 0.17-0.66 0.327-0.718 0.357-0.392 0.204-1.682 0.595-2.64 0.794-0.595 0.122-3.089 0.152-3.848 0.046zM16.835 19.486c1.267-0.321 2.365-1.401 2.68-2.633 0.117-0.462 0.123-1.355 0.006-1.805-0.485-1.915-2.476-3.136-4.35-2.663-0.771 0.193-1.18 0.42-1.723 0.964-0.776 0.777-1.098 1.547-1.092 2.633 0.006 1.653 1.080 3.049 2.692 3.48 0.485 0.13 1.326 0.14 1.787 0.024z"></path>
</svg>
