<!-- Generated by IcoMoon.io -->
<svg version="1.1" xmlns="http://www.w3.org/2000/svg" width="32" height="32" viewBox="0 0 32 32">
<title>pura</title>
<path fill="#333" d="M32 16c0 8.837-7.163 16-16 16s-16-7.163-16-16c0-8.837 7.163-16 16-16s16 7.163 16 16z"></path>
<path fill="#fff" d="M11.192 8h7.764c2.148 0.127 4.511 1.010 5.46 3.060 1.187 2.611 0.597 6.283-2.077 7.773-2.466 1.41-5.416 0.854-8.124 0.97-0.073 1.334 0.3 2.886-0.63 4.014-0.374 0.54-2.089 1.183-2.089 1.183s-0.158-1.449-0.216-4.71c-0.037-0.9 0.11-1.91 0.883-2.495 0.905-0.778 2.188-0.535 3.287-0.575 1.66-0.044 3.404 0.21 4.98-0.43 2.312-0.945 2.396-4.804 0.066-5.777-2.379-0.922-5.006-0.083-7.45-0.593-1.11-0.311-1.609-1.404-1.854-2.42zM7 12.43c2.030 0.037 4.064-0.071 6.090 0.051 1.473 0.113 2.44 1.447 2.594 2.811-2.044-0.010-4.093 0.065-6.138-0.025-1.256-0.073-2.183-1.093-2.546-2.218v-0.618z"></path>
</svg>
