<!-- Generated by IcoMoon.io -->
<svg version="1.1" xmlns="http://www.w3.org/2000/svg" width="32" height="32" viewBox="0 0 32 32">
<title>qash</title>
<path fill="#1347e8" d="M16 32c-8.837 0-16-7.163-16-16s7.163-16 16-16 16 7.163 16 16-7.163 16-16 16zM16 5c-6.075 0-11 4.925-11 11s4.925 11 11 11 11-4.925 11-11-4.925-11-11-11zM26.44 15.55l-0.89 0.009-0.004-0.373 0.891-0.008 0.004 0.372zM26.212 13.627l-0.883 0.123-0.051-0.37 0.882-0.122 0.052 0.37zM25.452 11.285l0.154 0.34-0.811 0.368-0.154-0.339 0.81-0.369zM24.34 9.59l0.246 0.28-0.67 0.588-0.245-0.28 0.669-0.588zM23.035 8.197l0.282 0.244-0.581 0.674-0.283-0.243 0.582-0.675zM21.48 6.938l0.312 0.203-0.485 0.747-0.312-0.202 0.485-0.748zM19.71 6.065l0.361 0.095-0.226 0.861-0.361-0.095 0.227-0.86zM17.765 5.587l0.371 0.030-0.074 0.888-0.371-0.031 0.074-0.887zM15.751 5.352h0.372v0.891h-0.372v-0.891zM14.097 5.587l0.074 0.887-0.372 0.032-0.074-0.888 0.372-0.031zM12.151 6.065l0.226 0.861-0.36 0.095-0.227-0.86 0.36-0.096zM10.382 6.938l0.485 0.748-0.313 0.202-0.485-0.747 0.313-0.203zM8.827 8.198l0.581 0.674-0.282 0.243-0.581-0.674 0.282-0.244zM7.523 9.588l0.67 0.588-0.247 0.28-0.669-0.587 0.246-0.28zM6.412 11.284l0.81 0.369-0.153 0.34-0.811-0.37 0.154-0.339zM5.703 13.257l0.883 0.122-0.052 0.37-0.882-0.123 0.051-0.37zM5.427 15.177l0.89 0.008-0.003 0.373-0.89-0.009 0.003-0.372zM5.509 17.269l0.886-0.090 0.037 0.37-0.886 0.090-0.037-0.37zM5.912 19.163l0.868-0.202 0.085 0.363-0.868 0.202-0.085-0.363zM6.883 21.426l-0.184-0.324 0.773-0.442 0.185 0.324-0.774 0.442zM8.145 23.013l-0.271-0.256 0.613-0.647 0.27 0.256-0.612 0.647zM9.57 24.28l-0.303-0.216 0.517-0.726 0.303 0.217-0.517 0.725zM11.234 25.391l-0.33-0.173 0.414-0.788 0.33 0.173-0.414 0.788zM13.075 26.099l-0.368-0.062 0.147-0.878 0.368 0.062-0.147 0.878zM14.684 26.401l-0.007-0.891 0.373-0.004 0.007 0.891-0.373 0.004zM6.74 16c0-5.106 4.154-9.26 9.26-9.26s9.26 4.154 9.26 9.26-4.154 9.26-9.26 9.26-9.26-4.154-9.26-9.26zM16.726 26.481l-0.012 0.001-0.081-0.886 0.371-0.034 0.012-0.002 0.081 0.887-0.371 0.034zM18.711 26.063l-0.155-0.877 0.367-0.065 0.155 0.878-0.367 0.064zM20.605 25.409l-0.305-0.837 0.35-0.127 0.305 0.837-0.35 0.127zM22.286 24.379l-0.55-0.7 0.292-0.232 0.551 0.7-0.293 0.231zM23.72 22.982l-0.64-0.618 0.258-0.269 0.64 0.62-0.258 0.267zM24.892 21.477l-0.72-0.525 0.22-0.301 0.72 0.524-0.22 0.302zM25.844 19.687l-0.842-0.294 0.123-0.352 0.841 0.294-0.122 0.351zM26.369 17.657l-0.89-0.040 0.017-0.373 0.89 0.041-0.017 0.372zM19.536 20.732l-0.278-0.28-0.539-0.546c0.625-0.594 1.021-1.193 0.957-2.574-0.005-0.108 0.006-1.483 0.006-1.592l-0.003-1.033c0.003-2.55-0.62-3.706-2.338-4.115-0.195-0.047-1.133-0.070-1.337-0.070h-0.090c-0.204 0-1.267 0.023-1.462 0.070-1.718 0.409-2.341 1.565-2.338 4.115l-0.003 1.032c0 0.109 0.010 1.485 0.006 1.592-0.117 2.556 1.337 3.342 2.91 3.284h1.739c0.037 0.002 0.080 0.003 0.124 0.003 0.433 0 0.844-0.1 1.209-0.277l-0.016 0.007 0.91 0.921c0.159 0.15 0.402 0.158 0.549 0.012 0.147-0.145 0.143-0.388-0.006-0.549zM16.877 19.804l-0.081-0.001-0.015-0.001h-1.783c-0.023 0.001-0.052 0.002-0.080 0.002h-0.001c-0.374 0-0.911-0.095-1.344-0.549-0.466-0.488-0.689-0.896-0.644-1.886 0.004-0.070 0.004-0.071-0.003-1.313-0.001-0.151-0.001-0.329-0.001-0.508s0-0.357 0.001-0.535l-0 0.027c0-0.426 0.002-0.276 0.002-0.335-0.002-1.13 0.126-2.112 0.401-2.555 0.163-0.264 0.445-0.56 1.299-0.766 0.168-0.025 1.028-0.051 1.285-0.051h0.092c0.258 0 0.993 0.026 1.162 0.051 0.853 0.206 1.135 0.502 1.298 0.766 0.275 0.443 0.403 1.425 0.402 2.555l0.002 0.335 0.001 0.698-0.002 0.317c-0.007 1.242-0.006 1.244-0.003 1.313 0.045 0.99-0.177 1.398-0.643 1.886l-0.074 0.073-0.776-0.785c-0.159-0.152-0.402-0.159-0.55-0.013-0.146 0.145-0.142 0.388 0.007 0.548l0.634 0.641c-0.19 0.057-0.387 0.086-0.586 0.085z"></path>
</svg>
