<!-- Generated by IcoMoon.io -->
<svg version="1.1" xmlns="http://www.w3.org/2000/svg" width="32" height="32" viewBox="0 0 32 32">
<title>qash</title>
<path fill="#1347e8" d="M32 16c0 8.837-7.163 16-16 16s-16-7.163-16-16c0-8.837 7.163-16 16-16s16 7.163 16 16z"></path>
<path fill="#fff" d="M16 5c-6.075 0-11 4.925-11 11s4.925 11 11 11 11-4.925 11-11-4.925-11-11-11zM26.44 15.55l-0.89 0.009-0.004-0.373 0.891-0.008 0.004 0.372zM26.212 13.627l-0.883 0.123-0.051-0.37 0.882-0.122 0.052 0.37zM25.452 11.285l0.154 0.34-0.811 0.368-0.154-0.339 0.81-0.369zM24.34 9.59l0.246 0.28-0.67 0.588-0.245-0.28 0.669-0.588zM23.035 8.197l0.282 0.244-0.581 0.674-0.283-0.243 0.582-0.675zM21.48 6.938l0.312 0.203-0.485 0.747-0.312-0.202 0.485-0.748zM19.71 6.065l0.361 0.095-0.226 0.861-0.361-0.095 0.227-0.86zM17.765 5.587l0.371 0.030-0.074 0.888-0.371-0.031 0.074-0.887zM15.751 5.352h0.372v0.891h-0.372v-0.891zM14.097 5.587l0.074 0.887-0.372 0.032-0.074-0.888 0.372-0.031zM12.151 6.065l0.226 0.861-0.36 0.095-0.227-0.86 0.36-0.096zM10.382 6.938l0.485 0.748-0.313 0.202-0.485-0.747 0.313-0.203zM8.827 8.198l0.581 0.674-0.282 0.243-0.581-0.674 0.282-0.244zM7.523 9.588l0.67 0.588-0.247 0.28-0.669-0.587 0.246-0.28zM6.412 11.284l0.81 0.369-0.153 0.34-0.811-0.37 0.154-0.339zM5.703 13.257l0.883 0.122-0.052 0.37-0.882-0.123 0.051-0.37zM5.427 15.177l0.89 0.008-0.003 0.373-0.89-0.009 0.003-0.372zM5.509 17.269l0.886-0.090 0.037 0.37-0.886 0.090-0.037-0.37zM5.912 19.163l0.868-0.202 0.085 0.363-0.868 0.202-0.085-0.363zM6.883 21.426l-0.184-0.324 0.773-0.442 0.185 0.324-0.774 0.442zM8.145 23.013l-0.271-0.256 0.613-0.647 0.27 0.256-0.612 0.647zM9.57 24.28l-0.303-0.216 0.517-0.726 0.303 0.217-0.517 0.725zM11.234 25.391l-0.33-0.173 0.414-0.788 0.33 0.173-0.414 0.788zM13.075 26.099l-0.368-0.062 0.147-0.878 0.368 0.062-0.147 0.878zM14.684 26.401l-0.007-0.891 0.373-0.004 0.007 0.891-0.373 0.004zM6.74 16c0-5.106 4.154-9.26 9.26-9.26s9.26 4.154 9.26 9.26-4.154 9.26-9.26 9.26-9.26-4.154-9.26-9.26zM16.726 26.481l-0.012 0.001-0.081-0.886 0.371-0.034 0.012-0.002 0.081 0.887-0.371 0.034zM18.711 26.063l-0.155-0.877 0.367-0.065 0.155 0.878-0.367 0.064zM20.605 25.409l-0.305-0.837 0.35-0.127 0.305 0.837-0.35 0.127zM22.286 24.379l-0.55-0.7 0.292-0.232 0.551 0.7-0.293 0.231zM23.72 22.982l-0.64-0.618 0.258-0.269 0.64 0.62-0.258 0.267zM24.892 21.477l-0.72-0.525 0.22-0.301 0.72 0.524-0.22 0.302zM25.844 19.687l-0.842-0.294 0.123-0.352 0.841 0.294-0.122 0.351zM26.369 17.657l-0.89-0.040 0.017-0.373 0.89 0.041-0.017 0.372zM19.536 20.732h-0.001c0.149 0.16 0.153 0.404 0.006 0.55-0.147 0.145-0.39 0.138-0.549-0.014v0.001l-0.278-0.28-0.632-0.641c-0.349 0.17-0.759 0.27-1.192 0.27-0.044 0-0.087-0.001-0.13-0.003l0.006 0h-1.738c-1.574 0.058-3.028-0.728-2.91-3.284 0.004-0.107-0.007-1.483-0.007-1.592l0.003-1.032c-0.003-2.55 0.62-3.706 2.338-4.115 0.195-0.047 1.258-0.070 1.461-0.070h0.091c0.204 0 1.142 0.023 1.337 0.070 1.718 0.409 2.341 1.565 2.338 4.115l0.003 1.033c0 0.109-0.011 1.484-0.006 1.592 0.064 1.38-0.332 1.98-0.957 2.574l0.54 0.545 0.277 0.281zM16.877 19.804c0.199 0 0.396-0.028 0.586-0.084l-0.356-0.36-0.278-0.282c-0.15-0.16-0.153-0.403-0.006-0.548 0.147-0.146 0.39-0.139 0.549 0.012l0.277 0.28 0.499 0.506c0.026-0.024 0.050-0.048 0.073-0.072l0.001-0.001c0.466-0.488 0.688-0.896 0.643-1.886-0.003-0.070-0.004-0.071 0.003-1.313l0.002-0.317-0.001-0.698c-0.001-0.426-0.002-0.276-0.002-0.335 0.001-1.13-0.127-2.112-0.402-2.555-0.163-0.264-0.445-0.56-1.298-0.766-0.344-0.030-0.749-0.049-1.157-0.051l-0.005-0h-0.092c-0.257 0-1.117 0.026-1.285 0.051-0.854 0.206-1.136 0.502-1.299 0.766-0.275 0.443-0.403 1.425-0.401 2.555 0 0.060-0.001-0.091-0.002 0.335-0 0.151-0 0.329-0 0.508s0 0.357 0 0.535l-0-0.028c0.007 1.242 0.007 1.244 0.003 1.313-0.045 0.99 0.178 1.398 0.644 1.886 0.433 0.454 0.97 0.55 1.344 0.55l0.081-0.002 0.015-0.001h1.783c0.027 0.002 0.054 0.002 0.081 0.002z"></path>
</svg>
