<!-- Generated by IcoMoon.io -->
<svg version="1.1" xmlns="http://www.w3.org/2000/svg" width="32" height="32" viewBox="0 0 32 32">
<title>qiwi</title>
<path fill="#ff8c00" d="M32 16c0 8.837-7.163 16-16 16s-16-7.163-16-16c0-8.837 7.163-16 16-16s16 7.163 16 16z"></path>
<path fill="#fff" d="M22.59 19.445c0.051 0.401-0.063 0.556-0.19 0.556s-0.305-0.155-0.495-0.465c-0.19-0.31-0.267-0.66-0.165-0.84 0.063-0.117 0.203-0.169 0.368-0.104 0.33 0.13 0.457 0.633 0.482 0.853zM20.813 20.325c0.393 0.336 0.508 0.723 0.304 1.008-0.122 0.142-0.303 0.232-0.504 0.232-0.005 0-0.011-0-0.016-0h0.001c-0.003 0-0.006 0-0.009 0-0.226 0-0.432-0.083-0.589-0.221l0.001 0.001c-0.355-0.31-0.457-0.827-0.229-1.111 0.090-0.111 0.227-0.182 0.38-0.182 0.009 0 0.019 0 0.028 0.001l-0.001-0c0.203 0 0.432 0.090 0.635 0.271zM7 14.894c0-4.913 3.91-8.894 8.734-8.894 4.825 0 8.735 3.982 8.735 8.894 0 0 0 0 0 0.001 0 1.681-0.457 3.256-1.254 4.606l0.023-0.042c-0.026 0.039-0.090 0.026-0.102-0.026-0.304-2.185-1.612-3.387-3.516-3.749-0.166-0.026-0.191-0.13 0.025-0.155 0.584-0.052 1.409-0.039 1.84 0.039 0.025-0.203 0.039-0.439 0.039-0.677 0-0.003 0-0.006 0-0.009v0c0-3.245-2.59-5.882-5.777-5.882-3.186 0-5.776 2.637-5.776 5.882 0 3.246 2.59 5.883 5.776 5.883h0.267c-0.075-0.413-0.118-0.889-0.118-1.375 0-0.076 0.001-0.151 0.003-0.226l-0 0.011c0.013-0.362 0.090-0.414 0.242-0.13 0.8 1.41 1.942 2.677 4.177 3.18 1.828 0.415 3.656 0.893 5.624 3.44 0.177 0.22-0.089 0.452-0.292 0.271-2.006-1.81-3.834-2.405-5.497-2.405-1.867 0.014-3.136 0.26-4.419 0.26-4.824 0-8.734-3.984-8.734-8.897z"></path>
</svg>
