<!-- Generated by IcoMoon.io -->
<svg version="1.1" xmlns="http://www.w3.org/2000/svg" width="32" height="32" viewBox="0 0 32 32">
<title>qlc</title>
<path fill="#610089" d="M32 16c0 8.837-7.163 16-16 16s-16-7.163-16-16c0-8.837 7.163-16 16-16s16 7.163 16 16z"></path>
<path fill="#fff" d="M16.49 5.003c5.13 0.276 9.282 3.836 10.301 8.868 0.134 0.664 0.17 1.351 0.207 2.030 0.033 0.6-0.358 1.005-0.899 1.004-0.53 0-0.877-0.384-0.89-0.98-0.097-4.387-3.060-8.005-7.338-8.92-0.64-0.136-1.308-0.138-1.962-0.212-0.498-0.056-0.828-0.439-0.814-0.925 0.014-0.481 0.374-0.839 0.876-0.864 0.173-0.008 0.346-0.001 0.519-0.001zM15.532 27c-4.923-0.148-9.351-3.88-10.285-8.712-0.142-0.74-0.196-1.499-0.245-2.252-0.030-0.46 0.263-0.79 0.69-0.9 0.354-0.092 0.766 0.059 0.946 0.396 0.090 0.171 0.133 0.387 0.137 0.584 0.073 4.204 2.916 7.822 6.996 8.828 0.736 0.182 1.512 0.211 2.272 0.292 0.434 0.045 0.782 0.34 0.84 0.763 0.055 0.4-0.197 0.847-0.58 0.942-0.247 0.061-0.514 0.042-0.771 0.059zM15.984 11.997c2.177-0.007 4.005 1.778 4.020 3.925 0.005 0.74-0.673 1.206-1.3 0.887-0.34-0.172-0.486-0.46-0.5-0.843-0.022-1.079-0.818-1.966-1.855-2.13l-0.012-0.002c-1.152-0.196-2.272 0.586-2.496 1.743-0.229 1.182 0.511 2.333 1.663 2.582 0.158 0.034 0.32 0.053 0.48 0.062 0.536 0.028 0.912 0.397 0.908 0.9-0.004 0.51-0.407 0.888-0.953 0.893-1.716 0.015-3.334-1.237-3.802-2.941-0.699-2.545 1.213-5.068 3.847-5.076zM23.539 15.754c-0.020 0.17-0.013 0.383-0.075 0.573-0.13 0.404-0.56 0.638-0.98 0.57-0.437-0.072-0.748-0.43-0.753-0.92-0.007-0.746-0.128-1.47-0.434-2.147-1.013-2.235-2.746-3.434-5.204-3.55-0.601-0.030-1-0.382-0.996-0.92 0.005-0.538 0.407-0.889 1.017-0.887 3.67 0.007 6.877 2.847 7.342 6.504 0.032 0.247 0.053 0.494 0.083 0.777zM8.478 16.215c-0.051-0.407 0.053-0.808 0.518-1.022 0.612-0.283 1.253 0.155 1.265 0.874 0.012 0.689 0.13 1.352 0.378 1.994 0.826 2.131 2.835 3.626 5.201 3.682l0.007 0c0.776 0.020 1.227 0.582 0.98 1.22-0.138 0.36-0.442 0.569-0.858 0.565-2.202-0.020-4.059-0.845-5.544-2.462-1.18-1.272-1.914-2.972-1.947-4.843l-0-0.007zM20.012 19.035c-0.037 0.447-0.19 0.73-0.526 0.887-0.334 0.156-0.673 0.132-0.94-0.115-0.489-0.455-0.946-0.91-1.387-1.381l-0.014-0.016c-0.31-0.332-0.28-0.855 0.024-1.182 0.31-0.333 0.864-0.402 1.203-0.091 0.502 0.458 0.977 0.948 1.44 1.447 0.122 0.132 0.156 0.345 0.2 0.45z"></path>
</svg>
