<!-- Generated by IcoMoon.io -->
<svg version="1.1" xmlns="http://www.w3.org/2000/svg" width="32" height="32" viewBox="0 0 32 32">
<title>qrl</title>
<path fill="#252525" d="M32 16c0 8.837-7.163 16-16 16s-16-7.163-16-16c0-8.837 7.163-16 16-16s16 7.163 16 16z"></path>
<path fill="#fff" d="M25.628 21.209c0.206 0.004 0.372 0.173 0.372 0.38 0 0.001 0 0.003-0 0.004v-0 1.907h-6.279l-0.024-1.66c0.001-0.114 0.052-0.215 0.132-0.284l0.001-0c0.025-0.032 0.053-0.061 0.083-0.086l0.001-0.001c2.767-1.93 3.83-5.605 2.542-8.784-1.289-3.179-4.572-4.978-7.847-4.3-3.274 0.677-5.631 3.644-5.632 7.090-0.002 2.355 1.12 4.56 3.001 5.895 0.041 0.023 0.074 0.057 0.095 0.098l0.001 0.001c0.136 0.065 0.229 0.201 0.229 0.359v0l-0.024 1.66h-6.279v-1.908c0-0.212 0.167-0.384 0.372-0.384s0.372 0.172 0.372 0.384v1.152h4.802l0.012-0.718h-0.012c-2.761-2.002-3.946-5.618-2.93-8.938 1.019-3.32 4.004-5.576 7.379-5.576s6.36 2.256 7.377 5.576c1.017 3.32-0.168 6.936-2.93 8.938l0.013 0.73h4.802v-1.151c0-0.001-0-0.003-0-0.004 0-0.207 0.166-0.375 0.372-0.38h0zM20.67 16.033c0.828 1.053 1.080 1.994 0.72 2.613-0.276 0.483-0.864 0.743-1.717 0.743-0.569-0.014-1.113-0.099-1.63-0.246l0.046 0.011c-0.468 1.635-1.225 2.688-2.089 2.688s-1.62-1.053-2.077-2.688c-0.471 0.136-1.015 0.221-1.576 0.235l-0.008 0c-0.853 0-1.441-0.26-1.717-0.743-0.444-0.768 0.060-1.969 1.212-3.195-0.168-0.175-0.329-0.36-0.48-0.554l-0.012-0.016c-0.828-1.053-1.080-1.982-0.72-2.626 0.276-0.483 0.864-0.743 1.717-0.743 0.569 0.015 1.113 0.1 1.63 0.247l-0.046-0.011c0.468-1.635 1.225-2.688 2.089-2.688s1.62 1.053 2.077 2.7c0.471-0.136 1.015-0.221 1.576-0.235l0.008-0c0.853 0 1.441 0.26 1.717 0.743 0.36 0.644 0.108 1.573-0.72 2.626-0.163 0.21-0.324 0.395-0.494 0.572l0.002-0.002c0.174 0.18 0.338 0.37 0.492 0.569zM19.685 11.983c-0.532 0.017-1.038 0.093-1.523 0.221l0.047-0.011c0.129 0.588 0.22 1.184 0.276 1.784 0.474 0.35 0.927 0.731 1.357 1.14 0.168-0.174 0.324-0.36 0.468-0.533 0.684-0.88 0.936-1.635 0.684-2.093-0.228-0.421-0.84-0.508-1.309-0.508zM17.045 17.321c0.348-0.21 0.684-0.433 0.996-0.656 0.036-0.397 0.048-0.793 0.048-1.214s-0.024-0.83-0.048-1.214c-0.268-0.191-0.593-0.404-0.926-0.605l-0.071-0.039c-0.233-0.139-0.575-0.325-0.922-0.501l-0.122-0.056c-0.358 0.166-0.706 0.352-1.044 0.557-0.36 0.21-0.685 0.421-0.997 0.644-0.036 0.384-0.048 0.793-0.048 1.214 0 0.42 0.024 0.83 0.048 1.214 0.585 0.416 1.253 0.819 1.951 1.172l0.090 0.041c0.358-0.166 0.706-0.352 1.044-0.557zM17.993 17.284c-0.24 0.148-0.468 0.297-0.708 0.446-0.24 0.148-0.48 0.285-0.72 0.408 0.394 0.178 0.799 0.331 1.212 0.459 0.084-0.409 0.156-0.843 0.216-1.313zM15.46 18.138l-0.72-0.408c-0.24-0.149-0.48-0.298-0.709-0.446 0.043 0.442 0.115 0.88 0.216 1.313 0.412-0.13 0.817-0.283 1.213-0.459zM13.491 16.305c-0.013-0.25-0.022-0.548-0.024-0.848l-0-0.006c0-0.297 0.012-0.57 0.024-0.855-0.349 0.264-0.682 0.549-0.996 0.855 0.316 0.303 0.649 0.589 0.996 0.854zM14.031 13.643c0.19-0.136 0.417-0.283 0.651-0.421l0.045-0.025c0.253-0.149 0.493-0.285 0.733-0.409-0.395-0.178-0.8-0.33-1.213-0.458-0.084 0.408-0.156 0.842-0.216 1.313zM16.552 12.788c0.24 0.124 0.48 0.26 0.72 0.409 0.24 0.148 0.48 0.297 0.709 0.446-0.049-0.498-0.125-0.945-0.23-1.381l0.014 0.068c-0.412 0.13-0.817 0.282-1.213 0.458zM18.533 14.608c0.012 0.286 0.024 0.558 0.024 0.855s-0.012 0.582-0.024 0.855c0.348-0.285 0.684-0.57 0.984-0.855-0.301-0.299-0.622-0.578-0.96-0.837l-0.024-0.017zM16.012 9.531c-0.612 0-1.236 0.867-1.645 2.34 0.562 0.177 1.111 0.392 1.645 0.643 0.446-0.217 0.991-0.435 1.552-0.616l0.093-0.026c-0.409-1.474-1.045-2.341-1.645-2.341zM11.030 12.491c-0.264 0.458-0.012 1.226 0.684 2.080 0.144 0.185 0.3 0.358 0.468 0.544 0.428-0.41 0.88-0.79 1.357-1.138 0.055-0.6 0.147-1.196 0.276-1.783-0.482-0.13-0.978-0.2-1.476-0.211-0.469 0-1.069 0.087-1.309 0.508zM12.339 18.931c0.499-0.010 0.995-0.085 1.476-0.224-0.115-0.497-0.213-1.104-0.271-1.723l-0.005-0.059c-0.483-0.344-0.94-0.725-1.369-1.14-1.032 1.103-1.44 2.093-1.14 2.638 0.228 0.421 0.84 0.508 1.309 0.508zM16.012 21.383c0.6 0 1.236-0.867 1.645-2.34-0.654-0.208-1.199-0.426-1.724-0.678l0.079 0.034c-0.445 0.217-0.99 0.435-1.551 0.618l-0.094 0.026c0.409 1.473 1.045 2.34 1.645 2.34zM20.994 18.423c0.252-0.446 0-1.213-0.684-2.093-0.16-0.195-0.313-0.369-0.472-0.536l0.004 0.004c-0.428 0.41-0.88 0.79-1.357 1.14-0.063 0.678-0.16 1.286-0.294 1.88l0.018-0.097c0.482 0.129 0.978 0.2 1.476 0.21 0.469 0 1.069-0.087 1.309-0.508zM16.012 13.643c0.97 0 1.758 0.807 1.765 1.808 0 0.997-0.783 1.806-1.749 1.808s-1.752-0.803-1.757-1.8c-0.004-0.997 0.775-1.81 1.741-1.816zM16.012 16.801c0.714-0.006 1.291-0.601 1.297-1.338 0-0.739-0.58-1.337-1.297-1.337s-1.297 0.598-1.297 1.337 0.581 1.338 1.297 1.338z"></path>
</svg>
