<!-- Generated by IcoMoon.io -->
<svg version="1.1" xmlns="http://www.w3.org/2000/svg" width="32" height="32" viewBox="0 0 32 32">
<title>qsp</title>
<path fill="#454545" d="M32 16c0 8.837-7.163 16-16 16s-16-7.163-16-16c0-8.837 7.163-16 16-16s16 7.163 16 16z"></path>
<path fill="#fff" d="M11.5 16c0-2.481 2.019-4.5 4.5-4.5s4.5 2.019 4.5 4.5c0 0.653-0.143 1.272-0.394 1.833l-2.97-2.97-2.272 2.273 2.97 2.97c-0.539 0.249-1.169 0.394-1.834 0.394h-0c-2.484-0.003-4.497-2.016-4.5-4.5v-0zM23.313 16c0-0.002 0-0.004 0-0.007 0-1.477-0.44-2.851-1.197-3.999l0.017 0.027 2.867-2.868-2.154-2.154-2.868 2.868c-1.146-0.745-2.51-1.181-3.978-1.181s-2.832 0.436-3.978 1.18l-2.868-2.867-2.154 2.154 2.868 2.868c-0.745 1.146-1.181 2.51-1.181 3.978s0.437 2.832 1.181 3.978l-2.868 2.868 2.154 2.154 2.868-2.868c1.146 0.745 2.51 1.181 3.978 1.181s2.832-0.436 3.978-1.181l2.868 2.868 2.154-2.154-2.868-2.868c0.74-1.12 1.181-2.495 1.181-3.973 0-0.002 0-0.004 0-0.006v0z"></path>
</svg>
