<!-- Generated by IcoMoon.io -->
<svg version="1.1" xmlns="http://www.w3.org/2000/svg" width="32" height="32" viewBox="0 0 32 32">
<title>qtum</title>
<path fill="#2e9ad0" d="M32 16c0 8.837-7.163 16-16 16s-16-7.163-16-16c0-8.837 7.163-16 16-16s16 7.163 16 16z"></path>
<path fill="#fff" d="M25.313 23.636l-1.973-1.756-3.992 2.995c0.045 0.097 0.072 0.211 0.072 0.332 0 0 0 0.001 0 0.001v-0c0 0.002 0 0.004 0 0.006 0 0.431-0.347 0.781-0.778 0.786h-0c-0.381-0.002-0.698-0.277-0.765-0.639l-0.001-0.005h-4.31c-0.068 0.367-0.384 0.641-0.765 0.644h-0c-0.431-0.004-0.779-0.354-0.779-0.786 0-0.002 0-0.004 0-0.006v0c0-0 0-0.001 0-0.002 0-0.119 0.026-0.233 0.073-0.334l-0.002 0.005-3.546-2.64c-0.136 0.123-0.317 0.199-0.516 0.199-0 0-0 0-0 0v0c-0.431-0.004-0.779-0.354-0.779-0.786 0-0.002 0-0.004 0-0.006v0c0-0.3 0.164-0.561 0.406-0.696l-1.303-4.16c-0.021 0.002-0.045 0.003-0.069 0.003-0.434 0-0.786-0.352-0.786-0.786 0-0.002 0-0.004 0-0.005v0c0-0.001 0-0.003 0-0.005 0-0.434 0.352-0.786 0.786-0.786 0.033 0 0.066 0.002 0.098 0.006l-0.004-0 1.281-4.161c-0.246-0.138-0.409-0.397-0.409-0.694 0-0.001 0-0.003 0-0.004v0c0-0.437 0.349-0.792 0.779-0.792 0.202 0 0.386 0.078 0.524 0.206l3.573-2.58c-0.067-0.114-0.106-0.251-0.106-0.398 0-0 0-0 0-0v0c0-0.437 0.349-0.792 0.779-0.792 0.38 0 0.697 0.277 0.765 0.644h4.31c0.068-0.367 0.385-0.642 0.766-0.644h0c0.43 0 0.778 0.355 0.778 0.792 0 0.001 0 0.001 0 0.002 0 0.138-0.035 0.269-0.097 0.382l0.002-0.004 3.55 2.61c0.139-0.135 0.328-0.218 0.537-0.218 0 0 0 0 0 0v0c0.43 0 0.778 0.355 0.778 0.792 0 0.001 0 0.002 0 0.004 0 0.275-0.139 0.517-0.351 0.66l-0.003 0.002 1.276 4.189c0.016-0.001 0.034-0.002 0.053-0.002 0.429 0 0.777 0.348 0.777 0.777 0 0.005-0 0.010-0 0.016v-0.001c0 0.002 0 0.004 0 0.006 0 0.434-0.352 0.786-0.786 0.786-0.006 0-0.013-0-0.019-0l0.001 0-1.497 4.83 1.917 1.706c0.203-0.185 0.475-0.298 0.772-0.298 0.001 0 0.001 0 0.002 0h-0c0.645 0 1.168 0.532 1.168 1.188s-0.523 1.188-1.168 1.188c-0.646-0.006-1.168-0.531-1.168-1.178 0-0.004 0-0.007 0-0.011v0.001c0-0.212 0.054-0.41 0.15-0.582zM18.708 24.419l1.487-3.349c-0.12-0.099-0.209-0.231-0.255-0.382l-0.001-0.006-3.45 0.502c-0.026 0.153-0.093 0.288-0.189 0.396l0.001-0.001 2.047 2.895c0.086-0.037 0.187-0.058 0.292-0.058 0.024 0 0.047 0.001 0.071 0.003l-0.003-0zM19.101 24.569l3.869-2.903-1.668-0.726c-0.143 0.187-0.366 0.307-0.617 0.307-0.048 0-0.095-0.004-0.141-0.013l0.005 0.001-1.473 3.316c0.011 0.007 0.019 0.013 0.027 0.019l-0.002-0.002zM18.036 24.71l-2.060-2.912c-0.076 0.028-0.164 0.044-0.255 0.044s-0.179-0.016-0.26-0.045l0.005 0.002-2.060 2.912c0.057 0.071 0.103 0.154 0.133 0.244l0.002 0.006h4.36c0.032-0.096 0.078-0.179 0.136-0.252l-0.001 0.002zM24.764 16.68c-0.229-0.142-0.379-0.392-0.379-0.677 0-0.001 0-0.002 0-0.003v0c0-0.28 0.142-0.525 0.357-0.666l-1.206-3.96-0.27 3.874c0.31 0.104 0.535 0.401 0.535 0.752 0 0.001 0 0.002 0 0.004 0 0.343-0.218 0.635-0.523 0.745l-0.006 0.002 0.266 3.886 1.226-3.956zM22.51 15.403l-1.584-3.105c-0.072 0.025-0.155 0.039-0.241 0.039-0.056 0-0.111-0.006-0.164-0.018l0.005 0.001-1.392 3.067c0.175 0.147 0.286 0.366 0.286 0.611 0 0.001 0 0.001 0 0.002v-0c0 0 0 0.001 0 0.001 0 0.249-0.114 0.471-0.294 0.617l-0.001 0.001 1.435 3.054c0.038-0.007 0.081-0.010 0.126-0.010 0.065 0 0.129 0.008 0.19 0.023l-0.005-0.001 1.619-3.11c-0.152-0.145-0.246-0.349-0.246-0.575 0-0 0-0 0-0.001v0c0-0.238 0.104-0.452 0.267-0.597zM22.884 16.78c-0.023-0.004-0.041-0.008-0.059-0.013l0.005 0.001-1.617 3.104c0.156 0.146 0.252 0.352 0.252 0.582 0 0.043-0.003 0.086-0.010 0.127l0.001-0.005 1.74 0.758-0.312-4.554zM22.878 15.222l0.286-4.114c-0.154-0.054-0.282-0.15-0.375-0.275l-0.002-0.002-1.338 0.559c0.009 0.046 0.014 0.098 0.014 0.152 0 0.209-0.079 0.4-0.21 0.544l0.001-0.001 1.604 3.14c0.002-0 0.008-0.002 0.015-0.002l0.004-0.001zM18.77 16.782c-0.038 0.007-0.082 0.011-0.127 0.011-0.074 0-0.146-0.010-0.213-0.030l0.005 0.001-2.123 3.77c0.061 0.072 0.11 0.156 0.143 0.248l0.002 0.006 3.468-0.504c0.040-0.181 0.14-0.34 0.278-0.45l-1.433-3.054zM18.78 15.221l1.397-3.077c-0.138-0.122-0.233-0.289-0.261-0.479l-0.001-0.004-3.475-0.505c-0.040 0.097-0.096 0.181-0.164 0.251l0-0 2.139 3.835c0.067-0.022 0.145-0.034 0.226-0.034 0.050 0 0.098 0.005 0.145 0.014l-0.005-0.001zM18.098 16.567c-0.145-0.144-0.235-0.344-0.235-0.565 0-0.001 0-0.002 0-0.002v0c0-0.214 0.084-0.409 0.22-0.551l-2.14-3.838c-0.067 0.021-0.143 0.033-0.222 0.033-0.052 0-0.102-0.005-0.15-0.015l0.005 0.001-2.207 3.827c0.131 0.142 0.212 0.332 0.212 0.541 0 0.001 0 0.001 0 0.002v-0c0 0.001 0 0.002 0 0.002 0 0.217-0.087 0.413-0.227 0.557l0-0 2.168 3.725c0.060-0.017 0.128-0.026 0.199-0.026 0.097 0 0.19 0.018 0.276 0.051l-0.005-0.002 2.107-3.74zM6.721 16.652l1.242 3.966 0.293-3.844c-0.354-0.083-0.614-0.396-0.614-0.77 0-0.001 0-0.003 0-0.004v0c0-0.001 0-0.003 0-0.004 0-0.379 0.266-0.695 0.622-0.772l0.005-0.001-0.303-3.834-1.223 3.975c0.192 0.147 0.315 0.376 0.315 0.634 0 0.001 0 0.002 0 0.002v-0c0 0.27-0.134 0.51-0.337 0.652zM10.609 19.678c0.045-0.009 0.096-0.014 0.148-0.014 0.071 0 0.14 0.010 0.205 0.028l-0.005-0.001 1.37-3.061c-0.186-0.147-0.305-0.373-0.305-0.627 0-0.001 0-0.002 0-0.003v0c0-0.248 0.112-0.469 0.287-0.614l-1.392-3.066c-0.048 0.011-0.103 0.017-0.159 0.017-0.047 0-0.093-0.004-0.138-0.012l0.005 0.001-1.679 3.091c0.156 0.146 0.254 0.353 0.254 0.583 0 0 0 0.001 0 0.001v-0c0 0.001 0 0.002 0 0.002 0 0.223-0.092 0.425-0.24 0.569l-0 0 1.65 3.106zM10.933 21.228c-0.053 0.013-0.113 0.020-0.176 0.020-0.244 0-0.462-0.114-0.603-0.292l-0.001-0.002-1.35 0.588c0.004 0.030 0.006 0.065 0.006 0.101 0 0.095-0.016 0.186-0.046 0.27l0.002-0.006 3.575 2.662c0.008-0.006 0.019-0.014 0.029-0.021l0.003-0.002-1.44-3.32zM9.99 20.595c-0.008-0.043-0.013-0.092-0.013-0.142 0-0.242 0.108-0.459 0.279-0.605l0.001-0.001-1.613-3.035-0.313 4.1c0.134 0.058 0.245 0.148 0.326 0.261l0.002 0.002 1.331-0.58zM11.52 20.296l3.465 0.494c0.043-0.123 0.11-0.227 0.197-0.312l0-0-2.164-3.717c-0.065 0.020-0.14 0.032-0.218 0.032-0.040 0-0.080-0.003-0.119-0.009l0.004 0.001-1.39 3.101c0.111 0.108 0.191 0.248 0.223 0.406l0.001 0.005zM11.5 20.693c-0.044 0.139-0.121 0.257-0.221 0.349l-0.001 0.001 1.463 3.375c0.017-0.001 0.038-0.002 0.058-0.002 0.106 0 0.208 0.021 0.3 0.060l-0.005-0.002 2.048-2.895c-0.095-0.107-0.161-0.241-0.187-0.388l-0.001-0.005-3.454-0.493zM9.997 11.371l-1.331-0.556c-0.084 0.119-0.196 0.212-0.328 0.27l-0.005 0.002 0.32 4.051 1.616-2.976c-0.178-0.147-0.291-0.368-0.291-0.616 0-0.062 0.007-0.122 0.020-0.18l-0.001 0.005zM10.947 10.776l1.375-3.24-3.553 2.566c0.026 0.076 0.041 0.163 0.041 0.253 0 0.032-0.002 0.063-0.005 0.093l0-0.004 1.37 0.573c0.142-0.163 0.35-0.266 0.582-0.266 0.067 0 0.133 0.009 0.195 0.025l-0.005-0.001zM11.529 11.649c-0.026 0.198-0.122 0.371-0.262 0.494l-0.001 0.001 1.396 3.077c0.042-0.008 0.090-0.013 0.14-0.013 0.085 0 0.167 0.014 0.244 0.039l-0.005-0.002 2.182-3.786c-0.095-0.082-0.17-0.184-0.218-0.301l-0.002-0.005-3.473 0.495zM11.289 10.967c0.084 0.080 0.15 0.179 0.193 0.289l3.465-0.494c0.017-0.152 0.075-0.288 0.161-0.4l-0.001 0.002-1.99-2.848c-0.093 0.043-0.202 0.069-0.316 0.069-0.026 0-0.051-0.001-0.077-0.004l0.003 0-1.437 3.386zM20.612 10.756c0.021-0.002 0.046-0.003 0.071-0.003 0.239 0 0.453 0.109 0.596 0.279l0.001 0.001 1.36-0.568c-0.005-0.032-0.007-0.069-0.007-0.107 0-0.086 0.013-0.168 0.038-0.245l-0.002 0.006-3.529-2.594 1.471 3.232zM19.956 11.266c0.058-0.155 0.159-0.283 0.288-0.373l0.003-0.002-1.51-3.313c-0.028 0.004-0.061 0.006-0.093 0.006-0.115 0-0.223-0.025-0.321-0.070l0.005 0.002-1.99 2.848c0.085 0.111 0.142 0.248 0.16 0.396l0 0.004 3.46 0.503zM18.020 7.27c-0.049-0.066-0.089-0.142-0.116-0.224l-0.002-0.006h-4.362c-0.029 0.088-0.069 0.164-0.12 0.232l0.001-0.002 1.994 2.853c0.090-0.040 0.195-0.063 0.305-0.063s0.215 0.023 0.31 0.065l-0.005-0.002 1.995-2.853z"></path>
</svg>
