<!-- Generated by IcoMoon.io -->
<svg version="1.1" xmlns="http://www.w3.org/2000/svg" width="32" height="32" viewBox="0 0 32 32">
<title>rads</title>
<path fill="#9d4bef" d="M32 16c0 8.837-7.163 16-16 16s-16-7.163-16-16c0-8.837 7.163-16 16-16s16 7.163 16 16z"></path>
<path fill="#fff" d="M11.47 7.661c2.103 0 3.808 1.705 3.808 3.808s-1.705 3.808-3.808 3.808v0c-2.103 0-3.808-1.705-3.808-3.808s1.705-3.808 3.808-3.808v0zM15.277 20.531c0 2.103-1.705 3.808-3.808 3.808s-3.808-1.705-3.808-3.808c0-2.103 1.705-3.808 3.808-3.808v0c2.901 0 5.253-2.352 5.253-5.253v0c0-2.103 1.705-3.808 3.808-3.808s3.808 1.705 3.808 3.808c0 2.103-1.705 3.808-3.808 3.808v0c-2.901 0.001-5.252 2.352-5.252 5.253v0zM20.53 24.339c-2.103 0-3.808-1.705-3.808-3.808s1.705-3.808 3.808-3.808v0c2.103 0 3.808 1.705 3.808 3.808s-1.705 3.808-3.808 3.808v0zM20.53 21.679c0.634 0 1.148-0.514 1.148-1.148s-0.514-1.148-1.148-1.148v0c-0.634 0-1.148 0.514-1.148 1.148s0.514 1.148 1.148 1.148v0zM11.47 21.679c0.634 0 1.148-0.514 1.148-1.148s-0.514-1.148-1.148-1.148v0c-0.634 0-1.148 0.514-1.148 1.148s0.514 1.148 1.148 1.148v0zM20.53 12.617c0.634 0 1.148-0.514 1.148-1.148s-0.514-1.148-1.148-1.148v0c-0.634 0-1.148 0.514-1.148 1.148s0.514 1.148 1.148 1.148v0zM11.47 12.617c0.634 0 1.148-0.514 1.148-1.148s-0.514-1.148-1.148-1.148v0c-0.634 0-1.148 0.514-1.148 1.148s0.514 1.148 1.148 1.148v0z"></path>
</svg>
