<!-- Generated by IcoMoon.io -->
<svg version="1.1" xmlns="http://www.w3.org/2000/svg" width="32" height="32" viewBox="0 0 32 32">
<title>rads</title>
<path fill="#9d4bef" d="M16 32c-8.837 0-16-7.163-16-16s7.163-16 16-16 16 7.163 16 16-7.163 16-16 16zM11.47 7.661c-2.103 0-3.809 1.705-3.809 3.809s1.705 3.809 3.809 3.809v0c2.103 0 3.809-1.705 3.809-3.809s-1.705-3.809-3.809-3.809v0zM15.277 20.531c0-2.901 2.352-5.253 5.253-5.253v0c2.103 0 3.808-1.705 3.808-3.808s-1.705-3.808-3.808-3.808c-2.103 0-3.808 1.705-3.808 3.808v0c0 2.9-2.352 5.253-5.253 5.253-2.103 0-3.808 1.705-3.808 3.808s1.705 3.808 3.808 3.808c2.103 0 3.808-1.705 3.808-3.808v0zM20.53 24.339c0 0 0 0 0 0 2.103 0 3.808-1.705 3.808-3.808s-1.705-3.808-3.807-3.808h-0c-2.103 0-3.808 1.705-3.808 3.808s1.705 3.808 3.808 3.808v0zM20.53 21.679c-0.634 0-1.148-0.514-1.148-1.148s0.514-1.148 1.148-1.148v0c0.634 0 1.148 0.514 1.148 1.148s-0.514 1.148-1.148 1.148v0zM11.47 21.679c-0.634 0-1.148-0.514-1.148-1.148s0.514-1.148 1.148-1.148v0c0.634 0 1.148 0.514 1.148 1.148s-0.514 1.148-1.148 1.148v0zM20.53 12.617c-0.634 0-1.148-0.514-1.148-1.148s0.514-1.148 1.148-1.148v0c0.634 0 1.148 0.514 1.148 1.148s-0.514 1.148-1.148 1.148v0zM11.47 12.617c-0.634 0-1.148-0.514-1.148-1.148s0.514-1.148 1.148-1.148v0c0.634 0 1.148 0.514 1.148 1.148s-0.514 1.148-1.148 1.148v0z"></path>
</svg>
