<!-- Generated by IcoMoon.io -->
<svg version="1.1" xmlns="http://www.w3.org/2000/svg" width="32" height="32" viewBox="0 0 32 32">
<title>rap</title>
<path fill="#000" d="M32 16c0 8.837-7.163 16-16 16s-16-7.163-16-16c0-8.837 7.163-16 16-16s16 7.163 16 16z"></path>
<path fill="#fff" d="M12.478 6.435v19.478h-3.478v-19.913h3.478v0.435zM14.957 6h1.956c4.044 0 6.74 2.565 6.74 6.217 0 2.957-1.61 5.218-4.523 5.957l5.087 7.739h-4.087l-6.956-10.783h3.348c2.217 0 3.608-1 3.608-2.956 0-1.957-1.39-2.957-3.608-2.957h-1.522v-3.217h-0.043z"></path>
</svg>
