<!-- Generated by IcoMoon.io -->
<svg version="1.1" xmlns="http://www.w3.org/2000/svg" width="32" height="32" viewBox="0 0 32 32">
<title>rcn</title>
<path fill="#3555f9" d="M32 16c0 8.837-7.163 16-16 16s-16-7.163-16-16c0-8.837 7.163-16 16-16s16 7.163 16 16z"></path>
<path fill="#fff" d="M14.36 6.627c0.85-0.158 1.72-0.14 2.58-0.097 0.992 0.116 1.986 0.324 2.898 0.734 1.85 0.786 3.361 2.073 4.4 3.692l0.023 0.038c0.393 0.573 0.657 1.215 0.922 1.852 0.246-0.392 0.466-0.8 0.68-1.21 0.092-0.193 0.285-0.342 0.51-0.332 0.014-0.001 0.029-0.002 0.045-0.002 0.297 0 0.542 0.222 0.578 0.509l0 0.003c0.025 0.24-0.126 0.447-0.225 0.655-0.312 0.63-0.715 1.212-1.132 1.78-0.077 0.082-0.045 0.196-0.036 0.296 0.464 2.737-0.419 5.65-2.3 7.712-1.064 1.18-2.4 2.094-3.909 2.648l-0.068 0.022c-1.758 0.615-3.694 0.754-5.512 0.324-2.636-0.571-4.968-2.309-6.294-4.615-0.29-0.467-0.475-0.986-0.704-1.482-0.25 0.385-0.462 0.79-0.675 1.194-0.101 0.2-0.298 0.337-0.529 0.354l-0.002 0c-0.381 0-0.727-0.41-0.574-0.775 0.328-0.754 0.777-1.452 1.28-2.104 0.108-0.113 0.093-0.273 0.073-0.414-0.069-0.423-0.109-0.911-0.109-1.409 0-0.783 0.098-1.543 0.282-2.269l-0.014 0.064c0.77-3.324 3.53-6.1 6.875-6.965 0.31-0.073 0.62-0.15 0.935-0.203zM11.998 8.637c-1.773 0.932-3.2 2.491-3.94 4.332-0.428 1.112-0.646 2.308-0.58 3.498 0.198-0.149 0.373-0.299 0.538-0.458l-0.002 0.002c0.995-0.888 2.16-1.576 3.378-2.124 2.263-1.029 4.755-1.472 7.231-1.592-0.837-0.868-1.745-1.669-2.582-2.537 0.264-0.29 0.55-0.558 0.836-0.826 0.325 0.294 0.625 0.613 0.943 0.914 1.030 1.025 2.091 2.020 3.104 3.059-1.080 1.077-2.188 2.127-3.268 3.204-0.087 0.082-0.18 0.161-0.277 0.236l-0.009 0.006c-0.272-0.274-0.588-0.514-0.806-0.835 0.664-0.696 1.42-1.306 2.057-2.027-1.142 0.016-2.278 0.178-3.396 0.4-0.903 0.161-1.771 0.466-2.638 0.757-1.816 0.68-3.491 1.764-4.768 3.214-0.076 0.075-0.065 0.186-0.045 0.28 0.151 0.648 0.436 1.254 0.748 1.84 1.030 1.857 2.81 3.292 4.855 3.94 1.196 0.368 2.472 0.51 3.716 0.337 1.815-0.234 3.418-1.003 4.681-2.142l-0.008 0.007c1.865-1.644 2.911-4.149 2.75-6.608-0.197 0.153-0.373 0.327-0.557 0.493-1.201 1.038-2.61 1.874-4.151 2.436l-0.093 0.030c-2.020 0.75-4.172 1.138-6.327 1.199 0.188 0.246 0.42 0.452 0.639 0.671 0.645 0.628 1.281 1.264 1.936 1.882-0.252 0.297-0.546 0.556-0.824 0.828-0.279-0.227-0.52-0.491-0.78-0.74-0.974-0.944-1.938-1.9-2.91-2.848-0.134-0.122-0.255-0.253-0.365-0.393l-0.005-0.007c0.421-0.452 0.905-0.842 1.336-1.284 0.74-0.715 1.46-1.451 2.209-2.157 0.28 0.272 0.574 0.532 0.823 0.833-0.666 0.69-1.375 1.339-2.050 2.020 0.74 0.037 1.47-0.090 2.204-0.16 0.53-0.056 1.051-0.176 1.574-0.285 2.685-0.62 5.3-1.895 7.102-3.996-0.69-2.984-3.227-5.44-6.246-6.134-2.011-0.511-4.204-0.22-6.033 0.735z"></path>
</svg>
