<!-- Generated by IcoMoon.io -->
<svg version="1.1" xmlns="http://www.w3.org/2000/svg" width="32" height="32" viewBox="0 0 32 32">
<title>rcn</title>
<path fill="#3555f9" d="M16 32c-8.837 0-16-7.163-16-16s7.163-16 16-16 16 7.163 16 16-7.163 16-16 16zM14.36 6.627c-0.315 0.053-0.625 0.13-0.935 0.203-3.345 0.864-6.105 3.641-6.875 6.965-0.171 0.662-0.269 1.422-0.269 2.205 0 0.497 0.040 0.985 0.116 1.461l-0.007-0.052c0.020 0.14 0.035 0.3-0.073 0.414-0.503 0.652-0.952 1.35-1.28 2.104-0.153 0.366 0.193 0.776 0.574 0.775 0.232-0.017 0.429-0.155 0.528-0.35l0.002-0.004c0.214-0.404 0.427-0.81 0.676-1.194 0.23 0.496 0.414 1.015 0.704 1.482 1.326 2.306 3.658 4.044 6.294 4.615 1.818 0.43 3.754 0.291 5.512-0.323 1.577-0.576 2.913-1.49 3.969-2.661l0.008-0.009c1.881-2.062 2.764-4.976 2.3-7.713-0.009-0.1-0.041-0.214 0.036-0.297 0.417-0.567 0.82-1.148 1.132-1.78 0.1-0.207 0.25-0.414 0.225-0.655-0.037-0.29-0.282-0.512-0.579-0.512-0.016 0-0.031 0.001-0.047 0.002l0.002-0c-0.225-0.010-0.418 0.14-0.51 0.334-0.214 0.41-0.434 0.817-0.68 1.209-0.265-0.637-0.529-1.279-0.922-1.852-1.062-1.656-2.573-2.944-4.36-3.706l-0.063-0.024c-0.912-0.41-1.906-0.618-2.897-0.734-0.86-0.043-1.731-0.061-2.582 0.097zM11.998 8.637c1.83-0.955 4.022-1.246 6.033-0.735 3.019 0.695 5.555 3.15 6.246 6.134-1.802 2.1-4.417 3.377-7.102 3.996-0.523 0.109-1.043 0.23-1.574 0.285-0.733 0.070-1.464 0.197-2.203 0.16 0.674-0.681 1.383-1.33 2.050-2.020-0.25-0.3-0.545-0.561-0.824-0.833-0.75 0.706-1.47 1.442-2.21 2.157-0.43 0.442-0.914 0.832-1.334 1.284 0.108 0.146 0.238 0.275 0.37 0.4 0.971 0.948 1.935 1.904 2.91 2.849 0.258 0.248 0.5 0.512 0.779 0.739 0.278-0.272 0.572-0.53 0.824-0.828-0.655-0.618-1.291-1.254-1.936-1.882-0.219-0.219-0.451-0.425-0.64-0.671 2.156-0.060 4.307-0.45 6.328-1.199 1.634-0.592 3.043-1.428 4.261-2.48l-0.017 0.014c0.184-0.166 0.36-0.34 0.557-0.493 0.161 2.46-0.885 4.964-2.75 6.608-1.255 1.132-2.858 1.901-4.63 2.13l-0.043 0.005c-1.244 0.172-2.52 0.030-3.716-0.337-2.046-0.648-3.825-2.083-4.855-3.94-0.312-0.586-0.597-1.192-0.748-1.84-0.020-0.094-0.031-0.205 0.045-0.28 1.277-1.45 2.952-2.534 4.768-3.214 0.867-0.291 1.735-0.596 2.638-0.758 1.118-0.221 2.254-0.383 3.396-0.399-0.638 0.72-1.393 1.331-2.057 2.027 0.218 0.32 0.534 0.56 0.806 0.835 0.1-0.076 0.195-0.156 0.286-0.242 1.080-1.077 2.189-2.127 3.268-3.204-1.013-1.040-2.075-2.034-3.104-3.060-0.318-0.3-0.618-0.619-0.943-0.913-0.294 0.269-0.566 0.538-0.828 0.818l-0.008 0.008c0.837 0.868 1.745 1.669 2.582 2.537-2.476 0.12-4.968 0.563-7.23 1.592-1.219 0.548-2.384 1.236-3.379 2.124-0.163 0.157-0.338 0.307-0.521 0.446l-0.014 0.010c-0.067-1.19 0.151-2.386 0.578-3.498 0.742-1.84 2.168-3.4 3.941-4.332z"></path>
</svg>
