<!-- Generated by IcoMoon.io -->
<svg version="1.1" xmlns="http://www.w3.org/2000/svg" width="32" height="32" viewBox="0 0 32 32">
<title>rdd</title>
<path fill="#e30613" d="M32 16c0 8.837-7.163 16-16 16s-16-7.163-16-16c0-8.837 7.163-16 16-16s16 7.163 16 16z"></path>
<path fill="#fff" opacity="0.75" d="M15.361 27c-5.721 0-10.361-4.593-10.361-10.258s4.639-10.258 10.361-10.258c5.723 0 10.362 4.593 10.362 10.258s-4.64 10.258-10.363 10.258zM17.15 9.423c2.416 0.989 4.152 2.85 5.384 5.358l0.93-0.647c-1.044-2.512-2.973-4.486-6.076-5.766l-0.238 1.055z"></path>
<path fill="#fff" d="M26.992 9.321c0-2.386-1.955-4.321-4.365-4.321s-4.365 1.935-4.365 4.321c0 0.228 0.018 0.455 0.054 0.68 1.453 0.846 2.62 2.060 3.553 3.576 0.25 0.043 0.504 0.066 0.758 0.066 2.41 0 4.365-1.935 4.365-4.322z"></path>
</svg>
