<!-- Generated by IcoMoon.io -->
<svg version="1.1" xmlns="http://www.w3.org/2000/svg" width="32" height="32" viewBox="0 0 32 32">
<title>rdn</title>
<path fill="#2a2a2a" d="M32 16c0 8.837-7.163 16-16 16s-16-7.163-16-16c0-8.837 7.163-16 16-16s16 7.163 16 16z"></path>
<path fill="#fff" d="M10 6.006h8.111c0.098-0.030 0.148 0.060 0.212 0.11 0.753 0.712 1.426 1.495 2.014 2.341l0.032 0.049c0.802 1.134 1.47 2.441 1.941 3.839l0.031 0.107c0.482 1.484 0.71 3.054 0.65 4.614h-4.135c0.015-0.146 0.024-0.316 0.024-0.488 0-0.048-0.001-0.096-0.002-0.143l0 0.007c-0.043-1.471-0.497-2.914-1.212-4.192-0.765-1.369-1.833-2.55-3.047-3.531-1.322-1.069-2.81-1.913-4.36-2.595-0.086-0.040-0.176-0.072-0.259-0.118zM13.002 13.333c-10.861-21.272-9.482-18.809-8.104-16.345l12.259 23.878c0.333 0.606 0.67 1.21 1 1.817-1.721 1.102-3.437 2.214-5.157 3.317v-12.667z"></path>
</svg>
