<!-- Generated by IcoMoon.io -->
<svg version="1.1" xmlns="http://www.w3.org/2000/svg" width="32" height="32" viewBox="0 0 32 32">
<title>rdn</title>
<path fill="#2a2a2a" d="M16 32c-8.837 0-16-7.163-16-16s7.163-16 16-16 16 7.163 16 16-7.163 16-16 16zM10 6.006c0.083 0.046 0.173 0.078 0.258 0.118 1.55 0.682 3.040 1.526 4.361 2.595 1.214 0.98 2.282 2.162 3.047 3.531 0.715 1.278 1.169 2.72 1.212 4.192 0.001 0.041 0.002 0.088 0.002 0.136 0 0.172-0.009 0.342-0.026 0.509l0.002-0.021h4.134c0.062-1.56-0.167-3.13-0.649-4.614-0.502-1.504-1.17-2.811-2.004-3.993l0.032 0.048c-0.62-0.896-1.293-1.678-2.039-2.385l-0.007-0.006c-0.064-0.050-0.114-0.14-0.212-0.11h-8.111zM13.002 13.333l-0.002 12.667c1.72-1.103 3.435-2.215 5.156-3.317-0.33-0.607-0.667-1.211-1-1.817-13.637-26.342-15.016-28.805-16.398-31.266l12.243 23.733z"></path>
</svg>
