<!-- Generated by IcoMoon.io -->
<svg version="1.1" xmlns="http://www.w3.org/2000/svg" width="32" height="32" viewBox="0 0 32 32">
<title>ren</title>
<path fill="#001b3a" d="M32 16c0 8.837-7.163 16-16 16s-16-7.163-16-16c0-8.837 7.163-16 16-16s16 7.163 16 16z"></path>
<path fill="#fff" d="M9.026 9.636l-0.228-0.374-2.798 1.61v-0.244l9.743-5.628 0.21 0.13 0.442 0.244 0.438 0.26-5.97 3.448-0.227-0.374-1.61 0.928zM9.026 13.181l-0.228-0.374-2.798 1.61v-0.261l12.816-7.383 0.214 0.13 0.438 0.243 0.439 0.26-5.987 3.45-0.21-0.375-4.684 2.7zM9.026 14.953l-0.228-0.388-2.798 1.624v-0.258l14.346-8.281 0.21 0.13 0.442 0.261 0.438 0.246-5.987 3.447-0.21-0.373-6.213 3.592zM9.026 16.711l-0.228-0.374-2.798 1.61v-0.243l15.875-9.159 0.21 0.115 0.44 0.259 0.44 0.245-5.936 3.433-0.213-0.376-7.79 4.49zM9.026 18.483l-0.228-0.373-2.798 1.61v-0.244l17.404-10.050 0.229 0.127 0.42 0.246 0.442 0.26-5.937 3.433-0.213-0.391-9.319 5.382zM25.159 10.433l0.326 0.195v0.635l-6.927 3.984-0.213-0.374-9.319 5.383-0.228-0.374-2.798 1.61v-0.243l18.934-10.946 0.225 0.13zM7.203 22.567l-0.21-0.13 18.492-10.67v1.251l-6.962 4.034-0.226-0.389-9.303 5.383-0.229-0.374-1.562 0.895zM18.297 18.436l-7.744 4.472-0.226-0.373-1.594 0.927-0.21-0.13 16.962-9.793v1.254l-6.962 4.034-0.226-0.391zM10.262 24.34l-0.213-0.13 15.436-8.913v1.268l-6.962 4.017-0.226-0.374-6.215 3.595-0.21-0.39-1.61 0.927zM11.806 25.217l-0.228-0.112 13.907-8.036v1.269l-6.962 4.016-0.226-0.373-4.685 2.7-0.211-0.374-1.595 0.91zM13.108 25.982l12.377-7.14v1.268l-6.962 4.020-0.226-0.377-3.156 1.823-0.21-0.391-1.595 0.927-0.228-0.13zM14.865 26.99l-0.213-0.113 10.833-6.263v1.269l-6.962 4.019-0.226-0.391-1.612 0.942-0.225-0.373-1.595 0.91zM18.378 6.512l-5.985 3.45-0.213-0.374-3.154 1.82-0.228-0.373-2.798 1.61v-0.245l11.272-6.524 0.228 0.13 0.439 0.262 0.439 0.243z"></path>
</svg>
