<!-- Generated by IcoMoon.io -->
<svg version="1.1" xmlns="http://www.w3.org/2000/svg" width="32" height="32" viewBox="0 0 32 32">
<title>rep</title>
<path fill="#602a52" d="M32 16c0 8.837-7.163 16-16 16s-16-7.163-16-16c0-8.837 7.163-16 16-16s16 7.163 16 16z"></path>
<path fill="#fff" d="M20.582 16.312c-0.291-0.796-0.785-1.459-1.42-1.949l-0.010-0.007-0.007-0.008c-0.058-0.044-0.127-0.094-0.198-0.141l-0.015-0.010-0.014-0.010c-0.052-0.035-0.123-0.080-0.195-0.123l-0.023-0.012-0.020-0.012c-0.059-0.035-0.132-0.074-0.207-0.108l-0.016-0.007-0.022-0.012c-0.039-0.020-0.116-0.056-0.195-0.089l-0.041-0.016-0.026-0.010c-0.226-0.097-0.492-0.181-0.768-0.239l-0.028-0.005c-0.164 0.294-0.363 0.546-0.596 0.761l-0.002 0.002c0.591 0.048 1.13 0.237 1.595 0.531l0.013 0.008 0.132 0.090 0.060 0.042c0.040 0.030 0.077 0.060 0.118 0.090l0.067 0.054c0.036 0.030 0.069 0.060 0.103 0.091l0.068 0.065 0.093 0.094 0.068 0.073 0.083 0.097 0.065 0.081 0.075 0.1c0.025 0.033 0.042 0.059 0.062 0.088s0.046 0.067 0.067 0.102l0.058 0.096c0.018 0.032 0.040 0.068 0.058 0.102 0.020 0.033 0.036 0.070 0.054 0.106s0.034 0.066 0.049 0.1c0.007 0.014 0.026 0.058 0.043 0.103l0.011 0.031c0.088 0.212 0.158 0.46 0.198 0.718l0.002 0.018 0.109 0.404c0.046 0.168 0.471 1.656 1.456 2.157 1.129 0.579 2.624 1.294 3.212 1.577l-7.766 4.56v-3.125c0-0.493 1-1.070 1.463-1.273l0.027-0.015c0.095-0.047 0.19-0.098 0.28-0.152l0.039-0.020c0.216-0.131 0.402-0.265 0.577-0.413l-0.007 0.006 0.048-0.043 0.055-0.049c0.059-0.053 0.113-0.104 0.165-0.156l-0 0 0.028-0.027c0.059-0.059 0.118-0.115 0.17-0.184l0.049-0.056c0.044-0.052 0.086-0.105 0.127-0.159l0.036-0.045c0.050-0.066 0.096-0.134 0.142-0.203l0.016-0.020c0.062-0.097 0.117-0.194 0.175-0.295-0.208-0.249-0.393-0.53-0.544-0.831l-0.012-0.025c-0.062 0.173-0.14 0.341-0.23 0.502-0.038 0.070-0.078 0.138-0.118 0.204l-0.018 0.027c-0.045 0.067-0.084 0.121-0.124 0.173l0.006-0.008-0.036 0.046c-0.044 0.057-0.086 0.107-0.13 0.155l0.002-0.002-0.024 0.028c-0.285 0.31-0.622 0.567-0.999 0.756l-0.020 0.009-0.073 0.037c-0.197 0.087-1.933 0.857-1.933 2.028v3.126l-7.79-4.568c0.501-0.306 1.965-1.158 3.169-1.533 0.471-0.144 1.471 0.473 2.038 0.926l0.034 0.030c0.075 0.070 0.154 0.137 0.236 0.2l0.028 0.025c0.18 0.144 0.372 0.273 0.573 0.387l0.135 0.073 0.027 0.014c0.131 0.066 0.265 0.126 0.402 0.179l0.060 0.023 0.040 0.016c0.197 0.072 0.4 0.128 0.605 0.17 0.168-0.297 0.373-0.55 0.613-0.765l0.003-0.003c-0.352-0.027-0.679-0.101-0.985-0.218l0.024 0.008-0.053-0.020-0.102-0.041-0.052-0.022-0.099-0.046c-0.246-0.12-0.457-0.256-0.652-0.411l0.007 0.005-0.31-0.276c-0.27-0.234-0.572-0.448-0.892-0.631l-0.028-0.015c-0.77-0.43-1.414-0.57-1.908-0.418-1.030 0.318-2.19 0.936-2.898 1.344l7.778-13.717v6.007c0 0.213-0.32 0.769-1.389 1.241l-0.074 0.040c-0.104 0.050-0.205 0.104-0.304 0.162l-0.020 0.010c-0.342 0.203-0.637 0.436-0.897 0.703l-0.001 0.001-0.010 0.010c-0.098 0.101-0.192 0.207-0.28 0.318l-0.007 0.009-0.011 0.015c-0.034 0.043-0.076 0.098-0.117 0.154l-0.011 0.015-0.014 0.020c-0.026 0.036-0.062 0.090-0.096 0.144l-0.012 0.020-0.012 0.017c-0.026 0.040-0.059 0.097-0.091 0.154l-0.010 0.019-0.023 0.041c-0.029 0.056-0.058 0.116-0.087 0.168l-0.013 0.027c-0.017 0.033-0.042 0.085-0.065 0.139l-0.008 0.021-0.025 0.060c-0.023 0.056-0.044 0.116-0.065 0.17l-0.020 0.060c-0.011 0.027-0.025 0.070-0.038 0.114l-0.004 0.016c-0.007 0.024-0.015 0.047-0.021 0.072-0.052 0.172-0.096 0.38-0.123 0.593l-0.002 0.020-0.010 0.093c-0.004 0.032-0.008 0.076-0.011 0.12l-0 0.007c-0.002 0.043 0 0.085-0.007 0.127-0.007 0.043 0 0.052 0 0.080v0.095c0 0.21 0.016 0.42 0.048 0.629 0.367 0.091 0.689 0.214 0.99 0.372l-0.024-0.012c-0.090-0.278-0.144-0.597-0.15-0.929l-0-0.003v-0.057c0-0.076 0-0.151 0.009-0.231v-0.060c0-0.065 0.013-0.131 0.022-0.196v-0.028c0.012-0.086 0.027-0.159 0.045-0.23l-0.003 0.015 0.012-0.055c0.015-0.060 0.030-0.118 0.049-0.177l0.012-0.038c0.020-0.069 0.045-0.136 0.071-0.203l0.020-0.045c0.022-0.055 0.046-0.11 0.071-0.165l0.019-0.042c0.031-0.065 0.065-0.128 0.1-0.191l0.019-0.031c0.040-0.069 0.073-0.121 0.107-0.172l-0.008 0.012 0.025-0.037c0.041-0.060 0.083-0.116 0.128-0.178l0.008-0.010c0.043-0.055 0.088-0.108 0.134-0.16l0.025-0.030c0.211-0.232 0.453-0.435 0.72-0.603l0.368-0.17c0.197-0.087 1.925-0.878 1.925-2.050v-6.007l7.839 13.82c-0.7-0.337-1.93-0.932-2.89-1.42-0.548-0.28-0.922-1.267-1.018-1.621l-0.106-0.415c-0.045-0.252-0.105-0.472-0.181-0.684l0.009 0.029-0.008-0.004zM25.892 20.662l-8.64-15.226c-0.152-0.262-0.432-0.436-0.752-0.436-0.002 0-0.003 0-0.005 0h0c-0.001 0-0.002 0-0.003 0-0.32 0-0.6 0.174-0.75 0.432l-0.002 0.004-8.63 15.227c-0.068 0.118-0.108 0.26-0.108 0.412 0 0.308 0.167 0.577 0.414 0.722l0.004 0.002 8.637 5.080c0.127 0.076 0.28 0.12 0.444 0.12s0.317-0.045 0.448-0.122l-0.004 0.002 8.636-5.076c0.252-0.147 0.419-0.416 0.419-0.724 0-0.151-0.040-0.292-0.11-0.415l0.002 0.004 0.002-0.006z"></path>
</svg>
