<!-- Generated by IcoMoon.io -->
<svg version="1.1" xmlns="http://www.w3.org/2000/svg" width="32" height="32" viewBox="0 0 32 32">
<title>req</title>
<path fill="#00e6a0" d="M32 16c0 8.837-7.163 16-16 16s-16-7.163-16-16c0-8.837 7.163-16 16-16s16 7.163 16 16z"></path>
<path fill="#fff" d="M23.073 7.5c0.004-0 0.009-0 0.014-0 0.181 0 0.344 0.073 0.463 0.192l-0.006-0.006c0.096 0.095 0.162 0.221 0.184 0.36l0 0.004 0.009 0.104-0.007 3.417c0 0.449-0.178 0.88-0.496 1.197l-4.24 4.227 4.537 4.523c0.314 0.307 0.508 0.735 0.508 1.208 0 0.933-0.756 1.689-1.689 1.689-0.47 0-0.896-0.192-1.202-0.503l-0-0-5.735-5.717c-0.308-0.306-0.499-0.729-0.499-1.198s0.191-0.892 0.499-1.197l0-0 5.022-5.012h-8.498v11.889c0 0.008 0 0.018 0 0.028 0 0.933-0.757 1.69-1.69 1.69-0.010 0-0.020-0-0.030-0l0.002 0-0.17-0.006c-0.871-0.078-1.549-0.805-1.549-1.69 0-0.008 0-0.016 0-0.024v0.001-13.33c0-1.066 0.763-1.847 1.796-1.847z"></path>
</svg>
