<!-- Generated by IcoMoon.io -->
<svg version="1.1" xmlns="http://www.w3.org/2000/svg" width="32" height="32" viewBox="0 0 32 32">
<title>rhoc</title>
<path fill="#cc1e46" d="M32 16c0 8.837-7.163 16-16 16s-16-7.163-16-16c0-8.837 7.163-16 16-16s16 7.163 16 16z"></path>
<path fill="#fff" d="M11.816 9.24c1.596-1.21 3.566-2.006 5.71-2.197l0.043-0.003c0.212-0.043 0.442 0.091 0.435 0.325 0.020 0.56 0.006 1.12 0.006 1.68 0.014 0.174-0.078 0.4-0.278 0.405-1.846 0.204-3.6 0.958-5.124 2-0.144 0.081-0.112 0.268-0.1 0.404 0.106 0.982 0.034 1.971 0.063 2.956 4.974 0.014 9.95-0.002 14.926 0.008 0.237-0.020 0.487 0.115 0.468 0.38 0.025 1.675 0.005 3.35 0.010 5.024 0.004 0.91-0.19 1.852-0.741 2.596-0.87 1.169-2.4 1.87-3.854 1.612-1.030-0.154-1.92-0.793-2.544-1.604-1.62 1.229-3.623 2.033-5.804 2.212l-0.040 0.003c-0.215 0.003-0.376-0.208-0.343-0.414 0.007-0.586-0.012-1.174 0.010-1.76 0.050-0.31 0.432-0.25 0.659-0.301 1.744-0.272 3.412-1.003 4.836-2.040-0.054-0.752-0.085-1.629-0.085-2.513 0-0.266 0.003-0.531 0.008-0.796l-0.001 0.040c-4.992-0.032-9.986-0.002-14.978-0.016-0.22 0.025-0.432-0.14-0.411-0.373-0.004-1.763-0.003-3.527 0.002-5.29 0.010-0.922 0.301-1.854 0.912-2.557 0.805-0.916 2.019-1.501 3.251-1.429 1.18 0.047 2.263 0.718 2.963 1.648zM6.7 11.882c-0.002 1.033-0.003 2.067 0.002 3.102 1.234-0.001 2.466 0.017 3.699-0.010 0.002-1.008 0.015-2.015-0.006-3.023-0.019-0.966-0.892-1.82-1.862-1.8-0.947-0.039-1.81 0.79-1.833 1.73zM22.409 17.172c-0.010 0.982-0.002 1.965-0.006 2.947-0.006 0.393 0.113 0.777 0.34 1.097 0.474 0.677 1.418 0.973 2.19 0.674 0.713-0.264 1.184-1.010 1.176-1.76 0-0.986 0.005-1.97-0.004-2.956-1.232-0.010-2.464-0.005-3.696-0.003z"></path>
</svg>
