<!-- Generated by IcoMoon.io -->
<svg version="1.1" xmlns="http://www.w3.org/2000/svg" width="32" height="32" viewBox="0 0 32 32">
<title>ric</title>
<path fill="#60e4dd" d="M32 16c0 8.837-7.163 16-16 16s-16-7.163-16-16c0-8.837 7.163-16 16-16s16 7.163 16 16z"></path>
<path fill="#fff" d="M10.144 20.024c0.3-0.455 0.584-0.881 0.852-1.28h-3.064c-0.051 0-0.093-0.042-0.093-0.093v0-0.636c0-0.051 0.042-0.093 0.093-0.093h3.622c1.937-2.829 2.905-3.994 2.905-4.113 0-0.183-0.040-0.274-0.7-0.274-1.304 0-3.449-0.931-3.449-3.473 0-1.383 2.237-3.062 3.543-3.062 0.606 0 0.699 0.257 0.42 0.274-0.746 0.046-2.378 1.536-2.378 2.97 0 0.96 0.852 2.605 2.75 2.605 2.242 0 4.157-3.564 8.812-3.564 2.797 0 3.543 2.188 3.543 2.788s-0.873 0.914-2.051 0.914c-1.178 0-1.222-2.103-3.59-2.103-3.718 0-6.884 4.026-8.405 7.038h2.624c0.052 0 0.093 0.042 0.093 0.093v0.636c0 0 0 0.001 0 0.001 0 0.051-0.042 0.093-0.093 0.093 0 0 0 0 0 0h-3.010c-0.208 0.48-0.363 0.915-0.46 1.28h2.63c0.052 0 0.094 0.040 0.094 0.092v0.637c0 0.051-0.042 0.093-0.093 0.093v0h-2.749c0.049 1.166 1.027 2.217 2.936 3.153h-7.32c1.102-1.806 1.763-2.835 2.433-3.856l-0.433 0.703h-2.512c-0 0-0.001 0-0.001 0-0.051 0-0.093-0.042-0.093-0.093 0 0 0 0 0 0v0-0.637c0-0.051 0.042-0.093 0.093-0.093z"></path>
</svg>
