<!-- Generated by IcoMoon.io -->
<svg version="1.1" xmlns="http://www.w3.org/2000/svg" width="32" height="32" viewBox="0 0 32 32">
<title>rise</title>
<path fill="#f49352" d="M32 16c0 8.837-7.163 16-16 16s-16-7.163-16-16c0-8.837 7.163-16 16-16s16 7.163 16 16z"></path>
<path fill="#fff" d="M12.605 9.155c-0.857 0-1.552-0.706-1.552-1.577s0.695-1.578 1.552-1.578c0.858 0 1.553 0.706 1.553 1.578s-0.695 1.577-1.553 1.577zM19.447 26c-0.859-0.007-1.552-0.705-1.552-1.565 0-0.005 0-0.009 0-0.014v0.001c0-0.87 0.695-1.577 1.552-1.577 0.858 0 1.553 0.706 1.553 1.577 0 0.872-0.695 1.578-1.553 1.578zM13.242 14.21c-0.231 0.182-0.527 0.291-0.848 0.291-0.452 0-0.853-0.217-1.105-0.553l-0.003-0.004c-0.179-0.237-0.287-0.536-0.287-0.86 0-0.456 0.213-0.861 0.544-1.124l0.003-0.002 7.158-5.562c0.231-0.182 0.527-0.291 0.848-0.291 0.452 0 0.853 0.217 1.105 0.553l0.003 0.004c0.18 0.237 0.288 0.536 0.288 0.861 0 0.456-0.213 0.862-0.545 1.124l-0.003 0.002zM13.295 19.879c-0.231 0.182-0.527 0.291-0.848 0.291-0.452 0-0.853-0.217-1.105-0.553l-0.003-0.004c-0.18-0.237-0.288-0.536-0.288-0.861 0-0.456 0.213-0.862 0.545-1.124l0.003-0.002 7.158-5.561c0.231-0.182 0.527-0.291 0.848-0.291 0.452 0 0.853 0.217 1.105 0.553l0.003 0.004c0.179 0.237 0.287 0.536 0.287 0.86 0 0.456-0.213 0.861-0.544 1.124l-0.003 0.002zM13.295 25.708c-0.231 0.182-0.527 0.291-0.848 0.291-0.452 0-0.853-0.217-1.105-0.553l-0.003-0.004c-0.18-0.237-0.288-0.536-0.288-0.861 0-0.456 0.213-0.862 0.545-1.124l0.003-0.002 7.158-5.561c0.231-0.182 0.527-0.291 0.848-0.291 0.452 0 0.853 0.217 1.105 0.553l0.003 0.004c0.179 0.237 0.287 0.536 0.287 0.86 0 0.456-0.213 0.861-0.544 1.124l-0.003 0.002z"></path>
</svg>
