<!-- Generated by IcoMoon.io -->
<svg version="1.1" xmlns="http://www.w3.org/2000/svg" width="32" height="32" viewBox="0 0 32 32">
<title>rlc</title>
<path fill="#ffd800" d="M32 16c0 8.837-7.163 16-16 16s-16-7.163-16-16c0-8.837 7.163-16 16-16s16 7.163 16 16z"></path>
<path fill="#fff" d="M23.683 12.886c0.057-0.057 0.17-0.057 0.281-0.057 1.687 0 3.036 1.428 3.036 3.143 0 1.6-1.18 2.857-2.698 3.142h-0.338c-0.562 0-1.124-0.171-1.63-0.457-0.151-0.107-0.338-0.171-0.541-0.171-0.008 0-0.015 0-0.023 0l0.001-0c-0.225 0-0.45 0.057-0.618 0.171-0.394 0.229-0.562 0.629-0.562 1.086v0.514c-0.126 1.459-1.252 2.62-2.684 2.798l-0.015 0.002h-0.337c-0.562 0-1.124-0.171-1.63-0.457-0.225-0.114-0.393-0.171-0.618-0.171s-0.45 0.057-0.619 0.171c-0.393 0.229-0.562 0.629-0.562 1.086v0.514c-0.112 1.486-1.293 2.629-2.754 2.8h-0.281c-1.687 0-3.036-1.429-3.036-3.143 0.056-1.6 1.18-2.914 2.698-3.086h0.338c0.562 0 1.124 0.172 1.63 0.458 0.15 0.107 0.338 0.171 0.541 0.171 0.008 0 0.015-0 0.023-0l-0.001 0c0.225 0 0.45-0.057 0.618-0.171 0.394-0.229 0.562-0.629 0.562-1.086-0.112-1.657 1.069-3.143 2.699-3.314h0.337c0.562 0 1.124 0.171 1.63 0.457 0.225 0.114 0.394 0.171 0.619 0.171 0.224 0 0.45-0.057 0.618-0.171 0.393-0.229 0.562-0.629 0.562-1.086-0.112-1.657 1.124-3.143 2.754-3.314zM17.22 8.943c0.112-0.057 0.169-0.057 0.337-0.057 1.687 0 3.036 1.428 3.036 3.143-0.056 1.6-1.18 2.914-2.699 3.085h-0.337c-0.562 0-1.124-0.171-1.63-0.457-0.15-0.107-0.338-0.171-0.541-0.171-0.008 0-0.015 0-0.023 0l0.001-0c-0.225 0-0.45 0.057-0.618 0.171-0.394 0.229-0.563 0.629-0.563 1.086v0.514c-0.112 1.485-1.292 2.628-2.754 2.8h-0.281c-1.686 0-3.036-1.428-3.036-3.143 0-1.542 1.125-2.8 2.642-3.028h0.338c0.562 0 1.124 0.171 1.63 0.457 0.15 0.107 0.338 0.171 0.541 0.171 0.008 0 0.015-0 0.023-0l-0.001 0c0.225 0 0.45-0.057 0.618-0.171 0.394-0.229 0.562-0.629 0.562-1.086-0.112-1.657 1.125-3.143 2.755-3.314zM11.036 5c1.676 0 3.035 1.382 3.035 3.086s-1.36 3.085-3.035 3.085c-1.677 0-3.036-1.381-3.036-3.085s1.36-3.086 3.036-3.086z"></path>
</svg>
