<!-- Generated by IcoMoon.io -->
<svg version="1.1" xmlns="http://www.w3.org/2000/svg" width="32" height="32" viewBox="0 0 32 32">
<title>rpx</title>
<path fill="#8d181b" d="M32 16c0 8.837-7.163 16-16 16s-16-7.163-16-16c0-8.837 7.163-16 16-16s16 7.163 16 16z"></path>
<path fill="#fff" d="M25.696 15.732c0.72 0 1.304 0.57 1.304 1.275s-0.584 1.275-1.304 1.275c-0.55 0-1.021-0.334-1.212-0.805h-3.72l-1.372 2.44c-0.226 0.402-0.845 0.283-0.899-0.172l-0.308-2.607-1.14 8.454c-0.076 0.562-0.917 0.536-0.956-0.030l-0.935-13.667-0.99 9.054c-0.060 0.54-0.853 0.568-0.95 0.033l-1.048-5.756-0.484 1.895c-0.056 0.207-0.242 0.356-0.463 0.356-0.001 0-0.002 0-0.003 0h-4.736c-0.265 0-0.48-0.21-0.48-0.47s0.215-0.47 0.48-0.47h4.36l0.939-3.671c0.126-0.492 0.848-0.467 0.94 0.032l0.849 4.669 1.219-11.147c0.063-0.571 0.918-0.555 0.957 0.018l0.981 14.34 1.014-7.524c0.074-0.549 0.889-0.543 0.954 0.007l0.582 4.915 0.784-1.396c0.085-0.146 0.24-0.243 0.419-0.243 0.001 0 0.002 0 0.003 0h4.004c0.201-0.477 0.665-0.805 1.205-0.805 0.003 0 0.005 0 0.008 0h-0z"></path>
</svg>
