<!-- Generated by IcoMoon.io -->
<svg version="1.1" xmlns="http://www.w3.org/2000/svg" width="32" height="32" viewBox="0 0 32 32">
<title>rub</title>
<path fill="#64d1ff" d="M32 16c0 8.837-7.163 16-16 16s-16-7.163-16-16c0-8.837 7.163-16 16-16s16 7.163 16 16z"></path>
<path fill="#fff" d="M10.5 15.238h1.764v-8.238h4.547c0.844 0 1.614 0.099 2.31 0.297s1.292 0.5 1.789 0.904 0.886 0.917 1.168 1.536c0.281 0.62 0.422 1.36 0.422 2.221s-0.15 1.61-0.447 2.247c-0.293 0.631-0.705 1.161-1.211 1.582l-0.007 0.006c-0.511 0.417-1.116 0.74-1.777 0.934l-0.036 0.009c-0.657 0.197-1.412 0.31-2.194 0.31-0.024 0-0.047-0-0.071-0l0.004 0h-2.51v2.608h4v1.705h-4v3.641h-1.987v-3.641h-1.764v-1.705h1.764v-2.608h-1.764zM16.81 15.238c1.143 0 2.042-0.271 2.696-0.813s0.982-1.365 0.982-2.467c0-1.101-0.328-1.902-0.982-2.401s-1.553-0.75-2.695-0.75h-2.56v6.431z"></path>
</svg>
