<!-- Generated by IcoMoon.io -->
<svg version="1.1" xmlns="http://www.w3.org/2000/svg" width="32" height="32" viewBox="0 0 32 32">
<title>rvn</title>
<path fill="#384182" d="M32 16c0 8.837-7.163 16-16 16s-16-7.163-16-16c0-8.837 7.163-16 16-16s16 7.163 16 16z"></path>
<path fill="#fff" d="M9.5 27l3.618-16.789 2.030 12.6-5.648 4.189zM13.188 10.115l5.497 12.709-3.443-0.060-2.054-12.65zM13.27 10.019l7.2 1.023-1.668 11.782-5.532-12.805zM18.93 22.643l1.623-11.493 1.062 1.348-2.685 10.145zM20.447 10.933l-7.026-0.999 6.326-2.082 0.7 3.081zM13.387 9.826l4.306-2.985 2.054 0.903-6.36 2.082zM13.281 9.79l0.83-1.589 3.512-1.408-4.342 2.997zM14.111 8.13l0.396-1.24 2.894-0.097-3.29 1.336zM14.484 6.793l0.933-0.999 2.008 0.903-2.941 0.096zM15.476 5.734l1.4-0.686 1.81 2.118-3.21-1.432zM17.075 5.132l2.089 0.915-0.374 1.131-1.715-2.046zM18.86 7.214l0.385-1.155 0.467 1.589-0.852-0.434zM16.923 5h1.529l0.757 0.842c0.007 0.008 0.012 0.019 0.012 0.031 0 0.027-0.021 0.048-0.048 0.048-0.006 0-0.012-0.001-0.018-0.003l0 0-2.232-0.918zM19.339 5.963l3.11 0.868c0.032 0.008 0.055 0.036 0.055 0.070s-0.023 0.062-0.055 0.070l-0 0-2.643 0.725-0.467-1.733z"></path>
</svg>
