<!-- Generated by IcoMoon.io -->
<svg version="1.1" xmlns="http://www.w3.org/2000/svg" width="32" height="32" viewBox="0 0 32 32">
<title>ryo</title>
<path fill="#3d58b0" d="M32 16c0 8.837-7.163 16-16 16s-16-7.163-16-16c0-8.837 7.163-16 16-16s16 7.163 16 16z"></path>
<path fill="#fff" d="M15.986 4c-6.61 0-11.986 5.376-11.986 11.986s5.376 11.984 11.986 11.984 11.984-5.375 11.984-11.984c0.001-6.61-5.375-11.986-11.984-11.986zM15.986 5.632c0.004 0 0.008 0 0.013 0 5.711 0 10.34 4.629 10.34 10.34 0 0.005 0 0.010 0 0.015v-0.001c0 0.004 0 0.008 0 0.013 0 5.711-4.629 10.34-10.34 10.34-0.005 0-0.009 0-0.014 0h0.001c-0.004 0-0.009 0-0.014 0-5.711 0-10.34-4.629-10.34-10.34 0-0.005 0-0.009 0-0.014v0.001c0-0.004 0-0.008 0-0.013 0-5.711 4.63-10.341 10.341-10.341 0.005 0 0.009 0 0.014 0h-0.001z"></path>
<path fill="#fff" d="M11.533 11.56v8.85h8.905v-8.85h-8.905zM12.983 13.010h6.004v5.95h-6.003v-5.95z"></path>
</svg>
