<!-- Generated by IcoMoon.io -->
<svg version="1.1" xmlns="http://www.w3.org/2000/svg" width="32" height="32" viewBox="0 0 32 32">
<title>safe</title>
<path fill="#00688c" d="M32 16c0 8.837-7.163 16-16 16s-16-7.163-16-16c0-8.837 7.163-16 16-16s16 7.163 16 16z"></path>
<path fill="#fff" d="M26.989 22.671v-12.673l-11.004-6.338-0.015 0.008-10.966 6.337v12.67l10.976 6.323 11.008-6.326zM22.119 20.645l-1.877-1.076-4.188 2.431c-0.011 0.007-0.025 0.011-0.040 0.011s-0.029-0.004-0.040-0.011l0 0-4.805-2.785-0.002-4.845-4.221-2.42 8.998-5.275c0.003-0.002 0.008-0.003 0.012-0.003s0.009 0.001 0.012 0.003l-0-0 8.357 4.778-1.478 0.855-6.875-3.956-6.097 3.579 2.115 1.215 3.988-2.32 4.87 2.785-0.002 4.61 4.151 2.377-0.001 0.070-9.016 5.264-8.358-4.772 1.463-0.857 6.881 3.947 6.153-3.606z"></path>
<path fill="#fff" d="M17.305 15.145v-0.034l-0.001-0.022-0.001-0.012-0.002-0.025v-0.008l-0.003-0.027v-0.007l-0.004-0.028v-0.005l-0.004-0.029v-0.004l-0.005-0.030-0.001-0.002-0.006-0.030-0.001-0.003-0.007-0.030v-0.002c-0.002-0.012-0.005-0.023-0.008-0.033l0.001 0.001-0.009-0.030v-0.001l-0.009-0.032c-0.006-0.024-0.013-0.044-0.021-0.063l0.001 0.003v-0.001l-0.012-0.030c-0.005-0.013-0.009-0.023-0.013-0.033l0.001 0.003-0.013-0.030-0.013-0.028-0.014-0.030-0.014-0.028-0.016-0.028c-0.003-0.004-0.008-0.013-0.013-0.022l-0.003-0.005v-0.001l-0.016-0.026-0.001-0.001c-0.006-0.010-0.012-0.018-0.018-0.026l0.001 0.001v-0.002l-0.017-0.024s0-0.002-0.002-0.002l-0.017-0.024-0.002-0.002c-0.006-0.008-0.010-0.016-0.017-0.024l-0.001-0.002-0.019-0.023-0.002-0.002-0.018-0.022-0.002-0.002-0.020-0.021c-0.001-0.001-0.002-0.002-0.002-0.003l-0-0-0.019-0.021c-0.001-0.001-0.002-0.002-0.002-0.003l-0-0-0.019-0.020c-0.006-0.006-0.013-0.013-0.020-0.020l-0.026-0.026c-0.059-0.051-0.067-0.057-0.074-0.064l0.051 0.044-0.003-0.003c-0.006-0.006-0.013-0.012-0.020-0.018l-0.001-0.001-0.003-0.003c-0.006-0.005-0.013-0.011-0.020-0.016l-0.001-0.001-0.003-0.002-0.022-0.018-0.003-0.002-0.023-0.017-0.003-0.002-0.023-0.017-0.003-0.002-0.023-0.016-0.003-0.001-0.024-0.016-0.002-0.002-0.025-0.015h-0.002l-0.026-0.016h-0.002l-0.027-0.016h-0.001c-0.154-0.067-0.334-0.106-0.522-0.106-0.741 0-1.342 0.601-1.342 1.342 0 0.514 0.289 0.961 0.714 1.186l0.007 0.004-0.58 2.652h2.194l-0.585-2.65c0.502-0.21 0.829-0.7 0.829-1.243z"></path>
</svg>
