<!-- Generated by IcoMoon.io -->
<svg version="1.1" xmlns="http://www.w3.org/2000/svg" width="32" height="32" viewBox="0 0 32 32">
<title>sai</title>
<path fill="#b68900" d="M32 16c0 8.837-7.163 16-16 16s-16-7.163-16-16c0-8.837 7.163-16 16-16s16 7.163 16 16z"></path>
<path fill="#fff" d="M26.633 15.817l-10.816-10.817-10.817 10.817 10.817 3.996 10.816-3.996zM8.364 14.9l7.333-7.498s7.169 7.333 7.471 7.48c0.303 0.146-4.931 0-4.931 0l-2.42-2.475-2.448 2.493h-5.005zM15.817 20.574l10.816-4.024-10.816 10.083-10.817-10.028 10.817 3.97z"></path>
</svg>
