<!-- Generated by IcoMoon.io -->
<svg version="1.1" xmlns="http://www.w3.org/2000/svg" width="32" height="32" viewBox="0 0 32 32">
<title>san</title>
<path fill="#2b77b3" d="M32 16c0 8.837-7.163 16-16 16s-16-7.163-16-16c0-8.837 7.163-16 16-16s16 7.163 16 16z"></path>
<path fill="#fff" d="M27 16.039c-0.047 6.108-4.997 11.006-11.077 10.96-6.085-0.045-10.972-5.017-10.923-11.112 0.050-6.037 5.014-10.927 11.050-10.887 6.080 0.041 10.994 4.996 10.95 11.040zM5.796 16.004c0.011 5.62 4.558 10.157 10.189 10.17 5.637 0.010 10.236-4.558 10.217-10.184-0.021-5.86-4.875-10.28-10.462-10.184-5.402 0.092-9.955 4.684-9.944 10.198zM18.681 11.228l-0.407 1.302c-0.758-0.125-1.46-0.274-2.171-0.344-0.422-0.041-0.86 0.069-1.023 0.544-0.168 0.487-0.188 1.006 0.215 1.382 0.414 0.385 0.9 0.69 1.354 1.032 0.417 0.314 0.876 0.588 1.24 0.955 0.987 0.996 1.162 2.204 0.757 3.506-0.24 0.772-0.812 1.26-1.544 1.556-1.12 0.454-3.027 0.23-4.098-0.49l0.47-1.364c0.682 0.18 1.306 0.396 1.948 0.498 0.612 0.097 1.253 0.003 1.567-0.622 0.316-0.63 0.216-1.293-0.279-1.799-0.382-0.39-0.861-0.687-1.308-1.012-0.298-0.216-0.631-0.386-0.921-0.612-0.752-0.579-1.232-1.479-1.232-2.492 0-0.467 0.102-0.909 0.285-1.307l-0.008 0.020c0.263-0.62 0.8-1.079 1.456-1.228l0.014-0.003c1.255-0.298 2.472-0.163 3.685 0.48zM10.601 15.818c0 0 0 0 0 0 0 0.697-0.561 1.263-1.256 1.27h-0.001c-0.7 0.003-1.298-0.607-1.282-1.304 0.028-0.693 0.597-1.244 1.294-1.244 0 0 0 0 0 0v0c0.7 0.010 1.25 0.575 1.246 1.278zM22.694 14.575c0.698-0.001 1.218 0.514 1.227 1.216 0 0.009 0 0.019 0 0.029 0 0.7-0.568 1.268-1.268 1.268-0.003 0-0.006 0-0.009-0h0c-0.694-0.012-1.252-0.577-1.252-1.273 0-0.002 0-0.004 0-0.005v0c0-0.732 0.53-1.235 1.301-1.235z"></path>
</svg>
