<!-- Generated by IcoMoon.io -->
<svg version="1.1" xmlns="http://www.w3.org/2000/svg" width="32" height="32" viewBox="0 0 32 32">
<title>sberbank</title>
<path fill="#48b254" d="M32 16c0 8.837-7.163 16-16 16s-16-7.163-16-16c0-8.837 7.163-16 16-16s16 7.163 16 16z"></path>
<path fill="#fff" d="M22.681 7.368l0.945 0.858-11.932 6.812-5.776-3.325 0.54-1.073 5.236 2.977 10.987-6.25zM20.279 6l1.268 0.644-9.853 5.632-4.588-2.602 0.782-0.938 3.806 2.172 8.586-4.908zM24.463 9.111l0.701 0.939-13.47 7.697-6.505-3.701 0.297-1.18 6.208 3.54 12.769-7.295zM26.406 12.571c0.396 1.109 0.594 2.27 0.594 3.486s-0.198 2.397-0.594 3.54l-0.27 0.725c-0.585 1.353-1.377 2.509-2.349 3.486l0-0c-0.981 0.964-2.146 1.743-3.438 2.281l-0.072 0.026c-1.385 0.59-2.815 0.885-4.291 0.885-1.494 0-2.925-0.295-4.293-0.885-1.349-0.578-2.503-1.356-3.485-2.31l0.003 0.003c-0.983-0.969-1.777-2.128-2.322-3.417l-0.026-0.069c-0.57-1.35-0.865-2.8-0.864-4.265v-0.724l6.694 3.782 14.118-8.046 0.594 1.502z"></path>
</svg>
