<!-- Generated by IcoMoon.io -->
<svg version="1.1" xmlns="http://www.w3.org/2000/svg" width="32" height="32" viewBox="0 0 32 32">
<title>sc</title>
<path fill="#20ee82" d="M32 16c0 8.837-7.163 16-16 16s-16-7.163-16-16c0-8.837 7.163-16 16-16s16 7.163 16 16z"></path>
<path fill="#fff" d="M16 7.5c4.694 0 8.5 3.806 8.5 8.5v0 8.5h-8.5c-4.694 0-8.5-3.806-8.5-8.5s3.806-8.5 8.5-8.5v0zM21.1 21.1v-5.023c0-2.82-2.255-5.163-5.074-5.177-0.006-0-0.013-0-0.020-0-2.82 0-5.106 2.286-5.106 5.106 0 0.007 0 0.014 0 0.021v-0.001c0.014 2.819 2.358 5.074 5.177 5.074h5.023z"></path>
</svg>
