<!-- Generated by IcoMoon.io -->
<svg version="1.1" xmlns="http://www.w3.org/2000/svg" width="32" height="32" viewBox="0 0 32 32">
<title>shift</title>
<path fill="#964b9c" d="M32 16c0 8.837-7.163 16-16 16s-16-7.163-16-16c0-8.837 7.163-16 16-16s16 7.163 16 16z"></path>
<path fill="#fff" opacity="0.6" d="M20.507 16.406l-4.472 4.471h8.942l-4.47-4.471z"></path>
<path fill="#fff" opacity="0.7" d="M11.528 16.41l4.472-4.47h-8.943l4.472 4.471z"></path>
<path fill="#fff" opacity="0.4" d="M16.035 20.878l4.46-4.46-4.48-4.482-8.943 8.942 8.942 8.943 8.941-8.943z"></path>
<path fill="#fff" opacity="0.8" d="M16.056 3l-8.937 8.937h8.881l-4.446 4.446 4.502 4.501 8.942-8.942z"></path>
</svg>
