<!-- Generated by IcoMoon.io -->
<svg version="1.1" xmlns="http://www.w3.org/2000/svg" width="32" height="32" viewBox="0 0 32 32">
<title>sin</title>
<path fill="#f5342e" d="M32 16c0 8.837-7.163 16-16 16s-16-7.163-16-16c0-8.837 7.163-16 16-16s16 7.163 16 16z"></path>
<path fill="#fff" d="M6.001 16.124c-0-0.031-0.001-0.068-0.001-0.104 0-1.136 0.186-2.228 0.529-3.249l-0.021 0.072c0.42-1.264 1.038-2.358 1.828-3.303l-0.013 0.016c0.909-1.1 2.033-1.987 3.312-2.605l0.059-0.025c0.793-0.387 1.713-0.675 2.681-0.817l0.051-0.006c0.416-0.065 0.896-0.102 1.385-0.102 0.118 0 0.235 0.002 0.352 0.006l-0.017-0c1.202 0.045 2.332 0.304 3.369 0.74l-0.063-0.024c0.016 0.007 0.035 0.014 0.037 0.034 0.002 0.026-0.021 0.034-0.040 0.042l-0.36 0.14c-0.929 0.362-1.685 0.713-2.417 1.103l0.121-0.059c-0.827 0.437-1.621 0.927-2.358 1.512-0.64 0.509-1.225 1.075-1.7 1.753-0.32 0.456-0.572 0.946-0.71 1.493-0.176 0.692-0.133 1.377 0.067 2.056 0.147 0.502 0.368 0.972 0.612 1.43 0.308 0.58 0.657 1.135 0.978 1.707 0.292 0.52 0.564 1.050 0.744 1.625 0.125 0.401 0.2 0.812 0.192 1.234-0.015 0.576-0.165 1.113-0.421 1.586l0.009-0.019c-0.303 0.584-0.718 1.076-1.18 1.53-0.427 0.419-0.891 0.788-1.37 1.14-0.070 0.052-0.125 0.050-0.198 0.012-0.74-0.38-1.378-0.813-1.958-1.312l0.013 0.011c-0.715-0.616-1.332-1.317-1.844-2.093l-0.023-0.038c-0.814-1.234-1.373-2.705-1.569-4.289l-0.005-0.049c-0.045-0.326-0.070-0.703-0.070-1.085 0-0.022 0-0.044 0-0.066l-0 0.003z"></path>
<path fill="#fff" d="M12.047 25.241c0.018-0.043 0.063-0.044 0.097-0.056 0.872-0.318 1.551-0.606 2.216-0.923l-0.156 0.067c0.79-0.372 1.559-0.784 2.287-1.265 0.6-0.393 1.123-0.804 1.607-1.256l-0.007 0.006c0.488-0.46 0.92-0.964 1.256-1.544 0.272-0.47 0.456-0.971 0.516-1.512 0.012-0.115 0.019-0.248 0.019-0.383 0-0.385-0.057-0.757-0.163-1.107l0.007 0.027c-0.15-0.529-0.385-1.022-0.649-1.503-0.316-0.577-0.675-1.13-1.006-1.698-0.281-0.483-0.543-0.975-0.733-1.502-0.156-0.399-0.246-0.861-0.246-1.345 0-0.086 0.003-0.171 0.008-0.255l-0.001 0.011c0.027-0.37 0.123-0.726 0.272-1.068 0.224-0.514 0.547-0.963 0.922-1.377 0.548-0.607 1.185-1.11 1.849-1.584 0.073-0.053 0.134-0.059 0.215-0.018 0.706 0.354 1.366 0.776 1.975 1.277 0.623 0.513 1.177 1.090 1.66 1.733 1.103 1.448 1.821 3.244 1.97 5.199l0.002 0.033c0.022 0.315 0.042 0.63 0.033 0.946-0.023 0.976-0.18 1.906-0.451 2.786l0.019-0.073c-0.546 1.755-1.505 3.247-2.767 4.419l-0.006 0.006c-1.383 1.285-3.134 2.194-5.077 2.55l-0.063 0.010c-0.542 0.1-1.165 0.157-1.802 0.157-0.088 0-0.175-0.001-0.263-0.003l0.013 0c-1.251-0.033-2.434-0.285-3.525-0.719l0.069 0.024c-0.036-0.016-0.078-0.020-0.098-0.060z"></path>
</svg>
