<!-- Generated by IcoMoon.io -->
<svg version="1.1" xmlns="http://www.w3.org/2000/svg" width="32" height="32" viewBox="0 0 32 32">
<title>sin</title>
<path fill="#f5342e" d="M16 0c8.837 0 16 7.163 16 16s-7.163 16-16 16-16-7.163-16-16 7.163-16 16-16zM20.358 6.957c-0.081-0.040-0.142-0.035-0.215 0.018-0.664 0.473-1.301 0.977-1.849 1.584-0.375 0.414-0.698 0.863-0.922 1.377-0.15 0.342-0.245 0.697-0.272 1.068-0.005 0.073-0.008 0.158-0.008 0.243 0 0.483 0.090 0.945 0.255 1.37l-0.009-0.026c0.19 0.527 0.452 1.019 0.733 1.502 0.331 0.568 0.69 1.12 1.006 1.698 0.264 0.48 0.499 0.974 0.649 1.503 0.136 0.48 0.191 0.968 0.137 1.463-0.069 0.566-0.252 1.078-0.526 1.529l0.010-0.017c-0.336 0.58-0.768 1.083-1.255 1.544-0.494 0.467-1.034 0.876-1.6 1.25-0.73 0.481-1.498 0.893-2.288 1.265-0.509 0.25-1.188 0.538-1.882 0.798l-0.178 0.058c-0.034 0.012-0.079 0.013-0.097 0.056 0.020 0.040 0.062 0.045 0.098 0.060 1.102 0.442 2.379 0.698 3.716 0.698 0.633 0 1.253-0.057 1.854-0.167l-0.063 0.010c2.006-0.363 3.758-1.271 5.146-2.564l-0.006 0.006c1.268-1.178 2.227-2.67 2.754-4.354l0.019-0.071c0.271-0.885 0.405-1.79 0.432-2.713 0.001-0.042 0.001-0.092 0.001-0.141 0-0.283-0.012-0.564-0.037-0.841l0.003 0.036c-0.151-1.988-0.869-3.784-1.991-5.256l0.018 0.024c-0.492-0.651-1.037-1.22-1.642-1.719l-0.017-0.014c-0.575-0.474-1.223-0.899-1.915-1.249l-0.060-0.028zM16.144 6.007c-0.1-0.004-0.217-0.006-0.335-0.006-0.489 0-0.969 0.037-1.438 0.109l0.053-0.007c-0.95 0.136-1.86 0.41-2.73 0.824-1.338 0.642-2.462 1.529-3.358 2.613l-0.013 0.016c-0.777 0.929-1.395 2.023-1.795 3.216l-0.020 0.071c-0.322 0.948-0.508 2.041-0.508 3.177 0 0.036 0 0.073 0.001 0.109l-0-0.006c-0.008 0.33 0.022 0.74 0.070 1.148 0.2 1.634 0.76 3.105 1.598 4.377l-0.024-0.038c0.535 0.814 1.152 1.515 1.854 2.119l0.013 0.011c0.567 0.489 1.205 0.922 1.89 1.276l0.055 0.026c0.073 0.037 0.129 0.040 0.198-0.011 0.479-0.353 0.943-0.722 1.37-1.14 0.462-0.455 0.877-0.947 1.18-1.53 0.254-0.49 0.4-1.011 0.412-1.568 0-0.009 0-0.020 0-0.031 0-0.43-0.070-0.844-0.2-1.23l0.008 0.027c-0.18-0.574-0.452-1.105-0.744-1.625-0.32-0.572-0.67-1.126-0.978-1.706-0.244-0.46-0.465-0.929-0.612-1.43-0.2-0.68-0.243-1.365-0.067-2.057 0.138-0.547 0.39-1.037 0.71-1.493 0.475-0.678 1.060-1.244 1.7-1.753 0.687-0.541 1.459-1.043 2.275-1.472l0.083-0.040c0.611-0.331 1.368-0.682 2.145-0.991l0.152-0.053 0.36-0.14c0.018-0.008 0.041-0.016 0.040-0.042-0.003-0.020-0.022-0.027-0.038-0.034-0.015-0.008-0.031-0.014-0.047-0.021-0.961-0.4-2.075-0.651-3.243-0.694l-0.017-0z"></path>
</svg>
