<!-- Generated by IcoMoon.io -->
<svg version="1.1" xmlns="http://www.w3.org/2000/svg" width="32" height="32" viewBox="0 0 32 32">
<title>sky</title>
<path fill="#0072ff" d="M32 16c0 8.837-7.163 16-16 16s-16-7.163-16-16c0-8.837 7.163-16 16-16s16 7.163 16 16z"></path>
<path fill="#fff" d="M24.027 12.803l-4.812 10.697h-1.923l5.065-11.26c0.626 0.104 1.187 0.3 1.698 0.577l-0.028-0.014zM15.607 6.519l-7.403 16.459c-1.888-0.896-3.204-2.859-3.204-5.145 0-3.13 2.462-5.666 5.5-5.666 0-2.995 2.254-5.44 5.107-5.648zM21.501 12.167l-5.099 11.333h-2.083l6.402-14.23c0.493 0.848 0.78 1.836 0.78 2.897zM23.395 23.149l3.266-7.256c0.216 0.608 0.339 1.26 0.339 1.943 0 2.438-1.5 4.515-3.605 5.313zM24.837 13.335c0.456 0.36 0.86 0.788 1.186 1.279l-3.986 8.858c-0.159 0.018-0.343 0.028-0.53 0.028-0.002 0-0.004 0-0.007 0h-1.236l4.572-10.165zM16.020 6.5c0.78 0.003 1.519 0.174 2.19 0.481l-7.43 16.519h-0.28c-0.69 0-1.35-0.136-1.957-0.377l7.477-16.623zM20.287 8.618l-6.695 14.882h-2.246l7.327-16.285c0.622 0.358 1.17 0.836 1.614 1.403z"></path>
</svg>
