<!-- Generated by IcoMoon.io -->
<svg version="1.1" xmlns="http://www.w3.org/2000/svg" width="32" height="32" viewBox="0 0 32 32">
<title>sls</title>
<path fill="#8e9495" d="M32 16c0 8.837-7.163 16-16 16s-16-7.163-16-16c0-8.837 7.163-16 16-16s16 7.163 16 16z"></path>
<path fill="#fff" d="M7.623 20.711c-0.212-0.444-0.387-0.962-0.498-1.502l-0.008-0.045c-0.057-0.248-0.099-0.54-0.116-0.839l-0.001-0.015h0.894c0.024 0.263 0.059 0.498 0.107 0.728l-0.007-0.040c0.097 0.469 0.243 0.935 0.443 1.36 0.536 1.136 1.35 1.784 2.532 1.784 0.924 0 1.64-0.37 2.144-1.022 0.428-0.551 0.67-1.282 0.67-1.896 0-0.787-0.298-1.367-0.893-1.858-0.484-0.4-1.041-0.68-2.191-1.158l-0.203-0.084c-1.196-0.495-1.748-0.767-2.285-1.191-0.742-0.586-1.136-1.313-1.136-2.244 0-1.115 0.401-2.060 1.119-2.728 0.649-0.596 1.519-0.961 2.473-0.961 0.008 0 0.015 0 0.023 0h-0.001c1.28 0 2.257 0.533 2.907 1.467v-1.27h2.888v12.747h0.858v-3.577c-0.001-0.013-0.001-0.029-0.001-0.044s0-0.031 0.001-0.046l-0 0.002 0.894 0.030v0.045c0.020 0.245 0.052 0.466 0.096 0.683l-0.006-0.037c0.093 0.465 0.237 0.932 0.437 1.357 0.533 1.135 1.348 1.784 2.529 1.784 0.924 0 1.64-0.37 2.144-1.022 0.428-0.551 0.67-1.282 0.67-1.896 0-0.787-0.298-1.367-0.893-1.858-0.484-0.4-1.041-0.68-2.191-1.158l-0.203-0.084c-1.196-0.495-1.748-0.767-2.285-1.191-0.742-0.586-1.136-1.313-1.136-2.244 0-1.115 0.401-2.060 1.119-2.728 0.649-0.595 1.518-0.96 2.472-0.96 0.008 0 0.016 0 0.024 0h-0.001c1.28 0 2.257 0.533 2.907 1.467v-1.216h0.895v4.422h-0.895c0-0.924-0.212-1.86-0.629-2.551-0.492-0.817-1.232-1.263-2.278-1.263-0.006-0-0.013-0-0.020-0-0.715 0-1.366 0.273-1.855 0.72l0.002-0.002c-0.54 0.504-0.847 1.225-0.847 2.111 0 0.66 0.266 1.15 0.81 1.58 0.45 0.355 0.954 0.603 2.071 1.066l0.203 0.084c1.233 0.511 1.844 0.82 2.42 1.295 0.787 0.65 1.204 1.464 1.204 2.51 0 0.796-0.302 1.706-0.846 2.41-0.669 0.863-1.646 1.367-2.862 1.367-0.843 0-1.566-0.256-2.16-0.73-0.353-0.287-0.651-0.626-0.886-1.008l-0.010-0.017v1.558h-2.646v-12.747h-1.1v3.617h-0.894c0-0.924-0.212-1.86-0.629-2.551-0.492-0.817-1.232-1.263-2.278-1.263-0.006-0-0.013-0-0.020-0-0.715 0-1.366 0.273-1.855 0.72l0.002-0.002c-0.54 0.504-0.847 1.225-0.847 2.111 0 0.66 0.266 1.15 0.81 1.58 0.45 0.355 0.954 0.603 2.071 1.066l0.203 0.084c1.233 0.511 1.844 0.82 2.42 1.295 0.787 0.65 1.204 1.464 1.204 2.51 0 0.796-0.302 1.706-0.846 2.41-0.669 0.863-1.646 1.367-2.862 1.367-0.843 0-1.566-0.256-2.16-0.73-0.362-0.294-0.666-0.643-0.905-1.035l-0.010-0.018v1.532h-0.894v-4.44h0.894v2.908c-0.085-0.137-0.176-0.303-0.257-0.474l-0.014-0.032z"></path>
</svg>
