<!-- Generated by IcoMoon.io -->
<svg version="1.1" xmlns="http://www.w3.org/2000/svg" width="32" height="32" viewBox="0 0 32 32">
<title>sngls</title>
<path fill="#b30d23" d="M32 16c0 8.837-7.163 16-16 16s-16-7.163-16-16c0-8.837 7.163-16 16-16s16 7.163 16 16z"></path>
<path fill="#fff" d="M16.913 21.234l-0.932 1.736-0.932-1.736c-5.63-0.437-10.049-4.635-10.049-4.635 0-0.010 4.294-4.078 9.809-4.614l0.73-1.25 0.442-0.735 0.75 1.25 0.422 0.735c5.514 0.526 9.809 4.614 9.809 4.614s-4.42 4.198-10.050 4.635zM5.932 16.599c-0.010 0 4.246 2.908 8.521 3.523l-2.084-3.9 0.566-0.982 0.52 0.972-0.010 0.010 2.027 3.99c0.163 0.010 0.326 0.010 0.49 0.010 0.163 0 0.317 0 0.48-0.010l1.489-2.968 1.086-2.024 0.566 0.982-2.084 3.91c4.275-0.605 8.53-3.443 8.53-3.523 0-0.070-4.053-2.778-8.223-3.473l0.634 1.102-0.528 1.061-1.374-2.302c-0.162-0.011-0.356-0.018-0.552-0.020l-0.005-0c-0.183 0-0.375 0.010-0.567 0.020l-1.403 2.302-0.518-1.012 0.662-1.141c-4.169 0.705-8.223 3.473-8.223 3.473z"></path>
</svg>
