<!-- Generated by IcoMoon.io -->
<svg version="1.1" xmlns="http://www.w3.org/2000/svg" width="32" height="32" viewBox="0 0 32 32">
<title>snm</title>
<path fill="#0b1c26" d="M32 16c0 8.837-7.163 16-16 16s-16-7.163-16-16c0-8.837 7.163-16 16-16s16 7.163 16 16z"></path>
<path fill="#fff" d="M16 27c-6.068-0.018-11-4.943-11-11s4.932-10.982 11-11c6.068 0.018 11 4.943 11 11s-4.932 10.988-11 11zM25.755 17.75c-0.176 0.398-0.568 0.671-1.023 0.671-0.153 0-0.298-0.031-0.43-0.086l0.007 0.003c0.389 0.406 0.632 0.951 0.632 1.55 0 0.176-0.024 0.34-0.060 0.504 0.412-0.836 0.707-1.725 0.874-2.641zM24.735 17.86c0 0 0.001 0 0.001 0 0.305 0 0.552-0.247 0.552-0.552s-0.247-0.551-0.551-0.552h-0c-0 0-0.001 0-0.002 0-0.305 0-0.552 0.247-0.552 0.552s0.246 0.551 0.55 0.552h0zM24.983 11.833c0.17 0.462 0.269 0.996 0.269 1.553 0 1.141-0.414 2.185-1.1 2.991l0.005-0.006c0.163-0.101 0.36-0.161 0.571-0.164h0.001c0.577 0 1.050 0.442 1.099 1.012 0.049-0.4 0.079-0.8 0.079-1.212 0-0.014 0-0.029 0-0.045 0-1.499-0.341-2.919-0.949-4.186l0.025 0.058zM24.419 13.377c-0.005-2.109-1.716-3.816-3.825-3.816-0.001 0-0.001 0-0.002 0h0c-0.001 0-0.001 0-0.002 0-2.109 0-3.82 1.707-3.825 3.816v0.001c0.005 2.109 1.716 3.816 3.825 3.816 0.001 0 0.001 0 0.002 0h-0c2.109-0.001 3.82-1.708 3.827-3.815v-0.001zM20.44 19.89c0-0.83 0.46-1.593 1.197-1.98-0.317 0.077-0.68 0.121-1.054 0.121-0.629 0-1.23-0.125-1.777-0.351l0.031 0.011c0.743 0.573 1.301 1.352 1.594 2.251l0.009 0.033c0.006-0.037 0-0.061 0-0.085zM20.659 21.368c-0.001 0.388-0.050 0.763-0.141 1.122l0.007-0.032c0.182-0.363 0.553-0.593 0.96-0.593 0.001 0 0.003 0 0.004 0 0.059 0 0.116 0.007 0.171 0.019l-0.005-0.001c-0.468-0.244-0.832-0.633-1.039-1.105l-0.006-0.015c0.032 0.2 0.048 0.402 0.049 0.605zM22.687 21.301c0.001 0 0.001 0 0.002 0 0.781 0 1.415-0.631 1.42-1.411v-0c0-0.781-0.638-1.411-1.422-1.411s-1.415 0.636-1.415 1.41c0 0.782 0.638 1.412 1.416 1.412zM23.622 17.316c0.002-0.187 0.050-0.37 0.14-0.534-0.39 0.361-0.844 0.66-1.342 0.878l-0.031 0.012c0.098-0.011 0.195-0.023 0.298-0.023 0.002 0 0.003 0 0.005 0 0.422 0 0.816 0.117 1.153 0.321l-0.010-0.006c-0.132-0.178-0.212-0.403-0.212-0.646 0-0.001 0-0.002 0-0.003v0zM15.999 16.716c0.6 0 1.194 0.115 1.75 0.339-0.912-0.703-1.549-1.723-1.746-2.893l-0.004-0.027c-0.202 1.196-0.839 2.216-1.738 2.912l-0.011 0.008c0.518-0.212 1.119-0.337 1.749-0.34h0.001zM15.999 10.543c-0.001 0-0.003 0-0.005 0-0.442 0-0.854-0.129-1.2-0.35l0.009 0.005c0.61 0.643 1.037 1.466 1.193 2.382l0.004 0.027c0.164-0.942 0.59-1.764 1.199-2.412l-0.002 0.002c-0.338 0.216-0.75 0.345-1.192 0.345-0.002 0-0.004 0-0.006 0h0zM18.271 8.278c0 0.507-0.171 1-0.486 1.4 0.448-0.342 0.976-0.609 1.547-0.768l0.033-0.008c-0.025 0-0.043 0.006-0.061 0.006-0.468 0-0.87-0.29-1.033-0.703-0.005 0.024 0 0.049 0 0.073zM19.996 6.94c0.25 0.206 0.413 0.508 0.413 0.854 0 0.438-0.26 0.835-0.662 1.011 0.254-0.049 0.546-0.077 0.845-0.077 1.419 0 2.691 0.634 3.547 1.634l0.005 0.006c-1.046-1.488-2.447-2.659-4.084-3.403l-0.063-0.026zM19.298 7.249c-0 0-0.001 0-0.002 0-0.305 0-0.552 0.247-0.552 0.552s0.246 0.551 0.55 0.552h0c0 0 0.001 0 0.002 0 0.305 0 0.552-0.247 0.552-0.553s-0.247-0.552-0.551-0.553h-0zM16.686 6.116c0.742 0.241 1.307 0.834 1.503 1.577l0.004 0.016c0.043-0.574 0.519-1.023 1.1-1.024h0c0.039 0.001 0.076 0.005 0.112 0.013l-0.004-0.001c-0.797-0.301-1.721-0.507-2.682-0.579l-0.033-0.002zM14.566 8.278c0.021 0.776 0.655 1.396 1.434 1.396s1.412-0.621 1.433-1.394l0-0.002c-0.030-0.769-0.66-1.38-1.433-1.38s-1.403 0.612-1.433 1.378l-0 0.003zM12.593 6.697c0.032-0.007 0.070-0.011 0.108-0.012l0.001-0c0.001 0 0.002 0 0.003 0 0.581 0 1.056 0.45 1.097 1.020l0 0.004c0.2-0.759 0.764-1.352 1.49-1.588l0.016-0.005c-0.948 0.072-1.86 0.266-2.715 0.581zM13.728 8.278c-0-0.004-0-0.008-0-0.013 0-0.021 0.002-0.042 0.007-0.062l-0 0.002c-0.167 0.415-0.566 0.702-1.032 0.703h-0c-0.025 0-0.043-0.006-0.061-0.006 0.57 0.156 1.107 0.42 1.58 0.775-0.307-0.379-0.493-0.867-0.493-1.398 0-0 0-0 0-0.001v0zM12.149 7.799c0 0.305 0.247 0.551 0.552 0.551s0.552-0.247 0.552-0.552c0-0 0-0 0-0.001v0c-0-0.305-0.247-0.551-0.552-0.551s-0.552 0.247-0.552 0.552c0 0 0 0 0 0.001v-0zM7.855 10.374c0.858-1.007 2.127-1.642 3.545-1.642 0.301 0 0.596 0.029 0.882 0.084l-0.029-0.005c-0.392-0.174-0.66-0.56-0.66-1.008 0-0.346 0.16-0.654 0.409-0.856l0.002-0.002c-1.702 0.766-3.105 1.938-4.127 3.397l-0.021 0.032zM7.581 13.378c0.005 2.109 1.716 3.816 3.825 3.816 0.001 0 0.001 0 0.002 0h-0c0.001 0 0.001 0 0.002 0 2.109 0 3.82-1.707 3.825-3.816v-0.001c-0.005-2.109-1.716-3.816-3.825-3.816-0.001 0-0.001 0-0.002 0h0c-2.108 0.006-3.827 1.714-3.827 3.816zM11.56 19.89c0 0.024-0.006 0.055-0.006 0.079 0.303-0.931 0.862-1.709 1.592-2.276l0.011-0.008c-0.516 0.215-1.116 0.339-1.745 0.339-0.374 0-0.738-0.044-1.087-0.128l0.032 0.006c0.72 0.384 1.201 1.129 1.203 1.987v0zM8.377 17.315c0.001 0.235-0.076 0.463-0.219 0.648 0.326-0.197 0.721-0.314 1.142-0.314 0.002 0 0.004 0 0.006 0h-0c0.1-0.001 0.2 0.007 0.298 0.024-0.53-0.225-0.985-0.524-1.375-0.892l0.002 0.002c0.096 0.16 0.146 0.345 0.146 0.532zM7.891 19.89c0 0.781 0.634 1.415 1.415 1.415s1.415-0.634 1.415-1.415v0c0-0.782-0.637-1.412-1.415-1.412-0.002 0-0.003 0-0.005 0-0.779 0-1.41 0.631-1.41 1.41 0 0.001 0 0.001 0 0.002v-0zM10.339 21.883c0.055-0.006 0.11-0.019 0.17-0.019 0.407 0.001 0.778 0.23 0.96 0.594-0.084-0.327-0.133-0.702-0.134-1.089v-0.001c0.002-0.205 0.016-0.41 0.043-0.612-0.203 0.486-0.57 0.885-1.039 1.127zM6.166 17.213c0.051-0.568 0.523-1.010 1.1-1.012h0c0.201 0.001 0.399 0.058 0.57 0.164-0.681-0.799-1.095-1.843-1.095-2.984 0-0.557 0.099-1.091 0.279-1.585l-0.010 0.032c-0.582 1.215-0.922 2.642-0.922 4.148 0 0.436 0.028 0.865 0.084 1.285l-0.005-0.049zM7.266 16.764c-0 0-0.001 0-0.001 0-0.305 0-0.552 0.247-0.552 0.552s0.247 0.551 0.551 0.552h0c0 0 0.001 0 0.001 0 0.305 0 0.552-0.247 0.552-0.552s-0.247-0.551-0.551-0.552h-0zM7.060 19.89c0-0.58 0.226-1.136 0.631-1.55-0.125 0.053-0.27 0.083-0.423 0.083-0.455 0-0.847-0.273-1.021-0.664l-0.003-0.007c0.17 0.932 0.463 1.817 0.875 2.64-0.037-0.15-0.059-0.323-0.060-0.501v-0.001zM9.902 22.052c-0.177 0.050-0.381 0.079-0.592 0.079-0.591 0-1.129-0.228-1.53-0.602l0.001 0.001c0.53 0.783 1.168 1.486 1.895 2.090-0.153-0.182-0.247-0.419-0.249-0.678v-0c0-0.357 0.178-0.69 0.474-0.89zM9.987 22.942c0 0.288 0.234 0.522 0.522 0.522s0.522-0.234 0.522-0.522v0c0-0.288-0.234-0.522-0.522-0.522s-0.522 0.234-0.522 0.522v0zM14.658 25.82c-1.45-0.449-2.579-1.544-3.063-2.941l-0.010-0.033c0 0.030 0.012 0.060 0.012 0.097-0.001 0.595-0.484 1.078-1.079 1.078-0.171 0-0.333-0.040-0.476-0.111l0.006 0.003c1.286 0.979 2.851 1.657 4.557 1.901l0.053 0.006zM19.821 21.368c0-2.11-1.71-3.82-3.82-3.82s-3.82 1.71-3.82 3.82v0c0.005 2.107 1.713 3.813 3.82 3.815h0c2.107-0.004 3.814-1.71 3.82-3.815v-0.001zM21.959 23.912c-0.138 0.069-0.301 0.109-0.473 0.109-0.212 0-0.41-0.061-0.577-0.167l0.004 0.003c-0.305-0.193-0.504-0.528-0.504-0.91 0-0.002 0-0.003 0-0.005v0c0.001-0.035 0.005-0.068 0.013-0.101l-0.001 0.004c-0.495 1.43-1.623 2.526-3.041 2.965l-0.033 0.009c1.758-0.253 3.323-0.931 4.635-1.926l-0.025 0.018zM22.014 22.942c0-0.288-0.234-0.522-0.522-0.522s-0.522 0.234-0.522 0.522c0 0.288 0.233 0.521 0.521 0.522h0c0.287-0.002 0.519-0.234 0.522-0.521v-0zM24.218 21.532c-0.399 0.372-0.936 0.6-1.527 0.6-0.211 0-0.415-0.029-0.609-0.084l0.016 0.004c0.296 0.2 0.474 0.534 0.474 0.89 0 0.261-0.097 0.491-0.249 0.679 0.725-0.604 1.35-1.292 1.873-2.056l0.022-0.034z"></path>
</svg>
