<!-- Generated by IcoMoon.io -->
<svg version="1.1" xmlns="http://www.w3.org/2000/svg" width="32" height="32" viewBox="0 0 32 32">
<title>snt</title>
<path fill="#5b6dee" d="M32 16c0 8.837-7.163 16-16 16s-16-7.163-16-16c0-8.837 7.163-16 16-16s16 7.163 16 16z"></path>
<path fill="#fff" d="M13.3 15.020c-0.014-0-0.030-0-0.047-0-0.572 0-1.131 0.052-1.673 0.153l0.056-0.009c0.452-4.18 3.936-7.346 8.084-7.346 2.54 0 4.28 1.244 4.28 3.818s-2.089 3.819-5.136 3.819c-2.25 0-3.314-0.434-5.564-0.434zM13.136 16.545c-3.047 0-5.136 1.245-5.136 3.819s1.74 3.818 4.28 3.818c4.148 0 7.632-3.165 8.084-7.346-0.486 0.092-1.046 0.144-1.617 0.144-0.017 0-0.033-0-0.049-0h0.003c-2.25 0-3.315-0.435-5.564-0.435z"></path>
</svg>
