<!-- Generated by IcoMoon.io -->
<svg version="1.1" xmlns="http://www.w3.org/2000/svg" width="32" height="32" viewBox="0 0 32 32">
<title>spank</title>
<path fill="#ff3b81" d="M32 16c0 8.837-7.163 16-16 16s-16-7.163-16-16c0-8.837 7.163-16 16-16s16 7.163 16 16z"></path>
<path fill="#fff" d="M8.459 22.141v0.141h-1.477v-2.667l-0.046 0.148-1.411-0.426 0.797-2.57-0.098 0.144-1.224-0.813 1.53-2.234-0.146 0.116-0.93-1.13 2.201-1.756-0.28 0.107-0.53-1.358 2.629-0.994-0.308 0.020-0.102-1.45 2.752-0.19-0.249-0.056 0.332-1.417 2.63 0.598-0.166-0.094 0.737-1.26 2.293 1.304-0.090-0.094 1.080-0.992 1.786 1.886-0.038-0.076 1.327-0.638 1.146 2.314-0.010-0.065 1.457-0.228 0.43 2.673 0.030-0.19 1.459 0.227-0.436 2.712 0.107-0.218 1.327 0.638-1.228 2.481 0.18-0.19 1.079 0.993-1.909 2.016 0.231-0.131 0.738 1.26-2.399 1.364 0.241-0.055 0.333 1.417-2.652 0.603 0.205 0.014-0.103 1.451-2.654-0.183 0.135 0.051-0.53 1.358-2.54-0.96 0.161 0.128-0.929 1.13-2.097-1.673 0.104 0.151-1.224 0.814-1.5-2.19 0.045 0.144-1.412 0.426zM8.459 20.413l0.922-0.278 0.716 2.31 0.798-0.53 1.362 1.99 0.609-0.74 1.888 1.506 0.338-0.867 2.276 0.86 0.066-0.939 2.436 0.168-0.22-0.935 2.388-0.543-0.495-0.844 2.131-1.212-0.73-0.67 1.683-1.778-0.898-0.432 1.083-2.186-0.982-0.154 0.386-2.4-0.94 0.146-0.385-2.4-0.846 0.406-1.075-2.17-0.69 0.633-1.662-1.757-0.476 0.812-2.105-1.197-0.218 0.928-2.368-0.539 0.069 0.969-2.431 0.167 0.359 0.923-2.29 0.866 0.617 0.749-1.922 1.533 0.811 0.539-1.384 2.023 0.933 0.282-0.723 2.331h0.97zM15.709 17.688c0-0.368-0.13-0.649-0.389-0.844-0.26-0.199-0.725-0.407-1.399-0.623-0.674-0.22-1.207-0.437-1.6-0.65-1.070-0.58-1.606-1.36-1.606-2.343 0-0.511 0.142-0.966 0.427-1.364 0.29-0.403 0.702-0.717 1.237-0.942 0.54-0.225 1.145-0.337 1.814-0.337 0.674 0 1.274 0.123 1.8 0.37 0.527 0.242 0.935 0.586 1.225 1.032 0.276 0.417 0.44 0.928 0.44 1.478 0 0.015-0 0.030-0 0.044l0-0.002h-1.943c0-0.433-0.136-0.769-0.408-1.007-0.272-0.242-0.654-0.363-1.146-0.363-0.475 0-0.845 0.101-1.108 0.305-0.241 0.174-0.395 0.453-0.395 0.769 0 0.008 0 0.016 0 0.025l-0-0.001c0 0.307 0.153 0.565 0.46 0.773 0.31 0.207 0.766 0.402 1.366 0.584 1.106 0.333 1.911 0.747 2.416 1.24 0.506 0.494 0.758 1.109 0.758 1.844 0 0.819-0.309 1.461-0.926 1.929-0.618 0.463-1.449 0.695-2.494 0.695-0.019 0-0.041 0-0.064 0-0.693 0-1.353-0.146-1.949-0.409l0.031 0.012c-0.595-0.269-1.051-0.635-1.366-1.098-0.311-0.463-0.467-1-0.467-1.61h1.95c0 1.043 0.622 1.565 1.865 1.565 0.462 0 0.823-0.093 1.082-0.28 0.237-0.17 0.39-0.445 0.39-0.756 0-0.013-0-0.025-0.001-0.038l0 0.002zM21.639 11.89l-1.873 6.852-1.543-0.108 1.167-7.064zM20.005 19.456l-0.487 2.421-2.052-0.599 0.471-2.322z"></path>
</svg>
