<!-- Generated by IcoMoon.io -->
<svg version="1.1" xmlns="http://www.w3.org/2000/svg" width="32" height="32" viewBox="0 0 32 32">
<title>sphtx</title>
<path fill="#00b098" d="M32 16c0 8.837-7.163 16-16 16s-16-7.163-16-16c0-8.837 7.163-16 16-16s16 7.163 16 16z"></path>
<path fill="#fff" d="M6 12.391v-0.356h8.417v0.356zM6 11.356v-0.356h8.417v0.356zM9.55 21.996v-8.893h0.338v8.893zM10.53 21.996v-8.893h0.337v8.893zM25.762 21.268l-3.798-4.013 0.238-0.251 3.798 4.012zM16.519 11l3.798 4.013-0.238 0.251-3.798-4.012zM25.069 22l-3.798-4.013 0.238-0.252 3.798 4.013zM15.827 11.732l3.798 4.012-0.239 0.252-3.798-4.012zM21.248 16.5l0.239-0.252 4.275-4.516 0.238 0.252-9.48 10.016-0.238-0.252 4.513-4.768zM20.794 15.516l4.276-4.516 0.238 0.252-9.48 10.016-0.239-0.252 4.968-5.248z"></path>
</svg>
