<!-- Generated by IcoMoon.io -->
<svg version="1.1" xmlns="http://www.w3.org/2000/svg" width="32" height="32" viewBox="0 0 32 32">
<title>sphtx</title>
<path fill="#00b098" d="M16 32c-8.837 0-16-7.163-16-16s7.163-16 16-16 16 7.163 16 16-7.163 16-16 16zM6 12.391h8.417v-0.356h-8.417zM6 11.356h8.417v-0.356h-8.417zM9.55 21.996h0.338v-8.893h-0.338zM10.53 21.996h0.337v-8.893h-0.337zM25.762 21.268l0.238-0.252-3.798-4.012-0.238 0.251zM16.519 11l-0.238 0.252 3.798 4.012 0.238-0.251zM25.069 22l0.238-0.252-3.798-4.013-0.238 0.252zM15.827 11.732l-0.239 0.252 3.798 4.012 0.239-0.252zM21.248 16.5l-4.967 5.248 0.238 0.252 9.481-10.016-0.238-0.252-4.275 4.516zM20.794 15.516l-0.238 0.252-0.455 0.48-0.238 0.252-4.275 4.516 0.239 0.252 9.48-10.016-0.237-0.252z"></path>
</svg>
