<!-- Generated by IcoMoon.io -->
<svg version="1.1" xmlns="http://www.w3.org/2000/svg" width="32" height="32" viewBox="0 0 32 32">
<title>srn</title>
<path fill="#1c1c1c" d="M32 16c0 8.837-7.163 16-16 16s-16-7.163-16-16c0-8.837 7.163-16 16-16s16 7.163 16 16z"></path>
<path fill="#fff" d="M15.715 13.433c0.306 0.125 0.612 0.062 0.857 0 0.184 0.624 0.49 1.185 0.795 1.434-0.183 1.56-0.734 2.121-1.346 2.121-0.856 0-1.285-1.809-1.285-2.12 0.184-0.125 0.735-0.5 0.98-1.435zM14.797 18.922c0.368-0.312 0.612-0.811 0.918-1.622 0.245 0.125 0.612 0.062 0.857 0 0.184 0.873 0.367 1.435 0.795 1.684-0.122 0.998-0.734 1.684-1.285 1.684-0.795 0-1.162-1.247-1.285-1.746zM9.902 20.855c0.245-0.312 0.245-0.81 0.123-1.746 0.183 0.062 0.367 0.062 0.49 0 0.366 0.873 0.672 1.434 1.162 1.746 0.061 0.437 0 0.936-0.184 0.998-0.673 0.312-1.285-0.499-1.59-0.998zM7.332 19.171c0.123 0 0.184 0 0.306 0.063 0.429 1.122 1.163 1.746 1.163 1.746 0.245 0.499 0.367 0.998 0.183 0.998-0.55 0.062-0.979-0.312-1.407-1.123 0.061-0.187 0-0.312-0.245-1.684zM5.68 19.171c0.612 2.62 1.775 2.495 1.714 2.37-0.245-0.436-0.49-0.623-0.735-0.81-0.55-0.562-0.979-1.747-0.979-1.56zM13.145 20.855c0.429-0.312 0.49-0.998 0.551-1.87 0.245 0.061 0.55 0.061 0.734 0 0.123 0.56 0.306 1.371 0.857 1.746-0.061 0.686-0.245 1.060-0.673 1.122-0.306 0.125-1.163 0.125-1.469-0.998zM7.883 18.922c0.245-0.312 0.306-0.811 0.367-1.497 0.184 0.062 0.429 0.062 0.55 0 0.184 0.81 0.49 1.31 0.858 1.56 0.122 1.309 0 1.746-0.245 1.746-0.55 0-1.285-1.186-1.53-1.81zM5.986 18.922c0-0.125 0.061-0.936 0.123-1.497h0.244c0.306 1.185 0.735 1.56 0.735 1.56 0.306 1.434 0.306 1.808 0.060 1.683-0.55-0.187-0.978-1.247-1.162-1.746zM10.881 18.922c0.306-0.25 0.49-0.686 0.612-1.497 0.306 0.124 0.612 0.062 0.796 0 0.183 0.81 0.49 1.31 0.918 1.56 0 0.685-0.062 1.808-0.918 1.62-0.735-0.186-1.346-1.434-1.408-1.683zM10.331 18.735c-0.735 0-1.163-1.186-1.163-1.56 0.367-0.374 0.55-1.060 0.734-2.245 0.123 0.062 0.306 0.062 0.49 0 0.061 1.31 0.428 1.871 0.734 2.183-0.122 1.060-0.428 1.622-0.795 1.622zM6.537 17.175c0.122-0.25 0.122-0.312 0.49-2.245h0.305c0 1.31 0.367 1.933 0.551 2.183-0.061 0.686 0.061 1.622-0.49 1.622-0.244 0-0.55-0.312-0.856-1.56zM5.313 14.992c0.184 0.063 0.061 1.684 0.306 2.246 0 0 0 1.559-0.122 1.434-0.918-1.123-0.306-3.742-0.184-3.68zM12.656 17.175c0.428-0.312 0.673-0.998 1.040-2.245 0.245 0.062 0.55 0.062 0.734 0 0.123 0.935 0.367 1.622 0.857 2.12-0.122 0.998-0.612 1.685-1.224 1.685-0.979 0-1.346-1.373-1.407-1.56zM7.638 14.743c0.49-0.187 0.796-1.248 0.857-1.373 0.065 0.058 0.151 0.094 0.245 0.094s0.18-0.036 0.245-0.094l-0 0c0 0.811 0.244 1.186 0.428 1.31-0.184 1.060-0.429 2.308-0.98 2.308-0.489 0-0.734-1.123-0.795-2.245zM6.108 17.050c-0.428 0-0.55-1.621-0.428-2.307 0 0 0.367-0.562 0.612-1.373 0.061 0 0.184 0.063 0.245 0-0.061 0.811 0.061 1.186 0.183 1.373 0 0-0.305 2.307-0.611 2.307zM10.759 14.743c0.245-0.125 0.734-0.811 0.979-1.435 0.245 0.125 0.49 0.125 0.795 0.062 0.123 0.687 0.306 1.123 0.735 1.373-0.184 1.122-0.551 2.245-1.346 2.245-0.735 0-1.102-1.497-1.163-2.245zM11.309 13.059c-0.366 0.998-0.734 1.559-1.223 1.559-0.612 0-0.673-1.31-0.673-1.435 0.49-0.374 0.856-1.122 1.162-1.746h0.429c-0.123 0.935 0.122 1.372 0.306 1.622zM8.311 11.499c-0.306 0.873-0.183 1.31-0.060 1.622-0.49 1.247-0.735 1.56-1.102 1.56-0.367-0.063-0.367-0.812-0.245-1.435 0.367-0.25 1.163-1.684 1.163-1.747zM6.537 11.562c0.183-0.063-0.49 0.873-0.428 1.31 0.060 0.623-0.674 1.684-0.735 1.621-0.244-0.062 0.245-2.308 1.163-2.931zM15.226 13.059c-0.184 0.686-0.429 1.559-1.469 1.559-0.55-0.062-0.856-0.81-0.979-1.435 0.612-0.436 0.918-1.185 1.102-1.746 0.183 0.062 0.49 0.062 0.673 0 0.122 0.935 0.428 1.372 0.673 1.622zM6.904 11.374c0.122-0.062 0.918-1.122 1.346-1.122 0.245 0.062-0.428 0.686-0.367 0.998-0.184 0.312-1.040 1.87-1.346 1.87-0.245 0-0.245-0.81 0.367-1.746zM21.957 19.109c-0.062 0.935-0.062 1.434 0.122 1.746-0.245 0.5-0.918 1.248-1.59 0.998-0.246-0.062-0.246-0.561-0.185-0.998 0.551-0.312 0.918-0.935 1.163-1.746 0.122 0.062 0.306 0.062 0.49 0zM24.404 19.109c0.061 0.062 0.184 0.062 0.306-0.063-0.245 1.373-0.306 1.497-0.245 1.685-0.428 0.81-0.856 1.122-1.407 1.122-0.245 0-0.122-0.436 0.184-0.998 0 0 0.734-0.623 1.162-1.746zM25.384 20.731c-0.246 0.249-0.49 0.374-0.674 0.81-0.061 0.125 1.102 0.25 1.713-2.37-0.122-0.187-0.49 0.998-1.040 1.56zM18.346 19.109c0 0.748 0.184 1.434 0.551 1.871-0.306 1.060-1.162 1.060-1.468 0.998-0.429-0.125-0.551-0.499-0.673-1.123 0.489-0.436 0.734-1.185 0.856-1.746 0.245 0.062 0.49 0.062 0.734 0zM23.853 17.362c0 0.749 0.062 1.248 0.368 1.497-0.245 0.624-1.040 1.81-1.53 1.81-0.245 0-0.367-0.437-0.245-1.747 0.367-0.25 0.673-0.874 0.857-1.56 0.079 0.045 0.174 0.072 0.275 0.072s0.196-0.027 0.278-0.073l-0.003 0.001zM26.056 17.487c0 0.5 0 1.31 0.123 1.497-0.245 0.5-0.673 1.56-1.163 1.747-0.306 0.062-0.245-0.312 0.061-1.685 0 0 0.429-0.436 0.735-1.559zM20.61 17.362c0.123 0.874 0.245 1.31 0.612 1.497-0.060 0.312-0.734 1.56-1.407 1.684-0.857 0.188-0.918-0.998-0.918-1.621 0.428-0.25 0.734-0.811 0.918-1.56 0.184 0.063 0.49 0.125 0.795 0zM22.936 17.175c-0.062 0.374-0.551 1.56-1.163 1.56-0.367 0-0.673-0.624-0.795-1.622 0.306-0.25 0.673-0.873 0.734-2.183 0.073 0.030 0.157 0.047 0.245 0.047s0.172-0.017 0.249-0.048l-0.004 0.002c0.244 1.123 0.428 1.871 0.734 2.245zM25.077 14.93c0.306 1.933 0.367 1.996 0.49 2.245-0.306 1.185-0.612 1.56-0.857 1.56-0.55 0-0.428-0.998-0.49-1.622 0.245-0.25 0.551-0.873 0.551-2.183 0.123 0.062 0.184 0 0.306 0zM26.362 17.175c0.306-0.499 0.184-2.12 0.306-2.245 0.184-0.063 0.734 2.682-0.183 3.68-0.123 0.125-0.123-1.435-0.123-1.435zM18.53 14.93c0.184 1.247 0.49 1.933 1.040 2.245-0.061 0.187-0.55 1.56-1.407 1.56-0.673 0.062-1.040-0.749-1.224-1.685 0.428-0.498 0.734-1.185 0.857-2.12 0.122 0.062 0.428 0.062 0.734 0zM23.609 13.37c0 0.125 0.367 1.186 0.795 1.497 0 1.060-0.306 2.246-0.795 2.246-0.551 0-0.796-1.185-0.98-2.308 0.184-0.187 0.429-0.624 0.429-1.372 0.064 0.026 0.138 0.041 0.216 0.041 0.125 0 0.241-0.039 0.336-0.106l-0.002 0.001zM26.362 14.743c0.061 0.686-0.061 2.307-0.367 2.245-0.306 0-0.612-2.308-0.612-2.308 0.123-0.187 0.245-0.623 0.184-1.31 0.032 0.029 0.075 0.047 0.122 0.047s0.090-0.018 0.123-0.047l-0 0c0.244 0.811 0.55 1.373 0.55 1.373zM20.366 13.37c0.244 0.562 0.673 1.248 1.040 1.435-0.061 0.749-0.49 2.245-1.163 2.245-0.918 0.063-1.162-1.060-1.346-2.245 0.367-0.25 0.612-0.748 0.673-1.372 0.245 0.062 0.55 0.062 0.796-0.063zM21.896 14.556c-0.429 0.062-0.796-0.5-1.224-1.497 0.244-0.25 0.428-0.749 0.306-1.622 0.183 0.062 0.306 0.062 0.428 0 0.367 0.686 0.734 1.372 1.162 1.684 0 0.187-0.060 1.435-0.673 1.435zM23.853 13.059c0.062-0.25 0.184-0.687-0.183-1.622h0.245c0 0.062 0.856 1.56 1.162 1.746 0.123 0.686 0.123 1.373-0.245 1.435-0.305 0-0.55-0.312-0.979-1.56zM25.933 12.871c0.062-0.436-0.55-1.372-0.489-1.31 0.98 0.624 1.347 2.87 1.163 2.932-0.061 0.063-0.734-1.060-0.673-1.622zM18.163 14.556c-0.918 0.062-1.163-0.811-1.346-1.497 0.306-0.188 0.612-0.749 0.673-1.622 0.183 0.062 0.49 0.062 0.673 0 0.183 0.561 0.49 1.31 0.979 1.684-0.061 0.748-0.367 1.372-0.98 1.435zM23.853 10.252c0.306 0 1.224 1.060 1.285 1.122 0.674 0.998 0.674 1.747 0.429 1.747-0.367 0-1.163-1.56-1.346-1.871 0.060-0.312-0.612-0.998-0.368-0.998zM10.269 10.439c-0.122 0.374-0.183 0.748 0 0.935-0.367 0.749-0.979 1.81-1.53 1.747-0.611-0.125-0.122-1.56-0.060-1.684 0.367-0.187 1.223-1.372 1.53-1.372 0.183 0.062 0.060 0.374 0.060 0.374zM13.145 10.377c0 0.374 0.062 0.81 0.367 0.997-0.244 0.749-0.734 1.747-1.53 1.685-0.55-0.063-0.672-0.998-0.55-1.685 0.55-0.187 1.040-1.372 1.407-1.372 0.306 0 0.306 0.312 0.306 0.375zM21.835 11.374c0.122-0.187 0.122-0.56 0-0.935 0-0.062-0.123-0.374 0.060-0.374 0.306 0 1.163 1.185 1.53 1.372 0.061 0.125 0.55 1.56-0.061 1.684-0.612 0.062-1.163-1.060-1.53-1.747zM18.591 11.374c0.245-0.187 0.306-0.623 0.367-0.997 0-0.063 0-0.375 0.306-0.375 0.306-0.062 0.918 1.185 1.408 1.372 0.183 0.811 0.060 1.622-0.551 1.685-0.857 0.124-1.285-0.998-1.53-1.685zM16.021 10.002c0.612 0 0.612 1.185 1.102 1.435 0 0.312-0.184 1.684-1.163 1.684-0.857 0-1.040-1.123-1.101-1.684 0.734-0.312 0.49-1.435 1.162-1.435z"></path>
</svg>
