<!-- Generated by IcoMoon.io -->
<svg version="1.1" xmlns="http://www.w3.org/2000/svg" width="32" height="32" viewBox="0 0 32 32">
<title>stak</title>
<path fill="#f2941b" d="M32 16c0 8.837-7.163 16-16 16s-16-7.163-16-16c0-8.837 7.163-16 16-16s16 7.163 16 16z"></path>
<path fill="#fff" d="M16.566 5h0.011c2.072 2.050 4.121 4.12 6.181 6.181h5.14l-11.57 16.393c-0.192-1.925-0.34-3.85-0.51-5.774 1.676-2.411 3.397-4.8 5.073-7.2l-3.827-3.815c-0.004-0.478-0.045-0.944-0.12-1.399l0.007 0.052c-0.125-1.472-0.204-2.966-0.385-4.438zM4.011 21.46c3.883-5.456 7.732-10.935 11.604-16.403l0.487 5.796c-1.687 2.411-3.385 4.789-5.072 7.189 1.257 1.256 2.513 2.535 3.793 3.792 0.17 1.924 0.317 3.872 0.51 5.808h-0.024l-6.147-6.159c-1.72 0.023-3.441-0.011-5.162 0.023v-0.046h0.011z"></path>
</svg>
