<!-- Generated by IcoMoon.io -->
<svg version="1.1" xmlns="http://www.w3.org/2000/svg" width="32" height="32" viewBox="0 0 32 32">
<title>start</title>
<path fill="#01aef0" d="M16 32c-8.837 0-16-7.163-16-16s7.163-16 16-16 16 7.163 16 16-7.163 16-16 16zM21.069 18.89c0.014-1.433-0.607-2.466-1.845-3.084-0.462-0.23-0.956-0.394-1.437-0.584-0.79-0.312-1.63-0.528-2.358-0.952-1.144-0.666-1.138-2.248-0.062-3.026 0.764-0.553 1.632-0.566 2.512-0.529 1.005 0.043 1.957 0.333 2.905 0.652 0.554 0.186 0.844 0.013 0.982-0.569 0.074-0.309 0.13-0.623 0.188-0.936 0.097-0.523 0.077-0.58-0.426-0.736-0.462-0.16-1.139-0.355-1.826-0.524l-0.198-0.041c-0.358-0.083-0.468-0.25-0.405-0.61 0.055-0.313 0.070-0.633 0.1-0.95 0.068-0.724-0.010-0.83-0.704-0.973-0.413-0.084-0.558 0.018-0.618 0.466-0.055 0.404-0.090 0.81-0.135 1.215-0.072 0.63-0.098 0.641-0.707 0.623-0.267-0.008-0.347-0.125-0.318-0.38 0.036-0.304 0.061-0.608 0.090-0.913 0.074-0.781-0.016-0.9-0.768-1.023-0.354-0.058-0.502 0.048-0.548 0.427-0.060 0.493-0.139 0.988-0.145 1.483-0.007 0.457-0.191 0.671-0.598 0.825-1.527 0.578-2.556 1.668-2.873 3.349-0.281 1.49-0.058 2.887 1.218 3.831 0.569 0.42 1.253 0.69 1.911 0.957 0.74 0.301 1.53 0.477 2.264 0.792 0.893 0.383 1.17 1.153 0.861 2.105-0.209 0.64-0.625 1.088-1.191 1.393-0.857 0.461-1.786 0.523-2.725 0.5-1.040-0.025-2.041-0.26-3.015-0.644-0.55-0.216-0.838-0.036-0.962 0.56-0.072 0.348-0.13 0.7-0.214 1.046-0.066 0.271 0.014 0.453 0.258 0.55 0.4 0.158 0.799 0.33 1.21 0.454 0.925 0.279 0.928 0.268 0.802 1.271-0.1 0.809-0.044 0.893 0.72 1.058 0.358 0.078 0.513-0.014 0.575-0.386 0.060-0.363 0.095-0.732 0.13-1.1 0.024-0.256 0.133-0.385 0.394-0.398 0.58-0.029 0.667 0.058 0.597 0.666l-0.024 0.19c-0.094 0.74-0.018 0.854 0.688 1.022 0.41 0.098 0.563-0.004 0.626-0.45 0.054-0.377 0.093-0.758 0.12-1.14 0.023-0.303 0.174-0.44 0.451-0.51 0.464-0.116 0.93-0.24 1.378-0.41 1.91-0.727 3.109-2.492 3.122-4.565z"></path>
</svg>
