<!-- Generated by IcoMoon.io -->
<svg version="1.1" xmlns="http://www.w3.org/2000/svg" width="32" height="32" viewBox="0 0 32 32">
<title>steem</title>
<path fill="#4ba2f2" d="M32 16c0 8.837-7.163 16-16 16s-16-7.163-16-16c0-8.837 7.163-16 16-16s16 7.163 16 16z"></path>
<path fill="#fff" d="M9.87 8.229c0.216 0.037-0.322 1.47-0.022 3.107 0.26 1.403 3.507 6.836 3.373 8.7-0.104 1.17-2.77 3.915-3.051 3.732-0.307-0.085 0.81-1.95 0.396-3.504-0.482-1.812-3.34-6.496-3.337-8.564 0-1.513 2.448-3.569 2.64-3.471zM15.979 6.089c0.274 0.047-0.41 1.876-0.028 3.959 0.33 1.792 4.473 8.72 4.301 11.095-0.134 1.494-3.532 4.991-3.892 4.76-0.39-0.107 1.034-2.486 0.506-4.468-0.613-2.308-4.258-8.282-4.255-10.919 0-1.931 3.122-4.55 3.368-4.426zM22.284 8.229c0.216 0.037-0.321 1.47-0.022 3.107 0.26 1.403 3.507 6.836 3.374 8.7-0.103 1.17-2.77 3.915-3.052 3.732-0.306-0.085 0.81-1.95 0.396-3.504-0.481-1.812-3.34-6.496-3.337-8.564 0-1.513 2.45-3.569 2.641-3.471z"></path>
</svg>
