<!-- Generated by IcoMoon.io -->
<svg version="1.1" xmlns="http://www.w3.org/2000/svg" width="32" height="32" viewBox="0 0 32 32">
<title>storj</title>
<path fill="#2683ff" d="M32 16c0 8.837-7.163 16-16 16s-16-7.163-16-16c0-8.837 7.163-16 16-16s16 7.163 16 16z"></path>
<path fill="#fff" d="M24.977 18.971c0.551 0.335 0.913 0.932 0.913 1.613 0 0.338-0.089 0.655-0.245 0.929l0.005-0.009c-0.514 0.902-1.682 1.222-2.601 0.718-0.090-0.049-0.168-0.107-0.248-0.165l-4.926 2.784c0.012 0.090 0.019 0.181 0.020 0.272 0 0.107 0 0.204-0.020 0.31-0.168 1.020-1.147 1.718-2.186 1.553-1.038-0.165-1.75-1.126-1.582-2.144l-4.957-2.804c-0.065 0.048-0.143 0.099-0.222 0.147l-0.015 0.008c-0.080 0.039-0.159 0.087-0.248 0.116-0.211 0.087-0.457 0.138-0.714 0.138-0.791 0-1.471-0.479-1.764-1.163l-0.005-0.012c-0.395-0.96 0.080-2.047 1.059-2.435v-5.608c-0.098-0.032-0.183-0.072-0.262-0.12l0.005 0.003c-0.090-0.056-0.161-0.104-0.23-0.153l0.012 0.008c-0.467-0.342-0.767-0.888-0.767-1.505 0-0.082 0.005-0.163 0.016-0.243l-0.001 0.009c0.094-0.685 0.546-1.246 1.157-1.494l0.013-0.005c0.215-0.089 0.465-0.141 0.727-0.141 0.446 0 0.856 0.15 1.184 0.402l-0.005-0.003 5.006-2.843c-0.010-0.087-0.020-0.164-0.020-0.252 0-1.028 0.88-1.882 1.929-1.882s1.908 0.834 1.909 1.872c0 0.088-0.010 0.165-0.020 0.253l5.045 2.862c0.316-0.234 0.714-0.374 1.144-0.374 0.712 0 1.334 0.385 1.671 0.957l0.005 0.009c0.513 0.902 0.177 2.047-0.743 2.552-0.089 0.038-0.178 0.087-0.267 0.116v5.618c0.079 0.030 0.155 0.065 0.227 0.106zM25.324 21.319c0.129-0.209 0.205-0.462 0.205-0.733 0-0.522-0.283-0.978-0.703-1.223l-0.007-0.004c-0.21-0.123-0.463-0.196-0.733-0.196-0.381 0-0.727 0.145-0.988 0.382l0.001-0.001-2.266-1.29c0.164-0.324 0.26-0.706 0.26-1.11 0-0.871-0.445-1.638-1.12-2.086l-0.009-0.006c-0.072-0.24-0.156-0.446-0.258-0.642l0.010 0.021 3.423-1.902c0.356 0.33 0.857 0.465 1.335 0.36 0.653-0.145 1.135-0.719 1.135-1.406 0-0.114-0.013-0.226-0.039-0.332l0.002 0.010c-0.178-0.776-0.97-1.251-1.76-1.077-0.654 0.144-1.135 0.719-1.135 1.406 0 0.114 0.013 0.225 0.038 0.331l-0.002-0.010-3.462 1.931c-0.672-0.786-2.809-1.31-2.809-1.31v-4.279c0.436-0.128 0.773-0.46 0.907-0.883l0.003-0.010c0.037-0.116 0.058-0.25 0.058-0.388 0-0.606-0.405-1.118-0.958-1.28l-0.009-0.002c-0.722-0.213-1.484 0.175-1.702 0.884-0.036 0.116-0.057 0.249-0.057 0.387 0 0.606 0.404 1.118 0.958 1.28l0.009 0.002v4.366s-1.166 0.378-1.621 0.746c-0.508 0.012-0.984 0.144-1.402 0.368l0.017-0.008-3.255-1.834c0.024-0.098 0.038-0.21 0.038-0.326 0-0.379-0.15-0.722-0.395-0.974l0 0c-0.268-0.282-0.645-0.457-1.063-0.457-0.384 0-0.734 0.148-0.995 0.39l0.001-0.001c-0.286 0.26-0.464 0.633-0.464 1.048 0 0.381 0.15 0.726 0.395 0.98l-0-0c0.268 0.282 0.645 0.457 1.063 0.457 0.384 0 0.734-0.148 0.996-0.39l-0.001 0.001 2.938 1.649c-0.559 0.544-0.906 1.304-0.906 2.144 0 0.66 0.214 1.27 0.575 1.764l-0.006-0.008-2.582 1.465c-0.264-0.241-0.616-0.389-1.004-0.389-0.121 0-0.239 0.014-0.352 0.042l0.010-0.002c-0.649 0.148-1.127 0.721-1.127 1.405 0 0.118 0.014 0.232 0.041 0.341l-0.002-0.010c0.189 0.774 0.981 1.251 1.77 1.066 0.649-0.149 1.126-0.721 1.126-1.405 0-0.117-0.014-0.231-0.040-0.34l0.002 0.010 2.76-1.562c0.71 0.563 1.637 0.787 2.532 0.611 0.276 0.126 0.56 0.233 0.85 0.32v4.076c-0.402 0.127-0.726 0.401-0.915 0.758l-0.004 0.008c-0.102 0.196-0.162 0.429-0.162 0.675 0 0.588 0.341 1.097 0.836 1.339l0.009 0.004c0.060 0.030 0.119 0.058 0.188 0.078 0.010 0 0.020 0.010 0.030 0.010 0.81 0.242 1.672-0.195 1.919-0.99 0.043-0.133 0.068-0.286 0.068-0.445 0-0.678-0.45-1.25-1.067-1.435l-0.011-0.003v-3.996s0.742-0.068 1.088-0.175c0.965 0.38 2.069 0.155 2.8-0.572l2.314 1.33c-0.024 0.098-0.038 0.211-0.038 0.328 0 0.527 0.288 0.987 0.714 1.231l0.007 0.004c0.211 0.122 0.464 0.194 0.733 0.194 0.533 0 1-0.281 1.261-0.703l0.004-0.006zM7.984 19.961c0.22 0.001 0.422 0.115 0.534 0.3 0.048 0.087 0.077 0.191 0.079 0.302v0c-0.004 0.333-0.275 0.601-0.608 0.601-0.002 0-0.004 0-0.005-0h0c-0.002 0-0.004 0-0.006 0-0.333 0-0.604-0.268-0.608-0.601v-0c0-0.333 0.275-0.602 0.614-0.602zM16.649 6.873c-0.006 0.333-0.277 0.601-0.611 0.601-0.001 0-0.002 0-0.003 0h0c-0.002 0-0.003 0-0.005 0-0.333 0-0.604-0.268-0.608-0.601v-0c0-0.333 0.275-0.602 0.613-0.602 0.34 0 0.614 0.27 0.614 0.602zM24.127 12.093c-0.334-0.001-0.606-0.268-0.613-0.601v-0.001c0-0.332 0.275-0.602 0.613-0.602 0.34 0 0.614 0.27 0.614 0.602-0.004 0.333-0.275 0.601-0.608 0.601-0.002 0-0.004 0-0.006-0h0zM8.27 10.937c0.185 0.101 0.309 0.295 0.309 0.518 0 0.11-0.030 0.212-0.082 0.3l0.002-0.003c-0.108 0.183-0.303 0.304-0.528 0.304-0.112 0-0.216-0.030-0.306-0.082l0.003 0.002c-0.186-0.101-0.31-0.294-0.31-0.517 0-0.11 0.030-0.213 0.083-0.301l-0.001 0.003c0.108-0.183 0.303-0.304 0.528-0.304 0.112 0 0.216 0.030 0.306 0.082l-0.003-0.002zM24.374 20.077c0.185 0.102 0.308 0.295 0.308 0.517 0 0.109-0.030 0.212-0.082 0.299l0.002-0.003c-0.113 0.18-0.31 0.298-0.535 0.301h-0c-0.003 0-0.007 0-0.010 0-0.223 0-0.418-0.118-0.526-0.295l-0.002-0.003c-0.053-0.087-0.084-0.191-0.084-0.303s0.031-0.217 0.085-0.306l-0.002 0.003c0.11-0.18 0.305-0.298 0.528-0.298 0.004 0 0.007 0 0.011 0h-0.001c0.113 0.004 0.219 0.036 0.31 0.089l-0.003-0.002zM15.422 25.092c0.001-0.008 0.005-0.015 0.010-0.020v0c0.051-0.289 0.3-0.505 0.599-0.505 0.033 0 0.065 0.003 0.096 0.008l-0.003-0c0.295 0.041 0.52 0.291 0.52 0.595 0 0.028-0.002 0.055-0.006 0.082l0-0.003c-0.062 0.295-0.32 0.514-0.629 0.514-0.001 0-0.003 0-0.004 0h0c-0.327-0.014-0.587-0.283-0.587-0.612 0-0.020 0.001-0.040 0.003-0.060l-0 0.003zM18.944 15.807c0.589 0.185 1.009 0.727 1.009 1.366 0 0.004-0 0.009-0 0.013v-0.001c0 0.049-0.010 0.098-0.010 0.146-0.010 0.039-0.010 0.078-0.020 0.116v0.030c-0.020 0.087-0.040 0.174-0.080 0.261-0.113 0.272-0.301 0.494-0.538 0.647l-0.006 0.003c-0.060 0.030-0.11 0.059-0.168 0.088l-0.030 0.010c-0.106 0.051-0.23 0.088-0.359 0.106l-0.007 0.001-0.050 0.009c-0.069 0-0.128 0.010-0.197 0.010-0.323 0-0.636-0.106-0.89-0.301l-0.268 0.116c-0.082 0.040-0.168 0.069-0.257 0.088h-0.010c-0.201 0.056-0.432 0.088-0.671 0.088-0.422 0-0.821-0.101-1.174-0.28l0.015 0.007h-0.010c-0.059-0.029-0.118-0.058-0.168-0.087l-0.020-0.010c-0.059-0.038-0.108-0.077-0.168-0.116-0.218 0.098-0.472 0.155-0.74 0.155-0.007 0-0.015-0-0.022-0h0.001c-0.080 0-0.149 0-0.218-0.010l-0.040-0.010-0.178-0.028-0.020-0.010c-0.073-0.014-0.136-0.031-0.196-0.052l0.009 0.003c-0.174-0.058-0.324-0.13-0.464-0.218l0.009 0.005c-0.297-0.186-0.528-0.45-0.669-0.765l-0.004-0.011c0-0.020-0.010-0.030-0.020-0.049-0.014-0.040-0.027-0.072-0.043-0.103l0.003 0.006c-0.011-0.019-0.021-0.041-0.029-0.065l-0.001-0.003c-0.010-0.029-0.029-0.058-0.029-0.087-0.002-0.032-0.009-0.061-0.021-0.089l0.001 0.002c-0.010-0.030-0.010-0.040-0.020-0.078-0.010-0.039-0.010-0.077-0.019-0.116 0-0.030-0.010-0.049-0.010-0.068-0.007-0.046-0.010-0.1-0.010-0.154 0-0.011 0-0.021 0-0.032l-0 0.002c-0-0.009-0-0.019-0-0.029 0-0.068 0.004-0.136 0.011-0.202l-0.001 0.008c0-0.029 0.010-0.048 0.010-0.068 0.010-0.058 0.020-0.106 0.030-0.155 0.010-0.020 0.010-0.048 0.020-0.068 0.014-0.060 0.030-0.112 0.051-0.161l-0.002 0.006c0.010-0.020 0.010-0.029 0.020-0.048 0.025-0.069 0.052-0.126 0.082-0.181l-0.003 0.006 0.010-0.020c0.327-0.591 0.934-0.993 1.636-1.028l0.005-0c0.030-0.010 0.060-0.010 0.1-0.010 0.119 0 0.238 0.010 0.356 0.030 0.050-0.060 0.099-0.108 0.158-0.166l0.050-0.048c0.059-0.049 0.108-0.097 0.168-0.136l0.030-0.020c0.039-0.029 0.108-0.077 0.138-0.097s0.079-0.058 0.109-0.068c0.038-0.013 0.071-0.029 0.101-0.049l-0.002 0.001c0.059-0.030 0.158-0.078 0.217-0.097l0.050-0.039c0.267-0.107 0.577-0.169 0.901-0.169 0.122 0 0.241 0.009 0.358 0.026l-0.013-0.002h0.010c0.080 0.008 0.159 0.020 0.237 0.038h0.010c0.080 0.010 0.149 0.040 0.228 0.059l0.010 0.010c0.079 0.028 0.148 0.057 0.217 0.087l0.020 0.010c0.068 0.028 0.134 0.060 0.198 0.096l0.010 0.010c0.059 0.030 0.128 0.078 0.188 0.116l0.010 0.010c0.069 0.039 0.128 0.087 0.187 0.136l0.010 0.010c0.325 0.274 0.579 0.623 0.736 1.021l0.006 0.017v0.010c0.020 0.058 0.040 0.126 0.060 0.184 0 0.020 0.010 0.039 0.010 0.058 0.016 0.050 0.030 0.103 0.039 0.155l0.030 0.223z"></path>
</svg>
