<!-- Generated by IcoMoon.io -->
<svg version="1.1" xmlns="http://www.w3.org/2000/svg" width="32" height="32" viewBox="0 0 32 32">
<title>strat</title>
<path fill="#1387c9" d="M32 16c0 8.837-7.163 16-16 16s-16-7.163-16-16c0-8.837 7.163-16 16-16s16 7.163 16 16z"></path>
<path fill="#fff" d="M16.053 18.373l9.594-5.584-9.594-5.684-9.498 5.684 9.498 5.584zM6.047 15.453c0 0 0 0.001 0 0.001 0 0.278 0.149 0.521 0.372 0.654l0.003 0.002 9.627 5.608 9.785-5.788c0.106-0.062 0.234-0.099 0.37-0.099 0.408 0 0.739 0.331 0.739 0.739 0 0 0 0 0 0v0 2.626c-0 0.269-0.143 0.505-0.358 0.635l-0.003 0.002-10.157 6.063c-0.107 0.065-0.237 0.104-0.376 0.104-0.137 0-0.264-0.037-0.374-0.103l0.003 0.002-10.42-6.126c-0.157-0.094-0.26-0.263-0.26-0.456 0-0.098 0.026-0.189 0.072-0.267l-0.001 0.003c0.092-0.158 0.26-0.262 0.452-0.262 0.097 0 0.188 0.027 0.266 0.073l-0.002-0.001 10.263 6.033 9.847-5.878v-1.9l-9.473 5.603c-0.107 0.064-0.236 0.102-0.374 0.102-0.136 0-0.263-0.037-0.372-0.101l0.003 0.002-9.783-5.7c-0.542-0.321-0.899-0.902-0.899-1.567 0-0.001 0-0.002 0-0.003v0-2.473c0-0.001 0-0.001 0-0.002 0-0.348 0.282-0.631 0.631-0.631 0.116 0 0.225 0.031 0.319 0.086l-0.003-0.002 0.608 0.357-0.764 0.457c-0.077 0.047-0.17 0.075-0.269 0.075-0.259 0-0.474-0.189-0.514-0.436l-0-0.003c-0.005-0.026-0.007-0.057-0.007-0.088 0-0.192 0.102-0.36 0.255-0.453l0.002-0.001 10.419-6.236c0.107-0.066 0.238-0.104 0.377-0.104 0.138 0 0.267 0.038 0.377 0.104l-0.003-0.002 10.211 6.050c0.219 0.132 0.363 0.369 0.363 0.639 0 0.272-0.146 0.51-0.365 0.64l-0.003 0.002-10.212 5.944c-0.106 0.063-0.233 0.1-0.369 0.1s-0.265-0.038-0.374-0.103l0.003 0.002-10.26-6.033c0.060 0.036 0.133 0.057 0.21 0.057 0.187 0 0.345-0.123 0.397-0.293l0.001-0.003c0.012-0.037 0.019-0.080 0.020-0.124v-0 2.474z"></path>
</svg>
