<!-- Generated by IcoMoon.io -->
<svg version="1.1" xmlns="http://www.w3.org/2000/svg" width="32" height="32" viewBox="0 0 32 32">
<title>sub</title>
<path fill="#e53431" d="M32 16c0 8.837-7.163 16-16 16s-16-7.163-16-16c0-8.837 7.163-16 16-16s16 7.163 16 16z"></path>
<path fill="#fff" d="M12.117 5.314c0.040-0.031 0.091-0.050 0.147-0.050 0.001 0 0.002 0 0.004 0h-0c0.057 0 0.109 0.019 0.151 0.050l1.256 0.942c0.061 0.046 0.1 0.119 0.1 0.2 0 0.138-0.112 0.25-0.25 0.25-0.057 0-0.109-0.019-0.151-0.051l0.001 0-1.106-0.827-3.597 2.697 15.8 11.854c0.061 0.046 0.101 0.119 0.101 0.201s-0.039 0.155-0.1 0.201l-1.162 0.87c-0.041 0.031-0.093 0.050-0.15 0.050-0.139 0-0.251-0.112-0.251-0.251 0-0.082 0.039-0.155 0.1-0.201l0.001-0 0.893-0.67-15.801-11.852c-0.062-0.046-0.101-0.118-0.101-0.2s0.040-0.154 0.101-0.2l0.001-0 4.016-3.014zM16.134 5.314c0.041-0.032 0.094-0.052 0.151-0.052 0.056 0 0.108 0.019 0.149 0.050l-0.001-0 8.035 6.027c0.061 0.045 0.1 0.117 0.1 0.198 0 0.029-0.005 0.057-0.014 0.083l0.001-0.002c-0.033 0.101-0.127 0.172-0.237 0.172-0 0-0 0-0 0h-4.017c-0.057-0-0.109-0.019-0.151-0.050l0.001 0-5.273-3.954c-0.061-0.046-0.101-0.119-0.101-0.201 0-0.139 0.112-0.251 0.251-0.251 0.057 0 0.109 0.019 0.151 0.051l5.206 3.904h3.179l-7.28-5.46-5.040 3.78c-0.041 0.031-0.094 0.050-0.15 0.050-0.139 0-0.251-0.112-0.251-0.251 0-0.082 0.039-0.155 0.1-0.201l5.191-3.892zM9.21 10.509c0.037-0.023 0.082-0.036 0.13-0.036 0.139 0 0.252 0.113 0.252 0.252 0 0.074-0.032 0.14-0.082 0.186l-0 0-0.841 0.63 15.801 11.854c0.062 0.046 0.101 0.119 0.101 0.201s-0.040 0.155-0.101 0.201l-0.001 0-4.017 3.013c-0.041 0.031-0.094 0.049-0.15 0.049s-0.109-0.018-0.151-0.050l0.001 0-1.163-0.872c-0.061-0.046-0.1-0.119-0.1-0.201 0-0.139 0.113-0.252 0.252-0.252 0.057 0 0.11 0.019 0.152 0.051l-0.001-0 1.010 0.757 3.6-2.7-15.805-11.851c-0.061-0.047-0.099-0.119-0.099-0.201s0.039-0.154 0.099-0.201l0.001-0 1.11-0.83zM8.251 20.328v0.002h4.015c0.001 0 0.002-0 0.003-0 0.055 0 0.107 0.019 0.147 0.050l-0.001-0 5.216 3.911c0.061 0.046 0.101 0.119 0.101 0.201 0 0.139-0.112 0.251-0.251 0.251-0.057 0-0.109-0.019-0.151-0.050l0.001 0-5.146-3.861h-3.181l7.281 5.46 5.030-3.772c0.042-0.031 0.094-0.050 0.151-0.050 0.139 0 0.251 0.113 0.251 0.251 0 0.082-0.039 0.155-0.1 0.201l-5.182 3.884c-0.041 0.031-0.093 0.050-0.15 0.050v0c-0.001 0-0.002 0-0.002 0-0.056 0-0.108-0.019-0.149-0.050l0.001 0-8.037-6.025c-0.137-0.002-0.248-0.113-0.248-0.251 0-0.139 0.112-0.251 0.251-0.251 0.056 0 0.108 0.018 0.15 0.049l-0.001-0z"></path>
</svg>
