<!-- Generated by IcoMoon.io -->
<svg version="1.1" xmlns="http://www.w3.org/2000/svg" width="32" height="32" viewBox="0 0 32 32">
<title>sumo</title>
<path fill="#2d9cdb" d="M32 16c0 8.837-7.163 16-16 16s-16-7.163-16-16c0-8.837 7.163-16 16-16s16 7.163 16 16z"></path>
<path fill="#fff" d="M18.061 9.084c3.404 3.566 4.268 4.196 5.095 4.423-2.875-0.36-4.497-0.564-7.206-1.986l-1.71 1.99 10.76 2.389c-3.366 2.862-4.824 4.387-6.939 7.014h-4.071c-1.789-2.618-2.982-3.468-5.28-4.527 3.058 0.282 4.758 0.47 7.24 1.94l1.861-2.090-10.811-2.337c2.514-2.072 3.977-3.454 6.989-6.816h4.072zM14.24 8.587c0.93-1.145 1.31-1.702 1.81-2.587 0.49 0.912 0.869 1.475 1.76 2.587h-3.57zM17.81 23.413c-0.931 1.145-1.312 1.702-1.81 2.587-0.49-0.912-0.87-1.475-1.76-2.587h3.57z"></path>
</svg>
