<!-- Generated by IcoMoon.io -->
<svg version="1.1" xmlns="http://www.w3.org/2000/svg" width="32" height="32" viewBox="0 0 32 32">
<title>sys</title>
<path fill="#0082c6" d="M32 16c0 8.837-7.163 16-16 16s-16-7.163-16-16c0-8.837 7.163-16 16-16s16 7.163 16 16z"></path>
<path fill="#fff" d="M18.046 15.103c-0.007-0.001-0.015-0.002-0.023-0.002-0.037 0-0.069 0.017-0.091 0.043l-0 0c-0.015 0.018-0.023 0.042-0.023 0.067 0 0.037 0.018 0.069 0.046 0.089l0 0c4.379 3.178-1.854 10.454-13.955 2.711 10.26 9.655 24.547-1.010 14.046-2.908zM12.202 10.855c-9.086 2.907 1.323 9.763 2.226 6.3 0.003-0.009 0.004-0.019 0.004-0.029 0-0.053-0.037-0.097-0.086-0.107l-0.001-0c-0.009-0.002-0.019-0.004-0.030-0.004-0.012 0-0.024 0.002-0.035 0.005l0.001-0c-1.337 0.435-8.701-1.624-2.080-6.164zM28 12.602c-7.867-5.61-22.628-0.984-15.013 2.977 0.016 0.008 0.034 0.013 0.054 0.013 0.044 0 0.082-0.024 0.103-0.059l0-0.001c0.008-0.015 0.013-0.033 0.013-0.052 0-0.017-0.004-0.033-0.010-0.047l0 0.001c-3.097-6.544 12.634-4.554 14.853-2.832zM21.472 20.753c4.159-1.89 0.777-8.361-4.724-7.112-0.008 0.002-0.016 0.003-0.025 0.003-0.054 0-0.099-0.037-0.112-0.087l-0-0.001c-0.002-0.007-0.003-0.016-0.003-0.024 0-0.035 0.017-0.066 0.043-0.085l0-0c4.28-3.216 12.314 4.292 4.822 7.307z"></path>
</svg>
