<!-- Generated by IcoMoon.io -->
<svg version="1.1" xmlns="http://www.w3.org/2000/svg" width="32" height="32" viewBox="0 0 32 32">
<title>taas</title>
<path fill="#002342" d="M32 16c0 8.837-7.163 16-16 16s-16-7.163-16-16c0-8.837 7.163-16 16-16s16 7.163 16 16z"></path>
<path fill="#fff" d="M4 13h1.298v1.221h-1.298v-1.221zM5.298 17.774h3.777v1.226h-5.075v-3.558h3.81v1.22h-2.511v1.112zM22.925 15.442h5.075v3.558h-3.81v-1.226h2.512v-1.111h-3.777v-1.221zM26.723 14.28h-3.8v-1.221h3.8v1.22zM10.312 15.442h5.075v2.384h-1.264v1.174h-3.811v-3.558zM14.089 17.774v-1.111h-2.479v1.11h2.48zM10.312 13h5.075v1.221h-5.075v-1.221zM16.646 15.442h5.075v2.384h-1.264v1.174h-3.81v-3.558zM20.418 17.774v-1.111h-2.48v1.11h2.48zM16.646 13h5.075v1.221h-5.075v-1.221z"></path>
</svg>
