<!-- Generated by IcoMoon.io -->
<svg version="1.1" xmlns="http://www.w3.org/2000/svg" width="32" height="32" viewBox="0 0 32 32">
<title>tau</title>
<path fill="#7b346e" d="M32 16c0 8.837-7.163 16-16 16s-16-7.163-16-16c0-8.837 7.163-16 16-16s16 7.163 16 16z"></path>
<path fill="#fff" d="M8.094 13.678l2.11 2.11h-4.204zM10.204 16.228l-2.11 2.094-2.094-2.094zM13.056 13.375l-2.11 2.094v-4.203zM10.506 15.469l-2.093-2.094 2.094-2.11zM13.36 13.056l-2.094-2.094h4.203zM13.36 8.413l2.109 2.109h-4.203zM18.322 8.109l-2.11 2.094v-4.203zM15.772 10.203l-2.094-2.093 2.094-2.11zM13.056 18.64l-2.11 2.094v-4.203zM8.413 18.64l2.094-2.109v4.203zM18.625 13.056l-2.094-2.094h4.203zM16.531 10.522l2.094-2.11 2.11 2.11zM15.47 21.493l-2.11 2.094-2.093-2.094zM13.36 18.943l2.11 2.11h-4.203zM23.588 13.375l-2.109 2.094v-4.203zM18.945 13.375l2.094-2.11v4.204zM13.679 23.905l2.094-2.108v4.203zM16.213 21.797l2.11 2.109-2.111 2.094zM18.626 23.587l-2.094-2.094h4.203zM18.626 18.944l2.11 2.11h-4.206zM21.479 16.531l2.11 2.11-2.11 2.093zM18.945 18.641l2.094-2.11v4.203zM23.892 18.321l-2.094-2.093h4.202zM23.892 13.678l2.108 2.11h-4.203z"></path>
</svg>
