<!-- Generated by IcoMoon.io -->
<svg version="1.1" xmlns="http://www.w3.org/2000/svg" width="32" height="32" viewBox="0 0 32 32">
<title>tbx</title>
<path fill="#5244d4" d="M32 16c0 8.837-7.163 16-16 16s-16-7.163-16-16c0-8.837 7.163-16 16-16s16 7.163 16 16z"></path>
<path fill="#fff" d="M15.7 27.4c-6.462 0-11.7-5.238-11.7-11.7s5.238-11.7 11.7-11.7c6.462 0 11.7 5.238 11.7 11.7s-5.238 11.7-11.7 11.7zM18.59 19.7l-2.89-4-2.89 4-2.35-4 2.62-4.48h5.24l2.62 4.48-2.35 4zM19.45 9.3h-7.5l-3.74 6.4 3.75 6.4h7.49l3.74-6.4-3.74-6.4z"></path>
</svg>
