<!-- Generated by IcoMoon.io -->
<svg version="1.1" xmlns="http://www.w3.org/2000/svg" width="32" height="32" viewBox="0 0 32 32">
<title>tel</title>
<path fill="#14c8ff" d="M32 16c0 8.837-7.163 16-16 16s-16-7.163-16-16c0-8.837 7.163-16 16-16s16 7.163 16 16z"></path>
<path fill="#fff" d="M25.080 11.478c0.633 0.513 1.032 1.574 0.892 2.353l-1.36 7.524c-0.142 0.784-0.892 1.647-1.664 1.918l-7.419 2.605c-0.772 0.271-1.92 0.075-2.552-0.438l-6.058-4.917c-0.633-0.513-1.033-1.569-0.89-2.353l1.36-7.524c0.141-0.784 0.891-1.646 1.664-1.918l7.42-2.606c0.773-0.272 1.92-0.074 2.553 0.438zM18.769 14.856l0.302-1.53-2.832 0.005 0.4-2.016h-0.915c-0.661 1.003-1.601 1.774-2.709 2.211l-0.039 0.014-0.257 1.319h1.238s-0.419 1.894-0.56 2.593c-0.35 1.78 0.53 3.042 1.882 3.042h2.288l0.4-1.69h-1.914c-0.85 0-0.805-0.465-0.64-1.29l0.527-2.662z"></path>
</svg>
