<!-- Generated by IcoMoon.io -->
<svg version="1.1" xmlns="http://www.w3.org/2000/svg" width="32" height="32" viewBox="0 0 32 32">
<title>ten</title>
<path fill="#0899cd" d="M32 16c0 8.837-7.163 16-16 16s-16-7.163-16-16c0-8.837 7.163-16 16-16s16 7.163 16 16z"></path>
<path fill="#fff" d="M26.97 16.867c-0.187 2.669-1.252 4.971-3.195 6.908-0.49 0.491-1.003 0.926-1.54 1.305-0.026-0.038-0.051-0.072-0.078-0.103l0.001 0.001 4.69-8.125c0.040 0.007 0.080 0.012 0.122 0.014zM21.733 25.415c-1.69 1.057-3.602 1.585-5.733 1.585-2.037 0-3.874-0.483-5.511-1.448 0.246 0.145 0.496 0.278 0.751 0.4 0.023-0.037 0.045-0.080 0.062-0.125l0.002-0.005h9.392c0.019 0.050 0.040 0.093 0.065 0.133l-0.002-0.003c0.333-0.16 0.657-0.34 0.974-0.537zM9.765 25.085c-0.576-0.41-1.082-0.84-1.55-1.31l-0-0c-1.937-1.937-2.998-4.24-3.185-6.908 0.044-0.002 0.086-0.007 0.126-0.015l-0.005 0.001 4.691 8.125c-0.027 0.032-0.053 0.067-0.075 0.104l-0.002 0.003zM5 15.83c0.040-2.967 1.11-5.506 3.214-7.616 2.151-2.142 4.746-3.214 7.786-3.214s5.632 1.072 7.775 3.215c2.14 2.14 3.215 4.722 3.225 7.744-0-0.285-0.011-0.566-0.032-0.845l0.002 0.038c-0.044 0.002-0.086 0.007-0.126 0.016l0.005-0.001-4.686-8.14c0.027-0.032 0.053-0.067 0.076-0.104l0.002-0.004c-0.425-0.305-0.909-0.595-1.416-0.845l-0.061-0.027c-0.025 0.040-0.048 0.087-0.066 0.136l-0.002 0.006h-9.392c-0.020-0.055-0.043-0.102-0.070-0.146l0.002 0.004c-0.511 0.246-1.003 0.535-1.476 0.868 0.023 0.040 0.050 0.080 0.082 0.116l-4.691 8.136c-0.036-0.008-0.077-0.013-0.12-0.015l-0.002-0c-0.015 0.224-0.025 0.45-0.028 0.679zM26.346 15.458c-0.065 0.073-0.118 0.159-0.154 0.252l-0.002 0.006h-3.877c-0.047-0.122-0.117-0.225-0.205-0.311l-0-0c-0.086-0.088-0.19-0.158-0.306-0.203l-0.006-0.002v-7.628l4.55 7.887zM26.19 16.301c0.038 0.099 0.091 0.185 0.157 0.259l-0.001-0.001-4.55 7.878v-7.62c0.122-0.047 0.226-0.116 0.312-0.204l0-0c0.088-0.086 0.158-0.19 0.203-0.306l0.002-0.006h3.877zM5.81 15.717c-0.038-0.099-0.091-0.185-0.157-0.259l0.001 0.001 4.55-7.887v7.629c-0.122 0.047-0.226 0.117-0.312 0.205l-0 0c-0.088 0.086-0.157 0.189-0.203 0.305l-0.002 0.006h-3.877zM11.295 6.793c0.004-0.006 0.007-0.012 0.010-0.019l0-0.001h9.392c0.039 0.099 0.092 0.185 0.157 0.259l-0.001-0.001-2.87 4.96c-0.048-0.010-0.103-0.016-0.159-0.016-0.153 0-0.297 0.042-0.419 0.115l0.004-0.002-6.113-5.295zM11.305 15.717c-0.047-0.122-0.117-0.225-0.205-0.311l-0-0c-0.086-0.088-0.19-0.158-0.306-0.203l-0.006-0.002v-7.629l4.555 7.877c-0.063 0.076-0.114 0.165-0.148 0.262l-0.002 0.006h-3.888zM18.637 13.14c0.034-0.089 0.053-0.192 0.053-0.299 0-0.003 0-0.005-0-0.008v0c0-0.003 0-0.006 0-0.010 0-0.207-0.076-0.396-0.201-0.541l0.001 0.001 2.724-4.71v7.627c-0.049 0.018-0.091 0.038-0.131 0.061l0.004-0.002-2.45-2.12zM17.034 12.527c-0.037 0.089-0.059 0.192-0.059 0.301 0 0.002 0 0.004 0 0.005v-0c0 0.21 0.068 0.394 0.205 0.551l-1.028 1.773c-0.045-0.009-0.098-0.015-0.151-0.015s-0.106 0.005-0.156 0.016l0.005-0.001-4.234-7.317 5.417 4.687zM16.814 15.717c-0.038-0.103-0.090-0.191-0.156-0.268l0.001 0.001 1.023-1.774c0.048 0.010 0.103 0.016 0.159 0.016 0.153 0 0.297-0.042 0.419-0.115l-0.004 0.002 2.45 2.119c-0.003 0.008-0.006 0.014-0.010 0.021l0-0.001h-3.883zM20.902 16.614c0.086 0.088 0.19 0.158 0.306 0.203l0.006 0.002v7.618l-4.555-7.891c0.060-0.069 0.109-0.15 0.144-0.238l0.002-0.006h3.892c0.047 0.122 0.117 0.226 0.205 0.312l0 0zM15.86 16.848c0.039 0.006 0.084 0.009 0.129 0.009 0.057 0 0.114-0.005 0.168-0.014l-0.006 0.001 4.233 7.331-5.412-4.681c0.034-0.090 0.054-0.193 0.054-0.301 0-0.002 0-0.004-0-0.006v0c0-0.003 0-0.006 0-0.010 0-0.207-0.076-0.396-0.201-0.541l0.001 0.001 1.033-1.788zM20.707 25.217c-0.003 0.008-0.007 0.014-0.010 0.021l0-0.001h-9.392c-0.037-0.1-0.088-0.186-0.152-0.26l0.001 0.001 2.864-4.95c0.048 0.010 0.103 0.016 0.159 0.016 0.153 0 0.297-0.042 0.419-0.115l-0.004 0.002 6.114 5.286zM14.32 18.343c-0.048-0.010-0.103-0.016-0.16-0.016-0.153 0-0.296 0.042-0.419 0.115l0.004-0.002-2.45-2.118c0.004-0.006 0.007-0.012 0.010-0.019l0-0.001h3.892c0.034 0.090 0.084 0.175 0.151 0.253l-1.028 1.788zM13.37 18.879c-0.037 0.088-0.058 0.191-0.058 0.298 0 0.003 0 0.006 0 0.009v-0c0 0.21 0.068 0.393 0.205 0.55l-2.729 4.706v-7.624c0.049-0.018 0.091-0.037 0.131-0.060l-0.004 0.002 2.455 2.12zM9.892 16.614c0.086 0.088 0.19 0.158 0.306 0.203l0.006 0.002v7.618l-4.55-7.877c0.065-0.073 0.118-0.159 0.154-0.252l0.002-0.006h3.877c0.047 0.122 0.117 0.226 0.205 0.312l0 0z"></path>
</svg>
