<!-- Generated by IcoMoon.io -->
<svg version="1.1" xmlns="http://www.w3.org/2000/svg" width="32" height="32" viewBox="0 0 32 32">
<title>ten</title>
<path fill="#0899cd" d="M26.998 16.205l0.002-0.205c0-3.040-1.075-5.635-3.225-7.785-2.143-2.143-4.735-3.215-7.775-3.215s-5.635 1.072-7.785 3.215c-2.143 2.15-3.215 4.745-3.215 7.785 0.019-0.253 0.029-0.548 0.030-0.847v-0.001c0.044 0.002 0.086 0.007 0.126 0.016l-0.005-0.001 4.691-8.136c-0.030-0.034-0.057-0.072-0.080-0.113l-0.002-0.003c0.473-0.333 0.965-0.622 1.476-0.868 0.027 0.045 0.050 0.092 0.068 0.142h9.392c0.020-0.055 0.043-0.102 0.070-0.146l-0.002 0.004c0.568 0.278 1.052 0.568 1.509 0.894l-0.032-0.022c-0.025 0.041-0.051 0.076-0.079 0.109l0.001-0.001 4.686 8.14c0.036-0.008 0.077-0.013 0.12-0.015l0.002-0c0.018 0.251 0.029 0.543 0.029 0.838 0 0.076-0.001 0.151-0.002 0.227l0-0.011zM26.97 16.867c-0.044-0.002-0.086-0.007-0.126-0.015l0.005 0.001-4.691 8.125c0.028 0.033 0.054 0.067 0.078 0.102 0.572-0.409 1.075-0.837 1.539-1.304l0.001-0.001c1.942-1.937 3.007-4.24 3.194-6.908zM22.113 25.166c-0.436 0.299-0.887 0.561-1.354 0.787-0.023-0.037-0.044-0.081-0.061-0.126l-0.002-0.006h-9.392c-0.019 0.051-0.041 0.094-0.066 0.135l0.002-0.003c-0.312-0.15-0.558-0.283-0.798-0.426l0.047 0.026c1.637 0.963 3.474 1.447 5.511 1.447 2.293 0 4.33-0.611 6.113-1.834zM9.765 25.085c0.024-0.040 0.050-0.075 0.078-0.108l-0.001 0.001-4.691-8.125c-0.035 0.007-0.077 0.012-0.119 0.014l-0.002 0c0.187 2.669 1.248 4.971 3.185 6.908 0.493 0.493 1.010 0.93 1.55 1.31zM16 32c-8.837 0-16-7.163-16-16s7.163-16 16-16 16 7.163 16 16-7.163 16-16 16zM26.347 15.46l-4.55-7.888v7.629c0.114 0.043 0.218 0.11 0.312 0.205 0.088 0.086 0.157 0.189 0.203 0.305l0.002 0.006h3.877c0.038-0.099 0.091-0.185 0.157-0.259l-0.001 0.001zM26.191 16.302h-3.877c-0.047 0.122-0.117 0.226-0.205 0.312l-0 0c-0.086 0.088-0.19 0.158-0.306 0.203l-0.006 0.002v7.619l4.55-7.878c-0.065-0.073-0.118-0.159-0.154-0.252l-0.002-0.006zM5.81 15.717h3.877c0.048-0.122 0.117-0.225 0.205-0.311l0-0c0.086-0.088 0.19-0.158 0.306-0.203l0.006-0.002v-7.629l-4.55 7.887c0.070 0.080 0.121 0.166 0.156 0.258zM11.295 6.793l6.114 5.295c0.119-0.071 0.262-0.113 0.416-0.113 0.056 0 0.111 0.006 0.165 0.016l-0.005-0.001 2.87-4.96c-0.065-0.073-0.118-0.159-0.155-0.252l-0.002-0.006h-9.392c-0.003 0.008-0.006 0.014-0.010 0.020l0-0zM11.305 15.717h3.887c0.036-0.103 0.087-0.192 0.152-0.269l-0.001 0.001-4.555-7.877v7.629c0.114 0.043 0.218 0.11 0.312 0.205 0.088 0.086 0.158 0.189 0.203 0.305l0.002 0.006zM18.637 13.14l2.45 2.12c0.036-0.021 0.078-0.041 0.121-0.057l0.006-0.002v-7.629l-2.724 4.711c0.124 0.144 0.2 0.334 0.2 0.54 0 0.003-0 0.007-0 0.010v-0.001c0 0.002 0 0.004 0 0.006 0 0.108-0.019 0.211-0.055 0.307l0.002-0.006zM17.034 12.527l-5.418-4.687 4.233 7.317c0.045-0.009 0.098-0.015 0.151-0.015s0.106 0.005 0.156 0.016l-0.005-0.001 1.028-1.773c-0.127-0.143-0.205-0.332-0.205-0.54 0-0.004 0-0.007 0-0.011v0.001c0-0.11 0.020-0.213 0.059-0.307zM16.814 15.717h3.883c0.003-0.005 0.007-0.012 0.010-0.018l0-0.001-2.45-2.12c-0.119 0.071-0.263 0.113-0.417 0.113-0.056 0-0.11-0.006-0.163-0.016l0.005 0.001-1.023 1.774c0.065 0.076 0.117 0.164 0.153 0.261l0.002 0.006zM20.902 16.614c-0.088-0.086-0.158-0.19-0.203-0.306l-0.002-0.006h-3.892c-0.037 0.094-0.086 0.175-0.147 0.245l0.001-0.001 4.555 7.891v-7.617c-0.122-0.047-0.226-0.117-0.312-0.205l-0-0zM15.86 16.848l-1.033 1.788c0.133 0.158 0.2 0.341 0.2 0.55 0 0.11-0.018 0.211-0.054 0.307l5.412 4.681-4.233-7.331c-0.049 0.009-0.105 0.014-0.163 0.014-0.046 0-0.091-0.003-0.135-0.009l0.005 0.001zM20.707 25.217l-6.114-5.286c-0.119 0.071-0.263 0.113-0.417 0.113-0.056 0-0.111-0.006-0.163-0.016l0.005 0.001-2.864 4.95c0.063 0.073 0.114 0.158 0.148 0.251l0.002 0.006h9.393c0.003-0.005 0.007-0.012 0.010-0.018l0-0.001zM14.32 18.343l1.028-1.788c-0.062-0.072-0.113-0.156-0.148-0.247l-0.002-0.006h-3.893c-0.003 0.008-0.006 0.014-0.010 0.020l0-0 2.45 2.119c0.119-0.071 0.263-0.113 0.417-0.113 0.056 0 0.111 0.006 0.164 0.016l-0.005-0.001zM13.37 18.879l-2.455-2.119c-0.036 0.021-0.078 0.040-0.121 0.056l-0.006 0.002v7.624l2.729-4.706c-0.127-0.143-0.205-0.332-0.205-0.54 0-0.004 0-0.007 0-0.011v0.001c0-0.11 0.020-0.212 0.058-0.307zM9.892 16.614c-0.088-0.086-0.158-0.19-0.203-0.306l-0.002-0.006h-3.877c-0.038 0.099-0.091 0.185-0.157 0.259l0.001-0.001 4.55 7.877v-7.617c-0.122-0.047-0.226-0.117-0.312-0.205l-0-0z"></path>
</svg>
