<!-- Generated by IcoMoon.io -->
<svg version="1.1" xmlns="http://www.w3.org/2000/svg" width="32" height="32" viewBox="0 0 32 32">
<title>tix</title>
<path fill="#ef494d" d="M32 16c0 8.837-7.163 16-16 16s-16-7.163-16-16c0-8.837 7.163-16 16-16s16 7.163 16 16z"></path>
<path fill="#fff" d="M6 11.386c0-0.213 0.173-0.386 0.387-0.386h5.024c2.318 0 3.768 1.196 3.768 2.885 0 0.705-0.322 1.346-0.966 1.923 0.901 0.513 1.352 1.282 1.352 2.307 0 2.405-2.319 2.885-3.865 2.885h-5.314c-0.213 0-0.386-0.173-0.386-0.386v0-1.15c0-0.214 0.173-0.387 0.386-0.387h5.314c1.095 0 1.643-0.353 1.643-1.058s-0.548-1.090-1.643-1.154h-5.314c0 0 0 0 0 0-0.213 0-0.385-0.172-0.386-0.385v-1.15c0-0.214 0.173-0.387 0.386-0.387h5.314c0.773-0.128 1.16-0.448 1.16-0.961 0-0.705-0.387-1.058-1.16-1.058h-5.314c0 0 0 0 0 0-0.213 0-0.386-0.173-0.386-0.386 0-0 0-0.001 0-0.001v0-1.15zM16.435 11.386c0-0.213 0.173-0.386 0.386-0.386h5.121c0.213 0 0.387 0.173 0.387 0.386v9.228c0 0 0 0 0 0 0 0.213-0.173 0.386-0.386 0.386-0 0-0.001 0-0.001 0h-1.45c-0.213 0-0.386-0.173-0.386-0.386v0-7.304c0-0 0-0.001 0-0.001 0-0.213-0.173-0.386-0.386-0.386 0 0 0 0 0 0h-2.9c-0.213 0-0.386-0.173-0.386-0.386v0zM23.68 11h1.933c0.213 0 0.386 0.173 0.386 0.386v1.15c0 0 0 0.001 0 0.001 0 0.213-0.173 0.386-0.386 0.386 0 0 0 0 0 0h-1.933c-0.213 0-0.386-0.173-0.386-0.386v0-1.15c0-0.214 0.173-0.387 0.386-0.387z"></path>
</svg>
