<!-- Generated by IcoMoon.io -->
<svg version="1.1" xmlns="http://www.w3.org/2000/svg" width="32" height="32" viewBox="0 0 32 32">
<title>tkn</title>
<path fill="#24dd7b" d="M32 16c0 8.837-7.163 16-16 16s-16-7.163-16-16c0-8.837 7.163-16 16-16s16 7.163 16 16z"></path>
<path fill="#fff" d="M13.092 7.913l4.403-1.913-0.036 5.053h5.541v3.5h-5.578v6.063c0 1.84 3.12 2.057 4.294 1.444l1.064 3.176c-2.606 1.515-9.725 1.154-9.725-4.584v-12.74h0.037zM8.982 15.491c-1.095 0-1.982-1.066-1.982-2.381 0-1.316 0.887-2.382 1.982-2.382 1.094 0 1.981 1.066 1.981 2.382s-0.887 2.381-1.981 2.381z"></path>
</svg>
