<!-- Generated by IcoMoon.io -->
<svg version="1.1" xmlns="http://www.w3.org/2000/svg" width="32" height="32" viewBox="0 0 32 32">
<title>tnb</title>
<path fill="#ffc04e" d="M32 16c0 8.837-7.163 16-16 16s-16-7.163-16-16c0-8.837 7.163-16 16-16s16 7.163 16 16z"></path>
<path fill="#fff" d="M15.598 11.857h0.003l-0.030 0.13-0.26 1.227h-0.030l-1.713 7.286h-2.179l1.747-7.286h-2.932l-1.646 7.286h-2.396l2.178-9h7.333zM19.739 11.5h3.63c3.123 0.143 2.832 2.214 2.832 2.214h0.799l-0.29 0.857h-0.727c-0.217 0.786-1.67 1.215-1.67 1.215 1.67 0.214 1.598 1.5 1.598 1.5h0.799l-0.218 0.857h-0.654c-0.167 1.19-1.222 1.768-2.089 2.043-0.477 0.154-1.025 0.243-1.594 0.243-0.009 0-0.018-0-0.027-0h-4.568zM7.323 13.214h-2.323l0.436-1.714h2.323zM17.271 19.5l-1.888-4.429 0.799-3.428 1.887 4.214zM22.825 15.071c0.26 0 0.51-0.1 0.693-0.282s0.287-0.426 0.287-0.682c0-0.256-0.103-0.501-0.287-0.682s-0.433-0.282-0.693-0.282h-1.415l-0.435 1.928zM22.336 18.786c0.651 0 1.179-0.496 1.179-1.107s-0.525-1.108-1.179-1.108h-1.702l-0.524 2.215z"></path>
</svg>
