<!-- Generated by IcoMoon.io -->
<svg version="1.1" xmlns="http://www.w3.org/2000/svg" width="32" height="32" viewBox="0 0 32 32">
<title>trig</title>
<path fill="#30c0f2" d="M32 16c0 8.837-7.163 16-16 16s-16-7.163-16-16c0-8.837 7.163-16 16-16s16 7.163 16 16z"></path>
<path fill="#fff" d="M10.123 7h11.774s0.312 1.554 1.98 1.658c0 0 5.522 12.85-7.919 18.342 0 0-12.399-3.938-8.023-18.238 0 0 1.876-0.104 2.188-1.762zM21.273 8.023h-10.52l-0.014 0.224c-0.088 0.489-0.333 0.83-0.692 1.060-0.209 0.134-0.456 0.229-0.722 0.27l-0.010 0.001-0.184 0.018-0.052 0.178c-0.969 3.31-1.002 6.17-0.239 8.61 0.626 2 1.759 3.64 3.252 4.95 0.755 0.664 1.607 1.248 2.525 1.72l0.070 0.033c0.31 0.157 0.6 0.286 0.859 0.39 0.157 0.063 0.272 0.104 0.335 0.125l0.098 0.030 0.095-0.040c3.706-1.584 5.948-3.978 6.952-6.96 0.83-2.46 0.756-5.079 0.137-7.559-0.145-0.577-0.292-1.046-0.462-1.504l0.032 0.098c-0.023-0.066-0.038-0.102-0.052-0.137l0.010 0.028-0.064-0.158-0.171-0.011c-0.486-0.032-0.795-0.23-0.986-0.548-0.097-0.161-0.163-0.351-0.184-0.554l-0-0.006zM11.228 8.568c6.367 0.001 9.55 0.002 9.55 0.003 0.044 0.187 0.115 0.373 0.22 0.55 0.256 0.425 0.667 0.712 1.243 0.794 0.123 0.326 0.257 0.756 0.369 1.195l0.021 0.095c0.596 2.388 0.666 4.906-0.125 7.254-0.945 2.807-3.046 5.067-6.551 6.59-0.415-0.157-0.751-0.308-1.076-0.476l0.057 0.027c-0.945-0.483-1.76-1.040-2.494-1.686l0.013 0.012c-1.421-1.248-2.497-2.804-3.091-4.703-0.718-2.295-0.699-4.993 0.194-8.134 0.297-0.069 0.559-0.181 0.796-0.33l-0.011 0.006c0.43-0.272 0.746-0.69 0.882-1.183l0.003-0.014zM18.588 14.15h-0.303c0.030-0.608-0.105-1.932-1.75-2.3-0.182-0.046-0.392-0.072-0.607-0.072-0.299 0-0.587 0.050-0.855 0.143l0.018-0.006c-0.642 0.228-1.408 0.801-1.437 2.234h-0.223c0 0 0 0 0 0-0.473 0-0.857 0.382-0.86 0.855v3.575c0.003 0.473 0.387 0.855 0.86 0.855 0 0 0 0 0 0h5.158c0 0 0 0 0 0 0.473 0 0.857-0.382 0.86-0.855v-3.575c-0.003-0.473-0.387-0.855-0.86-0.855 0 0 0 0-0 0v0zM16.583 18.192h-1.146l0.303-1.507c-0.241-0.106-0.407-0.343-0.407-0.618 0-0.372 0.301-0.673 0.673-0.673 0.001 0 0.003 0 0.004 0h-0c0.079-0.035 0.17-0.055 0.266-0.055 0.372 0 0.673 0.301 0.673 0.673 0 0.37-0.299 0.671-0.669 0.673h-0zM14.395 14.15c0.028-0.468 0.226-1.576 1.459-1.658 0 0 1.626-0.089 1.597 1.658z"></path>
</svg>
