<!-- Generated by IcoMoon.io -->
<svg version="1.1" xmlns="http://www.w3.org/2000/svg" width="32" height="32" viewBox="0 0 32 32">
<title>trig</title>
<path fill="#30c0f2" d="M16 32c-8.837 0-16-7.163-16-16s7.163-16 16-16 16 7.163 16 16-7.163 16-16 16zM10.123 7c-0.312 1.658-2.188 1.762-2.188 1.762-4.375 14.3 8.023 18.238 8.023 18.238 13.44-5.492 7.918-18.342 7.918-18.342-1.666-0.104-1.98-1.658-1.98-1.658zM21.273 8.023l0.012 0.259c0.022 0.209 0.088 0.399 0.188 0.565l-0.003-0.006c0.19 0.318 0.5 0.516 0.986 0.548l0.17 0.011 0.065 0.158c0.031 0.070 0.082 0.206 0.13 0.343l0.020 0.067c0.11 0.325 0.22 0.696 0.322 1.105 0.619 2.48 0.692 5.099-0.137 7.56-1.004 2.98-3.246 5.375-6.952 6.96l-0.095 0.040-0.098-0.031c-0.151-0.050-0.262-0.093-0.371-0.139l0.036 0.014c-0.361-0.145-0.644-0.276-0.92-0.419l0.061 0.029c-0.988-0.505-1.841-1.088-2.609-1.764l0.014 0.012c-1.493-1.311-2.626-2.95-3.252-4.95-0.763-2.44-0.73-5.302 0.239-8.611l0.052-0.178 0.184-0.018c0.086-0.012 0.16-0.028 0.232-0.049l-0.012 0.003c0.195-0.054 0.365-0.131 0.52-0.231l-0.008 0.005c0.36-0.23 0.604-0.57 0.692-1.059l0.014-0.224zM11.228 8.568c-0.139 0.507-0.455 0.925-0.877 1.192l-0.008 0.005c-0.225 0.145-0.488 0.257-0.769 0.321l-0.016 0.003c-0.893 3.14-0.912 5.84-0.194 8.134 0.594 1.899 1.67 3.455 3.090 4.703 0.79 0.693 1.636 1.247 2.482 1.675 0.268 0.141 0.604 0.292 0.949 0.424l0.070 0.024c3.505-1.523 5.606-3.783 6.551-6.59 0.791-2.348 0.72-4.866 0.125-7.254-0.133-0.534-0.267-0.964-0.42-1.385l0.030 0.095c-0.576-0.082-0.987-0.37-1.242-0.794-0.096-0.158-0.172-0.342-0.217-0.537l-0.003-0.013-9.551-0.003zM18.588 14.15c0 0 0 0 0 0 0.473 0 0.857 0.382 0.86 0.855v3.575c-0.003 0.473-0.387 0.855-0.86 0.855 0 0 0 0-0 0h-5.157c0 0 0 0 0 0-0.473 0-0.857-0.382-0.86-0.855v-3.575c0.003-0.473 0.387-0.855 0.86-0.855 0 0 0 0 0 0h0.223c0.029-1.433 0.795-2.006 1.437-2.234 0.466-0.157 0.966-0.18 1.444-0.066 1.645 0.368 1.78 1.692 1.75 2.3zM16.583 18.192l-0.303-1.507c0.241-0.106 0.407-0.343 0.407-0.618 0-0.372-0.301-0.673-0.673-0.673-0.001 0-0.003 0-0.004 0h0c-0.079-0.035-0.17-0.055-0.266-0.055-0.372 0-0.673 0.301-0.673 0.673 0 0.37 0.299 0.671 0.669 0.673h0l-0.303 1.507zM14.395 14.15h3.056c0.030-1.747-1.597-1.658-1.597-1.658-1.233 0.082-1.43 1.19-1.459 1.658z"></path>
</svg>
