<!-- Generated by IcoMoon.io -->
<svg version="1.1" xmlns="http://www.w3.org/2000/svg" width="32" height="32" viewBox="0 0 32 32">
<title>tzc</title>
<path fill="#374851" d="M32 16c0 8.837-7.163 16-16 16s-16-7.163-16-16c0-8.837 7.163-16 16-16s16 7.163 16 16z"></path>
<path fill="#fff" d="M17.7 15.4v7.598c0.204-0.050 0.404-0.107 0.6-0.173v2.91c-0.69 0.169-1.482 0.267-2.297 0.267-0.602 0-1.191-0.053-1.763-0.155l0.061 0.009v-10.456h-3.5v-2.8h10.4v2.8zM19.1 25.51v-3.010c2.445-1.186 4.1-3.649 4.1-6.498 0-3.976-3.224-7.2-7.2-7.2s-7.2 3.224-7.2 7.2c0 2.85 1.655 5.313 4.057 6.48l0.043 0.019v3.010c-4.005-1.305-6.9-5.070-6.9-9.51 0-5.523 4.477-10 10-10s10 4.477 10 10c0 4.44-2.895 8.205-6.9 9.51z"></path>
</svg>
