<!-- Generated by IcoMoon.io -->
<svg version="1.1" xmlns="http://www.w3.org/2000/svg" width="32" height="32" viewBox="0 0 32 32">
<title>unity</title>
<path fill="#f58634" d="M32 16c0 8.837-7.163 16-16 16s-16-7.163-16-16c0-8.837 7.163-16 16-16s16 7.163 16 16z"></path>
<path fill="#fff" d="M13.288 22.732h0.004c1.189-0.144 2.189-0.504 3-1.080 1.074-0.77 1.611-1.748 1.611-2.934 0-1-0.393-1.837-1.178-2.522-0.787-0.683-1.853-1.098-3.198-1.242-0.457-0.059-1.105-0.102-1.937-0.15-1.814-0.11-2.991-0.358-3.537-0.747-0.194-0.14-0.354-0.314-0.476-0.514l-0.004-0.008c-0.098-0.173-0.156-0.38-0.156-0.601 0-0.003 0-0.006 0-0.009v0c0-0.561 0.324-1.035 0.977-1.408 0.652-0.372 1.476-0.562 2.478-0.562 0.949 0 1.89 0.162 2.78 0.48 3.826 1.364 7.48 6.132 9.913 9.546-1.983 1.205-4.684 1.948-7.66 1.948-0.876 0-1.751-0.065-2.617-0.197zM9.009 20.79c-3.493-1.275-5.022-4.426-3.297-7.486 0.048 0.43 0.207 0.843 0.463 1.2 0.32 0.449 0.79 0.814 1.407 1.101 2.155 0.936 6.118 0.338 7.75 1.527 0.549 0.4 0.824 0.911 0.824 1.534 0 0.783-0.383 1.424-1.149 1.922-0.765 0.498-1.761 0.747-2.987 0.747-1.082-0.006-2.116-0.206-3.071-0.565l0.061 0.020z"></path>
<path fill="#fff" opacity="0.5" d="M25.912 18.875v-5.854c0.657 0.889 1.024 1.882 1.024 2.927s-0.367 2.037-1.024 2.927zM24.263 11.415l0.005 7.461c-2.343-3.326-5.844-7.511-10.147-8.909-0.667-0.226-1.445-0.395-2.249-0.474l-0.044-0.003c1.212-0.311 2.603-0.49 4.037-0.49 0.014 0 0.028 0 0.043 0h-0.002c3.34 0 6.335 0.936 8.358 2.415z"></path>
</svg>
