<!-- Generated by IcoMoon.io -->
<svg version="1.1" xmlns="http://www.w3.org/2000/svg" width="32" height="32" viewBox="0 0 32 32">
<title>usd</title>
<path fill="#6cde07" d="M32 16c0 8.837-7.163 16-16 16s-16-7.163-16-16c0-8.837 7.163-16 16-16s16 7.163 16 16z"></path>
<path fill="#fff" d="M22.5 19.154c0 2.57-2.086 4.276-5.166 4.533v2.313h-2.11v-2.336c-2.185-0.253-4.138-1.084-5.75-2.334l0.026 0.020 1.552-2.126c1.383 1.075 2.692 1.776 4.269 2.010v-4.58c-3.541-0.888-5.19-2.173-5.19-4.813 0-2.523 2.061-4.252 5.093-4.486v-1.355h2.11v1.402c1.732 0.197 3.286 0.834 4.586 1.794l-0.026-0.018-1.359 2.196c-1.067-0.771-2.158-1.262-3.298-1.495v4.439c3.687 0.888 5.263 2.313 5.263 4.836zM15.32 13.827v-4.112c-1.527 0.117-2.327 0.935-2.327 1.963 0 0.98 0.46 1.612 2.328 2.15zM19.638 19.317c0-1.050-0.51-1.681-2.401-2.219v4.23c1.528-0.118 2.401-0.889 2.401-2.010z"></path>
</svg>
