<!-- Generated by IcoMoon.io -->
<svg version="1.1" xmlns="http://www.w3.org/2000/svg" width="32" height="32" viewBox="0 0 32 32">
<title>usdc</title>
<path fill="#2775c9" d="M32 16c0 8.837-7.163 16-16 16s-16-7.163-16-16c0-8.837 7.163-16 16-16s16 7.163 16 16z"></path>
<path fill="#fff" d="M15.75 27.5c-6.49 0-11.75-5.26-11.75-11.75s5.26-11.75 11.75-11.75 11.75 5.26 11.75 11.75c0 6.489-5.261 11.75-11.75 11.75v0zM15.050 11.39c-1.332 0.068-2.393 1.136-2.45 2.465l-0 0.005c0 1.21 0.74 2 2.31 2.33l1.1 0.26c1.070 0.25 1.51 0.61 1.51 1.22s-0.77 1.21-1.77 1.21c-0.052 0.005-0.112 0.008-0.174 0.008-0.686 0-1.288-0.364-1.622-0.91l-0.005-0.008c-0.111-0.231-0.342-0.388-0.61-0.39h-0.59c-0.164 0.031-0.286 0.173-0.286 0.344 0 0.023 0.002 0.046 0.007 0.068l-0-0.002c0.299 1.19 1.35 2.060 2.608 2.080l0.002 0v0.84c0 0.389 0.316 0.705 0.705 0.705s0.705-0.316 0.705-0.705v0-0.85c1.42-0.017 2.568-1.161 2.59-2.578l0-0.002c0-1.27-0.73-2-2.46-2.37l-1-0.22c-1-0.25-1.47-0.58-1.47-1.14s0.6-1.18 1.6-1.18c0.051-0.006 0.11-0.009 0.17-0.009 0.603 0 1.131 0.326 1.415 0.811l0.004 0.008c0.13 0.273 0.403 0.458 0.72 0.46h0.47c0.185-0.046 0.32-0.211 0.32-0.408 0-0.033-0.004-0.064-0.011-0.095l0.001 0.003c-0.282-1.1-1.225-1.914-2.371-1.999l-0.009-0.001v-0.69c0-0.389-0.316-0.705-0.705-0.705s-0.705 0.316-0.705 0.705v0 0.74zM6.94 15.75c0.002 3.854 2.485 7.128 5.938 8.312l0.062 0.018h0.14c0.249 0 0.45-0.201 0.45-0.45v0-0.21c0-0 0-0.001 0-0.002 0-0.389-0.237-0.723-0.574-0.866l-0.006-0.002c-2.723-1.12-4.605-3.753-4.605-6.825s1.882-5.705 4.556-6.807l0.049-0.018c0.343-0.142 0.579-0.473 0.58-0.86v-0.23c0-0.001 0-0.003 0-0.004 0-0.232-0.188-0.42-0.42-0.42-0.050 0-0.098 0.009-0.143 0.025l0.003-0.001c-3.531 1.193-6.028 4.475-6.030 8.34v0zM24.56 15.75c-0.007-3.85-2.488-7.119-5.938-8.302l-0.062-0.018h-0.15c-0.26 0-0.47 0.21-0.47 0.47v0 0.15c0.009 0.403 0.255 0.747 0.604 0.898l0.006 0.002c2.716 1.123 4.593 3.753 4.593 6.82s-1.876 5.697-4.544 6.802l-0.049 0.018c-0.348 0.155-0.589 0.493-0.6 0.889l-0 0.001v0.17c0.003 0.257 0.212 0.465 0.47 0.465 0.054 0 0.105-0.009 0.153-0.026l-0.003 0.001c3.511-1.206 5.99-4.479 5.99-8.332 0-0.003 0-0.006 0-0.008v0z"></path>
</svg>
