<!-- Generated by IcoMoon.io -->
<svg version="1.1" xmlns="http://www.w3.org/2000/svg" width="32" height="32" viewBox="0 0 32 32">
<title>utk</title>
<path fill="#30367a" d="M32 16c0 8.837-7.163 16-16 16s-16-7.163-16-16c0-8.837 7.163-16 16-16s16 7.163 16 16z"></path>
<path fill="#fff" d="M14.353 22.298v-13.27h-3.853v-3.028h11v3.028h-3.853v13.27zM13.466 26c-1.989 0-2.93-0.956-2.93-2.978v-13.126h2.894v12.992c0 0.32 0.105 0.426 0.419 0.426h4.339c0.314 0 0.42-0.107 0.42-0.426v-12.992h2.892v13.126c0 2.022-0.942 2.978-2.93 2.978z"></path>
</svg>
