<!-- Generated by IcoMoon.io -->
<svg version="1.1" xmlns="http://www.w3.org/2000/svg" width="32" height="32" viewBox="0 0 32 32">
<title>veri</title>
<path fill="#f93" d="M32 16c0 8.837-7.163 16-16 16s-16-7.163-16-16c0-8.837 7.163-16 16-16s16 7.163 16 16z"></path>
<path fill="#fff" d="M6 8c1.104 0.002 2.209 0.002 3.312 0l2.091 11.18c0.033 0.165 0.073 0.328 0.116 0.49 0.164-0.65 0.267-1.314 0.404-1.97l1.904-9.7 3.204 0.001c-1.175 5.232-2.35 10.465-3.527 15.697h-3.977c-1.177-5.229-2.352-10.458-3.527-15.688v-0.010zM18.314 12.932c0.697-0.876 1.811-1.273 2.885-1.343 1.060-0.074 2.202 0.022 3.1 0.654 0.795 0.556 1.231 1.496 1.438 2.431 0.251 1.172 0.264 2.376 0.263 3.57h-5.87c0.005 0.883-0.050 1.794 0.245 2.64 0.143 0.416 0.41 0.83 0.834 0.981 0.452 0.147 0.996 0.051 1.326-0.313 0.44-0.498 0.532-1.196 0.628-1.835h2.664c-0.060 1.060-0.256 2.18-0.95 3.013-0.696 0.866-1.818 1.22-2.88 1.263-1.154 0.044-2.407-0.113-3.327-0.89-0.855-0.713-1.228-1.843-1.376-2.926-0.148-1.247-0.156-2.509-0.087-3.762 0.093-1.222 0.314-2.516 1.106-3.484zM20.588 14.177c-0.454 0.654-0.466 1.496-0.458 2.267h3.032c-0.047-0.733-0.042-1.507-0.372-2.178-0.41-0.828-1.706-0.831-2.2-0.088h-0.002z"></path>
</svg>
