<!-- Generated by IcoMoon.io -->
<svg version="1.1" xmlns="http://www.w3.org/2000/svg" width="32" height="32" viewBox="0 0 32 32">
<title>vet</title>
<path fill="#15bdff" d="M32 16c0 8.837-7.163 16-16 16s-16-7.163-16-16c0-8.837 7.163-16 16-16s16 7.163 16 16z"></path>
<path fill="#fff" d="M14.738 24.734l-7.698-15.688c-0.024-0.049-0.038-0.106-0.038-0.166 0-0.209 0.169-0.379 0.378-0.38h2.668c0.143 0 0.277 0.080 0.34 0.206l5.622 11.381c0.5 1.020 1.951 1.020 2.452 0l5.604-11.372c0.065-0.123 0.192-0.206 0.339-0.206 0 0 0.001 0 0.001 0h0.332c0.197 0 0.322 0.206 0.233 0.376l-7.78 15.85c-0.501 1.020-1.951 1.020-2.453 0z"></path>
</svg>
