<!-- Generated by IcoMoon.io -->
<svg version="1.1" xmlns="http://www.w3.org/2000/svg" width="32" height="32" viewBox="0 0 32 32">
<title>vibe</title>
<path fill="#338be5" d="M32 16c0 8.837-7.163 16-16 16s-16-7.163-16-16c0-8.837 7.163-16 16-16s16 7.163 16 16z"></path>
<path fill="#fff" d="M22.63 16.918c0.73 0.196 1.45 0.423 2.098 0.822 0.288 0.177 0.557 0.385 0.8 0.619 0.36 0.4 0.336 0.822 0.008 1.245-0.288 0.368-0.68 0.603-1.097 0.799-1.056 0.509-2.176 0.799-3.32 0.971-0.929 0.14-1.873 0.22-2.81 0.337-0.091 0.020-0.167 0.074-0.215 0.148l-0.001 0.001c-0.656 0.978-1.304 1.957-1.96 2.936-0.049 0.060-0.097 0.126-0.14 0.196l-0.004 0.008c-0.069-0.047-0.748-1.068-1.419-2.094l-0.638-1.039c-0.057-0.097-0.161-0.162-0.28-0.164h-0c-1.873-0.133-3.721-0.376-5.49-1.010-0.56-0.196-1.096-0.439-1.56-0.807-0.025-0.024-0.057-0.040-0.080-0.063-0.68-0.571-0.697-1.182-0.040-1.77 0.52-0.47 1.16-0.736 1.824-0.94s1.336-0.352 2.009-0.524c0.032-0.008 0.064-0.008 0.12-0.024-1.449-2.216-2.881-4.409-4.346-6.633 0.088-0.008 0.152-0.016 0.208-0.016 0.905-0.008 1.809 0 2.713-0.008 0.006-0 0.013-0.001 0.020-0.001 0.127 0 0.237 0.073 0.292 0.179l0.001 0.002c2.19 3.34 4.378 6.681 6.563 10.025 0.034 0.059 0.071 0.111 0.113 0.158l-0.001-0.001c0.504-0.76 0.992-1.488 1.472-2.217 1.76-2.66 3.521-5.317 5.282-7.972 0.064-0.094 0.112-0.165 0.256-0.165 0.952 0.008 1.905 0.008 2.857 0.008 0.045 0 0.090 0.002 0.136 0.008-8.882 13.937-10.353 16.127-11.828 18.315l7.362-11.595c0.377 0.093 0.737 0.172 1.097 0.266zM8.898 18.798c0.186 0.207 0.405 0.385 0.648 0.524 1 0.533 2.105 0.728 3.25 0.9-0.016-0.054-0.016-0.078-0.024-0.093-0.649-0.98-1.289-1.966-1.937-2.945-0.042-0.041-0.099-0.066-0.162-0.066-0.013 0-0.027 0.001-0.040 0.003l0.001-0c-0.38 0.125-0.752 0.274-1.113 0.447-0.24 0.134-0.444 0.301-0.614 0.498l-0.002 0.003c-0.095 0.094-0.154 0.224-0.154 0.368 0 0.14 0.056 0.267 0.146 0.36l-0-0zM21.502 19.643c0.454-0.125 0.845-0.353 1.161-0.659l-0.001 0.001c0.321-0.32 0.321-0.681 0-1.010-0.078-0.085-0.167-0.157-0.266-0.217l-0.005-0.003c-0.344-0.172-0.704-0.336-1.057-0.508-0.12-0.063-0.192-0.016-0.264 0.094-0.376 0.58-0.76 1.15-1.144 1.723-0.24 0.36-0.48 0.728-0.728 1.104 0.029 0.004 0.062 0.006 0.096 0.006s0.067-0.002 0.1-0.006l-0.004 0c0.704-0.172 1.416-0.329 2.112-0.525zM21.51 9l-5.481 8.732-5.554-8.732z"></path>
</svg>
