<!-- Generated by IcoMoon.io -->
<svg version="1.1" xmlns="http://www.w3.org/2000/svg" width="32" height="32" viewBox="0 0 32 32">
<title>vivo</title>
<path fill="#408af1" d="M32 16c0 8.837-7.163 16-16 16s-16-7.163-16-16c0-8.837 7.163-16 16-16s16 7.163 16 16z"></path>
<path fill="#fff" d="M23.049 10.277c0.279-0.467 0.782-0.776 1.357-0.776 0.309 0 0.597 0.089 0.84 0.243l-0.006-0.004c0.75 0.47 0.986 1.47 0.526 2.237-1.704 2.838-3.627 5.808-5.23 8.076-2.34 3.31-2.847 4.447-4.535 4.447s-2.068-1.003-4.475-4.456c-1.43-2.050-3.223-4.795-5.27-8.036-0.16-0.249-0.255-0.554-0.255-0.88 0-0.568 0.287-1.068 0.724-1.364l0.006-0.004c0.244-0.162 0.543-0.259 0.865-0.259 0.562 0 1.055 0.295 1.333 0.738l0.004 0.007c2.023 3.202 6.593 9.876 7.081 10.471 0.51-0.604 5.372-7.667 7.036-10.44z"></path>
</svg>
