<!-- Generated by IcoMoon.io -->
<svg version="1.1" xmlns="http://www.w3.org/2000/svg" width="32" height="32" viewBox="0 0 32 32">
<title>vrc</title>
<path fill="#418bca" d="M32 16c0 8.837-7.163 16-16 16s-16-7.163-16-16c0-8.837 7.163-16 16-16s16 7.163 16 16z"></path>
<path fill="#fff" d="M20.265 8h4.735l-9 18-9-18h4.704l4.327 9.113zM16 12.959c-0.788 0-1.427-0.656-1.427-1.465s0.639-1.466 1.427-1.466 1.427 0.657 1.427 1.466-0.64 1.465-1.427 1.465zM22.465 16.999c0.788 0 1.427 0.657 1.426 1.466 0 0.81-0.638 1.465-1.426 1.465s-1.427-0.656-1.427-1.465 0.639-1.465 1.427-1.465z"></path>
</svg>
