<!-- Generated by IcoMoon.io -->
<svg version="1.1" xmlns="http://www.w3.org/2000/svg" width="32" height="32" viewBox="0 0 32 32">
<title>vtc</title>
<path fill="#048657" d="M32 16c0 8.837-7.163 16-16 16s-16-7.163-16-16c0-8.837 7.163-16 16-16s16 7.163 16 16z"></path>
<path fill="#fff" d="M2.632 16.57l1.95-2.221h6.938l4.263 5.438 11.155-15.453c0.68 0.616 1.291 1.283 1.834 2.004l0.026 0.036c0.539 0.71 1.037 1.511 1.457 2.359l0.039 0.087-13.695 18.943c-0.259 0.272-0.531 0.408-0.816 0.408s-0.573-0.136-0.862-0.408l-8.661-11.194h-3.628z"></path>
</svg>
