<!-- Generated by IcoMoon.io -->
<svg version="1.1" xmlns="http://www.w3.org/2000/svg" width="32" height="32" viewBox="0 0 32 32">
<title>wabi</title>
<path fill="#399b32" d="M32 16c0 8.837-7.163 16-16 16s-16-7.163-16-16c0-8.837 7.163-16 16-16s16 7.163 16 16z"></path>
<path fill="#fff" d="M21.89 7.468c-0.108 0.434-0.089 0.99 0.031 1.040 0.12 0.051 0.422-0.236 0.599-0.562 0.17-0.3 0.321-0.389 0.53-0.312 0.277 0.108 0.233 0.204-0.335 0.695-0.472 0.409-0.567 0.556-0.44 0.683 0.075 0.077 0.131 0.064 0.402-0.083 0.34-0.178 0.53-0.166 0.53 0.039 0 0.095-0.126 0.172-0.586 0.35-0.328 0.128-0.65 0.294-0.725 0.377-0.151 0.166-0.416 0.69-0.731 1.462-0.271 0.67-0.53 1.162-0.7 1.353-0.139 0.153-0.605 0.25-1.588 0.326-0.46 0.038-0.517 0.032-0.542-0.077-0.060-0.233-0.119-0.538-0.164-0.848l-0.006-0.052c0-0.019 0.233-0.013 0.523 0.007 0.517 0.038 1.033 0.178 1.273 0.344 0.183 0.128 0.202 0.109 0.284-0.249 0.1-0.408 0.315-0.944 0.642-1.608 0.246-0.492 0.253-0.53 0.227-0.996-0.031-0.517-0.12-0.74-0.428-1.079-0.114-0.12-0.183-0.255-0.164-0.306 0.014-0.034 0.027-0.074 0.037-0.116l0.001-0.005c0-0.013 0.056-0.026 0.12-0.026 0.075 0 0.207 0.115 0.327 0.287 0.334 0.473 0.435 0.383 0.435-0.402 0-0.357 0.025-0.51 0.107-0.6 0.126-0.14 0.227-0.146 0.334-0.019 0.063 0.077 0.063 0.16 0.007 0.377zM16.879 10.142c0.044 0.473 0.132 0.638 0.416 0.74 0.113 0.045 0.27 0.11 0.346 0.135 0.183 0.076 0.234 0.35 0.429 2.138 0.208 1.94 0.252 2.215 0.448 2.815 0.296 0.912 0.27 1.972-0.076 3.038-0.177 0.549-0.372 0.798-0.775 1.015-0.807 0.427-1.64 0.115-2.288-0.856-0.482-0.7-0.66-1.57-0.492-2.406 0.095-0.447 0.145-1.123 0.1-1.29-0.018-0.082-0.22-0.337-0.447-0.58-0.706-0.734-1.45-2.049-1.304-2.285 0.044-0.064 0.075-0.262 0.075-0.434 0-0.351-0.1-0.492-0.542-0.74-0.29-0.166-0.309-0.332-0.069-0.792 0.132-0.268 0.208-0.325 0.87-0.664 0.674-0.344 0.977-0.44 1.979-0.619 0.416-0.077 0.718-0.070 0.945 0.026 0.265 0.115 0.34 0.261 0.385 0.76zM10.916 12.523c0 0.325 0.107 0.645 0.183 0.562 0.032-0.032 0.1-0.211 0.164-0.396 0.1-0.32 0.284-0.51 0.41-0.428 0.107 0.070 0.069 0.44-0.070 0.67-0.189 0.313-0.189 0.907 0.007 1.303 0.195 0.383 0.598 0.804 0.775 0.804 0.107-0.007 0.233-0.16 0.58-0.753l0.44-0.747 0.070 0.447c0.070 0.504 0.038 0.657-0.246 1.149-0.315 0.555-0.668 0.989-0.8 0.989-0.151 0-0.492-0.338-0.782-0.772-0.113-0.18-0.428-0.524-0.693-0.773l-0.485-0.453-0.296 0.051c-0.162 0.032-0.351 0.053-0.544 0.058l-0.005 0c-0.227 0.006-0.252-0.007-0.27-0.166-0.020-0.14 0.012-0.185 0.144-0.217 0.072-0.013 0.155-0.021 0.239-0.021 0.069 0 0.137 0.005 0.203 0.015l-0.008-0.001c0.176 0.026 0.309 0.013 0.378-0.038 0.107-0.077 0.101-0.090-0.006-0.217-0.063-0.077-0.252-0.179-0.429-0.236-0.44-0.14-0.725-0.332-0.725-0.479 0-0.191 0.24-0.236 0.435-0.077 0.65 0.537 0.832 0.613 1.003 0.44 0.12-0.12 0.088-0.35-0.114-0.752-0.176-0.358-0.24-0.69-0.145-0.785 0.063-0.070 0.227-0.051 0.34 0.038 0.133 0.108 0.246 0.46 0.246 0.785zM22.444 18.273c-0.157 0.167-0.611 0.697-1.008 1.175-1.173 1.417-1.292 1.57-1.242 1.622 0.050 0.050 1.046-0.39 1.273-0.562 0.284-0.224 0.8-0.772 0.895-0.958 0.044-0.076 0.107-0.312 0.152-0.517 0.075-0.383 0.283-0.676 0.472-0.676 0.126 0 0.183 0.147 0.133 0.338-0.096 0.239-0.202 0.443-0.324 0.636l0.009-0.015c-0.158 0.261-0.265 0.497-0.253 0.523 0.063 0.095 0.297 0.050 0.568-0.109 0.157-0.090 0.384-0.325 0.554-0.568 0.334-0.472 0.561-0.676 0.763-0.676 0.17 0 0.372 0.217 0.328 0.344-0.020 0.051-0.31 0.3-0.637 0.55-0.567 0.427-0.744 0.65-0.643 0.816 0.057 0.096 0.58-0.032 1.135-0.28 0.945-0.428 1.204-0.454 1.355-0.167 0.126 0.237-0.183 0.383-1.393 0.651-0.334 0.077-0.7 0.198-0.813 0.268l-0.208 0.128 0.145 0.121c0.126 0.103 0.258 0.122 0.882 0.122 0.561 0 0.77 0.025 0.864 0.095 0.12 0.096 0.113 0.103-0.063 0.262-0.114 0.096-0.22 0.147-0.284 0.121-0.277-0.115-1.216-0.287-1.557-0.287-0.611 0-0.662 0.224-0.107 0.44 0.252 0.103 0.347 0.218 0.296 0.352-0.056 0.153-0.208 0.127-0.756-0.128-1.11-0.517-1.311-0.543-2.64-0.37-0.631 0.083-0.814 0.090-0.883 0.025-0.139-0.115-0.114-0.223 0.082-0.395 0.157-0.134 1.374-2.4 1.317-2.451-0.032-0.032-1.26 0.408-2.15 0.778-0.113 0.045-0.113 0.039 0-0.14 0.417-0.683 1.62-1.45 3.020-1.928 0.725-0.249 0.769-0.255 1.071-0.249 0.202 0.013 0.259 0.039 0.271 0.14 0.020 0.16-0.233 0.556-0.624 0.97zM7.992 20.528c0.233 0.332 0.769 0.894 0.85 0.894 0.083 0 0.013-0.556-0.138-1.137-0.139-0.53-0.151-0.785-0.044-0.893 0.082-0.083 0.36-0.102 0.473-0.026 0.044 0.026 0.094 0.39 0.132 0.939 0.070 1.002 0.12 1.187 0.365 1.346 0.158 0.109 0.17 0.109 0.246 0.007 0.038-0.058 0.082-0.294 0.089-0.53 0.018-0.632 0.17-0.913 0.44-0.823 0.209 0.063 0.228 0.325 0.070 0.823-0.183 0.58-0.214 1.002-0.132 1.57 0.12 0.773 0.41 1.462 0.554 1.315 0.032-0.025 0.050-0.887 0.057-1.908 0.006-1.596 0.019-1.915 0.114-2.215 0.176-0.55 0.214-0.575 0.907-0.575 1.141 0 3.259 0.307 3.542 0.51 0.303 0.218 0.24 0.295-0.359 0.486-1.305 0.402-1.941 0.479-2.729 0.326-0.258-0.052-0.492-0.083-0.517-0.070s0 0.159 0.050 0.325c0.158 0.517 0.114 0.836-0.258 1.972-0.195 0.581-0.378 1.258-0.403 1.5s-0.095 0.485-0.133 0.536c-0.164 0.198-0.346 0.109-0.643-0.306-0.371-0.51-0.958-1.072-1.298-1.251-0.145-0.077-0.624-0.217-1.059-0.32-0.781-0.178-1.033-0.3-0.939-0.452 0.032-0.058 0.17-0.064 0.473-0.039 0.554 0.058 0.599-0.019 0.227-0.37-0.39-0.348-0.845-0.634-1.343-0.838l-0.031-0.011c-0.473-0.191-0.555-0.255-0.555-0.408 0-0.122 0.176-0.25 0.347-0.25 0.056 0 0.309 0.173 0.554 0.39 0.517 0.44 0.876 0.651 1.072 0.62 0.36-0.052-0.070-0.888-0.744-1.45-0.246-0.204-0.485-0.453-0.536-0.549-0.082-0.16-0.082-0.178 0.032-0.261 0.084-0.050 0.186-0.079 0.294-0.079 0.018 0 0.036 0.001 0.054 0.002l-0.002-0c0.196 0.020 0.24 0.058 0.473 0.466 0.139 0.249 0.34 0.58 0.448 0.734zM17.030 9.568c0.322-0.050 0.39 0.211 0.39 0.205 0.171 0.44 0.070 0.99 0.070 0.99-0.227-0.045-0.397-0.326-0.397-0.326-0.132-0.313-0.063-0.868-0.063-0.868zM12.486 11.388s0.485 0.268 0.668 0.555c0 0 0.126 0.3 0.031 0.517 0 0-0.504-0.236-0.756-0.632 0 0.007-0.164-0.204 0.057-0.44z"></path>
</svg>
