<!-- Generated by IcoMoon.io -->
<svg version="1.1" xmlns="http://www.w3.org/2000/svg" width="32" height="32" viewBox="0 0 32 32">
<title>wan</title>
<path fill="#136aad" d="M32 16c0 8.837-7.163 16-16 16s-16-7.163-16-16c0-8.837 7.163-16 16-16s16 7.163 16 16z"></path>
<path fill="#fff" d="M7 11.090l2.667 1.13v6.353l6.333-3.787 6.394 3.787v-6.353l2.606-1.13v11.974l-9-5.315-9 5.315v-11.974zM7.303 10.601l8.697-5.101 8.758 5.101-2.364 0.978-6.394-3.696-6.333 3.696-2.364-0.978zM9.182 22.422l1.97-1.13 4.878 2.825 4.818-2.825 2.030 1.13-6.848 4.078-6.848-4.078z"></path>
</svg>
