<!-- Generated by IcoMoon.io -->
<svg version="1.1" xmlns="http://www.w3.org/2000/svg" width="32" height="32" viewBox="0 0 32 32">
<title>wax</title>
<path fill="#f89022" d="M32 16c0 8.837-7.163 16-16 16s-16-7.163-16-16c0-8.837 7.163-16 16-16s16 7.163 16 16z"></path>
<path fill="#fff" d="M28 18.962h-2.364l-1.677-1.436-1.671 1.43h-1.998l-0.955-1.16h-3.292l0.833-1.029h1.619l-1.233-1.508-4.305 5.241h-1.997l1.246-1.522h-2.081l-1.125-3.154-1.116 3.13h-2.111l-1.773-4.913h1.62l1.192 3.346 1.188-3.331h2l1.185 3.324 1.184-3.325h1.625l-1.788 4.923 0.398-0.486 3.652-4.445h2.010l3.039 3.708 1.462-1.257-4.627-3.998h2.375zM25.655 15.99l-1.115-0.956 1.113-0.948 2.25 0.002z"></path>
</svg>
