<!-- Generated by IcoMoon.io -->
<svg version="1.1" xmlns="http://www.w3.org/2000/svg" width="32" height="32" viewBox="0 0 32 32">
<title>wgr</title>
<path fill="#b80000" d="M32 16c0 8.837-7.163 16-16 16s-16-7.163-16-16c0-8.837 7.163-16 16-16s16 7.163 16 16z"></path>
<path fill="#fff" d="M25.893 11.387c0.156 0.265 0.135 0.543-0.020 0.815-0.232 0.37-0.446 0.747-0.667 1.12-0.606 1.036-1.212 2.072-1.82 3.108-17.252 31.027-18.458 33.045-19.666 35.063l16.022-28.881c-0.128 0.234-0.371 0.389-0.652 0.389-0.021 0-0.042-0.001-0.062-0.003l0.003 0c-0.307-0.014-0.525-0.166-0.67-0.431-0.149-0.265-0.304-0.527-0.46-0.791-0.51-0.872-1.022-1.742-1.533-2.611-0.114-0.197-0.231-0.39-0.362-0.608-0.128 0.217-0.249 0.41-0.363 0.608l-1.533 2.61c-0.063 0.092-0.215 0.351-0.365 0.611l-0.095 0.181c-0.145 0.265-0.362 0.417-0.67 0.431-0.017 0.001-0.036 0.002-0.056 0.002-0.281 0-0.526-0.156-0.653-0.385l-0.002-0.004c-0.577-0.971-1.147-1.942-1.72-2.917 1.73 3.192 1.093 2.126 0.458 1.058l-2.382-4.323c-0.605-1.036-1.212-2.072-1.82-3.108-0.22-0.373-0.438-0.75-0.666-1.12-0.166-0.272-0.19-0.55-0.035-0.815 0.152-0.261 0.397-0.387 0.712-0.387 1.968 0.007 3.937 0.020 5.905 0.003 0.497-0.003 0.794 0.187 1.026 0.601 0.497 0.887 1.026 1.752 1.537 2.629 0.214 0.37 0.425 0.743 0.642 1.113 0.017 0.027 0.045 0.048 0.070 0.071 0.027-0.019 0.049-0.043 0.067-0.069l0.001-0.001c0.215-0.37 0.425-0.744 0.643-1.114 0.514-0.877 1.040-1.746 1.537-2.629 0.231-0.414 0.528-0.604 1.025-0.6 1.969 0.016 3.937 0.003 5.906-0.004 0.321 0 0.566 0.126 0.718 0.387zM15.050 17.142c0.019-0.039 0.030-0.085 0.030-0.134 0-0.046-0.010-0.090-0.028-0.129l0.001 0.002c-0.1-0.204-0.232-0.397-0.349-0.598-0.704-1.202-1.409-2.4-2.11-3.605-0.072-0.123-0.155-0.167-0.3-0.167-1.312 0.007-2.625 0.007-3.937 0.010-0.062 0-0.124 0.010-0.214 0.017 1.602 2.733 3.19 5.446 4.797 8.186 0.138-0.23 0.255-0.414 0.366-0.604 0.586-0.99 1.167-1.983 1.744-2.978zM19.060 20.724c1.605-2.74 3.194-5.453 4.8-8.186-0.093-0.007-0.152-0.017-0.214-0.017-1.313-0.003-2.625-0.003-3.937-0.010-0.145 0-0.228 0.044-0.3 0.166-7.948 14.398-8.648 15.576-9.348 16.754l7.238-13.148c-0.118 0.197-0.246 0.39-0.35 0.598-0.018 0.038-0.028 0.083-0.028 0.131s0.010 0.092 0.029 0.132l-0.001-0.002c0.58 0.994 1.161 1.987 1.745 2.978 0.11 0.19 0.228 0.377 0.366 0.604z"></path>
</svg>
