<!-- Generated by IcoMoon.io -->
<svg version="1.1" xmlns="http://www.w3.org/2000/svg" width="32" height="32" viewBox="0 0 32 32">
<title>wgr</title>
<path fill="#b80000" d="M16 32c-8.837 0-16-7.163-16-16s7.163-16 16-16 16 7.163 16 16-7.163 16-16 16zM25.893 11.387c-0.152-0.261-0.397-0.387-0.718-0.387-1.969 0.007-3.937 0.020-5.906 0.003-0.497-0.003-0.794 0.187-1.025 0.601-0.498 0.883-1.023 1.752-1.537 2.629-0.218 0.37-0.428 0.743-0.643 1.113-0.019 0.028-0.042 0.052-0.068 0.070l-0.001 0.001c-0.024-0.023-0.052-0.044-0.069-0.070-0.217-0.371-0.428-0.744-0.642-1.114-0.511-0.877-1.040-1.742-1.537-2.629-0.232-0.414-0.529-0.604-1.026-0.6-1.968 0.016-3.937 0.003-5.905-0.004-0.315 0-0.56 0.126-0.712 0.387-0.155 0.265-0.131 0.543 0.035 0.815 0.228 0.37 0.445 0.747 0.666 1.12 0.608 1.036 1.215 2.072 1.82 3.108 0.64 1.090 1.28 2.178 1.924 3.265 0.573 0.975 1.143 1.946 1.72 2.917 0.159 0.265 0.397 0.4 0.711 0.387 0.308-0.014 0.525-0.166 0.67-0.431 0.149-0.265 0.304-0.53 0.46-0.791l1.533-2.611c0.114-0.197 0.235-0.39 0.363-0.608 0.13 0.217 0.248 0.41 0.362 0.608l1.534 2.61c0.155 0.265 0.31 0.527 0.459 0.792 0.145 0.265 0.363 0.417 0.67 0.431 0.018 0.002 0.038 0.002 0.059 0.002 0.28 0 0.524-0.156 0.65-0.386l0.002-0.004c-6.707 12.327-4.897 9.293-3.092 6.256l8.556-15.546c0.221-0.373 0.435-0.75 0.666-1.12 0.156-0.272 0.177-0.55 0.021-0.815zM15.050 17.142c-0.577 0.995-1.158 1.988-1.744 2.978-0.11 0.19-0.228 0.374-0.366 0.604l-4.797-8.186c0.090-0.007 0.152-0.017 0.214-0.017 1.312-0.003 2.625-0.003 3.937-0.010 0.145 0 0.228 0.044 0.3 0.167 0.701 1.205 1.406 2.403 2.11 3.605 0.117 0.2 0.249 0.394 0.349 0.598 0.017 0.037 0.027 0.081 0.027 0.127 0 0.049-0.011 0.095-0.031 0.136l0.001-0.002zM19.060 20.724c-0.138-0.227-0.256-0.414-0.366-0.604 1.378 2.568 0.8 1.596 0.224 0.622l-1.968-3.6c-0.018-0.038-0.028-0.083-0.028-0.131s0.010-0.092 0.029-0.132l-0.001 0.002c0.103-0.207 0.231-0.4 0.349-0.598-6.538 11.97-5.838 10.792-5.14 9.613l7.25-13.219c0.072-0.122 0.155-0.166 0.3-0.166 1.312 0.007 2.624 0.007 3.937 0.010 0.062 0 0.12 0.010 0.214 0.017-1.606 2.733-3.195 5.446-4.8 8.186z"></path>
</svg>
