<!-- Generated by IcoMoon.io -->
<svg version="1.1" xmlns="http://www.w3.org/2000/svg" width="32" height="32" viewBox="0 0 32 32">
<title>wicc</title>
<path fill="#5783cb" d="M32 16c0 8.837-7.163 16-16 16s-16-7.163-16-16c0-8.837 7.163-16 16-16s16 7.163 16 16z"></path>
<path fill="#fff" d="M15.24 4h1.24c2.823 0.14 5.358 1.27 7.288 3.047l-0.008-0.007c0.34 0.22 0.34 0.76-0.060 0.9-0.34 0.080-0.6-0.22-0.86-0.4-1.784-1.37-4.049-2.196-6.507-2.196-3.331 0-6.309 1.517-8.279 3.898l-0.014 0.018c-1.465 1.791-2.353 4.104-2.353 6.624 0 5.799 4.701 10.5 10.5 10.5 1.237 0 2.424-0.214 3.526-0.607l-0.073 0.023c3.57-1.261 6.237-4.247 7.027-7.929l0.013-0.071c0.176-0.729 0.29-1.472 0.34-2.22 0.025-0.211 0.203-0.373 0.419-0.373 0.233 0 0.422 0.189 0.422 0.422 0 0.011-0 0.022-0.001 0.032l0-0.001-0.040 1.24c-0.167 3.009-1.45 5.69-3.439 7.659l-0.001 0.001c-2.016 1.999-4.745 3.284-7.771 3.439l-0.029 0.001h-1.18c-6.176-0.322-11.1-5.26-11.399-11.412l-0.001-0.028v-1.12c0.311-6.121 5.14-11.019 11.202-11.438l0.038-0.002z"></path>
<path fill="#fff" d="M25 10.22c0.8-0.88 2.46-0.4 2.64 0.78 0.26 1.060-0.76 1.96-1.8 1.88-1.38 1.4-2.48 3.060-3.42 4.8-0.38 0.52 0.1 1.2-0.2 1.74-0.36 1.060-1.92 1.28-2.6 0.4-0.5-0.56-0.36-1.34-0.1-1.96-0.402-0.824-0.904-1.53-1.501-2.142l0.001 0.002-0.6 0.020c-1.27 1.395-2.347 2.997-3.17 4.742l-0.050 0.118c0.14 0.54 0.24 1.18-0.14 1.66-0.5 0.82-1.82 0.9-2.44 0.14-0.46-0.52-0.4-1.26-0.16-1.88-0.743-1.991-1.729-3.711-2.949-5.238l0.029 0.038c-0.78-0.040-1.6-0.5-1.7-1.32-0.26-1.12 1.020-2.2 2.080-1.7 0.94 0.34 1.2 1.54 0.74 2.36 0.809 2.025 1.867 3.77 3.164 5.309l-0.024-0.029c1.404-1.392 2.566-3.027 3.416-4.836l0.044-0.104c-0.16-0.54-0.26-1.16 0.1-1.66 0.54-0.88 1.98-0.9 2.54-0.020 0.42 0.54 0.28 1.26 0.040 1.84 0.394 0.829 0.882 1.541 1.465 2.165l-0.005-0.005 0.6-0.040c1.46-1.54 2.8-3.24 3.7-5.18-0.1-0.64-0.22-1.4 0.32-1.88h-0.020z"></path>
</svg>
