<!-- Generated by IcoMoon.io -->
<svg version="1.1" xmlns="http://www.w3.org/2000/svg" width="32" height="32" viewBox="0 0 32 32">
<title>wpr</title>
<path fill="#ffe600" d="M32 16c0 8.837-7.163 16-16 16s-16-7.163-16-16c0-8.837 7.163-16 16-16s16 7.163 16 16z"></path>
<path fill="#fff" d="M3.993 5.425c0.789-0.893 1.658-1.683 2.604-2.373l0.046-0.032 4.452 15.918 1.973-8.438h3.74l1.972 8.438 2.337-8.438h3.749l0.035 0.15 4.074 14.714c-0.759 1.043-1.597 1.953-2.529 2.758l-0.021 0.017-3.437-12.41-1.96 7.078-0.035 0.15h-4.186l-1.869-6.932-1.87 6.932h-4.186l-0.035-0.15z"></path>
</svg>
