<!-- Generated by IcoMoon.io -->
<svg version="1.1" xmlns="http://www.w3.org/2000/svg" width="32" height="32" viewBox="0 0 32 32">
<title>wtc</title>
<path fill="#8200ff" d="M32 16c0 8.837-7.163 16-16 16s-16-7.163-16-16c0-8.837 7.163-16 16-16s16 7.163 16 16z"></path>
<path fill="#fff" d="M18.414 13.166l-0.68 0.167c-0.614 0.15-1.044 0.69-1.044 1.31v4.538l-2.247 0.55c-0.051 0.013-0.109 0.021-0.169 0.021-0.318 0-0.586-0.215-0.666-0.508l-0.001-0.005c-0.013-0.048-0.020-0.104-0.020-0.162 0-0.001 0-0.002 0-0.003v0-7.555c0-0.31 0.215-0.58 0.522-0.656l3.448-0.844c0.051-0.013 0.109-0.021 0.169-0.021 0.318 0 0.586 0.215 0.666 0.508l0.001 0.005c0.014 0.053 0.020 0.108 0.020 0.163v2.491zM10.828 13.124l-0.852 0.209c-0.614 0.15-1.045 0.69-1.045 1.31v4.58l-2.074 0.508c-0.051 0.013-0.109 0.021-0.169 0.021-0.318 0-0.586-0.215-0.666-0.508l-0.001-0.005c-0.013-0.049-0.021-0.106-0.021-0.164v-7.555c0-0.31 0.215-0.58 0.522-0.656l3.449-0.844c0.051-0.013 0.109-0.021 0.169-0.021 0.318 0 0.586 0.215 0.666 0.508l0.001 0.005c0.014 0.053 0.020 0.108 0.020 0.163v2.45zM21.695 10.885l3.448-0.844c0.051-0.013 0.109-0.021 0.169-0.021 0.318 0 0.585 0.215 0.666 0.507l0.001 0.005c0.013 0.049 0.021 0.106 0.021 0.164v0 7.556c0 0.31-0.215 0.58-0.522 0.655l-3.449 0.844c-0.051 0.013-0.109 0.021-0.169 0.021-0.318 0-0.585-0.215-0.666-0.507l-0.001-0.005c-0.013-0.048-0.020-0.104-0.020-0.162 0-0.001 0-0.002 0-0.003v0-7.556c0-0.31 0.215-0.58 0.522-0.655z"></path>
<path fill="#fff" opacity="0.504" d="M12.897 13.314v5.761c0 0.11 0.013 0.22 0.040 0.328 0.162 0.595 0.698 1.024 1.333 1.024 0.063 0 0.124-0.004 0.185-0.012l-0.007 0.001v0.939c0 0.31-0.215 0.58-0.522 0.655l-3.448 0.844c-0.051 0.014-0.11 0.021-0.17 0.021-0.318 0-0.586-0.215-0.666-0.508l-0.001-0.005c-0.013-0.048-0.020-0.104-0.020-0.162 0-0.001 0-0.002 0-0.003v0-7.556c0-0.31 0.215-0.58 0.522-0.655l2.754-0.674zM20.483 13.356v5.74c0 0.11 0.014 0.22 0.040 0.328 0.186 0.723 0.935 1.163 1.674 0.982l0.010-0.002v0.95c-0.003 0.317-0.222 0.583-0.517 0.655l-0.005 0.001-3.449 0.844c-0.051 0.013-0.109 0.021-0.169 0.021-0.318 0-0.585-0.215-0.666-0.507l-0.001-0.005c-0.013-0.048-0.020-0.104-0.020-0.162 0-0.001 0-0.002 0-0.003v0-7.556c0-0.31 0.215-0.58 0.522-0.655l2.58-0.632z"></path>
</svg>
