<!-- Generated by IcoMoon.io -->
<svg version="1.1" xmlns="http://www.w3.org/2000/svg" width="32" height="32" viewBox="0 0 32 32">
<title>x</title>
<path fill="#3b5998" d="M32 16c0 8.837-7.163 16-16 16s-16-7.163-16-16c0-8.837 7.163-16 16-16s16 7.163 16 16z"></path>
<path fill="#fff" d="M14.116 6.010h1.88v5.882l-1.88-1.963z"></path>
<path fill="#fff" d="M6.011 7.993h4.949c1.677 1.755 3.361 3.507 5.038 5.266 0.971-1.009 1.939-2.025 2.906-3.037 0.715-0.741 1.427-1.486 2.14-2.23h4.937c-2.304 2.33-4.605 4.662-6.91 6.99-0.242 0.243-0.485 0.488-0.722 0.734 0.058 0.062 0.12 0.123 0.172 0.189l7.462 7.542h-3.83c-0.099 0-0.198 0.006-0.295-0.007-0.273-0.008-0.547 0.004-0.82-0.006-0.495-0.511-0.984-1.029-1.479-1.542-0.973-1.012-1.942-2.030-2.915-3.044-0.216-0.224-0.427-0.454-0.648-0.672-0.47 0.5-0.952 0.993-1.425 1.493l-2.677 2.794c-0.312 0.325-0.62 0.652-0.934 0.971-0.27 0.008-0.542 0-0.814 0.004-0.155 0.019-0.312 0.006-0.467 0.010h-3.669l7.268-7.35c0.125-0.126 0.249-0.253 0.37-0.382l-7.638-7.723z"></path>
<path fill="#fff" d="M16 19.531c0.626 0.663 1.26 1.319 1.888 1.98 0.004 1.307 0 2.612 0 3.92h-1.89c0-1.967 0-3.933 0.004-5.9h-0.002z"></path>
</svg>
