<!-- Generated by IcoMoon.io -->
<svg version="1.1" xmlns="http://www.w3.org/2000/svg" width="32" height="32" viewBox="0 0 32 32">
<title>xbp</title>
<path fill="#21af67" d="M32 16c0 8.837-7.163 16-16 16s-16-7.163-16-16c0-8.837 7.163-16 16-16s16 7.163 16 16z"></path>
<path fill="#fff" d="M16 28c-6.627 0-12-5.373-12-12s5.373-12 12-12 12 5.373 12 12-5.373 12-12 12zM20.613 11.651c-0.176-0.24-0.463-0.435-0.857-0.587s-0.934-0.227-1.62-0.227h-1.45l1.962-5.392c-0.718-0.187-1.546-0.303-2.398-0.321l-0.012-0c-0.080 0-0.16-0.006-0.24-0.006-0.132 0.001-0.261 0.005-0.389 0.011l0.021-0.001c-5.829 0.194-10.512 4.994-10.512 10.872 0 3.133 1.352 6.113 3.71 8.174l0.853-2.345c-1.416-1.524-2.285-3.574-2.285-5.826 0-0.001 0-0.002 0-0.003v0c0-4.328 3.212-7.917 7.377-8.515 0.206-0.030 0.419-0.050 0.63-0.068l-3.142 8.634 6.269-0.617c-0.003-0.001-0.006-0.003-0.010-0.004l-0-0c0.195-0.063 0.382-0.146 0.56-0.25 0.467-0.271 0.86-0.614 1.178-1.018l0.007-0.009c0.178-0.23 0.32-0.488 0.418-0.763 0.11-0.294 0.173-0.604 0.186-0.917 0.001-0.016 0.001-0.035 0.001-0.053 0-0.29-0.097-0.557-0.259-0.772l0.002 0.003zM17.939 13.756c-0.137 0.372-0.35 0.634-0.645 0.785-0.26 0.141-0.568 0.225-0.896 0.228h-1.131l0.758-2.084h1.13c0.135 0 0.27 0.017 0.4 0.052 0.124 0.030 0.232 0.089 0.321 0.169l-0.001-0.001c0.086 0.085 0.142 0.2 0.151 0.328l0 0.002c0.002 0.022 0.002 0.048 0.002 0.074 0 0.161-0.033 0.315-0.092 0.454l0.003-0.008zM19.2 5.598l-0.781 2.147c3.606 1.079 6.189 4.366 6.189 8.257 0 4.751-3.852 8.603-8.603 8.603-1.208 0-2.359-0.249-3.402-0.699l0.056 0.021c-0.23-0.098-0.4-0.179-0.568-0.266l0.049 0.023 0.892-2.445h1.448c1.312 0 2.388-0.222 3.23-0.668s1.44-1.156 1.797-2.134c0.131-0.362 0.18-0.68 0.141-0.954-0.031-0.264-0.117-0.502-0.246-0.711l0.004 0.007c-0.12-0.19-0.274-0.347-0.454-0.466l-0.006-0.004c-0.132-0.087-0.283-0.167-0.442-0.232l-0.018-0.006-6.326 0.624-2.035 5.581-0.83 2.284c0.745 0.59 1.597 1.096 2.512 1.481l0.072 0.027c1.307 0.538 2.707 0.814 4.121 0.813 6 0 10.882-4.881 10.882-10.882 0-4.887-3.238-9.032-7.682-10.402zM14.56 17.073h1.32c0.158 0.001 0.315 0.016 0.47 0.045 0.15 0.024 0.295 0.079 0.424 0.16 0.12 0.082 0.206 0.204 0.242 0.344 0.042 0.151 0.020 0.349-0.069 0.594-0.084 0.245-0.212 0.456-0.377 0.632l0.001-0.001c-0.142 0.147-0.31 0.266-0.496 0.352-0.157 0.073-0.339 0.127-0.53 0.153l-0.010 0.001c-0.148 0.022-0.321 0.035-0.496 0.036h-1.324l0.845-2.316z"></path>
</svg>
