<!-- Generated by IcoMoon.io -->
<svg version="1.1" xmlns="http://www.w3.org/2000/svg" width="32" height="32" viewBox="0 0 32 32">
<title>xbtc</title>
<path fill="#ff914d" d="M32 16c0 8.837-7.163 16-16 16s-16-7.163-16-16c0-8.837 7.163-16 16-16s16 7.163 16 16z"></path>
<path fill="#fff" d="M16 27.258c-6.218 0-11.258-5.040-11.258-11.258s5.040-11.258 11.258-11.258c6.218 0 11.258 5.040 11.258 11.258s-5.040 11.258-11.258 11.258zM16 26.596c5.852 0 10.596-4.744 10.596-10.596s-4.744-10.596-10.596-10.596-10.596 4.744-10.596 10.596 4.744 10.596 10.596 10.596z"></path>
<path fill="#fff" d="M14.090 24.132c0.248-0.102 1.218-0.85 2.155-1.655 1.205-1.028 2.296-2.045 3.342-3.107l0.006-0.006c1.026-1.026 1.407-1.467 1.47-1.695 0.222-0.801-2.205-9.606-2.699-9.795-0.301-0.116-2.993 2.123-5.377 4.467-1.398 1.374-1.785 1.831-1.815 2.13-0.020 0.231 0.060 0.81 0.209 1.496 0.593 2.722 1.672 6.483 2.218 7.718 0.229 0.524 0.255 0.547 0.49 0.447z"></path>
</svg>
