<!-- Generated by IcoMoon.io -->
<svg version="1.1" xmlns="http://www.w3.org/2000/svg" width="32" height="32" viewBox="0 0 32 32">
<title>xby</title>
<path fill="#56f4f1" d="M32 16c0 8.837-7.163 16-16 16s-16-7.163-16-16c0-8.837 7.163-16 16-16s16 7.163 16 16z"></path>
<path fill="#fff" d="M6 9.016c0-0.015 0.21-0.016 2.918-0.014l2.919 0.003 3.376 5.681 0.264-0.45c0.144-0.248 0.262-0.455 0.26-0.461s-0.637-1.078-1.41-2.38-1.406-2.373-1.406-2.38c0-0.013 0.439-0.015 3.073-0.015 1.706 0 3.072 0.004 3.072 0.010 0 0.020-6.515 11.097-6.53 11.1-0.011 0.002-0.964-1.608-3.276-5.537-1.793-3.047-3.26-5.547-3.26-5.557zM20.14 9.007c0-0.004 1.32-0.007 2.931-0.007h2.929l-0.004 0.022c-0.003 0.013-1.463 2.501-3.244 5.529-2.159 3.667-3.246 5.506-3.26 5.508-0.013 0.002-0.319-0.507-1.345-2.234-0.732-1.23-1.333-2.24-1.337-2.242-0.008-0.005-0.533 0.886-0.529 0.898 0.001 0.005 0.604 1.020 1.338 2.256 0.129 0.172 0.57 0.912 1.003 1.656l0.327 0.609c-0.009 0.035-2.936 4.995-2.948 4.998-0.019 0.004-2.929-4.94-2.923-4.965 0.005-0.011 6.954-11.85 7.061-12.028z"></path>
</svg>
