<!-- Generated by IcoMoon.io -->
<svg version="1.1" xmlns="http://www.w3.org/2000/svg" width="32" height="32" viewBox="0 0 32 32">
<title>xcp</title>
<path fill="#ed1650" d="M32 16c0 8.837-7.163 16-16 16s-16-7.163-16-16c0-8.837 7.163-16 16-16s16 7.163 16 16z"></path>
<path fill="#fff" d="M23.48 10h-4.044c-0.172 0-0.328 0.071-0.44 0.186l-0 0-7.375 7.529c-0.112 0.115-0.268 0.186-0.44 0.186h-1.352c-0.172-0-0.328-0.071-0.44-0.186l-0-0-0.956-0.974c-0.113-0.115-0.183-0.273-0.183-0.447v-1.377c0-0.175 0.070-0.333 0.183-0.448l-0 0 0.956-0.974c0.112-0.114 0.268-0.186 0.44-0.186h1.352c0.165 0 0.323 0.067 0.44 0.186l0.587 0.598c0.112 0.115 0.268 0.186 0.44 0.186s0.328-0.071 0.44-0.186l0-0 1.419-1.444c0.113-0.116 0.182-0.274 0.182-0.448s-0.069-0.332-0.182-0.448l0 0-1.54-1.567c-0.112-0.114-0.268-0.186-0.44-0.186h-4.044c-0.172 0-0.328 0.072-0.44 0.186l-0 0-2.86 2.912c-0.113 0.115-0.182 0.273-0.182 0.447 0 0 0 0.001 0 0.001v-0 4.118c0 0.168 0.066 0.33 0.182 0.448l2.86 2.913c0.112 0.114 0.268 0.185 0.44 0.185h4.045c0.172-0 0.328-0.072 0.44-0.186l0-0 7.375-7.528c0.112-0.115 0.267-0.186 0.44-0.187h1.352c0.165 0 0.323 0.067 0.44 0.186l0.956 0.974c0.113 0.115 0.183 0.274 0.183 0.448v0 1.377c-0 0.174-0.070 0.332-0.183 0.447l0-0-0.956 0.974c-0.112 0.115-0.268 0.186-0.44 0.186h-1.352c-0.172-0-0.328-0.071-0.44-0.186l-0-0-0.592-0.603c-0.112-0.115-0.267-0.186-0.44-0.186-0.17 0-0.324 0.069-0.435 0.181l-0 0-1.75 1.742c-0.116 0.116-0.187 0.276-0.187 0.452 0 0 0 0.001 0 0.001v-0 4.040c0 0.35 0.279 0.634 0.622 0.634h2.040c0.345-0.003 0.623-0.283 0.623-0.628 0-0.002 0-0.004-0-0.005v0-1.5c0-0.35 0.279-0.633 0.622-0.633h2.635c0.172-0 0.328-0.071 0.44-0.185l0-0 2.86-2.913c0.113-0.115 0.183-0.273 0.183-0.448v0-4.118c0-0 0-0.001 0-0.001 0-0.174-0.069-0.332-0.182-0.447l0 0-2.86-2.912c-0.112-0.114-0.268-0.186-0.44-0.186h-0z"></path>
</svg>
