<!-- Generated by IcoMoon.io -->
<svg version="1.1" xmlns="http://www.w3.org/2000/svg" width="32" height="32" viewBox="0 0 32 32">
<title>xem</title>
<path fill="#67b2e8" d="M32 16c0 8.837-7.163 16-16 16s-16-7.163-16-16c0-8.837 7.163-16 16-16s16 7.163 16 16z"></path>
<path fill="#fff" d="M6.145 11.954c-0.089-0.693-0.142-1.498-0.145-2.314v-0.004c1.189-0.692 2.565-1.296 4.010-1.741l0.142-0.038c1.744-0.544 3.749-0.858 5.827-0.858 0.153 0 0.306 0.002 0.458 0.005l-0.023-0c0.568 0.011 1.39 0.074 2.014 0.141-1.58 0.86-2.716 2.365-3.059 4.152l-0.006 0.038c-0.060 0.314-0.093 0.64-0.104 0.988-0.016 0.536-0.068 0.958-0.18 1.353-0.555 1.918-2.296 3.297-4.359 3.297-1.811 0-3.373-1.062-4.098-2.598l-0.012-0.028c-0.040-0.086-0.075-0.186-0.098-0.29l-0.002-0.010c-0.137-0.561-0.265-1.272-0.355-1.996l-0.010-0.098zM22.758 20.514c-0.238 0.37-0.49 0.73-0.752 1.085 0-0.014 0-0.031 0-0.047 0-1.043-0.271-2.022-0.746-2.872l0.015 0.030c-0.512-0.941-1.24-1.706-2.12-2.248l-0.026-0.015-0.090-0.055c-0.081-0.047-0.13-0.077-0.178-0.107l0.029 0.017c-1.137-0.723-1.83-1.735-2.074-3.041-0.049-0.249-0.076-0.534-0.076-0.827 0-2.12 1.459-3.898 3.428-4.386l0.031-0.007c0.82-0.198 1.63-0.17 2.437 0.083 0.619 0.195 1.245 0.45 2.008 0.807 0.44 0.207 0.884 0.437 1.356 0.704-0.007 1.473-0.171 2.904-0.477 4.282l0.025-0.134c-0.557 2.55-1.523 4.803-2.837 6.808l0.047-0.077zM19.721 24.187c-1.094 1.044-2.313 1.974-3.627 2.761l-0.093 0.052c-0.415-0.239-0.747-0.45-1.070-0.673l0.053 0.034c-3.185-2.163-5.683-5.121-7.236-8.593l-0.052-0.129c0.695 0.416 1.517 0.696 2.396 0.783l0.024 0.002c0.182 0.020 0.393 0.031 0.607 0.031 1.107 0 2.144-0.298 3.035-0.819l-0.029 0.015c0.492-0.285 1.068-0.486 1.683-0.567l0.023-0.002c0.17-0.023 0.367-0.036 0.567-0.036 2.041 0 3.765 1.352 4.327 3.21l0.008 0.032c0.335 1.121 0.237 2.222-0.283 3.307-0.044 0.092-0.082 0.166-0.172 0.343l-0.044 0.087c-0.031 0.063-0.071 0.116-0.118 0.162l-0 0z"></path>
</svg>
