<!-- Generated by IcoMoon.io -->
<svg version="1.1" xmlns="http://www.w3.org/2000/svg" width="32" height="32" viewBox="0 0 32 32">
<title>xlm</title>
<path fill="#000" d="M16 32c-8.837 0-16-7.163-16-16s7.163-16 16-16 16 7.163 16 16-7.163 16-16 16zM23.13 9.292l-13.998 7.131c-0.037-0.268-0.058-0.577-0.058-0.892 0-3.816 3.093-6.909 6.909-6.909 1.236 0 2.397 0.325 3.401 0.894l-0.034-0.018 1.579-0.805c-1.372-1.005-3.094-1.609-4.956-1.609-4.661 0-8.439 3.778-8.439 8.439 0 0.226 0.009 0.45 0.026 0.671l-0.002-0.029c0.003 0.035 0.004 0.075 0.004 0.116 0 0.594-0.337 1.108-0.83 1.364l-0.009 0.004-0.725 0.37v1.724l19.946-10.164v-1.723l-2.815 1.436zM25.946 11.304l-19.946 10.159v1.723l16.819-8.57c0.038 0.271 0.059 0.585 0.059 0.904 0 3.816-3.093 6.909-6.909 6.909-1.242 0-2.407-0.327-3.413-0.901l0.034 0.018-0.085 0.045-1.49 0.76c1.372 1.006 3.095 1.61 4.958 1.61 4.661 0 8.439-3.778 8.439-8.439 0-0.227-0.009-0.453-0.027-0.675l0.002 0.029c-0.003-0.034-0.004-0.075-0.004-0.115 0-0.593 0.336-1.108 0.829-1.364l0.009-0.004 0.726-0.37v-1.718z"></path>
</svg>
