<!-- Generated by IcoMoon.io -->
<svg version="1.1" xmlns="http://www.w3.org/2000/svg" width="32" height="32" viewBox="0 0 32 32">
<title>xmg</title>
<path fill="#004a80" d="M16 32c-8.837 0-16-7.163-16-16s7.163-16 16-16 16 7.163 16 16-7.163 16-16 16zM23 19.54l-0.741-0.226c-0.164 0.403-0.331 0.739-0.519 1.061l0.021-0.039c-0.19 0.331-0.393 0.616-0.621 0.88l0.006-0.007c-0.22 0.26-0.48 0.478-0.771 0.646l-0.014 0.008c-0.302 0.173-0.636 0.26-1 0.26h-7.405l6.488-7.365v-0.314l-5.249-6.54h3.503c0.494 0 0.918 0.020 1.273 0.063 0.354 0.043 0.632 0.113 0.834 0.211 0.286 0.118 0.611 0.418 0.975 0.899s0.807 1.206 1.327 2.175h0.79l-0.428-4.252h-12.332v0.992l6.653 8.376-6.79 7.719v0.913h12.517z"></path>
</svg>
