<!-- Generated by IcoMoon.io -->
<svg version="1.1" xmlns="http://www.w3.org/2000/svg" width="32" height="32" viewBox="0 0 32 32">
<title>xmg</title>
<path fill="#004a80" d="M32 16c0 8.837-7.163 16-16 16s-16-7.163-16-16c0-8.837 7.163-16 16-16s16 7.163 16 16z"></path>
<path fill="#fff" d="M23 19.54l-1.483 5.46h-12.517v-0.913l6.79-7.719-6.653-8.376v-0.992h12.331l0.43 4.252h-0.79c-0.521-0.969-0.963-1.694-1.328-2.175s-0.689-0.78-0.975-0.899c-0.202-0.098-0.48-0.168-0.834-0.21-0.357-0.042-0.771-0.065-1.19-0.065-0.029 0-0.058 0-0.087 0l0.004-0h-3.503l5.249 6.54v0.315l-6.488 7.365h7.405c0.364 0 0.698-0.087 1-0.26s0.564-0.392 0.785-0.654c0.221-0.257 0.425-0.542 0.601-0.846l0.014-0.027c0.167-0.283 0.334-0.619 0.478-0.967l0.020-0.055z"></path>
</svg>
