<!-- Generated by IcoMoon.io -->
<svg version="1.1" xmlns="http://www.w3.org/2000/svg" width="32" height="32" viewBox="0 0 32 32">
<title>xmr</title>
<path fill="#f60" d="M32 16c0 8.837-7.163 16-16 16s-16-7.163-16-16c0-8.837 7.163-16 16-16s16 7.163 16 16z"></path>
<path fill="#fff" d="M15.97 5.235c5.985 0 10.825 4.84 10.825 10.824-0.004 1.229-0.208 2.408-0.581 3.51l0.023-0.078h-3.226v-9.094l-7.040 7.040-7.040-7.040v9.094h-3.227c-0.349-1.024-0.553-2.203-0.557-3.43v-0.002c0-5.984 4.84-10.824 10.824-10.824zM14.358 19.020l1.642 1.615 1.613-1.614 3.051-3.080v5.72h4.547c-1.929 3.134-5.341 5.192-9.233 5.192-0.002 0-0.005 0-0.007 0h0c-3.902 0-7.334-2.082-9.24-5.192h4.546v-5.72l3.080 3.080z"></path>
</svg>
