<!-- Generated by IcoMoon.io -->
<svg version="1.1" xmlns="http://www.w3.org/2000/svg" width="32" height="32" viewBox="0 0 32 32">
<title>xmy</title>
<path fill="#ec1076" d="M32 16c0 8.837-7.163 16-16 16s-16-7.163-16-16c0-8.837 7.163-16 16-16s16 7.163 16 16z"></path>
<path fill="#fff" d="M21.050 21c-0.602 0-1.263-0.303-1.263-1.212 0-0.448 0.35-1.825 1.048-4.132 0.143-0.356 0.214-0.676 0.214-0.959 0-0.545-0.42-1.090-1.202-1.090-0.454 0-1.443 0.18-1.743 1.15-0.2 0.647-0.661 2.364-1.383 5.152-0.28 0.727-0.781 1.091-1.502 1.091-1.082 0-1.263-0.788-1.263-1.273 0-0.192 0.288-1.353 0.865-3.48 0.225-0.71 0.337-1.227 0.337-1.55 0-0.485-0.36-1.090-1.202-1.090-0.841 0-1.623 0.605-1.983 1.938-0.24 0.89-0.581 2.223-1.022 4-0.24 0.97-0.782 1.455-1.623 1.455-0.762 0-1.162-0.424-1.202-1.273l1.382-5.757h-3.065c-0.015 0.001-0.032 0.001-0.050 0.001-0.787 0-1.425-0.638-1.425-1.425s0.638-1.425 1.425-1.425c0.007 0 0.014 0 0.021 0h5.138c0.721 0 1.162 0.344 1.322 1.030 0.722-0.908 1.683-1.151 2.526-1.151s1.923 0.485 2.404 1.576c0.66-0.728 1.803-1.576 3.426-1.576 1.502 0 2.765 1.030 2.765 2.848 0 0.687-0.341 2.122-1.022 4.304l2.637-0.018c0.771 0 1.39 0.642 1.39 1.433s-0.619 1.433-1.383 1.433z"></path>
</svg>
