<!-- Generated by IcoMoon.io -->
<svg version="1.1" xmlns="http://www.w3.org/2000/svg" width="32" height="32" viewBox="0 0 32 32">
<title>xp</title>
<path fill="#008200" d="M32 16c0 8.837-7.163 16-16 16s-16-7.163-16-16c0-8.837 7.163-16 16-16s16 7.163 16 16z"></path>
<path fill="#fff" d="M14.79 23h-1.798l-1.082-4.25 2.645-1.382 0.861 2.46 0.641-3.245 3.515-1.837-0.194 0.976 2.030 0.019c0.784-0.012 1.391-0.277 1.823-0.793s0.637-1.21 0.615-2.083c-0.004-0.121-0.016-0.237-0.037-0.349l0.002 0.014 2.73-1.427c0.378 0.695 0.522 1.514 0.434 2.455-0.146 1.372-0.74 2.47-1.779 3.293-1.039 0.824-2.364 1.236-3.973 1.236l-2.306-0.010-0.977 4.923zM15.211 12.010h1.75l-2.697 3.825-6.66 3.481 2.468-3.49-2.372-6.826h3.48l1.23 4.789 1.052-1.78 1.878-3.009h2.215l5.126 0.010c1.165 0.032 2.12 0.341 2.866 0.927l-2.8 1.464c-0.059-0.012-0.13-0.021-0.203-0.026l-0.005-0-2.294-0.020-0.3 1.51-3.517 1.838 0.532-2.694zM5.786 21.952l5.327-2.785-2.348 3.833h-3.765l0.767-1.085z"></path>
</svg>
