<!-- Generated by IcoMoon.io -->
<svg version="1.1" xmlns="http://www.w3.org/2000/svg" width="32" height="32" viewBox="0 0 32 32">
<title>xpa</title>
<path fill="#4fa784" d="M32 16c0 8.837-7.163 16-16 16s-16-7.163-16-16c0-8.837 7.163-16 16-16s16 7.163 16 16z"></path>
<path fill="#fff" d="M25.575 12.846l-8.11-2.324-2.774 4.725-3.222-3.737 1.46-0.188 1.505 1.768 1.67-2.959-7.35-2.107c-0.050-0.015-0.107-0.024-0.167-0.024-0.324 0-0.586 0.262-0.586 0.586 0 0.049 0.006 0.097 0.017 0.142l-0.001-0.004 3.256 13.076 3.497-5.888 3.222 3.737-1.46 0.188-1.504-1.768-3.31 5.517 0.49 1.97c0.067 0.257 0.298 0.444 0.572 0.444 0.159 0 0.303-0.063 0.409-0.164l-0 0 12.63-12.010c0.112-0.106 0.181-0.255 0.181-0.421 0-0.265-0.178-0.489-0.421-0.558l-0.004-0.001z"></path>
</svg>
