<!-- Generated by IcoMoon.io -->
<svg version="1.1" xmlns="http://www.w3.org/2000/svg" width="32" height="32" viewBox="0 0 32 32">
<title>xpm</title>
<path fill="#ffd81b" d="M32 16c0 8.837-7.163 16-16 16s-16-7.163-16-16c0-8.837 7.163-16 16-16s16 7.163 16 16z"></path>
<path fill="#fff" d="M24 15.562c0 4.423-3.426 5.927-6.31 5.927v1.153h2.225v1.562h-2.224v1.796h-3.48v-1.796h-2.127v-1.562h2.123v-1.168c-0.923 0-6.207-0.219-6.207-6.233v-7.241h3.455v7.518c0 3.139 2.766 3.11 2.766 3.11v-10.628h3.47v10.628s2.854 0.16 2.854-3.153v-7.475h3.455z"></path>
</svg>
