<!-- Generated by IcoMoon.io -->
<svg version="1.1" xmlns="http://www.w3.org/2000/svg" width="32" height="32" viewBox="0 0 32 32">
<title>xrp</title>
<path fill="#23292f" d="M32 16c0 8.837-7.163 16-16 16s-16-7.163-16-16c0-8.837 7.163-16 16-16s16 7.163 16 16z"></path>
<path fill="#fff" d="M23.070 8h2.89l-6.015 5.957c-1.014 1-2.407 1.617-3.945 1.617s-2.931-0.617-3.946-1.618l0.001 0.001-6.020-5.957h2.895l4.57 4.523c0.642 0.634 1.524 1.025 2.498 1.025s1.856-0.391 2.498-1.026l-0 0 4.574-4.523zM8.895 24.563h-2.895l6.055-5.993c1.014-1 2.408-1.617 3.945-1.617s2.931 0.617 3.946 1.618l-0.001-0.001 6.055 5.992h-2.895l-4.605-4.562c-0.642-0.634-1.524-1.025-2.498-1.025s-1.856 0.391-2.498 1.026l0-0-4.61 4.563z"></path>
</svg>
