<!-- Generated by IcoMoon.io -->
<svg version="1.1" xmlns="http://www.w3.org/2000/svg" width="32" height="32" viewBox="0 0 32 32">
<title>xtz</title>
<path fill="#a6e000" d="M16 32c-8.837 0-16-7.163-16-16s7.163-16 16-16 16 7.163 16 16-7.163 16-16 16zM18.19 26c0.993 0 1.917-0.206 2.771-0.619 0.836-0.399 1.498-1.050 1.899-1.855l0.011-0.023c0.397-0.781 0.629-1.703 0.629-2.679 0-0.016-0-0.033-0-0.049l0 0.003c-0.008-0.524-0.072-1.029-0.184-1.514l0.009 0.048c-0.108-0.55-0.353-1.123-0.734-1.719-0.38-0.603-0.923-1.077-1.63-1.42-0.699-0.352-1.328-0.527-1.887-0.527-0.36 0.032-0.692 0.113-1.002 0.237l0.024-0.008 5.171-5.086-0.839-0.825-8.431 0.023v-3.574l-0.815-0.412h-2.166v0.595l0.745 0.734v2.657h-3.261v1.169h3.26v6.277c0 0.916 0.265 1.642 0.793 2.176 0.528 0.535 1.483 0.802 2.865 0.802 0.559 0 1.071-0.153 1.537-0.458 0.466-0.306 0.83-0.748 1.095-1.329 0.022-0.086 0.042-0.195 0.056-0.305l0.002-0.015c0-0.002 0-0.004 0-0.006 0-0.162-0.062-0.309-0.163-0.419l0 0c-0.117-0.083-0.217-0.125-0.303-0.125-0.058 0.001-0.111 0.022-0.151 0.057l0-0c-0.052 0.038-0.092 0.088-0.116 0.147l-0.001 0.002c-0.247 0.348-0.54 0.644-0.874 0.885l-0.011 0.008c-0.341 0.245-0.699 0.367-1.071 0.367-0.482 0-0.839-0.168-1.072-0.504s-0.35-0.764-0.35-1.283v-6.277h6.383l-4.612 6.048v0.504l1.025-0.504c0.56-0.306 1.025-0.458 1.397-0.458 0.004-0 0.008-0 0.013-0 0.582 0 1.124 0.166 1.584 0.453l-0.013-0.007c0.49 0.298 0.858 0.756 1.107 1.375 0.256 0.61 0.384 1.348 0.384 2.21 0 0.795-0.117 1.505-0.35 2.131-0.232 0.626-0.593 1.1-1.082 1.42-0.453 0.302-1.011 0.482-1.61 0.482-0.012 0-0.023-0-0.034-0l0.002 0c-0.434 0-0.87-0.061-1.304-0.184-0.435-0.114-0.753-0.309-0.955-0.584 0.233-0.069 0.435-0.213 0.606-0.435s0.256-0.508 0.256-0.86c0-0.29-0.058-0.534-0.175-0.732-0.116-0.197-0.278-0.357-0.471-0.467l-0.006-0.003c-0.202-0.109-0.443-0.173-0.698-0.173-0.017 0-0.034 0-0.050 0.001l0.002-0c-0.295 0-0.543 0.058-0.745 0.172-0.199 0.113-0.361 0.273-0.474 0.464l-0.003 0.006c-0.117 0.198-0.175 0.443-0.175 0.733 0 0.794 0.334 1.535 1.001 2.222s1.732 1.031 3.191 1.031z"></path>
</svg>
