<!-- Generated by IcoMoon.io -->
<svg version="1.1" xmlns="http://www.w3.org/2000/svg" width="32" height="32" viewBox="0 0 32 32">
<title>xtz</title>
<path fill="#a6e000" d="M32 16c0 8.837-7.163 16-16 16s-16-7.163-16-16c0-8.837 7.163-16 16-16s16 7.163 16 16z"></path>
<path fill="#fff" d="M18.19 26c-1.46 0-2.524-0.344-3.192-1.030-0.667-0.688-1.001-1.429-1.001-2.223 0-0.29 0.058-0.535 0.175-0.733 0.116-0.197 0.278-0.357 0.471-0.467l0.006-0.003c0.202-0.114 0.45-0.172 0.745-0.172s0.544 0.058 0.746 0.172c0.202 0.115 0.36 0.271 0.477 0.47s0.175 0.443 0.175 0.733c0 0.351-0.085 0.637-0.256 0.859-0.149 0.203-0.356 0.356-0.598 0.433l-0.008 0.002c0.202 0.275 0.52 0.47 0.955 0.584 0.435 0.123 0.87 0.184 1.304 0.184 0.010 0 0.022 0 0.034 0 0.599 0 1.156-0.18 1.62-0.488l-0.011 0.007c0.489-0.321 0.85-0.795 1.082-1.42 0.233-0.627 0.35-1.337 0.35-2.131 0-0.863-0.128-1.6-0.384-2.211-0.249-0.619-0.618-1.077-1.107-1.375-0.447-0.28-0.989-0.446-1.571-0.446-0.005 0-0.009 0-0.014 0h0.001c-0.372 0-0.838 0.152-1.397 0.458l-1.025 0.504v-0.504l4.612-6.048h-6.382v6.277c0 0.52 0.116 0.947 0.35 1.283 0.232 0.336 0.59 0.504 1.070 0.504 0.373 0 0.73-0.122 1.072-0.367 0.345-0.249 0.638-0.545 0.877-0.881l0.008-0.012c0.025-0.061 0.065-0.112 0.116-0.149l0.001-0.001c0.040-0.034 0.093-0.056 0.151-0.056h0c0.086 0 0.186 0.042 0.303 0.125 0.101 0.11 0.163 0.257 0.163 0.419 0 0.002 0 0.004-0 0.006v-0c-0.016 0.125-0.036 0.234-0.062 0.341l0.004-0.020c-0.264 0.58-0.63 1.023-1.095 1.329-0.427 0.287-0.953 0.458-1.519 0.458-0.006 0-0.013-0-0.019-0h0.001c-1.382 0-2.337-0.267-2.865-0.802-0.528-0.534-0.792-1.26-0.792-2.176v-6.277h-3.261v-1.169h3.26v-2.656l-0.744-0.734v-0.596h2.166l0.815 0.412v3.574l8.431-0.023 0.84 0.825-5.172 5.086c0.286-0.116 0.618-0.198 0.964-0.229l0.014-0.001c0.56 0 1.188 0.176 1.887 0.528 0.707 0.343 1.25 0.817 1.63 1.42 0.381 0.596 0.626 1.169 0.734 1.719 0.103 0.437 0.167 0.942 0.175 1.46l0 0.006c0 0.014 0 0.030 0 0.047 0 0.976-0.232 1.898-0.645 2.714l0.016-0.034c-0.412 0.828-1.074 1.479-1.886 1.868l-0.024 0.010c-0.796 0.391-1.732 0.619-2.722 0.619-0.017 0-0.035-0-0.052-0l0.003 0z"></path>
</svg>
