<!-- Generated by IcoMoon.io -->
<svg version="1.1" xmlns="http://www.w3.org/2000/svg" width="32" height="32" viewBox="0 0 32 32">
<title>xuc</title>
<path fill="#25aae3" d="M32 16c0 8.837-7.163 16-16 16s-16-7.163-16-16c0-8.837 7.163-16 16-16s16 7.163 16 16z"></path>
<path fill="#fff" d="M27 16c0 6.075-4.925 11-11 11s-11-4.925-11-11c0-6.076 4.925-11 11-11s11 4.925 11 11zM23.23 16.346c0.007-0.125 0 0 0-0.127 0-3.607-2.665-6.811-6.122-7.35v-2.1l-2.24 0.698v1.403c-3.455 0.538-6.102 3.52-6.102 7.125 0 3.69 2.77 6.73 6.344 7.165v2.068l2.24-0.698v-1.446c2.541-0.504 4.573-2.284 5.425-4.63l0.016-0.050h-2.321c-0.874 1.61-2.551 2.685-4.48 2.685v0c-2.682-0.002-4.879-2.077-5.076-4.709l-0.001-0.017 12.318-0.017zM11.25 14.13c0.765-1.907 2.598-3.229 4.74-3.229 0 0 0 0 0 0h-0c2.141 0.002 3.972 1.324 4.725 3.196l0.012 0.034h-9.476z"></path>
</svg>
