<!-- Generated by IcoMoon.io -->
<svg version="1.1" xmlns="http://www.w3.org/2000/svg" width="32" height="32" viewBox="0 0 32 32">
<title>yfi</title>
<path fill="#006ae3" d="M32 16c0 8.837-7.163 16-16 16s-16-7.163-16-16c0-8.837 7.163-16 16-16s16 7.163 16 16z"></path>
<path fill="#fff" d="M15.21 22.36v-12.606h1.372v12.606z"></path>
<path fill="#fff" d="M22.197 13.954l-4.24 1.124-0.945-4.4 1.26-0.284 0.498 2.084s1.145-1.878-0.382-3.824c-0.9-1-1.327-1.042-2.336-1.2-0.888-0.127-2.952 0.173-3.567 2.582-0.26 1.552 0.033 2.7 2.033 4.203l-0.112 1.673s-2.233-1.573-2.809-2.676c-0.445-0.873-1.21-2.597 0.17-4.997 0.742-1.2 2.206-2.351 4.785-2.23 1.296 0.054 4.463 1.64 3.972 5.342-0.085 0.694-0.445 1.618-0.445 1.618l1.74-0.387 0.378 1.372zM19.776 23.818c-0.776 1.179-2.27 2.29-4.843 2.103-1.297-0.088-4.418-1.758-3.83-5.446 0.103-0.69 0.488-1.603 0.488-1.603l-1.749 0.34-0.342-1.379 4.27-1.012 0.83 4.424-1.27 0.252-0.442-2.1s-1.194 1.845 0.279 3.833c0.872 1.024 1.297 1.076 2.306 1.26 0.882 0.152 2.954-0.096 3.633-2.487 0.3-1.543 0.036-2.7-1.921-4.258l0.157-1.67s2.191 1.63 2.737 2.749c0.418 0.888 1.136 2.633-0.303 4.994z"></path>
</svg>
