<!-- Generated by IcoMoon.io -->
<svg version="1.1" xmlns="http://www.w3.org/2000/svg" width="32" height="32" viewBox="0 0 32 32">
<title>yoyow</title>
<path fill="#21a5de" d="M32 16c0 8.837-7.163 16-16 16s-16-7.163-16-16c0-8.837 7.163-16 16-16s16 7.163 16 16z"></path>
<path fill="#fff" d="M21.49 16.575c0.34 0.364 0.546 0.849 0.546 1.381 0 1.129-0.928 2.044-2.072 2.044s-2.070-0.915-2.070-2.044c0-0.532 0.206-1.017 0.544-1.381-0.124 0.096-0.281 0.153-0.452 0.153-0.405 0-0.735-0.324-0.743-0.728v-0.001c0-0 0-0.001 0-0.001 0-0.17 0.059-0.327 0.158-0.45l-0.001 0.001c-0.369 0.334-0.86 0.538-1.4 0.538s-1.031-0.204-1.4-0.538c0.098 0.122 0.157 0.278 0.157 0.449 0 0 0 0.001 0 0.001v-0c0 0.403-0.33 0.73-0.74 0.73-0 0-0.001 0-0.001 0-0.172 0-0.33-0.058-0.456-0.156l0.002 0.001c0.338 0.364 0.545 0.849 0.545 1.381 0 1.129-0.928 2.044-2.071 2.044-1.144 0-2.072-0.915-2.072-2.044 0-0.532 0.207-1.017 0.545-1.381-0.124 0.096-0.281 0.153-0.452 0.153-0.405 0-0.735-0.324-0.743-0.728v-0.001c0-0 0-0.001 0-0.001 0-0.17 0.059-0.327 0.158-0.45l-0.001 0.001c-0.369 0.334-0.86 0.538-1.4 0.538-1.144 0-2.071-0.915-2.071-2.044s0.927-2.044 2.071-2.044c1.144 0 2.071 0.915 2.071 2.044 0 0 0 0.001 0 0.001 0 0.534-0.207 1.020-0.546 1.381l0.001-0.001c0.124-0.096 0.282-0.154 0.453-0.154 0.405 0 0.735 0.325 0.743 0.728v0.001c0 0 0 0.001 0 0.001 0 0.17-0.059 0.327-0.158 0.45l0.001-0.001c0.368-0.334 0.86-0.538 1.4-0.538s1.030 0.204 1.4 0.538c-0.098-0.122-0.158-0.279-0.158-0.45v0c-0.177-0.137-0.29-0.35-0.29-0.589 0-0.41 0.333-0.743 0.743-0.743s0.743 0.333 0.743 0.743c0 0.005-0 0.010-0 0.015v-0.001c-0.338-0.36-0.545-0.846-0.545-1.381 0-0 0-0 0-0v0c0-1.129 0.927-2.044 2.071-2.044s2.071 0.915 2.071 2.044c0 0 0 0.001 0 0.001 0 0.534-0.207 1.020-0.546 1.381l0.001-0.001c0.124-0.096 0.282-0.154 0.453-0.154 0.405 0 0.735 0.325 0.743 0.728v0.001c0 0 0 0.001 0 0.001 0 0.17-0.059 0.327-0.158 0.45l0.001-0.001c0.368-0.334 0.86-0.538 1.4-0.538s1.030 0.204 1.4 0.538c-0.098-0.122-0.158-0.279-0.158-0.45v0c-0.177-0.137-0.29-0.35-0.29-0.589 0-0.41 0.333-0.743 0.743-0.743s0.743 0.333 0.743 0.743c0 0.005-0 0.010-0 0.015v-0.001c-0.338-0.36-0.545-0.846-0.545-1.381 0-0 0-0 0-0v0c0-1.129 0.927-2.044 2.071-2.044s2.071 0.915 2.071 2.044-0.927 2.044-2.071 2.044c-0.54 0-1.031-0.204-1.4-0.538 0.098 0.122 0.157 0.278 0.157 0.449 0 0 0 0.001 0 0.001v-0c0 0.403-0.33 0.73-0.74 0.73-0 0-0 0-0.001 0-0.172 0-0.33-0.058-0.456-0.156l0.002 0.001z"></path>
</svg>
