<!-- Generated by IcoMoon.io -->
<svg version="1.1" xmlns="http://www.w3.org/2000/svg" width="32" height="32" viewBox="0 0 32 32">
<title>zcl</title>
<path fill="#c87035" d="M32 16c0 8.837-7.163 16-16 16s-16-7.163-16-16c0-8.837 7.163-16 16-16s16 7.163 16 16z"></path>
<path fill="#fff" d="M15.992 27c-6.075-0.004-10.992-4.93-10.992-11.014 0-6.071 4.932-10.99 11.015-10.986 6.065 0.004 10.993 4.934 10.985 11.002-0.012 6.002-4.836 10.99-11.008 10.998zM11.509 21.030c0.031-0.059 0.055-0.106 0.078-0.144 0.984-1.736 1.97-3.47 2.956-5.202 0.864-1.518 1.726-3.038 2.585-4.558 0.022-0.054 0.074-0.091 0.135-0.091 0.005 0 0.010 0 0.015 0.001l-0.001-0c1.004 0.005 2.012 0.005 3.015 0.005h0.143c-1.394 2.46-2.778 4.903-4.173 7.36 0.050 0.004 0.078 0.004 0.105 0.004 2.519 0 5.036 0.001 7.552 0.004 0.085 0 0.112-0.031 0.131-0.105 0.2-0.68 0.315-1.461 0.315-2.268 0-0.659-0.077-1.3-0.221-1.915l0.011 0.056c-0.376-1.65-1.201-3.043-2.418-4.208-0.53-0.506-1.135-0.938-1.797-1.277l-0.043-0.020c-1.674-0.854-3.437-1.125-5.285-0.8-1.84 0.327-3.39 1.196-4.661 2.57-0.167 0.18-0.318 0.373-0.477 0.56 0.004 0.011 0.012 0.020 0.016 0.030h7.18c-0.040 0.075-0.067 0.129-0.098 0.18-0.437 0.776-0.88 1.548-1.313 2.325-0.032 0.070-0.101 0.117-0.181 0.117-0.008 0-0.015-0-0.022-0.001l0.001 0c-2.262-0.004-4.524-0.005-6.784-0.004h-0.136c-1.146 3.603 0.473 8.122 4.534 9.93 3.932 1.756 8.055 0.14 9.988-2.557-3.715 0.007-7.432 0.010-11.15 0.007zM24.152 22.928c1.395-1.55 2.635-4.1 2.557-7.163-0.062-2.523-0.926-4.74-2.541-6.7-0.504 0.508-0.996 1.001-1.484 1.494 2.56 3.079 2.67 7.632 0.027 10.901z"></path>
</svg>
