<!-- Generated by IcoMoon.io -->
<svg version="1.1" xmlns="http://www.w3.org/2000/svg" width="32" height="32" viewBox="0 0 32 32">
<title>zec</title>
<path fill="#ecb244" d="M32 16c0 8.837-7.163 16-16 16s-16-7.163-16-16c0-8.837 7.163-16 16-16s16 7.163 16 16z"></path>
<path fill="#fff" d="M15.096 19.846h6.297v3.35h-3.875c0.064 0.958 0.097 1.847 0.161 2.804h-3.261v-2.77h-3.876c0-1.093-0.129-2.187 0.065-3.213 0.097-0.547 0.678-1.026 1.033-1.504 1.901-2.39 3.117-3.88 4.341-5.363l-0.627 0.782c0.485-0.582 0.969-1.129 1.518-1.778h-6.040v-3.35h3.586v-2.804h3.132v2.735h3.908c0 1.128 0.129 2.222-0.065 3.248-0.097 0.547-0.678 1.026-1.065 1.504-1.901 2.39-3.117 3.88-4.341 5.363l0.627-0.782c-0.534 0.665-1.031 1.244-1.544 1.807l0.026-0.029z"></path>
</svg>
