<!-- Generated by IcoMoon.io -->
<svg version="1.1" xmlns="http://www.w3.org/2000/svg" width="32" height="32" viewBox="0 0 32 32">
<title>zel</title>
<path fill="#183c87" d="M32 16c0 8.837-7.163 16-16 16s-16-7.163-16-16c0-8.837 7.163-16 16-16s16 7.163 16 16z"></path>
<path fill="#fff" d="M5 15.615l4.495-2.538 4.494 2.538v4.847l-4.494 2.538-4.495-2.538v-4.847zM18.010 15.615l4.495-2.538 4.495 2.538v4.847l-4.495 2.538-4.494-2.538v-4.847zM17.538 19.825l-1.577 0.867-1.499-0.823v-4.639l-4.1-2.316v-1.684l5.599-3.23 5.598 3.23v1.73l-4.021 2.27v4.596z"></path>
</svg>
