<!-- Generated by IcoMoon.io -->
<svg version="1.1" xmlns="http://www.w3.org/2000/svg" width="32" height="32" viewBox="0 0 32 32">
<title>zen</title>
<path fill="#00eaab" d="M32 16c0 8.837-7.163 16-16 16s-16-7.163-16-16c0-8.837 7.163-16 16-16s16 7.163 16 16z"></path>
<path fill="#fff" d="M24.8 9.568l-1.78 2.77c0.54 1.036 0.856 2.261 0.856 3.561 0 0.012-0 0.024-0 0.036v-0.002c0 4.4-3.56 7.943-7.943 7.943-0.010 0-0.023 0-0.035 0-1.293 0-2.513-0.317-3.585-0.876l0.043 0.020-2.788 1.797c1.797 1.276 3.98 2.049 6.348 2.049 6.029 0 10.933-4.887 10.933-10.933 0-2.385-0.756-4.568-2.049-6.365z"></path>
<path fill="#fff" d="M15.933 21.39c2.674-0 4.901-1.915 5.385-4.449l0.005-0.034c-0.797-0.181-1.713-0.285-2.653-0.285-2.737 0-5.268 0.882-7.325 2.376l0.036-0.025c0.994 1.467 2.652 2.418 4.533 2.418 0.007 0 0.013 0 0.020-0h-0.001z"></path>
<path fill="#fff" d="M18.62 15.63c0.957 0 1.88 0.101 2.788 0.303-0.001-3.033-2.459-5.491-5.492-5.492h-0c-3.025 0.003-5.476 2.455-5.476 5.48 0 0.265 0.019 0.525 0.055 0.779l-0.003-0.029c-1.377 1.059-2.032 1.882-2.066 1.915-0.284-0.785-0.45-1.691-0.453-2.635v-0.001c0-4.4 3.56-7.944 7.943-7.944 1.293 0 2.502 0.302 3.577 0.857l2.771-1.797c-1.742-1.291-3.934-2.066-6.306-2.066-0.009 0-0.017 0-0.026 0h0.001c-0.003 0-0.007 0-0.010 0-6.033 0-10.923 4.89-10.923 10.923 0 0.004 0 0.007 0 0.011v-0.001c0 2.435 0.79 4.669 2.133 6.482 0.52-0.94 1.142-1.797 1.864-2.57 0 0 1.075-1.124 1.898-1.695 2.13-1.574 4.807-2.52 7.706-2.52 0.007 0 0.014 0 0.020 0h-0.001z"></path>
</svg>
