<!-- Generated by IcoMoon.io -->
<svg version="1.1" xmlns="http://www.w3.org/2000/svg" width="32" height="32" viewBox="0 0 32 32">
<title>zil</title>
<path fill="#49c1bf" d="M32 16c0 8.837-7.163 16-16 16s-16-7.163-16-16c0-8.837 7.163-16 16-16s16 7.163 16 16z"></path>
<path fill="#fff" opacity="0.304" d="M9 7.281l11.114 5.383 2.845-1.282-11.068-5.382z"></path>
<path fill="#fff" opacity="0.646" d="M20.114 12.651l2.845-1.281v2.865l-2.845 1.281zM20.114 25.935v-8.937l2.845-1.295v8.951z"></path>
<path fill="#fff" d="M9 7.284v2.897l7.693 3.737-7.693 3.81v2.856l11.114 5.373v-2.874l-7.548-3.671 7.548-3.881v-2.865z"></path>
</svg>
