<!-- Generated by IcoMoon.io -->
<svg version="1.1" xmlns="http://www.w3.org/2000/svg" width="32" height="32" viewBox="0 0 32 32">
<title>zil</title>
<path fill="#49c1bf" d="M16 32c-8.837 0-16-7.163-16-16s7.163-16 16-16 16 7.163 16 16-7.163 16-16 16zM11.89 6l-2.89 1.284v2.897l7.693 3.737-7.693 3.81v2.856l11.114 5.351 2.845-1.281v-8.951l-2.845 1.295v6.085l-7.548-3.67 7.548-3.897 2.845-1.281-0.013-2.86z"></path>
<path fill="#49c1bf" opacity="0.3" d="M9 7.281l11.114 5.383 2.845-1.282-11.068-5.382z"></path>
<path fill="#49c1bf" opacity="0.65" d="M20.114 12.651l2.845-1.281v2.865l-2.845 1.281zM20.114 25.935v-8.937l2.845-1.295v8.951z"></path>
</svg>
