<!-- Generated by IcoMoon.io -->
<svg version="1.1" xmlns="http://www.w3.org/2000/svg" width="32" height="32" viewBox="0 0 32 32">
<title>zrx</title>
<path fill="#302c2c" d="M32 16c0 8.837-7.163 16-16 16s-16-7.163-16-16c0-8.837 7.163-16 16-16s16 7.163 16 16z"></path>
<path fill="#fff" d="M15.496 27c-0.27-0.028-0.54-0.053-0.81-0.085-1.54-0.188-2.935-0.671-4.174-1.392l0.052 0.028c-0.019-0.010-0.036-0.025-0.073-0.050 2.206-1.65 4.402-3.29 6.61-4.94l0.665 0.647c0.37 0.362 0.742 0.72 1.105 1.087 0.090 0.090 0.155 0.089 0.26 0.035 1.116-0.565 2.035-1.376 2.712-2.365l0.016-0.025 0.107-0.158c0.031 0.036 0.060 0.065 0.084 0.097 0.767 1.022 1.533 2.044 2.303 3.063 0.067 0.088 0.059 0.14-0.012 0.22-1.783 2.026-3.999 3.274-6.67 3.701-0.336 0.054-0.677 0.074-1.016 0.111-0.045 0.005-0.090 0.017-0.134 0.026h-1.025zM16.466 5c0.186 0.019 0.373 0.039 0.56 0.056 1.576 0.15 3.050 0.617 4.423 1.4 0.020 0.012 0.037 0.026 0.070 0.050l-6.718 4.819c-0.089-0.084-0.175-0.164-0.26-0.247-0.472-0.46-0.946-0.919-1.415-1.383-0.075-0.074-0.132-0.082-0.226-0.035-1.136 0.569-2.070 1.392-2.754 2.399l-0.016 0.025-0.1 0.15-2.468-3.288c0.249-0.264 0.479-0.527 0.728-0.77 1.623-1.583 3.55-2.59 5.783-2.995 0.43-0.078 0.869-0.104 1.304-0.155 0.049-0.005 0.098-0.017 0.146-0.026h0.942zM6.458 10.534l4.995 6.548-1.008 1.034c-0.251 0.257-0.5 0.517-0.756 0.77-0.072 0.072-0.075 0.127-0.031 0.215 0.568 1.136 1.391 2.071 2.398 2.754l0.025 0.016c0.035 0.022 0.070 0.045 0.103 0.070 0.006 0.004 0.009 0.014 0.027 0.048l-3.261 2.446c-1.95-1.679-3.215-3.748-3.723-6.257-0.544-2.686-0.103-5.224 1.232-7.644zM20.633 14.904l0.918-0.953c0.256-0.266 0.508-0.535 0.77-0.794 0.082-0.081 0.081-0.142 0.033-0.238-0.572-1.15-1.404-2.094-2.425-2.782l-0.025-0.016c-0.037-0.025-0.073-0.052-0.136-0.097l3.279-2.46c1.857 1.59 3.090 3.55 3.656 5.915 0.707 2.952 0.077 5.872-1.147 7.928l-4.923-6.503z"></path>
</svg>
