<!-- Generated by IcoMoon.io -->
<svg version="1.1" xmlns="http://www.w3.org/2000/svg" width="32" height="32" viewBox="0 0 32 32">
<title>aave</title>
<path fill="#fff" d="M16 0c-8.8 0-16 7.2-16 16s7.2 16 16 16 16-7.2 16-16-7.2-16-16-16zM24.6 24.5c-0.2 0.2-0.6 0.4-0.9 0.4s-0.5-0.1-0.7-0.2c-0.2-0.2-0.4-0.4-0.5-0.6l-6.5-16.4-2.4 6h1.2c0.7 0 1.2 0.6 1.2 1.2v0c0 0.7-0.6 1.2-1.2 1.2h-2.2l-3.1 7.9c-0.1 0.2-0.3 0.5-0.5 0.6s-0.5 0.2-0.7 0.2c-0.3 0-0.7-0.1-0.9-0.4-0.2-0.2-0.4-0.5-0.4-0.9 0-0.2 0-0.3 0.1-0.5l2.8-6.9h-1.1c-0.7 0-1.2-0.6-1.2-1.2v0c0-0.7 0.5-1.2 1.2-1.2h2.2l3-7.2c0.2-0.7 0.9-1.3 1.7-1.3h0.6c0.8 0 1.5 0.5 1.7 1.3l6.8 16.6c0.1 0.1 0.1 0.3 0.1 0.5 0.1 0.3-0.1 0.6-0.3 0.9z"></path>
</svg>
