<!-- Generated by IcoMoon.io -->
<svg version="1.1" xmlns="http://www.w3.org/2000/svg" width="32" height="32" viewBox="0 0 32 32">
<title>aion</title>
<path fill="#fff" d="M16 32c-8.837 0-16-7.163-16-16s7.163-16 16-16 16 7.163 16 16-7.163 16-16 16zM15.971 23.15c3.957 0 7.176-3.199 7.176-7.13s-3.219-7.13-7.176-7.13-7.176 3.198-7.176 7.13c0 3.931 3.22 7.13 7.176 7.13zM15.971 10.286c3.182 0 5.77 2.572 5.77 5.734s-2.588 5.733-5.77 5.733c-3.181 0-5.77-2.572-5.77-5.733s2.589-5.734 5.77-5.734zM20.996 7.871l0.736-1.19c-1.638-1.013-3.624-1.614-5.751-1.614-0.003 0-0.006 0-0.009 0h0.001c-1.874 0-3.724 0.476-5.35 1.375l0.683 1.221c1.345-0.754 2.952-1.198 4.662-1.198 0.001 0 0.003 0 0.004 0h-0c1.78 0 3.517 0.486 5.025 1.406zM23.091 24.381c2.392-2.015 3.902-5.012 3.902-8.361v-0h-1.406c-0.001 2.922-1.318 5.536-3.391 7.282l-0.014 0.012 0.909 1.067zM15.971 26.971c1.762 0 3.516-0.423 5.070-1.224l-0.648-1.24c-1.275 0.673-2.787 1.068-4.39 1.068-0.011 0-0.022-0-0.033-0h0.002c-2.33-0-4.468-0.825-6.137-2.198l0.017 0.013-0.896 1.076c1.894 1.559 4.345 2.505 7.016 2.506h0zM25.351 13.425l1.128-0.31c-0.441-1.553-1.172-2.9-2.138-4.042l0.013 0.016-0.9 0.745c0.851 1.004 1.503 2.206 1.881 3.524l0.017 0.067zM6.86 21.976l0.978-0.64c-1.003-1.491-1.601-3.328-1.601-5.304 0-0.004 0-0.008 0-0.012v0.001c-0-0.008-0-0.018-0-0.028 0-2.722 1.137-5.178 2.962-6.92l0.004-0.004-0.814-0.837c-2.049 1.956-3.323 4.708-3.323 7.758 0 0.011 0 0.022 0 0.033v-0.002c0 2.127 0.62 4.187 1.793 5.956z"></path>
<path fill="#fff" opacity="0.5" d="M25.35 13.425c-0.393-1.385-1.046-2.586-1.908-3.604l0.012 0.014 0.9-0.746c0.953 1.126 1.684 2.472 2.107 3.949l0.018 0.076-1.128 0.311zM6.86 21.976c-1.123-1.671-1.793-3.728-1.793-5.942 0-0.005 0-0.010 0-0.015v0.001c0-2.962 1.18-5.728 3.323-7.789l0.814 0.837c-1.829 1.745-2.966 4.202-2.966 6.924 0 0.010 0 0.020 0 0.030v-0.002c0 1.899 0.554 3.737 1.6 5.316l-0.978 0.64z"></path>
</svg>
