<!-- Generated by IcoMoon.io -->
<svg version="1.1" xmlns="http://www.w3.org/2000/svg" width="32" height="32" viewBox="0 0 32 32">
<title>appc</title>
<path fill="#fff" d="M16 32c-8.837 0-16-7.163-16-16s7.163-16 16-16 16 7.163 16 16-7.163 16-16 16zM23.772 21.883l-1.973-5.309h1.178c0 0 0.001 0 0.001 0 0.464 0 0.842-0.373 0.849-0.835v-0.001c0-0.21-0.086-0.413-0.237-0.561s-0.358-0.233-0.573-0.233h-1.84l-0.295-0.826h2.095c0.002 0 0.005 0 0.008 0 0.452 0 0.821-0.358 0.838-0.805l0-0.002c0.001-0.222-0.088-0.434-0.248-0.59s-0.376-0.244-0.602-0.243h-2.72l-1.473-3.968c-0.232-0.585-0.593-1.077-1.051-1.456l-0.006-0.005c-0.424-0.343-0.97-0.55-1.564-0.55-0.035 0-0.069 0.001-0.104 0.002l0.005-0c-0.025-0.001-0.054-0.001-0.083-0.001-0.602 0-1.155 0.207-1.593 0.553l0.005-0.004c-0.463 0.385-0.826 0.875-1.051 1.436l-0.009 0.024-1.543 4.004h-2.704c-0.002-0-0.005-0-0.007-0-0.443 0-0.803 0.355-0.81 0.796v0.001c0 0.458 0.379 0.829 0.847 0.829h2.053l-0.316 0.804h-1.84c-0.003-0-0.006-0-0.009-0-0.444 0-0.804 0.357-0.809 0.8v0c0 0.454 0.374 0.821 0.836 0.823h1.181l-2.006 5.316c-0.123 0.3-0.191 0.618-0.202 0.941 0.020 0.453 0.222 0.88 0.56 1.19 0.353 0.3 0.814 0.483 1.318 0.483 0.008 0 0.015-0 0.023-0h-0.001c0.032 0.002 0.070 0.003 0.108 0.003 0.819 0 1.51-0.547 1.728-1.296l0.003-0.013 0.776-2.269h7.144l0.777 2.323c0.246 0.729 0.924 1.244 1.721 1.244 0.042 0 0.083-0.001 0.124-0.004l-0.006 0c0.31 0.007 0.615-0.070 0.884-0.22 0.233-0.17 0.44-0.37 0.614-0.598 0.141-0.234 0.225-0.516 0.225-0.819 0-0.009-0-0.018-0-0.027l0 0.001c-0.055-0.353-0.135-0.665-0.24-0.965l0.012 0.038zM13.66 17.386l2.385-7.112 2.43 7.112z"></path>
</svg>
