<!-- Generated by IcoMoon.io -->
<svg version="1.1" xmlns="http://www.w3.org/2000/svg" width="32" height="32" viewBox="0 0 32 32">
<title>ary</title>
<path fill="#fff" d="M16 32c-8.837 0-16-7.163-16-16s7.163-16 16-16 16 7.163 16 16-7.163 16-16 16zM23.917 21.11l-7.589 2.733c-0.088 0.036-0.19 0.057-0.297 0.057s-0.209-0.021-0.303-0.059l-7.608-2.731c-0.35-0.133-0.595-0.465-0.595-0.855 0-0.002 0-0.003 0-0.005v1.1c-0 0.004-0 0.009-0 0.013 0 0.388 0.245 0.718 0.589 0.845l0.006 0.002 7.588 2.733c0.199 0.076 0.41 0.076 0.596 0l7.588-2.732c0.35-0.133 0.595-0.465 0.595-0.855 0-0.002 0-0.003 0-0.005v0-1.1c0.001 0.017 0.002 0.038 0.002 0.058 0 0.369-0.236 0.684-0.566 0.8l-0.006 0.002zM23.917 19.162l-7.589 2.733c-0.088 0.036-0.19 0.057-0.297 0.057s-0.209-0.021-0.303-0.059l-7.608-2.731c-0.351-0.138-0.595-0.474-0.595-0.867 0-0.002 0-0.004 0-0.005v1.113c-0 0.004-0 0.009-0 0.013 0 0.388 0.245 0.718 0.589 0.845l0.006 0.002 7.588 2.732c0.199 0.076 0.41 0.076 0.596 0l7.588-2.732c0.35-0.133 0.595-0.465 0.595-0.855 0-0.002 0-0.003 0-0.005v0-1.1c0.001 0.013 0.001 0.029 0.001 0.044 0 0.373-0.235 0.691-0.565 0.814l-0.006 0.002zM23.917 17.202l-7.589 2.732c-0.088 0.036-0.19 0.057-0.297 0.057s-0.209-0.021-0.303-0.059l-7.608-2.73c-0.35-0.133-0.595-0.465-0.595-0.855 0-0.002 0-0.003 0-0.005v1.1c-0 0.004-0 0.009-0 0.013 0 0.388 0.245 0.718 0.589 0.845l0.006 0.002 7.6 2.745c0.2 0.076 0.41 0.076 0.596 0l7.588-2.732c0.351-0.132 0.596-0.465 0.596-0.855 0-0.002 0-0.003 0-0.005v0-1.1c0 0.006 0 0.012 0 0.019 0 0.38-0.24 0.703-0.577 0.826l-0.006 0.002zM7.5 10.662v4.832c-0 0.004-0 0.009-0 0.013 0 0.388 0.245 0.718 0.589 0.845l0.006 0.002 7.589 2.732c0.088 0.036 0.19 0.057 0.297 0.057s0.209-0.021 0.303-0.059l7.608-2.73c0.35-0.133 0.595-0.465 0.595-0.855 0-0.002 0-0.003 0-0.005v0-4.832c0-0.004 0-0.009 0-0.013 0-0.388-0.245-0.718-0.589-0.845l-0.006-0.002-7.6-2.745c-0.088-0.036-0.191-0.057-0.298-0.057s-0.21 0.021-0.303 0.059l0.005-0.002-7.6 2.745c-0.351 0.128-0.596 0.459-0.596 0.847 0 0.005 0 0.009 0 0.014v-0.001z"></path>
</svg>
