<!-- Generated by IcoMoon.io -->
<svg version="1.1" xmlns="http://www.w3.org/2000/svg" width="32" height="32" viewBox="0 0 32 32">
<title>atm</title>
<path fill="#fff" d="M20.167 18.702c1.266-0.78 2.097-2.159 2.097-3.732 0-0.751-0.189-1.457-0.523-2.074l0.011 0.023-3.223-6.062c-0.75-1.389-2.195-2.318-3.857-2.318-0.751 0-1.457 0.189-2.075 0.523l0.023-0.011-0.124 0.066c-1.389 0.75-2.317 2.195-2.317 3.857 0 0.751 0.189 1.457 0.523 2.074l-0.011-0.023 0.956 1.798c0.072-0.044 0.145-0.086 0.22-0.126l0.124-0.066c0.594-0.322 1.301-0.512 2.052-0.512 1.662 0 3.108 0.928 3.846 2.294l0.011 0.023 2.267 4.265zM16 32c-8.837 0-16-7.163-16-16s7.163-16 16-16 16 7.163 16 16-7.163 16-16 16zM20.167 18.702c-0.052 0.033-0.124 0.075-0.197 0.114l-0.023 0.012-0.124 0.065c-0.594 0.322-1.301 0.512-2.052 0.512-1.662 0-3.107-0.928-3.846-2.294l-0.011-0.023-2.267-4.264c-1.266 0.78-2.097 2.159-2.097 3.732 0 0.75 0.189 1.456 0.522 2.073l-0.011-0.023 3.222 6.060c0.75 1.389 2.195 2.317 3.857 2.317 0.751 0 1.457-0.189 2.074-0.523l-0.023 0.011 0.124-0.066c1.39-0.75 2.318-2.195 2.318-3.858 0-0.75-0.189-1.457-0.522-2.073l0.011 0.023-0.955-1.795z"></path>
</svg>
