<!-- Generated by IcoMoon.io -->
<svg version="1.1" xmlns="http://www.w3.org/2000/svg" width="32" height="32" viewBox="0 0 32 32">
<title>atom</title>
<path fill="#fff" d="M16 32c-8.837 0-16-7.163-16-16s7.163-16 16-16 16 7.163 16 16-7.163 16-16 16zM14.395 23.582c0.421 1.813 0.994 2.927 1.625 2.927 0.995 0 1.846-2.776 2.186-6.693 3.56 1.67 6.39 2.324 6.89 1.461 0.499-0.861-1.477-2.99-4.695-5.248 3.23-2.245 5.213-4.365 4.718-5.23-0.32-0.557-1.614-0.486-3.45 0.078-0.124-0.216-0.352-0.359-0.614-0.361h-0c-0.398 0.006-0.718 0.329-0.718 0.728 0 0.032 0.002 0.064 0.006 0.096l-0-0.004c-0.67 0.254-1.386 0.558-2.135 0.905-0.34-3.926-1.191-6.71-2.188-6.71s-1.846 2.776-2.186 6.692c-3.56-1.669-6.391-2.323-6.89-1.46-0.312 0.54 0.344 1.576 1.669 2.828-0.014 0.055-0.022 0.118-0.022 0.182 0 0 0 0.001 0 0.001v-0c0 0.409 0.32 0.74 0.715 0.74 0.001 0 0.001 0 0.002 0 0.102 0 0.199-0.022 0.286-0.062l-0.004 0.002c0.594 0.495 1.261 1.006 1.949 1.49l0.1 0.067c-3.23 2.245-5.213 4.365-4.717 5.23 0.496 0.864 3.335 0.217 6.91-1.442 0.076 0.879 0.178 1.701 0.3 2.448-0.188 0.137-0.309 0.357-0.309 0.605 0 0.002 0 0.003 0 0.005v-0c0 0.357 0.246 0.656 0.572 0.725zM14.859 23.519c0.237-0.127 0.396-0.374 0.396-0.657 0-0.002 0-0.004-0-0.006v0c0-0.003 0-0.007 0-0.011 0-0.384-0.296-0.698-0.672-0.728l-0.003-0c-0.124-0.8-0.212-1.671-0.273-2.543 0.822-0.391 1.38-0.68 1.932-0.982l-0.227 0.113c0.592 0.32 1.173 0.619 1.738 0.893-0.112 1.183-0.246 2.18-0.412 3.165l0.035-0.253c-0.497 2.814-1.192 3.406-1.192 3.406-0.148 0.198-0.297 0.050-0.297 0.050-0.596-0.692-0.894-1.975-0.894-1.975-0.032-0.091-0.077-0.249-0.118-0.409l-0.014-0.064zM9.942 14.114c0.050-0.099 0.080-0.215 0.080-0.339 0-0 0-0.001 0-0.001v0c0-0.41-0.32-0.74-0.716-0.74-0 0-0 0-0 0-0.161 0-0.309 0.055-0.427 0.146l0.002-0.001c-1.386-1.33-1.505-1.981-1.505-1.981v-0.002c-0.097-0.228 0.106-0.283 0.106-0.283 0.897-0.17 2.157 0.217 2.157 0.217 1.185 0.27 2.69 0.904 4.154 1.618-0.041 0.519-0.077 1.188-0.097 1.86l-0.002 0.064c-0.571 0.35-1.119 0.702-1.637 1.053-0.837-0.6-1.526-1.128-2.198-1.676l0.083 0.066zM20.56 11.79c0.127 0.128 0.302 0.207 0.496 0.207h0c0.356 0 0.651-0.27 0.706-0.622 1.83-0.574 2.572-0.507 2.832-0.436 0.079 0.022 0.136 0.094 0.136 0.178 0 0.007-0 0.014-0.001 0.020l0-0.001c-0.050 0.537-1 1.507-1 1.507-1.123 1.109-2.338 2.131-3.63 3.052l-0.090 0.061c-0.388-0.273-0.931-0.63-1.481-0.974l-0.182-0.106c-0.021-0.738-0.056-1.411-0.106-2.079l0.009 0.144c0.497-0.239 1.259-0.56 2.033-0.858l0.277-0.094zM19.986 16.314c3.981 2.888 4.625 4.191 4.726 4.578 0.004 0.014 0.006 0.030 0.006 0.046 0 0.075-0.044 0.139-0.108 0.168l-0.001 0c-0.49 0.225-1.805-0.11-1.805-0.11-1.775-0.491-3.289-1.057-4.739-1.737l0.181 0.076c0.047-0.631 0.080-1.29 0.1-1.967 0.573-0.35 1.12-0.704 1.64-1.055zM13.683 16.832c-0.541-0.347-0.929-0.611-1.312-0.881l0.121 0.081c0.4-0.263 0.8-0.518 1.19-0.76-0.004 0.223-0.006 0.486-0.006 0.75 0 0.285 0.002 0.569 0.008 0.853l-0.001-0.043zM13.695 17.362c0.020 0.667 0.052 1.314 0.098 1.936-0.621 0.3-1.522 0.68-2.438 1.029l-0.292 0.098c-2.687 0.968-3.547 0.66-3.547 0.66-0.246-0.030-0.19-0.234-0.19-0.234 0.302-0.86 1.266-1.758 1.266-1.758 0.827-0.89 2.13-1.875 3.48-2.783 0.514 0.35 1.057 0.703 1.623 1.053zM18.359 15.242c0.513 0.305 0.818 0.496 0.818 0.496 0.146 0.103 0.289 0.203 0.427 0.302-0.477 0.328-0.9 0.602-1.246 0.816 0.005-0.249 0.007-0.543 0.007-0.837 0-0.274-0.002-0.547-0.007-0.819l0.001 0.041zM17.796 19.126c-0.521-0.247-0.97-0.477-1.326-0.667 0.711-0.387 1.177-0.658 1.638-0.937l-0.212 0.119c-0.024 0.512-0.060 1.012-0.1 1.485zM14.211 17.676c0.223 0.145 0.662 0.402 1.104 0.653l0.237 0.123c-0.434 0.223-0.864 0.432-1.276 0.624-0.022-0.333-0.046-0.82-0.063-1.309l-0.002-0.091zM14.195 17.156c-0.015-0.55-0.024-1.198-0.024-1.848 0-0.118 0-0.236 0.001-0.354l-0 0.018c0.281-0.186 0.88-0.543 1.483-0.891l0.349-0.185c0.732 0.4 1.392 0.778 1.918 1.086 0.004 0.334 0 0.52 0 0.52 0.006 0.212 0.010 0.462 0.010 0.713 0 0.32-0.006 0.638-0.017 0.955l0.001-0.046c-0.317 0.19-0.5 0.288-0.5 0.288-0.335 0.212-0.793 0.477-1.259 0.729l-0.142 0.070c-0.323-0.18-0.5-0.29-0.5-0.29-0.574-0.31-1.005-0.564-1.428-0.829l0.108 0.063zM16.522 13.605c0.52-0.29 0.839-0.458 0.839-0.458 0.156-0.073 0.31-0.144 0.46-0.212 0.047 0.571 0.073 1.071 0.087 1.474-0.24-0.155-0.693-0.422-1.15-0.681l-0.236-0.123zM14.238 12.969c0.43 0.216 0.854 0.436 1.26 0.653-0.674 0.368-1.106 0.62-1.533 0.878l0.213-0.119c0.007-0.594 0.020-0.953 0.020-0.953l0.040-0.46zM14.29 12.44c0.503-4.892 1.308-6.103 1.592-6.385 0.033-0.033 0.079-0.054 0.13-0.054 0.040 0 0.078 0.013 0.108 0.035l-0.001-0c0.44 0.313 0.81 1.617 0.81 1.617 0.467 1.736 0.716 3.427 0.848 4.792-0.844 0.4-1.418 0.696-1.984 1.005l0.234-0.117c-0.339-0.197-0.909-0.495-1.486-0.78l-0.252-0.113zM15.996 17.229c0.682 0 1.234-0.552 1.234-1.234s-0.552-1.234-1.234-1.234v0c-0.682 0-1.234 0.552-1.234 1.234s0.552 1.234 1.234 1.234v0z"></path>
</svg>
