<!-- Generated by IcoMoon.io -->
<svg version="1.1" xmlns="http://www.w3.org/2000/svg" width="32" height="32" viewBox="0 0 32 32">
<title>audr</title>
<path fill="#fff" d="M16 32c-8.837 0-16-7.163-16-16s7.163-16 16-16 16 7.163 16 16-7.163 16-16 16zM10.854 13.264l3.61 1.92 1.92-0.96-4.589-2.486v-4.378l8.823 4.58 1.92-0.96-11.3-5.924c-0.114-0.061-0.249-0.097-0.393-0.097-0.467 0-0.845 0.378-0.845 0.845 0 0 0 0.001 0 0.001v-0 6.067c0.003 0.587 0.332 1.124 0.854 1.392zM24.611 12.246c-0.152-0.148-0.36-0.239-0.589-0.239-0.135 0-0.263 0.032-0.376 0.088l0.005-0.002-12.797 6.643c-0.525 0.27-0.855 0.811-0.854 1.402v6.057c0 0 0 0.001 0 0.001 0 0.467 0.378 0.845 0.845 0.845 0.144 0 0.279-0.036 0.398-0.099l-0.005 0.002 12.768-6.624c0.533-0.276 0.864-0.83 0.855-1.43v-6.048c0-0 0-0 0-0 0-0.233-0.096-0.444-0.25-0.596l-0-0zM23.075 18.784l-11.28 5.856v-4.378l11.28-5.856v4.378z"></path>
</svg>
