<!-- Generated by IcoMoon.io -->
<svg version="1.1" xmlns="http://www.w3.org/2000/svg" width="32" height="32" viewBox="0 0 32 32">
<title>bix</title>
<path fill="#fff" d="M16 32c-8.837 0-16-7.163-16-16s7.163-16 16-16 16 7.163 16 16-7.163 16-16 16zM16.941 24.577l6.238-3.543c0.191 0.209 0.468 0.34 0.776 0.34 0.577 0 1.045-0.46 1.045-1.028 0-0.487-0.344-0.895-0.805-1.001l0.018-7.021c0.452-0.113 0.787-0.517 0.787-0.997 0-0.568-0.468-1.028-1.045-1.028-0.001 0-0.002 0-0.003 0-0.349 0-0.658 0.17-0.849 0.432l-0.002 0.003-6.108-3.469c0.016-0.069 0.025-0.147 0.025-0.228 0-0.573-0.464-1.037-1.037-1.037-0.002 0-0.004 0-0.006 0h0c-0.001 0-0.003 0-0.005 0-0.573 0-1.037 0.464-1.037 1.037 0 0.083 0.010 0.164 0.028 0.242l-0.001-0.007-6.072 3.448c-0.193-0.257-0.498-0.422-0.841-0.422-0.001 0-0.002 0-0.003 0h0c-0.002 0-0.003 0-0.005 0-0.571 0-1.034 0.459-1.040 1.028v0.001c0 0.48 0.333 0.882 0.784 0.996v7.027c-0.452 0.115-0.781 0.516-0.784 0.996v0c0 0.568 0.468 1.028 1.045 1.028 0.295 0 0.561-0.12 0.751-0.314l6.211 3.527c-0.048 0.114-0.076 0.246-0.076 0.384 0 0 0 0 0 0.001v-0c0 0.568 0.468 1.028 1.045 1.028s1.045-0.46 1.045-1.028c0-0.14-0.028-0.273-0.080-0.395zM16.662 24.197c-0.183-0.157-0.422-0.253-0.684-0.253-0.001 0-0.002 0-0.003 0h0c-0.266 0-0.51 0.098-0.694 0.26l-6.242-3.545c0.032-0.094 0.050-0.202 0.050-0.314 0-0.108-0.017-0.212-0.048-0.309l0.002 0.007 5.977-4.027c0.23 0.291 0.583 0.476 0.98 0.476 0.355 0 0.676-0.149 0.903-0.387l0-0.001 6.066 3.9c-0.038 0.102-0.059 0.219-0.059 0.341 0 0.1 0.014 0.196 0.041 0.287l-0.002-0.007zM16.781 7.684l6.141 3.488c-0.007 0.044-0.011 0.096-0.011 0.148 0 0.497 0.352 0.913 0.82 1.011l0.007 0.001-0.018 7.012c-0.19 0.043-0.36 0.137-0.494 0.266l-6.071-3.903c0.052-0.134 0.080-0.28 0.080-0.431-0.004-0.599-0.438-1.096-1.010-1.195l-0.007-0.001 0.016-6.055c0.217-0.055 0.408-0.176 0.547-0.34zM15.176 7.689c0.147 0.172 0.35 0.297 0.583 0.345l-0.016 6.053c-0.561 0.118-0.976 0.608-0.976 1.195 0 0.111 0.015 0.218 0.042 0.32l-0.002-0.009-6.005 4.044c-0.143-0.148-0.329-0.254-0.537-0.298l-0.007-0.001v-7.005c0.476-0.098 0.83-0.514 0.83-1.013 0-0.059-0.005-0.117-0.014-0.173l0.001 0.006z"></path>
</svg>
