<!-- Generated by IcoMoon.io -->
<svg version="1.1" xmlns="http://www.w3.org/2000/svg" width="32" height="32" viewBox="0 0 32 32">
<title>bnb</title>
<path fill="#fff" d="M16 32c-8.837 0-16-7.163-16-16s7.163-16 16-16 16 7.163 16 16-7.163 16-16 16zM12.116 14.404l3.884-3.884 3.886 3.886 2.26-2.26-6.146-6.146-6.144 6.144 2.26 2.26zM6 16l2.26 2.26 2.26-2.26-2.26-2.26-2.26 2.26zM12.116 17.596l-2.263 2.257 6.147 6.147 6.146-6.147-2.26-2.26-3.886 3.887-3.884-3.884zM21.48 16l2.26 2.26 2.26-2.26-2.26-2.26-2.26 2.26zM18.292 15.998h0.001l-2.293-2.292-2.295 2.294 0.004 0.003 2.29 2.291 2.295-2.294-0.002-0.001z"></path>
</svg>
