<!-- Generated by IcoMoon.io -->
<svg version="1.1" xmlns="http://www.w3.org/2000/svg" width="32" height="32" viewBox="0 0 32 32">
<title>brd</title>
<path fill="#fff" d="M16 32c-8.837 0-16-7.163-16-16s7.163-16 16-16 16 7.163 16 16-7.163 16-16 16zM8 9.039v13.922c0 0.574 0.472 1.039 1.054 1.039h7.432c4.684 0 6.424-0.755 7.49-1.806 0.634-0.649 1.024-1.537 1.024-2.517 0-0.063-0.002-0.126-0.005-0.188l0 0.009c0-2.124-1.32-3.18-3.918-3.634 2.69-0.551 3.687-1.806 3.687-3.657 0.004-0.060 0.006-0.129 0.006-0.2 0-0.938-0.376-1.788-0.986-2.407l0 0c-1.088-1.073-2.667-1.601-7.143-1.601h-7.588c-0.582 0-1.054 0.465-1.054 1.039zM13.761 15.001v1.817c-0 0.006-0 0.014-0 0.021 0 0.191 0.078 0.364 0.204 0.489l0 0c0.136 0.136 0.323 0.21 0.516 0.205h2.38c1.526 0 2.661 0.040 3.197 0.568 0.243 0.26 0.368 0.606 0.346 0.96 0.002 0.025 0.003 0.053 0.003 0.082 0 0.333-0.133 0.634-0.349 0.854l0-0c-0.53 0.528-1.665 0.642-3.197 0.642h-4.5v-9.232h4.546c1.411 0 2.454 0.085 2.944 0.567 0.22 0.237 0.33 0.555 0.3 0.875 0.021 0.328-0.096 0.65-0.323 0.891-0.484 0.5-1.527 0.568-2.921 0.568h-2.443c-0.002 0-0.003-0-0.005-0-0.384 0-0.695 0.31-0.698 0.693v0z"></path>
</svg>
