<!-- Generated by IcoMoon.io -->
<svg version="1.1" xmlns="http://www.w3.org/2000/svg" width="32" height="32" viewBox="0 0 32 32">
<title>bsv</title>
<path fill="#fff" d="M16 32c-8.837 0-16-7.163-16-16s7.163-16 16-16 16 7.163 16 16-7.163 16-16 16zM22.15 14.57c-0.035 0-0.065 0.020-0.080 0.050l-0 0.001v-0.44l-0.11 0.060c-0.070 0.070-0.070 0.080-0.070 0.19v0.82c-0.007 0.036-0.010 0.078-0.010 0.12s0.004 0.084 0.011 0.124l-0.001-0.004c0.001 0.014 0.002 0.031 0.002 0.049 0 0.129-0.034 0.25-0.093 0.355l0.002-0.004-0.18 0.12h-0.090c-0.004-0.014-0.006-0.029-0.006-0.045s0.002-0.031 0.006-0.046l-0 0.001v-0.33h-0.070c-0.037 0.040-0.067 0.086-0.089 0.137l-0.001 0.003c-0.088 0.155-0.14 0.34-0.14 0.537 0 0.001 0 0.002 0 0.003v-0c-0.024 0.15-0.024 0.3 0 0.45 0.016 0.052 0.026 0.112 0.026 0.175 0 0.151-0.055 0.29-0.146 0.396l0.001-0.001c-0.030 0.036-0.071 0.061-0.119 0.070l-0.001 0c-0 0-0 0-0 0-0.083 0-0.155 0.048-0.189 0.119l-0.001 0.001-0.060 0.13c-0.038-0.089-0.069-0.193-0.089-0.301l-0.001-0.009v-0.38c-0.064 0.042-0.12 0.088-0.17 0.14l-0 0c-0.264 0.418-0.429 0.923-0.45 1.464l-0 0.006c-0.020 0.12-0.020 0.26-0.21 0.24s-0.28 0.15-0.33 0.24c-0.050 0.090-0.1 0.090-0.17 0-0.051-0.081-0.081-0.179-0.081-0.285s0.030-0.204 0.083-0.287l-0.001 0.002 0.070-0.14c-0.028-0.007-0.059-0.011-0.092-0.011-0.090 0-0.173 0.030-0.239 0.082l0.001-0.001c-0.283 0.166-0.52 0.38-0.706 0.634l-0.005 0.006-0.43 0.69c-0.145 0.272-0.318 0.506-0.52 0.71l0-0c-0.243 0.225-0.57 0.363-0.929 0.363-0.107 0-0.21-0.012-0.31-0.035l0.009 0.002c-0.371-0.105-0.691-0.292-0.951-0.541l0.001 0.001c-0.29-0.291-0.542-0.619-0.748-0.977l-0.012-0.023c-0.153-0.289-0.268-0.625-0.327-0.98l-0.003-0.020c-0.020-0.070-0.050 0-0.14 0-0.25 0.15-0.542 0.21-0.83 0.17-0.38-0.061-0.685-0.329-0.798-0.683l-0.002-0.007c-0.017-0.050-0.049-0.091-0.089-0.119l-0.001-0c-0.070-0.070-0.17-0.12-0.24-0.19-0.107-0.138-0.171-0.314-0.171-0.504 0-0.013 0-0.025 0.001-0.037l-0 0.002c-0.030 0.010-0.065 0.015-0.101 0.015-0.158 0-0.29-0.107-0.329-0.253l-0.001-0.002c-0.073-0.122-0.115-0.268-0.115-0.425s0.043-0.303 0.118-0.429l-0.002 0.004c0.005-0.013 0.007-0.029 0.007-0.045s-0.003-0.032-0.008-0.046l0 0.001c-0.17-0.19-0.5-0.52-0.5-0.52v-0.090c0.15-0.26 0.342-0.494 0.57-0.69 0.017-0.024 0.026-0.053 0.026-0.085s-0.010-0.061-0.027-0.085l0 0.001c-0.029-0.057-0.047-0.124-0.047-0.195s0.017-0.138 0.048-0.197l-0.001 0.002c0.068-0.126 0.147-0.235 0.24-0.33l-0 0-0.35-0.090-1-0.21c-0.031-0.011-0.067-0.018-0.105-0.018s-0.074 0.007-0.107 0.018l0.002-0.001c-0.298 0.204-0.555 0.438-0.775 0.704l-0.005 0.006c-0.068 0.089-0.137 0.19-0.201 0.295l-0.009 0.015v0.070l0.12-0.070 0.17-0.18c-0.087 0.11-0.173 0.234-0.251 0.364l-0.009 0.016c-0.19 0.37-0.4 0.75-0.57 1.13-0.107 0.179-0.17 0.394-0.17 0.624 0 0.006 0 0.011 0 0.017v-0.001 0.12l0.090-0.090c0.035-0.046 0.065-0.099 0.088-0.155l0.002-0.005c-0.058 0.138-0.116 0.312-0.163 0.489l-0.007 0.031c-0.134 0.413-0.211 0.889-0.211 1.383 0 0.038 0 0.075 0.001 0.113l-0-0.006c0.017 0.215 0.081 0.424 0.19 0.61 0.020 0.090 0.14 0.14 0.14 0.090v-0.55c0.075 0.193 0.138 0.39 0.19 0.59 0.043 0.17 0.073 0.345 0.090 0.52 0.070 0.35 0.12 0.71 0.21 1.060 0.064 0.147 0.152 0.282 0.26 0.4h0.19v-0.17l-0.070-0.14c-0.023-0.056-0.036-0.122-0.036-0.19s0.013-0.134 0.037-0.194l-0.001 0.003 0.64 0.71c0.004 0.010 0.007 0.022 0.007 0.035s-0.003 0.025-0.007 0.036l0-0.001c0.024 0.33 0.113 0.653 0.26 0.95 0.122 0.296 0.408 0.5 0.742 0.5 0.006 0 0.013-0 0.019-0l-0.001 0h0.12c-0.090-0.050-0.040-0.040-0.090-0.12s-0.12-0.090-0.17-0.17c-0.050-0.080 0.050-0.17 0.12-0.17 0.098 0.017 0.185 0.049 0.264 0.092l-0.004-0.002c0.431 0.317 0.921 0.601 1.44 0.83l0.050 0.020 0.69 0.28 0.24 0.090c-0.16 0.45-0.33 0.88-0.47 1.28-0.1-0.21-0.19-0.45-0.31-0.66l-0.14-0.28c-0.059-0.124-0.172-0.213-0.307-0.24l-0.003-0c-0.017 0.001-0.037 0.002-0.057 0.002-0.189 0-0.367-0.053-0.517-0.144l0.004 0.003c-0.19-0.020-0.47 0.050-0.54 0.24 0.057-0.020 0.123-0.031 0.192-0.031 0.153 0 0.293 0.057 0.399 0.152l-0.001-0.001c-0.12 0.26-0.050 0.43 0.19 0.5 0.157 0.044 0.272 0.183 0.28 0.349l0 0.001c0.060 0.173 0.083 0.357 0.070 0.54-0.154-0.040-0.279-0.142-0.349-0.277l-0.001-0.003c-0.155-0.265-0.38-0.475-0.651-0.606l-0.009-0.004c-0.19-0.1-0.4-0.14-0.54 0.070h-0.090c-0.047-0.006-0.1-0.009-0.155-0.009s-0.108 0.003-0.161 0.010l0.006-0.001c-0.23 0.040-0.33 0.26-0.4 0.47 0.132-0.088 0.293-0.14 0.467-0.14 0.001 0 0.002 0 0.003 0h-0c0.050 0 0.090 0.040 0.090 0.090 0.019 0.11 0.113 0.192 0.227 0.192 0.012 0 0.023-0.001 0.034-0.003l-0.001 0 0.54 0.21c0.214 0.079 0.383 0.24 0.468 0.445l0.002 0.005h-0.14c-0.085-0.006-0.185-0.009-0.285-0.009s-0.2 0.003-0.298 0.010l0.013-0.001c-0.266 0.020-0.509 0.107-0.716 0.243l0.006-0.003c-0.193 0.086-0.344 0.237-0.428 0.425l-0.002 0.005c-0.011 0.031-0.017 0.067-0.017 0.105s0.006 0.074 0.018 0.107l-0.001-0.002v0.14c-0.006 0.036-0.009 0.078-0.009 0.12s0.003 0.084 0.010 0.124l-0.001-0.004c0.033 0.15 0.107 0.28 0.21 0.38l0 0c-0.007-0.044-0.011-0.094-0.011-0.146 0-0.182 0.049-0.352 0.133-0.499l-0.003 0.005c0.28 0.14 0.38 0.12 0.59-0.12l0.14-0.18c0.098-0.059 0.216-0.094 0.342-0.094 0.063 0 0.124 0.009 0.182 0.025l-0.005-0.001 0.71 0.090c0.003 0.010 0.005 0.023 0.005 0.035s-0.002 0.025-0.005 0.036l0-0.001c-0.138 0.203-0.303 0.376-0.494 0.516l-0.006 0.004c-0.169 0.113-0.278 0.302-0.278 0.517 0 0.103 0.025 0.201 0.070 0.286l-0.002-0.003c0.006 0.026 0.009 0.055 0.009 0.085s-0.003 0.059-0.010 0.088l0.001-0.003c-0.010 0.034-0.016 0.073-0.016 0.113 0 0.195 0.133 0.359 0.313 0.406l0.003 0.001v-0.38c0.045 0.017 0.097 0.026 0.151 0.026 0.19 0 0.352-0.117 0.418-0.283l0.001-0.003c0.073-0.144 0.132-0.311 0.168-0.487l0.002-0.013c0.085-0.306 0.3-0.559 0.59-0.69 0.216-0.050 0.397-0.176 0.518-0.347l0.002-0.003 0.070 0.090c0.126 0.24 0.373 0.401 0.658 0.401 0.011 0 0.023-0 0.034-0.001l-0.002 0c0.050 0 0.090 0.040 0.090 0.090l0.070 0.48c0.050-0.070 0.17-0.14 0.17-0.21 0.078-0.133 0.123-0.293 0.123-0.463 0-0.088-0.012-0.173-0.035-0.254l0.002 0.007c-0.011-0.017-0.018-0.038-0.018-0.060s0.007-0.043 0.018-0.060l-0 0c0.039-0.052 0.063-0.118 0.063-0.19s-0.023-0.138-0.063-0.191l0.001 0.001c-0.1-0.207-0.263-0.37-0.464-0.467l-0.006-0.003-0.38-0.17 0.14-0.070 0.43-0.21c0.050 0 0.090-0.070 0.14 0s0.12 0.14 0.12 0.21c-0.017 0.099-0.042 0.186-0.073 0.27l0.003-0.010h0.12c0.238-0.107 0.409-0.325 0.449-0.586l0.001-0.004c0.020-0.14 0.1-0.26 0.19-0.26s0.19-0.070 0.26 0c0.049 0.049 0.079 0.116 0.079 0.191 0 0.025-0.003 0.048-0.009 0.071l0-0.002-0.070 0.21c0.14-0.090 0.28-0.17 0.4-0.26 0.273-0.178 0.46-0.46 0.52-0.78 0.043-0.134 0.146-0.237 0.277-0.279l0.003-0.001c0.245-0.021 0.464-0.053 0.678-0.096l-0.038 0.006c0.447-0.076 0.828-0.166 1.199-0.278l-0.069 0.018c0.594-0.179 1.111-0.421 1.585-0.725l-0.025 0.015c0.36-0.22 0.69-0.43 1-0.69 0.287-0.233 0.542-0.482 0.773-0.752l0.007-0.008c0.224-0.24 0.435-0.501 0.625-0.777l0.015-0.023c0.226-0.34 0.43-0.694 0.61-1.060 0.199-0.366 0.37-0.792 0.49-1.238l0.010-0.042c0.153-0.524 0.253-1.129 0.279-1.755l0-0.015c0.011-0.181 0.018-0.392 0.018-0.605s-0.006-0.424-0.019-0.634l0.001 0.029c0.005-0.050 0.009-0.107 0.009-0.165s-0.003-0.116-0.009-0.172l0.001 0.007 0.71 0.19c-0.045 0.093-0.102 0.172-0.17 0.24l-0 0c-0.099 0.072-0.163 0.187-0.163 0.317 0 0.048 0.009 0.093 0.024 0.135l-0.001-0.003c0.075 0.172 0.176 0.33 0.3 0.47 0.090 0.105 0.223 0.171 0.372 0.171 0.010 0 0.020-0 0.030-0.001l-0.001 0c-0.050-0.080 0.020 0-0.12-0.17s-0.14-0.19 0-0.31c0.046-0.040 0.086-0.086 0.118-0.137l0.002-0.003c0.041-0.075 0.073-0.162 0.089-0.255l0.001-0.005 0.21 0.090c0.241 0.105 0.432 0.287 0.547 0.514l0.003 0.006c0.034 0.107 0.132 0.183 0.248 0.183 0.029 0 0.057-0.005 0.083-0.014l-0.002 0.001c0.12-0.020 0.19 0 0.19 0.12v0.050h0.050c0.085-0.041 0.143-0.127 0.143-0.226 0-0.038-0.008-0.074-0.023-0.106l0.001 0.002c-0.070-0.15-0.17-0.29-0.24-0.43-0.13-0.23-0.358-0.392-0.626-0.429l-0.004-0.001c0.13-0.065 0.238-0.128 0.342-0.197l-0.012 0.007c0.064-0.039 0.142-0.062 0.225-0.062s0.161 0.023 0.227 0.063l-0.002-0.001c0.032 0.031 0.076 0.050 0.125 0.050s0.093-0.019 0.125-0.051l-0 0c0.023-0.022 0.055-0.036 0.090-0.036s0.067 0.014 0.090 0.036l-0-0 0.19 0.14c0.004-0.014 0.006-0.029 0.006-0.045s-0.002-0.031-0.006-0.046l0 0.001c-0.013-0.132-0.076-0.248-0.169-0.329l-0.001-0.001c-0.052-0.035-0.092-0.083-0.119-0.138l-0.001-0.002c-0.059-0.131-0.188-0.221-0.339-0.221-0.032 0-0.064 0.004-0.094 0.012l0.003-0.001c-0.101 0.032-0.229 0.063-0.359 0.087l-0.021 0.003c0.059-0.078 0.121-0.146 0.189-0.209l0.001-0.001c0.14-0.090 0.21-0.14 0.14-0.28l0.33-0.16c-0.055-0.125-0.178-0.211-0.321-0.211-0.010 0-0.020 0-0.030 0.001l0.001-0c-0.053 0.011-0.113 0.017-0.175 0.017s-0.122-0.006-0.181-0.018l0.006 0.001c-0.018-0.007-0.038-0.010-0.060-0.010s-0.042 0.004-0.061 0.011l0.001-0c-0.12 0.050-0.14 0.21-0.19 0.31-0.057 0.089-0.099 0.193-0.119 0.305l-0.001 0.005c-0.090-0.19-0.17-0.21 0-0.4s0.14-0.28 0-0.45c0.034-0.057 0.054-0.126 0.054-0.2s-0.020-0.143-0.055-0.202l0.001 0.002c-0.167 0.040-0.291 0.185-0.3 0.359l-0 0.001h-0.090c-0.19-0.030-0.28 0.16-0.28 0.35 0.012 0.22 0.012 0.44 0 0.66h-0.070c-0.023-0.054-0.053-0.1-0.090-0.14l0 0c-0.221-0.244-0.446-0.469-0.682-0.683l-0.008-0.007c-0.205-0.207-0.461-0.363-0.748-0.447l-0.012-0.003c-0.070 0-0.070-0.090-0.070-0.090-0.1-0.309-0.254-0.576-0.452-0.803l0.002 0.003c-0.177-0.179-0.292-0.42-0.31-0.687l-0-0.003c0-0.070-0.090-0.12-0.090-0.19-0.088 0.196-0.139 0.425-0.139 0.666 0 0.169 0.025 0.332 0.072 0.486l-0.003-0.012c0.060 0.173 0.083 0.357 0.070 0.54-0.076 0.035-0.142 0.075-0.202 0.122l0.002-0.002c-0.050 0.050-0.17 0.19-0.17 0.12v-0.070c0.005-0.021 0.008-0.045 0.008-0.070s-0.003-0.049-0.009-0.072l0 0.002c-0.019-0.035-0.042-0.065-0.070-0.090l-0-0-0.070 0.070c0.005 0.021 0.008 0.045 0.008 0.070s-0.003 0.049-0.009 0.072l0-0.002c-0.037 0.132-0.058 0.284-0.058 0.441 0 0.234 0.047 0.457 0.132 0.66l-0.004-0.011c0.016 0.042 0.025 0.090 0.025 0.14s-0.009 0.098-0.026 0.143l0.001-0.003c0.005 0.029 0.008 0.061 0.008 0.095s-0.003 0.066-0.009 0.098l0-0.003c-0.14-0.050-0.14 0.020-0.14 0.090l-0.070 0.14zM9.86 10.010c0.055 0.043 0.097 0.101 0.119 0.167l0.001 0.003c0.326 0.208 0.684 0.36 1.060 0.45 0.42 0.13 0.92 0.2 1.42 0.3 0.247 0.015 0.491 0.055 0.73 0.12 0.507 0.134 0.991 0.34 1.44 0.61 0.020 0.011 0.044 0.017 0.070 0.017s0.050-0.006 0.071-0.018l-0.001 0c0.21-0.070 0.4-0.17 0.61-0.24 0.346-0.119 0.745-0.188 1.159-0.19h0.611c0.282 0.045 0.56 0.115 0.83 0.21 0.47 0.173 0.897 0.446 1.25 0.8v-0.35c0-0.31 0.185-0.59 0.47-0.71 0.066-0.029 0.143-0.045 0.225-0.045 0.163 0 0.31 0.067 0.415 0.175l0 0c0.149 0.164 0.24 0.383 0.24 0.624 0 0.006-0 0.011-0 0.017v-0.001c0.012 0.15 0.019 0.324 0.019 0.5s-0.007 0.35-0.020 0.523l0.001-0.023c-0.026 0.232-0.128 0.435-0.28 0.59l0-0v0.17c0.181 0.434 0.27 0.9 0.26 1.37 0.002 0.051 0.004 0.112 0.004 0.172 0 0.275-0.027 0.544-0.078 0.804l0.004-0.026v0.19c0.050-0.050 0.060 0 0.14-0.14s0.1-0.31 0.17-0.45c0.090-0.285 0.324-0.499 0.615-0.559l0.005-0.001v-0.52c0.002-0.346 0.179-0.649 0.446-0.828l0.004-0.002v-0.070c-0.023-0.135-0.036-0.291-0.036-0.45s0.013-0.315 0.038-0.467l-0.002 0.017c0.021-0.239 0.137-0.446 0.309-0.589l0.001-0.001c0.005-0.013 0.007-0.029 0.007-0.045s-0.003-0.032-0.008-0.046l0 0.001c-0.006-0.099-0.009-0.214-0.009-0.33s0.003-0.231 0.010-0.346l-0.001 0.016c0.090-0.264 0.142-0.567 0.142-0.883 0-0.041-0.001-0.082-0.003-0.123l0 0.006c-0.023-0.161-0.072-0.306-0.143-0.437l0.003 0.007c-0.082-0.102-0.161-0.216-0.232-0.336l-0.008-0.014c-0.12-0.175-0.245-0.329-0.381-0.471l0.001 0.001c-0.097-0.114-0.24-0.187-0.399-0.19h-0.001c0.070 0.19 0.28 0.33 0.19 0.59-0.064-0.069-0.132-0.131-0.206-0.187l-0.004-0.003c-0.071-0.031-0.123-0.093-0.14-0.168l-0-0.002c-0.081-0.237-0.219-0.436-0.398-0.588l-0.002-0.002c-0.117-0.127-0.284-0.206-0.47-0.206-0.050 0-0.098 0.006-0.144 0.016l0.004-0.001 0.090 0.070c0.132 0.063 0.229 0.183 0.259 0.327l0.001 0.003v0.21h-0.14c-0.12-0.070-0.23-0.17-0.4-0.26-0.101-0.375-0.366-0.673-0.712-0.817l-0.008-0.003c-0.125-0.062-0.271-0.105-0.425-0.12l-0.005-0c-0.090-0.070-0.17 0-0.26 0h0.070c0.149 0.051 0.255 0.187 0.26 0.349v0.001c-0.035 0.017-0.075 0.031-0.117 0.039l-0.003 0.001h-0.070c-0.090-0.118-0.232-0.194-0.39-0.194-0.021 0-0.042 0.001-0.062 0.004l0.002-0c-0.047-0.145-0.104-0.271-0.175-0.388l0.005 0.008c-0.177-0.256-0.455-0.431-0.775-0.47l-0.005-0c-0.050-0.010-0.107-0.016-0.165-0.016s-0.115 0.006-0.171 0.017l0.006-0.001v0.15h0.2c0.093 0.044 0.156 0.137 0.156 0.245 0 0.042-0.010 0.082-0.027 0.117l0.001-0.002c-0.020-0.090 0.030-0.020-0.090-0.090-0.109-0.045-0.236-0.071-0.369-0.071-0.011 0-0.022 0-0.033 0.001l0.002-0c-0.064-0.015-0.121-0.039-0.172-0.071l0.002 0.001c-0.134-0.175-0.309-0.312-0.512-0.397l-0.008-0.003c-0.095-0.039-0.205-0.062-0.321-0.062-0.2 0-0.385 0.069-0.531 0.183l0.002-0.001h0.070c0.003-0 0.006-0 0.009-0 0.13 0 0.239 0.088 0.271 0.208l0 0.002v0.090h-0.070c-0.054-0.033-0.12-0.053-0.19-0.053s-0.136 0.020-0.192 0.053l0.002-0.001c-0.020 0.005-0.043 0.008-0.067 0.008-0.085 0-0.161-0.038-0.213-0.098l-0-0h-0.070c-0.148-0.117-0.334-0.194-0.537-0.21l-0.004-0c-0.033-0.005-0.071-0.007-0.11-0.007-0.189 0-0.362 0.063-0.502 0.169l0.002-0.002c-0.018 0.020-0.030 0.046-0.030 0.075s0.011 0.055 0.030 0.075l-0-0c0.090 0 0 0.070 0.090 0s0.12 0.020 0.21 0.070 0.090 0.12 0 0.12l-0.35 0.12c-0.17 0.090-0.38 0-0.45 0h-0.040c-0.124-0.040-0.267-0.062-0.415-0.062s-0.291 0.023-0.425 0.065l0.010-0.003c-0.16 0.070-0.33 0.21-0.33 0.38 0.014 0.004 0.029 0.006 0.045 0.006s0.031-0.002 0.046-0.006l-0.001 0c0.090-0.12 0.19-0.050 0.26 0s0.090 0.14 0 0.14l-0.57 0.31c-0.020 0.010-0.045 0.016-0.070 0.016s-0.050-0.006-0.071-0.017l0.001 0c-0.119-0.044-0.257-0.070-0.4-0.070s-0.281 0.026-0.408 0.072l0.008-0.003c-0.158 0.070-0.278 0.203-0.329 0.366l-0.001 0.004v0.12h0.090c0.080 0 0.17-0.070 0.17 0s0.070 0.14 0 0.21c-0.047 0.023-0.086 0.054-0.12 0.090l-0 0-0.59 0.59zM19.31 14.71l-0.22 0.010c-0.251-0.019-0.454-0.205-0.499-0.447l-0.001-0.003c-0.010-0.112-0.098-0.2-0.209-0.21l-0.001-0c-0.21 0.020-0.26-0.1-0.33-0.24-0.005-0.021-0.008-0.045-0.008-0.070s0.003-0.049 0.009-0.072l-0 0.002c0.047-0.219 0.24-0.381 0.47-0.381 0.011 0 0.021 0 0.032 0.001l-0.001-0h0.85c0.020 0.002 0.042 0.004 0.065 0.004 0.277 0 0.506-0.205 0.544-0.471l0-0.003c0.034-0.15 0.054-0.323 0.054-0.5s-0.020-0.35-0.057-0.516l0.003 0.016c0-0.080 0.030-0.17-0.090-0.17s-0.12 0.070-0.12 0.14v0.64c-0.043 0.217-0.219 0.383-0.438 0.41l-0.002 0c-0.078 0.022-0.168 0.034-0.26 0.034s-0.182-0.013-0.267-0.036l0.007 0.002c-0.191-0.044-0.411-0.070-0.637-0.070-0.001 0-0.002 0-0.004 0h0c-0.032-0.005-0.068-0.008-0.105-0.008-0.286 0-0.533 0.164-0.653 0.403l-0.002 0.004c-0.050 0.090 0.050 0.14-0.14 0.26-0.158 0.101-0.345 0.204-0.538 0.296l-0.032 0.014c-0.035 0.028-0.081 0.045-0.13 0.045s-0.095-0.017-0.13-0.045l0 0c-0.143-0.114-0.327-0.184-0.528-0.184-0.116 0-0.227 0.023-0.328 0.066l0.006-0.002h-0.12c-0.087-0.053-0.145-0.148-0.145-0.257 0-0.019 0.002-0.037 0.005-0.055l-0 0.002c0.057-0.149 0.090-0.32 0.090-0.5s-0.033-0.351-0.093-0.51l0.003 0.010c-0.068-0.13-0.202-0.217-0.356-0.217-0.026 0-0.052 0.003-0.077 0.007l0.003-0c-0.16 0.070-0.3 0.14-0.47 0-0.393-0.344-0.882-0.588-1.422-0.687l-0.018-0.003c-0.45-0.1-0.92-0.17-1.37-0.24-0.28-0.050-0.57-0.1-0.85-0.17-0.514-0.134-0.962-0.362-1.348-0.666l0.008 0.006c-0.16-0.143-0.306-0.284-0.449-0.428l-0.001-0.002-0.26-0.28c-0.025-0.011-0.054-0.017-0.085-0.017s-0.060 0.006-0.086 0.018l0.001-0.001v0.21c0.1 0.301 0.289 0.566 0.54 0.76 0.285 0.235 0.616 0.428 0.976 0.562l0.024 0.008c0.35 0.107 0.708 0.19 1.070 0.25l0.66 0.070c0.522 0.044 1.004 0.161 1.454 0.342l-0.034-0.012c0.242 0.105 0.48 0.221 0.71 0.35v0.11c-0.106 0.046-0.233 0.087-0.364 0.117l-0.016 0.003c-0.017 0.011-0.038 0.018-0.060 0.018s-0.043-0.007-0.060-0.018l0 0c-0.31-0.12-0.62-0.26-0.95-0.38-0.188-0.061-0.406-0.104-0.631-0.12l-0.009-0.001-0.57-0.070c-0.26-0.070-0.47-0.020-0.78-0.070s-0.61-0.12-0.92-0.19c-0.404-0.107-0.758-0.279-1.069-0.506l0.009 0.006c-0.26-0.19-0.5-0.45-0.76-0.66l-0.16-0.090h-0.12v0.12c0.036 0.126 0.083 0.235 0.144 0.336l-0.004-0.006c0.26 0.4 0.6 0.74 1 1 0.387 0.244 0.808 0.43 1.25 0.55 0.325 0.122 0.706 0.22 1.1 0.276l0.030 0.004c0.276 0.034 0.546 0.108 0.8 0.22 0.28 0.090 0.57 0.23 0.85 0.35 0.118 0.065 0.219 0.135 0.313 0.213l-0.003-0.003c-0.144 0.124-0.319 0.214-0.512 0.258l-0.008 0.002-0.54 0.1c-0.127 0.024-0.226 0.117-0.259 0.238l-0.001 0.002c0.325 0.012 0.645 0.077 0.95 0.19 0.346 0.12 0.616 0.393 0.73 0.74l-0.070-0.070c-0.181-0.176-0.402-0.313-0.648-0.396l-0.012-0.004c-0.124-0.045-0.266-0.072-0.415-0.072s-0.291 0.026-0.424 0.074l0.009-0.003c-0.14 0.1-0.31 0.26-0.4 0.33s-0.070 0.12 0 0.19c0.214 0.22 0.473 0.39 0.76 0.5h-0.12c-0.208 0.060-0.364 0.233-0.4 0.447l-0 0.003c0.001 0.018 0.002 0.039 0.002 0.060s-0.001 0.042-0.002 0.063l0-0.003h0.12c0.070 0 0.15-0.070 0.24 0 0.126 0.061 0.23 0.15 0.308 0.258l0.002 0.002c0.011 0.020 0.017 0.044 0.017 0.070s-0.006 0.050-0.018 0.071l0-0.001c-0.046 0.106-0.087 0.233-0.117 0.364l-0.003 0.016c-0.070 0.020-0.050 0.14 0 0.14 0.046-0.025 0.086-0.055 0.12-0.090l0-0 0.070 0.14c0.043 0.128 0.107 0.238 0.191 0.331l-0.001-0.001c0.143 0.141 0.339 0.229 0.556 0.229 0.133 0 0.258-0.033 0.368-0.091l-0.004 0.002c0.198-0.113 0.368-0.228 0.528-0.356l-0.008 0.006c0.048-0.051 0.115-0.084 0.189-0.090l0.001-0c0.042-0.006 0.091-0.009 0.14-0.009s0.098 0.003 0.146 0.009l-0.006-0.001c0.041 0.005 0.075 0.032 0.090 0.069l0 0.001c0.007 0.025 0.010 0.055 0.010 0.085 0 0.096-0.038 0.182-0.1 0.245l0-0c-0.103 0.077-0.195 0.155-0.28 0.24l0-0c0.070 0.028 0.15 0.044 0.235 0.044s0.165-0.016 0.239-0.046l-0.004 0.002c0.189-0.077 0.348-0.197 0.468-0.348l0.002-0.002c0.057-0.066 0.091-0.153 0.091-0.247 0-0.012-0.001-0.023-0.002-0.034l0 0.001c-0.071-0.195-0.137-0.433-0.185-0.678l-0.005-0.032c-0.020-0.19-0.090-0.31-0.28-0.31 0.005 0.021 0.007 0.045 0.007 0.070s-0.003 0.049-0.008 0.072l0-0.002c-0.070 0.090-0.050 0.090-0.19 0l-0.4-0.28c-0.158-0.103-0.261-0.279-0.261-0.479 0-0.014 0.001-0.029 0.002-0.043l-0 0.002c0-0.105 0.085-0.19 0.19-0.19v0c0.156 0.087 0.26 0.251 0.26 0.439 0 0.004-0 0.008-0 0.012v-0.001c0.005 0.021 0.007 0.045 0.007 0.070s-0.003 0.049-0.007 0.072l0-0.002 0.21-0.14 0.45 0.12c0.15 0.012 0.3 0.012 0.45 0-0.006 0.050-0.009 0.107-0.009 0.165s0.003 0.115 0.009 0.172l-0.001-0.007c0.078 0.449 0.23 0.881 0.45 1.28 0.19 0.37 0.4 0.75 0.57 1.13 0.075 0.132 0.12 0.29 0.12 0.459 0 0.108-0.018 0.211-0.052 0.308l0.002-0.007v0.070c-0.090 0.211-0.296 0.355-0.535 0.355-0.081 0-0.159-0.017-0.229-0.047l0.004 0.001c-0.212-0.145-0.381-0.337-0.496-0.561l-0.004-0.009c-0.14-0.19-0.35-0.51-0.4-0.59-0.038-0.1-0.133-0.171-0.244-0.171-0.006 0-0.011 0-0.017 0.001l0.001-0v0.14c0.046 0.147 0.103 0.291 0.17 0.43 0.12 0.19 0.26 0.38 0.4 0.57 0.161 0.215 0.361 0.398 0.59 0.54 0.149 0.114 0.338 0.183 0.544 0.183 0.497 0 0.9-0.403 0.9-0.9 0-0.029-0.001-0.058-0.004-0.087l0 0.004c0.002-0.033 0.003-0.073 0.003-0.112 0-0.32-0.063-0.625-0.178-0.904l0.006 0.016c-0.14-0.31-0.31-0.65-0.45-1-0.193-0.36-0.313-0.784-0.33-1.235l-0-0.005c0.012-0.225 0.109-0.425 0.26-0.57l0-0c0 0.070 0.070-0.050 0 0.070-0.046 0.091-0.073 0.198-0.073 0.312 0 0.024 0.001 0.048 0.004 0.071l-0-0.003c0.35-0.070 0.49-0.33 0.61-0.64-0.005 0.032-0.008 0.068-0.008 0.105s0.003 0.073 0.008 0.109l-0-0.004c0.025 0.046 0.055 0.086 0.090 0.12l0 0c0.056-0.004 0.106-0.030 0.14-0.070l0-0c0.073-0.078 0.142-0.163 0.205-0.252l0.005-0.008c0.061 0.040 0.118 0.088 0.17 0.14 0.14 0.21 0.24 0.19 0.31 0 0.034-0.127 0.122-0.228 0.237-0.279l0.003-0.001c0.087 0.093 0.18 0.18 0.28 0.26h0.14c0.002-0.018 0.004-0.039 0.004-0.060s-0.001-0.042-0.004-0.062l0 0.002v-0.35c0.33 0.090 0.64 0.050 0.64-0.12zM13.74 14.020l0.11-0.12c0.078 0.022 0.168 0.034 0.26 0.034s0.182-0.013 0.267-0.036l-0.007 0.002 0.17-0.070c0.039-0.011 0.084-0.017 0.13-0.017s0.091 0.006 0.134 0.018l-0.004-0.001c0.084 0.042 0.146 0.117 0.17 0.208l0 0.002v0.070c-0.11 0.087-0.234 0.173-0.364 0.251l-0.016 0.009c-0.065 0.049-0.146 0.079-0.235 0.079s-0.17-0.030-0.236-0.079l0.001 0.001c-0.137-0.114-0.261-0.229-0.379-0.349l-0.001-0.001zM17 14.35c0.12-0.037 0.258-0.059 0.401-0.059 0.195 0 0.38 0.040 0.549 0.112l-0.009-0.003c0.070 0.057 0.133 0.12 0.19 0.19-0.070 0.020-0.12 0.090-0.19 0.090-0.052 0.005-0.113 0.008-0.175 0.008s-0.123-0.003-0.183-0.009l0.008 0.001c-0.114-0.132-0.269-0.225-0.445-0.259l-0.005-0.001c-0.054-0.013-0.101-0.038-0.141-0.070l0.001 0zM4.54 17.43c0.017 0.041 0.027 0.089 0.027 0.139 0 0.025-0.003 0.050-0.007 0.074l0-0.002c0.091 0.298 0.352 0.515 0.667 0.54l0.003 0c0.19 0.024 0.38 0.024 0.57 0 0.203-0.017 0.39-0.070 0.559-0.154l-0.009 0.004c0.293-0.158 0.522-0.403 0.656-0.701l0.004-0.009c0.090-0.21 0.19-0.4 0.26-0.61l0.28-0.8c0.12-0.35 0.26-0.75 0.4-1.060s0.3-0.59 0.47-0.9c0.231-0.423 0.496-0.787 0.803-1.113l-0.003 0.003 0.14-0.12-0.33-0.14-0.52-0.28c-0.050 0-0.14-0.070-0.14 0-0.141 0.218-0.291 0.48-0.427 0.75l-0.023 0.050c-0.21 0.45-0.35 0.92-0.54 1.37-0.077 0.202-0.189 0.376-0.33 0.52l0-0c-0.211 0.201-0.498 0.325-0.813 0.325-0.066 0-0.131-0.005-0.194-0.016l0.007 0.001c-0.177-0.035-0.334-0.094-0.478-0.174l0.008 0.004c-0.147-0.083-0.251-0.227-0.28-0.397l-0-0.003c-0.213 0.164-0.35 0.42-0.35 0.707 0 0.309 0.157 0.581 0.396 0.741l0.003 0.002c0.437 0.3 1.013 0.3 1.45 0 0.092-0.089 0.19-0.174 0.292-0.254l0.008-0.006c-0.228 0.459-0.693 0.769-1.231 0.769-0.099 0-0.195-0.010-0.288-0.030l0.009 0.002h-0.14c-0.537-0.172-0.919-0.666-0.919-1.25 0-0.139 0.022-0.273 0.062-0.399l-0.003 0.009c-0.357 0.236-0.589 0.635-0.589 1.088 0 0.125 0.018 0.246 0.051 0.361l-0.002-0.009c0.080 0.367 0.313 0.684 0.64 0.87 0.216 0.114 0.473 0.182 0.745 0.182 0.129 0 0.255-0.015 0.376-0.044l-0.011 0.002c-0.045 0.116-0.14 0.204-0.257 0.239l-0.003 0.001c-0.081 0.023-0.174 0.037-0.27 0.037-0.288 0-0.547-0.122-0.73-0.316l-0-0.001zM18.61 16.63c0.070 0 0.070 0 0.32 0.080h0.070v-0.090c0-0.005 0-0.012 0-0.018 0-0.145-0.066-0.275-0.17-0.361l-0.001-0.001c-0.187-0.135-0.351-0.283-0.497-0.447l-0.003-0.003c-0.029-0.041-0.070-0.073-0.118-0.089l-0.002-0.001-0.17-0.070v0.21c0 0.050 0.090 0.19 0 0.19l-0.26 0.14c-0.36-0.43-0.36-0.31-0.5-0.31 0.020 0.070 0.090 0.12 0.090 0.19 0.023 0.048 0.037 0.105 0.037 0.165s-0.014 0.117-0.038 0.167l0.001-0.002c-0.078 0.060-0.177 0.096-0.285 0.096s-0.207-0.036-0.286-0.097l0.001 0.001-0.1-0.12c0.046 0.37 0.157 0.73 0.33 1.060h0.14c0.075-0.051 0.161-0.092 0.254-0.119l0.006-0.001c0.026-0.011 0.057-0.018 0.089-0.018 0.094 0 0.174 0.056 0.21 0.137l0.001 0.001 0.070 0.21h0.11c0.041-0.029 0.073-0.070 0.090-0.118l0-0.002c0.039-0.076 0.062-0.165 0.062-0.26s-0.023-0.184-0.063-0.263l0.002 0.003h0.12l0.28 0.14c0.12 0.070 0.21 0.070 0.21-0.070 0.006-0.049 0.009-0.107 0.009-0.165s-0.003-0.116-0.009-0.172l0.001 0.007zM6.8 15.040c0.019-0.065 0.031-0.139 0.031-0.216 0-0.216-0.088-0.412-0.231-0.554l-0-0c-0.079-0.072-0.185-0.115-0.301-0.115-0.053 0-0.105 0.009-0.152 0.026l0.003-0.001c-0.101 0.047-0.17 0.147-0.17 0.264 0 0.006 0 0.011 0 0.017l-0-0.001c0 0.070-0.030 0.12-0.12 0.070s-0.17-0.17-0.26-0.17c-0.024 0.048-0.038 0.105-0.038 0.165 0 0.188 0.136 0.344 0.316 0.375l0.002 0c0.093 0.012 0.187 0.012 0.28 0 0.032-0.003 0.069-0.005 0.107-0.005 0.197 0 0.381 0.054 0.538 0.148l-0.005-0.003z"></path>
</svg>
