<!-- Generated by IcoMoon.io -->
<svg version="1.1" xmlns="http://www.w3.org/2000/svg" width="32" height="32" viewBox="0 0 32 32">
<title>btcz</title>
<path fill="#fff" d="M16 32c-8.837 0-16-7.163-16-16s7.163-16 16-16 16 7.163 16 16-7.163 16-16 16zM16 27c1.135 0 2.263-0.174 3.344-0.519 0.373-0.111 0.64-0.451 0.64-0.853 0-0.49-0.398-0.888-0.888-0.888-0.104 0-0.203 0.018-0.296 0.050l0.006-0.002c-0.836 0.276-1.799 0.435-2.799 0.435-0.002 0-0.005 0-0.007 0h0c-5.086 0-9.224-4.138-9.224-9.224s4.138-9.224 9.224-9.224 9.224 4.138 9.224 9.224c0 0.84-0.114 1.678-0.34 2.488-0.021 0.072-0.033 0.154-0.033 0.239 0 0.491 0.398 0.888 0.888 0.888 0.405 0 0.748-0.272 0.854-0.643l0.002-0.006c0.27-0.966 0.405-1.964 0.405-2.966 0-6.063-4.937-11-11-11s-11 4.934-11 11 4.934 11 11 11zM19.375 15.974c-0.375-0.31-0.853-0.506-1.377-0.532l-0.005-0c0.359-0.259 0.627-0.622 0.763-1.045l0.004-0.015c0.13-0.412 0.148-0.85 0.054-1.27-0.132-0.584-0.451-1.078-0.889-1.43l-0.005-0.004c-0.213-0.167-0.464-0.297-0.737-0.373l-0.015-0.004c-0.141-0.040-0.303-0.063-0.47-0.063-0.146 0-0.287 0.017-0.423 0.050l0.012-0.002-0.561 0.122c-0.019 0.004-0.041 0.007-0.064 0.007-0.14 0-0.258-0.098-0.288-0.229l-0-0.002-0.148-0.668c-0.031-0.133-0.148-0.231-0.289-0.231-0.023 0-0.045 0.003-0.066 0.007l0.002-0-0.677 0.15c-0.134 0.030-0.233 0.148-0.233 0.289 0 0.021 0.002 0.042 0.007 0.063l-0-0.002 0.15 0.673c0.004 0.019 0.007 0.041 0.007 0.064 0 0.141-0.098 0.259-0.23 0.289l-0.002 0-1.833 0.406c-0.327 0.074-0.567 0.361-0.567 0.705 0 0.055 0.006 0.108 0.018 0.16l-0.001-0.005 1.65 7.46c0.074 0.327 0.361 0.567 0.705 0.567 0.055 0 0.108-0.006 0.16-0.018l-0.005 0.001 1.833-0.407c0.019-0.004 0.041-0.007 0.064-0.007 0.141 0 0.259 0.098 0.289 0.23l0 0.002 0.148 0.667c0.030 0.134 0.148 0.232 0.289 0.232 0.023 0 0.045-0.003 0.066-0.007l-0.002 0 0.677-0.15c0.134-0.030 0.232-0.148 0.232-0.289 0-0.023-0.003-0.045-0.007-0.066l0 0.002-0.149-0.672c-0.004-0.019-0.007-0.041-0.007-0.064 0-0.139 0.096-0.256 0.225-0.287l0.002-0 0.253-0.061c0.408-0.090 0.489-0.147 0.831-0.324 0.336-0.169 0.623-0.382 0.867-0.636l0.001-0.001c0.23-0.241 0.398-0.532 0.494-0.85 0.096-0.343 0.102-0.706 0.016-1.052-0.132-0.601-0.388-1.061-0.768-1.379zM13.945 14.377c-0.011-0.047-0.017-0.1-0.017-0.155 0-0.344 0.24-0.631 0.562-0.704l0.005-0.001 1.38-0.306c0.053-0.013 0.114-0.021 0.177-0.021 0.162 0 0.313 0.050 0.437 0.136l-0.003-0.002c0.19 0.124 0.316 0.332 0.38 0.624 0.070 0.316 0.035 0.569-0.107 0.757-0.131 0.179-0.323 0.308-0.544 0.357l-0.006 0.001-1.305 0.289c-0.047 0.011-0.101 0.017-0.156 0.017-0.344 0-0.632-0.24-0.704-0.562l-0.001-0.005-0.098-0.426zM17.854 18.144c-0.135 0.21-0.349 0.36-0.598 0.408l-0.006 0.001-1.569 0.347c-0.047 0.011-0.1 0.017-0.155 0.017-0.344 0-0.631-0.24-0.704-0.562l-0.001-0.005-0.117-0.527c-0.011-0.047-0.017-0.1-0.017-0.155 0-0.344 0.24-0.631 0.562-0.704l0.005-0.001 1.656-0.367c0.053-0.013 0.113-0.020 0.175-0.020 0.186 0 0.357 0.067 0.489 0.177l-0.001-0.001c0.204 0.162 0.343 0.391 0.392 0.647 0.021 0.074 0.032 0.159 0.032 0.246 0 0.185-0.053 0.357-0.144 0.503l0.002-0.004h-0.002zM21.152 23.527c-0.040 0.048-0.065 0.11-0.065 0.178 0 0.001 0 0.001 0 0.002v-0 0.28c0 0.153 0.124 0.277 0.277 0.277h2.452c0 0 0.001 0 0.001 0 0.153 0 0.277-0.124 0.277-0.277 0 0 0 0 0 0v0-0.215c0 0 0 0 0 0 0-0.153-0.124-0.277-0.277-0.277-0 0-0.001 0-0.001 0h-1.051c-0 0-0 0-0.001 0-0.153 0-0.277-0.124-0.277-0.277 0-0.066 0.023-0.126 0.061-0.174l-0 0.001 1.466-1.842c0.038-0.046 0.061-0.106 0.061-0.172 0-0 0-0 0-0v0-0.284c0-0.153-0.124-0.277-0.277-0.277v0h-2.358c-0 0-0.001 0-0.001 0-0.153 0-0.277 0.124-0.277 0.277 0 0 0 0 0 0v0 0.216c0 0.153 0.124 0.277 0.278 0.277h1.032c0 0 0 0 0.001 0 0.153 0 0.277 0.124 0.277 0.277 0 0.068-0.024 0.13-0.065 0.178l0-0-1.533 1.832z"></path>
</svg>
