<!-- Generated by IcoMoon.io -->
<svg version="1.1" xmlns="http://www.w3.org/2000/svg" width="32" height="32" viewBox="0 0 32 32">
<title>bts</title>
<path fill="#fff" d="M16 32c-8.837 0-16-7.163-16-16s7.163-16 16-16 16 7.163 16 16-7.163 16-16 16zM9.030 5l0.006 0.003c-0.006 2.575 0 5.15-0.006 7.73-0.001 0.006-0.001 0.012-0.001 0.019 0 0.051 0.023 0.096 0.060 0.126l0 0 5.544 5.542c0.277-0.158 0.575-0.286 0.89-0.345 0.009-2.394 0-4.789 0.003-7.186 0-0.006 0-0.013 0-0.020 0-0.039-0.003-0.076-0.010-0.113l0.001 0.004c-0.061-0.072-0.14-0.128-0.213-0.195l-6.274-5.565zM16.477 13.607h0.003c0 1.49-0.010 2.98 0 4.468 0.338 0.068 0.661 0.2 0.95 0.388 0.718-0.706 1.427-1.423 2.141-2.135 0.338-0.344 0.691-0.673 1.018-1.023-1.103-0.965-2.526-1.589-4.090-1.697l-0.022-0.001zM9.033 14.275l-0.003-0.003v5.819h4.472c0.076-0.342 0.212-0.668 0.402-0.963-1.624-1.616-3.243-3.24-4.87-4.853zM20.639 16.608v0.003c-0.846 0.843-1.695 1.686-2.535 2.532 0.167 0.247 0.289 0.521 0.359 0.81 0.017 0.056 0.017 0.158 0.105 0.138 1.467-0.003 2.937 0.003 4.404-0.003-0.11-1.583-0.735-3.001-1.707-4.108l0.007 0.008c-0.225 0.197-0.42 0.416-0.633 0.62zM9.030 21.042c0.108 1.571 0.726 2.98 1.687 4.082l-0.007-0.008c0.027 0.044 0.064-0.011 0.088-0.029l3.1-3.092c-0.179-0.271-0.314-0.589-0.385-0.93l-0.003-0.018c-0.221-0.014-0.44-0.005-0.659-0.005h-3.82zM18.492 21.047c-0.061 0.31-0.178 0.607-0.344 0.875 0.446 0.461 0.907 0.908 1.359 1.363l1.808 1.802c0.942-1.087 1.552-2.486 1.656-4.024l0.001-0.021h-2.596c-0.63 0.005-1.254-0.010-1.884 0.005zM17.238 22.777l-0.003-0.003c-0.219 0.125-0.472 0.221-0.741 0.277l-0.017 0.003v4.463c1.593-0.106 3.022-0.734 4.135-1.714l-0.008 0.007-3.156-3.15c-0.070 0.035-0.14 0.076-0.21 0.117zM12.647 24.571v0.003c-0.411 0.417-0.834 0.822-1.237 1.245 1.102 0.967 2.526 1.592 4.092 1.697l0.021 0.001v-4.463c-0.36-0.080-0.678-0.216-0.962-0.401l0.011 0.007c-0.647 0.63-1.283 1.275-1.925 1.91z"></path>
</svg>
