<!-- Generated by IcoMoon.io -->
<svg version="1.1" xmlns="http://www.w3.org/2000/svg" width="32" height="32" viewBox="0 0 32 32">
<title>chat</title>
<path fill="#fff" d="M16 32c-8.837 0-16-7.163-16-16s7.163-16 16-16 16 7.163 16 16-7.163 16-16 16zM16.28 23.325c1.028 0.711 2.332 1.134 3.744 1.134 0.351 0 0.698-0.026 1.039-0.077 0.117 0.048 0.23 0.107 0.369 0.187 0.3 0.176 0.701 0.446 1.2 0.81 0.409 0.299 0.988 0.010 0.988-0.493v-1.461c0.21-0.136 0.408-0.283 0.595-0.442 1.13-0.958 1.785-2.268 1.785-3.673 0-0.925-0.28-1.79-0.772-2.537-0.174 0.587-0.387 1.094-0.648 1.571l0.021-0.041c0.104 0.323 0.159 0.66 0.159 1.007 0 1.034-0.488 2.010-1.352 2.742-0.211 0.179-0.445 0.344-0.694 0.487l-0.023 0.012c-0.186 0.107-0.31 0.304-0.311 0.531v0.624c-0.593-0.38-1-0.559-1.31-0.559-0.037 0-0.073 0.003-0.108 0.010l0.004-0.001c-0.282 0.050-0.608 0.078-0.939 0.078-0.593 0-1.165-0.091-1.703-0.259l0.040 0.011c-0.606 0.165-1.316 0.285-2.046 0.338l-0.037 0.002zM8.814 20.403c0.309 0.263 0.649 0.515 1.007 0.743l0.037 0.022v2.492c0 0.63 0.725 0.99 1.236 0.616 1.41-1.030 2.39-1.612 2.635-1.67 0.566 0.090 1.144 0.135 1.728 0.135 5.2 0 9.458-3.607 9.458-8.12 0-4.514-4.259-8.121-9.458-8.121s-9.457 3.607-9.457 8.12c0 2.21 1.030 4.271 2.814 5.783zM13.763 21.069c-0.503 0-1.238 0.355-2.354 1.104v-1.437c-0.001-0.284-0.156-0.531-0.386-0.662l-0.004-0.002c-0.453-0.259-0.844-0.534-1.207-0.842l0.011 0.009c-1.453-1.229-2.273-2.873-2.273-4.619 0-3.61 3.516-6.588 7.907-6.588 4.392 0 7.907 2.978 7.907 6.588s-3.515 6.589-7.907 6.589c-0.53 0-1.053-0.044-1.564-0.13-0.038-0.006-0.081-0.010-0.125-0.010-0.002 0-0.004 0-0.005 0h0zM11.426 16.153c0.685 0 1.24-0.55 1.24-1.226 0-0.677-0.555-1.226-1.24-1.226s-1.24 0.549-1.24 1.226c0 0.677 0.555 1.226 1.24 1.226zM15.457 16.153c0.685 0 1.24-0.55 1.24-1.226 0-0.677-0.555-1.226-1.24-1.226s-1.24 0.549-1.24 1.226c0 0.677 0.555 1.226 1.24 1.226zM19.488 16.153c0.685 0 1.24-0.55 1.24-1.226 0-0.677-0.555-1.226-1.24-1.226s-1.24 0.549-1.24 1.226c0 0.677 0.555 1.226 1.24 1.226z"></path>
</svg>
