<!-- Generated by IcoMoon.io -->
<svg version="1.1" xmlns="http://www.w3.org/2000/svg" width="32" height="32" viewBox="0 0 32 32">
<title>cloak</title>
<path fill="#fff" d="M16 32c-8.837 0-16-7.163-16-16s7.163-16 16-16 16 7.163 16 16-7.163 16-16 16zM16.003 5c-6.063 0-11 4.929-11.003 10.986-0.003 6.067 4.925 11.008 10.986 11.014h0.010c6.066 0 11.002-4.933 11.004-10.997 0.002-6.057-4.931-10.993-10.997-11.003zM16 6.418h0.001c2.556 0 4.96 0.998 6.771 2.81 1.733 1.722 2.805 4.107 2.805 6.742 0 0.010 0 0.020-0 0.030v-0.002c-0.004 5.28-4.306 9.576-9.59 9.576-5.273-0.004-9.562-4.3-9.561-9.576 0.002-5.282 4.297-9.58 9.574-9.58zM20.728 15.017c-0.455-2.213-2.386-3.854-4.701-3.856h-0c-0.355 0-0.715 0.040-1.070 0.118-2.382 0.522-3.967 2.676-3.77 5.12 0.093 1.161 0.54 2.137 1.363 2.985l0.158 0.163 0.21-0.089 0.388-0.16 0.489-0.196-0.387-0.359c-0.568-0.526-0.967-1.227-1.111-2.018l-0.003-0.022c-0.223-1.186 0.082-2.294 0.88-3.204 0.693-0.786 1.703-1.28 2.828-1.28 0.001 0 0.001 0 0.002 0h-0c0.988 0 1.918 0.38 2.62 1.067 0.799 0.78 1.183 1.728 1.144 2.814s-0.448 1.987-1.217 2.677l-0.394 0.354 0.49 0.204c0.123 0.051 0.244 0.106 0.363 0.164l0.216 0.106 0.17-0.171c1.235-1.254 1.671-2.698 1.332-4.417zM9.973 21.307l0.244 0.273 0.916-0.986-0.196-0.227c-0.668-0.765-1.165-1.697-1.42-2.725l-0.010-0.045c-0.125-0.481-0.197-1.033-0.197-1.602 0-0.723 0.116-1.419 0.33-2.070l-0.013 0.047c0.39-1.218 1.087-2.247 2-3.030l0.009-0.007c1.166-1.009 2.696-1.624 4.371-1.625h0c1.761 0 3.419 0.678 4.667 1.909 1.23 1.212 1.902 2.684 1.998 4.374 0.103 1.85-0.467 3.49-1.695 4.873l-0.198 0.223 0.898 1.002 0.249-0.268c1.963-2.105 2.62-5.257 1.675-8.030-1.114-3.185-4.093-5.428-7.595-5.428-0.067 0-0.135 0.001-0.201 0.002l0.010-0c-3.462 0.083-6.375 2.343-7.426 5.46l-0.017 0.057c-1.070 3.258 0.126 6.178 1.602 7.824z"></path>
</svg>
