<!-- Generated by IcoMoon.io -->
<svg version="1.1" xmlns="http://www.w3.org/2000/svg" width="32" height="32" viewBox="0 0 32 32">
<title>cnx</title>
<path fill="#fff" d="M14.514 25.556c0.726 0.601 1.571 1.091 2.491 1.425l0.059 0.019-0.142-1.374c4.455-0.441 7.997-3.846 8.644-8.196l0.006-0.053c0.593-0.721 1.077-1.559 1.409-2.471l0.019-0.059-1.383 0.143c-0.478-4.416-3.867-7.914-8.187-8.556l-0.053-0.006c-0.721-0.593-1.559-1.077-2.471-1.409l-0.059-0.019 0.143 1.383c-4.416 0.478-7.914 3.867-8.556 8.187l-0.006 0.053c-0.593 0.72-1.077 1.559-1.409 2.471l-0.019 0.059 1.383-0.143c0.474 4.378 3.809 7.854 8.076 8.539l0.055 0.007zM15.084 21.424c-2.424-0.421-4.285-2.381-4.552-4.82l-0.002-0.025 1.3-0.135c-0.479-0.377-0.895-0.8-1.254-1.27l-0.012-0.017c0.393-2.458 2.368-4.355 4.832-4.625l0.025-0.002 0.135 1.3c0.377-0.479 0.8-0.895 1.27-1.254l0.017-0.012c2.458 0.393 4.355 2.368 4.625 4.832l0.002 0.025-1.3 0.135c0.479 0.377 0.895 0.8 1.254 1.27l0.012 0.017c-0.398 2.488-2.417 4.401-4.923 4.633l-0.022 0.002-0.136-1.309c-0.389 0.491-0.812 0.91-1.271 1.255zM16 32c-8.837 0-16-7.163-16-16s7.163-16 16-16 16 7.163 16 16-7.163 16-16 16z"></path>
<path fill="#fff" opacity="0.497" d="M16.922 25.626l0.143 1.374c-2.070-0.74-3.726-2.203-4.968-4.391 1.715-0.207 3.134-1.020 4.258-2.44l0.136 1.31c2.529-0.234 4.548-2.148 4.941-4.605l0.004-0.031c0.624 0.828 1.044 1.841 1.17 2.944l0.003 0.028c1.209-0.687 2.196-1.499 2.963-2.438-0.653 4.403-4.195 7.808-8.61 8.246l-0.040 0.003zM14.99 6.383l-0.143-1.383c2.070 0.74 3.726 2.203 4.968 4.391-1.716 0.207-3.135 1.020-4.259 2.44l-0.135-1.3c-2.489 0.272-4.464 2.168-4.853 4.595l-0.004 0.031c-0.624-0.828-1.044-1.841-1.17-2.944l-0.003-0.028c-1.209 0.687-2.196 1.499-2.963 2.438 0.648-4.373 4.146-7.762 8.519-8.236l0.043-0.004z"></path>
</svg>
