<!-- Generated by IcoMoon.io -->
<svg version="1.1" xmlns="http://www.w3.org/2000/svg" width="32" height="32" viewBox="0 0 32 32">
<title>cny</title>
<path fill="#fff" d="M16 32c-8.837 0-16-7.163-16-16s7.163-16 16-16 16 7.163 16 16-7.163 16-16 16zM9.171 8v1.925h13.816v-1.925zM7.631 13.641v1.945h4.895v0.385c-0.079 1.886-0.473 3.407-1.223 4.6-0.75 1.080-2.171 2.003-4.303 2.735l1.105 1.694c2.21-0.75 3.79-1.81 4.777-3.157 1.006-1.464 1.559-3.427 1.657-5.872v-0.385h2.922v6.93c0 1.406 0.69 2.118 2.092 2.118h3.138c0.69 0 1.204-0.212 1.559-0.597 0.355-0.404 0.612-1.694 0.75-3.87l-1.855-0.577c-0.040 1.56-0.138 2.503-0.277 2.81-0.118 0.29-0.315 0.444-0.552 0.444h-2.171c-0.454 0-0.671-0.25-0.671-0.751v-6.507h5.23v-1.946z"></path>
</svg>
