<!-- Generated by IcoMoon.io -->
<svg version="1.1" xmlns="http://www.w3.org/2000/svg" width="32" height="32" viewBox="0 0 32 32">
<title>dash</title>
<path fill="#fff" d="M16 32c-8.837 0-16-7.163-16-16s7.163-16 16-16 16 7.163 16 16-7.163 16-16 16zM19.086 8.004h-7.276l-0.602 3.367 6.562 0.010c3.231 0 4.19 1.173 4.159 3.12-0.014 0.998-0.449 2.686-0.633 3.23-0.497 1.46-1.521 3.122-5.359 3.117l-6.378-0.004-0.602 3.371h7.257c2.559 0 3.649-0.299 4.8-0.83 2.554-1.178 4.075-3.701 4.686-6.994 0.906-4.9-0.224-8.387-6.615-8.387zM15.806 15.798c0.238-0.985 0.313-1.38 0.313-1.38h-7.446c-1.904 0-2.176 1.24-2.357 1.99-0.237 0.981-0.312 1.381-0.312 1.381h7.447c1.903 0 2.175-1.24 2.356-1.991z"></path>
</svg>
