<!-- Generated by IcoMoon.io -->
<svg version="1.1" xmlns="http://www.w3.org/2000/svg" width="32" height="32" viewBox="0 0 32 32">
<title>dlt</title>
<path fill="#fff" d="M16 32c-8.837 0-16-7.163-16-16s7.163-16 16-16 16 7.163 16 16-7.163 16-16 16zM15.807 8.958c0.039-0.085 0.124-0.143 0.222-0.143v0c0.094 0 0.18 0.057 0.22 0.145l6.29 13.695c0.14 0.305 0.443 0.514 0.794 0.516h0.084c0.261-0.001 0.481-0.178 0.547-0.419l0.001-0.004c0.022-0.077 0.035-0.165 0.035-0.255 0-0.149-0.034-0.29-0.095-0.416l0.003 0.006-7.293-15.252c-0.033-0.068-0.079-0.125-0.134-0.17l-0.001-0.001c-0.119-0.099-0.273-0.159-0.441-0.159-0.173 0-0.33 0.063-0.452 0.168l0.001-0.001c-0.13 0.112-0.235 0.249-0.31 0.404l-0.003 0.007-7.19 15.148c-0.053 0.109-0.084 0.238-0.084 0.373 0 0.295 0.147 0.557 0.371 0.715l0.003 0.002 0.056 0.040c0.138 0.094 0.3 0.144 0.466 0.144h10.752c0.358-0.002 0.669-0.199 0.832-0.49l0.003-0.005c0.051-0.090 0.081-0.197 0.081-0.312 0-0.090-0.018-0.175-0.052-0.252l0.002 0.004-0.010-0.025c-0.112-0.268-0.371-0.453-0.674-0.455h-10.117z"></path>
</svg>
