<!-- Generated by IcoMoon.io -->
<svg version="1.1" xmlns="http://www.w3.org/2000/svg" width="32" height="32" viewBox="0 0 32 32">
<title>dta</title>
<path fill="#fff" d="M24.963 14.512l-0.020-1.949-11.152-6.563-2.713 1.674-0.006-0.003-3.072 1.813v13.022l2.831 1.812 2.992 1.682 11.177-6.521-0.017-4.968zM21.688 17.624l-7.854 4.618-2.292-1.363 7.807-4.594zM18.822 15.984l-4.837 2.923 0.021-5.681zM14.008 12.618l0.010-2.689 7.732 4.515v2.705zM10.82 23.57l-2.334-1.395v-12.279l2.346 1.401v9.572l0.018-0.010zM11.236 20.569v-9.273l2.345-1.401v9.256zM16 32c-8.837 0-16-7.163-16-16s7.163-16 16-16 16 7.163 16 16-7.163 16-16 16zM14.116 22.601l10.42-6.12-0.030 2.82-10.437 6.136zM21.909 14.017l-10.432-6.1 2.406-1.39 10.455 6.104z"></path>
</svg>
