<!-- Generated by IcoMoon.io -->
<svg version="1.1" xmlns="http://www.w3.org/2000/svg" width="32" height="32" viewBox="0 0 32 32">
<title>dtr</title>
<path fill="#fff" d="M16 32c-8.837 0-16-7.163-16-16s7.163-16 16-16 16 7.163 16 16-7.163 16-16 16zM18.032 22.87v-13.79c0-1.146-0.92-2.075-2.056-2.075s-2.055 0.929-2.055 2.075v13.79c0 1.145 0.92 2.074 2.055 2.074s2.056-0.929 2.056-2.075zM11.112 22.875v-3.1c0-0.011 0-0.024 0-0.038 0-0.754-0.403-1.415-1.006-1.777l-0.009-0.005c-0.296-0.178-0.653-0.283-1.034-0.283s-0.738 0.105-1.043 0.288l0.009-0.005c-0.612 0.368-1.014 1.028-1.014 1.782 0 0.013 0 0.027 0 0.040l-0-0.002v3.1c-0 0.011-0 0.025-0 0.038 0 0.754 0.403 1.414 1.005 1.777l0.009 0.005c0.639 0.376 1.43 0.376 2.068 0 0.612-0.368 1.014-1.028 1.014-1.782 0-0.013-0-0.027-0-0.040l0 0.002zM24.955 17.4v-5.233c0-1.146-0.92-2.075-2.056-2.075s-2.056 0.929-2.056 2.075v5.233c0 1.146 0.92 2.075 2.056 2.075s2.056-0.93 2.056-2.075z"></path>
<path fill="#fff" opacity="0.5" d="M24.956 17.4c0 1.145-0.92 2.074-2.056 2.074s-2.056-0.93-2.056-2.075v-5.233c0-1.146 0.92-2.075 2.056-2.075s2.056 0.929 2.056 2.075z"></path>
</svg>
