<!-- Generated by IcoMoon.io -->
<svg version="1.1" xmlns="http://www.w3.org/2000/svg" width="32" height="32" viewBox="0 0 32 32">
<title>entrp</title>
<path fill="#fff" d="M16 32c-8.837 0-16-7.163-16-16s7.163-16 16-16 16 7.163 16 16-7.163 16-16 16zM14.737 4.502c-0.108 0.015-0.525 0.093-0.926 0.154-2.238 0.378-4.305 1.474-6.018 3.194-1.72 1.713-2.77 3.696-3.21 6.057-0.2 1.073-0.2 3.171 0 4.244 0.44 2.36 1.49 4.343 3.21 6.056 1.713 1.72 3.695 2.77 6.056 3.21 1.073 0.2 3.171 0.2 4.244 0 2.36-0.44 4.344-1.49 6.057-3.21 1.72-1.713 2.77-3.695 3.21-6.056 0.2-1.073 0.2-3.171 0-4.244-0.44-2.36-1.49-4.344-3.21-6.057-1.675-1.682-3.565-2.708-5.856-3.17-0.71-0.147-3.071-0.263-3.557-0.178zM18.857 8.592c0.092 0.038 0.123 0.153 0.123 0.462v0.417h-0.486c-0.617 0-1.103 0.231-1.304 0.617-0.131 0.247-0.139 0.548-0.139 4.205 0 2.16-0.030 3.973-0.061 4.027-0.162 0.247-1.35 0.317-1.883 0.108l-0.216-0.085v-3.988c0-3.72-0.008-4.020-0.139-4.267-0.2-0.386-0.687-0.617-1.304-0.617h-0.486v-0.417c0-0.262 0.039-0.432 0.1-0.455 0.14-0.062 5.648-0.062 5.795-0.008zM14.428 11.808v0.95l-0.224 0.13c-0.331 0.194-0.887 0.772-1.11 1.15-0.125 0.223-0.235 0.481-0.318 0.752l-0.007 0.028-0.123 0.44h-0.887c-1.011 0-0.98 0.038-0.764-0.81 0.27-1.027 0.926-2.069 1.72-2.701 0.44-0.355 1.412-0.888 1.605-0.888 0.085 0 0.108 0.201 0.108 0.95zM18.255 11.13c1.321 0.67 2.301 1.854 2.685 3.281l0.008 0.036c0.216 0.849 0.247 0.81-0.764 0.81h-0.887l-0.124-0.44c-0.090-0.299-0.2-0.557-0.334-0.8l0.010 0.021c-0.224-0.378-0.78-0.956-1.111-1.15l-0.224-0.13v-0.95c0-0.748 0.023-0.949 0.108-0.949 0.054 0 0.34 0.124 0.633 0.27zM12.654 15.983c0 0.362 0.239 1.103 0.486 1.489 1.319 2.090 4.343 2.090 5.663 0 0.247-0.386 0.486-1.127 0.486-1.49v-0.262h1.844l-0.039 0.401c-0.193 1.875-1.227 3.388-2.847 4.19-0.748 0.37-1.404 0.525-2.276 0.525-2.7 0-4.837-1.968-5.123-4.715l-0.038-0.4h1.844v0.262zM17.090 21.561c0.1 0.54 0.656 0.872 1.489 0.872h0.401v0.848h-6.018v-0.826l0.563-0.038c0.363-0.023 0.656-0.092 0.818-0.185 0.24-0.139 0.548-0.602 0.548-0.818 0-0.077 0.247-0.1 1.072-0.1h1.080l0.047 0.247z"></path>
</svg>
