<!-- Generated by IcoMoon.io -->
<svg version="1.1" xmlns="http://www.w3.org/2000/svg" width="32" height="32" viewBox="0 0 32 32">
<title>eth</title>
<path fill="#fff" d="M16 32c-8.837 0-16-7.163-16-16s7.163-16 16-16 16 7.163 16 16-7.163 16-16 16zM23.994 16.219l-7.496-12.219-7.498 12.22 7.498 4.353 7.496-4.354zM24 17.616l-7.502 4.351-7.498-4.35 7.498 10.378 7.502-10.379z"></path>
<path fill="#fff" opacity="0.5" d="M16.498 4v8.87l7.497 3.35z"></path>
<path fill="#fff" opacity="0.8" d="M16.498 4l-7.498 12.22 7.498-3.35z"></path>
<path fill="#fff" opacity="0.5" d="M16.498 21.968v6.027l7.502-10.379z"></path>
<path fill="#fff" opacity="0.796" d="M16.498 27.995v-6.028l-7.498-4.351z"></path>
<path fill="#fff" opacity="0.5" d="M9 16.22l7.498 4.353v-7.701z"></path>
</svg>
