<!-- Generated by IcoMoon.io -->
<svg version="1.1" xmlns="http://www.w3.org/2000/svg" width="32" height="32" viewBox="0 0 32 32">
<title>eur</title>
<path fill="#fff" d="M16 32c-8.837 0-16-7.163-16-16s7.163-16 16-16 16 7.163 16 16-7.163 16-16 16zM8 19.004h1.994c1.103 3.996 3.739 5.996 7.906 5.996 1.585 0 2.951-0.216 4.1-0.648v-2.373c-1.209 0.494-2.32 0.74-3.334 0.74-1.419 0-2.512-0.271-3.277-0.815-0.766-0.545-1.416-1.511-1.949-2.9h4.956l0.8-2.003h-6.184c-0.030-0.378-0.045-0.806-0.045-1.285 0-0.416 0.019-0.748 0.056-0.995h7.096l0.811-2.003h-7.422c0.713-2.292 2.316-3.438 4.809-3.438 0.013-0 0.028-0 0.044-0 1.318 0 2.569 0.286 3.695 0.799l-0.056-0.023v-2.524c-1.146-0.338-2.462-0.532-3.824-0.532-0.026 0-0.052 0-0.077 0l0.004-0c-4.16 0-6.833 1.906-8.020 5.718h-1.271l-0.812 2.003h1.69c-0.036 0.364-0.057 0.787-0.057 1.214 0 0.013 0 0.025 0 0.038v-0.002c0 0.332 0.011 0.675 0.034 1.030h-0.857z"></path>
</svg>
