<!-- Generated by IcoMoon.io -->
<svg version="1.1" xmlns="http://www.w3.org/2000/svg" width="32" height="32" viewBox="0 0 32 32">
<title>fct</title>
<path fill="#fff" d="M8.011 10.005l0.007-0.010c0.047-0.064 0.096-0.127 0.143-0.182l-0.064 0.085-0.063 0.084-0.022 0.023zM7.94 10.088l0.005-0.006c-0.062 0.078-0.119 0.159-0.18 0.254l0-0c0.005-0.005 0.010-0.010 0.015-0.015 0.058-0.078 0.107-0.155 0.16-0.233zM7.661 10.505l0.018-0.032c0.033-0.055 0.067-0.109 0.085-0.135l-0.002 0.004c0-0.001 0.001-0.001 0.003-0.006 0.078-0.121 0.162-0.241 0.247-0.331zM7.568 10.66c-0.043 0.085-0.127 0.254-0.212 0.339 0.048-0.132 0.12-0.246 0.212-0.339l-0 0c-0.085 0.127-0.17 0.212-0.212 0.339-0.042 0.085-0.085 0.17-0.085 0.254 0.127-0.212 0.297-0.423 0.424-0.635 0.094-0.251 0.188-0.432 0.317-0.613zM8.84 9.073c0.113-0.122 0.246-0.229 0.38-0.362 0.083-0.102 0.166-0.193 0.254-0.28l0-0c-0.064 0.055-0.119 0.105-0.173 0.156l0.003-0.003c0.1-0.1 0.141-0.14 0.228-0.21 0.578-0.553 1.502-1.148 2.484-1.57 0.251-0.104 0.49-0.19 0.713-0.258 0.194-0.077 0.39-0.136 0.584-0.184-3.72 1.964-3.639 1.902-3.5 1.799-0.17 0.127-0.17 0.127-0.509 0.423-0.188 0.189-0.377 0.343-0.505 0.524l-0.088 0.070c-0.107 0.135-0.206 0.288-0.29 0.449l-0.007 0.016c0 0.043-0.042 0.127-0.042 0.17 0.054-0.067 0.109-0.127 0.167-0.184l0-0c-0.044 0.043-0.085 0.089-0.123 0.138l-0.002 0.003c-0.042 0.043-0.042 0.085-0.042 0.128-0.042 0.169 0 0.254 0.042 0.38l0.017-0.020c0.322 0.399 1.493 0.306 2.95-0.318 0.508-0.17 0.974-0.424 1.398-0.678 0.084-0.085 0.042-0.212 0-0.254s-0.212-0.254-0.34-0.212c-0.338 0.212-0.72 0.381-1.101 0.55-1.158 0.497-2.074 0.59-2.354 0.278l0.023-0.023c-0.084-0.085-0.084-0.212-0.042-0.339v0c0.042-0.17 0.127-0.339 0.254-0.508-0.126 0.094-0.252 0.213-0.379 0.32zM6.406 18.587l0.004 0.013c-0.001 0.016-0.001 0.035-0.001 0.054 0 0.032 0.001 0.065 0.003 0.097l-0-0.004c-0.004-0.035-0.007-0.075-0.007-0.116 0-0.016 0-0.031 0.001-0.047l-0 0.002-0.026-0.088c-0.084-0.128-0.127-0.255-0.17-0.382 0.075 0.222 0.149 0.541 0.223 0.788 0.302 1.5 3.465 1.419 7.66-0.406 4.83-2.034 9.194-5.466 9.787-7.71 0.127-0.51 0.085-0.89-0.17-1.187-0.211-0.212-0.423-0.466-0.635-0.678 0.297 0.297 0.382 0.678 0.255 1.229-0.594 2.203-4.873 5.592-9.577 7.583-3.686 1.567-6.568 1.822-7.33 0.763 0.042 0.296 0.127 0.55 0.212 0.804-0.14-0.18-0.224-0.408-0.224-0.657 0-0.013 0-0.027 0.001-0.040l-0 0.002c0.074 0.25 0.148 0.473 0.223 0.695-0.078-0.080-0.137-0.18-0.169-0.291l-0.001-0.005c-0.004-0.009-0.015-0.043-0.025-0.077l-0.007-0.025zM6.211 17.407c0.713 1.021 3.485 0.818 7.076-0.731 4.534-1.907 8.687-5.169 9.237-7.287 0.128-0.55 0-0.974-0.339-1.27l-0.423-0.297-0.34-0.212c0.17 0.127 0.51 0.339 0.467 0.932-0.127 3.304-12.882 11.1-15.72 8.091 0 0.128 0 0.265 0.005 0.403 0.005-0.138-0.006-0.275-0.006-0.403-0.084-0.169-0.169-0.338-0.169-0.593 0 0.186 0.023 0.44 0.035 0.662-0.007 0.085-0.004 0.17 0.008 0.251v-0.023c0-0.066-0.003-0.14-0.008-0.219-0.006 0.090-0.003 0.174 0.008 0.255 0.004 0.195 0.049 0.353 0.169 0.472v-0.030zM6.19 14.177c0.020-0.128 0.042-0.255 0.063-0.382v0.085l-0.085 0.339-0.084 0.593c0-0.037 0.008-0.073 0.017-0.11l-0.017 0.11c-0.007 0.044-0.011 0.094-0.011 0.146 0 0.187 0.052 0.362 0.143 0.511l-0.002-0.004c0 0.009-0.002 0.017-0.003 0.025-0.114-0.157-0.182-0.354-0.182-0.566 0-0.054 0.004-0.108 0.013-0.16l-0.001 0.006c-0.042 0.508 0.127 0.847 0.551 1.059 0.085 0.042 0.127-0.128 0.17-0.255 0 0 0.084-0.423-0.043-0.593-0.134-0.060-0.248-0.142-0.341-0.243l-0.001-0.001 0.003-0.010c-0.17-0.17-0.212-0.466-0.127-0.805l-0.063 0.254zM12.6 6.599c-0.11 0.048-0.22 0.102-0.33 0.164l-0.074 0.027c-0.666 0.277-1.299 0.616-1.852 0.985l-0.026 0.018c0.115-0.085 0.231-0.167 0.384-0.268 0.297-0.169 0.297-0.169 0.424-0.254 0.296-0.17 0.296-0.17 0.466-0.254 0.339-0.17 0.339-0.17 0.508-0.212l0.041-0.014c0.073-0.028 0.146-0.057 0.179-0.073l-0.043 0.019c-0.059 0.028-0.117 0.057-0.134 0.068-0.338 0.127-0.338 0.127-0.508 0.212-0.297 0.169-0.297 0.169-0.467 0.254-0.296 0.169-0.296 0.169-0.423 0.254-0.297 0.17-0.297 0.17-0.424 0.297-0.221 0.138-0.316 0.186-0.391 0.238l-0.043 0.037-0.021 0.015c0.119-0.091 0.241-0.178 0.395-0.281l0.018-0.009 0.065-0.047zM12.422 6.675c0.077-0.031 0.173-0.063 0.357-0.124 0.056-0.023 0.097-0.040 0.136-0.054 0.17-0.052 0.239-0.073 0.32-0.104-0.133 0.038-0.225 0.068-0.316 0.1l0.040-0.012c0.994-0.259 1.604-0.109 1.472 0.451-0.042 0.17-0.17 0.381-0.381 0.635 0.085 0.085 0.55 0.17 0.763 0.085 0.254-0.254 0.423-0.508 0.466-0.762 0.17-0.72-0.636-0.89-1.907-0.551l-0.060 0.023zM6.812 13.136l-0.177 0.532c0.55 0.805 2.67 0.593 5.423-0.55 3.475-1.484 6.653-3.983 7.077-5.593 0.17-0.593-0.043-0.974-0.594-1.186-0.084 0-0.211-0.042-0.381-0.085-0.254-0.085-0.254-0.085-0.339-0.042 0.466 0.17 0.636 0.508 0.509 1.059-0.382 1.44-3.306 3.728-6.484 5.126-2.475 1.049-4.411 1.225-4.942 0.529l0.027-0.063c-0.082-0.136-0.131-0.3-0.131-0.475 0-0.103 0.017-0.202 0.048-0.294l-0.002 0.007c-0.103 0.199-0.203 0.437-0.285 0.684l-0.011 0.036c-0.043 0.085-0.043 0.128-0.043 0.212-0.042 0.255 0 0.467 0.128 0.636 0.042-0.201 0.103-0.379 0.183-0.546l-0.006 0.014zM7.355 11.889c-0.085-0.127-0.127-0.297-0.127-0.509 0 0.212 0 0.339 0.127 0.509zM13.35 25.346c0 0 0.001 0 0.001 0s0.001 0 0.001 0h-0c1.117-0.039 2.652-0.415 4.427-1.172 3.94-1.694 7.542-4.533 8.050-6.354 0.043-0.043 0.043-0.085 0.043-0.127 0-0.212 0.042-0.509 0.085-0.763l0.042-0.127c-0.433 3.065-8.263 7.756-12.727 8.197-0.781 0.077-1.46 0.024-1.976-0.19 0.211 0.127 0.55 0.254 0.805 0.381 0.318 0.12 0.74 0.172 1.249 0.155zM13.846 23.604c-2.112 0.591-3.69 0.604-4.372 0.020 0.211 0.17 0.508 0.38 0.72 0.55 0.592 0.404 1.731 0.449 3.233 0.134-0.002 0.005-0.007 0.016-0.011 0.029l-0.002 0.008 0.019-0.037c0.86-0.18 1.84-0.479 2.905-0.895 0.254-0.127 0.254-0.297 0.212-0.34 0 0-0.17-0.296-0.636-0.169-0.731 0.287-1.423 0.52-2.066 0.7l0.075-0.106-0.077 0.107zM16 32c-8.837 0-16-7.163-16-16s7.163-16 16-16 16 7.163 16 16-7.163 16-16 16zM8.542 22.692c0.043 0 0.085 0.042 0.085 0.084-0.17-0.212-0.424-0.508-0.593-0.72 0.127 0.212 0.339 0.424 0.508 0.636zM15.28 6.042h-0.17c0.975-0.084 1.526 0.212 1.356 0.89-0.212 0.72-1.186 1.695-2.5 2.584 0 0-0.042 0-0.042 0.043-0.085 0.17 0.212 0.55 0.508 0.423 1.483-1.016 2.627-2.16 2.84-2.965 0.168-0.678-0.256-1.017-1.146-1.017-0.254 0-0.593 0.042-0.847 0.042zM20.364 7.017c-0.254-0.127-0.593-0.254-0.847-0.382 0.55 0.212 0.805 0.636 0.636 1.271-0.467 1.78-3.984 4.576-7.84 6.228-0.72 0.297-1.398 0.55-2.033 0.72-0.043 0.043-0.085 0.043-0.127 0.127-0.17 0.254-0.128 0.763 0.254 0.72 0.678-0.211 1.44-0.466 2.203-0.804 4.068-1.737 7.797-4.66 8.305-6.567 0.17-0.635-0.042-1.060-0.55-1.313zM24.771 11.211l-0.339-0.593c0.127 0.17 0.17 0.339 0.17 0.593 0.042 0.212 0.296 0.72 0.423 0.762v-0.042c0-0.17 0-0.17-0.127-0.508l-0.127-0.212zM25.661 13.456c-0.042-0.254-0.17-0.593-0.297-0.932 0.085 0.254 0.085 0.55 0 0.89-0.508 1.906-3.77 4.702-7.67 6.736-0.1 0.054-0.175 0.143-0.209 0.251l-0.001 0.003c-0.086 0.296 0.169 0.593 0.592 0.424 3.856-1.992 7.034-4.745 7.543-6.61 0.084-0.296 0.084-0.55 0.042-0.762zM25.958 15.236l-0.085-0.551c0.042 0.212 0 0.423-0.042 0.635-0.297 1.186-1.738 2.712-3.73 4.194-0.097 0.091-0.17 0.205-0.21 0.335l-0.001 0.005c-0.043 0.211 0.127 0.508 0.424 0.296 1.906-1.44 3.305-2.923 3.601-4.067 0.043-0.212 0.043-0.34 0.043-0.509v-0.339zM8.415 10.277c-0.042-0.126-0.084-0.211-0.042-0.38-0.042 0.169 0 0.254 0.042 0.381zM10.788 11.464s0-0.381-0.17-0.339c-1.44 0.466-2.5 0.466-2.838 0.042-0.17 0.255-0.297 0.466-0.424 0.72 0.339 0.382 1.060 0.424 1.568 0.34 1.822-0.255 1.864-0.551 1.864-0.763zM6.636 13.667c-0.128-0.169-0.17-0.381-0.128-0.636-0.042 0.255 0 0.466 0.128 0.636zM22.61 15.15c-0.042-0.127-0.17-0.382-0.508-0.212-1.865 1.652-4.619 3.39-7.5 4.618-3.814 1.652-6.78 1.864-7.585 0.805 0.085 0.127 0.127 0.296 0.212 0.423 0.042 0.043 0.042 0.085 0.085 0.127 0.042 0.085 0.084 0.127 0.127 0.212-0.17-0.254-0.17-0.466-0.17-0.508-0.042 0.042-0.085-0.043-0.042 0.084 0.296 1.526 3.517 1.398 7.796-0.38 2.882-1.23 5.636-2.924 7.5-4.619 0.075-0.096 0.12-0.219 0.12-0.352 0-0.071-0.013-0.139-0.036-0.202l0.001 0.004zM11.89 22.902c-0.043-0.084-0.254-0.339-0.551-0.339-1.653 0.255-2.797 0.085-3.263-0.508 0.17 0.212 0.424 0.508 0.593 0.72 0.509 0.551 1.61 0.678 3.136 0.424 0.17-0.042 0.127-0.212 0.085-0.297zM25.237 19.81c0.127-0.254 0.255-0.636 0.339-0.89-0.508 1.652-3.77 4.194-7.33 5.719-2.204 0.932-4.026 1.271-5 0.975l-0.043-0.012c0.304 0.098 0.619 0.171 0.975 0.224 2.712 0.424 9.576-2.966 11.059-6.016zM23.034 22.86c0.042-0.042 0.042-0.085 0.042-0.085-0.042 0-0.042-0.042-0.042-0.042-0.042 0-0.042 0.042-0.085 0.042-1.060 0.89-2.5 1.737-3.983 2.373-1.483 0.593-2.712 0.89-3.56 0.847h1.060c0.72-0.042 1.695-0.297 2.797-0.763 1.313-0.55 2.584-1.313 3.517-2.075 0.17-0.127 0.254-0.255 0.254-0.297zM6.508 12.863c0.085-0.254 0.17-0.508 0.297-0.72 0.042-0.127 0.085-0.212 0.085-0.34-0.085 0.255-0.254 0.636-0.34 0.89 0 0.043-0.042 0.128-0.042 0.17z"></path>
</svg>
