<!-- Generated by IcoMoon.io -->
<svg version="1.1" xmlns="http://www.w3.org/2000/svg" width="32" height="32" viewBox="0 0 32 32">
<title>fsn</title>
<path fill="#fff" d="M4.876 27.5h0.223c0.84-3.16 2.045-6.633 3.39-10.164 1.233-3.217 2.634-5.893 4.119-8.114 0.896 0 1.82 0.057 2.773 0.114 1.177 0.086 2.41 0.228 3.67 0.399 3.867 0.54 5.94 1.423 6.949 2.477-0.925-3.274-4.259-6.064-10.843-6.036h-0.14c2.942-3.246 5.968-4.555 8.21-3.644 0.107 0.032 0.2 0.081 0.282 0.144l-0.002-0.002c-0.57-0.757-1.243-1.34-2.018-1.708 6.133 2.24 10.511 8.126 10.511 15.034 0 8.837-7.163 16-16 16-0.006 0-0.014 0-0.021 0-4.318 0-8.235-1.716-11.107-4.504l0.004 0.004zM4.848 27.473c-2.991-2.903-4.848-6.961-4.848-11.453 0-0.007 0-0.014 0-0.021v0.001c0-1.047 0.1-2.070 0.292-3.060 1.617-1.804 4.744-3.064 9.010-3.518-1.009 1.992-1.905 4.27-2.662 6.86-1.146 3.976-1.706 7.81-1.792 11.19zM0.385 12.497c1.597-7.152 7.982-12.497 15.615-12.497 1.492 0 2.937 0.204 4.307 0.586-2.946-0.55-6.385 1.546-9.324 5.932-5.357 0.86-9.025 3.172-10.598 5.979zM17.763 16.482c-1.793 0-3.25 1.48-3.25 3.36 0 1.85 1.457 3.359 3.25 3.359s3.25-1.509 3.25-3.36c0-1.85-1.457-3.359-3.25-3.359z"></path>
</svg>
