<!-- Generated by IcoMoon.io -->
<svg version="1.1" xmlns="http://www.w3.org/2000/svg" width="32" height="32" viewBox="0 0 32 32">
<title>game</title>
<path fill="#fff" d="M16 32c-8.837 0-16-7.163-16-16s7.163-16 16-16 16 7.163 16 16-7.163 16-16 16zM12.869 12.685v2.488h11.085v-2.488zM23.954 16.829h-11.085v2.488h8.233v2.335c-1.104 0.952-3.266 1.444-3.266 1.444-6.347 1.106-8.37-4.33-8.37-4.33-1.84-6.265 2.62-8.753 2.62-8.753 5.474-3.317 9.568 0.921 9.568 0.921l1.932-1.888c-3.22-3.686-8.187-2.995-8.187-2.995-8.050 0.83-9.108 7.601-9.108 7.601-1.334 5.436 2.346 9.168 2.346 9.168 6.716 6.817 15.363 0.552 15.363 0.552v-6.542z"></path>
</svg>
