<!-- Generated by IcoMoon.io -->
<svg version="1.1" xmlns="http://www.w3.org/2000/svg" width="32" height="32" viewBox="0 0 32 32">
<title>gin</title>
<path fill="#fff" d="M16 32c-8.837 0-16-7.163-16-16s7.163-16 16-16 16 7.163 16 16-7.163 16-16 16zM24.029 17.326c0.008 0 0.017 0 0.027 0 0.401 0 0.727-0.326 0.727-0.727s-0.326-0.727-0.727-0.727c-0.009 0-0.019 0-0.028 0.001l0.001-0h-1.66v-1.642h3.471c0.008 0 0.017 0.001 0.027 0.001 0.401 0 0.727-0.325 0.727-0.727s-0.326-0.727-0.727-0.727c-0.009 0-0.019 0-0.028 0.001l0.001-0h-3.485c-0.15-1.608-1.357-2.895-2.913-3.165l-0.021-0.003v-1.749c0-0.008 0-0.017 0-0.027 0-0.402-0.326-0.727-0.727-0.727s-0.727 0.325-0.727 0.727c0 0.009 0 0.019 0.001 0.028l-0-0.001v1.7h-1.642v-3.821c0-0.008 0-0.017 0-0.027 0-0.402-0.326-0.727-0.727-0.727s-0.727 0.325-0.727 0.727c0 0.009 0 0.019 0.001 0.028l-0-0.001v3.82h-1.643v-1.7c-0.015-0.39-0.334-0.7-0.726-0.7s-0.712 0.31-0.726 0.699l-0 0.001v1.75c-1.577 0.273-2.784 1.56-2.933 3.154l-0.001 0.014h-4.103c-0.008-0-0.017-0.001-0.027-0.001-0.402 0-0.727 0.325-0.727 0.727s0.326 0.727 0.727 0.727c0.009 0 0.019-0 0.028-0.001l-0.001 0h4.090v1.642h-1.66c-0.008-0-0.017-0.001-0.027-0.001-0.402 0-0.727 0.326-0.727 0.727s0.325 0.727 0.727 0.727c0.009 0 0.019-0 0.028-0.001l-0.001 0h1.66v1.642h-3.163c-0.008-0-0.017-0-0.027-0-0.402 0-0.727 0.326-0.727 0.727s0.325 0.727 0.727 0.727c0.009 0 0.019-0 0.028-0.001l-0.001 0h3.176c0.15 1.608 1.357 2.895 2.913 3.165l0.021 0.003v1.13c-0 0.008-0.001 0.017-0.001 0.027 0 0.401 0.325 0.727 0.727 0.727s0.727-0.326 0.727-0.727c0-0.009-0-0.019-0.001-0.028l0 0.001v-1.081h1.642v3.291c0.015 0.39 0.334 0.7 0.726 0.7s0.712-0.31 0.726-0.699l0-0.001v-3.291h1.642v1.7c-0 0.008-0 0.017-0 0.027 0 0.401 0.326 0.727 0.727 0.727s0.727-0.326 0.727-0.727c0-0.009-0-0.019-0.001-0.028l0 0.001v-1.748c1.577-0.273 2.784-1.56 2.933-3.154l0.001-0.014h4.811c0.008 0 0.017 0 0.027 0 0.401 0 0.727-0.326 0.727-0.727s-0.326-0.727-0.727-0.727c-0.009 0-0.019 0-0.028 0.001l0.001-0h-4.795v-1.642h1.659zM21.209 20.108c-0.001 1.308-1.062 2.369-2.37 2.37h-6.48c-1.308-0.001-2.369-1.062-2.37-2.37v-7.018c0.001-1.308 1.062-2.369 2.37-2.37h6.48c1.308 0.001 2.369 1.062 2.37 2.37v7.017zM13.901 12.435c-0.040-0.001-0.087-0.001-0.134-0.001-0.249 0-0.495 0.011-0.739 0.032l0.032-0.002c-0.442 0.050-0.767 0.45-0.781 0.884-0.022 0.984-0.004 1.97-0.010 2.954 0.014 0.502-0.034 1.010 0.040 1.507 0.071 0.444 0.505 0.73 0.936 0.729 1.34 0.009 2.68 0.003 4.020 0.004v0.555h-4.315l-0.555 1.665h4.294c0.502-0.014 1.009 0.034 1.507-0.039 0.444-0.071 0.729-0.505 0.728-0.936 0.010-1.753 0.002-3.506 0.005-5.26-0.016-0.47 0.041-0.949-0.054-1.413-0.101-0.473-0.608-0.706-1.056-0.677h-3.076c-0.28 0.005-0.562-0.001-0.843-0.003zM13.934 14.102h3.33v2.775h-3.33v-2.775z"></path>
</svg>
