<!-- Generated by IcoMoon.io -->
<svg version="1.1" xmlns="http://www.w3.org/2000/svg" width="32" height="32" viewBox="0 0 32 32">
<title>grin</title>
<path fill="#fff" d="M16 32c-8.837 0-16-7.163-16-16s7.163-16 16-16 16 7.163 16 16-7.163 16-16 16zM22.64 9.568c-0.34-0.761-0.655-2.265-1.525-2.6-1.12-0.43-1.811 2.388-1.976 3.1h-0.167c-0.282-1.22-0.66-2.95-2-3.334-0.62 2.605 0.648 5.414 1.834 7.669 1.266-0.606 1.883-2.5 2-3.835h0.167l1.334 4.001c1.073-0.308 1.446-1.37 1.833-2.334 0.832-2.068 1.53-4.612 1-6.835-1.6 0.454-2.088 2.743-2.5 4.168zM6.636 14.903c1.432-0.684 2.114-2.85 2.334-4.335h0.166c0.17 0.716 0.623 2.562 1.517 2.68 1.14 0.151 1.737-2.377 1.817-3.18h0.167c0.363 1.255 0.746 2.888 2 3.501 0.464-1.944-0.090-4.017-0.801-5.835-0.183-0.467-0.558-1.728-1.203-1.728-1.056 0-1.65 2.784-1.83 3.562h-0.166l-1.334-4.001c-2.346 1.12-3.62 7.077-2.667 9.336zM4.135 16.903c1.74 7.594 9.771 11.9 17.005 8.692 2.634-1.19 4.706-3.24 5.894-5.786l0.030-0.072c0.311-0.674 0.922-1.895 0.566-2.78-0.355-0.882-3.795 0.558-4.655 0.935-0.119 0.054-0.205 0.162-0.226 0.293l-0 0.002c-0.005 0.031-0.008 0.066-0.008 0.102 0 0.353 0.273 0.643 0.619 0.67l0.002 0 1.444 0.112c-2.615 5.062-9.686 7.3-14.67 3.256-1.116-0.905-2.111-1.98-2.781-3.256-0.324-0.617-0.625-1.406-1.175-1.83-0.53-0.406-1.332-0.546-2.046-0.338z"></path>
</svg>
