<!-- Generated by IcoMoon.io -->
<svg version="1.1" xmlns="http://www.w3.org/2000/svg" width="32" height="32" viewBox="0 0 32 32">
<title>gup</title>
<path fill="#fff" d="M16 32c-8.837 0-16-7.163-16-16s7.163-16 16-16 16 7.163 16 16-7.163 16-16 16zM15.99 12.679l2.8-2.82c-0.907-1.46-1.826-2.72-2.829-3.907l0.040 0.048c-0.965 1.143-1.886 2.408-2.714 3.737l-0.080 0.138 2.784 2.804zM21.708 15.489c-0.759-1.676-1.515-3.234-2.39-4.748l-3.328 3.352-3.31-3.334c-0.828 1.438-1.558 2.934-2.28 4.557-0.786 2.202-2.078 4.577-0.97 6.691 1.907 3.644 6.387 5.054 10.006 3.135 1.334-0.722 2.399-1.794 3.092-3.095l0.020-0.040c1.099-2.114-0.054-4.316-0.84-6.517z"></path>
</svg>
