<!-- Generated by IcoMoon.io -->
<svg version="1.1" xmlns="http://www.w3.org/2000/svg" width="32" height="32" viewBox="0 0 32 32">
<title>gusd</title>
<path fill="#fff" d="M16 32c-8.837 0-16-7.163-16-16s7.163-16 16-16 16 7.163 16 16-7.163 16-16 16zM19.378 5c-3.87 0-7.157 2.976-7.57 6.807-3.833 0.414-6.808 3.701-6.808 7.57 0.002 4.209 3.413 7.62 7.622 7.623h0c3.87 0 7.17-2.976 7.57-6.807 3.832-0.414 6.808-3.701 6.808-7.57-0.002-4.209-3.413-7.62-7.622-7.623h-0zM25.214 13.476c-0.402 2.567-2.403 4.568-4.937 4.966l-0.033 0.004v-4.97h4.97zM6.786 18.524c0.396-2.572 2.399-4.58 4.937-4.979l0.034-0.004v4.97h-4.97v0.013zM18.459 20.244c-0.434 2.865-2.88 5.035-5.832 5.035-0.002 0-0.004 0-0.005 0h0c-0.002 0-0.003 0-0.005 0-2.952 0-5.397-2.17-5.827-5.001l-0.004-0.033h11.673zM18.524 13.476v5.035h-5.048v-5.035h5.048zM25.214 11.756h-11.673c0.434-2.865 2.88-5.035 5.832-5.035 0.002 0 0.004 0 0.005 0h-0c0.002 0 0.003 0 0.005 0 2.952 0 5.397 2.17 5.827 5.001l0.004 0.033z"></path>
</svg>
