<!-- Generated by IcoMoon.io -->
<svg version="1.1" xmlns="http://www.w3.org/2000/svg" width="32" height="32" viewBox="0 0 32 32">
<title>icx</title>
<path fill="#fff" d="M11.296 22.472c1.303 0.957 2.938 1.532 4.708 1.532 4.418 0 8-3.582 8-8 0-1.77-0.575-3.405-1.548-4.73l0.016 0.022-2.164 2.164c0.437 0.727 0.695 1.605 0.695 2.543 0 2.761-2.239 5-5 5-0.938 0-1.816-0.258-2.566-0.708l0.023 0.013zM9.528 20.704l2.164-2.164c-0.437-0.727-0.695-1.605-0.695-2.543 0-2.761 2.239-5 5-5 0.938 0 1.816 0.258 2.566 0.708l-0.023-0.013 2.164-2.164c-1.303-0.957-2.938-1.532-4.708-1.532-4.418 0-8 3.582-8 8 0 1.77 0.575 3.405 1.548 4.73l-0.016-0.022zM16 32c-8.837 0-16-7.163-16-16s7.163-16 16-16 16 7.163 16 16-7.163 16-16 16zM24 10c1.105 0 2-0.895 2-2s-0.895-2-2-2v0c-1.105 0-2 0.895-2 2s0.895 2 2 2v0zM8 26c1.105 0 2-0.895 2-2s-0.895-2-2-2v0c-1.105 0-2 0.895-2 2s0.895 2 2 2v0z"></path>
</svg>
