<!-- Generated by IcoMoon.io -->
<svg version="1.1" xmlns="http://www.w3.org/2000/svg" width="32" height="32" viewBox="0 0 32 32">
<title>kin</title>
<path fill="#fff" d="M16 32c-8.837 0-16-7.163-16-16s7.163-16 16-16 16 7.163 16 16-7.163 16-16 16zM19.636 13.030c0.35 0 0.633-0.278 0.633-0.62v-0.367c-0.003-0.343-0.282-0.62-0.626-0.62-0.002 0-0.005 0-0.007 0h-0.376c-0.002-0-0.005-0-0.007-0-0.344 0-0.623 0.277-0.626 0.62v0.986zM13.701 13.030v-0.987c-0.003-0.343-0.282-0.62-0.626-0.62-0.002 0-0.005 0-0.007 0h-0.375c-0.002-0-0.005-0-0.007-0-0.344 0-0.623 0.277-0.626 0.62v0.367c0 0.342 0.283 0.62 0.633 0.62zM12.693 19.613h0.375c0.35 0 0.633-0.277 0.633-0.619v-0.987h-1.008c-0.002-0-0.005-0-0.007-0-0.344 0-0.623 0.277-0.626 0.62v0.367c0 0.342 0.283 0.62 0.633 0.62zM19.26 19.613h0.376c0.35 0 0.633-0.277 0.633-0.619v-0.367c-0.003-0.343-0.282-0.62-0.626-0.62-0.002 0-0.005 0-0.007 0h-1.010v0.987c0 0.342 0.284 0.62 0.634 0.62zM15.976 11.583h0.376c0.35 0 0.633-0.276 0.633-0.618v-0.368c-0.004-0.343-0.283-0.619-0.626-0.619-0.002 0-0.005 0-0.007 0h-0.376c-0.002-0-0.005-0-0.007-0-0.344 0-0.623 0.277-0.626 0.62v0.367c0 0.342 0.284 0.619 0.633 0.619zM15.976 21.38h0.376c0.35 0 0.633-0.278 0.633-0.62v-0.367c-0.003-0.343-0.282-0.62-0.626-0.62-0.002 0-0.005 0-0.007 0h-0.376c-0.002-0-0.005-0-0.007-0-0.344 0-0.623 0.277-0.626 0.62v0.368c0 0.341 0.284 0.619 0.633 0.619zM20.902 16.401h0.375c0.35 0 0.633-0.277 0.633-0.619v-0.367c-0.003-0.343-0.282-0.62-0.626-0.62-0.002 0-0.005 0-0.007 0h-0.375c-0.002-0-0.005-0-0.007-0-0.344 0-0.623 0.277-0.626 0.62v0.367c0 0.342 0.283 0.62 0.633 0.62zM10.887 16.401h0.375c0.35 0 0.634-0.277 0.634-0.619v-0.367c-0.003-0.343-0.282-0.62-0.626-0.62-0.003 0-0.006 0-0.008 0h-0.375c-0.002-0-0.005-0-0.007-0-0.344 0-0.623 0.277-0.626 0.62v0.367c0 0.342 0.283 0.62 0.633 0.62zM18.172 14.857c0.001 0 0.002 0 0.003 0 0.249 0 0.451-0.201 0.452-0.45v-1.217h-1.253c-0.001 0-0.002 0-0.003 0-0.249 0-0.451 0.201-0.452 0.45v0.4c0 0.45-0.347 0.84-0.804 0.84-0.463-0.007-0.838-0.378-0.85-0.839l-0-0.001v-0.417c-0.002-0.239-0.196-0.433-0.436-0.433-0.001 0-0.002 0-0.003 0h-1.125v4.978h1.116c0.001 0 0.002 0 0.003 0 0.245 0 0.444-0.198 0.445-0.443v-0.374c0-0.476 0.355-0.875 0.812-0.875 0.46 0.004 0.833 0.374 0.842 0.833v0.413c0 0.246 0.202 0.446 0.451 0.446h1.257v-1.231c-0.002-0.247-0.202-0.446-0.449-0.446-0.001 0-0.002 0-0.003 0h-0.375c-0.457 0-0.881-0.366-0.881-0.817 0.004-0.452 0.371-0.817 0.824-0.817 0.001 0 0.003 0 0.004 0h0.425zM18.653 21.422c-0.209 0.084-0.353 0.285-0.353 0.519 0 0.078 0.016 0.152 0.045 0.219l-0.001-0.004c0.092 0.206 0.295 0.347 0.531 0.347 0.079 0 0.154-0.016 0.223-0.044l-0.004 0.001c0.209-0.084 0.353-0.284 0.353-0.518 0-0.078-0.016-0.152-0.045-0.219l0.001 0.004c-0.092-0.206-0.295-0.348-0.531-0.348-0.079 0-0.154 0.016-0.222 0.044l0.004-0.001zM13.4 8.897c-0.209 0.084-0.354 0.285-0.354 0.519 0 0.077 0.016 0.151 0.044 0.218l-0.001-0.004c0.092 0.206 0.295 0.347 0.531 0.347 0.079 0 0.154-0.016 0.223-0.044l-0.004 0.001c0.209-0.084 0.354-0.285 0.354-0.519 0-0.077-0.016-0.151-0.044-0.218l0.001 0.004c-0.092-0.206-0.295-0.347-0.531-0.347-0.079 0-0.154 0.016-0.223 0.044l0.004-0.001zM21.954 13.325c0.092 0.206 0.295 0.347 0.531 0.347 0.079 0 0.154-0.016 0.223-0.044l-0.004 0.001c0.21-0.083 0.355-0.285 0.355-0.52 0-0.078-0.016-0.152-0.045-0.219l0.001 0.004c-0.092-0.206-0.295-0.347-0.531-0.347-0.079 0-0.154 0.016-0.223 0.044l0.004-0.001c-0.21 0.083-0.355 0.285-0.355 0.52 0 0.078 0.016 0.152 0.045 0.219l-0.001-0.004zM9.312 18.463c0.092 0.206 0.295 0.347 0.531 0.347 0.079 0 0.155-0.016 0.224-0.045l-0.004 0.001c0.209-0.084 0.354-0.285 0.354-0.519 0-0.077-0.016-0.151-0.044-0.218l0.001 0.004c-0.092-0.206-0.295-0.347-0.531-0.347-0.079 0-0.155 0.016-0.223 0.045l0.004-0.001c-0.209 0.084-0.355 0.285-0.355 0.52 0 0.077 0.016 0.151 0.044 0.218l-0.001-0.004zM9.312 12.894c-0.027 0.064-0.043 0.138-0.043 0.216 0 0.235 0.145 0.436 0.351 0.518l0.004 0.001c0.065 0.027 0.14 0.043 0.22 0.043 0.236 0 0.439-0.141 0.53-0.344l0.001-0.004c0.027-0.064 0.043-0.138 0.043-0.216 0-0.235-0.145-0.435-0.35-0.518l-0.004-0.001c-0.065-0.028-0.141-0.044-0.221-0.044-0.236 0-0.44 0.141-0.53 0.344l-0.001 0.004zM18.489 9.935c0.065 0.027 0.14 0.043 0.219 0.043 0.236 0 0.439-0.141 0.53-0.343l0.001-0.004c0.027-0.063 0.043-0.137 0.043-0.215 0-0.234-0.145-0.435-0.349-0.518l-0.004-0.001c-0.065-0.027-0.14-0.043-0.219-0.043-0.236 0-0.439 0.141-0.53 0.343l-0.001 0.004c-0.027 0.063-0.043 0.137-0.043 0.215 0 0.234 0.145 0.435 0.349 0.518l0.004 0.001zM21.954 18.033c-0.027 0.063-0.043 0.137-0.043 0.215 0 0.235 0.145 0.436 0.35 0.518l0.004 0.001c0.065 0.027 0.14 0.043 0.219 0.043 0.236 0 0.439-0.141 0.53-0.343l0.001-0.004c0.027-0.064 0.043-0.137 0.043-0.215 0-0.234-0.145-0.435-0.349-0.518l-0.004-0.001c-0.065-0.027-0.14-0.043-0.219-0.043-0.236 0-0.439 0.141-0.529 0.343l-0.001 0.004zM13.071 22.621c0.065 0.027 0.14 0.043 0.219 0.043 0.236 0 0.439-0.141 0.53-0.343l0.001-0.004c0.027-0.064 0.043-0.137 0.043-0.215 0-0.234-0.145-0.435-0.349-0.518l-0.004-0.001c-0.065-0.027-0.14-0.043-0.219-0.043-0.236 0-0.439 0.141-0.53 0.343l-0.001 0.004c-0.027 0.064-0.043 0.138-0.043 0.216 0 0.234 0.145 0.435 0.35 0.517l0.004 0.001zM21.514 20.991c-0.060 0.058-0.097 0.138-0.097 0.227s0.037 0.17 0.097 0.227l0 0c0.129 0.125 0.336 0.125 0.464 0s0.129-0.329 0-0.454c-0.060-0.058-0.142-0.094-0.232-0.094s-0.172 0.036-0.232 0.094l0-0zM10.35 9.912c-0.060 0.058-0.097 0.138-0.097 0.227s0.037 0.17 0.097 0.227l0 0c0.060 0.058 0.142 0.094 0.232 0.094s0.172-0.036 0.232-0.094l-0 0c0.128-0.126 0.128-0.329 0-0.454s-0.336-0.126-0.464 0zM21.514 10.367c0.060 0.058 0.142 0.094 0.232 0.094s0.172-0.036 0.232-0.094l-0 0c0.129-0.126 0.129-0.329 0-0.454s-0.335-0.126-0.464 0c-0.059 0.058-0.096 0.138-0.096 0.227s0.037 0.169 0.096 0.227l0 0zM10.35 21.446c0.128 0.125 0.336 0.125 0.464 0s0.128-0.329 0-0.454c-0.060-0.058-0.142-0.094-0.232-0.094s-0.172 0.036-0.232 0.094l0-0c-0.059 0.058-0.096 0.138-0.096 0.227s0.037 0.169 0.096 0.227l0 0zM23.88 15.599c0 0.177 0.148 0.32 0.329 0.32 0.001 0 0.002 0 0.003 0 0.178 0 0.322-0.143 0.325-0.32v-0c-0.002-0.178-0.147-0.322-0.325-0.322-0.001 0-0.002 0-0.003 0h0c-0.001 0-0.002 0-0.003 0-0.178 0-0.323 0.144-0.325 0.322v0zM7.955 15.599c0 0.177 0.147 0.32 0.329 0.32 0.001 0 0.002 0 0.003 0 0.178 0 0.322-0.143 0.325-0.32v-0c-0.002-0.178-0.147-0.322-0.325-0.322-0.001 0-0.002 0-0.003 0h0c-0.001-0-0.003-0-0.004-0-0.178 0-0.323 0.144-0.325 0.322v0zM16.165 8.212c0.001 0 0.002 0 0.003 0 0.178 0 0.323-0.143 0.325-0.321v-0c-0.002-0.178-0.147-0.322-0.325-0.322-0.001 0-0.003 0-0.004 0h0c-0.001 0-0.002 0-0.003 0-0.178 0-0.323 0.144-0.325 0.322v0c0 0.177 0.147 0.32 0.328 0.32zM16.165 23.788c0.001 0 0.002 0 0.003 0 0.178 0 0.322-0.143 0.325-0.32v-0c-0.002-0.178-0.147-0.322-0.325-0.322-0.001 0-0.003 0-0.004 0h0c-0.001 0-0.002 0-0.003 0-0.178 0-0.323 0.143-0.325 0.321v0c0 0.177 0.147 0.321 0.328 0.321zM26.343 15.598c0 0.178 0.148 0.322 0.329 0.322 0.001 0 0.002 0 0.003 0 0.178 0 0.323-0.143 0.325-0.321v-0c-0.002-0.178-0.147-0.322-0.325-0.322-0.001 0-0.002 0-0.003 0h0c-0.001-0-0.003-0-0.004-0-0.178 0-0.323 0.144-0.325 0.322v0zM5.246 15.438c-0.136 0-0.246 0.108-0.246 0.24s0.11 0.242 0.246 0.242 0.247-0.108 0.247-0.241-0.11-0.241-0.247-0.241zM15.672 5.321c0 0.177 0.147 0.321 0.328 0.321s0.328-0.144 0.328-0.32c0-0.178-0.147-0.322-0.328-0.322s-0.328 0.144-0.328 0.321zM25.397 19.426c-0.024 0.055-0.038 0.119-0.038 0.187 0 0.2 0.123 0.371 0.297 0.443l0.003 0.001c0.056 0.024 0.122 0.038 0.191 0.038 0.201 0 0.375-0.119 0.454-0.291l0.001-0.003c0.024-0.055 0.038-0.12 0.038-0.187 0-0.2-0.123-0.372-0.298-0.444l-0.003-0.001c-0.056-0.024-0.122-0.038-0.191-0.038-0.201 0-0.375 0.12-0.453 0.292l-0.001 0.003zM20.067 24.616c-0.037-0.015-0.080-0.025-0.126-0.025-0.135 0-0.251 0.080-0.304 0.194l-0.001 0.002c-0.016 0.036-0.025 0.078-0.025 0.122s0.009 0.086 0.026 0.125l-0.001-0.002c0.052 0.119 0.169 0.2 0.304 0.2 0.134 0 0.249-0.079 0.301-0.194l0.001-0.002c0.016-0.036 0.025-0.079 0.025-0.124s-0.009-0.085-0.025-0.123l0.001 0.002c-0.034-0.080-0.096-0.142-0.174-0.174l-0.002-0.001zM6.442 11.289c-0.037-0.016-0.081-0.025-0.127-0.025s-0.087 0.009-0.127 0.025l0.002-0.001c-0.081 0.032-0.144 0.093-0.178 0.17l-0.001 0.002c-0.017 0.037-0.026 0.080-0.026 0.125 0 0.044 0.009 0.085 0.025 0.123l-0.001-0.002c0.052 0.119 0.168 0.2 0.304 0.2 0.134 0 0.249-0.079 0.301-0.194l0.001-0.002c0.017-0.037 0.026-0.080 0.026-0.125 0-0.044-0.009-0.085-0.025-0.123l0.001 0.002c-0.034-0.080-0.096-0.142-0.174-0.174l-0.002-0.001zM5.526 19.539c-0.020 0.046-0.032 0.099-0.032 0.156 0 0.166 0.102 0.309 0.247 0.368l0.003 0.001c0.21 0.086 0.45-0.010 0.538-0.213 0.020-0.046 0.032-0.1 0.032-0.157 0-0.167-0.102-0.309-0.247-0.369l-0.003-0.001c-0.047-0.020-0.102-0.032-0.16-0.032-0.168 0-0.312 0.099-0.377 0.243l-0.001 0.003zM19.863 6.252c0.208 0.086 0.45-0.010 0.537-0.214 0.020-0.046 0.032-0.1 0.032-0.157 0-0.167-0.102-0.309-0.247-0.369l-0.003-0.001c-0.047-0.020-0.102-0.032-0.16-0.032-0.168 0-0.312 0.1-0.377 0.243l-0.001 0.003c-0.088 0.204 0.010 0.44 0.219 0.526zM26.004 11.119c-0.061 0.024-0.108 0.070-0.133 0.128l-0.001 0.002c-0.012 0.027-0.019 0.059-0.019 0.093s0.007 0.064 0.019 0.092l-0.001-0.002c0.039 0.089 0.127 0.149 0.228 0.149 0.1 0 0.187-0.059 0.226-0.145l0.001-0.002c0.012-0.028 0.019-0.060 0.019-0.094 0-0.1-0.061-0.186-0.148-0.222l-0.002-0.001c-0.028-0.012-0.061-0.019-0.096-0.019s-0.066 0.007-0.095 0.019l0.002-0.001zM11.587 5.95c-0.012 0.028-0.019 0.060-0.019 0.094 0 0.1 0.061 0.185 0.148 0.222l0.002 0.001c0.028 0.012 0.061 0.019 0.095 0.019 0.101 0 0.188-0.060 0.227-0.146l0.001-0.002c0.012-0.028 0.019-0.060 0.019-0.094 0-0.1-0.061-0.185-0.148-0.221l-0.002-0.001c-0.029-0.013-0.062-0.020-0.097-0.020-0.101 0-0.187 0.060-0.226 0.146l-0.001 0.002zM11.65 24.912c-0.001 0-0.001 0-0.002 0-0.101 0-0.187 0.060-0.226 0.146l-0.001 0.002c-0.012 0.027-0.018 0.059-0.018 0.092 0 0.1 0.062 0.186 0.149 0.222l0.002 0.001c0.028 0.012 0.061 0.019 0.095 0.019 0.1 0 0.187-0.060 0.226-0.146l0.001-0.002c0.012-0.028 0.019-0.060 0.019-0.094 0-0.1-0.061-0.185-0.148-0.221l-0.002-0.001c-0.028-0.012-0.061-0.020-0.096-0.020h-0zM23.292 23.212c0.059-0.058 0.096-0.138 0.096-0.227s-0.037-0.169-0.096-0.227l-0-0c-0.059-0.058-0.141-0.094-0.231-0.094-0 0-0.001 0-0.001 0h0c-0.001 0-0.002 0-0.002 0-0.090 0-0.171 0.036-0.231 0.094l0-0c-0.060 0.058-0.097 0.138-0.097 0.227s0.037 0.17 0.097 0.227l0 0c0.060 0.058 0.142 0.094 0.233 0.094s0.172-0.036 0.233-0.094l-0 0zM7.935 8.033c-0.089 0.086-0.144 0.207-0.144 0.341s0.055 0.254 0.144 0.34l0 0c0.090 0.088 0.213 0.143 0.348 0.143s0.259-0.054 0.349-0.143l-0 0c0.089-0.086 0.144-0.207 0.144-0.341s-0.055-0.254-0.144-0.34l-0-0c-0.090-0.087-0.213-0.141-0.348-0.141s-0.258 0.054-0.349 0.141l0-0zM23.46 8.123c-0.044 0.043-0.072 0.103-0.072 0.17s0.028 0.127 0.072 0.17l0 0c0.045 0.044 0.107 0.071 0.174 0.071s0.13-0.027 0.175-0.071l-0 0c0.044-0.043 0.071-0.103 0.071-0.17s-0.027-0.127-0.071-0.17l-0-0c-0.045-0.044-0.106-0.072-0.174-0.072s-0.13 0.027-0.175 0.072l0-0zM8.027 22.735c-0.044 0.043-0.072 0.103-0.072 0.17s0.028 0.127 0.072 0.17l0 0c0.045 0.044 0.107 0.071 0.175 0.071s0.13-0.027 0.175-0.071l-0 0c0.044-0.043 0.072-0.103 0.072-0.17s-0.028-0.127-0.072-0.17l-0-0c-0.047-0.046-0.109-0.070-0.175-0.070s-0.127 0.024-0.174 0.070zM16.082 27c0.227 0 0.41-0.18 0.41-0.401-0.002-0.223-0.183-0.402-0.406-0.402-0.001 0-0.003 0-0.004 0h0c-0.227 0-0.41 0.18-0.41 0.402 0 0.221 0.183 0.401 0.41 0.401z"></path>
</svg>
