<!-- Generated by IcoMoon.io -->
<svg version="1.1" xmlns="http://www.w3.org/2000/svg" width="32" height="32" viewBox="0 0 32 32">
<title>loom</title>
<path fill="#fff" d="M24.92 15.62l0.551-0.387c0.034 0.042 0.033 0.040 0.031 0.038l-0.036-0.044 0.697-0.487c1.099-0.778 1.808-2.045 1.808-3.476s-0.709-2.698-1.794-3.468l-0.013-0.009 0.008 0.010-3.961-2.777-4.9 3.429 1.314 0.925 3.58-2.505 3.090 2.167c0.708 0.5 1.165 1.315 1.165 2.236s-0.457 1.737-1.157 2.231l-0.009 0.006-1.697 1.184-13.817-9.693-3.971 2.791c-1.099 0.778-1.808 2.045-1.808 3.476s0.709 2.698 1.794 3.468l0.013 0.009 1.241 0.871-0.304 0.214 0.005 0.007-0.942 0.658c-1.099 0.778-1.808 2.045-1.808 3.477s0.709 2.698 1.794 3.468l0.013 0.009 3.957 2.779 4.897-3.429-1.314-0.926-3.586 2.506-3.090-2.167c-0.708-0.5-1.165-1.315-1.165-2.236s0.457-1.737 1.157-2.231l0.009-0.006 1.705-1.19 13.816 9.692 3.972-2.792c1.099-0.778 1.808-2.045 1.808-3.477s-0.709-2.698-1.794-3.468l-0.013-0.009-1.247-0.874zM23.594 16.55l1.697 1.19c0.708 0.5 1.165 1.315 1.165 2.236s-0.457 1.737-1.157 2.231l-0.009 0.006-3.094 2.164-12.49-8.757 4.966-3.466-1.32-0.928-0.367 0.256-0.010-0.015-4.6 3.22-1.693-1.187c-0.708-0.5-1.165-1.315-1.165-2.236s0.457-1.737 1.157-2.231l0.009-0.006 3.093-2.164 12.492 8.757-4.974 3.471 1.315 0.926 3.71-2.592 0.010 0.012 1.265-0.887zM16 32c-8.837 0-16-7.163-16-16s7.163-16 16-16 16 7.163 16 16-7.163 16-16 16z"></path>
</svg>
