<!-- Generated by IcoMoon.io -->
<svg version="1.1" xmlns="http://www.w3.org/2000/svg" width="32" height="32" viewBox="0 0 32 32">
<title>mana</title>
<path fill="#fff" d="M16 32c-8.837 0-16-7.163-16-16s7.163-16 16-16 16 7.163 16 16-7.163 16-16 16zM16 5c-6.061 0-11 4.939-11 11s4.939 11 11 11 11-4.939 11-11-4.939-11-11-11zM24.855 14.889l-0.946 0.165-1.364-1.892h-0.44c0.271-0.506 0.429-1.106 0.429-1.744 0-2.073-1.679-3.753-3.751-3.756h-0c-2.068 0-3.762 1.672-3.762 3.74 0 1.716 1.166 3.168 2.739 3.619l-0.055 0.055-0.539 0.275-0.88-0.319-0.869-0.506-1.221 1.54-0.979-0.539-1.881 0.484-0.946-3.102h-2.31l-1.683 2.948-0.517 0.011c0.066-5.522 4.587-9.988 10.12-9.988 5.577 0 10.12 4.543 10.12 10.12v0.319l-1.265-1.43zM16 26.12c-4.301 0-7.986-2.695-9.449-6.49 0.286 0 0.594 0.011 0.902 0.011 0.165 0.046 0.335 0.068 0.506 0.066 0.143 0 0.286-0.011 0.407-0.044 0.070-0.002 0.14 0.002 0.209 0.011-0.022 0.066-0.022 0.088-0.022 0.11 0 0.484 0.517 0.836 1.232 0.836 0.693 0 1.199-0.33 1.221-0.792l0.341 0.033c2.926 0.319 3.124 0.847 3.124 0.869 0.011 0.044-0.055 0.275-0.649 0.671-1.243 0.858-1.672 1.375-1.562 1.914 0.132 0.649 0.979 0.814 2.266 1.056 0.363 0.066 0.77 0.143 1.188 0.242 0.462 0.099 0.957 0.198 1.43 0.297 0.858 0.176 1.738 0.352 2.442 0.561-1.062 0.411-2.291 0.649-3.575 0.649-0.004 0-0.008 0-0.012 0h0.001zM20.708 24.954c-0.825-0.407-2.079-0.649-3.399-0.913-0.882-0.161-1.358-0.26-1.832-0.365l0.424 0.079c-0.248-0.063-0.661-0.148-1.078-0.221l-0.143-0.021c-0.594-0.11-1.309-0.253-1.54-0.385 0.077-0.121 0.319-0.407 1.177-0.99 0.308-0.209 1.243-0.847 0.99-1.661-0.231-0.759-1.43-1.221-3.872-1.485-0.22-0.022-0.451-0.044-0.693-0.066-0.121-0.363-0.297-0.88-0.55-1.628l-0.418-1.221-0.418 1.221c-0.143 0.407-0.253 0.737-0.352 1.023-0.11-0.352-0.308-0.924-0.649-1.914l-0.385-1.243-0.418 1.221c-0.572 1.672-0.737 2.167-0.781 2.354h-0.506c-0.166-0.577-0.291-1.255-0.349-1.952l-0.003-0.039 1.012-0.033 1.672-2.926h1.155l1.001 3.289 2.354-0.605 0.539 0.297-1.144 1.441 0.693 0.55 2.442-3.091 0.286 0.165 1.32 0.484 0.572-0.297c-0.11 0.231-0.176 0.484-0.176 0.748s0.165 0.825 1.419 1.034c0.399 0.065 0.692 0.41 0.693 0.814v1.43c-0.171-0.121-0.367-0.225-0.576-0.302l-0.017-0.006h0.011c-0.484-0.154-0.935-0.385-1.078-0.858-0.11 0.385-0.418 0.605-0.814 0.759-1.023 0.275-1.76 1.045-1.76 1.958 0 0.33 0.253 1.111 2.552 1.111 2.31 0 2.552-0.781 2.552-1.111v-1.727c0.154 0.055 0.33 0.099 0.539 0.132 0.399 0.065 0.692 0.41 0.693 0.814v0.99c0 0.231 0.165 0.44 0.396 0.462 0.011 0.001 0.025 0.002 0.038 0.002 0.245 0 0.444-0.197 0.446-0.441v-1.012c0.001-0.409 0.298-0.747 0.688-0.813l0.005-0.001c1.254-0.209 1.419-0.759 1.419-1.034 0-0.737-0.484-1.375-1.199-1.738h0.011c-0.011 0-0.022-0.011-0.044-0.011-0.121-0.066-0.264-0.11-0.396-0.154-0.198-0.095-0.364-0.229-0.493-0.393l-0.002-0.003c-0.055-0.781-0.638-1.441-1.474-1.76h-0.011c-0.055-0.022-0.11-0.033-0.165-0.055-0.418-0.154-0.781-0.385-0.902-0.792-0.132 0.451-0.517 0.682-1.012 0.836-0.033 0.011-0.077 0.022-0.11 0.044l1.375-1.463 0.825 1.111 0.66-0.528h0.165l1.43 1.969 1.012-0.176 1.485 1.683c-0.484 3.212-2.497 5.94-5.291 7.414zM19.74 21.533c-0.154 0.11-0.726 0.286-1.672 0.286s-1.518-0.176-1.672-0.286c0.044-0.616 0.792-1.122 1.672-1.122s1.628 0.506 1.672 1.122zM22.303 17.782c0.88 0 1.628 0.506 1.672 1.122-0.154 0.11-0.737 0.286-1.672 0.286s-1.518-0.176-1.672-0.286c0.044-0.616 0.792-1.122 1.672-1.122zM21.852 16.704c-0.154 0.11-0.737 0.286-1.672 0.286s-1.518-0.176-1.672-0.286c0.044-0.616 0.792-1.122 1.672-1.122s1.628 0.506 1.672 1.122zM21.181 12.975l-0.66-0.891-2.046 2.189c-1.447-0.163-2.562-1.38-2.562-2.857 0-1.586 1.284-2.872 2.87-2.874h0c1.585 0.001 2.87 1.286 2.871 2.871v0c-0.002 0.582-0.178 1.123-0.479 1.572l0.006-0.010zM9.499 19.696l0.297-0.891 0.297 0.891c-0.194 0.059-0.4 0.059-0.594 0zM7.684 18.761c0.066-0.198 0.165-0.517 0.286-0.858 0.121 0.352 0.231 0.671 0.286 0.869-0.198 0-0.385-0.011-0.572-0.011zM11.908 12.854c1.408-0.005 2.547-1.144 2.552-2.552v-0c-0.001-1.409-1.143-2.551-2.552-2.552h-0c-1.409 0.001-2.551 1.143-2.552 2.552v0c0.001 1.409 1.143 2.551 2.552 2.552h0zM11.908 8.63c0.913 0 1.672 0.748 1.672 1.672s-0.749 1.672-1.672 1.672-1.672-0.749-1.672-1.672c0-0.923 0.749-1.672 1.672-1.672v0z"></path>
</svg>
