<!-- Generated by IcoMoon.io -->
<svg version="1.1" xmlns="http://www.w3.org/2000/svg" width="32" height="32" viewBox="0 0 32 32">
<title>mco</title>
<path fill="#fff" d="M16 32c-8.837 0-16-7.163-16-16s7.163-16 16-16 16 7.163 16 16-7.163 16-16 16zM15.98 5.018h-0.066l-9.414 5.483v11l9.414 5.48 0.077 0.019 9.509-5.5v-10.999l-9.52-5.483zM15.949 6.156l1.031 0.572 7.52 4.35v9.845l-8.552 4.922-8.448-4.92v-9.849l8.449-4.92zM8.809 16.766l3.41 5.96h1.362l1.612-1.51v-0.756l-1.672-1.612v-2.54l-2.21-1.413-2.502 1.872zM16.712 21.218l1.61 1.491h1.344l3.393-5.942-2.496-1.889-2.187 1.43v2.54l-1.667 1.61 0.003 0.76zM14.342 16.308l-0.25 2.39 3.712-0.008-0.236-2.382 0.798-2.131h-4.838l0.813 2.131zM15.937 13.593l4.622 0.003-0.901-3.825h-7.464l-0.855 3.82 4.598 0.002z"></path>
</svg>
