<!-- Generated by IcoMoon.io -->
<svg version="1.1" xmlns="http://www.w3.org/2000/svg" width="32" height="32" viewBox="0 0 32 32">
<title>mft</title>
<path fill="#fff" d="M16 32c-8.837 0-16-7.163-16-16s7.163-16 16-16 16 7.163 16 16-7.163 16-16 16zM20.985 19.168c-1.671 0-3.026-1.355-3.026-3.026s1.355-3.026 3.026-3.026v0c1.671 0 3.026 1.355 3.026 3.026s-1.355 3.026-3.026 3.026v0zM20.985 9.163c-0.002 0-0.005 0-0.008 0-1.959 0-3.729 0.81-4.994 2.113l-0.002 0.002c1.223 1.252 1.977 2.966 1.977 4.857 0 0.003 0 0.005 0 0.008v-0c0 0.002 0 0.004 0 0.007 0 1.89-0.754 3.605-1.978 4.858l0.001-0.001c1.27 1.306 3.043 2.116 5.006 2.116 3.855 0 6.98-3.125 6.98-6.98s-3.125-6.98-6.98-6.98c-0.001 0-0.002 0-0.003 0h0zM10.98 19.168c-1.671 0-3.026-1.355-3.026-3.026s1.355-3.026 3.026-3.026v0c1.671 0 3.026 1.355 3.026 3.026s-1.355 3.026-3.026 3.026v0zM15.983 11.278c-1.27-1.306-3.043-2.116-5.006-2.116-3.855 0-6.98 3.125-6.98 6.98s3.125 6.98 6.98 6.98c1.963 0 3.736-0.81 5.005-2.114l0.002-0.002c-1.222-1.252-1.976-2.966-1.976-4.856 0-0.003 0-0.006 0-0.008v0c0-1.892 0.754-3.607 1.976-4.864zM14.006 16.143c0 1.892 0.754 3.607 1.977 4.864 1.222-1.252 1.976-2.966 1.976-4.856 0-0.003 0-0.006 0-0.009v0c0-0.002 0-0.005 0-0.008 0-1.89-0.754-3.604-1.977-4.857l0.001 0.001c-1.223 1.252-1.977 2.966-1.977 4.857 0 0.003 0 0.005 0 0.008v-0z"></path>
</svg>
