<!-- Generated by IcoMoon.io -->
<svg version="1.1" xmlns="http://www.w3.org/2000/svg" width="32" height="32" viewBox="0 0 32 32">
<title>music</title>
<path fill="#fff" d="M18.65 0.226c-0.796-0.142-1.713-0.224-2.648-0.226h-0.002c-8.84 0-16 7.16-16 16 0 3.394 1.067 6.53 2.86 9.131 1.1-1.616 3.637-2.731 6.578-2.731 2.020 0 3.847 0.533 5.156 1.39l4.056-23.564zM27.152 4.541c2.763 6.11 0.339 9.374 0.339 9.374-1.875-5.64-7.305-6.464-7.305-6.464s-3.572 19.248-3.572 19.49c0 2.085-2.214 3.847-5.22 4.38 1.378 0.43 2.963 0.678 4.606 0.679h0c8.84 0 16-7.16 16-16 0-4.493-1.859-8.55-4.848-11.459z"></path>
</svg>
