<!-- Generated by IcoMoon.io -->
<svg version="1.1" xmlns="http://www.w3.org/2000/svg" width="32" height="32" viewBox="0 0 32 32">
<title>nmc</title>
<path fill="#fff" d="M16 32c-8.837 0-16-7.163-16-16s7.163-16 16-16 16 7.163 16 16-7.163 16-16 16zM19.261 23.5l0.001-0.002c0.011 0 0.023 0 0.035 0 0.15 0 0.296-0.018 0.435-0.053l-0.012 0.003c0.876-0.205 1.617-0.97 1.793-1.796l3.487-13.096-2.772-0.014-2.286 8.568-6.18-8.597-0.004 0.004 0.003-0.010-1.021-0.006c-0.009-0-0.019-0-0.029-0-0.152 0-0.301 0.018-0.443 0.052l0.013-0.003c-0.875 0.206-1.616 0.971-1.793 1.796l-3.488 13.099 2.773 0.012 2.285-8.568 6.183 8.598 1.020 0.013zM12.668 12.606l0.483-1.81 6.181 8.599-0.483 1.81-6.18-8.6z"></path>
</svg>
