<!-- Generated by IcoMoon.io -->
<svg version="1.1" xmlns="http://www.w3.org/2000/svg" width="32" height="32" viewBox="0 0 32 32">
<title>omni</title>
<path fill="#fff" d="M16 32c-8.837 0-16-7.163-16-16s7.163-16 16-16 16 7.163 16 16-7.163 16-16 16zM10.065 6.888h-3.19v3.196c0.843-1.284 1.908-2.351 3.149-3.171l0.041-0.025zM25.069 9.998v-3.11h-3.134c1.255 0.827 2.299 1.863 3.109 3.071l0.025 0.039zM21.981 25.082h3.088v-3.080c-0.825 1.232-1.854 2.258-3.048 3.055l-0.040 0.025zM6.875 21.916v3.166h3.144c-1.262-0.841-2.311-1.897-3.119-3.125l-0.025-0.041zM26 16c0-5.514-4.486-10-10-10s-10 4.486-10 10 4.486 10 10 10 10-4.486 10-10zM16 23.292c-4.020 0-7.292-3.271-7.292-7.292 0-4.020 3.271-7.292 7.292-7.292 4.020 0 7.292 3.271 7.292 7.292 0 4.020-3.271 7.292-7.292 7.292z"></path>
</svg>
