<!-- Generated by IcoMoon.io -->
<svg version="1.1" xmlns="http://www.w3.org/2000/svg" width="32" height="32" viewBox="0 0 32 32">
<title>pasl</title>
<path fill="#fff" d="M16 32c-8.837 0-16-7.163-16-16s7.163-16 16-16 16 7.163 16 16-7.163 16-16 16zM15.080 20.156l-2.796 1.16 0.153-0.839 2.097-0.87c0.187-0.080 0.316-0.262 0.316-0.475 0-0.071-0.014-0.138-0.040-0.199l0.001 0.003c-0.078-0.188-0.26-0.318-0.473-0.318-0.070 0-0.137 0.014-0.198 0.040l0.003-0.001-1.487 0.618 0.283-1.556h5.275c4.583 0 7.285-2.858 7.285-6.553 0-2.913-2.073-4.298-6.22-4.155h-6.773l-2.398 13.321-3.293 1.367c-0.187 0.080-0.316 0.262-0.316 0.475 0 0.071 0.014 0.138 0.040 0.199l-0.001-0.003c0.078 0.188 0.26 0.318 0.473 0.318 0.070 0 0.137-0.014 0.198-0.040l-0.003 0.001 2.687-1.116-0.15 0.839-1.99 0.825c-0.187 0.080-0.316 0.262-0.316 0.475 0 0.071 0.014 0.138 0.040 0.199l-0.001-0.003c0.078 0.189 0.26 0.319 0.473 0.319 0.070 0 0.138-0.014 0.199-0.040l-0.003 0.001 1.382-0.574-0.257 1.426h2.344l0.452-2.48 3.406-1.414c0.187-0.080 0.316-0.262 0.316-0.475 0-0.071-0.014-0.138-0.040-0.199l0.001 0.003c-0.078-0.188-0.26-0.318-0.473-0.318-0.070 0-0.137 0.014-0.198 0.040l0.003-0.001zM14.51 9.109h5.154c2.556 0 3.323 1.070 3.323 2.656 0 1.584-1.22 3.769-4.43 3.769h-5.219z"></path>
</svg>
