<!-- Generated by IcoMoon.io -->
<svg version="1.1" xmlns="http://www.w3.org/2000/svg" width="32" height="32" viewBox="0 0 32 32">
<title>poa</title>
<path fill="#fff" d="M16 32c-8.837 0-16-7.163-16-16s7.163-16 16-16 16 7.163 16 16-7.163 16-16 16zM5 24h22l-11-19zM11.872 14.324l4.128-7.13 4.128 7.13c-1.285-0.858-2.663-1.291-4.128-1.291s-2.843 0.433-4.128 1.291zM9.921 17.694c1.81 1.99 3.843 3 6.079 3s4.27-1.010 6.080-3l2.996 5.177h-18.152zM16 19.565c-1.938 0-3.711-0.89-5.338-2.7 1.627-1.813 3.4-2.702 5.338-2.702s3.711 0.89 5.338 2.701c-1.627 1.812-3.4 2.702-5.338 2.702zM16 19.082c1.16 0 2.101-0.975 2.101-2.178s-0.94-2.177-2.101-2.177-2.101 0.975-2.101 2.177c0 1.203 0.94 2.178 2.101 2.178zM16 17.952c-0.559 0-1.012-0.469-1.012-1.048s0.453-1.048 1.012-1.048 1.012 0.47 1.012 1.048c0 0.58-0.453 1.049-1.012 1.049z"></path>
</svg>
