<!-- Generated by IcoMoon.io -->
<svg version="1.1" xmlns="http://www.w3.org/2000/svg" width="32" height="32" viewBox="0 0 32 32">
<title>pura</title>
<path fill="#fff" d="M16 32c-8.837 0-16-7.163-16-16s7.163-16 16-16 16 7.163 16 16-7.163 16-16 16zM11.192 8c0.245 1.016 0.744 2.109 1.854 2.42 2.444 0.51 5.071-0.33 7.45 0.593 2.33 0.973 2.246 4.832-0.066 5.776-1.576 0.64-3.32 0.387-4.98 0.43-1.1 0.040-2.382-0.202-3.287 0.576-0.773 0.586-0.92 1.595-0.883 2.496 0.058 3.26 0.216 4.709 0.216 4.709s1.715-0.644 2.089-1.183c0.93-1.128 0.557-2.68 0.63-4.015 2.708-0.115 5.658 0.442 8.124-0.969 2.674-1.49 3.264-5.162 2.077-7.773-0.949-2.050-3.312-2.933-5.46-3.060h-7.764zM7 12.43v0.62c0.363 1.124 1.29 2.144 2.546 2.217 2.045 0.090 4.094 0.014 6.138 0.025-0.154-1.364-1.121-2.698-2.594-2.81-2.026-0.123-4.060-0.015-6.090-0.051z"></path>
</svg>
