<!-- Generated by IcoMoon.io -->
<svg version="1.1" xmlns="http://www.w3.org/2000/svg" width="32" height="32" viewBox="0 0 32 32">
<title>qtum</title>
<path fill="#fff" d="M25.313 23.636c-0.094 0.168-0.15 0.368-0.15 0.581 0 0 0 0.001 0 0.001v-0c0 0.656 0.524 1.188 1.169 1.188s1.168-0.532 1.168-1.188c0-0.656-0.523-1.188-1.168-1.188-0 0-0.001 0-0.002 0-0.298 0-0.569 0.113-0.773 0.299l0.001-0.001-1.917-1.707 1.497-4.83c0.006 0 0.012 0 0.019 0 0.434 0 0.786-0.352 0.786-0.786 0-0.002 0-0.004-0-0.007v0c0-0.002 0-0.003 0-0.005 0-0.434-0.352-0.786-0.786-0.786-0.016 0-0.032 0-0.047 0.001l0.002-0-1.276-4.188c0.215-0.145 0.354-0.387 0.354-0.661 0-0.001 0-0.002 0-0.004v0c0-0.002 0-0.004 0-0.006 0-0.431-0.347-0.781-0.778-0.786h-0c-0.209 0-0.398 0.083-0.536 0.218l0-0-3.55-2.61c0.059-0.109 0.094-0.239 0.094-0.376 0-0.001 0-0.003 0-0.004v0c0-0.002 0-0.004 0-0.006 0-0.431-0.347-0.781-0.778-0.786h-0c-0.381 0.002-0.698 0.277-0.765 0.639l-0.001 0.005h-4.31c-0.068-0.367-0.384-0.641-0.765-0.644h-0c-0.431 0.004-0.779 0.354-0.779 0.786 0 0.002 0 0.004 0 0.006v-0c0 0 0 0 0 0 0 0.146 0.039 0.284 0.108 0.402l-0.002-0.004-3.573 2.58c-0.137-0.128-0.321-0.206-0.524-0.206-0 0-0 0-0 0v0c-0.431 0.004-0.779 0.354-0.779 0.786 0 0.002 0 0.004 0 0.006v-0c0 0.302 0.166 0.564 0.41 0.698l-1.282 4.16c-0.028-0.004-0.061-0.006-0.094-0.006-0.434 0-0.786 0.352-0.786 0.786 0 0.002 0 0.004 0 0.006v-0c-0 0.002-0 0.005-0 0.007 0 0.434 0.352 0.786 0.786 0.786 0.024 0 0.048-0.001 0.072-0.003l-0.003 0 1.303 4.16c-0.244 0.139-0.406 0.397-0.406 0.693 0 0.001 0 0.002 0 0.002v-0c0 0.437 0.349 0.792 0.779 0.792 0.199-0 0.38-0.076 0.517-0.201l-0.001 0.001 3.546 2.641c-0.044 0.096-0.070 0.209-0.070 0.327 0 0.001 0 0.002 0 0.003v-0c0 0.438 0.348 0.793 0.778 0.793 0.38 0 0.697-0.277 0.765-0.644h4.31c0.068 0.367 0.385 0.642 0.766 0.644h0c0.43 0 0.778-0.355 0.778-0.792 0-0 0-0.001 0-0.001 0-0.12-0.027-0.234-0.074-0.337l0.002 0.005 3.992-2.995 1.973 1.756zM18.708 24.419c-0.020-0.002-0.043-0.003-0.066-0.003-0.106 0-0.207 0.021-0.299 0.060l0.005-0.002-2.047-2.895c0.095-0.107 0.162-0.242 0.187-0.39l0.001-0.005 3.45-0.502c0.047 0.157 0.136 0.289 0.255 0.387l0.001 0.001-1.487 3.349zM19.101 24.569c-0.006-0.005-0.014-0.011-0.022-0.016l-0.003-0.002 1.473-3.316c0.041 0.008 0.089 0.012 0.137 0.012 0.251 0 0.474-0.12 0.614-0.305l0.001-0.002 1.668 0.726-3.87 2.902zM18.036 24.71c-0.057 0.071-0.102 0.154-0.132 0.244l-0.002 0.006h-4.362c-0.031-0.096-0.077-0.179-0.135-0.252l0.001 0.002 2.060-2.912c0.076 0.028 0.163 0.044 0.255 0.044s0.179-0.016 0.26-0.045l-0.005 0.002 2.060 2.912zM24.764 16.68l-1.226 3.956-0.266-3.886c0.311-0.111 0.529-0.403 0.529-0.746 0-0.001 0-0.003 0-0.004v0c0-0.001 0-0.002 0-0.004 0-0.345-0.221-0.639-0.529-0.747l-0.006-0.002 0.27-3.875 1.206 3.961c-0.216 0.144-0.357 0.387-0.357 0.663 0 0.001 0 0.002 0 0.003v-0c0 0.289 0.152 0.542 0.38 0.68zM22.51 15.403c-0.164 0.146-0.267 0.359-0.267 0.595 0 0.001 0 0.002 0 0.002v-0c0 0.227 0.095 0.432 0.246 0.577l-1.62 3.109c-0.055-0.014-0.119-0.022-0.184-0.022-0.044 0-0.088 0.004-0.13 0.011l0.005-0.001-1.434-3.053c0.181-0.147 0.295-0.369 0.295-0.619 0-0.001 0-0.002 0-0.003v0c0-0.001 0-0.001 0-0.002 0-0.245-0.111-0.464-0.285-0.61l-0.001-0.001 1.392-3.067c0.048 0.011 0.103 0.017 0.159 0.017 0.086 0 0.169-0.014 0.246-0.040l-0.005 0.002 1.584 3.105zM22.884 16.78l0.311 4.554-1.74-0.758c0.006-0.037 0.009-0.079 0.009-0.122 0-0.229-0.097-0.436-0.252-0.581l-0-0 1.618-3.105c0.013 0.004 0.031 0.008 0.049 0.011l0.005 0.001zM22.878 15.222c-0.011 0.001-0.018 0.002-0.024 0.004l0.004-0.001-1.603-3.14c0.13-0.141 0.21-0.331 0.21-0.539 0-0.055-0.006-0.109-0.016-0.161l0.001 0.005 1.338-0.559c0.094 0.127 0.222 0.223 0.371 0.275l0.005 0.002-0.286 4.114zM18.77 16.782l1.433 3.052c-0.138 0.112-0.237 0.267-0.277 0.445l-0.001 0.005-3.468 0.504c-0.034-0.098-0.084-0.182-0.146-0.255l0.001 0.001 2.123-3.77c0.062 0.018 0.132 0.028 0.205 0.028 0.046 0 0.091-0.004 0.134-0.012l-0.005 0.001zM18.78 15.221c-0.042-0.008-0.090-0.013-0.14-0.013-0.080 0-0.158 0.012-0.231 0.035l0.005-0.001-2.139-3.835c0.068-0.070 0.124-0.154 0.162-0.246l0.002-0.005 3.475 0.505c0.029 0.194 0.124 0.361 0.261 0.482l0.001 0.001-1.396 3.077zM18.098 16.567l-2.106 3.74c-0.080-0.031-0.173-0.049-0.271-0.049-0.071 0-0.14 0.010-0.205 0.028l0.005-0.001-2.17-3.725c0.141-0.143 0.228-0.34 0.228-0.558 0-0 0-0.001 0-0.001v0c0-0.21-0.080-0.401-0.212-0.543l2.207-3.827c0.044 0.009 0.094 0.014 0.145 0.014 0.079 0 0.156-0.012 0.228-0.034l-0.005 0.001 2.14 3.838c-0.136 0.143-0.22 0.336-0.22 0.55 0 0 0 0.001 0 0.001v-0c0 0.222 0.090 0.423 0.236 0.567zM6.721 16.652c0.205-0.146 0.337-0.382 0.337-0.65 0-0.001 0-0.002 0-0.002v0c0-0.001 0-0.001 0-0.002 0-0.258-0.123-0.487-0.313-0.632l-0.002-0.001 1.223-3.975 0.303 3.834c-0.361 0.078-0.627 0.394-0.627 0.772 0 0.002 0 0.003 0 0.005v-0c0 0.38 0.263 0.698 0.614 0.774l-0.293 3.844-1.242-3.966zM10.609 19.678l-1.65-3.106c0.148-0.145 0.24-0.346 0.24-0.57 0-0.001 0-0.002 0-0.002v0c0-0.001 0-0.001 0-0.002 0-0.23-0.097-0.436-0.253-0.582l-0-0 1.679-3.090c0.039 0.007 0.084 0.011 0.13 0.011 0.057 0 0.113-0.006 0.167-0.018l-0.005 0.001 1.392 3.066c-0.176 0.147-0.287 0.367-0.287 0.612 0 0.001 0 0.001 0 0.002v-0c0 0.256 0.12 0.484 0.305 0.629l-1.37 3.060c-0.059-0.016-0.127-0.026-0.198-0.026-0.053 0-0.105 0.005-0.155 0.016l0.005-0.001zM10.933 21.228l1.439 3.319c-0.013 0.009-0.024 0.017-0.034 0.024l0.002-0.001-3.575-2.662c0.029-0.079 0.045-0.17 0.045-0.266 0-0.035-0.002-0.070-0.007-0.103l0 0.004 1.349-0.588c0.143 0.179 0.36 0.292 0.605 0.292 0.062 0 0.123-0.007 0.181-0.021l-0.005 0.001zM9.99 20.595l-1.33 0.58c-0.084-0.115-0.195-0.205-0.325-0.261l-0.005-0.002 0.314-4.1 1.613 3.036c-0.172 0.147-0.28 0.364-0.28 0.606 0 0.050 0.005 0.099 0.013 0.146l-0.001-0.005zM11.52 20.296c-0.033-0.162-0.112-0.303-0.223-0.411l-0-0 1.39-3.101c0.034 0.005 0.073 0.008 0.113 0.008 0.078 0 0.152-0.011 0.223-0.033l-0.005 0.001 2.165 3.717c-0.087 0.085-0.154 0.189-0.195 0.306l-0.002 0.006-3.465-0.494zM11.5 20.693l3.454 0.493c0.025 0.15 0.092 0.285 0.188 0.393l-2.048 2.895c-0.087-0.037-0.187-0.058-0.293-0.058-0.021 0-0.042 0.001-0.063 0.003l0.003-0-1.463-3.374c0.101-0.093 0.178-0.211 0.22-0.344l0.002-0.006zM9.997 11.371c-0.012 0.051-0.018 0.11-0.018 0.171 0 0.249 0.112 0.471 0.289 0.619l0.001 0.001-1.616 2.976-0.32-4.051c0.137-0.060 0.249-0.153 0.331-0.27l0.002-0.002 1.33 0.556zM10.947 10.776c-0.057-0.015-0.123-0.024-0.191-0.024-0.232 0-0.44 0.103-0.58 0.265l-0.001 0.001-1.37-0.573c0.003-0.027 0.005-0.057 0.005-0.088 0-0.091-0.015-0.179-0.043-0.26l0.002 0.006 3.553-2.566-1.375 3.24zM11.529 11.649l3.471-0.495c0.049 0.12 0.125 0.224 0.221 0.306l-2.182 3.786c-0.071-0.024-0.153-0.038-0.238-0.038-0.050 0-0.098 0.005-0.145 0.014l0.005-0.001-1.396-3.077c0.141-0.124 0.237-0.297 0.263-0.491l0-0.004zM11.289 10.967l1.438-3.386c0.022 0.002 0.047 0.003 0.072 0.003 0.115 0 0.225-0.025 0.323-0.070l-0.005 0.002 1.99 2.848c-0.085 0.11-0.143 0.246-0.16 0.394l-0 0.004-3.465 0.494c-0.044-0.113-0.109-0.21-0.192-0.289l-0-0zM20.612 10.756l-1.471-3.232 3.528 2.594c-0.023 0.071-0.036 0.154-0.036 0.239 0 0.038 0.003 0.076 0.008 0.112l-0-0.004-1.36 0.568c-0.143-0.172-0.356-0.28-0.595-0.28-0.026 0-0.051 0.001-0.076 0.004l0.003-0zM19.956 11.266l-3.46-0.502c-0.017-0.153-0.074-0.289-0.161-0.402l0.001 0.002 1.99-2.848c0.093 0.043 0.201 0.068 0.315 0.068 0.033 0 0.066-0.002 0.099-0.006l-0.004 0 1.51 3.313c-0.131 0.092-0.232 0.221-0.288 0.371l-0.002 0.005zM18.020 7.27l-1.994 2.853c-0.090-0.040-0.195-0.063-0.305-0.063s-0.215 0.023-0.31 0.065l0.005-0.002-1.994-2.853c0.050-0.066 0.090-0.142 0.117-0.224l0.002-0.006h4.36c0.029 0.088 0.070 0.164 0.121 0.232l-0.001-0.002zM16 32c-8.837 0-16-7.163-16-16s7.163-16 16-16 16 7.163 16 16-7.163 16-16 16z"></path>
</svg>
