<!-- Generated by IcoMoon.io -->
<svg version="1.1" xmlns="http://www.w3.org/2000/svg" width="32" height="32" viewBox="0 0 32 32">
<title>req</title>
<path fill="#fff" d="M16 0c8.837 0 16 7.163 16 16s-7.163 16-16 16-16-7.163-16-16 7.163-16 16-16zM23.073 7.5h-12.777c-1.033 0-1.796 0.78-1.796 1.846v13.33c-0 0.007-0 0.015-0 0.022 0 0.885 0.678 1.612 1.543 1.69l0.007 0 0.17 0.006c0.008 0 0.018 0 0.028 0 0.933 0 1.69-0.757 1.69-1.69 0-0.010-0-0.020-0-0.030l0 0.002v-11.888l8.498-0.001-5.022 5.012c-0.308 0.306-0.499 0.729-0.499 1.198s0.191 0.892 0.499 1.197l0 0 5.735 5.717c0.304 0.297 0.721 0.481 1.181 0.481 0.933 0 1.689-0.756 1.689-1.689 0-0.462-0.186-0.881-0.487-1.186l0 0-4.538-4.523 4.24-4.227c0.32-0.317 0.498-0.748 0.497-1.197l0.007-3.417c-0.001-0.183-0.073-0.348-0.19-0.47l0 0-0.003 0.002-0.075-0.063c-0.106-0.077-0.238-0.123-0.382-0.123-0.005 0-0.010 0-0.015 0h0.001z"></path>
</svg>
