<!-- Generated by IcoMoon.io -->
<svg version="1.1" xmlns="http://www.w3.org/2000/svg" width="32" height="32" viewBox="0 0 32 32">
<title>rhoc</title>
<path fill="#fff" d="M16 32c-8.837 0-16-7.163-16-16s7.163-16 16-16 16 7.163 16 16-7.163 16-16 16zM11.816 9.24c-0.7-0.93-1.782-1.6-2.963-1.648-1.232-0.072-2.446 0.513-3.251 1.429-0.61 0.703-0.901 1.635-0.912 2.557-0.003 0.901-0.004 1.969-0.004 3.037 0 0.792 0.001 1.583 0.003 2.375l-0-0.122c-0.020 0.234 0.19 0.398 0.411 0.373 4.992 0.014 9.986-0.016 14.978 0.016-0.005 0.225-0.008 0.491-0.008 0.757 0 0.884 0.031 1.761 0.091 2.63l-0.007-0.117c-1.424 1.036-3.092 1.767-4.836 2.039-0.227 0.051-0.61-0.010-0.66 0.302-0.021 0.585-0.002 1.173-0.009 1.759-0.033 0.206 0.128 0.417 0.343 0.414 2.221-0.182 4.224-0.986 5.872-2.235l-0.028 0.020c0.624 0.81 1.515 1.45 2.544 1.604 1.455 0.259 2.984-0.443 3.854-1.612 0.55-0.744 0.745-1.686 0.741-2.596-0.005-1.675 0.015-3.35-0.010-5.023 0.019-0.266-0.231-0.401-0.468-0.38-4.976-0.010-9.952 0.005-14.926-0.009-0.030-0.985 0.043-1.974-0.064-2.956-0.011-0.136-0.043-0.323 0.1-0.404 1.525-1.042 3.28-1.796 5.125-2 0.2-0.005 0.292-0.23 0.278-0.404 0-0.56 0.014-1.122-0.006-1.681 0.007-0.234-0.223-0.368-0.435-0.326-2.076 0.17-4.088 0.953-5.753 2.201zM6.7 11.882c0.024-0.942 0.886-1.77 1.833-1.732 0.97-0.018 1.843 0.835 1.862 1.801 0.020 1.008 0.008 2.015 0.006 3.023-1.233 0.027-2.465 0.009-3.699 0.010-0.003-0.541-0.004-1.18-0.004-1.82 0-0.451 0.001-0.901 0.002-1.352l-0 0.070zM22.409 17.172c1.232-0.003 2.464-0.007 3.696 0.002 0.010 0.985 0.004 1.97 0.004 2.955 0.008 0.75-0.463 1.497-1.175 1.761-0.773 0.299-1.717 0.003-2.19-0.674-0.213-0.297-0.34-0.667-0.34-1.067 0-0.011 0-0.021 0-0.032l-0 0.002c0.003-0.982-0.004-1.965 0.005-2.948z"></path>
</svg>
