<!-- Generated by IcoMoon.io -->
<svg version="1.1" xmlns="http://www.w3.org/2000/svg" width="32" height="32" viewBox="0 0 32 32">
<title>rise</title>
<path fill="#fff" d="M16 32c-8.837 0-16-7.163-16-16s7.163-16 16-16 16 7.163 16 16-7.163 16-16 16zM12.605 9.155c0.858 0 1.553-0.706 1.553-1.577s-0.695-1.578-1.553-1.578c-0.857 0-1.552 0.706-1.552 1.578s0.695 1.577 1.552 1.577zM19.447 26c0.858 0 1.553-0.706 1.553-1.578 0-0.87-0.695-1.577-1.553-1.577-0.857 0-1.552 0.706-1.552 1.577 0 0.872 0.695 1.578 1.552 1.578zM13.242 14.21l7.158-5.56c0.335-0.265 0.548-0.671 0.548-1.126 0-0.325-0.108-0.624-0.29-0.864l0.003 0.004c-0.254-0.339-0.655-0.556-1.107-0.556-0.321 0-0.616 0.11-0.851 0.293l0.003-0.002-7.157 5.562c-0.335 0.265-0.548 0.671-0.548 1.126 0 0.324 0.108 0.623 0.289 0.863l-0.003-0.004c0.254 0.339 0.655 0.556 1.107 0.556 0.321 0 0.616-0.11 0.851-0.293l-0.003 0.002zM13.295 19.879l7.157-5.562c0.335-0.265 0.548-0.671 0.548-1.126 0-0.324-0.108-0.623-0.289-0.863l0.003 0.004c-0.254-0.339-0.655-0.556-1.107-0.556-0.321 0-0.616 0.11-0.851 0.293l0.003-0.002-7.158 5.562c-0.335 0.265-0.548 0.671-0.548 1.126 0 0.325 0.108 0.624 0.29 0.864l-0.003-0.004c0.254 0.339 0.655 0.556 1.107 0.556 0.321 0 0.616-0.11 0.851-0.293l-0.003 0.002zM13.295 25.708l7.157-5.562c0.335-0.265 0.548-0.671 0.548-1.126 0-0.324-0.108-0.623-0.289-0.863l0.003 0.004c-0.254-0.339-0.655-0.556-1.107-0.556-0.321 0-0.616 0.11-0.851 0.293l0.003-0.002-7.158 5.562c-0.335 0.265-0.548 0.671-0.548 1.126 0 0.325 0.108 0.624 0.29 0.864l-0.003-0.004c0.254 0.339 0.655 0.556 1.107 0.556 0.321 0 0.616-0.11 0.851-0.293l-0.003 0.002z"></path>
</svg>
