<!-- Generated by IcoMoon.io -->
<svg version="1.1" xmlns="http://www.w3.org/2000/svg" width="32" height="32" viewBox="0 0 32 32">
<title>sky</title>
<path fill="#fff" d="M16 32c-8.837 0-16-7.163-16-16s7.163-16 16-16 16 7.163 16 16-7.163 16-16 16zM24.027 12.803c-0.483-0.263-1.044-0.46-1.638-0.56l-0.032-0.004-5.065 11.261h1.923l4.812-10.697zM15.607 6.519c-2.853 0.209-5.108 2.653-5.108 5.648-3.037 0-5.499 2.535-5.499 5.666 0 2.286 1.316 4.249 3.204 5.145l7.403-16.459zM21.501 12.167c0-1.060-0.287-2.049-0.78-2.897l-6.401 14.23h2.083l5.099-11.333zM23.395 23.149c2.105-0.799 3.605-2.875 3.605-5.313 0-0.683-0.123-1.335-0.339-1.943l-3.266 7.256zM24.837 13.335l-4.572 10.165h1.236c0.178 0 0.36-0.010 0.536-0.028l3.986-8.858c-0.334-0.494-0.726-0.916-1.174-1.271l-0.012-0.009zM16.020 6.5l-7.477 16.623c0.607 0.24 1.266 0.377 1.956 0.377h0.28l7.431-16.519c-0.643-0.302-1.395-0.479-2.189-0.481h-0.001zM20.287 8.618c-0.443-0.564-0.979-1.032-1.588-1.389l-0.026-0.014-7.327 16.285h2.246l6.695-14.882z"></path>
</svg>
