<!-- Generated by IcoMoon.io -->
<svg version="1.1" xmlns="http://www.w3.org/2000/svg" width="32" height="32" viewBox="0 0 32 32">
<title>slr</title>
<path fill="#fff" d="M16 32c-8.837 0-16-7.163-16-16s7.163-16 16-16 16 7.163 16 16-7.163 16-16 16zM11.921 22l-1.513 1.576c1.048 1.333 2.792 2.424 4.423 2.424 3.99 0 5.935-2.652 5.935-5.635 0-2.838-1.456-4.415-4.318-5.677-2.334-1.032-3.363-1.92-3.363-3.728 0-1.319 0.88-2.896 3.188-2.896 1.532 0 2.195 0.865 2.747 1.209l1.397-1.455c-0.582-0.727-2.337-1.818-4.069-1.818-3.288 0-5.472 2.236-5.472 5.247 0 2.724 1.707 4.359 4.468 5.477 2.284 1.004 3.188 2.036 3.188 3.842 0 1.95-1.305 3.298-3.54 3.298-1.506 0-2.954-1.5-3.070-1.864zM13.783 11.697s5.819-0.849 5.703 4.121c0 0 0.698 0.243 1.396 1.576 0 0 1.63-8.606-7.215-7.151 0 0-0.233 0.727 0.116 1.454zM17.74 19.576s-6.399 1.333-6.21-4.433c0 0-0.663-0.331-1.197-1.744 0.002 0-2.718 9.207 7.353 7.909 0 0 0.405-0.883 0.054-1.732z"></path>
</svg>
