<!-- Generated by IcoMoon.io -->
<svg version="1.1" xmlns="http://www.w3.org/2000/svg" width="32" height="32" viewBox="0 0 32 32">
<title>stak</title>
<path fill="#fff" d="M16 32c-8.837 0-16-7.163-16-16s7.163-16 16-16 16 7.163 16 16-7.163 16-16 16zM16.566 5c0.181 1.472 0.26 2.966 0.385 4.438 0.072 0.445 0.11 0.896 0.113 1.347l3.827 3.815c-1.676 2.4-3.397 4.789-5.072 7.2 0.17 1.925 0.317 3.85 0.51 5.774l11.57-16.393h-5.14c-2.060-2.060-4.11-4.132-6.182-6.181h-0.011zM4.011 21.46h-0.011v0.046c1.72-0.034 3.442 0 5.162-0.023l6.147 6.159h0.023c-0.192-1.936-0.34-3.884-0.51-5.808-1.279-1.257-2.535-2.536-3.792-3.792 1.687-2.4 3.385-4.778 5.072-7.19l-0.487-5.795c-3.872 5.468-7.72 10.947-11.604 16.403z"></path>
</svg>
