<!-- Generated by IcoMoon.io -->
<svg version="1.1" xmlns="http://www.w3.org/2000/svg" width="32" height="32" viewBox="0 0 32 32">
<title>strat</title>
<path fill="#fff" d="M16 32c-8.837 0-16-7.163-16-16s7.163-16 16-16 16 7.163 16 16-7.163 16-16 16zM6.047 15.454l-0.008-1.737 9.642 5.659c0.228 0.134 0.51 0.135 0.74 0.001l10.211-5.944c0.221-0.132 0.367-0.37 0.367-0.641 0-0.27-0.144-0.506-0.359-0.637l-0.003-0.002-10.212-6.050c-0.107-0.064-0.236-0.103-0.374-0.103s-0.268 0.038-0.379 0.105l0.003-0.002-10.42 6.236c-0.155 0.094-0.256 0.262-0.256 0.453 0 0.031 0.003 0.062 0.008 0.092l-0-0.003c-0.004 0.028-0.007 0.061-0.007 0.095 0 0.001 0 0.002 0 0.003v-0 2.474c0 0.647 0.343 1.245 0.899 1.569l9.783 5.7c0.23 0.133 0.513 0.132 0.742-0.003l9.473-5.604v1.901l-9.847 5.878-10.263-6.033c-0.076-0.045-0.167-0.072-0.264-0.072-0.192 0-0.36 0.104-0.451 0.259l-0.001 0.003c-0.045 0.076-0.071 0.167-0.071 0.265 0 0.193 0.103 0.362 0.258 0.455l0.002 0.001 10.42 6.126c0.23 0.136 0.516 0.135 0.746-0.003l10.157-6.063c0.217-0.132 0.36-0.368 0.36-0.637 0-0 0-0 0-0v0-2.627c-0-0.408-0.331-0.739-0.739-0.739-0.136 0-0.263 0.037-0.372 0.101l0.003-0.002-9.785 5.79-9.627-5.61c-0.226-0.134-0.376-0.377-0.376-0.655v0zM16.053 18.374l-9.498-5.585 9.498-5.684 9.594 5.684-9.594 5.584z"></path>
</svg>
