<!-- Generated by IcoMoon.io -->
<svg version="1.1" xmlns="http://www.w3.org/2000/svg" width="32" height="32" viewBox="0 0 32 32">
<title>tpay</title>
<path fill="#fff" d="M16 32c-8.837 0-16-7.163-16-16s7.163-16 16-16 16 7.163 16 16-7.163 16-16 16zM15.995 27.228c-6.198 0-11.223-5.025-11.223-11.223s5.025-11.223 11.223-11.223 11.223 5.025 11.223 11.223-5.025 11.223-11.223 11.223zM15.995 4.067c-6.583 0-11.938 5.355-11.938 11.938s5.355 11.938 11.938 11.938 11.938-5.355 11.938-11.938-5.355-11.938-11.938-11.938zM20.199 20.275l-0.623 2.699-0.15 0.653-4.129-0.002c-1.381-0.023-2.465-0.39-3.176-1.038 0.614 1.083 1.918 1.71 3.738 1.74l4.128 0.002 0.151-0.653 0.623-2.699-0.486-1.031-0.076 0.329zM19.116 8.704l-0.492-1.023-0.070 0.32-0.467 2.127h0.716l0.313-1.424zM21.603 11.164l-0.62 2.626-0.154 0.648h-3.733l-0.948 4.328c-0.020 0.124-0.032 0.25-0.032 0.32 0 0.061 0.007 0.1 0.013 0.119 0.063 0.024 0.135 0.038 0.21 0.038 0.004 0 0.009-0 0.013-0h0.407l0.898-4.102h3.733l0.153-0.649 0.62-2.625-0.482-1.036-0.080 0.334zM12.341 14.438h-2.601l0.896 0.703h1.552l0.153-0.703zM16.434 20.086h-0.095c-0.724-0.019-1.066-0.396-1.066-1 0-0.144 0.024-0.335 0.048-0.478l1.098-5.012h3.744l0.62-2.625h-3.744l0.692-3.15h-3.054l-0.693 3.15h-3.314l-0.596 2.625h3.314l-1.29 5.895c-0.070 0.286-0.095 0.62-0.095 0.787 0 1.682 1.327 2.472 3.308 2.505l3.444 0.001 0.623-2.698h-2.944z"></path>
</svg>
