<!-- Generated by IcoMoon.io -->
<svg version="1.1" xmlns="http://www.w3.org/2000/svg" width="32" height="32" viewBox="0 0 32 32">
<title>ubq</title>
<path fill="#fff" d="M13.503 15.844l3.318-2.010v-8.834l-10.813 6.278v9.103l7.777 4.068-0.282-8.605zM18.497 16.119l-3.318 2.012v8.869l10.813-6.321v-9.103l-7.777-4.068 0.282 8.611zM16 32c-8.837 0-16-7.163-16-16s7.163-16 16-16 16 7.163 16 16-7.163 16-16 16z"></path>
<path fill="#fff" opacity="0.5" d="M18.215 7.508l7.777 4.068-7.493 4.593-0.284-8.661zM13.785 24.449l-7.777-4.068 7.493-4.594 0.284 8.662z"></path>
</svg>
