<!-- Generated by IcoMoon.io -->
<svg version="1.1" xmlns="http://www.w3.org/2000/svg" width="32" height="32" viewBox="0 0 32 32">
<title>usdt</title>
<path fill="#fff" d="M16 32c-8.837 0-16-7.163-16-16s7.163-16 16-16 16 7.163 16 16-7.163 16-16 16zM17.922 13.793v-2.366h5.414v-3.608h-14.741v3.608h5.414v2.365c-4.4 0.202-7.709 1.074-7.709 2.118s3.309 1.915 7.709 2.118v7.582h3.913v-7.584c4.393-0.202 7.694-1.073 7.694-2.116s-3.301-1.914-7.694-2.117zM17.922 17.383v-0.002c-0.11 0.008-0.677 0.042-1.942 0.042-1.010 0-1.721-0.030-1.971-0.042v0.003c-3.888-0.171-6.79-0.848-6.79-1.658 0-0.809 2.902-1.486 6.79-1.66v2.644c0.254 0.018 0.982 0.061 1.988 0.061 1.207 0 1.812-0.050 1.925-0.060v-2.643c3.88 0.173 6.775 0.85 6.775 1.658 0 0.81-2.895 1.485-6.775 1.657z"></path>
</svg>
