<!-- Generated by IcoMoon.io -->
<svg version="1.1" xmlns="http://www.w3.org/2000/svg" width="32" height="32" viewBox="0 0 32 32">
<title>xmr</title>
<path fill="#fff" d="M16 32c-8.837 0-16-7.163-16-16s7.163-16 16-16 16 7.163 16 16-7.163 16-16 16zM15.97 5.235c-0.002 0-0.004 0-0.006 0-5.973 0-10.816 4.843-10.816 10.816 0 0.003 0 0.006 0 0.008v-0c0 1.202 0.205 2.346 0.557 3.432h3.227v-9.094l7.040 7.040 7.040-7.040v9.094h3.226c0.35-1.024 0.554-2.203 0.558-3.43v-0.002c0-5.984-4.84-10.824-10.824-10.824zM14.358 19.020l-3.080-3.080v5.72h-4.547c1.906 3.11 5.338 5.192 9.24 5.192s7.362-2.082 9.24-5.192h-4.547v-5.72l-3.050 3.080-1.614 1.615-1.643-1.614z"></path>
</svg>
