<!-- Generated by IcoMoon.io -->
<svg version="1.1" xmlns="http://www.w3.org/2000/svg" width="32" height="32" viewBox="0 0 32 32">
<title>xpm</title>
<path fill="#fff" d="M16 32c-8.837 0-16-7.163-16-16s7.163-16 16-16 16 7.163 16 16-7.163 16-16 16zM24 15.562v-7.562h-3.455v7.475c0 3.313-2.854 3.153-2.854 3.153v-10.628h-3.47v10.628s-2.766 0.029-2.766-3.11v-7.518h-3.455v7.24c0 6.015 5.284 6.234 6.207 6.234v1.168h-2.123v1.562h2.127v1.796h3.48v-1.796h2.224v-1.562h-2.224v-1.152c2.883 0 6.309-1.504 6.309-5.927z"></path>
</svg>
