<!-- Generated by IcoMoon.io -->
<svg version="1.1" xmlns="http://www.w3.org/2000/svg" width="32" height="32" viewBox="0 0 32 32">
<title>yfii</title>
<path fill="#fff" d="M16 0c-8.8 0-16 7.2-16 16s7.2 16 16 16 16-7.2 16-16-7.2-16-16-16zM13.1 20.2c-0.9 0.4-2.6 1.1-5-0.3-1.2-0.8-2.3-2.3-2.1-4.8 0.1-1.3 1.8-4.4 5.4-3.8 0.6 0.1 1.4 0.4 1.6 0.5v0l-0.2-1.8 1.4-0.3 1 4.3-4.4 0.8-0.3-1.3 2.1-0.4c-0.5-0.3-1.1-0.4-1.7-0.4-0.8 0-1.5 0.3-2.1 0.7-1 0.9-1.1 1.3-1.3 2.3-0.2 0.9 0.1 3 2.5 3.6 1.5 0.3 2.7 0 4.3-1.9l1.7 0.2c-0.1-0.1-1.7 2.1-2.9 2.6zM9.6 16.7v-1.4h12.6v1.4h-12.6zM20.6 20.7c-0.7-0.1-1.6-0.4-1.6-0.4l0.4 1.7-1.4 0.3-1.1-4.2 4.4-0.9 0.3 1.3-2.1 0.5c0.5 0.3 1 0.4 1.6 0.4 0.8 0 1.6-0.3 2.2-0.8 1-0.9 1-1.3 1.2-2.3 0.1-0.9-0.2-3-2.6-3.6-1.6-0.3-2.7 0-4.2 2l-1.7-0.1c0 0 1.6-2.2 2.7-2.8 0.9-0.4 2.6-1.2 5 0.2 1.2 0.7 2.4 2.2 2.2 4.8 0 1.2-1.6 4.4-5.3 3.9z"></path>
</svg>
